<?xml version="1.0" encoding="utf-8"?>
<!-- Generator: Adobe Illustrator 16.0.4, SVG Export Plug-In . SVG Version: 6.00 Build 0)  -->
<!DOCTYPE svg PUBLIC "-//W3C//DTD SVG 1.1//EN" "http://www.w3.org/Graphics/SVG/1.1/DTD/svg11.dtd">
<svg version="1.1" id="_x39_007" xmlns="http://www.w3.org/2000/svg" xmlns:xlink="http://www.w3.org/1999/xlink" x="0px" y="0px"
	 width="187px" height="117.8px" viewBox="0 0 187 117.8" style="enable-background:new 0 0 187 117.8;" xml:space="preserve">
<style type="text/css">
<![CDATA[
	.st0{fill:#999999;}
	.st1{fill-rule:evenodd;clip-rule:evenodd;fill:#e5e5e5;}
]]>
</style>
<g>
	<g>
		<g>
			<path class="st1" d="M143.5,16.2c2.3,0,4.6,0.2,6.8,0.5l-1.1,4.8l9.4,3.3l1.9-5.1c15.1,6.6,25.6,21.6,25.7,39.2
				c0,9.6-3.1,18.5-8.4,25.6l-3.6-3.9l-7.5,7.2l3.7,4.4c-7.3,5.9-16.7,9.5-26.9,9.5c-18.1,0-33.5-11.2-39.8-27.1l5.7-1.8l-2.6-10.1
				l-5.7,1.5c-0.2-1.7-0.3-3.5-0.3-5.2C100.8,35.3,119.9,16.2,143.5,16.2z"/>
			<path class="st0" d="M143.5,102L143.5,102c-17.9,0-33.6-10.7-40.1-27.3l-0.1-0.4l5.8-1.8l-2.4-9.4l-5.8,1.5l-0.1-0.4
				c-0.2-1.7-0.3-3.5-0.3-5.3c0-23.8,19.3-43.1,43.1-43.1c2.3,0,4.6,0.2,6.9,0.5l0.4,0.1l-1.1,4.9l8.7,3.1l1.9-5.2l0.4,0.2
				c15.7,6.8,25.8,22.3,25.9,39.5c0,9.4-2.9,18.3-8.5,25.8l-0.3,0.4l-3.7-4l-7,6.7l3.7,4.4l-0.3,0.2C163,98.6,153.4,102,143.5,102z
				 M104.2,74.8c6.5,16.1,21.9,26.5,39.3,26.5c9.6,0,18.9-3.2,26.4-9.1l-3.7-4.3l8.1-7.7l3.6,3.9c5.3-7.3,8.1-15.9,8.1-25
				c-0.1-16.8-9.9-31.9-25.1-38.7l-1.9,5.1l-10-3.5l1-4.8c-2.1-0.3-4.2-0.5-6.4-0.5c-23.4,0-42.4,19-42.4,42.4
				c0,1.6,0.1,3.2,0.3,4.8l5.7-1.4l2.8,10.8L104.2,74.8z"/>
		</g>
		<g>
			<path class="st1" d="M143.5,89c16.6,0,30.1-13.5,30.1-30.1c0-16.6-13.5-30.1-30.1-30.1c-16.6,0-30.1,13.5-30.1,30.1
				C113.4,75.5,126.9,89,143.5,89z"/>
			<path class="st0" d="M143.5,89.4c-16.8,0-30.5-13.7-30.5-30.5c0-16.8,13.7-30.5,30.5-30.5s30.5,13.7,30.5,30.5
				C173.9,75.7,160.3,89.4,143.5,89.4z M143.5,29.2c-16.4,0-29.7,13.3-29.7,29.7c0,16.4,13.3,29.7,29.7,29.7s29.7-13.3,29.7-29.7
				C173.2,42.5,159.9,29.2,143.5,29.2z"/>
		</g>
		<g>
			<path class="st1" d="M143.6,89c10.4-0.3,19.3-4.4,25.8-14.8V50c0-3.7-3-6.7-6.7-6.7h-36.8c-3.7,0-6.7,3-6.7,6.7v26.5
				C125,84.6,133.2,88.7,143.6,89z"/>
			<path class="st0" d="M143.6,89.4L143.6,89.4c-10.6-0.3-18.9-4.6-24.7-12.6l-0.1-0.1V50c0-3.9,3.2-7.1,7.1-7.1h36.8
				c3.9,0,7.1,3.2,7.1,7.1v24.4l-0.1,0.1C163.6,84.2,155,89.1,143.6,89.4L143.6,89.4z M119.6,76.4c5.6,7.8,13.7,11.9,24,12.2
				c11.1-0.3,19.5-5,25.4-14.5V50c0-3.5-2.8-6.3-6.3-6.3h-36.8c-3.5,0-6.3,2.8-6.3,6.3V76.4z"/>
		</g>
		<g>
			<path class="st1" d="M143.6,87.3c9.6-0.3,17.8-4.1,23.8-13.6V51.3c0-3.4-2.8-6.2-6.2-6.2h-34c-3.4,0-6.2,2.8-6.2,6.2v24.5
				C126.4,83.2,134,87,143.6,87.3z"/>
			<path class="st0" d="M143.6,87.7L143.6,87.7c-9.8-0.3-17.5-4.2-22.8-11.7l-0.1-0.1V51.3c0-3.6,2.9-6.5,6.6-6.5h34
				c3.6,0,6.6,2.9,6.6,6.5v22.5l-0.1,0.1C162.1,82.8,154.2,87.4,143.6,87.7L143.6,87.7z M121.5,75.6c5.2,7.2,12.6,11,22.2,11.3
				c10.3-0.3,17.9-4.7,23.4-13.4V51.3c0-3.2-2.6-5.8-5.8-5.8h-34c-3.2,0-5.8,2.6-5.8,5.8V75.6z"/>
		</g>
		<g>
			<polyline class="st1" points="121.1,73.5 133.8,73.5 133.8,85.5 			"/>
			<polygon class="st0" points="134.2,85.5 133.5,85.5 133.5,73.9 121.1,73.9 121.1,73.2 134.2,73.2 			"/>
		</g>
		<g>
			<polyline class="st1" points="167.3,73.1 154.6,73.1 154.6,85 			"/>
			<polygon class="st0" points="155,85 154.2,85 154.2,72.7 167.3,72.7 167.3,73.4 155,73.4 			"/>
		</g>
		<g>
			<rect x="137.6" y="33.8" class="st1" width="11.8" height="18.6"/>
			<path class="st0" d="M149.8,52.8h-12.6V33.4h12.6V52.8z M137.9,52H149V34.2h-11.1V52z"/>
		</g>
		<g>
			<rect x="137.6" y="33.8" class="st1" width="11.8" height="7.3"/>
			<path class="st0" d="M149.8,41.5h-12.6v-8.1h12.6V41.5z M137.9,40.7H149v-6.6h-11.1V40.7z"/>
		</g>
		<g>
			<rect x="139.3" y="60.6" class="st1" width="8.4" height="3.1"/>
			<path class="st0" d="M148,64.1h-9.1v-3.9h9.1V64.1z M139.7,63.4h7.6V61h-7.6V63.4z"/>
		</g>
		<g>
			<rect x="125.6" y="65" class="st1" width="8.4" height="3.1"/>
			<path class="st0" d="M134.3,68.6h-9.1v-3.9h9.1V68.6z M126,67.8h7.6v-2.4H126V67.8z"/>
		</g>
		<g>
			<rect x="154.6" y="65" class="st1" width="8.4" height="3.1"/>
			<path class="st0" d="M163.3,68.6h-9.1v-3.9h9.1V68.6z M155,67.8h7.6v-2.4H155V67.8z"/>
		</g>
	</g>
	<g>
		<g>
			<polygon class="st1" points="17,74.8 26.9,74.8 26.9,95.6 21.8,95.6 15.2,85.6 			"/>
			<path class="st0" d="M27.3,96h-5.7l-6.7-10.3l1.8-11.3h10.6V96z M22,95.2h4.6v-20h-9.2l-1.7,10.3L22,95.2z"/>
		</g>
		<g>
			<rect x="25" y="48.9" class="st1" width="47.5" height="58.6"/>
			<path class="st0" d="M72.9,107.8H24.7V48.5h48.2V107.8z M25.4,107h46.7V49.2H25.4V107z"/>
		</g>
		<g>
			<rect x="9" y="42.8" class="st1" width="68" height="5"/>
			<path class="st0" d="M77.4,48.1H8.6v-5.7h68.7V48.1z M9.4,47.4h67.3v-4.2H9.4V47.4z"/>
		</g>
		<g>
			<rect x="13.8" y="28.4" class="st1" width="58.3" height="5"/>
			<path class="st0" d="M72.5,33.7H13.5V28h59.1V33.7z M14.2,33h57.6v-4.2H14.2V33z"/>
		</g>
		<g>
			<rect x="13.8" y="10.4" class="st1" width="58.3" height="16.1"/>
			<path class="st0" d="M72.5,26.9H13.5V10.1h59.1V26.9z M14.2,26.1h57.6V10.8H14.2V26.1z"/>
		</g>
		<g>
			<polygon class="st1" points="13.6,26 72.2,26 77.8,30.3 8.2,30.3 			"/>
			<path class="st0" d="M77.8,30.6H8.2L7.9,30l5.5-4.3h58.9L78,30L77.8,30.6z M9.2,29.9h67.5l-4.6-3.5H13.7L9.2,29.9z"/>
		</g>
		<g>
			<rect x="0.4" y="46" class="st1" width="85.5" height="4.7"/>
			<path class="st0" d="M86.2,51.1H0v-5.5h86.2V51.1z M0.7,50.4h84.7v-4H0.7V50.4z"/>
		</g>
		<g>
			<rect x="47.2" y="46" class="st1" width="7.6" height="4.7"/>
			<path class="st0" d="M55.2,51.1h-8.3v-5.5h8.3V51.1z M47.6,50.4h6.8v-4h-6.8V50.4z"/>
		</g>
		<g>
			<path class="st1" d="M11.6,32.6h62.7c3,0,5.4,2.4,5.4,5.4v0c0,3-2.4,5.4-5.4,5.4H11.6c-3,0-5.4-2.4-5.4-5.4v0
				C6.3,35,8.7,32.6,11.6,32.6z"/>
			<path class="st0" d="M74.3,43.7H11.6c-3.2,0-5.7-2.6-5.7-5.7c0-3.2,2.6-5.7,5.7-5.7h62.7c3.2,0,5.7,2.6,5.7,5.7
				C80.1,41.2,77.5,43.7,74.3,43.7z M11.6,33c-2.8,0-5,2.2-5,5c0,2.8,2.2,5,5,5h62.7c2.8,0,5-2.2,5-5c0-2.8-2.2-5-5-5H11.6z"/>
		</g>
	</g>
</g>
</svg>
