<?xml version="1.0" encoding="utf-8"?>
<!-- Generator: Adobe Illustrator 16.0.4, SVG Export Plug-In . SVG Version: 6.00 Build 0)  -->
<!DOCTYPE svg PUBLIC "-//W3C//DTD SVG 1.1//EN" "http://www.w3.org/Graphics/SVG/1.1/DTD/svg11.dtd">
<svg version="1.1" id="D1S" xmlns="http://www.w3.org/2000/svg" xmlns:xlink="http://www.w3.org/1999/xlink" x="0px" y="0px"
	 width="187px" height="117.8px" viewBox="0 0 187 117.8" style="enable-background:new 0 0 187 117.8;" xml:space="preserve">
<style type="text/css">
<![CDATA[
	.st0{fill:#999999;}
	.st1{fill-rule:evenodd;clip-rule:evenodd;fill:#e5e5e5;}
]]>
</style>
<g>
	<g>
		<g>
			<rect x="8.8" y="54.9" class="st1" width="68.6" height="15"/>
			<path class="st0" d="M77.8,70.3H8.5V54.5h69.3V70.3z M9.2,69.5H77V55.2H9.2V69.5z"/>
		</g>
		<g>
			<rect x="18.9" y="38.3" class="st1" width="48.4" height="5.6"/>
			<path class="st0" d="M67.7,44.3H18.5V38h49.2V44.3z M19.3,43.6h47.7v-4.9H19.3V43.6z"/>
		</g>
		<g>
			<rect x="14.9" y="35.8" class="st1" width="56.4" height="5.6"/>
			<path class="st0" d="M71.7,41.8H14.6v-6.4h57.1V41.8z M15.3,41.1h55.6v-4.9H15.3V41.1z"/>
		</g>
		<g>
			<rect x="0.4" y="42.7" class="st1" width="85.5" height="39.3"/>
			<path class="st0" d="M86.2,82.4H0v-40h86.2V82.4z M0.7,81.6h84.7V43.1H0.7V81.6z"/>
		</g>
	</g>
	<g>
		<g>
			<rect x="122.9" y="89.1" class="st1" width="41.1" height="18.7"/>
			<path class="st0" d="M164.4,108.2h-41.9V88.8h41.9V108.2z M123.3,107.4h40.4V89.5h-40.4V107.4z"/>
		</g>
		<g>
			<path class="st1" d="M111,10h65c5.6,0,10.3,4.6,10.3,10.3v65c0,5.6-4.6,10.3-10.3,10.3h-65c-5.6,0-10.3-4.6-10.3-10.3v-65
				C100.8,14.6,105.4,10,111,10z"/>
			<path class="st0" d="M176,95.9h-65c-5.9,0-10.6-4.8-10.6-10.6v-65c0-5.9,4.8-10.6,10.6-10.6h65c5.9,0,10.6,4.8,10.6,10.6v65
				C186.6,91.1,181.8,95.9,176,95.9z M111,10.4c-5.4,0-9.9,4.4-9.9,9.9v65c0,5.5,4.4,9.9,9.9,9.9h65c5.4,0,9.9-4.4,9.9-9.9v-65
				c0-5.5-4.4-9.9-9.9-9.9H111z"/>
		</g>
		<g>
			<g>
				<path class="st1" d="M146.5,23.4c14.8,1.5,26.4,14,26.4,29.3c0,16.2-13.2,29.4-29.4,29.4c-16.3,0-29.4-13.2-29.4-29.4
					c0-9.8,4.8-18.4,12.2-23.8c1.6,2.1,3.4,3.2,4.8,2.2c1.4-1.1,1.3-2.9,0.1-5.1c2.7-1.2,5.5-2.1,8.6-2.5l0,6.5l6.8,0L146.5,23.4z"
					/>
				<path class="st0" d="M143.5,82.5c-16.4,0-29.8-13.4-29.8-29.8c0-9.5,4.6-18.5,12.3-24.1l0.3-0.2l0.2,0.3c1.5,2.1,3.2,3,4.3,2.1
					c1.5-1.1,0.8-3.1,0-4.6l-0.2-0.3l0.4-0.2c2.8-1.3,5.7-2.1,8.7-2.5l0.4-0.1l-0.1,6.5l6.1,0l0-6.6l0.4,0
					c15.2,1.6,26.7,14.3,26.7,29.6C173.3,69.1,159.9,82.5,143.5,82.5z M126.2,29.4c-7.4,5.5-11.7,14.1-11.7,23.3c0,16,13,29,29,29
					c16,0,29-13,29-29c0-14.8-11-27.1-25.7-28.8l0,6.5l-7.5,0l0-6.4c-2.6,0.4-5.2,1.2-7.7,2.3c1.1,2.3,1,4.1-0.4,5.2
					C129.9,32.4,128,31.7,126.2,29.4z"/>
			</g>
			<g>
				<path class="st1" d="M143.5,72.6c10.9,0,19.8-8.9,19.8-19.8c0-10.9-8.9-19.8-19.8-19.8c-10.9,0-19.8,8.9-19.8,19.8
					C123.7,63.7,132.6,72.6,143.5,72.6z"/>
				<path class="st0" d="M143.5,73c-11.1,0-20.2-9.1-20.2-20.2c0-11.1,9.1-20.2,20.2-20.2c11.1,0,20.2,9.1,20.2,20.2
					C163.7,63.9,154.6,73,143.5,73z M143.5,33.3c-10.7,0-19.5,8.7-19.5,19.5c0,10.7,8.7,19.5,19.5,19.5c10.7,0,19.5-8.7,19.5-19.5
					C163,42,154.2,33.3,143.5,33.3z"/>
			</g>
			<g>
				<path class="st1" d="M143.5,63c5.7,0,10.3-4.6,10.3-10.3c0-5.7-4.6-10.3-10.3-10.3c-5.7,0-10.3,4.6-10.3,10.3
					C133.2,58.4,137.8,63,143.5,63z"/>
				<path class="st0" d="M143.5,63.4c-5.9,0-10.6-4.8-10.6-10.6c0-5.9,4.8-10.6,10.6-10.6c5.9,0,10.6,4.8,10.6,10.6
					C154.1,58.6,149.4,63.4,143.5,63.4z M143.5,42.9c-5.5,0-9.9,4.4-9.9,9.9c0,5.5,4.4,9.9,9.9,9.9c5.5,0,9.9-4.4,9.9-9.9
					C153.4,47.3,149,42.9,143.5,42.9z"/>
			</g>
			<g>
				<path class="st1" d="M143.5,69.6c9.3,0,16.9-7.6,16.9-16.9c0-9.3-7.6-16.9-16.9-16.9c-9.3,0-16.9,7.6-16.9,16.9
					C126.6,62.1,134.2,69.6,143.5,69.6z"/>
				<path class="st0" d="M143.5,70c-9.5,0-17.2-7.7-17.2-17.2c0-9.5,7.7-17.2,17.2-17.2c9.5,0,17.2,7.7,17.2,17.2
					C160.7,62.3,153,70,143.5,70z M143.5,36.3c-9.1,0-16.5,7.4-16.5,16.5c0,9.1,7.4,16.5,16.5,16.5c9.1,0,16.5-7.4,16.5-16.5
					C160,43.7,152.6,36.3,143.5,36.3z"/>
			</g>
			<g>
				<path class="st1" d="M143.5,58.3c3,0,5.5-2.5,5.5-5.5c0-3-2.5-5.5-5.5-5.5c-3,0-5.5,2.5-5.5,5.5C138,55.8,140.5,58.3,143.5,58.3
					z"/>
				<path class="st0" d="M143.5,58.7c-3.2,0-5.9-2.6-5.9-5.9c0-3.2,2.6-5.9,5.9-5.9c3.2,0,5.9,2.6,5.9,5.9
					C149.4,56,146.7,58.7,143.5,58.7z M143.5,47.6c-2.8,0-5.1,2.3-5.1,5.1c0,2.8,2.3,5.1,5.1,5.1c2.8,0,5.1-2.3,5.1-5.1
					C148.6,49.9,146.3,47.6,143.5,47.6z"/>
			</g>
		</g>
	</g>
</g>
</svg>
