<?xml version="1.0" encoding="utf-8"?>
<!-- Generator: Adobe Illustrator 16.0.4, SVG Export Plug-In . SVG Version: 6.00 Build 0)  -->
<!DOCTYPE svg PUBLIC "-//W3C//DTD SVG 1.1//EN" "http://www.w3.org/Graphics/SVG/1.1/DTD/svg11.dtd">
<svg version="1.1" id="_x38_80" xmlns="http://www.w3.org/2000/svg" xmlns:xlink="http://www.w3.org/1999/xlink" x="0px" y="0px"
	 width="187px" height="117.8px" viewBox="0 0 187 117.8" style="enable-background:new 0 0 187 117.8;" xml:space="preserve">
<style type="text/css">
<![CDATA[
	.st0{fill:#999999;}
	.st1{fill-rule:evenodd;clip-rule:evenodd;fill:#e5e5e5;}
]]>
</style>
<g>
	<g>
		<g>
			<path class="st1" d="M143.5,101.7c23.5,0,42.7-19.2,42.7-42.7c0-23.5-19.2-42.7-42.7-42.7c-23.5,0-42.7,19.2-42.7,42.7
				C100.8,82.5,120,101.7,143.5,101.7z"/>
			<path class="st0" d="M143.5,102c-23.8,0-43.1-19.3-43.1-43.1c0-23.8,19.3-43.1,43.1-43.1c23.8,0,43.1,19.3,43.1,43.1
				C186.6,82.7,167.3,102,143.5,102z M143.5,16.6c-23.4,0-42.4,19-42.4,42.4c0,23.4,19,42.4,42.4,42.4c23.4,0,42.4-19,42.4-42.4
				C185.9,35.6,166.9,16.6,143.5,16.6z"/>
		</g>
		<g>
			<path class="st1" d="M162.9,57.4l10-1.3c0.5,4.4-1.6,14.5-3,16.5L156,73.9c-5.7,5-14.2,6.3-21.4,3.5L122,80
				c-3.1-1.7-7.1-9.8-8.1-13.6l10.4-1.8c-0.9-2-1.8-12.9,2.7-17.4l-2-13.7c5.4-5.3,22.2-6.8,27.7-3l1.4,11.5
				C160.1,45.9,162.7,50.7,162.9,57.4z"/>
			<path class="st0" d="M122,80.4l-0.1-0.1c-3.3-1.9-7.3-10.1-8.2-13.8l-0.1-0.4l10.3-1.8c-0.9-2.9-1.4-12.8,2.8-17.3l-2-13.7
				l0.1-0.1c3.6-3.6,11.9-5.2,18-5.2c4.5,0,8.1,0.8,10.2,2.2l0.1,0.1l1.4,11.5c5.6,3.7,8.4,8.5,8.7,15.2l10-1.3l0,0.4
				c0.5,4.3-1.6,14.7-3.1,16.7l-0.1,0.1l-14,1.3c-3.7,3.2-8.6,5-13.7,5c-2.7,0-5.4-0.5-7.8-1.5L122,80.4z M114.4,66.8
				c1.1,4,4.9,11.2,7.7,12.9l12.5-2.6l0.1,0c2.4,1,5,1.5,7.6,1.5c5,0,9.7-1.7,13.3-4.9l0.1-0.1l0.1,0l13.7-1.3
				c1.2-2,3.3-11.2,2.9-15.7l-10,1.3l0-0.4c-0.3-6.7-2.9-11.4-8.5-15.1l-0.1-0.1l-1.4-11.5c-1.9-1.3-5.4-2-9.6-2
				c-7.2,0-14.3,2-17.4,4.9l2,13.7l-0.1,0.1c-4.3,4.4-3.5,15-2.6,17l0.2,0.4L114.4,66.8z"/>
		</g>
		<g>
			<path class="st1" d="M143.5,75.5c9.4,0,17.1-7.7,17.1-17.1c0-9.4-7.7-17.1-17.1-17.1c-9.4,0-17.1,7.7-17.1,17.1
				C126.4,67.9,134.1,75.5,143.5,75.5z"/>
			<path class="st0" d="M143.5,75.9c-9.6,0-17.4-7.8-17.4-17.4c0-9.6,7.8-17.4,17.4-17.4s17.4,7.8,17.4,17.4
				C160.9,68.1,153.1,75.9,143.5,75.9z M143.5,41.8c-9.2,0-16.7,7.5-16.7,16.7c0,9.2,7.5,16.7,16.7,16.7c9.2,0,16.7-7.5,16.7-16.7
				C160.2,49.3,152.7,41.8,143.5,41.8z"/>
		</g>
		<g>
			<path class="st1" d="M143.5,72c7.5,0,13.7-6.1,13.7-13.7c0-7.5-6.1-13.7-13.7-13.7c-7.5,0-13.7,6.1-13.7,13.7
				C129.8,65.8,136,72,143.5,72z"/>
			<path class="st0" d="M143.5,72.4c-7.7,0-14-6.3-14-14c0-7.7,6.3-14,14-14c7.7,0,14,6.3,14,14C157.5,66.1,151.2,72.4,143.5,72.4z
				 M143.5,45c-7.3,0-13.3,6-13.3,13.3c0,7.3,6,13.3,13.3,13.3c7.3,0,13.3-6,13.3-13.3C156.8,51,150.8,45,143.5,45z"/>
		</g>
		<g>
			<path class="st1" d="M136.3,57.1h14.3c1,0,1.8,0.8,1.8,1.8l0,0c0,1-0.8,1.8-1.8,1.8h-14.3c-1,0-1.8-0.8-1.8-1.8l0,0
				C134.6,57.9,135.4,57.1,136.3,57.1z"/>
			<path class="st0" d="M150.7,61h-14.3c-1.2,0-2.1-1-2.1-2.1c0-1.2,1-2.2,2.1-2.2h14.3c1.2,0,2.1,1,2.1,2.2
				C152.8,60.1,151.8,61,150.7,61z M136.3,57.5c-0.8,0-1.4,0.6-1.4,1.4c0,0.8,0.6,1.4,1.4,1.4h14.3c0.8,0,1.4-0.6,1.4-1.4
				c0-0.8-0.6-1.4-1.4-1.4H136.3z"/>
		</g>
	</g>
	<g>
		<g>
			<rect x="4.7" y="48.3" class="st1" width="77.5" height="54.6"/>
			<path class="st0" d="M82.5,103.3H4.3V48h78.3V103.3z M5,102.5h76.8V48.7H5V102.5z"/>
		</g>
		<g>
			<rect x="41.3" y="96.1" class="st1" width="3.7" height="6.9"/>
			<path class="st0" d="M45.4,103.3h-4.4v-7.6h4.4V103.3z M41.7,102.5h2.9v-6.1h-2.9V102.5z"/>
		</g>
		<g>
			<rect x="22.1" y="15" class="st1" width="42.2" height="28.5"/>
			<path class="st0" d="M64.6,43.8H21.7V14.6h42.9V43.8z M22.4,43.1h41.4V15.4H22.4V43.1z"/>
		</g>
		<g>
			<polygon class="st1" points="57.8,31.1 74,31.1 74,20.5 70,15 57.8,15 			"/>
			<path class="st0" d="M74.4,31.4h-17V14.6h12.8l4.2,5.8V31.4z M58.1,30.7h15.5v-10l-3.8-5.3H58.1V30.7z"/>
		</g>
		<g>
			<polygon class="st1" points="32.5,23 22.1,31.1 12.5,31.1 12.5,20.5 16.3,15 32.5,15 			"/>
			<path class="st0" d="M22.2,31.4H12.1v-11l4-5.8h16.8v8.6L22.2,31.4z M12.9,30.7h9.1l10.2-7.8v-7.5H16.5l-3.6,5.3V30.7z"/>
		</g>
		<g>
			<line class="st1" x1="12.4" y1="20.7" x2="32.5" y2="20.7"/>
			
				<rect x="12.4" y="20.3" transform="matrix(1 3.157853e-03 -3.157853e-03 1 6.546593e-02 -7.089424e-02)" class="st0" width="20.1" height="0.7"/>
		</g>
		<g>
			<polyline class="st1" points="12.4,30.3 17.4,20.6 22,14.9 			"/>
			<polygon class="st0" points="12.8,30.5 12.1,30.1 17,20.4 21.7,14.7 22.3,15.2 17.7,20.8 			"/>
		</g>
		<g>
			<polygon class="st1" points="0.4,41 85.8,41 85.8,51.8 56.1,51.8 56.2,49.7 30.4,49.7 30.4,51.8 0.4,51.8 			"/>
			<path class="st0" d="M86.2,52.2H55.7l0.1-2.1l-25,0l0,2.1H0V40.6h86.2V52.2z M56.5,51.5h29V41.3H0.7v10.1h29.3l0-2.1l26.5,0
				L56.5,51.5z"/>
		</g>
	</g>
</g>
</svg>
