<?xml version="1.0" encoding="utf-8"?>
<!-- Generator: Adobe Illustrator 16.0.4, SVG Export Plug-In . SVG Version: 6.00 Build 0)  -->
<!DOCTYPE svg PUBLIC "-//W3C//DTD SVG 1.1//EN" "http://www.w3.org/Graphics/SVG/1.1/DTD/svg11.dtd">
<svg version="1.1" id="H10" xmlns="http://www.w3.org/2000/svg" xmlns:xlink="http://www.w3.org/1999/xlink" x="0px" y="0px"
	 width="187px" height="117.8px" viewBox="0 0 187 117.8" style="enable-background:new 0 0 187 117.8;" xml:space="preserve">
<style type="text/css">
<![CDATA[
	.st0{fill:#999999;}
	.st1{fill-rule:evenodd;clip-rule:evenodd;fill:#e5e5e5;}
]]>
</style>
<g>
	<g>
		<g>
			<rect x="152.3" y="38.7" class="st1" width="18.8" height="40.3"/>
			<path class="st0" d="M171.5,79.4H152v-41h19.5V79.4z M152.7,78.6h18V39.1h-18V78.6z"/>
		</g>
		<g>
			<path class="st1" d="M148.3,37.1l7.5,5.9v40.3c-5.1,4.5-11,7.1-17.3,8.5l-2.8-4.7l-28.6-24.3l-6.3,0c-0.2-5.5,0.4-10.4,1.9-14.8
				l7,0l15.7-14.4l2.2-7.5c6.8-0.4,13.3,0.1,19.3,2.5L148.3,37.1z"/>
			<path class="st0" d="M138.3,92.2l-2.9-4.9L107,63.2l-6.5,0l0-0.4c-0.2-5.4,0.4-10.4,1.9-14.9l0.1-0.3l7.1,0l15.5-14.2l2.3-7.6
				l0.3,0c7.7-0.5,14,0.3,19.4,2.5l0.2,0.1l1.4,8.5l7.5,5.9v40.6l-0.1,0.1c-4.9,4.3-10.6,7.1-17.4,8.6L138.3,92.2z M107.2,62.4
				l0.1,0.1L136,86.9l2.6,4.5c6.5-1.5,12-4.2,16.7-8.3V43.2l-7.4-5.8l-1.4-8.3c-5.3-2.1-11.3-2.9-18.7-2.4l-2.2,7.3l-15.9,14.6
				l-6.9,0c-1.4,4.3-2,9-1.8,14L107.2,62.4z"/>
		</g>
		<g>
			<path class="st1" d="M133.4,87.1c15.4,0,27.9-12.5,27.9-27.9c0-15.4-12.5-27.9-27.9-27.9c-15.4,0-27.9,12.5-27.9,27.9
				C105.4,74.6,118,87.1,133.4,87.1z"/>
			<path class="st0" d="M133.4,87.5c-15.6,0-28.3-12.7-28.3-28.3c0-15.6,12.7-28.3,28.3-28.3s28.3,12.7,28.3,28.3
				C161.7,74.8,149,87.5,133.4,87.5z M133.4,31.6c-15.2,0-27.6,12.4-27.6,27.5c0,15.2,12.4,27.6,27.6,27.6
				c15.2,0,27.6-12.4,27.6-27.6C160.9,44,148.6,31.6,133.4,31.6z"/>
		</g>
		<g>
			<path class="st1" d="M133.4,79.9c11.4,0,20.7-9.3,20.7-20.7c0-11.4-9.3-20.7-20.7-20.7c-11.4,0-20.7,9.3-20.7,20.7
				C112.7,70.6,122,79.9,133.4,79.9z"/>
			<path class="st0" d="M133.4,80.2c-11.6,0-21-9.4-21-21.1c0-11.6,9.4-21,21-21s21,9.4,21,21C154.4,70.8,145,80.2,133.4,80.2z
				 M133.4,38.9c-11.2,0-20.3,9.1-20.3,20.3s9.1,20.3,20.3,20.3s20.3-9.1,20.3-20.3S144.6,38.9,133.4,38.9z"/>
		</g>
		<g>
			<path class="st1" d="M133.4,77.7c10.2,0,18.5-8.3,18.5-18.5c0-10.2-8.3-18.5-18.5-18.5c-10.2,0-18.5,8.3-18.5,18.5
				C114.8,69.4,123.2,77.7,133.4,77.7z"/>
			<path class="st0" d="M133.4,78.1c-10.4,0-18.9-8.5-18.9-18.9c0-10.4,8.5-18.9,18.9-18.9c10.4,0,18.9,8.5,18.9,18.9
				C152.3,69.6,143.8,78.1,133.4,78.1z M133.4,41c-10,0-18.2,8.2-18.2,18.2s8.2,18.2,18.2,18.2s18.2-8.2,18.2-18.2
				S143.4,41,133.4,41z"/>
		</g>
		<g>
			<path class="st1" d="M133.4,76.3c9.5,0,17.2-7.7,17.2-17.2c0-9.5-7.7-17.2-17.2-17.2s-17.2,7.7-17.2,17.2
				C116.2,68.6,123.9,76.3,133.4,76.3z"/>
			<path class="st0" d="M133.4,76.7c-9.7,0-17.5-7.9-17.5-17.5c0-9.7,7.9-17.5,17.5-17.5c9.7,0,17.5,7.9,17.5,17.5
				C150.9,68.8,143,76.7,133.4,76.7z M133.4,42.4c-9.3,0-16.8,7.5-16.8,16.8c0,9.3,7.5,16.8,16.8,16.8c9.3,0,16.8-7.5,16.8-16.8
				C150.2,49.9,142.6,42.4,133.4,42.4z"/>
		</g>
		<g>
			<path class="st1" d="M133.4,71c6.5,0,11.8-5.3,11.8-11.8c0-6.5-5.3-11.8-11.8-11.8c-6.5,0-11.8,5.3-11.8,11.8
				C121.5,65.7,126.9,71,133.4,71z"/>
			<path class="st0" d="M133.4,71.4c-6.7,0-12.2-5.5-12.2-12.2S126.6,47,133.4,47c6.7,0,12.2,5.5,12.2,12.2S140.1,71.4,133.4,71.4z
				 M133.4,47.7c-6.3,0-11.5,5.1-11.5,11.5c0,6.3,5.1,11.5,11.5,11.5s11.5-5.1,11.5-11.5C144.8,52.9,139.7,47.7,133.4,47.7z"/>
		</g>
		<g>
			<path class="st1" d="M133.4,67.6c4.6,0,8.4-3.8,8.4-8.4c0-4.6-3.8-8.4-8.4-8.4c-4.6,0-8.4,3.8-8.4,8.4
				C125,63.8,128.7,67.6,133.4,67.6z"/>
			<path class="st0" d="M133.4,68c-4.8,0-8.8-3.9-8.8-8.8c0-4.8,3.9-8.8,8.8-8.8s8.8,3.9,8.8,8.8C142.2,64,138.2,68,133.4,68z
				 M133.4,51.1c-4.4,0-8,3.6-8,8s3.6,8,8,8c4.4,0,8-3.6,8-8S137.8,51.1,133.4,51.1z"/>
		</g>
		<g>
			<path class="st1" d="M170.1,36.6h16.1v45.6h-16.1c-1,0-1.8-0.8-1.8-1.8v-42C168.3,37.4,169.1,36.6,170.1,36.6z"/>
			<path class="st0" d="M186.6,82.6h-16.5c-1.2,0-2.2-1-2.2-2.2v-42c0-1.2,1-2.2,2.2-2.2h16.5V82.6z M170.1,37
				c-0.8,0-1.4,0.6-1.4,1.4v42c0,0.8,0.6,1.4,1.4,1.4h15.7V37H170.1z"/>
		</g>
	</g>
	<g>
		<g>
			<rect x="0.4" y="45.2" class="st1" width="8.1" height="3.4"/>
			<path class="st0" d="M8.8,49H0v-4.2h8.8V49z M0.7,48.2h7.4v-2.7H0.7V48.2z"/>
		</g>
		<g>
			<polygon class="st1" points="68.8,87.1 70.1,83 79,83 73.1,87.1 			"/>
			<path class="st0" d="M73.2,87.5h-4.9l1.5-4.9H79l0.2,0.7L73.2,87.5z M69.4,86.8H73l4.8-3.4h-7.4L69.4,86.8z"/>
		</g>
		<g>
			<path class="st1" d="M17.4,48.3h32.2v11.5c1.3-0.4,2.9-0.7,4.4-0.7l14.1,0L68,81.6l-19.4,0L40.1,75H24.8l-7.4-6.9V48.3z"/>
			<path class="st0" d="M68.3,81.9l-19.9,0L40,75.4H24.6l-7.6-7.1V47.9H50v11.4c1.5-0.4,2.8-0.6,4-0.6l14.5,0L68.3,81.9z M48.7,81.2
				l18.9,0l0.1-21.8l-13.7,0c-1.2,0-2.7,0.2-4.3,0.7l-0.5,0.1V48.7H17.8V68l7.1,6.7h15.3L48.7,81.2z"/>
		</g>
		<g>
			<path class="st1" d="M17.2,30.7h32.7c1.1,0,2.1,0.9,2.1,2.1v2H15.1v-2C15.1,31.6,16,30.7,17.2,30.7z"/>
			<path class="st0" d="M52.3,35.1H14.7v-2.3c0-1.4,1.1-2.5,2.5-2.5h32.7c1.4,0,2.5,1.1,2.5,2.5V35.1z M15.5,34.4h36.1v-1.6
				c0-0.9-0.8-1.7-1.7-1.7H17.2c-0.9,0-1.7,0.8-1.7,1.7V34.4z"/>
		</g>
		<g>
			<rect x="5.7" y="43.3" class="st1" width="55.8" height="5.3"/>
			<path class="st0" d="M61.9,49H5.3v-6.1h56.6V49z M6.1,48.2h55.1v-4.6H6.1V48.2z"/>
		</g>
		<g>
			<rect x="34.5" y="45.2" class="st1" width="7.2" height="3.4"/>
			<path class="st0" d="M42.1,49h-8v-4.2h8V49z M34.9,48.2h6.5v-2.7h-6.5V48.2z"/>
		</g>
		<g>
			<rect x="37.7" y="45.2" class="st1" width="17.5" height="3.4"/>
			<path class="st0" d="M55.5,49H37.3v-4.2h18.2V49z M38,48.2h16.7v-2.7H38V48.2z"/>
		</g>
		<g>
			<rect x="15.1" y="37" class="st1" width="36.9" height="6.4"/>
			<path class="st0" d="M52.3,43.9H14.7v-7.2h37.6V43.9z M15.5,43.1h36.1v-5.7H15.5V43.1z"/>
		</g>
		<g>
			<path class="st1" d="M69.2,56.3h15.3c0.7,0,1.3,0.6,1.3,1.3v25.4c0,0.7-0.6,1.3-1.3,1.3H69.2c-0.7,0-1.3-0.6-1.3-1.3V57.6
				C67.9,56.9,68.5,56.3,69.2,56.3z"/>
			<path class="st0" d="M84.6,84.6H69.2c-0.9,0-1.7-0.7-1.7-1.7V57.6c0-0.9,0.7-1.7,1.7-1.7h15.3c0.9,0,1.7,0.7,1.7,1.7v25.4
				C86.2,83.8,85.5,84.6,84.6,84.6z M69.2,56.7c-0.5,0-0.9,0.4-0.9,0.9v25.4c0,0.5,0.4,0.9,0.9,0.9h15.3c0.5,0,0.9-0.4,0.9-0.9V57.6
				c0-0.5-0.4-0.9-0.9-0.9H69.2z"/>
		</g>
		<g>
			<path class="st1" d="M15.1,33.9H52c1.1,0,2,0.9,2,2v0c0,1.1-0.9,2-2,2H15.1c-1.1,0-2-0.9-2-2v0C13.1,34.8,14,33.9,15.1,33.9z"/>
			<path class="st0" d="M52,38.3H15.1c-1.3,0-2.4-1.1-2.4-2.4c0-1.3,1.1-2.4,2.4-2.4H52c1.3,0,2.4,1.1,2.4,2.4S53.3,38.3,52,38.3z
				 M15.1,34.3c-0.9,0-1.7,0.7-1.7,1.7s0.7,1.7,1.7,1.7H52c0.9,0,1.7-0.7,1.7-1.7c0-0.9-0.7-1.7-1.7-1.7H15.1z"/>
		</g>
		<g>
			<path class="st1" d="M49.6,59.8c-5.1,1.1-9.5,3.1-13.3,6"/>
			<path class="st0" d="M36.5,66.1l-0.5-0.6c3.8-2.9,8.3-4.9,13.4-6l0.2,0.7C44.7,61.2,40.3,63.2,36.5,66.1z"/>
		</g>
	</g>
</g>
</svg>
