<?xml version="1.0" encoding="utf-8"?>
<!-- Generator: Adobe Illustrator 16.0.4, SVG Export Plug-In . SVG Version: 6.00 Build 0)  -->
<!DOCTYPE svg PUBLIC "-//W3C//DTD SVG 1.1//EN" "http://www.w3.org/Graphics/SVG/1.1/DTD/svg11.dtd">
<svg version="1.1" id="H16" xmlns="http://www.w3.org/2000/svg" xmlns:xlink="http://www.w3.org/1999/xlink" x="0px" y="0px"
	 width="187px" height="117.8px" viewBox="0 0 187 117.8" style="enable-background:new 0 0 187 117.8;" xml:space="preserve">
<style type="text/css">
<![CDATA[
	.st0{fill:#999999;}
	.st1{fill-rule:evenodd;clip-rule:evenodd;fill:#e5e5e5;}
]]>
</style>
<g>
	<g>
		<g>
			<rect x="155.1" y="28" class="st1" width="2.2" height="17"/>
			<path class="st0" d="M157.7,45.4h-3V27.7h3V45.4z M155.5,44.6h1.5V28.4h-1.5V44.6z"/>
		</g>
		<g>
			<rect x="130.9" y="28" class="st1" width="2.2" height="17"/>
			<path class="st0" d="M133.5,45.4h-3V27.7h3V45.4z M131.3,44.6h1.5V28.4h-1.5V44.6z"/>
		</g>
		<g>
			<rect x="103.8" y="72" class="st1" width="79.4" height="2.2"/>
			<path class="st0" d="M183.6,74.6h-80.2v-3h80.2V74.6z M104.2,73.9h78.7v-1.5h-78.7V73.9z"/>
		</g>
		<g>
			<rect x="103.8" y="45.1" class="st1" width="79.4" height="2.2"/>
			<path class="st0" d="M183.6,47.7h-80.2v-3h80.2V47.7z M104.2,47h78.7v-1.5h-78.7V47z"/>
		</g>
		<g>
			<rect x="100.8" y="50.5" class="st1" width="85.5" height="18.6"/>
			<path class="st0" d="M186.6,69.5h-86.2V50.1h86.2V69.5z M101.1,68.8h84.7V50.9h-84.7V68.8z"/>
		</g>
		<g>
			<circle class="st1" cx="143.6" cy="59.8" r="30"/>
			<path class="st0" d="M143.6,90.2c-16.7,0-30.4-13.6-30.4-30.4c0-16.7,13.6-30.4,30.4-30.4c16.7,0,30.4,13.6,30.4,30.4
				C174,76.6,160.3,90.2,143.6,90.2z M143.6,30.2c-16.3,0-29.6,13.3-29.6,29.6s13.3,29.6,29.6,29.6c16.3,0,29.6-13.3,29.6-29.6
				S159.9,30.2,143.6,30.2z"/>
		</g>
		<g>
			<circle class="st1" cx="143.6" cy="59.8" r="20.3"/>
			<path class="st0" d="M143.6,80.5c-11.4,0-20.6-9.3-20.6-20.6c0-11.4,9.3-20.6,20.6-20.6c11.4,0,20.6,9.3,20.6,20.6
				C164.2,71.2,155,80.5,143.6,80.5z M143.6,39.9c-11,0-19.9,8.9-19.9,19.9s8.9,19.9,19.9,19.9c11,0,19.9-8.9,19.9-19.9
				S154.6,39.9,143.6,39.9z"/>
		</g>
		<g>
			<path class="st1" d="M160.8,59.8c0-9.5-7.7-17.2-17.2-17.2s-17.2,7.7-17.2,17.2c0,9.5,7.7,17.2,17.2,17.2S160.8,69.3,160.8,59.8z
				"/>
			<path class="st0" d="M143.6,77.4c-9.7,0-17.6-7.9-17.6-17.6c0-9.7,7.9-17.6,17.6-17.6s17.6,7.9,17.6,17.6
				C161.2,69.5,153.3,77.4,143.6,77.4z M143.6,43c-9.3,0-16.8,7.6-16.8,16.8c0,9.3,7.6,16.8,16.8,16.8s16.8-7.6,16.8-16.8
				C160.4,50.5,152.9,43,143.6,43z"/>
		</g>
		<g>
			<circle class="st1" cx="143.6" cy="59.8" r="10.8"/>
			<path class="st0" d="M143.6,71c-6.2,0-11.2-5-11.2-11.2c0-6.2,5-11.2,11.2-11.2c6.2,0,11.2,5,11.2,11.2
				C154.8,66,149.8,71,143.6,71z M143.6,49.4c-5.8,0-10.5,4.7-10.5,10.5c0,5.8,4.7,10.5,10.5,10.5c5.8,0,10.5-4.7,10.5-10.5
				C154.1,54.1,149.4,49.4,143.6,49.4z"/>
		</g>
		<g>
			<path class="st1" d="M184.7,67.1v-5.5h-3.5c-1,0-1-2.9,0-2.9l3.5,0v-5.7h-11.2v2.1h3.7l0,2.6l-1.3,0v4.6l1.3,0l0,2.4l-3.7,0v2.4
				H184.7z"/>
			<path class="st0" d="M185.1,67.5h-11.9v-3.2l3.7,0l0-1.6l-1.3,0v-5.4l1.3,0l0-1.8h-3.7v-2.9h11.9V59l-3.9,0
				c-0.1,0-0.3,0.4-0.3,1.1c0,0.7,0.2,1.1,0.4,1.1h3.8V67.5z M173.9,66.7h10.5v-4.8h-3.1c-0.8,0-1.1-0.9-1.1-1.9
				c0-0.4,0.1-0.8,0.2-1.1c0.3-0.6,0.7-0.7,0.9-0.7l3.1,0v-5h-10.5v1.4h3.7l0,3.3l-1.3,0v3.9l1.3,0l0,3.1l-3.7,0V66.7z"/>
		</g>
		<g>
			<path class="st1" d="M102.3,67.1v-5.5h3.5c1,0,1-2.9,0-2.9l-3.5,0v-5.7h11.2v2.1h-3.7l0,2.6l1.3,0l0,4.6l-1.3,0l0,2.4l3.7,0v2.4
				H102.3z"/>
			<path class="st0" d="M113.9,67.5h-11.9v-6.3h3.8c0.1,0,0.2-0.1,0.2-0.2c0.1-0.2,0.2-0.5,0.2-0.9c0-0.6-0.2-1.1-0.3-1.1l-3.9,0
				v-6.5h11.9v2.9h-3.7l0,1.8l1.3,0l0,5.4l-1.3,0l0,1.6l3.7,0V67.5z M102.7,66.7h10.5V65l-3.7,0l0-3.1l1.3,0l0-3.9l-1.3,0l0-3.3h3.7
				v-1.4h-10.5v5l3.1,0c0.7,0,1.1,0.7,1.1,1.8c0,0.4-0.1,0.9-0.2,1.2c-0.3,0.6-0.7,0.7-0.9,0.7h-3.1V66.7z"/>
		</g>
	</g>
	<g>
		<g>
			<rect x="15.3" y="40.3" class="st1" width="55.7" height="9.6"/>
			<path class="st0" d="M71.3,50.3H14.9V39.9h56.4V50.3z M15.6,49.6h54.9v-8.9H15.6V49.6z"/>
		</g>
		<g>
			<rect x="10.8" y="48.1" class="st1" width="64.5" height="6.2"/>
			<path class="st0" d="M75.7,54.6H10.5v-6.9h65.3V54.6z M11.2,53.8H75v-5.4H11.2V53.8z"/>
		</g>
		<g>
			<rect x="25.4" y="58.8" class="st1" width="35.3" height="18.7"/>
			<path class="st0" d="M61.2,77.9H25.1V58.4h36.1V77.9z M25.8,77.2h34.6v-18H25.8V77.2z"/>
		</g>
		<g>
			<rect x="0.4" y="51.8" class="st1" width="85.4" height="9.6"/>
			<path class="st0" d="M86.2,61.8H0V51.5h86.2V61.8z M0.8,61.1h84.7v-8.9H0.8V61.1z"/>
		</g>
		<g>
			<rect x="8.2" y="51.8" class="st1" width="69.9" height="9.6"/>
			<path class="st0" d="M78.4,61.8H7.8V51.5h70.6V61.8z M8.5,61.1h69.1v-8.9H8.5V61.1z"/>
		</g>
		<g>
			<path class="st1" d="M2.9,61.3c0,3.4,3.7,3.9,7.9,3.9l66.5,0c2.2,0,5.4-1,5.4-3.7c1.1,0,2.2,0,3.3,0c0,5.6-5.7,7.7-8.7,7.7H10.7
				c-6.7,0-10.5-2-10.4-7.9H2.9z"/>
			<path class="st0" d="M77.1,69.6H10.7c-4.3,0-7.2-0.8-8.9-2.6c-1.3-1.3-1.9-3.2-1.9-5.7L0,61h3.2l0,0.4c0,2.9,3,3.5,7.5,3.5
				l66.5,0c1.3,0,3.1-0.4,4.2-1.5c0.5-0.5,0.8-1.2,0.8-1.9l0-0.4h4l0,0.4c0,2.1-0.7,3.8-2.1,5.3C82.1,68.7,79.2,69.6,77.1,69.6z
				 M0.7,61.7c0,2.1,0.6,3.7,1.7,4.8c1.5,1.6,4.3,2.3,8.3,2.3h66.4c1.8,0,4.6-0.8,6.4-2.6c1.2-1.2,1.8-2.7,1.9-4.4h-2.5
				c-0.1,0.8-0.4,1.5-1,2c-1.2,1.2-3.3,1.7-4.7,1.7l-66.5,0c-2.8,0-7.9,0-8.3-3.9H0.7z"/>
		</g>
	</g>
</g>
</svg>
