<?xml version="1.0" encoding="utf-8"?>
<!-- Generator: Adobe Illustrator 16.0.4, SVG Export Plug-In . SVG Version: 6.00 Build 0)  -->
<!DOCTYPE svg PUBLIC "-//W3C//DTD SVG 1.1//EN" "http://www.w3.org/Graphics/SVG/1.1/DTD/svg11.dtd">
<svg version="1.1" id="H13" xmlns="http://www.w3.org/2000/svg" xmlns:xlink="http://www.w3.org/1999/xlink" x="0px" y="0px"
	 width="187px" height="117.8px" viewBox="0 0 187 117.8" style="enable-background:new 0 0 187 117.8;" xml:space="preserve">
<style type="text/css">
<![CDATA[
	.st0{fill:#999999;}
	.st1{fill-rule:evenodd;clip-rule:evenodd;fill:#e5e5e5;}
]]>
</style>
<g>
	<g>
		<g>
			<path class="st1" d="M103.2,56.5h80.7c1.3,0,2.4,1.1,2.4,2.4l0,0c0,1.3-1.1,2.4-2.4,2.4h-80.7c-1.3,0-2.4-1.1-2.4-2.4l0,0
				C100.8,57.6,101.8,56.5,103.2,56.5z"/>
			<path class="st0" d="M183.8,61.7h-80.7c-1.5,0-2.8-1.2-2.8-2.8c0-1.5,1.2-2.8,2.8-2.8h80.7c1.5,0,2.8,1.2,2.8,2.8
				C186.6,60.5,185.4,61.7,183.8,61.7z M103.2,56.9c-1.1,0-2,0.9-2,2c0,1.1,0.9,2,2,2h80.7c1.1,0,2-0.9,2-2c0-1.1-0.9-2-2-2H103.2z"
				/>
		</g>
		<g>
			<path class="st1" d="M143.5,97.2c21.1,0,38.3-17.2,38.3-38.3s-17.2-38.3-38.3-38.3c-21.1,0-38.3,17.2-38.3,38.3
				S122.4,97.2,143.5,97.2z"/>
			<path class="st0" d="M143.5,97.6c-21.3,0-38.6-17.3-38.6-38.6c0-21.3,17.3-38.6,38.6-38.6c21.3,0,38.6,17.3,38.6,38.6
				C182.1,80.2,164.8,97.6,143.5,97.6z M143.5,21c-20.9,0-37.9,17-37.9,37.9c0,20.9,17,37.9,37.9,37.9s37.9-17,37.9-37.9
				C181.4,38,164.4,21,143.5,21z"/>
		</g>
		<g>
			<path class="st1" d="M143.5,92.4c18.5,0,33.5-15.1,33.5-33.5c0-18.5-15.1-33.5-33.5-33.5C125,25.4,110,40.5,110,58.9
				C110,77.4,125,92.4,143.5,92.4z"/>
			<path class="st0" d="M143.5,92.8c-18.7,0-33.9-15.2-33.9-33.9S124.8,25,143.5,25s33.9,15.2,33.9,33.9S162.2,92.8,143.5,92.8z
				 M143.5,25.8c-18.3,0-33.2,14.9-33.2,33.2c0,18.3,14.9,33.2,33.2,33.2s33.2-14.9,33.2-33.2C176.6,40.6,161.8,25.8,143.5,25.8z"/>
		</g>
		<g>
			<path class="st1" d="M143.5,85.3c14.5,0,26.4-11.8,26.4-26.4c0-14.5-11.9-26.4-26.4-26.4c-14.5,0-26.4,11.9-26.4,26.4
				C117.1,73.5,129,85.3,143.5,85.3z"/>
			<path class="st0" d="M143.5,85.7c-14.8,0-26.8-12-26.8-26.8s12-26.8,26.8-26.8c14.8,0,26.8,12,26.8,26.8S158.3,85.7,143.5,85.7z
				 M143.5,32.9c-14.3,0-26,11.7-26,26c0,14.3,11.7,26,26,26c14.3,0,26-11.7,26-26C169.5,44.6,157.8,32.9,143.5,32.9z"/>
		</g>
		<g>
			<path class="st1" d="M122.3,70.5l5.6-5.5l9.6-22.8l1-6.4c3.3-1,6.7-0.9,10.2,0.1l1,6.5l10.8,23l4.3,5.4c-0.2,2.4-1.9,4.5-4.7,6.3
				l-7.1-1.9l-18,0l-7.2,2.6C126.4,78.4,121.6,71.4,122.3,70.5z"/>
			<path class="st0" d="M127.6,78.3c-1.4,0-4.4-4.1-5.4-6.2c-0.4-0.9-0.5-1.5-0.2-1.8l5.5-5.5l9.6-22.7l1-6.5l0.2-0.1
				c3.4-1,6.9-1,10.5,0.1l0.2,0.1l1,6.7l10.8,22.9l4.3,5.5l0,0.1c-0.2,2.4-1.8,4.6-4.9,6.6l-0.1,0.1l-7.2-1.9l-17.9,0l-7.1,2.6
				C127.8,78.3,127.7,78.3,127.6,78.3z M138.8,36.1l-0.9,6.1l-9.7,23l-5.6,5.5c-0.1,0.3,0.7,1.9,2.2,4c1.5,2.1,2.5,2.8,2.9,2.8
				c0,0,0,0,0,0l7.3-2.6l18,0l7,1.8c2.7-1.8,4.1-3.7,4.4-5.8l-4.2-5.3l-10.9-23.2l-0.9-6.3C145.1,35.3,141.8,35.2,138.8,36.1z"/>
		</g>
		<g>
			<path class="st1" d="M143.5,78.1c10.6,0,19.2-8.6,19.2-19.2c0-10.6-8.6-19.2-19.2-19.2c-10.6,0-19.2,8.6-19.2,19.2
				C124.3,69.5,132.9,78.1,143.5,78.1z"/>
			<path class="st0" d="M143.5,78.5c-10.8,0-19.6-8.8-19.6-19.6c0-10.8,8.8-19.6,19.6-19.6s19.6,8.8,19.6,19.6
				C163.1,69.7,154.3,78.5,143.5,78.5z M143.5,40.1c-10.4,0-18.8,8.4-18.8,18.8s8.4,18.8,18.8,18.8c10.4,0,18.8-8.4,18.8-18.8
				S153.9,40.1,143.5,40.1z"/>
		</g>
		<g>
			<path class="st1" d="M143.5,74.3c8.5,0,15.4-6.9,15.4-15.4c0-8.5-6.9-15.4-15.4-15.4c-8.5,0-15.4,6.9-15.4,15.4
				C128.1,67.4,135,74.3,143.5,74.3z"/>
			<path class="st0" d="M143.5,74.7c-8.7,0-15.7-7.1-15.7-15.7s7.1-15.7,15.7-15.7s15.7,7.1,15.7,15.7S152.2,74.7,143.5,74.7z
				 M143.5,43.9c-8.3,0-15,6.7-15,15s6.7,15,15,15s15-6.7,15-15S151.8,43.9,143.5,43.9z"/>
		</g>
	</g>
	<g>
		<g>
			<rect x="28.2" y="51.7" class="st1" width="28.8" height="38.1"/>
			<path class="st0" d="M57.4,90.2H27.9V51.3h29.6V90.2z M28.6,89.4h28.1V52.1H28.6V89.4z"/>
		</g>
		<g>
			<path class="st1" d="M54.9,51.7h9.3v34c0,2.3-1.9,4.1-4.1,4.1h-5.2V51.7z"/>
			<path class="st0" d="M60.1,90.2h-5.5V51.3h10v34.4C64.6,88.2,62.5,90.2,60.1,90.2z M55.3,89.4h4.8c2.1,0,3.7-1.7,3.7-3.7V52.1
				h-8.5V89.4z"/>
		</g>
		<g>
			<path class="st1" d="M61.8,50.3c0,8.5-6.9,15.4-15.4,15.4c-8.5,0-15.4-6.9-15.4-15.4H61.8z"/>
			<path class="st0" d="M46.5,66c-8.7,0-15.7-7.1-15.7-15.7v-0.4h31.5v0.4C62.2,59,55.1,66,46.5,66z M31.5,50.7
				c0.2,8.1,6.8,14.6,15,14.6s14.8-6.5,15-14.6H31.5z"/>
		</g>
		<g>
			<polygon class="st1" points="18.1,28 72.8,28 72.8,33.4 68.5,33.4 68.5,48.9 18.1,48.9 			"/>
			<path class="st0" d="M68.8,49.2H17.7V27.7h55.5l0,6.1h-4.3L68.8,49.2z M18.4,48.5h49.7l0-15.5h4.3l0-4.6h-54V48.5z"/>
		</g>
		<g>
			<rect x="26.2" y="28" class="st1" width="13.8" height="5.2"/>
			<path class="st0" d="M40.4,33.6H25.8v-6h14.6V33.6z M26.6,32.9h13.1v-4.5H26.6V32.9z"/>
		</g>
		<g>
			<rect x="59" y="28" class="st1" width="13.8" height="5.4"/>
			<path class="st0" d="M73.2,33.8H58.6v-6.1h14.6V33.8z M59.4,33h13.1v-4.6H59.4V33z"/>
		</g>
		<g>
			<path class="st1" d="M45.2,49.1h2.6v15.2c0,0.7-0.6,1.3-1.3,1.3h0c-0.7,0-1.3-0.6-1.3-1.3V49.1z"/>
			<path class="st0" d="M46.5,65.9L46.5,65.9c-0.9,0-1.7-0.8-1.7-1.7V48.7h3.4v15.5C48.1,65.2,47.4,65.9,46.5,65.9z M45.5,49.5v14.8
				c0,0.5,0.4,0.9,0.9,0.9h0c0.5,0,0.9-0.4,0.9-0.9V49.5H45.5z"/>
		</g>
		<g>
			<rect x="2.8" y="46.2" class="st1" width="80.7" height="9.5"/>
			<path class="st0" d="M83.8,56.1H2.4V45.8h81.5V56.1z M3.1,55.4h80v-8.8h-80V55.4z"/>
		</g>
		<g>
			<rect x="0.4" y="45.3" class="st1" width="85.5" height="1.7"/>
			<path class="st0" d="M86.2,47.3H0v-2.4h86.2V47.3z M0.7,46.6h84.7v-0.9H0.7V46.6z"/>
		</g>
	</g>
</g>
</svg>
