<?xml version="1.0" encoding="utf-8"?>
<!-- Generator: Adobe Illustrator 16.0.4, SVG Export Plug-In . SVG Version: 6.00 Build 0)  -->
<!DOCTYPE svg PUBLIC "-//W3C//DTD SVG 1.1//EN" "http://www.w3.org/Graphics/SVG/1.1/DTD/svg11.dtd">
<svg version="1.1" id="H1" xmlns="http://www.w3.org/2000/svg" xmlns:xlink="http://www.w3.org/1999/xlink" x="0px" y="0px"
	 width="187px" height="117.8px" viewBox="0 0 187 117.8" style="enable-background:new 0 0 187 117.8;" xml:space="preserve">
<style type="text/css">
<![CDATA[
	.st0{fill:#999999;}
	.st1{fill-rule:evenodd;clip-rule:evenodd;fill:#e5e5e5;}
]]>
</style>
<g>
	<g>
		<g>
			<path class="st1" d="M143.5,16.2c23.6,0,42.7,19.1,42.7,42.7c0,1.9-0.1,3.8-0.4,5.6l-36.5,36.7c-1.9,0.3-3.9,0.4-5.8,0.4
				c-23.6,0-42.7-19.1-42.7-42.7C100.8,35.3,119.9,16.2,143.5,16.2z"/>
			<path class="st0" d="M143.5,102c-23.8,0-43.1-19.3-43.1-43.1c0-23.8,19.3-43.1,43.1-43.1c23.8,0,43.1,19.3,43.1,43.1
				c0,1.9-0.1,3.8-0.4,5.7l0,0.1l-0.1,0.1l-36.6,36.8l-0.1,0C147.5,101.9,145.5,102,143.5,102z M143.5,16.6
				c-23.4,0-42.4,19-42.4,42.4c0,23.4,19,42.4,42.4,42.4c1.9,0,3.8-0.1,5.7-0.4l36.3-36.5c0.2-1.8,0.4-3.6,0.4-5.5
				C185.9,35.6,166.9,16.6,143.5,16.6z"/>
		</g>
		<g>
			<path class="st1" d="M143.5,19.5c21.8,0,39.4,17.6,39.4,39.4c0,3.3-0.4,6.6-1.2,9.7l-28.6,28.5c-3.1,0.8-6.3,1.2-9.6,1.2
				c-21.8,0-39.4-17.6-39.4-39.4C104.1,37.2,121.7,19.5,143.5,19.5z"/>
			<path class="st0" d="M143.5,98.7c-21.9,0-39.8-17.8-39.8-39.8s17.8-39.8,39.8-39.8c21.9,0,39.8,17.8,39.8,39.8
				c0,3.3-0.4,6.6-1.2,9.8l0,0.1l-0.1,0.1l-28.7,28.6l-0.1,0C150,98.3,146.8,98.7,143.5,98.7z M143.5,19.9c-21.5,0-39,17.5-39,39
				c0,21.5,17.5,39,39,39c3.2,0,6.3-0.4,9.4-1.1l28.5-28.4c0.8-3.1,1.2-6.3,1.2-9.5C182.5,37.4,165,19.9,143.5,19.9z"/>
		</g>
		<g>
			<path class="st1" d="M143.7,34.4c2.3,0,4.1-1.9,4.1-4.1c0-2.3-1.9-4.1-4.1-4.1c-2.3,0-4.1,1.9-4.1,4.1
				C139.6,32.6,141.5,34.4,143.7,34.4z"/>
			<path class="st0" d="M143.7,34.8c-2.5,0-4.5-2-4.5-4.5c0-2.5,2-4.5,4.5-4.5c2.5,0,4.5,2,4.5,4.5
				C148.2,32.8,146.2,34.8,143.7,34.8z M143.7,26.5c-2.1,0-3.8,1.7-3.8,3.8c0,2.1,1.7,3.8,3.8,3.8c2.1,0,3.8-1.7,3.8-3.8
				C147.5,28.2,145.8,26.5,143.7,26.5z"/>
		</g>
		<g>
			<path class="st1" d="M132.6,89.6c2.3,0,4.1-1.9,4.1-4.1c0-2.3-1.9-4.1-4.1-4.1c-2.3,0-4.1,1.9-4.1,4.1
				C128.5,87.7,130.4,89.6,132.6,89.6z"/>
			<path class="st0" d="M132.6,90c-2.5,0-4.5-2-4.5-4.5c0-2.5,2-4.5,4.5-4.5c2.5,0,4.5,2,4.5,4.5C137.2,88,135.1,90,132.6,90z
				 M132.6,81.7c-2.1,0-3.8,1.7-3.8,3.8c0,2.1,1.7,3.8,3.8,3.8c2.1,0,3.8-1.7,3.8-3.8C136.4,83.4,134.7,81.7,132.6,81.7z"/>
		</g>
		<g>
			<rect x="125.6" y="54.3" class="st1" width="35.7" height="9.3"/>
			<path class="st0" d="M161.6,64.1h-36.4V54h36.4V64.1z M125.9,63.3h34.9v-8.6h-34.9V63.3z"/>
		</g>
		<g>
			<rect x="129.7" y="57.7" class="st1" width="28" height="2.5"/>
			<path class="st0" d="M158.1,60.6h-28.8v-3.3h28.8V60.6z M130.1,59.8h27.3v-1.8h-27.3V59.8z"/>
		</g>
		<g>
			<rect x="135.7" y="57.7" class="st1" width="17.2" height="2.5"/>
			<path class="st0" d="M153.3,60.6h-18v-3.3h18V60.6z M136.1,59.8h16.5v-1.8h-16.5V59.8z"/>
		</g>
	</g>
	<g>
		<g>
			<polygon class="st1" points="33.4,105 52.8,105 52.8,113.1 49.7,117.5 36.4,117.5 33.4,113.1 			"/>
			<path class="st0" d="M49.8,117.8H36.2l-3.1-4.7v-8.5h20.2v8.5L49.8,117.8z M36.5,117.1h12.9l3-4.2v-7.5H33.8v7.5L36.5,117.1z"/>
		</g>
		<g>
			<polygon class="st1" points="29.6,82.3 56.6,82.3 56.6,88.8 53.3,89 53.3,113.3 33.3,113.3 33.3,88.7 29.6,88.7 			"/>
			<path class="st0" d="M53.7,113.7H32.9V89.1h-3.7v-7.2H57v7.3l-3.4,0.1V113.7z M33.7,113h19.2V88.6l3.4-0.1v-5.8H29.9v5.7h3.7V113
				z"/>
		</g>
		<g>
			<rect x="25.6" y="60.9" class="st1" width="35.1" height="22.9"/>
			<path class="st0" d="M61,84.2H25.2V60.5H61V84.2z M25.9,83.4h34.3V61.2H25.9V83.4z"/>
		</g>
		<g>
			<rect x="25.6" y="60.9" class="st1" width="35.1" height="18.4"/>
			<path class="st0" d="M61,79.7H25.2V60.5H61V79.7z M25.9,78.9h34.3V61.2H25.9V78.9z"/>
		</g>
		<g>
			<path class="st1" d="M43.1,110.3c2.4,0,4.4-2,4.4-4.4c0-2.4-2-4.4-4.4-4.4c-2.4,0-4.4,2-4.4,4.4
				C38.7,108.3,40.7,110.3,43.1,110.3z"/>
			<path class="st0" d="M43.1,110.6c-2.6,0-4.8-2.1-4.8-4.8s2.1-4.8,4.8-4.8c2.6,0,4.8,2.1,4.8,4.8S45.7,110.6,43.1,110.6z
				 M43.1,101.9c-2.2,0-4,1.8-4,4c0,2.2,1.8,4,4,4c2.2,0,4-1.8,4-4C47.1,103.7,45.3,101.9,43.1,101.9z"/>
		</g>
		<g>
			<path class="st1" d="M43.1,73.6c1.6,0,2.8-1.3,2.8-2.8c0-1.6-1.3-2.8-2.8-2.8c-1.6,0-2.8,1.3-2.8,2.8
				C40.3,72.4,41.5,73.6,43.1,73.6z"/>
			<path class="st0" d="M43.1,74c-1.8,0-3.2-1.4-3.2-3.2c0-1.8,1.4-3.2,3.2-3.2c1.8,0,3.2,1.4,3.2,3.2C46.3,72.6,44.9,74,43.1,74z
				 M43.1,68.3c-1.4,0-2.5,1.1-2.5,2.5c0,1.4,1.1,2.5,2.5,2.5c1.4,0,2.5-1.1,2.5-2.5C45.6,69.4,44.5,68.3,43.1,68.3z"/>
		</g>
		<g>
			<path class="st1" d="M43.1,73.6c1.6,0,2.8-1.3,2.8-2.8c0-1.6-1.3-2.8-2.8-2.8c-1.6,0-2.8,1.3-2.8,2.8
				C40.3,72.4,41.5,73.6,43.1,73.6z"/>
			<path class="st0" d="M43.1,74c-1.8,0-3.2-1.4-3.2-3.2c0-1.8,1.4-3.2,3.2-3.2c1.8,0,3.2,1.4,3.2,3.2C46.3,72.6,44.9,74,43.1,74z
				 M43.1,68.3c-1.4,0-2.5,1.1-2.5,2.5c0,1.4,1.1,2.5,2.5,2.5c1.4,0,2.5-1.1,2.5-2.5C45.6,69.4,44.5,68.3,43.1,68.3z"/>
		</g>
		<g>
			<path class="st1" d="M42,59.8h2.3c1.4,0,2.5-1.1,2.5-2.5v-9.1c0-1.4-1.1-2.5-2.5-2.5H42c-1.4,0-2.5,1.1-2.5,2.5v9.1
				C39.5,58.7,40.6,59.8,42,59.8z"/>
			<path class="st0" d="M44.2,60.2H42c-1.6,0-2.8-1.3-2.8-2.8v-9.1c0-1.6,1.3-2.8,2.8-2.8h2.3c1.6,0,2.8,1.3,2.8,2.8v9.1
				C47.1,58.9,45.8,60.2,44.2,60.2z M42,46.1c-1.2,0-2.1,0.9-2.1,2.1v9.1c0,1.2,0.9,2.1,2.1,2.1h2.3c1.2,0,2.1-0.9,2.1-2.1v-9.1
				c0-1.2-0.9-2.1-2.1-2.1H42z"/>
		</g>
		<g>
			<path class="st1" d="M26.9,58.3h32.4V2.5c0-1.2-1-2.2-2.2-2.2h-28c-1.2,0-2.2,1-2.2,2.2V58.3z"/>
			<path class="st0" d="M59.7,58.6H26.6V2.5c0-1.4,1.1-2.5,2.5-2.5h28c1.4,0,2.5,1.1,2.5,2.5V58.6z M27.3,57.9h31.6V2.5
				c0-1-0.8-1.8-1.8-1.8h-28c-1,0-1.8,0.8-1.8,1.8V57.9z"/>
		</g>
		<g>
			<polygon class="st1" points="26.9,58.3 59.3,58.3 59.3,54.6 54.1,47.9 32.9,47.9 26.9,55.3 			"/>
			<path class="st0" d="M59.7,58.6H26.6v-3.5l6.2-7.6h21.6l5.4,6.9V58.6z M27.3,57.9h31.6v-3.2l-5-6.4H33.1l-5.8,7.1V57.9z"/>
		</g>
		<g>
			<rect x="32.8" y="5.3" class="st1" width="20.7" height="17.4"/>
			<path class="st0" d="M53.8,23.1H32.4V4.9h21.4V23.1z M33.1,22.3h19.9V5.7H33.1V22.3z"/>
		</g>
		<g>
			<rect x="38.9" y="7.9" class="st1" width="8.4" height="14.7"/>
			<path class="st0" d="M47.7,23h-9.2V7.6h9.2V23z M39.3,22.3H47v-14h-7.7V22.3z"/>
		</g>
		<g>
			<rect x="38.9" y="7.9" class="st1" width="8.4" height="14.7"/>
			<path class="st0" d="M47.7,23h-9.2V7.6h9.2V23z M39.3,22.3H47v-14h-7.7V22.3z"/>
		</g>
		<g>
			<polygon class="st1" points="43.6,5.4 45.1,5.4 45.1,22.4 41.2,22.4 41.2,13.5 			"/>
			<path class="st0" d="M45.4,22.8h-4.7l0-9.4l2.6-8.3h2.1V22.8z M41.5,22h3.2V5.8h-0.8l-2.4,7.7V22z"/>
		</g>
		<g>
			<polygon class="st1" points="42.6,5.6 41.2,5.6 41.2,22.6 45.1,22.6 45.1,13.7 			"/>
			<path class="st0" d="M45.4,23h-4.7V5.3h2.1l2.6,8.4V23z M41.5,22.2h3.2v-8.5L42.3,6h-0.8V22.2z"/>
		</g>
		<g>
			<polygon class="st1" points="53.1,31.5 40.1,31.5 40.1,30.3 33.1,30.3 33.1,41.5 39.6,41.5 39.6,42.9 53.1,42.9 			"/>
			<path class="st0" d="M53.5,43.2H39.3v-1.4h-6.5l0-11.9l7.7,0l0,1.3h13V43.2z M40,42.5h12.7V31.9h-13l0-1.3l-6.2,0l0,10.4H40V42.5
				z"/>
		</g>
		<g>
			<path class="st1" d="M0.4,62.4h85.5v-3.5c0-1.4-1.1-2.5-2.5-2.5H2.8c-1.4,0-2.5,1.1-2.5,2.5V62.4z"/>
			<path class="st0" d="M86.2,62.8H0v-3.8c0-1.6,1.3-2.8,2.8-2.8h80.5c1.6,0,2.8,1.3,2.8,2.8V62.8z M0.7,62h84.7v-3.1
				c0-1.2-0.9-2.1-2.1-2.1H2.8c-1.2,0-2.1,0.9-2.1,2.1V62z"/>
		</g>
		<g>
			<rect x="40.2" y="30.2" class="st1" width="5.9" height="9.1"/>
			<path class="st0" d="M46.4,39.7h-6.6v-9.8h6.6V39.7z M40.5,39h5.2v-8.3h-5.2V39z"/>
		</g>
		<g>
			<rect x="41.5" y="39.3" class="st1" width="3.3" height="2.1"/>
			<path class="st0" d="M45.1,41.8h-4V39h4V41.8z M41.9,41.1h2.5v-1.4h-2.5V41.1z"/>
		</g>
		<g>
			<rect x="42.2" y="31.7" class="st1" width="1.9" height="6.8"/>
			<path class="st0" d="M44.4,38.8h-2.6v-7.5h2.6V38.8z M42.5,38.1h1.1v-6h-1.1V38.1z"/>
		</g>
		<g>
			<rect x="39.7" y="33.8" class="st1" width="6.9" height="9"/>
			<path class="st0" d="M46.9,43.2h-7.6v-9.7h7.6V43.2z M40,42.4h6.2v-8.2H40V42.4z"/>
		</g>
	</g>
</g>
</svg>
