<?xml version="1.0" encoding="utf-8"?>
<!-- Generator: Adobe Illustrator 16.0.4, SVG Export Plug-In . SVG Version: 6.00 Build 0)  -->
<!DOCTYPE svg PUBLIC "-//W3C//DTD SVG 1.1//EN" "http://www.w3.org/Graphics/SVG/1.1/DTD/svg11.dtd">
<svg version="1.1" id="H3" xmlns="http://www.w3.org/2000/svg" xmlns:xlink="http://www.w3.org/1999/xlink" x="0px" y="0px"
	 width="187px" height="117.8px" viewBox="0 0 187 117.8" style="enable-background:new 0 0 187 117.8;" xml:space="preserve">
<style type="text/css">
<![CDATA[
	.st0{fill:#999999;}
	.st1{fill-rule:evenodd;clip-rule:evenodd;fill:#e5e5e5;}
]]>
</style>
<g>
	<g>
		<g>
			<path class="st1" d="M127.6,8.5l13.6,0l0-6.9c20.3,3.1,35.8,20.6,35.8,41.8c0,21.1-15.4,38.5-35.6,41.7c0-5.6-4.1-6.5-7-6.4
				c-3.1,0.1-6.7,2.5-6.5,6.4c-20.1-3.3-35.4-20.7-35.4-41.7c0-20.9,15.1-38.2,35-41.6L127.6,8.5z"/>
			<path class="st0" d="M141.1,85.6l0-0.4c0-5-3.5-6.1-6.3-6.1l-0.3,0c-1.7,0-3.6,0.9-4.7,2.1c-1,1.1-1.5,2.4-1.4,3.9l0,0.5
				l-0.5-0.1c-20.7-3.4-35.7-21.1-35.7-42.1c0-20.8,14.9-38.5,35.3-42l0.4-0.1l0,6.8l12.9,0l0-6.9l0.4,0.1
				c20.6,3.2,36.1,21.3,36.1,42.1c0,21.1-15.1,38.8-35.9,42.1L141.1,85.6z M134.8,78.3c2.6,0,6.8,0.8,7.1,6.4
				c20.2-3.4,34.9-20.7,34.9-41.3c0-20.3-15-38-35-41.3l0,6.8l-14.4,0l0-6.6C107.3,5.9,93,23.1,93,43.4c0,20.5,14.5,37.7,34.6,41.2
				c0-1.5,0.6-2.8,1.6-4c1.3-1.4,3.3-2.3,5.3-2.4L134.8,78.3z"/>
		</g>
		<g>
			<polygon class="st1" points="152.9,41.4 184.9,41.4 184.1,42.8 186.1,43.9 184.5,46.3 152.9,46.3 			"/>
			<path class="st0" d="M184.7,46.7h-32.2V41h33l-1,1.6l2,1.2L184.7,46.7z M153.3,45.9h31l1.3-1.8l-2-1.2l0.7-1.1h-31V45.9z"/>
		</g>
		<g>
			<rect x="115.5" y="37.1" class="st1" width="38.6" height="12.7"/>
			<path class="st0" d="M154.5,50.2h-39.3V36.8h39.3V50.2z M115.9,49.5h37.8v-12h-37.8V49.5z"/>
		</g>
	</g>
	<g>
		<g>
			<rect x="24.5" y="42.2" class="st1" width="37.8" height="71.3"/>
			<path class="st0" d="M62.7,113.9H24.1v-72h38.6V113.9z M24.9,113.1H62V42.6H24.9V113.1z"/>
		</g>
		<g>
			<rect x="24.5" y="103.6" class="st1" width="37.8" height="9.9"/>
			<path class="st0" d="M62.7,113.9H24.1v-10.7h38.6V113.9z M24.9,113.1H62v-9.2H24.9V113.1z"/>
		</g>
		<g>
			<rect x="24.5" y="110.8" class="st1" width="37.8" height="2.7"/>
			<path class="st0" d="M62.7,113.9H24.1v-3.4h38.6V113.9z M24.9,113.1H62v-1.9H24.9V113.1z"/>
		</g>
		<g>
			<rect x="29.2" y="109.9" class="st1" width="8.9" height="3.6"/>
			<path class="st0" d="M38.5,113.9h-9.6v-4.4h9.6V113.9z M29.6,113.1h8.1v-2.9h-8.1V113.1z"/>
		</g>
		<g>
			<rect x="31.2" y="70.8" class="st1" width="24.1" height="8.5"/>
			<path class="st0" d="M55.7,79.6H30.8v-9.2h24.9V79.6z M31.5,78.9h23.4v-7.7H31.5V78.9z"/>
		</g>
		<g>
			<rect x="48.7" y="109.9" class="st1" width="8.9" height="3.6"/>
			<path class="st0" d="M57.9,113.9h-9.6v-4.4h9.6V113.9z M49.1,113.1h8.1v-2.9h-8.1V113.1z"/>
		</g>
		<g>
			<rect x="0.4" y="78.2" class="st1" width="85.8" height="2.8"/>
			<path class="st0" d="M86.6,81.3H0v-3.5h86.6V81.3z M0.7,80.6h85.1v-2H0.7V80.6z"/>
		</g>
		<g>
			<rect x="36.6" y="78.2" class="st1" width="13.1" height="2.8"/>
			<path class="st0" d="M50.1,81.3H36.3v-3.5h13.8V81.3z M37,80.6h12.3v-2H37V80.6z"/>
		</g>
		<g>
			<polygon class="st1" points="30.2,49.2 35.1,49.2 38,64.1 31.8,64.1 			"/>
			<path class="st0" d="M38.4,64.5h-7l-1.7-15.7h5.6L38.4,64.5z M32.1,63.7h5.4l-2.7-14.2h-4.2L32.1,63.7z"/>
		</g>
		<g>
			<polygon class="st1" points="32.2,50.8 35.1,49.1 38,64.1 33.2,64.1 			"/>
			<path class="st0" d="M38.4,64.5h-5.6l-1-13.8l3.5-2.1L38.4,64.5z M33.5,63.7h4l-2.7-14L32.6,51L33.5,63.7z"/>
		</g>
		<g>
			<polygon class="st1" points="56.7,49.3 51.8,49.3 48.9,64.2 55.1,64.2 			"/>
			<path class="st0" d="M55.5,64.6h-7l3-15.7h5.6L55.5,64.6z M49.4,63.8h5.4l1.5-14.2h-4.2L49.4,63.8z"/>
		</g>
		<g>
			<polygon class="st1" points="54.7,51 51.8,49.3 48.9,64.2 53.7,64.2 			"/>
			<path class="st0" d="M54.1,64.6h-5.6l3.1-15.9l3.5,2.1L54.1,64.6z M49.4,63.8h4l0.9-12.7l-2.2-1.3L49.4,63.8z"/>
		</g>
		<g>
			<rect x="61" y="106.2" class="st1" width="22.2" height="4.7"/>
			<path class="st0" d="M83.6,111.3H60.6v-5.5h22.9V111.3z M61.4,110.6h21.4v-4H61.4V110.6z"/>
		</g>
		<g>
			<rect x="84.8" y="106.4" class="st1" width="22.2" height="4.7"/>
			<path class="st0" d="M107.4,111.5H84.4V106h22.9V111.5z M85.2,110.7h21.4v-4H85.2V110.7z"/>
		</g>
		<g>
			<rect x="105.3" y="103.7" class="st1" width="28.9" height="9.8"/>
			<path class="st0" d="M134.6,113.9h-29.7v-10.6h29.7V113.9z M105.7,113.1h28.2v-9.1h-28.2V113.1z"/>
		</g>
		<g>
			<rect x="131.3" y="100.9" class="st1" width="26.5" height="15.3"/>
			<path class="st0" d="M158.1,116.5h-27.2v-16h27.2V116.5z M131.6,115.8h25.7v-14.5h-25.7V115.8z"/>
		</g>
		<g>
			<path class="st1" d="M131.3,100.9h26.3c2.1,0,3.8,1.7,3.8,3.8v7.7c0,2.1-1.7,3.8-3.8,3.8h-26.3V100.9z"/>
			<path class="st0" d="M157.6,116.5h-26.7v-16h26.7c2.3,0,4.2,1.9,4.2,4.2v7.7C161.8,114.7,159.9,116.5,157.6,116.5z M131.6,115.8
				h26c1.9,0,3.4-1.5,3.4-3.4v-7.7c0-1.9-1.5-3.4-3.4-3.4h-26V115.8z"/>
		</g>
		<g>
			<path class="st1" d="M149.3,111.6c1.6,0,2.8-1.3,2.8-2.8c0-1.6-1.3-2.8-2.8-2.8c-1.6,0-2.8,1.3-2.8,2.8
				C146.5,110.3,147.8,111.6,149.3,111.6z"/>
			<path class="st0" d="M149.3,111.9c-1.8,0-3.2-1.4-3.2-3.2c0-1.8,1.4-3.2,3.2-3.2s3.2,1.4,3.2,3.2
				C152.5,110.5,151.1,111.9,149.3,111.9z M149.3,106.3c-1.3,0-2.4,1.1-2.4,2.4c0,1.3,1.1,2.4,2.4,2.4c1.3,0,2.4-1.1,2.4-2.4
				C151.8,107.4,150.7,106.3,149.3,106.3z"/>
		</g>
	</g>
</g>
</svg>
