<?xml version="1.0" encoding="utf-8"?>
<!-- Generator: Adobe Illustrator 16.0.4, SVG Export Plug-In . SVG Version: 6.00 Build 0)  -->
<!DOCTYPE svg PUBLIC "-//W3C//DTD SVG 1.1//EN" "http://www.w3.org/Graphics/SVG/1.1/DTD/svg11.dtd">
<svg version="1.1" id="D2H" xmlns="http://www.w3.org/2000/svg" xmlns:xlink="http://www.w3.org/1999/xlink" x="0px" y="0px"
	 width="187px" height="117.8px" viewBox="0 0 187 117.8" style="enable-background:new 0 0 187 117.8;" xml:space="preserve">
<style type="text/css">
<![CDATA[
	.st0{fill:#999999;}
	.st1{fill-rule:evenodd;clip-rule:evenodd;fill:#e5e5e5;}
]]>
</style>
<g>
	<g>
		<g>
			<path class="st1" d="M148.1,16.1c3.6,0.4,7.2,1.2,10.5,2.5c-4.7,10.8,3.4,14,9.4,4.9c9.7,6.7,16.6,17.3,18.2,29.5
				c-10.8,0.1-13.4,11.6,0,11.8c-2.9,20.9-20.8,36.9-42.5,36.9c-23.7,0-42.9-19.2-42.9-42.9c0-10.8,4-20.7,10.6-28.2
				c7,5,12.7-1.4,7-6.5c5.2-4.1,12.9-6.9,19.8-7.9l-0.1,9.4l9.9,0.1L148.1,16.1z"/>
			<path class="st0" d="M143.7,102.1c-23.9,0-43.3-19.4-43.3-43.3c0-10.5,3.8-20.6,10.7-28.5l0.2-0.3l0.3,0.2
				c1.6,1.1,3.2,1.7,4.7,1.7c1.8,0,3.3-0.9,3.8-2.3c0.6-1.7-0.1-3.7-2-5.3l-0.3-0.3l0.4-0.3c5-3.9,12.7-7,20-8l0.4-0.1l-0.1,9.5
				l9.2,0.1l0-9.6l0.4,0c3.6,0.4,7.2,1.2,10.6,2.5l0.4,0.1l-0.2,0.4c-1.6,3.6-1.8,6.6-0.7,8.4c0.6,0.9,1.4,1.3,2.5,1.3
				c2.2,0,4.8-1.9,7-5.1l0.2-0.3l0.3,0.2c10.1,6.9,16.8,17.8,18.4,29.8l0.1,0.4l-0.4,0c-5.4,0-8.7,3-8.7,5.9c0,2.3,2.3,5.1,8.7,5.2
				l0.4,0l-0.1,0.4C183.6,86.1,165.2,102.1,143.7,102.1z M111.5,31.1c-6.7,7.7-10.3,17.5-10.3,27.7c0,23.5,19.1,42.6,42.6,42.6
				c21,0,39-15.5,42.1-36.2c-6.7-0.2-9-3.3-9-5.9c0-3.2,3.4-6.5,9-6.7c-1.7-11.5-8.1-21.9-17.7-28.6c-2.2,3.2-5,5.1-7.4,5.1
				c-1.3,0-2.4-0.6-3.1-1.6c-1.2-1.9-1.1-5,0.5-8.7c-3.1-1.1-6.3-1.9-9.6-2.2l0,9.6L137.8,26l0.1-9.4c-6.9,1-14.1,3.9-18.9,7.5
				c1.9,1.8,2.6,4,1.9,5.8c-0.7,1.7-2.4,2.8-4.5,2.8C114.8,32.8,113.1,32.2,111.5,31.1z"/>
		</g>
		<g>
			<path class="st1" d="M143.5,87.9c15.9,0,29-13,29-29c0-15.9-13-29-29-29s-29,13-29,29C114.5,74.9,127.5,87.9,143.5,87.9z"/>
			<path class="st0" d="M143.5,88.2c-16.2,0-29.3-13.2-29.3-29.3c0-16.2,13.2-29.3,29.3-29.3s29.3,13.2,29.3,29.3
				C172.8,75.1,159.7,88.2,143.5,88.2z M143.5,30.3c-15.8,0-28.6,12.8-28.6,28.6c0,15.8,12.8,28.6,28.6,28.6s28.6-12.8,28.6-28.6
				C172.1,43.2,159.3,30.3,143.5,30.3z"/>
		</g>
		<g>
			<path class="st1" d="M143.5,73.9c8.2,0,15-6.7,15-15c0-8.3-6.7-15-15-15c-8.2,0-15,6.7-15,15C128.5,67.2,135.2,73.9,143.5,73.9z"
				/>
			<path class="st0" d="M143.5,74.3c-8.5,0-15.3-6.9-15.3-15.4s6.9-15.4,15.3-15.4s15.3,6.9,15.3,15.4S152,74.3,143.5,74.3z
				 M143.5,44.3c-8.1,0-14.6,6.6-14.6,14.6c0,8.1,6.6,14.6,14.6,14.6s14.6-6.6,14.6-14.6C158.1,50.9,151.5,44.3,143.5,44.3z"/>
		</g>
		<g>
			<path class="st1" d="M143.5,83.5c13.6,0,24.6-11.1,24.6-24.6c0-13.6-11.1-24.6-24.6-24.6s-24.6,11.1-24.6,24.6
				C118.9,72.5,129.9,83.5,143.5,83.5z"/>
			<path class="st0" d="M143.5,83.9c-13.8,0-25-11.2-25-25c0-13.8,11.2-25,25-25s25,11.2,25,25C168.5,72.7,157.3,83.9,143.5,83.9z
				 M143.5,34.7c-13.4,0-24.2,10.9-24.2,24.2c0,13.4,10.9,24.2,24.2,24.2c13.4,0,24.2-10.9,24.2-24.2
				C167.7,45.6,156.9,34.7,143.5,34.7z"/>
		</g>
		<g>
			<path class="st1" d="M143.5,67c4.4,0,8.1-3.6,8.1-8.1c0-4.4-3.6-8.1-8.1-8.1c-4.4,0-8.1,3.6-8.1,8.1
				C135.4,63.4,139.1,67,143.5,67z"/>
			<path class="st0" d="M143.5,67.3c-4.6,0-8.4-3.8-8.4-8.4c0-4.6,3.8-8.4,8.4-8.4c4.6,0,8.4,3.8,8.4,8.4
				C151.9,63.6,148.1,67.3,143.5,67.3z M143.5,51.2c-4.2,0-7.7,3.4-7.7,7.7c0,4.2,3.4,7.7,7.7,7.7c4.2,0,7.7-3.4,7.7-7.7
				C151.2,54.7,147.7,51.2,143.5,51.2z"/>
		</g>
	</g>
	<g>
		<g>
			<path class="st1" d="M39.1,61.4l7.2-0.1c-0.1,20.4,10.3,30.9,23.5,38.8l-1.8,4.7l-2.2-3.4l-3,4.5C49.4,93.9,39,89.8,39.1,61.4z"
				/>
			<path class="st0" d="M63,106.5l-0.3-0.3c-1.9-1.6-3.6-3.1-5.4-4.6c-10.9-9-18.7-15.6-18.6-40.2l0-0.4l8-0.1l0,0.4
				C46.6,82.8,58.4,92.8,70,99.8l0.3,0.2l-2.1,5.7l-2.3-3.6L63,106.5z M39.4,61.8c0,24,7.7,30.4,18.3,39.3c1.6,1.4,3.3,2.8,5.1,4.3
				l3-4.7L68,104l1.4-3.7c-11.6-7-23.4-17.1-23.4-38.6L39.4,61.8z"/>
		</g>
		<g>
			<path class="st1" d="M34.4,17.6h17.3v39.2c0,4-3.3,7.3-7.3,7.3h-2.7c-4,0-7.3-3.3-7.3-7.3V17.6z"/>
			<path class="st0" d="M44.5,64.5h-2.7c-4.2,0-7.7-3.4-7.7-7.7V17.2h18.1v39.6C52.2,61.1,48.7,64.5,44.5,64.5z M34.8,18v38.9
				c0,3.8,3.1,6.9,6.9,6.9h2.7c3.8,0,6.9-3.1,6.9-6.9V18H34.8z"/>
		</g>
		<g>
			<rect x="0.4" y="11.9" class="st1" width="85.5" height="8.6"/>
			<path class="st0" d="M86.2,20.8H0v-9.3h86.2V20.8z M0.7,20.1h84.7v-7.8H0.7V20.1z"/>
		</g>
		<g>
			<rect x="37.9" y="11.9" class="st1" width="10.4" height="8.6"/>
			<path class="st0" d="M48.7,20.8H37.5v-9.3h11.2V20.8z M38.3,20.1H48v-7.8h-9.7V20.1z"/>
		</g>
	</g>
</g>
</svg>
