<?xml version="1.0" encoding="utf-8"?>
<!-- Generator: Adobe Illustrator 16.0.4, SVG Export Plug-In . SVG Version: 6.00 Build 0)  -->
<!DOCTYPE svg PUBLIC "-//W3C//DTD SVG 1.1//EN" "http://www.w3.org/Graphics/SVG/1.1/DTD/svg11.dtd">
<svg version="1.1" xmlns="http://www.w3.org/2000/svg" xmlns:xlink="http://www.w3.org/1999/xlink" x="0px" y="0px" width="187px"
	 height="117.8px" viewBox="0 0 187 117.8" style="enable-background:new 0 0 187 117.8;" xml:space="preserve">
<style type="text/css">
<![CDATA[
	.st0{fill:#999999;}
	.st1{fill-rule:evenodd;clip-rule:evenodd;fill:#e5e5e5;}
	.st2{display:inline;}
	.st3{display:none;}
]]>
</style>
<g id="H16" class="st3">
	<g class="st2">
		<g>
			<g>
				<rect x="155.1" y="28" class="st1" width="2.2" height="17"/>
				<path class="st0" d="M157.7,45.4h-3V27.7h3V45.4z M155.5,44.6h1.5V28.4h-1.5V44.6z"/>
			</g>
			<g>
				<rect x="130.9" y="28" class="st1" width="2.2" height="17"/>
				<path class="st0" d="M133.5,45.4h-3V27.7h3V45.4z M131.3,44.6h1.5V28.4h-1.5V44.6z"/>
			</g>
			<g>
				<rect x="103.8" y="72" class="st1" width="79.4" height="2.2"/>
				<path class="st0" d="M183.6,74.6h-80.2v-3h80.2V74.6z M104.2,73.9h78.7v-1.5h-78.7V73.9z"/>
			</g>
			<g>
				<rect x="103.8" y="45.1" class="st1" width="79.4" height="2.2"/>
				<path class="st0" d="M183.6,47.7h-80.2v-3h80.2V47.7z M104.2,47h78.7v-1.5h-78.7V47z"/>
			</g>
			<g>
				<rect x="100.8" y="50.5" class="st1" width="85.5" height="18.6"/>
				<path class="st0" d="M186.6,69.5h-86.2V50.1h86.2V69.5z M101.1,68.8h84.7V50.9h-84.7V68.8z"/>
			</g>
			<g>
				<circle class="st1" cx="143.6" cy="59.8" r="30"/>
				<path class="st0" d="M143.6,90.2c-16.7,0-30.4-13.6-30.4-30.4c0-16.7,13.6-30.4,30.4-30.4c16.7,0,30.4,13.6,30.4,30.4
					C174,76.6,160.3,90.2,143.6,90.2z M143.6,30.2c-16.3,0-29.6,13.3-29.6,29.6s13.3,29.6,29.6,29.6c16.3,0,29.6-13.3,29.6-29.6
					S159.9,30.2,143.6,30.2z"/>
			</g>
			<g>
				<circle class="st1" cx="143.6" cy="59.8" r="20.3"/>
				<path class="st0" d="M143.6,80.5c-11.4,0-20.6-9.3-20.6-20.6c0-11.4,9.3-20.6,20.6-20.6c11.4,0,20.6,9.3,20.6,20.6
					C164.2,71.2,155,80.5,143.6,80.5z M143.6,39.9c-11,0-19.9,8.9-19.9,19.9s8.9,19.9,19.9,19.9c11,0,19.9-8.9,19.9-19.9
					S154.6,39.9,143.6,39.9z"/>
			</g>
			<g>
				<path class="st1" d="M160.8,59.8c0-9.5-7.7-17.2-17.2-17.2s-17.2,7.7-17.2,17.2c0,9.5,7.7,17.2,17.2,17.2S160.8,69.3,160.8,59.8
					z"/>
				<path class="st0" d="M143.6,77.4c-9.7,0-17.6-7.9-17.6-17.6c0-9.7,7.9-17.6,17.6-17.6s17.6,7.9,17.6,17.6
					C161.2,69.5,153.3,77.4,143.6,77.4z M143.6,43c-9.3,0-16.8,7.6-16.8,16.8c0,9.3,7.6,16.8,16.8,16.8s16.8-7.6,16.8-16.8
					C160.4,50.5,152.9,43,143.6,43z"/>
			</g>
			<g>
				<circle class="st1" cx="143.6" cy="59.8" r="10.8"/>
				<path class="st0" d="M143.6,71c-6.2,0-11.2-5-11.2-11.2c0-6.2,5-11.2,11.2-11.2c6.2,0,11.2,5,11.2,11.2
					C154.8,66,149.8,71,143.6,71z M143.6,49.4c-5.8,0-10.5,4.7-10.5,10.5c0,5.8,4.7,10.5,10.5,10.5c5.8,0,10.5-4.7,10.5-10.5
					C154.1,54.1,149.4,49.4,143.6,49.4z"/>
			</g>
			<g>
				<path class="st1" d="M184.7,67.1v-5.5h-3.5c-1,0-1-2.9,0-2.9l3.5,0v-5.7h-11.2v2.1h3.7l0,2.6l-1.3,0v4.6l1.3,0l0,2.4l-3.7,0v2.4
					H184.7z"/>
				<path class="st0" d="M185.1,67.5h-11.9v-3.2l3.7,0l0-1.6l-1.3,0v-5.4l1.3,0l0-1.8h-3.7v-2.9h11.9V59l-3.9,0
					c-0.1,0-0.3,0.4-0.3,1.1c0,0.7,0.2,1.1,0.4,1.1h3.8V67.5z M173.9,66.7h10.5v-4.8h-3.1c-0.8,0-1.1-0.9-1.1-1.9
					c0-0.4,0.1-0.8,0.2-1.1c0.3-0.6,0.7-0.7,0.9-0.7l3.1,0v-5h-10.5v1.4h3.7l0,3.3l-1.3,0v3.9l1.3,0l0,3.1l-3.7,0V66.7z"/>
			</g>
			<g>
				<path class="st1" d="M102.3,67.1v-5.5h3.5c1,0,1-2.9,0-2.9l-3.5,0v-5.7h11.2v2.1h-3.7l0,2.6l1.3,0l0,4.6l-1.3,0l0,2.4l3.7,0v2.4
					H102.3z"/>
				<path class="st0" d="M113.9,67.5h-11.9v-6.3h3.8c0.1,0,0.2-0.1,0.2-0.2c0.1-0.2,0.2-0.5,0.2-0.9c0-0.6-0.2-1.1-0.3-1.1l-3.9,0
					v-6.5h11.9v2.9h-3.7l0,1.8l1.3,0l0,5.4l-1.3,0l0,1.6l3.7,0V67.5z M102.7,66.7h10.5V65l-3.7,0l0-3.1l1.3,0l0-3.9l-1.3,0l0-3.3
					h3.7v-1.4h-10.5v5l3.1,0c0.7,0,1.1,0.7,1.1,1.8c0,0.4-0.1,0.9-0.2,1.2c-0.3,0.6-0.7,0.7-0.9,0.7h-3.1V66.7z"/>
			</g>
		</g>
		<g>
			<g>
				<rect x="15.3" y="40.3" class="st1" width="55.7" height="9.6"/>
				<path class="st0" d="M71.3,50.3H14.9V39.9h56.4V50.3z M15.6,49.6h54.9v-8.9H15.6V49.6z"/>
			</g>
			<g>
				<rect x="10.8" y="48.1" class="st1" width="64.5" height="6.2"/>
				<path class="st0" d="M75.7,54.6H10.5v-6.9h65.3V54.6z M11.2,53.8H75v-5.4H11.2V53.8z"/>
			</g>
			<g>
				<rect x="25.4" y="58.8" class="st1" width="35.3" height="18.7"/>
				<path class="st0" d="M61.2,77.9H25.1V58.4h36.1V77.9z M25.8,77.2h34.6v-18H25.8V77.2z"/>
			</g>
			<g>
				<rect x="0.4" y="51.8" class="st1" width="85.4" height="9.6"/>
				<path class="st0" d="M86.2,61.8H0V51.5h86.2V61.8z M0.8,61.1h84.7v-8.9H0.8V61.1z"/>
			</g>
			<g>
				<rect x="8.2" y="51.8" class="st1" width="69.9" height="9.6"/>
				<path class="st0" d="M78.4,61.8H7.8V51.5h70.6V61.8z M8.5,61.1h69.1v-8.9H8.5V61.1z"/>
			</g>
			<g>
				<path class="st1" d="M2.9,61.3c0,3.4,3.7,3.9,7.9,3.9l66.5,0c2.2,0,5.4-1,5.4-3.7c1.1,0,2.2,0,3.3,0c0,5.6-5.7,7.7-8.7,7.7H10.7
					c-6.7,0-10.5-2-10.4-7.9H2.9z"/>
				<path class="st0" d="M77.1,69.6H10.7c-4.3,0-7.2-0.8-8.9-2.6c-1.3-1.3-1.9-3.2-1.9-5.7L0,61h3.2l0,0.4c0,2.9,3,3.5,7.5,3.5
					l66.5,0c1.3,0,3.1-0.4,4.2-1.5c0.5-0.5,0.8-1.2,0.8-1.9l0-0.4h4l0,0.4c0,2.1-0.7,3.8-2.1,5.3C82.1,68.7,79.2,69.6,77.1,69.6z
					 M0.7,61.7c0,2.1,0.6,3.7,1.7,4.8c1.5,1.6,4.3,2.3,8.3,2.3h66.4c1.8,0,4.6-0.8,6.4-2.6c1.2-1.2,1.8-2.7,1.9-4.4h-2.5
					c-0.1,0.8-0.4,1.5-1,2c-1.2,1.2-3.3,1.7-4.7,1.7l-66.5,0c-2.8,0-7.9,0-8.3-3.9H0.7z"/>
			</g>
		</g>
	</g>
</g>
<g id="D3S" class="st3">
	<g class="st2">
		<g>
			<g>
				<rect x="8.8" y="54.9" class="st1" width="68.6" height="15"/>
				<path class="st0" d="M77.8,70.3H8.5V54.5h69.3V70.3z M9.2,69.5H77V55.2H9.2V69.5z"/>
			</g>
			<g>
				<rect x="18.9" y="38.3" class="st1" width="48.4" height="5.6"/>
				<path class="st0" d="M67.7,44.3H18.5V38h49.2V44.3z M19.3,43.6h47.7v-4.9H19.3V43.6z"/>
			</g>
			<g>
				<rect x="14.9" y="35.8" class="st1" width="56.4" height="5.6"/>
				<path class="st0" d="M71.7,41.8H14.6v-6.4h57.1V41.8z M15.3,41.1h55.6v-4.9H15.3V41.1z"/>
			</g>
			<g>
				<rect x="0.4" y="42.7" class="st1" width="85.5" height="39.3"/>
				<path class="st0" d="M86.2,82.4H0v-40h86.2V82.4z M0.7,81.6h84.7V43.1H0.7V81.6z"/>
			</g>
		</g>
		<g>
			<g>
				<rect x="122.9" y="89.1" class="st1" width="41.1" height="18.7"/>
				<path class="st0" d="M164.4,108.2h-41.9V88.8h41.9V108.2z M123.3,107.4h40.4V89.5h-40.4V107.4z"/>
			</g>
			<g>
				<path class="st1" d="M111,10h65c5.6,0,10.3,4.6,10.3,10.3v65c0,5.6-4.6,10.3-10.3,10.3h-65c-5.6,0-10.3-4.6-10.3-10.3v-65
					C100.8,14.6,105.4,10,111,10z"/>
				<path class="st0" d="M176,95.9h-65c-5.9,0-10.6-4.8-10.6-10.6v-65c0-5.9,4.8-10.6,10.6-10.6h65c5.9,0,10.6,4.8,10.6,10.6v65
					C186.6,91.1,181.8,95.9,176,95.9z M111,10.4c-5.4,0-9.9,4.4-9.9,9.9v65c0,5.4,4.4,9.9,9.9,9.9h65c5.4,0,9.9-4.4,9.9-9.9v-65
					c0-5.5-4.4-9.9-9.9-9.9H111z"/>
			</g>
			<g>
				<path class="st1" d="M146.7,23.4c13.5,1.4,24.3,11.9,26.1,25.3c-7.4,0.1-9.1,7.9,0,8.1c-2,14.3-14.3,25.3-29.1,25.3
					c-16.3,0-29.4-13.2-29.4-29.4c0-15.6,10.8-28.3,25.7-29.2l0,6.5l6.8,0L146.7,23.4z"/>
				<path class="st0" d="M143.6,82.5c-16.4,0-29.8-13.4-29.8-29.8c0-16,11.2-28.7,26.1-29.6l0.4,0l0,6.5l6.1,0l0-6.6l0.4,0
					c13.7,1.4,24.6,12,26.5,25.6l0.1,0.4l-0.4,0c-3.7,0-5.9,2-5.9,3.9c0,1.5,1.5,3.3,5.9,3.4l0.4,0l-0.1,0.4
					C171.1,71.5,158.4,82.5,143.6,82.5z M139.5,23.9c-14.3,1.1-25,13.4-25,28.8c0,16,13,29,29,29c14.3,0,26.5-10.5,28.7-24.6
					c-4.6-0.2-6.2-2.3-6.2-4.2c0-2.2,2.3-4.5,6.2-4.7c-1.9-13-12.3-23-25.3-24.5l0,6.5l-7.6,0L139.5,23.9z"/>
			</g>
			<g>
				<path class="st1" d="M143.5,72.6c10.9,0,19.8-8.9,19.8-19.8c0-10.9-8.9-19.8-19.8-19.8c-10.9,0-19.8,8.9-19.8,19.8
					C123.7,63.7,132.6,72.6,143.5,72.6z"/>
				<path class="st0" d="M143.5,73c-11.1,0-20.2-9.1-20.2-20.2c0-11.1,9.1-20.2,20.2-20.2c11.1,0,20.2,9.1,20.2,20.2
					C163.7,63.9,154.6,73,143.5,73z M143.5,33.3c-10.7,0-19.5,8.7-19.5,19.5c0,10.7,8.7,19.5,19.5,19.5c10.7,0,19.5-8.7,19.5-19.5
					C163,42,154.2,33.3,143.5,33.3z"/>
			</g>
			<g>
				<path class="st1" d="M143.5,63c5.7,0,10.3-4.6,10.3-10.3c0-5.7-4.6-10.3-10.3-10.3c-5.7,0-10.3,4.6-10.3,10.3
					C133.2,58.4,137.8,63,143.5,63z"/>
				<path class="st0" d="M143.5,63.4c-5.9,0-10.6-4.8-10.6-10.6c0-5.9,4.8-10.6,10.6-10.6c5.9,0,10.6,4.8,10.6,10.6
					C154.1,58.6,149.4,63.4,143.5,63.4z M143.5,42.9c-5.5,0-9.9,4.4-9.9,9.9c0,5.5,4.4,9.9,9.9,9.9c5.5,0,9.9-4.4,9.9-9.9
					C153.4,47.3,149,42.9,143.5,42.9z"/>
			</g>
			<g>
				<path class="st1" d="M143.5,69.6c9.3,0,16.9-7.6,16.9-16.9c0-9.3-7.6-16.9-16.9-16.9c-9.3,0-16.9,7.6-16.9,16.9
					C126.6,62.1,134.2,69.6,143.5,69.6z"/>
				<path class="st0" d="M143.5,70c-9.5,0-17.2-7.7-17.2-17.2c0-9.5,7.7-17.2,17.2-17.2c9.5,0,17.2,7.7,17.2,17.2
					C160.7,62.3,153,70,143.5,70z M143.5,36.3c-9.1,0-16.5,7.4-16.5,16.5c0,9.1,7.4,16.5,16.5,16.5c9.1,0,16.5-7.4,16.5-16.5
					C160,43.7,152.6,36.3,143.5,36.3z"/>
			</g>
			<g>
				<path class="st1" d="M143.5,58.3c3,0,5.5-2.5,5.5-5.5c0-3-2.5-5.5-5.5-5.5c-3,0-5.5,2.5-5.5,5.5C138,55.8,140.5,58.3,143.5,58.3
					z"/>
				<path class="st0" d="M143.5,58.7c-3.2,0-5.9-2.6-5.9-5.9c0-3.2,2.6-5.9,5.9-5.9s5.9,2.6,5.9,5.9C149.4,56,146.7,58.7,143.5,58.7
					z M143.5,47.6c-2.8,0-5.1,2.3-5.1,5.1c0,2.8,2.3,5.1,5.1,5.1c2.8,0,5.1-2.3,5.1-5.1C148.6,49.9,146.3,47.6,143.5,47.6z"/>
			</g>
		</g>
	</g>
</g>
<g id="D1S" class="st3">
	<g class="st2">
		<g>
			<g>
				<rect x="8.8" y="54.9" class="st1" width="68.6" height="15"/>
				<path class="st0" d="M77.8,70.3H8.5V54.5h69.3V70.3z M9.2,69.5H77V55.2H9.2V69.5z"/>
			</g>
			<g>
				<rect x="18.9" y="38.3" class="st1" width="48.4" height="5.6"/>
				<path class="st0" d="M67.7,44.3H18.5V38h49.2V44.3z M19.3,43.6h47.7v-4.9H19.3V43.6z"/>
			</g>
			<g>
				<rect x="14.9" y="35.8" class="st1" width="56.4" height="5.6"/>
				<path class="st0" d="M71.7,41.8H14.6v-6.4h57.1V41.8z M15.3,41.1h55.6v-4.9H15.3V41.1z"/>
			</g>
			<g>
				<rect x="0.4" y="42.7" class="st1" width="85.5" height="39.3"/>
				<path class="st0" d="M86.2,82.4H0v-40h86.2V82.4z M0.7,81.6h84.7V43.1H0.7V81.6z"/>
			</g>
		</g>
		<g>
			<g>
				<rect x="122.9" y="89.1" class="st1" width="41.1" height="18.7"/>
				<path class="st0" d="M164.4,108.2h-41.9V88.8h41.9V108.2z M123.3,107.4h40.4V89.5h-40.4V107.4z"/>
			</g>
			<g>
				<path class="st1" d="M111,10h65c5.6,0,10.3,4.6,10.3,10.3v65c0,5.6-4.6,10.3-10.3,10.3h-65c-5.6,0-10.3-4.6-10.3-10.3v-65
					C100.8,14.6,105.4,10,111,10z"/>
				<path class="st0" d="M176,95.9h-65c-5.9,0-10.6-4.8-10.6-10.6v-65c0-5.9,4.8-10.6,10.6-10.6h65c5.9,0,10.6,4.8,10.6,10.6v65
					C186.6,91.1,181.8,95.9,176,95.9z M111,10.4c-5.4,0-9.9,4.4-9.9,9.9v65c0,5.5,4.4,9.9,9.9,9.9h65c5.4,0,9.9-4.4,9.9-9.9v-65
					c0-5.5-4.4-9.9-9.9-9.9H111z"/>
			</g>
			<g>
				<g>
					<path class="st1" d="M146.5,23.4c14.8,1.5,26.4,14,26.4,29.3c0,16.2-13.2,29.4-29.4,29.4c-16.3,0-29.4-13.2-29.4-29.4
						c0-9.8,4.8-18.4,12.2-23.8c1.6,2.1,3.4,3.2,4.8,2.2c1.4-1.1,1.3-2.9,0.1-5.1c2.7-1.2,5.5-2.1,8.6-2.5l0,6.5l6.8,0L146.5,23.4z"
						/>
					<path class="st0" d="M143.5,82.5c-16.4,0-29.8-13.4-29.8-29.8c0-9.5,4.6-18.5,12.3-24.1l0.3-0.2l0.2,0.3c1.5,2.1,3.2,3,4.3,2.1
						c1.5-1.1,0.8-3.1,0-4.6l-0.2-0.3l0.4-0.2c2.8-1.3,5.7-2.1,8.7-2.5l0.4-0.1l-0.1,6.5l6.1,0l0-6.6l0.4,0
						c15.2,1.6,26.7,14.3,26.7,29.6C173.3,69.1,159.9,82.5,143.5,82.5z M126.2,29.4c-7.4,5.5-11.7,14.1-11.7,23.3c0,16,13,29,29,29
						c16,0,29-13,29-29c0-14.8-11-27.1-25.7-28.8l0,6.5l-7.5,0l0-6.4c-2.6,0.4-5.2,1.2-7.7,2.3c1.1,2.3,1,4.1-0.4,5.2
						C129.9,32.4,128,31.7,126.2,29.4z"/>
				</g>
				<g>
					<path class="st1" d="M143.5,72.6c10.9,0,19.8-8.9,19.8-19.8c0-10.9-8.9-19.8-19.8-19.8c-10.9,0-19.8,8.9-19.8,19.8
						C123.7,63.7,132.6,72.6,143.5,72.6z"/>
					<path class="st0" d="M143.5,73c-11.1,0-20.2-9.1-20.2-20.2c0-11.1,9.1-20.2,20.2-20.2c11.1,0,20.2,9.1,20.2,20.2
						C163.7,63.9,154.6,73,143.5,73z M143.5,33.3c-10.7,0-19.5,8.7-19.5,19.5c0,10.7,8.7,19.5,19.5,19.5c10.7,0,19.5-8.7,19.5-19.5
						C163,42,154.2,33.3,143.5,33.3z"/>
				</g>
				<g>
					<path class="st1" d="M143.5,63c5.7,0,10.3-4.6,10.3-10.3c0-5.7-4.6-10.3-10.3-10.3c-5.7,0-10.3,4.6-10.3,10.3
						C133.2,58.4,137.8,63,143.5,63z"/>
					<path class="st0" d="M143.5,63.4c-5.9,0-10.6-4.8-10.6-10.6c0-5.9,4.8-10.6,10.6-10.6c5.9,0,10.6,4.8,10.6,10.6
						C154.1,58.6,149.4,63.4,143.5,63.4z M143.5,42.9c-5.5,0-9.9,4.4-9.9,9.9c0,5.5,4.4,9.9,9.9,9.9c5.5,0,9.9-4.4,9.9-9.9
						C153.4,47.3,149,42.9,143.5,42.9z"/>
				</g>
				<g>
					<path class="st1" d="M143.5,69.6c9.3,0,16.9-7.6,16.9-16.9c0-9.3-7.6-16.9-16.9-16.9c-9.3,0-16.9,7.6-16.9,16.9
						C126.6,62.1,134.2,69.6,143.5,69.6z"/>
					<path class="st0" d="M143.5,70c-9.5,0-17.2-7.7-17.2-17.2c0-9.5,7.7-17.2,17.2-17.2c9.5,0,17.2,7.7,17.2,17.2
						C160.7,62.3,153,70,143.5,70z M143.5,36.3c-9.1,0-16.5,7.4-16.5,16.5c0,9.1,7.4,16.5,16.5,16.5c9.1,0,16.5-7.4,16.5-16.5
						C160,43.7,152.6,36.3,143.5,36.3z"/>
				</g>
				<g>
					<path class="st1" d="M143.5,58.3c3,0,5.5-2.5,5.5-5.5c0-3-2.5-5.5-5.5-5.5c-3,0-5.5,2.5-5.5,5.5
						C138,55.8,140.5,58.3,143.5,58.3z"/>
					<path class="st0" d="M143.5,58.7c-3.2,0-5.9-2.6-5.9-5.9c0-3.2,2.6-5.9,5.9-5.9c3.2,0,5.9,2.6,5.9,5.9
						C149.4,56,146.7,58.7,143.5,58.7z M143.5,47.6c-2.8,0-5.1,2.3-5.1,5.1c0,2.8,2.3,5.1,5.1,5.1c2.8,0,5.1-2.3,5.1-5.1
						C148.6,49.9,146.3,47.6,143.5,47.6z"/>
				</g>
			</g>
		</g>
	</g>
</g>
<g id="D2R" class="st3">
	<g class="st2">
		<g>
			<g>
				<path class="st1" d="M139.1,16.3c-21.5,2.2-38.3,20.4-38.3,42.5c0,23.6,19.1,42.7,42.7,42.7c23.6,0,42.7-19.1,42.7-42.7
					c0-14.2-7-26.8-17.7-34.6c-2.3,3.1-5,4.7-7,3.2c-2.1-1.6-1.9-4.3-0.2-7.4c-3.9-1.8-8-3-12.4-3.6l0.1,9.4l-9.9,0.1L139.1,16.3z"
					/>
				<path class="st0" d="M143.5,101.9c-23.8,0-43.1-19.3-43.1-43.1c0-22.2,16.6-40.6,38.7-42.9l0.4,0l0,9.6l9.1-0.1l-0.1-9.5
					l0.4,0.1c4.3,0.6,8.6,1.8,12.5,3.7l0.4,0.2l-0.2,0.3c-1.2,2.2-2.2,5.2,0.1,6.9c1.7,1.3,4.2,0,6.5-3.1l0.2-0.3l0.3,0.2
					c11.2,8.1,17.9,21.1,17.9,34.9C186.6,82.6,167.3,101.9,143.5,101.9z M138.7,16.7c-21.5,2.4-37.6,20.5-37.6,42.1
					c0,23.4,19,42.4,42.4,42.4c23.4,0,42.4-19,42.4-42.4c0-13.4-6.4-26.1-17.3-34c-2.5,3.3-5.3,4.4-7.3,3c-2-1.5-2.2-4.2-0.5-7.5
					c-3.7-1.7-7.6-2.8-11.5-3.4l0.1,9.3l-10.6,0.1L138.7,16.7z"/>
			</g>
			<g>
				<path class="st1" d="M143.5,87.7c15.9,0,28.8-12.9,28.8-28.8c0-15.9-12.9-28.8-28.8-28.8c-15.9,0-28.8,12.9-28.8,28.8
					C114.7,74.8,127.6,87.7,143.5,87.7z"/>
				<path class="st0" d="M143.5,88.1c-16.1,0-29.2-13.1-29.2-29.2c0-16.1,13.1-29.2,29.2-29.2c16.1,0,29.2,13.1,29.2,29.2
					C172.7,75,159.6,88.1,143.5,88.1z M143.5,30.5c-15.7,0-28.5,12.8-28.5,28.4c0,15.7,12.8,28.5,28.5,28.5
					c15.7,0,28.5-12.8,28.5-28.5C171.9,43.2,159.2,30.5,143.5,30.5z"/>
			</g>
			<g>
				<path class="st1" d="M143.5,73.8c8.2,0,14.9-6.7,14.9-14.9c0-8.2-6.7-14.9-14.9-14.9c-8.2,0-14.9,6.7-14.9,14.9
					C128.6,67.1,135.3,73.8,143.5,73.8z"/>
				<path class="st0" d="M143.5,74.2c-8.4,0-15.3-6.9-15.3-15.3c0-8.4,6.9-15.3,15.3-15.3s15.3,6.9,15.3,15.3
					C158.8,67.3,151.9,74.2,143.5,74.2z M143.5,44.4c-8,0-14.5,6.5-14.5,14.5c0,8,6.5,14.5,14.5,14.5S158,66.9,158,58.9
					C158,50.9,151.5,44.4,143.5,44.4z"/>
			</g>
			<g>
				<path class="st1" d="M143.5,83.4c13.5,0,24.5-11,24.5-24.5c0-13.5-11-24.5-24.5-24.5c-13.5,0-24.5,11-24.5,24.5
					C119,72.4,130,83.4,143.5,83.4z"/>
				<path class="st0" d="M143.5,83.8c-13.7,0-24.9-11.2-24.9-24.9c0-13.7,11.2-24.9,24.9-24.9c13.7,0,24.9,11.2,24.9,24.9
					C168.4,72.6,157.2,83.8,143.5,83.8z M143.5,34.8c-13.3,0-24.1,10.8-24.1,24.1c0,13.3,10.8,24.1,24.1,24.1
					c13.3,0,24.1-10.8,24.1-24.1C167.6,45.6,156.8,34.8,143.5,34.8z"/>
			</g>
			<g>
				<path class="st1" d="M143.5,66.9c4.4,0,8-3.6,8-8c0-4.4-3.6-8-8-8c-4.4,0-8,3.6-8,8C135.5,63.3,139.1,66.9,143.5,66.9z"/>
				<path class="st0" d="M143.5,67.3c-4.6,0-8.4-3.8-8.4-8.4c0-4.6,3.8-8.4,8.4-8.4s8.4,3.8,8.4,8.4
					C151.9,63.5,148.1,67.3,143.5,67.3z M143.5,51.3c-4.2,0-7.6,3.4-7.6,7.6c0,4.2,3.4,7.6,7.6,7.6s7.6-3.4,7.6-7.6
					C151.1,54.7,147.7,51.3,143.5,51.3z"/>
			</g>
		</g>
		<g>
			<g>
				<rect x="20.1" y="26.8" class="st1" width="46.1" height="66.3"/>
				<path class="st0" d="M66.5,93.5H19.7v-67h46.8V93.5z M20.5,92.7h45.3V27.2H20.5V92.7z"/>
			</g>
			<g>
				<rect x="20.1" y="30.4" class="st1" width="46.1" height="54.4"/>
				<path class="st0" d="M66.5,85.2H19.7V30.1h46.8V85.2z M20.5,84.5h45.3V30.8H20.5V84.5z"/>
			</g>
			<g>
				<rect x="14.6" y="30.4" class="st1" width="57" height="46.5"/>
				<path class="st0" d="M72,77.4H14.2V30.1H72V77.4z M15,76.6h56.2V30.8H15V76.6z"/>
			</g>
			<g>
				<path class="st1" d="M43.1,57.8c2.9,0,5.3-2.4,5.3-5.3c0-2.9-2.4-5.3-5.3-5.3c-2.9,0-5.3,2.4-5.3,5.3
					C37.8,55.4,40.2,57.8,43.1,57.8z"/>
				<path class="st0" d="M43.1,58.1c-3.2,0-5.7-2.6-5.7-5.7c0-3.2,2.6-5.7,5.7-5.7c3.2,0,5.7,2.6,5.7,5.7
					C48.8,55.6,46.3,58.1,43.1,58.1z M43.1,47.4c-2.7,0-5,2.2-5,5c0,2.7,2.2,5,5,5c2.7,0,5-2.2,5-5C48.1,49.7,45.9,47.4,43.1,47.4z"
					/>
			</g>
			<g>
				<rect x="0.4" y="24.8" class="st1" width="85.5" height="8.5"/>
				<path class="st0" d="M86.2,33.7H0v-9.3h86.2V33.7z M0.7,32.9h84.7v-7.8H0.7V32.9z"/>
			</g>
		</g>
	</g>
</g>
<g id="D4S" class="st3">
	<g class="st2">
		<g>
			<g>
				<path class="st1" d="M148.1,16.1c19.7,2,35.5,17.4,38.1,36.9c-10.8,0.1-13.4,11.6,0,11.8c-2.9,20.9-20.8,36.9-42.5,36.9
					c-23.7,0-42.9-19.2-42.9-42.9c0-10.8,4-20.7,10.6-28.2c7,5,12.7-1.4,7-6.5c5.2-4.1,12.9-6.9,19.8-7.9l-0.1,9.4l9.9,0.1
					L148.1,16.1z"/>
				<path class="st0" d="M143.7,102.1c-23.9,0-43.3-19.4-43.3-43.3c0-10.5,3.8-20.6,10.7-28.5l0.2-0.3l0.3,0.2
					c1.6,1.1,3.2,1.7,4.7,1.7c1.8,0,3.3-0.9,3.8-2.3c0.6-1.7-0.1-3.7-2-5.3l-0.3-0.3l0.4-0.3c5-3.9,12.7-7,20-8l0.4-0.1l-0.1,9.5
					l9.2,0.1l0-9.6l0.4,0c19.9,2.1,35.8,17.4,38.5,37.2l0.1,0.4l-0.4,0c-5.4,0-8.7,3-8.7,5.9c0,2.3,2.3,5.1,8.7,5.2l0.4,0l-0.1,0.4
					C183.6,86.1,165.2,102.1,143.7,102.1z M111.5,31.1c-6.7,7.7-10.3,17.5-10.3,27.7c0,23.5,19.1,42.6,42.6,42.6
					c21,0,39-15.5,42.1-36.2c-6.7-0.2-9-3.3-9-5.9c0-3.2,3.4-6.5,9-6.7c-2.8-19.1-18.1-33.9-37.3-36.1l0,9.6L137.8,26l0.1-9.4
					c-6.9,1-14.1,3.8-18.9,7.5c1.9,1.8,2.6,4,1.9,5.8c-0.7,1.7-2.4,2.8-4.5,2.8C114.8,32.8,113.1,32.2,111.5,31.1z"/>
			</g>
			<g>
				<path class="st1" d="M143.5,87.9c15.9,0,29-13,29-29c0-16-13-29-29-29s-29,13-29,29C114.5,74.9,127.5,87.9,143.5,87.9z"/>
				<path class="st0" d="M143.5,88.2c-16.2,0-29.3-13.2-29.3-29.3c0-16.2,13.2-29.3,29.3-29.3s29.3,13.2,29.3,29.3
					C172.8,75.1,159.7,88.2,143.5,88.2z M143.5,30.3c-15.8,0-28.6,12.8-28.6,28.6s12.8,28.6,28.6,28.6s28.6-12.8,28.6-28.6
					S159.3,30.3,143.5,30.3z"/>
			</g>
			<g>
				<path class="st1" d="M143.5,73.9c8.2,0,15-6.7,15-15s-6.7-15-15-15c-8.2,0-15,6.7-15,15S135.2,73.9,143.5,73.9z"/>
				<path class="st0" d="M143.5,74.3c-8.5,0-15.3-6.9-15.3-15.4c0-8.5,6.9-15.4,15.3-15.4s15.3,6.9,15.3,15.4
					C158.8,67.4,152,74.3,143.5,74.3z M143.5,44.3c-8.1,0-14.6,6.6-14.6,14.6c0,8.1,6.6,14.6,14.6,14.6s14.6-6.6,14.6-14.6
					C158.1,50.9,151.5,44.3,143.5,44.3z"/>
			</g>
			<g>
				<path class="st1" d="M143.5,83.5c13.6,0,24.6-11.1,24.6-24.6c0-13.6-11.1-24.6-24.6-24.6s-24.6,11.1-24.6,24.6
					C118.9,72.5,129.9,83.5,143.5,83.5z"/>
				<path class="st0" d="M143.5,83.9c-13.8,0-25-11.2-25-25c0-13.8,11.2-25,25-25s25,11.2,25,25C168.5,72.7,157.3,83.9,143.5,83.9z
					 M143.5,34.7c-13.4,0-24.2,10.9-24.2,24.2c0,13.4,10.9,24.2,24.2,24.2c13.4,0,24.2-10.9,24.2-24.2
					C167.7,45.6,156.9,34.7,143.5,34.7z"/>
			</g>
			<g>
				<path class="st1" d="M143.5,67c4.4,0,8.1-3.6,8.1-8.1s-3.6-8.1-8.1-8.1c-4.4,0-8.1,3.6-8.1,8.1S139.1,67,143.5,67z"/>
				<path class="st0" d="M143.5,67.3c-4.6,0-8.4-3.8-8.4-8.4s3.8-8.4,8.4-8.4c4.6,0,8.4,3.8,8.4,8.4S148.1,67.3,143.5,67.3z
					 M143.5,51.2c-4.2,0-7.7,3.4-7.7,7.7c0,4.2,3.4,7.7,7.7,7.7c4.2,0,7.7-3.4,7.7-7.7C151.2,54.7,147.7,51.2,143.5,51.2z"/>
			</g>
		</g>
		<g>
			<g>
				<rect x="20.1" y="27.3" class="st1" width="46.1" height="66.3"/>
				<path class="st0" d="M66.5,94H19.7v-67h46.8V94z M20.5,93.2h45.3V27.7H20.5V93.2z"/>
			</g>
			<g>
				<rect x="20.1" y="31" class="st1" width="46.1" height="54.4"/>
				<path class="st0" d="M66.5,85.8H19.7V30.6h46.8V85.8z M20.5,85h45.3V31.3H20.5V85z"/>
			</g>
			<g>
				<rect x="14.6" y="29.9" class="st1" width="57" height="46.5"/>
				<path class="st0" d="M72,76.8H14.2V29.6H72V76.8z M15,76.1h56.2V30.3H15V76.1z"/>
			</g>
			<g>
				<path class="st1" d="M43.1,57.2c2.9,0,5.3-2.4,5.3-5.3c0-2.9-2.4-5.3-5.3-5.3c-2.9,0-5.3,2.4-5.3,5.3
					C37.8,54.8,40.2,57.2,43.1,57.2z"/>
				<path class="st0" d="M43.1,57.6c-3.2,0-5.7-2.6-5.7-5.7c0-3.2,2.6-5.7,5.7-5.7s5.7,2.6,5.7,5.7C48.8,55.1,46.3,57.6,43.1,57.6z
					 M43.1,46.9c-2.7,0-5,2.2-5,5c0,2.7,2.2,5,5,5s5-2.2,5-5C48.1,49.2,45.9,46.9,43.1,46.9z"/>
			</g>
			<g>
				<rect x="0.4" y="24.2" class="st1" width="85.5" height="8.5"/>
				<path class="st0" d="M86.2,33.2H0v-9.3h86.2V33.2z M0.7,32.4h84.7v-7.8H0.7V32.4z"/>
			</g>
			<g>
				<rect x="38.5" y="24.2" class="st1" width="9.3" height="8.5"/>
				<path class="st0" d="M48.1,33.2h-10v-9.3h10V33.2z M38.9,32.4h8.5v-7.8h-8.5V32.4z"/>
			</g>
		</g>
	</g>
</g>
<g id="D2S" class="st3">
	<g class="st2">
		<g>
			<g>
				<path class="st1" d="M147.9,16.3c21.5,2.2,38.3,20.4,38.3,42.5c0,23.6-19.1,42.7-42.7,42.7c-23.6,0-42.7-19.1-42.7-42.7
					c0-10.8,4-20.6,10.6-28.1c7,5,12.7-1.4,7-6.5c5.2-4.1,12.8-6.9,19.7-7.9l-0.1,9.4l9.9,0.1L147.9,16.3z"/>
				<path class="st0" d="M143.5,101.9c-23.8,0-43.1-19.3-43.1-43.1c0-10.4,3.8-20.5,10.7-28.3l0.2-0.3l0.3,0.2
					c1.6,1.1,3.2,1.7,4.7,1.7c1.8,0,3.3-0.9,3.8-2.3c0.6-1.7-0.1-3.6-2-5.3l-0.3-0.3l0.4-0.3c5-3.9,12.6-6.9,19.9-7.9l0.4-0.1
					l-0.1,9.5l9.1,0.1l0-9.6l0.4,0c22.1,2.3,38.7,20.7,38.7,42.9C186.6,82.6,167.3,101.9,143.5,101.9z M111.4,31.2
					c-6.6,7.7-10.3,17.4-10.3,27.6c0,23.4,19,42.4,42.4,42.4c23.4,0,42.4-19,42.4-42.4c0-21.6-16.1-39.7-37.6-42.1l0,9.5l-10.6-0.1
					l0.1-9.3c-6.9,1-14,3.8-18.8,7.4c1.9,1.8,2.5,4,1.8,5.8c-0.7,1.7-2.4,2.8-4.5,2.8C114.7,32.9,113,32.3,111.4,31.2z"/>
			</g>
			<g>
				<path class="st1" d="M143.5,87.7c15.9,0,28.8-12.9,28.8-28.8c0-15.9-12.9-28.8-28.8-28.8c-15.9,0-28.8,12.9-28.8,28.8
					C114.7,74.8,127.6,87.7,143.5,87.7z"/>
				<path class="st0" d="M143.5,88.1c-16.1,0-29.2-13.1-29.2-29.2c0-16.1,13.1-29.2,29.2-29.2c16.1,0,29.2,13.1,29.2,29.2
					C172.7,75,159.6,88.1,143.5,88.1z M143.5,30.5c-15.7,0-28.5,12.8-28.5,28.4c0,15.7,12.8,28.5,28.5,28.5
					c15.7,0,28.5-12.8,28.5-28.5C171.9,43.2,159.2,30.5,143.5,30.5z"/>
			</g>
			<g>
				<path class="st1" d="M143.5,73.8c8.2,0,14.9-6.7,14.9-14.9c0-8.2-6.7-14.9-14.9-14.9c-8.2,0-14.9,6.7-14.9,14.9
					C128.6,67.1,135.3,73.8,143.5,73.8z"/>
				<path class="st0" d="M143.5,74.2c-8.4,0-15.3-6.9-15.3-15.3c0-8.4,6.9-15.3,15.3-15.3c8.4,0,15.3,6.9,15.3,15.3
					C158.8,67.3,151.9,74.2,143.5,74.2z M143.5,44.4c-8,0-14.5,6.5-14.5,14.5c0,8,6.5,14.5,14.5,14.5c8,0,14.5-6.5,14.5-14.5
					C158,50.9,151.5,44.4,143.5,44.4z"/>
			</g>
			<g>
				<path class="st1" d="M143.5,83.4c13.5,0,24.5-11,24.5-24.5c0-13.5-11-24.5-24.5-24.5c-13.5,0-24.5,11-24.5,24.5
					C119,72.4,130,83.4,143.5,83.4z"/>
				<path class="st0" d="M143.5,83.8c-13.7,0-24.9-11.2-24.9-24.9c0-13.7,11.2-24.9,24.9-24.9c13.7,0,24.9,11.2,24.9,24.9
					C168.4,72.6,157.2,83.8,143.5,83.8z M143.5,34.8c-13.3,0-24.1,10.8-24.1,24.1c0,13.3,10.8,24.1,24.1,24.1
					c13.3,0,24.1-10.8,24.1-24.1C167.6,45.6,156.8,34.8,143.5,34.8z"/>
			</g>
			<g>
				<path class="st1" d="M143.5,66.9c4.4,0,8-3.6,8-8c0-4.4-3.6-8-8-8c-4.4,0-8,3.6-8,8C135.5,63.3,139.1,66.9,143.5,66.9z"/>
				<path class="st0" d="M143.5,67.3c-4.6,0-8.4-3.8-8.4-8.4c0-4.6,3.8-8.4,8.4-8.4s8.4,3.8,8.4,8.4
					C151.9,63.5,148.1,67.3,143.5,67.3z M143.5,51.3c-4.2,0-7.6,3.4-7.6,7.6c0,4.2,3.4,7.6,7.6,7.6s7.6-3.4,7.6-7.6
					C151.1,54.7,147.7,51.3,143.5,51.3z"/>
			</g>
		</g>
		<g>
			<g>
				<rect x="20.1" y="26.8" class="st1" width="46.1" height="66.3"/>
				<path class="st0" d="M66.5,93.5H19.7v-67h46.8V93.5z M20.5,92.7h45.3V27.2H20.5V92.7z"/>
			</g>
			<g>
				<rect x="20.1" y="30.5" class="st1" width="46.1" height="54.4"/>
				<path class="st0" d="M66.5,85.2H19.7V30.1h46.8V85.2z M20.5,84.5h45.3V30.8H20.5V84.5z"/>
			</g>
			<g>
				<rect x="14.6" y="30.5" class="st1" width="57" height="46.5"/>
				<path class="st0" d="M72,77.4H14.2V30.1H72V77.4z M15,76.6h56.2V30.8H15V76.6z"/>
			</g>
			<g>
				<path class="st1" d="M43.1,57.8c2.9,0,5.3-2.4,5.3-5.3c0-2.9-2.4-5.3-5.3-5.3c-2.9,0-5.3,2.4-5.3,5.3
					C37.8,55.4,40.2,57.8,43.1,57.8z"/>
				<path class="st0" d="M43.1,58.1c-3.2,0-5.7-2.6-5.7-5.7c0-3.2,2.6-5.7,5.7-5.7c3.2,0,5.7,2.6,5.7,5.7
					C48.8,55.6,46.3,58.1,43.1,58.1z M43.1,47.4c-2.7,0-5,2.2-5,5c0,2.7,2.2,5,5,5c2.7,0,5-2.2,5-5C48.1,49.7,45.9,47.4,43.1,47.4z"
					/>
			</g>
			<g>
				<rect x="0.4" y="24.8" class="st1" width="85.5" height="8.5"/>
				<path class="st0" d="M86.2,33.7H0v-9.3h86.2V33.7z M0.7,32.9h84.7v-7.8H0.7V32.9z"/>
			</g>
		</g>
	</g>
</g>
<g id="D2H" class="st3">
	<g class="st2">
		<g>
			<g>
				<path class="st1" d="M148.1,16.1c3.6,0.4,7.2,1.2,10.5,2.5c-4.7,10.8,3.4,14,9.4,4.9c9.7,6.7,16.6,17.3,18.2,29.5
					c-10.8,0.1-13.4,11.6,0,11.8c-2.9,20.9-20.8,36.9-42.5,36.9c-23.7,0-42.9-19.2-42.9-42.9c0-10.8,4-20.7,10.6-28.2
					c7,5,12.7-1.4,7-6.5c5.2-4.1,12.9-6.9,19.8-7.9l-0.1,9.4l9.9,0.1L148.1,16.1z"/>
				<path class="st0" d="M143.7,102.1c-23.9,0-43.3-19.4-43.3-43.3c0-10.5,3.8-20.6,10.7-28.5l0.2-0.3l0.3,0.2
					c1.6,1.1,3.2,1.7,4.7,1.7c1.8,0,3.3-0.9,3.8-2.3c0.6-1.7-0.1-3.7-2-5.3l-0.3-0.3l0.4-0.3c5-3.9,12.7-7,20-8l0.4-0.1l-0.1,9.5
					l9.2,0.1l0-9.6l0.4,0c3.6,0.4,7.2,1.2,10.6,2.5l0.4,0.1l-0.2,0.4c-1.6,3.6-1.8,6.6-0.7,8.4c0.6,0.9,1.4,1.3,2.5,1.3
					c2.2,0,4.8-1.9,7-5.1l0.2-0.3l0.3,0.2c10.1,6.9,16.8,17.8,18.4,29.8l0.1,0.4l-0.4,0c-5.4,0-8.7,3-8.7,5.9c0,2.3,2.3,5.1,8.7,5.2
					l0.4,0l-0.1,0.4C183.6,86.1,165.2,102.1,143.7,102.1z M111.5,31.1c-6.7,7.7-10.3,17.5-10.3,27.7c0,23.5,19.1,42.6,42.6,42.6
					c21,0,39-15.5,42.1-36.2c-6.7-0.2-9-3.3-9-5.9c0-3.2,3.4-6.5,9-6.7c-1.7-11.5-8.1-21.9-17.7-28.6c-2.2,3.2-5,5.1-7.4,5.1
					c-1.3,0-2.4-0.6-3.1-1.6c-1.2-1.9-1.1-5,0.5-8.7c-3.1-1.1-6.3-1.9-9.6-2.2l0,9.6L137.8,26l0.1-9.4c-6.9,1-14.1,3.9-18.9,7.5
					c1.9,1.8,2.6,4,1.9,5.8c-0.7,1.7-2.4,2.8-4.5,2.8C114.8,32.8,113.1,32.2,111.5,31.1z"/>
			</g>
			<g>
				<path class="st1" d="M143.5,87.9c15.9,0,29-13,29-29c0-15.9-13-29-29-29s-29,13-29,29C114.5,74.9,127.5,87.9,143.5,87.9z"/>
				<path class="st0" d="M143.5,88.2c-16.2,0-29.3-13.2-29.3-29.3c0-16.2,13.2-29.3,29.3-29.3s29.3,13.2,29.3,29.3
					C172.8,75.1,159.7,88.2,143.5,88.2z M143.5,30.3c-15.8,0-28.6,12.8-28.6,28.6c0,15.8,12.8,28.6,28.6,28.6s28.6-12.8,28.6-28.6
					C172.1,43.2,159.3,30.3,143.5,30.3z"/>
			</g>
			<g>
				<path class="st1" d="M143.5,73.9c8.2,0,15-6.7,15-15c0-8.3-6.7-15-15-15c-8.2,0-15,6.7-15,15C128.5,67.2,135.2,73.9,143.5,73.9z
					"/>
				<path class="st0" d="M143.5,74.3c-8.5,0-15.3-6.9-15.3-15.4s6.9-15.4,15.3-15.4s15.3,6.9,15.3,15.4S152,74.3,143.5,74.3z
					 M143.5,44.3c-8.1,0-14.6,6.6-14.6,14.6c0,8.1,6.6,14.6,14.6,14.6s14.6-6.6,14.6-14.6C158.1,50.9,151.5,44.3,143.5,44.3z"/>
			</g>
			<g>
				<path class="st1" d="M143.5,83.5c13.6,0,24.6-11.1,24.6-24.6c0-13.6-11.1-24.6-24.6-24.6s-24.6,11.1-24.6,24.6
					C118.9,72.5,129.9,83.5,143.5,83.5z"/>
				<path class="st0" d="M143.5,83.9c-13.8,0-25-11.2-25-25c0-13.8,11.2-25,25-25s25,11.2,25,25C168.5,72.7,157.3,83.9,143.5,83.9z
					 M143.5,34.7c-13.4,0-24.2,10.9-24.2,24.2c0,13.4,10.9,24.2,24.2,24.2c13.4,0,24.2-10.9,24.2-24.2
					C167.7,45.6,156.9,34.7,143.5,34.7z"/>
			</g>
			<g>
				<path class="st1" d="M143.5,67c4.4,0,8.1-3.6,8.1-8.1c0-4.4-3.6-8.1-8.1-8.1c-4.4,0-8.1,3.6-8.1,8.1
					C135.4,63.4,139.1,67,143.5,67z"/>
				<path class="st0" d="M143.5,67.3c-4.6,0-8.4-3.8-8.4-8.4c0-4.6,3.8-8.4,8.4-8.4c4.6,0,8.4,3.8,8.4,8.4
					C151.9,63.6,148.1,67.3,143.5,67.3z M143.5,51.2c-4.2,0-7.7,3.4-7.7,7.7c0,4.2,3.4,7.7,7.7,7.7c4.2,0,7.7-3.4,7.7-7.7
					C151.2,54.7,147.7,51.2,143.5,51.2z"/>
			</g>
		</g>
		<g>
			<g>
				<path class="st1" d="M39.1,61.4l7.2-0.1c-0.1,20.4,10.3,30.9,23.5,38.8l-1.8,4.7l-2.2-3.4l-3,4.5C49.4,93.9,39,89.8,39.1,61.4z"
					/>
				<path class="st0" d="M63,106.5l-0.3-0.3c-1.9-1.6-3.6-3.1-5.4-4.6c-10.9-9-18.7-15.6-18.6-40.2l0-0.4l8-0.1l0,0.4
					C46.6,82.8,58.4,92.8,70,99.8l0.3,0.2l-2.1,5.7l-2.3-3.6L63,106.5z M39.4,61.8c0,24,7.7,30.4,18.3,39.3c1.6,1.4,3.3,2.8,5.1,4.3
					l3-4.7L68,104l1.4-3.7c-11.6-7-23.4-17.1-23.4-38.6L39.4,61.8z"/>
			</g>
			<g>
				<path class="st1" d="M34.4,17.6h17.3v39.2c0,4-3.3,7.3-7.3,7.3h-2.7c-4,0-7.3-3.3-7.3-7.3V17.6z"/>
				<path class="st0" d="M44.5,64.5h-2.7c-4.2,0-7.7-3.4-7.7-7.7V17.2h18.1v39.6C52.2,61.1,48.7,64.5,44.5,64.5z M34.8,18v38.9
					c0,3.8,3.1,6.9,6.9,6.9h2.7c3.8,0,6.9-3.1,6.9-6.9V18H34.8z"/>
			</g>
			<g>
				<rect x="0.4" y="11.9" class="st1" width="85.5" height="8.6"/>
				<path class="st0" d="M86.2,20.8H0v-9.3h86.2V20.8z M0.7,20.1h84.7v-7.8H0.7V20.1z"/>
			</g>
			<g>
				<rect x="37.9" y="11.9" class="st1" width="10.4" height="8.6"/>
				<path class="st0" d="M48.7,20.8H37.5v-9.3h11.2V20.8z M38.3,20.1H48v-7.8h-9.7V20.1z"/>
			</g>
		</g>
	</g>
</g>
<g id="_x39_012" class="st3">
	<g class="st2">
		<g>
			<g>
				<rect x="152" y="38.7" class="st1" width="19.5" height="40.3"/>
				<path class="st0" d="M171.9,79.4h-20.3v-41h20.3V79.4z M152.4,78.7h18.8V39.1h-18.8V78.7z"/>
			</g>
			<g>
				<path class="st1" d="M101,62.7l9.1-0.1l24.5,22.3l3.5,6.8c7.1-0.9,13-3.7,17.9-8l0.2-31.6l-5.2-7.1l0.1-13.1
					c-5.3-3.5-9.6-5.3-18.5-5.9l-5,7.2l-17.5,14.9L103,48C101.6,47.9,100.2,63.1,101,62.7z"/>
				<path class="st0" d="M137.8,92.1l-3.6-7L109.9,63l-8.9,0.1c-0.5,0-0.6-0.7-0.6-1.7c0-1.9,0.3-5.3,0.7-8.1
					c0.8-5.7,1.5-5.7,1.9-5.7l7,0.3l17.3-14.8l5.1-7.4l0.2,0c9.1,0.6,13.4,2.5,18.6,5.9l0.2,0.1L151.4,45l5.2,7.1l-0.2,31.9
					l-0.1,0.1c-5.1,4.5-11.2,7.2-18.1,8.1L137.8,92.1z M110.2,62.2l0.1,0.1l24.6,22.4l3.4,6.6c6.6-0.9,12.5-3.5,17.3-7.8l0.2-31.3
					l-5.2-7.1l0.1-13c-5-3.3-9.2-5.1-17.9-5.7l-5,7.1l-17.6,15l-7.3-0.3c-0.9,0.7-2.1,12.2-1.8,14L110.2,62.2z"/>
			</g>
			<g>
				<path class="st1" d="M134.2,86.4c15.2,0,27.6-12.4,27.6-27.6c0-15.2-12.4-27.6-27.6-27.6c-15.2,0-27.6,12.4-27.6,27.6
					C106.6,74,119,86.4,134.2,86.4z"/>
				<path class="st0" d="M134.2,86.8c-15.4,0-28-12.6-28-28c0-15.4,12.6-28,28-28c15.4,0,28,12.6,28,28
					C162.2,74.2,149.6,86.8,134.2,86.8z M134.2,31.5c-15,0-27.2,12.2-27.2,27.2c0,15,12.2,27.2,27.2,27.2c15,0,27.2-12.2,27.2-27.2
					C161.5,43.8,149.2,31.5,134.2,31.5z"/>
			</g>
			<g>
				<path class="st1" d="M134.2,77.3c10.2,0,18.5-8.3,18.5-18.5s-8.3-18.5-18.5-18.5c-10.2,0-18.5,8.3-18.5,18.5
					S124,77.3,134.2,77.3z"/>
				<path class="st0" d="M134.2,77.7c-10.4,0-18.9-8.5-18.9-18.9c0-10.4,8.5-18.9,18.9-18.9c10.4,0,18.9,8.5,18.9,18.9
					C153.1,69.2,144.7,77.7,134.2,77.7z M134.2,40.6c-10,0-18.2,8.2-18.2,18.2c0,10,8.2,18.2,18.2,18.2c10,0,18.2-8.2,18.2-18.2
					C152.4,48.8,144.2,40.6,134.2,40.6z"/>
			</g>
			<g>
				<path class="st1" d="M134.2,75.9c9.5,0,17.2-7.7,17.2-17.2c0-9.5-7.7-17.2-17.2-17.2c-9.5,0-17.2,7.7-17.2,17.2
					C117.1,68.2,124.8,75.9,134.2,75.9z"/>
				<path class="st0" d="M134.2,76.3c-9.7,0-17.5-7.9-17.5-17.5c0-9.7,7.9-17.5,17.5-17.5c9.7,0,17.5,7.9,17.5,17.5
					C151.8,68.4,143.9,76.3,134.2,76.3z M134.2,42c-9.3,0-16.8,7.5-16.8,16.8c0,9.3,7.5,16.8,16.8,16.8c9.3,0,16.8-7.5,16.8-16.8
					C151,49.5,143.5,42,134.2,42z"/>
			</g>
			<g>
				<path class="st1" d="M134.2,73.5c8.1,0,14.7-6.6,14.7-14.7c0-8.1-6.6-14.7-14.7-14.7c-8.1,0-14.7,6.6-14.7,14.7
					C119.5,66.9,126.1,73.5,134.2,73.5z"/>
				<path class="st0" d="M134.2,73.9c-8.3,0-15.1-6.8-15.1-15.1s6.8-15.1,15.1-15.1c8.3,0,15.1,6.8,15.1,15.1S142.5,73.9,134.2,73.9
					z M134.2,44.4c-7.9,0-14.3,6.4-14.3,14.3c0,7.9,6.4,14.3,14.3,14.3c7.9,0,14.3-6.4,14.3-14.3C148.6,50.9,142.1,44.4,134.2,44.4z
					"/>
			</g>
			<g>
				<path class="st1" d="M134.2,69.6c6,0,10.9-4.9,10.9-10.9c0-6-4.9-10.9-10.9-10.9c-6,0-10.9,4.9-10.9,10.9
					C123.3,64.8,128.2,69.6,134.2,69.6z"/>
				<path class="st0" d="M134.2,70C128,70,123,65,123,58.8c0-6.2,5-11.2,11.2-11.2s11.2,5,11.2,11.2C145.5,65,140.4,70,134.2,70z
					 M134.2,48.3c-5.8,0-10.5,4.7-10.5,10.5c0,5.8,4.7,10.5,10.5,10.5c5.8,0,10.5-4.7,10.5-10.5C144.7,53,140,48.3,134.2,48.3z"/>
			</g>
			<g>
				<path class="st1" d="M134.2,60.5c0.9,0,1.7-0.8,1.7-1.7c0-0.9-0.8-1.7-1.7-1.7c-0.9,0-1.7,0.8-1.7,1.7
					C132.5,59.7,133.3,60.5,134.2,60.5z"/>
				<path class="st0" d="M134.2,60.9c-1.1,0-2.1-0.9-2.1-2.1s0.9-2.1,2.1-2.1c1.1,0,2.1,0.9,2.1,2.1S135.4,60.9,134.2,60.9z
					 M134.2,57.4c-0.7,0-1.3,0.6-1.3,1.3c0,0.7,0.6,1.3,1.3,1.3c0.7,0,1.3-0.6,1.3-1.3C135.6,58,135,57.4,134.2,57.4z"/>
			</g>
			<g>
				<line class="st1" x1="107" y1="63.5" x2="116.3" y2="63.4"/>
				
					<rect x="111.3" y="58.8" transform="matrix(1.177923e-02 0.9999 -0.9999 1.177923e-02 173.77 -49.0058)" class="st0" width="0.7" height="9.3"/>
			</g>
			<g>
				<line class="st1" x1="106.9" y1="54.5" x2="116.2" y2="54.3"/>
				
					<rect x="111.2" y="49.8" transform="matrix(1.897562e-02 0.9998 -0.9998 1.897562e-02 163.8621 -58.1656)" class="st0" width="0.7" height="9.3"/>
			</g>
			<g>
				<line class="st1" x1="139.3" y1="76.7" x2="144" y2="84.5"/>
				
					<rect x="137.1" y="80.2" transform="matrix(0.5136 0.858 -0.858 0.5136 138.0673 -82.3644)" class="st0" width="9.1" height="0.7"/>
			</g>
			<g>
				<line class="st1" x1="147.5" y1="71.6" x2="152.1" y2="79.7"/>
				
					<rect x="145.1" y="75.3" transform="matrix(0.4888 0.8724 -0.8724 0.4888 142.5904 -92.0422)" class="st0" width="9.4" height="0.7"/>
			</g>
			<g>
				<line class="st1" x1="139.4" y1="40.9" x2="144.2" y2="33"/>
				
					<rect x="141.4" y="32.4" transform="matrix(0.8526 0.5226 -0.5226 0.8526 40.2134 -68.638)" class="st0" width="0.7" height="9.2"/>
			</g>
			<g>
				<line class="st1" x1="147.7" y1="46" x2="152.3" y2="37.8"/>
				
					<rect x="149.6" y="37.1" transform="matrix(0.8722 0.4892 -0.4892 0.8722 39.652 -68.0133)" class="st0" width="0.7" height="9.4"/>
			</g>
			<g>
				<path class="st1" d="M170.3,36.2h15.9v45.7h-15.9c-0.8,0-1.5-0.7-1.5-1.5V37.7C168.8,36.9,169.4,36.2,170.3,36.2z"/>
				<path class="st0" d="M186.6,82.3h-16.3c-1.1,0-1.9-0.9-1.9-1.9V37.7c0-1.1,0.9-1.9,1.9-1.9h16.3V82.3z M170.3,36.6
					c-0.6,0-1.2,0.5-1.2,1.2v42.7c0,0.6,0.5,1.2,1.2,1.2h15.6v-45H170.3z"/>
			</g>
		</g>
		<g>
			<g>
				<rect x="15.1" y="37" class="st1" width="36.9" height="6.4"/>
				<path class="st0" d="M52.3,43.9H14.7v-7.2h37.6V43.9z M15.5,43.1h36.1v-5.7H15.5V43.1z"/>
			</g>
			<g>
				<rect x="0.4" y="45.2" class="st1" width="8.1" height="3.4"/>
				<path class="st0" d="M8.8,49H0v-4.2h8.8V49z M0.7,48.2h7.4v-2.7H0.7V48.2z"/>
			</g>
			<g>
				<polygon class="st1" points="68.9,87.1 70.1,83 79,83 73.1,87.1 				"/>
				<path class="st0" d="M73.2,87.5h-4.9l1.5-4.9H79l0.2,0.7L73.2,87.5z M69.4,86.8H73l4.8-3.4h-7.4L69.4,86.8z"/>
			</g>
			<g>
				<path class="st1" d="M17.4,48.3h32.2v11.5c1.3-0.4,2.9-0.7,4.4-0.7l14.1,0L68,81.6l-19.4,0L40.1,75H24.8l-7.4-6.9V48.3z"/>
				<path class="st0" d="M68.3,81.9l-19.9,0L40,75.4H24.6l-7.6-7.1V47.9H50v11.4c1.5-0.4,2.8-0.6,4-0.6l14.5,0L68.3,81.9z
					 M48.7,81.2l18.9,0l0.1-21.8l-13.7,0c-1.2,0-2.7,0.2-4.3,0.7l-0.5,0.1V48.7H17.8V68l7.1,6.7h15.3L48.7,81.2z"/>
			</g>
			<g>
				<path class="st1" d="M17.2,30.7h32.7c1.1,0,2.1,0.9,2.1,2.1v2H15.1v-2C15.1,31.6,16,30.7,17.2,30.7z"/>
				<path class="st0" d="M52.3,35.1H14.7v-2.3c0-1.4,1.1-2.5,2.5-2.5h32.7c1.4,0,2.5,1.1,2.5,2.5V35.1z M15.5,34.4h36.1v-1.6
					c0-0.9-0.8-1.7-1.7-1.7H17.2c-0.9,0-1.7,0.8-1.7,1.7V34.4z"/>
			</g>
			<g>
				<rect x="5.7" y="43.3" class="st1" width="55.8" height="5.3"/>
				<path class="st0" d="M61.9,49H5.3v-6.1h56.6V49z M6.1,48.2h55.1v-4.6H6.1V48.2z"/>
			</g>
			<g>
				<rect x="34.5" y="45.2" class="st1" width="7.2" height="3.4"/>
				<path class="st0" d="M42.1,49h-8v-4.2h8V49z M34.9,48.2h6.5v-2.7h-6.5V48.2z"/>
			</g>
			<g>
				<rect x="37.7" y="45.2" class="st1" width="17.5" height="3.4"/>
				<path class="st0" d="M55.5,49H37.3v-4.2h18.2V49z M38,48.2h16.7v-2.7H38V48.2z"/>
			</g>
			<g>
				<path class="st1" d="M69.2,56.3h15.3c0.7,0,1.3,0.6,1.3,1.3v25.4c0,0.7-0.6,1.3-1.3,1.3H69.2c-0.7,0-1.3-0.6-1.3-1.3V57.6
					C67.9,56.9,68.5,56.3,69.2,56.3z"/>
				<path class="st0" d="M84.6,84.6H69.2c-0.9,0-1.7-0.7-1.7-1.7V57.6c0-0.9,0.7-1.7,1.7-1.7h15.3c0.9,0,1.7,0.7,1.7,1.7v25.4
					C86.2,83.8,85.5,84.6,84.6,84.6z M69.2,56.7c-0.5,0-0.9,0.4-0.9,0.9v25.4c0,0.5,0.4,0.9,0.9,0.9h15.3c0.5,0,0.9-0.4,0.9-0.9
					V57.6c0-0.5-0.4-0.9-0.9-0.9H69.2z"/>
			</g>
			<g>
				<path class="st1" d="M15.1,33.9H52c1.1,0,2,0.9,2,2l0,0c0,1.1-0.9,2-2,2H15.1c-1.1,0-2-0.9-2-2l0,0C13.1,34.8,14,33.9,15.1,33.9
					z"/>
				<path class="st0" d="M52,38.3H15.1c-1.3,0-2.4-1.1-2.4-2.4c0-1.3,1.1-2.4,2.4-2.4H52c1.3,0,2.4,1.1,2.4,2.4
					C54.4,37.2,53.3,38.3,52,38.3z M15.1,34.3c-0.9,0-1.7,0.7-1.7,1.7c0,0.9,0.7,1.7,1.7,1.7H52c0.9,0,1.7-0.7,1.7-1.7
					c0-0.9-0.7-1.7-1.7-1.7H15.1z"/>
			</g>
			<g>
				<path class="st1" d="M49.6,59.8c-5.1,1.1-9.5,3.1-13.3,6"/>
				<path class="st0" d="M36.5,66.1l-0.5-0.6c3.8-2.9,8.3-4.9,13.4-6l0.2,0.7C44.7,61.2,40.3,63.2,36.5,66.1z"/>
			</g>
			<g>
				<rect x="3.1" y="45.2" class="st1" width="7.5" height="3.4"/>
				<path class="st0" d="M11,49H2.8v-4.2H11V49z M3.5,48.2h6.7v-2.7H3.5V48.2z"/>
			</g>
		</g>
	</g>
</g>
<g id="_x39_007" class="st3">
	<g class="st2">
		<g>
			<g>
				<path class="st1" d="M143.5,16.2c2.3,0,4.6,0.2,6.8,0.5l-1.1,4.8l9.4,3.3l1.9-5.1c15.1,6.6,25.6,21.6,25.7,39.2
					c0,9.6-3.1,18.5-8.4,25.6l-3.6-3.9l-7.5,7.2l3.7,4.4c-7.3,5.9-16.7,9.5-26.9,9.5c-18.1,0-33.5-11.2-39.8-27.1l5.7-1.8l-2.6-10.1
					l-5.7,1.5c-0.2-1.7-0.3-3.5-0.3-5.2C100.8,35.3,119.9,16.2,143.5,16.2z"/>
				<path class="st0" d="M143.5,102L143.5,102c-17.9,0-33.6-10.7-40.1-27.3l-0.1-0.4l5.8-1.8l-2.4-9.4l-5.8,1.5l-0.1-0.4
					c-0.2-1.7-0.3-3.5-0.3-5.3c0-23.8,19.3-43.1,43.1-43.1c2.3,0,4.6,0.2,6.9,0.5l0.4,0.1l-1.1,4.9l8.7,3.1l1.9-5.2l0.4,0.2
					c15.7,6.8,25.8,22.3,25.9,39.5c0,9.4-2.9,18.3-8.5,25.8l-0.3,0.4l-3.7-4l-7,6.7l3.7,4.4l-0.3,0.2C163,98.6,153.4,102,143.5,102z
					 M104.2,74.8c6.5,16.1,21.9,26.5,39.3,26.5c9.6,0,18.9-3.2,26.4-9.1l-3.7-4.3l8.1-7.7l3.6,3.9c5.3-7.3,8.1-15.9,8.1-25
					c-0.1-16.8-9.9-31.9-25.1-38.7l-1.9,5.1l-10-3.5l1-4.8c-2.1-0.3-4.2-0.5-6.4-0.5c-23.4,0-42.4,19-42.4,42.4
					c0,1.6,0.1,3.2,0.3,4.8l5.7-1.4l2.8,10.8L104.2,74.8z"/>
			</g>
			<g>
				<path class="st1" d="M143.5,89c16.6,0,30.1-13.5,30.1-30.1c0-16.6-13.5-30.1-30.1-30.1c-16.6,0-30.1,13.5-30.1,30.1
					C113.4,75.5,126.9,89,143.5,89z"/>
				<path class="st0" d="M143.5,89.4c-16.8,0-30.5-13.7-30.5-30.5c0-16.8,13.7-30.5,30.5-30.5s30.5,13.7,30.5,30.5
					C173.9,75.7,160.3,89.4,143.5,89.4z M143.5,29.2c-16.4,0-29.7,13.3-29.7,29.7c0,16.4,13.3,29.7,29.7,29.7s29.7-13.3,29.7-29.7
					C173.2,42.5,159.9,29.2,143.5,29.2z"/>
			</g>
			<g>
				<path class="st1" d="M143.6,89c10.4-0.3,19.3-4.4,25.8-14.8V50c0-3.7-3-6.7-6.7-6.7h-36.8c-3.7,0-6.7,3-6.7,6.7v26.5
					C125,84.6,133.2,88.7,143.6,89z"/>
				<path class="st0" d="M143.6,89.4L143.6,89.4c-10.6-0.3-18.9-4.6-24.7-12.6l-0.1-0.1V50c0-3.9,3.2-7.1,7.1-7.1h36.8
					c3.9,0,7.1,3.2,7.1,7.1v24.4l-0.1,0.1C163.6,84.2,155,89.1,143.6,89.4L143.6,89.4z M119.6,76.4c5.6,7.8,13.7,11.9,24,12.2
					c11.1-0.3,19.5-5,25.4-14.5V50c0-3.5-2.8-6.3-6.3-6.3h-36.8c-3.5,0-6.3,2.8-6.3,6.3V76.4z"/>
			</g>
			<g>
				<path class="st1" d="M143.6,87.3c9.6-0.3,17.8-4.1,23.8-13.6V51.3c0-3.4-2.8-6.2-6.2-6.2h-34c-3.4,0-6.2,2.8-6.2,6.2v24.5
					C126.4,83.2,134,87,143.6,87.3z"/>
				<path class="st0" d="M143.6,87.7L143.6,87.7c-9.8-0.3-17.5-4.2-22.8-11.7l-0.1-0.1V51.3c0-3.6,2.9-6.5,6.6-6.5h34
					c3.6,0,6.6,2.9,6.6,6.5v22.5l-0.1,0.1C162.1,82.8,154.2,87.4,143.6,87.7L143.6,87.7z M121.5,75.6c5.2,7.2,12.6,11,22.2,11.3
					c10.3-0.3,17.9-4.7,23.4-13.4V51.3c0-3.2-2.6-5.8-5.8-5.8h-34c-3.2,0-5.8,2.6-5.8,5.8V75.6z"/>
			</g>
			<g>
				<polyline class="st1" points="121.1,73.5 133.8,73.5 133.8,85.5 				"/>
				<polygon class="st0" points="134.2,85.5 133.5,85.5 133.5,73.9 121.1,73.9 121.1,73.2 134.2,73.2 				"/>
			</g>
			<g>
				<polyline class="st1" points="167.3,73.1 154.6,73.1 154.6,85 				"/>
				<polygon class="st0" points="155,85 154.2,85 154.2,72.7 167.3,72.7 167.3,73.4 155,73.4 				"/>
			</g>
			<g>
				<rect x="137.6" y="33.8" class="st1" width="11.8" height="18.6"/>
				<path class="st0" d="M149.8,52.8h-12.6V33.4h12.6V52.8z M137.9,52H149V34.2h-11.1V52z"/>
			</g>
			<g>
				<rect x="137.6" y="33.8" class="st1" width="11.8" height="7.3"/>
				<path class="st0" d="M149.8,41.5h-12.6v-8.1h12.6V41.5z M137.9,40.7H149v-6.6h-11.1V40.7z"/>
			</g>
			<g>
				<rect x="139.3" y="60.6" class="st1" width="8.4" height="3.1"/>
				<path class="st0" d="M148,64.1h-9.1v-3.9h9.1V64.1z M139.7,63.4h7.6V61h-7.6V63.4z"/>
			</g>
			<g>
				<rect x="125.6" y="65" class="st1" width="8.4" height="3.1"/>
				<path class="st0" d="M134.3,68.6h-9.1v-3.9h9.1V68.6z M126,67.8h7.6v-2.4H126V67.8z"/>
			</g>
			<g>
				<rect x="154.6" y="65" class="st1" width="8.4" height="3.1"/>
				<path class="st0" d="M163.3,68.6h-9.1v-3.9h9.1V68.6z M155,67.8h7.6v-2.4H155V67.8z"/>
			</g>
		</g>
		<g>
			<g>
				<polygon class="st1" points="17,74.8 26.9,74.8 26.9,95.6 21.8,95.6 15.2,85.6 				"/>
				<path class="st0" d="M27.3,96h-5.7l-6.7-10.3l1.8-11.3h10.6V96z M22,95.2h4.6v-20h-9.2l-1.7,10.3L22,95.2z"/>
			</g>
			<g>
				<rect x="25" y="48.9" class="st1" width="47.5" height="58.6"/>
				<path class="st0" d="M72.9,107.8H24.7V48.5h48.2V107.8z M25.4,107h46.7V49.2H25.4V107z"/>
			</g>
			<g>
				<rect x="9" y="42.8" class="st1" width="68" height="5"/>
				<path class="st0" d="M77.4,48.1H8.6v-5.7h68.7V48.1z M9.4,47.4h67.3v-4.2H9.4V47.4z"/>
			</g>
			<g>
				<rect x="13.8" y="28.4" class="st1" width="58.3" height="5"/>
				<path class="st0" d="M72.5,33.7H13.5V28h59.1V33.7z M14.2,33h57.6v-4.2H14.2V33z"/>
			</g>
			<g>
				<rect x="13.8" y="10.4" class="st1" width="58.3" height="16.1"/>
				<path class="st0" d="M72.5,26.9H13.5V10.1h59.1V26.9z M14.2,26.1h57.6V10.8H14.2V26.1z"/>
			</g>
			<g>
				<polygon class="st1" points="13.6,26 72.2,26 77.8,30.3 8.2,30.3 				"/>
				<path class="st0" d="M77.8,30.6H8.2L7.9,30l5.5-4.3h58.9L78,30L77.8,30.6z M9.2,29.9h67.5l-4.6-3.5H13.7L9.2,29.9z"/>
			</g>
			<g>
				<rect x="0.4" y="46" class="st1" width="85.5" height="4.7"/>
				<path class="st0" d="M86.2,51.1H0v-5.5h86.2V51.1z M0.7,50.4h84.7v-4H0.7V50.4z"/>
			</g>
			<g>
				<rect x="47.2" y="46" class="st1" width="7.6" height="4.7"/>
				<path class="st0" d="M55.2,51.1h-8.3v-5.5h8.3V51.1z M47.6,50.4h6.8v-4h-6.8V50.4z"/>
			</g>
			<g>
				<path class="st1" d="M11.6,32.6h62.7c3,0,5.4,2.4,5.4,5.4v0c0,3-2.4,5.4-5.4,5.4H11.6c-3,0-5.4-2.4-5.4-5.4v0
					C6.3,35,8.7,32.6,11.6,32.6z"/>
				<path class="st0" d="M74.3,43.7H11.6c-3.2,0-5.7-2.6-5.7-5.7c0-3.2,2.6-5.7,5.7-5.7h62.7c3.2,0,5.7,2.6,5.7,5.7
					C80.1,41.2,77.5,43.7,74.3,43.7z M11.6,33c-2.8,0-5,2.2-5,5c0,2.8,2.2,5,5,5h62.7c2.8,0,5-2.2,5-5c0-2.8-2.2-5-5-5H11.6z"/>
			</g>
		</g>
	</g>
</g>
<g id="_x39_006" class="st3">
	<g class="st2">
		<g>
			<g>
				<rect x="15.1" y="37" class="st1" width="36.9" height="6.4"/>
				<path class="st0" d="M52.3,43.9H14.7v-7.2h37.6V43.9z M15.5,43.1h36.1v-5.7H15.5V43.1z"/>
			</g>
			<g>
				<rect x="0.4" y="45.2" class="st1" width="8.1" height="3.4"/>
				<path class="st0" d="M8.8,49H0v-4.2h8.8V49z M0.7,48.2h7.4v-2.7H0.7V48.2z"/>
			</g>
			<g>
				<polygon class="st1" points="68.8,87.1 70.1,83 79,83 73.1,87.1 				"/>
				<path class="st0" d="M73.2,87.5h-4.9l1.5-4.9H79l0.2,0.7L73.2,87.5z M69.4,86.8H73l4.8-3.4h-7.4L69.4,86.8z"/>
			</g>
			<g>
				<path class="st1" d="M17.4,48.3h32.2v11.5c1.3-0.4,2.9-0.7,4.4-0.7l14.1,0L68,81.6l-19.4,0L40.1,75H24.8l-7.4-6.9V48.3z"/>
				<path class="st0" d="M68.3,82l-19.9,0L40,75.4H24.6l-7.6-7.1V47.9H50v11.4c1.5-0.4,2.8-0.6,4-0.6l14.5,0L68.3,82z M48.7,81.2
					l18.9,0l0.1-21.8l-13.7,0c-1.2,0-2.7,0.2-4.3,0.7l-0.5,0.1V48.7H17.8V68l7.1,6.7h15.3L48.7,81.2z"/>
			</g>
			<g>
				<path class="st1" d="M17.2,30.7h32.7c1.1,0,2.1,0.9,2.1,2.1v2H15.1v-2C15.1,31.6,16,30.7,17.2,30.7z"/>
				<path class="st0" d="M52.3,35.1H14.7v-2.3c0-1.4,1.1-2.5,2.5-2.5h32.7c1.4,0,2.5,1.1,2.5,2.5V35.1z M15.5,34.4h36.1v-1.6
					c0-0.9-0.8-1.7-1.7-1.7H17.2c-0.9,0-1.7,0.8-1.7,1.7V34.4z"/>
			</g>
			<g>
				<rect x="5.7" y="43.3" class="st1" width="55.8" height="5.3"/>
				<path class="st0" d="M61.9,49H5.3v-6.1h56.6V49z M6.1,48.2h55.1v-4.6H6.1V48.2z"/>
			</g>
			<g>
				<rect x="34.5" y="45.2" class="st1" width="7.2" height="3.4"/>
				<path class="st0" d="M42.1,49h-8v-4.2h8V49z M34.9,48.2h6.5v-2.7h-6.5V48.2z"/>
			</g>
			<g>
				<rect x="37.7" y="45.2" class="st1" width="17.5" height="3.4"/>
				<path class="st0" d="M55.5,49H37.3v-4.2h18.2V49z M38,48.2h16.7v-2.7H38V48.2z"/>
			</g>
			<g>
				<path class="st1" d="M69.2,56.3h15.3c0.7,0,1.3,0.6,1.3,1.3v25.4c0,0.7-0.6,1.3-1.3,1.3H69.2c-0.7,0-1.3-0.6-1.3-1.3V57.6
					C67.9,56.9,68.5,56.3,69.2,56.3z"/>
				<path class="st0" d="M84.6,84.6H69.2c-0.9,0-1.7-0.7-1.7-1.7V57.6c0-0.9,0.7-1.7,1.7-1.7h15.3c0.9,0,1.7,0.7,1.7,1.7v25.4
					C86.2,83.8,85.5,84.6,84.6,84.6z M69.2,56.7c-0.5,0-0.9,0.4-0.9,0.9v25.4c0,0.5,0.4,0.9,0.9,0.9h15.3c0.5,0,0.9-0.4,0.9-0.9
					V57.6c0-0.5-0.4-0.9-0.9-0.9H69.2z"/>
			</g>
			<g>
				<path class="st1" d="M15.1,33.9H52c1.1,0,2,0.9,2,2v0c0,1.1-0.9,2-2,2H15.1c-1.1,0-2-0.9-2-2v0C13.1,34.8,14,33.9,15.1,33.9z"/>
				<path class="st0" d="M52,38.3H15.1c-1.3,0-2.4-1.1-2.4-2.4c0-1.3,1.1-2.4,2.4-2.4H52c1.3,0,2.4,1.1,2.4,2.4
					C54.4,37.2,53.3,38.3,52,38.3z M15.1,34.3c-0.9,0-1.7,0.7-1.7,1.7c0,0.9,0.7,1.7,1.7,1.7H52c0.9,0,1.7-0.7,1.7-1.7
					s-0.7-1.7-1.7-1.7H15.1z"/>
			</g>
			<g>
				<path class="st1" d="M49.6,59.8c-5.1,1.1-9.5,3.1-13.3,6"/>
				<path class="st0" d="M36.5,66.1l-0.5-0.6c3.8-2.9,8.3-4.9,13.4-6l0.2,0.7C44.7,61.2,40.3,63.2,36.5,66.1z"/>
			</g>
			<g>
				<rect x="3.1" y="45.2" class="st1" width="7.5" height="3.4"/>
				<path class="st0" d="M11,49H2.8v-4.2H11V49z M3.5,48.2h6.7v-2.7H3.5V48.2z"/>
			</g>
		</g>
		<g>
			<g>
				<rect x="154.6" y="38.9" class="st1" width="16.9" height="40.3"/>
				<path class="st0" d="M171.9,79.6h-17.7v-41h17.7V79.6z M155,78.9h16.2V39.3H155V78.9z"/>
			</g>
			<g>
				<path class="st1" d="M101,54.9L110,55l24.5-22.3l3.5-6.8c7.1,0.9,13,3.7,17.9,8l0.3,49.5c-4,4.1-9.6,7-17.6,8.5l-5-7.8
					l-23.6-14.8l-7.1,0.3C101.6,69.7,100.2,54.5,101,54.9z"/>
				<path class="st0" d="M138.5,92.3l-5.1-7.9L110,69.7l-7,0.3c-0.4,0-1.1,0-1.9-5.7c-0.4-2.8-0.7-6.2-0.7-8.1c0-1,0-1.7,0.6-1.7
					l0.1,0l8.8,0.1l24.4-22.1l3.6-7l0.3,0c7,0.9,13,3.6,18.1,8.1l0.1,0.1l0.3,49.8l-0.1,0.1c-4.3,4.4-10.1,7.2-17.8,8.6L138.5,92.3z
					 M110.2,68.9l23.8,15l4.9,7.6c7.4-1.4,12.9-4.1,17-8.3l-0.3-49.1c-4.9-4.3-10.7-6.9-17.3-7.8l-3.5,6.7l-24.6,22.4l-9-0.1
					c-0.3,1.8,0.9,13.3,1.9,14L110.2,68.9z"/>
			</g>
			<g>
				<path class="st1" d="M134.2,86.5c15.2,0,27.6-12.4,27.6-27.6c0-15.2-12.4-27.6-27.6-27.6c-15.2,0-27.6,12.4-27.6,27.6
					C106.6,74.1,119,86.5,134.2,86.5z"/>
				<path class="st0" d="M134.2,86.8c-15.4,0-28-12.6-28-28c0-15.4,12.6-28,28-28c15.4,0,28,12.6,28,28
					C162.2,74.3,149.6,86.8,134.2,86.8z M134.2,31.6c-15,0-27.2,12.2-27.2,27.2c0,15,12.2,27.2,27.2,27.2c15,0,27.2-12.2,27.2-27.2
					C161.5,43.9,149.2,31.6,134.2,31.6z"/>
			</g>
			<g>
				<path class="st1" d="M134.2,77.4c10.2,0,18.5-8.3,18.5-18.5c0-10.2-8.3-18.5-18.5-18.5c-10.2,0-18.5,8.3-18.5,18.5
					C115.7,69.1,124,77.4,134.2,77.4z"/>
				<path class="st0" d="M134.2,77.8c-10.4,0-18.9-8.5-18.9-18.9S123.8,40,134.2,40c10.4,0,18.9,8.5,18.9,18.9
					S144.7,77.8,134.2,77.8z M134.2,40.7c-10,0-18.2,8.2-18.2,18.2c0,10,8.2,18.2,18.2,18.2c10,0,18.2-8.2,18.2-18.2
					C152.4,48.8,144.2,40.7,134.2,40.7z"/>
			</g>
			<g>
				<path class="st1" d="M134.2,76c9.5,0,17.2-7.7,17.2-17.2c0-9.5-7.7-17.2-17.2-17.2c-9.5,0-17.2,7.7-17.2,17.2
					C117.1,68.3,124.8,76,134.2,76z"/>
				<path class="st0" d="M134.2,76.4c-9.7,0-17.5-7.9-17.5-17.5c0-9.7,7.9-17.5,17.5-17.5c9.7,0,17.5,7.9,17.5,17.5
					C151.8,68.5,143.9,76.4,134.2,76.4z M134.2,42.1c-9.3,0-16.8,7.5-16.8,16.8c0,9.3,7.5,16.8,16.8,16.8c9.3,0,16.8-7.5,16.8-16.8
					C151,49.6,143.5,42.1,134.2,42.1z"/>
			</g>
			<g>
				<path class="st1" d="M134.2,73.6c8.1,0,14.7-6.6,14.7-14.7c0-8.1-6.6-14.7-14.7-14.7c-8.1,0-14.7,6.6-14.7,14.7
					C119.5,67,126.1,73.6,134.2,73.6z"/>
				<path class="st0" d="M134.2,74c-8.3,0-15.1-6.8-15.1-15.1c0-8.3,6.8-15.1,15.1-15.1c8.3,0,15.1,6.8,15.1,15.1
					C149.3,67.2,142.5,74,134.2,74z M134.2,44.5c-7.9,0-14.3,6.4-14.3,14.3s6.4,14.3,14.3,14.3c7.9,0,14.3-6.4,14.3-14.3
					S142.1,44.5,134.2,44.5z"/>
			</g>
			<g>
				<path class="st1" d="M134.2,69.7c6,0,10.9-4.9,10.9-10.9c0-6-4.9-10.9-10.9-10.9c-6,0-10.9,4.9-10.9,10.9
					C123.3,64.9,128.2,69.7,134.2,69.7z"/>
				<path class="st0" d="M134.2,70.1c-6.2,0-11.2-5-11.2-11.2c0-6.2,5-11.2,11.2-11.2s11.2,5,11.2,11.2
					C145.5,65.1,140.4,70.1,134.2,70.1z M134.2,48.4c-5.8,0-10.5,4.7-10.5,10.5s4.7,10.5,10.5,10.5c5.8,0,10.5-4.7,10.5-10.5
					S140,48.4,134.2,48.4z"/>
			</g>
			<g>
				<path class="st1" d="M134.2,60.6c0.9,0,1.7-0.8,1.7-1.7c0-0.9-0.8-1.7-1.7-1.7c-0.9,0-1.7,0.8-1.7,1.7
					C132.5,59.8,133.3,60.6,134.2,60.6z"/>
				<path class="st0" d="M134.2,60.9c-1.1,0-2.1-0.9-2.1-2.1c0-1.1,0.9-2.1,2.1-2.1c1.1,0,2.1,0.9,2.1,2.1
					C136.3,60,135.4,60.9,134.2,60.9z M134.2,57.5c-0.7,0-1.3,0.6-1.3,1.3c0,0.7,0.6,1.3,1.3,1.3c0.7,0,1.3-0.6,1.3-1.3
					C135.6,58.1,135,57.5,134.2,57.5z"/>
			</g>
			<g>
				<line class="st1" x1="107" y1="54.2" x2="116.3" y2="54.3"/>
				
					<rect x="107" y="53.9" transform="matrix(0.9999 1.147776e-02 -1.147776e-02 0.9999 0.6298 -1.2782)" class="st0" width="9.3" height="0.7"/>
			</g>
			<g>
				<line class="st1" x1="106.9" y1="63.1" x2="116.2" y2="63.3"/>
				
					<rect x="106.9" y="62.9" transform="matrix(0.9998 1.969076e-02 -1.969076e-02 0.9998 1.2666 -2.1847)" class="st0" width="9.3" height="0.7"/>
			</g>
			<g>
				<line class="st1" x1="139.3" y1="41" x2="144" y2="33.1"/>
				
					<rect x="141.3" y="32.5" transform="matrix(0.8581 0.5135 -0.5135 0.8581 39.1333 -67.5)" class="st0" width="0.7" height="9.1"/>
			</g>
			<g>
				<line class="st1" x1="147.5" y1="46.1" x2="152.1" y2="37.9"/>
				
					<rect x="149.5" y="37.3" transform="matrix(0.8719 0.4896 -0.4896 0.8719 39.7497 -67.9881)" class="st0" width="0.7" height="9.4"/>
			</g>
			<g>
				<line class="st1" x1="139.4" y1="76.8" x2="144.2" y2="84.6"/>
				
					<rect x="137.2" y="80.3" transform="matrix(0.5229 0.8524 -0.8524 0.5229 136.4067 -82.356)" class="st0" width="9.2" height="0.7"/>
			</g>
			<g>
				<line class="st1" x1="147.7" y1="71.7" x2="152.3" y2="79.9"/>
				
					<rect x="145.2" y="75.4" transform="matrix(0.4905 0.8714 -0.8714 0.4905 142.4444 -92.0806)" class="st0" width="9.4" height="0.7"/>
			</g>
			<g>
				<path class="st1" d="M170.3,36.4h15.9v45.7h-15.9c-0.8,0-1.5-0.7-1.5-1.5V37.9C168.8,37.1,169.4,36.4,170.3,36.4z"/>
				<path class="st0" d="M186.6,82.5h-16.3c-1.1,0-1.9-0.9-1.9-1.9V37.9c0-1.1,0.9-1.9,1.9-1.9h16.3V82.5z M170.3,36.8
					c-0.6,0-1.2,0.5-1.2,1.2v42.7c0,0.6,0.5,1.2,1.2,1.2h15.6v-45H170.3z"/>
			</g>
		</g>
	</g>
</g>
<g id="_x39_005">
	<g>
		<g>
			<g>
				<rect x="15.1" y="37" class="st1" width="36.9" height="6.4"/>
				<path class="st0" d="M52.3,43.9H14.7v-7.2h37.6V43.9z M15.5,43.1h36.1v-5.7H15.5V43.1z"/>
			</g>
			<g>
				<rect x="0.4" y="45.2" class="st1" width="8.1" height="3.4"/>
				<path class="st0" d="M8.8,49H0v-4.2h8.8V49z M0.7,48.2h7.4v-2.7H0.7V48.2z"/>
			</g>
			<g>
				<polygon class="st1" points="68.8,87.1 70.1,83 79,83 73.1,87.1 				"/>
				<path class="st0" d="M73.2,87.5h-4.9l1.5-4.9H79l0.2,0.7L73.2,87.5z M69.4,86.8H73l4.8-3.4h-7.4L69.4,86.8z"/>
			</g>
			<g>
				<path class="st1" d="M17.4,48.3h32.2v11.5c1.3-0.4,2.9-0.7,4.4-0.7l14.1,0L68,81.6l-19.4,0L40.1,75H24.8l-7.4-6.9V48.3z"/>
				<path class="st0" d="M68.3,81.9l-19.9,0L40,75.4H24.6l-7.6-7.1V47.9H50v11.4c1.5-0.4,2.8-0.6,4-0.6l14.5,0L68.3,81.9z
					 M48.7,81.2l18.9,0l0.1-21.8l-13.7,0c-1.2,0-2.7,0.2-4.3,0.7l-0.5,0.1V48.7H17.8V68l7.1,6.7h15.3L48.7,81.2z"/>
			</g>
			<g>
				<path class="st1" d="M17.2,30.7h32.7c1.1,0,2.1,0.9,2.1,2.1v2H15.1v-2C15.1,31.6,16,30.7,17.2,30.7z"/>
				<path class="st0" d="M52.3,35.1H14.7v-2.3c0-1.4,1.1-2.5,2.5-2.5h32.7c1.4,0,2.5,1.1,2.5,2.5V35.1z M15.5,34.4h36.1v-1.6
					c0-0.9-0.8-1.7-1.7-1.7H17.2c-0.9,0-1.7,0.8-1.7,1.7V34.4z"/>
			</g>
			<g>
				<rect x="5.7" y="43.3" class="st1" width="55.8" height="5.3"/>
				<path class="st0" d="M61.9,49H5.3v-6.1h56.6V49z M6.1,48.2h55.1v-4.6H6.1V48.2z"/>
			</g>
			<g>
				<rect x="34.5" y="45.2" class="st1" width="7.2" height="3.4"/>
				<path class="st0" d="M42.1,49h-8v-4.2h8V49z M34.9,48.2h6.5v-2.7h-6.5V48.2z"/>
			</g>
			<g>
				<rect x="37.7" y="45.2" class="st1" width="17.5" height="3.4"/>
				<path class="st0" d="M55.5,49H37.3v-4.2h18.2V49z M38,48.2h16.7v-2.7H38V48.2z"/>
			</g>
			<g>
				<path class="st1" d="M69.2,56.3h15.3c0.7,0,1.3,0.6,1.3,1.3v25.4c0,0.7-0.6,1.3-1.3,1.3H69.2c-0.7,0-1.3-0.6-1.3-1.3V57.6
					C67.9,56.9,68.5,56.3,69.2,56.3z"/>
				<path class="st0" d="M84.6,84.6H69.2c-0.9,0-1.7-0.7-1.7-1.7V57.6c0-0.9,0.7-1.7,1.7-1.7h15.3c0.9,0,1.7,0.7,1.7,1.7v25.4
					C86.2,83.8,85.5,84.6,84.6,84.6z M69.2,56.7c-0.5,0-0.9,0.4-0.9,0.9v25.4c0,0.5,0.4,0.9,0.9,0.9h15.3c0.5,0,0.9-0.4,0.9-0.9
					V57.6c0-0.5-0.4-0.9-0.9-0.9H69.2z"/>
			</g>
			<g>
				<path class="st1" d="M15.1,33.9H52c1.1,0,2,0.9,2,2l0,0c0,1.1-0.9,2-2,2H15.1c-1.1,0-2-0.9-2-2l0,0C13.1,34.8,14,33.9,15.1,33.9
					z"/>
				<path class="st0" d="M52,38.3H15.1c-1.3,0-2.4-1.1-2.4-2.4s1.1-2.4,2.4-2.4H52c1.3,0,2.4,1.1,2.4,2.4S53.3,38.3,52,38.3z
					 M15.1,34.3c-0.9,0-1.7,0.7-1.7,1.7c0,0.9,0.7,1.7,1.7,1.7H52c0.9,0,1.7-0.7,1.7-1.7c0-0.9-0.7-1.7-1.7-1.7H15.1z"/>
			</g>
			<g>
				<path class="st1" d="M49.6,59.8c-5.1,1.1-9.5,3.1-13.3,6"/>
				<path class="st0" d="M36.5,66.1l-0.5-0.6c3.8-2.9,8.3-4.9,13.4-6l0.2,0.7C44.7,61.2,40.3,63.2,36.5,66.1z"/>
			</g>
		</g>
		<g>
			<g>
				<rect x="154.6" y="38.9" class="st1" width="16.9" height="40.3"/>
				<path class="st0" d="M171.9,79.6h-17.7v-41h17.7V79.6z M155,78.9h16.2V39.3H155V78.9z"/>
			</g>
			<g>
				<path class="st1" d="M101,62.9l9.1-0.1l24.5,22.3l3.5,6.8c7.1-0.9,13-3.7,17.9-8l0.3-49.5c-4-4.1-9.6-7-17.6-8.5l-5,7.8
					l-23.6,14.8l-7.1-0.3C101.6,48.1,100.2,63.3,101,62.9z"/>
				<path class="st0" d="M137.8,92.3l-3.6-7l-24.4-22.1l-8.9,0.1c-0.5,0-0.6-0.7-0.6-1.7c0-1.9,0.3-5.3,0.7-8.1
					c0.8-5.7,1.5-5.7,1.9-5.7l7,0.3l23.4-14.7l5.1-7.9l0.2,0c7.7,1.5,13.5,4.3,17.8,8.6l0.1,0.1l-0.3,49.8l-0.1,0.1
					c-5.1,4.5-11.2,7.2-18.1,8.1L137.8,92.3z M110.2,62.4l0.1,0.1l24.6,22.4l3.4,6.6c6.6-0.9,12.5-3.5,17.3-7.8l0.3-49.1
					c-4.1-4.1-9.7-6.8-17-8.3l-5,7.7l-23.7,14.9l-7.3-0.3c-0.9,0.7-2.1,12.2-1.8,14L110.2,62.4z"/>
			</g>
			<g>
				<path class="st1" d="M134.2,86.6c15.2,0,27.6-12.4,27.6-27.6c0-15.2-12.4-27.6-27.6-27.6c-15.2,0-27.6,12.4-27.6,27.6
					C106.6,74.2,119,86.6,134.2,86.6z"/>
				<path class="st0" d="M134.2,87c-15.4,0-28-12.6-28-28c0-15.4,12.6-28,28-28c15.4,0,28,12.5,28,28C162.2,74.4,149.6,87,134.2,87z
					 M134.2,31.7C119.2,31.7,107,44,107,59c0,15,12.2,27.2,27.2,27.2c15,0,27.2-12.2,27.2-27.2C161.5,44,149.2,31.7,134.2,31.7z"/>
			</g>
			<g>
				<path class="st1" d="M134.2,77.5c10.2,0,18.5-8.3,18.5-18.5c0-10.2-8.3-18.5-18.5-18.5c-10.2,0-18.5,8.3-18.5,18.5
					C115.7,69.2,124,77.5,134.2,77.5z"/>
				<path class="st0" d="M134.2,77.9c-10.4,0-18.9-8.5-18.9-18.9c0-10.4,8.5-18.9,18.9-18.9c10.4,0,18.9,8.5,18.9,18.9
					C153.1,69.4,144.7,77.9,134.2,77.9z M134.2,40.8c-10,0-18.2,8.2-18.2,18.2c0,10,8.2,18.2,18.2,18.2c10,0,18.2-8.2,18.2-18.2
					C152.4,49,144.2,40.8,134.2,40.8z"/>
			</g>
			<g>
				<path class="st1" d="M134.2,76.1c9.5,0,17.2-7.7,17.2-17.2c0-9.5-7.7-17.2-17.2-17.2c-9.5,0-17.2,7.7-17.2,17.2
					C117.1,68.4,124.8,76.1,134.2,76.1z"/>
				<path class="st0" d="M134.2,76.5c-9.7,0-17.5-7.9-17.5-17.5c0-9.7,7.9-17.5,17.5-17.5c9.7,0,17.5,7.9,17.5,17.5
					C151.8,68.6,143.9,76.5,134.2,76.5z M134.2,42.2c-9.3,0-16.8,7.5-16.8,16.8c0,9.3,7.5,16.8,16.8,16.8c9.3,0,16.8-7.5,16.8-16.8
					C151,49.7,143.5,42.2,134.2,42.2z"/>
			</g>
			<g>
				<path class="st1" d="M134.2,73.7c8.1,0,14.7-6.6,14.7-14.7s-6.6-14.7-14.7-14.7c-8.1,0-14.7,6.6-14.7,14.7
					S126.1,73.7,134.2,73.7z"/>
				<path class="st0" d="M134.2,74.1c-8.3,0-15.1-6.8-15.1-15.1c0-8.3,6.8-15.1,15.1-15.1c8.3,0,15.1,6.8,15.1,15.1
					C149.3,67.3,142.5,74.1,134.2,74.1z M134.2,44.6c-7.9,0-14.3,6.4-14.3,14.3c0,7.9,6.4,14.3,14.3,14.3c7.9,0,14.3-6.4,14.3-14.3
					C148.6,51.1,142.1,44.6,134.2,44.6z"/>
			</g>
			<g>
				<path class="st1" d="M134.2,69.8c6,0,10.9-4.9,10.9-10.9c0-6-4.9-10.9-10.9-10.9c-6,0-10.9,4.9-10.9,10.9
					C123.3,65,128.2,69.8,134.2,69.8z"/>
				<path class="st0" d="M134.2,70.2c-6.2,0-11.2-5-11.2-11.2s5-11.2,11.2-11.2s11.2,5,11.2,11.2S140.4,70.2,134.2,70.2z
					 M134.2,48.5c-5.8,0-10.5,4.7-10.5,10.5s4.7,10.5,10.5,10.5c5.8,0,10.5-4.7,10.5-10.5S140,48.5,134.2,48.5z"/>
			</g>
			<g>
				<path class="st1" d="M134.2,60.7c0.9,0,1.7-0.8,1.7-1.7s-0.8-1.7-1.7-1.7c-0.9,0-1.7,0.8-1.7,1.7S133.3,60.7,134.2,60.7z"/>
				<path class="st0" d="M134.2,61.1c-1.1,0-2.1-0.9-2.1-2.1s0.9-2.1,2.1-2.1c1.1,0,2.1,0.9,2.1,2.1S135.4,61.1,134.2,61.1z
					 M134.2,57.6c-0.7,0-1.3,0.6-1.3,1.3c0,0.7,0.6,1.3,1.3,1.3c0.7,0,1.3-0.6,1.3-1.3C135.6,58.2,135,57.6,134.2,57.6z"/>
			</g>
			<g>
				<line class="st1" x1="107" y1="63.7" x2="116.3" y2="63.6"/>
				
					<rect x="111.3" y="59" transform="matrix(1.179473e-02 0.9999 -0.9999 1.179473e-02 173.9684 -48.8089)" class="st0" width="0.7" height="9.3"/>
			</g>
			<g>
				<line class="st1" x1="106.9" y1="54.7" x2="116.2" y2="54.5"/>
				
					<rect x="111.2" y="50" transform="matrix(2.031039e-02 0.9998 -0.9998 2.031039e-02 163.9124 -58.0387)" class="st0" width="0.7" height="9.3"/>
			</g>
			<g>
				<line class="st1" x1="139.3" y1="76.9" x2="144" y2="84.7"/>
				
					<rect x="137.1" y="80.4" transform="matrix(0.5137 0.8579 -0.8579 0.5137 138.2134 -82.2657)" class="st0" width="9.1" height="0.7"/>
			</g>
			<g>
				<line class="st1" x1="147.5" y1="71.8" x2="152.1" y2="79.9"/>
				
					<rect x="145.1" y="75.5" transform="matrix(0.4889 0.8724 -0.8724 0.4889 142.7586 -91.9382)" class="st0" width="9.4" height="0.7"/>
			</g>
			<g>
				<line class="st1" x1="139.4" y1="41.1" x2="144.2" y2="33.2"/>
				
					<rect x="141.4" y="32.6" transform="matrix(0.852 0.5235 -0.5235 0.852 40.4369 -68.7214)" class="st0" width="0.7" height="9.2"/>
			</g>
			<g>
				<line class="st1" x1="147.7" y1="46.2" x2="152.3" y2="38"/>
				
					<rect x="149.6" y="37.3" transform="matrix(0.8716 0.4902 -0.4902 0.8716 39.8761 -68.1136)" class="st0" width="0.7" height="9.4"/>
			</g>
			<g>
				<path class="st1" d="M170.3,36.4h15.9v45.7h-15.9c-0.8,0-1.5-0.7-1.5-1.5V37.9C168.8,37.1,169.4,36.4,170.3,36.4z"/>
				<path class="st0" d="M186.6,82.5h-16.3c-1.1,0-1.9-0.9-1.9-1.9V37.9c0-1.1,0.9-1.9,1.9-1.9h16.3V82.5z M170.3,36.8
					c-0.6,0-1.2,0.5-1.2,1.2v42.7c0,0.6,0.5,1.2,1.2,1.2h15.6v-45H170.3z"/>
			</g>
		</g>
	</g>
</g>
</svg>
