<?xml version="1.0" encoding="utf-8"?>
<!-- Generator: Adobe Illustrator 16.0.4, SVG Export Plug-In . SVG Version: 6.00 Build 0)  -->
<!DOCTYPE svg PUBLIC "-//W3C//DTD SVG 1.1//EN" "http://www.w3.org/Graphics/SVG/1.1/DTD/svg11.dtd">
<svg version="1.1" id="D2R" xmlns="http://www.w3.org/2000/svg" xmlns:xlink="http://www.w3.org/1999/xlink" x="0px" y="0px"
	 width="187px" height="117.8px" viewBox="0 0 187 117.8" style="enable-background:new 0 0 187 117.8;" xml:space="preserve">
<style type="text/css">
<![CDATA[
	.st0{fill:#999999;}
	.st1{fill-rule:evenodd;clip-rule:evenodd;fill:#e5e5e5;}
]]>
</style>
<g>
	<g>
		<g>
			<path class="st1" d="M139.1,16.3c-21.5,2.2-38.3,20.4-38.3,42.5c0,23.6,19.1,42.7,42.7,42.7c23.6,0,42.7-19.1,42.7-42.7
				c0-14.2-7-26.8-17.7-34.6c-2.3,3.1-5,4.7-7,3.2c-2.1-1.6-1.9-4.3-0.2-7.4c-3.9-1.8-8-3-12.4-3.6l0.1,9.4l-9.9,0.1L139.1,16.3z"/>
			<path class="st0" d="M143.5,101.9c-23.8,0-43.1-19.3-43.1-43.1c0-22.2,16.6-40.6,38.7-42.9l0.4,0l0,9.6l9.1-0.1l-0.1-9.5l0.4,0.1
				c4.3,0.6,8.6,1.8,12.5,3.7l0.4,0.2l-0.2,0.3c-1.2,2.2-2.2,5.2,0.1,6.9c1.7,1.3,4.2,0,6.5-3.1l0.2-0.3l0.3,0.2
				c11.2,8.1,17.9,21.1,17.9,34.9C186.6,82.6,167.3,101.9,143.5,101.9z M138.7,16.7c-21.5,2.4-37.6,20.5-37.6,42.1
				c0,23.4,19,42.4,42.4,42.4c23.4,0,42.4-19,42.4-42.4c0-13.4-6.4-26.1-17.3-34c-2.5,3.3-5.3,4.4-7.3,3c-2-1.5-2.2-4.2-0.5-7.5
				c-3.7-1.7-7.6-2.8-11.5-3.4l0.1,9.3l-10.6,0.1L138.7,16.7z"/>
		</g>
		<g>
			<path class="st1" d="M143.5,87.7c15.9,0,28.8-12.9,28.8-28.8c0-15.9-12.9-28.8-28.8-28.8c-15.9,0-28.8,12.9-28.8,28.8
				C114.7,74.8,127.6,87.7,143.5,87.7z"/>
			<path class="st0" d="M143.5,88.1c-16.1,0-29.2-13.1-29.2-29.2c0-16.1,13.1-29.2,29.2-29.2c16.1,0,29.2,13.1,29.2,29.2
				C172.7,75,159.6,88.1,143.5,88.1z M143.5,30.5c-15.7,0-28.5,12.8-28.5,28.4c0,15.7,12.8,28.5,28.5,28.5
				c15.7,0,28.5-12.8,28.5-28.5C171.9,43.2,159.2,30.5,143.5,30.5z"/>
		</g>
		<g>
			<path class="st1" d="M143.5,73.8c8.2,0,14.9-6.7,14.9-14.9c0-8.2-6.7-14.9-14.9-14.9c-8.2,0-14.9,6.7-14.9,14.9
				C128.6,67.1,135.3,73.8,143.5,73.8z"/>
			<path class="st0" d="M143.5,74.2c-8.4,0-15.3-6.9-15.3-15.3c0-8.4,6.9-15.3,15.3-15.3s15.3,6.9,15.3,15.3
				C158.8,67.3,151.9,74.2,143.5,74.2z M143.5,44.4c-8,0-14.5,6.5-14.5,14.5c0,8,6.5,14.5,14.5,14.5S158,66.9,158,58.9
				C158,50.9,151.5,44.4,143.5,44.4z"/>
		</g>
		<g>
			<path class="st1" d="M143.5,83.4c13.5,0,24.5-11,24.5-24.5c0-13.5-11-24.5-24.5-24.5c-13.5,0-24.5,11-24.5,24.5
				C119,72.4,130,83.4,143.5,83.4z"/>
			<path class="st0" d="M143.5,83.8c-13.7,0-24.9-11.2-24.9-24.9c0-13.7,11.2-24.9,24.9-24.9c13.7,0,24.9,11.2,24.9,24.9
				C168.4,72.6,157.2,83.8,143.5,83.8z M143.5,34.8c-13.3,0-24.1,10.8-24.1,24.1c0,13.3,10.8,24.1,24.1,24.1
				c13.3,0,24.1-10.8,24.1-24.1C167.6,45.6,156.8,34.8,143.5,34.8z"/>
		</g>
		<g>
			<path class="st1" d="M143.5,66.9c4.4,0,8-3.6,8-8c0-4.4-3.6-8-8-8c-4.4,0-8,3.6-8,8C135.5,63.3,139.1,66.9,143.5,66.9z"/>
			<path class="st0" d="M143.5,67.3c-4.6,0-8.4-3.8-8.4-8.4c0-4.6,3.8-8.4,8.4-8.4s8.4,3.8,8.4,8.4
				C151.9,63.5,148.1,67.3,143.5,67.3z M143.5,51.3c-4.2,0-7.6,3.4-7.6,7.6c0,4.2,3.4,7.6,7.6,7.6s7.6-3.4,7.6-7.6
				C151.1,54.7,147.7,51.3,143.5,51.3z"/>
		</g>
	</g>
	<g>
		<g>
			<rect x="20.1" y="26.8" class="st1" width="46.1" height="66.3"/>
			<path class="st0" d="M66.5,93.5H19.7v-67h46.8V93.5z M20.5,92.7h45.3V27.2H20.5V92.7z"/>
		</g>
		<g>
			<rect x="20.1" y="30.4" class="st1" width="46.1" height="54.4"/>
			<path class="st0" d="M66.5,85.2H19.7V30.1h46.8V85.2z M20.5,84.5h45.3V30.8H20.5V84.5z"/>
		</g>
		<g>
			<rect x="14.6" y="30.4" class="st1" width="57" height="46.5"/>
			<path class="st0" d="M72,77.4H14.2V30.1H72V77.4z M15,76.6h56.2V30.8H15V76.6z"/>
		</g>
		<g>
			<path class="st1" d="M43.1,57.8c2.9,0,5.3-2.4,5.3-5.3c0-2.9-2.4-5.3-5.3-5.3c-2.9,0-5.3,2.4-5.3,5.3
				C37.8,55.4,40.2,57.8,43.1,57.8z"/>
			<path class="st0" d="M43.1,58.1c-3.2,0-5.7-2.6-5.7-5.7c0-3.2,2.6-5.7,5.7-5.7c3.2,0,5.7,2.6,5.7,5.7
				C48.8,55.6,46.3,58.1,43.1,58.1z M43.1,47.4c-2.7,0-5,2.2-5,5c0,2.7,2.2,5,5,5c2.7,0,5-2.2,5-5C48.1,49.7,45.9,47.4,43.1,47.4z"
				/>
		</g>
		<g>
			<rect x="0.4" y="24.8" class="st1" width="85.5" height="8.5"/>
			<path class="st0" d="M86.2,33.7H0v-9.3h86.2V33.7z M0.7,32.9h84.7v-7.8H0.7V32.9z"/>
		</g>
	</g>
</g>
</svg>
