<?xml version="1.0" encoding="utf-8"?>
<!-- Generator: Adobe Illustrator 16.0.4, SVG Export Plug-In . SVG Version: 6.00 Build 0)  -->
<!DOCTYPE svg PUBLIC "-//W3C//DTD SVG 1.1//EN" "http://www.w3.org/Graphics/SVG/1.1/DTD/svg11.dtd">
<svg version="1.1" id="D2S" xmlns="http://www.w3.org/2000/svg" xmlns:xlink="http://www.w3.org/1999/xlink" x="0px" y="0px"
	 width="187px" height="117.8px" viewBox="0 0 187 117.8" style="enable-background:new 0 0 187 117.8;" xml:space="preserve">
<style type="text/css">
<![CDATA[
	.st0{fill:#999999;}
	.st1{fill-rule:evenodd;clip-rule:evenodd;fill:#e5e5e5;}
]]>
</style>
<g>
	<g>
		<g>
			<path class="st1" d="M147.9,16.3c21.5,2.2,38.3,20.4,38.3,42.5c0,23.6-19.1,42.7-42.7,42.7c-23.6,0-42.7-19.1-42.7-42.7
				c0-10.8,4-20.6,10.6-28.1c7,5,12.7-1.4,7-6.5c5.2-4.1,12.8-6.9,19.7-7.9l-0.1,9.4l9.9,0.1L147.9,16.3z"/>
			<path class="st0" d="M143.5,101.9c-23.8,0-43.1-19.3-43.1-43.1c0-10.4,3.8-20.5,10.7-28.3l0.2-0.3l0.3,0.2
				c1.6,1.1,3.2,1.7,4.7,1.7c1.8,0,3.3-0.9,3.8-2.3c0.6-1.7-0.1-3.6-2-5.3l-0.3-0.3l0.4-0.3c5-3.9,12.6-6.9,19.9-7.9l0.4-0.1
				l-0.1,9.5l9.1,0.1l0-9.6l0.4,0c22.1,2.3,38.7,20.7,38.7,42.9C186.6,82.6,167.3,101.9,143.5,101.9z M111.4,31.2
				c-6.6,7.7-10.3,17.4-10.3,27.6c0,23.4,19,42.4,42.4,42.4c23.4,0,42.4-19,42.4-42.4c0-21.6-16.1-39.7-37.6-42.1l0,9.5l-10.6-0.1
				l0.1-9.3c-6.9,1-14,3.8-18.8,7.4c1.9,1.8,2.5,4,1.8,5.8c-0.7,1.7-2.4,2.8-4.5,2.8C114.7,32.9,113,32.3,111.4,31.2z"/>
		</g>
		<g>
			<path class="st1" d="M143.5,87.7c15.9,0,28.8-12.9,28.8-28.8c0-15.9-12.9-28.8-28.8-28.8c-15.9,0-28.8,12.9-28.8,28.8
				C114.7,74.8,127.6,87.7,143.5,87.7z"/>
			<path class="st0" d="M143.5,88.1c-16.1,0-29.2-13.1-29.2-29.2c0-16.1,13.1-29.2,29.2-29.2c16.1,0,29.2,13.1,29.2,29.2
				C172.7,75,159.6,88.1,143.5,88.1z M143.5,30.5c-15.7,0-28.5,12.8-28.5,28.4c0,15.7,12.8,28.5,28.5,28.5
				c15.7,0,28.5-12.8,28.5-28.5C171.9,43.2,159.2,30.5,143.5,30.5z"/>
		</g>
		<g>
			<path class="st1" d="M143.5,73.8c8.2,0,14.9-6.7,14.9-14.9c0-8.2-6.7-14.9-14.9-14.9c-8.2,0-14.9,6.7-14.9,14.9
				C128.6,67.1,135.3,73.8,143.5,73.8z"/>
			<path class="st0" d="M143.5,74.2c-8.4,0-15.3-6.9-15.3-15.3c0-8.4,6.9-15.3,15.3-15.3c8.4,0,15.3,6.9,15.3,15.3
				C158.8,67.3,151.9,74.2,143.5,74.2z M143.5,44.4c-8,0-14.5,6.5-14.5,14.5c0,8,6.5,14.5,14.5,14.5c8,0,14.5-6.5,14.5-14.5
				C158,50.9,151.5,44.4,143.5,44.4z"/>
		</g>
		<g>
			<path class="st1" d="M143.5,83.4c13.5,0,24.5-11,24.5-24.5c0-13.5-11-24.5-24.5-24.5c-13.5,0-24.5,11-24.5,24.5
				C119,72.4,130,83.4,143.5,83.4z"/>
			<path class="st0" d="M143.5,83.8c-13.7,0-24.9-11.2-24.9-24.9c0-13.7,11.2-24.9,24.9-24.9c13.7,0,24.9,11.2,24.9,24.9
				C168.4,72.6,157.2,83.8,143.5,83.8z M143.5,34.8c-13.3,0-24.1,10.8-24.1,24.1c0,13.3,10.8,24.1,24.1,24.1
				c13.3,0,24.1-10.8,24.1-24.1C167.6,45.6,156.8,34.8,143.5,34.8z"/>
		</g>
		<g>
			<path class="st1" d="M143.5,66.9c4.4,0,8-3.6,8-8c0-4.4-3.6-8-8-8c-4.4,0-8,3.6-8,8C135.5,63.3,139.1,66.9,143.5,66.9z"/>
			<path class="st0" d="M143.5,67.3c-4.6,0-8.4-3.8-8.4-8.4c0-4.6,3.8-8.4,8.4-8.4s8.4,3.8,8.4,8.4
				C151.9,63.5,148.1,67.3,143.5,67.3z M143.5,51.3c-4.2,0-7.6,3.4-7.6,7.6c0,4.2,3.4,7.6,7.6,7.6s7.6-3.4,7.6-7.6
				C151.1,54.7,147.7,51.3,143.5,51.3z"/>
		</g>
	</g>
	<g>
		<g>
			<rect x="20.1" y="26.8" class="st1" width="46.1" height="66.3"/>
			<path class="st0" d="M66.5,93.5H19.7v-67h46.8V93.5z M20.5,92.7h45.3V27.2H20.5V92.7z"/>
		</g>
		<g>
			<rect x="20.1" y="30.5" class="st1" width="46.1" height="54.4"/>
			<path class="st0" d="M66.5,85.2H19.7V30.1h46.8V85.2z M20.5,84.5h45.3V30.8H20.5V84.5z"/>
		</g>
		<g>
			<rect x="14.6" y="30.5" class="st1" width="57" height="46.5"/>
			<path class="st0" d="M72,77.4H14.2V30.1H72V77.4z M15,76.6h56.2V30.8H15V76.6z"/>
		</g>
		<g>
			<path class="st1" d="M43.1,57.8c2.9,0,5.3-2.4,5.3-5.3c0-2.9-2.4-5.3-5.3-5.3c-2.9,0-5.3,2.4-5.3,5.3
				C37.8,55.4,40.2,57.8,43.1,57.8z"/>
			<path class="st0" d="M43.1,58.1c-3.2,0-5.7-2.6-5.7-5.7c0-3.2,2.6-5.7,5.7-5.7c3.2,0,5.7,2.6,5.7,5.7
				C48.8,55.6,46.3,58.1,43.1,58.1z M43.1,47.4c-2.7,0-5,2.2-5,5c0,2.7,2.2,5,5,5c2.7,0,5-2.2,5-5C48.1,49.7,45.9,47.4,43.1,47.4z"
				/>
		</g>
		<g>
			<rect x="0.4" y="24.8" class="st1" width="85.5" height="8.5"/>
			<path class="st0" d="M86.2,33.7H0v-9.3h86.2V33.7z M0.7,32.9h84.7v-7.8H0.7V32.9z"/>
		</g>
	</g>
</g>
</svg>
