<?xml version="1.0" encoding="utf-8"?>
<!-- Generator: Adobe Illustrator 16.0.4, SVG Export Plug-In . SVG Version: 6.00 Build 0)  -->
<!DOCTYPE svg PUBLIC "-//W3C//DTD SVG 1.1//EN" "http://www.w3.org/Graphics/SVG/1.1/DTD/svg11.dtd">
<svg version="1.1" id="H7" xmlns="http://www.w3.org/2000/svg" xmlns:xlink="http://www.w3.org/1999/xlink" x="0px" y="0px"
	 width="187px" height="117.8px" viewBox="0 0 187 117.8" style="enable-background:new 0 0 187 117.8;" xml:space="preserve">
<style type="text/css">
<![CDATA[
	.st0{fill:#999999;}
	.st1{fill-rule:evenodd;clip-rule:evenodd;fill:#e5e5e5;}
]]>
</style>
<g>
	<g>
		<g>
			<path class="st1" d="M143.5,16.2c14.5,0,27,7,34.8,18l0,15.8l7.1,0c0.6,2.9,0.9,5.9,0.9,8.9c0,3.1-0.3,6.1-1,9.1l-7.1,0l0.2,15.7
				c-7.7,10.9-20.5,18-34.9,18c-23.6,0-42.7-19.1-42.7-42.7C100.8,35.3,119.9,16.2,143.5,16.2z"/>
			<path class="st0" d="M143.5,102c-23.8,0-43.1-19.3-43.1-43.1c0-23.8,19.3-43.1,43.1-43.1c14.2,0,26.9,6.6,35.1,18.2l0.1,0.1
				l0,15.5l7,0l0.1,0.3c0.6,2.9,0.9,6,0.9,9c0,3.1-0.3,6.2-1,9.1l-0.1,0.3l-7,0l0.2,15.4l-0.1,0.1C170.6,95.2,157.4,102,143.5,102z
				 M143.5,16.6c-23.4,0-42.4,19-42.4,42.4c0,23.4,19,42.4,42.4,42.4c13.7,0,26.6-6.6,34.5-17.8l-0.2-15.9l7.1,0
				c0.6-2.8,0.9-5.8,0.9-8.7c0-2.9-0.3-5.8-0.9-8.6l-7.1,0l0-16C169.9,23,157.4,16.6,143.5,16.6z"/>
		</g>
		<g>
			<path class="st1" d="M143.5,87.3c15.7,0,28.4-12.8,28.4-28.4s-12.8-28.4-28.4-28.4c-15.7,0-28.4,12.8-28.4,28.4
				S127.8,87.3,143.5,87.3z"/>
			<path class="st0" d="M143.5,87.7c-15.9,0-28.8-12.9-28.8-28.8s12.9-28.8,28.8-28.8c15.9,0,28.8,12.9,28.8,28.8
				S159.4,87.7,143.5,87.7z M143.5,30.9c-15.5,0-28.1,12.6-28.1,28.1c0,15.5,12.6,28.1,28.1,28.1c15.5,0,28.1-12.6,28.1-28.1
				C171.6,43.5,159,30.9,143.5,30.9z"/>
		</g>
		<g>
			<path class="st1" d="M143,78c10.4,0,18.8-8.5,18.8-18.8c0-10.4-8.5-18.8-18.8-18.8c-10.4,0-18.8,8.5-18.8,18.8
				C124.1,69.6,132.6,78,143,78z"/>
			<path class="st0" d="M143,78.4c-10.6,0-19.2-8.6-19.2-19.2c0-10.6,8.6-19.2,19.2-19.2s19.2,8.6,19.2,19.2
				C162.2,69.8,153.6,78.4,143,78.4z M143,40.7c-10.2,0-18.5,8.3-18.5,18.5c0,10.2,8.3,18.5,18.5,18.5c10.2,0,18.5-8.3,18.5-18.5
				C161.4,49,153.2,40.7,143,40.7z"/>
		</g>
		<g>
			<path class="st1" d="M138.4,61.8c1.4,0,2.6-1.2,2.6-2.6c0-1.4-1.2-2.6-2.6-2.6c-1.4,0-2.6,1.2-2.6,2.6
				C135.8,60.6,137,61.8,138.4,61.8z"/>
			<path class="st0" d="M138.4,62.1c-1.6,0-3-1.3-3-3s1.3-3,3-3c1.6,0,3,1.3,3,3S140,62.1,138.4,62.1z M138.4,57
				c-1.2,0-2.2,1-2.2,2.2c0,1.2,1,2.2,2.2,2.2c1.2,0,2.2-1,2.2-2.2C140.6,58,139.6,57,138.4,57z"/>
		</g>
		<g>
			<path class="st1" d="M147.6,61.8c1.4,0,2.6-1.2,2.6-2.6c0-1.4-1.2-2.6-2.6-2.6c-1.4,0-2.6,1.2-2.6,2.6
				C145,60.6,146.2,61.8,147.6,61.8z"/>
			<path class="st0" d="M147.6,62.1c-1.6,0-3-1.3-3-3s1.3-3,3-3c1.6,0,3,1.3,3,3S149.2,62.1,147.6,62.1z M147.6,57
				c-1.2,0-2.2,1-2.2,2.2c0,1.2,1,2.2,2.2,2.2c1.2,0,2.2-1,2.2-2.2C149.8,58,148.8,57,147.6,57z"/>
		</g>
		<g>
			<rect x="130.1" y="50.9" class="st1" width="1.8" height="16.6"/>
			<path class="st0" d="M132.3,67.8h-2.6V50.5h2.6V67.8z M130.5,67.1h1.1V51.3h-1.1V67.1z"/>
		</g>
		<g>
			<rect x="153.8" y="50.9" class="st1" width="1.8" height="16.6"/>
			<path class="st0" d="M156,67.8h-2.6V50.5h2.6V67.8z M154.2,67.1h1.1V51.3h-1.1V67.1z"/>
		</g>
		<g>
			<line class="st1" x1="119.8" y1="23.5" x2="127.2" y2="35.7"/>
			
				<rect x="116.3" y="29.2" transform="matrix(0.5189 0.8549 -0.8549 0.5189 84.7371 -91.3489)" class="st0" width="14.4" height="0.7"/>
		</g>
		<g>
			<line class="st1" x1="123.9" y1="21" x2="131.1" y2="33.4"/>
			
				<rect x="120.4" y="26.8" transform="matrix(0.5004 0.8658 -0.8658 0.5004 87.2637 -96.8328)" class="st0" width="14.4" height="0.7"/>
		</g>
		<g>
			<line class="st1" x1="119.4" y1="94.2" x2="126.9" y2="81.9"/>
			
				<rect x="122.8" y="80.9" transform="matrix(0.8551 0.5185 -0.5185 0.8551 63.5179 -51.0822)" class="st0" width="0.7" height="14.4"/>
		</g>
		<g>
			<line class="st1" x1="123.9" y1="96.7" x2="131" y2="84.3"/>
			
				<rect x="127.1" y="83.4" transform="matrix(0.8673 0.4978 -0.4978 0.8673 61.9871 -51.4263)" class="st0" width="0.7" height="14.3"/>
		</g>
		<g>
			<line class="st1" x1="171.8" y1="56.5" x2="186.2" y2="56.5"/>
			<rect x="171.8" y="56.1" class="st0" width="14.4" height="0.7"/>
		</g>
		<g>
			<line class="st1" x1="171.8" y1="61.3" x2="186.2" y2="61.3"/>
			<rect x="171.8" y="60.9" class="st0" width="14.4" height="0.7"/>
		</g>
	</g>
	<g>
		<g>
			<rect x="30.5" y="22.6" class="st1" width="25.1" height="7"/>
			<path class="st0" d="M56,29.9H30.1v-7.7H56V29.9z M30.9,29.2h24.4v-6.2H30.9V29.2z"/>
		</g>
		<g>
			<rect x="30.5" y="22.6" class="st1" width="25.1" height="7"/>
			<path class="st0" d="M56,29.9H30.1v-7.7H56V29.9z M30.9,29.2h24.4v-6.2H30.9V29.2z"/>
		</g>
		<g>
			<rect x="28.5" y="24.3" class="st1" width="29.1" height="5.3"/>
			<path class="st0" d="M57.9,29.9H28.1v-6h29.8V29.9z M28.9,29.2h28.3v-4.5H28.9V29.2z"/>
		</g>
		<g>
			<path class="st1" d="M24.8,48.6V30.3c0-1,0.9-1.9,1.9-1.9h32.6c1,0,1.9,0.9,1.9,1.9v18.3H24.8z"/>
			<path class="st0" d="M61.6,49H24.5V30.3c0-1.2,1-2.3,2.3-2.3h32.6c1.2,0,2.3,1,2.3,2.3V49z M25.2,48.2h35.7V30.3
				c0-0.8-0.7-1.5-1.5-1.5H26.7c-0.8,0-1.5,0.7-1.5,1.5V48.2z"/>
		</g>
		<g>
			<rect x="24.8" y="35.1" class="st1" width="36.4" height="13.9"/>
			<path class="st0" d="M61.6,49.3H24.5V34.7h37.2V49.3z M25.2,48.5h35.7V35.4H25.2V48.5z"/>
		</g>
		<g>
			<path class="st1" d="M36.9,73.2c1.2,0,2.2-0.9,2.2-2.1c0-1.2-1-2.1-2.2-2.1c-1.2,0-2.2,0.9-2.2,2.1
				C34.7,72.2,35.7,73.2,36.9,73.2z"/>
			<path class="st0" d="M36.9,73.6c-1.4,0-2.6-1.1-2.6-2.5c0-1.4,1.2-2.5,2.6-2.5c1.4,0,2.6,1.1,2.6,2.5
				C39.5,72.5,38.4,73.6,36.9,73.6z M36.9,69.4c-1,0-1.9,0.8-1.9,1.7c0,1,0.8,1.7,1.9,1.7c1,0,1.9-0.8,1.9-1.7
				C38.8,70.1,38,69.4,36.9,69.4z"/>
		</g>
		<g>
			<path class="st1" d="M48.8,73.1c1.2,0,2.2-0.9,2.2-2.1c0-1.2-1-2.1-2.2-2.1c-1.2,0-2.2,0.9-2.2,2.1
				C46.5,72.1,47.5,73.1,48.8,73.1z"/>
			<path class="st0" d="M48.8,73.4c-1.4,0-2.6-1.1-2.6-2.5s1.2-2.5,2.6-2.5c1.4,0,2.6,1.1,2.6,2.5S50.2,73.4,48.8,73.4z M48.8,69.2
				c-1,0-1.9,0.8-1.9,1.7c0,1,0.8,1.7,1.9,1.7c1,0,1.9-0.8,1.9-1.7C50.6,70,49.8,69.2,48.8,69.2z"/>
		</g>
		<g>
			<rect x="30" y="70.2" class="st1" width="2" height="24.6"/>
			<path class="st0" d="M32.3,95.1h-2.7V69.8h2.7V95.1z M30.3,94.4h1.2V70.5h-1.2V94.4z"/>
		</g>
		<g>
			<rect x="54" y="70.7" class="st1" width="2" height="24.6"/>
			<path class="st0" d="M56.4,95.7h-2.7V70.3h2.7V95.7z M54.4,94.9h1.2V71.1h-1.2V94.9z"/>
		</g>
		<g>
			<rect x="23.5" y="67.7" class="st1" width="38.8" height="3.7"/>
			<path class="st0" d="M62.7,71.7H23.1v-4.4h39.5V71.7z M23.9,71h38V68h-38V71z"/>
		</g>
		<g>
			<rect x="70.6" y="54.2" class="st1" width="15.2" height="2.4"/>
			<path class="st0" d="M86.2,57h-16v-3.2h16V57z M71,56.2h14.5v-1.7H71V56.2z"/>
		</g>
		<g>
			<path class="st1" d="M14.6,56.5V50c0-0.7,0.6-1.3,1.3-1.3h54.4c0.7,0,1.3,0.6,1.3,1.3v6.5H14.6z"/>
			<path class="st0" d="M71.9,56.9H14.2V50c0-0.9,0.7-1.6,1.6-1.6h54.4c0.9,0,1.6,0.7,1.6,1.6V56.9z M14.9,56.1h56.2V50
				c0-0.5-0.4-0.9-0.9-0.9H15.8c-0.5,0-0.9,0.4-0.9,0.9V56.1z"/>
		</g>
		<g>
			<path class="st1" d="M30.5,52.9c3.8-0.1,6.5,0.6,8.1,2.7"/>
			<path class="st0" d="M38.3,55.8c-1.4-1.9-3.8-2.6-7.8-2.6l0-0.7c4.3-0.1,6.8,0.8,8.4,2.9L38.3,55.8z"/>
		</g>
		<g>
			<path class="st1" d="M0.4,55.3h24.8c0.8-1.4,3.4-2.4,5.4-2.4c1.9,0,4,1,5.2,2.4h50.2v2.9H0.4V55.3z"/>
			<path class="st0" d="M86.2,58.6H0v-3.6h24.9c1-1.5,3.6-2.4,5.6-2.4c2,0,4.1,1,5.4,2.4h50.4V58.6z M0.7,57.8h84.7v-2.1h-50
				l-0.1-0.1c-1.1-1.4-3.1-2.3-4.9-2.3c-1.8,0-4.3,0.9-5,2.2l-0.1,0.2H0.7V57.8z"/>
		</g>
		<g>
			<path class="st1" d="M30,61c2.2,0,4-1.3,4-2.8c0-1.6-1.8-2.8-4-2.8s-4,1.3-4,2.8C26,59.7,27.8,61,30,61z"/>
			<path class="st0" d="M30,61.3c-2.4,0-4.4-1.4-4.4-3.2c0-1.8,2-3.2,4.4-3.2s4.4,1.4,4.4,3.2C34.4,59.9,32.4,61.3,30,61.3z
				 M30,55.7c-2,0-3.6,1.1-3.6,2.5c0,1.3,1.7,2.5,3.6,2.5s3.6-1.1,3.6-2.5C33.7,56.8,32,55.7,30,55.7z"/>
		</g>
		<g>
			<rect x="23.5" y="58.3" class="st1" width="38.8" height="9.8"/>
			<path class="st0" d="M62.7,68.4H23.1V57.9h39.5V68.4z M23.9,67.7h38v-9.1h-38V67.7z"/>
		</g>
	</g>
</g>
</svg>
