<?xml version="1.0" encoding="utf-8"?>
<!-- Generator: Adobe Illustrator 16.0.4, SVG Export Plug-In . SVG Version: 6.00 Build 0)  -->
<!DOCTYPE svg PUBLIC "-//W3C//DTD SVG 1.1//EN" "http://www.w3.org/Graphics/SVG/1.1/DTD/svg11.dtd">
<svg version="1.1" id="_x39_006" xmlns="http://www.w3.org/2000/svg" xmlns:xlink="http://www.w3.org/1999/xlink" x="0px" y="0px"
	 width="187px" height="117.8px" viewBox="0 0 187 117.8" style="enable-background:new 0 0 187 117.8;" xml:space="preserve">
<style type="text/css">
<![CDATA[
	.st0{fill:#999999;}
	.st1{fill-rule:evenodd;clip-rule:evenodd;fill:#e5e5e5;}
]]>
</style>
<g>
	<g>
		<g>
			<rect x="15.1" y="37" class="st1" width="36.9" height="6.4"/>
			<path class="st0" d="M52.3,43.9H14.7v-7.2h37.6V43.9z M15.5,43.1h36.1v-5.7H15.5V43.1z"/>
		</g>
		<g>
			<rect x="0.4" y="45.2" class="st1" width="8.1" height="3.4"/>
			<path class="st0" d="M8.8,49H0v-4.2h8.8V49z M0.7,48.2h7.4v-2.7H0.7V48.2z"/>
		</g>
		<g>
			<polygon class="st1" points="68.8,87.1 70.1,83 79,83 73.1,87.1 			"/>
			<path class="st0" d="M73.2,87.5h-4.9l1.5-4.9H79l0.2,0.7L73.2,87.5z M69.4,86.8H73l4.8-3.4h-7.4L69.4,86.8z"/>
		</g>
		<g>
			<path class="st1" d="M17.4,48.3h32.2v11.5c1.3-0.4,2.9-0.7,4.4-0.7l14.1,0L68,81.6l-19.4,0L40.1,75H24.8l-7.4-6.9V48.3z"/>
			<path class="st0" d="M68.3,82l-19.9,0L40,75.4H24.6l-7.6-7.1V47.9H50v11.4c1.5-0.4,2.8-0.6,4-0.6l14.5,0L68.3,82z M48.7,81.2
				l18.9,0l0.1-21.8l-13.7,0c-1.2,0-2.7,0.2-4.3,0.7l-0.5,0.1V48.7H17.8V68l7.1,6.7h15.3L48.7,81.2z"/>
		</g>
		<g>
			<path class="st1" d="M17.2,30.7h32.7c1.1,0,2.1,0.9,2.1,2.1v2H15.1v-2C15.1,31.6,16,30.7,17.2,30.7z"/>
			<path class="st0" d="M52.3,35.1H14.7v-2.3c0-1.4,1.1-2.5,2.5-2.5h32.7c1.4,0,2.5,1.1,2.5,2.5V35.1z M15.5,34.4h36.1v-1.6
				c0-0.9-0.8-1.7-1.7-1.7H17.2c-0.9,0-1.7,0.8-1.7,1.7V34.4z"/>
		</g>
		<g>
			<rect x="5.7" y="43.3" class="st1" width="55.8" height="5.3"/>
			<path class="st0" d="M61.9,49H5.3v-6.1h56.6V49z M6.1,48.2h55.1v-4.6H6.1V48.2z"/>
		</g>
		<g>
			<rect x="34.5" y="45.2" class="st1" width="7.2" height="3.4"/>
			<path class="st0" d="M42.1,49h-8v-4.2h8V49z M34.9,48.2h6.5v-2.7h-6.5V48.2z"/>
		</g>
		<g>
			<rect x="37.7" y="45.2" class="st1" width="17.5" height="3.4"/>
			<path class="st0" d="M55.5,49H37.3v-4.2h18.2V49z M38,48.2h16.7v-2.7H38V48.2z"/>
		</g>
		<g>
			<path class="st1" d="M69.2,56.3h15.3c0.7,0,1.3,0.6,1.3,1.3v25.4c0,0.7-0.6,1.3-1.3,1.3H69.2c-0.7,0-1.3-0.6-1.3-1.3V57.6
				C67.9,56.9,68.5,56.3,69.2,56.3z"/>
			<path class="st0" d="M84.6,84.6H69.2c-0.9,0-1.7-0.7-1.7-1.7V57.6c0-0.9,0.7-1.7,1.7-1.7h15.3c0.9,0,1.7,0.7,1.7,1.7v25.4
				C86.2,83.8,85.5,84.6,84.6,84.6z M69.2,56.7c-0.5,0-0.9,0.4-0.9,0.9v25.4c0,0.5,0.4,0.9,0.9,0.9h15.3c0.5,0,0.9-0.4,0.9-0.9V57.6
				c0-0.5-0.4-0.9-0.9-0.9H69.2z"/>
		</g>
		<g>
			<path class="st1" d="M15.1,33.9H52c1.1,0,2,0.9,2,2v0c0,1.1-0.9,2-2,2H15.1c-1.1,0-2-0.9-2-2v0C13.1,34.8,14,33.9,15.1,33.9z"/>
			<path class="st0" d="M52,38.3H15.1c-1.3,0-2.4-1.1-2.4-2.4c0-1.3,1.1-2.4,2.4-2.4H52c1.3,0,2.4,1.1,2.4,2.4
				C54.4,37.2,53.3,38.3,52,38.3z M15.1,34.3c-0.9,0-1.7,0.7-1.7,1.7c0,0.9,0.7,1.7,1.7,1.7H52c0.9,0,1.7-0.7,1.7-1.7
				s-0.7-1.7-1.7-1.7H15.1z"/>
		</g>
		<g>
			<path class="st1" d="M49.6,59.8c-5.1,1.1-9.5,3.1-13.3,6"/>
			<path class="st0" d="M36.5,66.1l-0.5-0.6c3.8-2.9,8.3-4.9,13.4-6l0.2,0.7C44.7,61.2,40.3,63.2,36.5,66.1z"/>
		</g>
		<g>
			<rect x="3.1" y="45.2" class="st1" width="7.5" height="3.4"/>
			<path class="st0" d="M11,49H2.8v-4.2H11V49z M3.5,48.2h6.7v-2.7H3.5V48.2z"/>
		</g>
	</g>
	<g>
		<g>
			<rect x="154.6" y="38.9" class="st1" width="16.9" height="40.3"/>
			<path class="st0" d="M171.9,79.6h-17.7v-41h17.7V79.6z M155,78.9h16.2V39.3H155V78.9z"/>
		</g>
		<g>
			<path class="st1" d="M101,54.9L110,55l24.5-22.3l3.5-6.8c7.1,0.9,13,3.7,17.9,8l0.3,49.5c-4,4.1-9.6,7-17.6,8.5l-5-7.8
				l-23.6-14.8l-7.1,0.3C101.6,69.7,100.2,54.5,101,54.9z"/>
			<path class="st0" d="M138.5,92.3l-5.1-7.9L110,69.7l-7,0.3c-0.4,0-1.1,0-1.9-5.7c-0.4-2.8-0.7-6.2-0.7-8.1c0-1,0-1.7,0.6-1.7
				l0.1,0l8.8,0.1l24.4-22.1l3.6-7l0.3,0c7,0.9,13,3.6,18.1,8.1l0.1,0.1l0.3,49.8l-0.1,0.1c-4.3,4.4-10.1,7.2-17.8,8.6L138.5,92.3z
				 M110.2,68.9l23.8,15l4.9,7.6c7.4-1.4,12.9-4.1,17-8.3l-0.3-49.1c-4.9-4.3-10.7-6.9-17.3-7.8l-3.5,6.7l-24.6,22.4l-9-0.1
				c-0.3,1.8,0.9,13.3,1.9,14L110.2,68.9z"/>
		</g>
		<g>
			<path class="st1" d="M134.2,86.5c15.2,0,27.6-12.4,27.6-27.6c0-15.2-12.4-27.6-27.6-27.6c-15.2,0-27.6,12.4-27.6,27.6
				C106.6,74.1,119,86.5,134.2,86.5z"/>
			<path class="st0" d="M134.2,86.8c-15.4,0-28-12.6-28-28c0-15.4,12.6-28,28-28c15.4,0,28,12.6,28,28
				C162.2,74.3,149.6,86.8,134.2,86.8z M134.2,31.6c-15,0-27.2,12.2-27.2,27.2c0,15,12.2,27.2,27.2,27.2c15,0,27.2-12.2,27.2-27.2
				C161.5,43.9,149.2,31.6,134.2,31.6z"/>
		</g>
		<g>
			<path class="st1" d="M134.2,77.4c10.2,0,18.5-8.3,18.5-18.5c0-10.2-8.3-18.5-18.5-18.5c-10.2,0-18.5,8.3-18.5,18.5
				C115.7,69.1,124,77.4,134.2,77.4z"/>
			<path class="st0" d="M134.2,77.8c-10.4,0-18.9-8.5-18.9-18.9S123.8,40,134.2,40c10.4,0,18.9,8.5,18.9,18.9S144.7,77.8,134.2,77.8
				z M134.2,40.7c-10,0-18.2,8.2-18.2,18.2c0,10,8.2,18.2,18.2,18.2c10,0,18.2-8.2,18.2-18.2C152.4,48.8,144.2,40.7,134.2,40.7z"/>
		</g>
		<g>
			<path class="st1" d="M134.2,76c9.5,0,17.2-7.7,17.2-17.2c0-9.5-7.7-17.2-17.2-17.2c-9.5,0-17.2,7.7-17.2,17.2
				C117.1,68.3,124.8,76,134.2,76z"/>
			<path class="st0" d="M134.2,76.4c-9.7,0-17.5-7.9-17.5-17.5c0-9.7,7.9-17.5,17.5-17.5c9.7,0,17.5,7.9,17.5,17.5
				C151.8,68.5,143.9,76.4,134.2,76.4z M134.2,42.1c-9.3,0-16.8,7.5-16.8,16.8c0,9.3,7.5,16.8,16.8,16.8c9.3,0,16.8-7.5,16.8-16.8
				C151,49.6,143.5,42.1,134.2,42.1z"/>
		</g>
		<g>
			<path class="st1" d="M134.2,73.6c8.1,0,14.7-6.6,14.7-14.7c0-8.1-6.6-14.7-14.7-14.7c-8.1,0-14.7,6.6-14.7,14.7
				C119.5,67,126.1,73.6,134.2,73.6z"/>
			<path class="st0" d="M134.2,74c-8.3,0-15.1-6.8-15.1-15.1c0-8.3,6.8-15.1,15.1-15.1c8.3,0,15.1,6.8,15.1,15.1
				C149.3,67.2,142.5,74,134.2,74z M134.2,44.5c-7.9,0-14.3,6.4-14.3,14.3s6.4,14.3,14.3,14.3c7.9,0,14.3-6.4,14.3-14.3
				S142.1,44.5,134.2,44.5z"/>
		</g>
		<g>
			<path class="st1" d="M134.2,69.7c6,0,10.9-4.9,10.9-10.9c0-6-4.9-10.9-10.9-10.9c-6,0-10.9,4.9-10.9,10.9
				C123.3,64.9,128.2,69.7,134.2,69.7z"/>
			<path class="st0" d="M134.2,70.1c-6.2,0-11.2-5-11.2-11.2c0-6.2,5-11.2,11.2-11.2s11.2,5,11.2,11.2
				C145.5,65.1,140.4,70.1,134.2,70.1z M134.2,48.4c-5.8,0-10.5,4.7-10.5,10.5s4.7,10.5,10.5,10.5c5.8,0,10.5-4.7,10.5-10.5
				S140,48.4,134.2,48.4z"/>
		</g>
		<g>
			<path class="st1" d="M134.2,60.6c0.9,0,1.7-0.8,1.7-1.7c0-0.9-0.8-1.7-1.7-1.7c-0.9,0-1.7,0.8-1.7,1.7
				C132.5,59.8,133.3,60.6,134.2,60.6z"/>
			<path class="st0" d="M134.2,60.9c-1.1,0-2.1-0.9-2.1-2.1c0-1.1,0.9-2.1,2.1-2.1c1.1,0,2.1,0.9,2.1,2.1
				C136.3,60,135.4,60.9,134.2,60.9z M134.2,57.5c-0.7,0-1.3,0.6-1.3,1.3c0,0.7,0.6,1.3,1.3,1.3c0.7,0,1.3-0.6,1.3-1.3
				C135.6,58.1,135,57.5,134.2,57.5z"/>
		</g>
		<g>
			<line class="st1" x1="107" y1="54.2" x2="116.3" y2="54.3"/>
			
				<rect x="107" y="53.9" transform="matrix(0.9999 1.147776e-02 -1.147776e-02 0.9999 0.6298 -1.2782)" class="st0" width="9.3" height="0.7"/>
		</g>
		<g>
			<line class="st1" x1="106.9" y1="63.1" x2="116.2" y2="63.3"/>
			
				<rect x="106.9" y="62.9" transform="matrix(0.9998 1.969076e-02 -1.969076e-02 0.9998 1.2666 -2.1847)" class="st0" width="9.3" height="0.7"/>
		</g>
		<g>
			<line class="st1" x1="139.3" y1="41" x2="144" y2="33.1"/>
			
				<rect x="141.3" y="32.5" transform="matrix(0.8581 0.5135 -0.5135 0.8581 39.1333 -67.5)" class="st0" width="0.7" height="9.1"/>
		</g>
		<g>
			<line class="st1" x1="147.5" y1="46.1" x2="152.1" y2="37.9"/>
			
				<rect x="149.5" y="37.3" transform="matrix(0.8719 0.4896 -0.4896 0.8719 39.7497 -67.9881)" class="st0" width="0.7" height="9.4"/>
		</g>
		<g>
			<line class="st1" x1="139.4" y1="76.8" x2="144.2" y2="84.6"/>
			
				<rect x="137.2" y="80.3" transform="matrix(0.5229 0.8524 -0.8524 0.5229 136.4067 -82.356)" class="st0" width="9.2" height="0.7"/>
		</g>
		<g>
			<line class="st1" x1="147.7" y1="71.7" x2="152.3" y2="79.9"/>
			
				<rect x="145.2" y="75.4" transform="matrix(0.4905 0.8714 -0.8714 0.4905 142.4444 -92.0806)" class="st0" width="9.4" height="0.7"/>
		</g>
		<g>
			<path class="st1" d="M170.3,36.4h15.9v45.7h-15.9c-0.8,0-1.5-0.7-1.5-1.5V37.9C168.8,37.1,169.4,36.4,170.3,36.4z"/>
			<path class="st0" d="M186.6,82.5h-16.3c-1.1,0-1.9-0.9-1.9-1.9V37.9c0-1.1,0.9-1.9,1.9-1.9h16.3V82.5z M170.3,36.8
				c-0.6,0-1.2,0.5-1.2,1.2v42.7c0,0.6,0.5,1.2,1.2,1.2h15.6v-45H170.3z"/>
		</g>
	</g>
</g>
</svg>
