<?xml version="1.0" encoding="utf-8"?>
<!-- Generator: Adobe Illustrator 16.0.4, SVG Export Plug-In . SVG Version: 6.00 Build 0)  -->
<!DOCTYPE svg PUBLIC "-//W3C//DTD SVG 1.1//EN" "http://www.w3.org/Graphics/SVG/1.1/DTD/svg11.dtd">
<svg version="1.1" id="_x39_012" xmlns="http://www.w3.org/2000/svg" xmlns:xlink="http://www.w3.org/1999/xlink" x="0px" y="0px"
	 width="187px" height="117.8px" viewBox="0 0 187 117.8" style="enable-background:new 0 0 187 117.8;" xml:space="preserve">
<style type="text/css">
<![CDATA[
	.st0{fill:#999999;}
	.st1{fill-rule:evenodd;clip-rule:evenodd;fill:#e5e5e5;}
]]>
</style>
<g>
	<g>
		<g>
			<rect x="152" y="38.7" class="st1" width="19.5" height="40.3"/>
			<path class="st0" d="M171.9,79.4h-20.3v-41h20.3V79.4z M152.4,78.7h18.8V39.1h-18.8V78.7z"/>
		</g>
		<g>
			<path class="st1" d="M101,62.7l9.1-0.1l24.5,22.3l3.5,6.8c7.1-0.9,13-3.7,17.9-8l0.2-31.6l-5.2-7.1l0.1-13.1
				c-5.3-3.5-9.6-5.3-18.5-5.9l-5,7.2l-17.5,14.9L103,48C101.6,47.9,100.2,63.1,101,62.7z"/>
			<path class="st0" d="M137.8,92.1l-3.6-7L109.9,63l-8.9,0.1c-0.5,0-0.6-0.7-0.6-1.7c0-1.9,0.3-5.3,0.7-8.1
				c0.8-5.7,1.5-5.7,1.9-5.7l7,0.3l17.3-14.8l5.1-7.4l0.2,0c9.1,0.6,13.4,2.5,18.6,5.9l0.2,0.1L151.4,45l5.2,7.1l-0.2,31.9l-0.1,0.1
				c-5.1,4.5-11.2,7.2-18.1,8.1L137.8,92.1z M110.2,62.2l0.1,0.1l24.6,22.4l3.4,6.6c6.6-0.9,12.5-3.5,17.3-7.8l0.2-31.3l-5.2-7.1
				l0.1-13c-5-3.3-9.2-5.1-17.9-5.7l-5,7.1l-17.6,15l-7.3-0.3c-0.9,0.7-2.1,12.2-1.8,14L110.2,62.2z"/>
		</g>
		<g>
			<path class="st1" d="M134.2,86.4c15.2,0,27.6-12.4,27.6-27.6c0-15.2-12.4-27.6-27.6-27.6c-15.2,0-27.6,12.4-27.6,27.6
				C106.6,74,119,86.4,134.2,86.4z"/>
			<path class="st0" d="M134.2,86.8c-15.4,0-28-12.6-28-28c0-15.4,12.6-28,28-28c15.4,0,28,12.6,28,28
				C162.2,74.2,149.6,86.8,134.2,86.8z M134.2,31.5c-15,0-27.2,12.2-27.2,27.2c0,15,12.2,27.2,27.2,27.2c15,0,27.2-12.2,27.2-27.2
				C161.5,43.8,149.2,31.5,134.2,31.5z"/>
		</g>
		<g>
			<path class="st1" d="M134.2,77.3c10.2,0,18.5-8.3,18.5-18.5s-8.3-18.5-18.5-18.5c-10.2,0-18.5,8.3-18.5,18.5S124,77.3,134.2,77.3
				z"/>
			<path class="st0" d="M134.2,77.7c-10.4,0-18.9-8.5-18.9-18.9c0-10.4,8.5-18.9,18.9-18.9c10.4,0,18.9,8.5,18.9,18.9
				C153.1,69.2,144.7,77.7,134.2,77.7z M134.2,40.6c-10,0-18.2,8.2-18.2,18.2c0,10,8.2,18.2,18.2,18.2c10,0,18.2-8.2,18.2-18.2
				C152.4,48.8,144.2,40.6,134.2,40.6z"/>
		</g>
		<g>
			<path class="st1" d="M134.2,75.9c9.5,0,17.2-7.7,17.2-17.2c0-9.5-7.7-17.2-17.2-17.2c-9.5,0-17.2,7.7-17.2,17.2
				C117.1,68.2,124.8,75.9,134.2,75.9z"/>
			<path class="st0" d="M134.2,76.3c-9.7,0-17.5-7.9-17.5-17.5c0-9.7,7.9-17.5,17.5-17.5c9.7,0,17.5,7.9,17.5,17.5
				C151.8,68.4,143.9,76.3,134.2,76.3z M134.2,42c-9.3,0-16.8,7.5-16.8,16.8c0,9.3,7.5,16.8,16.8,16.8c9.3,0,16.8-7.5,16.8-16.8
				C151,49.5,143.5,42,134.2,42z"/>
		</g>
		<g>
			<path class="st1" d="M134.2,73.5c8.1,0,14.7-6.6,14.7-14.7c0-8.1-6.6-14.7-14.7-14.7c-8.1,0-14.7,6.6-14.7,14.7
				C119.5,66.9,126.1,73.5,134.2,73.5z"/>
			<path class="st0" d="M134.2,73.9c-8.3,0-15.1-6.8-15.1-15.1s6.8-15.1,15.1-15.1c8.3,0,15.1,6.8,15.1,15.1S142.5,73.9,134.2,73.9z
				 M134.2,44.4c-7.9,0-14.3,6.4-14.3,14.3c0,7.9,6.4,14.3,14.3,14.3c7.9,0,14.3-6.4,14.3-14.3C148.6,50.9,142.1,44.4,134.2,44.4z"
				/>
		</g>
		<g>
			<path class="st1" d="M134.2,69.6c6,0,10.9-4.9,10.9-10.9c0-6-4.9-10.9-10.9-10.9c-6,0-10.9,4.9-10.9,10.9
				C123.3,64.8,128.2,69.6,134.2,69.6z"/>
			<path class="st0" d="M134.2,70C128,70,123,65,123,58.8c0-6.2,5-11.2,11.2-11.2s11.2,5,11.2,11.2C145.5,65,140.4,70,134.2,70z
				 M134.2,48.3c-5.8,0-10.5,4.7-10.5,10.5c0,5.8,4.7,10.5,10.5,10.5c5.8,0,10.5-4.7,10.5-10.5C144.7,53,140,48.3,134.2,48.3z"/>
		</g>
		<g>
			<path class="st1" d="M134.2,60.5c0.9,0,1.7-0.8,1.7-1.7c0-0.9-0.8-1.7-1.7-1.7c-0.9,0-1.7,0.8-1.7,1.7
				C132.5,59.7,133.3,60.5,134.2,60.5z"/>
			<path class="st0" d="M134.2,60.9c-1.1,0-2.1-0.9-2.1-2.1s0.9-2.1,2.1-2.1c1.1,0,2.1,0.9,2.1,2.1S135.4,60.9,134.2,60.9z
				 M134.2,57.4c-0.7,0-1.3,0.6-1.3,1.3c0,0.7,0.6,1.3,1.3,1.3c0.7,0,1.3-0.6,1.3-1.3C135.6,58,135,57.4,134.2,57.4z"/>
		</g>
		<g>
			<line class="st1" x1="107" y1="63.5" x2="116.3" y2="63.4"/>
			
				<rect x="111.3" y="58.8" transform="matrix(1.177923e-02 0.9999 -0.9999 1.177923e-02 173.77 -49.0058)" class="st0" width="0.7" height="9.3"/>
		</g>
		<g>
			<line class="st1" x1="106.9" y1="54.5" x2="116.2" y2="54.3"/>
			
				<rect x="111.2" y="49.8" transform="matrix(1.897562e-02 0.9998 -0.9998 1.897562e-02 163.8621 -58.1656)" class="st0" width="0.7" height="9.3"/>
		</g>
		<g>
			<line class="st1" x1="139.3" y1="76.7" x2="144" y2="84.5"/>
			
				<rect x="137.1" y="80.2" transform="matrix(0.5136 0.858 -0.858 0.5136 138.0673 -82.3644)" class="st0" width="9.1" height="0.7"/>
		</g>
		<g>
			<line class="st1" x1="147.5" y1="71.6" x2="152.1" y2="79.7"/>
			
				<rect x="145.1" y="75.3" transform="matrix(0.4888 0.8724 -0.8724 0.4888 142.5904 -92.0422)" class="st0" width="9.4" height="0.7"/>
		</g>
		<g>
			<line class="st1" x1="139.4" y1="40.9" x2="144.2" y2="33"/>
			
				<rect x="141.4" y="32.4" transform="matrix(0.8526 0.5226 -0.5226 0.8526 40.2134 -68.638)" class="st0" width="0.7" height="9.2"/>
		</g>
		<g>
			<line class="st1" x1="147.7" y1="46" x2="152.3" y2="37.8"/>
			
				<rect x="149.6" y="37.1" transform="matrix(0.8722 0.4892 -0.4892 0.8722 39.652 -68.0133)" class="st0" width="0.7" height="9.4"/>
		</g>
		<g>
			<path class="st1" d="M170.3,36.2h15.9v45.7h-15.9c-0.8,0-1.5-0.7-1.5-1.5V37.7C168.8,36.9,169.4,36.2,170.3,36.2z"/>
			<path class="st0" d="M186.6,82.3h-16.3c-1.1,0-1.9-0.9-1.9-1.9V37.7c0-1.1,0.9-1.9,1.9-1.9h16.3V82.3z M170.3,36.6
				c-0.6,0-1.2,0.5-1.2,1.2v42.7c0,0.6,0.5,1.2,1.2,1.2h15.6v-45H170.3z"/>
		</g>
	</g>
	<g>
		<g>
			<rect x="15.1" y="37" class="st1" width="36.9" height="6.4"/>
			<path class="st0" d="M52.3,43.9H14.7v-7.2h37.6V43.9z M15.5,43.1h36.1v-5.7H15.5V43.1z"/>
		</g>
		<g>
			<rect x="0.4" y="45.2" class="st1" width="8.1" height="3.4"/>
			<path class="st0" d="M8.8,49H0v-4.2h8.8V49z M0.7,48.2h7.4v-2.7H0.7V48.2z"/>
		</g>
		<g>
			<polygon class="st1" points="68.9,87.1 70.1,83 79,83 73.1,87.1 			"/>
			<path class="st0" d="M73.2,87.5h-4.9l1.5-4.9H79l0.2,0.7L73.2,87.5z M69.4,86.8H73l4.8-3.4h-7.4L69.4,86.8z"/>
		</g>
		<g>
			<path class="st1" d="M17.4,48.3h32.2v11.5c1.3-0.4,2.9-0.7,4.4-0.7l14.1,0L68,81.6l-19.4,0L40.1,75H24.8l-7.4-6.9V48.3z"/>
			<path class="st0" d="M68.3,81.9l-19.9,0L40,75.4H24.6l-7.6-7.1V47.9H50v11.4c1.5-0.4,2.8-0.6,4-0.6l14.5,0L68.3,81.9z M48.7,81.2
				l18.9,0l0.1-21.8l-13.7,0c-1.2,0-2.7,0.2-4.3,0.7l-0.5,0.1V48.7H17.8V68l7.1,6.7h15.3L48.7,81.2z"/>
		</g>
		<g>
			<path class="st1" d="M17.2,30.7h32.7c1.1,0,2.1,0.9,2.1,2.1v2H15.1v-2C15.1,31.6,16,30.7,17.2,30.7z"/>
			<path class="st0" d="M52.3,35.1H14.7v-2.3c0-1.4,1.1-2.5,2.5-2.5h32.7c1.4,0,2.5,1.1,2.5,2.5V35.1z M15.5,34.4h36.1v-1.6
				c0-0.9-0.8-1.7-1.7-1.7H17.2c-0.9,0-1.7,0.8-1.7,1.7V34.4z"/>
		</g>
		<g>
			<rect x="5.7" y="43.3" class="st1" width="55.8" height="5.3"/>
			<path class="st0" d="M61.9,49H5.3v-6.1h56.6V49z M6.1,48.2h55.1v-4.6H6.1V48.2z"/>
		</g>
		<g>
			<rect x="34.5" y="45.2" class="st1" width="7.2" height="3.4"/>
			<path class="st0" d="M42.1,49h-8v-4.2h8V49z M34.9,48.2h6.5v-2.7h-6.5V48.2z"/>
		</g>
		<g>
			<rect x="37.7" y="45.2" class="st1" width="17.5" height="3.4"/>
			<path class="st0" d="M55.5,49H37.3v-4.2h18.2V49z M38,48.2h16.7v-2.7H38V48.2z"/>
		</g>
		<g>
			<path class="st1" d="M69.2,56.3h15.3c0.7,0,1.3,0.6,1.3,1.3v25.4c0,0.7-0.6,1.3-1.3,1.3H69.2c-0.7,0-1.3-0.6-1.3-1.3V57.6
				C67.9,56.9,68.5,56.3,69.2,56.3z"/>
			<path class="st0" d="M84.6,84.6H69.2c-0.9,0-1.7-0.7-1.7-1.7V57.6c0-0.9,0.7-1.7,1.7-1.7h15.3c0.9,0,1.7,0.7,1.7,1.7v25.4
				C86.2,83.8,85.5,84.6,84.6,84.6z M69.2,56.7c-0.5,0-0.9,0.4-0.9,0.9v25.4c0,0.5,0.4,0.9,0.9,0.9h15.3c0.5,0,0.9-0.4,0.9-0.9V57.6
				c0-0.5-0.4-0.9-0.9-0.9H69.2z"/>
		</g>
		<g>
			<path class="st1" d="M15.1,33.9H52c1.1,0,2,0.9,2,2l0,0c0,1.1-0.9,2-2,2H15.1c-1.1,0-2-0.9-2-2l0,0C13.1,34.8,14,33.9,15.1,33.9z
				"/>
			<path class="st0" d="M52,38.3H15.1c-1.3,0-2.4-1.1-2.4-2.4c0-1.3,1.1-2.4,2.4-2.4H52c1.3,0,2.4,1.1,2.4,2.4
				C54.4,37.2,53.3,38.3,52,38.3z M15.1,34.3c-0.9,0-1.7,0.7-1.7,1.7c0,0.9,0.7,1.7,1.7,1.7H52c0.9,0,1.7-0.7,1.7-1.7
				c0-0.9-0.7-1.7-1.7-1.7H15.1z"/>
		</g>
		<g>
			<path class="st1" d="M49.6,59.8c-5.1,1.1-9.5,3.1-13.3,6"/>
			<path class="st0" d="M36.5,66.1l-0.5-0.6c3.8-2.9,8.3-4.9,13.4-6l0.2,0.7C44.7,61.2,40.3,63.2,36.5,66.1z"/>
		</g>
		<g>
			<rect x="3.1" y="45.2" class="st1" width="7.5" height="3.4"/>
			<path class="st0" d="M11,49H2.8v-4.2H11V49z M3.5,48.2h6.7v-2.7H3.5V48.2z"/>
		</g>
	</g>
</g>
</svg>
