<?xml version="1.0" encoding="utf-8"?>
<!-- Generator: Adobe Illustrator 16.0.4, SVG Export Plug-In . SVG Version: 6.00 Build 0)  -->
<!DOCTYPE svg PUBLIC "-//W3C//DTD SVG 1.1//EN" "http://www.w3.org/Graphics/SVG/1.1/DTD/svg11.dtd">
<svg version="1.1" id="H4" xmlns="http://www.w3.org/2000/svg" xmlns:xlink="http://www.w3.org/1999/xlink" x="0px" y="0px"
	 width="187px" height="117.8px" viewBox="0 0 187 117.8" style="enable-background:new 0 0 187 117.8;" xml:space="preserve">
<style type="text/css">
<![CDATA[
	.st0{fill:#999999;}
	.st1{fill-rule:evenodd;clip-rule:evenodd;fill:#e5e5e5;}
]]>
</style>
<g>
	<g>
		<g>
			<path class="st1" d="M51,71.1c1.6,0,2.9-1.3,2.9-2.9c0-1.6-1.3-2.9-2.9-2.9c-1.6,0-2.9,1.3-2.9,2.9C48.1,69.8,49.4,71.1,51,71.1z
				"/>
			<path class="st0" d="M51,71.5c-1.8,0-3.3-1.5-3.3-3.3c0-1.8,1.5-3.3,3.3-3.3s3.3,1.5,3.3,3.3C54.3,70,52.8,71.5,51,71.5z
				 M51,65.7c-1.4,0-2.5,1.1-2.5,2.5c0,1.4,1.1,2.5,2.5,2.5s2.5-1.1,2.5-2.5C53.5,66.8,52.4,65.7,51,65.7z"/>
		</g>
		<g>
			<rect x="70.7" y="43.6" class="st1" width="15.1" height="5.1"/>
			<path class="st0" d="M86.2,49.1H70.3v-5.9h15.9V49.1z M71.1,48.3h14.4V44H71.1V48.3z"/>
		</g>
		<g>
			<rect x="15.8" y="20.5" class="st1" width="47.7" height="13.4"/>
			<path class="st0" d="M63.9,34.3H15.4V20.2h48.4V34.3z M16.2,33.6h46.9V20.9H16.2V33.6z"/>
		</g>
		<g>
			<rect x="13.2" y="33" class="st1" width="52.8" height="4.6"/>
			<path class="st0" d="M66.4,38H12.9v-5.3h53.6V38z M13.6,37.3h52.1v-3.9H13.6V37.3z"/>
		</g>
		<g>
			<rect x="79" y="46.3" class="st1" width="6.8" height="2.4"/>
			<path class="st0" d="M86.2,49.1h-7.6V46h7.6V49.1z M79.4,48.3h6.1v-1.6h-6.1V48.3z"/>
		</g>
		<g>
			<rect x="4.6" y="44.5" class="st1" width="14.6" height="4"/>
			<path class="st0" d="M19.6,48.8H4.2v-4.7h15.4V48.8z M5,48.1h13.9v-3.2H5V48.1z"/>
		</g>
		<g>
			<rect x="4.6" y="42" class="st1" width="4.9" height="6.5"/>
			<path class="st0" d="M9.9,48.8H4.2v-7.2h5.7V48.8z M5,48.1h4.2v-5.7H5V48.1z"/>
		</g>
		<g>
			<path class="st1" d="M10.1,36.3h59.2c1,0,1.9,0.9,1.9,1.9v9.3h-63v-9.3C8.2,37.2,9,36.3,10.1,36.3z"/>
			<path class="st0" d="M71.5,47.9H7.8v-9.7c0-1.3,1-2.3,2.3-2.3h59.2c1.3,0,2.3,1,2.3,2.3V47.9z M8.6,47.2h62.2v-8.9
				c0-0.8-0.7-1.5-1.5-1.5H10.1c-0.8,0-1.5,0.7-1.5,1.5V47.2z"/>
		</g>
		<g>
			<rect x="32.7" y="66.4" class="st1" width="14" height="28.7"/>
			<path class="st0" d="M47,95.4H32.3V66H47V95.4z M33,94.7h13.2v-28H33V94.7z"/>
		</g>
		<g>
			<path class="st1" d="M32.7,93.9h14V95c0,1.2-1,2.2-2.2,2.2h-9.5c-1.2,0-2.2-1-2.2-2.2V93.9z"/>
			<path class="st0" d="M44.4,97.5h-9.5c-1.4,0-2.6-1.2-2.6-2.6v-1.5H47V95C47,96.4,45.8,97.5,44.4,97.5z M33,94.3V95
				c0,1,0.8,1.8,1.8,1.8h9.5c1,0,1.8-0.8,1.8-1.8v-0.7H33z"/>
		</g>
		<g>
			<rect x="54.8" y="66.6" class="st1" width="1.8" height="30.7"/>
			<path class="st0" d="M57,97.7h-2.6V66.2H57V97.7z M55.2,96.9h1.1V67h-1.1V96.9z"/>
		</g>
		<g>
			<path class="st1" d="M39.7,90.6c1.6,0,2.9-1.3,2.9-2.9c0-1.6-1.3-2.9-2.9-2.9c-1.6,0-2.9,1.3-2.9,2.9
				C36.8,89.3,38.1,90.6,39.7,90.6z"/>
			<path class="st0" d="M39.7,91c-1.8,0-3.3-1.5-3.3-3.3c0-1.8,1.5-3.3,3.3-3.3c1.8,0,3.3,1.5,3.3,3.3C42.9,89.5,41.5,91,39.7,91z
				 M39.7,85.2c-1.4,0-2.5,1.1-2.5,2.5c0,1.4,1.1,2.5,2.5,2.5c1.4,0,2.5-1.1,2.5-2.5C42.2,86.3,41,85.2,39.7,85.2z"/>
		</g>
		<g>
			<rect x="0.4" y="46.3" class="st1" width="85.5" height="2.4"/>
			<path class="st0" d="M86.2,49.1H0V46h86.2V49.1z M0.7,48.3h84.7v-1.6H0.7V48.3z"/>
		</g>
		<g>
			<rect x="0.4" y="46.3" class="st1" width="2.9" height="2.4"/>
			<path class="st0" d="M3.6,49.1H0V46h3.6V49.1z M0.7,48.3h2.2v-1.6H0.7V48.3z"/>
		</g>
		<g>
			<path class="st1" d="M8.8,46.6c2.3,0,4.2,0.9,4.2,2.1H4.6C4.6,47.5,6.5,46.6,8.8,46.6z"/>
			<path class="st0" d="M13.4,49.1H4.2v-0.4c0-1.4,2-2.5,4.6-2.5s4.6,1.1,4.6,2.5V49.1z M5.1,48.3h7.5c-0.4-0.7-1.8-1.3-3.7-1.3
				S5.5,47.6,5.1,48.3z"/>
		</g>
		<g>
			<rect x="18.6" y="53.7" class="st1" width="42.1" height="14.8"/>
			<path class="st0" d="M61.1,68.8H18.2V53.3h42.9V68.8z M19,68.1h41.4v-14H19V68.1z"/>
		</g>
		<g>
			<rect x="16.3" y="48.6" class="st1" width="46.6" height="14.8"/>
			<path class="st0" d="M63.3,63.7H16V48.2h47.4V63.7z M16.7,63h45.9V49H16.7V63z"/>
		</g>
	</g>
	<g>
		<g>
			<path class="st1" d="M140.1,98.3c21.7,0,39.3-17.7,39.3-39.3c0-21.7-17.7-39.3-39.3-39.3c-21.7,0-39.3,17.7-39.3,39.3
				C100.8,80.6,118.4,98.3,140.1,98.3z"/>
			<path class="st0" d="M140.1,98.6c-21.9,0-39.7-17.8-39.7-39.7c0-21.9,17.8-39.7,39.7-39.7c21.9,0,39.7,17.8,39.7,39.7
				C179.8,80.8,162,98.6,140.1,98.6z M140.1,19.9c-21.5,0-39,17.5-39,39c0,21.5,17.5,39,39,39c21.5,0,39-17.5,39-39
				C179.1,37.4,161.6,19.9,140.1,19.9z"/>
		</g>
		<g>
			<rect x="170" y="52.1" class="st1" width="16.3" height="14"/>
			<path class="st0" d="M186.6,66.5h-17V51.7h17V66.5z M170.3,65.8h15.5V52.5h-15.5V65.8z"/>
		</g>
		<g>
			<path class="st1" d="M140.3,27.1c17.7,0,32.1,14.4,32.1,32.1c0,17.7-14.4,32.1-32.1,32.1c-11,0-20.7-5.5-26.5-14l0-36.2
				C119.6,32.6,129.3,27.1,140.3,27.1z"/>
			<path class="st0" d="M140.3,91.6c-10.7,0-20.7-5.3-26.8-14.2l-0.1-0.1l0-36.4l0.1-0.1c6.1-8.8,16.1-14.1,26.8-14.1
				c17.9,0,32.4,14.6,32.4,32.4S158.2,91.6,140.3,91.6z M114.2,77.1c5.9,8.6,15.7,13.7,26.1,13.7c17.5,0,31.7-14.2,31.7-31.7
				s-14.2-31.7-31.7-31.7c-10.4,0-20.2,5.1-26.1,13.7L114.2,77.1z"/>
		</g>
		<g>
			<path class="st1" d="M140.4,82.6c12.9,0,23.3-10.5,23.3-23.3s-10.5-23.3-23.3-23.3c-12.9,0-23.3,10.5-23.3,23.3
				S127.6,82.6,140.4,82.6z"/>
			<path class="st0" d="M140.4,83c-13.1,0-23.7-10.6-23.7-23.7s10.6-23.7,23.7-23.7c13.1,0,23.7,10.6,23.7,23.7S153.5,83,140.4,83z
				 M140.4,36.3c-12.7,0-23,10.3-23,23s10.3,23,23,23c12.7,0,23-10.3,23-23S153.1,36.3,140.4,36.3z"/>
		</g>
		<g>
			<path class="st1" d="M140.4,79.8c11.4,0,20.7-9.3,20.7-20.7c0-11.4-9.3-20.7-20.7-20.7s-20.7,9.3-20.7,20.7
				C119.7,70.6,129,79.8,140.4,79.8z"/>
			<path class="st0" d="M140.4,80.2c-11.6,0-21-9.4-21-21c0-11.6,9.4-21,21-21c11.6,0,21,9.4,21,21C161.4,70.8,152,80.2,140.4,80.2z
				 M140.4,38.9c-11.2,0-20.3,9.1-20.3,20.3c0,11.2,9.1,20.3,20.3,20.3c11.2,0,20.3-9.1,20.3-20.3C160.6,48,151.5,38.9,140.4,38.9z"
				/>
		</g>
		<g>
			<g>
				<rect x="155.7" y="52" class="st1" width="1.7" height="14.2"/>
				<path class="st0" d="M157.7,66.5h-2.4V51.6h2.4V66.5z M156,65.8h1V52.3h-1V65.8z"/>
			</g>
			<g>
				<polygon class="st1" points="157.4,66.1 157.4,52 152.6,52 149.1,55.4 149.1,62.3 152.8,66.1 				"/>
				<path class="st0" d="M157.7,66.5h-5.2l-3.9-4.1v-7.2l3.7-3.7h5.3V66.5z M152.9,65.8h4.1V52.3h-4.3l-3.3,3.2v6.6L152.9,65.8z"/>
			</g>
			<g>
				<circle class="st1" cx="152.7" cy="59" r="2"/>
				<path class="st0" d="M152.7,61.4c-1.3,0-2.4-1.1-2.4-2.4c0-1.3,1.1-2.4,2.4-2.4s2.4,1.1,2.4,2.4
					C155.1,60.4,154.1,61.4,152.7,61.4z M152.7,57.4c-0.9,0-1.6,0.7-1.6,1.6c0,0.9,0.7,1.6,1.6,1.6s1.6-0.7,1.6-1.6
					C154.4,58.1,153.6,57.4,152.7,57.4z"/>
			</g>
		</g>
		<g>
			
				<rect x="105.7" y="25.3" transform="matrix(-0.726 -0.6877 0.6877 -0.726 174.2314 134.1485)" class="st1" width="16.3" height="14"/>
			<path class="st0" d="M114.9,43.6l-12.3-11.7l10.2-10.7l12.3,11.7L114.9,43.6z M103.6,31.9l11.3,10.7l9.1-9.6l-11.3-10.7
				L103.6,31.9z"/>
		</g>
		<g>
			
				<rect x="105.1" y="78.7" transform="matrix(-0.726 0.6877 -0.6877 -0.726 254.3206 70.1564)" class="st1" width="16.3" height="14"/>
			<path class="st0" d="M112.1,97l-10.2-10.7l12.3-11.7l10.2,10.7L112.1,97z M103,86.3l9.1,9.6l11.3-10.7l-9.1-9.6L103,86.3z"/>
		</g>
		<g>
			<g>
				<rect x="133.2" y="42.1" class="st1" width="14.2" height="1.7"/>
				<path class="st0" d="M147.8,44.1h-14.9v-2.4h14.9V44.1z M133.6,43.4H147v-1h-13.4V43.4z"/>
			</g>
			<g>
				<polygon class="st1" points="133.2,42.1 147.4,42.1 147.4,46.9 143.9,50.4 137.1,50.4 133.2,46.7 				"/>
				<path class="st0" d="M144.1,50.7h-7.2l-4.1-3.9v-5.2h14.9V47L144.1,50.7z M137.2,50h6.6l3.2-3.3v-4.3h-13.4v4.1L137.2,50z"/>
			</g>
			<g>
				<path class="st1" d="M140.3,48.7c1.1,0,2-0.9,2-2c0-1.1-0.9-2-2-2c-1.1,0-2,0.9-2,2C138.3,47.8,139.2,48.7,140.3,48.7z"/>
				<path class="st0" d="M140.3,49.1c-1.3,0-2.4-1.1-2.4-2.4c0-1.3,1.1-2.4,2.4-2.4s2.4,1.1,2.4,2.4C142.7,48,141.6,49.1,140.3,49.1
					z M140.3,45.1c-0.9,0-1.6,0.7-1.6,1.6c0,0.9,0.7,1.6,1.6,1.6c0.9,0,1.6-0.7,1.6-1.6C141.9,45.8,141.2,45.1,140.3,45.1z"/>
			</g>
		</g>
		<g>
			<rect x="133" y="74.2" class="st1" width="14.2" height="1.7"/>
			<path class="st0" d="M147.6,76.3h-14.9v-2.4h14.9V76.3z M133.4,75.5h13.4v-1h-13.4V75.5z"/>
		</g>
		<g>
			<polygon class="st1" points="133,75.9 147.2,75.9 147.2,71.1 143.8,67.6 136.9,67.6 133,71.3 			"/>
			<path class="st0" d="M147.6,76.3h-14.9v-5.2l4.1-3.9h7.2l3.7,3.7V76.3z M133.4,75.5h13.4v-4.3l-3.2-3.3H137l-3.6,3.5V75.5z"/>
		</g>
		<g>
			<path class="st1" d="M140.1,73.3c1.1,0,2-0.9,2-2c0-1.1-0.9-2-2-2c-1.1,0-2,0.9-2,2C138.1,72.4,139,73.3,140.1,73.3z"/>
			<path class="st0" d="M140.1,73.7c-1.3,0-2.4-1.1-2.4-2.4c0-1.3,1.1-2.4,2.4-2.4c1.3,0,2.4,1.1,2.4,2.4
				C142.5,72.6,141.4,73.7,140.1,73.7z M140.1,69.6c-0.9,0-1.6,0.7-1.6,1.6c0,0.9,0.7,1.6,1.6,1.6c0.9,0,1.6-0.7,1.6-1.6
				C141.8,70.4,141,69.6,140.1,69.6z"/>
		</g>
		<g>
			<rect x="124.3" y="54.6" class="st1" width="2.9" height="3.1"/>
			<path class="st0" d="M127.6,58.1H124v-3.9h3.6V58.1z M124.7,57.4h2.1V55h-2.1V57.4z"/>
		</g>
		<g>
			<rect x="124.3" y="61.2" class="st1" width="2.9" height="3.1"/>
			<path class="st0" d="M127.6,64.7H124v-3.9h3.6V64.7z M124.7,63.9h2.1v-2.4h-2.1V63.9z"/>
		</g>
	</g>
</g>
</svg>
