<?xml version="1.0" encoding="utf-8"?>
<!-- Generator: Adobe Illustrator 16.0.4, SVG Export Plug-In . SVG Version: 6.00 Build 0)  -->
<!DOCTYPE svg PUBLIC "-//W3C//DTD SVG 1.1//EN" "http://www.w3.org/Graphics/SVG/1.1/DTD/svg11.dtd">
<svg version="1.1" id="D4S" xmlns="http://www.w3.org/2000/svg" xmlns:xlink="http://www.w3.org/1999/xlink" x="0px" y="0px"
	 width="187px" height="117.8px" viewBox="0 0 187 117.8" style="enable-background:new 0 0 187 117.8;" xml:space="preserve">
<style type="text/css">
<![CDATA[
	.st0{fill:#999999;}
	.st1{fill-rule:evenodd;clip-rule:evenodd;fill:#e5e5e5;}
]]>
</style>
<g>
	<g>
		<g>
			<path class="st1" d="M148.1,16.1c19.7,2,35.5,17.4,38.1,36.9c-10.8,0.1-13.4,11.6,0,11.8c-2.9,20.9-20.8,36.9-42.5,36.9
				c-23.7,0-42.9-19.2-42.9-42.9c0-10.8,4-20.7,10.6-28.2c7,5,12.7-1.4,7-6.5c5.2-4.1,12.9-6.9,19.8-7.9l-0.1,9.4l9.9,0.1
				L148.1,16.1z"/>
			<path class="st0" d="M143.7,102.1c-23.9,0-43.3-19.4-43.3-43.3c0-10.5,3.8-20.6,10.7-28.5l0.2-0.3l0.3,0.2
				c1.6,1.1,3.2,1.7,4.7,1.7c1.8,0,3.3-0.9,3.8-2.3c0.6-1.7-0.1-3.7-2-5.3l-0.3-0.3l0.4-0.3c5-3.9,12.7-7,20-8l0.4-0.1l-0.1,9.5
				l9.2,0.1l0-9.6l0.4,0c19.9,2.1,35.8,17.4,38.5,37.2l0.1,0.4l-0.4,0c-5.4,0-8.7,3-8.7,5.9c0,2.3,2.3,5.1,8.7,5.2l0.4,0l-0.1,0.4
				C183.6,86.1,165.2,102.1,143.7,102.1z M111.5,31.1c-6.7,7.7-10.3,17.5-10.3,27.7c0,23.5,19.1,42.6,42.6,42.6
				c21,0,39-15.5,42.1-36.2c-6.7-0.2-9-3.3-9-5.9c0-3.2,3.4-6.5,9-6.7c-2.8-19.1-18.1-33.9-37.3-36.1l0,9.6L137.8,26l0.1-9.4
				c-6.9,1-14.1,3.8-18.9,7.5c1.9,1.8,2.6,4,1.9,5.8c-0.7,1.7-2.4,2.8-4.5,2.8C114.8,32.8,113.1,32.2,111.5,31.1z"/>
		</g>
		<g>
			<path class="st1" d="M143.5,87.9c15.9,0,29-13,29-29c0-16-13-29-29-29s-29,13-29,29C114.5,74.9,127.5,87.9,143.5,87.9z"/>
			<path class="st0" d="M143.5,88.2c-16.2,0-29.3-13.2-29.3-29.3c0-16.2,13.2-29.3,29.3-29.3s29.3,13.2,29.3,29.3
				C172.8,75.1,159.7,88.2,143.5,88.2z M143.5,30.3c-15.8,0-28.6,12.8-28.6,28.6s12.8,28.6,28.6,28.6s28.6-12.8,28.6-28.6
				S159.3,30.3,143.5,30.3z"/>
		</g>
		<g>
			<path class="st1" d="M143.5,73.9c8.2,0,15-6.7,15-15s-6.7-15-15-15c-8.2,0-15,6.7-15,15S135.2,73.9,143.5,73.9z"/>
			<path class="st0" d="M143.5,74.3c-8.5,0-15.3-6.9-15.3-15.4c0-8.5,6.9-15.4,15.3-15.4s15.3,6.9,15.3,15.4
				C158.8,67.4,152,74.3,143.5,74.3z M143.5,44.3c-8.1,0-14.6,6.6-14.6,14.6c0,8.1,6.6,14.6,14.6,14.6s14.6-6.6,14.6-14.6
				C158.1,50.9,151.5,44.3,143.5,44.3z"/>
		</g>
		<g>
			<path class="st1" d="M143.5,83.5c13.6,0,24.6-11.1,24.6-24.6c0-13.6-11.1-24.6-24.6-24.6s-24.6,11.1-24.6,24.6
				C118.9,72.5,129.9,83.5,143.5,83.5z"/>
			<path class="st0" d="M143.5,83.9c-13.8,0-25-11.2-25-25c0-13.8,11.2-25,25-25s25,11.2,25,25C168.5,72.7,157.3,83.9,143.5,83.9z
				 M143.5,34.7c-13.4,0-24.2,10.9-24.2,24.2c0,13.4,10.9,24.2,24.2,24.2c13.4,0,24.2-10.9,24.2-24.2
				C167.7,45.6,156.9,34.7,143.5,34.7z"/>
		</g>
		<g>
			<path class="st1" d="M143.5,67c4.4,0,8.1-3.6,8.1-8.1s-3.6-8.1-8.1-8.1c-4.4,0-8.1,3.6-8.1,8.1S139.1,67,143.5,67z"/>
			<path class="st0" d="M143.5,67.3c-4.6,0-8.4-3.8-8.4-8.4s3.8-8.4,8.4-8.4c4.6,0,8.4,3.8,8.4,8.4S148.1,67.3,143.5,67.3z
				 M143.5,51.2c-4.2,0-7.7,3.4-7.7,7.7c0,4.2,3.4,7.7,7.7,7.7c4.2,0,7.7-3.4,7.7-7.7C151.2,54.7,147.7,51.2,143.5,51.2z"/>
		</g>
	</g>
	<g>
		<g>
			<rect x="20.1" y="27.3" class="st1" width="46.1" height="66.3"/>
			<path class="st0" d="M66.5,94H19.7v-67h46.8V94z M20.5,93.2h45.3V27.7H20.5V93.2z"/>
		</g>
		<g>
			<rect x="20.1" y="31" class="st1" width="46.1" height="54.4"/>
			<path class="st0" d="M66.5,85.8H19.7V30.6h46.8V85.8z M20.5,85h45.3V31.3H20.5V85z"/>
		</g>
		<g>
			<rect x="14.6" y="29.9" class="st1" width="57" height="46.5"/>
			<path class="st0" d="M72,76.8H14.2V29.6H72V76.8z M15,76.1h56.2V30.3H15V76.1z"/>
		</g>
		<g>
			<path class="st1" d="M43.1,57.2c2.9,0,5.3-2.4,5.3-5.3c0-2.9-2.4-5.3-5.3-5.3c-2.9,0-5.3,2.4-5.3,5.3
				C37.8,54.8,40.2,57.2,43.1,57.2z"/>
			<path class="st0" d="M43.1,57.6c-3.2,0-5.7-2.6-5.7-5.7c0-3.2,2.6-5.7,5.7-5.7s5.7,2.6,5.7,5.7C48.8,55.1,46.3,57.6,43.1,57.6z
				 M43.1,46.9c-2.7,0-5,2.2-5,5c0,2.7,2.2,5,5,5s5-2.2,5-5C48.1,49.2,45.9,46.9,43.1,46.9z"/>
		</g>
		<g>
			<rect x="0.4" y="24.2" class="st1" width="85.5" height="8.5"/>
			<path class="st0" d="M86.2,33.2H0v-9.3h86.2V33.2z M0.7,32.4h84.7v-7.8H0.7V32.4z"/>
		</g>
		<g>
			<rect x="38.5" y="24.2" class="st1" width="9.3" height="8.5"/>
			<path class="st0" d="M48.1,33.2h-10v-9.3h10V33.2z M38.9,32.4h8.5v-7.8h-8.5V32.4z"/>
		</g>
	</g>
</g>
</svg>
