<?xml version="1.0" encoding="utf-8"?>
<!-- Generator: Adobe Illustrator 16.0.4, SVG Export Plug-In . SVG Version: 6.00 Build 0)  -->
<!DOCTYPE svg PUBLIC "-//W3C//DTD SVG 1.1//EN" "http://www.w3.org/Graphics/SVG/1.1/DTD/svg11.dtd">
<svg version="1.1" id="H8" xmlns="http://www.w3.org/2000/svg" xmlns:xlink="http://www.w3.org/1999/xlink" x="0px" y="0px"
	 width="187px" height="117.8px" viewBox="0 0 187 117.8" style="enable-background:new 0 0 187 117.8;" xml:space="preserve">
<style type="text/css">
<![CDATA[
	.st0{fill:#999999;}
	.st1{fill-rule:evenodd;clip-rule:evenodd;fill:#e5e5e5;}
]]>
</style>
<g>
	<g>
		<g>
			<rect x="158.3" y="37.1" class="st1" width="23" height="44.3"/>
			<path class="st0" d="M181.6,81.8h-23.7V36.7h23.7V81.8z M158.6,81h22.3V37.5h-22.3V81z"/>
		</g>
		<g>
			<path class="st1" d="M179.5,34.6v-3.1c0-1.2,1.5-3,3.7-0.4l2.7,3.3L179.5,34.6z"/>
			<path class="st0" d="M179.1,35v-3.5c0-1,0.8-2.1,1.9-2.1c0.8,0,1.6,0.5,2.4,1.5l3.2,3.9L179.1,35z M181,30.1
				c-0.7,0-1.2,0.8-1.2,1.4v2.8l5.2-0.2l-2.2-2.7C182.2,30.5,181.6,30.1,181,30.1z"/>
		</g>
		<g>
			<path class="st1" d="M179.5,84.1v3.1c0,1.2,1.5,3,3.7,0.4l2.7-3.3L179.5,84.1z"/>
			<path class="st0" d="M181,89.4L181,89.4c-1.1,0-1.9-1.1-1.9-2.1v-3.5l7.5,0.3l-3.2,3.9C182.6,88.9,181.8,89.4,181,89.4z
				 M179.9,84.5v2.8c0,0.6,0.4,1.4,1.2,1.4c0.5,0,1.2-0.4,1.8-1.2l2.2-2.7L179.9,84.5z"/>
		</g>
		<g>
			<path class="st1" d="M135,93.2c18.9,0,34.2-15.4,34.2-34.2c0-18.9-15.4-34.2-34.2-34.2c-18.9,0-34.2,15.4-34.2,34.2
				C100.8,77.8,116.1,93.2,135,93.2z"/>
			<path class="st0" d="M135,93.5c-19.1,0-34.6-15.5-34.6-34.6c0-19.1,15.5-34.6,34.6-34.6c19.1,0,34.6,15.5,34.6,34.6
				C169.6,78,154.1,93.5,135,93.5z M135,25.1c-18.7,0-33.9,15.2-33.9,33.9c0,18.7,15.2,33.9,33.9,33.9c18.7,0,33.9-15.2,33.9-33.9
				C168.9,40.2,153.7,25.1,135,25.1z"/>
		</g>
		<g>
			<path class="st1" d="M135,84.3c14,0,25.4-11.4,25.4-25.4c0-14-11.4-25.4-25.4-25.4c-14,0-25.4,11.4-25.4,25.4
				C109.6,72.9,121,84.3,135,84.3z"/>
			<path class="st0" d="M135,84.6c-14.2,0-25.7-11.5-25.7-25.7c0-14.2,11.5-25.7,25.7-25.7c14.2,0,25.7,11.5,25.7,25.7
				C160.7,73.1,149.2,84.6,135,84.6z M135,33.9c-13.8,0-25,11.2-25,25s11.2,25,25,25c13.8,0,25-11.2,25-25S148.8,33.9,135,33.9z"/>
		</g>
		<g>
			<path class="st1" d="M135,81.7c12.5,0,22.7-10.2,22.7-22.7c0-12.5-10.2-22.7-22.7-22.7c-12.5,0-22.7,10.2-22.7,22.7
				C112.3,71.4,122.5,81.7,135,81.7z"/>
			<path class="st0" d="M135,82c-12.7,0-23.1-10.4-23.1-23.1c0-12.7,10.4-23.1,23.1-23.1s23.1,10.4,23.1,23.1
				C158.1,71.7,147.7,82,135,82z M135,36.6c-12.3,0-22.4,10-22.4,22.4c0,12.3,10,22.4,22.4,22.4c12.3,0,22.4-10,22.4-22.4
				C157.4,46.6,147.3,36.6,135,36.6z"/>
		</g>
		<g>
			<path class="st1" d="M137.3,85.6c6.5-1.3,8.9-1.3,15.1-6l-0.3-8c2.5-3.4,4-7.6,4-12.1c0-4.5-1.4-8.7-3.9-12.1l0-8.4
				c-2-1.6-7.2-4-10.2-4.8l-2.9,4.7c-1,0-2.5,0-3.5,0c-8.2,0-15.3,4.9-18.6,11.9l-5.6,0c-2.5,0.1-2.2,11.4-0.5,17.5l6.6,0.2
				c3.9,6.9,8.9,10.9,17.1,11.5L137.3,85.6z"/>
			<path class="st0" d="M137,86l-2.7-5.6c-7.7-0.6-13-4.2-17.1-11.4l-6.7-0.2l-0.1-0.3c-1.6-5.5-2-14.9-0.3-17.3
				c0.3-0.4,0.7-0.7,1.1-0.7l5.4,0c3.5-7.2,10.8-11.9,18.8-11.9l1.3,0c0.7,0,1.4,0,2,0l2.9-4.8l0.3,0.1c2.9,0.8,8.2,3.2,10.3,4.9
				l0.1,0.1l0,8.5c2.6,3.6,3.9,7.8,3.9,12.2c0,4.4-1.4,8.7-4,12.2l0.3,8l-0.2,0.1c-5.6,4.2-8.1,4.7-13.1,5.7
				c-0.7,0.1-1.4,0.3-2.1,0.4L137,86z M111.1,68l6.6,0.2l0.1,0.2c4,7.2,9.2,10.7,16.8,11.3l0.2,0l2.7,5.5c0.7-0.1,1.3-0.2,1.8-0.4
				c4.9-0.9,7.3-1.4,12.7-5.4l-0.3-7.9l0.1-0.1c2.5-3.5,3.9-7.6,3.9-11.9c0-4.3-1.3-8.4-3.8-11.8l-0.1-0.1l0-8.3
				c-1.9-1.5-6.6-3.7-9.6-4.5l-2.8,4.6l-0.2,0c-0.6,0-1.5,0-2.3,0l-1.3,0c-7.8,0-15,4.6-18.3,11.7l-0.1,0.2l-5.9,0
				c0,0-0.2,0-0.5,0.4C109.4,53.6,109.5,62.4,111.1,68z"/>
		</g>
		<g>
			<path class="st1" d="M135.2,76.7c9.5,0,17.3-7.8,17.3-17.3c0-9.5-7.8-17.3-17.3-17.3c-9.5,0-17.3,7.8-17.3,17.3
				C117.9,68.9,125.7,76.7,135.2,76.7z"/>
			<path class="st0" d="M135.2,77.1c-9.8,0-17.7-7.9-17.7-17.7c0-9.8,7.9-17.7,17.7-17.7c9.8,0,17.7,7.9,17.7,17.7
				C152.9,69.1,145,77.1,135.2,77.1z M135.2,42.4c-9.3,0-16.9,7.6-16.9,16.9c0,9.3,7.6,16.9,16.9,16.9c9.3,0,16.9-7.6,16.9-16.9
				C152.1,50,144.5,42.4,135.2,42.4z"/>
		</g>
		<g>
			<path class="st1" d="M172.4,33.4h13.9v51.5h-13.9c-0.8,0-1.5-0.7-1.5-1.5V35C170.8,34.1,171.5,33.4,172.4,33.4z"/>
			<path class="st0" d="M186.6,85.3h-14.3c-1.1,0-1.9-0.9-1.9-1.9V35c0-1.1,0.9-1.9,1.9-1.9h14.3V85.3z M172.4,33.8
				c-0.6,0-1.2,0.5-1.2,1.2v48.4c0,0.6,0.5,1.2,1.2,1.2h13.5V33.8H172.4z"/>
		</g>
	</g>
	<g>
		<g>
			<path class="st1" d="M18.5,22.3h32.3c0.9,0,1.6,0.7,1.6,1.6v18.8H16.9V23.9C16.9,23,17.6,22.3,18.5,22.3z"/>
			<path class="st0" d="M52.7,43.1H16.5V23.9c0-1.1,0.9-2,2-2h32.3c1.1,0,2,0.9,2,2V43.1z M17.3,42.3H52V23.9c0-0.7-0.5-1.2-1.2-1.2
				H18.5c-0.7,0-1.2,0.5-1.2,1.2V42.3z"/>
		</g>
		<g>
			<rect x="14" y="43.9" class="st1" width="41.4" height="6.6"/>
			<path class="st0" d="M55.8,50.9H13.6v-7.4h42.2V50.9z M14.4,50.1H55v-5.9H14.4V50.1z"/>
		</g>
		<g>
			<rect x="8.3" y="40.8" class="st1" width="47.2" height="3.7"/>
			<path class="st0" d="M55.9,44.9h-48v-4.4h48V44.9z M8.7,44.2h46.5v-3H8.7V44.2z"/>
		</g>
		<g>
			<path class="st1" d="M4.6,49.2h60.1c3,0,0,6.1,0,9.1H4.6C4.6,55.3,1.6,49.2,4.6,49.2z"/>
			<path class="st0" d="M65.1,58.7H4.2v-0.4c0-1-0.3-2.3-0.7-3.6c-0.6-2.2-1.1-4.3-0.3-5.3C3.6,49,4,48.8,4.6,48.8h60.1
				c0.6,0,1,0.2,1.3,0.6c0.8,1,0.3,3.1-0.3,5.3c-0.3,1.3-0.7,2.7-0.7,3.6V58.7z M5,57.9h59.4c0.1-1,0.4-2.2,0.7-3.4
				c0.5-1.8,1-3.9,0.4-4.7c-0.1-0.2-0.4-0.3-0.7-0.3H4.6c-0.3,0-0.6,0.1-0.7,0.3c-0.6,0.7,0,2.8,0.4,4.7C4.6,55.7,4.9,56.9,5,57.9z"
				/>
		</g>
		<g>
			<path class="st1" d="M12.5,63.5h58.3v24.7H14.5c-1,0-1.9-0.9-1.9-1.9V63.5z"/>
			<path class="st0" d="M71.2,88.6H14.5c-1.3,0-2.3-1-2.3-2.3V63.1h59.1V88.6z M12.9,63.8v22.5c0,0.8,0.7,1.5,1.5,1.5h56v-24H12.9z"
				/>
		</g>
		<g>
			<polygon class="st1" points="70.5,89.4 79.8,90.3 76.7,95.5 70.5,93.9 			"/>
			<path class="st0" d="M76.8,96l-6.7-1.8V89l10.3,1L76.8,96z M70.9,93.6l5.6,1.5l2.7-4.4l-8.3-0.8V93.6z"/>
		</g>
		<g>
			<rect x="8.3" y="40.8" class="st1" width="43.1" height="3.7"/>
			<path class="st0" d="M51.8,44.9H7.9v-4.4h43.9V44.9z M8.7,44.2h42.4v-3H8.7V44.2z"/>
		</g>
		<g>
			<rect x="8.3" y="40.8" class="st1" width="32.7" height="3.7"/>
			<path class="st0" d="M41.4,44.9H7.9v-4.4h33.4V44.9z M8.7,44.2h31.9v-3H8.7V44.2z"/>
		</g>
		<g>
			<rect x="8.3" y="40.8" class="st1" width="30" height="3.7"/>
			<path class="st0" d="M38.7,44.9H7.9v-4.4h30.8V44.9z M8.7,44.2H38v-3H8.7V44.2z"/>
		</g>
		<g>
			<rect x="8.3" y="40.8" class="st1" width="7.8" height="3.7"/>
			<path class="st0" d="M16.5,44.9H7.9v-4.4h8.6V44.9z M8.7,44.2h7.1v-3H8.7V44.2z"/>
		</g>
		<g>
			<rect x="8.3" y="40.8" class="st1" width="1.9" height="3.7"/>
			<path class="st0" d="M10.5,44.9H7.9v-4.4h2.6V44.9z M8.7,44.2h1.1v-3H8.7V44.2z"/>
		</g>
		<g>
			<rect x="70.5" y="60" class="st1" width="15.3" height="31.8"/>
			<path class="st0" d="M86.2,92.2H70.1V59.6h16.1V92.2z M70.9,91.4h14.6v-31H70.9V91.4z"/>
		</g>
		<g>
			<rect x="79.6" y="73.6" class="st1" width="6.2" height="4.5"/>
			<path class="st0" d="M86.2,78.5h-7v-5.2h7V78.5z M80,77.8h5.5V74H80V77.8z"/>
		</g>
		<g>
			<rect x="81.9" y="73.6" class="st1" width="4" height="4.5"/>
			<path class="st0" d="M86.2,78.5h-4.7v-5.2h4.7V78.5z M82.3,77.8h3.2V74h-3.2V77.8z"/>
		</g>
		<g>
			<path class="st1" d="M0.4,58.3h68.4V62c0,0.9-0.7,1.6-1.6,1.6H2c-0.9,0-1.6-0.7-1.6-1.6V58.3z"/>
			<path class="st0" d="M67.2,64H2c-1.1,0-2-0.9-2-2v-4.1h69.2V62C69.2,63.1,68.3,64,67.2,64z M0.7,58.7V62c0,0.7,0.5,1.2,1.2,1.2
				h65.2c0.7,0,1.2-0.5,1.2-1.2v-3.3H0.7z"/>
		</g>
	</g>
</g>
</svg>
