<?xml version="1.0" encoding="utf-8"?>
<!-- Generator: Adobe Illustrator 19.2.1, SVG Export Plug-In . SVG Version: 6.00 Build 0)  -->
<svg version="1.1" id="Large" xmlns="http://www.w3.org/2000/svg" xmlns:xlink="http://www.w3.org/1999/xlink" x="0px" y="0px"
	 viewBox="0 0 189.2 166.5" style="enable-background:new 0 0 189.2 166.5;" xml:space="preserve">
<style type="text/css">
	.st0{fill:none;stroke:#999999;stroke-miterlimit:2.6131;}
	.st1{fill-rule:evenodd;clip-rule:evenodd;fill:none;stroke:#999999;stroke-width:0.5;stroke-miterlimit:10;}
	.st2{fill:#E5E5E5;stroke:#999999;stroke-miterlimit:2.6131;}
	.st3{fill:none;stroke:#999999;stroke-width:0.5;stroke-miterlimit:2.6131;}
	.st4{fill-rule:evenodd;clip-rule:evenodd;fill:#666766;stroke:#999999;stroke-miterlimit:10;}
	.st5{fill:#666766;stroke:#999999;stroke-miterlimit:2.6131;}
	.st6{fill:#666766;stroke:#999999;stroke-width:0.5;stroke-miterlimit:2.6131;}
</style>
<path class="st0" d="M1.7,34.5L0.7,52.4l1.6,8l20.9,48.2l8.3,7.8l63.2,5.1c5.6,0.5,12.4,2.3,15.4,7.1l16.3,26.2
	c1.3,2.2,4.4,3.3,6.9,3.2l50.5-1.6c3.3-0.1,3.3-2.5,3.4-4.4c2.5-44.1-4.4-86.3-15.8-126.8c-0.9-3.2-2.2-4.1-5.1-4.1L15.4,19.6
	C6.1,19.5,2.1,25.1,1.7,34.5z"/>
<path class="st1" d="M7.6,33.6c0.1-2.3,1.6-5.8,3.9-5.7l20.7,0.6c2.4,0.1,4.2,3.5,4.3,5.9l4.8,75.1l-8.3-1.1
	c-2.3-0.3-4.3-2.7-5.2-4.9L9.2,60.6C8,57.8,6.9,54.8,7,51.7L7.6,33.6z"/>
<path class="st2" d="M54.5,30.5H151c6.9,0,10.1,3,11.2,8.6c3.3,16.2,9,32.9,9.9,50.2c0.4,6.8-0.9,9.7-10.6,9.9l-51,0.9
	c-4.7,0.1-10.3,3.3-11.6,7.8c-0.7,2.4-4.1,2.9-6.5,2.9l-34.5-1c-7.2-0.2-9.9-5.7-10.3-12.8l-3.4-56.7C43.8,34.5,49.4,30.5,54.5,30.5
	z"/>
<path class="st3" d="M111.2,116.7l20.8,30.9c2,3,6.3,4.2,9.9,4.2l30.1-0.6c3.2-0.1,8-2.1,7.9-5.3l-1.5-31.9c-0.2-4-5.6-7.4-9.6-7.4
	l-51.5,0.1C111.4,106.8,108,112.1,111.2,116.7z"/>
<path class="st4" d="M69.3,53.4c-2.3-0.1-4.5,1-4.5,2.9l0.1,7c0,2.2,1.3,2.7,3,2l0.1,7.8c0,1.6,4.7,1.5,4.7-0.1v-6.7l13.1-1.1
	c1-0.1,2.6-0.5,2.6-1.4l0.1-5.6c0-1.1-1.5-1.7-2.4-2.3c-2.4-1.5-5.1-1.9-7.6-2L69.3,53.4z"/>
<g>
	<path class="st3" d="M139.4,33.1c-26.4,14.1-28.1,33,6.7,59"/>
	<path class="st3" d="M47.5,71.8c25.3-2.3,50.9-2.3,76.7-1.1"/>
	<path class="st3" d="M46.1,48.7c25.3-2.3,50.5-2.4,76.2-1.2"/>
	<path class="st3" d="M47.8,36.4c25.2-1.4,61.4-1.9,87.1-0.7"/>
	<path class="st3" d="M48.8,85.9c25.4-4.7,64.1-5.5,89.5-0.1"/>
	<line class="st3" x1="127.4" y1="39.7" x2="132.5" y2="32"/>
	<path class="st3" d="M120.3,70.5c0.8,5.4,3,10.2,6.9,13.3"/>
	<path class="st3" d="M125.4,31.9c-14.1,14.4-16.9,31.7-6.8,51.1"/>
	<path class="st3" d="M118.5,31.9c-14.1,14.4-17.2,31-7.2,50.4"/>
	<path class="st3" d="M112.4,32.2C98.3,46.6,95,62.9,105,82.3"/>
	<path class="st3" d="M106.3,31.6C92.3,46,89.1,62.6,99.2,82"/>
	<path class="st3" d="M100.7,31.7c-14.1,14.4-17.2,31-7.2,50.4"/>
	<path class="st3" d="M96,31.9c-14.1,14.4-17.2,31-7.2,50.4"/>
	<path class="st3" d="M91.6,31.8c-14.1,14.4-17.2,31-7.2,50.4"/>
	<path class="st3" d="M84.8,31.8c-14.1,14.4-17.2,31-7.2,50.4"/>
	<path class="st3" d="M78.1,32.8c-14.1,14.4-17.2,31-7.2,50.4"/>
	<path class="st3" d="M72.6,32.6c-13.5,13.8-17,29.7-8.3,48.1c0.4,0.7,13.1,23.7,13.5,24.5"/>
	<path class="st3" d="M69.2,32.6c-13.5,13.8-17,29.7-8.3,48.1c0.4,0.7,13.1,23.7,13.5,24.5"/>
	<path class="st3" d="M60.8,33.1c-13.5,13.8-17,29.7-8.3,48.1c0.4,0.7,13.1,23.7,13.5,24.5"/>
	<path class="st3" d="M65.1,32.9c-13.5,13.8-17,29.7-8.3,48.1c0.4,0.7,13.1,23.7,13.5,24.5"/>
</g>
<path class="st5" d="M69.3,53.4c-2.3-0.1-4.5,1-4.5,2.9l0.1,7c0,2.2,1.3,2.7,3,2l0.1,7.8c0,1.6,4.7,1.5,4.7-0.1v-6.7l13.1-1.1
	c1-0.1,2.6-0.5,2.6-1.4l0.1-5.6c0-1.1-1.5-1.7-2.4-2.3c-2.4-1.5-5.1-1.9-7.6-2L69.3,53.4z"/>
<path class="st6" d="M84.5,55.9l-11.9,0.1c-1.3,0-2.6,1.5-2.6,2.7V63c0,1.6,2,2.3,3.3,1.8"/>
</svg>
