<?xml version="1.0" encoding="utf-8"?>
<!-- Generator: Adobe Illustrator 19.2.1, SVG Export Plug-In . SVG Version: 6.00 Build 0)  -->
<svg version="1.1" id="D2S-O" xmlns="http://www.w3.org/2000/svg" xmlns:xlink="http://www.w3.org/1999/xlink" x="0px" y="0px"
	 viewBox="0 0 194.4 165.6" style="enable-background:new 0 0 194.4 165.6;" xml:space="preserve">
<style type="text/css">
	.st0{fill:#E5E5E5;}
	.st1{fill:#999999;}
</style>
<polygon class="st0" points="44.1,42.4 45.7,43.3 46.3,43.3 47.1,43.5 44.7,42 "/>
<polygon class="st0" points="122.9,110.5 122.6,111 122.4,111.3 122.2,112.1 122.2,112.2 124,111.6 123.9,111.1 "/>
<polygon class="st0" points="118.6,110.5 118.8,110 119,109.5 119.3,109.1 119.7,108.6 113.8,105.2 113.4,105.4 113,106.1 
	112.8,106.4 112.6,107.1 112.6,107.1 118.6,110.6 "/>
<path class="st0" d="M121.2,112c0,0,0-0.1,0-0.1l0.3-1l0.4-0.7l0.4-0.4v-1.8l-0.4,0.5l-0.4,0.3c0,0,0,0,0,0c0,0,0,0,0,0l-0.5,0.3
	l-0.3,0.2l-0.5,0.6l-0.4,0.7l-0.2,0.7l0,0.3v1.6l1.7-0.5v-0.2V112z"/>
<polygon class="st0" points="121.2,107.6 121.7,107.1 122.2,106.1 122.2,105.7 116.3,102.3 116.3,102.3 116.1,102.8 115.6,103.7 
	115.1,104.2 121.1,107.6 "/>
<polygon class="st0" points="104.6,107.6 104.6,107.6 104.6,107.6 "/>
<path class="st0" d="M133.1,97C133.2,97,133.2,97,133.1,97C133.2,97,133.2,97,133.1,97c0.1-0.1,0.1-0.1,0.1-0.1c0,0,0,0,0.1,0
	c0,0,0,0,0,0l1.6-0.9c0,0,0,0,0.1,0c0,0,0.1,0,0.1,0s0.1,0,0.1,0c0,0,0.1,0,0.1,0c0,0,0.1,0,0.1,0c0,0,0,0,0.1,0l1.4,0.8l-0.5-1.4
	l-1.4-2.1l-1.8-1.9l-2.7-1.9l-3.3-1.6l-3.7-1.2l-4-0.9l-5.7-0.7l-1.5,0L133.1,97C133.1,97.1,133.1,97.1,133.1,97
	C133.1,97.1,133.1,97.1,133.1,97z"/>
<path class="st0" d="M110.1,109.6c0,0,0.1,0,0.1,0c0,0,0.1,0,0.1,0c0,0,0.1,0,0.1,0c0,0,0.1,0,0.1,0c0,0,0,0,0.1,0l1,0.6v-2.9
	c0,0,0,0,0,0s0,0,0,0l0,0c0,0,0,0,0,0l0.1-0.8l0.2-0.5l0.3-0.5l0.6-0.8l0.7-0.6c0,0,0,0,0,0c0,0,0,0,0,0c0,0,0,0,0,0l0.5-0.3
	l0.3-0.2l0.5-0.6l0.4-0.7l0.1-0.3l0.1-0.6v-0.9l-16-8.9l1.3,2.8l2.9,8.7l0.8,3.3l2,0.9l0.1,0c0.1,0,0.1,0,0.2,0.1l0.2,0.1
	c0,0,0.1,0.1,0.1,0.1c0,0,0,0,0.1,0.1l0.1,0.1c0,0.1,0.1,0.1,0.1,0.2l0,0.2c0,0,0,0,0,0.1c0,0,0,0,0,0v3L110.1,109.6
	C110.1,109.7,110.1,109.7,110.1,109.6z"/>
<path class="st0" d="M186.3,68.2l-0.5-0.1c0,0-0.1,0-0.1,0l-0.6-0.3l-0.7-0.5l-0.6-0.5c0,0,0,0-0.1-0.1l-0.2-0.2l-1.2,0.8l0.1,0.2
	l0.4,0.5l0.6,0.4l0.5,0.2l0.5,0.1l0.5,0l0.4-0.1l0.5-0.2l0.1,0L186.3,68.2z"/>
<polygon class="st0" points="110.3,110.7 107.4,112.4 107.6,113.4 107.7,113.5 111.5,111.3 "/>
<polygon class="st0" points="118.5,113.3 118.5,111.6 112.6,108.3 112.6,114.9 113.1,114.9 "/>
<polygon class="st0" points="111.6,115.1 111.6,112.4 108.3,114.3 108.6,114.7 108.7,114.8 110.6,115.2 "/>
<path class="st0" d="M130.5,108.4l-0.7-0.3l-0.7-0.1l-0.5,0.2c0,0,0,0,0,0l-0.2,0.1l-0.6,0.5l-0.4,0.6l-0.2,0.7l0,0.4
	c0-0.1,0.1-0.1,0.1-0.1l0.4-0.3c0.1-0.1,0.2-0.1,0.3-0.1h0.6c0,0,0.1,0,0.1,0l0.1,0l1.9-0.8l0.5-0.4l0,0L130.5,108.4z"/>
<path class="st0" d="M101.4,91.6l14.7,8.2c0,0,0,0,0,0c0,0,0.1,0,0.1,0.1c0,0,0,0.1,0.1,0.1c0,0,0,0.1,0,0.1c0,0,0,0.1,0,0.1
	c0,0,0,0,0,0.1v1l6.6,3.8c0,0,0,0,0,0c0,0,0,0,0.1,0.1c0,0,0,0,0,0c0,0,0,0,0,0.1c0,0,0,0,0,0.1c0,0,0,0,0,0c0,0,0,0.1,0,0.1
	c0,0,0,0,0,0.1v4.2l1.3,0.7c0,0,0,0,0,0l0,0c0,0,0,0,0,0c0,0,0.1,0.1,0.1,0.1c0,0,0,0.1,0,0.1c0,0,0,0,0,0.1l0.2,0.7l1.2-0.4
	l0.1-0.9c0,0,0-0.1,0-0.1l0.3-0.9c0,0,0-0.1,0.1-0.1l0.5-0.8c0,0,0.1-0.1,0.1-0.1l0.7-0.6c0,0,0.1-0.1,0.1-0.1l0.1,0
	c0.1,0,0.1-0.1,0.2-0.1l0.7-0.2c0.1,0,0.1,0,0.2,0l0.8,0.1c0.1,0,0.1,0,0.1,0l0.9,0.4c0,0,0.1,0,0.1,0.1l0.9,0.6l0.2,0.2l0.8-0.6
	l1.7-1.9l1.1-2.1l0.3-1.3l-34.7-20V91.6z"/>
<polygon class="st0" points="100.4,83 97.2,87 98.6,90 100.4,91 "/>
<path class="st0" d="M136.7,104.1c0,0,0,0.1,0,0.1l-1.2,2.2c0,0,0,0.1-0.1,0.1l-1.8,2c0,0-0.1,0.1-0.1,0.1l-2,1.4l0.9-0.4l2.2-1.8
	l1.6-2.2l0.8-2.3l0-0.2l-0.2-0.1L136.7,104.1z"/>
<path class="st0" d="M149,22.6C149,22.6,149,22.6,149,22.6C149,22.6,149.1,22.7,149,22.6c0.1,0.1,0.1,0.1,0.1,0.1l0-0.1L149,22.6
	C148.9,22.6,148.9,22.6,149,22.6C148.9,22.6,149,22.6,149,22.6z"/>
<polygon class="st0" points="160,40.8 157.2,36.4 153.8,32.4 150.3,29.1 146.6,26.6 140.6,25.2 134.4,24.7 128,25 121.3,26.2 
	114.1,28.3 106.6,31.4 99.7,35 105.7,38.9 112.3,44 118.7,49.8 124.8,56.2 130.5,63.1 135.5,70.3 139.5,69.9 143.7,69.6 147.6,69.2 
	151.1,68.6 154.1,67.4 156.7,65.4 158.9,62.7 160.5,59.5 161.9,56 163,52.5 163.8,49.3 162.2,45.1 "/>
<polygon class="st0" points="155.8,28.9 157.8,30.9 159.6,33.2 161.4,35.6 163,38.1 164.5,40.6 165.8,43.3 166.9,46.1 167.8,48.8 
	168.5,51.5 168.9,54.2 169.2,56.7 169.2,59.2 169,61 169.1,60.8 169.3,58.6 169.3,56.2 169,53.7 168.6,51.1 167.9,48.5 167,45.8 
	166,43.1 164.7,40.5 163.2,37.9 161.6,35.5 159.9,33.2 158.1,31 156.2,29 154.2,27.2 152.7,26.1 152.6,26.3 153.7,27.1 "/>
<polygon class="st0" points="168,59.3 168,56.9 167.8,54.4 167.4,51.8 166.7,49.2 165.8,46.5 164.7,43.8 163.5,41.2 162,38.7 
	160.5,36.2 158.7,33.9 156.9,31.7 155,29.7 153,28 151.5,26.8 151.4,27 152.5,27.8 154.6,29.6 156.6,31.7 158.4,33.9 160.2,36.2 
	161.8,38.8 163.3,41.4 164.6,44.1 165.7,46.8 166.6,49.5 167.3,52.2 167.7,54.9 168,57.5 168,59.9 167.8,61.6 167.8,61.5 "/>
<polygon class="st0" points="144.7,24.4 145.5,24.8 145.5,24.7 "/>
<polygon class="st0" points="43.3,41.5 42.9,41.5 42.6,41.6 42.6,41.6 43.1,41.8 43.6,41.6 "/>
<path class="st0" d="M147.8,23.3C147.8,23.4,147.9,23.4,147.8,23.3C147.9,23.4,147.9,23.4,147.8,23.3
	C147.9,23.4,147.9,23.4,147.8,23.3L147.8,23.3L147.8,23.3L147.8,23.3C147.8,23.3,147.8,23.3,147.8,23.3
	C147.8,23.3,147.8,23.3,147.8,23.3z"/>
<path class="st0" d="M146.6,24C146.6,24,146.6,24.1,146.6,24C146.6,24.1,146.6,24.1,146.6,24c0.1,0.1,0.1,0.1,0.1,0.1c0,0,0,0,0,0
	l0,0l0-0.1L146.6,24C146.6,24,146.6,24,146.6,24z"/>
<polygon class="st0" points="145.5,78.8 146.9,80 148.3,81.5 149.5,83.1 150.7,84.8 151.6,86.6 152.4,88.5 153,90.5 153.3,92.3 
	153.4,93.3 154.6,92.6 154.5,91.2 154.2,89.4 153.6,87.6 152.9,85.8 152,84 150.9,82.4 149.7,80.8 148.4,79.5 147,78.3 145.9,77.6 
	144.7,78.2 "/>
<path class="st0" d="M85.6,28.5l6.6,2.5l6.5,3.3l7.5-3.9l7.6-3.1l7.3-2.2l6.8-1.2l6.6-0.3l6.4,0.5l0.2,0l-1.4-0.4l-2.5-0.7
	c-0.2,0.1-0.5,0-0.6-0.2l-3.1-0.7l-4-0.7l-2.6-0.4l-4.7-0.5l-3.2-0.3l-2.9-0.1l-3.2,0l-3.9,0.1l-4.2,0.3l-5.5,0.6L94.6,22l-4.6,0.9
	l-8.3,1.8l-8,1.8l5.3,0.5L85.6,28.5z"/>
<polygon class="st0" points="60.1,29.3 61.2,28.6 51.5,23 50.3,23.7 "/>
<polygon class="st0" points="157,28.2 159,30.3 160.9,32.5 162.6,34.8 164.2,37.3 165.7,40 167,42.7 168.1,45.4 169,48.1 
	169.7,50.8 170.1,53.5 170.4,56.1 170.4,58.5 170.2,60.2 170.3,60.1 170.5,57.9 170.5,55.5 170.2,53 169.8,50.4 169.1,47.7 
	168.2,45.1 167.2,42.4 165.9,39.8 164.5,37.3 162.9,34.8 161.2,32.4 159.3,30.3 157.4,28.3 155.4,26.6 153.9,25.4 153.9,25.6 
	155,26.4 "/>
<polygon class="st0" points="166.9,60 166.8,57.6 166.6,55.1 166.1,52.5 165.5,49.9 164.6,47.2 163.5,44.5 162.3,41.9 160.8,39.3 
	159.2,36.9 157.5,34.6 155.7,32.4 153.8,30.4 151.7,28.6 150.3,27.5 150.2,27.7 150.4,27.8 152.5,29.5 154.5,31.4 156.4,33.6 
	158.2,35.9 159.9,38.3 161.4,40.9 162.8,43.5 164,46.2 165,49 165.7,51.7 166.3,54.4 166.7,57 166.8,59.5 166.7,61.9 166.6,62.6 
	166.6,62.2 "/>
<path class="st0" d="M148.3,26.3l1.1,0.8l0.2-0.5c0,0,0,0,0,0c0,0,0,0,0-0.1c0,0,0,0,0,0c0,0,0,0,0,0c0,0,0,0,0,0c0,0,0,0,0,0
	l0.1-0.1c0,0,0,0,0,0c0,0,0.1,0,0.1,0c0,0,0.1,0,0.1,0c0,0,0.1,0,0.1,0c0,0,0.1,0,0.1,0c0,0,0.1,0,0.1,0c0,0,0.1,0,0.1,0
	c0,0,0,0,0,0l0.1,0.1l0.2-0.5c0,0,0,0,0,0c0,0,0,0,0-0.1c0,0,0,0,0,0c0,0,0,0,0,0c0,0,0,0,0.1,0c0,0,0,0,0,0l0.1-0.1c0,0,0,0,0,0
	c0,0,0.1,0,0.1,0c0,0,0.1,0,0.1,0c0,0,0,0,0.1,0c0,0,0.1,0,0.1,0c0,0,0,0,0.1,0c0,0,0.1,0,0.1,0.1c0,0,0,0,0,0l0.1,0.1l0.2-0.5
	c0,0,0,0,0,0c0,0,0,0,0-0.1c0,0,0,0,0-0.1c0,0,0,0,0,0c0,0,0,0,0,0c0,0,0,0,0.1-0.1c0,0,0,0,0.1-0.1c0,0,0,0,0,0c0,0,0,0,0,0
	l0.1-0.1c0,0,0,0,0.1,0c0,0,0.1,0,0.1,0c0,0,0.1,0,0.1,0c0,0,0.1,0,0.1,0c0,0,0.1,0,0.1,0c0,0,0.1,0,0.1,0l0.1,0.1l0,0l-1.3-0.8
	l-0.8-0.4l-3.6,2.1L148.3,26.3z"/>
<polygon class="st0" points="74.5,27.8 77.8,28.3 81.1,29.1 84.6,30.2 88,31.5 91.5,33 95,34.8 98.5,36.8 102.1,39.1 105.6,41.6 
	109,44.3 112.4,47.2 115.7,50.2 119,53.5 122.1,56.9 125.1,60.4 128.1,64.1 130.9,67.9 133.2,71.4 134.5,70.6 129.7,63.7 
	124.1,56.9 118,50.5 111.7,44.7 105.1,39.7 98.5,35.4 91.8,32 85.3,29.5 78.9,27.9 73,27.4 68.8,27.7 71.3,27.6 "/>
<polygon class="st0" points="121.8,134.9 121.2,135.1 121.2,135.2 "/>
<path class="st0" d="M168.2,76.1C168.2,76.1,168.2,76.1,168.2,76.1l6.4-3.7l0.3-0.2l0.3-0.3l0.3-0.4l0.2-0.5l0.4-1.2l0.1-0.7l0-0.7
	V51.3l0-0.8l-0.1-0.8l-0.4-1.6l-0.3-0.8l-0.7-1.7l-0.4-0.8l-10.5-18.2l-1-1.6l-1.1-1.4l-0.6-0.6l-1.3-1l-0.6-0.4c0,0,0,0,0,0l0,0
	c0,0,0,0,0,0L144.3,13l-0.7-0.4l-1.2-0.4l-0.5-0.1l-0.5,0l-0.5,0.1l-0.4,0.1l-0.5,0.2l-10.5,6l-0.4,0.3l-0.3,0.3l-0.3,0.4l-0.2,0.5
	l-0.1,0.2l1.4,0.2l4.1,0.8l3.4,0.8l0.3-0.1l0,0c0,0,0,0,0,0l0.5-0.3c0,0,0,0,0,0l0.1-0.1c0,0,0,0,0,0c0,0,0,0,0,0l0.2-0.1l0.1,0l0,0
	l0.1-0.1l1.7-0.6l1.8-0.4l2,0l2,0.3l2.1,0.5l2.1,0.8c0,0,0,0,0.1,0c0,0,0,0,0,0c0,0,0.1,0,0.1,0.1c0,0,0,0,0,0c0,0,0,0.1,0.1,0.1
	c0,0,0,0,0,0.1c0,0,0,0,0,0c0,0,0,0,0,0c0,0,0,0,0,0l0.1,0.2l0.3,0.1c0,0,0,0,0,0c0,0,0,0,0,0l0.2,0.1c0.1,0,0.2,0.1,0.3,0.1l1,0.5
	l1.4,0.9c0,0,0,0,0,0c0,0,0.1,0,0.1,0c0,0,0.1,0,0.1,0c0,0,0.1,0,0.1,0c0,0,0.1,0,0.1,0c0,0,0,0,0.1,0l2.1,1.5l2,1.8l2,2l1.9,2.2
	l1.8,2.4l1.6,2.5l1.5,2.6l1.3,2.7l1.1,2.7l0.9,2.7l0.7,2.7l0.5,2.7l0.3,2.6l0,2.5l-0.2,2.3l-0.5,2.2l-0.7,2l-0.9,1.8l-1.1,1.5
	l-1.3,1.3l-1.1,0.7l-0.1,0.1c-0.1,0.1-0.2,0.1-0.3,0.1L165,70c0,0-0.1,0-0.1,0l-0.3,0.2l-0.1,0l-1.1,4l-1.1,3.8l-0.2,0.7l0.5,0
	l0.5-0.1l0.5-0.1l0.4-0.2l1.1-0.6L168.2,76.1z"/>
<path class="st0" d="M48.8,31.2l-0.7-0.8l-0.7-1l-0.5-1.1l-0.2-1.1c0,0,0-0.1,0-0.1v-0.5l-0.4,0L46,26.8l-0.3,0.3l-0.2,0.5v0.8
	l0.2,0.9l0.4,0.9l0.6,0.8l0.7,0.6l0.6,0.4l0.6,0.2l0.5,0l0.3-0.2l0.2-0.4L48.8,31.2C48.9,31.3,48.8,31.3,48.8,31.2z"/>
<polygon class="st0" points="119.7,136.7 120,136.7 120.1,136.5 120.2,136.1 120.2,135.4 118.3,136 119.3,136.6 "/>
<path class="st0" d="M103.6,135.7l1-3.9l0.6-4.1l0.2-4.5v-3.7l-0.4-4.1l-0.6-4.1l-0.8-4.1l-1-4.1l-2.9-8.6l-1.8-4.1l-1.5-3.2
	c0,0-0.1,0-0.1,0c-0.2-0.1-0.2-0.4-0.2-0.6l-0.3-0.5l-2-4.1l-2.5-3.9l-2.5-3.7l-2.7-3.7l-2.7-3.5l-2.9-3.5l-3-3l-3.1-2.9l-3.1-2.7
	l-3.3-2.4L65,50.8L61.9,49l-6.5-2.8l-3-0.8l-3.1-0.6l-3-0.4l-2.8,0l-2.8,0.2l-2.4,0.6l-2.6,1L34,47l-12.8,7.5l2.6-0.4l2.7-0.2
	l3.2,0.2l3.1,0.4l3.1,0.8l3.1,1.3l3.3,1.4l3.3,1.7l3.1,2.1l3.3,2.3l3.3,2.5l3.1,2.9l3.1,3.1l2.9,3.1l2.9,3.5l2.7,3.5l5,7.8l2.3,3.9
	l2.1,4.1l1.9,4.1l1.7,4.1l1.4,4.3l1.2,4.1l1,4.1l1.2,8.1l0.2,4l0,3.7l-0.2,3.5l-1.2,6.8l-1,3l-1.2,2.9l-1.5,2.5l-1.7,2.3l-0.8,0.9
	l12.9-7.4l0.6-0.4l2.5-1.8l2.4-2.4l1.8-2.8l0.9-1.5c0-0.1,0.1-0.2,0.2-0.3l0.7-1.2L103.6,135.7z"/>
<path class="st0" d="M138.7,128.3C138.7,128.3,138.7,128.3,138.7,128.3l1.5-1.9l1.5-3.4l0.7-4.2l0.2-5.9l-0.1-6.1v-5.4l-3.9,1.2
	l-0.2,0.1l-0.2,0.2l0,0.1c0,0,0,0,0,0v0l-0.1,0.6c0,0,0,0.1,0,0.1l-0.9,2.4c0,0,0,0.1-0.1,0.1l-1.7,2.3c0,0-0.1,0.1-0.1,0.1
	l-2.3,1.9c0,0-0.1,0-0.1,0.1l-2.6,1.2c0,0,0,0,0,0c0,0,0,0,0,0l-15.8,4.7c0,0,0,0,0,0c0,0,0,0,0,0l-2,0.4c0,0-0.1,0-0.1,0
	c0,0,0,0-0.1,0l-2.3-0.3c-0.1,0-0.1,0-0.2-0.1l-1.5-0.8c0,0,0,0,0,0l-0.2-0.1c-0.1,0-0.1-0.1-0.2-0.1l-0.7-1c0,0,0,0,0,0
	c0,0,0,0,0,0l-0.4-0.6c0-0.1-0.1-0.1-0.1-0.2l-0.3-1.3c0,0,0,0,0,0c-0.1-0.1-0.1-0.2-0.1-0.3l-0.1-0.4c0,0,0,0,0,0c0,0,0,0,0,0v-3.3
	l0,0l-0.1,0l0,0l-1.3,0.3l0.5,2.7l0.6,4.1l0.4,4.1l0,3.7c0,0,0,0,0,0c0,0,0,0,0,0l-0.2,4.5l-0.6,4.2l-1,4l-1.2,3.5c0,0,0,0.1,0,0.1
	l-0.1,0.2L138.7,128.3C138.7,128.4,138.7,128.4,138.7,128.3L138.7,128.3z"/>
<polygon class="st0" points="143.8,77.6 144.9,77 135.2,71.4 134,72 "/>
<polygon class="st0" points="153.5,132.6 154.6,131.9 154.6,93.7 153.5,94.4 "/>
<path class="st0" d="M148.6,146.1l1.2-1.6l0.9-1.8l0.8-2l0.6-2.2l0.3-2.4l0.1-2.6V94.1l-0.1-1.7l-0.4-1.7l-0.5-1.8l-0.7-1.8
	l-0.9-1.8l-1.1-1.6l-1.2-1.6l-1.3-1.4l-1.4-1.1l-1.4-0.9l-10.7-6.1c0,0,0,0,0,0l0,0c-0.1,0-0.1-0.1-0.2-0.1c0,0,0,0,0,0l-2.6-3.9
	l-2.8-3.7l-2.9-3.7l-3-3.5l-3.1-3.4L115,51l-3.3-3l-3.4-2.9l-3.4-2.7l-3.4-2.4L98,37.7l-3.5-2l-3.5-1.8l-3.5-1.5l-3.4-1.3l-3.4-1
	l-3.3-0.7l-3.2-0.5l-3.1-0.2l-3,0L65.5,29l-2.7,0.6l-2.6,0.8c0,0-0.1,0-0.1,0c0,0,0,0,0,0c0,0,0,0,0,0c0,0,0,0,0,0s0,0,0,0
	c0,0,0,0,0,0c-0.1,0-0.1,0-0.2-0.1c0,0,0,0,0,0c0,0,0,0,0,0l-10.7-6.2l-1.4-0.7l-1.3-0.4l-1.2-0.1l-1.1,0.2l-1,0.4l-0.8,0.6L41.6,25
	l-0.5,1.1l-0.3,1.4L40.7,29v12.5l1.3-0.8c0,0,0,0,0,0c0,0,0,0,0,0l0.5-0.2c0,0,0.1,0,0.1,0l0.6,0c0,0,0.1,0,0.1,0l0.6,0.1
	c0,0,0.1,0,0.1,0l0.7,0.3c0,0,0,0,0,0s0,0,0,0l3,1.7l0.1,0.1c0.1,0,0.1,0.1,0.2,0.2l0.1,0.2c0,0,0.1,0.1,0.1,0.1l0.1,0.2
	c0,0,0,0,0,0c0,0,0,0.1,0,0.1l0.9,0.1l3.1,0.6l0.9,0.2l0.7-2.6l2.5-5.2c0,0,0,0,0,0c0,0,0,0,0,0l0.9-1.3l1-1.3l1.2-1.1l1.2-0.9
	l1.3-0.8l0.2-0.1l0,0c0.1,0,0.1-0.1,0.2-0.1l1.1-0.5l1.5-0.5l1.6-0.3c0,0,0,0,0,0c0,0,0,0,0,0l4.5-0.3l4.8,0.4l2.4,0.5l0,0
	c0,0,0.1,0,0.1,0l2.5,0.5l5.1,1.6l5.2,2.2l5.2,2.8c0,0,0,0,0,0c0,0,0,0,0,0l5.2,3.3l5.2,3.8l5.1,4.3l5,4.7l4.8,5.1l4.5,5.5
	c0,0,0,0,0,0c0,0,0,0,0,0l1.5,2l1.5,2.1l1.4,2.2l1.3,2.3l1.2,2.3l1.1,2.4l1,2.4l0.9,2.4c0,0,0,0,0,0c0,0,0,0,0,0l2.4,7.9l1.6,7.8
	c0,0,0,0,0,0c0,0,0,0,0,0l0.1,0.9c0,0.1,0,0.2,0,0.3l0.1,0.6l3.2-0.9c0,0,0,0,0,0c0,0,0,0,0,0l0.3-0.1c0,0,0.1,0,0.1,0h0.4
	c0,0,0.1,0,0.1,0l0.4,0.1c0,0,0.1,0,0.1,0l0.2,0.1c0,0,0,0,0.1,0c0,0,0,0,0.1,0l3,1.8c0,0,0,0,0,0c0,0,0,0,0,0l0,0c0,0,0,0,0,0
	l0.6,0.5l0.7,0.6l0.7,0.8l0.5,0.8l0.5,0.9l0.4,1l0.2,0.9l0.1,0.9c0,0,0,0,0,0l0,0c0,0,0,0,0,0c0,0,0,0,0,0v12.2c0,0,0,0,0,0
	c0,0,0,0,0,0l0,1.5l-0.3,2.9l-0.2,1.4l-0.3,1.3l-0.4,1.3l-0.9,2.4c0,0,0,0,0,0c0,0,0,0,0,0l-0.2,0.4c0,0.1-0.1,0.1-0.1,0.1l-0.6,0.5
	c0,0,0,0,0,0c0,0,0,0,0,0l-1.6,0.9l-0.1,0.1c0,0-0.1,0-0.1,0.1l-0.4,0.1c0,0-0.1,0-0.1,0l-0.5,0c0,0,0,0,0,0c0,0-0.1,0-0.1,0
	l-0.5-0.1l-0.5-0.2l-0.6-0.3c0,0,0,0,0,0c0,0,0,0,0,0l-4.5-2.6l-0.4-0.1c0,0,0,0,0,0c0,0,0,0,0,0l-0.3-0.1l-0.1,0l-15.6,5v0.3
	c0,0,0,0,0,0c0,0,0,0,0,0l-0.1,0.7c0,0,0,0.1-0.1,0.1l-0.1,0.2c0,0.1-0.1,0.1-0.2,0.2l-0.2,0.1c0,0,0,0,0,0c0,0,0,0,0,0l-2.7,1.6
	c0,0,0,0,0,0c0,0,0,0-0.1,0l-0.6,0.1c0,0,0,0-0.1,0c0,0-0.1,0-0.1,0l-0.3-0.1l-0.4-0.2c0,0,0,0,0,0c0,0,0,0,0,0l-1.8-1l-3.5,1.1
	l15.9,9.2l2.3,1.2l2.3,1l2.2,0.6l2.1,0.3l2.1,0.1l1.9-0.2l1.8-0.5l1.6-0.8l0,0l1.5-1L148.6,146.1z M50.7,31.1l0,0.3
	c0,0.1,0,0.2,0,0.3l0,0.2c0,0.1,0,0.1-0.1,0.2l-0.4,0.6c0,0.1-0.1,0.1-0.1,0.2l-0.5,0.4c-0.1,0.1-0.2,0.1-0.3,0.1l-0.7,0
	c0,0,0,0,0,0c0,0-0.1,0-0.1,0l-0.8-0.2c-0.1,0-0.1,0-0.2-0.1l-0.8-0.5l-0.8-0.8l-0.7-1l-0.5-1.1l-0.3-1c0,0,0-0.1,0-0.1v-0.9
	c0-0.1,0-0.1,0-0.2l0.3-0.7c0-0.1,0.1-0.1,0.1-0.2l0.4-0.5c0.1-0.1,0.1-0.1,0.2-0.2l0.6-0.2c0.1,0,0.1,0,0.2,0l0.7,0.1
	c0.1,0,0.1,0,0.2,0.1l0.1,0c0.1,0,0.1,0.1,0.2,0.1l0.5,0.2l0.8,0.7l0.8,0.9c0,0,0,0.1,0.1,0.1l0.5,1l0.4,1.1c0,0,0,0.1,0,0.1
	l0.1,0.9C50.7,31,50.7,31.1,50.7,31.1z M148.6,87.7l0,0.3c0,0.1,0,0.2,0,0.2c0,0,0,0,0,0l0,0.2c0,0.1,0,0.1-0.1,0.2l-0.4,0.6
	c0,0.1-0.1,0.1-0.1,0.2l-0.5,0.4c-0.1,0-0.2,0.1-0.2,0.1l-0.7,0.1c0,0,0,0-0.1,0c-0.1,0-0.1,0-0.2,0l-0.8-0.3c0,0-0.1,0-0.1-0.1
	l-0.8-0.5c0,0-0.1,0-0.1-0.1l-0.7-0.8l-0.7-1l-0.5-1l-0.3-1.1c0,0,0-0.1,0-0.1v-0.9c0-0.1,0-0.1,0-0.2l0.3-0.7
	c0-0.1,0.1-0.1,0.1-0.2l0.4-0.5c0.1-0.1,0.1-0.1,0.2-0.1l0.6-0.2c0.1,0,0.2,0,0.2,0l0.7,0.1c0,0,0.1,0,0.1,0l0,0
	c0.1,0,0.2,0.1,0.3,0.1l0.4,0.2c0,0,0.1,0,0.1,0.1l0.8,0.6l0.7,0.9l0.6,1l0.4,1.1c0,0,0,0.1,0,0.1l0.1,1
	C148.6,87.6,148.6,87.6,148.6,87.7z M142.6,140.4l0,0.3c0,0.1,0,0.2,0,0.2c0,0,0,0,0,0l0,0.2c0,0.1,0,0.1-0.1,0.2l-0.4,0.6
	c0,0.1-0.1,0.1-0.1,0.2l-0.5,0.4c-0.1,0-0.2,0.1-0.2,0.1l-0.7,0.1c0,0,0,0-0.1,0c-0.1,0-0.1,0-0.2,0l-0.8-0.3c0,0-0.1,0-0.1-0.1
	l-0.8-0.5c0,0-0.1,0-0.1-0.1l-0.7-0.8l-0.7-1l-0.5-1.1c0,0,0-0.1,0-0.1l-0.2-1c0,0,0-0.1,0-0.1v-0.9c0,0,0-0.1,0-0.1l0.2-0.7
	c0-0.1,0.1-0.1,0.1-0.2l0.4-0.5c0.1-0.1,0.1-0.1,0.2-0.1l0.6-0.2c0.1,0,0.2,0,0.2,0l0.7,0.1c0,0,0.1,0,0.1,0l0,0
	c0.1,0,0.2,0.1,0.3,0.1l0.4,0.2c0,0,0.1,0,0.1,0.1l0.8,0.6l0.7,0.9c0,0,0,0.1,0.1,0.1l0.5,1l0.4,1c0,0,0,0.1,0,0.1l0.1,1
	C142.6,140.3,142.6,140.4,142.6,140.4z"/>
<polygon class="st0" points="153.3,136.1 153,138.6 152.4,141 151.6,143.1 150.7,144.9 150.7,144.8 151.9,143.2 152.8,141.4 
	153.6,139.4 154.2,137.2 154.5,134.8 154.6,133.1 153.5,133.8 "/>
<path class="st0" d="M146.1,87.1C146,87,146,87,146.1,87.1l-0.7-1l-0.5-1l-0.2-1.1c0,0,0-0.1,0-0.1v-0.5l-0.4-0.1l-0.4,0.1l-0.3,0.3
	l-0.2,0.5V85l0.2,0.9l0.4,0.9l0.6,0.8l0.6,0.6l0.7,0.4l0.6,0.2l0.4,0l0.3-0.2l0.2-0.4l-0.7-0.5L146.1,87.1z"/>
<path class="st0" d="M78.7,157.5l1.8-2l1.6-2.2l1.4-2.4l1.2-2.8l1-2.8l1.2-6.7l0.2-3.4l0-3.7l-0.2-3.9l-1.2-8l-1-4.1l-1.2-4.1
	l-1.4-4.3l-1.6-4.1l-1.8-4.1l-2-4.1l-2.2-3.9l-4.9-7.8l-2.6-3.5l-2.9-3.5L61,73.2l-3.1-3.1l-3.1-2.9l-3.2-2.4l-3.3-2.2l-3.1-2.1
	L42,58.9l-3.3-1.4l-3.1-1.2l-3-0.8l-3-0.4l-3-0.2L24,55l-2.8,0.4l-2.4,0.8l-2.1,0.9l-0.9,0.5c0,0,0,0-0.1,0l-1.6,1l-2,1.6l-1.8,2
	l-1.6,2.2l-1.4,2.4l-1.2,2.6l-1,3l-1.2,6.5l-0.2,3.6l0,3.7l0.2,3.9l1.2,8l1,4.1l0.9,3l-0.2-0.9c0,0,0-0.1,0-0.1v-0.7L6.6,103
	c0-0.1,0-0.1,0-0.2V102l-0.2-0.8c0,0,0-0.1,0-0.1v-1.6l-0.2-0.5c0-0.1,0-0.1,0-0.2v-4.7v-4.1c0,0,0-0.1,0-0.1l0.2-0.8v-1.6
	c0,0,0-0.1,0-0.1l0.2-0.8v-0.6c0,0,0-0.1,0-0.1l0.2-0.8v-0.8c0,0,0-0.1,0-0.1L7,83.6v-0.8c0-0.1,0-0.1,0-0.2l0.2-0.6l0.1-0.4
	l0.3-2.4l0.6-3.1l1-2.9l1.2-2.7L12,68l1.5-2.1l1.9-1.9l2.1-1.5l0.2-0.1l0.8-0.7c0.2-0.1,0.4-0.2,0.6-0.1l0.8-0.4l2.5-1l2.5-0.6
	l2.8-0.2l2.7,0l2.9,0.4l3.1,0.8l3.1,1l3.1,1.2l3.1,1.7c0,0,0,0,0,0c0,0,0,0,0,0l3.1,1.8l3.1,2.3l2.9,2.5l3.1,2.9l2.9,2.9l2.9,3.1
	l2.7,3.5l2.5,3.5l2.3,3.5l2.3,3.9l2.1,3.9l1.9,3.9l1.7,3.9l1.4,4.1l2.1,7.8l0.6,4l0.4,3.9l0.2,3.7l0,3.5l-0.8,6.6l-0.8,3l-1,2.9
	l-1.5,2.5l-1.4,2.3l-1.7,1.9l-2.1,1.9l-1.3,0.8c0,0.1-0.1,0.3-0.3,0.3l-1.2,0.6l-1.1,0.4l-0.6,0.3l-2.5,0.8l-2.8,0.4l-2.7,0.2
	l-2.9-0.2l-2.9-0.6l-3.1-0.8l-4.2-1.7l-0.5-0.1l-0.7-0.2l-0.9-0.4l-0.6-0.2l-0.9-0.4l-0.6-0.2l-0.9-0.4l-0.6-0.4l-0.7-0.2
	c-0.1,0-0.1,0-0.2-0.1l-0.6-0.4l-0.8-0.4l-0.5-0.2c0,0-0.1,0-0.1-0.1l-0.6-0.4l-0.8-0.4l-1.3-0.9l-0.8-0.4L35,148l-0.8-0.4
	c0,0-0.1-0.1-0.1-0.1l-0.6-0.6l-1.8-1.2l-0.7-0.7l-0.5-0.4l-0.7-0.7l-0.5-0.3l0.8,0.9l3.1,3.1l6.1,5.3l3.2,2.2l3.3,2l3.1,1.6
	l3.3,1.4l3.2,1l3.1,0.8l3.1,0.6l2.8,0.2l2.8-0.2l2.6-0.4l2.4-0.8l2.4-1l0.5-0.3c0,0,0.1-0.1,0.1-0.1l0.4-0.2l1.3-0.8L78.7,157.5z"/>
<polygon class="st0" points="146.3,85.6 146.8,86.4 147.5,87.1 147.6,87.1 147.5,86.8 147.2,85.8 146.7,84.9 146.1,84.2 145.7,83.8 
	145.9,84.7 "/>
<path class="st0" d="M140.1,139.8C140,139.8,140,139.8,140.1,139.8l-0.7-1l-0.5-1l-0.2-1.1c0,0,0-0.1,0-0.1v-0.5l-0.3-0.1l-0.4,0.1
	l-0.3,0.3l-0.2,0.5v0.8l0.2,0.9l0.4,0.9l0.6,0.8l0.6,0.7l0.7,0.4l0.6,0.2l0.4,0l0.3-0.2l0.2-0.4l-0.7-0.5L140.1,139.8z"/>
<path class="st0" d="M144.2,100.3c0,0,0.1,0,0.1,0l0.3,0.1c0,0,0,0,0,0c0,0,0,0,0,0l2.2,1.3l0.6-0.4l-2.2-1.3l-0.1,0
	c0,0-0.1,0-0.1,0l-0.3-0.1l-0.5,0.1l-0.8,0.2l0.3,0L144.2,100.3z"/>
<polygon class="st0" points="147.7,102.3 148.4,103 149.1,103.7 149.6,104.6 150.1,105.5 150.4,106.4 150.6,107.3 150.7,107.4 
	151.3,107 151.3,106.5 151.1,105.7 150.8,104.9 150.4,104.1 149.9,103.4 149.3,102.7 148.7,102.2 148.4,101.9 147.7,102.3 "/>
<polygon class="st0" points="137.3,102.1 137.5,102.2 137.5,102.2 137.3,102.1 "/>
<path class="st0" d="M137.5,98.3l-2.3-1.3l-0.6,0.4l5.1,3l0.1,0l-0.1-0.7l-2-1.2C137.6,98.3,137.5,98.3,137.5,98.3z"/>
<polygon class="st0" points="150.7,119.6 151.4,119.2 151.4,108.2 150.7,108.5 "/>
<path class="st0" d="M141.5,126.9l1.5-3.6l0.8-4.3l0.1-4.3l0-4.4v-9l-0.2-0.1l-0.1,0v5.6l0.1,6.1l-0.2,6l-0.8,4.3c0,0,0,0.1,0,0.1
	l-1.5,3.6c0,0,0,0.1-0.1,0.1l-1,1.3l0.3,0.1l0,0L141.5,126.9z"/>
<path class="st0" d="M149.2,126l0.2-1.3l0.2-2.8l0-1.5v-12.2l-0.1-0.8l-0.2-0.8l-0.3-0.8l-0.4-0.8l-0.5-0.7l-0.6-0.7l-0.6-0.5
	l-0.6-0.4l-1.6-1l0,12.9l-0.1,4.4l-0.8,4.5c0,0,0,0.1,0,0.1l-1.6,3.7c0,0,0,0.1-0.1,0.1l-1.1,1.4l4,2.3l0.5,0.2l0.7,0.2l0.3,0
	l0.3-0.1l0.2-0.2l0.2-0.2l0.2-0.3l0.9-2.3L149.2,126z"/>
<polygon class="st0" points="150.7,121.9 150.4,124.8 150.2,126.2 149.6,128.8 149.2,129.9 149.4,129.8 150.2,127.6 150.6,126.4 
	150.9,125.1 151.1,123.8 151.3,120.9 151.3,120.4 150.7,120.7 "/>
<polygon class="st0" points="96,76.3 92.2,78 92.5,78.4 96.2,76.6 "/>
<path class="st0" d="M24.1,137.6l0.5,0.4c0.1,0,0.1,0.1,0.1,0.1l0.4,0.6l1.2,1.2l0.5,0.3c0.1,0,0.1,0.1,0.1,0.1l0.4,0.5l0.5,0.4
	l1.3,1.3l1.2,0.8l0.7,0.7l0.5,0.4l0.7,0.7l1.8,1.2l0.6,0.6l0.8,0.4l1.9,1.3l0.8,0.4l1.3,0.9l0.8,0.4l0.6,0.4l0.6,0.2l0.9,0.4
	l0.6,0.4l0.7,0.2c0.1,0,0.1,0,0.2,0.1l0.6,0.4l0.8,0.4l0.6,0.2l0.9,0.4l0.6,0.2l0.9,0.4l0.5,0.2c0.1,0,0.2,0,0.3,0L49,154l1.1,0.3
	c0.1,0,0.1,0,0.2,0.1l0.5,0.4l1.6,0.4l0.7,0.2l1.6,0.4l0.7,0.2l1.7,0.4c0,0,0.1,0,0.1,0c0.1,0,0.2,0,0.2,0l0.8,0.2l3,0.4l2.6,0
	l2.6-0.2l2.4-0.6l1.3-0.4l1.7-0.8l2-1.2l2-1.8l1.6-1.8l1.4-2.2l1.4-2.4l1-2.8l0.8-2.8l0.8-6.5l0-3.4l-0.2-3.7l-0.4-3.9l-0.6-3.9
	l-2-7.8l-1.4-4.1l-1.6-3.9l-1.8-3.9l-2-3.9l-2.2-3.9l-2.2-3.5l-2.5-3.5L63,80.7l-2.8-3l-2.9-2.9l-3.1-2.9l-2.9-2.5l-3.1-2.2l-3-1.8
	l-3.1-1.6l-3-1.2l-3.1-1l-3.1-0.8l-2.8-0.4l-2.6,0L25,60.6l-2.4,0.6l-2.4,1l-2,1.1l-0.6,0.5l-2.1,1.7l-1.6,1.8l-1.4,2.2L11.2,72
	l-1,2.6c0,0,0,0,0,0c0,0,0,0.1,0,0.1s0,0.1,0,0.1c0,0,0,0,0,0l-0.4,0.5L9.4,77l-0.2,0.7l-0.6,2.2v0.7c0,0,0,0.1,0,0.1l-0.3,1l-0.1,1
	l0,0.6c0,0.2-0.1,0.3-0.2,0.4v0c0,0,0,0.1,0,0.1l-0.2,0.8v0.8c0,0,0,0.1,0,0.1l-0.2,0.8v0.6c0,0,0,0.1,0,0.1l-0.2,0.8v1.6
	c0,0,0,0.1,0,0.1l-0.2,0.8v4v4.6l0.2,0.5c0,0.1,0,0.1,0,0.2v1.6l0.2,0.8c0,0,0,0.1,0,0.1v0.7l0.2,0.5c0,0.1,0,0.1,0,0.2v0.8l0.6,2.4
	c0,0,0,0.1,0,0.1v0.6l1.8,6.8l0.4,0.5c0,0,0.1,0.1,0.1,0.2l0.4,1.4l0.4,1c0,0.1,0,0.2,0,0.3l0.2,0.3l0.2,0.7l0.4,0.8l0.2,0.7
	l0.4,0.8l0.4,0.6c0,0,0.1,0.1,0.1,0.2l0.2,0.7l0.4,0.5l0.4,0.9l0.2,0.6l0.4,0.6l0.4,0.9l0.8,1.2l0.4,0.9l1.2,1.8l0.4,0.8l0.6,0.6
	l1.3,1.9l0.6,0.5l0.3,0.5c0.2,0,0.3,0.1,0.4,0.3l0.2,0.3l0.1,0.1L22,135l0.9,1.2l0.8,0.8L24.1,137.6z"/>
<path class="st0" d="M96.7,85.9L96.7,85.9l3.4-4.3l-5.5-3.2L93,79.2l1.6,2.6c0,0,0,0,0,0c0,0,0,0,0,0L96.7,85.9z"/>
<polygon class="st0" points="87.9,71.7 89.7,74.2 91.7,77.2 95,75.7 "/>
<polygon class="st0" points="177.3,69.2 177.2,70 176.8,71.1 178.7,70 179.1,69.7 179.4,69.4 179.8,69 180,68.5 180.2,68 
	180.4,67.3 180.4,66.9 177.3,68.7 "/>
<path class="st0" d="M96.4,75.3C96.4,75.3,96.4,75.3,96.4,75.3C96.4,75.3,96.4,75.3,96.4,75.3c0.1,0.1,0.1,0.1,0.1,0.1c0,0,0,0,0,0
	c0,0,0,0,0,0l0.8,1l13.1,7.6l3.4,0.1l5.8,0.7l4.1,0.9l3.8,1.3l3.4,1.7l2.8,2c0,0,0.1,0,0.1,0.1l1.9,2l1.5,2.2c0,0,0,0.1,0.1,0.1
	l0.9,2.5l1.3,0.8l-1.6-7.7l-2.4-7.8l-0.9-2.4l-1-2.3l-1.1-2.3l-1.2-2.3l-1.3-2.3l-1.4-2.2l-1.5-2.1l-1.5-2l-4.5-5.5l-4.7-5l-4.9-4.7
	l-5-4.2l-5.1-3.7l-5.1-3.2l-5.2-2.7l-5.1-2.1l-5-1.6l-2.5-0.5l-2.9-0.1l-6.4-0.2l-3.4,0.1c-0.1,0-0.2,0-0.2-0.1l-0.1,0l-1.4,0.4
	l-1.1,0.5L62,33l-1,1L60,35.1l-0.8,1.3l-2.4,5l-1.1,3.8l0,0l6.6,2.9l3.1,1.9l3.3,2.3l3.3,2.5l3.1,2.7l3.1,2.9l3.1,3.1l2.9,3.5
	l2.2,2.9c0,0,0.1,0,0.1,0L96.4,75.3z"/>
<path class="st0" d="M101.1,81.1l35.3,20.4l0.2-0.2c0,0,0.1-0.1,0.1-0.1l0.4-0.2c0,0,0,0,0,0c0,0,0,0,0,0l0.5-0.1L96.9,77.4
	l-1.2,0.6L101.1,81.1C101.1,81.1,101.1,81.1,101.1,81.1z"/>
<polygon class="st0" points="57.6,37.3 57.5,37.4 55.1,42.3 54.4,44.9 54.7,45 55.8,41 "/>
<path class="st0" d="M149.5,7.7c0,0,0-0.1,0-0.1l-0.3-1.2c0,0,0-0.1,0-0.1l0-0.5l0,0.1l0,0.6l0.1,0.6L149.5,7.7l0,0.1l0.1,0
	L149.5,7.7z"/>
<path class="st0" d="M171,29.4C171,29.3,171,29.3,171,29.4c-0.1-0.1-0.1-0.1-0.1-0.1l-0.1-0.1c0,0,0,0,0,0c0,0,0,0,0-0.1l-1.1-2
	c0,0,0,0,0,0l0,0l-1.4-2.4l-3.3,1.9l10,17.3l3.3-1.9L171,29.4z"/>
<polygon class="st0" points="181.7,66.3 181.8,66.4 183,65.6 183,65.6 "/>
<path class="st0" d="M184.7,63.2l0,0.3l-0.1,0.6c0,0,0,0.1,0,0.1l0.4,0.7l0.3,0.5l0.4,0.4l0.4,0.3l0.4,0.2l0.4,0.1h0.4l0.4-0.1
	l0.4-0.1l2-1.2l-2.5-4.1c0,0.1,0,0.1-0.1,0.2l-0.4,0.5c0,0-0.1,0.1-0.1,0.1l-0.3,0.2c0,0,0,0,0,0c0,0,0,0,0,0L184.7,63.2z"/>
<path class="st0" d="M186.1,67.1l-0.5-0.3l-0.5-0.4l-0.5-0.5l-0.1-0.2c0,0,0,0-0.1,0l0.1,0.1l0.5,0.5l0.5,0.4L186.1,67.1l0.5,0.1
	L186.1,67.1C186.2,67.2,186.2,67.1,186.1,67.1z"/>
<polygon class="st0" points="167,22.5 165.8,21.2 164.6,20 163.6,19.3 160.4,21.2 161.7,22.2 163,23.6 163.6,24.4 164.4,25.6 
	167.7,23.7 "/>
<polygon class="st0" points="168.9,23.6 168.9,23.6 168.9,23.6 169.3,24.4 169.3,24.4 169.8,24.9 170.3,25.9 170.6,26.5 171.5,28.1 
	178.3,24.2 178.4,23.8 178.5,23.1 178.4,22.3 178.1,21.4 177.6,20.5 177,19.8 176.3,19.3 175.7,19 175.2,19 174.8,19.1 168.4,22.8 
	"/>
<path class="st0" d="M186.5,57.4c0,0,0.1-0.1,0.1-0.1c0,0,0,0,0,0l1.5-0.9l0.1-0.1l0.3-0.4l0.1-0.6l0-0.8l-0.3-0.9l-0.4-0.9
	l-0.3-0.4l-6.2,3.6v4.3L186.5,57.4z"/>
<polygon class="st0" points="163.8,18.3 163.8,18.3 164.5,18.7 165.2,19.2 165.9,19.8 166.6,20.5 167.2,21.2 167.8,22 167.8,22 
	173.5,18.6 173.5,18.2 173.4,17.3 173.1,16.4 172.7,15.6 172.1,14.8 171.4,14.3 170.8,14 170.3,13.9 169.9,14 163.2,17.9 
	163.8,18.3 "/>
<polygon class="st0" points="177.3,51.5 177.3,67.5 180.4,65.7 180.4,49.7 "/>
<path class="st0" d="M165,64.7l0.3-1l0.4-4.1l-0.4-4.5l-0.9-3.9l-0.4,1.6l-1.1,3.6l-1.4,3.5l-1.7,3.3l-2.2,2.8c0,0-0.1,0.1-0.1,0.1
	l-2.7,2.1c0,0-0.1,0.1-0.1,0.1l-3.1,1.2l-3.6,0.7l-4,0.4l-4.2,0.3l-2.8,0.3l9.3,5.4c0,0,0,0,0,0c0,0,0,0,0,0l1.4,0.9l1.5,1.3
	l1.4,1.4l1.3,1.6l1.1,1.7l1,1.9l0.8,1.9l0.6,1.9l0.4,1.8l0.1,1.8c0,0,0,0,0,0c0,0,0,0,0,0v0.5l0.1-0.2l1.8-4.1l1.4-3.6l1.5-4.4
	l1-3.2l1.1-3.8L165,65C164.9,64.9,164.9,64.8,165,64.7z"/>
<path class="st0" d="M176.3,36.5l0.2,0.2l0.8,0.8l0.6,1l0.4,1l0.2,0.8l0.4,0.8l6.7-3.8c0,0,0,0,0,0l0.4-0.4l0.2-0.5l0-0.7l-0.2-0.9
	l-0.4-0.9l-0.5-0.8l-0.6-0.6l-0.7-0.5l-0.6-0.2h-0.5l-6.9,4L176.3,36.5z"/>
<path class="st0" d="M150.5,5.1l-0.2,0.4l-0.1,0.4l0,0.4l0.2,1l0.3,0.5c0,0,0,0,0,0l0.4,0.7c0,0,0,0,0.1,0l0.5,0.1l2.5-1.4
	c0,0,0,0,0,0c0,0,0,0,0,0l0.2-0.1c0,0,0.1,0,0.1,0l0.6-0.1c0.1,0,0.1,0,0.2,0l0,0l-2.1-3.6l-2,1.2l-0.3,0.2L150.5,5.1z"/>
<path class="st0" d="M148.7,10.7l-3.2,1.8l13.9,8l3.2-1.8l-6.2-3.6c0,0,0,0,0,0l-0.2-0.1c0,0,0,0-0.1,0l-6.9-4c-0.1,0-0.1,0-0.2-0.1
	L148.7,10.7z"/>
<polygon class="st0" points="180.3,47.3 180,45.6 179.7,44.8 178.9,43.1 178.7,42.8 175.5,44.7 176.1,46 176.4,46.9 176.7,47.8 
	177.2,49.5 177.3,50.4 177.3,50.4 180.4,48.6 "/>
<polygon class="st0" points="67.4,27.8 67.4,27.8 67.5,27.8 "/>
<path class="st0" d="M179,25.3l-6.9,4l0,0.1l0.3,0.2l0.8,0.6c0,0,0.1,0,0.1,0.1l0.7,0.8l0.6,1l0.4,1l0.2,1l0,0.6l0,0.1l7.1-4.1
	l0.3-0.3l0.2-0.5l0.1-0.7l-0.2-0.9l-0.4-0.9l-0.5-0.8l-0.6-0.7l-0.6-0.5l-0.6-0.3l-0.5,0l-0.3,0.1l0,0C179.1,25.2,179,25.2,179,25.3
	z"/>
<path class="st0" d="M143.4,11.5l0.7,0.3l0.5,0.3l3.1-1.8l-0.3-0.1c0,0,0,0,0,0l-0.2-0.1l-0.1,0c0,0,0,0,0,0c-0.1,0-0.1,0-0.2,0
	c-0.1,0-0.3-0.1-0.3-0.2L146,9.7l-0.5,0l-0.5,0.1l-0.4,0.1l-0.4,0.2c0,0,0,0,0,0l-1.8,1.1l0.4,0.1L143.4,11.5z"/>
<polygon class="st0" points="42.2,42.6 41.7,42.4 41.3,42.5 40.9,42.6 40.6,42.8 40.4,43.3 40.2,43.6 40.5,43.6 43.4,43.4 
	43.7,43.4 42.8,42.8 "/>
<polygon class="st0" points="179.8,42.7 180.6,44.4 180.9,45.3 181.3,47.1 181.4,47.8 187.9,44.1 187.9,44.1 187.9,44 188.2,43.7 
	188.4,43.2 188.4,42.5 188.2,41.6 187.8,40.7 187.2,39.9 186.6,39.2 186,38.8 185.5,38.6 179.5,42.1 "/>
<polygon class="st0" points="49.9,22.2 48.6,21.8 47.3,21.7 46.2,21.9 45.9,22 46.6,22.1 48,22.5 49.3,23.1 50.4,22.5 "/>
<path class="st0" d="M181.4,53.3l0.1,0.5l0,1c0,0,0,0,0,0l7.1-4.1l0.1,0l0.3-0.4l0.2-0.5l0-0.8L189,48l-0.4-0.8l-0.6-0.8l-0.7-0.6
	l-0.1-0.1l-5.8,3.4V53.3z"/>
<polygon class="st0" points="149.3,5.3 149.3,5.4 149.3,5.3 "/>
<polygon class="st0" points="158.1,14.9 158.7,15.4 158.8,15.4 162.2,17.3 168.2,13.8 168.2,13.7 167.9,12.9 167.5,12 166.9,11.2 
	166.2,10.7 165.6,10.3 165.1,10.3 164.6,10.4 163.3,11.1 163.3,11.1 163.3,11.1 157.5,14.5 "/>
<polygon class="st0" points="183.5,64.1 183.6,63.8 181.4,65.1 181.4,65.3 183.3,64.3 "/>
<path class="st0" d="M162.5,10.4l-0.2-0.4l-0.6-0.8L161,8.7l-0.6-0.4l-0.6-0.1l-0.4,0.1c0,0,0,0,0,0c0,0,0,0,0,0L153,12l3.4,2
	L162.5,10.4z"/>
<path class="st0" d="M184.1,62.4l2.2-1.3l0.2-0.1l0.3-0.4l0.1-0.6l-0.1-0.8l-0.2-0.6l-5.1,3v2.4l2.5-1.4
	C184,62.4,184,62.4,184.1,62.4z"/>
<path class="st0" d="M156.2,8.4C156.2,8.4,156.2,8.4,156.2,8.4l-0.5-0.3L155.1,8L154.5,8L152,9.5c0,0-0.1,0-0.1,0l-1.6,0.9l1.6,0.9
	l4.6-2.7l-0.3-0.3L156.2,8.4z"/>
<polygon class="st0" points="147.5,6.2 147.2,6.7 147.1,7.2 147.1,7.8 147.2,8.5 147.3,9 147.5,9 147.6,9.1 148.6,8.4 148.5,8.1 
	148.2,7.3 148.2,6.5 148.2,5.8 148.3,5.5 148.2,5.5 148.1,5.6 147.8,5.8 "/>
<g>
	<path class="st1" d="M50.5,29.9l-0.4-1.1l-0.5-1c0,0,0-0.1-0.1-0.1l-0.8-0.9L48,26.2L47.5,26l-0.2-0.1l-0.1,0c-0.1,0-0.1,0-0.2-0.1
		l-0.7-0.1c-0.1,0-0.1,0-0.2,0l-0.6,0.2c-0.1,0-0.2,0.1-0.2,0.2l-0.4,0.5c0,0-0.1,0.1-0.1,0.2l-0.3,0.7c0,0.1,0,0.1,0,0.2v0.9
		c0,0,0,0.1,0,0.1l0.3,1l0.5,1.1l0.7,1l0.8,0.8l0.8,0.5c0,0,0.1,0.1,0.2,0.1l0.8,0.2c0,0,0.1,0,0.1,0c0,0,0,0,0,0l0.7,0
		c0.1,0,0.2,0,0.3-0.1l0.5-0.4c0.1,0,0.1-0.1,0.1-0.2l0.4-0.6c0-0.1,0.1-0.1,0.1-0.2l0-0.2l0-0.3l0-0.3c0,0,0-0.1,0-0.1L50.6,30
		C50.6,30,50.5,30,50.5,29.9z M48.1,27.6l0.7,0.8l0.5,0.9l0.3,1l0,0.4l-0.1-0.1l-0.6-0.7L48.3,29l-0.4-0.9l-0.2-0.8L48.1,27.6z
		 M49.3,32.1L49,32.3l-0.5,0L48,32.2l-0.6-0.4l-0.7-0.6l-0.6-0.8l-0.4-0.9l-0.2-0.9v-0.8l0.2-0.5l0.3-0.3l0.4-0.1l0.4,0v0.5
		c0,0,0,0.1,0,0.1l0.2,1.1l0.5,1.1l0.7,1l0.7,0.8c0,0,0.1,0.1,0.1,0.1l0.7,0.4L49.3,32.1z"/>
	<path class="st1" d="M148.5,86.5l-0.4-1.1l-0.6-1l-0.7-0.9l-0.8-0.6c0,0-0.1-0.1-0.1-0.1l-0.4-0.2l-0.3-0.1l0,0c0,0-0.1,0-0.1,0
		l-0.7-0.1c-0.1,0-0.2,0-0.2,0l-0.6,0.2c-0.1,0-0.1,0.1-0.2,0.1l-0.4,0.5c0,0.1-0.1,0.1-0.1,0.2l-0.3,0.7c0,0.1,0,0.1,0,0.2v0.9
		c0,0,0,0.1,0,0.1l0.3,1.1l0.5,1l0.7,1l0.7,0.8c0,0,0.1,0,0.1,0.1l0.8,0.5c0,0,0.1,0,0.1,0.1l0.8,0.3c0.1,0,0.1,0,0.2,0
		c0,0,0,0,0.1,0l0.7-0.1c0.1,0,0.2,0,0.2-0.1l0.5-0.4c0.1,0,0.1-0.1,0.1-0.2l0.4-0.6c0-0.1,0.1-0.1,0.1-0.2l0-0.2c0,0,0,0,0,0
		c0-0.1,0-0.2,0-0.2l0-0.3c0,0,0-0.1,0-0.1l-0.1-1C148.5,86.6,148.5,86.5,148.5,86.5z M146.1,84.2l0.6,0.7l0.5,0.9l0.3,1l0,0.4
		l-0.1-0.1l-0.7-0.7l-0.5-0.8l-0.4-0.9l-0.2-0.9L146.1,84.2z M147.3,88.7l-0.3,0.2l-0.4,0l-0.6-0.2l-0.7-0.4l-0.6-0.6l-0.6-0.8
		l-0.4-0.9l-0.2-0.9v-0.8l0.2-0.5l0.3-0.3l0.4-0.1l0.4,0.1v0.5c0,0,0,0.1,0,0.1l0.2,1.1l0.5,1L146,87c0,0,0,0.1,0.1,0.1l0.8,0.8
		l0.7,0.5L147.3,88.7z"/>
	<path class="st1" d="M142.5,139.2l-0.4-1l-0.5-1c0,0,0-0.1-0.1-0.1l-0.7-0.9l-0.8-0.6c0,0-0.1-0.1-0.1-0.1l-0.4-0.2l-0.3-0.1l0,0
		c0,0-0.1,0-0.1,0l-0.7-0.1c-0.1,0-0.2,0-0.2,0l-0.6,0.2c-0.1,0-0.1,0.1-0.2,0.1l-0.4,0.5c-0.1,0.1-0.1,0.1-0.1,0.2l-0.2,0.7
		c0,0,0,0.1,0,0.1v0.9c0,0,0,0.1,0,0.1l0.2,1c0,0,0,0.1,0,0.1l0.5,1.1l0.7,1l0.7,0.8c0,0,0.1,0.1,0.1,0.1l0.8,0.5c0,0,0.1,0,0.1,0.1
		l0.8,0.3c0.1,0,0.1,0,0.2,0c0,0,0,0,0.1,0l0.7-0.1c0.1,0,0.2,0,0.2-0.1l0.5-0.4c0.1,0,0.1-0.1,0.1-0.2l0.4-0.6
		c0-0.1,0.1-0.1,0.1-0.2l0-0.2c0,0,0,0,0,0c0-0.1,0-0.2,0-0.2l0-0.3c0,0,0-0.1,0-0.1l-0.1-1C142.5,139.3,142.5,139.2,142.5,139.2z
		 M140.1,136.9l0.6,0.8l0.5,0.9l0.3,0.9l0,0.4l-0.1-0.1l-0.7-0.7l-0.5-0.8l-0.4-0.9l-0.2-0.9L140.1,136.9z M141.3,141.4l-0.3,0.2
		l-0.4,0l-0.6-0.2l-0.7-0.4l-0.6-0.7l-0.6-0.8l-0.4-0.9l-0.2-0.9V137l0.2-0.5l0.3-0.3l0.4-0.1l0.3,0.1v0.5c0,0,0,0.1,0,0.1l0.2,1.1
		l0.5,1l0.6,0.9c0,0,0,0.1,0.1,0.1l0.8,0.8l0.7,0.5L141.3,141.4z"/>
	<path class="st1" d="M191.7,65.1l0-0.1c0,0,0-0.1,0-0.1l-0.1-0.1c0,0,0,0,0,0c0,0,0,0,0,0l-4-6.7l1.2-0.7c0,0,0,0,0,0c0,0,0,0,0,0
		l0.2-0.1c0,0,0.1-0.1,0.1-0.1l0.4-0.5c0,0,0.1-0.1,0.1-0.2l0.2-0.7c0,0,0-0.1,0-0.1l0-0.9c0,0,0-0.1,0-0.1l-0.3-1.1l-0.5-1
		l-0.3-0.4l0.7-0.4c0,0,0,0,0,0c0,0,0,0,0,0l0.1-0.1c0,0,0.1-0.1,0.1-0.1l0.4-0.5c0,0,0.1-0.1,0.1-0.2l0.2-0.7c0-0.1,0-0.1,0-0.2
		l0-0.9c0,0,0-0.1,0-0.1l-0.3-1.1l-0.5-1l-0.7-1l-0.6-0.6l0.2-0.1c0,0,0,0,0,0c0,0,0,0,0,0c0.1,0,0.1-0.1,0.1-0.1l0.4-0.5
		c0.1-0.1,0.1-0.1,0.1-0.2l0.2-0.7c0,0,0-0.1,0-0.1l0-0.9c0,0,0-0.1,0-0.1l-0.3-1l-0.4-1c0,0,0-0.1-0.1-0.1l-0.6-0.9l-0.7-0.8
		c0,0-0.1-0.1-0.1-0.1l-0.8-0.5c0,0,0,0-0.1,0l0.4-0.4c0.1-0.1,0.1-0.1,0.1-0.2l0.3-0.7c0,0,0-0.1,0-0.2l0-0.9c0,0,0-0.1,0-0.1
		l-0.2-1l-0.4-1.1l-0.6-1l-0.7-0.8c0,0-0.1-0.1-0.1-0.1l-0.8-0.5c0,0-0.1,0-0.1-0.1l-0.8-0.3c0,0-0.1,0-0.1,0l0.3-0.6
		c0-0.1,0-0.1,0-0.2l0.1-0.9c0,0,0-0.1,0-0.1l-0.2-1l-0.4-1l-0.5-0.9c0,0,0-0.1-0.1-0.1l-0.7-0.8l-0.7-0.6c0,0-0.1-0.1-0.1-0.1
		l-0.8-0.3c-0.1,0-0.1,0-0.2,0l-0.7,0c0,0,0,0,0,0c0,0,0,0,0,0l0.1-0.8c0,0,0-0.1,0-0.1l-0.1-0.9c0,0,0-0.1,0-0.1l-0.4-1l-0.6-1
		l-0.6-0.8c0,0,0-0.1-0.1-0.1l-0.8-0.6c0,0-0.1-0.1-0.1-0.1l-0.8-0.3c0,0-0.1,0-0.1,0l-0.7-0.1c-0.1,0-0.1,0-0.2,0l-0.5,0.1
		c0,0,0,0,0,0l-0.1-0.9c0,0,0-0.1,0-0.1l-0.4-1.1l-0.6-1l-0.6-0.8c0,0,0-0.1-0.1-0.1l-0.8-0.7l-0.8-0.4c-0.1,0-0.1,0-0.2-0.1
		l-0.7-0.1c-0.1,0-0.1,0-0.2,0l-0.6,0.1c0,0,0,0-0.1,0c0,0,0,0-0.1,0l-0.3,0.2l-0.3-0.9l-0.5-0.9c0,0,0-0.1-0.1-0.1l-0.7-0.9
		l-0.7-0.6c0,0-0.1,0-0.1-0.1L166,9.4c-0.1,0-0.1-0.1-0.2-0.1l-0.7-0.1c-0.1,0-0.1,0-0.2,0l-0.6,0.1c0,0,0,0,0,0c0,0-0.1,0-0.1,0
		c0,0-0.1,0-0.1,0c0,0,0,0,0,0l-0.8,0.5l-0.2-0.3c0,0,0-0.1-0.1-0.1l-0.7-0.9l-0.7-0.7c0,0-0.1-0.1-0.1-0.1l-0.8-0.4
		c0,0-0.1,0-0.1-0.1L160,7.2c-0.1,0-0.1,0-0.2,0l-0.6,0.1c-0.1,0-0.2,0.1-0.3,0.1l0,0l-1.3,0.8L154,2.3c0,0,0,0,0,0c0,0,0,0,0,0
		l-0.1-0.1c0,0,0-0.1-0.1-0.1L153.7,2c0,0-0.1-0.1-0.1-0.1l-0.3-0.1c-0.1,0-0.1-0.1-0.2-0.1h-0.3c0,0-0.1,0-0.1,0l-0.1,0
		c0,0-0.1,0-0.1,0l-0.1,0.1c0,0,0,0,0,0c0,0,0,0,0,0c0,0,0,0,0,0l-2.5,1.4l-0.1,0.1c0,0,0,0,0,0c0,0,0,0,0,0l-2,1.3c0,0,0,0,0,0l0,0
		l-0.1,0.1c0,0,0,0,0,0c0,0,0,0,0,0l0,0L147.2,5c0,0-0.1,0-0.1,0.1l-0.6,0.7c0,0-0.1,0.1-0.1,0.1l-0.3,0.8c0,0,0,0.1,0,0.1L146,7.8
		c0,0,0,0.1,0,0.1l0.1,0.8l-0.7,0l-0.7,0.1l-0.5,0.1c0,0-0.1,0-0.1,0l-0.5,0.3c0,0,0,0,0,0c0,0,0,0,0,0l-4.2,2.4c0,0,0,0,0,0
		l-10.5,6c0,0,0,0,0,0c0,0,0,0,0,0l-0.5,0.4l-0.4,0.4l-0.4,0.5l-0.3,0.6l-0.2,0.5l-0.2,0l-2.5-0.3l-5.4-0.5l-3-0.1l-3.2,0l-3.9,0.1
		l-4.2,0.3L99,20.3L94.5,21l-4.6,0.9l-4.4,0.9l-8,1.8l-7,1.5l-3.9,0.8c-0.1,0-0.2,0.1-0.3,0.1l-4,1.1L51.7,22c0,0,0,0,0,0
		c0,0,0,0,0,0l-1.5-0.7l-1.4-0.4c0,0-0.1,0-0.1,0l-1.5-0.1L46,20.9c0,0-0.1,0-0.1,0l-1.1,0.5c0,0,0,0,0,0c0,0,0,0,0,0l-2.2,1.2
		c0,0,0,0,0,0c0,0,0,0,0,0l-0.9,0.7c0,0-0.1,0.1-0.1,0.1l-0.8,1c0,0,0,0.1-0.1,0.1l-0.6,1.2c0,0,0,0.1,0,0.1l-0.3,1.5L39.7,29
		c0,0,0,0,0,0c0,0,0,0,0,0v13.4L38.9,44l-0.9,0.2l-2.7,1l-1.6,0.8c0,0,0,0,0,0c0,0,0,0,0,0L16.2,56.2l-0.3,0.1l-2.3,1.5l-2.1,1.7
		l-1.9,2.1l-1.7,2.3l-1.5,2.5l-1.3,2.7l-1,3.1l-1.2,6.6l-0.2,3.7l0,3.7l0.2,4l1.2,8.1l1,4.1l1.2,4.1l1.4,4.1l1.6,4.3l0.5,1.2
		l0.1,0.4l0.2,0.7l0.4,0.8l0.2,0.7l0.4,0.8l0.2,0.7l0.4,0.9l0.4,0.5l0.2,0.7c0,0.1,0,0.1,0.1,0.2l0.4,0.6l0.4,0.8l0.2,0.6
		c0,0,0,0.1,0.1,0.1l0.4,0.6l0.4,0.9l0.8,1.2l0.4,0.9l1.2,1.8l0.4,0.8c0,0,0.1,0.1,0.1,0.1l0.6,0.5l1.3,1.9l0.6,0.5l0.5,0.7l0.4,0.4
		l0,0l0.5,0.6l0.6,0.8l0.4,0.4l1.4,1.9l2.7,3.3l3.1,3.3l3.1,3.1l6.2,5.4L42,156l3.3,2.1c0,0,0,0,0,0c0,0,0,0,0,0l3.1,1.7l3.3,1.5
		l3.3,1l3.1,0.8l3.1,0.6l2.9,0.2l2.9-0.2l2.8-0.4l2.5-0.8l2.5-1.1l0.9-0.6L93,151c0.1,0,0.1,0,0.2-0.1l1.4-0.8
		c0.1-0.1,0.2-0.2,0.2-0.3l2.1-1.6l2.5-2.5c0,0,0-0.1,0.1-0.1l1.9-2.9l0.9-1.6l9.8-3.2l16.7,9.7c0,0,0,0,0,0c0,0,0,0,0,0l2.4,1.2
		l2.4,1l2.3,0.7l2.3,0.4l2.2,0.1l2.1-0.3l2-0.5l1.7-0.8c0,0,0,0,0,0l2.2-1.3c0,0,0,0,0,0c0,0,0,0,0,0l1.7-1.1l1.4-1.4l1.3-1.7l1-1.9
		l0.8-2.1l0.6-2.3l0.4-2.5l0.1-2.6c0,0,0,0,0,0c0,0,0,0,0,0V95.6l1-2.1l1.8-4.1l1.4-3.7l1.6-4.5l0.5-1.5l0.2,0l0.7,0l0.6-0.1
		l0.6-0.2l0.5-0.2c0,0,0,0,0,0c0,0,0,0,0,0l10.5-6.1c0,0,0,0,0,0l4.1-2.4l0,0c0,0,0,0,0,0l0,0c0,0,0,0,0,0c0,0,0,0,0,0l0.5-0.4
		l0.4-0.4l0.4-0.5l0.3-0.6l0.2-0.6l0.1-0.5l0.1,0.2c0,0,0,0.1,0.1,0.1l0.8,0.7c0,0,0.1,0,0.1,0.1l0.9,0.5c0,0,0.1,0,0.1,0.1l1,0.2
		c0,0,0.1,0,0.1,0h0.7h0.3c0.1,0,0.1,0,0.2,0l0.2-0.1l0.1,0c0,0,0.1,0,0.1,0l0.2-0.1l0.2-0.1c0,0,0.1,0,0.1-0.1l0.1-0.1l2.5-1.4
		c0,0,0,0,0,0c0,0,0,0,0,0l2.1-1.3c0,0,0,0,0,0c0,0,0,0,0,0l0,0l0.2-0.2c0,0,0.1-0.1,0.1-0.1l0.1-0.1c0,0,0-0.1,0-0.1l0-0.1
		c0,0,0-0.1,0-0.1v-0.3C191.7,65.2,191.7,65.2,191.7,65.1z M185.4,68.6l-0.4,0.1l-0.5,0l-0.5-0.1l-0.5-0.2l-0.6-0.4l-0.4-0.5
		l-0.1-0.2l1.2-0.8l0.2,0.2c0,0,0,0.1,0.1,0.1l0.6,0.5l0.7,0.5l0.6,0.3c0,0,0.1,0,0.1,0l0.5,0.1l-0.2,0.2l-0.1,0L185.4,68.6z
		 M150.3,10.5l1.6-0.9l0.1,0l2.5-1.5l0.6-0.1l0.6,0.1l0.5,0.3l0,0l0.1,0.1l0.3,0.3l-4.6,2.7L150.3,10.5z M154.4,7c0,0-0.1,0-0.1,0
		l-0.2,0.1c0,0,0,0,0,0c0,0,0,0,0,0l-2.5,1.4l-0.5-0.1c0,0,0,0-0.1,0l-0.4-0.7c0,0,0,0,0,0l-0.3-0.5l-0.2-1l0-0.4l0.1-0.4l0.2-0.4
		l0.2-0.3l0.3-0.2l2-1.2l2.1,3.6l0,0c-0.1,0-0.1,0-0.2,0L154.4,7z M149.2,6.4l0.3,1.2c0,0,0,0.1,0,0.1l0.1,0.1l-0.1,0l0-0.1
		l-0.2-0.6L149.2,6.4l0-0.5l0-0.1l0,0.5C149.2,6.3,149.2,6.4,149.2,6.4z M149.3,5.4L149.3,5.4l0-0.1L149.3,5.4z M147.5,9l-0.2,0
		l-0.2-0.5l-0.1-0.7l0-0.6l0.1-0.5l0.3-0.5l0.3-0.4l0.3-0.3l0.1-0.1l0.1,0l-0.1,0.3l0,0.8l0.1,0.8l0.2,0.8l0.1,0.3L147.5,9L147.5,9z
		 M148.7,10.7l0.3,0.2l0.2,0.1l6.9,4c0,0,0,0,0.1,0l0.2,0.1l0,0l6.2,3.6l-3.2,1.8l-13.9-8L148.7,10.7z M163.6,19.3l1,0.7l1.3,1.2
		l1.1,1.4l0.7,1.1l-3.3,1.9l-0.8-1.2l-0.6-0.7l-1.3-1.4l-1.3-1.1L163.6,19.3z M168.2,24.5l1.4,2.4l0,0c0,0,0,0,0,0l1.1,2
		c0,0,0,0,0,0.1c0,0,0,0,0,0l0.1,0.1c0,0,0,0.1,0,0.1c0,0,0,0,0,0l7.2,12.5l-3.3,1.9l-10-17.3L168.2,24.5z M178.7,42.8l0.2,0.4
		l0.7,1.7l0.3,0.8l0.4,1.6l0.1,1.3l-3.2,1.8l0,0l-0.1-0.9l-0.4-1.7l-0.3-0.9l-0.4-0.9l-0.6-1.3L178.7,42.8z M186.8,62
		C186.9,62,186.9,62,186.8,62C186.9,61.9,186.9,61.9,186.8,62l0.3-0.3c0,0,0.1-0.1,0.1-0.1l0.4-0.5c0,0,0.1-0.1,0.1-0.2l2.5,4.1
		l-2,1.2l-0.4,0.1l-0.4,0.1h-0.4l-0.4-0.1l-0.4-0.2l-0.4-0.3l-0.4-0.4l-0.3-0.5l-0.4-0.7c0,0,0-0.1,0-0.1l0.1-0.6l0-0.3L186.8,62z
		 M183.5,64.1l-0.2,0.2l-1.8,1.1v-0.2l2.2-1.2L183.5,64.1z M181.8,66.4L181.8,66.4l1.2-0.8l0,0L181.8,66.4z M184.5,65.9l0.1,0.2
		l0.5,0.5l0.5,0.4l0.5,0.3c0,0,0.1,0,0.1,0l0.4,0.1l-0.6-0.1l-0.5-0.2l-0.5-0.4l-0.5-0.5L184.5,65.9
		C184.4,65.9,184.4,65.9,184.5,65.9z M186.6,58.6l0.2,0.6l0.1,0.8l-0.1,0.6l-0.3,0.4l-0.2,0.1l-2.2,1.3l-0.2,0.1l-2.5,1.4v-2.4
		L186.6,58.6z M177.3,51.5l3.1-1.8v16l-3.1,1.8V51.5z M188,52.8l0.4,0.9l0.3,0.9l0,0.8l-0.1,0.6l-0.3,0.4l-0.1,0.1l-1.5,0.9
		c0,0,0,0,0,0c0,0-0.1,0.1-0.1,0.1l-5.1,2.9V56l6.2-3.6L188,52.8z M187.4,45.7l0.7,0.6l0.6,0.8L189,48l0.2,0.9l0,0.8l-0.2,0.5
		l-0.3,0.4l-0.1,0l-7.1,4.1c0,0,0,0,0,0l0-1l-0.1-0.5V49l5.8-3.4L187.4,45.7z M186.6,39.2l0.6,0.7l0.6,0.8l0.4,0.9l0.2,0.9l0,0.7
		l-0.2,0.5l-0.3,0.3c0,0,0,0,0,0c0,0,0,0,0,0l-6.5,3.8l0-0.7l-0.4-1.8l-0.3-0.9l-0.8-1.8l-0.3-0.6l6-3.5l0.5,0.2L186.6,39.2z
		 M183.9,32l0.7,0.5l0.6,0.6l0.5,0.8l0.4,0.9l0.2,0.9l0,0.7l-0.2,0.5l-0.4,0.4c0,0,0,0,0,0l-6.7,3.8l-0.4-0.8l-0.2-0.8l-0.4-1
		l-0.6-1l-0.8-0.8l-0.2-0.2l-0.4-0.7l6.9-4h0.5L183.9,32z M180,25.1l0.6,0.3l0.6,0.5l0.6,0.7l0.5,0.8l0.4,0.9l0.2,0.9l-0.1,0.7
		l-0.2,0.5l-0.3,0.3l-7.1,4.1l0-0.1l0-0.6l-0.2-1l-0.4-1l-0.6-1l-0.7-0.8c0,0-0.1-0.1-0.1-0.1l-0.8-0.6l-0.3-0.2l0-0.1l6.9-4
		l0.2-0.1l0,0l0.3-0.1L180,25.1z M175.7,19l0.6,0.3l0.7,0.5l0.6,0.7l0.5,0.9l0.3,0.9l0.1,0.8l-0.1,0.7l-0.2,0.4l-6.8,3.9l-0.9-1.6
		l-0.2-0.6l-0.6-1l-0.4-0.5c0,0,0,0,0,0l-0.5-0.8c0,0,0,0,0,0c0,0,0,0,0,0l-0.5-0.7l6.5-3.8l0.4-0.1L175.7,19z M170.8,14l0.6,0.3
		l0.7,0.6l0.6,0.7l0.5,0.9l0.3,0.9l0.1,0.8l-0.1,0.5l-5.7,3.3l0,0l-0.6-0.7l-0.6-0.7l-0.7-0.7l-0.7-0.6l-0.7-0.5l-0.7-0.4
		c0,0,0,0,0,0c0,0,0,0,0,0l-0.7-0.4l6.7-3.9l0.4-0.1L170.8,14z M165.1,10.3l0.5,0.1l0.6,0.4l0.6,0.5l0.6,0.8l0.4,0.8l0.3,0.9l0,0.1
		l-6,3.5l-3.4-2c0,0,0,0,0,0l-0.6-0.5l-0.6-0.4l5.8-3.4c0,0,0,0,0,0c0,0,0,0,0,0l1.2-0.7L165.1,10.3z M159.9,8.2l0.6,0.1l0.6,0.4
		l0.6,0.6l0.6,0.8l0.2,0.4l-6.1,3.5l-3.4-2l6.4-3.7c0,0,0,0,0,0c0,0,0,0,0,0L159.9,8.2z M144.1,10.1
		C144.1,10.1,144.1,10.1,144.1,10.1l0.4-0.2l0.4-0.1l0.5-0.1l0.5,0l0.5,0.1c0.1,0.1,0.2,0.2,0.3,0.2c0.1,0,0.1,0,0.2,0c0,0,0,0,0,0
		l0.1,0l0.2,0.1l0,0l0.3,0.1l-3.1,1.8l-0.5-0.3l-0.7-0.3l-0.7-0.2l-0.4-0.1L144.1,10.1z M81.8,24.6l8.3-1.8l4.6-0.9l4.5-0.7l5.5-0.6
		l4.2-0.3l3.9-0.1l3.2,0l2.9,0.1l3.2,0.3l4.7,0.5l2.6,0.4l4,0.7l3.1,0.7c0.1,0.2,0.4,0.3,0.6,0.2l2.5,0.7l1.4,0.4l-0.2,0l-6.4-0.5
		l-6.6,0.3l-6.8,1.2l-7.3,2.2l-7.6,3.1l-7.5,3.9l-6.5-3.3l-6.6-2.5l-6.5-1.6l-5.3-0.5L81.8,24.6z M151.7,24l1.3,0.8l0,0l-0.1-0.1
		c0,0,0,0-0.1,0c0,0-0.1,0-0.1,0c0,0-0.1,0-0.1,0c0,0-0.1,0-0.1,0c0,0-0.1,0-0.1,0c0,0,0,0-0.1,0l-0.1,0.1c0,0,0,0,0,0c0,0,0,0,0,0
		c0,0,0,0-0.1,0.1c0,0-0.1,0-0.1,0.1c0,0,0,0,0,0c0,0,0,0,0,0c0,0,0,0,0,0.1c0,0,0,0,0,0.1c0,0,0,0,0,0l-0.2,0.5l-0.1-0.1
		c0,0,0,0,0,0c0,0-0.1,0-0.1-0.1c0,0,0,0-0.1,0c0,0-0.1,0-0.1,0c0,0,0,0-0.1,0c0,0-0.1,0-0.1,0c0,0-0.1,0-0.1,0c0,0,0,0,0,0
		l-0.1,0.1c0,0,0,0,0,0c0,0,0,0-0.1,0c0,0,0,0,0,0c0,0,0,0,0,0c0,0,0,0,0,0.1c0,0,0,0,0,0l-0.2,0.5l-0.1-0.1c0,0,0,0,0,0
		c0,0-0.1,0-0.1,0c0,0-0.1,0-0.1,0c0,0-0.1,0-0.1,0c0,0-0.1,0-0.1,0c0,0-0.1,0-0.1,0c0,0-0.1,0-0.1,0c0,0,0,0,0,0l-0.1,0.1
		c0,0,0,0,0,0c0,0,0,0,0,0c0,0,0,0,0,0c0,0,0,0,0,0c0,0,0,0,0,0.1c0,0,0,0,0,0l-0.2,0.5l-1.1-0.8l-1-0.6l3.6-2.1L151.7,24z
		 M153.5,94.4l1.2-0.7v38.2l-1.2,0.7V94.4z M153.4,93.3l-0.1-1l-0.4-1.8l-0.6-1.9l-0.8-1.9l-1-1.8l-1.1-1.7l-1.3-1.6l-1.4-1.5
		l-1.4-1.2l-0.8-0.5l1.2-0.7l1.1,0.7l1.4,1.2l1.3,1.4l1.2,1.6L152,84l0.9,1.8l0.7,1.8l0.5,1.8l0.4,1.7l0.1,1.4L153.4,93.3z
		 M143.8,77.6L134,72l1.2-0.7l9.7,5.6L143.8,77.6z M67.4,27.8L67.4,27.8L67.4,27.8L67.4,27.8z M73,27.4l6,0.6l6.3,1.6l6.5,2.5
		l6.7,3.4l6.6,4.3l6.6,5l6.3,5.8l6.1,6.4l5.6,6.9l4.8,6.9l-1.3,0.8l-2.3-3.5l-2.8-3.8l-2.9-3.7l-3-3.5l-3.1-3.4l-3.3-3.3l-3.3-3.1
		l-3.4-2.9l-3.4-2.7l-3.5-2.5l-3.5-2.3l-3.5-2L91.5,33L88,31.5l-3.4-1.3l-3.4-1.1l-3.3-0.8l-3.3-0.5l-3.2-0.2l-2.5,0L73,27.4z
		 M135.5,70.3l-5-7.1l-5.7-6.9l-6.1-6.4l-6.4-5.8l-6.6-5.1l-6-3.9l6.9-3.6l7.5-3.1l7.2-2.1L128,25l6.4-0.3l6.2,0.5l6,1.4l3.6,2.5
		l3.6,3.3l3.3,3.9l2.9,4.4l2.2,4.3l1.6,4.2l-0.9,3.2l-1.1,3.5l-1.3,3.4l-1.7,3.2l-2.1,2.7l-2.6,2l-3,1.2l-3.5,0.7l-3.9,0.4l-4.2,0.3
		L135.5,70.3z M145.5,24.7L145.5,24.7l-0.8-0.3L145.5,24.7z M146.7,24.1L146.7,24.1C146.7,24.1,146.7,24.1,146.7,24.1
		C146.7,24.1,146.7,24.1,146.7,24.1C146.6,24.1,146.6,24.1,146.7,24.1c-0.1-0.1-0.1-0.1-0.1-0.1c0,0,0,0,0,0L146.7,24.1L146.7,24.1z
		 M147.9,23.4L147.9,23.4C147.9,23.4,147.9,23.4,147.9,23.4C147.9,23.4,147.9,23.4,147.9,23.4C147.9,23.4,147.8,23.4,147.9,23.4
		c-0.1-0.1-0.1-0.1-0.1-0.1c0,0,0,0,0,0L147.9,23.4L147.9,23.4z M149.1,22.7C149.1,22.7,149.1,22.7,149.1,22.7
		C149.1,22.7,149,22.6,149.1,22.7c-0.1-0.1-0.1-0.1-0.1-0.1c0,0,0,0-0.1,0c0,0,0,0,0,0L149.1,22.7L149.1,22.7z M153.9,25.4l1.5,1.1
		l2,1.8l1.9,2l1.8,2.2l1.7,2.4l1.6,2.5l1.4,2.6l1.3,2.6l1.1,2.7l0.9,2.7l0.7,2.7l0.4,2.6l0.2,2.5l0,2.4l-0.2,2.2l0,0.2l0.2-1.7
		l0-2.5l-0.3-2.6l-0.4-2.7l-0.7-2.7l-0.9-2.7l-1.1-2.7l-1.3-2.7l-1.5-2.6l-1.6-2.5l-1.7-2.4l-1.9-2.2l-2-2l-2-1.8l-1.1-0.8
		L153.9,25.4z M152.7,26.1l1.5,1.1l2,1.8l1.9,2l1.8,2.2l1.7,2.3l1.6,2.5l1.4,2.6l1.3,2.6l1.1,2.7l0.9,2.7l0.7,2.7l0.5,2.6l0.2,2.5
		l0,2.4l-0.2,2.2l0,0.2l0.2-1.7l0-2.5l-0.3-2.5l-0.4-2.7l-0.7-2.7l-0.9-2.7l-1.1-2.7l-1.3-2.7l-1.5-2.6l-1.6-2.5l-1.8-2.4l-1.9-2.2
		l-2-2l-2-1.8l-1.1-0.8L152.7,26.1z M151.5,26.8L153,28l2,1.8l1.9,1.9l1.8,2.2l1.7,2.3l1.6,2.5l1.5,2.6l1.2,2.6l1.1,2.7l0.9,2.7
		l0.7,2.6l0.5,2.6l0.2,2.5l0,2.4l-0.2,2.2l0,0.2l0.2-1.7l0-2.5l-0.2-2.6l-0.5-2.7l-0.7-2.7l-0.9-2.7l-1.1-2.7l-1.3-2.7l-1.5-2.6
		l-1.6-2.5l-1.8-2.4l-1.9-2.2l-2-2l-2-1.8l-1.1-0.8L151.5,26.8z M150.3,27.5l1.5,1.1l2,1.8l1.9,2l1.8,2.2l1.7,2.3l1.6,2.5l1.5,2.6
		l1.2,2.6l1.1,2.7l0.9,2.7l0.7,2.7l0.5,2.6l0.2,2.5l0,2.4l-0.2,2.2l-0.1,0.4l0.1-0.7l0.1-2.4l-0.1-2.5l-0.3-2.6l-0.6-2.7L165,49
		l-1-2.7l-1.2-2.7l-1.4-2.6l-1.5-2.6l-1.7-2.4l-1.8-2.3l-1.9-2.1l-2-1.9l-2.1-1.7l-0.2-0.1L150.3,27.5z M60.1,29.3l-9.7-5.6l1.2-0.7
		l9.7,5.6L60.1,29.3z M46.2,21.9l1.1-0.1l1.3,0.1l1.3,0.4l0.6,0.3l-1.1,0.7L48,22.5l-1.5-0.5L45.9,22L46.2,21.9z M45.7,43.3
		l-1.6-0.9l0.6-0.4l2.4,1.4l-0.8-0.1L45.7,43.3z M43.1,41.8l-0.4-0.2c0,0,0,0,0,0l0.3-0.1l0.4,0l0.2,0L43.1,41.8z M40.4,43.3
		l0.2-0.4l0.3-0.2l0.4-0.1l0.4,0l0.5,0.1l0.6,0.3l0.9,0.5l-0.3,0l-3,0.2l-0.3,0.1L40.4,43.3z M20,132.7l-1.3-1.9l-0.6-0.6l-0.4-0.8
		l-1.2-1.8l-0.4-0.9l-0.8-1.2l-0.4-0.9l-0.4-0.6l-0.2-0.6l-0.4-0.9l-0.4-0.5l-0.2-0.7c0-0.1,0-0.1-0.1-0.2l-0.4-0.6l-0.4-0.8
		l-0.2-0.7l-0.4-0.8l-0.2-0.7l-0.2-0.3c0-0.1,0-0.2,0-0.3l-0.4-1l-0.4-1.4c0-0.1,0-0.1-0.1-0.2l-0.4-0.5l-1.8-6.8v-0.6
		c0,0,0-0.1,0-0.1l-0.6-2.4v-0.8c0-0.1,0-0.1,0-0.2l-0.2-0.5V102c0,0,0-0.1,0-0.1l-0.2-0.8v-1.6c0-0.1,0-0.1,0-0.2l-0.2-0.5v-4.6v-4
		l0.2-0.8c0,0,0-0.1,0-0.1v-1.6l0.2-0.8c0,0,0-0.1,0-0.1v-0.6l0.2-0.8c0,0,0-0.1,0-0.1v-0.8L8,83.8c0,0,0-0.1,0-0.1v0
		c0.1-0.1,0.2-0.2,0.2-0.4l0-0.6l0.1-1l0.3-1c0,0,0-0.1,0-0.1v-0.7l0.6-2.2L9.4,77l0.4-1.6l0.4-0.5c0,0,0,0,0,0c0,0,0-0.1,0-0.1
		s0-0.1,0-0.1c0,0,0,0,0,0l1-2.6l1.4-2.6l1.4-2.2l1.6-1.8l2.1-1.7l0.6-0.5l2-1.1l2.4-1l2.4-0.6l2.6-0.2l2.6,0l2.8,0.4l3.1,0.8l3.1,1
		l3,1.2l3.1,1.6l3,1.8l3.1,2.2l2.9,2.5l3.1,2.9l2.9,2.9l2.8,3l2.7,3.5l2.5,3.5l2.2,3.5l2.2,3.9l2,3.9l1.8,3.9l1.6,3.9l1.4,4.1l2,7.8
		l0.6,3.9l0.4,3.9l0.2,3.7l0,3.4l-0.8,6.5l-0.8,2.8l-1,2.8l-1.4,2.4l-1.4,2.2l-1.6,1.8l-2,1.8l-2,1.2l-1.7,0.8l-1.3,0.4l-2.4,0.6
		l-2.6,0.2l-2.6,0l-3-0.4l-0.8-0.2c-0.1,0-0.2,0-0.2,0c0,0-0.1,0-0.1,0l-1.7-0.4l-0.7-0.2l-1.6-0.4l-0.7-0.2l-1.6-0.4l-0.5-0.4
		c0,0-0.1-0.1-0.2-0.1L49,154l-0.2-0.1c-0.1,0-0.2,0-0.3,0l-0.5-0.2l-0.9-0.4l-0.6-0.2l-0.9-0.4l-0.6-0.2l-0.8-0.4l-0.6-0.4
		c0,0-0.1-0.1-0.2-0.1l-0.7-0.2l-0.6-0.4l-0.9-0.4l-0.6-0.2l-0.6-0.4l-0.8-0.4l-1.3-0.9l-0.8-0.4l-1.9-1.3l-0.8-0.4l-0.6-0.6
		l-1.8-1.2l-0.7-0.7l-0.5-0.4l-0.7-0.7l-1.2-0.8l-1.3-1.3l-0.5-0.4l-0.4-0.5c0-0.1-0.1-0.1-0.1-0.1l-0.5-0.3l-1.2-1.2l-0.4-0.6
		c0-0.1-0.1-0.1-0.1-0.1l-0.5-0.4l-0.4-0.6l-0.8-0.8L22,135l-0.3-0.5l-0.1-0.1l-0.2-0.3c-0.1-0.2-0.2-0.2-0.4-0.3l-0.3-0.5L20,132.7
		z M72.1,161.5l-2.4,0.8l-2.6,0.4l-2.8,0.2l-2.8-0.2l-3.1-0.6l-3.1-0.8l-3.2-1l-3.3-1.4l-3.1-1.6l-3.3-2l-3.2-2.2l-6.1-5.3l-3.1-3.1
		l-0.8-0.9l0.5,0.3l0.7,0.7l0.5,0.4l0.7,0.7l1.8,1.2l0.6,0.6c0,0,0.1,0.1,0.1,0.1L35,148l1.9,1.3l0.8,0.4l1.3,0.9l0.8,0.4l0.6,0.4
		c0,0,0.1,0,0.1,0.1l0.5,0.2l0.8,0.4l0.6,0.4c0,0,0.1,0.1,0.2,0.1l0.7,0.2l0.6,0.4l0.9,0.4l0.6,0.2l0.9,0.4l0.6,0.2l0.9,0.4l0.7,0.2
		l0.5,0.1l4.2,1.7l3.1,0.8l2.9,0.6l2.9,0.2l2.7-0.2l2.8-0.4l2.5-0.8l0.6-0.3l1.1-0.4l1.2-0.6c0.1-0.1,0.2-0.2,0.3-0.3l1.3-0.8
		l2.1-1.9l1.7-1.9l1.4-2.3l1.5-2.5l1-2.9l0.8-3l0.8-6.6l0-3.5l-0.2-3.7l-0.4-3.9l-0.6-4l-2.1-7.8l-1.4-4.1l-1.7-3.9l-1.9-3.9
		l-2.1-3.9l-2.3-3.9l-2.3-3.5l-2.5-3.5l-2.7-3.5L60.9,77L58,74.1l-3.1-2.9L52,68.7l-3.1-2.3l-3.1-1.8c0,0,0,0,0,0c0,0,0,0,0,0
		l-3.1-1.7l-3.1-1.2l-3.1-1l-3.1-0.8l-2.9-0.4l-2.7,0l-2.8,0.2l-2.5,0.6l-2.5,1L19,61.7c-0.2-0.1-0.4-0.1-0.6,0.1l-0.8,0.7l-0.2,0.1
		L15.4,64L13.5,66L12,68l-1.5,2.5l-1.2,2.7l-1,2.9l-0.6,3.1l-0.3,2.4l-0.1,0.4L7,82.7c0,0.1,0,0.1,0,0.2v0.8l-0.2,0.8
		c0,0,0,0.1,0,0.1v0.8L6.6,86c0,0,0,0.1,0,0.1v0.6l-0.2,0.8c0,0,0,0.1,0,0.1v1.6l-0.2,0.8c0,0,0,0.1,0,0.1v4.1v4.7
		c0,0.1,0,0.1,0,0.2l0.2,0.5v1.6c0,0,0,0.1,0,0.1l0.2,0.8v0.8c0,0.1,0,0.1,0,0.2l0.2,0.5v0.7c0,0,0,0.1,0,0.1l0.2,0.9l-0.9-3l-1-4.1
		l-1.2-8l-0.2-3.9l0-3.7l0.2-3.6l1.2-6.5l1-3l1.2-2.6l1.4-2.4l1.6-2.2l1.8-2l2-1.6l1.6-1c0,0,0,0,0.1,0l0.9-0.5l2.1-0.9l2.4-0.8
		L24,55l2.6-0.2l3,0.2l3,0.4l3,0.8l3.1,1.2l3.3,1.4l3.2,1.6l3.1,2.1l3.3,2.2l3.2,2.4l3.1,2.9l3.1,3.1l2.9,3.1l2.9,3.5l2.6,3.5
		l4.9,7.8l2.2,3.9l2,4.1l1.8,4.1l1.6,4.1l1.4,4.3l1.2,4.1l1,4.1l1.2,8l0.2,3.9l0,3.7l-0.2,3.4l-1.2,6.7l-1,2.8l-1.2,2.8l-1.4,2.4
		l-1.6,2.2l-1.8,2l-2,1.6l-1.3,0.8l-0.4,0.2c0,0-0.1,0.1-0.1,0.1l-0.5,0.3L72.1,161.5z M100.6,142.2l-1.8,2.8l-2.4,2.4l-2.5,1.8
		l-0.6,0.4L80.4,157l0.8-0.9l1.7-2.3l1.5-2.5l1.2-2.9l1-3l1.2-6.8l0.2-3.5l0-3.7l-0.2-4l-1.2-8.1l-1-4.1l-1.2-4.1l-1.4-4.3l-1.7-4.1
		l-1.9-4.1l-2.1-4.1l-2.3-3.9l-5-7.8l-2.7-3.5l-2.9-3.5l-2.9-3.1l-3.1-3.1l-3.1-2.9L52.2,64l-3.3-2.3l-3.1-2.1L42.4,58l-3.3-1.4
		L36,55.3l-3.1-0.8L29.7,54l-3.2-0.2L23.9,54l-2.6,0.4L34,47l1.6-0.8l2.6-1l2.4-0.6l2.8-0.2l2.8,0l3,0.4l3.1,0.6l3,0.8l6.5,2.8
		l3.1,1.8l3.3,2.2l3.3,2.4l3.1,2.7l3.1,2.9l3,3l2.9,3.5l2.7,3.5l2.7,3.7l2.5,3.7l2.5,3.9l2,4.1l0.3,0.5c-0.1,0.2,0,0.4,0.2,0.6
		c0,0,0.1,0,0.1,0l1.5,3.2l1.8,4.1l2.9,8.6l1,4.1l0.8,4.1l0.6,4.1l0.4,4.1v3.7l-0.2,4.5l-0.6,4.1l-1,3.9l-1.2,3.4l-0.7,1.2l-0.2,0.3
		L100.6,142.2z M65.5,31.2L65.5,31.2c0.1,0,0.2,0.1,0.3,0l3.4-0.1l6.4,0.2l2.9,0.1l2.5,0.5l5,1.6l5.1,2.1l5.2,2.7l5.1,3.2l5.1,3.7
		l5,4.2l4.9,4.7l4.7,5l4.5,5.5l1.5,2l1.5,2.1l1.4,2.2l1.3,2.3l1.2,2.3l1.1,2.3l1,2.3l0.9,2.4l2.4,7.8l1.6,7.7l-1.3-0.8l-0.9-2.5
		c0,0,0-0.1-0.1-0.1l-1.5-2.2l-1.9-2c0,0,0,0-0.1-0.1l-2.8-2l-3.4-1.7l-3.8-1.3l-4.1-0.9l-5.8-0.7l-3.4-0.1l-13.1-7.6l-0.8-1
		c0,0,0,0,0,0c0,0,0,0,0,0c0,0,0,0-0.1-0.1c0,0,0,0,0,0c0,0,0,0,0,0l-9.8-5.4c0,0-0.1,0-0.1,0L84.3,67l-2.9-3.5l-3.1-3.1l-3.1-2.9
		l-3.1-2.7l-3.3-2.5L65.5,50l-3.1-1.9l-6.6-2.9l0,0l1.1-3.8l2.4-5l0.8-1.3l0.9-1.1l1-1l1.1-0.8l1.1-0.5L65.5,31.2z M144.2,100
		l0.5-0.1l0.3,0.1c0,0,0.1,0,0.1,0l0.1,0l2.2,1.3l-0.6,0.4l-2.2-1.3c0,0,0,0,0,0c0,0,0,0,0,0l-0.3-0.1c0,0-0.1,0-0.1,0l-0.5-0.1
		l-0.3,0L144.2,100z M145.3,131.2l-4-2.3l1.1-1.4c0,0,0-0.1,0.1-0.1l1.6-3.7c0,0,0-0.1,0-0.1l0.8-4.5l0.1-4.4l0-12.9l1.6,1l0.6,0.4
		l0.6,0.5l0.6,0.7l0.5,0.7l0.4,0.8l0.3,0.8l0.2,0.8l0.1,0.8v12.2l0,1.5l-0.2,2.8l-0.2,1.3l-0.6,2.5l-0.9,2.3l-0.2,0.3l-0.2,0.2
		l-0.2,0.2l-0.3,0.1l-0.3,0l-0.7-0.2L145.3,131.2z M104.6,107.6L104.6,107.6L104.6,107.6L104.6,107.6z M96.7,85.9l-2.1-4.1
		c0,0,0,0,0,0c0,0,0,0,0,0L93,79.2l1.6-0.8l5.5,3.2L96.7,85.9L96.7,85.9z M135.4,95.9C135.4,95.9,135.4,95.9,135.4,95.9
		c-0.1,0-0.1,0-0.2-0.1c0,0-0.1,0-0.1,0c0,0-0.1,0-0.1,0c0,0-0.1,0-0.1,0c0,0,0,0-0.1,0l-1.6,0.9c0,0,0,0,0,0c0,0,0,0-0.1,0
		c0,0,0,0,0,0c0,0,0,0,0,0.1c0,0,0,0,0,0c0,0,0,0,0,0c0,0,0,0,0,0L112.2,85l1.5,0l5.7,0.7l4,0.9l3.7,1.2l3.3,1.6l2.7,1.9l1.8,1.9
		l1.4,2.1l0.5,1.4L135.4,95.9z M115.6,103.7l0.5-0.9l0.2-0.5l0-0.1l5.9,3.4l0,0.4l-0.5,1l-0.5,0.5l-0.1,0l-6-3.4L115.6,103.7z
		 M123.9,111.1l0.2,0.5l-1.9,0.6v-0.1l0.2-0.8l0.2-0.3l0.3-0.4L123.9,111.1z M119.5,111.4l0-0.3l0.2-0.7l0.4-0.7l0.5-0.6l0.3-0.2
		l0.5-0.3c0,0,0,0,0,0c0,0,0,0,0,0l0.4-0.3l0.4-0.5v1.8l-0.4,0.4l-0.4,0.7l-0.3,1c0,0,0,0.1,0,0.1v0.3v0.2l-1.7,0.5V111.4z
		 M113.4,105.4l0.3-0.3l5.9,3.5l-0.4,0.5l-0.3,0.4l-0.3,0.5l-0.2,0.5l0,0.1l-6-3.4l0,0l0.2-0.7l0.2-0.3L113.4,105.4z M112.6,108.3
		l5.9,3.4v1.6l-5.4,1.6l-0.5,0.1V108.3z M130.8,109.4l-1.9,0.8l-0.1,0c0,0-0.1,0-0.1,0h-0.6c-0.1,0-0.2,0-0.3,0.1l-0.4,0.3
		c-0.1,0-0.1,0.1-0.1,0.1l0-0.4l0.2-0.7l0.4-0.6l0.6-0.5l0.2-0.1c0,0,0,0,0,0l0.5-0.2l0.7,0.1l0.7,0.3l0.8,0.6l0,0L130.8,109.4z
		 M132.2,108.4l-0.2-0.2l-0.9-0.6c0,0-0.1,0-0.1-0.1l-0.9-0.4c0,0-0.1,0-0.1,0l-0.8-0.1c-0.1,0-0.1,0-0.2,0l-0.7,0.2
		c-0.1,0-0.1,0.1-0.2,0.1l-0.1,0c0,0-0.1,0-0.1,0.1l-0.7,0.6c0,0-0.1,0.1-0.1,0.1l-0.5,0.8c0,0,0,0.1-0.1,0.1l-0.3,0.9
		c0,0,0,0.1,0,0.1l-0.1,0.9l-1.2,0.4l-0.2-0.7c0,0,0,0,0-0.1c0,0,0-0.1,0-0.1c0,0-0.1-0.1-0.1-0.1c0,0,0,0,0,0l0,0l0,0l-1.3-0.7
		v-4.2c0,0,0,0,0-0.1c0,0,0-0.1,0-0.1c0,0,0,0,0,0c0,0,0,0,0-0.1c0,0,0,0,0-0.1c0,0,0,0,0,0c0,0,0,0-0.1-0.1c0,0,0,0,0,0l-6.6-3.8
		v-1c0,0,0,0,0-0.1c0,0,0-0.1,0-0.1c0,0,0-0.1,0-0.1c0,0,0-0.1-0.1-0.1c0,0-0.1,0-0.1-0.1c0,0,0,0,0,0l-14.7-8.2v-9.1l34.7,20
		l-0.3,1.3l-1.1,2.1l-1.7,1.9L132.2,108.4z M137.5,102.2l-0.2-0.1l0,0L137.5,102.2L137.5,102.2z M137.7,100.9l-0.5,0.1c0,0,0,0,0,0
		c0,0,0,0,0,0l-0.4,0.2c0,0-0.1,0.1-0.1,0.1l-0.2,0.2l-35.3-20.4c0,0,0,0,0,0l-5.4-3.2l1.2-0.6L137.7,100.9z M91.7,77.2l-2-3
		l-1.8-2.4l7.1,3.9L91.7,77.2z M96,76.3l0.2,0.3l-3.7,1.8L92.2,78L96,76.3z M100.4,83v8l-1.7-1l-1.4-3L100.4,83z M115.4,100.5v0.9
		l-0.1,0.6l-0.1,0.3l-0.4,0.7l-0.5,0.6l-0.3,0.2l-0.5,0.3c0,0,0,0,0,0c0,0,0,0,0,0c0,0,0,0,0,0l-0.7,0.6l-0.6,0.8l-0.3,0.5l-0.2,0.5
		l-0.1,0.8l0,0l0,0c0,0,0,0,0,0s0,0,0,0v2.9l-1-0.6c0,0,0,0-0.1,0c0,0-0.1,0-0.1,0c0,0-0.1,0-0.1,0c0,0-0.1,0-0.1,0c0,0-0.1,0-0.1,0
		c0,0,0,0-0.1,0l-2.8,1.6v-3c0,0,0,0,0,0c0,0,0,0,0-0.1l0-0.2c0-0.1,0-0.1-0.1-0.2l-0.1-0.1l0,0c0,0,0,0,0,0c0,0-0.1-0.1-0.1-0.1
		l-0.2-0.1c-0.1,0-0.1-0.1-0.2-0.1l-0.1,0l-2-0.9l-0.8-3.3l-2.9-8.7l-1.3-2.8L115.4,100.5z M110.3,110.7l1.1,0.7l-3.8,2.2l-0.1-0.2
		l-0.2-1L110.3,110.7z M111.6,112.4v2.7l-1,0.2l-1.9-0.4l-0.1-0.1l-0.3-0.4L111.6,112.4z M133.6,108.6
		C133.6,108.6,133.7,108.6,133.6,108.6l1.9-2.1c0,0,0-0.1,0.1-0.1l1.2-2.2c0,0,0-0.1,0-0.1l0.2-1l0.2,0.1l0,0.2l-0.8,2.3l-1.6,2.2
		l-2.2,1.8l-0.9,0.4L133.6,108.6z M142.7,123.2l0.8-4.3l0.2-6l-0.1-6.1v-5.6l0.1,0l0.2,0.1v9l0,4.4l-0.1,4.3l-0.8,4.3l-1.5,3.6
		l-1.1,1.5l0,0l-0.3-0.1l1-1.3c0,0,0-0.1,0.1-0.1l1.5-3.6C142.6,123.3,142.7,123.2,142.7,123.2z M151.4,119.2l-0.6,0.4v-11l0.6-0.4
		V119.2z M150.2,127.6l-0.8,2.2l-0.2,0.1l0.4-1.1l0.6-2.6l0.3-1.4l0.3-2.9l0-1.2l0.6-0.3l0,0.6l-0.2,2.8l-0.2,1.3l-0.3,1.3
		L150.2,127.6z M150.7,107.4l0-0.1l-0.2-0.9l-0.3-0.9l-0.5-0.9l-0.6-0.8l-0.6-0.8l-0.7-0.6l0,0l0.7-0.4l0.3,0.2l0.6,0.5l0.6,0.7
		l0.5,0.8l0.4,0.8l0.3,0.8l0.2,0.8l0,0.5L150.7,107.4z M139.7,100.3l-5.1-3l0.6-0.4l2.3,1.3l0.2,0.1l2,1.2L139.7,100.3L139.7,100.3z
		 M57.5,37.4L57.5,37.4L55.8,41L54.7,45l-0.3-0.1l0.7-2.5L57.5,37.4z M103.3,139.6C103.3,139.6,103.3,139.6,103.3,139.6l1.3-3.6l1-4
		l0.6-4.2l0.2-4.5c0,0,0,0,0,0c0,0,0,0,0,0l0-3.7l-0.4-4.1l-0.6-4.1l-0.5-2.7l1.3-0.3l0,0l0.1,0l0,0v3.3c0,0,0,0,0,0c0,0,0,0,0,0
		l0.1,0.4c0,0.1,0,0.2,0.1,0.3c0,0,0,0,0,0l0.3,1.3c0,0.1,0,0.1,0.1,0.2l0.4,0.6c0,0,0,0,0,0c0,0,0,0,0,0l0.7,1
		c0,0.1,0.1,0.1,0.2,0.1l0.2,0.1l0,0l1.5,0.8c0.1,0,0.1,0.1,0.2,0.1l2.3,0.3c0,0,0,0,0.1,0c0,0,0.1,0,0.1,0l2-0.4c0,0,0,0,0,0
		c0,0,0,0,0,0l15.8-4.7c0,0,0,0,0,0c0,0,0,0,0,0l2.6-1.2c0,0,0.1,0,0.1-0.1l2.3-1.9c0,0,0.1-0.1,0.1-0.1l1.7-2.3
		c0,0,0.1-0.1,0.1-0.1l0.9-2.4c0,0,0-0.1,0-0.1l0.1-0.6v0c0,0,0,0,0,0l0-0.1l0.2-0.2l0.2-0.1l3.9-1.2v5.4l0.1,6.1l-0.2,5.9l-0.7,4.2
		l-1.5,3.4l-1.5,1.9v0l0,0c0,0,0,0,0,0l-35.5,11.5L103.3,139.6z M119.3,136.6l-1-0.6l1.9-0.6v0.7l-0.1,0.5l-0.1,0.1l-0.3,0
		L119.3,136.6z M121.2,135.2v-0.2l0.6-0.2L121.2,135.2z M144.1,149.2l-1.8,0.5l-1.9,0.2l-2.1-0.1l-2.1-0.3l-2.2-0.6l-2.3-1l-2.3-1.2
		l-15.9-9.2l3.5-1.1l1.8,1c0,0,0,0,0,0c0,0,0,0,0,0l0.4,0.2l0.3,0.1c0,0,0.1,0,0.1,0c0,0,0,0,0.1,0l0.6-0.1c0,0,0,0,0.1,0
		c0,0,0,0,0,0l2.7-1.6c0,0,0,0,0,0c0,0,0,0,0,0l0.2-0.1c0.1,0,0.1-0.1,0.2-0.2l0.1-0.2c0,0,0-0.1,0.1-0.1l0.1-0.7c0,0,0,0,0,0
		c0,0,0,0,0,0v-0.3l15.6-5l0.1,0l0.3,0.1c0,0,0,0,0,0c0,0,0,0,0,0l0.4,0.1l4.5,2.6c0,0,0,0,0,0c0,0,0,0,0,0l0.6,0.3l0.5,0.2l0.5,0.1
		c0,0,0.1,0,0.1,0c0,0,0,0,0,0l0.5,0c0,0,0.1,0,0.1,0l0.4-0.1c0,0,0.1,0,0.1-0.1l0.1-0.1l1.6-0.9c0,0,0,0,0,0c0,0,0,0,0,0l0.6-0.5
		c0,0,0.1-0.1,0.1-0.1l0.2-0.4c0,0,0,0,0,0c0,0,0,0,0,0l0.9-2.4l0.4-1.3l0.3-1.3l0.2-1.4l0.3-2.9l0-1.5c0,0,0,0,0,0c0,0,0,0,0,0
		v-12.2c0,0,0,0,0,0c0,0,0,0,0,0l0,0l0,0l-0.1-0.9l-0.2-0.9l-0.4-1l-0.5-0.9l-0.5-0.8l-0.7-0.8l-0.7-0.6l-0.6-0.5l0,0l0,0
		c0,0,0,0,0,0c0,0,0,0,0,0l-3-1.8c0,0,0,0-0.1,0c0,0,0,0-0.1,0l-0.2-0.1c0,0-0.1,0-0.1,0l-0.4-0.1c0,0-0.1,0-0.1,0h-0.4
		c0,0-0.1,0-0.1,0L144,99c0,0,0,0,0,0c0,0,0,0,0,0l-3.2,0.9l-0.1-0.6l0-0.3l-0.1-0.9c0,0,0,0,0,0c0,0,0,0,0,0l-1.6-7.8l-2.4-7.9
		c0,0,0,0,0,0c0,0,0,0,0,0l-0.9-2.4l-1-2.4l-1.1-2.4l-1.2-2.3l-1.3-2.3l-1.4-2.2l-1.5-2.1l-1.5-2c0,0,0,0,0,0c0,0,0,0,0,0l-4.5-5.5
		l-4.8-5.1l-5-4.7l-5.1-4.3l-5.2-3.8l-5.2-3.3c0,0,0,0,0,0c0,0,0,0,0,0l-5.2-2.8l-5.2-2.2l-5.1-1.6l-2.5-0.5c0,0-0.1,0-0.1,0l0,0
		l-2.4-0.5l-4.8-0.4L67,30c0,0,0,0,0,0c0,0,0,0,0,0l-1.6,0.3l-1.5,0.5l-1.1,0.5c-0.1,0-0.1,0-0.2,0.1l0,0l-0.2,0.1L61,32.2l-1.2,0.9
		l-1.2,1.1l-1,1.3l-0.9,1.3c0,0,0,0,0,0c0,0,0,0,0,0L54.2,42l-0.7,2.6l-0.9-0.2l-3.1-0.6l-0.9-0.1c0,0,0-0.1,0-0.1c0,0,0,0,0,0
		l-0.1-0.2c0,0-0.1-0.1-0.1-0.1L48.2,43c0-0.1-0.1-0.1-0.2-0.2l-0.1-0.1L45,41c0,0,0,0,0,0s0,0,0,0l-0.7-0.3c0,0-0.1,0-0.1,0
		l-0.6-0.1c0,0-0.1,0-0.1,0l-0.6,0c0,0-0.1,0-0.1,0l-0.5,0.2c0,0,0,0,0,0c0,0,0,0,0,0l-1.3,0.8V29l0.1-1.5l0.3-1.4l0.5-1.1l0.7-0.9
		l0.8-0.6l1-0.4l1.1-0.2l1.2,0.1l1.3,0.4l1.4,0.7l10.7,6.2c0,0,0,0,0,0c0,0,0,0,0,0c0.1,0,0.1,0.1,0.2,0.1c0,0,0,0,0,0c0,0,0,0,0,0
		s0,0,0,0c0,0,0,0,0,0c0,0,0,0,0,0c0,0,0.1,0,0.1,0l2.6-0.8l2.7-0.6l2.8-0.3l3,0l3.1,0.2l3.2,0.5l3.3,0.7l3.4,1l3.4,1.3l3.5,1.5
		l3.5,1.8l3.5,2l3.5,2.3l3.4,2.4l3.4,2.7l3.4,2.9l3.3,3l3.2,3.2l3.1,3.4l3,3.5l2.9,3.7l2.8,3.7l2.6,3.9c0,0,0,0,0,0
		c0,0.1,0.1,0.1,0.2,0.1l0,0l0,0l10.7,6.1l1.4,0.9l1.4,1.1l1.3,1.4l1.2,1.6l1.1,1.6l0.9,1.8l0.7,1.8l0.5,1.8l0.4,1.7l0.1,1.7v39.3
		l-0.1,2.6l-0.3,2.4l-0.6,2.2l-0.8,2l-0.9,1.8l-1.2,1.6l-1.3,1.3l-1.5,1l0,0L144.1,149.2z M154.5,134.8l-0.3,2.4l-0.6,2.2l-0.8,2
		l-0.9,1.8l-1.2,1.6l0,0l0.9-1.7l0.8-2.1l0.6-2.4l0.3-2.5l0.1-2.4l1.1-0.7L154.5,134.8z M158.9,85.5l-1.4,3.6l-1.8,4.1l-0.1,0.2
		v-0.5c0,0,0,0,0,0c0,0,0,0,0,0l-0.1-1.8l-0.4-1.8l-0.6-1.9l-0.8-1.9l-1-1.9l-1.1-1.7l-1.3-1.6l-1.4-1.4l-1.5-1.3l-1.4-0.9
		c0,0,0,0,0,0c0,0,0,0,0,0l-9.3-5.4l2.8-0.3l4.2-0.3l4-0.4l3.6-0.7l3.1-1.2c0,0,0.1,0,0.1-0.1l2.7-2.1c0,0,0.1-0.1,0.1-0.1l2.2-2.8
		l1.7-3.3l1.4-3.5l1.1-3.6l0.4-1.6l0.9,3.9l0.4,4.5l-0.4,4.1l-0.3,1c0,0.1,0,0.2,0,0.3l-2.5,9.1l-1.1,3.8l-1,3.2L158.9,85.5z
		 M163.2,78.8l-0.5,0.1l-0.5,0l0.2-0.7l1.1-3.8l1.1-4l0.1,0l0.3-0.2c0,0,0.1,0,0.1,0l0.4-0.2c0.1,0,0.2-0.1,0.3-0.1l0.1-0.1l1.1-0.7
		l1.3-1.3l1.1-1.5l0.9-1.8l0.7-2l0.5-2.2l0.2-2.3l0-2.5l-0.3-2.6l-0.5-2.7l-0.7-2.7l-0.9-2.7l-1.1-2.7l-1.3-2.7l-1.5-2.6l-1.6-2.5
		l-1.8-2.4l-1.9-2.2l-2-2l-2-1.8l-2.1-1.5c0,0,0,0-0.1,0c0,0-0.1,0-0.1,0c0,0-0.1,0-0.1,0c0,0-0.1,0-0.1,0c0,0-0.1,0-0.1,0
		c0,0,0,0,0,0l-1.4-0.9l-1-0.5l-0.3-0.1l-0.2-0.1c0,0,0,0,0,0c0,0,0,0,0,0l-0.3-0.1l-0.1-0.2c0,0,0,0,0,0c0,0,0,0,0,0c0,0,0,0,0,0
		c0,0,0,0,0-0.1c0,0,0-0.1-0.1-0.1c0,0,0,0,0,0c0,0-0.1,0-0.1-0.1c0,0,0,0,0,0c0,0,0,0-0.1,0l-2.1-0.8l-2.1-0.5l-2-0.3l-2,0
		l-1.8,0.4l-1.7,0.6l-0.1,0.1l0,0l-0.1,0l-0.2,0.1c0,0,0,0,0,0c0,0,0,0,0,0l-0.1,0.1c0,0,0,0,0,0l-0.5,0.3c0,0,0,0,0,0l0,0l-0.3,0.1
		l-3.4-0.8l-4.1-0.8l-1.4-0.2l0.1-0.2l0.2-0.5l0.3-0.4l0.3-0.3l0.4-0.3l10.5-6l0.5-0.2l0.4-0.1l0.5-0.1l0.5,0l0.5,0.1l1.2,0.4
		l0.7,0.4l14.8,8.6c0,0,0,0,0,0l0,0l0,0l0.6,0.4l1.3,1l0.6,0.6l1.1,1.4l1,1.6l10.5,18.2l0.4,0.8l0.7,1.7l0.3,0.8l0.4,1.6l0.1,0.8
		l0,0.8v17.1l0,0.7l-0.1,0.7l-0.4,1.2l-0.2,0.5l-0.3,0.4l-0.3,0.3l-0.3,0.2l-6.4,3.7c0,0,0,0,0,0l-3.1,1.8l-1.1,0.6l-0.4,0.2
		L163.2,78.8z M180.4,67.3l-0.2,0.6l-0.2,0.5l-0.2,0.5l-0.3,0.4l-0.3,0.3l-0.5,0.3l-1.9,1.1l0.4-1.2l0.1-0.8l0-0.5l3.1-1.8
		L180.4,67.3z"/>
</g>
</svg>
