<?xml version="1.0" encoding="utf-8"?>
<!-- Generator: Adobe Illustrator 19.2.1, SVG Export Plug-In . SVG Version: 6.00 Build 0)  -->
<svg version="1.1" id="small" xmlns="http://www.w3.org/2000/svg" xmlns:xlink="http://www.w3.org/1999/xlink" x="0px" y="0px"
	 viewBox="0 0 189.2 166.5" style="enable-background:new 0 0 189.2 166.5;" xml:space="preserve">
<style type="text/css">
	.st0{fill-rule:evenodd;clip-rule:evenodd;fill:none;stroke:#999999;stroke-miterlimit:10;}
	.st1{fill:#E5E5E5;stroke:#999999;stroke-miterlimit:2.6131;}
	.st2{fill:none;stroke:#999999;stroke-width:0.25;stroke-miterlimit:2.6131;}
	.st3{fill-rule:evenodd;clip-rule:evenodd;fill:#666766;stroke:#999999;stroke-miterlimit:10;}
	.st4{fill:#666766;stroke:#999999;stroke-width:0.1455;stroke-miterlimit:2.6131;}
	.st5{fill:#E5E5E5;stroke:#999999;stroke-linecap:round;stroke-linejoin:round;stroke-miterlimit:2.6131;}
	.st6{fill:none;stroke:#999999;stroke-width:0.1455;stroke-miterlimit:2.6131;}
	.st7{fill:#363636;stroke:#999999;stroke-miterlimit:2.6131;}
</style>
<path class="st0" d="M51.2,63.1c30.6,3.1,61.1,7.1,91.7,9.2c4.4,0.5,13.8,0.1,25.1,7.4c6.8,5.1,15.2,11.2,19.7,34.8
	c0.3,1.5-3.7,2-5.7,1.8c-80.8-5.8-159.9-13.3-177.2-42.6c-3.8-6.4-4.2-13.4-4.1-19.1c0.1-4.7,3.6-2.9,11.2-0.2S35.8,61.6,51.2,63.1z
	"/>
<path class="st1" d="M34.5,63.8l13.7,25.8c0.5,1-1.7,2-2.7,1.8c-12.2-2.2-23.5-6.9-32.7-13.9c-2-1.5-3.6-3.6-5-5.7
	c-2.7-4-3.9-9.1-4.3-15.8c-0.1-1.4,2.7-2.2,4-1.5c7.9,4,15.8,5.8,23.7,7C32.6,61.9,33.9,62.4,34.5,63.8z"/>
<g>
	<path class="st2" d="M13.7,57.8c-4.5,5.9-4.2,12.4,1.4,20c1.6,2.2,6.7,3.8,14.2,3.1c1.7-0.2,4.6-0.8,4.4-2.4l-2.7-16"/>
	<path class="st2" d="M28.6,61.4c0.3,5.1,1.2,10.2,3.5,14.9"/>
	<path class="st2" d="M25.8,61.1c-0.4,6.7,0.9,12.8,5.4,17.9"/>
	<path class="st2" d="M23,60.7c-0.8,8.1,0.9,14.7,5.4,19.6"/>
	<path class="st2" d="M24.3,80.2c-2.9-6-4.2-12.8-4-20.3"/>
	<path class="st2" d="M17.8,59.2c-1.3,6.8-0.2,13.7,2.7,20.7"/>
	<path class="st2" d="M15,59.5c-1.6,6.1-1.2,12.2,2.5,18.3"/>
</g>
<line class="st2" x1="34.3" y1="80.2" x2="45.7" y2="90.7"/>
<ellipse class="st3" cx="22.6" cy="67.4" rx="3.5" ry="3.8"/>
<ellipse class="st4" cx="22.6" cy="67.4" rx="3.5" ry="3.8"/>
<path class="st5" d="M110.9,71.8c6.4,10,11.9,20,16.8,31.2c0.6,1.4,0.3,4.4-2.3,4.1L74.9,101c-15.7-3.5-22.8-16.4-29.8-31.6
	c-2.6-5.7-2.1-4.1-1.6-5.1L110.9,71.8z"/>
<path class="st6" d="M65.4,96.4c9.6,3.7,31,4.8,50.9,6.5c4.5,0.4,5.3-2.4,4.4-4.4c-4.6-10.3-9.7-20.5-14.6-28.3"/>
<path class="st1" d="M153.4,74c12.5,9.8,16.9,27.9,3.4,33.7c-12.9,5.6-24.3,0.2-31.2-12.6c-4.1-7.6-6.2-15.8-4.4-24L153.4,74z"/>
<g>
	<path class="st6" d="M130.7,76.1c-1.6,5.9-1.6,11.8,1.3,17.9"/>
	<g>
		<path class="st6" d="M131.1,101.2c12.7,3.9,24.7-6.8,22.1-24"/>
		<path class="st6" d="M128.4,96.5c6.9-2,15.8-6.3,16.8-21"/>
		<path class="st6" d="M135.5,73.7c-1.6,5.9-1.6,11.8,1.3,17.9"/>
		<path class="st6" d="M133.1,74.4c-1.6,5.9-1.6,11.8,1.3,17.9"/>
	</g>
</g>
<ellipse class="st3" cx="65.9" cy="73.3" rx="3.7" ry="3.6"/>
<ellipse class="st3" cx="70.8" cy="75" rx="6.4" ry="6.6"/>
<ellipse class="st3" cx="72.5" cy="76.5" rx="4.7" ry="5.1"/>
<g>
	<path class="st6" d="M51.5,80.2c0.1-6.2,2.8-11.2,7.3-15.4"/>
	<path class="st6" d="M57.8,89.1c10.3-6.7,30.5-1.5,56.1,10c-4.3-9.8-9.6-19.7-15.5-29.6"/>
	<path class="st6" d="M106.8,95.7c-3.4-7.7-4.8-13.4-4.8-17.9"/>
	<path class="st6" d="M101.9,93.7C98.4,86,97.5,78.5,98,71"/>
	<path class="st6" d="M94.1,69.5c-0.6,7.6,0.5,15.2,4,22.8"/>
	<path class="st6" d="M94.9,90.9c-1.5-2.8-2.5-6-3.1-9.4"/>
	<path class="st6" d="M87.6,68.6c-0.6,6.8-0.1,13.8,3.4,21.2"/>
	<path class="st6" d="M79.5,67.8C78.9,74,79,80.3,81.9,87"/>
	<path class="st6" d="M83.8,68.1c-0.6,6.5-0.1,13.1,2.9,20.1c0.1,0.2,0.2,0.4,0.2,0.5c0.1,0.2,0.2,0.4,0.2,0.5"/>
	<path class="st6" d="M75.1,67.4c-0.5,6.1-0.2,12.3,2.4,18.8"/>
	<path class="st6" d="M70.4,67c-0.5,6-0.2,12.1,2.3,18.6"/>
	<path class="st6" d="M66,66.3c-0.6,6.2-0.2,12.5,2.5,19.2"/>
	<path class="st6" d="M61.9,65.7c-0.6,6.5-0.1,13.1,2.9,20.1"/>
	<path class="st6" d="M58.2,66.9c-0.6,6.4-0.2,13,2.8,19.9"/>
	<path class="st6" d="M55.5,70.2c-0.6,6.8-0.1,13.8,3.4,21.2"/>
	<path class="st6" d="M53.9,74.1c-0.3,3.7-0.3,7.4,0.3,11.2"/>
	<path class="st6" d="M77,77.9c9.2,1.8,17.8,4.3,26,7.5"/>
</g>
<ellipse class="st4" cx="65.9" cy="73.3" rx="3.7" ry="3.6"/>
<ellipse class="st4" cx="70.8" cy="75" rx="6.4" ry="6.6"/>
<ellipse class="st4" cx="72.5" cy="76.5" rx="4.7" ry="5.1"/>
<path class="st3" d="M7.3,231.4c13.3,6.6,28.5,8.7,43.8,10.2c30.6,3.1,61.1,7.1,91.7,9.2c4.4,0.5,13.8,0.1,25.1,7.4
	c6.8,5.1,15.2,11.2,19.7,34.8c0.3,1.5-3.7,2-5.7,1.8c-80.8-5.8-159.9-13.3-177.2-42.6c-3.8-6.4-4.2-13.4-4.1-19.1
	C0.8,228.4,5.6,229.6,7.3,231.4"/>
<path class="st7" d="M34.5,242.3l13.7,25.8c0.5,1-1.7,2-2.7,1.8c-12.2-2.2-23.5-6.9-32.7-13.9c-2-1.5-3.6-3.6-5-5.7
	c-2.7-4-3.9-9.1-4.3-15.8c-0.1-1.4,2.7-2.2,4-1.5c7.9,4,15.8,5.8,23.7,7C32.6,240.4,33.9,240.9,34.5,242.3z"/>
<g>
	<path class="st2" d="M13.7,236.3c-4.5,5.9-4.2,12.4,1.4,20c1.6,2.2,6.7,3.8,14.2,3.1c1.7-0.2,4.6-0.8,4.4-2.4L31,241"/>
	<path class="st2" d="M28.6,239.9c0.3,5.1,1.2,10.2,3.5,14.9"/>
	<path class="st2" d="M25.8,239.6c-0.4,6.7,0.9,12.8,5.4,17.9"/>
	<path class="st2" d="M23,239.2c-0.8,8.1,0.9,14.7,5.4,19.6"/>
	<path class="st2" d="M24.3,258.8c-2.9-6-4.2-12.8-4-20.3"/>
	<path class="st2" d="M17.8,237.8c-1.3,6.8-0.2,13.7,2.7,20.7"/>
	<path class="st2" d="M15,238.1c-1.6,6.1-1.2,12.2,2.5,18.3"/>
</g>
<line class="st2" x1="34.3" y1="258.7" x2="45.7" y2="269.2"/>
<ellipse class="st3" cx="22.6" cy="245.9" rx="3.5" ry="3.8"/>
<ellipse class="st4" cx="22.6" cy="245.9" rx="3.5" ry="3.8"/>
<path class="st7" d="M110.6,249.8c6.4,10,12.1,20.6,17.1,31.8c0.6,1.4,0.3,4.4-2.3,4.1l-50.6-6.1c-15.7-3.5-22.8-16.4-29.8-31.6
	c-2.6-5.7-2-5.3-1.5-6.3"/>
<path class="st6" d="M65.4,275c9.6,3.7,31,4.8,50.9,6.5c4.5,0.4,5.3-2.4,4.4-4.4c-4.6-10.3-9.7-20.5-14.6-28.3"/>
<path class="st7" d="M154.4,253.4c12.2,11.9,15.9,27.1,2.4,32.9c-12.9,5.6-24.3,0.2-31.2-12.6c-4.1-7.6-6-15.2-4.3-23.4L154.4,253.4
	z"/>
<g>
	<path class="st6" d="M130.7,254.6c-1.6,5.9-1.6,11.8,1.3,17.9"/>
	<g>
		<path class="st6" d="M131.1,279.8c12.7,3.9,24.7-6.8,22.1-24"/>
		<path class="st6" d="M128.4,275c6.9-2,15.8-6.3,16.8-21"/>
		<path class="st6" d="M135.5,252.3c-1.6,5.9-1.6,11.8,1.3,17.9"/>
		<path class="st6" d="M133.1,252.9c-1.6,5.9-1.6,11.8,1.3,17.9"/>
	</g>
</g>
<ellipse class="st3" cx="65.9" cy="251.8" rx="3.7" ry="3.6"/>
<ellipse class="st3" cx="70.8" cy="253.6" rx="6.4" ry="6.6"/>
<ellipse class="st3" cx="72.5" cy="255.1" rx="4.7" ry="5.1"/>
<g>
	<path class="st6" d="M51.5,258.8c0.1-6.2,2.8-11.2,7.3-15.4"/>
	<path class="st6" d="M57.8,267.6c10.3-6.7,30.5-1.5,56.1,10c-4.3-9.8-9.6-19.7-15.5-29.6"/>
	<path class="st6" d="M106.8,274.2c-3.4-7.7-4.8-13.4-4.8-17.9"/>
	<path class="st6" d="M101.9,272.2c-3.6-7.7-4.4-15.2-3.9-22.7"/>
	<path class="st6" d="M94.1,248c-0.6,7.6,0.5,15.2,4,22.8"/>
	<path class="st6" d="M94.9,269.4c-1.5-2.8-2.5-6-3.1-9.4"/>
	<path class="st6" d="M87.6,247.1c-0.6,6.8-0.1,13.8,3.4,21.2"/>
	<path class="st6" d="M79.5,246.3c-0.6,6.2-0.5,12.5,2.4,19.2"/>
	<path class="st6" d="M83.8,246.6c-0.6,6.5-0.1,13.1,2.9,20.1c0.1,0.2,0.2,0.4,0.2,0.5c0.1,0.2,0.2,0.4,0.2,0.5"/>
	<path class="st6" d="M75.1,245.9c-0.5,6.1-0.2,12.3,2.4,18.8"/>
	<path class="st6" d="M70.4,245.6c-0.5,6-0.2,12.1,2.3,18.6"/>
	<path class="st6" d="M66,244.8c-0.6,6.2-0.2,12.5,2.5,19.2"/>
	<path class="st6" d="M61.9,244.3c-0.6,6.5-0.1,13.1,2.9,20.1"/>
	<path class="st6" d="M58.2,245.4c-0.6,6.4-0.2,13,2.8,19.9"/>
	<path class="st6" d="M55.5,248.7c-0.6,6.8-0.1,13.8,3.4,21.2"/>
	<path class="st6" d="M53.9,252.7c-0.3,3.7-0.3,7.4,0.3,11.2"/>
	<path class="st6" d="M77,256.5c9.2,1.8,17.8,4.3,26,7.5"/>
</g>
<ellipse class="st4" cx="65.9" cy="251.8" rx="3.7" ry="3.6"/>
<ellipse class="st4" cx="70.8" cy="253.6" rx="6.4" ry="6.6"/>
<ellipse class="st4" cx="72.5" cy="255.1" rx="4.7" ry="5.1"/>
</svg>
