<?xml version="1.0" encoding="utf-8"?>
<!-- Generator: Adobe Illustrator 19.2.1, SVG Export Plug-In . SVG Version: 6.00 Build 0)  -->
<svg version="1.1" id="Oval" xmlns="http://www.w3.org/2000/svg" xmlns:xlink="http://www.w3.org/1999/xlink" x="0px" y="0px"
	 viewBox="0 0 189.2 166.5" style="enable-background:new 0 0 189.2 166.5;" xml:space="preserve">
<style type="text/css">
	.st0{fill-rule:evenodd;clip-rule:evenodd;fill:none;stroke:#999999;stroke-miterlimit:10;}
	.st1{fill-rule:evenodd;clip-rule:evenodd;fill:none;stroke:#999999;stroke-width:0.5;stroke-miterlimit:10;}
	.st2{fill:#E5E5E5;stroke:#999999;stroke-miterlimit:2.6131;}
	.st3{fill-rule:evenodd;clip-rule:evenodd;fill:#666766;stroke:#999999;stroke-width:0.5;stroke-miterlimit:10;}
	.st4{fill:none;stroke:#999999;stroke-width:0.5;stroke-miterlimit:2.6131;}
	.st5{fill-rule:evenodd;clip-rule:evenodd;fill:#666766;stroke:#999999;stroke-width:1.1309;stroke-miterlimit:10;}
	.st6{fill-rule:evenodd;clip-rule:evenodd;fill:none;stroke:#999999;stroke-width:1.1309;stroke-miterlimit:10;}
	.st7{fill-rule:evenodd;clip-rule:evenodd;fill:#666766;stroke:#999999;stroke-miterlimit:10;}
</style>
<path class="st0" d="M56.6,0.8c40.6-3.2,109.2,15.2,126.9,75c17.7,59.8-27,90.1-83.5,90.1c-56.6,0-99.5-38.3-99.5-84.3
	S20.8,3.6,56.6,0.8z"/>
<path class="st1" d="M29.3,129.6c-9.7-33.9-3.7-59.4,21.6-74.8l-36-2.3C2.3,73.5,6.3,99,29.3,129.6z"/>
<path class="st2" d="M15.3,32.1C45.5-15.3,118.6,3.9,151.1,36c3.9,3.8,6.2,15.4-7,14.8L22.6,45C17.6,44.7,7.6,44.2,15.3,32.1z"/>
<g>
	<ellipse class="st3" cx="23.1" cy="69.5" rx="10.8" ry="10"/>
	<ellipse class="st3" cx="19.7" cy="71.3" rx="7" ry="6.9"/>
</g>
<g>
	<path class="st4" d="M31.3,44c0.5-14.7,5.7-24.7,13.3-32.2"/>
	<path class="st4" d="M118.1,47.9c-0.5-14.7-2.1-24.4-9.7-32"/>
	<path class="st4" d="M40.5,11.8c25.1-9,54.1-4.7,86.3,10.2"/>
	<path class="st4" d="M50,44.7c-0.5-14.7-1.6-22.5-3.2-32.5"/>
	<path class="st4" d="M87.3,47.6c-0.5-14.7-1.6-22.5-3.2-32.5"/>
	<path class="st4" d="M100.6,48.1c-0.5-14.7-1.6-22.5-3.2-32.5"/>
	<path class="st4" d="M69.8,46.4c-0.5-14.7-1.6-22.5-3.2-32.5"/>
	<line class="st4" x1="44.5" y1="11.9" x2="108.7" y2="16"/>
	<path class="st4" d="M137.4,48.6c-1.4-10.8-2.5-15.2-6-24.1"/>
	<path class="st4" d="M19.2,41.7c0.3-7.1,1.6-9.4,2.6-14.2"/>
</g>
<path class="st2" d="M103.8,56.8c42.4,0,76.7,15.3,76.7,46.1c0,30.9-34.3,55.9-76.7,55.9c-42.4,0-76.7-25-76.7-55.9
	C27.1,72.1,61.5,56.8,103.8,56.8z"/>
<g>
	<path class="st4" d="M40.4,127.8c51,48.5,153.5,16.8,129.2-44.9"/>
	<path class="st4" d="M37.1,118c4.1,4.7,9.4,8.3,16,10.8c28.3,10.2,62.7,8.2,89.1-6.3c14.8-8.1,23.6-30.1,21-46.9"/>
	<line class="st4" x1="79.9" y1="61.3" x2="83.8" y2="132.6"/>
	<line class="st4" x1="99.5" y1="60.1" x2="102.3" y2="131.6"/>
	<path class="st4" d="M67.5,64.8c6.6,29,6.5,49,5.7,66.8"/>
	<path class="st4" d="M55,68.6c5,21.8,6.3,36.1,6.1,60.2"/>
	<path class="st4" d="M42.2,77.1c2.9,14.4,5.7,24.7,5.1,46.8"/>
	<path class="st4" d="M112.4,60.3c-1.1,22.4-0.4,43.6,1.8,69"/>
	<path class="st4" d="M124.5,61.6c-2.5,22.5-1.3,40.8,1.2,65.1"/>
	<path class="st4" d="M138.8,63.9c-2.6,16.7-1.5,39.4,0.9,56.4"/>
	<path class="st4" d="M155.8,70.2c-1.4,10.7-1.8,26.6-0.9,34.9"/>
	<path class="st4" d="M33.4,94.2c12.7-3.2,25.4-5.5,38-6.9"/>
	<path class="st4" d="M42.5,119.2c34.1-12.6,68.9-13.9,106.8-5.6"/>
	<path class="st4" d="M161.5,87.7c-16.7-1.4-32.8-2.3-49.5-2.9"/>
	<line class="st4" x1="80.2" y1="66.6" x2="99.7" y2="65.8"/>
	<line class="st4" x1="80.9" y1="78.4" x2="100" y2="77.6"/>
	<line class="st4" x1="81.4" y1="87.6" x2="100.5" y2="86.8"/>
	<line class="st4" x1="100.9" y1="90.6" x2="112" y2="90.4"/>
	<line class="st4" x1="72.4" y1="92.8" x2="81.2" y2="91.9"/>
</g>
<g>
	<polygon class="st5" points="102.5,100.2 102.6,105 102.7,109.8 99.5,113.1 96.3,116.4 91.7,116.4 87.1,116.3 83.7,112.9 
		80.4,109.5 80.3,104.8 80.2,100 83.4,96.7 86.6,93.4 91.2,93.4 95.9,93.5 99.2,96.8 	"/>
	<polygon class="st6" points="97.4,102.5 97.5,104.9 97.5,107.4 95.8,109.1 94.1,110.9 91.6,110.8 89.1,110.8 87.3,109.1 
		85.5,107.3 85.5,104.8 85.4,102.3 87.1,100.6 88.9,98.9 91.3,98.9 93.8,98.9 95.6,100.7 	"/>
</g>
<ellipse class="st7" cx="60.8" cy="31" rx="15.7" ry="15.4"/>
</svg>
