<?xml version="1.0" encoding="utf-8"?>
<!-- Generator: Adobe Illustrator 19.2.1, SVG Export Plug-In . SVG Version: 6.00 Build 0)  -->
<svg version="1.1" id="LHD" xmlns="http://www.w3.org/2000/svg" xmlns:xlink="http://www.w3.org/1999/xlink" x="0px" y="0px"
	 viewBox="0 0 385 103.1" style="enable-background:new 0 0 385 103.1;" xml:space="preserve">
<style type="text/css">
	.st0{fill:#999999;}
	.st1{fill:url(#SVGID_1_);}
	.st2{fill:#E5E5E5;}
	.st3{fill:#FFFFFF;}
</style>
<g>
	<rect x="8.9" y="7.3" class="st0" width="29.6" height="6"/>
	<rect x="63.6" y="7.3" class="st0" width="29.6" height="6"/>
	<rect x="118.2" y="7.3" class="st0" width="29.6" height="6"/>
	<rect x="172.9" y="7.3" class="st0" width="29.6" height="6"/>
	<rect x="227.5" y="7.3" class="st0" width="29.6" height="6"/>
	<rect x="282.2" y="7.3" class="st0" width="29.6" height="6"/>
	<rect x="336.8" y="7.3" class="st0" width="29.6" height="6"/>
</g>
<linearGradient id="SVGID_1_" gradientUnits="userSpaceOnUse" x1="148.0449" y1="52.5791" x2="364.1112" y2="52.5791" gradientTransform="matrix(1 0 0 -1 0 104.1262)">
	<stop  offset="0" style="stop-color:#88E333"/>
	<stop  offset="0.4609" style="stop-color:#88E333;stop-opacity:0.55"/>
	<stop  offset="1" style="stop-color:#88E333;stop-opacity:0.3"/>
</linearGradient>
<path class="st1" d="M326,59.2c-35.1-8.1-46.4-10.1-51.8-31.6C268.7,6.1,253.6-4.7,215.4,2c-33.7,5.9-65.2,25.7-72.2,30.3
	c1.2,0.4,2.4,0.8,3.9,1.3c3.6,1.3,4.9,2.3,6.8,5.5c2,3.5,5,14.9,5,23.6s-3,20.1-5,23.6c-1.9,3.2-3.1,4.2-6.8,5.5
	c-1.4,0.5-2.7,1-3.8,1.3c10.1,1.8,66.6,11.6,117.7,9.8C468.2,95.6,361.1,67.3,326,59.2z"/>
<path class="st2" d="M92.8,95.1C92.8,95.1,92.8,95.1,92.8,95.1c0.1-0.1,0.1-0.1,0.2-0.1c0.4-0.9,0.7-1.7,0.9-2
	c0.3-0.5,0.5-0.5,1-0.6c0.2,0,0.4,0,0.7,0c0,0,0.1-0.1,0.1-0.1c-0.3,0-0.6,0-0.8,0c-0.6,0.1-0.7,0.2-1,0.6c-0.2,0.4-0.5,1.2-0.9,2.1
	C92.8,95.1,92.8,95.1,92.8,95.1c-0.1,0-0.1,0-0.1,0C92.7,95.2,92.7,95.1,92.8,95.1z"/>
<path class="st2" d="M98.1,93.2C98.1,93.2,98.1,93.2,98.1,93.2c0,0,0,0.1,0,0.4C98.2,93.3,98.1,93.2,98.1,93.2
	C98.1,93.2,98.1,93.2,98.1,93.2z"/>
<path class="st2" d="M98.9,91.9c0.2-0.2,0.5-0.4,0.8-0.5l-3.9-1c0,0.1,0,0.3,0,0.4c0.1,0.4,0.2,0.6,0,1.2c0,0,0,0.1,0,0.1
	c0,0,0,0,0,0c0,0,0,0,0,0c0.8,0.1,1.6,0.3,2.2,0.6c0.1,0,0.1,0.1,0.1,0.1C98.3,92.5,98.5,92.2,98.9,91.9z"/>
<path class="st2" d="M98.2,30.6c0-0.1,0-0.2-0.1-0.3C98.1,30.4,98.2,30.5,98.2,30.6z"/>
<path class="st2" d="M106.4,30.7c-1.9-0.1-4.8-0.2-8.2-0.4c0,0,0,0,0,0C101.6,30.5,104.5,30.7,106.4,30.7z"/>
<path class="st2" d="M67.1,29.3C67.1,29.3,67.2,29.3,67.1,29.3c-0.5-0.3-1.4-0.8-2-0.9C65.7,28.5,66.6,29,67.1,29.3z"/>
<path class="st2" d="M97.8,93c-0.1-0.1-0.2-0.1-0.4-0.2C97.5,92.9,97.7,92.9,97.8,93z"/>
<path class="st2" d="M97.9,30.5C97.9,30.5,97.9,30.5,97.9,30.5C97.9,30.4,97.9,30.4,97.9,30.5C97.8,30.4,97.8,30.4,97.9,30.5z"/>
<path class="st2" d="M92.9,30.3c0.4,1,0.7,1.8,0.9,2.1c0.1,0.2,0.2,0.3,0.3,0.4c-0.1-0.1-0.1-0.2-0.2-0.4
	C93.7,32,93.4,31.2,92.9,30.3C93,30.3,92.9,30.3,92.9,30.3z"/>
<path class="st2" d="M95.7,35.1l3.9-1c-0.2-0.1-0.5-0.3-0.8-0.5c-0.4-0.3-0.6-0.7-0.8-0.9c-0.6,0.3-1.5,0.5-2.2,0.6
	c-0.1,0-0.1,0-0.2,0c0,0,0.1,0.1,0.1,0.2c0.2,0.6,0.1,0.8,0,1.2C95.7,34.8,95.7,34.9,95.7,35.1z"/>
<path class="st2" d="M57.6,29.5c0.5-0.3,1.4-0.8,2.1-1C59.1,28.6,58.1,29.2,57.6,29.5C57.6,29.5,57.6,29.5,57.6,29.5z"/>
<path class="st2" d="M92.5,29.9c-1,0-1.9-0.1-2.9-0.1C90.5,29.8,91.5,29.8,92.5,29.9L92.5,29.9z"/>
<path class="st2" d="M94.8,92.8c-0.4,0-0.5,0-0.7,0.5c-0.1,0.3-0.4,1.1-0.8,1.9c0,0-0.1,0-0.1,0c0,0.1,0,0.1-0.1,0.2
	c0,0.2-0.1,0.3-0.2,0.3c-0.5,1.2-0.9,2.5-1,2.9c0,0.2,0.1,0.3,0.1,0.3c0.1,0.2,0.4,0.3,0.7,0.3c0.8,0.1,1.2,0,1.9-0.5
	c0.5-0.4,1.8-1.9,2.5-3.3c0,0,0.1,0,0.2,0c0-0.1,0.1-0.1,0.1-0.2c0.1,0,0.1,0,0.1,0c0-0.1,0.1-0.1,0.1-0.2h0c0,0,0,0,0,0
	c0-0.1,0-0.1,0-0.1h0c0.1-0.2,0.2-0.3,0.2-0.5c0-0.1,0-0.1,0-0.1c0,0.2-0.1,0.4-0.2,0.6c0.1-0.2,0.1-0.4,0.2-0.6c0,0,0,0,0-0.1
	c0-0.1,0-0.2,0-0.3c0-0.1,0-0.2,0-0.2c0-0.1,0-0.1,0-0.2v-0.1c-0.3-0.2-1.8-0.6-2.8-0.6C94.9,92.8,94.9,92.8,94.8,92.8z"/>
<path class="st2" d="M59.7,97.1c-0.8-0.2-2.1-1-2.3-1.3c0,0-0.1,0-0.1,0c-0.2,0.1-0.5,0.1-0.5,0.1c0.1,0,0.3,0,0.5,0
	C57.6,96.1,58.9,96.9,59.7,97.1z"/>
<path class="st2" d="M97.4,95.5c-0.7,1.3-2.1,2.8-2.7,3.3c-0.7,0.5-1.3,0.7-2.1,0.6c-0.3,0-0.6-0.1-0.8-0.3c0.2,0.2,0.5,0.3,0.9,0.4
	c0.8,0.1,1.4-0.1,2.1-0.6c0.6-0.4,2-2.1,2.8-3.4C97.5,95.5,97.5,95.5,97.4,95.5C97.5,95.5,97.5,95.5,97.4,95.5z"/>
<rect x="56.7" y="95.6" class="st2" width="0.6" height="0"/>
<path class="st2" d="M78.6,29.5c-3.6,0-7.1,0.1-10.4,0.2v0C71.5,29.6,75.1,29.5,78.6,29.5z"/>
<path class="st2" d="M56.8,29.9c0.1,0,0.3,0,0.5,0.1C57.1,29.9,56.9,29.9,56.8,29.9L56.8,29.9z"/>
<path class="st3" d="M152.8,46.3c-0.3-1.5-2.6-7-4.3-8.5c-1.6-1.4-5-2.4-6.2-2.5C143.6,37.1,151,44.9,152.8,46.3z"/>
<path class="st3" d="M142.3,90.2c1.2-0.1,4.6-1.1,6.2-2.5c1.7-1.5,4-7.1,4.3-8.6C151.2,80.4,143.6,88.3,142.3,90.2z"/>
<path class="st2" d="M146.9,33.9c-1.5-0.5-2.8-1-4.1-1.4c0,0,0,0,0,0c-1.8-0.6-3.4-1.1-5.2-1.6c-4.9-1.3-10.3-1.7-17-1.1
	c6.7-0.6,12.1-0.2,16.9,1.2c1.9,0.5,3.5,1,5.3,1.6c-0.1,0.1-0.2,0.1-0.3,0.2c-1.7-0.6-3.3-1-5-1.5c-5.1-1.3-10.5-1.7-16.9-1.1
	c-1.3,0.1-2.5,0.2-3.5,0.3c-4.1,0.4-6.3,0.6-10.7,0.5c-1.9-0.1-4.8-0.2-8.2-0.4c0,0,0,0,0.1,0.1c0,0.1,0,0.1,0,0.1c0,0,0-0.1,0-0.1
	c0,0,0-0.1-0.1-0.1c0,0-0.1,0-0.1,0c0,0,0.1,0.1,0.1,0.2v0.1c0,0.2,0.1,0.4,0.1,0.5c0,0.2,0,0.3,0,0.4v0.1c0,0.1,0,0.1,0,0.2
	c0,0.1,0,0.2,0,0.2c-0.1,0.1-0.2,0.2-0.4,0.3c0,0,0.1,0.1,0.1,0.1c0.2-0.1,0.3-0.2,0.3-0.3c0-0.1,0-0.1,0-0.2
	c0.1,0.2,0.4,0.6,0.8,0.9c0.6,0.5,1.5,0.8,1.5,0.8l1,0.3l-6.5,1.7l-0.1-0.3c0-0.1-0.1-0.7,0-1.1c0.1-0.3,0.1-0.4,0-0.8
	c-0.1-0.3-0.2-0.4-0.5-0.4c0.1,0,0.1,0,0.2,0c-0.3,0-0.5-0.1-0.7-0.2c-0.1,0-0.2-0.1-0.3-0.2c-0.1-0.1-0.2-0.2-0.2-0.4
	c-0.2-0.3-0.6-1.2-1-2.2c0,0-0.1,0-0.1,0c0,0,0-0.1,0-0.1c-4.6-0.2-9.5-0.4-13.9-0.4c-4.8,0-9.8,0.2-13.9,0.3c-2.7,0-5,0.1-6.4,0.1
	c-0.8,0-1.4-0.1-1.6-0.1c-1.2-0.3-5.8-0.9-9.9-1.4c-1.4-0.1-3.1-0.2-5.1-0.2c-3.7,0-8.1,0.3-11.8,0.7c-5.2,0.5-15.5,3.2-20.3,5.5
	C4.9,37,2.8,39.6,2,44.2c-0.8,5-1.4,12.3-1.4,18.5C0.6,69,1.2,76.2,2,81.2c0.8,4.5,2.9,7.2,7.7,9.5s15.1,4.9,20.3,5.5
	c3.7,0.5,8.1,0.7,11.7,0.7c2,0,3.7-0.1,5.1-0.2c4.1-0.5,8.7-1.2,9.9-1.4c0.2-0.1,0.7-0.1,1.6-0.1c1.4,0,3.7,0,6.4,0.1
	c4,0.2,9.1,0.3,13.9,0.3c4.3,0,9.3-0.2,14.1-0.5c0,0-0.1,0-0.1,0c0.4-1,0.8-1.9,1-2.2c0.3-0.6,0.6-0.7,1.2-0.8c0.1,0,0.2,0,0.3,0
	c0.1-0.1,0.2-0.1,0.2-0.3c0.1-0.4,0.1-0.5,0-0.8c-0.1-0.4,0-1,0-1.1l0.1-0.3l6.5,1.7l-1,0.3c0,0-0.9,0.3-1.5,0.8
	c-0.5,0.3-0.7,0.7-0.8,0.9c0,0.1,0,0.2,0,0.4c0-0.3-0.1-0.6-0.1-0.6c0,0-0.1-0.1-0.1-0.1c0,0,0.1,0.3,0.1,0.6c0,0.1,0,0.1,0,0.2
	c0,0.1,0,0.1,0,0.2c0,0.2-0.1,0.3-0.1,0.5c0,0,0,0.1-0.1,0.2c0,0,0,0.1-0.1,0.2c3.4-0.2,6.3-0.4,8.2-0.4c4.4-0.1,6.6,0.1,10.6,0.5
	c1,0.1,2.2,0.2,3.6,0.3c6.5,0.6,11.9,0.2,16.9-1.1c1.5-0.4,2.9-0.8,4.5-1.2c0,0,0.1,0,0.2,0c1.3-0.5,2.9-1,4.6-1.6
	c3.5-1.3,4.6-2.2,6.4-5.3c2-3.4,5-14.7,5-23.3c0-8.6-3-19.9-5-23.3c-1.8-3.1-2.9-4.1-6.4-5.3c-1.6-0.6-3-1.1-4.3-1.3
	c0.1,0,0.2-0.1,0.3-0.2c1.3,0.4,2.6,0.9,4.1,1.4c3.6,1.3,4.8,2.3,6.6,5.4c2.1,3.5,5,14.7,5,23.3c0,0,0-0.1,0-0.1
	c0-8.6-2.9-19.9-5-23.4C151.7,36.2,150.5,35.2,146.9,33.9z M141.8,44.1c4.2,1.7,7.6,3.1,8.2,3.7c1.8,1.7,2.8,10.8,2.8,14.9
	c0,4.2-1,13.2-2.8,14.8c-0.6,0.6-4,2.1-8.3,3.8v-0.7c4.1-1.6,7.3-3,7.9-3.6c1.6-1.5,2.6-10.3,2.6-14.4c0-4.1-1-12.9-2.6-14.4
	c-0.6-0.5-3.8-1.9-7.8-3.5V44.1z M141.5,34.9c0.1-0.1,0.2-0.1,0.2-0.1v0.8c0-0.1-0.1-0.2-0.1-0.2C141.5,35.3,141.4,35.1,141.5,34.9z
	 M16.2,76.5c0.4,2.2,1.1,3.5,1.1,3.5l0.3,0.5H17c-0.3-0.1-8-0.4-9.5-0.7C5.9,79.4,5,79,4.6,77.7c-0.4-1.4-1.5-7.9-1.5-15
	s1.1-13.6,1.5-15c0.4-1.4,1.3-1.8,2.9-2.1c1.5-0.3,9.2-0.7,9.5-0.7h0.6l-0.3,0.5c0,0.1-0.7,1.3-1.1,3.5c-0.5,2.2-0.8,8.4-0.8,13.8
	C15.4,68.1,15.8,74.3,16.2,76.5z M43.1,74.3c0,1.3,0.1,2.3,0.1,2.8c0,2.2-0.8,3.2-2.7,3.3c-0.1,0-0.4,0-0.8,0
	c-3.3,0-14-0.4-15.7-0.7c-2-0.4-2.6-0.8-3.2-2.9c-0.5-2-0.8-7.2-0.8-14.1c0-7,0.3-12.1,0.8-14.1c0.6-2.1,1.2-2.5,3.2-2.9
	c1.7-0.3,12.3-0.7,15.7-0.7c0.4,0,0.7,0,0.9,0c1.9,0.1,2.7,1,2.7,3.3c0,0.6,0,1.5-0.2,2.9c-0.1,2.8-0.4,7-0.4,11.6
	C42.7,67.4,42.9,71.5,43.1,74.3z M85.7,82.3c-0.2,0.1-0.7,0.4-6.1,0.4c-9.9,0-29.5-1.1-31.2-2.1c-2.3-1.4-2.6-9.4-2.6-17.8
	c0-8.4,0.3-16.4,2.6-17.8c1.7-1.1,21.2-2.1,31.2-2.1c5.4,0,5.9,0.3,6.1,0.4c2.1,1.1,3.5,9.3,3.5,19.6C89.2,73,87.7,81.2,85.7,82.3z
	 M106.9,88.3h-0.1c-1.6,0-13.6-2.8-14.9-3.4c-1.7-0.7-1.8-1.7-1.4-3.6c0-0.1,1.8-9.3,1.8-18.6s-1.8-18.5-1.8-18.6
	c-0.3-1.9-0.2-2.9,1.4-3.6c1.1-0.5,13.1-3.4,14.9-3.4h0.1c1.5,0.2,3.7,1.5,5.5,4.1c2.1,3.1,4.4,10.5,4.4,21.5s-2.3,18.3-4.4,21.5
	C110.6,86.8,108.4,88.2,106.9,88.3z M119.8,88.7c-1,0.1-2.1,0.2-3.3,0.2c-1.9,0-3.3-0.2-3.4-0.2l-0.8-0.1l0.7-0.4
	c0.1,0,6.9-4.7,6.9-25.6c0-20.9-6.8-25.6-6.9-25.6l-0.7-0.4l0.8-0.1c0,0,1.4-0.2,3.4-0.2c1.2,0,2.3,0,3.3,0.2
	c2.3,0.3,13.8,4.4,21.9,7.6v0.6c-8.1-3.2-19.7-7.3-22-7.6c-1-0.1-2.1-0.2-3.2-0.2s-2,0-2.6,0.1c1.7,1.6,6.6,7.8,6.6,25.7
	c0,17.9-4.9,24.1-6.6,25.7c0.6,0,1.5,0.1,2.6,0.1s2.2,0,3.2-0.2c2.3-0.3,13.9-4.4,21.9-7.9v0.7C133.5,84.4,122.1,88.4,119.8,88.7z
	 M148.9,88.1c-1.8,1.6-5.7,2.7-6.9,2.7c-0.2,0-0.3-0.1-0.4-0.1v0c0,0,0,0,0-0.1c0,0-0.1,0-0.1,0c-0.1-0.1,0-0.2,0-0.3V90
	c0.6-0.9,10.4-11.8,11.5-11.8h0.1l0.1,0.1c0.1,0.1,0.2,0.2,0.2,0.4C153.5,79.9,150.8,86.4,148.9,88.1z M155.8,57.4
	c1.2,0,1.4,3.9,1.4,5.4c0,1.5-0.3,5.4-1.4,5.4c-0.6,0-0.7-0.8-0.7-5.4C155.1,58.2,155.2,57.4,155.8,57.4z M149,37.3
	c1.9,1.6,4.6,8.2,4.5,9.4c0,0.2-0.1,0.3-0.2,0.4l-0.1,0.1h-0.1c-1,0-10.1-10-11.3-11.6v-0.8c0.1-0.1,0.3-0.1,0.4-0.1
	C143.3,34.7,147.1,35.7,149,37.3z"/>
<path class="st2" d="M98.2,30.3c0,0-0.1,0-0.1,0C98.1,30.3,98.2,30.3,98.2,30.3C98.2,30.3,98.2,30.3,98.2,30.3z"/>
<path class="st2" d="M78.6,29.5c1.1,0,2.1,0,3.2,0C80.7,29.5,79.6,29.5,78.6,29.5z"/>
<path class="st2" d="M97.8,32.4C97.8,32.4,97.8,32.4,97.8,32.4c-0.2,0.1-0.4,0.2-0.8,0.3C97.4,32.6,97.6,32.5,97.8,32.4z"/>
<path class="st3" d="M111.9,41.6c-1.8-2.8-4-3.7-5-3.8c-1.6,0-13.5,2.7-14.7,3.4c-1.1,0.5-1.4,0.9-1,2.9c0,0.1,1.8,9.3,1.8,18.7
	c0,9.4-1.8,18.6-1.8,18.7c-0.4,2-0.1,2.4,1,2.9c1.2,0.5,13.1,3.3,14.6,3.3h0.1c1-0.1,3.1-1,5-3.8c2-2.9,4.3-10.2,4.3-21.1
	C116.2,51.8,113.9,44.5,111.9,41.6z"/>
<path class="st2" d="M92.7,29.7c0.1,0,0.2,0,0.3,0c0,0.1,0.1,0.2,0.2,0.3c0,0-0.1,0-0.1,0c0,0.1,0.1,0.2,0.1,0.3c0.1,0,0.1,0,0.2,0
	c0.3,0.8,0.6,1.6,0.8,1.9c0.2,0.4,0.3,0.5,0.7,0.5c0.1,0,0.2,0,0.4,0.1c1-0.1,2.2-0.4,2.4-0.6v0.1l0.1,0.1c0,0,0.1,0,0.1,0
	c0,0,0-0.1,0-0.1l-0.1-0.1v-0.1V32c0-0.1,0-0.1,0-0.2c0-0.1,0-0.1,0-0.2c0-0.1,0-0.2,0-0.3c0,0,0-0.1,0.1-0.2c0-0.2-0.1-0.3-0.2-0.5
	c0,0-0.1,0-0.1,0c0.1,0.2,0.2,0.4,0.2,0.6c-0.1-0.1-0.1-0.3-0.2-0.6c0,0-0.1,0-0.1,0c0-0.1-0.1-0.2-0.2-0.2c0.2,0,0.3,0,0.4,0
	c0.2,0,0.3,0,0.4,0c0,0,0-0.1,0-0.1c-0.1,0-0.2,0-0.3,0c-0.2,0-0.3,0-0.4,0c-0.1-0.1-0.1-0.2-0.2-0.3c0,0,0.1,0,0.1,0
	c-0.8-1.3-2.1-2.8-2.7-3.2c-0.6-0.4-1-0.5-1.5-0.5c-0.1,0-0.3,0-0.4,0c-0.4,0.1-0.6,0.2-0.7,0.3c-0.1,0.1-0.1,0.1-0.1,0.3
	c0.1,0.4,0.6,1.6,1.2,2.8C93,29.6,92.9,29.6,92.7,29.7c-0.4-1.3-0.8-2.5-0.9-2.9c-0.1-0.5,0.3-0.8,1-0.9c0.1,0,0.3,0,0.4,0
	c-0.2,0-0.4,0-0.6,0c-0.7,0.1-1.1,0.4-1,0.9C91.7,27.2,92.1,28.4,92.7,29.7C92.6,29.7,92.7,29.7,92.7,29.7z"/>
<path class="st2" d="M57.3,30h0.1v-0.1c1.5,0.1,5.4-0.1,10.1-0.2c-4.8,0.1-8.6,0.3-10.1,0.1v-0.1l-0.1,0.1V30z"/>
<path class="st2" d="M98.1,95.2c0,0.1-0.1,0.2-0.2,0.3c0,0,0,0,0.1,0C98,95.4,98.1,95.3,98.1,95.2L98.1,95.2z"/>
<path class="st3" d="M40.6,45.6c-0.2,0-0.4,0-0.8,0c-3.3,0-13.9,0.4-15.6,0.7c-1.8,0.4-2.2,0.6-2.7,2.5c-0.5,1.9-0.8,7.1-0.8,13.9
	s0.3,12,0.8,13.9c0.5,1.9,0.9,2.1,2.7,2.5c1.7,0.3,12.3,0.7,15.6,0.7c0.4,0,0.6,0,0.8,0c1.4-0.1,2.1-0.5,2.1-2.7
	c0-0.5,0-1.5-0.1-2.8c-0.2-2.8-0.5-7-0.4-11.6c0-4.6,0.2-8.8,0.4-11.6c0-1.3,0.1-2.3,0.1-2.8C42.7,46.1,42,45.7,40.6,45.6z"/>
<path class="st2" d="M7.6,46.3c-1.5,0.3-2.1,0.6-2.4,1.6c-0.4,1.3-1.5,7.9-1.5,14.8s1.1,13.5,1.5,14.9c0.3,1,0.9,1.3,2.4,1.6
	c1.3,0.2,7.1,0.5,8.9,0.6c-0.2-0.6-0.6-1.7-0.9-3.2c-0.5-2.2-0.8-8.5-0.8-13.9s0.3-11.6,0.8-13.8c0.2-1.5,0.6-2.6,0.9-3.2
	C14.7,45.8,8.9,46,7.6,46.3z"/>
<path class="st2" d="M85.4,43.8c-0.2-0.1-1-0.3-5.8-0.3c-10.5,0-29.4,1.1-30.9,2c-2.3,1.3-2.3,12.5-2.3,17.2s0,15.8,2.3,17.2
	c1.4,0.9,20.4,2,30.9,2c4.9,0,5.7-0.2,5.8-0.3c1.6-0.9,3.2-8.2,3.2-18.9S87,44.7,85.4,43.8z"/>
<path class="st2" d="M67.4,95.8V96c0,0,0.1,0,0.1,0L67.4,95.8L67.4,95.8z"/>
<path class="st0" d="M97.1,32.7c-0.1,0-0.2,0.1-0.4,0.1C96.8,32.8,96.9,32.7,97.1,32.7z"/>
<path class="st0" d="M147,33.6c-1.4-0.5-2.6-1-3.8-1.3c0,0,0,0,0,0c-1.9-0.6-3.6-1.2-5.5-1.7c-5.1-1.3-10.6-1.7-17.1-1.1
	c-1.3,0.1-2.5,0.2-3.5,0.3c-4.1,0.4-6.2,0.6-10.6,0.5c-2,0-4.9-0.2-8.4-0.4c0,0,0-0.1,0-0.1c-0.1,0-0.2,0-0.2,0.1
	c-0.8-1.4-2.3-3.2-3-3.7c-0.8-0.6-1.4-0.7-2.3-0.6c-0.5,0.1-0.9,0.2-1.1,0.5c-0.2,0.2-0.2,0.5-0.2,0.8c0.1,0.4,0.5,1.5,1,2.7
	c-4.6-0.2-9.3-0.4-13.6-0.4c-3.5,0-7.2,0.1-10.5,0.2v0.1v0.2c3.3-0.1,6.8-0.2,10.4-0.2c1,0,2.1,0,3.2,0c-1.1,0-2.2,0-3.2,0
	c-3.5,0-7.1,0.1-10.4,0.2v0c0,0-0.1,0-0.1,0v-0.2v-0.1c-0.2-0.6-2.2-1.5-2.9-1.6c-0.9-0.2-4.7-0.1-5.6,0.1C59,28,57,29,56.8,29.6
	c0.1,0,0.3,0,0.6,0v0.1v0.1c1.5,0.2,5.3,0,10.1-0.1c-4.7,0.1-8.6,0.3-10.1,0.2V30h-0.1c-0.2-0.1-0.4-0.1-0.5-0.1v0
	c0.1,0,0.3,0,0.5,0.1v-0.2l0.1-0.1c-0.3,0-0.6,0-0.7,0c-1.3-0.2-5.9-0.9-10-1.4c-1.4-0.1-3.1-0.2-5.1-0.2c-3.7,0-8.1,0.2-11.9,0.7
	c-5.1,0.4-15.6,3.1-20.4,5.4c-4.9,2.4-7.1,5.1-7.9,9.9C0.5,49.2,0,56.5,0,62.7C0,69,0.5,76.3,1.4,81.3c0.8,4.8,3,7.6,7.9,9.9
	c4.8,2.3,15.3,5,20.5,5.6c3.7,0.4,8.1,0.7,11.8,0.7c2.1,0,3.8-0.1,5.2-0.2c4-0.4,8.4-1.1,9.8-1.4c0,0.6,2.2,1.7,2.8,1.8
	c0.6,0.1,2.2,0.2,3.6,0.2c0.9,0,1.7,0,2.1-0.1c0.7-0.1,2.9-1.1,2.9-1.7c-0.2,0-0.4,0-0.6,0c0,0,0.1-0.1,0.1-0.1c0,0-0.1,0-0.1,0
	v-0.2h0.1V96c0.1,0,0.3,0,0.5,0v0.1c3.3,0.1,6.9,0.2,10.5,0.2c4.3,0,9.2-0.2,13.7-0.4c0-0.1,0.1-0.2,0.1-0.3
	c-4.5,0.1-9.4,0.3-13.7,0.3c-3.5,0-7.1-0.1-10.4-0.2v0h-0.7v0c-5.6-0.1-10-0.3-10.8-0.1h0.6v0h-0.6v0c-1.3,0.3-5.9,0.9-10,1.4
	c-4.3,0.5-11.6,0.2-16.9-0.4C24.5,96,14.2,93.3,9.4,91c-4.8-2.3-7-5.1-7.7-9.7c-0.8-4.9-1.4-12.2-1.4-18.5c0-6.4,0.6-13.7,1.4-18.5
	c0.3-1.7,0.8-3.2,1.5-4.5c-0.7,1.3-1.2,2.7-1.4,4.4C1,49.1,0.4,56.4,0.4,62.7S1,76.3,1.8,81.2c0.8,4.6,2.9,7.4,7.7,9.7
	s15.1,5,20.4,5.6c5.3,0.6,12.7,0.9,16.9,0.4c4-0.4,8.7-1.1,10-1.4s12.1,0.3,21.9,0.3c4.3,0,9.3-0.2,13.8-0.4c0,0,0,0.1,0,0.1
	c0,0.1-0.1,0.2-0.1,0.3c-0.5,1.2-0.9,2.3-1,2.8c0,0.3,0,0.6,0.2,0.8c0.2,0.3,0.6,0.4,1.1,0.5c0.2,0,0.3,0,0.5,0
	c0.7,0,1.2-0.2,1.8-0.7c0.7-0.5,2.3-2.3,3-3.7c0,0-0.1,0-0.1,0c0.1-0.1,0.2-0.2,0.2-0.3h0c0,0.1-0.1,0.2-0.1,0.3
	c3.5-0.2,6.5-0.4,8.5-0.4c4.3-0.1,6.5,0.1,10.5,0.5c1.1,0.1,2.2,0.2,3.6,0.3c6.5,0.6,12,0.2,17.1-1.1c1.9-0.5,3.6-1,5.5-1.7
	c0,0-0.1,0-0.1,0c1.1-0.4,2.4-0.8,3.8-1.3c3.8-1.3,5-2.3,6.9-5.5c2-3.5,5-14.9,5-23.6s-3-20.1-5-23.6
	C151.9,35.9,150.7,34.9,147,33.6z M57.6,29.5C57.6,29.5,57.6,29.5,57.6,29.5c0.5-0.3,1.4-0.9,2.1-1C59.1,28.7,58.1,29.2,57.6,29.5z
	 M67.1,29.3c-0.5-0.3-1.4-0.8-2-0.9C65.7,28.5,66.7,29,67.1,29.3C67.2,29.3,67.1,29.3,67.1,29.3z M57.3,95.8c0,0,0.1,0,0.1,0
	c0.2,0.3,1.5,1.1,2.3,1.3c-0.8-0.2-2.1-1-2.4-1.2c-0.2,0-0.4,0-0.5,0C56.8,95.9,57.1,95.9,57.3,95.8z M106.4,30.7
	c-1.9,0-4.8-0.2-8.2-0.4c0,0,0,0,0,0C101.6,30.5,104.5,30.6,106.4,30.7z M98.2,30.3C98.2,30.3,98.2,30.3,98.2,30.3c0,0-0.1,0-0.1,0
	C98.1,30.3,98.2,30.3,98.2,30.3z M91.6,26.8c-0.1-0.5,0.3-0.8,1-0.9c0.2,0,0.4,0,0.6,0c-0.1,0-0.3,0-0.4,0c-0.7,0.1-1.1,0.4-1,0.9
	c0.1,0.4,0.5,1.6,1,2.8c0.1,0,0.2,0,0.3,0c-0.6-1.2-1.1-2.4-1.2-2.8c0-0.2,0-0.2,0.1-0.3c0.1-0.1,0.3-0.2,0.7-0.3c0.1,0,0.3,0,0.4,0
	c0.5,0,0.9,0.1,1.5,0.5c0.6,0.4,1.9,1.9,2.7,3.2c0,0-0.1,0-0.1,0c0.1,0.1,0.1,0.2,0.2,0.3c0.1,0,0.2,0,0.4,0c0.1,0,0.2,0,0.3,0
	c0,0,0,0.1,0,0.1c-0.1,0-0.2,0-0.4,0c-0.1,0-0.2,0-0.4,0c0.1,0,0.2,0.1,0.2,0.2c0,0,0.1,0,0.1,0c0.1,0.3,0.1,0.5,0.2,0.6
	c0-0.2-0.1-0.4-0.2-0.6c0,0,0.1,0,0.1,0c0.1,0.2,0.2,0.3,0.2,0.5c-0.1,0.1-0.1,0.2-0.1,0.2c0,0.1,0,0.2,0,0.3c0,0.1,0,0.1,0,0.2
	c0,0.1,0,0.1,0,0.2v0.1v0.1l0.1,0.1c0,0,0,0,0,0.1c0,0-0.1,0-0.1,0c0,0,0,0,0,0c-0.2,0.1-0.5,0.2-0.8,0.3c-0.1,0-0.2,0.1-0.4,0.1
	c0.1,0,0.2-0.1,0.4-0.1c0.3-0.1,0.6-0.2,0.7-0.3l-0.1-0.1v-0.1c-0.3,0.2-1.5,0.5-2.4,0.6c-0.1-0.1-0.3-0.1-0.4-0.1
	c-0.4,0-0.5-0.1-0.7-0.5c-0.2-0.3-0.5-1.1-0.8-1.9c-0.1,0-0.1,0-0.2,0c0-0.1-0.1-0.2-0.1-0.3c0,0,0.1,0,0.1,0
	c-0.1-0.1-0.2-0.2-0.2-0.3c-0.1,0-0.2,0-0.3,0c0,0-0.1,0-0.1,0C92.1,28.4,91.7,27.2,91.6,26.8z M97.9,30.5
	C97.9,30.5,97.9,30.5,97.9,30.5C97.8,30.4,97.8,30.4,97.9,30.5C97.9,30.4,97.9,30.4,97.9,30.5z M95.7,33.5c0-0.1-0.1-0.2-0.1-0.2
	c0.1,0,0.1,0,0.2,0c0.8-0.1,1.6-0.3,2.2-0.6c0.2,0.2,0.4,0.6,0.8,0.9c0.3,0.2,0.6,0.4,0.8,0.5l-3.9,1c0-0.2,0-0.3,0-0.4
	C95.8,34.3,95.9,34.1,95.7,33.5z M94.1,32.7c-0.1-0.1-0.2-0.2-0.3-0.4c-0.2-0.3-0.5-1.1-0.9-2.1c0,0,0.1,0,0.1,0
	c0.4,0.9,0.7,1.7,0.9,2.1C94,32.6,94,32.7,94.1,32.7z M92.5,29.9L92.5,29.9c-1,0-1.9-0.1-2.9-0.1C90.5,29.8,91.5,29.8,92.5,29.9z
	 M88.7,29.7c-0.9,0-1.8-0.1-2.6-0.1C86.9,29.6,87.8,29.7,88.7,29.7z M85.1,29.6c-1,0-1.9-0.1-2.8-0.1C83.2,29.5,84.2,29.6,85.1,29.6
	z M94.8,98.9c-0.7,0.5-1.3,0.7-2.1,0.6c-0.4-0.1-0.7-0.2-0.9-0.4c0.2,0.1,0.4,0.2,0.8,0.3c0.8,0.1,1.4-0.1,2.1-0.6
	c0.7-0.5,2-2,2.7-3.3c0,0,0,0,0.1,0c0,0,0,0,0.1,0C96.8,96.8,95.4,98.5,94.8,98.9z M97.8,93.5c0,0.1,0,0.1,0,0.2c0,0,0,0.1,0,0.2
	c0,0.1,0,0.2,0,0.3c0,0,0,0.1,0,0.1c0,0,0,0,0,0.1c0,0.2-0.1,0.3-0.2,0.5h0c0,0,0,0,0,0.1c0,0,0,0,0,0h0c0,0.1,0,0.1-0.1,0.2
	c0,0-0.1,0-0.1,0c-0.1,0.1-0.1,0.1-0.1,0.2c-0.1,0-0.1,0-0.2,0c-0.7,1.4-2,2.9-2.5,3.3c-0.7,0.5-1.1,0.6-1.9,0.5
	c-0.3,0-0.6-0.1-0.7-0.3c0,0-0.1-0.1-0.1-0.3c0.1-0.4,0.5-1.7,1-2.9c0.1,0,0.2-0.1,0.2-0.3c0.1-0.1,0.1-0.1,0.1-0.2c0,0,0.1,0,0.1,0
	c0.4-0.8,0.7-1.6,0.8-1.9c0.2-0.5,0.3-0.5,0.7-0.5c0.1,0,0.1,0,0.2,0C96,92.8,97.5,93.2,97.8,93.5L97.8,93.5z M97.4,92.8
	c0.2,0,0.3,0.1,0.4,0.2C97.7,92.9,97.5,92.9,97.4,92.8z M95.8,92.1C95.8,92.1,95.8,92.1,95.8,92.1C95.8,92.1,95.8,92.1,95.8,92.1
	c0,0,0-0.1,0-0.1c0.2-0.6,0.1-0.8,0-1.2c0-0.1,0-0.3,0-0.4l3.9,1c-0.3,0.1-0.6,0.3-0.8,0.5c-0.4,0.3-0.6,0.7-0.8,0.9
	c0,0-0.1-0.1-0.1-0.1C97.4,92.4,96.6,92.2,95.8,92.1z M98.1,93.2C98.1,93.2,98.1,93.2,98.1,93.2C98.1,93.2,98.1,93.2,98.1,93.2
	c0,0,0.1,0.2,0,0.4C98.1,93.3,98.1,93.2,98.1,93.2z M158.5,62.8c0-8.6-2.9-19.8-5-23.3c-1.8-3.1-3-4.1-6.6-5.4
	c-1.5-0.5-2.8-1-4.1-1.4c-0.1,0.1-0.2,0.2-0.3,0.2c1.3,0.2,2.7,0.7,4.3,1.3c3.5,1.2,4.6,2.2,6.4,5.3c2,3.4,5,14.7,5,23.3
	c0,8.6-3,19.9-5,23.3c-1.8,3.1-2.9,4-6.4,5.3c-1.8,0.7-3.3,1.1-4.6,1.6c-0.1,0-0.1,0-0.2,0c-1.6,0.4-3,0.8-4.5,1.2
	c-5,1.3-10.4,1.7-16.9,1.1c-1.4-0.1-2.6-0.2-3.6-0.3c-4-0.4-6.2-0.6-10.6-0.5c-1.9,0-4.8,0.2-8.2,0.4c0.1-0.1,0.1-0.2,0.1-0.2
	c0.1-0.1,0.1-0.2,0.1-0.2c0-0.2,0.1-0.3,0.1-0.5c0-0.1,0-0.1,0-0.2c0-0.1,0-0.1,0-0.2c0-0.3-0.1-0.6-0.1-0.6c0,0,0.1,0.1,0.1,0.1
	c0,0,0.1,0.3,0.1,0.6c0-0.2,0-0.3,0-0.4c0.1-0.2,0.3-0.6,0.8-0.9c0.6-0.5,1.5-0.8,1.5-0.8l1-0.3l-6.5-1.7l-0.1,0.3
	c0,0.1-0.1,0.7,0,1.1c0.1,0.3,0.1,0.4,0,0.8c-0.1,0.2-0.1,0.2-0.2,0.3c-0.1,0-0.2,0-0.3,0c-0.6,0.1-0.9,0.2-1.2,0.8
	c-0.2,0.3-0.6,1.2-1,2.2c0,0,0.1,0,0.1,0c0.1,0,0.1,0,0.2,0c0.4-0.9,0.7-1.7,0.9-2.1c0.3-0.4,0.4-0.5,1-0.6c0.2,0,0.5,0,0.8,0
	c0,0-0.1,0.1-0.1,0.1c-0.3,0-0.5,0-0.7,0c-0.5,0.1-0.7,0.1-1,0.6c-0.2,0.3-0.5,1.1-0.9,2c0,0-0.1,0-0.1,0c0,0,0,0,0,0.1
	c0,0-0.1,0-0.1,0c0,0,0-0.1,0-0.1c-4.8,0.3-9.8,0.5-14.1,0.5c-4.8,0-9.9-0.1-13.9-0.3c-2.7-0.1-5-0.1-6.4-0.1c-0.9,0-1.4,0-1.6,0.1
	c-1.2,0.2-5.8,0.9-9.9,1.4c-1.4,0.1-3.1,0.2-5.1,0.2c-3.6,0-8-0.2-11.7-0.7c-5.2-0.6-15.5-3.2-20.3-5.5s-6.9-5-7.7-9.5
	c-0.8-5-1.4-12.2-1.4-18.5c0-6.2,0.6-13.5,1.4-18.5c0.8-4.6,2.9-7.2,7.6-9.5c4.8-2.3,15.1-5,20.3-5.5c3.7-0.4,8.1-0.7,11.8-0.7
	c2,0,3.7,0.1,5.1,0.2c4.1,0.5,8.7,1.1,9.9,1.4c0.2,0,0.8,0.1,1.6,0.1c1.4,0,3.7-0.1,6.4-0.1c4.1-0.1,9.1-0.3,13.9-0.3
	c4.4,0,9.3,0.2,13.9,0.4c0,0,0,0.1,0,0.1c0,0,0.1,0,0.1,0c0.4,1,0.8,1.9,1,2.2c0,0.2,0.1,0.3,0.2,0.4c0.1,0.1,0.2,0.2,0.3,0.2
	c0.2,0.1,0.4,0.2,0.7,0.2c-0.1,0-0.1,0-0.2,0c0.3,0,0.4,0.1,0.5,0.4c0.1,0.4,0.1,0.5,0,0.8c-0.1,0.4,0,1,0,1.1l0.1,0.3l6.5-1.7
	l-1-0.3c0,0-0.9-0.3-1.5-0.8c-0.4-0.3-0.7-0.7-0.8-0.9c0,0.1,0,0.1,0,0.2c0,0.1-0.2,0.2-0.3,0.3c-0.1,0-0.1-0.1-0.1-0.1
	c0.2-0.1,0.3-0.2,0.4-0.3c0,0,0-0.1,0-0.2c0-0.1,0-0.1,0-0.2v-0.1c0-0.1,0-0.2,0-0.4c0-0.1-0.1-0.3-0.1-0.5v-0.1
	c0-0.1-0.1-0.2-0.1-0.2c0,0,0.1,0,0.1,0c0-0.1-0.1-0.2-0.1-0.3c0.1,0.1,0.1,0.2,0.1,0.3c3.4,0.2,6.3,0.3,8.2,0.4
	c4.4,0.1,6.6-0.1,10.7-0.5c1-0.1,2.2-0.2,3.5-0.3c6.4-0.6,11.8-0.2,16.9,1.1c1.7,0.5,3.3,0.9,5,1.5c0.1-0.1,0.2-0.1,0.3-0.2
	c-1.8-0.6-3.4-1.1-5.3-1.6c-4.8-1.4-10.2-1.8-16.9-1.2c6.7-0.6,12.1-0.2,17,1.1c1.9,0.5,3.5,1,5.2,1.6c0,0,0,0,0,0
	c1.3,0.4,2.6,0.9,4.1,1.4c3.6,1.3,4.8,2.3,6.6,5.4C155.6,42.8,158.5,54.1,158.5,62.8C158.5,62.7,158.5,62.7,158.5,62.8z"/>
<path class="st0" d="M141.6,80.4c-8,3.5-19.6,7.6-21.9,7.9c-1,0.2-2.1,0.2-3.2,0.2s-2-0.1-2.6-0.1c1.7-1.6,6.6-7.8,6.6-25.7
	c0-17.9-4.9-24.1-6.6-25.7c0.6-0.1,1.5-0.1,2.6-0.1s2.2,0.1,3.2,0.2c2.3,0.3,13.9,4.4,22,7.6v-0.6c-8.1-3.2-19.6-7.3-21.9-7.6
	c-1-0.2-2.1-0.2-3.3-0.2c-2,0-3.4,0.2-3.4,0.2l-0.8,0.1L113,37c0.1,0,6.9,4.7,6.9,25.6c0,20.9-6.8,25.6-6.9,25.6l-0.7,0.4l0.8,0.1
	c0.1,0,1.5,0.2,3.4,0.2c1.2,0,2.3-0.1,3.3-0.2c2.3-0.3,13.7-4.3,21.8-7.6V80.4z"/>
<path class="st0" d="M152.2,62.6c0,4.1-1,12.9-2.6,14.4c-0.6,0.6-3.8,2-7.9,3.6v0.7c4.3-1.7,7.7-3.2,8.3-3.8
	c1.8-1.6,2.8-10.6,2.8-14.8c0-4.1-1-13.2-2.8-14.9c-0.6-0.6-4-2-8.2-3.7v0.6c4,1.6,7.2,3,7.8,3.5C151.2,49.7,152.2,58.5,152.2,62.6z
	"/>
<path class="st0" d="M98.2,30.6C98.2,30.6,98.2,30.6,98.2,30.6C98.2,30.6,98.2,30.6,98.2,30.6z"/>
<path class="st0" d="M98.3,30.7C98.3,30.7,98.3,30.7,98.3,30.7C98.3,30.8,98.3,30.7,98.3,30.7z"/>
<path class="st0" d="M97.8,94.3c-0.1,0.2-0.1,0.4-0.2,0.6C97.7,94.7,97.8,94.5,97.8,94.3z"/>
<path class="st0" d="M141.7,35.6v-0.8c0,0-0.1,0-0.2,0.1c-0.1,0.2,0,0.4,0.1,0.5C141.6,35.4,141.7,35.5,141.7,35.6z"/>
<path class="st0" d="M141.8,34.8v0.8c1.2,1.6,10.3,11.6,11.3,11.6h0.1l0.1-0.1c0.1-0.1,0.2-0.2,0.2-0.4c0.1-1.2-2.6-7.8-4.5-9.4
	c-1.9-1.6-5.7-2.6-6.8-2.6C142.1,34.7,141.9,34.7,141.8,34.8z M148.5,37.8c1.7,1.5,4,7,4.3,8.5c-1.8-1.4-9.2-9.2-10.5-11
	C143.5,35.4,146.9,36.4,148.5,37.8z"/>
<path class="st0" d="M153.1,78.2L153.1,78.2c-1.2,0-11,10.9-11.6,11.8v0.3c0,0.1-0.1,0.2,0,0.3c0,0,0,0,0.1,0c0,0,0,0,0,0.1v0
	c0.1,0.1,0.2,0.1,0.4,0.1c1.2,0,5.1-1.1,6.9-2.7c1.9-1.7,4.6-8.2,4.5-9.4c0-0.2-0.1-0.3-0.2-0.4L153.1,78.2z M148.5,87.7
	c-1.6,1.4-5,2.4-6.2,2.5c1.3-1.9,8.9-9.8,10.5-11.1C152.5,80.6,150.2,86.2,148.5,87.7z"/>
<path class="st0" d="M155.8,68.2c1.1,0,1.4-3.9,1.4-5.4c0-1.5-0.2-5.4-1.4-5.4c-0.6,0-0.7,0.8-0.7,5.4
	C155.1,67.4,155.2,68.2,155.8,68.2z"/>
<path class="st0" d="M116.8,62.7c0-11-2.3-18.4-4.4-21.5c-1.8-2.6-4-3.9-5.5-4.1h-0.1c-1.8,0-13.8,2.9-14.9,3.4
	c-1.6,0.7-1.7,1.7-1.4,3.6c0,0.1,1.8,9.3,1.8,18.6s-1.8,18.5-1.8,18.6c-0.4,1.9-0.3,2.9,1.4,3.6c1.3,0.6,13.3,3.4,14.9,3.4h0.1
	c1.5-0.1,3.7-1.5,5.5-4.1C114.5,81,116.8,73.7,116.8,62.7z M106.9,87.7h-0.1c-1.5,0-13.4-2.8-14.6-3.3c-1.1-0.5-1.4-0.9-1-2.9
	c0-0.1,1.8-9.3,1.8-18.7c0-9.4-1.8-18.6-1.8-18.7c-0.4-2-0.1-2.4,1-2.9c1.2-0.7,13.1-3.4,14.7-3.4c1,0.1,3.2,1,5,3.8
	c2,2.9,4.3,10.2,4.3,21.2c0,10.9-2.3,18.2-4.3,21.1C110,86.7,107.9,87.6,106.9,87.7z"/>
<path class="st0" d="M85.7,43.3c-0.2-0.1-0.7-0.4-6.1-0.4c-10,0-29.5,1-31.2,2.1c-2.3,1.4-2.6,9.4-2.6,17.8c0,8.4,0.3,16.4,2.6,17.8
	c1.7,1,21.3,2.1,31.2,2.1c5.4,0,5.9-0.3,6.1-0.4c2-1.1,3.5-9.3,3.5-19.4C89.2,52.6,87.8,44.4,85.7,43.3z M85.4,81.6
	c-0.1,0.1-0.9,0.3-5.8,0.3c-10.5,0-29.5-1.1-30.9-2c-2.3-1.4-2.3-12.5-2.3-17.2s0-15.9,2.3-17.2c1.5-0.9,20.4-2,30.9-2
	c4.8,0,5.6,0.2,5.8,0.3c1.6,0.9,3.2,8.2,3.2,18.9S87,80.7,85.4,81.6z"/>
<path class="st0" d="M43.3,48.3c0-2.3-0.8-3.2-2.7-3.3c-0.2,0-0.5,0-0.9,0c-3.4,0-14,0.4-15.7,0.7c-2,0.4-2.6,0.8-3.2,2.9
	c-0.5,2-0.8,7.1-0.8,14.1c0,6.9,0.3,12.1,0.8,14.1c0.6,2.1,1.2,2.5,3.2,2.9c1.7,0.3,12.4,0.7,15.7,0.7c0.4,0,0.7,0,0.8,0
	c1.9-0.1,2.7-1.1,2.7-3.3c0-0.5-0.1-1.5-0.1-2.8c-0.2-2.8-0.4-6.9-0.4-11.5c0-4.6,0.3-8.8,0.4-11.6C43.3,49.8,43.3,48.9,43.3,48.3z
	 M42.6,51.1c-0.2,2.8-0.4,7-0.4,11.6c-0.1,4.6,0.2,8.8,0.4,11.6c0.1,1.3,0.1,2.3,0.1,2.8c0,2.2-0.7,2.6-2.1,2.7c-0.2,0-0.4,0-0.8,0
	c-3.3,0-13.9-0.4-15.6-0.7c-1.8-0.4-2.2-0.6-2.7-2.5c-0.5-1.9-0.8-7.1-0.8-13.9s0.3-12,0.8-13.9c0.5-1.9,0.9-2.1,2.7-2.5
	c1.7-0.3,12.3-0.7,15.6-0.7c0.4,0,0.6,0,0.8,0c1.4,0.1,2.1,0.5,2.1,2.7C42.7,48.8,42.6,49.8,42.6,51.1z"/>
<path class="st0" d="M17.3,45.4l0.3-0.5H17c-0.3,0-8,0.4-9.5,0.7c-1.6,0.3-2.5,0.7-2.9,2.1c-0.4,1.4-1.5,7.9-1.5,15s1.1,13.6,1.5,15
	C5,79,5.9,79.4,7.5,79.8c1.5,0.3,9.2,0.6,9.5,0.7h0.6L17.3,80c0,0-0.7-1.3-1.1-3.5c-0.4-2.2-0.8-8.4-0.8-13.8
	c0-5.4,0.3-11.6,0.8-13.8C16.6,46.7,17.3,45.5,17.3,45.4z M14.8,62.7c0,5.4,0.3,11.7,0.8,13.9c0.3,1.5,0.7,2.6,0.9,3.2
	c-1.8-0.1-7.6-0.4-8.9-0.6c-1.5-0.3-2.1-0.6-2.4-1.6c-0.4-1.4-1.5-8-1.5-14.9s1.1-13.5,1.5-14.8c0.3-1,0.9-1.3,2.4-1.6
	c1.3-0.3,7.1-0.5,8.9-0.6c-0.3,0.6-0.7,1.7-0.9,3.2C15.1,51.1,14.8,57.3,14.8,62.7z"/>
</svg>
