<?xml version="1.0" encoding="utf-8"?>
<!-- Generator: Adobe Illustrator 19.2.1, SVG Export Plug-In . SVG Version: 6.00 Build 0)  -->
<svg version="1.1" id="H1_1_" xmlns="http://www.w3.org/2000/svg" xmlns:xlink="http://www.w3.org/1999/xlink" x="0px" y="0px"
	 viewBox="0 0 194.4 165.6" style="enable-background:new 0 0 194.4 165.6;" xml:space="preserve">
<style type="text/css">
	.st0{fill:#E5E5E5;}
	.st1{fill:#999999;}
</style>
<path class="st0" d="M113,102.8c0.1,0,0.3,0.1,0.4,0.2c0.1,0.1,0.1,0.2,0.1,0.3l1.4,1.7l1.9,2.8l1.2,0.3c0,0,0,0,0,0v-5.6l-1.6-3
	l-2.8-4.1l-0.3,0.2l-0.9,5.3l-0.2,0.8l0.3,0.5L113,102.8z"/>
<polygon class="st0" points="111.8,102.9 111.7,103.5 112.1,103.2 "/>
<polygon class="st0" points="133,103.4 116.3,93.8 116.1,93.9 133,103.5 "/>
<polygon class="st0" points="179.3,53.6 182.9,51.7 182.6,51.4 179.4,53.2 "/>
<polygon class="st0" points="179.3,54.9 179.2,56.2 180.4,55.5 182,53.3 179.3,54.8 "/>
<path class="st0" d="M123.7,75l0.2-0.5c0-0.1,0-0.2,0.1-0.4l0.4-0.6l0.8-0.8c0,0,0,0,0,0c0,0,0.1,0,0.1-0.1c0,0,0.1,0,0.1-0.1
	c0,0,0,0,0,0l0.4-0.1l0.3-0.3c0.1-0.1,0.2-0.1,0.4-0.1h0.2c0,0,0,0,0,0h1.7c0.1,0,0.2,0,0.3,0.1l1.8,1.1c0,0,0.1,0,0.1,0.1L131,74
	l-0.7-1.8c0,0,0,0,0,0c0,0,0,0,0,0l-0.2-0.5l-0.5-0.7l-0.8-0.8l-0.3-0.1l-0.7-0.3l-0.4,0.1l-5.4,2.2l1.6,3.1v-0.1
	C123.7,75.1,123.7,75.1,123.7,75z"/>
<path class="st0" d="M124.8,69.4C124.8,69.4,124.9,69.4,124.8,69.4C124.9,69.4,124.9,69.4,124.8,69.4l1.8-0.8l0,0l-0.8-0.8
	c0,0-0.1-0.1-0.1-0.1l-0.6-0.9l-0.4-1l-1.1-2l-1.1-1.8l-1.3-2l-2.9-3.2l-1.4-1.4l-1.6-1l-1.5-1.1L74.3,30.3l-1.6-0.7L71.1,29
	l-1.4-0.4l-1.3-0.2l-1.4,0.2l-0.8,0.2l-0.5,0.2l-0.8,0.6l-0.9,0.7c0,0,0,0,0,0c0,0,0,0,0,0l-0.6,0.4c0,0-0.1,0-0.1,0.1L62.6,31
	c-0.1,0-0.1,0-0.2,0h-0.3L64,34c0,0,0,0,0,0c0,0,0,0,0,0c0,0,0,0,0,0c0,0,0,0.1,0,0.1c0,0,0,0,0,0.1c0,0,0,0,0,0c0,0,0,0,0,0v5
	l7,4.1c0,0,0.1,0,0.1,0.1l3.3,1.9c0.2,0,0.4,0.1,0.5,0.3l45.5,26.2l0.7-0.4c0,0,0,0,0,0c0,0,0,0,0,0L124.8,69.4z"/>
<polygon class="st0" points="169.6,40.8 171.8,45.6 172.6,48.2 172.9,49.8 173.1,48.5 173.8,44 168.8,39.4 "/>
<path class="st0" d="M133.5,82.2l0.1-0.3c0,0,0.1-0.1,0.1-0.1l0,0v-1l-0.2-0.7l-0.3,1.3c0,0,0,0.1,0,0.1l-0.4,0.7l-0.1,0.1
	c0,0,0,0,0,0l0,0l-0.5,0.7c-0.1,0.1-0.2,0.2-0.4,0.2c0,0.1-0.1,0.1-0.2,0.1l-0.4,0.2c0,0,0,0,0,0c0,0,0,0,0,0l-0.6,0.2l-0.8,0.2
	c0,0-0.1,0-0.1,0c-0.1,0-0.2,0-0.2-0.1l-0.3-0.1h-0.1h0c0,0,0,0,0,0c0,0-0.1,0-0.1,0l-0.7-0.2c0,0-0.1,0-0.1,0l-0.7-0.4c0,0,0,0,0,0
	l-0.4-0.2c0,0-0.1-0.1-0.1-0.1l-0.1-0.1l-0.2-0.1l0,0l0.9,3.3L133.5,82.2L133.5,82.2z"/>
<path class="st0" d="M177.4,19.5c0.1,0,0.1,0.1,0.1,0.2l2.6,1.5L177.4,19.5L177.4,19.5z"/>
<path class="st0" d="M112.1,105.3C112.1,105.3,112.1,105.3,112.1,105.3c0.1,0,0.1-0.1,0.1-0.1c0,0,0.1,0,0.1,0c0,0,0.1,0,0.1,0
	c0,0,0,0,0.1,0h0.2c0.1,0,0.3,0.1,0.4,0.1l0.2,0.2c0,0,0,0.1,0.1,0.1l0,0c0,0,0,0,0,0c0,0,0,0,0,0c0,0,0,0,0,0.1c0,0,0,0,0,0.1
	c0,0,0,0,0,0c0,0,0,0,0,0c0,0,0,0,0,0.1c0,0,0,0.1,0,0.1c0,0,0,0,0,0c0,0,0,0,0,0v0.9c0,0,0,0,0,0.1c0,0,0,0.1,0,0.1
	c0,0,0,0.1,0,0.1c0,0,0,0.1-0.1,0.1c0,0-0.1,0-0.1,0.1c0,0,0,0-0.1,0l-1.5,0.7c0,0,0,0,0,0c-0.1,0-0.1,0-0.2,0c0,0,0,0,0,0
	c0,0,0,0,0,0c0,0,0,0,0,0c0,0,0,0,0,0c0,0,0,0,0,0c0,0,0,0,0,0c-0.1,0-0.1,0-0.2,0c0,0,0,0,0,0l-0.3-0.2l2.8,3.8l0.2,0.2h0.6
	l0.3-0.1c0.1,0,0.1-0.1,0.2-0.1h0.2l2.4-1.4v-1.3l-1.3-0.3c0,0,0,0-0.1,0c0,0,0,0-0.1,0c-0.1,0-0.1-0.1-0.1-0.1c0,0,0,0,0,0l-2-2.9
	l-0.9-1.1l-1.2,0.7c0,0,0,0,0,0c0,0,0,0,0,0c0,0,0,0,0,0l-0.4,0.1l-0.1,0.2c0,0-0.1,0.1-0.1,0.1l-0.2,0.1l-0.1,0.2l0.5-0.2
	L112.1,105.3z"/>
<path class="st0" d="M183.3,21.4l1.8-0.3l0.7-0.3l0.4-0.3l0.2-0.3v-0.2v0l-0.3-0.4l-0.4-0.4L164.4,6.6l-0.9-0.4l-0.8-0.2l-1,0
	l-0.8,0.2l-0.7,0.3L159.7,7l-0.2,0.7l0.2,0.3l23,13.3L183.3,21.4z M163.8,7.8c0,0.2-0.1,0.4-0.3,0.4l-0.4,0.2
	c-0.1,0.1-0.2,0.2-0.4,0.2h-0.2h-0.7h-0.2c-0.2,0-0.3-0.1-0.4-0.2l-0.4-0.2c-0.2-0.1-0.3-0.3-0.3-0.4V7.2c0-0.2,0.1-0.4,0.3-0.4
	l0.7-0.4c0.1,0,0.1-0.1,0.2-0.1h0.7c0.1,0,0.2,0,0.2,0.1l0.7,0.4c0.2,0.1,0.3,0.3,0.3,0.4V7.8z M182.1,20.1
	c-0.1-0.2-0.1-0.4,0.1-0.6l0.4-0.4c0,0,0.1-0.1,0.1-0.1l0.4-0.2c0.1,0,0.1-0.1,0.2-0.1h0.9c0.1,0,0.2,0,0.2,0.1l0.4,0.2
	c0,0,0.1,0.1,0.1,0.1l0.4,0.4c0.2,0.2,0.2,0.4,0.1,0.6l-0.2,0.4c0,0-0.1,0.1-0.1,0.1l-0.2,0.2c0,0-0.1,0.1-0.1,0.1l-0.4,0.2
	c0,0,0,0,0,0c-0.1,0-0.1,0-0.2,0h-0.9c-0.1,0-0.1,0-0.2,0c0,0,0,0,0,0l-0.4-0.2c0,0-0.1-0.1-0.1-0.1l-0.2-0.2c0,0-0.1-0.1-0.1-0.1
	L182.1,20.1z"/>
<path class="st0" d="M184.1,64.9l-0.2,0.3l0.4,0.2l1.6-0.9c0,0,0-0.1,0-0.1l-1.4-0.8l-0.5,0.8C184.2,64.6,184.2,64.8,184.1,64.9z"/>
<path class="st0" d="M184.2,20C184.3,20,184.3,20,184.2,20L184.2,20l-0.1-0.1h-0.7l-0.2,0.1c0,0,0.1,0,0.1,0H184.2z"/>
<path class="st0" d="M125.8,139.3v0.1l0.1-0.1v-0.2C125.8,139.2,125.8,139.3,125.8,139.3L125.8,139.3z"/>
<path class="st0" d="M176.1,65.4C176.1,65.5,176.1,65.5,176.1,65.4c0.1,0.1,0.1,0.1,0.1,0.1c0,0,0,0.1,0,0.1c0,0,0,0,0,0l3.9,2.2
	l6.1-9.4l0.7-1.6l0.7-1.8l0.5-2.1l0.2-2.1l0-2.3l-0.2-2.4l-0.4-2.5l-0.7-2.7l-0.9-2.5l-0.9-2.8L184,33l-2.9-5.1l-1.6-2.2l-1.8-2.2
	l-2-2c0,0,0,0,0-0.1c0,0,0,0,0,0c-0.2-0.1-0.3-0.2-0.3-0.4v-0.3l-11.5-6.5c-0.1,0.1-0.2,0.1-0.3,0.1h-0.2c0,0,0,0,0,0c0,0,0,0,0,0
	l-1.8-0.2l-1.7,0l-1.6,0.4l-1,0.5l-0.7,0.4c0,0-0.1,0-0.1,0l-1,0.7l-1.2,1.2l-1.1,1.4l-0.9,1.6l-0.3,0.8l2.2-0.3c0,0,0,0,0,0
	c0,0,0,0,0,0l3.9-0.2l2.4,0.1c0.1-0.1,0.1-0.1,0.2-0.1l1.3-0.4l1.5-0.2c0,0,0.1,0,0.1,0l1.7,0.2l0.3,0l0.2-0.2l0.1-0.3
	c0,0,0.1-0.1,0.1-0.1l0.1-0.1l0.1-0.3c0,0,0.1-0.1,0.1-0.1l0,0v-0.3c0,0,0,0,0,0c0,0,0-0.1,0-0.1c0,0,0-0.1,0-0.1c0,0,0,0,0,0
	c0,0,0,0,0,0c0,0,0-0.1,0.1-0.1c0,0,0.1,0,0.1-0.1c0,0,0.1,0,0.1,0c0,0,0.1,0,0.1,0c0,0,0,0,0.1,0c0,0,0,0,0,0c0,0,0.1,0,0.1,0
	c0,0,0.1,0,0.1,0c0,0,0,0,0,0l5.7,3.3c0,0,0,0,0.1,0c0,0,0,0,0.1,0.1c0,0,0,0.1,0.1,0.1c0,0,0,0.1,0,0.1c0,0,0,0.1,0,0.1
	c0,0,0,0,0,0.1v0.6v1.6l1.7,1.5l1.5,1.7l1.7,2l1.3,2.1l1.3,2.2l1.1,2.2l0.9,2.2l0.6,2.3l0.6,2.4l0.2,2.1l0,2.1l-0.2,2.1l-0.3,1.5
	l0.8,0.9c0,0,0,0,0,0c0,0,0,0,0,0c0,0,0,0,0,0c0,0,0,0,0,0c0,0,0,0.1,0,0.1c0,0,0,0,0,0c0,0,0,0,0,0.1c0,0,0,0.1,0,0.1c0,0,0,0,0,0
	c0,0,0,0,0,0.1c0,0,0,0,0,0.1c0,0,0,0,0,0l0,0c0,0,0,0,0,0l-2.9,4c0,0,0,0,0,0c0,0.1-0.1,0.1-0.2,0.1l-1.9,1.1l-0.4,3.3l-0.6,3.1
	c0,0,0,0,0,0c0,0,0,0.1,0,0.1c0,0,0,0.1,0,0.1c0,0,0,0,0,0.1c0,0-0.1,0.1-0.1,0.1c0,0,0,0,0,0l-1.9,1.1L176.1,65.4
	C176.1,65.4,176.1,65.4,176.1,65.4z"/>
<path class="st0" d="M162.4,7.5l0.2,0.1l0.2-0.1l-0.3-0.1h-0.5l-0.3,0.1l0.2,0.1l0.1-0.1C162.1,7.4,162.3,7.4,162.4,7.5z"/>
<path class="st0" d="M185.4,22l-2,0.4c0,0-0.1,0-0.1,0c0,0-0.1,0-0.1,0l-0.9-0.2c0,0,0,0,0,0c0,0,0,0,0,0l-0.2-0.1v0.1l0.4,0.2
	l1,0.2l0.8,0l0.9-0.2l0.6-0.3l0.3-0.3l-0.6,0.3C185.5,22,185.5,22,185.4,22z"/>
<polygon class="st0" points="186.1,35.1 187.1,37.9 188,40.5 188.8,43.3 189.1,45.7 189.1,45.1 188.7,42.6 188,39.9 187.1,37.1 
	186,34.6 184.7,31.9 183.2,29.3 182,27.5 184.8,32.5 "/>
<polygon class="st0" points="177.1,21.1 176.8,21.3 178.3,22.9 180.2,25.1 181.5,26.8 180,24.6 178.2,22.4 178.1,22.4 178.1,22.4 
	"/>
<path class="st0" d="M164.2,12.8c0,0.1-0.1,0.2-0.1,0.3l0,0c0,0,0.1,0.1,0.1,0.1l11.4,6.5c0-0.1,0.1-0.1,0.1-0.2l0,0v-0.2
	c0-0.1,0.1-0.3,0.1-0.4l0.3-0.3l-11.4-6.6l-0.2,0.2l-0.1,0.3c0,0,0,0,0,0c0,0,0,0,0,0c0,0,0,0,0,0C164.2,12.7,164.2,12.7,164.2,12.8
	L164.2,12.8z"/>
<polygon class="st0" points="74.2,46.5 66.7,49.5 68.2,50.3 71.2,52.2 74.1,54.4 77.2,56.6 80.1,59.4 83,62.2 85.8,65.1 88.4,68.3 
	90.9,71.7 95.1,73.4 99.4,75.5 103.3,77.7 106.7,79.8 119.5,72.4 74.4,46.4 "/>
<path class="st0" d="M163.8,11.6L161,10l2.7,1.7C163.7,11.7,163.7,11.7,163.8,11.6L163.8,11.6z"/>
<polygon class="st0" points="132.8,101.1 132.5,97.7 131.9,94.2 131,90.6 129.9,86.9 129.7,86 127.7,87.2 127.7,87.2 127.7,87.2 
	117.3,93.2 132.9,102.2 "/>
<polygon class="st0" points="164,21.2 163.5,21.1 162.1,21.3 162,21.3 162.7,22 "/>
<polygon class="st0" points="70.8,44.3 64.2,46.3 61.7,47.2 62.1,47.4 65,48.7 65.6,48.9 73.3,45.8 "/>
<path class="st0" d="M169.2,27.2c0,0-0.1,0.1-0.1,0.1l-0.3,0.1l-0.2,0.2v0.2c0,0,0,0.1,0,0.1l1,1c0,0,0,0,0,0c0,0,0.1,0,0.1,0
	c0,0,0,0,0,0l0.2-0.2c0.1-0.1,0.2-0.1,0.4-0.1c0.1,0,0.3,0,0.4,0.1c0,0,0,0,0,0l0.2,0.2l1.5,1.5l0.2,0.2l1.5,1.9l1.3,2.1l1.1,2
	l1.1,2.2l0.8,2.3l0.8,4.3l0,0.7l0,0.1c0,0,0,0,0,0l0,0.2c0,0.1,0,0.2-0.1,0.3l0.3,2.2l0.2,3.2c0,0,0,0,0,0l2.9-1.6l0.3-1.4l0.2-2
	l0-2l-0.2-2l-1.1-4.5l-0.9-2.1l-1.1-2.2l-1.3-2.2l-1.3-2l-1.6-2l-1.5-1.6l-1.5-1.4l-3.1,2L169.2,27.2z"/>
<polygon class="st0" points="141.7,100.1 141.8,100.1 141.8,87.3 141.7,87.4 "/>
<path class="st0" d="M175.9,39.7l-0.1-0.2l-1.7-3.1l-3.8-5.3l-2.6-2.8c0,0-0.1,0-0.1-0.1c-0.1-0.1-0.1-0.1-0.1-0.2l-1.4-1.5
	l-3.7-3.6c-0.1,0-0.2-0.1-0.2-0.2c0,0,0,0,0,0l-0.9-0.9l-2.7,1.6l3,5.1l3.6,5.3l4.2,4.6l5,4.7l2.6-1.6l-1-1.7
	C175.9,39.8,175.9,39.8,175.9,39.7z"/>
<polygon class="st0" points="143.6,26.2 144.8,25.4 144.6,25.4 141.9,25.4 141.6,26.9 142.5,27.3 "/>
<polygon class="st0" points="148.4,24.2 152.4,23.8 157.6,22.9 159.6,21.8 157.9,21.7 154.2,21.9 150.1,22.4 144.9,23.3 143.2,24.4 
	144.6,24.4 "/>
<polygon class="st0" points="136.9,77.4 134.2,70.8 131.4,72.3 134.1,78.9 "/>
<polygon class="st0" points="157.5,23.9 152.7,24.8 153.9,25.1 155.9,25.9 157.9,27 160.8,29.3 160.7,29.2 "/>
<path class="st0" d="M126.6,79.9l-0.6,0.3c0,0,0,0,0.1,0.1c0,0,0.1,0,0.1,0L126.6,79.9z"/>
<path class="st0" d="M126.7,81.2L126.7,81.2L126.7,81.2C126.8,81.3,126.8,81.3,126.7,81.2L126.7,81.2z"/>
<path class="st0" d="M171.3,23.5l0.2-0.1l0.1-0.2c0,0,0.1-0.1,0.1-0.1l0,0v-0.2c0-0.1,0.1-0.3,0.1-0.4l0,0v-0.1l-4.8-2.8
	c0,0,0,0.1-0.1,0.1l-0.1,0.1l-0.1,0.3c0,0-0.1,0.1-0.1,0.1l-0.1,0.1l-0.1,0.3c0,0,0,0,0,0L171.3,23.5
	C171.3,23.5,171.3,23.5,171.3,23.5z"/>
<polygon class="st0" points="166.9,26.1 167,26.2 167,26.2 "/>
<polygon class="st0" points="57.5,25.7 54.7,27.3 60,35.8 62.8,34.1 "/>
<path class="st0" d="M58,44.8l1-0.6c0.1-0.1,0.1-0.1,0.2-0.1l1-0.6l0.1-0.4c0,0,0-0.1,0.1-0.1l1.1-1.6l-6.8,3.9l1.5,0.3l0.4,0.1
	l1.1-0.7C57.7,44.8,57.8,44.8,58,44.8z"/>
<path class="st0" d="M168.1,26.6C168.1,26.6,168.1,26.6,168.1,26.6c-0.1,0-0.1,0.1-0.2,0.1l-0.1,0.3c0,0,0,0.1-0.1,0.1l0,0l0.3-0.3
	C168.1,26.7,168.2,26.6,168.1,26.6l0.4-0.1l0.1-0.1c0,0,0,0,0.1,0c0,0,0,0,0,0l0.7-0.4L168.1,26.6C168.1,26.6,168.1,26.6,168.1,26.6
	z"/>
<path class="st0" d="M69.6,43.6l-6-3.5l-0.1,0.1l-0.3,0.5l-0.6,0.6l-1.4,2.1l-0.2,0.5c0,0,0,0,0,0c0,0.1-0.1,0.1-0.1,0.2
	c0,0,0,0,0,0c0,0,0,0,0,0l-1.2,0.7l-0.6,1.3l1.2,0.5l3.6-1.4L69.6,43.6z"/>
<polygon class="st0" points="74.6,29.3 74.6,29.2 73.8,28.8 72.4,28.3 71.4,28.1 73.1,28.6 "/>
<polygon class="st0" points="116,53.5 117.6,54.6 119.2,56.1 122.1,59.4 123.5,61.5 124.6,63.4 125.5,65 125.7,64.9 125,63.3 
	123.7,61.3 121.2,57.7 119.8,56.3 116.7,53.5 115.3,52.7 115.1,52.8 "/>
<path class="st0" d="M163.7,23l4.2,2.6l2.5-1.4l-4.7-2.7l-2.3,1.3l0.2,0.2C163.6,22.9,163.7,22.9,163.7,23z"/>
<path class="st0" d="M126.1,66.4l0.5,0.8l0.7,0.7l0.4,0.3l0.3-0.1l-0.2-0.2c0,0-0.1-0.1-0.1-0.1l-1.1-1.5l-0.3-0.6l-0.3,0.1
	L126.1,66.4z"/>
<path class="st0" d="M128.9,69.2l0.4,0.2c0,0,0.1,0.1,0.1,0.1l0.9,0.9l0.6,0.8c0,0,0,0.1,0.1,0.1l2.7-1.5l-0.2-0.3l-0.6-1l-0.5-0.3
	l-0.4-0.3l-0.4-0.1h-0.7l-2.3,1.4L128.9,69.2z"/>
<path class="st0" d="M114.2,52.2l0.2-0.1l-8.1-4.7h-0.1c-0.1,0-0.2,0-0.3-0.1l-0.7-0.5L96,41.5c-0.1,0-0.2-0.1-0.3-0.2l-1.9-1.1
	c-0.1,0-0.2-0.1-0.2-0.1L75.6,29.8l0,0L114.2,52.2z"/>
<path class="st0" d="M129.4,82.8h0.7l0.6-0.3l0.4-0.4l0.3-1.6l-0.2-1.2l-0.3-1l-0.5-1.2l-0.7-1l-0.7-0.9l-0.8-0.7l-1-0.5l-0.6-0.2
	h-0.7l-0.4,0.2l-0.6,0.8l-0.1,0.4l0.1-0.1c0,0,0.1-0.1,0.1-0.1c0,0,0,0,0,0c0.2-0.1,0.4,0,0.5,0.1c0,0,0,0,0,0l0,0c0,0,0,0,0,0
	s0,0,0,0l0.2,0.2c0.1,0.1,0.1,0.2,0.1,0.4l0,0.2c0.1,0.1,0.1,0.2,0.1,0.4v0.2l0.1,0.2c0.1,0,0.1,0.1,0.2,0.2c0,0,0,0,0,0
	c0.1,0,0.1,0.1,0.1,0.1c0,0,0.1,0,0.1,0h0.2l0.6-0.6c0.1-0.1,0.1-0.1,0.2-0.1c0,0,0,0,0,0c0,0,0,0,0-0.1c0,0,0-0.1,0.1-0.1
	c0,0,0,0,0,0c0,0,0,0,0,0c0,0,0.1-0.1,0.1-0.1c0,0,0,0,0,0c0.1,0,0.1,0,0.2,0c0,0,0,0,0.1,0c0,0,0.1,0,0.1,0c0.1,0,0.1,0.1,0.1,0.1
	c0,0,0,0,0,0l0.6,0.6c0.1,0.1,0.1,0.2,0.1,0.3l0.2,0.2c0.1,0.1,0.1,0.2,0.1,0.4v0.2c0,0.1,0,0.2-0.1,0.2c0,0,0,0,0,0.1
	c0,0-0.1,0.1-0.1,0.1c0,0,0,0,0,0c0,0,0,0.1-0.1,0.1l-0.4,0.4c0,0-0.1,0.1-0.1,0.1c0,0,0,0.1-0.1,0.1l-0.2,0.2v0.2c0,0,0,0,0,0
	c0,0.1,0,0.1,0,0.2c0,0,0,0,0,0.1c0,0,0,0,0,0c0.1,0.1,0.1,0.2,0.1,0.3l0,0c0,0,0.1,0.1,0.1,0.1c0,0,0,0,0,0c0,0,0,0,0.1,0l0.8,0.8
	h0.2c0.1,0,0.3,0.1,0.4,0.1l0.2,0.2c0,0,0,0,0,0s0,0,0,0c0,0,0,0,0,0.1c0,0,0.1,0.1,0.1,0.1c0,0,0,0,0,0c0,0.1,0,0.1,0,0.2
	c0,0.1,0,0.1,0,0.2c0,0,0,0,0,0c0,0,0,0.1-0.1,0.1c0,0,0,0,0,0.1c0,0,0,0,0,0c0,0,0,0,0,0l0,0c0,0.2-0.1,0.3-0.2,0.4
	c0,0.1-0.1,0.1-0.2,0.2l0,0c0,0-0.1,0.1-0.1,0.1c0,0,0,0,0,0c0,0,0,0,0,0c0,0,0,0,0,0c-0.1,0-0.2,0.1-0.2,0.1c0,0,0,0,0,0
	c0,0,0,0,0,0c0,0,0,0,0,0c0,0,0,0,0,0c-0.1,0-0.1,0-0.2,0c0,0,0,0,0,0l-0.4-0.2c0,0-0.1-0.1-0.1-0.1l0,0c-0.1,0-0.2-0.1-0.3-0.1
	l-0.2-0.2c-0.1,0-0.2-0.1-0.3-0.1l-0.2-0.2c0,0-0.1,0-0.1,0c0,0,0,0,0.1,0.1l0.1,0.2l0.2,0.1c0,0,0.1,0.1,0.1,0.1l0.1,0.1l0.3,0.1
	c0,0,0,0,0,0l0.7,0.3L129.4,82.8z"/>
<polygon class="st0" points="79.6,150.8 80.7,148.3 82.2,142.7 82.9,136.3 82.9,132.9 82.1,125.8 80.7,118.3 79.6,114.5 78.3,110.6 
	76.9,107 75.2,103.1 73.4,99.3 71.4,95.6 70.2,93.7 72.1,97.2 73.9,100.9 75.8,104.7 77.4,108.4 80,116.2 80.9,120.1 81.7,123.8 
	82.2,127.5 82.6,131.2 82.6,138 82.2,141.2 81.7,144.4 80.9,147.1 80,149.9 78.7,152.4 77.4,154.6 75.7,156.7 74.7,157.7 
	75.3,157.1 76.9,155.3 78,153.7 78.4,153.2 "/>
<path class="st0" d="M36.4,153c0.2,0,0.3,0,0.4,0.1l0.1,0.1l0.4,0.1c0.1,0,0.1,0,0.2,0.1l0.5,0.3l2.5,0.7l0.8,0.4l3,0.9H45
	c0.1,0,0.1,0,0.2,0l0.6,0.2l0.6,0.2c0.1,0,0.2,0,0.3,0l0.5,0.2h0.5c0,0,0.1,0,0.1,0l1.2,0.4h0.7c0.1,0,0.1,0,0.2,0l0.5,0.2h0.7
	c0,0,0.1,0,0.1,0l0.7,0.2h1.2c0,0,0.1,0,0.1,0l0.7,0.2h7.8l0.7-0.2c0,0,0.1,0,0.1,0h0.9c0.1-0.1,0.2-0.2,0.4-0.2h0.3l2.3-0.5
	l2.2-0.7l1.1-0.5l1.2-0.8l1.6-1.4l1.6-1.8l0.6-0.9c0-0.1,0-0.2,0.1-0.4l1.3-2l0.9-2.1l0.7-2.3l0.7-2.6l0.7-5.6l0-3.1l-0.4-6.4
	l-0.5-3.3l-0.7-3.3l-0.9-3.5l-1.1-3.5l-1.3-3.5l-1.5-3.3L71,102l-3.6-6.6l-2-3.3l0,0l0,0l-2.2-3.1l-2.2-2.9l-2.4-2.7L56,80.7
	l-2.4-2.4l-2.6-2.4l-2.7-2.2l-2.5-1.8l-2.7-1.6l-2.6-1.7L38,67.6l-2.7-1.1l-2.5-0.7l-2.5-0.5L27.9,65L25,65c0,0,0,0,0,0h-0.2h-0.7
	l-2.3,0.5l-2.2,0.7l-1.4,0.6l-0.9,0.6L15.7,69l-1.6,1.7L14,71c0,0,0,0,0,0c0,0.1-0.1,0.1-0.2,0.2l-0.5,0.3l-1,1.6L12,73.8l-1.1,1.7
	l-0.2,0.5c0,0,0,0.1-0.1,0.1L10,77.1l-0.3,0.7l-0.2,0.5c0,0,0,0.1-0.1,0.1l-0.7,1l-0.2,0.7c0,0,0,0,0,0l-0.2,0.7
	c0,0.2-0.2,0.3-0.4,0.4l0,0L7.6,82l-0.3,1l-0.4,0.8l-0.2,0.5l-0.4,1.3l-0.4,0.8l-1,3.7v0.5c0,0,0,0.1,0,0.1l-0.5,2v0.7
	c0,0.1,0,0.1,0,0.2l-0.2,0.6L4,94.7v0.5c0,0,0,0.1,0,0.1l0,0.2L4,96.1c0,0.2-0.1,0.3-0.2,0.4v0.7c0,0,0,0.1,0,0.1L3.6,98v1.2
	c0,0,0,0.1,0,0.1l-0.2,0.7v3.1v3.8l0.2,0.7c0,0,0,0.1,0,0.1v1.2l0.2,0.7c0,0,0,0.1,0,0.1v0.7l0.2,0.5c0,0.1,0,0.1,0,0.2v0.7l0.2,0.5
	l0.2,0.8c0,0,0,0.1,0,0.1v0.7l0.2,0.5l0.4,1.3c0,0.1,0,0.1,0,0.2v0.7l0.2,0.5l0.7,2.6l0.3,0.7l0.2,0.6l0.5,2l0.3,0.5
	c0,0,0.1,0.1,0.1,0.2l0.2,0.7l0.3,0.5c0,0,0,0.1,0.1,0.1L8,125l0.3,0.7l0.2,0.6l0.3,0.5c0,0,0,0.1,0.1,0.1l0.2,0.6l0.3,0.7l0.3,0.5
	c0,0,0,0.1,0.1,0.1l0.2,0.5l0.3,0.5l0.4,0.8l3.6,5.5l0.5,0.5l0.8,1.2l0.9,0.8l0.4,0.6l1.4,1.4l0.4,0.5l0.5,0.3
	c0.1,0,0.1,0.1,0.1,0.1l0.3,0.5l0.5,0.3l1.5,1.5l0.5,0.3l1,1l1,0.7l0.6,0.6l5.4,3.6l0.7,0.3l0.5,0.4l0.5,0.2c0,0,0.1,0,0.1,0.1
	l0.6,0.4l0.7,0.3l0.5,0.2c0,0,0.1,0,0.1,0.1l0.5,0.3l0.5,0.2l0.1,0.1c0.2-0.1,0.4-0.1,0.6,0l0.6,0.5c0,0,0.1,0,0.1,0L36.4,153z"/>
<path class="st0" d="M104.1,136.1l1.8-5.8l0.5-3.1l0.4-3.5l0-7.1c0,0,0-0.1,0-0.1c0,0,0-0.1,0-0.1l1.8-5.3l0.9-3.3
	c0-0.1,0-0.2,0-0.3c0,0,0,0,0.1-0.1l0.5-1.7l0.4-1.5c0,0,0,0,0,0c0-0.1,0-0.2,0.1-0.3l0.9-3.5l0.9-5.5c0,0,0,0,0,0c0,0,0-0.1,0-0.1
	c0,0,0-0.1,0-0.1c0,0,0,0,0.1-0.1c0,0,0.1-0.1,0.1-0.1c0,0,0,0,0,0l0.8-0.5c0,0,0,0,0.1-0.1c0,0,0.1,0,0.1-0.1l2.4-1.4
	c0,0,0.1-0.1,0.1-0.1l10.8-6.2l-0.4-1.5l-0.6-2l-0.7-1.8l-0.5-1.1c0,0,0,0,0,0c0,0,0-0.1,0-0.1c0,0,0,0,0,0c0,0,0,0,0,0l0,0
	c-0.1-0.1-0.1-0.2-0.1-0.3c-0.1-0.1-0.2-0.2-0.2-0.4l0,0c-0.1-0.1-0.1-0.2-0.1-0.4l0-0.2c-0.1-0.1-0.1-0.2-0.1-0.4l0-0.2l-0.1-0.2
	c-0.1-0.1-0.1-0.2-0.1-0.3v-0.1l-2.5-4.9l-0.4,0.2c0,0-0.1,0.1-0.1,0.1L107,80.8c0,0,0,0,0,0c-0.1,0-0.1,0.1-0.2,0.1c0,0,0,0,0,0
	c0,0,0,0,0,0s0,0,0,0c0,0,0,0,0,0c-0.1,0-0.2,0-0.2-0.1c0,0,0,0,0,0l-3.7-2.2l-3.8-2.2l-4.2-2l-4.4-1.8c0,0,0,0,0,0c0,0,0,0-0.1,0
	c0,0-0.1-0.1-0.1-0.1c0,0,0,0,0,0l-2.6-3.5L85,65.8l-2.7-2.9l-2.9-2.7l-2.8-2.8l-3.1-2.2l-3-2.2l-2.9-1.8l-3.1-1.6l-2.9-1.3
	l-1.4-0.5c0,0,0,0-0.1,0c-0.1,0-0.2-0.1-0.3-0.2l-1.1-0.4l-2.2-0.5c0,0,0,0-0.1,0c-0.1,0-0.2,0-0.3-0.1l-0.4-0.1L53,45.9l-2.7-0.2
	l-2.5,0.2l-2.5,0.4c0,0,0,0,0,0c0,0,0,0,0,0c0,0-0.1,0-0.1,0c0,0,0,0-0.1,0c0,0-0.1,0-0.1-0.1c0,0,0,0-0.1,0c0,0-0.1-0.1-0.1-0.1
	c0,0,0,0,0-0.1c0,0,0-0.1,0-0.1c0,0,0,0,0-0.1c0,0,0,0,0,0c0,0,0,0,0,0v-0.2L20.1,59.7l2.4-0.4l1.7-0.2c0,0,0,0,0,0c0,0,0,0,0,0h0.9
	l2.8,0.2l2.8,0.4l3,0.7l3,0.9l3,1.3l3,1.5l3,1.9l3,2l3,2.2l3,2.6l2.8,2.6l2.8,3l2.8,3.1l2.6,3.1l2.4,3.5l4.4,7l2,3.7l1.9,3.9
	l1.7,3.9l1.5,3.7l1.3,3.9l1.1,3.9l1.5,7.6l0.7,7.2l0,3.5l-0.7,6.5l-0.7,3l-0.7,2.8l-1.1,2.6l-1.3,2.4l-0.4,0.6l-1.1,1.7l-1.1,1.2
	l18.6-10.7l2.7-1.8l1.8-1.8l1.6-2l1.4-2.3l1-1.9C103.8,136.4,103.9,136.2,104.1,136.1z"/>
<path class="st0" d="M115.1,134.8C115.1,134.8,115.1,134.8,115.1,134.8c0.1-0.1,0.2-0.2,0.4-0.2l1.8-1c0,0,0.1,0,0.1,0
	c0,0,0.1,0,0.1,0c0,0,0.1,0,0.1,0c0,0,0.1,0,0.1,0c0,0,0.1,0,0.1,0c0,0,0,0,0.1,0l1.8,1.1l2.7-1.5l-5.4-3.3l-12,6.9l-1.1,2.1
	l-1.5,2.4l-1.3,1.6l13.8-8c0,0,0.1,0,0.1-0.1L115.1,134.8z"/>
<path class="st0" d="M112.9,140.4L112.9,140.4l0.2-0.1c0,0,0,0-0.1,0L112.9,140.4C112.9,140.4,112.9,140.4,112.9,140.4z"/>
<polygon class="st0" points="28.1,60.4 30.9,60.7 36.9,62.6 39.9,63.9 42.8,65.6 45.8,67.4 48.8,69.5 51.7,71.9 57.5,77.2 
	62.8,83.3 65.2,86.5 69.7,93.1 67,88.7 64.6,85.2 62.1,82.1 59.3,79 56.6,76.1 53.8,73.5 50.9,71 48,68.8 45.1,66.8 42.2,65 
	39.3,63.5 36.3,62.2 33.5,61.3 30.5,60.6 27.8,60.3 25.1,60.1 24.3,60.1 23.3,60.2 25.3,60.2 "/>
<path class="st0" d="M111.3,141.3c-0.1-0.1-0.1-0.2-0.1-0.4l0-0.2c-0.1-0.1-0.1-0.2-0.1-0.4v-0.2c-0.1-0.1-0.2-0.2-0.2-0.4v-1.3
	v-0.1l-2.4,1.4c0,0,0,0,0,0l0.1,0.2l2.9,1.6C111.4,141.5,111.4,141.4,111.3,141.3L111.3,141.3z"/>
<path class="st0" d="M45.8,158.7l2.9,1.3l2.9,0.9l2.8,0.9l2.8,0.3l2.5,0.2l2.7,0l2.3-0.4l2.3-0.7l2.4-0.9l2-1.1l1.8-1.4l1.8-1.8
	l1.6-2l1.2-2.1l1.3-2.4l0.9-2.7l0.7-2.7l0.5-3.1l0.4-3.1l0-6.7l-0.4-3.6l-0.5-3.7l-0.7-3.6l-0.9-3.8l-2.6-7.7l-1.6-3.6l-1.8-3.8
	l-1.8-3.7l-2-3.7L64.4,87L62,83.9l-5.3-6l-5.7-5.3l-2.9-2.4l-2.9-2l-2.9-1.8l-2.9-1.6l-2.9-1.3l-5.8-1.8L28,61.4l-2.7-0.2l-2.5,0
	l-2.5,0.4l-2.3,0.7l-2.2,0.9l-2,1.1l-1.9,1.4l-1.6,1.8l-1.6,2l-1.2,2.1L6.1,74l-0.9,2.7l-0.7,2.7L4,82.4l-0.4,3.1L3.4,89l0.1,2.8
	l0.3-1.2v-0.5c0,0,0-0.1,0-0.1L5,86.1l0.2-0.4L6.1,81l0.7-2.8l0.9-2.6l2.6-4.5c0,0,0-0.1,0.1-0.1l1.7-1.8l1.7-1.7c0,0,0.1,0,0.1-0.1
	l2-1.3l2.1-1.1l2.3-0.8l2.4-0.6l2.6-0.2l2.6,0l2.8,0.4l2.8,0.7l2.8,0.9l2.8,1.1l3,1.5l3,1.7l5.7,4.3l2.8,2.4l2.6,2.8l2.7,2.7
	l2.6,3.2l2.4,3.1l2.2,3.3l0,0l0,0l0,0l2.2,3.5l2,3.5l1.8,3.5l1.7,3.7l1.5,3.7l1.3,3.9l1.1,3.7l0.9,3.7l0.7,3.5l0.4,3.7l0.2,3.3
	l0,3.3l-0.2,3.3l-0.4,3l-0.7,3l-0.9,2.6l-1.1,2.4l-1.3,2.2l-1.5,2.1l-1.7,1.9l-1.9,1.5l-2.1,1.2l-2.3,0.9l-2.2,0.7l-2.5,0.4l-2.6,0
	l-2.8-0.2l-2.6-0.6l-2.8-0.7l-3.5-1.3h-0.1c-0.1,0-0.1,0-0.2,0l-0.6-0.2l-1.2-0.3h-0.7c-0.1,0-0.1,0-0.2,0l-0.6-0.2l-2.6-0.7
	l-0.8-0.4l0,0l2.7,1.7L45.8,158.7z"/>
<path class="st0" d="M62.3,158.7C62.3,158.7,62.3,158.7,62.3,158.7l-2.6,0.2l-2.6,0l-2.2-0.3l1,0.2l2.7,0.2l2.5,0l2.3-0.4l0.6-0.2
	L62.3,158.7C62.3,158.7,62.3,158.7,62.3,158.7z"/>
<polygon class="st0" points="46.9,39.1 46.2,41.5 46,43.9 46.9,43.3 "/>
<path class="st0" d="M11,72.1C11,72.1,11,72.1,11,72.1l1.6-2l-1.4,1.5l-0.6,1L11,72.1C11,72.2,11,72.2,11,72.1z"/>
<polygon class="st0" points="9.1,75.7 10,73.8 8.7,76 7.8,78.5 7.4,80.1 7.6,79.8 7.7,79.5 7.8,79.1 7.8,79.1 7.9,78.4 "/>
<polygon class="st0" points="156.3,98.9 151.9,103.1 149.6,105.2 149.6,106 149.6,109.6 150.3,109 153,105.9 155.5,102.6 159,97.5 
	160.3,95 160.5,94.4 160.4,94.6 "/>
<path class="st0" d="M166.5,54.8l-0.5-2.1l-0.4-2.2l-0.5-2l-1.3-3.4l-1.6-3.1l-2-3.1l-2.3-2.3L156,35l-2-1.2c0,0,0,0-0.1-0.1
	c0,0-0.1,0-0.1-0.1c0,0,0-0.1,0-0.1c0,0,0-0.1,0-0.1l-4.2-2.1l-2.9-1.3l-1.1-0.6l-2.9-1.1l-1.6-0.7c0,0,0,0-0.1,0c0,0-0.1,0-0.1,0
	c-0.1,0-0.2-0.1-0.3-0.2l-1.1-0.4l-4.7-1.3l-2.4-0.7l-3.5-0.9l-3.5-0.7l-6.8-1.1l-3.3-0.4l-4-0.4l-5.5-0.2l-8.6,0.4l-4.8,0.4
	l-3.5,0.5l-2.7,0.5l-1,0.2l41.4,23.9l0.4,0.2c0,0,0.1,0.1,0.1,0.1l0.5,0.5l0.3,0.1c0.1,0,0.2,0.1,0.2,0.2l0.1,0.3l0.5,0.5
	c0,0,0.1,0.1,0.1,0.1l0.2,0.3l1.8,2.5l5,8.3l1.5,2.8l1.2,2.4l1.5,0.5c0,0,0.1,0,0.1,0l0.9,0.6c0,0,0.1,0,0.1,0.1l1.7,1.7
	c0,0,0.1,0.1,0.1,0.1l1.1,2.2l0.4,1.4c0,0,0,0.1,0,0.1v2c0,0.1,0,0.1,0,0.2l-0.4,0.9c0,0,0,0.1-0.1,0.1l-0.6,0.7
	c0,0-0.1,0.1-0.1,0.1l1.5,4.2l1.3,4.4l1.1,4.2l0.9,4.2l0.7,4.2l0.6,4.1l0.1,2l1.6-1.5l4.4-4.2l4-4.2l2.5-3.2l0.1-0.3
	c0.1-0.1,0.2-0.2,0.3-0.3l0.3-0.4l2.3-4.5l1.6-4.9l0.7-4.9l0.2-3.8v-3.5l-0.2-2.9l-0.2-2l0-1.5l-0.4-3.1l-0.4-1.8l-0.2-1.8
	c0,0,0-0.1,0-0.1V54.8z"/>
<path class="st0" d="M169.9,64l1.1-1.4l0.7-1.4l0.5-1.8l0.4-2l0-2.1v-2.2l-0.4-2.3l-0.5-2.4l-0.7-2.5l-2.2-4.7l-1.3-2.4l-1.4-2.2
	l-1.6-2.2l-1.7-2l-1.8-1.8l-3.6-2.9l-1.8-1.1l-1.9-0.7l-1.8-0.5l-1.8-0.4l-1.5,0l-1.6,0.4l-1.3,0.5l-1.2,0.9l-0.8,0.8l2.5,0.9
	l1.2,0.6l2.8,1.2h1.4l1.7,0.2h0.2c0,0,0,0,0,0c0.1,0,0.1,0,0.2,0c0.1,0,0.1,0.1,0.2,0.1c0,0,0,0,0,0l0.2,0.2
	c0.1,0.1,0.2,0.4,0.1,0.5l0.2,0.1l1.9,0.8l1.9,1.1l1.6,1.2c0,0,0,0,0,0c0,0,0,0,0-0.1c0,0,0,0,0,0c0,0,0,0,0,0c0,0,0,0,0,0
	c0,0,0.1,0,0.1-0.1c0,0,0,0,0.1,0c0,0,0,0,0,0c0,0,0.1,0,0.1,0c0,0,0,0,0,0c0,0,0,0,0.1,0c0,0,0,0,0,0c0,0,0,0,0.1,0c0,0,0,0,0,0
	c0,0,0,0,0.1,0c0,0,0,0,0,0c0,0,0,0,0,0c0,0,0,0,0.1,0.1c0,0,0,0,0.1,0l0,0c0,0,0.1,0,0.1,0c0,0,0.1,0,0.1,0c0,0,0.1,0,0.1,0.1
	c0,0,0,0,0.1,0c0,0,0.1,0.1,0.1,0.1c0,0,0,0,0,0.1c0,0.1,0,0.1,0,0.2l1.1,1.1l1.5,1.7l1.3,1.9l1.1,2.1l0,0c0,0,0,0,0,0l0,0l1.8,4
	l0.6,2.1l0.4,2.1l0.2,2.3l0,0.1l0,0l0,0v0.2c0,0.1,0,0.1,0,0.2l-0.3,3.2c0,0,0,0.1,0,0.1l-0.5,1.4l0.2,0.9l0.4,3.2l0,1.5l0.2,2l0,0
	l0.3-0.2L169.9,64z"/>
<path class="st0" d="M172.9,60.6l-0.3,1l-0.8,1.5l-1.1,1.5l-1.1,1.2c0,0-0.1,0.1-0.1,0.1l-0.4,0.2l0.2,0l4.4-0.8l-0.4-1.9
	L172.9,60.6z"/>
<path class="st0" d="M177.7,60.6l0.4-3.2c-0.1-0.2,0-0.3,0.1-0.5l0.1-0.7l0-1c-0.1-0.1-0.1-0.2,0-0.4l0,0c-0.1-0.1,0-0.3,0-0.4
	l0-1.1c0,0-0.1,0-0.1-0.1c-0.1-0.2-0.1-0.4,0.1-0.6l0-0.6l-0.2-3.1l-0.4-3.1l-0.6-3.3l-2.5,1.5l-0.7,4.5l-0.4,3.5l-0.2,3.3l0.2,4
	l0.5,3.8l0.4,1.7c0.1,0,0.1,0,0.2-0.1l2.3-1.3L177.7,60.6z"/>
<path class="st0" d="M148.6,106.1l0-0.6c0,0,0,0,0,0c-0.2-0.2-0.2-0.5,0-0.7l-0.1-2.8l-0.5-4l-0.7-4.2l-0.9-4.2l-1.1-4.2l-1.3-4.4
	l-1.4-4.1c0,0-0.1,0-0.1-0.1c-0.1-0.1-0.2-0.3-0.1-0.4c0,0,0,0,0-0.1l-1.6-3.9l-1.3-2.8l-1.3-3l-0.2-0.3c0,0,0,0,0,0l-1.3-2.6
	l-1.5-2.7l-4.9-8.2l-1.6-2.2l-2.2,1.2l2.4,3.6l2.6,4.1l2.2,4.3l2.2,4.4l2,4.2l0.2,0.5l0.1,0.2l0.6,1.4c0,0,0,0,0,0c0,0,0,0,0,0
	l0.4,1l0.6,1.3l1.7,4.4l1.5,4.4l1.1,4.4l1.8,8.5l0.7,8.5l0.2,3.9l-0.2,3.9l-0.4,3.7l-1.5,7l-1.1,3.2l-1.3,3l-1.5,2.6l-1.7,2.6l0,0.1
	l0.2-0.1l0,0c0,0,0.1-0.1,0.1-0.1l0.3-0.1l1.8-2.1l1.6-2.4l1.2-2.5l1.3-2.9l1.1-2.9l0.9-3.3l0.5-3.4l0.4-3.5l0.1-2.6
	c-0.2-0.2-0.2-0.5,0-0.7l0-0.6L148.6,106.1z"/>
<polygon class="st0" points="126.9,141.9 128.8,140.7 128.8,138.7 126.9,139.9 "/>
<path class="st0" d="M120.9,138l-0.1-0.3l-0.5-1.2l-0.6-0.6l-0.3-0.1c0,0,0,0,0,0c0,0,0,0,0,0c0,0,0,0,0,0l-1.8-1.1l-0.7,0.4
	l0.4,0.2c0.1,0,0.1,0.1,0.2,0.1l0.7,0.9l0.5,0.3c0,0,0.1,0.1,0.1,0.1l0.7,0.9c0,0,0,0.1,0.1,0.1l0.6,1.1l0.8,2.5c0,0.1,0,0.1,0,0.2
	v1.1l-0.2,1c0,0,0,0.1,0,0.1l-0.4,0.7l-0.3,0.4l-0.1,0.2c0,0.1-0.1,0.1-0.2,0.2l0,0l0,0.1c0,0.1-0.1,0.1-0.2,0.1l-0.3,0.1l-0.3,0.3
	c0,0-0.1,0-0.1,0.1l1.1,0.6l0.7,0.3l0.3-0.3l0.1-0.2v-0.2v-7.7V138z"/>
<polygon class="st0" points="181,68.6 181.7,68.3 181.7,68.2 181,68.6 "/>
<path class="st0" d="M138.3,136.4l1.6-2.5l1.5-2.5l1.3-2.9l1.1-3.1l1.5-6.9l0.4-3.6l0.2-3.8l-0.2-3.8l-0.1-1.5l-0.2,1l-0.2,0.8
	c0,0.1-0.1,0.2-0.1,0.2l-0.6,0.6c-0.1,0.1-0.2,0.1-0.4,0.1h-0.1l-1,0.5c0,0,0,0,0,0l-0.1,0.1v15.1v1.3c0,0.1,0,0.1,0,0.2l-0.4,0.9
	l-0.6,1c0,0.1-0.1,0.1-0.1,0.1l-0.7,0.6c0,0,0,0,0,0c0,0,0,0,0,0l-1.1,0.7c0,0,0,0,0,0c0,0-0.1,0-0.1,0l-0.9,0.4c-0.1,0-0.1,0-0.2,0
	h-0.9c-0.1,0-0.1,0-0.2,0l-1.9-0.6l0,0.1l0.2,0.3c0,0,0,0.1,0.1,0.1l0.4,0.9l0.2,1c0,0.1,0,0.1,0,0.2l-0.2,0.7c0,0.1,0,0.1-0.1,0.2
	l-0.4,0.6c0,0.1-0.1,0.1-0.1,0.1l-0.6,0.4c-0.1,0.1-0.2,0.1-0.3,0.1c-0.1,0-0.1,0-0.2,0l-0.6-0.2l-0.7-0.2c-0.1,0-0.2-0.1-0.2-0.1
	l-0.7-0.7l-0.6-0.8l-0.6-1c0,0-0.1-0.1-0.1-0.2l-0.2-0.9l0-1c0-0.1,0-0.1,0-0.2l0.2-0.6c0-0.1,0.1-0.2,0.2-0.3l0.6-0.4
	c0,0,0.1,0,0.1-0.1l0.2-0.1l-0.2-0.1l-0.8-0.2l-1.2,0l-0.4,0.8l-0.3,0.8l-1.9,8.6l0.3-0.1c0.1,0,0.1-0.1,0.2-0.1h0.7
	c0.1,0,0.1,0,0.2,0l0.6,0.2c0,0,0,0,0,0c0,0,0,0,0,0l0,0c0,0,0,0,0,0l5.1,1.8c0,0,0,0,0,0c0,0,0,0,0,0l0.3,0.1h0.3
	c0.1,0,0.2,0,0.2,0.1l0.1,0c0.1-0.1,0.2-0.1,0.3-0.1l0.2,0c0.1-0.1,0.2-0.1,0.4-0.1l0.1,0l0.2-0.1L138.3,136.4z"/>
<path class="st0" d="M117,145l0.6-0.1l0.4-0.3l0.4-0.6l0.2-0.8l0-1l-0.2-1l-0.5-1.2l-0.5-1.1l-0.7-1l-0.8-0.8l-0.9-0.5l-0.5-0.2
	l-2.1,1.2c0.2,0.1,0.4,0.2,0.4,0.5l0,0.2c0,0,0,0,0,0c0,0,0,0,0,0.1c0,0,0,0.1,0,0.1c0,0,0,0,0,0c0,0,0,0,0,0c0,0,0,0,0,0.1l0,0
	c0.1,0.1,0.1,0.2,0.1,0.3l0,0c0,0,0,0.1,0.1,0.1c0.1,0,0.1,0.1,0.2,0.2c0,0,0,0,0,0c0,0,0.1,0,0.1,0.1l0,0c0,0,0.1-0.1,0.1-0.1
	c0,0,0-0.1,0.1-0.1l0.2-0.2c0,0,0.1-0.1,0.1-0.1c0,0,0-0.1,0.1-0.1l0.4-0.4c0,0,0.1-0.1,0.1-0.1c0,0,0,0,0,0c0,0,0-0.1,0-0.1
	c0,0,0,0,0.1,0c0,0,0,0,0.1,0c0.1,0,0.1-0.1,0.2-0.1c0,0,0,0,0,0c0,0,0,0,0,0c0,0,0.1,0,0.1,0c0.1,0,0.1,0.1,0.1,0.1c0,0,0,0,0,0
	l0,0c0.2,0,0.3,0.1,0.4,0.2c0.1,0,0.2,0.1,0.2,0.2c0,0,0,0,0,0c0.1,0.1,0.2,0.2,0.2,0.4l0,0c0.1,0.1,0.1,0.2,0.1,0.4v0.2v0.2
	c0,0.2-0.2,0.4-0.4,0.5c0,0.1-0.1,0.2-0.1,0.2l-0.2,0.2c0,0.1-0.1,0.3-0.2,0.4v0.2c0,0.1,0,0.1,0,0.2c0,0,0,0.1,0,0.2l0,0
	c0,0,0,0,0,0c0,0,0,0,0,0c0,0,0,0,0,0.1c0,0,0,0.1,0.1,0.1c0,0,0,0.1,0,0.1c0,0,0,0,0,0.1l0,0c0,0,0,0,0,0l0.2,0.2
	c0.1,0,0.2,0.1,0.3,0.1l0.2,0.2c0.1,0,0.2,0.1,0.3,0.1l0.4,0.4c0,0,0,0,0,0c0,0,0.1,0.1,0.1,0.2c0,0.1,0,0.1,0,0.2c0,0,0,0,0,0v0.2
	c0,0.1-0.1,0.3-0.1,0.4l0,0c0,0.2-0.1,0.3-0.2,0.4c0,0,0,0,0,0c0,0,0,0,0,0.1c0,0,0,0-0.1,0c0,0,0,0,0,0c0,0,0,0,0,0
	c-0.1,0-0.1,0.1-0.2,0.1c0,0,0,0,0,0c0,0,0,0,0,0c0,0,0,0,0,0c-0.1,0-0.1,0-0.2,0c0,0,0,0,0,0c0,0,0,0,0,0c0,0,0,0-0.1,0
	c0,0-0.1,0-0.1-0.1l0,0c-0.1,0-0.1,0-0.2-0.1l-0.4-0.2c0,0-0.1-0.1-0.1-0.1l0,0c-0.1,0-0.2-0.1-0.3-0.1l-0.2-0.2c0,0-0.1,0-0.1,0
	c0,0-0.1,0-0.1,0c0,0,0,0,0,0c0,0,0,0,0,0c0,0,0,0,0,0c0,0,0,0,0,0l0,0c-0.1,0-0.3-0.1-0.4-0.2c0,0,0,0,0,0.1c0,0,0,0,0,0l0.1,0
	c0,0,0.1,0.1,0.1,0.1l0.3,0.3l0.3,0.1c0,0,0.1,0.1,0.1,0.1l0.2,0.2c0.1,0,0.1,0,0.2,0l1.4,0.5h0.1L117,145z"/>
<path class="st0" d="M47.4,30.6C47.4,30.5,47.5,30.5,47.4,30.6C47.5,30.5,47.5,30.5,47.4,30.6c0.2-0.2,0.3-0.3,0.5-0.3h0.7
	c0.3,0,0.5,0.2,0.5,0.5l0,1.1c0,0,0,0,0,0.1c0,0,0,0,0,0c0,0,0,0,0,0c0,0,0,0.1,0,0.1c0,0,0,0.1,0,0.1c0,0,0,0,0,0v0.2l0,0
	c0,0,0.1,0.1,0.1,0.1c0.1,0.1,0.2,0.2,0.2,0.3h0.1c0.1,0,0.1,0,0.2,0c0,0,0.1,0,0.1,0.1c0.1-0.1,0.2-0.1,0.3-0.1l0.4,0
	c0.1-0.1,0.2-0.1,0.4-0.1l0.2,0c0,0,0,0,0,0c0,0,0.1-0.1,0.1-0.1c0,0,0.1,0,0.1,0c0,0,0,0,0,0c0,0,0.1,0,0.1,0c0,0,0.1,0,0.1,0
	c0.1,0,0.1,0.1,0.2,0.1c0,0,0,0,0,0c0,0,0,0,0,0c0,0,0.1,0.1,0.1,0.1c0,0,0,0.1,0,0.1c0,0,0,0.1,0,0.1l0,0c0.1,0.1,0.1,0.2,0.1,0.3
	l0,0c0.1,0.1,0.1,0.2,0.1,0.3l0,0c0.1,0.1,0.1,0.2,0.1,0.4v0.2v0c0,0,0,0,0,0c0,0.1,0,0.1,0,0.2c0,0-0.1,0.1-0.1,0.1c0,0,0,0,0,0
	l-0.2,0.2c-0.1,0.1-0.2,0.1-0.3,0.1l0,0c-0.1,0.1-0.2,0.1-0.4,0.1l-0.2,0c-0.1,0.1-0.2,0.1-0.3,0.1c0,0,0,0,0,0l-0.2,0.2l0,0
	c0,0,0,0,0,0.1c0,0,0,0,0,0c0,0,0,0,0,0c0,0,0,0.1,0,0.1c0,0,0,0.1,0,0.1c0,0,0,0,0,0V36l1,1c0,0,0,0,0,0c0,0,0.1,0.1,0.1,0.2
	c0,0.1,0,0.1,0,0.2c0,0,0,0,0,0v0.2c0,0.3-0.2,0.5-0.5,0.5c0,0,0,0,0,0l0.4,0.1h0.6l0.2,0l0.4-0.2l0.4-0.4l0.3-0.7v-2l-0.3-1
	L53,32.4l-0.7-1l-1.5-1.5l-1-0.5l-0.6-0.2h-0.7l-0.5,0.3l-0.4,0.7l-0.2,0.5C47.3,30.7,47.3,30.6,47.4,30.6
	C47.4,30.6,47.4,30.6,47.4,30.6z"/>
<polygon class="st0" points="137.8,75.6 141.5,86.4 141.7,86.2 138.2,75.9 138,75.4 "/>
<path class="st0" d="M47.7,44.9l2.6-0.2l2.8,0.2l0,0l9.9-5.7v-4.2l-2.9,1.7c0,0,0,0,0,0s0,0,0,0l0,0c0,0,0,0,0,0c0,0,0,0,0,0
	l-14.3,8.2c0,0-0.1,0.1-0.1,0.1L47.7,44.9z"/>
<path class="st0" d="M135.7,71.5l-0.2-0.2l0.2,0.4c0,0,0.1,0.1,0.1,0.1l0.6,0.7l0.8,1.3l0.3,0.8l0.2-0.1l-0.5-1.2l-0.5-0.8
	L135.7,71.5z"/>
<polygon class="st0" points="184.9,66.4 185.8,65.8 184.9,66.3 "/>
<polygon class="st0" points="112.8,130.6 110.3,130.6 106,133.1 106,133.1 105.3,135.4 113.7,130.6 113.6,130.6 "/>
<polygon class="st0" points="124.6,143.5 124.6,143.5 124.6,140.4 124.6,140.4 124.6,139.9 124.6,137 121.9,138.5 121.9,145.1 
	124.6,143.6 "/>
<polygon class="st0" points="125.6,142.7 125.9,142.5 125.9,140.5 125.6,140.7 "/>
<path class="st0" d="M142.5,101.5c0,0,0.1,0.1,0.1,0.1l1.1,2.2l0.4,1.2l0.2,1.2l0.1-0.6l-0.3-2l-0.5-1l-0.7-1l-0.6-0.5l-0.2,0.1
	L142.5,101.5z"/>
<path class="st0" d="M126.2,137.7L126.2,137.7c0-0.1,0.1-0.1,0.1-0.1l1.2-5.6L126.2,137.7L126.2,137.7z"/>
<polygon class="st0" points="141.7,123.9 141.8,123.8 141.8,109.3 141.7,109.2 "/>
<path class="st0" d="M142.9,107.6l0.3-0.6l0.2-0.8l-0.2-1l-0.3-1l-1-2.1l-0.9-0.9c0,0-0.1-0.1-0.1-0.1c0,0,0,0,0,0c0,0,0,0,0,0
	c0,0,0,0,0,0c0,0,0-0.1,0-0.1c0,0,0-0.1,0-0.1c0,0,0,0,0,0c0,0,0,0,0,0V87.2l-2.5-7.2v0.2c0,0.1-0.1,0.3-0.1,0.4l-0.6,0.6
	c0,0,0,0,0,0c0,0,0,0,0,0l-6.1,3.9c0,0,0,0,0,0c0,0,0,0,0,0l-0.8,0.5l0.3,1.2l1.1,3.7l0.9,3.7l0.6,3.5l0.4,3.5l0.1,1.8
	c0.1,0.1,0.1,0.3,0,0.5l0.1,1c0,0,0,0,0,0c0,0,0,0.1,0,0.1c0,0,0,0.1,0,0.1c0,0,0,0,0,0c0,0,0,0,0,0c0,0.1-0.1,0.1-0.1,0.1
	c0,0,0,0,0,0c-0.1,0-0.1,0.1-0.2,0.1c0,0,0,0,0,0c-0.1,0-0.2,0-0.2-0.1c0,0,0,0,0,0l-17.9-10.2l0.7,0.8l3.7,6.3c0,0,0,0,0,0
	c0,0,0,0,0,0c0,0,0,0,0,0c0,0,0,0,0,0.1c0,0,0,0.1,0,0.1c0,0,0,0,0,0v0c0,0,0,0,0,0v6.2c0,0,0,0,0,0.1c0,0,0,0.1,0,0.1
	c0,0,0,0.1,0,0.1c0,0,0,0,0,0.1c0,0-0.1,0.1-0.1,0.1c0,0,0,0,0,0l-0.9,0.6c0,0,0,0,0,0c0,0-0.1,0-0.1,0v1.4c0,0,0,0,0,0.1
	c0,0,0,0.1,0,0.1c0,0,0,0.1,0,0.1c0,0,0,0.1-0.1,0.1c0,0,0,0-0.1,0.1c0,0,0,0,0,0l-2.8,1.7c0,0,0,0,0,0c-0.1,0-0.1,0.1-0.2,0.1
	c0,0,0,0,0,0c0,0,0,0,0,0c0,0,0,0,0,0h-0.2l-0.3,0.1c-0.1,0-0.1,0.1-0.2,0.1h-0.9c-0.1,0-0.2,0-0.2-0.1c0,0,0,0,0,0l-0.6-0.4
	c0,0,0,0,0,0c0,0,0,0,0,0l-0.4-0.4c0,0,0,0,0,0c0,0,0,0,0,0l-2.1-2.9l-0.6,2.3l-1.8,5.3v7.1l-0.4,3.5l-0.6,3.2l-0.4,1.1l3.5-2
	c0,0,0,0,0,0c0,0,0.1,0,0.1,0c0,0,0.1,0,0.1,0c0,0,0,0,0,0h3.3l3.2-0.7c0,0,0,0,0,0c0,0,0.1,0,0.1,0c0,0,0.1,0,0.1,0c0,0,0,0,0,0
	c0,0,0,0,0,0c0,0,0,0,0.1,0c0,0,0,0,0,0l0,0c0,0,0,0,0,0l6.4,3.8l0.4,0.2c0,0,0.1,0.1,0.1,0.1l0.4,0.4c0,0,0.1,0.1,0.1,0.1l0.1,0.3
	l0.3,0.3c0,0,0.1,0.1,0.1,0.1l0.4,0.7c0,0.1,0.1,0.1,0.1,0.2v0.4l0.1,0.3c0,0,0,0,0,0c0,0,0,0.1,0,0.1c0,0,0,0,0,0l1.8-7.6
	c0,0,0,0,0,0l0.2-0.9c0-0.1,0-0.1,0.1-0.2l0.6-0.7l0.6-0.6c0,0,0.1-0.1,0.1-0.1l0.7-0.4c0,0,0,0,0,0c0,0,0.1,0,0.1,0c0,0,0,0,0,0
	h1.7l1,0.2c0.1,0,0.1,0,0.2,0.1l0.9,0.6c0,0,0,0,0,0l2.2,1.3l2.1,0.7h0.7l0.8-0.3l0.6-0.5l0.5-0.8l0.3-1v-1c0,0,0,0,0,0s0,0,0,0
	v-16.2c0,0,0,0,0,0c0,0,0,0,0,0c0,0,0,0,0,0c0,0,0-0.1,0-0.1c0,0,0-0.1,0.1-0.1c0,0,0,0,0.1-0.1c0,0,0.1,0,0.1-0.1c0,0,0,0,0.1,0
	c0,0,0.1,0,0.1,0c0,0,0,0,0,0c0,0,0,0,0,0c0,0,0,0,0.1,0l0.7,0.1c0.1-0.1,0.2-0.1,0.3-0.1l0.2-0.1L142.9,107.6z"/>
<path class="st0" d="M56.7,23.2l0.9,0.9l0.4,0.6c0,0,0,0,0,0c0,0,0,0,0,0l0.4,0.6c0,0,0.1,0,0.1,0.1l0.6,0.6l0.8,1.1l0.7,0.7
	l0.6,0.7l0.7,0.5l0.6,0.3l0.6,0.2h0.3l0.8-0.6l0.2-0.1c0-0.1,0.1-0.2,0.3-0.3l0.5-0.2l0.2-0.1c0,0,0.1-0.1,0.1-0.1l0.3-0.1l0.2-0.1
	l0.7-0.4l1.4-0.4l1.4-0.2l1.5,0c0,0,0.1,0,0.1,0l1.7,0.4l1.5,0.6l1.7,1c0,0,0,0,0,0c0,0,0,0,0,0l8.8,5.1h0.1c0.1,0,0.1,0,0.2,0
	l5.3,2.4l5.4,2.8l5.4,3.3l4.7,3.6l9.8,5.6c0,0,0,0,0,0c0,0,0,0,0,0c0,0,0,0,0,0l1.7,1.1l3.2,2.8l1.5,1.5l2.6,3.7l1.3,2l0.9,2.1
	l0.5,0.9l1,1.4l0.6,0.5l1.8-0.8c0,0,0,0,0,0c0,0,0,0,0.1,0c0,0,0.1,0,0.1,0c0,0,0,0,0,0c0,0,0,0,0,0c0,0,0,0,0,0h0.9
	c0.1,0,0.1,0,0.2,0l0.6,0.2c0.1,0,0.1,0.1,0.2,0.1l0.4,0.4l0.5,0.3c0.1,0,0.1,0.1,0.1,0.1l0.7,1.1l0,0c0,0,0,0,0.1,0l0.9,0.7l0,0
	l-0.6-1.2l-2.2-4.4l-2.2-4.2l-2.5-4l-2.7-4l-0.2-0.2c0,0-0.1-0.1-0.1-0.1l-0.1-0.3l-1-1l-0.3-0.1c0,0-0.1-0.1-0.1-0.1l-0.1-0.1
	L67.1,17.8c0,0,0,0,0,0c0,0,0,0-0.1,0l-0.1-0.1l-0.3-0.1c-0.1,0-0.2,0-0.2-0.1l-0.3-0.1h-0.8l-2.5,0.9l-2.5,1.3l-2.3,1.4l-2.2,2
	l0.8,0.3C56.6,23.1,56.7,23.2,56.7,23.2z M123.8,57.7c0-0.1,0-0.2,0.1-0.2l0.4-0.7c0,0,0.1-0.1,0.1-0.1l0.4-0.4
	c0.1-0.1,0.2-0.1,0.4-0.1h0.6c0,0,0.1,0,0.1,0l0.7,0.2c0,0,0.1,0,0.1,0l0.7,0.4c0,0,0.1,0.1,0.1,0.1l0.7,0.7c0,0,0.1,0.1,0.1,0.2
	l0.1,0.3l0.4,0.5c0.1,0.2,0.1,0.4,0,0.5l0.2,0.5l0.2,1c0,0.1,0,0.1,0,0.2l-0.2,0.7c0,0.1,0,0.1-0.1,0.2l-0.4,0.6
	c0,0.1-0.1,0.1-0.2,0.2l-0.4,0.2c-0.1,0-0.1,0.1-0.2,0.1h-0.7c-0.1,0-0.2,0-0.2-0.1l-0.7-0.4l-0.8-0.6c-0.1,0-0.1-0.1-0.1-0.1
	l-0.6-0.9l-0.8-1.9c0-0.1,0-0.1,0-0.2V57.7z M61.8,21.8l0.2-0.7c0-0.1,0.1-0.2,0.2-0.3l0.6-0.4c0,0,0.1,0,0.1-0.1l0.6-0.2
	c0.1,0,0.2,0,0.3,0l0.7,0.2c0.1,0,0.1,0,0.2,0.1l0.7,0.6c0,0,0.1,0.1,0.1,0.1l0.6,0.7l0,0.1c0.1,0,0.1,0.1,0.2,0.2l0.4,0.7
	c0,0,0,0,0,0l0.4,0.9l0.2,0.8c0,0.1,0,0.1,0,0.2L67,25.7c0,0.1-0.1,0.2-0.1,0.3l-0.4,0.4l-0.6,0.4c-0.1,0.1-0.2,0.1-0.3,0.1H65
	c-0.1,0-0.2,0-0.2-0.1l-0.7-0.4c0,0-0.1-0.1-0.1-0.1l-0.7-0.7l-0.6-0.8l-0.6-1c0,0-0.1-0.1-0.1-0.2l-0.2-0.9l0-0.8
	C61.8,21.9,61.8,21.8,61.8,21.8z"/>
<path class="st0" d="M47.4,32.4c-0.1-0.1-0.1-0.2-0.1-0.4v-1l-0.1,0.6l0,0.1v0.9c0.1,0.1,0.2,0.2,0.2,0.4l0,0.4c0,0,0,0.1,0.1,0.1
	v-0.7L47.4,32.4z"/>
<polygon class="st0" points="54,26.2 54.1,26.4 56.9,24.9 56.9,24.8 56.1,24 55.2,23.7 55,23.7 54.8,23.8 52.5,25.1 53.5,25.7 "/>
<path class="st0" d="M124.4,135.4l-0.3-0.6l-0.3-0.3c0,0-0.1-0.1-0.1-0.1l-0.1-0.3l-0.3-0.3l-0.1,0l-2.7,1.5l0.5,0.5
	c0,0,0.1,0.1,0.1,0.1l0.4,0.7l0.2,0.6l0.1,0.1l2.7-1.5c0,0,0-0.1,0-0.2V135.4z"/>
<path class="st0" d="M128.1,137.6l-0.3,0.1l-0.5,0.2l-0.1,0.1l0,0.1c0,0,0,0,0,0c0,0,0,0,0,0c0,0,0,0,0,0.1c0,0,0,0,0,0.1
	c0,0,0,0,0,0c0,0,0,0,0,0l0,0l-0.1,0.3l1.7-1.1l0,0H128.1z"/>
<path class="st0" d="M50.9,27.5c0.1,0,0.1,0,0.2,0l0.9,0.4c0,0,0.1,0,0.1,0.1l0.9,0.7l1,1l0.8,1c0,0,0,0.1,0.1,0.1l1.1,2.2
	c0,0,0,0.1,0,0.1l0.2,1.1l0,2.3c0,0.1,0,0.2-0.1,0.2l-0.4,0.7l-0.6,0.8c0,0.1-0.1,0.1-0.2,0.1l-0.3,0.2l-0.5,0.4
	C54,38.9,53.9,39,53.8,39c-0.1,0-0.1,0-0.2,0c0,0,0,0-0.1,0L53.2,39l0,0c-0.1,0.1-0.2,0.1-0.3,0.1h-0.2H52h0c0,0,0,0,0,0
	c0,0-0.1,0-0.1,0l-0.3-0.1l0.6,1.2l6.9-4l-5.6-8.9l0,0l-0.4-0.6l-0.3-0.3L52,25.9h-0.9l-0.2,0.2l-1.1,1.4h0.1H50.9z"/>
<path class="st0" d="M143.3,74.5v-1l-0.2-1.2l-0.3-1.2l-0.7-1.2l-0.7-1.1l-0.9-0.8l-0.8-0.6l-0.4-0.1l0.9,2.1l0.3,0.7
	c0.1,0,0.2,0.1,0.2,0.2l0.2,0.4l0.7,1.3c0,0,0,0.1,0,0.1l0.5,1.8c0,0,0,0.1,0,0.1l0.6,1.5l0.1-0.1L143.3,74.5z"/>
<path class="st0" d="M127.3,58.1l-0.5-0.5l-0.6-0.3l-0.6-0.2h-0.3l-0.2,0.2l-0.3,0.6v0.5l0.7,1.7l0.5,0.8l0.7,0.5l0.5,0.3h0.5
	l0.1-0.1l0.2-0.4l0.1-0.5l-0.2-0.8l-0.5-1.3l-0.1-0.2C127.4,58.3,127.4,58.2,127.3,58.1z"/>
<polygon class="st0" points="183.6,66.2 183.6,66.3 183.9,66.4 183.9,66.3 "/>
<path class="st0" d="M68.6,15.5C68.6,15.5,68.6,15.6,68.6,15.5l-1.7,0.9c0.1,0,0.1,0,0.2,0.1l0.4,0.2c0,0,0,0,0,0l1.9-1.1
	c0,0-0.1,0-0.1,0l-0.3-0.1L68.6,15.5C68.7,15.5,68.7,15.5,68.6,15.5C68.6,15.5,68.6,15.5,68.6,15.5z"/>
<polygon class="st0" points="123.6,49.1 125.6,47.8 70.5,16.1 68.4,17.3 "/>
<path class="st0" d="M154.9,33.1C154.9,33.1,154.9,33.1,154.9,33.1l1.9,1.1c0,0,0.1,0,0.1,0.1l0.7,0.7l0.6,0.5l0.1-0.1c0,0,0,0,0,0
	c0,0,0.1-0.1,0.1-0.1c0,0,0,0,0,0l-1.2-1l-1.8-1.1l-0.8-0.3c0,0,0,0.1,0.1,0.1L154.9,33.1C154.9,33.1,154.9,33.1,154.9,33.1z"/>
<path class="st0" d="M125.7,50.9l0.1,0.1l2.3-1.2l-0.4-0.4c0,0-0.1-0.1-0.1-0.1l-0.1-0.2l-0.2-0.1c0,0-0.1-0.1-0.1-0.1l-0.5-0.5l0,0
	l-2.1,1.3l1.1,1.1C125.7,50.8,125.7,50.9,125.7,50.9z"/>
<path class="st0" d="M134.7,80.5c0,0.1,0,0.1,0,0.2v0.8l2.1-1.2l0.4-0.4v-0.2c0-0.1,0-0.2,0.1-0.2l0.1-0.3v-0.7l-0.1-0.3l0,0
	l-2.8,1.5L134.7,80.5z"/>
<path class="st0" d="M49.8,38.3L49.6,38c-0.2,0-0.3-0.1-0.4-0.2c-0.1,0-0.1-0.1-0.2-0.2c-0.1,0-0.1-0.1-0.2-0.2c0,0-0.1,0-0.1-0.1
	l-0.2-0.2c0,0-0.1-0.1-0.1-0.1c-0.1,0-0.1-0.1-0.2-0.2c0,0-0.1,0-0.1-0.1l-0.2-0.2c0,0,0-0.1-0.1-0.1v6.2l3.5-2l-1.3-2.4
	C50,38.4,49.9,38.3,49.8,38.3z"/>
<path class="st0" d="M143.6,100.7c0,0,0.1,0.1,0.1,0.1l0.7,1.1l0.6,1.2c0,0,0,0.1,0,0.1l0.3,1.7l-0.5-6.1l-1.8-8.4l-0.1-0.5v10.2
	L143.6,100.7z"/>
<polygon class="st0" points="114.9,95.6 115.2,96 115.8,96.9 115.3,96 "/>
<path class="st0" d="M49,34l-1,0.5c0,0,0.1,0.1,0.1,0.2l0.7-0.5L49,34z"/>
<polygon class="st0" points="141.7,125.5 141.8,125.2 141.8,125 141.7,125.1 "/>
<g>
	<path class="st1" d="M190.2,47.6l-0.2-2.6l-0.4-2.6l-0.7-2.8l-0.9-2.8l-1.1-2.6l-1.3-2.8l-1.5-2.6l-3.3-4.8l-1.8-2.2l-0.2-0.3
		l2.5,1.4c0,0,0,0,0,0c0,0,0,0,0,0l0.7,0.4c0,0,0.1,0,0.1,0l1.2,0.2l1,0l1.1-0.2c0,0,0.1,0,0.1,0l0.7-0.4c0,0,0.1-0.1,0.1-0.1
		l0.6-0.6l0.4-0.6c0.1-0.1,0.1-0.2,0.1-0.3v-0.2v-0.9v-0.4v-0.2c0-0.1,0-0.2-0.1-0.3l-0.4-0.6l-0.6-0.6c0,0,0,0-0.1,0c0,0,0,0-0.1,0
		L164.8,5.7c0,0,0,0,0,0c0,0,0,0,0,0l-1-0.4l-1-0.2l-1.2,0l-0.9,0.2c0,0-0.1,0-0.1,0l-0.8,0.4l-0.7,0.6c-0.1,0.1-0.1,0.1-0.2,0.2
		l-0.2,0.7c-0.1,0.1-0.2,0.2-0.2,0.4v1.1c0,0,0,0,0,0c0,0,0,0.1,0,0.1c0,0,0,0.1,0,0.1c0,0,0,0,0,0l0.2,0.3l0.2,0.6
		c0,0.1,0.1,0.2,0.3,0.3l0.7,0.4l3.4,2.1l0,0c0,0,0,0,0,0h-0.2l-1.9,0l-1.9,0.4l-1.7,0.6c0,0-0.1,0-0.1,0.1l-0.5,0.4l-0.2,0.1
		l-0.4,0.2c0,0-0.1,0-0.1,0l-1.3,1l-1.3,1.3l-1.1,1.5l-1,1.7l-0.5,1.4l-0.8,0.1l-5.3,0.9c0,0-0.1,0-0.1,0c0,0-0.1,0-0.1,0l0,0l0,0
		l-3.3,2c0,0,0,0,0,0c0,0,0,0,0,0c0,0,0,0-0.1,0.1c0,0,0,0,0,0c0,0,0,0,0,0c0,0,0,0,0,0.1c0,0,0,0,0,0.1c0,0,0,0,0,0l-0.3,1.7
		l-0.8-0.3l-4.8-1.3l-2.4-0.7l-3.5-0.9l-3.5-0.7l-6.8-1.1l-3.3-0.4l-4.1-0.4l-5.6-0.2l-8.6,0.4l-4.8,0.4L89,21.8l-2.7,0.5L84,22.7
		l-13.2-7.6c0,0,0,0,0,0c0,0,0,0,0,0l-0.4-0.2c-0.1,0-0.1-0.1-0.2-0.1l-0.3-0.1c-0.1,0-0.1-0.1-0.2-0.1l-0.3-0.1
		c-0.1,0-0.1-0.1-0.2-0.1h-0.6c-0.1,0-0.3,0.1-0.4,0.1l-0.1,0.1l-1.8,0.5L63,16.7c-0.1,0-0.1,0.1-0.2,0.1l-0.3,0.3l-3.1,1.6
		c-0.1,0-0.1,0.1-0.2,0.1l-2,1.2l-2,1.8l-1.5,1.3c0,0,0,0,0,0L50.6,25c0,0,0,0,0,0c0,0,0,0-0.1,0l-0.4,0.4c0,0,0,0,0,0c0,0,0,0,0,0
		l-1.8,2.3l-0.5,0.3c0,0,0,0,0,0l-0.6,0.4c-0.1,0-0.1,0.1-0.2,0.2l-0.3,0.7l-0.1,0.1c-0.1,0.1-0.2,0.3-0.1,0.4l-0.2,0.6l-0.2,1v0.2
		v1.3c0,0.2,0.1,0.3,0.2,0.4v0.2c0,0.1,0.1,0.3,0.1,0.4l0,0.2c0,0.1,0.1,0.3,0.1,0.4l0,0c0,0.1,0.1,0.2,0.1,0.3l0,0.2v0.1L46.2,38
		l-0.9,3.4l-0.3,2.9L14.4,61.7c-0.1,0.1-0.2,0.2-0.2,0.3l-1.1,0.7l-1.9,1.5l-1.9,1.9l-1.5,2l-0.4,0.6c0,0,0,0,0,0c0,0-0.1,0-0.1,0.1
		L7,69.1c0,0-0.1,0.1-0.1,0.1l-1.3,2.4l-0.9,2.4l-0.9,2.6l-0.7,3l-0.7,6.1l0,4.4l0.2,3.5l0.4,3.3v0.1l-0.2,0.7c0,0,0,0.1,0,0.1v1.2
		l-0.2,0.7c0,0,0,0.1,0,0.1v3.1v3.9c0,0,0,0.1,0,0.1l0.2,0.7v1.2c0,0,0,0.1,0,0.1l0.2,0.7v0.7c0,0.1,0,0.1,0,0.2l0.2,0.5v0.7
		c0,0.1,0,0.1,0,0.2l0.3,1.2v0.7c0,0.1,0,0.1,0,0.2l0.4,1.3l0.2,0.5v0.7c0,0.1,0,0.1,0,0.2l0.7,2.6l0.2,0.6l0.3,0.7l0.7,2.5
		c0,0.1,0,0.1,0.1,0.2l0.3,0.5l0.2,0.7c0,0.1,0,0.1,0.1,0.2l0.3,0.5l0.2,0.6l0.3,0.7l0.2,0.6c0,0,0,0.1,0.1,0.1l0.3,0.5l0.2,0.6
		l0.4,0.8l0.3,0.5l0.2,0.5c0,0,0,0.1,0.1,0.1l0.3,0.5l0.4,0.8l3.7,5.6l0.5,0.5l0.8,1.2l0.9,0.8l0.4,0.6l1.4,1.4l0.4,0.6
		c0,0.1,0.1,0.1,0.1,0.1l0.5,0.3l0.3,0.5c0,0.1,0.1,0.1,0.1,0.1l0.5,0.3l1.5,1.5l0.5,0.3l1,1l1,0.7l0.6,0.6l5.6,3.7l0.7,0.3l0.6,0.4
		c0,0,0.1,0,0.1,0.1l0.5,0.2l0.5,0.4l0.8,0.4l0.5,0.2l0.5,0.3c0,0,0.1,0,0.1,0.1l0.5,0.2l0.8,0.4l0.4,0.1l1.9,1.5l2.9,1.8l2.8,1.7
		l2.8,1.5l3,1.3l2.8,0.9l2.8,0.7l2.8,0.6l2.6,0.2h2.2c0.2,0,0.3-0.1,0.4-0.2l2.5-0.2l2.5-0.6l2.2-0.9l1.7-0.9c0,0,0,0,0,0
		c0.1,0,0.2,0,0.2-0.1l23.9-13.8c0,0,0,0,0,0c0,0,0,0,0,0l1.6-1.1c0,0,0,0,0,0l10.1-5.8l0.1,0.1l0.1,0.2c0,0,0,0,0,0
		c0,0.1,0.1,0.1,0.1,0.2c0,0,0,0,0,0c0,0,0,0,0,0l4.4,2.4c0,0.1,0.1,0.2,0.2,0.2c0,0,0,0,0,0c0,0,0,0,0.1,0.1c0,0,0.1,0.1,0.1,0.1
		c0,0,0,0.1,0.1,0.1l0.1,0.1l0.1,0.3c0,0.1,0.1,0.2,0.2,0.2l0.3,0.1l0.3,0.3c0,0,0.1,0.1,0.1,0.1l0.3,0.1l0.3,0.3c0,0,0,0,0,0
		c0,0,0.1,0.1,0.1,0.1c0.1,0,0.1,0,0.2,0l0.9,0.3l0.6,0.2c0.1,0,0.1,0,0.2,0h0.2h0.2h0.2l2.1,1.2c0,0,0,0,0,0c0,0,0,0,0,0l0.7,0.4
		c0.1,0,0.1,0.1,0.2,0.1h0.4c0.1,0,0.3-0.1,0.4-0.1l0.1-0.1l3.6-2c0,0,0,0,0.1,0c0,0,0,0,0.1,0l0.1-0.1l0.9-0.5c0,0,0,0,0,0l3.1-1.8
		c0,0,0,0,0,0c0,0,0,0,0.1,0l0.2-0.2c0,0,0.1-0.1,0.1-0.1l0.4-0.7c0-0.1,0.1-0.1,0.1-0.2V141v-1.7l0.2-0.1c0,0,0,0,0,0c0,0,0,0,0,0
		c0,0,0,0,0,0c0,0,0.1,0,0.1-0.1c0,0,0,0,0,0c0,0,0,0,0,0c0,0,0,0,0,0l0.7-0.7l3.3,1.2l0.3,0.2c0.1,0,0.1,0.1,0.2,0.1h0.3l0.3,0.1
		c0.1,0,0.1,0.1,0.2,0.1c0.1,0,0.3,0,0.4-0.1l0.2,0c0.1,0,0.3-0.1,0.4-0.1l0.2,0c0.1,0,0.3-0.1,0.4-0.1l0.1-0.1l0.8-0.5l1.7-1
		c0,0,0,0,0,0c0,0,0,0,0.1,0l0.1-0.1l0.4-0.2c0,0,0,0,0.1-0.1c0,0,0,0,0.1-0.1c0,0,0,0,0,0l1.9-2.2l1.7-2.4l1.3-2.6l1.3-3l1.1-3
		l0.9-3.4l0.6-3.5l0.4-3.5l0.1-2.9l1.4-1.2l2.8-3.1l2.6-3.3l2-2.9l1.5-2.3l1.3-2.6l1.9-4.2l0.7-0.9l2.4-4.7l1.7-5l0.7-5l0.2-3.4
		c0,0,0-0.1,0-0.1l0-3.9l-0.1-1l5.7-1c0,0,0,0,0,0c0,0,0,0,0,0c0,0,0.1,0,0.1,0c0,0,0,0,0,0l0.4-0.2l0.4,0.2v0.3
		c0,0.1,0.1,0.3,0.1,0.4l0.2,0.2c0,0,0,0,0.1,0c0,0,0,0,0.1,0l4.2,2.4c0.1,0.2,0.2,0.3,0.4,0.3l0,0c0.1,0.1,0.2,0.1,0.4,0.1h0.2
		c0.2,0,0.3-0.1,0.4-0.2l1.1-0.5c0,0,0,0,0.1,0c0,0,0.1,0,0.1-0.1c0,0,0-0.1,0.1-0.1c0,0,0-0.1,0-0.1c0,0,0-0.1,0-0.1c0,0,0,0,0-0.1
		v-0.9c0.1-0.1,0.2-0.2,0.2-0.4c0-0.2-0.1-0.4-0.3-0.5l0.1-0.1c0,0,0,0,0,0.1c0,0,0,0.1,0.1,0.1c0,0,0,0,0.1,0.1c0,0,0,0,0,0
		l1.3,0.7c0,0,0,0,0,0c0,0,0,0,0,0c0.1,0,0.1,0.1,0.2,0.1c0,0,0,0,0,0c0,0,0,0,0,0c0,0,0,0,0,0s0,0,0,0c0,0,0,0,0,0c0,0,0,0,0,0
		c0.1,0,0.2,0,0.2-0.1c0,0,0,0,0,0c0,0,0,0,0,0l1.9-1.2h0c0.3,0,0.5-0.2,0.5-0.5v-0.2v-1.1v-0.2v-0.2c0-0.2-0.1-0.3-0.3-0.4
		c0,0,0,0,0,0c0-0.1-0.1-0.1-0.1-0.1c0,0,0,0,0,0c0,0,0,0,0,0l-1.6-0.9l2.8-4.5c0,0,0,0,0,0c0,0,0,0,0,0l0.9-1.9l0.8-1.9l0.4-2.1
		l0.2-2.4L190.2,47.6z M174.6,64.8l-0.4-1.7l-0.5-3.8l-0.2-4l0.2-3.3l0.4-3.5l0.7-4.5l2.5-1.5l0.6,3.3l0.4,3.1l0.2,3.1l0,0.6
		c-0.2,0.2-0.2,0.4-0.1,0.6c0,0,0,0,0.1,0.1l0,1.1c-0.1,0.1-0.1,0.3,0,0.4l0,0c0,0.1,0,0.3,0,0.4l0,1l-0.1,0.7
		c-0.1,0.1-0.1,0.3-0.1,0.5l-0.4,3.2l-0.5,2.9l-2.3,1.3C174.8,64.8,174.7,64.8,174.6,64.8z M158.5,35.2c-0.1,0-0.1,0.1-0.1,0.1
		c0,0,0,0,0,0l-0.1,0.1l-0.6-0.5l-0.7-0.7c0,0-0.1-0.1-0.1-0.1l-1.8-1.1c0,0,0,0,0,0c0,0,0,0,0,0l-0.1-0.1c0,0,0-0.1-0.1-0.1
		l0.8,0.3l1.8,1.1L158.5,35.2C158.5,35.2,158.5,35.2,158.5,35.2z M168.6,65.2L168.6,65.2l-0.2-2l0-1.5l-0.4-3.2l-0.2-0.9l0.5-1.4
		c0,0,0-0.1,0-0.1l0.3-3.2c0-0.1,0-0.1,0-0.2v-0.2l0,0l0,0l0-0.1l-0.2-2.3l-0.4-2.1l-0.6-2.1l-1.8-4l0,0c0,0,0,0,0,0l0,0l-1.1-2.1
		l-1.3-1.9l-1.5-1.7l-1.1-1.1c0-0.1,0-0.1,0-0.2c0,0,0,0,0-0.1c0,0,0-0.1-0.1-0.1c0,0,0,0-0.1,0c0,0-0.1,0-0.1-0.1c0,0-0.1,0-0.1,0
		c0,0-0.1,0-0.1,0l0,0c0,0,0,0-0.1,0c0,0,0,0-0.1-0.1c0,0,0,0,0,0c0,0,0,0,0,0c0,0,0,0-0.1,0c0,0,0,0,0,0c0,0,0,0-0.1,0c0,0,0,0,0,0
		c0,0,0,0-0.1,0c0,0,0,0,0,0c0,0,0,0,0,0c0,0-0.1,0-0.1,0c0,0,0,0,0,0c0,0,0,0-0.1,0c0,0-0.1,0-0.1,0.1c0,0,0,0,0,0c0,0,0,0,0,0
		c0,0,0,0,0,0c0,0,0,0,0,0.1c0,0,0,0,0,0l-1.6-1.2l-1.9-1.1l-1.9-0.8l-0.2-0.1c0.1-0.2,0-0.4-0.1-0.5l-0.2-0.2c0,0,0,0,0,0
		c0,0-0.1-0.1-0.2-0.1c-0.1,0-0.1,0-0.2,0c0,0,0,0,0,0H153l-1.7-0.2H150l-2.8-1.2l-1.2-0.6l-2.5-0.9l0.8-0.8l1.2-0.9l1.3-0.5
		l1.6-0.4l1.5,0l1.8,0.4l1.8,0.5l1.9,0.7l1.8,1.1l3.6,2.9l1.8,1.8l1.7,2l1.6,2.2l1.4,2.2l1.3,2.4l2.2,4.7l0.7,2.5l0.5,2.4l0.4,2.3
		v2.2l0,2.1l-0.4,2l-0.5,1.8l-0.7,1.4l-1.1,1.4l-1.1,1.1L168.6,65.2z M141.9,25.4l2.7,0l0.2,0l-1.1,0.8l-1.1,1.1l-0.9-0.4
		L141.9,25.4z M166.5,20.7l0.1-0.3l0.1-0.1c0,0,0.1-0.1,0.1-0.1l0.1-0.3l0.1-0.1c0,0,0-0.1,0.1-0.1l4.8,2.8v0.1l0,0
		c-0.1,0.1-0.1,0.2-0.1,0.4V23l0,0c0,0-0.1,0.1-0.1,0.1l-0.1,0.2l-0.2,0.1c0,0,0,0,0,0L166.5,20.7C166.5,20.7,166.5,20.7,166.5,20.7
		z M180.4,55.5l-1.2,0.7l0.1-1.3l0-0.1l2.7-1.4L180.4,55.5z M179.3,53.6l0-0.4l3.3-1.8l0.3,0.3L179.3,53.6z M182.6,49l-0.3,1.4
		l-2.9,1.6c0,0,0,0,0,0l-0.2-3.2l-0.3-2.2c0-0.1,0.1-0.2,0.1-0.3l0-0.2c0,0,0,0,0,0l0-0.1l0-0.7l-0.8-4.3l-0.8-2.3l-1.1-2.2l-1.1-2
		l-1.3-2.1l-1.5-1.9l-0.2-0.2l-1.5-1.5l-0.2-0.2c0,0,0,0,0,0c-0.1-0.1-0.2-0.1-0.4-0.1c-0.1,0-0.3,0-0.4,0.1l-0.2,0.2c0,0,0,0,0,0
		c0,0-0.1,0-0.1,0c0,0,0,0,0,0l-1-1c0,0,0-0.1,0-0.1v-0.2l0.2-0.2l0.3-0.1c0,0,0.1-0.1,0.1-0.1l0.1-0.1l3.1-2l1.5,1.4l1.5,1.6l1.6,2
		l1.3,2l1.3,2.2l1.1,2.2l0.9,2.1l1.1,4.5l0.2,2l0,2L182.6,49z M165.7,21.4l4.7,2.7l-2.5,1.4l-4.2-2.6c0,0-0.1,0-0.2-0.1l-0.2-0.2
		L165.7,21.4z M168.7,26.3C168.7,26.3,168.7,26.3,168.7,26.3C168.7,26.3,168.6,26.3,168.7,26.3l-0.2,0.2l-0.3,0.1
		c0,0-0.1,0.1-0.1,0.1l-0.3,0.3l0,0c0,0,0-0.1,0.1-0.1l0.1-0.3c0.1,0,0.1,0,0.2-0.1c0,0,0,0,0,0c0,0,0,0,0,0l1.2-0.7L168.7,26.3z
		 M167,26.2L167,26.2l-0.1-0.1L167,26.2z M162.7,22l-0.7-0.7l0.1,0l1.4-0.2l0.6,0.1L162.7,22z M161.2,22l0.9,0.9c0,0,0,0,0,0
		c0.1,0.1,0.1,0.2,0.2,0.2l3.7,3.6l1.4,1.5c0,0.1,0.1,0.1,0.1,0.2c0,0,0.1,0.1,0.1,0.1l2.6,2.8l3.8,5.3l1.7,3.1l0.1,0.2
		c0,0.1,0.1,0.1,0.1,0.1l1,1.7l-2.6,1.6l-5-4.7l-4.2-4.6l-3.6-5.3l-3-5.1L161.2,22z M173.1,48.5l-0.1,1.3l-0.4-1.5l-0.8-2.6
		l-2.2-4.8l-0.8-1.4l4.9,4.6L173.1,48.5z M157.5,23.9l3.1,5.2l0.1,0.2l-2.9-2.3l-1.9-1.1l-2-0.7l-1.2-0.3L157.5,23.9z M181,68.6
		L181,68.6l0.7-0.5v0.1L181,68.6z M183.2,29.3l1.5,2.5l1.3,2.7l1.1,2.5l0.9,2.7l0.7,2.7l0.4,2.5l0,0.6l-0.3-2.4l-0.7-2.8l-0.9-2.6
		l-0.9-2.8l-1.3-2.6l-2.8-5L183.2,29.3z M181.5,26.8l-1.3-1.8l-1.9-2.2l-1.6-1.6l0.3-0.2l1,1.3c0,0,0,0,0,0c0,0,0,0,0,0l1.8,2.2
		L181.5,26.8z M164.1,13.3c0-0.1-0.1-0.1-0.1-0.1l0,0c0.1-0.1,0.1-0.2,0.1-0.3l0,0c0,0,0,0,0-0.1c0,0,0,0,0,0c0,0,0,0,0,0
		c0,0,0,0,0,0l0.1-0.3l0.2-0.2l11.4,6.6l-0.3,0.3c-0.1,0.1-0.1,0.2-0.1,0.4v0.2l0,0c0,0-0.1,0.1-0.1,0.2L164.1,13.3z M177.5,19.7
		c0-0.1-0.1-0.1-0.1-0.2v0l2.7,1.6L177.5,19.7z M185.8,22.1l-0.6,0.3l-0.9,0.2l-0.8,0l-1-0.2l-0.4-0.2v-0.1l0.2,0.1c0,0,0,0,0,0
		c0,0,0,0,0,0l0.9,0.2c0,0,0.1,0,0.1,0c0,0,0.1,0,0.1,0l2-0.4c0,0,0.1,0,0.1,0l0.6-0.3L185.8,22.1z M159.7,7l0.5-0.4l0.7-0.3
		l0.8-0.2l1,0l0.8,0.2l0.9,0.4L185.8,19l0.4,0.4l0.3,0.4v0v0.2l-0.2,0.3l-0.4,0.3l-0.7,0.3l-1.8,0.3l-0.7-0.1L159.6,8l-0.2-0.3
		L159.7,7z M161,10l2.8,1.5l-0.1,0.1c0,0,0,0,0,0L161,10z M152.2,20.3l0.9-1.6l1.1-1.4l1.2-1.2l1-0.7c0,0,0.1,0,0.1,0L157,15l1-0.5
		l1.6-0.4l1.7,0l1.8,0.2c0,0,0,0,0,0c0,0,0,0,0,0h0.2c0.1,0,0.2-0.1,0.3-0.1l11.5,6.5V21c0,0.2,0.1,0.3,0.3,0.4c0,0,0,0,0,0
		c0,0,0,0,0,0.1l2,2l1.8,2.2l1.6,2.2L184,33l1.3,2.5l0.9,2.8l0.9,2.5l0.7,2.7l0.4,2.5l0.2,2.4l0,2.3l-0.2,2.1l-0.5,2.1l-0.7,1.8
		l-0.7,1.6l-6.1,9.4l-3.9-2.2c0,0,0,0,0,0c0,0,0-0.1,0-0.1c0,0,0-0.1-0.1-0.1c0,0,0,0-0.1-0.1c0,0,0,0,0,0l-0.1-0.1l1.9-1.1
		c0,0,0,0,0,0c0,0,0.1,0,0.1-0.1c0,0,0,0,0-0.1c0,0,0-0.1,0-0.1c0,0,0,0,0-0.1c0,0,0,0,0,0l0.6-3.1l0.4-3.3l1.9-1.1
		c0.1,0,0.1-0.1,0.2-0.1c0,0,0,0,0,0l2.9-4l0,0l0,0c0,0,0,0,0,0c0,0,0,0,0-0.1c0,0,0,0,0-0.1c0,0,0,0,0,0c0,0,0-0.1,0-0.1
		c0,0,0,0,0-0.1c0,0,0,0,0,0c0,0,0-0.1,0-0.1c0,0,0,0,0,0c0,0,0,0,0,0c0,0,0,0,0,0c0,0,0,0,0,0l-0.8-0.9l0.3-1.5l0.2-2.1l0-2.1
		l-0.2-2.1l-0.6-2.4l-0.6-2.3l-0.9-2.2l-1.1-2.2l-1.3-2.2l-1.3-2.1l-1.7-2l-1.5-1.7l-1.7-1.5v-1.6v-0.6c0,0,0,0,0-0.1
		c0,0,0-0.1,0-0.1c0,0,0-0.1,0-0.1c0,0,0-0.1-0.1-0.1c0,0,0,0-0.1-0.1c0,0,0,0-0.1,0l-5.7-3.3c0,0,0,0,0,0c0,0-0.1,0-0.1,0
		c0,0-0.1,0-0.1,0c0,0,0,0,0,0c0,0,0,0-0.1,0c0,0-0.1,0-0.1,0c0,0-0.1,0-0.1,0c0,0-0.1,0-0.1,0.1c0,0,0,0-0.1,0.1c0,0,0,0,0,0
		c0,0,0,0,0,0c0,0,0,0.1,0,0.1c0,0,0,0.1,0,0.1c0,0,0,0,0,0v0.3l0,0c0,0-0.1,0.1-0.1,0.1l-0.1,0.3l-0.1,0.1c0,0-0.1,0.1-0.1,0.1
		l-0.1,0.3l-0.2,0.2l-0.3,0l-1.7-0.2c0,0-0.1,0-0.1,0l-1.5,0.2l-1.3,0.4c-0.1,0-0.1,0.1-0.2,0.1l-2.4-0.1l-3.9,0.2c0,0,0,0,0,0
		c0,0,0,0,0,0l-2.2,0.3L152.2,20.3z M144.9,23.3l5.2-0.9l4-0.5l3.8-0.2l1.6,0.1l-2,1.1l-5.2,0.9l-4,0.4h0h0l-3.8,0.2h-1.3
		L144.9,23.3z M125.8,51l-0.1-0.1c0,0-0.1-0.1-0.1-0.1l-1.1-1.1l2.1-1.3l0,0l0.5,0.5c0,0,0.1,0.1,0.1,0.1l0.2,0.1l0.1,0.2
		c0,0,0.1,0.1,0.1,0.1l0.4,0.4L125.8,51z M123.6,49.1L68.4,17.3l2.1-1.3l55.1,31.8L123.6,49.1z M69.2,15.6c0,0,0.1,0,0.1,0l-1.9,1.1
		c0,0,0,0,0,0l-0.4-0.2c-0.1,0-0.1,0-0.2-0.1l1.7-0.9c0,0,0,0,0,0c0,0,0,0,0.1,0c0,0,0,0,0,0l0.2,0L69.2,15.6z M57.9,20.9l2.3-1.4
		l2.5-1.3l2.5-0.9h0.8l0.3,0.1c0.1,0,0.1,0.1,0.2,0.1l0.3,0.1l0.1,0.1c0,0,0,0,0.1,0c0,0,0,0,0,0l56.2,32.3l0.1,0.1
		c0,0,0.1,0.1,0.1,0.1l0.3,0.1l1,1l0.1,0.3c0,0,0.1,0.1,0.1,0.1l0.2,0.2l2.7,4l2.5,4l2.2,4.2l2.2,4.4l0.6,1.2l0,0l-0.9-0.7
		c0,0,0,0-0.1,0l0,0l-0.7-1.1c0-0.1-0.1-0.1-0.1-0.1l-0.5-0.3l-0.4-0.4c-0.1-0.1-0.1-0.1-0.2-0.1l-0.6-0.2c-0.1,0-0.1,0-0.2,0H131
		c0,0,0,0,0,0c0,0,0,0,0,0c0,0,0,0,0,0c0,0-0.1,0-0.1,0c0,0,0,0-0.1,0c0,0,0,0,0,0l-1.8,0.8l-0.6-0.5l-1-1.4l-0.5-0.9l-0.9-2.1
		l-1.3-2l-2.6-3.7l-1.5-1.5l-3.2-2.8l-1.7-1.1c0,0,0,0,0,0c0,0,0,0,0,0c0,0,0,0,0,0l-9.8-5.6l-4.7-3.6l-5.4-3.3l-5.4-2.8L85.1,34
		c-0.1,0-0.1,0-0.2,0h-0.1l-8.8-5.1c0,0,0,0,0,0c0,0,0,0,0,0l-1.7-1l-1.5-0.6L71,26.9c0,0-0.1,0-0.1,0l-1.5,0L68,27.1l-1.4,0.4
		l-0.7,0.4L65.8,28l-0.3,0.1c0,0-0.1,0-0.1,0.1l-0.2,0.1l-0.5,0.2c-0.1,0.1-0.2,0.2-0.3,0.3l-0.2,0.1l-0.8,0.6h-0.3l-0.6-0.2
		l-0.6-0.3l-0.7-0.5l-0.6-0.7l-0.7-0.7L59.1,26l-0.6-0.6c0,0-0.1-0.1-0.1-0.1l-0.4-0.6c0,0,0,0,0,0c0,0,0,0,0,0l-0.4-0.6l-0.9-0.9
		c-0.1-0.1-0.1-0.1-0.2-0.1l-0.8-0.3L57.9,20.9z M133,127.7l0.5,0.1l0.6,0.4l0.8,1l0.3,0.5c0,0.1,0.1,0.1,0.1,0.1l0.2,0.5l0.2,0.8
		l-0.1,0.5l-0.3,0.4l-0.3,0.2l-1-0.3l-0.6-0.6l-0.5-0.7l-0.5-0.8l-0.2-0.7v-0.8l0.1-0.3l0.4-0.2L133,127.7z M135.8,127.6l-2.2-1.3
		c0,0,0,0,0,0l-0.9-0.6c0,0-0.1-0.1-0.2-0.1l-1-0.2h-1.7c0,0,0,0,0,0c-0.1,0-0.1,0-0.1,0c0,0,0,0,0,0l-0.7,0.4c0,0-0.1,0.1-0.1,0.1
		l-0.6,0.6l-0.6,0.7c0,0.1-0.1,0.1-0.1,0.2l-0.2,0.9c0,0,0,0,0,0l-1.8,7.6c0,0,0,0,0,0c0,0,0-0.1,0-0.1c0,0,0,0,0,0l-0.1-0.3v-0.4
		c0-0.1,0-0.2-0.1-0.2l-0.4-0.7c0,0-0.1-0.1-0.1-0.1l-0.3-0.3l-0.1-0.3c0,0-0.1-0.1-0.1-0.1l-0.4-0.4c0,0-0.1-0.1-0.1-0.1l-0.4-0.2
		l-6.4-3.8l0,0l0,0c0,0,0,0,0,0c0,0,0,0-0.1,0c0,0,0,0,0,0c0,0,0,0,0,0c0,0-0.1,0-0.1,0c0,0-0.1,0-0.1,0c0,0,0,0,0,0l-3.2,0.7h-3.3
		c0,0,0,0,0,0c0,0-0.1,0-0.1,0c0,0-0.1,0-0.1,0c0,0,0,0,0,0l-3.5,2l0.4-1.1l0.6-3.2l0.4-3.5v-7.1l1.8-5.3l0.6-2.3l2.1,2.9
		c0,0,0,0,0,0c0,0,0,0,0,0l0.4,0.4c0,0,0,0,0,0c0,0,0,0,0,0l0.6,0.4c0,0,0,0,0,0c0.1,0,0.2,0.1,0.2,0.1h0.9c0.1,0,0.2,0,0.2-0.1
		l0.3-0.1h0.2c0,0,0,0,0,0c0,0,0,0,0,0c0,0,0,0,0,0c0.1,0,0.2,0,0.2-0.1c0,0,0,0,0,0l2.8-1.7c0,0,0,0,0,0c0,0,0.1,0,0.1-0.1
		c0,0,0-0.1,0.1-0.1c0,0,0-0.1,0-0.1c0,0,0-0.1,0-0.1c0,0,0,0,0-0.1v-1.4c0,0,0.1,0,0.1,0c0,0,0,0,0,0l0.9-0.6c0,0,0,0,0,0
		c0,0,0.1,0,0.1-0.1c0,0,0,0,0-0.1c0,0,0-0.1,0-0.1c0,0,0-0.1,0-0.1c0,0,0,0,0-0.1V102v0v0c0,0,0,0,0,0c0,0,0-0.1,0-0.1
		c0,0,0,0,0-0.1c0,0,0,0,0,0c0,0,0,0,0,0c0,0,0,0,0,0l-3.7-6.3l-0.7-0.8l17.9,10.2c0,0,0,0,0,0c0.1,0,0.1,0.1,0.2,0.1c0,0,0,0,0,0
		c0.1,0,0.1,0,0.2-0.1c0,0,0,0,0,0c0.1,0,0.1-0.1,0.1-0.1c0,0,0,0,0,0c0,0,0,0,0,0c0,0,0-0.1,0-0.1c0,0,0-0.1,0-0.1c0,0,0,0,0,0
		l-0.1-1c0.1-0.2,0.1-0.4,0-0.5l-0.1-1.8l-0.4-3.5l-0.6-3.5l-0.9-3.7l-1.1-3.7l-0.3-1.2l0.8-0.5c0,0,0,0,0,0c0,0,0,0,0,0l6.1-3.9
		c0,0,0,0,0,0c0,0,0,0,0,0l0.6-0.6c0.1-0.1,0.1-0.2,0.1-0.4V80l2.5,7.2v13.7c0,0,0,0,0,0c0,0,0,0,0,0c0,0,0,0.1,0,0.1
		c0,0,0,0.1,0,0.1c0,0,0,0,0,0c0,0,0,0,0,0c0,0,0,0,0,0c0,0,0,0.1,0.1,0.1c0,0,0,0,0,0l0,0l0.9,0.9l1,2.1l0.3,1l0.2,1l-0.2,0.8
		l-0.3,0.6l-0.4,0.4l-0.2,0.1c-0.1,0-0.2,0.1-0.3,0.1l-0.7-0.1c0,0,0,0-0.1,0c0,0,0,0,0,0c0,0,0,0,0,0c0,0-0.1,0-0.1,0
		c0,0,0,0-0.1,0c0,0-0.1,0-0.1,0.1c0,0,0,0-0.1,0.1c0,0,0,0.1-0.1,0.1c0,0,0,0.1,0,0.1c0,0,0,0,0,0c0,0,0,0,0,0c0,0,0,0,0,0v16.2
		c0,0,0,0,0,0s0,0,0,0v1l-0.3,1l-0.5,0.8l-0.6,0.5l-0.8,0.3h-0.7L135.8,127.6z M127.4,137.9l0.5-0.2l0.3-0.1h0.5l0,0l-1.7,1.1
		l0.1-0.3l0,0c0,0,0,0,0,0c0,0,0,0,0,0c0,0,0,0,0-0.1c0,0,0,0,0-0.1c0,0,0,0,0,0c0,0,0,0,0,0l0-0.1L127.4,137.9z M123.3,133.8
		L123.3,133.8l0.3,0.3l0.1,0.3c0,0,0.1,0.1,0.1,0.1l0.3,0.3l0.3,0.6v0.4c0,0.1,0,0.1,0,0.2l-2.7,1.5l-0.1-0.1l-0.2-0.6l-0.4-0.7
		c0,0-0.1-0.1-0.1-0.1l-0.5-0.5L123.3,133.8z M121.9,138.5l2.7-1.5v2.8v0.5v0v3.1v0v0.1l-2.7,1.5V138.5z M125.9,142.5l-0.3,0.2v-2
		l0.3-0.2V142.5z M125.9,139.4l-0.1,0.1v-0.1L125.9,139.4c0-0.1,0-0.2,0-0.2V139.4z M128.8,140.7l-1.9,1.2v-1.9l1.9-1.2V140.7z
		 M126.3,137.6C126.3,137.6,126.3,137.6,126.3,137.6l-0.1,0.1l0,0l1.4-5.8L126.3,137.6z M106,133.1C106,133.1,106,133.1,106,133.1
		l4.3-2.5h2.4l0.8,0l0.1,0l-8.4,4.8L106,133.1z M112.3,100.8l0.9-5.3l0.3-0.2l2.8,4.1l1.6,3v5.6c0,0,0,0,0,0l-1.2-0.3l-1.9-2.8
		l-1.4-1.7c0-0.1,0-0.2-0.1-0.3c-0.1-0.1-0.2-0.2-0.4-0.2l-0.6-0.7l-0.3-0.5L112.3,100.8z M116.3,93.8l16.7,9.6l0,0.1l-16.9-9.6
		L116.3,93.8z M106.7,79.8l-3.4-2.1l-3.9-2.2l-4.2-2l-4.3-1.8l-2.5-3.4l-2.6-3.1l-2.8-3l-2.9-2.7l-2.8-2.8l-3.1-2.2l-3-2.2l-3-1.9
		l-1.5-0.8l7.5-3.1l0.2-0.1l45.1,26L106.7,79.8z M59.1,46.2l0.6-1.3l1.2-0.7c0,0,0,0,0,0c0,0,0,0,0,0C61,44.1,61,44,61.1,44
		c0,0,0,0,0,0l0.2-0.5l1.4-2.1l0.6-0.6l0.3-0.5l0.1-0.1l6,3.5l-5.7,1.7l-3.6,1.4L59.1,46.2z M56.1,45.5l-1.5-0.3l6.8-3.9L60.4,43
		c0,0,0,0.1-0.1,0.1l-0.1,0.4l-1,0.6L59,44.2l-1,0.6c-0.1,0-0.2,0.1-0.3,0.2l-1.1,0.7L56.1,45.5z M45.8,45.1l14.3-8.2c0,0,0,0,0,0
		c0,0,0,0,0,0l0,0c0,0,0,0,0,0s0,0,0,0l2.9-1.7v4.2l-9.9,5.7l0,0l-2.8-0.2l-2.6,0.2l-2,0.3C45.8,45.2,45.8,45.1,45.8,45.1z
		 M52.6,38.1H52l-0.4-0.1c0,0,0,0,0,0c0.3,0,0.5-0.2,0.5-0.5v-0.2c0,0,0,0,0,0c0-0.1,0-0.1,0-0.2c0-0.1-0.1-0.1-0.1-0.2c0,0,0,0,0,0
		l-1-1v-0.2c0,0,0,0,0,0c0,0,0-0.1,0-0.1c0,0,0-0.1,0-0.1c0,0,0,0,0,0c0,0,0,0,0,0c0,0,0,0,0-0.1l0,0l0.2-0.2c0,0,0,0,0,0
		c0.1,0,0.3-0.1,0.3-0.1l0.2,0c0.1,0,0.3-0.1,0.4-0.1l0,0c0.1,0,0.2-0.1,0.3-0.1l0.2-0.2c0,0,0,0,0,0c0,0,0.1-0.1,0.1-0.1
		c0,0,0-0.1,0-0.2c0,0,0,0,0,0v0V34c0-0.1-0.1-0.3-0.1-0.4l0,0c0-0.1-0.1-0.2-0.1-0.3l0,0c0-0.1-0.1-0.2-0.1-0.3l0,0
		c0,0,0-0.1,0-0.1c0,0,0-0.1,0-0.1c0,0,0-0.1-0.1-0.1c0,0,0,0,0,0c0,0,0,0,0,0c0,0-0.1-0.1-0.2-0.1c0,0-0.1,0-0.1,0c0,0-0.1,0-0.1,0
		c0,0,0,0,0,0c0,0-0.1,0-0.1,0c0,0-0.1,0.1-0.1,0.1c0,0,0,0,0,0l-0.2,0c-0.1,0-0.3,0.1-0.4,0.1l-0.4,0c-0.1,0-0.2,0-0.3,0.1
		c0,0-0.1,0-0.1-0.1c-0.1,0-0.1,0-0.2,0h-0.1c0-0.1-0.1-0.2-0.2-0.3c0,0,0-0.1-0.1-0.1l0,0v-0.2c0,0,0,0,0,0c0,0,0-0.1,0-0.1
		c0,0,0-0.1,0-0.1c0,0,0,0,0,0c0,0,0,0,0,0c0,0,0,0,0-0.1l0-1.1c0-0.3-0.2-0.5-0.5-0.5h-0.7c-0.2,0-0.3,0.1-0.4,0.2c0,0,0,0,0,0
		c0,0,0,0-0.1,0c0,0,0,0-0.1,0.1c0,0,0,0,0,0l0.2-0.5l0.4-0.7l0.5-0.3h0.7l0.6,0.2l1,0.5l1.5,1.5l0.7,1l0.5,1.2l0.3,1v2l-0.3,0.7
		l-0.4,0.4l-0.4,0.2L52.6,38.1z M49,34l-0.2,0.1L48,34.7c0-0.1,0-0.1-0.1-0.2L49,34z M47.1,31.6l0.1-0.6v1c0,0.1,0.1,0.3,0.1,0.4
		l0,0.4v0.7c0,0,0-0.1-0.1-0.1l0-0.4c0-0.2-0.1-0.3-0.2-0.4L47.1,31.6L47.1,31.6z M47.9,36.5C47.9,36.6,47.9,36.6,47.9,36.5l0.2,0.3
		c0,0,0.1,0.1,0.1,0.1c0,0.1,0.1,0.1,0.2,0.2c0,0,0,0.1,0.1,0.1l0.2,0.2c0,0,0.1,0.1,0.1,0.1c0,0.1,0.1,0.1,0.2,0.2
		c0,0.1,0.1,0.1,0.2,0.2c0.1,0.1,0.2,0.2,0.4,0.2l0.2,0.2c0.1,0.1,0.2,0.1,0.3,0.1l1.3,2.4l-3.5,2V36.5z M57.5,25.7l5.3,8.4L60,35.8
		l-5.3-8.5L57.5,25.7z M64.2,46.3l6.6-2l2.5,1.4l-7.7,3.2L65,48.7l-3-1.3l-0.3-0.1L64.2,46.3z M75,45.6c-0.1-0.2-0.3-0.3-0.5-0.3
		l-3.3-1.9l-0.1-0.1l-7-4.1v-5c0,0,0,0,0,0c0,0,0,0,0,0c0,0,0,0,0-0.1c0,0,0-0.1,0-0.1c0,0,0,0,0,0c0,0,0,0,0,0c0,0,0,0,0,0
		l-1.9-2.9h0.3c0.1,0,0.1,0,0.2,0l0.5-0.2c0,0,0.1,0,0.1-0.1l0.6-0.4c0,0,0,0,0,0c0,0,0,0,0,0l0.9-0.7l0.8-0.6l0.5-0.2l0.8-0.2
		l1.4-0.2l1.3,0.2l1.4,0.4l1.6,0.5l1.6,0.7L114,53.2l1.5,1.1l1.6,1l1.4,1.4l2.9,3.2l1.3,2l1.1,1.8l1.1,2l0.4,1l0.6,0.9
		c0,0,0,0.1,0.1,0.1l0.8,0.8l0,0l-1.8,0.8c0,0,0,0,0,0c0,0,0,0,0,0l-3.7,2c0,0,0,0,0,0c0,0,0,0,0,0l-0.7,0.4L75,45.6z M93.5,40.1
		l0.2,0.1l1.9,1.1c0.1,0.1,0.2,0.2,0.3,0.2l9.2,5.3l0.7,0.5c0.1,0.1,0.2,0.1,0.3,0.1h0.1l8.1,4.7l-0.2,0.1L75.6,29.9l0,0L93.5,40.1z
		 M136.6,72.5l0.5,0.8l0.5,1.2l-0.2,0.1l-0.3-0.8l-0.8-1.3l-0.6-0.7c0,0-0.1-0.1-0.1-0.1l-0.2-0.4l0.2,0.2L136.6,72.5z M141.8,100.1
		l-0.1,0.1V87.4l0.1-0.1V100.1z M141.5,86.4l-3.7-10.8l0.2-0.1l0.2,0.4l3.5,10.3L141.5,86.4z M128.1,82.3
		C128.1,82.3,128.1,82.3,128.1,82.3l-0.3-0.1l-0.1-0.1c0,0-0.1-0.1-0.1-0.1l-0.2-0.1l-0.1-0.2c0,0,0,0-0.1-0.1c0,0,0.1,0,0.1,0
		l0.2,0.2c0.1,0.1,0.2,0.1,0.3,0.1l0.2,0.2c0.1,0.1,0.2,0.1,0.3,0.1l0,0c0,0,0.1,0.1,0.1,0.1l0.4,0.2c0,0,0,0,0,0c0.1,0,0.1,0,0.2,0
		c0,0,0,0,0,0c0,0,0,0,0,0c0,0,0,0,0,0c0,0,0,0,0,0c0.1,0,0.2,0,0.2-0.1c0,0,0,0,0,0c0,0,0,0,0,0c0,0,0,0,0,0c0,0,0.1,0,0.1-0.1l0,0
		c0.1,0,0.1-0.1,0.2-0.2c0.1-0.1,0.2-0.2,0.2-0.4l0,0c0,0,0,0,0,0c0,0,0,0,0,0c0,0,0,0,0-0.1c0,0,0.1-0.1,0.1-0.1c0,0,0,0,0,0
		c0,0,0-0.1,0-0.2c0-0.1,0-0.1,0-0.2c0,0,0,0,0,0c0,0,0-0.1-0.1-0.1c0,0,0,0,0-0.1c0,0,0,0,0,0s0,0,0,0l-0.2-0.2
		c-0.1-0.1-0.2-0.1-0.4-0.1h-0.2l-0.8-0.8c0,0,0,0-0.1,0c0,0,0,0,0,0c0,0,0-0.1-0.1-0.1l0,0c0-0.1,0-0.2-0.1-0.3c0,0,0,0,0,0
		c0,0,0,0,0-0.1c0-0.1,0-0.1,0-0.2c0,0,0,0,0,0v-0.2l0.2-0.2c0,0,0.1-0.1,0.1-0.1c0,0,0.1,0,0.1-0.1l0.4-0.4c0,0,0.1-0.1,0.1-0.1
		c0,0,0,0,0,0c0,0,0.1-0.1,0.1-0.1c0,0,0,0,0-0.1c0-0.1,0.1-0.1,0.1-0.2v-0.2c0-0.1-0.1-0.3-0.1-0.4l-0.2-0.2c0-0.1-0.1-0.2-0.1-0.3
		l-0.6-0.6c0,0,0,0,0,0c0,0-0.1-0.1-0.1-0.1c0,0-0.1,0-0.1,0c0,0,0,0-0.1,0c-0.1,0-0.1,0-0.2,0c0,0,0,0,0,0c0,0-0.1,0-0.1,0.1
		c0,0,0,0,0,0c0,0,0,0,0,0c0,0,0,0.1-0.1,0.1c0,0,0,0,0,0.1c0,0,0,0,0,0c-0.1,0-0.2,0.1-0.2,0.1l-0.6,0.6h-0.2c-0.1,0-0.1,0-0.1,0
		c0-0.1-0.1-0.1-0.1-0.1c0,0,0,0,0,0c0-0.1-0.1-0.1-0.2-0.2l-0.1-0.2v-0.2c0-0.1-0.1-0.3-0.1-0.4l0-0.2c0-0.1-0.1-0.3-0.1-0.4
		l-0.2-0.2c0,0,0,0,0,0s0,0,0,0l0,0c0,0,0,0,0,0c-0.1-0.1-0.4-0.2-0.5-0.1c0,0,0,0,0,0c0,0-0.1,0-0.1,0.1l-0.1,0.1l0.1-0.4l0.6-0.8
		l0.4-0.2h0.7l0.6,0.2l1,0.5l0.8,0.7l0.7,0.9l0.7,1l0.5,1.2l0.3,1l0.2,1.2l-0.3,1.6l-0.4,0.4l-0.6,0.3h-0.7l-0.6-0.2L128.1,82.3z
		 M134.2,70.8l2.7,6.6l-2.8,1.5l-2.7-6.6L134.2,70.8z M126.6,79.9l-0.4,0.3c-0.1,0-0.1,0-0.1,0c0,0,0,0-0.1-0.1L126.6,79.9z
		 M126.7,81.3L126.7,81.3L126.7,81.3C126.8,81.3,126.8,81.3,126.7,81.3L126.7,81.3z M134.7,80.5l-0.2-0.7l2.8-1.5l0,0l0.1,0.3v0.7
		l-0.1,0.3c0,0.1-0.1,0.1-0.1,0.2v0.2l-0.4,0.4l-2.1,1.2v-0.8C134.8,80.7,134.8,80.6,134.7,80.5z M133.8,69.8l-2.7,1.5
		c0,0,0-0.1-0.1-0.1l-0.6-0.8l-0.9-0.9c0,0-0.1-0.1-0.1-0.1l-0.4-0.2l-0.1,0l2.3-1.4h0.7l0.4,0.1l0.4,0.3l0.5,0.3l0.6,1L133.8,69.8z
		 M127.7,68.2l-0.4-0.3l-0.7-0.7l-0.5-0.8l-0.2-0.5l0.3-0.1l0.3,0.6l1.1,1.5c0,0,0.1,0.1,0.1,0.1l0.2,0.2L127.7,68.2z M125.5,65
		l-0.9-1.6l-1.1-1.8l-1.3-2.1l-3-3.3l-1.5-1.5l-1.6-1.1l-0.9-0.7l0.2-0.2l1.3,0.9l3.1,2.7l1.4,1.4l2.6,3.7l1.3,2l0.7,1.6L125.5,65z
		 M74.6,29.3l-1.5-0.7l-1.7-0.6l1,0.2l1.4,0.5L74.6,29.3L74.6,29.3z M127.4,70l0.4-0.1l0.7,0.3l0.3,0.1l0.8,0.8l0.5,0.7l0.2,0.5
		c0,0,0,0,0,0c0,0,0,0,0,0L131,74l-0.6-0.6c0,0-0.1-0.1-0.1-0.1l-1.8-1.1c-0.1,0-0.2-0.1-0.3-0.1h-1.7c0,0,0,0,0,0h-0.2
		c-0.1,0-0.3,0.1-0.4,0.1l-0.3,0.3l-0.4,0.1c0,0,0,0,0,0c0,0-0.1,0-0.1,0.1c0,0-0.1,0-0.1,0.1c0,0,0,0,0,0l-0.8,0.8l-0.4,0.6
		c-0.1,0.1-0.1,0.2-0.1,0.4l-0.2,0.5c0,0.1,0,0.1,0,0.2v0.1l-1.6-3.1L127.4,70z M127,82.8l0.1,0.1c0,0,0.1,0.1,0.1,0.1l0.4,0.2
		c0,0,0,0,0,0l0.7,0.4c0,0,0.1,0,0.1,0l0.7,0.2c0,0,0.1,0,0.1,0c0,0,0,0,0,0h0h0.1l0.3,0.1c0.1,0,0.1,0.1,0.2,0.1c0,0,0.1,0,0.1,0
		l0.8-0.2l0.6-0.2c0,0,0,0,0,0c0,0,0,0,0,0l0.4-0.2c0.1,0,0.1-0.1,0.2-0.1c0.2,0,0.3-0.1,0.4-0.2l0.5-0.7l0,0c0,0,0,0,0,0l0.1-0.1
		l0.4-0.7c0,0,0-0.1,0-0.1l0.3-1.3l0.2,0.7v1l0,0c0,0-0.1,0.1-0.1,0.1l-0.1,0.3l-0.1,0.1l-5.6,3.6l-0.9-3.3l0,0L127,82.8z
		 M127.7,87.2C127.7,87.2,127.7,87.2,127.7,87.2C127.7,87.2,127.7,87.2,127.7,87.2l2-1.2l0.2,0.9l1.1,3.7l0.9,3.6l0.5,3.5l0.4,3.5
		l0.1,1.1l-15.6-9L127.7,87.2z M115.2,111.8H115c-0.1,0-0.2,0-0.2,0.1l-0.3,0.1h-0.6l-0.2-0.2l-2.8-3.8l0.3,0.2c0,0,0,0,0,0
		c0.1,0,0.1,0,0.2,0c0,0,0,0,0,0c0,0,0,0,0,0c0,0,0,0,0,0c0,0,0,0,0,0c0,0,0,0,0,0c0,0,0,0,0,0c0.1,0,0.1,0,0.2,0c0,0,0,0,0,0
		l1.5-0.7c0,0,0,0,0.1,0c0,0,0.1,0,0.1-0.1c0,0,0-0.1,0.1-0.1c0,0,0-0.1,0-0.1c0,0,0-0.1,0-0.1c0,0,0,0,0-0.1v-0.9c0,0,0,0,0,0
		c0,0,0,0,0,0c0,0,0-0.1,0-0.1c0,0,0,0,0-0.1c0,0,0,0,0,0c0,0,0,0,0,0c0,0,0,0,0-0.1c0,0,0,0,0-0.1c0,0,0,0,0,0c0,0,0,0,0,0l0,0
		c0,0,0-0.1-0.1-0.1l-0.2-0.2c-0.1-0.1-0.2-0.1-0.4-0.1h-0.2c0,0,0,0-0.1,0c0,0-0.1,0-0.1,0c0,0-0.1,0-0.1,0c0,0-0.1,0-0.1,0.1
		c0,0,0,0,0,0l-0.5,0.5l-0.5,0.2l0.1-0.2l0.2-0.1c0,0,0.1-0.1,0.1-0.1l0.1-0.2l0.4-0.1c0,0,0,0,0,0c0,0,0,0,0,0c0,0,0,0,0,0l1.2-0.7
		l0.9,1.1l2,2.9c0,0,0,0,0,0c0,0,0.1,0.1,0.1,0.1c0,0,0,0,0.1,0c0,0,0,0,0.1,0l1.3,0.3v1.3L115.2,111.8z M115.3,96l0.5,0.9L115.3,96
		l-0.3-0.4L115.3,96z M111.8,102.9l0.3,0.3l-0.4,0.2L111.8,102.9z M141.7,109.2l0.1,0v14.5l-0.1,0.1V109.2z M141.7,125.1l0.1-0.1
		v0.3l-0.1,0.3V125.1z M144.3,106.1l-0.2-1.2l-0.4-1.2l-1.1-2.2c0,0-0.1-0.1-0.1-0.1l-0.4-0.4l0.2-0.1l0.6,0.5l0.7,1l0.5,1l0.3,2
		L144.3,106.1z M143.7,100.8c0,0-0.1-0.1-0.1-0.1l-0.7-0.6V89.9l0.1,0.5l1.8,8.4l0.5,6.1l-0.3-1.7c0,0,0-0.1,0-0.1l-0.6-1.2
		L143.7,100.8z M54.8,23.8l0.2-0.1h0.2l0.9,0.3l0.8,0.8l0.1,0.1l-2.8,1.5L54,26.2l-0.4-0.4l-1-0.7L54.8,23.8z M50.9,26.1l0.2-0.2H52
		l0.9,0.6l0.3,0.3l0.4,0.6l0,0l5.6,8.9l-6.9,4l-0.6-1.2l0.3,0.1c0,0,0.1,0,0.1,0c0,0,0,0,0,0h0h0.7h0.2c0.1,0,0.2,0,0.3-0.1l0,0
		l0.4-0.1c0,0,0,0,0.1,0c0.1,0,0.1,0,0.2,0c0.1,0,0.2,0,0.3-0.1l0.5-0.4l0.3-0.2c0.1,0,0.1-0.1,0.2-0.1l0.6-0.8l0.4-0.7
		c0-0.1,0.1-0.1,0.1-0.2l0-2.3L56,33c0,0,0-0.1,0-0.1l-1.1-2.2c0,0,0-0.1-0.1-0.1l-0.8-1l-1-1L52.1,28c0,0-0.1-0.1-0.1-0.1l-0.9-0.4
		c-0.1,0-0.1,0-0.2,0h-0.9h-0.1L50.9,26.1z M46.2,41.5l0.7-2.4v4.2L46,43.9L46.2,41.5z M24.3,60.1l0.9,0l2.7,0.2l2.7,0.4l2.9,0.7
		l2.9,0.9l2.9,1.3l2.9,1.4l2.9,1.8l2.9,2l2.9,2.2l2.9,2.6l2.7,2.5l2.7,2.9l2.7,3.1l2.5,3.1l2.4,3.5l2.8,4.4l-4.5-6.6l-2.4-3.2
		l-5.4-6.1l-5.7-5.4l-3-2.4l-3-2l-3-1.8l-3-1.7l-3-1.3l-6-1.9l-2.8-0.4l-2.8-0.2l-2,0L24.3,60.1z M78.4,153.2l-0.4,0.6l-1.1,1.6
		l-1.6,1.8l-0.6,0.5l1-1l1.7-2.1l1.3-2.2l1.3-2.5l0.9-2.8l0.7-2.8l0.6-3.2l0.4-3.2l0-6.8l-0.4-3.7l-0.6-3.7l-0.7-3.7l-0.9-3.9
		l-2.6-7.8l-1.7-3.7l-1.8-3.9l-1.8-3.7l-1.9-3.4l1.2,1.9l2,3.6l1.8,3.8l1.6,3.8l1.5,3.6l1.3,3.8l1.1,3.8l1.5,7.5l0.7,7.1l0,3.4
		l-0.7,6.4l-1.4,5.6l-1.1,2.5L78.4,153.2z M46.1,157l0.6,0.2c0.1,0,0.1,0,0.2,0h0.1l3.5,1.3l2.8,0.7l2.6,0.6l2.8,0.2l2.6,0l2.5-0.4
		l2.2-0.7l2.3-0.9l2.1-1.2l1.9-1.5l1.7-1.9l1.5-2.1l1.3-2.2l1.1-2.4l0.9-2.6l0.7-3l0.4-3l0.2-3.3l0-3.3l-0.2-3.3l-0.4-3.7l-0.7-3.5
		l-0.9-3.7l-1.1-3.7l-1.3-3.9l-1.5-3.7l-1.7-3.7l-1.8-3.5l-2-3.5l-2.2-3.5l0,0l0,0l0,0l-2.2-3.3l-2.4-3.1L58.9,82l-2.7-2.7l-2.6-2.8
		l-2.8-2.4l-5.7-4.3l-3-1.7l-3-1.5l-2.8-1.1l-2.8-0.9l-2.8-0.7l-2.8-0.4l-2.6,0l-2.6,0.2l-2.4,0.6L17.9,65l-2.1,1.1l-2,1.3
		c0,0-0.1,0-0.1,0.1l-1.7,1.7L10.5,71c0,0,0,0.1-0.1,0.1l-2.6,4.5l-0.9,2.6L6.1,81l-0.9,4.7L5,86.1L3.9,90c0,0,0,0.1,0,0.1v0.5
		l-0.3,1.2L3.4,89l0.2-3.4L4,82.4l0.5-3.1l0.7-2.7L6.1,74l1.3-2.4l1.2-2.1l1.6-2l1.6-1.8l1.9-1.4l2-1.1l2.2-0.9l2.3-0.7l2.5-0.4
		l2.5,0l2.7,0.2l2.7,0.3l5.8,1.8l2.9,1.3l2.9,1.6l2.9,1.8l2.9,2l2.9,2.4l5.7,5.3l5.3,6l2.4,3.1l4.8,6.9l2,3.7l1.8,3.7l1.8,3.8
		l1.6,3.6l2.6,7.7l0.9,3.8l0.7,3.6l0.5,3.7l0.4,3.6l0,6.7l-0.4,3.1l-0.5,3.1l-0.7,2.7l-0.9,2.7l-1.3,2.4l-1.2,2.1l-1.6,2l-1.8,1.8
		l-1.8,1.4l-2,1.1l-2.4,0.9l-2.3,0.7l-2.3,0.4l-2.7,0l-2.5-0.2l-2.8-0.3l-2.8-0.9l-2.9-0.9l-2.9-1.3l-2.9-1.6l-2.7-1.7l0,0l0.8,0.4
		l2.6,0.7l0.6,0.2c0.1,0,0.1,0,0.2,0h0.7L46.1,157z M57.1,158.9l2.6,0l2.6-0.2c0,0,0,0,0,0c0,0,0,0,0,0l1.7-0.3l-0.6,0.2l-2.3,0.4
		l-2.5,0l-2.7-0.2l-1-0.2L57.1,158.9z M11,72.1C11,72.1,11,72.1,11,72.1C11,72.2,11,72.2,11,72.1l-0.4,0.5l0.6-1l1.4-1.5L11,72.1z
		 M9.1,75.7l-1.1,2.6l-0.2,0.7c0,0,0,0,0,0l-0.1,0.3l-0.1,0.3l-0.2,0.4l0.4-1.6L8.7,76l1.3-2.2L9.1,75.7z M34.4,152.1l-0.5-0.3
		c0,0-0.1,0-0.1-0.1l-0.5-0.2l-0.7-0.3l-0.6-0.4c0,0-0.1,0-0.1-0.1l-0.5-0.2l-0.5-0.4l-0.7-0.3l-5.4-3.6l-0.6-0.6l-1-0.7l-1-1
		l-0.5-0.3l-1.5-1.5l-0.5-0.3l-0.3-0.5c0-0.1-0.1-0.1-0.1-0.1l-0.5-0.3l-0.4-0.5l-1.4-1.4l-0.4-0.6l-0.9-0.8l-0.8-1.2l-0.5-0.5
		l-3.6-5.5l-0.4-0.8l-0.3-0.5l-0.2-0.5c0,0,0-0.1-0.1-0.1l-0.3-0.5l-0.3-0.7l-0.2-0.6c0,0,0-0.1-0.1-0.1l-0.3-0.5l-0.2-0.6L8,125
		l-0.2-0.6c0,0,0-0.1-0.1-0.1l-0.3-0.5l-0.2-0.7c0-0.1,0-0.1-0.1-0.2l-0.3-0.5l-0.5-2L6.1,120l-0.3-0.7l-0.7-2.6l-0.2-0.5v-0.7
		c0-0.1,0-0.1,0-0.2l-0.4-1.3l-0.2-0.5V113c0,0,0-0.1,0-0.1l-0.2-0.8L4,111.7V111c0-0.1,0-0.1,0-0.2l-0.2-0.5v-0.7c0,0,0-0.1,0-0.1
		l-0.2-0.7v-1.2c0,0,0-0.1,0-0.1l-0.2-0.7v-3.8v-3.1l0.2-0.7c0,0,0-0.1,0-0.1V98l0.2-0.7c0,0,0-0.1,0-0.1v-0.7
		C3.9,96.4,4,96.3,4,96.1l-0.1-0.6l0-0.2c0,0,0-0.1,0-0.1v-0.5l0.2-0.6l0.2-0.6c0-0.1,0-0.1,0-0.2v-0.7l0.5-2c0,0,0-0.1,0-0.1v-0.5
		l1-3.7l0.4-0.8l0.4-1.3l0.2-0.5l0.4-0.8l0.3-1L8,81.2l0,0c0.2,0,0.3-0.2,0.4-0.4l0.2-0.7c0,0,0,0,0,0l0.2-0.7l0.7-1
		c0,0,0-0.1,0.1-0.1l0.2-0.5l0.3-0.7l0.7-1.1c0,0,0-0.1,0.1-0.1l0.2-0.5l1.1-1.7l0.3-0.7l1-1.6l0.5-0.3c0.1,0,0.1-0.1,0.2-0.2
		c0,0,0,0,0,0l0.2-0.3l1.6-1.7l1.6-1.4l0.9-0.6l1.4-0.6l2.2-0.7l2.3-0.5h0.7H25c0,0,0,0,0,0l2.9,0l2.3,0.2l2.5,0.5l2.5,0.7l2.7,1.1
		l2.5,1.1l2.6,1.7l2.7,1.6l2.5,1.8l2.7,2.2l2.6,2.4l2.4,2.4l2.6,2.7l2.4,2.7l2.2,2.9l2.2,3.1l0,0l0,0l2,3.3L71,102l1.5,3.5l1.5,3.3
		l1.3,3.5l1.1,3.5l0.9,3.5l0.7,3.3l0.5,3.3l0.4,6.4l0,3.1l-0.7,5.6l-0.7,2.6l-0.7,2.3l-0.9,2.1l-1.3,2c-0.1,0.1-0.1,0.2-0.1,0.4
		l-0.6,0.9l-1.6,1.8l-1.6,1.4l-1.2,0.8l-1.1,0.5l-2.2,0.7l-2.3,0.5h-0.3c-0.2,0-0.3,0.1-0.4,0.2h-0.9c0,0-0.1,0-0.1,0l-0.7,0.2h-7.8
		L53,157c0,0-0.1,0-0.1,0h-1.2l-0.7-0.2c0,0-0.1,0-0.1,0h-0.7l-0.5-0.2c-0.1,0-0.1,0-0.2,0h-0.7l-1.2-0.4c0,0-0.1,0-0.1,0h-0.5
		l-0.5-0.2c-0.1,0-0.2,0-0.3,0l-0.6-0.2l-0.6-0.2c-0.1,0-0.1,0-0.2,0h-0.7l-3-0.9l-0.8-0.4l-2.5-0.7l-0.5-0.3c0,0-0.1-0.1-0.2-0.1
		l-0.4-0.1l-0.1-0.1c-0.1-0.1-0.3-0.2-0.4-0.1l-0.2-0.1c0,0-0.1,0-0.1,0l-0.6-0.5c-0.2-0.1-0.4-0.1-0.6,0l-0.1-0.1L34.4,152.1z
		 M77.7,155.9l1.1-1.7l0.4-0.6l1.3-2.4l1.1-2.6l0.7-2.8l0.7-3l0.7-6.5l0-3.5l-0.7-7.2l-1.5-7.6l-1.1-3.9l-1.3-3.9l-1.5-3.7l-1.7-3.9
		l-1.9-3.9l-2-3.7l-4.4-7l-2.4-3.5l-2.6-3.1L60,78.3l-2.8-3l-2.8-2.6l-3-2.6l-3-2.2l-3-2l-3-1.9l-3-1.5l-3-1.3l-3-0.9l-3-0.7
		l-2.8-0.4l-2.8-0.2h-0.9c0,0,0,0,0,0c0,0,0,0,0,0l-1.7,0.2l-2.4,0.4l24.6-14.1v0.2c0,0,0,0,0,0c0,0,0,0,0,0c0,0,0,0,0,0.1
		c0,0,0,0.1,0,0.1c0,0,0,0,0,0.1c0,0,0,0.1,0.1,0.1c0,0,0,0,0.1,0c0,0,0.1,0,0.1,0.1c0,0,0,0,0.1,0c0,0,0.1,0,0.1,0c0,0,0,0,0,0
		c0,0,0,0,0,0l2.5-0.4l2.5-0.2l2.7,0.2l2.9,0.5l0.4,0.1c0.1,0.1,0.2,0.1,0.3,0.1c0,0,0,0,0.1,0l2.2,0.5l1.1,0.4
		c0.1,0.1,0.2,0.2,0.3,0.2c0,0,0,0,0.1,0l1.4,0.5l2.9,1.3l3.1,1.6l2.9,1.8l3,2.2l3.1,2.2l2.8,2.8l2.9,2.7l2.7,2.9l2.6,3.1l2.6,3.5
		c0,0,0,0,0,0c0,0,0.1,0.1,0.1,0.1c0,0,0,0,0.1,0c0,0,0,0,0,0l4.4,1.8l4.2,2l3.8,2.2l3.7,2.2c0,0,0,0,0,0c0.1,0,0.2,0.1,0.2,0.1
		c0,0,0,0,0,0c0,0,0,0,0,0s0,0,0,0c0,0,0,0,0,0c0.1,0,0.1,0,0.2-0.1c0,0,0,0,0,0l13.7-7.9l0.1-0.1l0.4-0.2l2.5,4.9v0.1
		c0,0.1,0,0.2,0.1,0.3l0.1,0.2l0,0.2c0,0.1,0.1,0.3,0.1,0.4l0,0.2c0,0.1,0.1,0.3,0.1,0.4l0,0c0,0.1,0.1,0.3,0.2,0.4
		c0,0.1,0.1,0.2,0.1,0.3l0,0c0,0,0,0,0,0c0,0,0,0,0,0c0,0,0,0.1,0,0.1c0,0,0,0,0,0l0.5,1.1l0.7,1.8l0.6,2l0.4,1.5l-10.8,6.2
		l-0.1,0.1l-2.4,1.4c0,0-0.1,0-0.1,0.1c0,0,0,0-0.1,0.1l-0.8,0.5c0,0,0,0,0,0c0,0-0.1,0.1-0.1,0.1c0,0,0,0-0.1,0.1c0,0,0,0.1,0,0.1
		c0,0,0,0.1,0,0.1c0,0,0,0,0,0l-0.9,5.5l-0.9,3.5c0,0.1-0.1,0.2-0.1,0.3c0,0,0,0,0,0l-0.4,1.5l-0.5,1.7c0,0,0,0-0.1,0.1
		c0,0.1-0.1,0.2,0,0.3l-0.9,3.3l-1.8,5.3c0,0,0,0.1,0,0.1c0,0,0,0.1,0,0.1l0,7.1l-0.4,3.5l-0.5,3.1l-1.8,5.8
		c-0.2,0.1-0.2,0.3-0.2,0.4l-1,1.9l-1.4,2.3l-1.6,2l-1.8,1.8l-2.7,1.8l-18.6,10.7L77.7,155.9z M102.2,141.4l1.5-2.4l1.1-2.1l12-6.9
		l5.4,3.3l-2.7,1.5l-1.8-1.1c0,0,0,0-0.1,0c0,0-0.1,0-0.1,0c0,0-0.1,0-0.1,0c0,0-0.1,0-0.1,0c0,0-0.1,0-0.1,0c0,0-0.1,0-0.1,0
		l-1.8,1c-0.1,0-0.3,0.1-0.4,0.2c0,0,0,0,0,0l-0.3,0.2l-0.1,0.1l-13.8,8L102.2,141.4z M113.1,140.3l-0.2,0.1l0,0c0,0,0,0,0,0
		L113.1,140.3C113,140.3,113.1,140.3,113.1,140.3z M108.6,140l-0.1-0.2c0,0,0,0,0,0l2.4-1.4v0.1v1.3c0,0.2,0.1,0.3,0.2,0.4v0.2
		c0,0.1,0.1,0.3,0.1,0.4l0,0.2c0,0.1,0.1,0.3,0.1,0.4l0,0c0,0.1,0,0.2,0.1,0.2L108.6,140z M115.3,144.5c0,0-0.1,0-0.2,0l-0.2-0.2
		c0,0-0.1-0.1-0.1-0.1l-0.3-0.1l-0.3-0.3c0,0-0.1-0.1-0.1-0.1l-0.1,0c0,0,0,0,0,0c0,0,0,0,0-0.1c0.1,0.1,0.2,0.2,0.4,0.2l0,0
		c0,0,0,0,0,0c0,0,0,0,0,0c0,0,0,0,0,0c0,0,0,0,0,0c0,0,0.1,0,0.1,0c0,0,0,0,0.1,0l0.2,0.2c0.1,0.1,0.2,0.1,0.3,0.1l0,0
		c0,0,0.1,0.1,0.1,0.1l0.4,0.2c0.1,0,0.1,0,0.2,0.1l0,0l0,0c0,0,0,0,0,0c0,0,0,0,0.1,0c0,0,0,0,0.1,0c0,0,0,0,0,0c0,0,0,0,0,0
		c0.1,0,0.1,0,0.2,0c0,0,0,0,0,0c0,0,0,0,0,0c0,0,0,0,0,0c0.1,0,0.2,0,0.2-0.1c0,0,0,0,0,0c0,0,0,0,0,0c0,0,0,0,0.1,0c0,0,0,0,0-0.1
		c0,0,0,0,0,0c0.1-0.1,0.2-0.2,0.2-0.4l0,0c0.1-0.1,0.1-0.2,0.1-0.4v-0.2c0,0,0,0,0,0c0-0.1,0-0.1,0-0.2c0-0.1-0.1-0.1-0.1-0.2
		c0,0,0,0,0,0l-0.4-0.4c-0.1-0.1-0.2-0.1-0.3-0.1l-0.2-0.2c-0.1-0.1-0.2-0.1-0.3-0.1l-0.2-0.2c0,0,0,0,0,0l0,0c0,0,0,0,0-0.1
		c0,0,0-0.1,0-0.1c0,0,0-0.1-0.1-0.1c0,0,0,0,0-0.1c0,0,0,0,0,0c0,0,0,0,0,0l0,0c0-0.1,0-0.1,0-0.2c0-0.1,0-0.1,0-0.2v-0.2
		c0.1-0.1,0.2-0.2,0.2-0.4l0.2-0.2c0.1-0.1,0.1-0.1,0.1-0.2c0.2-0.1,0.4-0.2,0.4-0.5v-0.2v-0.2c0-0.1-0.1-0.3-0.1-0.4l0,0
		c0-0.2-0.1-0.3-0.2-0.4c0,0,0,0,0,0c-0.1-0.1-0.1-0.2-0.2-0.2c-0.1-0.1-0.2-0.2-0.4-0.2l0,0c0,0,0,0,0,0c0,0-0.1-0.1-0.1-0.1
		c0,0-0.1,0-0.1,0c0,0,0,0,0,0c0,0,0,0,0,0c-0.1,0-0.2,0-0.2,0.1c0,0,0,0-0.1,0c0,0,0,0-0.1,0c0,0,0,0,0,0.1c0,0,0,0,0,0
		c0,0-0.1,0-0.1,0.1l-0.4,0.4c0,0-0.1,0.1-0.1,0.1c0,0-0.1,0-0.1,0.1l-0.2,0.2c0,0-0.1,0.1-0.1,0.1c0,0-0.1,0-0.1,0.1l0,0
		c0,0-0.1-0.1-0.1-0.1c0,0,0,0,0,0c0-0.1-0.1-0.1-0.2-0.2c0,0,0-0.1-0.1-0.1l0,0c0-0.1-0.1-0.2-0.1-0.3l0,0c0,0,0,0,0-0.1
		c0,0,0,0,0,0c0,0,0,0,0,0c0,0,0-0.1,0-0.1c0,0,0,0,0-0.1c0,0,0,0,0,0l0-0.2c0-0.2-0.2-0.4-0.4-0.5l2.1-1.2l0.5,0.2l0.9,0.5l0.8,0.8
		l0.7,1l0.5,1.1l0.5,1.2l0.2,1l0,1l-0.2,0.8l-0.4,0.6l-0.4,0.3L117,145l-0.1,0h-0.1L115.3,144.5z M119.8,146.4l-1.1-0.6
		c0,0,0.1,0,0.1-0.1l0.3-0.3l0.3-0.1c0.1,0,0.1-0.1,0.2-0.1l0-0.1l0,0c0.1,0,0.1-0.1,0.2-0.2l0.1-0.2l0.3-0.4l0.4-0.7
		c0,0,0-0.1,0-0.1l0.2-1v-1.1c0-0.1,0-0.1,0-0.2l-0.8-2.5l-0.6-1.1c0,0,0-0.1-0.1-0.1l-0.7-0.9c0,0-0.1-0.1-0.1-0.1l-0.5-0.3
		l-0.7-0.9c0-0.1-0.1-0.1-0.2-0.1l-0.4-0.2l0.7-0.4l1.8,1.1c0,0,0,0,0,0c0,0,0,0,0,0c0,0,0,0,0,0l0.3,0.1l0.6,0.6l0.5,1.2l0.1,0.3
		v0.2v7.7v0.2l-0.1,0.2l-0.3,0.3L119.8,146.4z M135.7,138.8c-0.1,0-0.2,0-0.3,0.1l-0.1,0c-0.1,0-0.1-0.1-0.2-0.1h-0.3l-0.3-0.1
		c0,0,0,0,0,0c0,0,0,0,0,0l-5.1-1.8c0,0,0,0,0,0l0,0c0,0,0,0,0,0c0,0,0,0,0,0l-0.6-0.2c-0.1,0-0.1,0-0.2,0H128c-0.1,0-0.2,0-0.2,0.1
		l-0.3,0.1l1.9-8.6l0.3-0.8l0.4-0.8l1.2,0l0.8,0.2l0.2,0.1l-0.2,0.1c0,0-0.1,0-0.1,0.1l-0.6,0.4c-0.1,0.1-0.2,0.2-0.2,0.3l-0.2,0.6
		c0,0.1,0,0.1,0,0.2l0,1l0.2,0.9c0,0.1,0,0.1,0.1,0.2l0.6,1l0.6,0.8l0.7,0.7c0.1,0.1,0.1,0.1,0.2,0.1l0.7,0.2l0.6,0.2
		c0.1,0,0.1,0,0.2,0c0.1,0,0.2,0,0.3-0.1l0.6-0.4c0.1,0,0.1-0.1,0.1-0.1l0.4-0.6c0,0,0.1-0.1,0.1-0.2l0.2-0.7c0-0.1,0-0.1,0-0.2
		l-0.2-1l-0.4-0.9c0,0,0-0.1-0.1-0.1l-0.2-0.3l0-0.1l1.9,0.6c0.1,0,0.1,0,0.2,0h0.9c0.1,0,0.1,0,0.2,0l0.9-0.4c0,0,0.1,0,0.1,0
		c0,0,0,0,0,0l1.1-0.7c0,0,0,0,0,0c0,0,0,0,0,0l0.7-0.6c0.1,0,0.1-0.1,0.1-0.1l0.6-1l0.4-0.9c0-0.1,0-0.1,0-0.2v-1.3v-15.1l0.1-0.1
		c0,0,0,0,0,0l1-0.5h0.1c0.1,0,0.3-0.1,0.4-0.1l0.6-0.6c0.1-0.1,0.1-0.1,0.1-0.2l0.2-0.8l0.2-1l0.1,1.5l0.2,3.8l-0.2,3.8l-0.4,3.6
		l-1.5,6.9l-1.1,3.1l-1.3,2.9l-1.5,2.5l-1.6,2.5l-1.7,2.1l-0.2,0.1l-0.1,0c-0.1,0-0.3,0.1-0.4,0.1L135.7,138.8z M148.5,113.7
		l-0.4,3.5l-0.5,3.4l-0.9,3.3l-1.1,2.9l-1.3,2.9l-1.2,2.5l-1.6,2.4l-1.8,2.1l-0.3,0.1c0,0-0.1,0.1-0.1,0.1l0,0l-0.2,0.1l0-0.1
		l1.7-2.6l1.5-2.6l1.3-3l1.1-3.2l1.5-7l0.4-3.7l0.2-3.9l-0.2-3.9l-0.7-8.5l-1.8-8.5l-1.1-4.4l-1.5-4.4l-1.7-4.4l-0.6-1.3l-0.4-1
		c0,0,0,0,0,0c0,0,0,0,0,0l-0.6-1.4l-0.1-0.2l-0.2-0.5l-2-4.2l-2.2-4.4l-2.2-4.3l-2.6-4.1l-2.4-3.6l2.2-1.2l1.6,2.2l4.9,8.2l1.5,2.7
		l1.3,2.6l0,0l0.2,0.3l1.3,3l1.3,2.8l1.6,3.9c0,0,0,0,0,0.1c0,0.2,0,0.3,0.1,0.4c0,0,0.1,0,0.1,0.1l1.4,4.1l1.3,4.4l1.1,4.2l0.9,4.2
		l0.7,4.2l0.5,4l0.1,2.8c-0.2,0.2-0.2,0.5,0,0.7c0,0,0,0,0,0l0,0.6l0,3.8l0,0.6c-0.2,0.2-0.2,0.5,0,0.7L148.5,113.7z M142.3,73.8
		l-0.5-1.8c0,0,0-0.1,0-0.1l-0.7-1.3l-0.2-0.4c0-0.1-0.1-0.2-0.2-0.2l-0.3-0.7l-0.9-2.1l0.4,0.1l0.8,0.6l0.9,0.8l0.7,1.1l0.7,1.2
		l0.3,1.2l0.2,1.2v1l-0.3,0.8l-0.1,0.1l-0.6-1.5C142.3,73.9,142.3,73.8,142.3,73.8z M160.3,95l-1.3,2.5l-3.5,5.1l-2.6,3.3l-2.7,3.1
		l-0.6,0.6l0-3.5l0-0.8l2.3-2.1l4.4-4.2l4.1-4.3l0.1-0.2L160.3,95z M166.9,80.4l-1.6,4.9l-2.3,4.5l-0.3,0.4c-0.1,0-0.3,0.1-0.3,0.3
		l-0.1,0.3l-2.5,3.2l-4,4.2l-4.4,4.2l-1.6,1.5l-0.1-2l-0.6-4.1l-0.7-4.2l-0.9-4.2l-1.1-4.2l-1.3-4.4l-1.5-4.2c0,0,0.1-0.1,0.1-0.1
		l0.6-0.7c0,0,0-0.1,0.1-0.1l0.4-0.9c0-0.1,0-0.1,0-0.2v-2c0,0,0-0.1,0-0.1l-0.4-1.4l-1.1-2.2c0,0-0.1-0.1-0.1-0.1l-1.7-1.7
		c0,0-0.1-0.1-0.1-0.1l-0.9-0.6c0,0-0.1,0-0.1,0l-1.5-0.5l-1.2-2.4l-1.5-2.8l-5-8.3l-1.8-2.5l-0.2-0.3c0,0-0.1-0.1-0.1-0.1l-0.5-0.5
		l-0.1-0.3c0-0.1-0.1-0.2-0.2-0.2l-0.3-0.1l-0.5-0.5c0,0-0.1-0.1-0.1-0.1l-0.4-0.2L85.4,23.5l1-0.2l2.7-0.5l3.5-0.5l4.8-0.4l8.6-0.4
		l5.5,0.2l4,0.4l3.3,0.4l6.8,1.1l3.5,0.7l3.5,0.9l2.4,0.7l4.7,1.3l1.1,0.4c0.1,0.1,0.2,0.2,0.3,0.2c0,0,0.1,0,0.1,0c0,0,0,0,0.1,0
		l1.6,0.7l2.9,1.1l1.1,0.6l2.9,1.3l4.2,2.1c0,0,0,0.1,0,0.1c0,0,0,0.1,0,0.1c0,0,0,0,0.1,0.1c0,0,0,0,0.1,0.1l2,1.2l1.8,1.6l2.3,2.3
		l2,3.1l1.6,3.1l1.3,3.4l0.5,2l0.4,2.2l0.5,2.1V55c0,0,0,0.1,0,0.1l0.2,1.8l0.4,1.8l0.4,3.1l0,1.5l0.2,2l0.2,2.9v3.5l-0.2,3.8
		L166.9,80.4z M169.3,66.1l-0.2,0l0.4-0.2c0,0,0.1,0,0.1-0.1l1.1-1.2l1.1-1.5l0.8-1.5l0.3-1l0.4,2.8l0.4,1.9L169.3,66.1z
		 M183.6,66.2l0.3,0.1v0.1L183.6,66.2L183.6,66.2z M184.9,66.4L184.9,66.4l0.9-0.5L184.9,66.4z M186,64.5
		C186,64.5,186,64.6,186,64.5l-1.6,1l-0.4-0.2l0.2-0.3c0.1-0.2,0-0.3,0-0.5l0.5-0.8L186,64.5z"/>
	<path class="st1" d="M160.9,8.2l0.4,0.2c0.1,0.1,0.2,0.2,0.4,0.2h0.2h0.7h0.2c0.2,0,0.3-0.1,0.4-0.2l0.4-0.2
		c0.2-0.1,0.3-0.3,0.3-0.4V7.2c0-0.2-0.1-0.4-0.3-0.4l-0.7-0.4c-0.1,0-0.1-0.1-0.2-0.1h-0.7c-0.1,0-0.2,0-0.2,0.1l-0.7,0.4
		c-0.2,0.1-0.3,0.3-0.3,0.4v0.6C160.6,8,160.7,8.1,160.9,8.2z M161.9,7.4h0.5l0.3,0.1l-0.2,0.1l-0.2-0.1c-0.1-0.1-0.3-0.1-0.4,0
		l-0.1,0.1l-0.2-0.1L161.9,7.4z"/>
	<path class="st1" d="M182.3,20.5c0,0,0.1,0.1,0.1,0.1l0.2,0.2c0,0,0.1,0.1,0.1,0.1l0.4,0.2c0,0,0,0,0,0c0.1,0,0.1,0,0.2,0h0.9
		c0.1,0,0.1,0,0.2,0c0,0,0,0,0,0l0.4-0.2c0,0,0.1-0.1,0.1-0.1l0.2-0.2c0,0,0.1-0.1,0.1-0.1l0.2-0.4c0.1-0.2,0.1-0.4-0.1-0.6
		l-0.4-0.4c0,0-0.1-0.1-0.1-0.1l-0.4-0.2c-0.1,0-0.1-0.1-0.2-0.1h-0.9c-0.1,0-0.2,0-0.2,0.1l-0.4,0.2c0,0-0.1,0.1-0.1,0.1l-0.4,0.4
		c-0.2,0.2-0.2,0.4-0.1,0.6L182.3,20.5z M183.4,19.9h0.7l0.2,0.1l0,0c0,0-0.1,0-0.1,0h-0.9c0,0-0.1,0-0.1,0L183.4,19.9z"/>
	<path class="st1" d="M124.7,60.6l0.6,0.9c0,0.1,0.1,0.1,0.1,0.1l0.8,0.6l0.7,0.4c0.1,0,0.1,0.1,0.2,0.1h0.7c0.1,0,0.2,0,0.2-0.1
		l0.4-0.2c0.1,0,0.1-0.1,0.2-0.2l0.4-0.6c0,0,0.1-0.1,0.1-0.2l0.2-0.7c0-0.1,0-0.1,0-0.2l-0.2-1l-0.2-0.5c0.1-0.2,0.1-0.4,0-0.5
		l-0.4-0.5l-0.1-0.3c0-0.1-0.1-0.1-0.1-0.2l-0.7-0.7c0,0-0.1-0.1-0.1-0.1l-0.7-0.4c0,0-0.1,0-0.1,0l-0.7-0.2c0,0-0.1,0-0.1,0h-0.6
		c-0.1,0-0.3,0.1-0.4,0.1l-0.4,0.4c0,0-0.1,0.1-0.1,0.1l-0.4,0.7c0,0.1-0.1,0.1-0.1,0.2v0.7c0,0.1,0,0.1,0,0.2L124.7,60.6z
		 M124.8,57.9l0.3-0.6l0.2-0.2h0.3l0.6,0.2l0.6,0.3l0.5,0.5c0,0.1,0,0.2,0.1,0.3l0.1,0.2l0.5,1.3l0.2,0.8l-0.1,0.5l-0.2,0.4
		l-0.1,0.1h-0.5l-0.5-0.3l-0.7-0.5l-0.5-0.8l-0.7-1.7V57.9z"/>
	<path class="st1" d="M61.9,23.7c0,0.1,0,0.1,0.1,0.2l0.6,1l0.6,0.8l0.7,0.7c0,0,0.1,0.1,0.1,0.1l0.7,0.4c0.1,0,0.1,0.1,0.2,0.1h0.6
		c0.1,0,0.2,0,0.3-0.1l0.6-0.4l0.4-0.4c0.1-0.1,0.1-0.2,0.1-0.3l0.2-0.9c0-0.1,0-0.1,0-0.2l-0.2-0.8l-0.4-0.9c0,0,0,0,0,0l-0.4-0.7
		c0-0.1-0.1-0.1-0.2-0.2l0-0.1l-0.6-0.7c0,0-0.1-0.1-0.1-0.1l-0.7-0.6c-0.1,0-0.1-0.1-0.2-0.1l-0.7-0.2c-0.1,0-0.2,0-0.3,0l-0.6,0.2
		c0,0-0.1,0-0.1,0.1l-0.6,0.4c-0.1,0.1-0.2,0.2-0.2,0.3l-0.2,0.7c0,0,0,0.1,0,0.1l0,0.8L61.9,23.7z M62.8,22l0.1-0.5l0.3-0.2
		l0.4-0.1l0.5,0.1l0.6,0.4l0.5,0.6l0.5,0.8l0,0l0.3,0.8l0.2,0.6L66,25.4l-0.2,0.2l-0.4,0.3h-0.3l-0.6-0.3l-0.6-0.6l-0.5-0.7
		l-0.5-0.8l-0.2-0.7V22z"/>
</g>
</svg>
