<?xml version="1.0" encoding="utf-8"?>
<!-- Generator: Adobe Illustrator 19.2.1, SVG Export Plug-In . SVG Version: 6.00 Build 0)  -->
<svg version="1.1" id="round" xmlns="http://www.w3.org/2000/svg" xmlns:xlink="http://www.w3.org/1999/xlink" x="0px" y="0px"
	 viewBox="0 0 189.2 166.5" style="enable-background:new 0 0 189.2 166.5;" xml:space="preserve">
<style type="text/css">
	.st0{fill-rule:evenodd;clip-rule:evenodd;fill:none;stroke:#999999;stroke-miterlimit:10;}
	.st1{fill:#E5E5E5;stroke:#999999;stroke-width:0.7818;stroke-miterlimit:2.6131;}
	.st2{fill:none;stroke:#999999;stroke-width:0.1303;stroke-miterlimit:2.6131;}
	.st3{fill:none;stroke:#999999;stroke-width:0.5;stroke-miterlimit:2.6131;}
	.st4{fill-rule:evenodd;clip-rule:evenodd;fill:none;stroke:#999999;stroke-width:0.5;stroke-miterlimit:10;}
	.st5{fill-rule:evenodd;clip-rule:evenodd;fill:#666766;stroke:#999999;stroke-width:0.5;stroke-miterlimit:10;}
</style>
<path class="st0" d="M2.2,71l13.5,49.5c29.3,13.3,62.8,14.8,99.6-0.6c5.7-2.4,10.9-5.6,17.4-6.3l54-8c1.2-0.2,2.6-2.2,1.9-3.2
	c-9-14.8-18.2-29.2-28-42.3c-3.5-4.7-9.9-7.4-15.7-7.6C71,48.9,24.7,54.2,7.2,62.2C2.8,64.2,0.7,65.4,2.2,71z"/>
<path class="st1" d="M107.8,60.7c11.1-5.1,24,0.6,28.8,12.6c0.8,2.1,1.4,4.2,1.7,6.4c-12.2,1.1-14.7,16.4-7.7,21.2
	c-1.5,1.4-3.3,2.5-5.2,3.4c-11.1,5.1-24-0.6-28.8-12.6C91.7,79.6,96.7,65.7,107.8,60.7z"/>
<ellipse transform="matrix(0.9189 -0.3945 0.3945 0.9189 -30.5931 30.9054)" class="st2" cx="59.9" cy="89.9" rx="26.8" ry="27.4"/>
<path class="st1" d="M45.5,63.3c15.2-6.2,33,0.7,39.6,15.5c6.7,14.8-0.2,31.8-15.5,38c-15.2,6.2-33-0.7-39.6-15.5
	C23.4,86.5,30.3,69.5,45.5,63.3z"/>
<path class="st3" d="M23,118.9c19.7,5.7,61.3,11.4,83.6-4.9c3.9-2.9,8.9-4.3,13.7-4.9l51.9-6.9c1.2-0.2,2-0.5,1-2.6
	c-6.2-13.4-15.1-25.4-24.3-37c-1.9-2.4-3.8-3.2-5.2-3.2"/>
<path class="st4" d="M56.6,64.1c26.3,8.6,30.6,37.3,8.9,51.3C93.6,105.8,88.3,68.6,56.6,64.1z"/>
<path class="st5" d="M48.5,79.9l3.7,1.8c0.9,0.5,1.2,3.3,1.2,4.5c0,2.3-0.7,4.8-2.4,5.4l-2.5,0.9c-2.7,0-5-2.8-5-6.3
	C43.5,82.7,45.8,79.9,48.5,79.9z"/>
<g>
	<path class="st3" d="M58.3,67.3c-4.8,15.6-1.8,30.6,9.3,45.2"/>
	<path class="st3" d="M64.8,72.1c-4.1,12.6-1.3,24.2,8,35.1"/>
	<path class="st3" d="M53.4,67.2c-4.8,15.6-2.4,32.6,8.7,47.1"/>
	<path class="st3" d="M43,68.2c-4.8,15.6-2.4,32.6,8.7,47.1"/>
	<path class="st3" d="M36.6,75.7c-3.2,12.1-1.7,24.1,6.9,34.2"/>
</g>
<path class="st4" d="M29.1,67.8c1.4-0.1,3.5,2.1,2.7,3.2c-9.9,14.7-7.1,28.9,1.9,39.6c1,1.2,3.2,2.4,0.2,4.2
	c-4.5,2.7-16.5-3-17.7-6.7C16,107.5,5.3,70.3,5.3,70.3c-0.5-0.9,0.9-1.4,1.7-1.4L29.1,67.8z"/>
<path class="st3" d="M50.4,100.4c-1-0.9-2.2-1.5-3.1-0.6c-0.9,0.7-0.8,2.7,0.7,3.7c1,0.7,2.4,1.2,3.4-0.2"/>
<path class="st3" d="M95.4,75.7c-5.3,0.6-8.3,2.2-9.1,4.7l8.9-1c3.2,3.1,3.9,6.8,1.7,10.9l-8.7,1.3c1.5,2.7,5,3.5,10.2,2.7"/>
<ellipse class="st4" cx="90.5" cy="63.7" rx="2.8" ry="3.2"/>
<ellipse class="st3" cx="90.6" cy="63.5" rx="2.1" ry="2.5"/>
<path class="st3" d="M92.3,59.6c1.2,1.1,1.9,2.6,1.9,4.4c0,3.2-2.6,5.9-5.8,5.9c-3.2,0-5.8-2.6-5.8-5.9c0-1.5,0.5-2.8,1.4-3.8
	L92.3,59.6z"/>
<path class="st3" d="M111.4,63.6c8.7-4.4,18.9,0.5,22.7,10.9c0.6,1.7,1,3.3,1.2,5c-11.3,3.5-10.7,12.6-7.5,20
	c-0.8,0.6-1.7,1.2-2.6,1.7c-8.7,4.4-18.9-0.5-22.7-10.9C98.7,80,102.7,68,111.4,63.6z"/>
<path class="st3" d="M111.2,64.7c-6.9,13.2-5.8,25.3,4.7,36.2"/>
<path class="st3" d="M117.2,66c-3.2,6.9-4.1,14.3-2.5,22.3"/>
<path class="st3" d="M143.7,79.5c2.8-0.3,6.6,1,9.7,3.2l3.1,13.6c-0.2,2.8-1.7,3.8-2.8,5.7l-11,2c-4.9-1.6-8.3-6.4-8.3-12.4
	C134.4,84.2,138.2,80,143.7,79.5z"/>
<ellipse class="st4" cx="146.9" cy="91.9" rx="8.5" ry="10.7"/>
<path class="st3" d="M145.7,82.1c9.6,2.9,11,13.4,2.2,19.7"/>
<path class="st3" d="M148.5,83.9c-1.4,5-0.8,9.8,2.3,14.6"/>
<path class="st3" d="M145.7,82.7c-2.1,6.2-1.3,12.3,2.3,18.3"/>
<path class="st3" d="M141.7,84.5c-1.4,5-0.5,11.6,2.6,16.4"/>
<ellipse class="st5" cx="51.7" cy="86.7" rx="4.4" ry="5"/>
<path class="st5" d="M50.9,92l0,7.1c0,0.9-0.6,2-1.7,1.9l-0.3,1.8l3.1,0.3c0.3,0,0.5-0.5,0.5-0.9l-0.1-10.5L50.9,92z"/>
<path class="st5" d="M86.4,80.4c1.7,3.1,2.2,6.9,1.9,11.4l8.7-1.3c2-4.5,1.3-8.1-1.9-11L86.4,80.4z"/>
</svg>
