<?xml version="1.0" encoding="utf-8"?>
<!-- Generator: Adobe Illustrator 16.0.4, SVG Export Plug-In . SVG Version: 6.00 Build 0)  -->
<!DOCTYPE svg PUBLIC "-//W3C//DTD SVG 1.1//EN" "http://www.w3.org/Graphics/SVG/1.1/DTD/svg11.dtd">
<svg version="1.1" id="FX-R" xmlns="http://www.w3.org/2000/svg" xmlns:xlink="http://www.w3.org/1999/xlink" x="0px" y="0px"
	 width="188px" height="159.8px" viewBox="0 0 188 159.8" style="enable-background:new 0 0 188 159.8;" xml:space="preserve">
<style type="text/css">
<![CDATA[
	.st0{fill:#FFFFFF;}
]]>
</style>
<g>
	<g>
		<path class="st0" d="M172.6,13.7c-0.3,0-0.5-0.2-0.5-0.5v-0.1l-0.3-0.5l-0.5-0.4c-0.3,0-0.5-0.2-0.5-0.5s0.2-0.5,0.5-0.5h0.2
			c0.1,0,0.2,0,0.3,0.1l0.8,0.6c0.1,0,0.1,0.1,0.1,0.2l0.4,0.8c0,0.1,0.1,0.1,0.1,0.2v0.2C173.1,13.5,172.9,13.7,172.6,13.7z"/>
	</g>
	<g>
		<path class="st0" d="M171.3,12.2c-0.1,0-0.2,0-0.2-0.1l-1.7-0.9c-0.2-0.1-0.3-0.4-0.2-0.7c0.1-0.2,0.4-0.3,0.7-0.2l1.7,0.9
			c0.2,0.1,0.3,0.4,0.2,0.7C171.7,12.1,171.5,12.2,171.3,12.2z"/>
	</g>
	<g>
		<path class="st0" d="M177.5,33.7h-0.2c-0.3,0-0.5-0.2-0.5-0.5s0.2-0.5,0.5-0.5h0.2c0.3,0,0.5,0.2,0.5,0.5S177.8,33.7,177.5,33.7z"
			/>
	</g>
	<g>
		<path class="st0" d="M177.5,33.7c-0.2,0-0.3-0.1-0.4-0.2l-2.8-4l-1.3-1.7c-0.2-0.2-0.1-0.5,0.1-0.7c0.2-0.2,0.5-0.1,0.7,0.1
			l1.3,1.7l2.8,4c0.2,0.2,0.1,0.5-0.1,0.7C177.7,33.6,177.6,33.7,177.5,33.7z"/>
	</g>
	<g>
		<path class="st0" d="M179.2,32.7c-0.2,0-0.3-0.1-0.4-0.2l-2.6-3.8l-1.3-2.1c-0.1-0.2-0.1-0.5,0.2-0.7c0.2-0.1,0.5-0.1,0.7,0.2
			l1.3,2.1l2.6,3.7c0.2,0.2,0.1,0.5-0.1,0.7C179.4,32.7,179.3,32.7,179.2,32.7z"/>
	</g>
	<g>
		<path class="st0" d="M176.4,68.3c-0.3,0-0.5-0.2-0.5-0.5l-0.2-2.1c0-0.3,0.2-0.5,0.5-0.5c0.3,0,0.5,0.2,0.5,0.5l0.2,2.1
			C176.9,68.1,176.7,68.3,176.4,68.3C176.4,68.3,176.4,68.3,176.4,68.3z"/>
	</g>
	<g>
		<path class="st0" d="M174.1,68.5c-0.3,0-0.5-0.2-0.5-0.5v-0.9c0-0.3,0.2-0.5,0.5-0.5s0.5,0.2,0.5,0.5V68
			C174.6,68.3,174.4,68.5,174.1,68.5z"/>
	</g>
	<g>
		<path class="st0" d="M179.2,69.1c-0.2,0-0.3-0.1-0.4-0.2l-2.4-3.2c-0.2-0.2-0.1-0.5,0.1-0.7c0.2-0.2,0.5-0.1,0.7,0.1l2.4,3.2
			c0.2,0.2,0.1,0.5-0.1,0.7C179.4,69,179.3,69.1,179.2,69.1z"/>
	</g>
	<g>
		<path class="st0" d="M181.1,67.8c-0.1,0-0.3-0.1-0.4-0.2l-2.3-2.8c-0.2-0.2-0.1-0.5,0.1-0.7c0.2-0.2,0.5-0.1,0.7,0.1l2.3,2.8
			c0.2,0.2,0.1,0.5-0.1,0.7C181.3,67.7,181.2,67.8,181.1,67.8z"/>
	</g>
	<g>
		<path class="st0" d="M180.3,73h-0.6c-0.1,0-0.1,0-0.2,0l-0.6-0.2c0,0-0.1,0-0.1-0.1l-0.6-0.4c0,0-0.1-0.1-0.1-0.1l-0.6-0.8
			l-0.7-0.7c0,0-0.1-0.1-0.1-0.1l-0.4-0.8l-0.4-1l-0.2-0.8c0,0,0-0.1,0-0.1v-0.2c0-0.3,0.2-0.5,0.5-0.5s0.5,0.2,0.5,0.5v0.1l0.2,0.7
			l0.4,0.9l0.3,0.6l0.7,0.7l0.6,0.7l0.4,0.3l0.4,0.1h0.2v-0.4l-0.2-0.7l-0.4-0.9l-0.4-0.7l-0.3-0.5c-0.2-0.2-0.1-0.5,0.1-0.7
			c0.2-0.2,0.5-0.1,0.7,0.1l0.4,0.6l0.4,0.8l0.4,1l0.2,0.8c0,0,0,0.1,0,0.1v0.6c0,0.1,0,0.2-0.1,0.2l-0.2,0.4
			C180.7,72.9,180.5,73,180.3,73z"/>
	</g>
	<g>
		<path class="st0" d="M179.4,75.3c-0.1,0-0.1,0-0.2,0l-1.1-0.4c-0.1,0-0.1,0-0.2-0.1l-1.9-1.5c0,0-0.1,0-0.1-0.1l-0.8-0.9
			c0,0,0-0.1-0.1-0.1l-1.1-2.3l-0.4-1.2c0-0.1,0-0.1,0-0.2V68c0-0.3,0.2-0.5,0.5-0.5s0.5,0.2,0.5,0.5v0.5l0.4,1.1l1.1,2.1l0.7,0.9
			l1.8,1.4l1,0.3h0.7l0.8-0.2l0.5-0.3l0.7-1.3l0.1-0.6l-0.2-1l-0.7-2.1l-0.7-1.1c-0.1-0.1-0.1-0.2-0.1-0.3v-0.2
			c0-0.3,0.2-0.5,0.5-0.5s0.5,0.2,0.5,0.5v0l0.7,1c0,0,0,0.1,0.1,0.1l0.8,2.3l0.2,1.2c0,0.1,0,0.1,0,0.2l-0.2,0.8c0,0,0,0.1,0,0.1
			l-0.8,1.5c0,0.1-0.1,0.2-0.2,0.2l-0.8,0.4c0,0-0.1,0-0.1,0l-0.9,0.2L179.4,75.3z"/>
	</g>
	<g>
		<path class="st0" d="M164.5,1.7c-0.2,0-0.4-0.1-0.4-0.3c-0.1-0.2,0-0.5,0.2-0.7l0.4-0.2c0.1,0,0.1-0.1,0.2-0.1h0.8
			c0.3,0,0.5,0.2,0.5,0.5s-0.2,0.5-0.5,0.5H165l-0.3,0.1C164.7,1.6,164.6,1.7,164.5,1.7z"/>
	</g>
	<g>
		<path class="st0" d="M169.8,11.3c-0.2,0-0.4-0.1-0.4-0.3c-0.1-0.2,0-0.5,0.2-0.7l0.2-0.1l0.3-0.6l0.2-0.5c0.1-0.3,0.4-0.4,0.6-0.3
			c0.3,0.1,0.4,0.4,0.3,0.6L171,10l-0.4,0.8c0,0.1-0.1,0.2-0.2,0.2l-0.4,0.2C170,11.2,169.9,11.3,169.8,11.3z"/>
	</g>
	<g>
		<path class="st0" d="M170.9,7.7c-0.3,0-0.5-0.2-0.5-0.5l0-0.2c-0.1-0.1-0.1-0.2-0.1-0.4V6.1c0-0.3,0.2-0.5,0.5-0.5
			s0.5,0.2,0.5,0.5l0,0.4c0.1,0.1,0.1,0.2,0.1,0.4v0.4C171.4,7.5,171.2,7.7,170.9,7.7z"/>
	</g>
	<g>
		<path class="st0" d="M170.7,6.6c-0.1,0-0.3,0-0.4-0.1l-0.2-0.2c-0.1-0.1-0.1-0.2-0.1-0.4l0-0.2c-0.1-0.1-0.1-0.2-0.1-0.3
			c-0.1-0.1-0.2-0.2-0.2-0.4c-0.1-0.1-0.2-0.2-0.2-0.4c-0.1-0.1-0.2-0.2-0.2-0.4l0,0c0,0-0.1-0.1-0.1-0.1c-0.1,0-0.1-0.1-0.2-0.2
			c-0.1-0.1-0.2-0.2-0.3-0.4l-0.2-0.2c0,0-0.1-0.1-0.1-0.1c-0.1,0-0.1-0.1-0.2-0.2c-0.1,0-0.1-0.1-0.2-0.2c-0.1,0-0.1-0.1-0.2-0.2
			c-0.1,0-0.1-0.1-0.1-0.1c-0.3,0-0.5-0.2-0.5-0.5c0-0.3,0.2-0.5,0.5-0.5h0.4c0.2,0,0.3,0.1,0.4,0.3c0.1,0,0.1,0.1,0.2,0.2
			c0.1,0,0.1,0.1,0.2,0.2c0.1,0,0.1,0.1,0.2,0.2c0.1,0.1,0.2,0.2,0.3,0.4l0.2,0.2c0,0,0.1,0.1,0.1,0.1c0.1,0,0.1,0.1,0.2,0.2
			c0.1,0.1,0.2,0.2,0.3,0.4l0,0c0,0,0.1,0.1,0.1,0.1c0.1,0.1,0.2,0.2,0.3,0.4c0.1,0.1,0.2,0.2,0.2,0.4c0.1,0.1,0.2,0.2,0.2,0.4
			l0,0.2c0.1,0.1,0.1,0.2,0.1,0.4l0,0.2c0.2,0.2,0.2,0.5,0,0.7C171,6.5,170.9,6.6,170.7,6.6z"/>
	</g>
	<g>
		<path class="st0" d="M11.8,62.1c-0.2,0-0.3-0.1-0.4-0.3c-0.1-0.2-0.1-0.5,0.2-0.7l16.8-9.6c0.2-0.1,0.5-0.1,0.7,0.2
			s0.1,0.5-0.2,0.7L12,62C12,62.1,11.9,62.1,11.8,62.1z"/>
	</g>
	<g>
		<path class="st0" d="M66.6,156.8c-0.2,0-0.3-0.1-0.4-0.3c-0.1-0.2-0.1-0.5,0.2-0.7l16.8-9.6c0.2-0.1,0.5-0.1,0.7,0.2
			c0.1,0.2,0.1,0.5-0.2,0.7l-16.8,9.6C66.8,156.8,66.7,156.8,66.6,156.8z"/>
	</g>
	<g>
		<path class="st0" d="M125.7,144.2c-0.2,0-0.3-0.1-0.4-0.3c-0.1-0.2-0.1-0.5,0.2-0.7l14.3-8.1c0.2-0.1,0.5-0.1,0.7,0.2
			c0.1,0.2,0.1,0.5-0.2,0.7l-14.3,8.1C125.9,144.2,125.8,144.2,125.7,144.2z"/>
	</g>
	<g>
		<path class="st0" d="M82.8,147.6c-0.2,0-0.3-0.1-0.4-0.3c-0.1-0.2-0.1-0.5,0.2-0.7l1.3-0.8c0.2-0.1,0.5-0.1,0.7,0.2
			c0.1,0.2,0.1,0.5-0.2,0.7l-1.3,0.8C83,147.6,82.9,147.6,82.8,147.6z"/>
	</g>
	<g>
		<path class="st0" d="M21.6,56.5c0,0-0.1,0-0.1,0c-0.3-0.1-0.4-0.4-0.3-0.6l5.1-16.8c0.1-0.3,0.4-0.4,0.6-0.3
			c0.3,0.1,0.4,0.4,0.3,0.6l-5.1,16.8C22,56.3,21.8,56.5,21.6,56.5z"/>
	</g>
	<g>
		<path class="st0" d="M130.3,157.8c-0.2,0-0.3-0.1-0.4-0.2c-0.1-0.2-0.1-0.5,0.2-0.7l9.4-5.5c0.2-0.1,0.5-0.1,0.7,0.2
			c0.1,0.2,0.1,0.5-0.2,0.7l-9.4,5.5C130.4,157.8,130.3,157.8,130.3,157.8z"/>
	</g>
	<g>
		<path class="st0" d="M28.9,29.2c-0.2,0-0.3-0.1-0.4-0.2c-0.1-0.2-0.1-0.5,0.2-0.7l14.1-8.3c0.2-0.1,0.5-0.1,0.7,0.2
			c0.1,0.2,0.1,0.5-0.2,0.7l-14.1,8.3C29.1,29.1,29,29.2,28.9,29.2z"/>
	</g>
	<g>
		<path class="st0" d="M57.4,9.2c-0.2,0-0.3-0.1-0.4-0.3c-0.1-0.2,0-0.5,0.2-0.7l6-3.4c0.2-0.1,0.5,0,0.7,0.2c0.1,0.2,0,0.5-0.2,0.7
			l-6,3.4C57.5,9.2,57.5,9.2,57.4,9.2z"/>
	</g>
	<g>
		<path class="st0" d="M3.7,96c-0.3,0-0.5-0.2-0.5-0.5v-3.8c0,0,0-0.1,0-0.1l0.2-0.7v-1.4c0,0,0-0.1,0-0.1l0.2-0.7v-0.5
			c0,0,0-0.1,0-0.1l0.2-0.7v-0.7c0,0,0-0.1,0-0.1L4,85.8v-0.7C4,85.1,4,85,4,85l0.2-0.6L4.5,83v-0.7c0-0.1,0-0.1,0-0.2l0.2-0.6
			l0.4-1.5l0.2-0.6l0.4-1.5c0-0.1,0-0.1,0.1-0.2l0.4-0.6c0.2-0.2,0.5-0.3,0.7-0.1c0.2,0.2,0.3,0.5,0.1,0.7l-0.3,0.5l-1.1,4v0.7
			c0,0,0,0.1,0,0.1l-0.5,2v0.7c0,0,0,0.1,0,0.1l-0.2,0.7v0.7c0,0,0,0.1,0,0.1l-0.2,0.7v0.5c0,0,0,0.1,0,0.1l-0.2,0.7V91
			c0,0,0,0.1,0,0.1l-0.2,0.7v3.7C4.2,95.8,4,96,3.7,96z"/>
	</g>
	<g>
		<path class="st0" d="M49.8,153.4h-0.2c0,0-0.1,0-0.1,0l-5.6-1.5c-0.1,0-0.1,0-0.2-0.1l-0.5-0.3l-2-0.6l-0.8-0.4l-0.5-0.2l-0.8-0.4
			l-0.5-0.2l-0.8-0.4l-0.5-0.4l-0.7-0.2c-0.1,0-0.1,0-0.2-0.1l-0.6-0.4l-0.7-0.3l-0.5-0.2c0,0-0.1,0-0.1-0.1l-0.6-0.4l-0.7-0.3
			l-1.2-0.8l-0.7-0.3l-1.7-1.2l-0.7-0.3c0,0-0.1-0.1-0.1-0.1l-0.6-0.6l-1.6-1.1l-0.6-0.6l-0.5-0.3c0,0-0.1,0-0.1-0.1l-0.6-0.6
			l-1.1-0.7l-1.2-1.2l-0.5-0.3c-0.1,0-0.1-0.1-0.1-0.1l-0.3-0.5l-0.5-0.3l-1.2-1.2l-0.4-0.6l-0.5-0.3c-0.1,0-0.1-0.1-0.1-0.1
			l-0.4-0.6l-1.1-1.1l-0.8-1.2l-0.5-0.5l-0.4-0.6l-0.5-0.5l-1.2-1.8l-0.5-0.5c0,0-0.1-0.1-0.1-0.1l-0.4-0.8l-1.1-1.6l-0.4-0.8
			l-0.7-1.1l-0.4-0.8l-0.3-0.5c0,0,0-0.1-0.1-0.1l-0.2-0.6l-0.3-0.7l-0.3-0.5c0,0-0.1-0.1-0.1-0.2l-0.2-0.7l-0.3-0.5l-0.4-0.8
			l-0.2-0.6l-0.3-0.7l-0.2-0.6L7,116.8l-0.2-0.6l-0.4-1.5l-0.3-0.5c0,0-0.1-0.1-0.1-0.2l-1.7-6.4c0,0,0-0.1,0-0.1v-0.5l-0.5-2.2
			c0,0,0-0.1,0-0.1v-0.7l-0.2-0.5c0-0.1,0-0.1,0-0.2v-0.7L3.4,102c0,0,0-0.1,0-0.1v-1.4L3.2,100c0-0.1,0-0.1,0-0.2v-4.3
			c0-0.3,0.2-0.5,0.5-0.5s0.5,0.2,0.5,0.5v4.2l0.2,0.5c0,0.1,0,0.1,0,0.2v1.4l0.2,0.7c0,0,0,0.1,0,0.1v0.7l0.2,0.5
			c0,0.1,0,0.1,0,0.2v0.7l0.5,2.2c0,0,0,0.1,0,0.1v0.5l1.7,6.3l0.3,0.5c0,0,0.1,0.1,0.1,0.2l0.6,2l0.3,0.7l0.2,0.6l0.4,0.7l0.2,0.6
			l0.3,0.7l0.3,0.5c0,0,0.1,0.1,0.1,0.2l0.2,0.7l0.3,0.5l0.4,0.8l0.2,0.6l0.3,0.5l0.4,0.8l0.7,1.1l0.4,0.8l1.1,1.6l0.4,0.7l0.5,0.5
			l1.2,1.8l0.5,0.5l0.4,0.6l0.5,0.5l0.8,1.2l1.1,1.1l0.4,0.6l0.5,0.3c0.1,0,0.1,0.1,0.1,0.1l0.4,0.6l1.1,1.1l0.5,0.3
			c0.1,0,0.1,0.1,0.1,0.1l0.3,0.5l0.5,0.3l1.2,1.2l1.1,0.7l0.6,0.6l0.5,0.4l0.6,0.6l1.6,1.1l0.6,0.6l0.7,0.3l1.7,1.2l0.7,0.3
			l1.2,0.8l0.7,0.3L35,147l0.5,0.2l0.8,0.4l0.5,0.4l0.7,0.2c0.1,0,0.1,0,0.2,0.1l0.6,0.4l0.7,0.3l0.5,0.2l0.8,0.4l0.5,0.2l0.8,0.4
			l0.5,0.2l1.5,0.4c0.1,0,0.1,0,0.2,0.1l0.5,0.3l5.6,1.5c0.3,0,0.5,0.2,0.5,0.5S50.1,153.4,49.8,153.4z"/>
	</g>
	<g>
		<path class="st0" d="M150,102.8c-0.1,0-0.2,0-0.2-0.1c-0.2-0.1-0.3-0.4-0.2-0.7l0.6-1.1l1.3-3l1.9-4l3.2-7.5l1.1-3.2l0.9-2.5
			l0.7-2.2l1.3-3.4l1.3-3.9l1.1-4.5l1.3-4.7c0.1-0.3,0.4-0.4,0.6-0.3c0.3,0.1,0.4,0.4,0.3,0.6l-1.3,4.7l-1.1,4.5l-1.3,4l-1.3,3.4
			l-0.7,2.2l-1,2.5l-1.1,3.2l-3.2,7.6l-1.9,4l-1.3,3l-0.6,1.2C150.4,102.7,150.2,102.8,150,102.8z"/>
	</g>
	<g>
		<path class="st0" d="M129.5,20.1c0,0-0.1,0-0.1,0l-1.5-0.4l-4.1-0.6c-0.3,0-0.5-0.3-0.4-0.6c0-0.3,0.3-0.5,0.6-0.4l4.2,0.6
			l1.6,0.4c0.3,0.1,0.4,0.3,0.4,0.6C129.9,20,129.7,20.1,129.5,20.1z"/>
	</g>
	<g>
		<path class="st0" d="M140.2,135.9c-0.2,0-0.3-0.1-0.4-0.2c-0.1-0.2-0.1-0.5,0.2-0.7l4.1-2.4c0.2-0.1,0.5-0.1,0.7,0.2
			c0.1,0.2,0.1,0.5-0.2,0.7l-4.1,2.4C140.4,135.9,140.3,135.9,140.2,135.9z"/>
	</g>
	<g>
		<path class="st0" d="M128.9,20.9c-0.2,0-0.3-0.1-0.4-0.2c-0.1-0.2-0.1-0.5,0.2-0.7L162,0.7c0.2-0.1,0.5-0.1,0.7,0.2
			c0.1,0.2,0.1,0.5-0.2,0.7l-33.3,19.2C129.1,20.8,129,20.9,128.9,20.9z"/>
	</g>
	<g>
		<path class="st0" d="M163.4,68.3c-0.2,0-0.3-0.1-0.4-0.2c-0.1-0.2-0.1-0.5,0.2-0.7l7.7-4.5c0.2-0.1,0.5-0.1,0.7,0.2
			c0.1,0.2,0.1,0.5-0.2,0.7l-7.7,4.5C163.6,68.3,163.5,68.3,163.4,68.3z"/>
	</g>
	<g>
		<path class="st0" d="M43.4,20.7c-0.2,0-0.3-0.1-0.4-0.3c-0.1-0.2-0.1-0.5,0.2-0.7l4-2.3c0.2-0.1,0.5-0.1,0.7,0.2s0.1,0.5-0.2,0.7
			l-4,2.3C43.6,20.7,43.5,20.7,43.4,20.7z"/>
	</g>
	<g>
		<path class="st0" d="M128.2,19.7c-0.2,0-0.3-0.1-0.4-0.3c-0.1-0.2-0.1-0.5,0.2-0.7l29.9-17.1c0.2-0.1,0.5-0.1,0.7,0.2
			c0.1,0.2,0.1,0.5-0.2,0.7l-29.9,17.1C128.3,19.7,128.3,19.7,128.2,19.7z"/>
	</g>
	<g>
		<path class="st0" d="M170.4,12.8c-0.1,0-0.3,0-0.4-0.1c-0.2-0.2-0.2-0.5,0-0.7l0.1-0.1l0.2-0.3c0.1-0.2,0.3-0.3,0.4-0.3h0.6
			c0.3,0,0.5,0.2,0.5,0.5s-0.2,0.5-0.5,0.5H171l-0.1,0.1c0,0-0.1,0.1-0.1,0.1l-0.2,0.2C170.6,12.7,170.5,12.8,170.4,12.8z"/>
	</g>
	<g>
		<path class="st0" d="M180.5,68.1c-0.2,0-0.4-0.1-0.4-0.3c-0.1-0.2,0-0.5,0.2-0.7l0.1-0.1c0.1-0.2,0.3-0.4,0.5-0.4h0.2
			c0.3,0,0.5,0.2,0.5,0.5c0,0.2-0.1,0.3-0.3,0.4c0,0.1-0.1,0.2-0.2,0.2l-0.4,0.2C180.7,68.1,180.6,68.1,180.5,68.1z"/>
	</g>
	<g>
		<path class="st0" d="M179.4,69.1h-0.2c-0.3,0-0.5-0.2-0.5-0.5c0-0.3,0.2-0.5,0.5-0.5l0.6-0.6c0,0,0.1-0.1,0.1-0.1l0.4-0.2
			c0.2-0.1,0.5,0,0.7,0.2c0.1,0.2,0,0.5-0.2,0.7l-0.3,0.2l-0.7,0.7C179.7,69,179.5,69.1,179.4,69.1z"/>
	</g>
	<g>
		<path class="st0" d="M169.8,7.7c-0.2,0-0.4-0.1-0.5-0.3l-0.9-2.2L167,3.4c-0.2-0.2-0.1-0.5,0.1-0.7c0.2-0.2,0.5-0.1,0.7,0.1
			l1.5,1.9c0,0,0.1,0.1,0.1,0.1l0.9,2.3c0.1,0.3,0,0.5-0.3,0.6C169.9,7.7,169.9,7.7,169.8,7.7z"/>
	</g>
	<g>
		<path class="st0" d="M169.8,11.3c-0.1,0-0.2,0-0.3-0.1c-0.2-0.2-0.3-0.5-0.1-0.7l0.6-0.8l0.3-0.6v-1l-0.2-1l-0.4-1.3l-0.5-1
			l-0.7-1.1l-0.7-0.9l-0.9-0.7L166,1.6l-0.9-0.2l-0.5,0c-0.3,0-0.5-0.2-0.5-0.5s0.2-0.5,0.5-0.5h0.6l1,0.2c0.1,0,0.1,0,0.2,0.1
			l0.9,0.6l1,0.8c0,0,0.1,0,0.1,0.1l0.8,0.9l0.8,1.2l0.6,1.2l0.4,1.4l0.2,1.2l0,1.2c0,0.1,0,0.2-0.1,0.2l-0.4,0.8l-0.6,0.8
			C170.1,11.2,169.9,11.3,169.8,11.3z"/>
	</g>
	<g>
		<path class="st0" d="M175.6,69.1h-0.8c-0.1,0-0.2,0-0.2-0.1l-0.8-0.4c-0.2-0.1-0.3-0.3-0.3-0.4V68c0-0.3,0.2-0.5,0.5-0.5
			c0.2,0,0.4,0.2,0.5,0.4l0.4,0.2h0.5l0.1-0.1l0.1-0.2c0,0,0.1-0.1,0.1-0.1l0.2-0.2c0.2-0.2,0.5-0.2,0.7,0c0.2,0.2,0.2,0.5,0,0.7
			l-0.1,0.1l-0.2,0.3c0,0.1-0.1,0.2-0.2,0.2l-0.4,0.2C175.8,69.1,175.7,69.1,175.6,69.1z"/>
	</g>
	<g>
		<path class="st0" d="M170.9,9.6c-0.3,0-0.5-0.2-0.5-0.5V7.6l-0.2-1l-0.4-1.1l-0.5-1.2l-0.7-0.9l-0.9-0.9L166.9,2L166,1.6
			c-0.1,0-0.1-0.1-0.2-0.1l-0.2-0.2c-0.2-0.2-0.2-0.5,0-0.7c0.2-0.2,0.5-0.2,0.7,0l0.1,0.1l0.8,0.3l1,0.6c0,0,0.1,0,0.1,0.1l0.9,0.9
			l0.8,1c0,0,0.1,0.1,0.1,0.1l0.6,1.3l0.4,1.2l0.2,1.2l0,1.6C171.4,9.3,171.2,9.6,170.9,9.6z"/>
	</g>
	<g>
		<path class="st0" d="M39.1,154.2c-0.1,0-0.2,0-0.3-0.1l-2.8-1.9l-3-2.1l-2.9-2.3l-3-2.7l-2.7-2.9l-2.8-2.8l-2.7-3.2l-2.5-3.2
			l-0.2-0.5c-0.1-0.2,0-0.5,0.2-0.7c0.2-0.1,0.5,0,0.7,0.2l0.2,0.4l2.4,3.1l2.6,3.2l2.8,2.8l2.6,2.8l3,2.6l2.8,2.2l5.8,3.9
			c0.2,0.2,0.3,0.5,0.1,0.7C39.4,154.1,39.3,154.2,39.1,154.2z"/>
	</g>
	<g>
		<path class="st0" d="M56.5,159.5l-2.9-0.2l-2.9-0.4l-2.9-0.8l-2.9-1.1l-3-1.3l-3-1.5c-0.2-0.1-0.3-0.4-0.2-0.7
			c0.1-0.2,0.4-0.3,0.7-0.2l3,1.5l3,1.3l2.8,1.1l2.8,0.7l2.8,0.4l2.8,0.2l2.6-0.2l2.4-0.4l2.2-0.7l2.2-0.9l2-1.3l1.8-1.5l1.6-1.8
			l1.5-2l1.3-2.2l1.1-2.4l0.9-2.8l1.1-6l0.2-3.3l0-3.4l-0.2-3.6l-1.1-7.3l-0.9-3.7l-1.1-3.7l-1.3-3.7l-1.5-3.9l-1.7-3.7l-1.9-3.7
			l-2.1-3.6L63.4,89l-2.3-3.4l-2.4-3.4l-2.6-3l-2.8-3l-2.8-2.8l-5.6-4.9l-3-2l-3-1.9L36,63.2l-3-1.3L30.3,61l-3-0.7l-2.6-0.6
			l-2.8-0.2l-2.6,0.2L17,60l-2.2,0.7l-2.2,0.9l-2,1.3l-1.8,1.5l-1.6,1.8l-1.5,2l-1.3,2.2l-1.1,2.6l-0.9,2.6l-1.1,6.1L1,85l0,3.4
			l0.2,3.6l1.1,7.3l0.9,3.7l1.1,3.7l1.3,3.9l2.4,6c0.1,0.3,0,0.5-0.3,0.7c-0.3,0.1-0.5,0-0.7-0.3l-0.9-2.3l-1.5-3.8l-1.3-4l-1.1-3.8
			l-0.9-3.8L0.2,92L0,88.4L0,85l0.2-3.2l1.1-6.3l1-2.7l1.1-2.7l1.3-2.3l1.5-2.1L8,63.7l1.9-1.6l2.1-1.3l2.3-1l2.3-0.8l2.5-0.4
			l2.7-0.2l2.9,0.2l2.7,0.6l3,0.8l2.9,1l3.1,1.3l2.9,1.5l3,1.9l3,2.1l5.7,4.9l2.9,2.8l2.8,3l2.6,3l2.5,3.4l2.3,3.4l2.3,3.6l2.1,3.6
			l1.9,3.8l1.7,3.8l1.5,4L75,111l1.1,3.8l0.9,3.8l1.1,7.4l0.2,3.6l0,3.4l-0.2,3.4l-1.1,6.1l-1,2.9l-1.2,2.5l-1.3,2.3l-1.5,2.1
			l-1.7,1.9l-1.9,1.6l-2.1,1.3l-2.3,1l-2.3,0.8l-2.5,0.4L56.5,159.5z"/>
	</g>
	<g>
		<path class="st0" d="M83.9,85.1c-0.2,0-0.3-0.1-0.4-0.2L79,77.7l-2.4-3.4l-2.4-3.2l-2.8-3l-2.6-3l-2.8-2.6l-5.8-4.7l-3-1.8l-3-1.7
			l-2.8-1.5l-3-1.1l-2.8-0.9l-2.8-0.5L40,49.9l-2.6,0l-2.6,0.4l-2.4,0.6l-2.2,0.7l-1.5,0.9c-0.2,0.1-0.5,0.1-0.7-0.2
			c-0.1-0.2-0.1-0.5,0.2-0.7l1.5-0.9c0,0,0.1,0,0.1-0.1l2.3-0.8l2.5-0.6l2.7-0.4l2.7,0l2.9,0.4l2.9,0.6l2.9,1l3,1.1l2.9,1.5l3,1.7
			l3,1.9l5.9,4.7l2.9,2.7l2.7,3l2.8,3l2.5,3.2l2.5,3.4l4.5,7.2c0.1,0.2,0.1,0.5-0.2,0.7C84.1,85.1,84,85.1,83.9,85.1z"/>
	</g>
	<g>
		<path class="st0" d="M94.7,122.9c-0.3,0-0.5-0.2-0.5-0.5l-0.4-7.2l-0.6-3.7l-0.7-3.7l-0.9-3.9l-1.3-3.9l-1.3-3.8l-1.7-3.9
			l-3.8-7.5c-0.1-0.2,0-0.5,0.2-0.7c0.2-0.1,0.5,0,0.7,0.2l3.8,7.5l1.7,4l1.3,3.8l1.3,4l1,4l0.8,3.8l0.6,3.8l0.4,7.2
			C95.2,122.7,95,122.9,94.7,122.9C94.7,122.9,94.7,122.9,94.7,122.9z"/>
	</g>
	<g>
		<path class="st0" d="M83.9,146.9c-0.2,0-0.3-0.1-0.4-0.2c-0.2-0.2-0.1-0.5,0.1-0.7l2.3-1.7l2-2.2l1.9-2.4l1.5-2.9l1.3-3.2l0.9-3.5
			l0.6-3.7l0.2-3.9c0-0.3,0.3-0.5,0.5-0.5c0.3,0,0.5,0.2,0.5,0.5l-0.2,4l-0.6,3.8l-1,3.6l-1.3,3.3l-1.5,3l-1.9,2.5l-2.1,2.3
			l-2.3,1.8C84.1,146.8,84,146.9,83.9,146.9z"/>
	</g>
	<g>
		<path class="st0" d="M83.4,147.2c-0.2,0-0.3-0.1-0.4-0.2c-0.2-0.2-0.1-0.5,0.1-0.7l0.6-0.4c0.2-0.2,0.5-0.1,0.7,0.1
			c0.2,0.2,0.1,0.5-0.1,0.7l-0.6,0.4C83.6,147.2,83.5,147.2,83.4,147.2z"/>
	</g>
	<g>
		<path class="st0" d="M4.6,86c-0.3,0-0.5-0.2-0.5-0.5V85l0.4-3.1L5.1,79l1-2.7l1.1-2.5l1.1-2.1l1.5-2.1l1.7-1.8l1.9-1.4l2.1-1.2
			l2.1-0.8l2.5-0.6l2.5-0.4c0,0,0.1,0,0.1,0l2.4,0.2l2.7,0.4l2.9,0.6l2.7,1l2.8,1.1l2.9,1.5c0.2,0.1,0.3,0.4,0.2,0.7
			c-0.1,0.2-0.4,0.3-0.7,0.2L36,67.7l-2.8-1.1l-2.6-0.9l-2.8-0.5l-2.6-0.4l-2.4-0.2l-2.4,0.4l-2.4,0.6l-2,0.7l-2,1.1l-1.8,1.3
			l-1.6,1.6l-1.5,2l-1.1,2L7,76.7l-0.9,2.6L5.5,82l-0.4,3l0,0.5C5.1,85.8,4.9,86,4.6,86z"/>
	</g>
	<g>
		<path class="st0" d="M56.8,154.4h-2.4l-2.7-0.2l-2.7-0.6l-2.8-0.8l-4.2-1.7c-0.3-0.1-0.4-0.4-0.3-0.7c0.1-0.3,0.4-0.4,0.7-0.3
			l1.3,0.6l2.8,1.1l2.8,0.7l2.6,0.6l2.6,0.2l2.4,0l4.6-1.1l2-0.9l1.8-1.3l1.6-1.5l1.7-1.8l1.3-2l1.1-2.2l1.1-2.4l0.7-2.7l0.7-6
			l0-3.1l-0.2-3.4l-0.4-3.4l-0.6-3.6l-0.9-3.7l-2.3-7.1l-1.5-3.7L66,99.9l-1.9-3.6L60,89.6l-2.4-3.2l-4.9-6l-2.6-2.6l-2.8-2.4
			L41.8,71l-3-1.9c-0.2-0.1-0.3-0.5-0.2-0.7c0.1-0.2,0.5-0.3,0.7-0.2l3,1.9l5.5,4.4l2.8,2.5l2.7,2.7l4.9,6.1l2.5,3.2l4.2,6.8
			l1.9,3.6l1.7,3.6l1.5,3.8l2.3,7.2l0.9,3.8l0.6,3.6l0.4,3.4l0.2,3.4l0,3.2l-0.8,6.1l-0.8,2.9l-1.2,2.5l-1.1,2.3l-1.3,2.1l-1.7,1.9
			l-1.7,1.5l-1.9,1.4l-2.2,1l-2.3,0.6l-2.5,0.6C56.9,154.4,56.8,154.4,56.8,154.4z"/>
	</g>
	<g>
		<path class="st0" d="M131.6,72.1h-0.2c-0.3,0-0.5-0.2-0.5-0.5s0.2-0.5,0.5-0.5h0.2c0.3,0,0.5,0.2,0.5,0.5S131.8,72.1,131.6,72.1z"
			/>
	</g>
	<g>
		<path class="st0" d="M83.9,85.1c-0.2,0-0.4-0.1-0.5-0.4c-0.1-0.3,0.1-0.5,0.3-0.6l47.5-13c0.3-0.1,0.5,0.1,0.6,0.4
			c0.1,0.3-0.1,0.5-0.4,0.6l-47.5,13C84,85.1,84,85.1,83.9,85.1z"/>
	</g>
	<g>
		<path class="st0" d="M28,52.7c-0.1,0-0.2,0-0.3-0.1c-0.2-0.2-0.2-0.5-0.1-0.7l8.7-10.5l13.6-16.8c0.2-0.2,0.5-0.2,0.7-0.1
			c0.2,0.2,0.2,0.5,0.1,0.7L37,42l-8.7,10.5C28.3,52.6,28.1,52.7,28,52.7z"/>
	</g>
	<g>
		<path class="st0" d="M50.2,25.4c-0.1,0-0.3,0-0.4-0.1c-0.2-0.2-0.2-0.5,0-0.7l0.2-0.2c0.2-0.2,0.5-0.2,0.7,0s0.2,0.5,0,0.7
			l-0.2,0.2C50.5,25.3,50.3,25.4,50.2,25.4z"/>
	</g>
	<g>
		<path class="st0" d="M50.4,25.2c-0.2,0-0.3-0.1-0.4-0.2c-0.2-0.2-0.1-0.5,0.1-0.7l0.6-0.4l0.7-0.5c0.2-0.2,0.5-0.1,0.7,0.1
			c0.2,0.2,0.1,0.5-0.1,0.7l-1.3,1C50.6,25.2,50.5,25.2,50.4,25.2z"/>
	</g>
	<g>
		<path class="st0" d="M51.7,24.3c-0.1,0-0.3,0-0.4-0.1c-0.2-0.2-0.2-0.5,0-0.7l0.9-0.9c0.2-0.2,0.5-0.2,0.7,0
			c0.2,0.2,0.2,0.5,0,0.7l-0.9,0.9C52,24.2,51.9,24.3,51.7,24.3z"/>
	</g>
	<g>
		<path class="st0" d="M52.7,23.3c-0.2,0-0.3-0.1-0.4-0.2c-0.2-0.2-0.1-0.5,0.1-0.7L53,22c0.2-0.2,0.5-0.1,0.7,0.1s0.1,0.5-0.1,0.7
			l-0.6,0.4C52.9,23.3,52.8,23.3,52.7,23.3z"/>
	</g>
	<g>
		<path class="st0" d="M51.5,27.8h-0.8c-0.3,0-0.5-0.2-0.5-0.5v-0.8c0-0.1,0-0.1,0-0.2l0.8-1.7l1.7-2.5c0.2-0.2,0.5-0.3,0.7-0.1
			c0.2,0.2,0.3,0.5,0.1,0.7l-0.4,0.6l-1.3,1.9l-0.7,1.5v0.1h0.3c0.3,0,0.5,0.2,0.5,0.5S51.8,27.8,51.5,27.8z"/>
	</g>
	<g>
		<path class="st0" d="M51.7,27.8h-0.2c-0.3,0-0.5-0.2-0.5-0.5s0.2-0.5,0.5-0.5h0.2c0.3,0,0.5,0.2,0.5,0.5S52,27.8,51.7,27.8z"/>
	</g>
	<g>
		<path class="st0" d="M116.3,64.9c-0.1,0-0.3-0.1-0.4-0.2l-5.1-5.5l-5.6-4.9L99.4,50l-6.2-4.5l-6.4-4.1l-6-3.6l-6-3.4l-5.4-2.8
			l-5.1-2.2L59.7,28l-4.2-0.5l-3.9,0.4c-0.3,0-0.5-0.2-0.5-0.5c0-0.3,0.2-0.5,0.5-0.5l4-0.4c0,0,0.1,0,0.1,0l4.3,0.6l4.8,1.3
			l5.2,2.3l5.5,2.8l6,3.4l6,3.6l6.4,4.2l6.2,4.5l5.9,4.5l5.7,4.9l5.1,5.5c0.2,0.2,0.2,0.5,0,0.7C116.6,64.9,116.4,64.9,116.3,64.9z"
			/>
	</g>
	<g>
		<path class="st0" d="M125.4,67.8l-2.9-0.2l-3.1-0.6c-0.1,0-0.1,0-0.1-0.1l-2.1-1.1l-1.2-1c-0.2-0.2-0.2-0.5-0.1-0.7
			c0.2-0.2,0.5-0.2,0.7-0.1l1.1,0.9l1.9,1l2.9,0.6l2.8,0.2l5.6-0.4c0.3,0,0.5,0.2,0.5,0.5c0,0.3-0.2,0.5-0.5,0.5L125.4,67.8z"/>
	</g>
	<g>
		<path class="st0" d="M131.2,67.4H131c-0.3,0-0.5-0.2-0.5-0.5s0.2-0.5,0.5-0.5h0.2c0.3,0,0.5,0.2,0.5,0.5S131.5,67.4,131.2,67.4z"
			/>
	</g>
	<g>
		<path class="st0" d="M131.9,69.1c-0.2,0-0.3-0.1-0.4-0.3l-0.9-1.7c-0.1-0.2,0-0.5,0.2-0.7c0.2-0.1,0.5,0,0.7,0.2l0.9,1.7
			c0.1,0.2,0,0.5-0.2,0.7C132.1,69.1,132,69.1,131.9,69.1z"/>
	</g>
	<g>
		<path class="st0" d="M132.1,69.1h-0.2c-0.3,0-0.5-0.2-0.5-0.5s0.2-0.5,0.5-0.5h0.2c0.3,0,0.5,0.2,0.5,0.5S132.4,69.1,132.1,69.1z"
			/>
	</g>
	<g>
		<path class="st0" d="M132.1,69.1h-0.2c-0.3,0-0.5-0.2-0.5-0.5s0.2-0.5,0.5-0.5h0.2c0.3,0,0.5,0.2,0.5,0.5S132.4,69.1,132.1,69.1z"
			/>
	</g>
	<g>
		<path class="st0" d="M130.3,69.6c-0.2,0-0.4-0.1-0.5-0.3c-0.1-0.3,0.1-0.5,0.3-0.6l1.7-0.6c0.3-0.1,0.5,0.1,0.6,0.3
			c0.1,0.3-0.1,0.5-0.3,0.6l-1.7,0.6C130.4,69.6,130.3,69.6,130.3,69.6z"/>
	</g>
	<g>
		<path class="st0" d="M131.6,72.1c-0.2,0-0.4-0.1-0.5-0.3l-0.4-1.1l-0.9-1.3c-0.2-0.2-0.1-0.5,0.1-0.7c0.2-0.2,0.5-0.1,0.7,0.1
			l0.9,1.3c0,0,0.1,0.1,0.1,0.1l0.4,1.1c0.1,0.3-0.1,0.5-0.3,0.6C131.7,72.1,131.6,72.1,131.6,72.1z"/>
	</g>
	<g>
		<path class="st0" d="M83.9,146.9c-0.3,0-0.5-0.2-0.5-0.5c0-0.3,0.2-0.5,0.5-0.5l9.2-0.2l9.4-0.4l18.6-1.3c0.3,0,0.5,0.2,0.5,0.5
			s-0.2,0.5-0.5,0.5l-18.6,1.3l-9.4,0.4L83.9,146.9C83.9,146.9,83.9,146.9,83.9,146.9z"/>
	</g>
	<g>
		<path class="st0" d="M83.9,85.1c-0.3,0-0.5-0.2-0.5-0.5c0-0.3,0.2-0.5,0.5-0.5l20.3-0.8l20.1-1.3c0.3,0,0.5,0.2,0.5,0.5
			c0,0.3-0.2,0.5-0.5,0.5l-20.2,1.3L83.9,85.1C83.9,85.1,83.9,85.1,83.9,85.1z"/>
	</g>
	<g>
		<path class="st0" d="M127.6,92.1c-0.2,0-0.4-0.1-0.5-0.3l-2.3-6.8l-0.5-1.1l-0.4-1.2c-0.1-0.3,0.1-0.5,0.3-0.6
			c0.3-0.1,0.5,0.1,0.6,0.3l0.4,1.1l0.5,1.1l2.3,6.8c0.1,0.3-0.1,0.5-0.3,0.6C127.7,92,127.7,92.1,127.6,92.1z"/>
	</g>
	<g>
		<path class="st0" d="M126.9,140.6c-0.1,0-0.1,0-0.2,0c-0.2-0.1-0.4-0.4-0.2-0.7l1.5-3.2l1.1-3.2l1.5-7.3l0.4-3.9l0.2-3.9l0-4.3
			l-0.4-4.3l-0.6-4.5l-0.8-4.5l-2.3-9.2c-0.1-0.3,0.1-0.5,0.4-0.6c0.3-0.1,0.5,0.1,0.6,0.4l2.3,9.2l0.8,4.6l0.6,4.5l0.4,4.4l0,4.4
			l-0.2,4l-0.4,4l-1.5,7.4l-1.1,3.3l-1.5,3.2C127.2,140.5,127,140.6,126.9,140.6z"/>
	</g>
	<g>
		<path class="st0" d="M124.6,144.6c-0.1,0-0.2,0-0.3-0.1c-0.2-0.2-0.3-0.5-0.1-0.7l1.8-3l0.2-0.5l0.2-0.4c0.1-0.2,0.4-0.3,0.7-0.2
			c0.2,0.1,0.3,0.4,0.2,0.7l-0.2,0.4l-0.2,0.5c0,0,0,0.1-0.1,0.1l-1.9,3C124.9,144.5,124.8,144.6,124.6,144.6z"/>
	</g>
	<g>
		<path class="st0" d="M121.2,145c-0.3,0-0.5-0.2-0.5-0.5s0.2-0.5,0.5-0.5h0.6l2.8-0.4c0.3-0.1,0.5,0.2,0.6,0.4
			c0,0.3-0.2,0.5-0.4,0.6l-2.8,0.4L121.2,145z"/>
	</g>
	<g>
		<path class="st0" d="M124.4,83c-0.2,0-0.3-0.1-0.4-0.2c-0.1-0.2-0.1-0.5,0.2-0.7l14.3-8.3c0.2-0.1,0.5-0.1,0.7,0.2
			c0.1,0.2,0.1,0.5-0.2,0.7l-14.3,8.3C124.6,83,124.5,83,124.4,83z"/>
	</g>
	<g>
		<path class="st0" d="M134.2,73.8c-0.1,0-0.2,0-0.3-0.1l-2.8-1.7c-0.2-0.1-0.3-0.4-0.2-0.7s0.4-0.3,0.7-0.2l2.8,1.7
			c0.2,0.1,0.3,0.4,0.2,0.7C134.5,73.7,134.4,73.8,134.2,73.8z"/>
	</g>
	<g>
		<path class="st0" d="M134.2,73.8c-0.2,0-0.4-0.1-0.4-0.3c-0.1-0.2,0-0.5,0.2-0.7l1.5-0.8c0.2-0.1,0.5,0,0.7,0.2
			c0.1,0.2,0,0.5-0.2,0.7l-1.5,0.8C134.4,73.8,134.3,73.8,134.2,73.8z"/>
	</g>
	<g>
		<path class="st0" d="M138.7,74.7c-0.1,0-0.2,0-0.2-0.1l-3-1.7c-0.2-0.1-0.3-0.4-0.2-0.7c0.1-0.2,0.4-0.3,0.7-0.2l3,1.7
			c0.2,0.1,0.3,0.4,0.2,0.7C139.1,74.6,138.9,74.7,138.7,74.7z"/>
	</g>
	<g>
		<path class="st0" d="M127.6,92.1c-0.2,0-0.3-0.1-0.4-0.2c-0.1-0.2-0.1-0.5,0.2-0.7l14.1-8.3c0.2-0.1,0.5-0.1,0.7,0.2
			c0.1,0.2,0.1,0.5-0.2,0.7L127.9,92C127.8,92,127.7,92.1,127.6,92.1z"/>
	</g>
	<g>
		<path class="st0" d="M127.6,92.1c-0.1,0-0.2,0-0.2-0.1c-0.2-0.1-0.3-0.4-0.2-0.7l0.4-0.8l0.3-0.8v-0.8l-0.2-1.2l-0.5-1.1l-0.6-1.3
			l-0.7-1l-0.8-0.8l-0.9-0.5c-0.2-0.1-0.3-0.4-0.2-0.7s0.4-0.3,0.7-0.2l0.9,0.6c0,0,0.1,0,0.1,0.1l0.9,0.9l0.8,1.2l0.6,1.4l0.6,1.1
			c0,0,0,0.1,0,0.2l0.2,1.3l0,1c0,0.1,0,0.1,0,0.2l-0.4,0.9l-0.4,0.8C128,92,127.8,92.1,127.6,92.1z"/>
	</g>
	<g>
		<path class="st0" d="M141.7,83.8c-0.1,0-0.3,0-0.4-0.1c-0.2-0.2-0.2-0.5,0-0.7l0.5-0.5l0.3-1.8l-0.3-1.2l-0.4-1.1l-0.5-1.2
			l-0.7-0.9l-0.9-0.9l-0.9-0.7c-0.2-0.2-0.3-0.5-0.1-0.7c0.2-0.2,0.5-0.2,0.7-0.1l0.9,0.8l1,1l0.8,1c0,0,0.1,0.1,0.1,0.1l0.6,1.3
			l0.4,1.2l0.4,1.3c0,0.1,0,0.1,0,0.2l-0.4,2.1c0,0.1-0.1,0.2-0.1,0.3l-0.6,0.6C142,83.7,141.9,83.8,141.7,83.8z"/>
	</g>
	<g>
		<path class="st0" d="M141.2,132.4c-0.1,0-0.1,0-0.2,0c-0.3-0.1-0.4-0.4-0.3-0.7l1.3-3l1.1-3.3l0.9-3.5l0.7-3.7l0.4-3.7l0.2-4.1
			l-0.4-8.6l-0.6-4.3l-0.8-4.7l-1.1-4.5l-1.3-4.7c-0.1-0.3,0.1-0.5,0.3-0.6c0.3-0.1,0.5,0.1,0.6,0.3l1.3,4.7l1.1,4.5l0.8,4.8
			l0.6,4.3l0.4,8.7l-0.2,4.2l-0.4,3.8l-0.8,3.8l-0.9,3.6L143,129l-1.3,3.1C141.5,132.2,141.4,132.4,141.2,132.4z"/>
	</g>
	<g>
		<path class="st0" d="M126.9,140.6c-0.2,0-0.3-0.1-0.4-0.2c-0.1-0.2-0.1-0.5,0.2-0.7l14.3-8.3c0.2-0.1,0.5-0.1,0.7,0.2
			c0.1,0.2,0.1,0.5-0.2,0.7l-14.3,8.3C127,140.6,126.9,140.6,126.9,140.6z"/>
	</g>
	<g>
		<path class="st0" d="M51.5,27.8c-0.2,0-0.3-0.1-0.4-0.2C51,27.3,51,27,51.3,26.9l8.1-4.7c0.2-0.1,0.5-0.1,0.7,0.2
			c0.1,0.2,0.1,0.5-0.2,0.7l-8.1,4.7C51.7,27.8,51.6,27.8,51.5,27.8z"/>
	</g>
	<g>
		<path class="st0" d="M124.6,60.2c-0.1,0-0.3-0.1-0.4-0.2l-5.1-6.6l-5.4-6.2l-6.2-6l-6.6-5.4l-6.7-4.7l-6.9-3.7l-6.4-2.6l-6-1.7
			l-5.5-0.9l-5.2,0.2l-4.5,0.7c-0.3,0-0.5-0.1-0.6-0.4c0-0.3,0.1-0.5,0.4-0.6l4.5-0.8l5.3-0.2c0,0,0.1,0,0.1,0l5.6,0.9l6.1,1.7
			l6.5,2.7l7,3.8l6.8,4.7l6.6,5.5l6.2,6.1l5.5,6.2l5.1,6.6c0.2,0.2,0.1,0.5-0.1,0.7C124.8,60.2,124.7,60.2,124.6,60.2z"/>
	</g>
	<g>
		<path class="st0" d="M116.3,64.9c-0.2,0-0.3-0.1-0.4-0.3c-0.1-0.2-0.1-0.5,0.2-0.7l8.3-4.7c0.2-0.1,0.5-0.1,0.7,0.2
			c0.1,0.2,0.1,0.5-0.2,0.7l-8.3,4.7C116.5,64.9,116.4,64.9,116.3,64.9z"/>
	</g>
	<g>
		<path class="st0" d="M131,67.4c-0.2,0-0.3-0.1-0.4-0.2c-0.1-0.2-0.1-0.5,0.2-0.7l5.8-3.4c0.2-0.1,0.5-0.1,0.7,0.2
			c0.1,0.2,0.1,0.5-0.2,0.7l-5.8,3.4C131.2,67.4,131.1,67.4,131,67.4z"/>
	</g>
	<g>
		<path class="st0" d="M124.6,60.2c-0.2,0-0.3-0.1-0.4-0.2c-0.1-0.2-0.1-0.5,0.2-0.7l5.8-3.4c0.2-0.1,0.5-0.1,0.7,0.2
			c0.1,0.2,0.1,0.5-0.2,0.7l-5.8,3.4C124.8,60.2,124.7,60.2,124.6,60.2z"/>
	</g>
	<g>
		<path class="st0" d="M136.8,64c-0.1,0-0.3,0-0.4-0.1l-0.8-0.8l-0.9-0.7c0,0-0.1,0-0.1-0.1l-0.7-0.9l-0.9-0.7c0,0-0.1,0-0.1-0.1
			l-1.5-1.9l-0.8-1.2l-0.7-0.9c-0.2-0.2-0.1-0.5,0.1-0.7c0.2-0.2,0.5-0.1,0.7,0.1l0.8,0.9l0.8,1.2l1.4,1.8l0.9,0.7
			c0,0,0.1,0,0.1,0.1l0.7,0.9l0.9,0.7l0.8,0.8c0.2,0.2,0.2,0.5,0,0.7C137.1,63.9,137,64,136.8,64z"/>
	</g>
	<g>
		<path class="st0" d="M134.2,71c-0.2,0-0.3-0.1-0.4-0.2c-0.1-0.2-0.1-0.5,0.2-0.7l6.4-3.8c0.2-0.1,0.5-0.1,0.7,0.2
			c0.1,0.2,0.1,0.5-0.2,0.7l-6.4,3.8C134.4,70.9,134.3,71,134.2,71z"/>
	</g>
	<g>
		<path class="st0" d="M140.6,67.2c-0.3,0-0.5-0.2-0.5-0.5l-0.6-7.5c0-0.3,0.2-0.5,0.5-0.5c0.3,0,0.5,0.2,0.5,0.5l0.6,7.5
			C141.1,66.9,140.9,67.2,140.6,67.2C140.6,67.2,140.6,67.2,140.6,67.2z"/>
	</g>
	<g>
		<path class="st0" d="M140,59.7c-0.2,0-0.3-0.1-0.4-0.2c-0.1-0.2-0.1-0.5,0.2-0.7l5.8-3.4c0.2-0.1,0.5-0.1,0.7,0.2
			c0.1,0.2,0.1,0.5-0.2,0.7l-5.8,3.4C140.2,59.6,140.1,59.7,140,59.7z"/>
	</g>
	<g>
		<path class="st0" d="M146.4,65.7c-0.3,0-0.5-0.2-0.5-0.5l-0.6-9.4c0-0.3,0.2-0.5,0.5-0.5c0.3,0,0.5,0.2,0.5,0.5l0.6,9.4
			C147,65.4,146.8,65.7,146.4,65.7C146.5,65.7,146.5,65.7,146.4,65.7z"/>
	</g>
	<g>
		<path class="st0" d="M135,72.3c-0.2,0-0.3-0.1-0.4-0.3c-0.1-0.2-0.1-0.5,0.2-0.7l11.5-6.6c0.2-0.1,0.5-0.1,0.7,0.2
			c0.1,0.2,0.1,0.5-0.2,0.7l-11.5,6.6C135.1,72.3,135,72.3,135,72.3z"/>
	</g>
	<g>
		<path class="st0" d="M134.2,71.7c-0.1,0-0.3,0-0.4-0.1c-0.2-0.2-0.2-0.5,0-0.7l0.4-0.4c0.2-0.2,0.5-0.2,0.7,0s0.2,0.5,0,0.7
			l-0.4,0.4C134.5,71.7,134.3,71.7,134.2,71.7z"/>
	</g>
	<g>
		<path class="st0" d="M134.2,71.7c-0.3,0-0.5-0.2-0.5-0.5V71c0-0.3,0.2-0.5,0.5-0.5s0.5,0.2,0.5,0.5v0.2
			C134.7,71.5,134.5,71.7,134.2,71.7z"/>
	</g>
	<g>
		<path class="st0" d="M134.2,71.5c-0.3,0-0.5-0.2-0.5-0.5v-0.6c0-0.3,0.2-0.5,0.5-0.5s0.5,0.2,0.5,0.5V71
			C134.7,71.3,134.5,71.5,134.2,71.5z"/>
	</g>
	<g>
		<path class="st0" d="M76.8,19c-0.2,0-0.3-0.1-0.4-0.2c-0.1-0.2-0.1-0.5,0.2-0.7l5.8-3.4c0.2-0.1,0.5-0.1,0.7,0.2
			c0.1,0.2,0.1,0.5-0.2,0.7L77,18.9C76.9,19,76.9,19,76.8,19z"/>
	</g>
	<g>
		<path class="st0" d="M79.2,13.7c-0.2,0-0.4-0.1-0.5-0.4c-0.1-0.3,0.1-0.5,0.3-0.6l6.8-1.9l7.4-1.5l7.4-1.1c0.3,0,0.5,0.1,0.6,0.4
			c0,0.3-0.1,0.5-0.4,0.6l-7.3,1.1l-7.3,1.5l-6.7,1.9C79.3,13.7,79.3,13.7,79.2,13.7z"/>
	</g>
	<g>
		<path class="st0" d="M104.8,9.4C104.8,9.4,104.8,9.4,104.8,9.4L102.7,9l-2,0.2c-0.3,0-0.5-0.2-0.5-0.5c0-0.3,0.2-0.5,0.5-0.5
			l2.1-0.2c0,0,0.1,0,0.1,0l2.1,0.4c0.3,0,0.5,0.3,0.4,0.6C105.3,9.2,105.1,9.4,104.8,9.4z"/>
	</g>
	<g>
		<path class="st0" d="M130.8,24.4c-0.1,0-0.2,0-0.3-0.1l-5.6-4.5l-5.6-3.7l-5.1-2.8l-4.9-2.2l-4.7-1.7c-0.3-0.1-0.4-0.4-0.3-0.6
			c0.1-0.3,0.4-0.4,0.6-0.3l4.7,1.7l4.9,2.3l5.1,2.8l5.7,3.8l5.7,4.5c0.2,0.2,0.3,0.5,0.1,0.7C131.1,24.4,131,24.4,130.8,24.4z"/>
	</g>
	<g>
		<path class="st0" d="M132.9,27.6c-0.2,0-0.4-0.1-0.5-0.3l-0.7-1.6l-1.3-1.4c-0.2-0.2-0.2-0.5,0-0.7c0.2-0.2,0.5-0.2,0.7,0l1.3,1.5
			c0,0,0.1,0.1,0.1,0.1l0.8,1.7c0.1,0.3,0,0.5-0.3,0.7C133,27.6,133,27.6,132.9,27.6z"/>
	</g>
	<g>
		<path class="st0" d="M135.3,46.1c-0.2,0-0.5-0.2-0.5-0.4l-0.8-6.4l-0.9-6l-0.8-6c0-0.3,0.2-0.5,0.4-0.6c0.3,0,0.5,0.2,0.6,0.4
			l0.8,6l0.9,6l0.8,6.4C135.9,45.8,135.7,46.1,135.3,46.1C135.4,46.1,135.4,46.1,135.3,46.1z"/>
	</g>
	<g>
		<path class="st0" d="M119.7,43.8c-0.2,0-0.3-0.1-0.4-0.2c-0.1-0.2-0.1-0.5,0.2-0.7l5.8-3.6c0.2-0.1,0.5-0.1,0.7,0.2
			c0.1,0.2,0.1,0.5-0.2,0.7l-5.8,3.6C119.9,43.8,119.8,43.8,119.7,43.8z"/>
	</g>
	<g>
		<path class="st0" d="M130.4,56.8c-0.1,0-0.3-0.1-0.4-0.2l-4.5-5.8l-3-3.8l-3.2-3.4c-0.2-0.2-0.2-0.5,0-0.7c0.2-0.2,0.5-0.2,0.7,0
			l3.2,3.4l3,3.8l4.5,5.8c0.2,0.2,0.1,0.5-0.1,0.7C130.7,56.8,130.5,56.8,130.4,56.8z"/>
	</g>
	<g>
		<path class="st0" d="M59.6,23.1c-0.2,0-0.3-0.1-0.4-0.2c-0.1-0.2-0.1-0.5,0.2-0.7l5.8-3.4c0.2-0.1,0.5-0.1,0.7,0.2
			c0.1,0.2,0.1,0.5-0.2,0.7l-5.8,3.4C59.8,23.1,59.7,23.1,59.6,23.1z"/>
	</g>
	<g>
		<path class="st0" d="M65.5,19.7c-0.2,0-0.4-0.2-0.5-0.4c-0.1-0.3,0.1-0.5,0.4-0.6l2.8-0.6l3.2-0.4l5.3,0.2c0.3,0,0.5,0.2,0.5,0.5
			c0,0.3-0.3,0.5-0.5,0.5l-5.3-0.2l-3.1,0.4L65.5,19.7C65.5,19.7,65.5,19.7,65.5,19.7z"/>
	</g>
	<g>
		<path class="st0" d="M138,65.7h-0.2c-0.3,0-0.5-0.2-0.5-0.5s0.2-0.5,0.5-0.5h0.2c0.3,0,0.5,0.2,0.5,0.5S138.2,65.7,138,65.7z"/>
	</g>
	<g>
		<path class="st0" d="M137.8,65.7c-0.2,0-0.3-0.1-0.4-0.3l-0.9-1.7c-0.1-0.2,0-0.5,0.2-0.7c0.2-0.1,0.5,0,0.7,0.2l0.9,1.7
			c0.1,0.2,0,0.5-0.2,0.7C138,65.7,137.9,65.7,137.8,65.7z"/>
	</g>
	<g>
		<path class="st0" d="M136.1,53.3c-0.1,0-0.2,0-0.2-0.1l-16.4-9.4c-0.2-0.1-0.3-0.4-0.2-0.7s0.4-0.3,0.7-0.2l16.4,9.4
			c0.2,0.1,0.3,0.4,0.2,0.7C136.4,53.2,136.3,53.3,136.1,53.3z"/>
	</g>
	<g>
		<path class="st0" d="M140,59.7c-0.2,0-0.4-0.2-0.5-0.4l-0.4-1.7l-0.7-1.7l-1.2-1.6l-1.4-1.1c-0.2-0.2-0.3-0.5-0.1-0.7
			c0.2-0.2,0.5-0.3,0.7-0.1l1.5,1.1c0,0,0.1,0.1,0.1,0.1l1.3,1.7c0,0,0.1,0.1,0.1,0.1l0.8,1.9l0.4,1.8c0.1,0.3-0.1,0.5-0.4,0.6
			C140.1,59.7,140.1,59.7,140,59.7z"/>
	</g>
	<g>
		<path class="st0" d="M140.6,67.2c-0.1,0-0.2,0-0.2-0.1l-2.8-1.5c-0.2-0.1-0.3-0.4-0.2-0.7c0.1-0.2,0.4-0.3,0.7-0.2l2.8,1.5
			c0.2,0.1,0.3,0.4,0.2,0.7C141,67.1,140.8,67.2,140.6,67.2z"/>
	</g>
	<g>
		<path class="st0" d="M136.8,60.6c-0.1,0-0.2,0-0.2-0.1l-0.8-0.4c0,0-0.1-0.1-0.1-0.1l-1.3-1.3c0,0-0.1-0.1-0.1-0.1l-0.4-0.8
			l-0.4-1c0-0.1,0-0.1,0-0.2V56c0,0,0-0.1,0-0.1l0.2-0.8c0-0.1,0.1-0.2,0.1-0.2l0.4-0.4c0.1-0.1,0.1-0.1,0.2-0.1l0.6-0.2
			c0.1,0,0.1,0,0.2,0h0.6c0.1,0,0.2,0,0.2,0.1l0.8,0.4c0,0,0.1,0.1,0.1,0.1l0.8,0.8l0.6,0.8c0,0,0,0.1,0.1,0.1l0.4,0.9l0.2,1
			c0,0.1,0,0.1,0,0.2l-0.4,1.4c0,0.1-0.2,0.3-0.3,0.3l-1.1,0.4C136.9,60.6,136.9,60.6,136.8,60.6z M136.4,59.3l0.5,0.2l0.7-0.2
			l0.3-0.9l-0.2-0.8l-0.3-0.8l-0.5-0.7l-0.6-0.6l-0.6-0.3h-0.4l-0.4,0.1l-0.2,0.2l-0.1,0.6v0.6l0.3,0.9l0.3,0.6L136.4,59.3z"/>
	</g>
	<g>
		<path class="st0" d="M136.1,53.3c-0.2,0-0.3-0.1-0.4-0.3c-0.1-0.2-0.1-0.5,0.2-0.7l6-3.4c0.2-0.1,0.5,0,0.7,0.2
			c0.1,0.2,0.1,0.5-0.2,0.7l-6,3.4C136.3,53.2,136.2,53.3,136.1,53.3z"/>
	</g>
	<g>
		<path class="st0" d="M145.9,56.3c-0.3,0-0.5-0.2-0.5-0.5v-0.7l-1.1-2.7l-0.5-0.8l-1.3-1.3l-0.7-0.5c-0.2-0.2-0.3-0.5-0.1-0.7
			c0.2-0.2,0.5-0.3,0.7-0.1l0.8,0.6l1.4,1.4c0,0,0.1,0.1,0.1,0.1l0.6,0.9l1.2,2.9c0,0.1,0,0.1,0,0.2v0.8
			C146.4,56,146.2,56.3,145.9,56.3z"/>
	</g>
	<g>
		<path class="st0" d="M134.2,73.8c-0.3,0-0.5-0.2-0.5-0.5v-2.1c0-0.3,0.2-0.5,0.5-0.5s0.5,0.2,0.5,0.5v2.1
			C134.7,73.6,134.5,73.8,134.2,73.8z"/>
	</g>
	<g>
		<path class="st0" d="M131.6,72.1c-0.1,0-0.3,0-0.4-0.1c-0.2-0.2-0.2-0.5,0-0.7l0.8-0.8c0,0,0.1-0.1,0.1-0.1l0.2-0.1l0.1-0.2
			c0.1-0.2,0.4-0.3,0.7-0.2c0.2,0.1,0.3,0.4,0.2,0.7l-0.2,0.4c0,0.1-0.1,0.2-0.2,0.2l-0.3,0.2l-0.7,0.7
			C131.8,72,131.7,72.1,131.6,72.1z"/>
	</g>
	<g>
		<path class="st0" d="M134.2,71.5c-0.1,0-0.2,0-0.2-0.1l-1.3-0.8c-0.2-0.1-0.3-0.4-0.2-0.7c0.1-0.2,0.4-0.3,0.7-0.2l1.3,0.8
			c0.2,0.1,0.3,0.4,0.2,0.7C134.5,71.4,134.4,71.5,134.2,71.5z"/>
	</g>
	<g>
		<path class="st0" d="M135.7,73c-0.1,0-0.3,0-0.4-0.1l-0.9-0.9c-0.1-0.1-0.1-0.2-0.1-0.4l0-0.4c-0.2-0.2-0.2-0.5,0-0.7
			s0.5-0.2,0.7,0l0.2,0.2c0.1,0.1,0.1,0.2,0.1,0.4l0,0.4l0.8,0.8c0.2,0.2,0.2,0.5,0,0.7C136,73,135.8,73,135.7,73z"/>
	</g>
	<g>
		<path class="st0" d="M134.2,71c-0.1,0-0.2,0-0.2-0.1l-1.9-0.9c-0.2-0.1-0.3-0.4-0.2-0.7c0.1-0.2,0.4-0.3,0.7-0.2l1.9,0.9
			c0.2,0.1,0.3,0.4,0.2,0.7C134.6,70.9,134.4,71,134.2,71z"/>
	</g>
	<g>
		<path class="st0" d="M132.3,70c-0.1,0-0.2,0-0.2-0.1l-0.3-0.2l-0.7-0.2c0,0-0.1,0-0.1,0l-0.2-0.1l-0.4,0.1
			c-0.3,0.1-0.5-0.1-0.6-0.3c-0.1-0.3,0.1-0.5,0.3-0.6l0.6-0.2c0.1,0,0.3,0,0.4,0l0.3,0.2l0.7,0.2c0,0,0.1,0,0.1,0l0.4,0.2
			c0.2,0.1,0.3,0.4,0.2,0.7C132.7,69.9,132.5,70,132.3,70z"/>
	</g>
	<g>
		<path class="st0" d="M132.9,70.8c-0.2,0-0.3-0.1-0.4-0.2l-0.5-0.7c-0.2-0.2-0.2-0.5,0-0.7s0.5-0.2,0.7,0l0.2,0.2l0.4,0.6
			c0.2,0.2,0.1,0.5-0.1,0.7C133.1,70.7,133,70.8,132.9,70.8z"/>
	</g>
	<g>
		<path class="st0" d="M142.1,49.9c-0.1,0-0.2,0-0.2-0.1l-16.6-9.6c-0.2-0.1-0.3-0.4-0.2-0.7c0.1-0.2,0.4-0.3,0.7-0.2l16.6,9.6
			c0.2,0.1,0.3,0.4,0.2,0.7C142.5,49.8,142.3,49.9,142.1,49.9z"/>
	</g>
	<g>
		<path class="st0" d="M131.9,69.1c-0.2,0-0.3-0.1-0.4-0.2c-0.1-0.2-0.1-0.5,0.2-0.7l5.8-3.4c0.2-0.1,0.5-0.1,0.7,0.2
			s0.1,0.5-0.2,0.7l-5.8,3.4C132.1,69.1,132,69.1,131.9,69.1z"/>
	</g>
	<g>
		<path class="st0" d="M131.9,69.1c-0.2,0-0.3-0.1-0.4-0.2c-0.1-0.2-0.1-0.5,0.2-0.7l5.8-3.4c0.2-0.1,0.5-0.1,0.7,0.2
			s0.1,0.5-0.2,0.7l-5.8,3.4C132.1,69.1,132,69.1,131.9,69.1z"/>
	</g>
	<g>
		<path class="st0" d="M124.6,144.6c-0.2,0-0.4-0.1-0.5-0.3c-0.1-0.3,0.1-0.5,0.3-0.6l0.6-0.2c0.1,0,0.1,0,0.2,0h0.3l0.2-0.1
			l0.3-0.3l0.2-0.3l0.3-1v-0.5c0-0.3,0.2-0.5,0.5-0.5s0.5,0.2,0.5,0.5v0.6c0,0.1,0,0.1,0,0.2l-0.4,1.1l-0.2,0.4c0,0-0.1,0.1-0.1,0.1
			l-0.4,0.4c0,0-0.1,0.1-0.1,0.1l-0.4,0.2c-0.1,0-0.1,0.1-0.2,0.1h-0.3l-0.5,0.2C124.7,144.6,124.7,144.6,124.6,144.6z"/>
	</g>
	<g>
		<path class="st0" d="M126.9,141.8c-0.2,0-0.3-0.1-0.4-0.2c-0.1-0.2-0.1-0.5,0.2-0.7l14.3-8.3c0.2-0.1,0.5-0.1,0.7,0.2
			c0.1,0.2,0.1,0.5-0.2,0.7l-14.3,8.3C127,141.7,126.9,141.8,126.9,141.8z"/>
	</g>
	<g>
		<path class="st0" d="M140,136.1c-0.1,0-0.3,0-0.4-0.1c-0.2-0.2-0.2-0.5,0-0.7l0.5-0.5l0.2-0.5l0.3-0.7V133c0-0.3,0.2-0.5,0.5-0.5
			s0.5,0.2,0.5,0.5v0.8c0,0.1,0,0.2-0.1,0.2l-0.4,0.8l-0.2,0.5c0,0.1-0.1,0.1-0.1,0.2l-0.6,0.6C140.3,136.1,140.2,136.1,140,136.1z"
			/>
	</g>
	<g>
		<path class="st0" d="M126.9,141.8c-0.3,0-0.5-0.2-0.5-0.5v-1.1c0-0.3,0.2-0.5,0.5-0.5s0.5,0.2,0.5,0.5v1.1
			C127.4,141.5,127.1,141.8,126.9,141.8z"/>
	</g>
	<g>
		<path class="st0" d="M141.2,133.5c-0.3,0-0.5-0.2-0.5-0.5v-1.1c0-0.3,0.2-0.5,0.5-0.5s0.5,0.2,0.5,0.5v1.1
			C141.7,133.3,141.4,133.5,141.2,133.5z"/>
	</g>
	<g>
		<path class="st0" d="M26.7,39.7c-0.1,0-0.1,0-0.2,0c-0.3-0.1-0.4-0.4-0.3-0.6l0.6-1.7l1.3-3.2c0.1-0.3,0.4-0.4,0.7-0.3
			c0.3,0.1,0.4,0.4,0.3,0.7l-1.3,3.2l-0.6,1.7C27.1,39.6,26.9,39.7,26.7,39.7z"/>
	</g>
	<g>
		<path class="st0" d="M28.6,34.8c-0.1,0-0.2,0-0.2-0.1c-0.2-0.1-0.3-0.4-0.2-0.7l0.4-0.8l0.2-0.5l0.8-1.6c0,0,0.1-0.1,0.1-0.1
			l0.5-0.5l0.3-0.7l0.4-0.6l0.3-0.7c0.1-0.2,0.4-0.3,0.7-0.2s0.3,0.4,0.2,0.7l-0.4,0.8l-0.4,0.6l-0.3,0.7c0,0-0.1,0.1-0.1,0.1
			l-0.5,0.5l-0.7,1.4l-0.2,0.5L29,34.5C28.9,34.7,28.7,34.8,28.6,34.8z"/>
	</g>
	<g>
		<path class="st0" d="M28,52.9C28,52.9,28,52.9,28,52.9c-0.3,0-0.5-0.3-0.5-0.5l0.6-6l0.8-5.9l2.3-11.7c0.1-0.3,0.3-0.4,0.6-0.4
			c0.3,0.1,0.4,0.3,0.4,0.6l-2.3,11.7l-0.7,5.8l-0.6,6C28.5,52.7,28.2,52.9,28,52.9z"/>
	</g>
	<g>
		<path class="st0" d="M31.6,29.3c-0.2,0-0.3-0.1-0.4-0.2c-0.1-0.2-0.1-0.5,0.2-0.7l14.3-8.3c0.2-0.1,0.5-0.1,0.7,0.2
			c0.1,0.2,0.1,0.5-0.2,0.7l-14.3,8.3C31.7,29.3,31.7,29.3,31.6,29.3z"/>
	</g>
	<g>
		<path class="st0" d="M48.9,22.9c-0.1,0-0.2,0-0.3-0.1l-3-1.9c-0.2-0.1-0.3-0.5-0.2-0.7c0.1-0.2,0.5-0.3,0.7-0.2l3,1.9
			c0.2,0.1,0.3,0.5,0.2,0.7C49.2,22.9,49.1,22.9,48.9,22.9z"/>
	</g>
	<g>
		<path class="st0" d="M47.4,23.7c-0.2,0-0.4-0.1-0.4-0.3c-0.1-0.2,0-0.5,0.2-0.7l1.5-0.8c0.2-0.1,0.5,0,0.7,0.2
			c0.1,0.2,0,0.5-0.2,0.7l-1.5,0.8C47.5,23.7,47.5,23.7,47.4,23.7z"/>
	</g>
	<g>
		<path class="st0" d="M50.2,25.4c-0.1,0-0.2,0-0.3-0.1l-2.8-1.7c-0.2-0.1-0.3-0.4-0.2-0.7c0.1-0.2,0.4-0.3,0.7-0.2l2.8,1.7
			c0.2,0.1,0.3,0.4,0.2,0.7C50.6,25.3,50.4,25.4,50.2,25.4z"/>
	</g>
	<g>
		<path class="st0" d="M134,149.7c-0.3,0-0.5-0.2-0.5-0.5V139c0-0.3,0.2-0.5,0.5-0.5s0.5,0.2,0.5,0.5v10.2
			C134.5,149.5,134.3,149.7,134,149.7z"/>
	</g>
	<g>
		<path class="st0" d="M128.2,158.5h-1.5l-1.8-0.2c0,0-0.1,0-0.1,0l-1.7-0.6l-1.9-1c-0.2-0.1-0.3-0.4-0.2-0.7
			c0.1-0.2,0.4-0.3,0.7-0.2l1.9,0.9l1.6,0.5l1.6,0.2l1.4,0l1.4-0.3l1.1-0.7l1.1-1.1l0.8-1.2l0.5-1.4l0.4-1.6l0.2-2
			c0-0.3,0.3-0.5,0.5-0.5c0.3,0,0.5,0.3,0.5,0.5l-0.2,2.1l-0.4,1.8l-0.6,1.6c0,0,0,0.1-0.1,0.1l-0.9,1.3l-1.2,1.2l-1.2,0.8
			c0,0-0.1,0.1-0.2,0.1l-1.5,0.4C128.3,158.5,128.2,158.5,128.2,158.5z"/>
	</g>
	<g>
		<path class="st0" d="M121.4,156.8c-0.1,0-0.2,0-0.3-0.1l-12.6-7.3c-0.2-0.1-0.3-0.4-0.2-0.7c0.1-0.2,0.4-0.3,0.7-0.2l12.6,7.3
			c0.2,0.1,0.3,0.4,0.2,0.7C121.7,156.7,121.6,156.8,121.4,156.8z"/>
	</g>
	<g>
		<path class="st0" d="M108.8,149.5c-0.3,0-0.5-0.2-0.5-0.5v-3.8c0-0.3,0.2-0.5,0.5-0.5s0.5,0.2,0.5,0.5v3.8
			C109.3,149.3,109.1,149.5,108.8,149.5z"/>
	</g>
	<g>
		<path class="st0" d="M143.2,144.2c-0.3,0-0.5-0.2-0.5-0.5v-10c0-0.3,0.2-0.5,0.5-0.5s0.5,0.2,0.5,0.5v10
			C143.7,144,143.5,144.2,143.2,144.2z"/>
	</g>
	<g>
		<path class="st0" d="M134,149.7c-0.2,0-0.3-0.1-0.4-0.2c-0.1-0.2-0.1-0.5,0.2-0.7l9.2-5.5c0.2-0.1,0.5-0.1,0.7,0.2
			c0.1,0.2,0.1,0.5-0.2,0.7l-9.2,5.5C134.2,149.7,134.1,149.7,134,149.7z"/>
	</g>
	<g>
		<path class="st0" d="M51.5,27.8c-0.2,0-0.3-0.1-0.4-0.2C51,27.3,51,27,51.3,26.9l8.1-4.7c0.2-0.1,0.5-0.1,0.7,0.2
			c0.1,0.2,0.1,0.5-0.2,0.7l-8.1,4.7C51.7,27.8,51.6,27.8,51.5,27.8z"/>
	</g>
	<g>
		<path class="st0" d="M53.2,22.9c-0.2,0-0.3-0.1-0.4-0.2c-0.1-0.2-0.1-0.5,0.2-0.7l5.8-3.4c0.2-0.1,0.5-0.1,0.7,0.2
			c0.1,0.2,0.1,0.5-0.2,0.7l-5.8,3.4C53.4,22.9,53.3,22.9,53.2,22.9z"/>
	</g>
	<g>
		<path class="st0" d="M63.2,20.1h-0.8c0,0-0.1,0-0.1,0l-0.7-0.2h-0.9c0,0-0.1,0-0.1,0L59,19.5c-0.3-0.1-0.4-0.3-0.4-0.6
			c0.1-0.3,0.3-0.4,0.6-0.4l1.7,0.4h0.9c0,0,0.1,0,0.1,0l0.7,0.2h0.6l0.7-0.2c0,0,0.1,0,0.1,0h0.7l0.7-0.2c0.3-0.1,0.5,0.1,0.6,0.4
			c0.1,0.3-0.1,0.5-0.4,0.6l-0.8,0.2c0,0-0.1,0-0.1,0H64l-0.7,0.2C63.3,20.1,63.3,20.1,63.2,20.1z"/>
	</g>
	<g>
		<path class="st0" d="M55.9,18.4C55.9,18.4,55.8,18.4,55.9,18.4c-0.3,0-0.5-0.3-0.5-0.5l0.4-7c0-0.3,0.3-0.5,0.5-0.5
			c0.3,0,0.5,0.2,0.5,0.5l-0.4,7C56.4,18.2,56.1,18.4,55.9,18.4z"/>
	</g>
	<g>
		<path class="st0" d="M56.2,11.5c0,0-0.1,0-0.1,0c-0.3-0.1-0.4-0.3-0.4-0.6l0.4-1.5c0-0.1,0-0.1,0.1-0.2l0.4-0.6
			c0-0.1,0.1-0.1,0.1-0.1l0.6-0.4C57.4,8,57.5,8,57.6,8h1.9c0.1,0,0.2,0,0.2,0.1l0.8,0.4c0.2,0.1,0.3,0.4,0.2,0.7
			c-0.1,0.2-0.4,0.3-0.7,0.2L59.3,9h-1.6l-0.4,0.2l-0.3,0.4l-0.4,1.4C56.7,11.3,56.5,11.5,56.2,11.5z"/>
	</g>
	<g>
		<path class="st0" d="M76.8,19c-0.1,0-0.2,0-0.2-0.1L59.9,9.3c-0.2-0.1-0.3-0.4-0.2-0.7c0.1-0.2,0.4-0.3,0.7-0.2L77,18
			c0.2,0.1,0.3,0.4,0.2,0.7C77.1,18.9,76.9,19,76.8,19z"/>
	</g>
	<g>
		<path class="st0" d="M58.5,19.9c-0.1,0-0.2,0-0.2-0.1l-2.6-1.5c-0.2-0.1-0.3-0.4-0.2-0.7c0.1-0.2,0.4-0.3,0.7-0.2l2.6,1.5
			c0.2,0.1,0.3,0.4,0.2,0.7C58.8,19.8,58.7,19.9,58.5,19.9z"/>
	</g>
	<g>
		<path class="st0" d="M61.5,16.7h-0.6c-0.1,0-0.2,0-0.2-0.1l-1.5-0.8c-0.1,0-0.1-0.1-0.2-0.1L58.5,15c0,0,0-0.1-0.1-0.1L57.7,13
			c0-0.1,0-0.1,0-0.2v-0.8c0,0,0-0.1,0-0.1l0.2-0.8c0-0.1,0.1-0.2,0.1-0.2l0.4-0.4c0.1-0.1,0.1-0.1,0.2-0.1l0.6-0.2
			c0.1,0,0.2,0,0.3,0l0.6,0.2l0.8,0.4c0,0,0.1,0.1,0.1,0.1l0.6,0.6l0.6,0.8c0,0,0,0.1,0.1,0.1l0.4,0.9l0.2,1l0,0.8
			c0,0.1,0,0.2-0.1,0.3l-0.4,0.6l-0.4,0.5C61.8,16.7,61.6,16.7,61.5,16.7z M61.1,15.7h0.2l0.2-0.2l0.2-0.4v-0.6l-0.2-0.8l-0.3-0.8
			l-0.5-0.7l-0.5-0.5l-0.7-0.3l-0.3-0.1L59,11.4l-0.2,0.2l-0.1,0.6v0.6l0.7,1.7l0.5,0.6L61.1,15.7z"/>
	</g>
	<g>
		<path class="st0" d="M60.2,9.4c-0.2,0-0.3-0.1-0.4-0.2c-0.1-0.2-0.1-0.5,0.2-0.7l5.8-3.4C66,4.9,66.3,5,66.5,5.2
			c0.1,0.2,0.1,0.5-0.2,0.7l-5.8,3.4C60.4,9.4,60.3,9.4,60.2,9.4z"/>
	</g>
	<g>
		<path class="st0" d="M82.6,15.6c-0.1,0-0.2,0-0.2-0.1L65.8,5.9c-0.2-0.1-0.3-0.4-0.2-0.7C65.7,5,66,4.9,66.3,5.1l16.6,9.6
			c0.2,0.1,0.3,0.4,0.2,0.7C82.9,15.5,82.8,15.6,82.6,15.6z"/>
	</g>
	<g>
		<path class="st0" d="M139.7,152.3c-0.2,0-0.3-0.1-0.4-0.2c-0.2-0.2-0.1-0.5,0.1-0.7l0.6-0.4l1-0.9l0.7-1.2l0.5-1.6l0.4-1.6l0.2-2
			c0-0.3,0.3-0.5,0.5-0.5c0.3,0,0.5,0.3,0.5,0.5l-0.2,2.1l-0.4,1.8l-0.6,1.7l-0.8,1.4c0,0.1-0.1,0.1-0.1,0.1l-1.1,0.9l-0.6,0.4
			C139.9,152.3,139.8,152.3,139.7,152.3z"/>
	</g>
	<g>
		<path class="st0" d="M96.9,152.5c-0.2,0-0.3-0.1-0.4-0.3c-0.1-0.2-0.1-0.5,0.2-0.7l11.5-6.6c0.2-0.1,0.5-0.1,0.7,0.2
			c0.1,0.2,0.1,0.5-0.2,0.7l-11.5,6.6C97.1,152.5,97,152.5,96.9,152.5z"/>
	</g>
	<g>
		<path class="st0" d="M96.9,152.5c-0.3,0-0.5-0.2-0.5-0.5v-6c0-0.3,0.2-0.5,0.5-0.5s0.5,0.2,0.5,0.5v6
			C97.4,152.3,97.2,152.5,96.9,152.5z"/>
	</g>
	<g>
		<path class="st0" d="M96.9,152.5c-0.1,0-0.2,0-0.3-0.1l-5.8-3.6c-0.2-0.1-0.3-0.5-0.2-0.7c0.1-0.2,0.5-0.3,0.7-0.2l5.8,3.6
			c0.2,0.1,0.3,0.5,0.2,0.7C97.3,152.4,97.1,152.5,96.9,152.5z"/>
	</g>
	<g>
		<path class="st0" d="M91.1,148.9c-0.3,0-0.5-0.2-0.5-0.5v-2.3c0-0.3,0.2-0.5,0.5-0.5s0.5,0.2,0.5,0.5v2.3
			C91.6,148.7,91.4,148.9,91.1,148.9z"/>
	</g>
	<g>
		<path class="st0" d="M28.6,34.8c-0.2,0-0.4-0.1-0.4-0.3l-0.6-1.1c0,0,0-0.1,0-0.2l-0.4-2.4c0-0.1,0-0.2,0-0.3l0.4-0.9l0.4-0.8
			c0,0,0.1-0.1,0.1-0.1l0.6-0.6c0.1-0.1,0.1-0.1,0.2-0.1l0.8-0.2c0.1,0,0.1,0,0.2,0l0.9,0.2l1,0.4c0.3,0.1,0.4,0.4,0.3,0.6
			c-0.1,0.3-0.4,0.4-0.6,0.3l-0.9-0.4l-0.7-0.1l-0.5,0.1l-0.4,0.4L28.4,30l-0.3,0.8l0.3,2.2l0.5,1.1c0.1,0.2,0,0.5-0.2,0.7
			C28.7,34.8,28.6,34.8,28.6,34.8z"/>
	</g>
	<g>
		<path class="st0" d="M45.9,21.1c-0.1,0-0.1,0-0.2,0l-0.9-0.3h-0.8l-0.7,0.2c0,0-0.1,0-0.1,0h-0.2c-0.3,0-0.5-0.2-0.5-0.5
			s0.2-0.5,0.5-0.5h0.1l0.7-0.2c0,0,0.1,0,0.1,0h0.9c0.1,0,0.1,0,0.2,0l0.9,0.4c0.3,0.1,0.4,0.4,0.3,0.6
			C46.3,20.9,46.1,21.1,45.9,21.1z"/>
	</g>
	<g>
		<path class="st0" d="M66,6c-0.1,0-0.2,0-0.2-0.1l-0.8-0.4l-0.4-0.1H64l-0.2,0.1c-0.1,0.2-0.3,0.3-0.5,0.3c-0.3,0-0.5-0.2-0.5-0.5
			V5.1c0-0.2,0.1-0.4,0.3-0.5l0.6-0.2c0.1,0,0.1,0,0.2,0h0.8c0.1,0,0.1,0,0.2,0l0.6,0.2L66.3,5c0.2,0.1,0.3,0.4,0.2,0.7
			C66.4,5.9,66.2,6,66,6z"/>
	</g>
	<g>
		<path class="st0" d="M90,149.1C89.9,149.1,89.9,149.1,90,149.1l-2-0.4c0,0-0.1,0-0.1,0l-0.8-0.4l-0.6-0.4c-0.1,0-0.1-0.1-0.1-0.1
			l-0.4-0.6c0,0,0-0.1-0.1-0.1l-0.2-0.6c0-0.1,0-0.1,0-0.2v-0.2c0-0.3,0.2-0.5,0.5-0.5s0.5,0.2,0.5,0.5v0.1l0.1,0.4l0.3,0.4l0.5,0.3
			l0.6,0.3l1.7,0.3l1-0.2c0.3,0,0.5,0.1,0.6,0.4c0,0.3-0.1,0.5-0.4,0.6L90,149.1C90,149.1,90,149.1,90,149.1z"/>
	</g>
	<g>
		<path class="st0" d="M51.7,24.3c-0.1,0-0.3,0-0.4-0.1c-0.2-0.2-0.2-0.5,0-0.7l0-0.1l0-0.1L51,23.1c-0.3-0.1-0.4-0.4-0.3-0.6
			c0.1-0.3,0.4-0.4,0.6-0.3l0.6,0.2c0.1,0,0.2,0.1,0.3,0.3l0.2,0.4c0,0.1,0.1,0.1,0.1,0.2v0.4c0,0.1-0.1,0.3-0.1,0.4l-0.2,0.2
			C52,24.2,51.9,24.3,51.7,24.3z"/>
	</g>
	<g>
		<path class="st0" d="M51.2,23.1c-0.1,0-0.2,0-0.3-0.1l-1.7-1.1c-0.2-0.2-0.3-0.5-0.1-0.7c0.2-0.2,0.5-0.3,0.7-0.1l1.7,1.1
			c0.2,0.2,0.3,0.5,0.1,0.7C51.5,23,51.3,23.1,51.2,23.1z"/>
	</g>
	<g>
		<path class="st0" d="M49.5,22c-0.2,0-0.3-0.1-0.4-0.3c-0.1-0.2,0-0.5,0.2-0.7l6.4-3.6c0.2-0.1,0.5,0,0.7,0.2s0,0.5-0.2,0.7
			l-6.4,3.6C49.6,22,49.5,22,49.5,22z"/>
	</g>
	<g>
		<path class="st0" d="M50.4,25.2c-0.1,0-0.3,0-0.4-0.1c-0.2-0.2-0.2-0.5,0-0.7l0.2-0.2v-1.3c0-0.3,0.2-0.5,0.5-0.5s0.5,0.2,0.5,0.5
			v1.5c0,0.1-0.1,0.3-0.1,0.4l-0.4,0.4C50.7,25.1,50.5,25.2,50.4,25.2z"/>
	</g>
	<g>
		<path class="st0" d="M50.8,23.3c-0.1,0-0.3,0-0.4-0.1c-0.2-0.2-0.2-0.5,0-0.7l0.2-0.2c0.1-0.1,0.2-0.1,0.4-0.1h0.2
			c0.3,0,0.5,0.2,0.5,0.5c0,0.3-0.2,0.5-0.5,0.5l0,0C51,23.3,50.9,23.3,50.8,23.3z"/>
	</g>
	<g>
		<path class="st0" d="M48.1,23.7h-0.8c-0.3,0-0.5-0.2-0.5-0.5s0.2-0.5,0.5-0.5H48l0.3-0.1c0.1,0,0.1-0.1,0.2-0.1h0.1l0.2-0.1
			c0-0.1,0.1-0.2,0.1-0.3l0.2-0.2c0.2-0.2,0.5-0.2,0.7,0s0.2,0.5,0,0.7l0,0c0,0.1-0.1,0.2-0.1,0.3l-0.2,0.2c0,0-0.1,0.1-0.1,0.1
			l-0.4,0.2c-0.1,0-0.1,0.1-0.2,0.1h-0.1l-0.3,0.1C48.3,23.7,48.2,23.7,48.1,23.7z"/>
	</g>
	<g>
		<path class="st0" d="M50.8,23.3c-0.1,0-0.2,0-0.2-0.1l-1.3-0.8c-0.2-0.1-0.3-0.4-0.2-0.7c0.1-0.2,0.4-0.3,0.7-0.2l1.3,0.8
			c0.2,0.1,0.3,0.4,0.2,0.7C51.1,23.2,51,23.3,50.8,23.3z"/>
	</g>
	<g>
		<path class="st0" d="M49.5,22.8c-0.3,0-0.5-0.2-0.5-0.5v-0.2c0-0.3,0.2-0.5,0.5-0.5s0.5,0.2,0.5,0.5v0.2
			C50,22.5,49.7,22.8,49.5,22.8z"/>
	</g>
	<g>
		<path class="st0" d="M49.5,22.6c-0.3,0-0.5-0.2-0.5-0.5v-0.6c0-0.3,0.2-0.5,0.5-0.5s0.5,0.2,0.5,0.5v0.6
			C50,22.3,49.7,22.6,49.5,22.6z"/>
	</g>
	<g>
		<path class="st0" d="M49.3,22.9h-0.4c-0.3,0-0.5-0.2-0.5-0.5s0.2-0.5,0.5-0.5h0.4c0.3,0,0.5,0.2,0.5,0.5S49.5,22.9,49.3,22.9z"/>
	</g>
	<g>
		<path class="st0" d="M6.5,78.1c-0.3,0-0.5-0.2-0.5-0.5v-0.2c0-0.1,0-0.1,0-0.2L7,74.8l1.1-2.3l1.5-2.1l1.5-1.9c0,0,0-0.1,0.1-0.1
			l1.9-1.5l1.3-1c0.2-0.2,0.5-0.1,0.7,0.1c0.2,0.2,0.1,0.5-0.1,0.7l-1.3,0.9L12,69.1L10.5,71L9,73l-1.1,2.2L7,77.6
			C7,77.9,6.8,78.1,6.5,78.1z"/>
	</g>
	<g>
		<path class="st0" d="M53.4,154l-2.7-0.4l-0.8-0.2c-0.3-0.1-0.4-0.3-0.4-0.6c0.1-0.3,0.3-0.4,0.6-0.4l0.8,0.2l2.6,0.4l2.6,0
			l2.4-0.2l2.2-0.6l2.2-0.7l0.9-0.5c0.2-0.1,0.5-0.1,0.7,0.2c0.1,0.2,0.1,0.5-0.2,0.7l-0.9,0.6c0,0-0.1,0-0.1,0l-2.3,0.8l-2.3,0.6
			l-2.5,0.2L53.4,154z"/>
	</g>
	<g>
		<path class="st0" d="M138.9,74.5c-0.1,0-0.2,0-0.2-0.1l-4-2.3c-0.2-0.1-0.3-0.4-0.2-0.7c0.1-0.2,0.4-0.3,0.7-0.2l4,2.3
			c0.2,0.1,0.3,0.4,0.2,0.7C139.3,74.4,139.1,74.5,138.9,74.5z"/>
	</g>
	<g>
		<path class="st0" d="M142.1,83.8c-0.1,0-0.2,0-0.2-0.1c-0.2-0.1-0.3-0.4-0.2-0.7l0.4-0.8l0.3-0.8v-1l-0.2-1l-0.5-1.3l-0.6-1.1
			l-0.7-1.1l-0.9-0.9l-0.9-0.7c-0.2-0.2-0.3-0.5-0.1-0.7c0.2-0.2,0.5-0.2,0.7-0.1l0.9,0.8l1,1l0.8,1.2l0.6,1.2l0.6,1.3
			c0,0,0,0.1,0,0.1l0.2,1.1l0,1.2c0,0.1,0,0.1,0,0.2l-0.4,0.9l-0.4,0.8C142.5,83.7,142.3,83.8,142.1,83.8z"/>
	</g>
	<g>
		<path class="st0" d="M141.4,132.2c-0.1,0-0.2,0-0.2-0.1c-0.2-0.1-0.3-0.4-0.2-0.7l1.5-3l1.1-3.3l1.5-7.1l0.4-3.9l0.2-4.1l0-4.1
			l-0.4-4.3l-0.6-4.5l-0.8-4.5l-2.3-9.2c-0.1-0.3,0.1-0.5,0.4-0.6c0.3-0.1,0.5,0.1,0.6,0.4l2.3,9.2l0.8,4.6l0.6,4.5l0.4,4.3l0,4.2
			l-0.2,4.2l-0.4,4l-1.5,7.2l-1.1,3.4l-1.5,3.1C141.7,132.1,141.5,132.2,141.4,132.2z"/>
	</g>
	<g>
		<path class="st0" d="M141.4,133.3c-0.3,0-0.5-0.2-0.5-0.5v-1.1c0-0.3,0.2-0.5,0.5-0.5s0.5,0.2,0.5,0.5v1.1
			C141.9,133.1,141.6,133.3,141.4,133.3z"/>
	</g>
	<g>
		<path class="st0" d="M140.2,135.9c-0.2,0-0.3-0.1-0.4-0.2c-0.2-0.2-0.1-0.5,0.1-0.7l0.5-0.3l0.3-0.4l0.2-0.6v-0.9
			c0-0.3,0.2-0.5,0.5-0.5s0.5,0.2,0.5,0.5v0.9c0,0,0,0.1,0,0.1l-0.2,0.8c0,0.1,0,0.1-0.1,0.2l-0.4,0.6c0,0.1-0.1,0.1-0.1,0.1
			l-0.6,0.4C140.4,135.9,140.3,135.9,140.2,135.9z"/>
	</g>
	<g>
		<path class="st0" d="M130.1,20.1h-0.6c-0.3,0-0.5-0.2-0.5-0.5s0.2-0.5,0.5-0.5h0.6c0.3,0,0.5,0.2,0.5,0.5S130.3,20.1,130.1,20.1z"
			/>
	</g>
	<g>
		<path class="st0" d="M141.9,26.3C141.9,26.3,141.9,26.3,141.9,26.3l-2.2-0.4l-2.5-0.8l-2.3-0.8l-2.6-0.9l-1.3-0.6l-1.9-1
			c-0.1,0-0.1-0.1-0.2-0.2l-0.4-0.6l-0.2-0.4c-0.1-0.2-0.1-0.4,0.1-0.6l0.2-0.2c0.2-0.2,0.5-0.2,0.7,0c0.2,0.2,0.2,0.4,0.1,0.6
			l0,0.1l0.3,0.4l1.8,0.9l1.3,0.6l2.6,0.9l2.2,0.7L140,25l2,0.4c0.3,0,0.5,0.3,0.4,0.6C142.4,26.2,142.2,26.3,141.9,26.3z"/>
	</g>
	<g>
		<path class="st0" d="M143.1,26.5C143,26.5,143,26.5,143.1,26.5l-1.2-0.2c-0.3,0-0.5-0.3-0.4-0.6s0.3-0.5,0.6-0.4l1.1,0.2
			c0.3,0,0.5,0.3,0.4,0.6C143.5,26.3,143.3,26.5,143.1,26.5z"/>
	</g>
	<g>
		<path class="st0" d="M144.9,29c-0.1,0-0.3-0.1-0.4-0.2l-1.9-2.4c-0.2-0.2-0.1-0.5,0.1-0.7c0.2-0.2,0.5-0.1,0.7,0.1l1.9,2.4
			c0.2,0.2,0.1,0.5-0.1,0.7C145.2,28.9,145,29,144.9,29z"/>
	</g>
	<g>
		<path class="st0" d="M148.7,31.4c-0.1,0-0.2,0-0.2-0.1l-1.1-0.6l-0.9-0.4c0,0-0.1,0-0.1,0l-0.6-0.4l-1.2-1.2
			c-0.2-0.2-0.2-0.5,0-0.7c0.2-0.2,0.5-0.2,0.7,0l1.1,1.1l0.4,0.3l0.9,0.4l1.2,0.6c0.2,0.1,0.3,0.4,0.2,0.7
			C149.1,31.3,148.9,31.4,148.7,31.4z"/>
	</g>
	<g>
		<path class="st0" d="M155.3,34c-0.1,0-0.1,0-0.2,0l-3.2-1.5l-3.3-1.1c-0.3-0.1-0.4-0.4-0.3-0.6c0.1-0.3,0.4-0.4,0.6-0.3l3.4,1.1
			l3.3,1.5c0.2,0.1,0.4,0.4,0.2,0.7C155.7,33.9,155.5,34,155.3,34z"/>
	</g>
	<g>
		<path class="st0" d="M157.2,35.7c-0.1,0-0.3,0-0.4-0.1l-1.1-1.1l-0.7-0.5c-0.2-0.2-0.3-0.5-0.1-0.7c0.2-0.2,0.5-0.3,0.7-0.1
			l0.8,0.6l1.2,1.2c0.2,0.2,0.2,0.5,0,0.7C157.4,35.7,157.3,35.7,157.2,35.7z"/>
	</g>
	<g>
		<path class="st0" d="M164.7,62.7c0,0-0.1,0-0.1,0c-0.3-0.1-0.4-0.3-0.4-0.6l0.4-1.5l0.2-3.1l-0.4-3.5l-0.7-3.7l-1.1-3.7l-1.5-3.9
			l-2-3.5l-2.2-3.6c-0.1-0.2-0.1-0.5,0.2-0.7c0.2-0.1,0.5-0.1,0.7,0.2l2.3,3.6l2.1,3.6l1.5,4l1.1,3.8l0.8,3.8l0.4,3.6l-0.2,3.3
			l-0.4,1.6C165.1,62.5,164.9,62.7,164.7,62.7z"/>
	</g>
	<g>
		<path class="st0" d="M138.9,74.5c-0.2,0-0.3-0.1-0.4-0.2c-0.1-0.2-0.1-0.5,0.2-0.7l4.1-2.4c0.2-0.1,0.5-0.1,0.7,0.2
			c0.1,0.2,0.1,0.5-0.2,0.7l-4.1,2.4C139.1,74.5,139,74.5,138.9,74.5z"/>
	</g>
	<g>
		<path class="st0" d="M146.1,81.3c-0.1,0-0.2,0-0.3-0.1c-0.2-0.2-0.3-0.5-0.1-0.7l0.5-0.7l0.3-0.8v-0.8l-0.2-1.2l-0.5-1.3l-0.6-1.1
			l-0.7-1.1l-0.9-0.9l-0.9-0.7c-0.2-0.2-0.3-0.5-0.1-0.7c0.2-0.2,0.5-0.2,0.7-0.1l0.9,0.8l1,1l0.8,1.2l0.6,1.2l0.6,1.3
			c0,0,0,0.1,0,0.1l0.2,1.3l0,1c0,0.1,0,0.1,0,0.2l-0.4,0.9c0,0,0,0.1-0.1,0.1l-0.6,0.8C146.4,81.2,146.2,81.3,146.1,81.3z"/>
	</g>
	<g>
		<path class="st0" d="M142.1,83.8c-0.2,0-0.3-0.1-0.4-0.2c-0.1-0.2-0.1-0.5,0.2-0.7l4-2.4c0.2-0.1,0.5-0.1,0.7,0.2
			c0.1,0.2,0.1,0.5-0.2,0.7l-4,2.4C142.3,83.7,142.2,83.8,142.1,83.8z"/>
	</g>
	<g>
		<path class="st0" d="M141.4,132.2c-0.2,0-0.3-0.1-0.4-0.3c-0.1-0.2,0-0.5,0.2-0.7l4.1-2.3c0.2-0.1,0.5,0,0.7,0.2
			c0.1,0.2,0,0.5-0.2,0.7l-4.1,2.3C141.5,132.1,141.4,132.2,141.4,132.2z"/>
	</g>
	<g>
		<path class="st0" d="M145.5,129.9c-0.1,0-0.1,0-0.2,0c-0.2-0.1-0.4-0.4-0.2-0.7l1.5-3.2l1.1-3.2l1.5-7.3l0.4-3.9l0.2-4.1l0-4.1
			l-0.4-4.3l-0.6-4.5l-0.8-4.5l-1.1-4.5l-1.3-4.7c-0.1-0.3,0.1-0.5,0.3-0.6c0.3-0.1,0.5,0.1,0.6,0.3l1.3,4.7l1.1,4.5l0.8,4.6
			l0.6,4.5l0.4,4.4l0,4.2l-0.2,4.2l-0.4,4l-1.5,7.4l-1.1,3.3l-1.5,3.2C145.9,129.8,145.7,129.9,145.5,129.9z"/>
	</g>
	<g>
		<path class="st0" d="M143.1,72.1c-0.1,0-0.2,0-0.2-0.1l-4-2.3c-0.2-0.1-0.3-0.4-0.2-0.7c0.1-0.2,0.4-0.3,0.7-0.2l4,2.3
			c0.2,0.1,0.3,0.4,0.2,0.7C143.4,72,143.2,72.1,143.1,72.1z"/>
	</g>
	<g>
		<path class="st0" d="M141.4,133.3c-0.2,0-0.3-0.1-0.4-0.3c-0.1-0.2,0-0.5,0.2-0.7l4.1-2.3c0.2-0.1,0.5,0,0.7,0.2
			c0.1,0.2,0,0.5-0.2,0.7l-4.1,2.3C141.5,133.3,141.4,133.3,141.4,133.3z"/>
	</g>
	<g>
		<path class="st0" d="M145.5,131c-0.3,0-0.5-0.2-0.5-0.5v-1.1c0-0.3,0.2-0.5,0.5-0.5s0.5,0.2,0.5,0.5v1.1
			C146,130.8,145.8,131,145.5,131z"/>
	</g>
	<g>
		<path class="st0" d="M144.4,133.5c-0.2,0-0.3-0.1-0.4-0.2c-0.2-0.2-0.1-0.5,0.1-0.7l0.5-0.3l0.3-0.4l0.2-0.6v-0.7
			c0-0.3,0.2-0.5,0.5-0.5s0.5,0.2,0.5,0.5v0.8c0,0,0,0.1,0,0.1l-0.2,0.8c0,0.1,0,0.1-0.1,0.2l-0.4,0.6c0,0.1-0.1,0.1-0.1,0.1
			l-0.6,0.4C144.6,133.5,144.5,133.5,144.4,133.5z"/>
	</g>
	<g>
		<path class="st0" d="M46.1,21.1c-0.1,0-0.2,0-0.3-0.1L45,20.5h-0.7l-0.6,0.1l-0.1,0.1c-0.2,0.2-0.5,0.2-0.7,0s-0.2-0.5,0-0.7
			l0.2-0.2c0.1-0.1,0.1-0.1,0.2-0.1l0.8-0.2c0,0,0.1,0,0.1,0h0.9c0.1,0,0.2,0,0.3,0.1l0.9,0.6c0.2,0.1,0.3,0.4,0.2,0.7
			C46.4,21,46.2,21.1,46.1,21.1z"/>
	</g>
	<g>
		<path class="st0" d="M49.3,22.9c-0.1,0-0.2,0-0.3-0.1L45.8,21c-0.2-0.1-0.3-0.4-0.2-0.7c0.1-0.2,0.4-0.3,0.7-0.2l3.2,1.9
			c0.2,0.1,0.3,0.4,0.2,0.7C49.6,22.9,49.4,22.9,49.3,22.9z"/>
	</g>
	<g>
		<path class="st0" d="M141.9,26.3c-0.2,0-0.3-0.1-0.4-0.3c-0.1-0.2-0.1-0.5,0.2-0.7l28.2-16.2c0.2-0.1,0.5-0.1,0.7,0.2
			c0.1,0.2,0.1,0.5-0.2,0.7l-28.2,16.2C142.1,26.3,142,26.3,141.9,26.3z"/>
	</g>
	<g>
		<path class="st0" d="M170.2,10.1c-0.2,0-0.5-0.2-0.5-0.4l-0.4-2.6l-0.5-1.3L168,4.6l-0.9-1.1l-0.9-0.9l-1.9-1.2l-0.9-0.2l-0.6,0.1
			l-0.3,0.2c-0.2,0.1-0.5,0-0.7-0.2c-0.1-0.2,0-0.5,0.2-0.7l0.4-0.2c0,0,0.1,0,0.1,0l0.8-0.2c0.1,0,0.1,0,0.2,0l1.1,0.2
			c0.1,0,0.1,0,0.2,0.1l0.9,0.6l1.2,0.8l1,1l1,1.2l0.8,1.4l0.6,1.4c0,0,0,0.1,0,0.1l0.4,2.6C170.7,9.8,170.5,10.1,170.2,10.1
			C170.2,10.1,170.2,10.1,170.2,10.1z"/>
	</g>
	<g>
		<path class="st0" d="M46.1,21.1c-0.2,0-0.3-0.1-0.4-0.2c-0.1-0.2-0.1-0.5,0.2-0.7l4.1-2.4c0.2-0.1,0.5-0.1,0.7,0.2
			c0.1,0.2,0.1,0.5-0.2,0.7L46.3,21C46.2,21,46.2,21.1,46.1,21.1z"/>
	</g>
	<g>
		<path class="st0" d="M52.9,20.1c-0.1,0-0.2,0-0.2-0.1L50,18.5c-0.2-0.1-0.3-0.4-0.2-0.7c0.1-0.2,0.4-0.3,0.7-0.2l2.6,1.5
			c0.2,0.1,0.3,0.4,0.2,0.7C53.2,20,53,20.1,52.9,20.1z"/>
	</g>
	<g>
		<path class="st0" d="M148.7,31.4c-0.2,0-0.3-0.1-0.4-0.2c-0.1-0.2-0.1-0.5,0.2-0.7l28.2-16.4c0.2-0.1,0.5-0.1,0.7,0.2
			c0.1,0.2,0.1,0.5-0.2,0.7L149,31.3C148.9,31.4,148.8,31.4,148.7,31.4z"/>
	</g>
	<g>
		<path class="st0" d="M144.9,29c-0.2,0-0.3-0.1-0.4-0.3c-0.1-0.2-0.1-0.5,0.2-0.7l26.9-15.4c0.2-0.1,0.5-0.1,0.7,0.2
			c0.1,0.2,0.1,0.5-0.2,0.7l-26.9,15.4C145.1,28.9,145,29,144.9,29z"/>
	</g>
	<g>
		<path class="st0" d="M172.2,13.9c-0.1,0-0.3,0-0.4-0.1l0,0c-0.3,0-0.5-0.2-0.5-0.5V13c0-0.3,0.2-0.5,0.5-0.5
			c0.2,0,0.3,0.1,0.4,0.3c0,0,0.1,0,0.1,0.1l0.2,0.2c0.2,0.2,0.2,0.5,0,0.7C172.5,13.8,172.4,13.9,172.2,13.9z"/>
	</g>
	<g>
		<path class="st0" d="M172.2,13.9c-0.2,0-0.3-0.1-0.4-0.2c-0.1-0.2-0.1-0.5,0.2-0.7l3.2-1.9c0.2-0.1,0.5-0.1,0.7,0.2
			c0.1,0.2,0.1,0.5-0.2,0.7l-3.2,1.9C172.4,13.9,172.3,13.9,172.2,13.9z"/>
	</g>
	<g>
		<path class="st0" d="M177,15c-0.3,0-0.5-0.2-0.5-0.5v-0.3l-0.1-0.3c0-0.1-0.1-0.1-0.1-0.2v-0.3l-0.3-0.6l-0.3-0.3
			c0,0-0.1-0.1-0.1-0.1l-0.2-0.3l-0.3-0.3c-0.2-0.2-0.2-0.5,0-0.7c0.2-0.2,0.5-0.2,0.7,0l0.4,0.4c0,0,0.1,0.1,0.1,0.1l0.2,0.3
			l0.3,0.3c0,0,0.1,0.1,0.1,0.1l0.4,0.8c0,0.1,0.1,0.1,0.1,0.2v0.3l0.1,0.3c0,0.1,0.1,0.1,0.1,0.2v0.4C177.5,14.8,177.2,15,177,15z"
			/>
	</g>
	<g>
		<path class="st0" d="M143.1,26.5c-0.2,0-0.3-0.1-0.4-0.3c-0.1-0.2-0.1-0.5,0.2-0.7l25.6-14.7c0.2-0.1,0.5-0.1,0.7,0.2
			c0.1,0.2,0.1,0.5-0.2,0.7l-25.6,14.7C143.2,26.5,143.1,26.5,143.1,26.5z"/>
	</g>
	<g>
		<path class="st0" d="M171.9,13.5c-0.1,0-0.2,0-0.2-0.1l-3.2-1.7c-0.2-0.1-0.3-0.4-0.2-0.7c0.1-0.2,0.4-0.3,0.7-0.2l3.2,1.7
			c0.2,0.1,0.3,0.4,0.2,0.7C172.2,13.4,172,13.5,171.9,13.5z"/>
	</g>
	<g>
		<path class="st0" d="M177,21.6c-0.3,0-0.5-0.2-0.5-0.5v-6.6c0-0.3,0.2-0.5,0.5-0.5s0.5,0.2,0.5,0.5v6.6
			C177.5,21.4,177.2,21.6,177,21.6z"/>
	</g>
	<g>
		<path class="st0" d="M155.3,34c-0.2,0-0.3-0.1-0.4-0.3c-0.1-0.2-0.1-0.5,0.2-0.7l21.7-12.4c0.2-0.1,0.5-0.1,0.7,0.2
			c0.1,0.2,0.1,0.5-0.2,0.7L155.5,34C155.5,34,155.4,34,155.3,34z"/>
	</g>
	<g>
		<path class="st0" d="M170.2,10.9c-0.3,0-0.5-0.2-0.5-0.5V9.6c0-0.3,0.2-0.5,0.5-0.5s0.5,0.2,0.5,0.5v0.8
			C170.7,10.7,170.5,10.9,170.2,10.9z"/>
	</g>
	<g>
		<path class="st0" d="M168.7,11.8c-0.2,0-0.3-0.1-0.4-0.2c-0.1-0.2-0.1-0.5,0.2-0.7l1.5-0.9c0.2-0.1,0.5-0.1,0.7,0.2
			c0.1,0.2,0.1,0.5-0.2,0.7l-1.5,0.9C168.9,11.8,168.8,11.8,168.7,11.8z"/>
	</g>
	<g>
		<path class="st0" d="M157.2,35.7c-0.2,0-0.3-0.1-0.4-0.2c-0.1-0.2-0.1-0.5,0.2-0.7l20.5-11.9c0.2-0.1,0.5-0.1,0.7,0.2
			c0.1,0.2,0.1,0.5-0.2,0.7l-20.5,11.9C157.4,35.7,157.3,35.7,157.2,35.7z"/>
	</g>
	<g>
		<path class="st0" d="M178.6,25c-0.1,0-0.3,0-0.4-0.1l-0.4-0.4c-0.1-0.1-0.1-0.2-0.1-0.3l-0.4-0.4c-0.2-0.2-0.2-0.5,0-0.7
			s0.5-0.2,0.7,0l0.6,0.6c0.1,0.1,0.1,0.2,0.1,0.3l0.2,0.2c0.2,0.2,0.2,0.5,0,0.7C178.9,25,178.8,25,178.6,25z"/>
	</g>
	<g>
		<path class="st0" d="M169.2,30.5c-0.2,0-0.3-0.1-0.4-0.2c-0.1-0.2-0.1-0.5,0.2-0.7l9.4-5.5c0.2-0.1,0.5-0.1,0.7,0.2
			c0.1,0.2,0.1,0.5-0.2,0.7l-9.4,5.5C169.4,30.4,169.3,30.5,169.2,30.5z"/>
	</g>
	<g>
		<path class="st0" d="M172.8,36.5c-0.2,0-0.3-0.1-0.4-0.2l-0.6-0.8c0,0,0-0.1-0.1-0.1l-0.4-0.9l-1.1-2.2l-0.5-0.7l-0.4-0.8
			l-0.5-0.5c-0.2-0.2-0.2-0.5,0-0.7c0.2-0.2,0.5-0.2,0.7,0l0.6,0.6c0,0,0.1,0.1,0.1,0.1l0.4,0.8l0.5,0.7l1.2,2.3l0.4,0.9l0.5,0.7
			c0.2,0.2,0.1,0.5-0.1,0.7C173,36.5,172.9,36.5,172.8,36.5z"/>
	</g>
	<g>
		<path class="st0" d="M172.8,36.5c-0.2,0-0.3-0.1-0.4-0.2c-0.1-0.2-0.1-0.5,0.2-0.7l9.2-5.5c0.2-0.1,0.5-0.1,0.7,0.2
			c0.1,0.2,0.1,0.5-0.2,0.7l-9.2,5.5C173,36.5,172.9,36.5,172.8,36.5z"/>
	</g>
	<g>
		<path class="st0" d="M182,57.2c-0.1,0-0.3,0-0.4-0.1c-0.2-0.2-0.2-0.5,0-0.7l1.3-1.3l0.9-1.6l0.7-2l0.6-2l0.2-2.4l0-2.4l-0.2-2.8
			l-0.6-2.8l-0.7-2.8l-0.9-2.8l-1.3-2.8c-0.1-0.3,0-0.5,0.2-0.7c0.2-0.1,0.5,0,0.7,0.2l1.3,2.8l1,2.9l0.8,2.9l0.6,2.9l0.2,2.9l0,2.5
			l-0.2,2.5l-0.6,2.2l-0.8,2.1l-1,1.8c0,0-0.1,0.1-0.1,0.1l-1.3,1.3C182.3,57.2,182.2,57.2,182,57.2z"/>
	</g>
	<g>
		<path class="st0" d="M172.8,62.7c-0.2,0-0.3-0.1-0.4-0.2c-0.1-0.2-0.1-0.5,0.2-0.7l9.2-5.5c0.2-0.1,0.5-0.1,0.7,0.2
			c0.1,0.2,0.1,0.5-0.2,0.7l-9.2,5.5C173,62.7,172.9,62.7,172.8,62.7z"/>
	</g>
	<g>
		<path class="st0" d="M171.1,63.8c-0.2,0-0.4-0.1-0.4-0.3c-0.1-0.2,0-0.5,0.2-0.7l0.3-0.2l0.3-0.3c0,0,0.1-0.1,0.1-0.1l0.4-0.2
			l0.5-0.3c0.2-0.2,0.5-0.1,0.7,0.1c0.2,0.2,0.1,0.5-0.1,0.7l-0.9,0.6l-0.3,0.3c0,0-0.1,0.1-0.1,0.1l-0.4,0.2
			C171.3,63.8,171.2,63.8,171.1,63.8z"/>
	</g>
	<g>
		<path class="st0" d="M50.2,18.6c-0.1,0-0.1,0-0.2,0l-0.9-0.4l-0.7-0.1l-0.5,0.1l-0.1,0.1c-0.2,0.2-0.5,0.2-0.7,0s-0.2-0.5,0-0.7
			l0.2-0.2c0.1-0.1,0.1-0.1,0.2-0.1l0.8-0.2c0.1,0,0.1,0,0.2,0l0.9,0.2l1,0.4c0.3,0.1,0.4,0.4,0.3,0.6
			C50.6,18.5,50.4,18.6,50.2,18.6z"/>
	</g>
	<g>
		<path class="st0" d="M129.5,20.1c-0.2,0-0.3-0.1-0.4-0.2c-0.1-0.2-0.1-0.5,0.2-0.7L156,3.7c0.2-0.1,0.5-0.1,0.7,0.2
			c0.1,0.2,0.1,0.5-0.2,0.7L129.7,20C129.7,20.1,129.6,20.1,129.5,20.1z"/>
	</g>
	<g>
		<path class="st0" d="M156.6,4.9c-0.1,0-0.2,0-0.2-0.1L156,4.6c-0.2-0.1-0.3-0.4-0.2-0.7c0.1-0.2,0.4-0.3,0.7-0.2l0.4,0.2
			c0.2,0.1,0.3,0.4,0.2,0.7C157,4.8,156.8,4.9,156.6,4.9z"/>
	</g>
	<g>
		<path class="st0" d="M177.7,23.9c-0.1,0-0.3,0-0.4-0.1l-0.2-0.2c-0.1-0.1-0.1-0.2-0.1-0.4v-0.3l-0.1-0.2l-0.1-0.1
			c-0.1-0.1-0.1-0.2-0.1-0.4l0-0.2c-0.1-0.1-0.1-0.2-0.1-0.4v-0.6c0-0.3,0.2-0.5,0.5-0.5s0.5,0.2,0.5,0.5l0,0.4
			c0.1,0.1,0.1,0.2,0.1,0.4l0,0.2c0,0,0.1,0.1,0.1,0.1l0.2,0.4c0,0.1,0.1,0.1,0.1,0.2l0,0.2c0.2,0.2,0.2,0.5,0,0.7
			C178,23.8,177.8,23.9,177.7,23.9z"/>
	</g>
	<g>
		<path class="st0" d="M159.1,2.6c-0.1,0-0.2,0-0.2-0.1l-0.2-0.1l-0.2,0.1c-0.2,0.1-0.5,0-0.7-0.2c-0.1-0.2,0-0.5,0.2-0.7l0.4-0.2
			c0.1,0,0.1-0.1,0.2-0.1h0.2c0.1,0,0.2,0,0.2,0.1l0.4,0.2c0.2,0.1,0.3,0.4,0.2,0.7C159.4,2.5,159.2,2.6,159.1,2.6z"/>
	</g>
	<g>
		<path class="st0" d="M155.9,4.3c-0.2,0-0.4-0.1-0.4-0.3c-0.1-0.2,0-0.5,0.2-0.7l3.2-1.7c0.2-0.1,0.5,0,0.7,0.2
			c0.1,0.2,0,0.5-0.2,0.7l-3.2,1.7C156,4.3,155.9,4.3,155.9,4.3z"/>
	</g>
	<g>
		<path class="st0" d="M156.2,4.7c-0.2,0-0.3-0.1-0.4-0.2c-0.3,0-0.5-0.2-0.5-0.5V3.8c0-0.3,0.2-0.5,0.5-0.5c0.2,0,0.3,0.1,0.4,0.2
			c0.3,0,0.5,0.2,0.5,0.5v0.2C156.7,4.4,156.5,4.7,156.2,4.7z"/>
	</g>
	<g>
		<path class="st0" d="M177.3,25.8c-0.2,0-0.3-0.1-0.4-0.3c-0.1-0.2-0.1-0.5,0.2-0.7l1.3-0.8c0.2-0.1,0.5-0.1,0.7,0.2
			c0.1,0.2,0.1,0.5-0.2,0.7l-1.3,0.8C177.5,25.7,177.4,25.8,177.3,25.8z"/>
	</g>
	<g>
		<path class="st0" d="M169.2,30.5c-0.2,0-0.3-0.1-0.4-0.2c-0.1-0.2-0.1-0.5,0.2-0.7l8.1-4.7c0.2-0.1,0.5-0.1,0.7,0.2
			c0.1,0.2,0.1,0.5-0.2,0.7l-8.1,4.7C169.4,30.4,169.3,30.5,169.2,30.5z"/>
	</g>
	<g>
		<path class="st0" d="M172.8,62.7c-0.2,0-0.3-0.1-0.4-0.2c-0.1-0.2-0.1-0.5,0.2-0.7l5.8-3.4c0.2-0.1,0.5-0.1,0.7,0.2
			c0.1,0.2,0.1,0.5-0.2,0.7l-5.8,3.4C173,62.7,172.9,62.7,172.8,62.7z"/>
	</g>
	<g>
		<path class="st0" d="M178.6,59.3c-0.2,0-0.3-0.1-0.4-0.2c-0.1-0.2-0.1-0.5,0.2-0.7l7.3-4.3c0.2-0.1,0.5-0.1,0.7,0.2
			c0.1,0.2,0.1,0.5-0.2,0.7l-7.3,4.3C178.8,59.3,178.7,59.3,178.6,59.3z"/>
	</g>
	<g>
		<path class="st0" d="M187.3,59.8c-0.1,0-0.2,0-0.2-0.1c-0.2-0.1-0.3-0.4-0.2-0.7l0.1-0.3v-1.1l-0.2-0.5l-0.2-0.7l-0.3-0.5
			l-0.4-0.8l-0.3-0.5c-0.2-0.2-0.1-0.5,0.1-0.7c0.2-0.2,0.5-0.1,0.7,0.1l0.4,0.6l0.4,0.8l0.3,0.5c0,0,0.1,0.1,0.1,0.2l0.4,1.3
			c0,0.1,0,0.1,0,0.2V59c0,0.1,0,0.2-0.1,0.2l-0.2,0.4C187.7,59.7,187.5,59.8,187.3,59.8z"/>
	</g>
	<g>
		<path class="st0" d="M161.3,74.9c-0.2,0-0.3-0.1-0.4-0.2c-0.1-0.2-0.1-0.5,0.2-0.7l26-15.1c0.2-0.1,0.5-0.1,0.7,0.2
			c0.1,0.2,0.1,0.5-0.2,0.7l-26,15.1C161.5,74.9,161.4,74.9,161.3,74.9z"/>
	</g>
	<g>
		<path class="st0" d="M159.1,3.5c-0.3,0-0.5-0.2-0.5-0.5V2.1c0-0.3,0.2-0.5,0.5-0.5s0.5,0.2,0.5,0.5V3
			C159.6,3.3,159.3,3.5,159.1,3.5z"/>
	</g>
	<g>
		<path class="st0" d="M178.8,59.3h-0.2c-0.3,0-0.5-0.2-0.5-0.5s0.2-0.5,0.5-0.5h0.2c0.3,0,0.5,0.2,0.5,0.5S179.1,59.3,178.8,59.3z"
			/>
	</g>
	<g>
		<path class="st0" d="M183.5,55.5c-0.2,0-0.4-0.1-0.4-0.3c-0.1-0.2,0-0.5,0.2-0.7l0.4-0.2c0.1,0,0.1-0.1,0.2-0.1h0.7l0.5-0.2
			l0.8-0.2c0.3-0.1,0.5,0.1,0.6,0.4c0.1,0.3-0.1,0.5-0.4,0.6l-1.3,0.4c-0.1,0-0.1,0-0.2,0H184l-0.3,0.1
			C183.7,55.5,183.6,55.5,183.5,55.5z"/>
	</g>
</g>
</svg>
