<?xml version="1.0" encoding="utf-8"?>
<!-- Generator: Adobe Illustrator 19.2.1, SVG Export Plug-In . SVG Version: 6.00 Build 0)  -->
<svg version="1.1" id="D2S-X" xmlns="http://www.w3.org/2000/svg" xmlns:xlink="http://www.w3.org/1999/xlink" x="0px" y="0px"
	 viewBox="0 0 194.4 165.6" style="enable-background:new 0 0 194.4 165.6;" xml:space="preserve">
<style type="text/css">
	.st0{fill:#E5E5E5;}
	.st1{fill:#999999;}
</style>
<path class="st0" d="M139.7,131.9l1.5-3.5l0.7-4.5l0.2-4.3l0-13.5c0,0,0,0,0,0l0,0h-0.3v11.9l-0.2,5.9l-0.7,4.4c0,0,0,0.1,0,0.1
	l-1.6,3.5c0,0,0,0.1-0.1,0.1l-1,1.4l0.3,0.2L139.7,131.9z"/>
<path class="st0" d="M154.6,12.7l-0.8-0.5l-0.6-0.1l-0.5,0c0,0,0,0-0.1,0c0,0,0,0-0.1,0l-2.4,1.3c0,0.1-0.1,0.1-0.1,0.2
	c-0.1,0.1-0.2,0.1-0.4,0.1c0,0,0,0-0.1,0l-1.3,0.7l1.7,1l4.6-2.7L154.6,12.7z"/>
<path class="st0" d="M147.1,14.9l-0.2-0.1l-3.2,1.9l14,8.1l3.2-1.9l-4.2-2.5c-0.1,0-0.3,0-0.3-0.1l-0.1-0.1l-1.2-0.7l-0.3-0.1
	c-0.1,0-0.1-0.1-0.2-0.1c-0.2,0-0.3-0.1-0.4-0.2l-6.8-4C147.3,15,147.2,14.9,147.1,14.9z"/>
<path class="st0" d="M146,107.2l1.3,1.3c0,0,0.1,0.1,0.1,0.1l0.5,0.9l0.7,1.8l0.2,1.1l0.7-0.5v-0.5l-0.2-0.6l-0.3-0.9l-0.5-0.6
	l-0.6-0.9l-0.5-0.7L147,107l-0.4-0.2L146,107.2L146,107.2z"/>
<polygon class="st0" points="149,124.5 149.6,124.2 149.6,113.1 149,113.4 "/>
<path class="st0" d="M145.7,136.1l0.3-0.3l0.5-1.1l1-3.8l0.3-2.7l0-1.3l0.2-1.6v-12.1l-0.3-1.7l-0.7-1.7l-0.5-0.7l-1.2-1.2l-0.6-0.5
	l-1.7-1v13.1l-0.2,4.4l-0.7,4.6c0,0,0,0.1,0,0.1l-1.6,3.7c0,0,0,0.1-0.1,0.1l-1.2,1.5l4,2.3c0,0,0,0,0,0c0,0,0,0,0,0l0.5,0.3
	l0.4,0.1h0.7l0.5-0.2l0.1-0.1l0.1-0.2C145.7,136.2,145.7,136.2,145.7,136.1z"/>
<polygon class="st0" points="148.8,127 148.8,128.3 148.5,131.2 147.5,134.8 147.6,134.8 148.1,133.8 149.1,130.1 149.6,125.8 
	149.6,125.3 149,125.7 "/>
<path class="st0" d="M146.1,27.6C146.1,27.6,146.1,27.6,146.1,27.6L146.1,27.6l-0.1-0.1C146,27.5,146,27.5,146.1,27.6z"/>
<path class="st0" d="M175.6,73.7v0.8c0,0.1,0,0.1,0,0.2l-0.2,0.5l-0.1,0.5l1.8-1l0.5-0.3l0.3-0.3l0.6-0.9l0.3-1.1v-0.5l-3.1,1.8
	L175.6,73.7z"/>
<path class="st0" d="M166.5,80.7C166.5,80.7,166.5,80.7,166.5,80.7l6.9-3.9l0.1-0.1l0.3-0.3l0.6-0.9l0.3-1.1v-0.8c0,0,0-0.1,0-0.1
	l0.2-0.6V55.8l-0.2-0.8l0-1l-0.3-1.6l-1-2.5l-0.5-0.8c0,0,0,0,0,0c0,0,0,0,0,0c0,0,0,0,0,0c0,0,0,0,0,0l-10.6-18.3c0,0,0,0,0,0
	l-0.5-0.9l-0.5-0.7l-0.5-0.9l-0.7-0.7l-0.6-0.5c0,0-0.1-0.1-0.1-0.1l-0.5-0.6l-0.6-0.3l-0.7-0.5l-14.9-8.7l-0.6-0.3l-1.8-0.5H139
	l-0.1,0l-0.7,0.4c0,0,0,0,0,0c0,0,0,0,0,0l-10.6,6.1l-0.5,0.3l-0.3,0.3l-0.6,0.9l-0.1,0.2l1.5,0.3l2.2,0.3l3.3,0.7l1.9,0.4l0,0
	l0.3-0.2c0,0,0,0,0,0c0,0,0,0,0,0l0.3-0.2c0.1-0.1,0.2-0.2,0.4-0.2h0l0.4-0.3c0,0,0.1,0,0.1-0.1l0.8-0.3l0.5-0.2c0,0,0.1,0,0.1,0
	l1.7-0.3l0.2,0l2-0.2c0,0,0.1,0,0.1,0l1.9,0.3l2.1,0.5l2.2,0.9c0,0,0,0,0,0c0.1,0,0.1,0.1,0.1,0.1c0,0,0,0,0,0l0.2,0.2
	c0.1,0.1,0.1,0.1,0.1,0.2l0.3,0.2c0.2,0,0.4,0.1,0.5,0.2c0,0,0,0,0,0.1l0.8,0.5l1.3,0.9c0,0,0,0,0,0c0,0,0,0,0.1,0c0,0,0.1,0,0.1,0
	c0,0,0,0,0,0c0,0,0,0,0,0h0c0,0,0,0,0,0h0.2c0.2,0,0.4,0.2,0.5,0.4l1.7,1.3l2.1,1.8l2,2.1l1.9,2.3l1.8,2.3l1.6,2.6l0,0l0,0l1.6,2.6
	l1.2,2.7l1.2,2.8l0.9,2.7l0.7,2.8l0.7,5.3l0,2.5l-0.3,2.1l0,0.2l0,0.2l-0.3,1.9l-0.7,2l-0.9,1.8l-1.1,1.5c0,0,0,0.1-0.1,0.1
	l-0.1,0.1l-1.3,1.3c0,0-0.1,0.1-0.1,0.1l-0.7,0.4l-0.3,0.2c0,0,0,0-0.1,0c0,0,0,0-0.1,0c-0.1,0-0.1,0-0.2,0c0,0,0,0,0,0l-0.3,0.2
	c-0.1,0.1-0.2,0.1-0.3,0.1l-0.2,0.2l-1.1,4l-1.2,4l-0.2,0.6c0,0,0,0,0,0l0.6,0.1l1.4-0.5L166.5,80.7
	C166.5,80.7,166.5,80.7,166.5,80.7z"/>
<path class="st0" d="M58.6,38.2l-1,1.2l-0.8,1.3l-2.4,5l-1.7,5.8v0.4L75,64.7c0,0,0,0,0,0c0,0,0,0,0,0l2.6,1.7l2.4,1.7l2.6,2.1
	l2.5,2.5l2.3,2.4l1.2,1.4l5.5,3.2c0,0,0,0,0,0c0,0,0,0,0,0c0,0,0,0,0.1,0.1c0,0,0,0,0.1,0.1c0,0,0,0,0,0l0.8,1.1l13.1,7.5l3.7,0.2
	l5.8,0.5l4.3,1.1l3.9,1.2l3.4,1.8l2.8,1.9c0,0,0.1,0,0.1,0.1l1.9,2.1l1.4,2.1c0,0,0,0.1,0.1,0.1l1,2.6l1.4,0.8l-1.7-7.8l-2.4-8
	l-0.9-2.4l-1-2.2l-1-2.4l-1.2-2.2l-2.8-4.5l-1.4-2.1l-1.5-2c0,0,0,0,0,0l-4.5-5.6l-4.8-5l-4.9-4.9l-5-4.1l-5.2-3.8l-5.2-3.3L89,40.2
	L83.8,38l-5-1.5l-2.4-0.5c0,0,0,0,0,0c0,0,0,0,0,0l-3-0.2l-6.4-0.2h-3.5c-0.1,0-0.1,0-0.2,0l-1.6,0.4l-0.9,0.5l-1.2,0.9L58.6,38.2z"
	/>
<polygon class="st0" points="167.3,65.9 167.3,66.1 167.2,66.3 167.1,66.8 167.5,65.4 167.5,65.1 167.6,63.9 "/>
<polygon class="st0" points="166,67 165.9,67.4 165.9,67.5 "/>
<polygon class="st0" points="51.7,51.1 53.4,45.4 55.2,41.6 55,41.7 52.6,46.8 51.3,51.2 51.5,51.3 "/>
<polygon class="st0" points="154.1,33.1 156,35.3 157.9,37.5 159.7,39.8 161.3,42.4 161.3,42.4 161.3,42.4 162.9,45.1 164.1,47.7 
	165.2,50.5 166.2,53.1 166.9,56 167.6,61.3 167.6,63.6 167.7,63 167.7,60.6 167,55.5 166.3,52.9 165.4,50.2 164.2,47.4 163,44.8 
	161.6,42.3 158.2,37.4 156.3,35.2 154.4,33.3 152.4,31.4 150.9,30.3 150.8,30.5 151.9,31.4 "/>
<path class="st0" d="M142.6,105.2L142.6,105.2C142.6,105.2,142.6,105.2,142.6,105.2c0.1,0,0.1,0,0.1,0.1c0,0,0,0,0,0
	c0,0,0.1,0,0.1,0c0,0,0,0,0,0c0,0,0,0,0,0l2.2,1.3l0.6-0.3l-2.2-1.3c0,0,0,0,0,0c0,0,0,0-0.1,0l0,0h-0.9l-0.7,0.2h0.6
	C142.4,105,142.5,105.1,142.6,105.2z"/>
<path class="st0" d="M135.7,103.1l-2.3-1.3l-0.7,0.3l5.1,3.1l0.1,0l-0.1-0.7l-2-1.2C135.8,103.2,135.7,103.1,135.7,103.1z"/>
<path class="st0" d="M150.7,33.8l1.9,1.9l1.9,2.1l1.9,2.3l1.6,2.5l1.6,2.6l1.4,2.6l1.2,2.8l0.9,2.7l0.9,2.8l0.5,2.7l0.4,2.6l0.2,2.6
	l-0.2,2.3l-0.2,1.6l0.2-0.8l0.1-0.9l0.1-1.9l0-2.4l-0.3-2.4l-0.3-2.8l-0.7-2.5l-0.9-2.7l0,0l-1.2-2.5l-1.2-2.8l-1.4-2.6l-3.4-4.8
	l-3.8-4.1l-3.5-2.9l0,0c0,0,0,0.1,0,0.1l0.2,0.1L150.7,33.8z"/>
<path class="st0" d="M162.1,74.2l1.2-4.7c0-0.1,0-0.2,0-0.2l0.3-1l0.3-4.1l-0.3-4.4l-1-3.9l-1.5,5.1l-1.4,3.7l-1.8,3.2l-2.3,3
	c0,0-0.1,0.1-0.1,0.1l-2.6,2.1c0,0-0.1,0.1-0.1,0.1l-3.1,1.2l-3.7,0.7l-4.1,0.4l-4.2,0.2l-2.8,0.3l9.5,5.5c0,0,0,0,0,0c0,0,0,0,0,0
	l1.4,0.9l1.5,1.3l1.4,1.4l1.3,1.6l1.1,1.8l1.1,1.9l0.7,1.8l0.5,2l0.4,2l0.2,1.8c0,0,0,0,0,0c0,0,0,0,0,0c0,0,0,0,0,0v0.5L154,98
	l2.4-5.9l0.7-1.9l0.7-2.1l0.9-2.4l1-3.1l1.2-4l1.1-3.8C161.9,74.5,162,74.3,162.1,74.2z"/>
<path class="st0" d="M184.3,73C184.4,73,184.4,73,184.3,73C184.4,72.9,184.4,72.9,184.3,73c0.1-0.1,0.1-0.1,0.1-0.1c0,0,0,0,0,0
	l0.3-0.2l-1.2-0.3c-0.1,0-0.2-0.1-0.2-0.1L182,71l-1.3,0.7l0.2,0.2l0.5,0.5l0.4,0.3l0.6,0.3l0.6,0.1h0.8l0.4-0.1L184.3,73
	C184.3,73.1,184.3,73.1,184.3,73C184.3,73,184.3,73,184.3,73z"/>
<polygon class="st0" points="152.8,33.8 154.8,35.9 156.7,38.2 158.5,40.5 160,43.1 160.1,43.1 160.1,43.1 161.6,45.8 162.9,48.4 
	163.9,51.2 165,53.8 166.1,59.3 166.4,62 166.4,64.3 166.5,63.7 166.5,61.3 166.1,59 165.8,56.2 165.1,53.6 164.2,50.9 164.2,50.9 
	163,48.3 161.8,45.5 160.4,43 157,38.1 155.1,35.9 153.2,34 151.1,32.1 149.7,31 149.6,31.2 150.7,32.1 "/>
<polygon class="st0" points="78.7,123.6 78,126.3 77.3,131.9 77.2,134.4 77.3,136.8 78,141.5 78.5,142.9 81.9,140.9 81.9,121.8 "/>
<polygon class="st0" points="81.7,118.3 81.4,115.7 80.9,112.9 80.2,110.2 79.3,107.2 78.4,105.1 79.2,107.6 79.9,112.9 79.8,118.2 
	78.9,122.3 81.9,120.7 "/>
<path class="st0" d="M72.4,93.6L70.5,91l-3.8-4.5l-2.1-2.1l-2.1-1.9l-2-1.5l-2.6-1.8L52,82.7l2.8,0.7l5.1,1.9l4.8,2.6l3.9,2.8
	l3.5,3.2c0,0,0,0,0.1,0.1l2.5,3.3L74,96.2L72.4,93.6z"/>
<path class="st0" d="M85.5,123.2h-0.3l-0.4,0.1c-0.1,0-0.1,0-0.2,0c-0.1,0-0.1,0-0.2,0l-0.4-0.1h-0.3c-0.1,0-0.1,0-0.2,0v19.2h0.2
	c0.1,0,0.2,0,0.2,0.1l0.2,0.1h0.8l0.2-0.1c0.1,0,0.1-0.1,0.2-0.1h0.2v-19.2C85.7,123.2,85.6,123.2,85.5,123.2z"/>
<path class="st0" d="M181.7,68.9C181.7,68.9,181.7,68.8,181.7,68.9c0.1-0.1,0.1-0.1,0.1-0.1c0,0,0,0,0.1,0l0.2-0.1l0.1-0.3l-2.1,1.3
	v0.3L181.7,68.9C181.6,68.9,181.7,68.9,181.7,68.9z"/>
<polygon class="st0" points="86.7,141.9 101.9,133.1 101.9,114 86.7,122.7 "/>
<polygon class="st0" points="33.9,65.5 27.5,69.1 28.7,70.8 30.6,72.6 32.6,74.5 35,76.2 37.8,77.8 40.7,79.1 47.3,81.6 50.7,82.4 
	57,78.7 "/>
<polygon class="st0" points="97,90 97.3,90.5 98.3,92.7 98.3,88 "/>
<polygon class="st0" points="180.2,70.9 180.5,70.7 180.2,70.9 "/>
<path class="st0" d="M56.7,76.4l0.1-0.5l0.4-0.8c0,0,0.1-0.1,0.1-0.1l0.4-0.4L34.8,61.3l-0.1,0.1c0,0-0.1,0.1-0.1,0.1l-0.3,0.1
	l-0.2,0.2L34,62.1l-0.1,0.5l-0.3,0.7v0.1l23.2,13.3L56.7,76.4z"/>
<polygon class="st0" points="40.8,45.8 40.3,45.8 39.9,46.1 40.4,46.2 41,45.9 "/>
<polygon class="st0" points="135,108.7 135.2,108 135.1,107.9 "/>
<polygon class="st0" points="135.5,107 135.6,107 135.5,107 "/>
<polygon class="st0" points="179,57.7 179,54.2 175.8,56.1 175.8,72.1 179,70.3 179,59.8 "/>
<path class="st0" d="M133.6,111.4l-1.7,1.9l-1.7,1.3l0.4-0.2l2.3-1.8l1.5-2.1l0.5-1.3L133.6,111.4
	C133.6,111.4,133.6,111.4,133.6,111.4z"/>
<polygon class="st0" points="112.4,120.5 113,120.3 112.4,120.5 "/>
<polygon class="st0" points="108.2,115.5 105.3,117.2 105.5,118.4 105.5,118.4 109.5,116.2 "/>
<path class="st0" d="M147.7,11.9l-0.2-0.6l-0.2-0.7c0,0,0-0.1,0-0.1l0,0.2l0.3,1.2L147.7,11.9C147.7,11.9,147.7,11.9,147.7,11.9z"/>
<path class="st0" d="M108,114.5C108,114.5,108,114.4,108,114.5c0.1,0,0.2,0,0.2,0c0,0,0.1,0,0.1,0c0,0,0.1,0,0.1,0c0,0,0,0,0.1,0
	l1.2,0.6v-2.8V112c0-0.1,0-0.1,0-0.2l0.1-0.4v-0.3c0-0.1,0-0.2,0.1-0.3l0.5-0.8c0,0,0.1-0.1,0.1-0.1l0.9-0.9c0,0,0,0,0,0
	c0,0,0,0,0,0c0,0,0.1,0,0.1,0c0,0,0,0,0.1,0c0,0,0,0,0,0l0.4-0.1l0.3-0.3c0,0,0.1-0.1,0.1-0.1l0.3-0.1l0.2-0.2l0.1-0.3l0.1-0.5
	l0.3-0.7v-0.4v-0.9l-13.2-7.6l0.8,2.6l0.9,3.3l0.5,3.4l0.4,3.2l0.1,1.5h0.5c0,0,0,0,0,0c0,0,0.1,0,0.1,0c0,0,0.1,0,0.1,0
	c0,0,0,0,0,0l0.7,0.4h0.1c0.1,0,0.3,0.1,0.4,0.1l0.2,0.2c0.1,0.1,0.1,0.2,0.1,0.3l0,0c0,0,0,0,0,0l0,0c0,0,0,0,0,0
	c0,0,0.1,0.1,0.1,0.2c0,0.1,0,0.1,0,0.2c0,0,0,0,0,0v0c0,0,0,0,0,0v2.9L108,114.5C107.9,114.5,107.9,114.5,108,114.5z"/>
<path class="st0" d="M108.5,120.1l1-0.1v-2.7l-3.5,1.9l0.3,0.4c0.1,0,0.1,0,0.2,0L108.5,120.1z"/>
<polygon class="st0" points="152.1,29.9 153.2,30.7 155.3,32.4 157.2,34.6 159.2,36.8 160.9,39.1 162.5,41.7 162.5,41.7 162.5,41.7 
	164.1,44.4 165.3,47 166.5,49.8 167.4,52.5 168.1,55.3 168.8,60.6 168.8,62.9 168.9,62.3 168.9,59.9 168.7,57.4 168.2,54.8 
	167.5,52.2 166.6,49.5 165.5,46.8 164.2,44.2 162.9,41.6 162.9,41.6 159.4,36.8 157.7,34.5 157.7,34.5 155.7,32.7 153.7,30.7 
	152.2,29.6 "/>
<polygon class="st0" points="168.5,65.2 168.5,65.4 168.4,65.6 168.4,66.1 168.7,64.7 168.7,64.4 168.8,63.2 "/>
<path class="st0" d="M80.3,158.4l1.5-1.5L83,155l1-2l0.7-2.2l0.7-2.6l0.3-2.7l0-2h-0.1l-0.2,0.1c-0.1,0-0.1,0.1-0.2,0.1h-1
	c-0.1,0-0.2,0-0.2-0.1l-0.2-0.1h-0.1l-0.1,2.1l-0.4,2.8l-0.7,2.5l-0.9,2.3l-1.1,2.1c0,0,0,0.1-0.1,0.1l-1.4,1.7l-1.4,1.6
	c0,0-0.1,0.1-0.1,0.1l-1.7,1.2l-2,0.9l-2.2,0.6l-2.1,0.4c0,0-0.1,0-0.1,0c0,0,0,0,0,0l-2.4-0.2l-1.8-0.3l1.1,0.3l2.2,0.3l2.3,0.2
	l4.1-0.7l1.8-0.7l1.3-0.7l0.9-0.5L80.3,158.4z"/>
<path class="st0" d="M63.3,160.9L63.3,160.9C63.4,160.9,63.4,160.9,63.3,160.9L63.3,160.9z"/>
<path class="st0" d="M67.8,159.5l2.3-0.7l2.2-0.9l3-1.7l2.3-2.3l1-2.1l0.5-2.5l-0.3-2.6l-1-2.9c0,0,0,0,0,0c0,0,0,0,0,0l-0.7-2.1
	l-0.7-4.8l-0.2-2.5l0.2-2.7l0.7-5.6l0.7-3l1-5L79,113l-0.7-5.1l-1.7-5.1l-2.2-4.1l-2.9-3.9L68,91.6l-3.8-2.8l-4.6-2.6l-5-1.9l-3.9-1
	c0,0,0,0,0,0L47,82.5l-6.7-2.5l-3-1.4l-2.8-1.6L32,75.3l-2.1-2L28,71.4l-1.6-2.1c0,0,0,0,0,0l-2.2-2.9l-2.3-2l-2.3-1h-1.2L17,63.7
	l-2.1,1.1l-2.2,2.4L10.8,70l-1.9,3.2l-0.3,1c0,0,0,0,0,0c0,0,0,0,0,0l-1,2l0,0.2c0,0.1-0.1,0.3-0.2,0.4l0,0.1c0,0,0,0.1,0,0.1
	L7,77.7l-0.1,0.6v0.3c0,0.2-0.1,0.4-0.3,0.5l0,0.1l-0.3,1.3l-0.4,0.9l-1.7,7.2v0.8c0,0,0,0.1,0,0.1l-0.3,1.3v0.8c0,0,0,0.1,0,0.1
	l-0.2,0.6V93l-0.2,1l0,2.2c0,0,0,0.1,0,0.1l-0.2,0.6v2.2v4.5l0.2,0.6c0,0,0,0.1,0,0.1v0.8l0.2,0.6c0,0,0,0.1,0,0.1v0.7l0.2,0.8
	l0,0.7l0.5,2.2c0,0,0,0.1,0,0.1v0.7l1,4.3l0.3,0.6c0,0,0,0.1,0,0.1l0.3,1.5l0.3,0.6c0,0,0,0.1,0,0.1l0.3,1.3l0.3,0.6
	c0,0,0,0.1,0,0.1l0.2,0.6l0.3,0.6l0.4,0.9l0.2,0.7l1.4,2.7l0.3,0.5l2.1,4.2l0.5,0.5c0,0,0.1,0.1,0.1,0.1l0.7,1.3l0.5,0.5
	c0,0,0.1,0.1,0.1,0.1L14,134l1.3,1.8l0.5,0.5c0,0,0.1,0.1,0.1,0.1l0.3,0.6l0.5,0.5l0.6,0.8l0.5,0.5l0.9,1.3l1.5,1.5l0.6,0.8l1,1
	l0.6,0.5l1.6,1.6l1.1,0.8l0.6,0.6l0.6,0.5l0.5,0.5l0.6,0.3c0,0,0.1,0.1,0.1,0.1l0.5,0.5L30,150l0.6,0.3c0,0,0.1,0.1,0.1,0.1l0.5,0.5
	l1.3,0.7c0,0,0.1,0.1,0.1,0.1l0.5,0.5l4.1,2.1l0.6,0.4l2.7,1.3l0.6,0.2c0.1,0,0.2,0,0.2,0l2.6,1l3.3,1l3.6,0.9l5.9,1l4.1,0
	c0,0,0,0,0,0l1.5,0L67.8,159.5z"/>
<path class="st0" d="M47.4,26.5L46,26h-1.1l-1.1,0.2l-0.4,0.1l0.8,0.1l1.5,0.4c0,0,0.1,0,0.1,0l1.2,0.6l1.2-0.6L47.4,26.5z"/>
<polygon class="st0" points="73.8,65.2 50.8,52 35.7,60.6 58.6,74 "/>
<path class="st0" d="M119.1,112.5c0,0,0.1-0.1,0.1-0.1l0.2-0.1l0.1-0.2c0,0,0.1-0.1,0.1-0.1l0.3-0.3l0.3-0.7v-0.2c0-0.1,0-0.1,0-0.2
	l0-0.1l-5.9-3.4l-0.3,0.6l-0.1,0.5l-0.2,0.4c0,0-0.1,0.1-0.1,0.1l-0.3,0.3c0,0-0.1,0.1-0.1,0.1l0,0L119.1,112.5L119.1,112.5z"/>
<path class="st0" d="M156.5,19.1l0.3,0.3l3.7,2.1l6.2-3.6l-0.3-0.9l-0.5-0.8l-0.7-0.8l-0.6-0.6l-0.6-0.3l-0.7-0.1l-0.3,0.1l-7.3,4.2
	l0.7,0.3C156.4,19,156.5,19,156.5,19.1z"/>
<polygon class="st0" points="141.9,74.2 145.9,73.9 149.5,73.2 152.4,72 154.9,70 157.2,67.1 158.9,64 160.2,60.5 162.2,53.7 
	160.6,49.5 158.3,45.2 155.4,40.7 152.1,36.8 148.5,33.3 144.8,30.8 138.8,29.5 132.5,29 125.9,29.3 119.4,30.5 111.9,32.6 
	104.5,35.7 97.5,39.3 103.6,43.2 110.2,48.4 116.7,54.2 122.8,60.6 128.5,67.6 133.6,74.9 137.7,74.4 "/>
<path class="st0" d="M101.6,138.3l0.3-4L86.7,143v2.5l-0.4,2.8l-0.7,2.7l-0.7,2.3l-1.1,2.2l-1.2,2c0,0,0,0.1-0.1,0.1l0,0l11.6-6.7
	l2.7-2.2l2.2-2.9l1.4-2.9L101.6,138.3z"/>
<path class="st0" d="M162.2,22.5C162.2,22.5,162.2,22.5,162.2,22.5C162.2,22.5,162.2,22.5,162.2,22.5l2.1,1.6l1.3,1.3
	c0,0,0.1,0.1,0.1,0.1l0.5,0.8l5.8-3.3l0.1-0.5l-0.2-0.8l-0.3-1l-0.5-0.9l-1.3-1.3l-0.6-0.3l-0.5-0.1l-0.5,0.1l-0.7,0.4
	c0,0-0.1,0.1-0.2,0.1l-5.8,3.4L162.2,22.5z"/>
<path class="st0" d="M142.2,15.8c0,0,0.1,0,0.1,0l0.5,0.2l3-1.7c-0.1,0-0.2-0.1-0.2-0.1l-0.3-0.1c0,0-0.1,0-0.1,0.1c0,0-0.1,0-0.1,0
	c-0.2,0-0.3-0.1-0.4-0.2l-0.4-0.1h-1.1l-0.4,0.1l-0.5,0.3c0,0,0,0,0,0c0,0,0,0,0,0l-1.8,1.1l0.3,0.1L142.2,15.8z"/>
<path class="st0" d="M155.9,13.4C155.9,13.4,155.9,13.4,155.9,13.4C155.9,13.4,155.9,13.4,155.9,13.4c-0.1,0.1-0.1,0.1-0.2,0.1
	l-4.5,2.7l3.4,2l6.1-3.5l-0.2-0.3l-0.7-0.8l-0.7-0.7l-0.6-0.4l-0.5-0.1l-0.6,0.1c0,0-0.1,0-0.1,0h0L155.9,13.4
	C156,13.3,156,13.3,155.9,13.4C156,13.3,156,13.4,155.9,13.4z"/>
<path class="st0" d="M165.8,27.5l-0.1-0.2c-0.1,0-0.2-0.1-0.2-0.2c0-0.1-0.1-0.1-0.1-0.2l-0.1-0.1l-0.5-0.9l-1.2-1.2l-1.8-1.3
	l-3.2,1.9l0.1,0.1l0.6,0.3c0.1,0,0.1,0.1,0.2,0.1l0.5,0.6l0.6,0.5l0.7,0.7c0,0,0.1,0.1,0.1,0.1l0.5,0.9l0.5,0.7l0.3,0.5l3.3-1.9
	L165.8,27.5z"/>
<path class="st0" d="M173.3,40.4c-0.1,0-0.2-0.1-0.2-0.2c0-0.1-0.1-0.2-0.1-0.2c0,0-0.1-0.1-0.1-0.1c0-0.1-0.1-0.1-0.1-0.2l-0.1-0.1
	c-0.2-0.1-0.3-0.2-0.3-0.4v0l-3.1-5.3c-0.1,0-0.1-0.1-0.2-0.2c0-0.1-0.1-0.2-0.1-0.2l-2.6-4.6l-3.3,1.9l10.1,17.4l3.3-1.9
	L173.3,40.4z"/>
<polygon class="st0" points="39,46.9 38.7,46.9 38.3,47 38.1,47.1 38.4,47.1 40.4,47.2 40.3,47.2 "/>
<path class="st0" d="M146.5,30.6l1.1,0.7l0.1-0.5c0,0,0,0,0,0c0,0,0,0,0,0c0,0,0,0,0-0.1c0,0,0,0,0-0.1c0,0,0,0,0,0c0,0,0,0,0,0
	c0,0,0,0,0.1,0c0,0,0,0,0.1-0.1c0,0,0,0,0,0c0,0,0,0,0.1,0c0,0,0.1,0,0.1,0c0,0,0,0,0,0c0,0,0,0,0,0h0.2c0,0,0,0,0.1,0
	c0,0,0.1,0,0.1,0c0,0,0.1,0,0.1,0c0,0,0,0,0.1,0l0.1,0.1l0.1-0.5c0,0,0,0,0,0c0,0,0-0.1,0-0.1c0,0,0,0,0-0.1c0,0,0,0,0,0
	c0,0,0,0,0,0c0,0,0,0,0.1-0.1c0,0,0,0,0,0c0,0,0,0,0,0c0,0,0,0,0,0c0,0,0.1,0,0.1,0c0,0,0,0,0,0c0,0,0,0,0,0c0,0,0,0,0,0
	c0,0,0,0,0,0h0.2c0,0,0,0,0.1,0c0,0,0.1,0,0.1,0c0,0,0.1,0,0.1,0c0,0,0,0,0.1,0l0.1,0.1l0.1-0.5c0,0,0,0,0,0c0,0,0-0.1,0-0.1
	c0,0,0,0,0-0.1c0,0,0,0,0,0c0,0,0,0,0,0c0,0,0,0,0.1-0.1c0,0,0,0,0.1,0c0,0,0,0,0,0c0,0,0.1,0,0.1,0c0,0,0,0,0.1,0c0,0,0,0,0,0
	c0,0,0,0,0,0h0.2c0,0,0,0,0.1,0c0,0,0.1,0,0.1,0c0,0,0.1,0,0.1,0c0,0,0,0,0.1,0l0.2,0.1l0,0l-1.3-0.9l-0.9-0.5l-3.6,2.2L146.5,30.6z
	"/>
<polygon class="st0" points="119.1,140.2 119.1,140.3 119.4,140.1 "/>
<path class="st0" d="M8.5,68l1.1-2l1.4-1.8l1.4-1.6c0,0,0.1-0.1,0.1-0.1l1.7-1.2l2-0.9l2.2-0.6l2.3-0.4c0,0,0.1,0,0.1,0l2.3,0.2
	l2.5,0.4l2.5,0.7l2.5,1.1l2,1.1l0.3-0.6l0.1-0.5l0.2-0.4c0,0,0.1-0.1,0.1-0.1l0.3-0.3c0,0,0.1,0,0.1-0.1l-1.9-0.9l-2.6-1L26.9,58
	l-2.3-0.5h-4.4l-2,0.5l-1.9,0.6l-0.9,0.5l-0.5,0.3l-1.5,1.2l-1.5,1.4l-1.2,1.5l-1.2,1.9l-0.8,2l-0.9,2.2l-0.4,1.8l0.3-1.1L8.5,68z"
	/>
<path class="st0" d="M44.9,48l-2.8-1.6l-0.6,0.3l1.5,0.9c0,0,0,0,0,0l0.3,0.1l1.4,0.4l0.1-0.1C44.9,48.1,44.9,48,44.9,48z"/>
<path class="st0" d="M8,72.7l1.9-3.3l1.9-2.8l2.3-2.5c0,0,0.1-0.1,0.1-0.1l0.8-0.4c0-0.1,0.1-0.2,0.2-0.2l1.7-1c0,0,0,0,0,0
	c0,0,0,0,0,0l0.3-0.2c0.1-0.1,0.2-0.1,0.3,0l0.8-0.3l1.6-0.5l1.8-0.4l2,0l2.6,0.5l-1.2-0.3L23,60.6l-2.2-0.2l-2.2,0.3l-2,0.5
	l-1.8,0.8l-1.6,1.1l-1.4,1.5l-1.4,1.7l-1,1.8l-0.8,2.4L8,72.9L8,72.7C8,72.8,8,72.8,8,72.7z"/>
<path class="st0" d="M81,151.5l-0.9,1.8l-1.1,1.5l-1.1,1.1l-1.4,1.1l0,0c0,0.1-0.1,0.1-0.2,0.2l-1.7,1c-0.1,0-0.2,0.1-0.3,0.1
	c-0.1,0-0.2,0-0.2-0.1l-1.3,0.7l-2.3,0.9l-2.5,0.7l-1.6,0.2l0.6,0.1l2.3,0.2l2-0.3l2-0.5l1.8-0.8l1.6-1.1l1.4-1.5l1.3-1.7l1-2
	l0.9-2.2l0.7-2.4l0-0.2l-0.4,1.6L81,151.5z"/>
<path class="st0" d="M80.7,149.3l0.5-1.9l0.5-2.2l0.2-2.2l0-1c0,0,0,0,0,0l-3.1,1.8l0.9,2.6c0,0,0,0.1,0,0.1l0.3,2.8
	c0,0.1,0,0.1,0,0.2l-0.5,2.4l0.4-0.9L80.7,149.3z"/>
<path class="st0" d="M138.9,145.7l-1.4-1.7c0,0-0.1-0.1-0.1-0.2l-0.3-1l-0.3-0.8c0-0.1,0-0.1,0-0.2v-0.5h-0.3l-0.3,0.1l-0.3,0.3
	l-0.1,0.5v0.8l0.1,0.9l0.5,0.8l0.5,1l0.6,0.6l0.8,0.5l0.6,0.1h0.5l0.3-0.2l0.2-0.4L138.9,145.7C139,145.7,138.9,145.7,138.9,145.7z"
	/>
<path class="st0" d="M120.9,115.4l-0.2,0.2l-0.4,0.9v0.2c0,0.1-0.1,0.3-0.1,0.4l0,0v0.1l1.9-0.5l-0.2-0.7L120.9,115.4z"/>
<path class="st0" d="M146.8,151.3l1.2-1.7l1-1.7l0.8-2l0.5-2.3l0.3-2.4l0-2.5V98.9v-1.7l-0.3-1.8l-0.5-1.7l-1.7-3.8l-1-1.5l-1.4-1.7
	l-1.2-1.4l-1.3-1.1l-1.5-0.8c0,0,0,0,0,0c0,0,0,0,0,0l0,0c0,0,0,0,0,0l-10.8-6.3c0,0,0,0,0,0c0,0,0,0,0,0c-0.1,0-0.1-0.1-0.1-0.1
	c0,0,0,0,0,0l-2.6-3.8l-2.8-3.8l-5.9-7.3l-3.1-3.3l-3.3-3.3l-3.3-3.1l-3.5-2.9l-3.5-2.6l-3.5-2.4l-3.5-2.3L92.4,40l-3.6-1.7
	l-3.5-1.6l-3.5-1.4l-3.3-1l-3.3-0.7l-3.3-0.5L69,33l-3.1,0l-2.7,0.3l-2.8,0.5l-2.7,0.9c0,0-0.1,0-0.1,0c0,0,0,0,0,0c0,0,0,0,0,0
	s0,0,0,0c0,0,0,0,0,0c-0.1,0-0.2,0-0.2-0.1c0,0,0,0,0,0l-10.8-6.3l-1.3-0.7l-1.3-0.3l-1.3-0.2l-1.2,0.2l-0.9,0.3l-0.9,0.8L39,29.2
	l-0.5,1.2l-0.3,1.5L38,33.4V46l1.3-0.7l0.5-0.3c0.1-0.1,0.2-0.1,0.3-0.1h0.7c0,0,0.1,0,0.1,0l0.7,0.2c0.1,0,0.1,0,0.2,0.1l0.5,0.3
	l3.1,1.7c0,0,0,0,0.1,0c0,0,0,0,0.1,0l0.2,0.2c0,0,0.1,0.1,0.1,0.1c0.1,0.1,0.2,0.2,0.2,0.4v0.2v0v0.5l2.5,1l1.9,1.1l1.2-4.3
	l2.5-5.3c0,0,0,0,0-0.1c0,0,0,0,0-0.1l1-1.2l0.8-1.2l1.3-1.3l1.3-0.9l1.3-0.7l1.4-0.7c0,0,0.1,0,0.1,0l3.1-0.7c0,0,0,0,0,0
	c0,0,0,0,0,0l4.5-0.2l4.8,0.3l5.1,1.1l5.1,1.6l5.3,2.3l5.2,2.6c0,0,0,0,0,0c0,0,0,0,0,0l5.2,3.3l5.2,3.8l5.1,4.2l4.9,4.9l4.9,5.1
	l4.6,5.6c0,0,0,0,0,0c0,0,0,0,0,0l1.6,2.1l1.4,2.1l2.8,4.5l1.2,2.3l1.1,2.5l1,2.2l0.9,2.5c0,0,0,0,0,0c0,0,0,0,0,0l2.4,8l1.7,7.9
	c0,0,0,0,0,0c0,0,0,0,0,0l0.1,0.8c0.1,0.2,0.2,0.4,0,0.6c0,0,0,0,0,0l0,0.4l3.2-1c0,0,0,0,0.1,0c0,0,0,0,0.1,0h1.2
	c0.1,0,0.3,0.1,0.4,0.1l0.1,0.1l2.9,1.7l0.7,0.3c0,0,0.1,0.1,0.1,0.1l0.7,0.7l0.6,0.8l0.6,0.9l0.5,0.7c0,0,0.1,0.1,0.1,0.1l0.3,1
	l0.2,0.7c0,0,0,0.1,0,0.1v0.9v12.4v1.4l-0.5,4.4l-1.1,3.9l-0.6,1.1c0,0,0,0,0,0l-0.2,0.3c0,0-0.1,0.1-0.1,0.1l-0.5,0.5
	c0,0,0,0-0.1,0c0,0,0,0,0,0l-1.3,0.8c0,0,0,0.1-0.1,0.1l-0.3,0.2l-0.6,0.2c-0.1,0-0.1,0-0.2,0h-0.9c-0.1,0-0.1,0-0.2,0l-0.5-0.2
	c0,0-0.1,0-0.1-0.1l-0.5-0.3l-4.5-2.6l-0.3-0.2c0,0,0,0,0,0l-0.2-0.1l-15.9,5.1v0.3v0.3c0,0.1,0,0.2-0.1,0.2l-0.1,0.3
	c0,0.2-0.1,0.4-0.3,0.4l-0.3,0.2l-2.6,1.5c0,0,0,0,0,0c0,0,0,0,0,0l-0.3,0.2c-0.1,0-0.1,0.1-0.2,0.1h-0.2c-0.1,0-0.2,0-0.2-0.1
	l-0.7-0.3c0,0,0,0,0,0c0,0,0,0,0,0l-1.7-0.9l-3.6,1.2l16.1,9.2c0,0,0,0,0,0l2.2,1.2l2.4,1l2.2,0.7l2,0.3l2.2,0l1.9-0.2l1.8-0.5
	l1.6-0.8l0,0l1.5-1L146.8,151.3z M48,36.1l0,0.1c0,0,0,0.1,0,0.1L47.5,37c0,0.1-0.1,0.1-0.2,0.2l-0.5,0.3c-0.1,0.1-0.2,0.1-0.3,0.1
	h-0.5l-1-0.2c-0.1,0-0.1,0-0.2-0.1l-0.7-0.5l-0.7-0.7L42.7,35c0,0,0-0.1,0-0.1L42.3,34L41.9,33c0-0.1,0-0.1,0-0.2v-0.9
	c0-0.1,0-0.2,0.1-0.2l0.3-0.7l0.4-0.6c0.1-0.1,0.2-0.2,0.3-0.2l0.7-0.2c0,0,0.1,0,0.1,0h0.7c0,0,0.1,0,0.1,0c0,0,0.1,0,0.1,0
	c0.2,0,0.3,0.1,0.4,0.2l0.3,0.2c0,0,0.1,0,0.1,0.1l0.9,0.7c0,0,0.1,0.1,0.1,0.1l1,1.7c0,0,0,0.1,0,0.1l0.3,1l0.2,1.1
	c0,0.1,0,0.1,0,0.2l0,0.1c0,0.1,0,0.1,0,0.2C48.1,35.9,48.1,36,48,36.1z M146.9,92.4l-0.2,0.9c0,0.1,0,0.1-0.1,0.2l-0.3,0.5
	c0,0.1-0.1,0.1-0.1,0.1l-0.5,0.3c0,0-0.1,0.1-0.2,0.1l-0.7,0.2c0,0-0.1,0-0.1,0c-0.1,0-0.2,0-0.2-0.1l-0.7-0.3l-0.9-0.5
	c0,0-0.1,0-0.1-0.1l-0.7-0.7c0,0-0.1-0.1-0.1-0.1l-0.5-0.9l-0.5-1.1c0,0,0-0.1,0-0.1l-0.2-1l0-1c0,0,0-0.1,0-0.1l0.2-0.7
	c0-0.1,0.1-0.2,0.1-0.2l0.5-0.5c0.1-0.1,0.1-0.1,0.2-0.1l0.5-0.2c0.1,0,0.2,0,0.3,0l0.7,0.2c0,0,0,0,0.1,0c0.2,0,0.3,0.1,0.4,0.2
	l0.5,0.2c0,0,0.1,0,0.1,0.1l0.7,0.5c0,0,0.1,0.1,0.1,0.1l0.7,0.9c0,0,0,0.1,0.1,0.1l0.5,1l0.4,1.1l0.2,0.9
	C146.9,92.3,146.9,92.3,146.9,92.4z M140.7,146.2l0,0.1c0,0,0,0.1,0,0.1l-0.3,0.7c0,0.1-0.1,0.1-0.2,0.2l-0.5,0.3
	c-0.1,0.1-0.2,0.1-0.3,0.1h-0.7c0,0-0.1,0-0.1,0l-0.7-0.2c0,0-0.1,0-0.1-0.1l-0.9-0.5c0,0-0.1,0-0.1-0.1l-0.7-0.7
	c0,0-0.1-0.1-0.1-0.1l-0.5-1l-0.5-0.8c0-0.1-0.1-0.1-0.1-0.2l-0.2-1l0-1c0,0,0-0.1,0-0.1l0.2-0.7c0-0.1,0.1-0.2,0.1-0.2l0.5-0.5
	c0.1-0.1,0.1-0.1,0.2-0.1l0.5-0.2c0.1,0,0.1,0,0.2,0h0.7c0,0,0.1,0,0.1,0c0,0,0.1,0,0.1,0c0.2,0,0.3,0.1,0.4,0.2l0.5,0.2
	c0.1,0,0.1,0.1,0.2,0.1l0.7,0.7l0.7,0.9l0.6,0.9c0,0,0,0.1,0,0.1l0.3,1l0.2,1.1c0,0.1,0,0.1,0,0.2l0,0.1c0,0.1,0,0.1,0,0.2
	C140.8,146,140.8,146.2,140.7,146.2z"/>
<path class="st0" d="M118.6,139.3c0,0,0.1,0,0.1,0l2.3-0.7c0.1-0.1,0.2-0.1,0.4-0.1c0,0,0,0,0.1,0l15.3-4.9c0,0,0,0,0,0
	c0,0,0,0,0-0.1l1.5-2l1.5-3.4l0.7-4.3l0.2-5.8v-11.7l-3.9,1.2l-0.1,0.1c0,0-0.1,0.1-0.1,0.1l-0.2,0.1v0.1c0,0,0,0,0,0
	c0,0,0,0.1,0,0.1c0,0,0,0,0,0l-0.2,0.5l-0.9,2.4c0,0,0,0.1-0.1,0.1l-1.6,2.3c0,0-0.1,0.1-0.1,0.1l-2.4,1.9c0,0-0.1,0-0.1,0.1
	l-2.6,1.2c0,0,0,0,0,0c0,0,0,0,0,0l-15.8,4.9c0,0,0,0,0,0c0,0,0,0,0,0l-2.1,0.3c0,0-0.1,0-0.1,0c0,0-0.1,0-0.1,0l-2.3-0.3
	c0,0-0.1,0-0.1,0l-1.9-0.9c-0.1,0-0.2-0.1-0.2-0.2l-1-1.6c0-0.1-0.1-0.1-0.1-0.2l-0.2-1.3c0,0,0,0-0.1-0.1c-0.1-0.1-0.1-0.3,0-0.4
	l0-0.2c0,0,0,0,0,0c0,0,0,0,0,0v-3.1l0,0c0,0,0-0.1-0.1-0.1c0,0,0,0,0,0l-0.1-0.1h0l-1,0.4v19.8c0,0,0,0,0,0c0,0,0,0,0,0l-0.3,5
	l-1.2,4.8l-0.9,2l17.8-5.7C118.3,139.4,118.4,139.3,118.6,139.3z"/>
<path class="st0" d="M147.1,26.8C147.2,26.8,147.2,26.8,147.1,26.8c0.1,0,0.1,0.1,0.1,0.1c0,0,0,0,0,0c0,0,0,0,0,0l0-0.1l-1.6-0.7
	l-0.3-0.1L147.1,26.8C147.1,26.8,147.1,26.8,147.1,26.8z"/>
<polygon class="st0" points="166.3,66.1 166.3,65.8 166.4,64.6 166.1,66.5 166.1,66.9 "/>
<polygon class="st0" points="151.6,141.2 151.3,143.7 150.7,146.2 149.8,148.3 148.8,150.1 148.5,150.5 149,150.1 150.2,148.4 
	151,146.5 151.9,144.5 152.4,142.3 152.7,139.9 152.8,138.2 151.6,138.9 "/>
<polygon class="st0" points="151.6,137.7 152.9,137.1 152.9,98.5 151.6,99.2 "/>
<path class="st0" d="M116.5,115.4c0-0.1,0-0.2,0.1-0.2l0.2-0.3l0.1-0.5c0-0.1,0.1-0.1,0.1-0.2l0.3-0.3l0.1-0.3
	c0-0.1,0.1-0.2,0.2-0.2l0,0l-6-3.4l-0.5,0.5l-0.1,0.3l-0.3,0.4v0.2c0,0.1,0,0.1,0,0.2l-0.1,0.4L116.5,115.4L116.5,115.4z"/>
<path class="st0" d="M46.2,35.6l-0.7-0.9l-0.6-0.9l-0.5-1.1c0,0,0-0.1,0-0.1l-0.2-0.9l0-0.6h-0.3l-0.4,0.1l-0.2,0.4l-0.3,0.5v0.7
	l0.3,1l0.3,0.8l0.7,1l0.6,0.6l0.6,0.4l0.8,0.2l0.3,0l0.3-0.2l0.2-0.4l-0.6-0.4C46.3,35.6,46.2,35.6,46.2,35.6z"/>
<polygon class="st0" points="117.8,141.9 117.9,141.8 118.1,141.7 118.1,141.2 118.1,140.6 116.4,141.1 117.3,141.6 "/>
<path class="st0" d="M145.1,92.5l-0.7-0.7l-0.7-0.9c0,0-0.1-0.1-0.1-0.2l-0.7-2.1c0-0.1,0-0.1,0-0.2V88l-0.3-0.1l-0.3,0.1l-0.3,0.3
	l-0.1,0.5v0.8l0.2,0.9l0.5,1l0.5,0.8l0.6,0.6l1.3,0.7l0.4-0.1l0.4-0.2l0.2-0.3l0,0L145.1,92.5z"/>
<path class="st0" d="M119.1,117.2v-0.3c0-0.1,0.1-0.3,0.1-0.4l0,0v-0.1c0-0.1,0-0.2,0.1-0.2l0.5-1c0,0,0.1-0.1,0.1-0.1l0.4-0.4v-1.8
	l-0.1,0.2c0,0.1-0.1,0.2-0.2,0.2l-0.3,0.1l-0.3,0.3c0,0,0,0,0,0c0,0,0,0-0.1,0c0,0,0,0-0.1,0c0,0,0,0-0.1,0c0,0,0,0,0,0l-0.4,0.1
	l-0.3,0.3c0,0-0.1,0.1-0.1,0.1l-0.2,0.1l-0.1,0.2c0,0-0.1,0.1-0.1,0.1l-0.3,0.3l-0.3,0.7v0.8v1.6l1.6-0.5V117.2L119.1,117.2z"/>
<polygon class="st0" points="145.1,91.1 145.7,91.8 145.8,91.8 145.8,91.5 145.4,90.5 145,89.6 144.3,88.8 143.8,88.4 144.4,90.3 
	"/>
<polygon class="st0" points="178.8,52.6 178.8,51.6 178.5,50 177.4,47.4 177.2,47.1 173.9,49 174.2,49.4 175.2,52.1 175.6,53.9 
	175.6,54.9 175.6,55 178.9,53.1 "/>
<path class="st0" d="M167.2,27.9C167.2,27.9,167.2,27.9,167.2,27.9C167.2,27.9,167.2,27.9,167.2,27.9
	C167.2,27.9,167.2,27.9,167.2,27.9C167.2,27.9,167.2,27.9,167.2,27.9l0.5,0.8c0,0,0,0,0,0l0.3,0.5l0.7,0.8c0,0.1,0.1,0.1,0.1,0.2
	l0.2,0.7l0.9,1.5l6.8-4l0.2-0.5v-1.5l-0.3-0.9l-0.5-0.8l-0.6-0.7l-1.3-0.8h-0.5l-0.4,0.1l-6.5,3.7L167.2,27.9z"/>
<path class="st0" d="M20.1,56.5h4.5c0,0,0.1,0,0.1,0l2.4,0.5l2.5,0.9l2.6,1.1l2.4,1.1l15-8.7l-1.7-1l-2.5-1c0,0,0,0-0.1,0
	c0,0-0.1,0-0.1,0c0,0-0.1,0-0.1,0c-0.2,0-0.3-0.1-0.4-0.2c-0.1,0-0.2,0-0.2-0.1c0,0,0,0,0,0l-1.6-0.5l-2.4-0.5l-2.4-0.2l-2.2,0.2
	l-2,0.3l-1.9,0.8l-0.8,0.5c0,0,0,0,0,0c0,0,0,0,0,0L20,56.5l0,0C20.1,56.5,20.1,56.5,20.1,56.5z"/>
<path class="st0" d="M101.4,107.1l-0.5-3.3l-0.9-3.3l-1-3.3L97.8,94l-1.4-3.1l-1.6-3.3l-1.9-3.1L91,81.6L89,78.7l-1-1.2l-0.1,0
	c-0.1-0.1-0.2-0.2-0.2-0.3l-0.9-1.2l-2.2-2.4l-2.4-2.4L79.5,69l-2.4-1.7l-2.3-1.6l-15.2,8.8l1.9,1.1l2.6,1.9l2.5,2.1L69,82l2.3,2.6
	l2.3,2.8l2.1,2.8l2.1,3.2l1.8,3.2l1.6,3.2l1.6,3.3l1.2,3.3l1.1,3.3l1.4,6.5l0.4,3.2l0,2.2l15.2-8.6l-0.2-2.6L101.4,107.1z"/>
<polygon class="st0" points="93.7,83.9 93.8,84 95.7,87.2 96.5,88.9 98.1,86.4 "/>
<path class="st0" d="M174.7,40.7C174.7,40.8,174.8,40.8,174.7,40.7L175,41l0.7,0.9l0.6,0.9l0.5,1.1c0,0,0,0.1,0,0.1l0.2,0.7
	c0,0,0,0,0,0l0.4,0.8l6.7-3.8l0.3-0.4l0.3-0.5v-0.8l-0.2-0.8l-0.3-0.9l-1.3-1.6l-0.6-0.4l-0.5-0.1h-0.5l-7,4L174.7,40.7z"/>
<path class="st0" d="M144.9,28.3C144.9,28.3,144.9,28.3,144.9,28.3L144.9,28.3l-0.1-0.1C144.8,28.2,144.8,28.2,144.9,28.3z"/>
<path class="st0" d="M99,85.8C99,85.8,99,85.8,99,85.8C99,85.8,99,85.8,99,85.8l35.6,20.6l0.4-0.4c0.1-0.1,0.2-0.1,0.4-0.1h0.1
	l0.4-0.1L94.8,82.1l-1.1,0.6L99,85.8z"/>
<path class="st0" d="M31.9,64.2l-2.2-0.8l-1.9-0.9l-3.9-0.7l-1.8,0l-1.6,0.3l-0.7,0.2c0,0,0.1,0,0.1,0l2.4,1c0,0,0.1,0,0.1,0.1
	l2.4,2.1c0,0,0.1,0,0.1,0.1l2,2.6l6.1-3.5L31.9,64.2z"/>
<path class="st0" d="M178.3,47l1.1,2.7l0.4,1.8l0,0.9l5.5-3.2c0,0,0-0.1,0.1-0.1c0.1-0.2,0.3-0.3,0.5-0.2l0.4-0.3l0.1-0.1l0.3-0.4
	l0.3-0.5v-0.7l-0.3-0.8l-0.3-1l-0.6-0.8l-0.7-0.7l-0.6-0.5l-0.4-0.2l-6.1,3.4L178.3,47z"/>
<path class="st0" d="M170.6,33.6l0.3,0.1l0.8,0.6c0,0,0.1,0.1,0.1,0.1l0.7,0.9l0.6,0.9c0,0,0,0.1,0,0.1l0.3,1l0.2,0.9l0,0.5l0.1,0.1
	l7.2-4.1l0.3-0.2l0.1-0.4v-1.6l-0.5-0.9l-0.5-0.8l-0.6-0.8l-0.6-0.5l-0.5-0.2H178l-0.4,0.1l-7.1,4L170.6,33.6z"/>
<polygon class="st0" points="57.5,33.6 58.8,33 49,27.3 47.8,28 "/>
<polygon class="st0" points="92.8,82.1 94,81.4 93.7,81 92.5,81.7 "/>
<path class="st0" d="M131.2,101.8C131.2,101.8,131.2,101.8,131.2,101.8C131.2,101.8,131.2,101.8,131.2,101.8c0-0.1,0.1-0.1,0.1-0.1
	c0,0,0,0,0,0c0,0,0,0,0.1,0c0,0,0,0,0,0l1.7-0.9c0,0,0,0,0,0c0,0,0.1,0,0.1,0c0,0,0.1,0,0.1,0c0,0,0.1,0,0.1,0c0,0,0.1,0,0.1,0
	c0,0,0,0,0,0l1.4,0.8l-0.5-1.4l-1.4-2l-1.8-2l-2.7-1.9l-3.3-1.7l-3.7-1.2l-4.1-1l-5.7-0.5l-1.7-0.1L131.2,101.8
	C131.2,101.9,131.2,101.9,131.2,101.8C131.2,101.8,131.2,101.8,131.2,101.8z"/>
<path class="st0" d="M99.3,95.1C99.3,95.1,99.3,95.1,99.3,95.1l0.4,1.2l14.5,8.3c0,0,0,0,0,0c0,0,0.1,0,0.1,0.1c0,0,0,0,0.1,0.1
	c0,0,0,0.1,0,0.1c0,0,0,0.1,0,0.1c0,0,0,0,0,0.1v0.9l6.7,3.9c0,0,0,0,0,0c0,0,0,0,0.1,0c0,0,0,0,0,0c0,0,0,0,0,0.1c0,0,0,0,0,0.1
	c0,0,0,0,0,0c0,0,0,0.1,0,0.1c0,0,0,0,0,0.1c0,0,0,0,0,0v4.2l1.2,0.7c0,0,0,0,0.1,0c0,0,0.1,0,0.1,0.1c0,0,0,0.1,0,0.1
	c0,0,0,0,0,0.1l0.2,0.8l1.2-0.4c0,0,0,0,0-0.1l0.4-1.9c0-0.1,0-0.1,0.1-0.2l0.5-0.7c0,0,0.1-0.1,0.1-0.1l0.8-0.6c0,0,0,0,0,0
	c0,0,0.1,0,0.1-0.1c0,0,0.1,0,0.1,0c0,0,0,0,0,0l0.7-0.2c0,0,0.1,0,0.1,0h0.9c0.1,0,0.1,0,0.2,0l0.9,0.3c0,0,0.1,0,0.1,0.1l0.9,0.7
	l0.2,0.2l0.9-0.7l1.6-1.8l1.2-2.1l0.3-1.3L99.3,87.1V95.1z"/>
<polygon class="st0" points="72.2,32.1 75.5,32.7 78.9,33.4 82.2,34.4 85.7,35.8 89.2,37.4 92.9,39.1 96.4,41.3 99.9,43.5 103.4,46 
	106.9,48.6 110.4,51.6 113.7,54.7 117,58 120.2,61.3 126.1,68.7 128.9,72.5 131.3,76 132.6,75.3 127.8,68.2 122,61.3 116,54.9 
	109.6,49.2 103,44 96.2,39.7 89.7,36.2 82.9,33.8 76.6,32.2 70.6,31.6 66.4,32 69,32 "/>
<polygon class="st0" points="141.9,82.3 143.1,81.7 133.4,76 132.1,76.7 "/>
<path class="st0" d="M149.7,12.7C149.8,12.7,149.8,12.7,149.7,12.7l2.5-1.3l0.1-0.1c0.1-0.1,0.2-0.1,0.4-0.1h0.7c0,0,0.1,0,0.1,0
	l0.1,0l-2.3-3.7l-2,1.3c0,0,0,0,0,0c0,0,0,0,0,0L149,8.8l-0.3,0.4l-0.3,0.3v0.3c0,0.1,0,0.1,0,0.2l-0.1,0.4l0.5,1.5l0.5,0.8H149.7z"
	/>
<path class="st0" d="M127.9,113h-0.7l-0.5,0.1l-0.1,0.1l-0.7,0.5l-0.4,0.5l-0.2,1.3l0.5-0.5c0.1-0.1,0.2-0.1,0.4-0.1h0.7
	c0.1,0,0.2,0.1,0.3,0.1l1.8-0.8l0.5-0.4l-0.8-0.7L127.9,113z"/>
<polygon class="st0" points="110.6,113.2 110.6,119.9 111,119.8 116.5,118.2 116.5,116.6 "/>
<path class="st0" d="M111.6,31.7l7.5-2.1l6.7-1.2l6.7-0.4l6.5,0.5l0,0l-1.3-0.4l-2.6-0.7c-0.1,0-0.1,0-0.2,0c-0.2,0-0.3,0-0.4-0.1
	l-3.2-0.7l-1.7-0.3l-2.2-0.3l-2.6-0.5l-2.5-0.2l-2.1-0.4l-6.2-0.3l-3.1,0l-8.2,0.3l-5.5,0.7l-4.7,0.7l-9,1.7l-3.8,1l-5.9,1.2
	l-2.2,0.5l5.3,0.6l6.5,1.6l6.8,2.5l6.4,3.4l7.6-3.9L111.6,31.7z"/>
<path class="st0" d="M182.9,70.5l0.5,0.5l-0.3-0.5C183,70.5,183,70.5,182.9,70.5z"/>
<path class="st0" d="M183.3,68.1l-0.2,0.6l0.5,0.6c0,0,0,0,0,0c0,0,0,0,0,0l0.6,1l0.4,0.3l0.9,0.3h0.4l0.4-0.1l0.3-0.1c0,0,0,0,0,0
	l2.1-1.1l-2.5-4c0,0,0,0.1-0.1,0.1l-0.3,0.5c0,0.1-0.1,0.1-0.2,0.2l-0.3,0.2l-2,1.2v0.3C183.3,68,183.3,68.1,183.3,68.1z"/>
<path class="st0" d="M57.8,76.3l-0.3,0.7l2.4,1.4l2.5,1.9l4.9,4.5l2.5,2.6l2.1,2.8l2.1,3l1.9,3.2l1.8,3.1l2.8,6.7l1.1,3.3l0.9,3.1
	l0.7,3.3l0.4,3.2l0.2,2.7l0.3,0.2h0.2c0.1,0,0.1,0,0.2,0l0.4,0.1l0.4-0.1c0.1,0,0.1,0,0.2,0h0.2l0.3-0.2v-2.6l-0.3-3.1L84,110
	l-1-3.3l-1.2-3.3l-1.5-3.3L78.7,97l-1.7-3.1l-2.1-3.1l-2.1-2.8l-2.2-2.8l-2.3-2.6l-2.4-2.2l-2.4-2.1l-2.6-1.9l-2.2-1.3l-0.5,0.5
	L57.8,76.3z"/>
<path class="st0" d="M145.5,13.1L145.5,13.1C145.6,13.1,145.6,13.2,145.5,13.1l0.4,0.2l1-0.8l-0.2-0.3c0,0,0-0.1,0-0.1l-0.3-1.4
	c0-0.1,0-0.2,0-0.2l0.2-0.8l-0.1,0.1c0,0,0,0,0,0c0,0,0,0,0,0l-0.3,0.1l-0.4,0.5l-0.2,0.5l-0.2,1L145.5,13.1z"/>
<polygon class="st0" points="92.9,80.3 90.3,78.8 91.8,80.9 "/>
<path class="st0" d="M152.4,94.1l-0.5-1.9l-0.7-1.7l-1-1.9l-1-1.7l-1.2-1.5l-1.4-1.3l-1.4-1.2l-1.1-0.7l-1.2,0.6l0.8,0.4
	c0,0,0.1,0,0.1,0.1l1.4,1.2l1.3,1.4l1.4,1.8l1.1,1.6l1.8,3.9l0.5,1.8l0.4,2l0,1l1.2-0.7l-0.1-1.4L152.4,94.1z"/>
<path class="st0" d="M184.1,71.5l-0.5-0.3l0.3,0.3l0.4,0.1l-0.2-0.1C184.1,71.5,184.1,71.5,184.1,71.5z"/>
<polygon class="st0" points="143.7,28.9 143,28.7 143.6,29 "/>
<polygon class="st0" points="180,64.8 186.7,60.9 187.2,60.4 187.3,59.9 187,58.2 186.5,57.3 186.1,56.8 180,60.4 "/>
<path class="st0" d="M184.8,65.6C184.8,65.6,184.8,65.6,184.8,65.6C184.8,65.6,184.8,65.6,184.8,65.6l0.3-0.1l0.2-0.3l0.1-0.7
	l-0.1-0.4c-0.1-0.1-0.1-0.2-0.1-0.3l-0.2-0.7l-5.1,3v2.5L184.8,65.6z"/>
<path class="st0" d="M180,57.7v1.6l5.9-3.5c0,0,0.1-0.1,0.2-0.1l1.1-0.7c0,0,0,0,0,0l0,0c0,0,0,0,0,0c0,0,0.1,0,0.1-0.1l0.2-0.3
	l0.2-0.5l-0.3-1.7l-0.5-0.8l-0.5-1l-0.6-0.6l0,0l-5.9,3.4V57.7z"/>
<g>
	<path class="st1" d="M190.1,69.2l-0.2-0.2c0,0-0.1-0.1-0.1-0.1l-3.7-6.5l1.1-0.7c0,0,0,0,0.1,0c0,0,0,0,0.1,0L188,61
		c0.1-0.1,0.1-0.1,0.1-0.2l0.2-0.7c0-0.1,0-0.1,0-0.2l-0.3-1.9c0,0,0-0.1,0-0.1l-0.5-1c0,0-0.1-0.1-0.1-0.1l-0.3-0.3l0.6-0.4h0
		c0.2,0,0.3-0.1,0.4-0.2l0.4-0.6l0.3-0.7c0-0.1,0.1-0.2,0-0.3l-0.3-1.9c0-0.1,0-0.1-0.1-0.2l-0.5-0.8l-0.5-1c0,0-0.1-0.1-0.1-0.1
		l-0.6-0.5l0.1-0.1c0,0,0,0,0,0c0,0,0,0,0.1,0l0.2-0.3l0.4-0.6l0.3-0.7c0-0.1,0.1-0.1,0.1-0.2v-0.9c0-0.1,0-0.1,0-0.2l-0.3-0.8
		l-0.3-1c0-0.1,0-0.1-0.1-0.2l-0.7-0.9l-0.7-0.7l-0.7-0.6l0.4-0.6l0.3-0.7c0-0.1,0.1-0.1,0.1-0.2l0-1l-0.2-0.9l-0.3-1
		c0-0.1,0-0.1-0.1-0.2l-1.4-1.7c0,0-0.1-0.1-0.1-0.1l-0.7-0.5c-0.1,0-0.1-0.1-0.2-0.1l-0.7-0.2c0,0,0,0,0,0c0,0,0-0.1,0-0.1l0.2-0.7
		c0,0,0-0.1,0-0.1v-1.7c0-0.1,0-0.2-0.1-0.2l-0.5-1.1l-0.6-0.9l-0.7-0.9c0,0-0.1-0.1-0.1-0.1l-0.8-0.6l-0.7-0.3
		c-0.1,0-0.1-0.1-0.2-0.1h-0.7c0,0,0,0-0.1,0c0-0.1,0-0.1,0-0.2v-1.7c0-0.1,0-0.1,0-0.2l-0.3-1c0,0,0-0.1,0-0.1l-0.6-0.9l-0.7-0.9
		c0,0-0.1-0.1-0.1-0.1l-0.9-0.5l-0.7-0.3c-0.1,0-0.1-0.1-0.2-0.1h-0.7c-0.1,0-0.1,0-0.2,0l-0.4,0.1c0,0,0-0.1,0-0.1l-0.2-0.9
		l-0.4-1.1l-0.5-1c0,0-0.1-0.1-0.1-0.1l-1.4-1.4c0,0-0.1-0.1-0.1-0.1l-0.7-0.3c0,0-0.1,0-0.1,0l-0.7-0.2c-0.1,0-0.2,0-0.2,0
		l-0.7,0.2c0,0,0,0-0.1,0c0,0,0,0-0.1,0l-0.2,0.1l-0.2-0.7c0,0,0-0.1,0-0.1l-0.6-0.9l-0.7-0.9l-0.7-0.7c0,0-0.1-0.1-0.1-0.1
		l-0.7-0.3c0,0-0.1,0-0.1,0l-0.9-0.2c-0.1,0-0.2,0-0.3,0l-0.5,0.2c0,0,0,0,0,0c0,0,0,0,0,0l-0.9,0.5l-0.2-0.3c0,0,0-0.1-0.1-0.1
		l-0.7-0.9l-0.7-0.7l-0.7-0.5c-0.1,0-0.1-0.1-0.2-0.1l-0.7-0.2c-0.1,0-0.2,0-0.2,0l-0.6,0.2h-0.1c0,0,0,0,0,0c0,0-0.1,0-0.1,0
		c0,0-0.1,0-0.1,0c0,0,0,0,0,0l-1.3,0.8l-3.6-5.8c0,0,0,0,0,0c0,0,0,0,0,0c0,0,0,0,0,0l0,0c0-0.2-0.2-0.4-0.5-0.5l0,0
		c-0.1-0.1-0.2-0.1-0.4-0.1h-0.5c-0.2,0-0.4,0.2-0.5,0.4l-2.4,1.3c0,0,0,0-0.1,0c0,0-0.1,0-0.1,0.1c0,0,0,0.1-0.1,0.1
		c0,0,0,0.1,0,0.1c0,0,0,0,0,0l-0.1,0c0,0-0.1,0.1-0.1,0.1l-0.1,0.1l-1.2,0.8c-0.2,0-0.3,0-0.4,0.1l-0.3,0.3c0,0,0,0,0,0l-0.5,0.5
		c-0.1,0.1-0.1,0.1-0.1,0.2l-0.2,0.6l-0.2,0.5l-0.2,0.9c0,0.1,0,0.1,0,0.2l0.1,0.8h-1.2c-0.1,0-0.1,0-0.2,0l-0.5,0.2
		c0,0-0.1,0-0.1,0.1l-0.5,0.3l-3.3,1.9l-0.4,0.1c-0.1,0-0.2,0.1-0.2,0.1l-0.3,0.3L127,21.9c0,0,0,0,0,0c0,0,0,0,0,0l-0.6,0.4
		l-0.4,0.4l-0.7,1c0,0,0,0.1-0.1,0.1l-0.1,0.4l-0.2,0l-2.6-0.2l-2.1-0.4l-6.3-0.3h-3.2l-8.2,0.4l-5.6,0.7l-4.7,0.7l-9.1,1.7l-3.8,1
		l-4.2,0.9l-7.1,1.6l-3.8,0.7c-0.2,0-0.3,0.1-0.4,0.3l-4,1.1l-10.6-6.2c0,0,0,0,0,0c0,0,0,0,0,0l-1.5-0.7L46.2,25
		c-0.1,0-0.1,0-0.2,0l-1.3,0l-1.3,0.2l-1.2,0.3c0,0,0,0-0.1,0c0,0,0,0-0.1,0l-2.1,1.2c0,0,0,0,0,0c0,0,0,0,0,0l-1,0.9
		c0,0,0,0-0.1,0.1l-0.7,0.9c0,0-0.1,0.1-0.1,0.1l-0.6,1.3l-0.4,1.6L37,33.3c0,0,0,0,0,0c0,0,0,0,0,0v13.5l-0.1,0.3l-0.1,0.1
		l-0.8,0.1L34,47.6c0,0-0.1,0-0.1,0l-2,0.9L31,49.1l-15.2,8.6l-0.1,0c0,0-0.1,0-0.1,0l-0.9,0.5l0,0c0,0,0,0,0,0l0,0c0,0,0,0,0,0
		c0,0,0,0,0,0l-2.1,1.6L11,61.4L9.8,63l-1.3,2l-0.9,2.1l-0.9,2.3l-0.5,2.5l-0.4,2.7v3.1V78v0.1l-0.3,0.6c0,0,0,0.1,0,0.1l-0.3,1.3
		L4.9,81l-1.7,7.3c0,0,0,0.1,0,0.1v0.8l-0.3,1.3c0,0,0,0.1,0,0.1v0.8l-0.2,0.6c0,0,0,0.1,0,0.1l0,0.6l-0.2,1v2.2l-0.2,0.6
		c0,0,0,0.1,0,0.1v2.3v4.5c0,0,0,0.1,0,0.1l0.2,0.6v0.8c0,0,0,0.1,0,0.1l0.2,0.6l0,0.7l0.2,0.8v0.7c0,0,0,0.1,0,0.1l0.5,2.2l0,0.7
		l1,4.5c0,0,0,0.1,0,0.1l0.3,0.6L5,118c0,0,0,0.1,0,0.1l0.3,0.6l0.3,1.3c0,0,0,0.1,0,0.1l0.3,0.6l0.2,0.6c0,0,0,0.1,0,0.1l0.3,0.7
		L7,123l0.2,0.7c0,0,0,0.1,0,0.1l1.4,2.8l0.3,0.5l2.1,4.2c0,0,0.1,0.1,0.1,0.1l0.5,0.5l0.7,1.3c0,0,0.1,0.1,0.1,0.1l0.5,0.5l0.4,0.7
		l1.4,2L15,137l0.3,0.6c0,0,0.1,0.1,0.1,0.1l0.5,0.5l0.6,0.8l0.5,0.4l0.9,1.3l1.5,1.5l0.6,0.7l1.1,1.1l0.6,0.5l1.6,1.6l0.7,0.5
		l0.4,0.3l0.6,0.6l0.6,0.5l0.5,0.5c0,0,0.1,0.1,0.1,0.1l0.6,0.3l0.5,0.5l2,1.4l0.6,0.3l0.5,0.5c0,0,0.1,0.1,0.1,0.1l1.3,0.7l0.5,0.5
		c0,0,0.1,0.1,0.1,0.1l4.1,2.1l0.6,0.4l2.8,1.4c0,0,0.1,0,0.1,0l0.7,0.2c0,0,0.1,0,0.1,0c0,0,0,0,0,0l2.6,1l3.3,1.1l3.7,0.9
		c0,0,0,0,0,0c0,0,0,0,0,0l6,1.1l4.1,0l0.3,0.1l2.5,0.9l2.5,0.7l2.3,0.4l2.4,0.2c0,0,0,0,0,0c0,0,0.1,0,0.1,0l4.3-0.7l2-0.7l1.4-0.7
		c0,0,0,0,0,0c0,0,0,0,0,0l16.2-9.4c0,0,0,0,0,0c0,0,0,0,0,0l2.8-2.3c0,0,0.1-0.1,0.1-0.1l2.2-2.8l10.4-3.4l16.9,9.6c0,0,0,0,0,0
		c0,0,0,0,0,0l2.3,1.2l2.5,1.1l2.3,0.7l2.2,0.4l2.3,0l2-0.2l2-0.6l1.7-0.9c0,0,0,0,0,0l2.3-1.2c0,0,0,0,0,0c0,0,0,0,0,0l1.6-1.2
		l1.4-1.2c0,0,0.1-0.1,0.1-0.1l1.3-1.8l0.9-1.9l0.9-2.2l0.5-2.3l0.4-2.5l0.2-2.6c0,0,0,0,0,0c0,0,0,0,0,0v-36.9l1-2l1-2.4l1.4-3.5
		l2.3-6.4l0.5-1.6h0.2l0.6,0.2c0,0,0.1,0,0.1,0c0.1,0,0.1,0,0.2,0l1.6-0.5c0,0,0,0,0.1,0c0,0,0,0,0,0l10.6-6.1c0,0,0,0,0,0
		c0,0,0,0,0,0l4.2-2.4l0,0c0,0,0,0,0,0l0,0c0,0,0,0,0,0c0,0,0,0,0,0l0.6-0.4l0.4-0.4l0.7-1c0,0,0.1-0.1,0.1-0.2l0.2-0.7l0.2-0.5
		l0.2,0.2c0,0,0,0.1,0.1,0.1l0.7,0.7c0,0,0.1,0.1,0.1,0.1l0.9,0.5c0.1,0,0.1,0.1,0.2,0.1l1,0.2l0,0c0,0,0.1,0,0.1,0l0,0l0.1,0h1.1
		c0.1,0,0.2,0,0.2-0.1l0.2-0.1l0.2,0c0.1,0,0.2-0.1,0.3-0.2c0,0,0,0,0,0l2.3-1.3h0c0.2,0,0.4-0.1,0.5-0.3l1.6-1.1h0
		c0.3,0,0.5-0.2,0.5-0.5c0,0,0-0.1,0-0.1c0,0,0,0,0,0c0,0,0,0,0,0l0,0c0.1-0.1,0.1-0.2,0.1-0.4v-0.5
		C190.2,69.4,190.2,69.3,190.1,69.2z M183.8,73.2H183l-0.6-0.1l-0.6-0.3l-0.4-0.3l-0.5-0.5l-0.2-0.2L182,71l1.3,1.3
		c0.1,0.1,0.1,0.1,0.2,0.1l1.2,0.3l-0.3,0.2c0,0,0,0,0,0c0,0,0,0,0,0c0,0,0,0,0,0c0,0-0.1,0-0.1,0.1c0,0,0,0,0,0.1c0,0,0,0,0,0
		l-0.1,0L183.8,73.2z M148.5,14.5l1.3-0.7c0,0,0,0,0.1,0c0.1,0,0.3,0,0.4-0.1c0,0,0.1-0.1,0.1-0.2l2.4-1.3c0,0,0,0,0.1,0
		c0,0,0,0,0.1,0l0.5,0l0.6,0.1l0.8,0.5l0.2,0.2l-4.6,2.7L148.5,14.5z M152.7,11.1c-0.1,0-0.3,0.1-0.4,0.1l-0.1,0.1l-2.4,1.3
		c0,0-0.1,0-0.1,0h-0.5l-0.5-0.8l-0.5-1.5l0.1-0.4c0-0.1,0-0.1,0-0.2V9.5l0.3-0.3l0.3-0.4l0.2-0.1c0,0,0,0,0,0c0,0,0,0,0,0l2-1.3
		l2.3,3.7l-0.1,0c0,0-0.1,0-0.1,0H152.7z M147.5,11.2l0.2,0.6c0,0,0,0-0.1,0.1l-0.1-0.2l-0.3-1.2l0-0.2c0,0,0,0.1,0,0.1L147.5,11.2z
		 M145.6,10.4l0.4-0.5l0.3-0.1c0,0,0,0,0,0c0,0,0,0,0,0l0.1-0.1l-0.2,0.8c0,0.1,0,0.2,0,0.2l0.3,1.4c0,0,0,0.1,0,0.1l0.2,0.3l-1,0.8
		l-0.3-0.1c0,0,0,0,0,0l-0.1-0.1l-0.3-1.1l0.2-1L145.6,10.4z M146.9,14.8l0.2,0.1l0.2,0.1l6.8,4c0.1,0.1,0.2,0.2,0.4,0.2
		c0,0.1,0.1,0.1,0.2,0.1l0.3,0.1l1.2,0.7l0.1,0.1c0.1,0.1,0.2,0.1,0.3,0.1l4.2,2.5l-3.2,1.9l-14-8.1L146.9,14.8z M161.9,23.5
		l1.8,1.3l1.2,1.2l0.5,0.9l0.1,0.1c0,0.1,0,0.1,0.1,0.2c0.1,0.1,0.1,0.2,0.2,0.2l0.1,0.2l0.3,0.4l-3.3,1.9l-0.3-0.5l-0.5-0.7
		l-0.5-0.9c0,0,0-0.1-0.1-0.1l-0.7-0.7l-0.6-0.5l-0.5-0.6c0-0.1-0.1-0.1-0.2-0.1l-0.6-0.3l-0.1-0.1L161.9,23.5z M166.6,28.8l2.6,4.6
		c0,0.1,0,0.2,0.1,0.2c0,0.1,0.1,0.1,0.2,0.2l3.1,5.3v0c0,0.2,0.1,0.4,0.3,0.4l0.1,0.1c0,0.1,0,0.1,0.1,0.2c0,0,0.1,0.1,0.1,0.1
		c0,0.1,0,0.2,0.1,0.2c0,0.1,0.1,0.1,0.2,0.2l3.4,5.8l-3.3,1.9l-10.1-17.4L166.6,28.8z M177.2,47.1l0.2,0.4l1,2.5l0.3,1.6l0,1
		l0.1,0.5l-3.3,1.9l0-0.1l0-1l-0.4-1.8l-1.1-2.7l-0.3-0.4L177.2,47.1z M185.3,66.5l0.3-0.2c0.1,0,0.1-0.1,0.2-0.2l0.3-0.5
		c0,0,0-0.1,0.1-0.1l2.5,4l-2.1,1.1c0,0,0,0,0,0l-0.3,0.1l-0.4,0.1h-0.4l-0.9-0.3l-0.4-0.3l-0.6-1c0,0,0,0,0,0c0,0,0,0,0,0l-0.5-0.6
		l0.2-0.6c0-0.1,0-0.1,0-0.2v-0.3L185.3,66.5z M182,68.6l-0.2,0.1c0,0,0,0-0.1,0c0,0-0.1,0-0.1,0.1c0,0,0,0-0.1,0.1c0,0,0,0,0,0
		l-1.7,0.9v-0.3l2.1-1.3L182,68.6z M180.2,70.9L180.2,70.9l0.4-0.2L180.2,70.9z M183,70.5l0.3,0.5l-0.5-0.5
		C183,70.5,183,70.5,183,70.5z M184.1,71.5c0,0,0.1,0,0.1,0.1l0.2,0.1l-0.4-0.1l-0.3-0.3L184.1,71.5z M185.1,63l0.2,0.7
		c0,0.1,0,0.2,0.1,0.3l0.1,0.4l-0.1,0.7l-0.2,0.3l-0.2,0.1c0,0,0,0,0,0c0,0,0,0,0,0l-4.8,2.9V66L185.1,63z M175.8,56.1l3.2-1.9v3.5
		v2.1v10.5l-3.2,1.9V56.1z M186.5,57.3l0.5,0.9l0.3,1.7l-0.1,0.5l-0.6,0.6l-6.7,3.9v-4.4l6.1-3.6L186.5,57.3z M185.9,50l0.6,0.6
		l0.5,1l0.5,0.8l0.3,1.7l-0.2,0.5l-0.2,0.3c0,0-0.1,0-0.1,0.1c0,0,0,0,0,0l0,0c0,0,0,0,0,0l-1.1,0.7c-0.1,0-0.1,0.1-0.2,0.1
		l-5.9,3.5v-1.6v-4.2L185.9,50L185.9,50z M185,43.6l0.7,0.7l0.6,0.8l0.3,1l0.3,0.8v0.7l-0.3,0.5l-0.3,0.4l-0.1,0.1l-0.4,0.3
		c-0.2,0-0.4,0-0.5,0.2c0,0,0,0.1-0.1,0.1l-5.5,3.2l0-0.9l-0.4-1.8l-1.1-2.7l-0.4-0.6l6.1-3.4l0.4,0.2L185,43.6z M182.4,36.2
		l0.6,0.4l1.3,1.6l0.3,0.9l0.2,0.8v0.8l-0.3,0.5l-0.3,0.4l-6.7,3.8l-0.4-0.8c0,0,0,0,0,0l-0.2-0.7c0,0,0-0.1,0-0.1l-0.5-1.1
		l-0.6-0.9L175,41l-0.2-0.2c0,0-0.1,0-0.1-0.1l-0.4-0.7l7-4h0.5L182.4,36.2z M178,29.3h0.5l0.5,0.2l0.6,0.5l0.6,0.8l0.5,0.8l0.5,0.9
		v1.6l-0.1,0.4l-0.3,0.2l-7.2,4.1l-0.1-0.1l0-0.5l-0.2-0.9l-0.3-1c0,0,0-0.1,0-0.1l-0.6-0.9l-0.7-0.9c0,0-0.1-0.1-0.1-0.1l-0.8-0.6
		l-0.3-0.1l-0.1-0.1l7.1-4L178,29.3z M173.6,23.2h0.5l1.3,0.8l0.6,0.7l0.5,0.8l0.3,0.9V28l-0.2,0.5l-6.8,4l-0.9-1.5l-0.2-0.7
		c0-0.1,0-0.1-0.1-0.2l-0.7-0.8l-0.3-0.5c0,0,0,0,0,0l-0.5-0.8c0,0,0,0,0,0c0,0,0,0,0,0c0,0,0,0,0,0c0,0,0,0,0,0l-0.5-0.8l6.5-3.7
		L173.6,23.2z M168.7,18l0.5,0.1l0.6,0.3l1.3,1.3l0.5,0.9l0.3,1l0.2,0.8l-0.1,0.5l-5.8,3.3l-0.5-0.8c0,0,0-0.1-0.1-0.1l-1.3-1.3
		l-2.1-1.6c0,0,0,0,0,0c0,0,0,0,0,0l-0.7-0.4l5.8-3.4c0.1,0,0.1-0.1,0.2-0.1l0.7-0.4L168.7,18z M164,14.5l0.6,0.3l0.6,0.6l0.7,0.8
		l0.5,0.8l0.3,0.9l-6.2,3.6l-3.7-2.1l-0.3-0.3c0,0-0.1-0.1-0.2-0.1l-0.7-0.3l7.3-4.2l0.3-0.1L164,14.5z M158.3,12.3l0.5,0.1l0.6,0.4
		l0.7,0.7l0.7,0.8l0.2,0.3l-6.1,3.5l-3.4-2l4.5-2.7c0,0,0.1,0,0.1,0c0,0,0,0,0,0c0,0,0,0,0,0c0,0,0,0,0.1,0c0,0,0,0,0,0l1.5-0.9h0
		c0,0,0.1,0,0.1,0L158.3,12.3z M142.3,14.3C142.3,14.3,142.3,14.3,142.3,14.3C142.3,14.3,142.4,14.3,142.3,14.3l0.5-0.3l0.4-0.1h1.1
		l0.4,0.1c0.1,0.1,0.2,0.2,0.4,0.2c0,0,0.1,0,0.1,0c0,0,0.1,0,0.1-0.1l0.3,0.1c0.1,0.1,0.1,0.1,0.2,0.1l-3,1.7l-0.5-0.2
		c0,0-0.1,0-0.1,0l-1.4-0.3l-0.3-0.1L142.3,14.3z M73.6,30.2l5.9-1.2l3.8-1l9-1.7l4.7-0.7l5.5-0.7l8.2-0.3l3.1,0l6.2,0.3l2.1,0.4
		l2.5,0.2l2.6,0.5l2.2,0.3l1.7,0.3l3.2,0.7c0.1,0.1,0.3,0.2,0.4,0.1c0.1,0,0.1,0,0.2,0l2.6,0.7l1.3,0.4l0,0l-6.5-0.5l-6.7,0.4
		l-6.7,1.2l-7.5,2.1l-7.5,3.1l-7.6,3.9l-6.4-3.4l-6.8-2.5l-6.5-1.6l-5.3-0.6L73.6,30.2z M155.7,32.7l2,1.8l0,0l1.7,2.2l3.4,4.8l0,0
		l1.4,2.6l1.2,2.6l1.2,2.7l0.9,2.8l0.7,2.6l0.5,2.5l0.2,2.6l0,2.4l0,0.6l0-2.4l-0.7-5.3l-0.7-2.8l-0.9-2.7l-1.2-2.8l-1.2-2.7
		l-1.6-2.6l0,0l0,0l-1.6-2.6l-1.8-2.3l-1.9-2.3l-2-2.1l-2.1-1.8l-1.1-0.8l0.1-0.3l1.5,1.2L155.7,32.7z M151.6,99.2l1.3-0.7v38.5
		l-1.3,0.7V99.2z M151.6,98.1l0-1l-0.4-2l-0.5-1.8l-1.8-3.9l-1.1-1.6l-1.4-1.8l-1.3-1.4l-1.4-1.2c0,0-0.1,0-0.1-0.1l-0.8-0.4
		l1.2-0.6l1.1,0.7l1.4,1.2l1.4,1.3l1.2,1.5l1,1.7l1,1.9l0.7,1.7l0.5,1.9l0.3,1.9l0.1,1.4L151.6,98.1z M141.9,82.3l-9.8-5.7l1.2-0.7
		l9.8,5.7L141.9,82.3z M70.6,31.6l6,0.7l6.4,1.6l6.7,2.4l6.6,3.5L103,44l6.6,5.2l6.4,5.7l6.1,6.4l5.7,6.9l4.9,7l-1.4,0.7l-2.4-3.5
		l-2.8-3.8l-5.9-7.3L117,58l-3.3-3.3l-3.3-3.1l-3.5-3l-3.5-2.6l-3.5-2.4l-3.5-2.3l-3.5-2.1l-3.7-1.7l-3.5-1.6l-3.5-1.4l-3.4-1.1
		l-3.3-0.7l-3.4-0.5L69,32l-2.6,0L70.6,31.6z M133.6,74.9l-5.1-7.3l-5.8-7l-6.1-6.5l-6.5-5.8l-6.6-5.2l-6.1-3.9l7-3.6l7.4-3.1
		l7.4-2.1l6.5-1.2l6.5-0.3l6.4,0.5l6,1.4l3.7,2.5l3.6,3.4l3.3,4l2.9,4.5l2.2,4.3l1.7,4.2l-2,6.8l-1.4,3.6l-1.7,3.1l-2.2,2.9l-2.5,2
		l-3,1.2l-3.6,0.7l-4,0.3l-4.2,0.2L133.6,74.9z M168.7,64.4l0,0.2l-0.3,1.5l0.1-0.5l0-0.2l0-0.2l0.3-2L168.7,64.4z M143.7,28.9
		L143.7,28.9l-0.7-0.2L143.7,28.9z M144.9,28.3C144.9,28.3,144.9,28.3,144.9,28.3C144.9,28.3,144.9,28.3,144.9,28.3
		C144.9,28.3,144.9,28.3,144.9,28.3c-0.1-0.1-0.1-0.1-0.2-0.1L144.9,28.3L144.9,28.3z M146.1,27.6C146.1,27.6,146.1,27.6,146.1,27.6
		c-0.1-0.1-0.1-0.1-0.1-0.1L146.1,27.6L146.1,27.6z M147.3,26.9C147.3,26.9,147.3,26.9,147.3,26.9C147.3,26.9,147.3,26.9,147.3,26.9
		c-0.1-0.1-0.1-0.1-0.1-0.1c0,0,0,0,0,0c0,0,0,0,0,0l-1.7-0.7l0.3,0.1L147.3,26.9L147.3,26.9z M166,67l-0.1,0.5l0-0.1L166,67z
		 M167.5,65.1l0,0.3l-0.3,1.5l0.1-0.5l0.1-0.2l0-0.2l0.3-2L167.5,65.1z M166.3,65.8l0,0.3l-0.2,0.9l0-0.5l0.3-1.9L166.3,65.8z
		 M150.9,30.3l1.5,1.1l2.1,1.9l1.9,1.9l1.9,2.2l3.4,4.8l1.4,2.6l1.2,2.6l1.2,2.7l0.9,2.8l0.7,2.5l0.7,5.2l0,2.4l0,0.6l0-2.4
		l-0.7-5.3l-0.7-2.8l-1-2.6l-1.1-2.8l-1.2-2.7l-1.6-2.6l0,0l0,0l-1.6-2.6l-1.8-2.3l-1.9-2.3l-2-2.1l-2.1-1.8l-1.1-0.8L150.9,30.3z
		 M149.7,31l1.5,1.1l2.1,1.9l1.9,1.9l1.9,2.2l3.4,4.8l1.4,2.6l1.2,2.8l1.2,2.5l0,0l0.9,2.7l0.7,2.5l0.3,2.8l0.3,2.4l0,2.4l0,0.6
		l0-2.4l-0.4-2.6l-1.1-5.5l-1-2.6l-1.1-2.8l-1.2-2.7l-1.6-2.6l0,0l0,0l-1.6-2.6l-1.8-2.3l-1.9-2.3l-2-2.1l-2.1-1.8l-1.1-0.8
		L149.7,31z M148.5,31.9L148.5,31.9l3.5,2.8l3.8,4.1l3.4,4.8l1.4,2.6l1.2,2.8l1.2,2.5l0,0l0.9,2.7l0.7,2.5l0.3,2.8l0.3,2.4l0,2.4
		l-0.1,1.9l-0.1,0.9l-0.2,0.8l0.2-1.6l0.2-2.3l-0.2-2.6l-0.4-2.6l-0.5-2.7l-0.9-2.8l-0.9-2.7l-1.2-2.8l-1.4-2.6l-1.6-2.6l-1.6-2.5
		l-1.9-2.3l-1.9-2.1l-1.9-1.9l-2.1-1.8L148.5,31.9C148.5,31.9,148.5,31.9,148.5,31.9z M151.3,29.2l-0.2-0.1c0,0,0,0-0.1,0
		c0,0-0.1,0-0.1,0c0,0-0.1,0-0.1,0c0,0,0,0-0.1,0h-0.2c0,0,0,0,0,0c0,0,0,0,0,0c0,0,0,0-0.1,0c0,0-0.1,0-0.1,0c0,0,0,0,0,0
		c0,0,0,0-0.1,0c0,0-0.1,0-0.1,0.1c0,0,0,0,0,0c0,0,0,0,0,0c0,0,0,0,0,0.1c0,0,0,0.1,0,0.1c0,0,0,0,0,0l-0.1,0.5l-0.1-0.1
		c0,0,0,0-0.1,0c0,0-0.1,0-0.1,0c0,0-0.1,0-0.1,0c0,0,0,0-0.1,0h-0.2c0,0,0,0,0,0c0,0,0,0,0,0c0,0,0,0,0,0c0,0,0,0,0,0
		c0,0-0.1,0-0.1,0c0,0,0,0,0,0c0,0,0,0,0,0c0,0,0,0,0,0c0,0,0,0-0.1,0.1c0,0,0,0,0,0c0,0,0,0,0,0c0,0,0,0,0,0.1c0,0,0,0.1,0,0.1
		c0,0,0,0,0,0l-0.1,0.5l-0.1-0.1c0,0,0,0-0.1,0c0,0-0.1,0-0.1,0c0,0-0.1,0-0.1,0c0,0,0,0-0.1,0h-0.2c0,0,0,0,0,0c0,0,0,0,0,0
		c0,0-0.1,0-0.1,0c0,0,0,0-0.1,0c0,0,0,0,0,0c0,0,0,0-0.1,0.1c0,0,0,0-0.1,0c0,0,0,0,0,0c0,0,0,0,0,0c0,0,0,0,0,0.1c0,0,0,0,0,0.1
		c0,0,0,0,0,0c0,0,0,0,0,0l-0.1,0.5l-1.1-0.7l-1-0.6l3.6-2.2l0.9,0.5L151.3,29.2L151.3,29.2z M57.5,33.6L47.8,28l1.2-0.7l9.8,5.7
		L57.5,33.6z M43.7,26.2l1.1-0.2H46l1.4,0.5l0.5,0.3l-1.2,0.6l-1.2-0.6c0,0-0.1,0-0.1,0L44,26.4l-0.8-0.1L43.7,26.2z M44.9,48
		c0,0,0,0.1,0,0.1l-0.1,0.1l-1.4-0.4l-0.3-0.1c0,0,0,0,0,0l-1.5-0.9l0.6-0.3L44.9,48z M38.3,47l0.4-0.1H39l1.3,0.3l0.1,0L38.3,47
		l-0.2,0.1L38.3,47z M40.4,46.2l-0.5-0.1l0.4-0.2h0.5l0.2,0L40.4,46.2z M31.5,49.9C31.5,49.9,31.5,49.9,31.5,49.9
		C31.5,49.9,31.5,49.9,31.5,49.9l0.8-0.5l1.9-0.8l2-0.3l2.2-0.2l2.4,0.2l2.4,0.5l1.6,0.5c0,0,0,0,0,0c0.1,0,0.2,0.1,0.2,0.1
		c0.1,0.1,0.2,0.2,0.4,0.2c0,0,0.1,0,0.1,0c0,0,0.1,0,0.1,0c0,0,0,0,0.1,0l2.5,1l1.7,1l-15,8.7L32.3,59l-2.6-1.1L27.2,57l-2.4-0.5
		c0,0-0.1,0-0.1,0h-4.5c0,0-0.1,0-0.1,0l0,0L31.5,49.9z M63.3,35.5c0,0,0.1,0,0.2,0h3.5l6.4,0.2l3,0.2c0,0,0,0,0,0c0,0,0,0,0,0
		l2.4,0.5l5,1.5l5.2,2.2l5.2,2.6l5.2,3.3l5.2,3.8l5,4.1l4.9,4.9l4.8,5l4.5,5.6c0,0,0,0,0,0l1.5,2l1.4,2.1l2.8,4.5l1.2,2.2l1,2.4
		l1,2.2l0.9,2.4l2.4,8l1.7,7.8l-1.4-0.8l-1-2.6c0,0,0-0.1-0.1-0.1l-1.4-2.1l-1.9-2.1c0,0-0.1-0.1-0.1-0.1l-2.8-1.9l-3.4-1.8
		l-3.9-1.2l-4.3-1.1l-5.8-0.5l-3.7-0.2l-13.1-7.5L94.3,80c0,0,0,0,0,0c0,0,0,0-0.1-0.1c0,0,0,0-0.1-0.1c0,0,0,0,0,0c0,0,0,0,0,0
		l-5.5-3.2l-1.2-1.4l-2.3-2.4l-2.5-2.5l-2.6-2.1l-2.4-1.7L75,64.7c0,0,0,0,0,0c0,0,0,0,0,0L52.6,51.9v-0.4l1.7-5.8l2.4-5l0.8-1.3
		l1-1.2l1-1l1.2-0.9l0.9-0.5L63.3,35.5z M142.3,104.8h0.9l0,0c0,0,0,0,0.1,0c0,0,0,0,0,0l2.2,1.3l-0.6,0.3l-2.2-1.3c0,0,0,0,0,0
		c0,0,0,0,0,0c0,0-0.1,0-0.1,0c0,0,0,0,0,0c0,0,0,0-0.1,0c0,0,0,0,0,0l0,0c-0.1-0.1-0.2-0.1-0.4-0.1h-0.6L142.3,104.8z M149.6,125.8
		l-0.5,4.3l-1,3.7l-0.5,0.9l-0.1,0.1l1-3.7l0.4-2.8l0-1.3l0.1-1.3l0.6-0.3L149.6,125.8z M143.4,136.2
		C143.4,136.2,143.4,136.2,143.4,136.2C143.4,136.2,143.4,136.2,143.4,136.2l-4-2.3l1.2-1.5c0,0,0.1-0.1,0.1-0.1l1.6-3.7
		c0,0,0-0.1,0-0.1l0.7-4.6l0.2-4.4v-13.1l1.7,1l0.6,0.5l1.2,1.2l0.5,0.7l0.7,1.7l0.3,1.7v12.1l-0.2,1.6l0,1.3l-0.3,2.7l-1,3.8
		l-0.5,1.1l-0.3,0.3c0,0-0.1,0.1-0.1,0.1l-0.1,0.2l-0.1,0.1l-0.5,0.2h-0.7l-0.4-0.1L143.4,136.2z M79.2,107.6l-0.9-2.5l0.9,2.2
		l0.9,2.9l0.7,2.8l0.5,2.8l0.3,2.6l0.2,2.5l-3,1.6l0.8-4.1l0.2-5.3L79.2,107.6z M8,72.7C8,72.8,8,72.8,8,72.7L8,72.9l0.6-2.2
		l0.8-2.4l1-1.8l1.4-1.7l1.4-1.5l1.6-1.1l1.8-0.8l2-0.5l2.2-0.3l2.2,0.2l2.4,0.3l1.2,0.3L24,60.8l-2,0l-1.8,0.4l-1.6,0.5l-0.8,0.3
		c-0.1,0-0.2,0-0.3,0l-0.3,0.2c0,0,0,0,0,0c0,0,0,0,0,0l-1.7,1c-0.1,0.1-0.2,0.1-0.2,0.2L14.3,64c0,0-0.1,0.1-0.1,0.1l-2.3,2.5
		L10,69.4L8,72.7z M50.8,52l23,13.2L58.6,74L35.7,60.6L50.8,52z M133.6,100.7C133.6,100.7,133.6,100.7,133.6,100.7
		c-0.1,0-0.1,0-0.1,0c0,0-0.1,0-0.1,0c0,0-0.1,0-0.1,0c0,0-0.1,0-0.1,0c0,0,0,0,0,0l-1.7,0.9c0,0,0,0,0,0c0,0,0,0-0.1,0c0,0,0,0,0,0
		c0,0,0,0,0,0.1c0,0,0,0,0,0c0,0,0,0,0,0c0,0,0,0,0,0.1c0,0,0,0,0,0l-21.1-12.1l1.7,0.1l5.7,0.5l4.1,1l3.7,1.2l3.3,1.7l2.7,1.9
		l1.8,2l1.4,2l0.5,1.4L133.6,100.7z M95.7,87.2L93.8,84l-0.1-0.1l4.4,2.5l-1.5,2.5L95.7,87.2z M98.3,88v4.7l-1-2.2L97,90L98.3,88z
		 M121.8,115.9l0.2,0.7l-1.9,0.5V117l0,0c0.1-0.1,0.1-0.2,0.1-0.4v-0.2l0.4-0.9l0.2-0.2L121.8,115.9z M111.2,110.5l0.5-0.5l6,3.4
		l0,0c-0.1,0-0.2,0.1-0.2,0.2l-0.1,0.3l-0.3,0.3c-0.1,0.1-0.1,0.1-0.1,0.2l-0.1,0.5l-0.2,0.3c0,0.1-0.1,0.1-0.1,0.2v0l-6-3.4
		l0.1-0.4c0-0.1,0-0.1,0-0.2v-0.2l0.3-0.4L111.2,110.5z M117.5,116.3v-0.8l0.3-0.7l0.3-0.3c0,0,0.1-0.1,0.1-0.1l0.1-0.2l0.2-0.1
		c0,0,0.1-0.1,0.1-0.1l0.3-0.3l0.4-0.1c0,0,0,0,0,0c0,0,0,0,0.1,0c0,0,0,0,0.1,0c0,0,0,0,0.1,0c0,0,0,0,0,0l0.3-0.3l0.3-0.1
		c0.1,0,0.2-0.1,0.2-0.2l0.1-0.2v1.8l-0.4,0.4c0,0-0.1,0.1-0.1,0.1l-0.5,1c0,0.1-0.1,0.1-0.1,0.2v0.1l0,0c-0.1,0.1-0.1,0.2-0.1,0.4
		v0.3v0v0.3l-1.6,0.5V116.3z M120.2,110.6c0,0.1,0,0.1,0,0.2v0.2l-0.3,0.7l-0.3,0.3c0,0-0.1,0.1-0.1,0.1l-0.1,0.2l-0.2,0.1
		c0,0-0.1,0.1-0.1,0.1l-0.1,0.1l-6-3.4l0,0c0,0,0.1-0.1,0.1-0.1l0.3-0.3c0,0,0.1-0.1,0.1-0.1l0.2-0.4l0.1-0.5l0.3-0.6l5.9,3.4
		L120.2,110.6z M113.4,106.2v0.4l-0.3,0.7l-0.1,0.5l-0.1,0.3l-0.2,0.2l-0.3,0.1c0,0-0.1,0.1-0.1,0.1l-0.3,0.3l-0.4,0.1c0,0,0,0,0,0
		c0,0,0,0-0.1,0c0,0-0.1,0-0.1,0c0,0,0,0,0,0c0,0,0,0,0,0l-0.9,0.9c0,0-0.1,0.1-0.1,0.1l-0.5,0.8c-0.1,0.1-0.1,0.2-0.1,0.3v0.3
		l-0.1,0.4c0,0.1,0,0.1,0,0.2v0.3v2.8l-1.2-0.6c0,0,0,0-0.1,0c0,0-0.1,0-0.1,0c0,0-0.1,0-0.1,0c0,0-0.1,0-0.1,0c0,0-0.1,0-0.1,0
		c0,0,0,0-0.1,0l-2.7,1.6v-2.9v0v0c0,0,0,0,0,0c0-0.1,0-0.1,0-0.2c0-0.1-0.1-0.1-0.1-0.2c0,0,0,0,0,0l0,0l0,0l0,0
		c0-0.1-0.1-0.2-0.1-0.3l-0.2-0.2c-0.1-0.1-0.2-0.1-0.4-0.1h-0.1l-0.7-0.4c0,0,0,0,0,0c0,0-0.1,0-0.1,0c0,0-0.1,0-0.1,0c0,0,0,0,0,0
		h-0.5l-0.1-1.5l-0.4-3.2l-0.5-3.4l-0.9-3.3l-0.8-2.6l13.2,7.6V106.2z M105.5,118.4l-0.2-1.2l2.9-1.7l1.3,0.7L105.5,118.4
		L105.5,118.4z M111,119.8l-0.4,0.1v-6.7l6,3.4v1.6L111,119.8z M126.6,113.2L126.6,113.2l0.6-0.2h0.7l0.7,0.3l0.8,0.7l-0.5,0.4
		l-1.8,0.8c-0.1-0.1-0.2-0.1-0.3-0.1h-0.7c-0.1,0-0.3,0.1-0.4,0.1l-0.5,0.5l0.2-1.3l0.4-0.5L126.6,113.2z M130.3,113.3l-0.2-0.2
		l-0.9-0.7c0,0-0.1-0.1-0.1-0.1l-0.9-0.3c-0.1,0-0.1,0-0.2,0h-0.9c0,0-0.1,0-0.1,0l-0.7,0.2c0,0,0,0,0,0c0,0-0.1,0-0.1,0
		c0,0-0.1,0-0.1,0.1c0,0,0,0,0,0l-0.8,0.6c0,0-0.1,0.1-0.1,0.1l-0.5,0.7c0,0.1-0.1,0.1-0.1,0.2l-0.4,1.9c0,0,0,0,0,0.1l-1.2,0.4
		l-0.2-0.8c0,0,0,0,0-0.1c0,0,0-0.1,0-0.1c0,0-0.1-0.1-0.1-0.1c0,0,0,0-0.1,0l-1.2-0.7v-4.2c0,0,0,0,0,0c0,0,0,0,0-0.1
		c0,0,0-0.1,0-0.1c0,0,0,0,0,0c0,0,0,0,0-0.1c0,0,0,0,0-0.1c0,0,0,0,0,0c0,0,0,0-0.1,0c0,0,0,0,0,0l-6.7-3.9V105c0,0,0,0,0-0.1
		c0,0,0-0.1,0-0.1c0,0,0-0.1,0-0.1c0,0,0-0.1-0.1-0.1c0,0,0,0-0.1-0.1c0,0,0,0,0,0l-14.5-8.3l-0.4-1.1c0,0,0,0,0-0.1v-8l34.9,20.3
		l-0.3,1.3l-1.2,2.1l-1.6,1.8L130.3,113.3z M135.5,107L135.5,107L135.5,107L135.5,107z M135.8,105.8l-0.4,0.1h-0.1
		c-0.1,0-0.3,0.1-0.4,0.1l-0.4,0.4L99,85.8c0,0,0,0,0,0c0,0,0,0,0,0l-5.3-3l1.1-0.6L135.8,105.8z M92.8,82.1l-0.3-0.4l1.2-0.7
		l0.3,0.4L92.8,82.1z M91.8,80.9l-1.5-2.2l2.6,1.5L91.8,80.9z M87.7,77.1c0,0.1,0.1,0.3,0.2,0.3l0.1,0l1,1.2l2.1,2.9l1.9,2.9
		l1.9,3.1l1.6,3.3l1.4,3.1l1.2,3.3l1,3.3l0.9,3.3l0.5,3.3l0.3,3.1l0.2,2.6l-15.2,8.6l0-2.2l-0.4-3.2l-1.4-6.5l-1.1-3.3l-1.2-3.3
		l-1.6-3.3l-1.6-3.2l-1.8-3.2l-2.1-3.2l-2.1-2.8l-2.3-2.8L69,82l-2.5-2.3l-2.5-2.1l-2.6-1.9l-1.9-1.1l15.2-8.8l2.3,1.6l2.4,1.7
		l2.6,2.1l2.4,2.4l2.2,2.4L87.7,77.1z M83.6,122.1l-0.2-2.7l-0.4-3.2l-0.7-3.3l-0.9-3.1l-1.1-3.3l-2.8-6.7l-1.8-3.1l-1.9-3.2l-2.1-3
		l-2.1-2.8L67.3,85l-4.9-4.5l-2.5-1.9l-2.4-1.4l0.3-0.7l0.3-0.6l0.5-0.5l2.2,1.3l2.6,1.9l2.4,2.1l2.4,2.2l2.3,2.6l2.2,2.8l2.1,2.8
		l2.1,3.1l1.7,3.1l1.6,3.1l1.5,3.3l1.2,3.3l1,3.3l1.4,6.4l0.3,3.1v2.6l-0.3,0.2h-0.2c-0.1,0-0.1,0-0.2,0l-0.4,0.1l-0.4-0.1
		c-0.1,0-0.1,0-0.2,0h-0.2L83.6,122.1z M34,62.1l0.1-0.3l0.2-0.2l0.3-0.1c0,0,0.1-0.1,0.1-0.1l0.1-0.1l22.9,13.4l-0.4,0.4
		c0,0-0.1,0.1-0.1,0.1L56.9,76l-0.1,0.5l-0.1,0.1L33.5,63.3v-0.1l0.3-0.7L34,62.1z M20.4,62.2l1.6-0.3l1.8,0l3.9,0.7l1.9,0.9
		l2.2,0.8l1.1,0.7l-6.1,3.5l-2-2.6c0,0,0-0.1-0.1-0.1l-2.4-2.1c0,0-0.1-0.1-0.1-0.1l-2.4-1c0,0-0.1,0-0.1,0L20.4,62.2z M33.9,65.5
		L57,78.7l-6.3,3.7l-3.4-0.8l-6.6-2.4l-2.9-1.4L35,76.2l-2.4-1.7l-2.1-1.9l-1.9-1.9l-1.2-1.6L33.9,65.5z M57.9,79.3l2.6,1.8l2,1.5
		l2.1,1.9l2.1,2.1l3.8,4.5l1.9,2.6l1.6,2.6l0.7,1.2l-2.5-3.3c0,0,0-0.1-0.1-0.1l-3.5-3.2L64.7,88L60,85.4l-5.1-1.9L52,82.7
		L57.9,79.3z M78,126.3l0.6-2.7l3.2-1.8v19.1l-3.4,2l-0.5-1.4l-0.7-4.7l-0.2-2.4l0.2-2.6L78,126.3z M81.9,142.1
		C81.9,142.1,81.9,142.1,81.9,142.1l0,1l-0.2,2.2l-0.5,2.2l-0.5,1.9l-0.7,1.7l-0.4,0.9l0.5-2.4c0-0.1,0-0.1,0-0.2l-0.3-2.8
		c0,0,0-0.1,0-0.1l-0.9-2.6L81.9,142.1z M74,158.1c0.1,0,0.2,0.1,0.2,0.1c0.1,0,0.2,0,0.3-0.1l1.7-1c0.1,0,0.1-0.1,0.2-0.2l0,0
		l1.4-1.1l1.1-1.1l1.1-1.5l0.9-1.8l0.7-1.8l0.4-1.6l0,0.2l-0.7,2.4l-0.9,2.2l-1,2l-1.3,1.7l-1.4,1.5l-1.6,1.1l-1.8,0.8l-2,0.5
		l-2,0.3l-2.3-0.2l-0.6-0.1l1.6-0.2l2.5-0.7l2.3-0.9L74,158.1z M83.6,123.2c0.1,0,0.1,0,0.2,0h0.3l0.4,0.1c0.1,0,0.1,0,0.2,0
		c0.1,0,0.1,0,0.2,0l0.4-0.1h0.3c0.1,0,0.1,0,0.2,0v19.2h-0.2c-0.1,0-0.2,0-0.2,0.1l-0.2,0.1h-0.8l-0.2-0.1c-0.1,0-0.1-0.1-0.2-0.1
		h-0.2V123.2z M86.7,122.7l15.2-8.6v19l-15.2,8.8V122.7z M109.6,117.3v2.7l-1,0.1l-2-0.5c-0.1,0-0.1,0-0.2,0l-0.3-0.4L109.6,117.3z
		 M112.4,120.5L112.4,120.5l0.6-0.2L112.4,120.5z M131.8,113.3l1.7-1.9c0,0,0.1-0.1,0.1-0.1l1.1-2.1l-0.5,1.3l-1.5,2.1l-2.3,1.8
		l-0.4,0.2L131.8,113.3z M135.1,107.9L135.1,107.9l-0.2,0.8L135.1,107.9z M140.8,128.2l0.7-4.4l0.2-5.9V106h0.3l0,0c0,0,0,0,0,0
		l0,13.5l-0.2,4.3l-0.7,4.5l-1.5,3.5l-1.3,1.5l-0.3-0.2l1-1.4c0,0,0-0.1,0.1-0.1l1.6-3.5C140.8,128.3,140.8,128.3,140.8,128.2z
		 M149.6,124.2l-0.6,0.3v-11.1l0.6-0.4V124.2z M149.6,111.9l-0.7,0.5l-0.2-1.1l-0.7-1.8l-0.5-0.9c0,0,0-0.1-0.1-0.1l-1.3-1.3
		l-0.1-0.1l0.7-0.4l0.4,0.2l0.6,0.6l0.5,0.7l0.6,0.9l0.5,0.6l0.3,0.9l0.2,0.6V111.9z M137.8,105.2l-5.1-3.1l0.7-0.3l2.3,1.3l0.2,0.1
		l2,1.2l0.1,0.7L137.8,105.2z M55,41.7l0.3-0.1l-1.8,3.8l-1.7,5.7l-0.2,0.2l-0.1-0.1l1.3-4.4L55,41.7z M7.7,69.7l0.9-2.2l0.8-2
		l1.2-1.9l1.2-1.5l1.5-1.4l1.5-1.2l0.5-0.3l0.9-0.5l1.9-0.6l2-0.5h4.4l2.3,0.5l2.4,0.9l2.6,1l1.9,0.9c0,0-0.1,0-0.1,0.1l-0.3,0.3
		c0,0-0.1,0.1-0.1,0.1l-0.2,0.4l-0.1,0.5l-0.3,0.6l-2-1.1l-2.5-1.1L25.6,60l-2.5-0.4l-2.3-0.2c0,0-0.1,0-0.1,0l-2.3,0.4l-2.2,0.6
		l-2,0.9l-1.7,1.2c0,0-0.1,0-0.1,0.1L11,64.2L9.6,66l-1.1,2l-0.9,2.5l-0.3,1.1L7.7,69.7z M50.9,159l-3.6-0.9l-3.3-1l-2.6-1
		c-0.1,0-0.2,0-0.2,0l-0.6-0.2l-2.7-1.3l-0.6-0.4l-4.1-2.1l-0.5-0.5c0,0-0.1-0.1-0.1-0.1l-1.3-0.7l-0.5-0.5c0,0-0.1-0.1-0.1-0.1
		L30,150l-1.9-1.3l-0.5-0.5c0,0-0.1-0.1-0.1-0.1l-0.6-0.3l-0.5-0.5l-0.6-0.5l-0.6-0.6l-1.1-0.8l-1.6-1.6l-0.6-0.5l-1-1l-0.6-0.8
		l-1.5-1.5l-0.9-1.3l-0.5-0.5l-0.6-0.8l-0.5-0.5l-0.3-0.6c0,0-0.1-0.1-0.1-0.1l-0.5-0.5L14,134l-0.3-0.7c0,0-0.1-0.1-0.1-0.1
		l-0.5-0.5l-0.7-1.3c0,0-0.1-0.1-0.1-0.1l-0.5-0.5l-2.1-4.2l-0.3-0.5l-1.4-2.7l-0.2-0.7l-0.4-0.9l-0.3-0.6l-0.2-0.6c0,0,0-0.1,0-0.1
		l-0.3-0.6l-0.3-1.3c0,0,0-0.1,0-0.1L6,117.7l-0.3-1.5c0,0,0-0.1,0-0.1l-0.3-0.6l-1-4.3v-0.7c0,0,0-0.1,0-0.1l-0.5-2.2l0-0.7
		l-0.2-0.8v-0.7c0,0,0-0.1,0-0.1l-0.2-0.6v-0.8c0,0,0-0.1,0-0.1l-0.2-0.6v-4.5v-2.2l0.2-0.6c0,0,0-0.1,0-0.1l0-2.2l0.2-1v-0.6
		l0.2-0.6c0,0,0-0.1,0-0.1v-0.8l0.3-1.3c0,0,0-0.1,0-0.1v-0.8l1.7-7.2l0.4-0.9l0.3-1.3l0-0.1c0.2-0.1,0.3-0.2,0.3-0.5v-0.3L7,77.7
		L7.4,77c0,0,0-0.1,0-0.1l0-0.1c0.1-0.1,0.2-0.2,0.2-0.4l0-0.2l1-2c0,0,0,0,0,0c0,0,0,0,0,0l0.3-1l1.9-3.2l1.9-2.7l2.2-2.4l2.1-1.1
		l1.3-0.3h1.2l2.3,1l2.3,2l2.2,2.9c0,0,0,0,0,0l1.6,2.1l1.9,1.9l2.1,2l2.5,1.8l2.8,1.6l3,1.4l6.7,2.5l3.7,0.9c0,0,0,0,0,0l3.9,1
		l5,1.9l4.6,2.6l3.8,2.8l3.4,3.1l2.9,3.9l2.2,4.1l1.7,5.1L79,113l-0.2,5.1l-1,5l-0.7,3l-0.7,5.6l-0.2,2.7l0.2,2.5l0.7,4.8l0.7,2.1
		c0,0,0,0,0,0c0,0,0,0,0,0l1,2.9l0.3,2.6l-0.5,2.5l-1,2.1l-2.3,2.3l-3,1.7l-2.2,0.9l-2.3,0.7l-5.3,0.5l-1.5,0h0l-4.1,0L50.9,159z
		 M63.3,160.9L63.3,160.9C63.4,160.9,63.4,160.9,63.3,160.9L63.3,160.9z M76.7,160.9l-1.8,0.7l-4.1,0.7l-2.3-0.2l-2.2-0.3l-1.1-0.3
		l1.8,0.3l2.4,0.2c0,0,0,0,0,0c0,0,0.1,0,0.1,0l2.1-0.4l2.2-0.6l2-0.9l1.7-1.2c0,0,0.1,0,0.1-0.1l1.4-1.6l1.4-1.7c0,0,0-0.1,0.1-0.1
		l1.1-2.1l0.9-2.3l0.7-2.5l0.4-2.8l0.1-2.1h0.1l0.2,0.1c0.1,0,0.1,0.1,0.2,0.1h1c0.1,0,0.2,0,0.2-0.1l0.2-0.1h0.1l0,2l-0.3,2.7
		l-0.7,2.6l-0.7,2.2l-1,2l-1.2,1.9l-1.5,1.5l-1.5,1.3l-0.9,0.5L76.7,160.9z M96.8,148.7l-2.7,2.2l-11.6,6.7l0,0c0,0,0-0.1,0.1-0.1
		l1.2-2l1.1-2.2l0.7-2.3l0.7-2.7l0.4-2.8V143l15.1-8.8l-0.3,4l-1.2,4.6l-1.4,2.9L96.8,148.7z M101.3,143.2l1.2-4.8l0.3-5
		c0,0,0,0,0,0c0,0,0,0,0,0v-19.8l1-0.4h0l0.1,0.1c0,0,0,0,0,0c0,0,0,0.1,0.1,0.1l0,0v3.1c0,0,0,0,0,0c0,0,0,0,0,0l0,0.2
		c-0.1,0.1-0.1,0.3,0,0.4c0,0,0,0,0.1,0.1l0.2,1.3c0,0.1,0,0.1,0.1,0.2l1,1.6c0.1,0.1,0.1,0.1,0.2,0.2l1.9,0.9c0,0,0.1,0,0.1,0
		l2.3,0.3c0,0,0.1,0,0.1,0c0,0,0.1,0,0.1,0l2.1-0.3c0,0,0,0,0,0c0,0,0,0,0,0l15.8-4.9c0,0,0,0,0,0c0,0,0,0,0,0l2.6-1.2
		c0,0,0.1,0,0.1-0.1l2.4-1.9c0,0,0.1-0.1,0.1-0.1l1.6-2.3c0,0,0-0.1,0.1-0.1l0.9-2.4l0.2-0.5c0,0,0,0,0,0c0,0,0-0.1,0-0.1
		c0,0,0,0,0,0v-0.1l0.2-0.1c0,0,0.1-0.1,0.1-0.1l0.1-0.1l3.9-1.2v11.7l-0.2,5.8l-0.7,4.3l-1.5,3.4l-1.5,2c0,0,0,0,0,0.1c0,0,0,0,0,0
		l-15.3,4.9c0,0,0,0-0.1,0c-0.1,0-0.3,0.1-0.4,0.1l-2.3,0.7c0,0-0.1,0-0.1,0c-0.2,0-0.3,0.1-0.4,0.2l-17.8,5.7L101.3,143.2z
		 M117.3,141.6l-0.9-0.5l1.7-0.6v0.6v0.5l-0.1,0.1l-0.1,0.1L117.3,141.6z M119.4,140.1l-0.4,0.2v-0.1L119.4,140.1z M142.3,154.4
		l-1.8,0.5l-1.9,0.2l-2.2,0l-2-0.3l-2.2-0.7l-2.4-1l-2.2-1.2c0,0,0,0,0,0l-16.1-9.2l3.6-1.2l1.7,0.9c0,0,0,0,0,0c0,0,0,0,0,0
		l0.7,0.3c0.1,0,0.1,0.1,0.2,0.1h0.2c0.1,0,0.2,0,0.2-0.1l0.3-0.2c0,0,0,0,0,0c0,0,0,0,0,0l2.6-1.5l0.3-0.2c0.2-0.1,0.3-0.3,0.3-0.4
		l0.1-0.3c0-0.1,0.1-0.1,0.1-0.2v-0.3v-0.3l15.9-5.1l0.2,0.1c0,0,0,0,0,0l0.3,0.2l4.5,2.6l0.5,0.3c0,0,0.1,0,0.1,0.1l0.5,0.2
		c0.1,0,0.1,0,0.2,0h0.9c0.1,0,0.1,0,0.2,0l0.6-0.2l0.3-0.2c0,0,0.1-0.1,0.1-0.1l1.3-0.8c0,0,0,0,0,0c0,0,0,0,0.1,0l0.5-0.5
		c0,0,0.1-0.1,0.1-0.1l0.2-0.3c0,0,0,0,0,0l0.6-1.1l1.1-3.9l0.5-4.4v-1.4v-12.4v-0.9c0,0,0-0.1,0-0.1l-0.2-0.7l-0.3-1
		c0-0.1,0-0.1-0.1-0.1l-0.5-0.7l-0.6-0.9l-0.6-0.8l-0.7-0.7c0,0-0.1-0.1-0.1-0.1l-0.7-0.3l-2.9-1.7l-0.1-0.1
		c-0.1-0.1-0.2-0.1-0.4-0.1h-1.2c0,0,0,0-0.1,0c0,0,0,0-0.1,0l-3.2,1l0-0.4c0,0,0,0,0,0c0.1-0.2,0.1-0.4,0-0.6l-0.1-0.8c0,0,0,0,0,0
		c0,0,0,0,0,0l-1.7-7.9l-2.4-8c0,0,0,0,0,0c0,0,0,0,0,0l-0.9-2.5l-1-2.2l-1.1-2.5l-1.2-2.3l-2.8-4.5l-1.4-2.1l-1.6-2.1c0,0,0,0,0,0
		c0,0,0,0,0,0l-4.6-5.6l-4.9-5.1l-4.9-4.9l-5.1-4.2l-5.2-3.8L94.7,42c0,0,0,0,0,0c0,0,0,0,0,0l-5.2-2.6L84.1,37L79,35.5l-5.1-1.1
		L69.2,34l-4.5,0.2c0,0,0,0,0,0c0,0,0,0,0,0l-3.1,0.7c0,0-0.1,0-0.1,0l-1.4,0.7l-1.3,0.7l-1.3,0.9l-1.3,1.3l-0.8,1.2l-1,1.2l0,0
		c0,0,0,0,0,0c0,0,0,0,0,0c0,0,0,0,0,0.1l-2.5,5.3l-1.2,4.3l-1.9-1.1l-2.5-1v-0.5v0v-0.2c0-0.2-0.1-0.3-0.2-0.4c0,0,0-0.1-0.1-0.1
		l-0.2-0.2c0,0,0,0-0.1,0c0,0,0,0-0.1,0l-3.1-1.7l-0.5-0.3c0,0-0.1-0.1-0.2-0.1L41,44.8c0,0-0.1,0-0.1,0h-0.7c-0.1,0-0.2,0-0.3,0.1
		l-0.5,0.3L38,46V33.4l0.2-1.5l0.3-1.5l0.5-1.2l0.6-0.8l0.9-0.8l0.9-0.3l1.2-0.2l1.3,0.2l1.3,0.3l1.3,0.7l10.8,6.3c0,0,0,0,0,0
		c0.1,0,0.1,0.1,0.2,0.1c0,0,0,0,0,0c0,0,0,0,0,0s0,0,0,0c0,0,0,0,0,0c0,0,0.1,0,0.1,0l2.7-0.9l2.8-0.5l2.7-0.3l3.1,0l3.1,0.2
		l3.3,0.5l3.3,0.7l3.3,1l3.5,1.4l3.5,1.6l3.6,1.7l3.5,2.1l3.5,2.3l3.5,2.4l3.5,2.6l3.5,2.9l3.3,3.1l3.3,3.3l3.1,3.3l5.9,7.3l2.8,3.8
		l2.6,3.8c0,0,0,0,0,0c0,0.1,0.1,0.1,0.1,0.1c0,0,0,0,0,0c0,0,0,0,0,0l10.8,6.3l0,0l0,0c0,0,0,0,0,0c0,0,0,0,0,0l1.5,0.8l1.3,1.1
		l1.2,1.4l1.4,1.7l1,1.5l1.7,3.8l0.5,1.7l0.3,1.8v1.7v39.7l0,2.5l-0.3,2.4l-0.5,2.3l-0.8,2l-1,1.7l-1.2,1.7l-1.3,1.3l-1.5,1l0,0
		L142.3,154.4z M152.7,139.9l-0.3,2.4l-0.5,2.2l-0.9,2.1l-0.8,1.8l-1.2,1.7l-0.5,0.4l0.3-0.4l1.1-1.8l0.9-2.2l0.5-2.5l0.4-2.5v-2.3
		l1.2-0.6L152.7,139.9z M157.8,88.1l-0.7,2.1l-0.7,1.9L154,98l-0.1,0.2v-0.5c0,0,0,0,0,0c0,0,0,0,0,0c0,0,0,0,0,0l-0.2-1.8l-0.4-2
		l-0.5-2l-0.7-1.8l-1.1-1.9l-1.1-1.8l-1.3-1.6l-1.4-1.4l-1.5-1.3l-1.4-0.9c0,0,0,0,0,0c0,0,0,0,0,0l-9.5-5.5l2.8-0.3l4.2-0.2
		l4.1-0.4l3.7-0.7l3.1-1.2c0,0,0.1,0,0.1-0.1l2.6-2.1c0,0,0.1-0.1,0.1-0.1l2.3-3l1.8-3.2l1.4-3.7l1.5-5.1l1,3.9l0.3,4.4l-0.3,4.1
		l-0.3,1c0,0.1,0,0.2,0,0.2l-1.2,4.7c-0.2,0.1-0.3,0.4-0.2,0.6l-1.1,3.8l-1.2,4l-1,3.1L157.8,88.1z M161,83.6l-0.6-0.1c0,0,0,0,0,0
		l0.2-0.6l1.2-4l1.1-4l0.2-0.2c0.1,0,0.2-0.1,0.3-0.1l0.3-0.2c0,0,0,0,0,0c0.1,0,0.1,0,0.2,0c0,0,0,0,0.1,0c0,0,0.1,0,0.1,0l0.3-0.2
		l0.7-0.4c0,0,0.1-0.1,0.1-0.1l1.3-1.3l0.1-0.1c0,0,0,0,0.1-0.1l1.1-1.5l0.9-1.8l0.7-2l0.3-1.9l0-0.2l0-0.2l0.3-2.1l0-2.5l-0.7-5.3
		l-0.7-2.8l-0.9-2.7l-1.2-2.8l-1.2-2.7l-1.6-2.6l0,0l0,0l-1.6-2.6l-1.8-2.3l-1.9-2.3l-2-2.1l-2.1-1.8l-1.7-1.3
		c-0.1-0.2-0.2-0.4-0.5-0.4H152h0h0c0,0,0,0,0,0c0,0,0,0,0,0c0,0-0.1,0-0.1,0c0,0,0,0-0.1,0c0,0,0,0,0,0l-1.3-0.9l-0.8-0.5
		c0,0,0,0,0-0.1c-0.1-0.2-0.3-0.3-0.5-0.2l-0.3-0.2c0-0.1-0.1-0.2-0.1-0.2l-0.2-0.2c0,0,0,0,0,0c0,0-0.1-0.1-0.1-0.1c0,0,0,0,0,0
		l-2.2-0.9l-2.1-0.5l-1.9-0.3c0,0-0.1,0-0.1,0l-2,0.2l-0.2,0l-1.7,0.3c0,0-0.1,0-0.1,0l-0.5,0.2l-0.8,0.3c0,0-0.1,0-0.1,0.1
		l-0.4,0.3h0c-0.2,0-0.3,0.1-0.4,0.2l-0.3,0.2c0,0,0,0,0,0c0,0,0,0,0,0l-0.3,0.2l0,0l-1.9-0.4l-3.3-0.7l-2.2-0.3l-1.5-0.3l0.1-0.2
		l0.6-0.9l0.3-0.3l0.5-0.3l10.6-6.1c0,0,0,0,0,0c0,0,0,0,0,0l0.7-0.4l0.1,0h1.1l1.8,0.5l0.6,0.3l14.9,8.7l0.7,0.5l0.6,0.3l0.5,0.6
		c0,0,0.1,0.1,0.1,0.1l0.6,0.5l0.7,0.7l0.5,0.9l0.5,0.7l0.5,0.9c0,0,0,0,0,0l10.6,18.3c0,0,0,0,0,0c0,0,0,0,0,0c0,0,0,0,0,0
		c0,0,0,0,0,0l0.5,0.8l1,2.5l0.3,1.6l0,1l0.2,0.8v17.1l-0.2,0.6c0,0,0,0.1,0,0.1v0.8l-0.3,1.1l-0.6,0.9l-0.3,0.3l-0.1,0.1l-6.8,3.9
		c0,0,0,0,0,0c0,0,0,0,0,0l-4.1,2.4L161,83.6z M178.8,72l-0.3,1.1l-0.6,0.9l-0.3,0.3l-0.5,0.3l-1.8,1l0.1-0.5l0.2-0.5
		c0-0.1,0-0.1,0-0.2v-0.8l0.1-0.4l3.1-1.8V72z"/>
	<path class="st1" d="M140.8,145.7c0-0.1,0-0.1,0-0.2l-0.2-1.1l-0.3-1c0,0,0-0.1,0-0.1l-0.6-0.9l-0.7-0.9l-0.7-0.7
		c0,0-0.1-0.1-0.2-0.1l-0.5-0.2c-0.1-0.1-0.2-0.2-0.4-0.2c0,0-0.1,0-0.1,0c0,0-0.1,0-0.1,0h-0.7c-0.1,0-0.1,0-0.2,0l-0.5,0.2
		c-0.1,0-0.1,0.1-0.2,0.1l-0.5,0.5c-0.1,0.1-0.1,0.1-0.1,0.2l-0.2,0.7c0,0,0,0.1,0,0.1l0,1l0.2,1c0,0.1,0,0.1,0.1,0.2l0.5,0.8l0.5,1
		c0,0,0.1,0.1,0.1,0.1l0.7,0.7c0,0,0.1,0.1,0.1,0.1l0.9,0.5c0,0,0.1,0,0.1,0.1l0.7,0.2c0,0,0.1,0,0.1,0h0.7c0.1,0,0.2,0,0.3-0.1
		l0.5-0.3c0.1,0,0.1-0.1,0.2-0.2l0.3-0.7c0,0,0-0.1,0-0.1l0-0.1c0.1-0.1,0.2-0.2,0.2-0.4C140.8,145.8,140.8,145.8,140.8,145.7
		L140.8,145.7z M138.2,142l0.7,0.8l0.5,0.8l0.3,0.9l0.1,0.5l-0.1-0.1l-1.3-1.6l-0.3-1l-0.3-0.8v-0.1L138.2,142z M139.4,146.6
		l-0.3,0.2h-0.5l-0.6-0.1l-0.8-0.5l-0.6-0.6l-0.5-1l-0.5-0.8l-0.1-0.9v-0.8l0.1-0.5l0.3-0.3l0.3-0.1h0.3v0.5c0,0.1,0,0.1,0,0.2
		l0.3,0.8l0.3,1c0,0.1,0,0.1,0.1,0.2l1.4,1.7c0,0,0.1,0.1,0.1,0.1l0.6,0.5L139.4,146.6z"/>
	<path class="st1" d="M146.4,90.2l-0.5-1c0,0,0-0.1-0.1-0.1l-0.7-0.9c0,0-0.1-0.1-0.1-0.1l-0.7-0.5c0,0-0.1,0-0.1-0.1l-0.5-0.2
		c-0.1-0.1-0.2-0.2-0.4-0.2c0,0,0,0-0.1,0l-0.7-0.2c-0.1,0-0.2,0-0.3,0l-0.5,0.2c-0.1,0-0.1,0.1-0.2,0.1l-0.5,0.5
		c-0.1,0.1-0.1,0.1-0.1,0.2l-0.2,0.7c0,0,0,0.1,0,0.1l0,1l0.2,1c0,0,0,0.1,0,0.1l0.5,1.1l0.5,0.9c0,0,0,0.1,0.1,0.1l0.7,0.7
		c0,0,0.1,0.1,0.1,0.1l0.9,0.5l0.7,0.3c0.1,0,0.1,0.1,0.2,0.1c0,0,0.1,0,0.1,0l0.7-0.2c0.1,0,0.1,0,0.2-0.1l0.5-0.3
		c0.1,0,0.1-0.1,0.1-0.1l0.3-0.5c0-0.1,0.1-0.1,0.1-0.2l0.2-0.9c0-0.1,0-0.1,0-0.2l-0.2-0.9L146.4,90.2z M144.3,88.8l0.6,0.8
		l0.5,0.9l0.3,1l0.1,0.3l-0.1-0.1l-0.7-0.7l-0.6-0.8l-0.6-1.9L144.3,88.8z M145.5,93.3l-0.4,0.2l-0.4,0.1l-1.3-0.7l-0.6-0.6
		l-0.5-0.8l-0.5-1l-0.2-0.9v-0.8l0.1-0.5l0.3-0.3l0.3-0.1l0.3,0.1v0.4c0,0.1,0,0.1,0,0.2l0.7,2.1c0,0.1,0,0.1,0.1,0.2l0.7,0.9
		l0.7,0.7l0.6,0.5l0,0L145.5,93.3z"/>
	<path class="st1" d="M48.1,35.5c0-0.1,0-0.1,0-0.2l-0.2-1.1l-0.3-1c0,0,0-0.1,0-0.1l-1-1.7c0-0.1-0.1-0.1-0.1-0.1l-0.9-0.7
		c0,0-0.1,0-0.1-0.1l-0.3-0.2C45,30.1,44.8,30,44.7,30c0,0-0.1,0-0.1,0c0,0-0.1,0-0.1,0h-0.7c0,0-0.1,0-0.1,0L43,30.2
		c-0.1,0-0.2,0.1-0.3,0.2L42.3,31L42,31.7c0,0.1-0.1,0.1-0.1,0.2v0.9c0,0.1,0,0.1,0,0.2l0.4,1.1l0.3,0.9c0,0,0,0.1,0,0.1l0.8,1.1
		l0.7,0.7l0.7,0.5c0.1,0,0.1,0.1,0.2,0.1l1,0.2h0.5c0.1,0,0.2,0,0.3-0.1l0.5-0.3c0.1,0,0.1-0.1,0.2-0.2l0.3-0.7c0,0,0-0.1,0-0.1
		l0-0.1c0.1-0.1,0.2-0.2,0.2-0.4C48.1,35.7,48.1,35.7,48.1,35.5L48.1,35.5z M45.7,31.9l1,1.6l0.3,0.9l0.1,0.5l-0.1-0.1l-0.6-0.7
		l-0.5-0.8l-0.5-1l-0.1-0.7v-0.1L45.7,31.9z M46.7,36.5l-0.3,0.2l-0.3,0l-0.8-0.2l-0.6-0.4l-0.6-0.6l-0.7-1l-0.3-0.8l-0.3-1v-0.7
		l0.3-0.5l0.2-0.4l0.4-0.1h0.3l0,0.6l0.2,0.9c0,0,0,0.1,0,0.1l0.5,1.1l0.6,0.9l0.7,0.9c0,0,0.1,0.1,0.1,0.1l0.6,0.4L46.7,36.5z"/>
</g>
</svg>
