<?xml version="1.0" encoding="utf-8"?>
<!-- Generator: Adobe Illustrator 19.2.1, SVG Export Plug-In . SVG Version: 6.00 Build 0)  -->
<svg version="1.1" id="RHD" xmlns="http://www.w3.org/2000/svg" xmlns:xlink="http://www.w3.org/1999/xlink" x="0px" y="0px"
	 viewBox="0 0 385 103.1" style="enable-background:new 0 0 385 103.1;" xml:space="preserve">
<style type="text/css">
	.st0{fill:#999999;}
	.st1{fill:url(#SVGID_1_);}
	.st2{fill:#E5E5E5;}
	.st3{fill:#FFFFFF;}
</style>
<g>
	<rect x="8.9" y="89.8" class="st0" width="29.6" height="6"/>
	<rect x="63.6" y="89.8" class="st0" width="29.6" height="6"/>
	<rect x="118.2" y="89.8" class="st0" width="29.6" height="6"/>
	<rect x="172.9" y="89.8" class="st0" width="29.6" height="6"/>
	<rect x="227.5" y="89.8" class="st0" width="29.6" height="6"/>
	<rect x="282.2" y="89.8" class="st0" width="29.6" height="6"/>
	<rect x="336.8" y="89.8" class="st0" width="29.6" height="6"/>
</g>
<linearGradient id="SVGID_1_" gradientUnits="userSpaceOnUse" x1="148.0449" y1="52.5791" x2="364.1112" y2="52.5791" gradientTransform="matrix(1 0 0 1 0 -1.0321)">
	<stop  offset="0" style="stop-color:#88E333"/>
	<stop  offset="0.4609" style="stop-color:#88E333;stop-opacity:0.55"/>
	<stop  offset="1" style="stop-color:#88E333;stop-opacity:0.3"/>
</linearGradient>
<path class="st1" d="M261,0.2c-51.1-1.8-107.6,8-117.7,9.8c1.1,0.3,2.4,0.8,3.8,1.3c3.7,1.3,4.9,2.3,6.8,5.5c2,3.5,5,14.9,5,23.6
	s-3,20.1-5,23.6c-1.9,3.2-3.2,4.2-6.8,5.5c-1.5,0.5-2.7,0.9-3.9,1.3c7,4.6,38.5,24.4,72.2,30.3c38.2,6.7,53.3-4.1,58.8-25.6
	C279.6,54,290.9,52,326,43.9S468.2,7.5,261,0.2z"/>
<path class="st2" d="M92.8,8C92.8,8,92.8,8,92.8,8C92.9,8,92.9,8,92.9,8c0.4,0.9,0.7,1.7,0.9,2c0.3,0.5,0.5,0.5,1,0.6
	c0.2,0,0.4,0,0.7,0c0,0,0.1,0.1,0.1,0.1c-0.3,0-0.6,0-0.8,0c-0.6-0.1-0.7-0.2-1-0.6c-0.2-0.4-0.5-1.2-0.9-2.1C92.8,8,92.8,8,92.8,8
	c-0.1,0-0.1,0-0.1,0C92.7,7.9,92.7,8,92.8,8z"/>
<path class="st2" d="M98.1,9.9C98.1,9.9,98.1,9.9,98.1,9.9c0,0,0-0.1,0-0.4C98.2,9.8,98.1,9.9,98.1,9.9C98.1,9.9,98.1,9.9,98.1,9.9z
	"/>
<path class="st2" d="M98.9,11.2c0.2,0.2,0.5,0.4,0.8,0.5l-3.9,1c0-0.1,0-0.3,0-0.4c0.1-0.4,0.2-0.6,0-1.2c0,0,0-0.1,0-0.1
	c0,0,0,0,0,0c0,0,0,0,0,0c0.8-0.1,1.6-0.3,2.2-0.6c0.1,0,0.1-0.1,0.1-0.1C98.3,10.5,98.5,10.9,98.9,11.2z"/>
<path class="st2" d="M98.2,72.5c0,0.1,0,0.2-0.1,0.3C98.1,72.7,98.2,72.6,98.2,72.5z"/>
<path class="st2" d="M106.4,72.4c-1.9,0.1-4.8,0.2-8.2,0.4c0,0,0,0,0,0C101.6,72.6,104.5,72.4,106.4,72.4z"/>
<path class="st2" d="M67.1,73.8C67.1,73.8,67.2,73.8,67.1,73.8c-0.5,0.3-1.4,0.8-2,0.9C65.7,74.6,66.6,74.1,67.1,73.8z"/>
<path class="st2" d="M97.8,10.1c-0.1,0.1-0.2,0.1-0.4,0.2C97.5,10.2,97.7,10.2,97.8,10.1z"/>
<path class="st2" d="M97.9,72.6C97.9,72.6,97.9,72.6,97.9,72.6C97.9,72.7,97.9,72.7,97.9,72.6C97.8,72.7,97.8,72.6,97.9,72.6z"/>
<path class="st2" d="M92.9,72.8c0.4-1,0.7-1.8,0.9-2.1c0.1-0.2,0.2-0.3,0.3-0.4c-0.1,0.1-0.1,0.2-0.2,0.4
	C93.7,71.1,93.4,71.9,92.9,72.8C93,72.8,92.9,72.8,92.9,72.8z"/>
<path class="st2" d="M95.7,68l3.9,1c-0.2,0.1-0.5,0.3-0.8,0.5c-0.4,0.3-0.6,0.7-0.8,0.9c-0.6-0.3-1.5-0.5-2.2-0.6
	c-0.1,0-0.1,0-0.2,0c0,0,0.1-0.1,0.1-0.2c0.2-0.6,0.1-0.8,0-1.2C95.7,68.3,95.7,68.2,95.7,68z"/>
<path class="st2" d="M57.6,73.6c0.5,0.3,1.4,0.8,2.1,1C59.1,74.5,58.1,73.9,57.6,73.6C57.6,73.6,57.6,73.6,57.6,73.6z"/>
<path class="st2" d="M92.5,73.2c-1,0-1.9,0.1-2.9,0.1C90.5,73.3,91.5,73.3,92.5,73.2L92.5,73.2z"/>
<path class="st2" d="M94.8,10.3c-0.4,0-0.5,0-0.7-0.5c-0.1-0.3-0.4-1.1-0.8-1.9c0,0-0.1,0-0.1,0c0-0.1,0-0.1-0.1-0.2
	c0-0.2-0.1-0.3-0.2-0.3c-0.5-1.2-0.9-2.5-1-2.9c0-0.2,0.1-0.3,0.1-0.3c0.1-0.2,0.4-0.3,0.7-0.3c0.8-0.1,1.2,0,1.9,0.5
	c0.5,0.4,1.8,1.9,2.5,3.3c0,0,0.1,0,0.2,0c0,0.1,0.1,0.1,0.1,0.2c0.1,0,0.1,0,0.1,0c0,0.1,0.1,0.1,0.1,0.2h0c0,0,0,0,0,0
	c0,0.1,0,0.1,0,0.1h0c0.1,0.2,0.2,0.3,0.2,0.5c0,0.1,0,0.1,0,0.1c0-0.2-0.1-0.4-0.2-0.6c0.1,0.2,0.1,0.4,0.2,0.6c0,0,0,0,0,0.1
	c0,0.1,0,0.2,0,0.3c0,0.1,0,0.2,0,0.2c0,0.1,0,0.1,0,0.2v0.1c-0.3,0.2-1.8,0.6-2.8,0.6C94.9,10.3,94.9,10.3,94.8,10.3z"/>
<path class="st2" d="M59.7,6c-0.8,0.2-2.1,1-2.3,1.3c0,0-0.1,0-0.1,0c-0.2-0.1-0.5-0.1-0.5-0.1c0.1,0,0.3,0,0.5,0
	C57.6,7,58.9,6.2,59.7,6z"/>
<path class="st2" d="M97.4,7.6c-0.7-1.3-2.1-2.8-2.7-3.3c-0.7-0.5-1.3-0.7-2.1-0.6c-0.3,0-0.6,0.1-0.8,0.3c0.2-0.2,0.5-0.3,0.9-0.4
	c0.8-0.1,1.4,0.1,2.1,0.6c0.6,0.4,2,2.1,2.8,3.4C97.5,7.6,97.5,7.6,97.4,7.6C97.5,7.6,97.5,7.6,97.4,7.6z"/>
<rect x="56.7" y="7.5" class="st2" width="0.6" height="0"/>
<path class="st2" d="M78.6,73.6c-3.6,0-7.1-0.1-10.4-0.2v0C71.5,73.5,75.1,73.6,78.6,73.6z"/>
<path class="st2" d="M56.8,73.2c0.1,0,0.3,0,0.5-0.1C57.1,73.2,56.9,73.2,56.8,73.2L56.8,73.2z"/>
<path class="st3" d="M152.8,56.8c-0.3,1.5-2.6,7-4.3,8.5c-1.6,1.4-5,2.4-6.2,2.5C143.6,66,151,58.2,152.8,56.8z"/>
<path class="st3" d="M142.3,12.9c1.2,0.1,4.6,1.1,6.2,2.5c1.7,1.5,4,7.1,4.3,8.6C151.2,22.7,143.6,14.8,142.3,12.9z"/>
<path class="st2" d="M153.5,63.8c2.1-3.5,5-14.8,5-23.4c0,0,0-0.1,0-0.1c0,8.6-2.9,19.8-5,23.3c-1.8,3.1-3,4.1-6.6,5.4
	c-1.5,0.5-2.8,1-4.1,1.4c-0.1-0.1-0.2-0.2-0.3-0.2c1.3-0.2,2.7-0.7,4.3-1.3c3.5-1.2,4.6-2.2,6.4-5.3c2-3.4,5-14.7,5-23.3
	c0-8.6-3-19.9-5-23.3c-1.8-3.1-2.9-4-6.4-5.3c-1.8-0.7-3.3-1.1-4.6-1.6c-0.1,0-0.1,0-0.2,0c-1.6-0.4-3-0.8-4.5-1.2
	c-5-1.3-10.4-1.7-16.9-1.1C119.2,7.9,118,8,117,8.1c-4,0.4-6.2,0.6-10.6,0.5c-1.9,0-4.8-0.2-8.2-0.4c0.1,0.1,0.1,0.2,0.1,0.2
	c0.1,0.1,0.1,0.2,0.1,0.2c0,0.2,0.1,0.3,0.1,0.5c0,0.1,0,0.1,0,0.2c0,0.1,0,0.1,0,0.2c0,0.3-0.1,0.6-0.1,0.6c0,0,0.1-0.1,0.1-0.1
	c0,0,0.1-0.3,0.1-0.6c0,0.2,0,0.3,0,0.4c0.1,0.2,0.3,0.6,0.8,0.9c0.6,0.5,1.5,0.8,1.5,0.8l1,0.3l-6.5,1.7l-0.1-0.3
	c0-0.1-0.1-0.7,0-1.1c0.1-0.3,0.1-0.4,0-0.8c-0.1-0.2-0.1-0.2-0.2-0.3c-0.1,0-0.2,0-0.3,0c-0.6-0.1-0.9-0.2-1.2-0.8
	C93.4,9.9,93,9,92.6,8c0,0,0.1,0,0.1,0c-4.8-0.3-9.8-0.5-14.1-0.5c-4.8,0-9.9,0.1-13.9,0.3c-2.7,0.1-5,0.1-6.4,0.1
	c-0.9,0-1.4,0-1.6-0.1c-1.2-0.2-5.8-0.9-9.9-1.4c-1.4-0.1-3.1-0.2-5.1-0.2c-3.6,0-8,0.2-11.7,0.7c-5.2,0.6-15.5,3.2-20.3,5.5
	s-6.9,5-7.7,9.5c-0.8,5-1.4,12.2-1.4,18.5c0,6.2,0.6,13.5,1.4,18.5c0.8,4.6,2.9,7.2,7.6,9.5c4.8,2.3,15.1,5,20.3,5.5
	c3.7,0.4,8.1,0.7,11.8,0.7c2,0,3.7-0.1,5.1-0.2c4.1-0.5,8.7-1.1,9.9-1.4c0.2,0,0.8-0.1,1.6-0.1c1.4,0,3.7,0.1,6.4,0.1
	c4.1,0.1,9.1,0.3,13.9,0.3c4.4,0,9.3-0.2,13.9-0.4c0,0,0-0.1,0-0.1c0,0,0.1,0,0.1,0c0.4-1,0.8-1.9,1-2.2c0-0.2,0.1-0.3,0.2-0.4
	c0.1-0.1,0.2-0.2,0.3-0.2c0.2-0.1,0.4-0.2,0.7-0.2c-0.1,0-0.1,0-0.2,0c0.3,0,0.4-0.1,0.5-0.4c0.1-0.4,0.1-0.5,0-0.8
	c-0.1-0.4,0-1,0-1.1l0.1-0.3l6.5,1.7l-1,0.3c0,0-0.9,0.3-1.5,0.8c-0.4,0.3-0.7,0.7-0.8,0.9c0-0.1,0-0.1,0-0.2c0-0.1-0.2-0.2-0.3-0.3
	c-0.1,0-0.1,0.1-0.1,0.1c0.2,0.1,0.3,0.2,0.4,0.3c0,0,0,0.1,0,0.2c0,0.1,0,0.1,0,0.2v0.1c0,0.1,0,0.2,0,0.4c0,0.1-0.1,0.3-0.1,0.5
	v0.1c0,0.1-0.1,0.2-0.1,0.2c0,0,0.1,0,0.1,0c0,0,0-0.1,0.1-0.1c0,0,0-0.1,0-0.1c0,0,0,0,0,0.1c0,0.1-0.1,0.1-0.1,0.1
	c3.4-0.2,6.3-0.3,8.2-0.4c4.4-0.1,6.6,0.1,10.7,0.5c1,0.1,2.2,0.2,3.5,0.3c6.4,0.6,11.8,0.2,16.9-1.1c1.7-0.5,3.3-0.9,5-1.5
	c0.1,0.1,0.2,0.1,0.3,0.2c-1.8,0.6-3.4,1.1-5.3,1.6c-4.8,1.4-10.2,1.8-16.9,1.2c6.7,0.6,12.1,0.2,17-1.1c1.9-0.5,3.5-1,5.2-1.6
	c0,0,0,0,0,0c1.3-0.4,2.6-0.9,4.1-1.4C150.5,67.9,151.7,66.9,153.5,63.8z M141.8,58.4c4-1.6,7.2-3,7.8-3.5
	c1.6-1.5,2.6-10.3,2.6-14.4c0-4.1-1-12.9-2.6-14.4c-0.6-0.6-3.8-2-7.9-3.6v-0.7c4.3,1.7,7.7,3.2,8.3,3.8c1.8,1.6,2.8,10.6,2.8,14.8
	c0,4.1-1,13.2-2.8,14.9c-0.6,0.6-4,2-8.2,3.7V58.4z M141.6,67.7c0,0,0.1-0.1,0.1-0.2v0.8c0,0-0.1,0-0.2-0.1
	C141.4,68,141.5,67.8,141.6,67.7z M15.4,40.4c0,5.4,0.3,11.6,0.8,13.8c0.4,2.2,1.1,3.4,1.1,3.5l0.3,0.5H17c-0.3,0-8-0.4-9.5-0.7
	c-1.6-0.3-2.5-0.7-2.9-2.1c-0.4-1.4-1.5-7.9-1.5-15s1.1-13.6,1.5-15c0.4-1.3,1.3-1.7,2.9-2.1C9,23,16.7,22.7,17,22.6h0.6l-0.3,0.5
	c0,0-0.7,1.3-1.1,3.5C15.8,28.8,15.4,35,15.4,40.4z M42.7,40.3c0,4.6,0.3,8.8,0.4,11.6c0.2,1.4,0.2,2.3,0.2,2.9
	c0,2.3-0.8,3.2-2.7,3.3c-0.2,0-0.5,0-0.9,0c-3.4,0-14-0.4-15.7-0.7c-2-0.4-2.6-0.8-3.2-2.9c-0.5-2-0.8-7.1-0.8-14.1
	c0-6.9,0.3-12.1,0.8-14.1c0.6-2.1,1.2-2.5,3.2-2.9c1.7-0.3,12.4-0.7,15.7-0.7c0.4,0,0.7,0,0.8,0c1.9,0.1,2.7,1.1,2.7,3.3
	c0,0.5-0.1,1.5-0.1,2.8C42.9,31.6,42.7,35.7,42.7,40.3z M89.2,40.2c0,10.3-1.4,18.5-3.5,19.6c-0.2,0.1-0.7,0.4-6.1,0.4
	c-10,0-29.5-1-31.2-2.1c-2.3-1.4-2.6-9.4-2.6-17.8c0-8.4,0.3-16.4,2.6-17.8c1.7-1,21.3-2.1,31.2-2.1c5.4,0,5.9,0.3,6.1,0.4
	C87.7,21.9,89.2,30.1,89.2,40.2z M112.4,18.9c2.1,3.2,4.4,10.5,4.4,21.5s-2.3,18.4-4.4,21.5c-1.8,2.6-4,3.9-5.5,4.1h-0.1
	c-1.8,0-13.8-2.9-14.9-3.4c-1.6-0.7-1.7-1.7-1.4-3.6c0-0.1,1.8-9.3,1.8-18.6s-1.8-18.5-1.8-18.6c-0.4-1.9-0.3-2.9,1.4-3.6
	c1.3-0.6,13.3-3.4,14.9-3.4h0.1C108.4,14.9,110.6,16.3,112.4,18.9z M141.6,22v0.7c-8-3.5-19.6-7.6-21.9-7.9c-1-0.2-2.1-0.2-3.2-0.2
	s-2,0.1-2.6,0.1c1.7,1.6,6.6,7.8,6.6,25.7c0,17.9-4.9,24.1-6.6,25.7c0.6,0.1,1.5,0.1,2.6,0.1s2.2-0.1,3.2-0.2
	c2.3-0.3,13.9-4.4,22-7.6V59c-8.1,3.2-19.6,7.3-21.9,7.6c-1,0.2-2.1,0.2-3.3,0.2c-2,0-3.4-0.2-3.4-0.2l-0.8-0.1l0.7-0.4
	c0.1,0,6.9-4.7,6.9-25.6c0-20.9-6.8-25.6-6.9-25.6l-0.7-0.4l0.8-0.1c0.1,0,1.5-0.2,3.4-0.2c1.2,0,2.3,0.1,3.3,0.2
	C122.1,14.7,133.5,18.7,141.6,22z M153.4,24.4c0,0.2-0.1,0.3-0.2,0.4l-0.1,0.1H153c-1.1,0-10.9-10.9-11.5-11.8v-0.3
	c0-0.1-0.1-0.2,0-0.3c0,0,0,0,0.1,0c0,0,0,0,0-0.1v0c0.1-0.1,0.2-0.1,0.4-0.1c1.2,0,5.1,1.1,6.9,2.7
	C150.8,16.7,153.5,23.2,153.4,24.4z M155.1,40.3c0-4.6,0.1-5.4,0.7-5.4c1.1,0,1.4,3.9,1.4,5.4s-0.2,5.4-1.4,5.4
	C155.2,45.7,155.1,44.9,155.1,40.3z M142.2,68.4c-0.1,0-0.3,0-0.4-0.1v-0.8c1.2-1.6,10.3-11.6,11.3-11.6h0.1l0.1,0.1
	c0.1,0.1,0.2,0.2,0.2,0.4c0.1,1.2-2.6,7.8-4.5,9.4C147.1,67.4,143.3,68.4,142.2,68.4z"/>
<path class="st2" d="M98.2,72.8c0,0-0.1,0-0.1,0C98.1,72.8,98.2,72.8,98.2,72.8C98.2,72.8,98.2,72.8,98.2,72.8z"/>
<path class="st2" d="M78.6,73.6c1.1,0,2.1,0,3.2,0C80.7,73.6,79.6,73.6,78.6,73.6z"/>
<path class="st2" d="M97.8,70.7C97.8,70.7,97.8,70.7,97.8,70.7c-0.2-0.1-0.4-0.2-0.8-0.3C97.4,70.5,97.6,70.6,97.8,70.7z"/>
<path class="st3" d="M111.9,61.5c-1.8,2.8-4,3.7-5,3.8c-1.6,0-13.5-2.7-14.7-3.4c-1.1-0.5-1.4-0.9-1-2.9c0-0.1,1.8-9.3,1.8-18.7
	c0-9.4-1.8-18.6-1.8-18.7c-0.4-2-0.1-2.4,1-2.9c1.2-0.5,13.1-3.3,14.6-3.3h0.1c1,0.1,3.1,1,5,3.8c2,2.9,4.3,10.2,4.3,21.1
	C116.2,51.3,113.9,58.6,111.9,61.5z"/>
<path class="st2" d="M92.7,73.4c0.1,0,0.2,0,0.3,0c0-0.1,0.1-0.2,0.2-0.3c0,0-0.1,0-0.1,0c0-0.1,0.1-0.2,0.1-0.3c0.1,0,0.1,0,0.2,0
	c0.3-0.8,0.6-1.6,0.8-1.9c0.2-0.4,0.3-0.5,0.7-0.5c0.1,0,0.2,0,0.4-0.1c1,0.1,2.2,0.4,2.4,0.6v-0.1l0.1-0.1c0,0,0.1,0,0.1,0
	c0,0,0,0.1,0,0.1l-0.1,0.1V71v0.1c0,0.1,0,0.1,0,0.2c0,0.1,0,0.1,0,0.2c0,0.1,0,0.2,0,0.3c0,0,0,0.1,0.1,0.2c0,0.2-0.1,0.3-0.2,0.5
	c0,0-0.1,0-0.1,0c0.1-0.2,0.2-0.4,0.2-0.6c-0.1,0.1-0.1,0.3-0.2,0.6c0,0-0.1,0-0.1,0c0,0.1-0.1,0.2-0.2,0.2c0.2,0,0.3,0,0.4,0
	c0.2,0,0.3,0,0.4,0c0,0,0,0.1,0,0.1c-0.1,0-0.2,0-0.3,0c-0.2,0-0.3,0-0.4,0c-0.1,0.1-0.1,0.2-0.2,0.3c0,0,0.1,0,0.1,0
	c-0.8,1.3-2.1,2.8-2.7,3.2c-0.6,0.4-1,0.5-1.5,0.5c-0.1,0-0.3,0-0.4,0c-0.4-0.1-0.6-0.2-0.7-0.3c-0.1-0.1-0.1-0.1-0.1-0.3
	c0.1-0.4,0.6-1.6,1.2-2.8C93,73.5,92.9,73.5,92.7,73.4c-0.4,1.3-0.8,2.5-0.9,2.9c-0.1,0.5,0.3,0.8,1,0.9c0.1,0,0.3,0,0.4,0
	c-0.2,0-0.4,0-0.6,0c-0.7-0.1-1.1-0.4-1-0.9C91.7,75.9,92.1,74.7,92.7,73.4C92.6,73.4,92.7,73.4,92.7,73.4z"/>
<path class="st2" d="M57.3,73.1h0.1v0.1c1.5-0.1,5.4,0.1,10.1,0.2c-4.8-0.1-8.6-0.3-10.1-0.1v0.1l-0.1-0.1V73.1z"/>
<path class="st2" d="M98.1,7.9c0-0.1-0.1-0.2-0.2-0.3c0,0,0,0,0.1,0C98,7.7,98.1,7.8,98.1,7.9L98.1,7.9z"/>
<path class="st3" d="M40.6,57.5c-0.2,0-0.4,0-0.8,0c-3.3,0-13.9-0.4-15.6-0.7c-1.8-0.4-2.2-0.6-2.7-2.5c-0.5-1.9-0.8-7.1-0.8-13.9
	s0.3-12,0.8-13.9c0.5-1.9,0.9-2.1,2.7-2.5c1.7-0.3,12.3-0.7,15.6-0.7c0.4,0,0.6,0,0.8,0c1.4,0.1,2.1,0.5,2.1,2.7
	c0,0.5,0,1.5-0.1,2.8c-0.2,2.8-0.5,7-0.4,11.6c0,4.6,0.2,8.8,0.4,11.6c0,1.3,0.1,2.3,0.1,2.8C42.7,57,42,57.4,40.6,57.5z"/>
<path class="st2" d="M7.6,56.8c-1.5-0.3-2.1-0.6-2.4-1.6c-0.4-1.3-1.5-7.9-1.5-14.8s1.1-13.5,1.5-14.9c0.3-1,0.9-1.3,2.4-1.6
	c1.3-0.2,7.1-0.5,8.9-0.6c-0.2,0.6-0.6,1.7-0.9,3.2c-0.5,2.2-0.8,8.5-0.8,13.9s0.3,11.6,0.8,13.8c0.2,1.5,0.6,2.6,0.9,3.2
	C14.7,57.3,8.9,57.1,7.6,56.8z"/>
<path class="st2" d="M85.4,59.3c-0.2,0.1-1,0.3-5.8,0.3c-10.5,0-29.4-1.1-30.9-2c-2.3-1.3-2.3-12.5-2.3-17.2s0-15.8,2.3-17.2
	c1.4-0.9,20.4-2,30.9-2c4.9,0,5.7,0.2,5.8,0.3c1.6,0.9,3.2,8.2,3.2,18.9S87,58.4,85.4,59.3z"/>
<path class="st2" d="M67.4,7.3V7.1c0,0,0.1,0,0.1,0L67.4,7.3L67.4,7.3z"/>
<path class="st0" d="M97.1,70.4c-0.1,0-0.2-0.1-0.4-0.1C96.8,70.3,96.9,70.4,97.1,70.4z"/>
<path class="st0" d="M153.8,64c2-3.5,5-14.9,5-23.6s-3-20.1-5-23.6c-1.9-3.2-3.1-4.2-6.9-5.5c-1.4-0.5-2.7-0.9-3.8-1.3
	c0,0,0.1,0,0.1,0c-1.9-0.7-3.6-1.2-5.5-1.7c-5.1-1.3-10.6-1.7-17.1-1.1c-1.4,0.1-2.5,0.2-3.6,0.3c-4,0.4-6.2,0.6-10.5,0.5
	c-2,0-5-0.2-8.5-0.4c0,0.1,0.1,0.2,0.1,0.3h0c0-0.1-0.1-0.2-0.2-0.3c0,0,0,0,0.1,0c-0.7-1.4-2.3-3.2-3-3.7c-0.6-0.5-1.1-0.7-1.8-0.7
	c-0.2,0-0.3,0-0.5,0c-0.5,0.1-0.9,0.2-1.1,0.5c-0.2,0.2-0.2,0.5-0.2,0.8c0.1,0.5,0.5,1.6,1,2.8c0,0.1,0.1,0.2,0.1,0.3
	c0,0,0,0.1,0,0.1C88,7.5,83,7.3,78.7,7.3c-9.8,0-20.6,0.6-21.9,0.3s-6-1-10-1.4C42.6,5.7,35.2,6,29.9,6.6
	c-5.3,0.6-15.6,3.3-20.4,5.6s-6.9,5.1-7.7,9.7C1,26.8,0.4,34.1,0.4,40.4S1,54,1.8,58.9c0.3,1.7,0.7,3.1,1.4,4.4
	C2.5,62,2,60.6,1.7,58.8C0.9,54,0.3,46.7,0.3,40.3c0-6.3,0.6-13.6,1.4-18.5c0.7-4.6,2.9-7.4,7.7-9.7c4.8-2.3,15.1-5,20.4-5.6
	c5.3-0.6,12.6-0.9,16.9-0.4c4.1,0.5,8.7,1.1,10,1.4v0h0.6v0h-0.6c0.8,0.2,5.2,0,10.8-0.1v0h0.7v0c3.3-0.1,6.9-0.2,10.4-0.2
	c4.3,0,9.2,0.2,13.7,0.3c0-0.1-0.1-0.2-0.1-0.3C87.7,7,82.8,6.8,78.5,6.8C74.9,6.8,71.3,6.9,68,7v0.1c-0.2,0-0.4,0-0.5,0v0.2h-0.1
	V7.1c0,0,0.1,0,0.1,0c0,0-0.1-0.1-0.1-0.1c0.2,0,0.4,0,0.6,0c0-0.6-2.2-1.6-2.9-1.7c-0.4-0.1-1.2-0.1-2.1-0.1c-1.4,0-3,0.1-3.6,0.2
	c-0.6,0.1-2.7,1.2-2.8,1.8c-1.4-0.3-5.8-1-9.8-1.4c-1.4-0.1-3.1-0.2-5.2-0.2c-3.7,0-8.1,0.3-11.8,0.7c-5.2,0.6-15.7,3.3-20.5,5.6
	c-4.9,2.3-7.1,5.1-7.9,9.9C0.5,26.8,0,34.1,0,40.4C0,46.6,0.5,53.9,1.4,59c0.8,4.8,3,7.5,7.9,9.9c4.8,2.3,15.3,5,20.4,5.4
	c3.8,0.5,8.2,0.7,11.9,0.7c2,0,3.7-0.1,5.1-0.2c4.1-0.5,8.7-1.2,10-1.4c0.1,0,0.4,0,0.7,0l-0.1-0.1v-0.2c-0.2,0.1-0.4,0.1-0.5,0.1v0
	c0.1,0,0.3,0,0.5-0.1h0.1v0.1c1.5-0.1,5.4,0.1,10.1,0.2c-4.8-0.1-8.6-0.3-10.1-0.1v0.1v0.1c-0.3,0-0.5,0-0.6,0
	c0.2,0.6,2.2,1.6,2.8,1.7c0.9,0.2,4.7,0.3,5.6,0.1c0.7-0.1,2.7-1,2.9-1.6v-0.1v-0.2c0,0,0.1,0,0.1,0v0c3.3,0.1,6.9,0.2,10.4,0.2
	c1.1,0,2.1,0,3.2,0c-1.1,0-2.2,0-3.2,0c-3.6,0-7.1-0.1-10.4-0.2v0.2v0.1c3.3,0.1,7,0.2,10.5,0.2c4.3,0,9-0.2,13.6-0.4
	c-0.5,1.2-0.9,2.3-1,2.7c0,0.3,0,0.6,0.2,0.8c0.2,0.3,0.6,0.4,1.1,0.5c0.9,0.1,1.5,0,2.3-0.6c0.7-0.5,2.2-2.3,3-3.7
	c0.1,0,0.1,0,0.2,0.1c0,0,0-0.1,0-0.1c3.4-0.2,6.4-0.4,8.4-0.4c4.4-0.1,6.5,0.1,10.6,0.5c1,0.1,2.2,0.2,3.5,0.3
	c6.5,0.6,12,0.2,17.1-1.1c1.9-0.5,3.6-1.1,5.5-1.7c0,0,0,0,0,0c1.2-0.3,2.5-0.8,3.8-1.3C150.7,68.2,151.9,67.2,153.8,64z M59.7,74.6
	c-0.6-0.1-1.6-0.7-2.1-1c0,0,0,0,0,0C58.1,73.9,59.1,74.4,59.7,74.6z M67.2,73.8c-0.5,0.3-1.4,0.8-2.1,0.9
	C65.7,74.6,66.6,74.1,67.2,73.8C67.1,73.8,67.2,73.8,67.2,73.8z M56.8,7.2c0.1,0,0.3,0,0.5,0c0.3-0.2,1.6-1,2.4-1.2
	c-0.8,0.2-2.1,1-2.3,1.3c0,0-0.1,0-0.1,0C57.1,7.2,56.8,7.2,56.8,7.2z M98.2,72.8C98.2,72.8,98.2,72.8,98.2,72.8
	c3.4-0.2,6.3-0.4,8.2-0.4C104.5,72.5,101.6,72.6,98.2,72.8z M98.1,72.8c0,0,0.1,0,0.1,0c0,0,0,0,0,0C98.2,72.8,98.1,72.8,98.1,72.8z
	 M92.6,73.4C92.6,73.4,92.7,73.4,92.6,73.4c0.2,0,0.3,0,0.4,0c0-0.1,0.1-0.2,0.2-0.3c0,0-0.1,0-0.1,0c0-0.1,0.1-0.2,0.1-0.3
	c0.1,0,0.1,0,0.2,0c0.3-0.8,0.6-1.6,0.8-1.9c0.2-0.4,0.3-0.5,0.7-0.5c0.1,0,0.2,0,0.4-0.1c1,0.1,2.2,0.4,2.4,0.6v-0.1l0.1-0.1
	c-0.2-0.1-0.4-0.2-0.7-0.3c-0.1,0-0.2-0.1-0.4-0.1c0.1,0,0.2,0.1,0.4,0.1c0.3,0.1,0.6,0.2,0.8,0.3c0,0,0,0,0,0c0,0,0.1,0,0.1,0
	c0,0,0,0.1,0,0.1l-0.1,0.1V71v0.1c0,0.1,0,0.1,0,0.2c0,0.1,0,0.1,0,0.2c0,0.1,0,0.2,0,0.3c0,0,0,0.1,0.1,0.2c0,0.2-0.1,0.3-0.2,0.5
	c0,0-0.1,0-0.1,0c0.1-0.2,0.2-0.4,0.2-0.6c-0.1,0.1-0.1,0.3-0.2,0.6c0,0-0.1,0-0.1,0c0,0.1-0.1,0.2-0.2,0.2c0.2,0,0.3,0,0.4,0
	c0.2,0,0.3,0,0.4,0c0,0,0,0.1,0,0.1c-0.1,0-0.2,0-0.3,0c-0.2,0-0.3,0-0.4,0c-0.1,0.1-0.1,0.2-0.2,0.3c0,0,0.1,0,0.1,0
	c-0.8,1.3-2.1,2.8-2.7,3.2c-0.6,0.4-1,0.5-1.5,0.5c-0.1,0-0.3,0-0.4,0c-0.4-0.1-0.6-0.2-0.7-0.3c-0.1-0.1-0.1-0.1-0.1-0.3
	c0.1-0.4,0.6-1.6,1.2-2.8c-0.1,0-0.2,0-0.3,0c-0.5,1.2-0.9,2.4-1,2.8c-0.1,0.5,0.3,0.8,1,0.9c0.1,0,0.3,0,0.4,0c-0.2,0-0.4,0-0.6,0
	c-0.7-0.1-1.1-0.4-1-0.9C91.7,75.9,92.1,74.7,92.6,73.4z M97.8,72.7C97.8,72.7,97.8,72.6,97.8,72.7C97.9,72.6,97.9,72.6,97.8,72.7
	C97.9,72.7,97.9,72.7,97.8,72.7z M95.7,68.4c0-0.1,0-0.2,0-0.4l3.9,1c-0.2,0.1-0.5,0.3-0.8,0.5c-0.4,0.3-0.6,0.7-0.8,0.9
	c-0.6-0.3-1.5-0.5-2.2-0.6c-0.1,0-0.1,0-0.2,0c0,0,0.1-0.1,0.1-0.2C95.9,69,95.8,68.8,95.7,68.4z M93.9,70.7
	c-0.2,0.4-0.5,1.2-0.9,2.1c0,0-0.1,0-0.1,0c0.4-1,0.7-1.8,0.9-2.1c0.1-0.2,0.2-0.3,0.3-0.4C94,70.4,94,70.5,93.9,70.7z M89.5,73.3
	c1,0,2-0.1,2.9-0.1v0C91.5,73.3,90.5,73.3,89.5,73.3z M86.1,73.5c0.9,0,1.8-0.1,2.6-0.1C87.8,73.4,86.9,73.4,86.1,73.5z M82.3,73.6
	c0.9,0,1.9,0,2.8-0.1C84.2,73.5,83.2,73.6,82.3,73.6z M97.6,7.6C97.5,7.6,97.5,7.6,97.6,7.6c-0.1,0-0.1,0-0.2,0
	c-0.7-1.3-2.1-2.8-2.7-3.3c-0.7-0.5-1.3-0.7-2.1-0.6c-0.3,0-0.6,0.1-0.8,0.3c0.2-0.2,0.5-0.3,0.9-0.4c0.8-0.1,1.4,0.1,2.1,0.6
	C95.4,4.6,96.8,6.3,97.6,7.6z M97.8,9.7c-0.3,0.2-1.8,0.6-2.8,0.6c-0.1,0-0.1,0-0.2,0c-0.4,0-0.5,0-0.7-0.5
	c-0.1-0.3-0.4-1.1-0.8-1.9c0,0-0.1,0-0.1,0c0-0.1,0-0.1-0.1-0.2c0-0.2-0.1-0.3-0.2-0.3c-0.5-1.2-0.9-2.5-1-2.9
	c0-0.2,0.1-0.3,0.1-0.3c0.1-0.2,0.4-0.3,0.7-0.3c0.8-0.1,1.2,0,1.9,0.5c0.5,0.4,1.8,1.9,2.5,3.3c0,0,0.1,0,0.2,0
	c0,0.1,0.1,0.1,0.1,0.2c0.1,0,0.1,0,0.1,0c0,0.1,0.1,0.1,0.1,0.2h0c0,0,0,0,0,0c0,0.1,0,0.1,0,0.1h0c0.1,0.2,0.2,0.3,0.2,0.5
	c0,0.1,0,0.1,0,0.1c0,0,0,0,0,0.1c0,0.1,0,0.2,0,0.3c0,0.1,0,0.2,0,0.2C97.8,9.5,97.8,9.5,97.8,9.7L97.8,9.7z M97.8,10.1
	c-0.1,0.1-0.2,0.1-0.4,0.2C97.5,10.2,97.7,10.2,97.8,10.1z M98,10.4c0.1,0,0.1-0.1,0.1-0.1c0.2,0.2,0.4,0.6,0.8,0.9
	c0.2,0.2,0.5,0.4,0.8,0.5l-3.9,1c0-0.1,0-0.3,0-0.4c0.1-0.4,0.2-0.6,0-1.2c0,0,0-0.1,0-0.1c0,0,0,0,0,0c0,0,0,0,0,0
	C96.6,10.9,97.4,10.7,98,10.4z M98.1,9.5c0,0.3,0,0.4,0,0.4c0,0,0,0,0,0c0,0,0,0,0,0C98.1,9.9,98.1,9.8,98.1,9.5z M158.5,40.4
	c0,8.6-2.9,19.9-5,23.4c-1.8,3.1-3,4.1-6.6,5.4c-1.5,0.5-2.8,1-4.1,1.4c0,0,0,0,0,0c-1.8,0.6-3.4,1.1-5.2,1.6
	c-4.9,1.3-10.3,1.7-17,1.1c6.7,0.6,12.1,0.2,16.9-1.2c1.9-0.5,3.5-1,5.3-1.6c-0.1-0.1-0.2-0.1-0.3-0.2c-1.7,0.6-3.3,1-5,1.5
	c-5.1,1.3-10.5,1.7-16.9,1.1c-1.3-0.1-2.5-0.2-3.5-0.3c-4.1-0.4-6.3-0.6-10.7-0.5c-1.9,0.1-4.8,0.2-8.2,0.4c0,0.1,0,0.2-0.1,0.3
	c0-0.1,0.1-0.2,0.1-0.3c0,0-0.1,0-0.1,0c0,0,0.1-0.1,0.1-0.2v-0.1c0-0.2,0.1-0.4,0.1-0.5c0-0.2,0-0.3,0-0.4v-0.1c0-0.1,0-0.1,0-0.2
	c0-0.1,0-0.2,0-0.2c-0.1-0.1-0.2-0.2-0.4-0.3c0,0,0.1-0.1,0.1-0.1c0.2,0.1,0.3,0.2,0.3,0.3c0,0.1,0,0.1,0,0.2
	c0.1-0.2,0.4-0.6,0.8-0.9c0.6-0.5,1.5-0.8,1.5-0.8l1-0.3l-6.5-1.7l-0.1,0.3c0,0.1-0.1,0.7,0,1.1c0.1,0.3,0.1,0.4,0,0.8
	c-0.1,0.3-0.2,0.4-0.5,0.4c0.1,0,0.1,0,0.2,0c-0.3,0-0.5,0.1-0.7,0.2c-0.1,0-0.2,0.1-0.3,0.2c-0.1,0.1-0.2,0.2-0.2,0.4
	c-0.2,0.3-0.6,1.2-1,2.2c0,0-0.1,0-0.1,0c0,0,0,0.1,0,0.1c-4.6,0.2-9.5,0.4-13.9,0.4c-4.8,0-9.8-0.2-13.9-0.3c-2.7,0-5-0.1-6.4-0.1
	c-0.8,0-1.4,0.1-1.6,0.1c-1.2,0.3-5.8,0.9-9.9,1.4c-1.4,0.1-3.1,0.2-5.1,0.2c-3.7,0-8.1-0.3-11.8-0.7c-5.2-0.5-15.5-3.2-20.3-5.5
	c-4.7-2.3-6.8-4.9-7.6-9.5c-0.8-5-1.4-12.3-1.4-18.5c0-6.3,0.6-13.5,1.4-18.5c0.8-4.5,2.9-7.2,7.7-9.5S24.8,7.5,30,6.9
	c3.7-0.5,8.1-0.7,11.7-0.7c2,0,3.7,0.1,5.1,0.2c4.1,0.5,8.7,1.2,9.9,1.4c0.2,0.1,0.7,0.1,1.6,0.1c1.4,0,3.7,0,6.4-0.1
	c4-0.2,9.1-0.3,13.9-0.3c4.3,0,9.3,0.2,14.1,0.5c0,0,0-0.1,0-0.1c0,0,0.1,0,0.1,0c0,0,0,0,0,0.1c0.1,0,0.1,0,0.1,0
	c0.4,0.9,0.7,1.7,0.9,2c0.3,0.5,0.5,0.5,1,0.6c0.2,0,0.4,0,0.7,0c0,0,0.1,0.1,0.1,0.1c-0.3,0-0.6,0-0.8,0c-0.6-0.1-0.7-0.2-1-0.6
	c-0.2-0.4-0.5-1.2-0.9-2.1c-0.1,0-0.1,0-0.2,0c0,0-0.1,0-0.1,0c0.4,1,0.8,1.9,1,2.2c0.3,0.6,0.6,0.7,1.2,0.8c0.1,0,0.2,0,0.3,0
	c0.1,0.1,0.2,0.1,0.2,0.3c0.1,0.4,0.1,0.5,0,0.8c-0.1,0.4,0,1,0,1.1l0.1,0.3l6.5-1.7l-1-0.3c0,0-0.9-0.3-1.5-0.8
	c-0.5-0.3-0.7-0.7-0.8-0.9c0-0.1,0-0.2,0-0.4c0,0.3-0.1,0.6-0.1,0.6c0,0-0.1,0.1-0.1,0.1c0,0,0.1-0.3,0.1-0.6c0-0.1,0-0.1,0-0.2
	c0-0.1,0-0.1,0-0.2c0-0.2-0.1-0.3-0.1-0.5c0,0,0-0.1-0.1-0.2c0,0,0-0.1-0.1-0.2c3.4,0.2,6.3,0.4,8.2,0.4c4.4,0.1,6.6-0.1,10.6-0.5
	c1-0.1,2.2-0.2,3.6-0.3c6.5-0.6,11.9-0.2,16.9,1.1c1.5,0.4,2.9,0.8,4.5,1.2c0,0,0.1,0,0.2,0c1.3,0.5,2.9,1,4.6,1.6
	c3.5,1.3,4.6,2.2,6.4,5.3c2,3.4,5,14.7,5,23.3c0,8.6-3,19.9-5,23.3c-1.8,3.1-2.9,4.1-6.4,5.3c-1.6,0.6-3,1.1-4.3,1.3
	c0.1,0,0.2,0.1,0.3,0.2c1.3-0.4,2.6-0.9,4.1-1.4c3.6-1.3,4.8-2.3,6.6-5.4C155.6,60.1,158.5,48.9,158.5,40.4
	C158.5,40.4,158.5,40.4,158.5,40.4z"/>
<path class="st0" d="M141.6,22.7c-8-3.5-19.6-7.6-21.9-7.9c-1-0.2-2.1-0.2-3.2-0.2s-2,0.1-2.6,0.1c1.7,1.6,6.6,7.8,6.6,25.7
	c0,17.9-4.9,24.1-6.6,25.7c0.6,0.1,1.5,0.1,2.6,0.1s2.2-0.1,3.2-0.2c2.3-0.3,13.9-4.4,22-7.6V59c-8.1,3.2-19.6,7.3-21.9,7.6
	c-1,0.2-2.1,0.2-3.3,0.2c-2,0-3.4-0.2-3.4-0.2l-0.8-0.1l0.7-0.4c0.1,0,6.9-4.7,6.9-25.6c0-20.9-6.8-25.6-6.9-25.6l-0.7-0.4l0.8-0.1
	c0.1,0,1.5-0.2,3.4-0.2c1.2,0,2.3,0.1,3.3,0.2c2.3,0.3,13.7,4.3,21.8,7.6V22.7z"/>
<path class="st0" d="M152.2,40.5c0-4.1-1-12.9-2.6-14.4c-0.6-0.6-3.8-2-7.9-3.6v-0.7c4.3,1.7,7.7,3.2,8.3,3.8
	c1.8,1.6,2.8,10.6,2.8,14.8c0,4.1-1,13.2-2.8,14.9c-0.6,0.6-4,2-8.2,3.7v-0.6c4-1.6,7.2-3,7.8-3.5C151.2,53.4,152.2,44.6,152.2,40.5
	z"/>
<path class="st0" d="M98.2,72.5C98.2,72.5,98.2,72.5,98.2,72.5C98.2,72.5,98.2,72.5,98.2,72.5z"/>
<path class="st0" d="M98.3,72.4C98.3,72.4,98.3,72.4,98.3,72.4C98.3,72.3,98.3,72.4,98.3,72.4z"/>
<path class="st0" d="M97.8,8.8c-0.1-0.2-0.1-0.4-0.2-0.6C97.7,8.4,97.8,8.6,97.8,8.8z"/>
<path class="st0" d="M141.7,67.5v0.8c0,0-0.1,0-0.2-0.1c-0.1-0.2,0-0.4,0.1-0.5C141.6,67.7,141.7,67.6,141.7,67.5z"/>
<path class="st0" d="M142.2,68.4c1.1,0,4.9-1,6.8-2.6c1.9-1.6,4.6-8.2,4.5-9.4c0-0.2-0.1-0.3-0.2-0.4l-0.1-0.1h-0.1
	c-1,0-10.1,10-11.3,11.6v0.8C141.9,68.4,142.1,68.4,142.2,68.4z M142.3,67.8c1.3-1.8,8.7-9.6,10.5-11c-0.3,1.5-2.6,7-4.3,8.5
	C146.9,66.7,143.5,67.7,142.3,67.8z"/>
<path class="st0" d="M153.2,24.8c0.1-0.1,0.2-0.2,0.2-0.4c0.1-1.2-2.6-7.7-4.5-9.4c-1.8-1.6-5.7-2.7-6.9-2.7c-0.2,0-0.3,0.1-0.4,0.1
	v0c0,0,0,0,0,0.1c0,0-0.1,0-0.1,0c-0.1,0.1,0,0.2,0,0.3v0.3c0.6,0.9,10.4,11.8,11.5,11.8h0.1L153.2,24.8z M152.8,24
	c-1.6-1.3-9.2-9.2-10.5-11.1c1.2,0.1,4.6,1.1,6.2,2.5C150.2,16.9,152.5,22.5,152.8,24z"/>
<path class="st0" d="M155.8,34.9c1.1,0,1.4,3.9,1.4,5.4s-0.2,5.4-1.4,5.4c-0.6,0-0.7-0.8-0.7-5.4C155.1,35.7,155.2,34.9,155.8,34.9z
	"/>
<path class="st0" d="M112.4,18.9c-1.8-2.6-4-4-5.5-4.1h-0.1c-1.6,0-13.6,2.8-14.9,3.4c-1.7,0.7-1.8,1.7-1.4,3.6
	c0,0.1,1.8,9.3,1.8,18.6S90.5,58.9,90.5,59c-0.3,1.9-0.2,2.9,1.4,3.6C93,63.1,105,66,106.8,66h0.1c1.5-0.2,3.7-1.5,5.5-4.1
	c2.1-3.1,4.4-10.5,4.4-21.5S114.5,22.1,112.4,18.9z M111.9,19.2c2,2.9,4.3,10.2,4.3,21.1c0,11-2.3,18.3-4.3,21.2
	c-1.8,2.8-4,3.7-5,3.8c-1.6,0-13.5-2.7-14.7-3.4c-1.1-0.5-1.4-0.9-1-2.9c0-0.1,1.8-9.3,1.8-18.7c0-9.4-1.8-18.6-1.8-18.7
	c-0.4-2-0.1-2.4,1-2.9c1.2-0.5,13.1-3.3,14.6-3.3h0.1C107.9,15.5,110,16.4,111.9,19.2z"/>
<path class="st0" d="M89.2,40.2c0-10.1-1.5-18.3-3.5-19.4c-0.2-0.1-0.7-0.4-6.1-0.4c-9.9,0-29.5,1.1-31.2,2.1
	c-2.3,1.4-2.6,9.4-2.6,17.8c0,8.4,0.3,16.4,2.6,17.8c1.7,1.1,21.2,2.1,31.2,2.1c5.4,0,5.9-0.3,6.1-0.4
	C87.8,58.7,89.2,50.5,89.2,40.2z M88.6,40.4c0,10.7-1.6,18-3.2,18.9c-0.2,0.1-1,0.3-5.8,0.3c-10.5,0-29.4-1.1-30.9-2
	c-2.3-1.3-2.3-12.5-2.3-17.2s0-15.8,2.3-17.2c1.4-0.9,20.4-2,30.9-2c4.9,0,5.7,0.2,5.8,0.3C87,22.4,88.6,29.7,88.6,40.4z"/>
<path class="st0" d="M43.1,51.9c-0.1-2.8-0.4-7-0.4-11.6c0-4.6,0.2-8.7,0.4-11.5c0-1.3,0.1-2.3,0.1-2.8c0-2.2-0.8-3.2-2.7-3.3
	c-0.1,0-0.4,0-0.8,0c-3.3,0-14,0.4-15.7,0.7c-2,0.4-2.6,0.8-3.2,2.9c-0.5,2-0.8,7.2-0.8,14.1c0,7,0.3,12.1,0.8,14.1
	c0.6,2.1,1.2,2.5,3.2,2.9c1.7,0.3,12.3,0.7,15.7,0.7c0.4,0,0.7,0,0.9,0c1.9-0.1,2.7-1,2.7-3.3C43.3,54.2,43.3,53.3,43.1,51.9z
	 M42.7,54.8c0,2.2-0.7,2.6-2.1,2.7c-0.2,0-0.4,0-0.8,0c-3.3,0-13.9-0.4-15.6-0.7c-1.8-0.4-2.2-0.6-2.7-2.5
	c-0.5-1.9-0.8-7.1-0.8-13.9s0.3-12,0.8-13.9c0.5-1.9,0.9-2.1,2.7-2.5c1.7-0.3,12.3-0.7,15.6-0.7c0.4,0,0.6,0,0.8,0
	c1.4,0.1,2.1,0.5,2.1,2.7c0,0.5,0,1.5-0.1,2.8c-0.2,2.8-0.5,7-0.4,11.6c0,4.6,0.2,8.8,0.4,11.6C42.6,53.3,42.7,54.3,42.7,54.8z"/>
<path class="st0" d="M16.2,54.2c-0.5-2.2-0.8-8.4-0.8-13.8c0-5.4,0.4-11.6,0.8-13.8c0.4-2.2,1.1-3.5,1.1-3.5l0.3-0.5H17
	c-0.3,0.1-8,0.4-9.5,0.7c-1.6,0.4-2.5,0.8-2.9,2.1c-0.4,1.4-1.5,7.9-1.5,15s1.1,13.6,1.5,15c0.4,1.4,1.3,1.8,2.9,2.1
	c1.5,0.3,9.2,0.7,9.5,0.7h0.6l-0.3-0.5C17.3,57.6,16.6,56.4,16.2,54.2z M15.6,54.2c0.2,1.5,0.6,2.6,0.9,3.2
	c-1.8-0.1-7.6-0.3-8.9-0.6c-1.5-0.3-2.1-0.6-2.4-1.6c-0.4-1.3-1.5-7.9-1.5-14.8s1.1-13.5,1.5-14.9c0.3-1,0.9-1.3,2.4-1.6
	c1.3-0.2,7.1-0.5,8.9-0.6c-0.2,0.6-0.6,1.7-0.9,3.2c-0.5,2.2-0.8,8.5-0.8,13.9S15.1,52,15.6,54.2z"/>
</svg>
