<?xml version="1.0" encoding="utf-8"?>
<!-- Generator: Adobe Illustrator 19.2.1, SVG Export Plug-In . SVG Version: 6.00 Build 0)  -->
<svg version="1.1" id="FX-R" xmlns="http://www.w3.org/2000/svg" xmlns:xlink="http://www.w3.org/1999/xlink" x="0px" y="0px"
	 viewBox="0 0 194.4 165.6" style="enable-background:new 0 0 194.4 165.6;" xml:space="preserve">
<style type="text/css">
	.st0{fill:#E5E5E5;}
	.st1{fill:#999999;}
</style>
<path class="st0" d="M144.1,138.3c0,0,0,0.1,0,0.1l0,0l2.3-1.3l0.5-0.3l0.3-0.4l0.1-0.4l-3.1,1.7V138.3z"/>
<path class="st0" d="M133,75.3l-0.9-1.3c0,0,0,0,0-0.1c0,0,0,0,0-0.1c0,0,0,0,0,0c0,0,0-0.1,0-0.1c0,0,0-0.1,0-0.1c0,0,0-0.1,0-0.1
	c0,0,0-0.1,0-0.1c0,0,0,0,0.1-0.1c0,0,0-0.1,0.1-0.1c0,0,0,0,0,0c0,0,0,0,0.1,0c0,0,0,0,0.1,0l0.6-0.2c0,0,0,0,0,0l0.6-0.2L133,72
	l-5.3,0.4l-2.9-0.2l-3.1-0.6c-0.1,0-0.1,0-0.1-0.1l-2.1-1.1l-1.2-1c0,0,0,0,0,0c0,0,0,0,0,0l-5.1-5.5l-5.6-4.9l-5.8-4.5L95.5,50
	l-6.4-4.1l-6-3.6l-6-3.4l-5.4-2.8l-5.1-2.2l-4.6-1.3l-4.2-0.5l-3.6,0.3c0,0-0.1,0-0.1,0h-0.2h0H53c-0.3,0-0.5-0.2-0.5-0.5v-0.8
	c0-0.1,0-0.1,0-0.2l0.7-1.5L53,29.7l-0.1,0.1L39.3,46.6l-7.1,8.6l2.2-0.7l2.5-0.6l2.7-0.4l2.7,0l2.9,0.4l2.9,0.6l2.9,1l3,1.1
	l2.9,1.5l3,1.7l3,1.9l5.9,4.7l2.9,2.7l2.7,3l2.8,3l2.5,3.2l2.5,3.4l4.3,6.9l46.8-12.8L133,75.3z"/>
<path class="st0" d="M142.6,140.6C142.6,140.6,142.6,140.6,142.6,140.6l-5.8,3.3v9l8.2-4.9v-8.9l-2.2,1.3L142.6,140.6
	C142.6,140.6,142.6,140.6,142.6,140.6z"/>
<path class="st0" d="M128.7,148.5l-0.2,0.2c0,0-0.1,0.1-0.1,0.1l-0.4,0.2c-0.1,0-0.1,0.1-0.2,0.1h-0.3l-0.5,0.2c0,0,0,0-0.1,0
	c0,0,0,0,0,0l-2.8,0.4l-0.6,0l-12,0.8v2.9l12.4,7.2c0,0,0,0,0,0l1.9,0.9l1.6,0.5l1.6,0.2l1.4,0l1.4-0.3l1.1-0.7l1.1-1.1l0.8-1.2
	l0.5-1.4l0.4-1.6l0.2-2v-9.3L128.7,148.5z"/>
<path class="st0" d="M134.8,73.4c0,0.1-0.1,0.2-0.2,0.2l0.2,0.1l1.6,0.8l5.4-3.2l-1.8-1L134.8,73.4z"/>
<path class="st0" d="M20.5,138.2l1.1,1.1l0.4,0.6l0.5,0.3c0.1,0,0.1,0.1,0.1,0.1l0.4,0.6l1.1,1.1l0.5,0.3c0.1,0,0.1,0.1,0.1,0.1
	l0.3,0.5l0.5,0.3l1.2,1.2l1.1,0.7l0.6,0.6l0.5,0.4l0.6,0.6l1.6,1.1l0.6,0.6l0.7,0.3l1.7,1.2l0.7,0.3l1.2,0.8l0.7,0.3l0.6,0.4
	l0.5,0.2l0.8,0.4l0.5,0.4l0.7,0.2c0.1,0,0.1,0,0.2,0.1l0.6,0.4l0.7,0.3l0.5,0.2l0.8,0.4l0.5,0.2l0.8,0.4l0.5,0.1c0.1,0,0.2,0,0.3,0
	l0.2,0.1l1,0.3c0.1,0,0.1,0,0.2,0.1l0.5,0.3l5.6,1.5c0,0,0.1,0,0.1,0c0.1,0,0.1,0,0.2,0l0.8,0.2l2.6,0.4l2.6,0l2.4-0.2l2.2-0.6
	l2.2-0.7l0.9-0.5c0.1,0,0.2-0.1,0.3-0.1l1.2-0.9l1.7-1.5l1.7-1.8l1.3-2l1.1-2.2l1.1-2.4l0.7-2.7l0.7-6l0-3.1l-0.2-3.4l-0.4-3.4
	l-0.6-3.6l-0.9-3.7l-2.3-7.1l-1.5-3.7l-1.7-3.5l-1.9-3.6l-4.1-6.8L59.8,91l-4.9-6l-2.6-2.6L49.5,80L44,75.6l-3-1.8l-2.8-1.5
	l-2.8-1.1l-2.6-0.9l-2.8-0.5l-2.6-0.4l-2.4-0.2l-2.4,0.4l-2.4,0.6l-2,0.7L17,71.5l-1,0.7l-1.8,1.5l-1.5,1.8l-1.5,2.1l-1.1,2.2
	l-0.9,2.4c0,0,0,0,0,0c0,0,0,0.1,0,0.1c0,0,0,0.1,0,0.1c0,0,0,0,0,0L8.9,83l-1.1,4v0.7c0,0,0,0.1,0,0.1l-0.3,0.9l-0.1,0.9l0,0.5
	c0,0.2-0.1,0.3-0.2,0.4c0,0,0,0.1,0,0.1L7,91.3V92c0,0,0,0.1,0,0.1l-0.2,0.7v0.5c0,0,0,0.1,0,0.1l-0.2,0.7v1.4c0,0,0,0.1,0,0.1
	l-0.2,0.7v3.7v4.2l0.2,0.5c0,0.1,0,0.1,0,0.2v1.4l0.2,0.7c0,0,0,0.1,0,0.1v0.7l0.2,0.5c0,0.1,0,0.1,0,0.2v0.7l0.5,2.2
	c0,0,0,0.1,0,0.1v0.5l1.7,6.3l0.3,0.5c0,0,0.1,0.1,0.1,0.2l0.3,1.2l0.4,1c0,0.1,0,0.2,0,0.2l0.1,0.3l0.2,0.6l0.4,0.7l0.2,0.6
	l0.3,0.7l0.3,0.5c0,0,0.1,0.1,0.1,0.2l0.2,0.7l0.3,0.5L13,127l0.2,0.6l0.3,0.5l0.4,0.8l0.7,1.1l0.4,0.8l1.1,1.6l0.4,0.7l0.5,0.5
	l1.2,1.8l0.5,0.5l0.4,0.6l0.1,0.1c0,0,0,0,0.1,0l0.4,0.4L20.5,138.2z"/>
<polygon class="st0" points="141.1,78.1 144.3,76.2 141.4,74.5 138.2,76.4 "/>
<polygon class="st0" points="144.3,133.2 145.4,129.9 146.3,126.3 147.1,122.6 147.4,118.9 147.6,114.8 147.2,106.1 146.7,101.9 
	145.9,97.2 144.8,92.7 143.7,88.6 130.4,96.4 132.6,105.3 133.4,109.8 133.9,114.4 134.3,118.7 134.3,123.1 134.1,127.1 133.7,131 
	132.2,138.4 131.1,141.7 130.2,143.5 143,136.1 "/>
<path class="st0" d="M57.7,31.1c0,0,0.1,0,0.1,0l4.3,0.6l4.8,1.3l5.2,2.3l5.5,2.8l6,3.4l6,3.6l6.4,4.2l6.2,4.5l5.9,4.5l5.7,4.9
	l4.9,5.2l7.4-4.2l-4.7-6.1l-5.4-6.2l-6.2-6l-6.6-5.4l-6.7-4.7L89.5,32l-6.4-2.6l-6-1.7l-5.5-0.9L66.4,27L62,27.7l-6,3.5L57.7,31.1z"
	/>
<path class="st0" d="M88.1,148.9l2-2.2l1.9-2.4l1.5-2.9l1.3-3.2l0.9-3.5l0.6-3.7l0.2-3.9l-0.4-7.1l-0.6-3.7l-0.7-3.7l-0.9-3.9
	l-1.3-3.9l-1.3-3.8l-1.7-3.9l-3.7-7.5l-4.5-7.1l-2.4-3.4l-2.4-3.2l-2.8-3l-2.6-3l-2.8-2.6l-5.8-4.7l-3-1.8l-3-1.7l-2.8-1.5l-3-1.1
	l-2.8-0.9L45,54.8l-2.8-0.4l-2.6,0l-2.6,0.4l-2.4,0.6l-2.2,0.7L31.1,57c0,0,0,0,0,0c0,0,0,0,0,0l-0.4,0.2c-0.1,0.1-0.2,0.2-0.3,0.2
	l-10.6,6.1l1.8-0.3l2.7-0.2l2.9,0.2l2.7,0.6l3,0.8l2.9,1l3.1,1.3l2.9,1.5l3,1.9l3,2.1l5.7,4.9l2.9,2.8l2.8,3l2.6,3l2.5,3.4l2.3,3.4
	l2.3,3.6l2.1,3.6l1.9,3.8l1.7,3.8l1.5,4l1.3,3.8l1.1,3.8l0.9,3.8l1.1,7.4l0.2,3.6l0,3.4l-0.2,3.4l-1.1,6.1l-1,2.9l-1.2,2.5l-1.3,2.3
	l-1.5,2.1l-0.6,0.7l11.6-6.6l0.5-0.4L88.1,148.9z"/>
<path class="st0" d="M151,99.2l-0.8-4.5l-1.1-4.5l-1.1-4.1l-3.1,1.9l2.2,8.9l0.8,4.6l0.6,4.5l0.4,4.3l0,4.2l-0.2,4.2l-0.4,4
	l-1.5,7.2l-1.1,3.4l-0.8,1.7l2.6-1.4l1.4-3.1l1.1-3.2l1.5-7.3l0.4-3.9l0.2-4.1l0-4.1l-0.1-0.8c-0.1-0.1-0.2-0.4-0.1-0.5l0,0
	l-0.3-2.9L151,99.2z"/>
<polygon class="st0" points="95.4,151.3 93.8,151.3 93.8,152.7 98.7,155.7 98.7,151.1 "/>
<path class="st0" d="M71.9,158.1l1.6-1.8l1.5-2l1.3-2.2l1.1-2.4l0.9-2.8l1.1-6l0.2-3.3l0-3.4l-0.2-3.6l-1.1-7.3l-0.9-3.7l-1.1-3.7
	l-1.3-3.7l-1.5-3.9l-1.7-3.7l-1.9-3.7l-2.1-3.6l-2.2-3.6l-2.3-3.4l-2.4-3.4l-2.6-3l-2.8-3L52.7,78L47,73.2l-3-2l-3-1.9l-2.8-1.5
	l-3-1.3l-2.8-0.9l-3-0.7l-2.6-0.6l-2.8-0.2l-2.6,0.2l-2.4,0.4L17,65.4l-1.9,0.8l-0.9,0.5c0,0,0,0-0.1,0l-1.4,0.9L11,69l-1.6,1.8
	l-1.5,2l-1.3,2.2l-1.1,2.6l-0.9,2.6l-1.1,6.1l-0.2,3.1l0,3.4l0.2,3.6l1.1,7.3l0.9,3.7l0.5,1.7v-0.6l-0.2-0.5c0-0.1,0-0.1,0-0.2v-0.7
	l-0.2-0.7c0,0,0-0.1,0-0.1v-1.4l-0.2-0.5c0-0.1,0-0.1,0-0.2v-4.3v-3.8c0,0,0-0.1,0-0.1l0.2-0.7v-1.4c0,0,0-0.1,0-0.1l0.2-0.7v-0.5
	c0,0,0-0.1,0-0.1L6,91.9v-0.7c0,0,0-0.1,0-0.1l0.2-0.7v-0.7c0-0.1,0-0.1,0-0.2L6.4,89l0.1-0.3l0.3-2.2l0.6-2.9l1-2.7l1.1-2.5
	l1.1-2.1l1.5-2.1l1.7-1.8l1.9-1.4l0.6-0.4l0.3-0.2c0.1-0.1,0.2-0.1,0.2-0.1l0.9-0.5l2.1-0.8l2.5-0.6l2.5-0.4c0,0,0.1,0,0.1,0
	l2.4,0.2l2.7,0.4l2.9,0.6l2.7,1l2.8,1.1l2.9,1.5c0,0,0,0,0,0c0,0,0,0,0,0l3,1.9l5.5,4.4l2.8,2.5l2.7,2.7l4.9,6.1l2.5,3.2l4.2,6.8
	l1.9,3.6l1.7,3.6l1.5,3.8l2.3,7.2l0.9,3.8l0.6,3.6l0.4,3.4l0.2,3.4l0,3.2l-0.8,6.1l-0.8,2.9l-1.2,2.5l-1.1,2.3l-1.3,2.1l-1.7,1.9
	l-1.7,1.5l-1.9,1.4l-2.2,1l-2.3,0.6l-2.5,0.6c0,0-0.1,0-0.1,0h-2.4l-2.7-0.2l-2.7-0.6l-2.8-0.8l-4-1.7l-0.9-0.2l-0.8-0.4l-0.5-0.2
	l-0.8-0.4l-0.5-0.2L40,154l-0.5-0.4l-0.7-0.2c-0.1,0-0.1,0-0.2-0.1l-0.6-0.4l-0.7-0.3l-0.5-0.2c0,0-0.1,0-0.1-0.1l-0.6-0.4l-0.7-0.3
	l-1.2-0.8l-0.7-0.3l-1.7-1.2l-0.7-0.3c0,0-0.1-0.1-0.1-0.1l-0.6-0.6l-1.6-1.1l-0.6-0.6l-0.5-0.3c0,0-0.1,0-0.1-0.1l-0.6-0.6
	l-0.3-0.2l0.6,0.6l2.6,2.8l3,2.6l2.8,2.2l5.8,3.9l3,1.5l3,1.3l2.8,1.1l2.8,0.7l2.8,0.4l2.8,0.2l2.6-0.2l2.4-0.4l2.2-0.7l2.2-0.9
	l0.4-0.3c0,0,0.1-0.1,0.1-0.1l0.3-0.2l1.1-0.7L71.9,158.1z"/>
<path class="st0" d="M142.4,79l1,1l0.8,1.2l0.6,1.2l0.6,1.3c0,0,0,0.1,0,0.1l0.2,1.1l0,1.2c0,0.1,0,0.1,0,0.2l-0.1,0.2L148,85
	l0.5-0.6l0.3-0.8v-0.8l-0.2-1.2l-0.5-1.3l-0.6-1.1l-0.7-1.1l-0.9-0.9l-0.6-0.5l-3.2,1.9L142.4,79z"/>
<path class="st0" d="M93.3,150.3c0.1,0,0.1,0,0.2,0l1.9,0l3.6-0.1c0.1,0,0.1,0,0.2,0c0.1,0,0.1,0,0.2,0l5.5-0.2l5.9-0.4
	c0.1-0.1,0.2-0.1,0.4-0.1c0.1,0,0.2,0,0.3,0.1l12.1-0.9c0,0,0,0,0,0c0,0,0,0,0,0h0.6l2.5-0.3l1.7-2.8l0.2-0.5l0.2-0.4c0,0,0,0,0,0
	l1.5-3.2l1.1-3.2l1.5-7.3l0.4-3.9l0.2-3.9l0-4.3l-0.4-4.3l-0.6-4.5l-0.8-4.5l-2.2-9.2l-2.3-6.8l-0.5-1.1l-0.3-0.8l-19.8,1.3L87,89.6
	l3.4,6.8l1.7,4l1.3,3.8l1.3,4l1,4l0.8,3.8l0.6,3.8l0.4,7.2c0,0,0,0,0,0c0,0,0,0,0,0l-0.2,4l-0.6,3.8l-1,3.6l-1.3,3.3l-1.5,3
	l-1.9,2.5l-2.1,2.3l-1.1,0.8l0.4,0c0.1-0.1,0.2-0.2,0.4-0.2c0.1,0,0.2,0.1,0.3,0.1l4.4-0.1C93.2,150.3,93.2,150.3,93.3,150.3z"/>
<polygon class="st0" points="89.1,151.4 89.3,151.7 89.8,152 90.5,152.4 92.2,152.7 92.8,152.6 92.8,151.3 "/>
<polygon class="st0" points="99.7,151.1 99.7,155.7 108.6,150.6 104.8,150.9 "/>
<polygon class="st0" points="137.4,62.7 138.6,63.9 139.1,64.2 139.8,63.9 140.1,63 139.9,62.2 139.6,61.4 139.1,60.7 138.4,60 
	137.8,59.7 137.5,59.7 137.1,59.9 136.9,60.1 136.8,60.6 136.8,61.2 137.1,62.1 "/>
<path class="st0" d="M136.6,155.9l-0.4,1.8l-0.6,1.6c0,0,0,0.1-0.1,0.1l-0.2,0.3l6.3-3.7l0.5-0.4l1-0.9l0.7-1.2l0.5-1.6l0.4-1.6
	l0.1-1l-8.2,4.8L136.6,155.9z"/>
<polygon class="st0" points="138.9,68.8 133.9,71.7 134.4,72.5 139.3,69.6 "/>
<path class="st0" d="M181.1,63.9L181.1,63.9l-5.7,3.3l0,0c0,0,0,0,0,0l-0.9,0.5l-0.3,0.3c0,0-0.1,0.1-0.1,0.1l-0.4,0.2l-7.6,4.4
	l-0.8,3.3l-0.6,1.7l13.4-7.8c0.1-0.1,0.2-0.1,0.3-0.2l0.2-0.1c0-0.1,0.1-0.1,0.1-0.2c0.1-0.1,0.2-0.1,0.3-0.1l10.2-5.9l0.1-0.1v-1.1
	l-0.2-0.5l-0.2-0.7l-0.3-0.5l-0.4-0.8l-0.1-0.1l-6.5,3.9C181.5,63.8,181.3,63.9,181.1,63.9z"/>
<path class="st0" d="M182,72.1c0,0,0.1-0.1,0.1-0.1l0.4-0.2c0,0,0,0,0,0l0.1,0l-1.8-2.2l-1.1,0.6l1.8,2.3L182,72.1z"/>
<polygon class="st0" points="130.1,93.5 129.9,92.3 129.4,91.3 128.8,89.9 128.1,88.9 127.7,88.5 128,89.1 129.9,94.8 130.1,94.4 
	"/>
<path class="st0" d="M133.8,61.6l0.8,1.2l1.4,1.8l0.9,0.7c0,0,0.1,0,0.1,0.1l0.7,0.9l0.9,0.7l0.8,0.8c0,0,0,0,0,0.1c0,0,0,0,0,0
	c0,0,0,0,0,0c0,0,0,0,0,0l0.8,1.5c0.1,0,0.2,0.1,0.3,0.2l1.6,0.9l-0.5-6.6l-0.4-1.7l-0.7-1.7l-1.2-1.6l-1.4-1.1l-13.4-7.7l0.9,0.9
	l3,3.8l4.5,5.8c0,0,0,0,0,0L133.8,61.6z M135.8,60.6c0,0,0-0.1,0-0.1l0.2-0.8c0-0.1,0.1-0.2,0.1-0.2l0.4-0.4
	c0.1-0.1,0.1-0.1,0.2-0.1l0.6-0.2c0.1,0,0.1,0,0.2,0h0.6c0.1,0,0.2,0,0.2,0.1l0.8,0.4c0,0,0.1,0.1,0.1,0.1l0.8,0.8l0.6,0.8
	c0,0,0,0.1,0.1,0.1l0.4,0.9l0.2,1c0,0.1,0,0.1,0,0.2l-0.4,1.4c0,0.1-0.2,0.3-0.3,0.3l-1.1,0.4c-0.1,0-0.1,0-0.2,0
	c-0.1,0-0.2,0-0.2-0.1l-0.8-0.4c0,0-0.1-0.1-0.1-0.1l-1.3-1.3c0,0-0.1-0.1-0.1-0.1l-0.4-0.8l-0.4-1c0-0.1,0-0.1,0-0.2V60.6z"/>
<path class="st0" d="M52.5,27.7L52,27.4c0,0.1-0.1,0.1-0.1,0.2l-0.2,0.2c0,0-0.1,0.1-0.1,0.1L51.2,28c0,0-0.1,0-0.1,0l1.3,0.8
	l0.1-0.1V27.7z"/>
<path class="st0" d="M119.4,69.1l0.6,0.5l1.9,1l2.9,0.6l2.8,0.2l5.5-0.4l5.2-3l-0.3-0.3l-0.9-0.7c0,0-0.1,0-0.1-0.1l-0.7-0.9
	l-0.9-0.7c0,0-0.1,0-0.1-0.1l-1.5-1.9l-0.8-1.2l-0.5-0.6l-5.5,3.2c0,0,0,0,0,0c0,0,0,0,0,0L119.4,69.1z"/>
<path class="st0" d="M165.3,71.4l1.2-4.3c-0.1-0.1-0.1-0.3-0.1-0.4l0.4-1.5L167,62l-0.4-3.5l-0.7-3.7l-1.1-3.7l-1.5-3.9l-2-3.5
	l-2.2-3.5l-1.1-1.1l-0.7-0.5l-3.2-1.5l-3.3-1.1c0,0,0,0,0,0c0,0,0,0,0,0l-1.1-0.6l-0.9-0.4c0,0-0.1,0-0.1,0l-0.6-0.4l-1.2-1.2
	c0,0,0,0,0,0c0,0,0,0,0,0l-1.8-2.3l-0.9-0.2c0,0,0,0,0,0c0,0,0,0,0,0l-2.1-0.4l-2.5-0.8l-2.3-0.8l-2.6-0.9l-1.3-0.6l-1.8-0.9l2,1.6
	c0,0,0,0,0,0c0,0,0,0,0,0l1.3,1.5c0,0,0.1,0.1,0.1,0.1l0.8,1.7c0,0,0,0,0,0.1c0,0,0,0,0,0.1l0.8,6l0.9,6l0.7,6l6.6,3.8c0,0,0,0,0,0
	c0,0,0,0,0,0l0.8,0.6l1.4,1.4c0,0,0.1,0.1,0.1,0.1l0.6,0.9l1.2,2.9c0,0.1,0,0.1,0,0.2v0.7l0.6,9.4c0,0,0,0,0,0.1c0,0,0,0.1,0,0.1
	c0,0,0,0.1,0,0.1c0,0,0,0.1,0,0.1c0,0-0.1,0-0.1,0.1c0,0,0,0-0.1,0l-6.5,3.7l3.1,1.8c0,0,0,0,0,0c0,0,0,0,0,0c0,0,0,0,0,0l0.9,0.8
	l1,1l0.8,1.2l0.6,1.2l0.6,1.3c0,0,0,0.1,0,0.1l0.2,1.3l0,1c0,0.1,0,0.1,0,0.2l-0.4,0.9c0,0,0,0.1-0.1,0.1l-0.4,0.6l1.3,4.5l1.1,4.5
	l0.8,4.6l0.6,4.5l0.1,1.2l1-2.3l1.9-4l3.2-7.5l1.1-3.2l0.9-2.5l0.7-2.2l1.3-3.4l0.2-0.6c-0.1-0.2,0-0.5,0.2-0.6l0.9-2.7L165.3,71.4z
	"/>
<path class="st0" d="M122.9,47.9l15.4,8.9l5-2.8l-5.7-3.3c0,0,0,0-0.1,0c0,0,0,0-0.1,0c-0.2,0-0.4-0.1-0.5-0.4l-9.3-5.4L122.9,47.9z
	"/>
<path class="st0" d="M140.1,58.1c0,0,0.1,0.1,0.1,0.1l1.3,1.7c0,0,0.1,0.1,0.1,0.1l0.8,1.9l0.2,1.1l5-2.9v-0.4l-1.1-2.7l-0.5-0.8
	l-1.3-1.3l-0.4-0.3l-5.1,2.9L140.1,58.1z"/>
<path class="st0" d="M177.2,72.7h0.5l0.1-0.1l0.1-0.2c0,0,0.1-0.1,0.1-0.1l0,0l-0.1-1l-1.1,0.7v0.6L177.2,72.7z"/>
<path class="st0" d="M183,72.7l-0.3,0.2l-0.5,0.5l0.1,0.1l0.4,0.8l0.4,1l0.2,0.8c0,0,0,0.1,0,0.1v0.6c0,0.1,0,0.2-0.1,0.2l-0.2,0.4
	c-0.1,0.2-0.3,0.3-0.4,0.3H182c-0.1,0-0.1,0-0.2,0l-0.6-0.2c0,0-0.1,0-0.1-0.1l-0.6-0.4c0,0-0.1-0.1-0.1-0.1l-0.6-0.8l-0.7-0.7
	c0,0-0.1-0.1-0.1-0.1l-0.4-0.8l-0.4-1l0,0l-0.2,0.1c-0.1,0-0.1,0.1-0.2,0.1h-0.8c0,0,0,0-0.1,0l0.2,0.5l1.1,2.1l0.7,0.9l1.8,1.4
	l1,0.3h0.7l0.8-0.2l0.5-0.3l0.7-1.3l0.1-0.6l-0.2-1l-0.7-2.1l-0.5-0.8L183,72.7C183,72.7,183,72.7,183,72.7z"/>
<path class="st0" d="M172.5,17.4c-0.1,0-0.2-0.1-0.3-0.1c0,0,0,0,0,0l-1.3-0.7L146,30.8l1.3,1.6l25.8-14.8L172.5,17.4z"/>
<path class="st0" d="M143.3,71.3C143.3,71.3,143.3,71.3,143.3,71.3c0,0.1,0,0.1,0,0.1c0,0,0,0,0,0.1c0,0,0,0,0,0.1c0,0,0,0,0,0
	c0,0,0,0,0,0c0,0,0,0,0,0.1c0,0-0.1,0.1-0.1,0.1c0,0,0,0,0,0c0,0,0,0,0,0l-5.8,3.4l0.1,0.1c0.1,0.1,0.1,0.2,0.1,0.4l3.4-2
	c0.1-0.1,0.2-0.2,0.4-0.2l6.9-3.9l-0.5-8.3l-4.9,2.8L143.3,71.3z"/>
<path class="st0" d="M85.1,19.3C85.1,19.3,85.2,19.3,85.1,19.3c0.1,0.1,0.1,0.1,0.1,0.1c0,0,0,0,0,0c0,0,0,0,0,0.1c0,0,0,0.1,0,0.1
	c0,0,0,0.1,0,0.1c0,0,0,0.1,0,0.1c0,0,0,0.1,0,0.1c0,0,0,0,0,0.1c0,0,0,0,0,0c0,0.1-0.1,0.1-0.2,0.2l0,0c0,0,0,0,0,0l-5.8,3.4
	c0,0,0,0,0,0c0,0-0.1,0-0.1,0c0,0,0,0,0,0c0,0-0.1,0-0.1,0c0,0,0,0,0,0c0,0,0,0,0,0s0,0,0,0c0,0,0,0,0,0c0,0,0,0,0,0l-5.3-0.2
	l-3.1,0.4l-2.7,0.5l-3.4,2l1.8-0.3l5.3-0.2c0,0,0.1,0,0.1,0l5.6,0.9l6.1,1.7l6.5,2.7l7,3.8l6.8,4.7l6.6,5.5l6.2,6.1l5.5,6.2l4.8,6.3
	l5-2.9l-4.2-5.4l-3-3.8l-3.2-3.4c0,0,0,0,0,0c0,0,0,0,0,0c0,0,0,0,0,0c0,0,0,0,0,0c0,0,0,0,0-0.1c0,0,0,0,0,0c0,0,0,0,0-0.1
	c0,0,0,0,0-0.1c0,0,0,0,0-0.1c0,0,0,0,0-0.1c0,0,0,0,0-0.1c0,0,0,0,0,0c0,0,0,0,0,0c0,0,0,0,0-0.1c0,0,0,0,0,0c0,0,0,0,0,0
	c0,0,0,0,0,0c0,0,0,0,0,0l5.8-3.6c0,0,0,0,0.1,0c0,0,0.1,0,0.1,0c0,0,0.1,0,0.1,0c0,0,0.1,0,0.1,0c0,0,0.1,0,0.1,0c0,0,0,0,0.1,0
	l8.9,5.2l-0.6-5.2l-0.9-6l-0.7-6l-0.7-1.6l-1.2-1.4l-5.6-4.5l-0.9-0.6l-0.1,0c-0.2,0-0.3-0.2-0.4-0.3l-4.1-2.8l-5.1-2.8l-4.9-2.2
	l-4.6-1.7l-2-0.4l-2,0.2l-7.3,1.1l-7.3,1.5l-5.5,1.5L85.1,19.3C85.1,19.3,85.1,19.3,85.1,19.3z"/>
<path class="st0" d="M130.8,25.8l-0.2-0.4c-0.1-0.2-0.1-0.4,0.1-0.6l0.2-0.2c0,0,0,0,0.1,0c0,0,0,0,0,0l0,0l-0.8-0.2l-1.8-0.3
	l2.9,2.3L130.8,25.8z"/>
<path class="st0" d="M131.6,25.3l0.3,0.4l1.8,0.9l1.3,0.6l2.6,0.9l2.2,0.7l2.4,0.8l1.8,0.3L171.9,14l-0.3-2c0,0,0,0,0,0l-0.8-1.9
	l-0.3-0.5L169.2,8l-0.7-0.7l-1.6-1c0,0-0.1,0-0.1,0c-0.2,0-0.3-0.1-0.4-0.3l-0.7-0.1L165.1,6l-0.3,0.2L161.7,8
	c-0.1,0.1-0.2,0.1-0.3,0.2L131.6,25.3L131.6,25.3z"/>
<path class="st0" d="M79,22.5l4.8-2.8l-2.4-1.4c0,0,0,0,0,0c-0.2,0-0.3-0.1-0.4-0.2l-12.8-7.4l-4.8,2.8L79,22.5z"/>
<path class="st0" d="M54.2,29.8l-0.7,1.5v0.1h0.1l8-4.6c0,0,0,0,0,0l3.6-2.1h-0.5c0,0-0.1,0-0.1,0l-0.7-0.2H63c0,0-0.1,0-0.1,0
	l-1.5-0.3l-0.3,0.2c-0.1,0.1-0.2,0.1-0.3,0.2l-5,2.9l-0.3,0.5L54.2,29.8z"/>
<path class="st0" d="M62.4,12.9l4.8-2.8L66.9,10h-0.6l-0.2,0.1c0,0,0,0,0,0c0,0.1-0.1,0.1-0.1,0.2c0,0,0,0,0,0c0,0,0,0,0,0l-4.1,2.3
	c0,0,0.1,0,0.1,0L62.4,12.9z"/>
<path class="st0" d="M135.3,75.5c0,0.1-0.1,0.1-0.1,0.1l-0.3,0.2l-0.3,0.3l1.4,0.8v-1.1L135.3,75.5z"/>
<polygon class="st0" points="128.3,147.3 128.3,147.3 128.1,147.7 128.1,147.7 128.1,147.6 "/>
<path class="st0" d="M174.7,18.4c-0.1,0-0.1,0.1-0.2,0.1c0,0,0,0,0,0c0,0,0,0,0,0c0,0,0,0,0,0c-0.1,0-0.1,0-0.2-0.1c0,0,0,0-0.1,0
	c0,0-0.1,0-0.1-0.1l0,0c0,0-0.1,0-0.1,0l-26,14.9l0.7,0.7l0.4,0.3l0.9,0.4l0.9,0.5l27.8-16.1l-0.1-0.2c0-0.1-0.1-0.1-0.1-0.2v-0.3
	l-0.3-0.6l-0.3-0.3c0,0-0.1-0.1-0.1-0.1l-0.2-0.3l0,0l-2.4,1.4c-0.1,0.1-0.2,0.1-0.2,0.1L174.7,18.4
	C174.7,18.4,174.7,18.4,174.7,18.4z"/>
<path class="st0" d="M162.1,43.2l2.1,3.6l1.5,4l1.1,3.8l0.8,3.8L168,62l-0.2,3.3l-0.3,1.2c0.1,0.1,0.1,0.3,0.1,0.4l-1.3,4.5l6.7-3.9
	c0,0,0,0,0,0s0,0,0,0l0.3-0.2l0.3-0.3c0,0,0.1-0.1,0.1-0.1l0.4-0.2l0.5-0.3c0,0,0,0,0,0c0,0,0,0,0,0l9.2-5.4l1.2-1.2l0.1-0.2
	c0-0.1,0.1-0.1,0.1-0.2l0.7-1.2l0.7-2l0.6-2l0.2-2.4l0-2.4l-0.2-2.8l-0.6-2.8l-0.7-2.8l-0.9-2.8l-1.1-2.3l-2.3,1.3c0,0,0,0,0,0
	c0,0-0.1,0-0.1,0l-6.4,3.8c-0.1,0-0.2,0.1-0.3,0.1c-0.1,0-0.2,0-0.2-0.1c0,0,0,0-0.1-0.1c0,0-0.1,0-0.1-0.1l-0.6-0.8
	c0,0,0-0.1-0.1-0.1l-0.4-0.9l-1.1-2.2l-0.5-0.7l-0.4-0.8l-0.5-0.5c0,0,0,0,0-0.1c0,0,0,0,0,0c0,0,0,0,0,0c0,0,0-0.1,0-0.1
	c0,0,0-0.1,0-0.1c0,0,0-0.1,0-0.1c0,0,0-0.1,0-0.1c0,0,0-0.1,0-0.1c0,0,0-0.1,0.1-0.1c0,0,0,0,0,0c0,0,0,0,0.1,0c0,0,0,0,0,0l4-2.3
	c0,0,0,0,0.1-0.1c0.1-0.1,0.1-0.1,0.2-0.1l1.6-0.9c0-0.1,0.1-0.1,0.2-0.2c0.1,0,0.2-0.1,0.2-0.1l1.8-1.1c0,0,0,0,0,0c0,0,0,0,0,0
	l0.8-0.4c0-0.1-0.1-0.2-0.1-0.2l-0.1-0.1L160.1,40L162.1,43.2z"/>
<polygon class="st0" points="154.5,36.2 157.5,37.6 178.7,25.4 178.7,20 152.2,35.4 "/>
<path class="st0" d="M158.6,38.3l0.9,0.9l19.8-11.4c0,0,0,0,0,0v-0.3l-0.1-0.2l-0.1-0.1c-0.1-0.1-0.1-0.2-0.1-0.4l0-0.2
	c0,0,0-0.1-0.1-0.1l-20.3,11.7L158.6,38.3z"/>
<polygon class="st0" points="177.3,33.5 179.9,37.1 180.7,36.7 178.4,33.3 177.4,31.7 176.4,32.3 "/>
<polygon class="st0" points="136.9,77.1 137.1,77 136.9,76.8 "/>
<polygon class="st0" points="53.6,28 53.7,27.9 53.6,27.8 53.5,27.8 53.5,28.1 "/>
<path class="st0" d="M31.7,35.8c0,0,0.1-0.1,0.1-0.1l0.5-0.5l0.3-0.7l0.4-0.6l0.1-0.2l-0.4-0.2l-0.7-0.1l0,0l-0.5,0.3
	c-0.1,0-0.2,0.1-0.2,0.1L31,33.9l-0.3,0.7l-0.3,0.8l0.3,2.2l0.1,0.1l0.1-0.3L31.7,35.8z"/>
<path class="st0" d="M46.9,25.3h-0.6l-0.7,0.2c0,0-0.1,0-0.1,0c0,0,0,0,0,0h-0.1l-12.3,7.2l0.6,0.2L46.9,25.3z"/>
<polygon class="st0" points="31.1,45 32.8,36.1 32.5,36.4 31.8,37.8 31.6,38.3 31.3,39.1 29.9,42.3 29.4,43.9 29.4,43.9 24.7,59.5 
	29.8,56.6 30.3,50.9 "/>
<path class="st0" d="M134.3,75l0.2-0.1l-0.3-0.4l-0.2-0.1l-0.5-0.1l0.4,0.5c0,0,0.1,0.1,0.1,0.1l0.1,0.4l0.2-0.2
	C134.2,75,134.3,75,134.3,75z"/>
<path class="st0" d="M137.9,77.7l-1.3,0.6c0,0,0,0,0,0c-0.1,0-0.1,0-0.2,0c0,0,0,0,0,0c0,0,0,0,0,0c0,0,0,0,0,0s0,0,0,0c0,0,0,0,0,0
	c0,0,0,0,0,0c-0.1,0-0.2,0-0.2-0.1c0,0,0,0,0,0l-2.6-1.6L90.5,88.5l16-0.6l20-1.3l13.5-7.8L137.9,77.7z"/>
<path class="st0" d="M175.5,32.8l-3.2,1.9l0.1,0.1c0,0,0.1,0.1,0.1,0.1l0.4,0.8l0.5,0.7l1.2,2.3l0.4,0.9l0.3,0.3l3.9-2.3l-2.5-3.5
	L175.5,32.8z"/>
<path class="st0" d="M51.3,22.8l-0.7-0.1l-0.5,0.1L50,22.9c0,0,0,0-0.1,0c0,0,0,0-0.1,0l-2.2,1.2l0.6,0.4L51.3,22.8z"/>
<path class="st0" d="M129.6,146.4c0,0.1,0,0.1,0,0.2l-0.1,0.3l6.4-3.6c0.1,0,0.1-0.1,0.2-0.1l5.9-3.3l0.4-0.4l0.2-0.5l0.2-0.4
	l-13.2,7.6V146.4z"/>
<path class="st0" d="M61.1,23.2C61.1,23.2,61.1,23.2,61.1,23.2c0.1,0,0.1-0.1,0.2-0.1c0,0,0.1,0,0.1,0c0,0,0,0,0.1,0l0,0
	c0,0,0,0,0,0l1.6,0.4h0.9c0,0,0.1,0,0.1,0l0.7,0.2h0.6l0.7-0.2c0,0,0.1,0,0.1,0h0.7l0.7-0.2c0,0,0,0,0,0c0,0,0,0,0,0l2.8-0.6
	l3.2-0.4l3.4,0.1l-14.8-8.6l-0.6-0.3h-1.5l-0.2,0.1c0,0-0.1,0-0.1,0l-0.1,0.1l-0.3,0.4L59,15.6l-0.4,6.6l2.1,1.2L61.1,23.2z
	 M59.9,17.4v-0.8c0,0,0-0.1,0-0.1l0.2-0.8c0-0.1,0.1-0.2,0.1-0.2l0.4-0.4c0.1-0.1,0.1-0.1,0.2-0.1l0.6-0.2c0.1,0,0.2,0,0.3,0
	l0.6,0.2l0.8,0.4c0,0,0.1,0.1,0.1,0.1l0.6,0.6l0.6,0.8c0,0,0,0.1,0.1,0.1l0.4,0.9l0.2,1l0,0.8c0,0.1,0,0.2-0.1,0.3l-0.4,0.6
	l-0.4,0.5c-0.1,0.1-0.2,0.1-0.4,0.1h-0.6c-0.1,0-0.2,0-0.2-0.1l-1.5-0.8c-0.1,0-0.1-0.1-0.2-0.1l-0.6-0.8c0,0,0-0.1-0.1-0.1
	l-0.8-1.9C59.9,17.6,59.9,17.5,59.9,17.4z"/>
<path class="st0" d="M51.2,26.3v-0.2c0,0,0,0,0,0c0,0,0,0,0-0.1c0,0,0,0,0,0c0,0,0,0,0-0.1c0,0,0,0,0,0c0,0,0,0,0,0c0,0,0,0,0,0
	c0,0,0,0,0.1-0.1c0,0,0,0,0.1,0c0,0,0,0,0,0l2.6-1.5l-1.6-0.9l-3.2,1.9L51.2,26.3z"/>
<path class="st0" d="M51.7,29.6l-2.3-1.4c0,0,0,0,0,0c0,0,0,0,0,0c0,0,0,0,0,0c0,0-0.1,0-0.1-0.1c0,0,0,0-0.1-0.1c0,0,0,0,0,0
	c0,0,0,0,0,0c0,0,0,0,0-0.1c0,0,0-0.1,0-0.1c0,0,0,0,0-0.1c0,0,0,0,0,0c0,0,0,0,0,0c0,0,0-0.1,0-0.1c0,0,0,0,0-0.1c0,0,0,0,0-0.1
	c0,0,0,0,0,0c0,0,0,0,0,0c0,0,0,0,0-0.1c0,0,0,0,0,0c0,0,0,0,0.1,0c0,0,0,0,0,0l0.7-0.4l-2-1.3l-13.9,8L32,45.2L31.3,51l-0.4,4.2
	l7.6-9.3L51.7,29.6z"/>
<path class="st0" d="M53.6,26.8l0.5,0.2c0.1,0,0.2,0.1,0.3,0.3l0,0l0.1-0.1c0,0,0,0,0,0c0,0,0,0,0,0l0.6-0.4c0,0,0,0,0,0
	c0,0,0,0,0,0l4.5-2.6l-1.6-0.9l-2.7,1.5c0,0,0,0-0.1,0l-2.6,1.5L53.6,26.8z"/>
<path class="st0" d="M144.4,85.3l-0.3-1.2l-0.4-1.1l-0.5-1.2l-0.7-0.9l-0.9-0.9l-0.6-0.5l-13.3,7.7l0.2,0.1c0,0,0.1,0,0.1,0.1
	l0.9,0.9l0.8,1.2l0.6,1.4l0.6,1.1c0,0,0,0.1,0,0.2l0.2,1.3l0,1c0,0.1,0,0.1,0,0.2l-0.1,0.3l12.7-7.5l0.4-0.4L144.4,85.3z"/>
<g>
	<path class="st1" d="M136.2,62.5l0.4,0.8c0,0,0.1,0.1,0.1,0.1l1.3,1.3c0,0,0.1,0.1,0.1,0.1l0.8,0.4c0.1,0,0.1,0.1,0.2,0.1
		c0.1,0,0.1,0,0.2,0l1.1-0.4c0.1,0,0.3-0.2,0.3-0.3l0.4-1.4c0-0.1,0-0.1,0-0.2l-0.2-1l-0.4-0.9c0,0,0-0.1-0.1-0.1l-0.6-0.8l-0.8-0.8
		c0,0-0.1-0.1-0.1-0.1l-0.8-0.4c-0.1,0-0.1-0.1-0.2-0.1h-0.6c-0.1,0-0.1,0-0.2,0l-0.6,0.2c-0.1,0-0.1,0.1-0.2,0.1l-0.4,0.4
		c-0.1,0.1-0.1,0.1-0.1,0.2l-0.2,0.8c0,0,0,0.1,0,0.1v0.8c0,0.1,0,0.1,0,0.2L136.2,62.5z M136.8,60.6l0.1-0.6l0.2-0.2l0.4-0.1h0.4
		l0.6,0.3l0.6,0.6l0.5,0.7l0.3,0.8l0.2,0.8l-0.3,0.9l-0.7,0.2l-0.5-0.2l-1.2-1.2l-0.3-0.6l-0.3-0.9V60.6z"/>
	<path class="st1" d="M60.7,19.5c0,0,0,0.1,0.1,0.1l0.6,0.8c0,0.1,0.1,0.1,0.2,0.1l1.5,0.8c0.1,0,0.1,0.1,0.2,0.1h0.6
		c0.1,0,0.3-0.1,0.4-0.1l0.4-0.5l0.4-0.6C65,20.1,65,20,65,19.9l0-0.8l-0.2-1l-0.4-0.9c0,0,0-0.1-0.1-0.1l-0.6-0.8l-0.6-0.6
		c0,0-0.1-0.1-0.1-0.1l-0.8-0.4l-0.6-0.2c-0.1,0-0.2,0-0.3,0l-0.6,0.2c-0.1,0-0.1,0.1-0.2,0.1l-0.4,0.4c-0.1,0.1-0.1,0.1-0.1,0.2
		l-0.2,0.8c0,0,0,0.1,0,0.1v0.8c0,0.1,0,0.1,0,0.2L60.7,19.5z M60.9,16.7l0.1-0.6l0.2-0.2l0.3-0.1l0.3,0.1l0.7,0.3l0.5,0.5l0.5,0.7
		l0.3,0.8l0.2,0.8v0.6l-0.2,0.4l-0.2,0.2h-0.2L62,19.7l-0.5-0.6l-0.7-1.7V16.7z"/>
	<path class="st1" d="M190.2,62.1l-0.4-1.3c0-0.1,0-0.1-0.1-0.2l-0.3-0.5l-0.4-0.8l-0.4-0.6c0,0,0,0,0,0c0,0,0,0-0.1-0.1
		c0,0,0,0-0.1-0.1c0,0,0,0,0,0c0,0,0,0-0.1,0c0,0,0,0,0,0c0,0-0.1,0-0.1,0c0,0,0,0,0,0c0,0,0,0-0.1,0c0,0,0,0,0,0c0,0-0.1,0-0.1,0
		c0,0,0,0,0,0c0,0,0,0,0,0l-0.8,0.2l-0.5,0.2h-0.1l0.3-0.5l0.8-2.1l0.6-2.2l0.2-2.5l0-2.5l-0.2-2.9l-0.6-2.9l-0.8-2.9l-1-2.9
		l-1.3-2.8c0,0,0,0,0,0c0,0,0,0,0,0c0,0,0,0,0-0.1c0,0,0-0.1-0.1-0.1c0,0,0,0-0.1,0c0,0-0.1,0-0.1,0c0,0,0,0-0.1,0c0,0-0.1,0-0.1,0
		c0,0-0.1,0-0.1,0c0,0-0.1,0-0.1,0c0,0,0,0,0,0c0,0,0,0,0,0l-2.4,1.4l-2.3-3.4l-1-1.6l2.9-1.7l0,0c0,0,0,0,0,0l0,0c0,0,0,0,0.1,0
		c0,0,0,0,0.1,0c0,0,0,0,0,0c0,0,0,0,0,0c0,0,0,0,0-0.1c0,0,0,0,0-0.1c0,0,0,0,0,0c0,0,0,0,0-0.1c0,0,0-0.1,0-0.1c0,0,0,0,0,0
		c0,0,0,0,0-0.1c0,0,0-0.1,0-0.1c0,0,0,0,0,0c0,0,0,0,0,0c0,0,0,0,0,0c0,0,0,0,0,0c0,0,0,0,0-0.1l-0.2-0.2c0-0.1-0.1-0.2-0.1-0.3
		l-0.6-0.6l0-0.2c0-0.1,0-0.2-0.1-0.2l-0.2-0.4c0,0-0.1-0.1-0.1-0.1l0-0.2c0-0.1-0.1-0.3-0.1-0.4l0-0.4v-6.6v-0.4
		c0-0.1,0-0.2-0.1-0.2l-0.1-0.3V18c0-0.1,0-0.2-0.1-0.2l-0.4-0.8c0,0-0.1-0.1-0.1-0.1l-0.3-0.3l-0.2-0.3c0,0-0.1-0.1-0.1-0.1
		l-0.4-0.4c0,0,0,0,0,0c0,0-0.1,0-0.1-0.1c0,0-0.1,0-0.1,0c0,0-0.1,0-0.1,0c0,0-0.1,0-0.1,0c0,0-0.1,0-0.1,0c0,0-0.1,0-0.1,0
		c0,0,0,0,0,0l-2.3,1.4l-0.2-0.4c0-0.1-0.1-0.1-0.1-0.2l-0.8-0.6c-0.1-0.1-0.2-0.1-0.3-0.1h-0.1l-0.8-0.4l0.4-0.8l0.2-0.5
		c0.1-0.1,0.2-0.2,0.2-0.4l0-1.6l0-0.1c0,0,0-0.1,0-0.2v-0.4c0-0.1-0.1-0.3-0.1-0.4l0-0.4c0-0.1,0-0.1,0-0.2c0-0.1-0.1-0.1-0.1-0.2
		l0-0.2c0-0.1-0.1-0.3-0.1-0.4l0-0.2c0-0.2-0.1-0.3-0.2-0.4c0-0.2-0.1-0.3-0.2-0.4c0-0.2-0.1-0.3-0.3-0.4c0,0,0,0,0,0c0,0,0,0,0,0
		l-0.1-0.1c0-0.2-0.1-0.3-0.2-0.4c0-0.1-0.1-0.1-0.2-0.2c0,0,0-0.1-0.1-0.1l-0.2-0.2l0,0l0,0c0-0.2-0.1-0.3-0.3-0.4
		c0-0.1-0.1-0.1-0.2-0.2c0-0.1-0.1-0.1-0.2-0.2c0-0.1-0.1-0.1-0.2-0.2c-0.1-0.2-0.2-0.3-0.4-0.3h-0.2l-0.6-0.3l-0.8-0.3l-0.1-0.1
		c-0.1-0.1-0.4-0.2-0.5-0.1c-0.1,0-0.1,0-0.2,0h-0.4h-0.4H167c0,0-0.1,0-0.1,0c0,0,0,0,0,0l-1.1-0.2c-0.1,0-0.1,0-0.2,0l-0.8,0.2
		c0,0-0.1,0-0.1,0l-0.4,0.2c0,0,0,0,0,0c0,0,0,0,0,0l-2.5,1.4v0c0,0,0,0,0,0c0,0,0-0.1,0-0.1c0,0,0-0.1,0-0.1c0,0,0,0,0,0
		c0,0,0,0,0,0c0,0,0,0,0,0c0,0,0,0,0-0.1c0,0,0,0,0,0c0,0,0,0-0.1,0c0,0,0,0,0,0l-0.4-0.2C161.1,6,161,6,160.9,6h-0.2
		c-0.1,0-0.2,0-0.2,0.1l-0.4,0.2c0,0,0,0,0,0c0,0,0,0,0,0l-29.8,17.1l-3.8-0.5l-4.5-3l-5.1-2.8l-4.9-2.3l-4.7-1.7c0,0,0,0,0,0
		c0,0,0,0,0,0l-2.1-0.4c0,0-0.1,0-0.1,0l-2.1,0.2c0,0,0,0,0,0c0,0,0,0,0,0l-7.4,1.1l-7.4,1.5l-6.5,1.8L68.5,9.7c0,0,0,0,0,0
		c0,0,0,0,0,0l-0.8-0.4L67.1,9C67.1,9,67,9,67,9h-0.8c-0.1,0-0.1,0-0.2,0l-0.6,0.2c-0.2,0.1-0.3,0.2-0.3,0.3l-5.4,3h0
		c-0.1,0-0.2,0-0.3,0.1L59,13.1c-0.1,0-0.1,0.1-0.1,0.1l-0.4,0.6c0,0-0.1,0.1-0.1,0.2L58,15.4c0,0,0,0,0,0c0,0,0,0,0,0l-0.4,6.7
		l-2.5,1.4l-2.4-1.4c0,0,0,0,0,0c0,0,0,0,0,0l-1-0.4l-0.9-0.2c-0.1,0-0.1,0-0.2,0l-0.8,0.2c-0.1,0-0.2,0.1-0.2,0.1l-0.1,0.1
		l-3.9,2.2c0,0,0,0-0.1,0.1c0,0,0,0,0,0l0,0c0,0,0,0,0,0c0,0-0.1,0-0.1,0c0,0-0.1,0-0.1,0c0,0,0,0,0,0l-13.5,7.9l-0.5,0.1
		c-0.1,0-0.2,0.1-0.2,0.1l-0.6,0.6c0,0-0.1,0.1-0.1,0.1l-0.4,0.8l-0.4,0.9c0,0.1,0,0.2,0,0.3l0.4,2.4c0,0.1,0,0.1,0,0.2l0.5,0.9
		l-1.2,3l-0.6,1.7c0,0,0,0,0,0c0,0,0,0,0,0l-5,16.6l-8.7,5l-0.3,0.1l-2.1,1.3l-1.9,1.6l-1.7,1.9L7,72.4l-1.3,2.3l-1.1,2.7l-1,2.7
		l-1.1,6.3l-0.2,3.2l0,3.4l0.2,3.6l1.1,7.4l0.9,3.8l1.1,3.8l1.3,4l1.5,3.8l0.5,1.1l0.1,0.4l0.2,0.6l0.3,0.7l0.2,0.6l0.3,0.7l0.2,0.6
		l0.4,0.8l0.3,0.5l0.2,0.7c0,0.1,0,0.1,0.1,0.2l0.3,0.5l0.3,0.7l0.2,0.6c0,0,0,0.1,0.1,0.1l0.3,0.5l0.4,0.8l0.7,1.1l0.4,0.8l1.1,1.6
		l0.4,0.8c0,0,0.1,0.1,0.1,0.1l0.5,0.5l1.2,1.8l0.5,0.5l0.4,0.6l0.1,0.1l0.2,0.4l2.5,3.2l2.7,3.2l2.8,2.8l2.7,2.9l3,2.7l2.9,2.3
		l3,2.1l2.8,1.9c0,0,0,0,0,0c0,0,0,0,0,0l3,1.5l3,1.3l2.9,1.1l2.9,0.8l2.9,0.4l2.9,0.2l2.7-0.2l2.5-0.4l2.3-0.8l2.3-1l0.8-0.5
		l15.7-9c0.1,0,0.1,0,0.2,0l1.2-0.7l1.6,0l0.1,0.3c0,0,0,0.1,0.1,0.1l0.4,0.6c0,0.1,0.1,0.1,0.1,0.1l0.6,0.4l0.8,0.4
		c0,0,0.1,0,0.1,0l1.9,0.4c0,0,0.1,0,0.1,0c0,0,0.1,0,0.1,0l0.9-0.2l5.7,3.5c0,0,0,0,0,0c0,0,0,0,0,0c0.1,0,0.1,0.1,0.2,0.1
		c0,0,0,0,0,0c0,0,0,0,0,0c0,0,0,0,0,0s0,0,0,0c0,0,0,0,0,0c0,0,0,0,0,0c0.1,0,0.2,0,0.2-0.1c0,0,0,0,0,0c0,0,0,0,0,0l11.1-6.4v2.9
		c0,0,0,0,0,0.1c0,0,0,0.1,0,0.1c0,0,0,0.1,0,0.1c0,0,0,0.1,0.1,0.1c0,0,0,0,0.1,0.1c0,0,0,0,0,0l12.6,7.3c0,0,0,0,0,0c0,0,0,0,0,0
		l1.9,1l1.7,0.6c0,0,0.1,0,0.1,0l1.8,0.2h1.5c0,0,0.1,0,0.1,0l1.5-0.4c0.1,0,0.1,0,0.2-0.1l0.5-0.4c0,0,0,0,0,0l9.4-5.5c0,0,0,0,0,0
		c0,0,0,0,0,0l0.6-0.4l1.1-0.9c0,0,0.1-0.1,0.1-0.1l0.8-1.4l0.6-1.7l0.4-1.8l0.2-2.1c0,0,0,0,0,0c0,0,0,0,0,0v-9.8l0.9-0.5
		c0,0,0,0,0,0c0,0,0,0,0,0l0.6-0.4c0.1,0,0.1-0.1,0.1-0.1l0.4-0.6c0,0,0.1-0.1,0.1-0.2l0.2-0.8c0,0,0-0.1,0-0.1v-0.8v-1l1.5-3.1
		l1.1-3.3l1.5-7.4l0.4-4l0.2-4.2l0-4.2l-0.1-1.1l0.4-0.9l1.3-3l1.9-4l3.2-7.6l1.1-3.2l1-2.5l0.7-2.2l1.3-3.4l0.3-0.9l11.7-6.8v0.2
		v0.2v0.4c0,0.1,0,0.1,0,0.2l0.4,1.2l1.1,2.3c0,0,0,0.1,0.1,0.1l0.8,0.9c0,0,0,0.1,0.1,0.1l1.9,1.5c0,0,0.1,0.1,0.2,0.1l1.1,0.4
		c0.1,0,0.1,0,0.2,0l0.9,0l0.9-0.2c0,0,0.1,0,0.1,0l0.8-0.4c0.1,0,0.2-0.1,0.2-0.2l0.8-1.5c0,0,0-0.1,0-0.1l0.2-0.8
		c0-0.1,0-0.1,0-0.2l-0.2-1.2l-0.8-2.3c0,0,0-0.1-0.1-0.1l-0.7-1v0c0,0,0,0,0-0.1c0,0,0-0.1,0-0.1c0,0,0-0.1,0-0.1c0,0,0,0,0-0.1
		l-2-2.5l8.1-4.7c0,0,0,0,0,0c0,0,0,0,0,0c0.1,0,0.1-0.1,0.2-0.2c0,0,0,0,0,0l0.2-0.4c0-0.1,0.1-0.1,0.1-0.2v-1.3
		C190.2,62.2,190.2,62.1,190.2,62.1z M186.1,40.9l0.7,2.8l0.6,2.8l0.2,2.8l0,2.4l-0.2,2.4l-0.6,2l-0.7,2l-0.7,1.2l-0.1,0.2l-0.1,0.2
		l-1.2,1.2l-9.2,5.4c0,0,0,0,0,0c0,0,0,0,0,0l-0.5,0.3l-0.4,0.2c0,0-0.1,0.1-0.1,0.1l-0.3,0.3l-0.3,0.2c0,0,0,0,0,0s0,0,0,0
		l-6.7,3.9l1.3-4.5c0-0.2,0-0.3-0.1-0.4l0.3-1.2L168,62l-0.4-3.6l-0.8-3.8l-1.1-3.8l-1.5-4l-2.1-3.6l-2-3.1l19.7-11.4l0.1,0.1
		c0,0.1,0,0.2,0.1,0.2l-0.8,0.4c0,0,0,0,0,0c0,0,0,0,0,0l-1.8,1.1c-0.1,0-0.2,0-0.2,0.1c-0.1,0-0.1,0.1-0.2,0.2l-1.6,0.9
		c-0.1,0-0.1,0-0.2,0.1c0,0,0,0-0.1,0.1l-4,2.3c0,0,0,0,0,0c0,0,0,0-0.1,0c0,0,0,0,0,0c0,0,0,0,0,0c0,0,0,0,0,0.1c0,0,0,0,0,0
		c0,0,0,0.1,0,0.1c0,0,0,0,0,0c0,0,0,0,0,0c0,0,0,0,0,0c0,0,0,0.1,0,0.1c0,0,0,0.1,0,0.1c0,0,0,0.1,0,0.1c0,0,0,0,0,0c0,0,0,0,0,0
		c0,0,0,0,0,0.1l0.5,0.5l0.4,0.8l0.5,0.7l1.1,2.2L174,40c0,0,0,0.1,0.1,0.1l0.6,0.8c0,0,0.1,0.1,0.1,0.1c0,0,0,0,0.1,0.1
		c0.1,0,0.2,0.1,0.2,0.1c0.1,0,0.2,0,0.3-0.1l6.4-3.8c0,0,0.1,0,0.1,0c0,0,0,0,0,0l2.3-1.3l1.1,2.3L186.1,40.9z M175.2,39.9
		l-0.3-0.3l-0.4-0.9l-1.2-2.3l-0.5-0.7l-0.4-0.8c0,0-0.1-0.1-0.1-0.1l-0.1-0.1l3.2-1.9l1,1.3l2.5,3.5L175.2,39.9z M178.7,25.4
		l-21.2,12.2l-3-1.4l-2.3-0.8L178.7,20V25.4z M178.8,26.5C178.8,26.6,178.8,26.6,178.8,26.5l0.1,0.3c0,0.1,0.1,0.3,0.1,0.4l0.1,0.1
		l0.1,0.2v0.3c0,0,0,0,0,0l-19.8,11.4l-0.9-0.9l-0.1-0.1L178.8,26.5z M178.4,33.3l2.3,3.3l-0.8,0.5l-2.6-3.6l-0.9-1.2l1-0.6
		L178.4,33.3z M175.2,18.1l2.4-1.4l0,0l0.2,0.3c0,0,0.1,0.1,0.1,0.1l0.3,0.3l0.3,0.6v0.3c0,0.1,0,0.2,0.1,0.2l0.1,0.2l-27.8,16.1
		l-0.9-0.5l-0.9-0.4l-0.4-0.3l-0.7-0.7l26-14.9c0,0,0.1,0,0.1,0l0,0c0,0,0.1,0,0.1,0.1c0,0,0,0,0.1,0c0.1,0,0.1,0.1,0.2,0.1
		c0,0,0,0,0,0c0,0,0,0,0,0c0,0,0,0,0,0c0.1,0,0.2,0,0.2-0.1c0,0,0,0,0,0l0.2-0.1L175.2,18.1z M170.9,16.5l1.3,0.7c0,0,0,0,0,0
		c0.1,0.1,0.2,0.1,0.3,0.1l0.5,0.3l-25.8,14.8l-1.3-1.6L170.9,16.5z M164.7,6.2l0.3-0.2l0.6-0.1l0.7,0.1c0.1,0.2,0.3,0.3,0.4,0.3
		c0,0,0.1,0,0.1,0l1.6,1l0.7,0.7l1.3,1.6l0.3,0.5l0.8,1.9c0,0,0,0,0,0l0.3,2l-27.8,15.9l-1.8-0.3l-2.4-0.8l-2.2-0.7l-2.6-0.9
		l-1.3-0.6l-1.8-0.9l-0.3-0.4l0,0l29.8-17.2l0.3-0.2L164.7,6.2z M130.1,24.3l0.8,0.2l0,0c0,0,0,0,0,0c0,0,0,0-0.1,0l-0.2,0.2
		c-0.2,0.2-0.2,0.4-0.1,0.6l0.2,0.4l0.4,0.6l-2.9-2.3L130.1,24.3z M88.3,16.4l7.3-1.5l7.3-1.1l2-0.2l2,0.4l4.6,1.7l4.9,2.2l5.1,2.8
		l4.1,2.8c0.1,0.2,0.2,0.3,0.4,0.3l0.1,0l0.9,0.6l5.6,4.5l1.2,1.4l0.7,1.6l0.7,6l0.9,6l0.6,5.2l-8.9-5.2c0,0,0,0-0.1,0
		c0,0-0.1,0-0.1,0c0,0-0.1,0-0.1,0c0,0-0.1,0-0.1,0c0,0-0.1,0-0.1,0c0,0,0,0-0.1,0l-5.8,3.6c0,0,0,0,0,0c0,0,0,0,0,0c0,0,0,0,0,0
		c0,0,0,0,0,0c0,0,0,0,0,0.1c0,0,0,0,0,0c0,0,0,0,0,0c0,0,0,0,0,0.1c0,0,0,0,0,0.1c0,0,0,0,0,0.1c0,0,0,0,0,0.1c0,0,0,0,0,0.1
		c0,0,0,0,0,0c0,0,0,0,0,0.1c0,0,0,0,0,0c0,0,0,0,0,0c0,0,0,0,0,0c0,0,0,0,0,0l3.2,3.4l3,3.8l4.2,5.4l-5,2.9l-4.8-6.3l-5.5-6.2
		l-6.2-6.1l-6.6-5.5l-6.8-4.7l-7-3.8l-6.5-2.7l-6.1-1.7l-5.6-0.9c0,0-0.1,0-0.1,0L66.3,26l-1.8,0.3l3.4-2l2.7-0.5l3.1-0.4l5.3,0.2
		c0,0,0,0,0,0c0,0,0,0,0,0c0,0,0,0,0,0s0,0,0,0c0,0,0,0,0,0c0,0,0.1,0,0.1,0c0,0,0,0,0,0c0,0,0.1,0,0.1,0c0,0,0,0,0,0l5.8-3.4l0,0
		l0,0c0.1,0,0.1-0.1,0.2-0.2c0,0,0,0,0,0c0,0,0,0,0-0.1c0,0,0-0.1,0-0.1c0,0,0-0.1,0-0.1c0,0,0-0.1,0-0.1c0,0,0-0.1,0-0.1
		c0,0,0,0,0-0.1c0,0,0,0,0,0c0,0,0-0.1-0.1-0.1c0,0,0,0-0.1-0.1c0,0,0,0,0,0l-2.3-1.3L88.3,16.4z M148.8,83.6l-0.3,0.8L148,85
		l-2.5,1.5l0.1-0.2c0-0.1,0-0.1,0-0.2l0-1.2l-0.2-1.1c0,0,0-0.1,0-0.1l-0.6-1.3l-0.6-1.2l-0.8-1.2l-1-1l-0.4-0.3l3.2-1.9l0.6,0.5
		l0.9,0.9l0.7,1.1l0.6,1.1l0.5,1.3l0.2,1.2V83.6z M136.1,143.1c-0.1,0-0.1,0.1-0.2,0.1l-6.4,3.6l0.1-0.3c0-0.1,0-0.1,0-0.2v-0.3
		l13.2-7.6l-0.2,0.4l-0.2,0.5l-0.4,0.4L136.1,143.1z M128.1,147.7l0.2-0.4l0,0L128.1,147.7L128.1,147.7L128.1,147.7z M134.3,118.7
		l-0.4-4.4l-0.6-4.5l-0.8-4.6l-2.2-8.9l13.2-7.8l1.1,4.1l1.1,4.5l0.8,4.7l0.6,4.3l0.4,8.6l-0.2,4.1l-0.4,3.7l-0.7,3.7l-0.9,3.5
		l-1.1,3.3l-1.3,2.9l-12.8,7.4l0.8-1.8l1.1-3.3l1.5-7.4l0.4-4l0.2-4L134.3,118.7z M34.3,33.8l13.9-8l2,1.3l-0.7,0.4c0,0,0,0,0,0
		c0,0,0,0-0.1,0c0,0,0,0,0,0c0,0,0,0,0,0.1c0,0,0,0,0,0c0,0,0,0,0,0c0,0,0,0,0,0.1c0,0,0,0,0,0.1c0,0,0,0.1,0,0.1c0,0,0,0,0,0
		c0,0,0,0,0,0c0,0,0,0,0,0.1c0,0,0,0.1,0,0.1c0,0,0,0,0,0.1c0,0,0,0,0,0c0,0,0,0,0,0c0,0,0,0.1,0.1,0.1c0,0,0,0,0.1,0.1c0,0,0,0,0,0
		c0,0,0,0,0,0c0,0,0,0,0,0l2.3,1.4L38.5,45.9l-7.6,9.3l0.4-4.2l0.7-5.8L34.3,33.8z M55.3,24.7C55.3,24.6,55.3,24.6,55.3,24.7
		l2.8-1.6l1.6,0.9l-4.5,2.6c0,0,0,0,0,0c0,0,0,0,0,0c0,0,0,0,0,0l0,0L54.6,27c0,0,0,0,0,0c0,0,0,0,0,0l-0.1,0.1l0,0
		c-0.1-0.1-0.2-0.2-0.3-0.3l-0.5-0.2l-1-0.6L55.3,24.7z M59.3,14.2l0.3-0.4l0.1-0.1c0,0,0.1,0,0.1,0l0.2-0.1h1.5l0.6,0.3L77,22.5
		l-3.4-0.1l-3.2,0.4l-2.8,0.6c0,0,0,0,0,0c0,0,0,0,0,0l-0.7,0.2h-0.7c0,0-0.1,0-0.1,0l-0.7,0.2h-0.6l-0.7-0.2c0,0-0.1,0-0.1,0h-0.9
		l-1.6-0.4l0,0l0,0c0,0,0,0-0.1,0c0,0-0.1,0-0.1,0c0,0-0.1,0-0.1,0c0,0,0,0-0.1,0l-0.4,0.2l-2.1-1.2l0.4-6.6L59.3,14.2z M68.3,10.7
		l12.8,7.4c0.1,0.1,0.2,0.2,0.4,0.2c0,0,0,0,0,0l2.4,1.4L79,22.5l-15.6-9L68.3,10.7z M138.1,57.8l1.4,1.1l1.2,1.6l0.7,1.7l0.4,1.7
		l0.5,6.6l-1.6-0.9c-0.1-0.1-0.2-0.2-0.3-0.2l-0.8-1.5c0,0,0,0,0,0c0,0,0,0,0,0c0,0,0,0,0,0c0,0,0,0,0-0.1l-0.8-0.8l-0.9-0.7
		l-0.7-0.9c0,0,0-0.1-0.1-0.1l-0.9-0.7l-1.4-1.8l-0.8-1.2l-0.8-0.9c0,0,0,0,0,0l-4.5-5.8l-3-3.8l-0.9-0.9L138.1,57.8z M131.1,93.4
		l-0.2-1.3c0-0.1,0-0.1,0-0.2l-0.6-1.1l-0.6-1.4l-0.8-1.2l-0.9-0.9c0,0-0.1-0.1-0.1-0.1l-0.2-0.1l13.3-7.7l0.6,0.5l0.9,0.9l0.7,0.9
		l0.5,1.2l0.4,1.1l0.3,1.2l-0.3,1.8l-0.4,0.4L131,94.9l0.1-0.3c0-0.1,0-0.1,0-0.2L131.1,93.4z M138.9,68.8l0.5,0.8l-5,2.9l-0.5-0.8
		L138.9,68.8z M134.3,75c0,0-0.1,0.1-0.1,0.1l-0.2,0.2l-0.1-0.4c0,0,0-0.1-0.1-0.1l-0.4-0.5l0.5,0.1l0.2,0.1l0.3,0.4L134.3,75z
		 M134.9,75.8l0.3-0.2c0.1,0,0.1-0.1,0.1-0.1l0.6,0.4V77l-1.4-0.8L134.9,75.8z M136.9,76.8l0.2,0.2l-0.2,0.1V76.8z M136.4,74.5
		l-1.6-0.8l-0.2-0.1c0.1-0.1,0.2-0.1,0.2-0.2l5.2-3l1.8,1L136.4,74.5z M132.6,61.6l0.5,0.6l0.8,1.2l1.5,1.9c0,0,0,0.1,0.1,0.1
		l0.9,0.7l0.7,0.9c0,0,0,0.1,0.1,0.1l0.9,0.7l0.3,0.3l-5.2,3l-5.5,0.4l-2.8-0.2l-2.9-0.6l-1.9-1l-0.6-0.5l7.7-4.4c0,0,0,0,0,0
		c0,0,0,0,0,0L132.6,61.6z M118.7,68.4l-4.9-5.2l-5.7-4.9l-5.9-4.5L96,49.2l-6.4-4.2l-6-3.6l-6-3.4l-5.5-2.8L66.9,33l-4.8-1.3
		l-4.3-0.6c0,0-0.1,0-0.1,0L56,31.2l6-3.5l4.4-0.7l5.2-0.2l5.5,0.9l6,1.7l6.4,2.6l6.9,3.7l6.7,4.7l6.6,5.4l6.2,6l5.4,6.2l4.7,6.1
		L118.7,68.4z M53.5,27.8L53.5,27.8l0.1,0.1l0,0.1l-0.1,0.1V27.8z M51.2,28l0.4-0.2c0,0,0.1-0.1,0.1-0.1l0.2-0.2
		c0.1-0.1,0.1-0.1,0.1-0.2l0.5,0.3v1l-0.1,0.1L51.2,28C51.1,28.1,51.1,28.1,51.2,28z M61.6,26.8C61.6,26.8,61.6,26.8,61.6,26.8
		l-8,4.6h-0.1v-0.1l0.7-1.5l1.3-1.9l0.3-0.5l5-2.9c0.1,0,0.2-0.1,0.3-0.2l0.3-0.2l1.5,0.3c0,0,0.1,0,0.1,0h0.9l0.7,0.2
		c0,0,0.1,0,0.1,0h0.5L61.6,26.8z M39.3,46.6l13.5-16.7l0.1-0.1l0.3-0.2L52.6,31c0,0.1,0,0.1,0,0.2v0.8c0,0.3,0.2,0.5,0.5,0.5h0.8h0
		H54c0.1,0,0.1,0,0.1,0l3.6-0.3l4.2,0.5l4.6,1.3l5.1,2.2l5.4,2.8l6,3.4l6,3.6l6.4,4.1l6.2,4.5l5.8,4.5l5.6,4.9l5.1,5.5c0,0,0,0,0,0
		c0,0,0,0,0,0l1.2,1l2.1,1.1c0,0,0.1,0,0.1,0.1l3.1,0.6l2.9,0.2L133,72l0.5,0.9l-0.6,0.2c0,0,0,0,0,0l-0.6,0.2c0,0,0,0-0.1,0
		c0,0,0,0-0.1,0c0,0,0,0,0,0c0,0,0,0-0.1,0.1c0,0,0,0-0.1,0.1c0,0,0,0.1,0,0.1c0,0,0,0.1,0,0.1c0,0,0,0.1,0,0.1c0,0,0,0.1,0,0.1
		c0,0,0,0,0,0c0,0,0,0,0,0.1c0,0,0,0,0,0.1l0.9,1.3l0.2,0.5L86.4,88.6l-4.3-6.9l-2.5-3.4l-2.5-3.2l-2.8-3l-2.7-3l-2.9-2.7l-5.9-4.7
		l-3-1.9l-3-1.7l-2.9-1.5l-3-1.1l-2.9-1l-2.9-0.6l-2.9-0.4l-2.7,0l-2.7,0.4l-2.5,0.6l-2.2,0.7L39.3,46.6z M133.5,76.7l2.6,1.6
		c0,0,0,0,0,0c0.1,0,0.2,0.1,0.2,0.1c0,0,0,0,0,0c0,0,0,0,0,0c0,0,0,0,0,0s0,0,0,0c0,0,0,0,0,0c0,0,0,0,0,0c0.1,0,0.1,0,0.2,0
		c0,0,0,0,0,0l1.3-0.6l2,1.1l-13.5,7.8l-20,1.3l-16,0.6L133.5,76.7z M128.1,88.9l0.7,1l0.6,1.3l0.5,1.1l0.2,1.2v0.8l-0.2,0.4
		l-1.9-5.7l-0.3-0.7L128.1,88.9z M141.1,78.1l-2.9-1.7l3.2-1.8l2.9,1.7L141.1,78.1z M141.3,73.4c-0.2,0-0.3,0.1-0.4,0.2l-3.4,2
		c0-0.1-0.1-0.3-0.1-0.4l-0.1-0.1l5.8-3.4l0,0c0,0,0,0,0,0c0,0,0,0,0,0c0,0,0.1,0,0.1-0.1c0,0,0,0,0-0.1c0,0,0,0,0,0c0,0,0,0,0,0
		c0,0,0,0,0-0.1c0,0,0,0,0-0.1c0,0,0-0.1,0-0.1c0,0,0,0,0,0l-0.5-7.2l4.9-2.8l0.5,8.3L141.3,73.4z M147.6,60.1l-5,2.9l-0.2-1.1
		l-0.8-1.9c0,0,0-0.1-0.1-0.1l-1.3-1.7c0,0-0.1-0.1-0.1-0.1l-0.9-0.7l5.1-2.9l0.4,0.3l1.3,1.3l0.5,0.8l1.1,2.7V60.1z M138.3,56.8
		l-15.4-8.9l4.9-3l9.3,5.4c0.1,0.2,0.2,0.4,0.5,0.4c0,0,0,0,0.1,0c0,0,0,0,0.1,0l5.7,3.3L138.3,56.8z M65.9,10.3
		C65.9,10.3,65.9,10.3,65.9,10.3C65.9,10.3,65.9,10.3,65.9,10.3c0.1-0.1,0.2-0.2,0.2-0.2c0,0,0,0,0,0l0.2-0.1h0.6l0.3,0.1l-4.8,2.8
		l-0.5-0.3c0,0-0.1,0-0.1,0L65.9,10.3z M51.5,25.7C51.5,25.7,51.4,25.7,51.5,25.7C51.4,25.7,51.4,25.7,51.5,25.7
		c-0.1,0.1-0.1,0.1-0.1,0.1c0,0,0,0,0,0c0,0,0,0,0,0c0,0,0,0,0,0c0,0,0,0,0,0.1c0,0,0,0,0,0c0,0,0,0,0,0.1c0,0,0,0,0,0v0.2l-1.9-1.1
		l3.2-1.9l1.6,0.9L51.5,25.7z M49.9,22.9C49.9,22.9,49.9,22.9,49.9,22.9c0.1-0.1,0.1-0.1,0.1-0.1l0.1-0.1l0.5-0.1l0.7,0.1l-3,1.8
		l-0.6-0.4L49.9,22.9z M45.4,25.5L45.4,25.5L45.4,25.5C45.5,25.5,45.5,25.5,45.4,25.5c0.1,0,0.1,0,0.2,0l0.7-0.2h0.6l-13.1,7.6
		l-0.6-0.2L45.4,25.5z M30.7,34.6l0.3-0.7l0.2-0.2c0.1,0,0.2,0,0.2-0.1l0.5-0.3l0,0l0.7,0.1l0.4,0.2L33,33.9l-0.4,0.6l-0.3,0.7
		l-0.5,0.5c0,0-0.1,0.1-0.1,0.1l-0.8,1.6l-0.1,0.3l-0.1-0.1l-0.3-2.2L30.7,34.6z M29.4,43.9C29.4,43.9,29.4,43.9,29.4,43.9l0.5-1.7
		l1.3-3.2l0.4-0.8l0.2-0.5l0.7-1.4l0.3-0.3L31.1,45l-0.8,5.9l-0.5,5.7l-5.1,2.9L29.4,43.9z M18.2,135.4l-1.2-1.8l-0.5-0.5l-0.4-0.7
		l-1.1-1.6l-0.4-0.8l-0.7-1.1l-0.4-0.8l-0.3-0.5L13,127l-0.4-0.8l-0.3-0.5l-0.2-0.7c0-0.1,0-0.1-0.1-0.2l-0.3-0.5l-0.3-0.7l-0.2-0.6
		l-0.4-0.7l-0.2-0.6l-0.1-0.3c0-0.1,0-0.2,0-0.2l-0.4-1L9.6,119c0-0.1,0-0.1-0.1-0.2l-0.3-0.5l-1.7-6.3v-0.5c0,0,0-0.1,0-0.1
		L7,109.3v-0.7c0-0.1,0-0.1,0-0.2l-0.2-0.5v-0.7c0,0,0-0.1,0-0.1l-0.2-0.7V105c0-0.1,0-0.1,0-0.2l-0.2-0.5v-4.2v-3.7l0.2-0.7
		c0,0,0-0.1,0-0.1v-1.4l0.2-0.7c0,0,0-0.1,0-0.1v-0.5L7,92.1c0,0,0-0.1,0-0.1v-0.7l0.2-0.7c0,0,0-0.1,0-0.1c0.1-0.1,0.2-0.2,0.2-0.4
		l0-0.5l0.1-0.9l0.3-0.9c0,0,0-0.1,0-0.1V87l1.1-4l0.3-0.5c0,0,0,0,0,0c0,0,0-0.1,0-0.1c0,0,0-0.1,0-0.1c0,0,0,0,0,0l0.9-2.4
		l1.1-2.2l1.5-2.1l1.5-1.8l1.8-1.5l1-0.7l1.3-0.7l2-0.7l2.4-0.6l2.4-0.4l2.4,0.2l2.6,0.4l2.8,0.5l2.6,0.9l2.8,1.1l2.8,1.5l3,1.8
		l5.4,4.3l2.8,2.4l2.6,2.6l4.9,6l2.4,3.2l4.1,6.8l1.9,3.6l1.7,3.5l1.5,3.7l2.3,7.1l0.9,3.7l0.6,3.6l0.4,3.4l0.2,3.4l0,3.1l-0.7,6
		l-0.7,2.7l-1.1,2.4l-1.1,2.2l-1.3,2l-1.7,1.8l-1.7,1.5l-1.2,0.9c-0.1,0-0.2,0-0.3,0.1l-0.9,0.5l-2.2,0.7l-2.2,0.6l-2.4,0.2l-2.6,0
		l-2.6-0.4l-0.8-0.2c-0.1,0-0.2,0-0.2,0c0,0-0.1,0-0.1,0l-5.6-1.5l-0.5-0.3c0,0-0.1-0.1-0.2-0.1l-1-0.3l-0.2-0.1c-0.1,0-0.2,0-0.3,0
		l-0.5-0.1l-0.8-0.4l-0.5-0.2l-0.8-0.4l-0.5-0.2l-0.7-0.3l-0.6-0.4c0,0-0.1-0.1-0.2-0.1l-0.7-0.2l-0.5-0.4l-0.8-0.4l-0.5-0.2
		l-0.6-0.4l-0.7-0.3l-1.2-0.8l-0.7-0.3l-1.7-1.2l-0.7-0.3l-0.6-0.6l-1.6-1.1l-0.6-0.6l-0.5-0.4l-0.6-0.6l-1.1-0.7l-1.2-1.2l-0.5-0.3
		l-0.3-0.5c0-0.1-0.1-0.1-0.1-0.1l-0.5-0.3l-1.1-1.1l-0.4-0.6c0-0.1-0.1-0.1-0.1-0.1l-0.5-0.3l-0.4-0.6l-1.1-1.1l-0.8-1.2l-0.4-0.4
		l-0.1,0l-0.1-0.1l-0.4-0.6L18.2,135.4z M65.9,161.8l-2.2,0.7l-2.4,0.4l-2.6,0.2l-2.8-0.2l-2.8-0.4l-2.8-0.7l-2.8-1.1l-3-1.3l-3-1.5
		l-5.8-3.9l-2.8-2.2l-3-2.6l-2.6-2.8l-0.6-0.6l0.3,0.2l0.6,0.6c0,0,0,0,0.1,0.1l0.5,0.3l0.6,0.6l1.6,1.1L31,149c0,0,0.1,0.1,0.1,0.1
		l0.7,0.3l1.7,1.2l0.7,0.3l1.2,0.8l0.7,0.3l0.6,0.4c0,0,0.1,0,0.1,0.1l0.5,0.2l0.7,0.3l0.6,0.4c0,0,0.1,0.1,0.2,0.1l0.7,0.2L40,154
		l0.8,0.4l0.5,0.2l0.8,0.4l0.5,0.2l0.8,0.4l0.9,0.2l4,1.7l2.8,0.8l2.7,0.6l2.7,0.2H59c0,0,0.1,0,0.1,0l2.5-0.6l2.3-0.6l2.2-1
		l1.9-1.4l1.7-1.5l1.7-1.9l1.3-2.1l1.1-2.3l1.2-2.5l0.8-2.9l0.8-6.1l0-3.2l-0.2-3.4l-0.4-3.4l-0.6-3.6l-0.9-3.8l-2.3-7.2l-1.5-3.8
		l-1.7-3.6l-1.9-3.6L63,93.6l-2.5-3.2l-4.9-6.1L53,81.6l-2.8-2.5l-5.5-4.4l-3-1.9c0,0,0,0,0,0c0,0,0,0,0,0l-2.9-1.5l-2.8-1.1l-2.7-1
		l-2.9-0.6l-2.7-0.4l-2.4-0.2c0,0-0.1,0-0.1,0l-2.5,0.4l-2.5,0.6l-2.1,0.8L17,70.4c-0.1,0-0.2,0-0.2,0.1l-0.3,0.2l-0.6,0.4l-1.9,1.4
		l-1.7,1.8l-1.5,2.1l-1.1,2.1l-1.1,2.5l-1,2.7l-0.6,2.9l-0.3,2.2L6.4,89l-0.2,0.6c0,0.1,0,0.1,0,0.2v0.7L6,91.1c0,0,0,0.1,0,0.1v0.7
		l-0.2,0.7c0,0,0,0.1,0,0.1v0.5L5.6,94c0,0,0,0.1,0,0.1v1.4l-0.2,0.7c0,0,0,0.1,0,0.1v3.8v4.3c0,0.1,0,0.1,0,0.2l0.2,0.5v1.4
		c0,0,0,0.1,0,0.1l0.2,0.7v0.7c0,0.1,0,0.1,0,0.2l0.2,0.5v0.6l-0.5-1.7l-0.9-3.7l-1.1-7.3l-0.2-3.6l0-3.4l0.2-3.1l1.1-6.1l0.9-2.6
		l1.1-2.6l1.3-2.2l1.5-2L11,69l1.8-1.5l1.4-0.9c0,0,0,0,0.1,0l0.9-0.5l1.9-0.8l2.2-0.7l2.4-0.4l2.6-0.2l2.8,0.2l2.6,0.6l3,0.7
		l2.8,0.9l3,1.3l2.8,1.5l3,1.9l3,2l5.6,4.9l2.8,2.8l2.8,3l2.6,3l2.4,3.4l2.3,3.4l2.2,3.6l2.1,3.6l1.9,3.7l1.7,3.7l1.5,3.9l1.3,3.7
		l1.1,3.7l0.9,3.7l1.1,7.3l0.2,3.6l0,3.4l-0.2,3.3l-1.1,6l-0.9,2.8l-1.1,2.4l-1.3,2.2l-1.5,2l-1.6,1.8l-1.8,1.5l-1.1,0.7l-0.3,0.2
		c0,0-0.1,0.1-0.1,0.1l-0.4,0.3L65.9,161.8z M74.3,156.9l1.5-2.1l1.3-2.3l1.2-2.5l1-2.9l1.1-6.1l0.2-3.4l0-3.4l-0.2-3.6l-1.1-7.4
		l-0.9-3.8l-1.1-3.8l-1.3-3.8l-1.5-4l-1.7-3.8l-1.9-3.8l-2.1-3.6L66.4,93l-2.3-3.4l-2.5-3.4l-2.6-3l-2.8-3l-2.9-2.8l-5.7-4.9l-3-2.1
		l-3-1.9l-2.9-1.5l-3.1-1.3l-2.9-1l-3-0.8l-2.7-0.6l-2.9-0.2l-2.7,0.2l-1.8,0.3l10.6-6.1c0.1,0,0.3-0.1,0.3-0.2L31,57c0,0,0,0,0,0
		c0,0,0,0,0,0l1.5-0.9l2.2-0.7l2.4-0.6l2.6-0.4l2.6,0l2.8,0.4l2.8,0.5l2.8,0.9l3,1.1l2.8,1.5l3,1.7l3,1.8l5.8,4.7l2.8,2.6l2.6,3
		l2.8,3l2.4,3.2l2.4,3.4l4.5,7.1l3.7,7.5l1.7,3.9l1.3,3.8l1.3,3.9l0.9,3.9l0.7,3.7l0.6,3.7l0.4,7.1l-0.2,3.9l-0.6,3.7l-0.9,3.5
		l-1.3,3.2l-1.5,2.9l-1.9,2.4l-2,2.2l-2.3,1.7l-0.5,0.4l-11.6,6.6L74.3,156.9z M88.8,149.6l2.1-2.3l1.9-2.5l1.5-3l1.3-3.3l1-3.6
		l0.6-3.8l0.2-4c0,0,0,0,0,0c0,0,0,0,0,0l-0.4-7.2l-0.6-3.8l-0.8-3.8l-1-4l-1.3-4l-1.3-3.8l-1.7-4L87,89.6l19.6-0.7l19.8-1.3
		l0.3,0.8l0.5,1.1l2.3,6.8l2.2,9.2l0.8,4.5l0.6,4.5l0.4,4.3l0,4.3l-0.2,3.9l-0.4,3.9l-1.5,7.3l-1.1,3.2l-1.5,3.2c0,0,0,0,0,0
		l-0.2,0.4l-0.2,0.5l-1.7,2.8l-2.5,0.3h-0.6c0,0,0,0,0,0c0,0,0,0,0,0l-12.1,0.9c-0.1-0.1-0.2-0.1-0.3-0.1c-0.1,0-0.3,0.1-0.4,0.1
		l-5.9,0.4l-5.5,0.2c0,0-0.1,0-0.2,0c-0.1,0-0.1,0-0.2,0l-3.6,0.1l-1.9,0c-0.1,0-0.1,0-0.2,0c-0.1,0-0.1,0-0.2,0l-4.4,0.1
		c-0.1-0.1-0.2-0.1-0.3-0.1c-0.1,0-0.3,0.1-0.4,0.2l-0.4,0L88.8,149.6z M92.2,152.7l-1.7-0.3l-0.6-0.3l-0.5-0.3l-0.2-0.3l3.7-0.1
		v1.3L92.2,152.7z M93.8,151.3l1.6,0l3.2-0.1v4.6l-4.8-3V151.3z M99.7,155.7v-4.6l5.2-0.2l3.7-0.3L99.7,155.7z M130.4,162.1l-1.4,0
		l-1.6-0.2l-1.6-0.5l-1.9-0.9c0,0,0,0,0,0l-12.4-7.2v-2.9l12-0.8l0.6,0l2.8-0.4c0,0,0,0,0,0c0,0,0,0,0.1,0l0.5-0.2h0.3
		c0.1,0,0.2,0,0.2-0.1l0.4-0.2c0,0,0.1-0.1,0.1-0.1l0.2-0.2l7-4v9.3l-0.2,2l-0.4,1.6l-0.5,1.4l-0.8,1.2l-1.1,1.1l-1.1,0.7
		L130.4,162.1z M144.8,150.3l-0.4,1.6l-0.5,1.6l-0.7,1.2l-1,0.9l-0.5,0.4l-6.3,3.7l0.2-0.3c0,0,0-0.1,0.1-0.1l0.6-1.6l0.4-1.8
		l0.2-1.8l8.2-4.8L144.8,150.3z M145,148l-8.2,4.9v-9l5.8-3.3c0,0,0,0,0.1,0c0,0,0,0,0.1,0l0.1-0.1l2.2-1.3V148z M147.1,136.4
		l-0.3,0.4l-0.5,0.3l-2.3,1.3l0,0c0,0,0-0.1,0-0.1v-0.6l3.1-1.7L147.1,136.4z M151.8,116.2l-0.4,3.9l-1.5,7.3l-1.1,3.2l-1.4,3.1
		l-2.6,1.4l0.8-1.7l1.1-3.4l1.5-7.2l0.4-4l0.2-4.2l0-4.2l-0.4-4.3l-0.6-4.5l-0.8-4.6l-2.2-8.9l3.1-1.9l1.1,4.1l1.1,4.5l0.8,4.5
		l0.6,4.5l0.3,2.9l0,0c-0.1,0.2-0.1,0.4,0.1,0.5l0.1,0.8l0,4.1L151.8,116.2z M162.9,79.8l-1.3,3.4l-0.7,2.2l-0.9,2.5l-1.1,3.2
		l-3.2,7.5l-1.9,4l-1,2.3l-0.1-1.2l-0.6-4.5l-0.8-4.6l-1.1-4.5l-1.3-4.5l0.4-0.6c0,0,0-0.1,0.1-0.1l0.4-0.9c0-0.1,0-0.1,0-0.2l0-1
		l-0.2-1.3c0,0,0-0.1,0-0.1l-0.6-1.3l-0.6-1.2l-0.8-1.2l-1-1l-0.9-0.8c0,0,0,0,0,0c0,0,0,0,0,0c0,0,0,0,0,0l-3.1-1.8l6.5-3.7
		c0,0,0,0,0.1,0c0,0,0.1,0,0.1-0.1c0,0,0-0.1,0-0.1c0,0,0-0.1,0-0.1c0,0,0-0.1,0-0.1c0,0,0,0,0-0.1l-0.6-9.4v-0.7c0-0.1,0-0.1,0-0.2
		l-1.2-2.9l-0.6-0.9c0,0,0-0.1-0.1-0.1l-1.4-1.4l-0.8-0.6c0,0,0,0,0,0c0,0,0,0,0,0l-6.6-3.8l-0.7-6l-0.9-6l-0.8-6c0,0,0,0,0-0.1
		c0,0,0,0,0-0.1l-0.8-1.7c0,0,0-0.1-0.1-0.1l-1.3-1.5c0,0,0,0,0,0c0,0,0,0,0,0l-2-1.6l1.8,0.9l1.3,0.6l2.6,0.9l2.3,0.8l2.5,0.8
		l2.1,0.4c0,0,0,0,0,0c0,0,0,0,0,0l0.9,0.2l1.8,2.3c0,0,0,0,0,0c0,0,0,0,0,0l1.2,1.2l0.6,0.4c0,0,0.1,0,0.1,0l0.9,0.4l1.1,0.6
		c0,0,0,0,0,0c0,0,0,0,0,0l3.3,1.1l3.2,1.5l0.7,0.5l1.1,1.1l2.2,3.5l2,3.5l1.5,3.9l1.1,3.7l0.7,3.7L167,62l-0.2,3.1l-0.4,1.5
		c0,0.1,0,0.3,0.1,0.4l-1.2,4.3l-1.1,4.5l-0.9,2.7c-0.2,0.1-0.3,0.4-0.2,0.6L162.9,79.8z M178,71.2l0.1,1l0,0c0,0-0.1,0.1-0.1,0.1
		l-0.1,0.2l-0.1,0.1h-0.5l-0.4-0.2v-0.6L178,71.2z M181,73.5l0.3,0.5l0.4,0.7l0.4,0.9l0.2,0.7v0.4h-0.2l-0.4-0.1l-0.4-0.3l-0.6-0.7
		l-0.7-0.7l-0.3-0.6l-0.4-0.9l-0.2-0.7v-0.1c0,0,0,0,0,0c0,0,0,0,0,0c0,0,0,0,0,0l-0.1-1.6L181,73.5z M184.4,75.5l0.2,1l-0.1,0.6
		l-0.7,1.3l-0.5,0.3l-0.8,0.2h-0.7l-1-0.3l-1.8-1.4l-0.7-0.9l-1.1-2.1l-0.2-0.5c0,0,0,0,0.1,0h0.8c0.1,0,0.2,0,0.2-0.1l0.2-0.1l0,0
		l0.4,1l0.4,0.8c0,0,0.1,0.1,0.1,0.1l0.7,0.7l0.6,0.8c0,0,0.1,0.1,0.1,0.1l0.6,0.4c0,0,0.1,0,0.1,0.1l0.6,0.2c0.1,0,0.1,0,0.2,0h0.6
		c0.2,0,0.4-0.1,0.4-0.3l0.2-0.4c0-0.1,0.1-0.1,0.1-0.2v-0.6c0,0,0-0.1,0-0.1l-0.2-0.8l-0.4-1l-0.4-0.8l-0.1-0.1l0.5-0.5l0.3-0.2
		c0,0,0,0,0,0l0.1-0.1l0.5,0.8L184.4,75.5z M182.6,71.8L182.6,71.8C182.5,71.8,182.5,71.8,182.6,71.8l-0.4,0.2c0,0-0.1,0.1-0.1,0.1
		l-0.5,0.5l-1.8-2.3l1.1-0.6L182.6,71.8z M179,69.5c-0.1,0-0.2,0-0.3,0.1c-0.1,0-0.1,0.1-0.1,0.2l-0.2,0.1l-0.3,0.2l-13.4,7.8
		l0.6-1.7l0.8-3.3l7.6-4.4l0.4-0.2c0,0,0.1-0.1,0.1-0.1l0.3-0.3l0.9-0.5c0,0,0,0,0,0l0,0l5.7-3.3h0.1c0.2,0,0.4-0.1,0.5-0.3l6.5-3.9
		l0.1,0.1l0.4,0.8l0.3,0.5l0.2,0.7l0.2,0.5v1.1l-0.1,0.1L179,69.5z"/>
</g>
</svg>
