<?xml version="1.0" encoding="utf-8"?>
<!-- Generator: Adobe Illustrator 19.2.1, SVG Export Plug-In . SVG Version: 6.00 Build 0)  -->
<svg version="1.1" id="Matchbox_1_" xmlns="http://www.w3.org/2000/svg" xmlns:xlink="http://www.w3.org/1999/xlink" x="0px"
	 y="0px" viewBox="0 0 278.7 34" style="enable-background:new 0 0 278.7 34;" xml:space="preserve">
<style type="text/css">
	.st0{fill:#88E333;}
	.st1{fill:#999999;}
	.st2{fill:#E5E5E5;}
</style>
<g>
	<rect x="0.5" y="0.5" class="st0" width="23.9" height="9"/>
	<g>
		<path class="st1" d="M23.9,1v8H1V1H23.9 M24.9,0H0v10h24.9V0L24.9,0z"/>
	</g>
</g>
<g>
	<rect x="28.7" y="0.5" class="st0" width="23.9" height="9"/>
	<g>
		<path class="st1" d="M52.1,1v8H29.2V1H52.1 M53.1,0H28.2v10h24.9V0L53.1,0z"/>
	</g>
</g>
<g>
	<rect x="56.9" y="0.5" class="st0" width="23.9" height="9"/>
	<g>
		<path class="st1" d="M80.3,1v8H57.4V1H80.3 M81.3,0H56.4v10h24.9V0L81.3,0z"/>
	</g>
</g>
<g>
	<rect x="85.1" y="0.5" class="st2" width="23.9" height="9"/>
	<g>
		<path class="st1" d="M108.5,1v8H85.6V1H108.5 M109.5,0H84.6v10h24.9V0L109.5,0z"/>
	</g>
</g>
<g>
	<rect x="113.3" y="0.5" class="st2" width="23.9" height="9"/>
	<g>
		<path class="st1" d="M136.7,1v8h-22.9V1H136.7 M137.7,0h-24.9v10h24.9V0L137.7,0z"/>
	</g>
</g>
<g>
	<rect x="141.5" y="0.5" class="st2" width="23.9" height="9"/>
	<g>
		<path class="st1" d="M164.9,1v8H142V1H164.9 M165.9,0H141v10h24.9V0L165.9,0z"/>
	</g>
</g>
<g>
	<rect x="169.7" y="0.5" class="st2" width="23.9" height="9"/>
	<g>
		<path class="st1" d="M193.1,1v8h-22.9V1H193.1 M194.1,0h-24.9v10h24.9V0L194.1,0z"/>
	</g>
</g>
<g>
	<rect x="197.9" y="0.5" class="st2" width="23.9" height="9"/>
	<g>
		<path class="st1" d="M221.3,1v8h-22.9V1H221.3 M222.3,0h-24.9v10h24.9V0L222.3,0z"/>
	</g>
</g>
<g>
	<rect x="226.1" y="0.5" class="st2" width="23.9" height="9"/>
	<g>
		<path class="st1" d="M249.5,1v8h-22.9V1H249.5 M250.5,0h-24.9v10h24.9V0L250.5,0z"/>
	</g>
</g>
<g>
	<rect x="254.3" y="0.5" class="st2" width="23.9" height="9"/>
	<g>
		<path class="st1" d="M277.7,1v8h-22.9V1H277.7 M278.7,0h-24.9v10h24.9V0L278.7,0z"/>
	</g>
</g>
<g>
	<rect x="0.5" y="12.5" class="st0" width="23.9" height="9"/>
	<g>
		<path class="st1" d="M23.9,13v8H1v-8H23.9 M24.9,12H0v10h24.9V12L24.9,12z"/>
	</g>
</g>
<g>
	<rect x="28.7" y="12.5" class="st0" width="23.9" height="9"/>
	<g>
		<path class="st1" d="M52.1,13v8H29.2v-8H52.1 M53.1,12H28.2v10h24.9V12L53.1,12z"/>
	</g>
</g>
<g>
	<rect x="56.9" y="12.5" class="st0" width="23.9" height="9"/>
	<g>
		<path class="st1" d="M80.3,13v8H57.4v-8H80.3 M81.3,12H56.4v10h24.9V12L81.3,12z"/>
	</g>
</g>
<g>
	<rect x="85.1" y="12.5" class="st0" width="23.9" height="9"/>
	<g>
		<path class="st1" d="M108.5,13v8H85.6v-8H108.5 M109.5,12H84.6v10h24.9V12L109.5,12z"/>
	</g>
</g>
<g>
	<rect x="113.3" y="12.5" class="st0" width="23.9" height="9"/>
	<g>
		<path class="st1" d="M136.7,13v8h-22.9v-8H136.7 M137.7,12h-24.9v10h24.9V12L137.7,12z"/>
	</g>
</g>
<g>
	<rect x="141.5" y="12.5" class="st2" width="23.9" height="9"/>
	<g>
		<path class="st1" d="M164.9,13v8H142v-8H164.9 M165.9,12H141v10h24.9V12L165.9,12z"/>
	</g>
</g>
<g>
	<rect x="169.7" y="12.5" class="st2" width="23.9" height="9"/>
	<g>
		<path class="st1" d="M193.1,13v8h-22.9v-8H193.1 M194.1,12h-24.9v10h24.9V12L194.1,12z"/>
	</g>
</g>
<g>
	<rect x="197.9" y="12.5" class="st2" width="23.9" height="9"/>
	<g>
		<path class="st1" d="M221.3,13v8h-22.9v-8H221.3 M222.3,12h-24.9v10h24.9V12L222.3,12z"/>
	</g>
</g>
<g>
	<rect x="226.1" y="12.5" class="st2" width="23.9" height="9"/>
	<g>
		<path class="st1" d="M249.5,13v8h-22.9v-8H249.5 M250.5,12h-24.9v10h24.9V12L250.5,12z"/>
	</g>
</g>
<g>
	<rect x="254.3" y="12.5" class="st2" width="23.9" height="9"/>
	<g>
		<path class="st1" d="M277.7,13v8h-22.9v-8H277.7 M278.7,12h-24.9v10h24.9V12L278.7,12z"/>
	</g>
</g>
<g>
	<rect x="0.5" y="24.5" class="st0" width="23.9" height="9"/>
	<g>
		<path class="st1" d="M23.9,25v8H1v-8H23.9 M24.9,24H0v10h24.9V24L24.9,24z"/>
	</g>
</g>
<g>
	<rect x="28.7" y="24.5" class="st0" width="23.9" height="9"/>
	<g>
		<path class="st1" d="M52.1,25v8H29.2v-8H52.1 M53.1,24H28.2v10h24.9V24L53.1,24z"/>
	</g>
</g>
<g>
	<rect x="56.9" y="24.5" class="st0" width="23.9" height="9"/>
	<g>
		<path class="st1" d="M80.3,25v8H57.4v-8H80.3 M81.3,24H56.4v10h24.9V24L81.3,24z"/>
	</g>
</g>
<g>
	<rect x="85.1" y="24.5" class="st0" width="23.9" height="9"/>
	<g>
		<path class="st1" d="M108.5,25v8H85.6v-8H108.5 M109.5,24H84.6v10h24.9V24L109.5,24z"/>
	</g>
</g>
<g>
	<rect x="113.3" y="24.5" class="st0" width="23.9" height="9"/>
	<g>
		<path class="st1" d="M136.7,25v8h-22.9v-8H136.7 M137.7,24h-24.9v10h24.9V24L137.7,24z"/>
	</g>
</g>
<g>
	<rect x="141.5" y="24.5" class="st2" width="23.9" height="9"/>
	<g>
		<path class="st1" d="M164.9,25v8H142v-8H164.9 M165.9,24H141v10h24.9V24L165.9,24z"/>
	</g>
</g>
<g>
	<rect x="169.7" y="24.5" class="st2" width="23.9" height="9"/>
	<g>
		<path class="st1" d="M193.1,25v8h-22.9v-8H193.1 M194.1,24h-24.9v10h24.9V24L194.1,24z"/>
	</g>
</g>
<g>
	<rect x="197.9" y="24.5" class="st2" width="23.9" height="9"/>
	<g>
		<path class="st1" d="M221.3,25v8h-22.9v-8H221.3 M222.3,24h-24.9v10h24.9V24L222.3,24z"/>
	</g>
</g>
<g>
	<rect x="226.1" y="24.5" class="st2" width="23.9" height="9"/>
	<g>
		<path class="st1" d="M249.5,25v8h-22.9v-8H249.5 M250.5,24h-24.9v10h24.9V24L250.5,24z"/>
	</g>
</g>
<g>
	<rect x="254.3" y="24.5" class="st2" width="23.9" height="9"/>
	<g>
		<path class="st1" d="M277.7,25v8h-22.9v-8H277.7 M278.7,24h-24.9v10h24.9V24L278.7,24z"/>
	</g>
</g>
</svg>
