<?xml version="1.0" encoding="utf-8"?>
<!-- Generator: Adobe Illustrator 16.0.4, SVG Export Plug-In . SVG Version: 6.00 Build 0)  -->
<!DOCTYPE svg PUBLIC "-//W3C//DTD SVG 1.1//EN" "http://www.w3.org/Graphics/SVG/1.1/DTD/svg11.dtd">
<svg version="1.1" id="car" xmlns="http://www.w3.org/2000/svg" xmlns:xlink="http://www.w3.org/1999/xlink" x="0px" y="0px"
	 width="385px" height="115px" viewBox="0 0 385 115" style="enable-background:new 0 0 385 115;" xml:space="preserve">
<style type="text/css">
<![CDATA[
	.st0{fill:#231F20;}
	.st1{fill:url(#SVGID_1_);}
	.st2{fill:#FFFFFF;}
	.st3{fill:none;}
	.st4{fill:#D1D3D4;}
]]>
</style>
<g>
	<g>
		<rect x="8.9" y="101.6" class="st4" width="29.6" height="6"/>
		<rect x="63.6" y="101.6" class="st4" width="29.6" height="6"/>
		<rect x="118.2" y="101.6" class="st4" width="29.6" height="6"/>
		<rect x="172.9" y="101.6" class="st4" width="29.6" height="6"/>
		<rect x="227.5" y="101.6" class="st4" width="29.6" height="6"/>
		<rect x="282.2" y="101.6" class="st4" width="29.6" height="6"/>
		<rect x="336.8" y="101.6" class="st4" width="29.6" height="6"/>
	</g>
	<g>
		
			<linearGradient id="SVGID_1_" gradientUnits="userSpaceOnUse" x1="148.0449" y1="51.6113" x2="364.1112" y2="51.6113" gradientTransform="matrix(1 0 0 -1 0 115)">
			<stop  offset="0" style="stop-color:#FFFFFF"/>
			<stop  offset="0.4609" style="stop-color:#FFFFFF;stop-opacity:0.55"/>
			<stop  offset="1" style="stop-color:#FFFFFF;stop-opacity:0.3"/>
		</linearGradient>
		<path class="st1" d="M326,55.8c-35.1,8.1-46.4,10.1-51.8,31.6c-5.5,21.5-20.6,32.3-58.8,25.6c-33.7-5.9-65.2-25.7-72.2-30.3
			c1.2-0.4,2.4-0.8,3.9-1.3c3.6-1.3,4.9-2.3,6.8-5.5c2-3.5,5-14.9,5-23.6c0-8.7-3-20.1-5-23.6c-1.9-3.2-3.1-4.2-6.8-5.5
			c-1.4-0.5-2.7-1-3.8-1.3c10.1-1.8,66.6-11.6,117.7-9.8C468.2,19.4,361.1,47.7,326,55.8z"/>
		<path class="st3" d="M64.6,85.5c0.8,0,1.7,0,2.7,0.1c-0.5,0.3-1.5,0.9-2.2,1c-0.9,0.2-4.5,0.1-5.4-0.1c-0.7-0.2-1.8-0.8-2.2-1.1
			C58.7,85.4,61.3,85.4,64.6,85.5z"/>
		<path class="st3" d="M59.7,17.9c0.9-0.2,4.5-0.3,5.4-0.1c0.8,0.1,2.1,0.9,2.4,1.2c-1,0-1.9,0.1-2.8,0.1c-3.4,0.1-6.1,0.2-7.3,0.1
			v0C57.6,18.8,58.9,18,59.7,17.9z"/>
		<path class="st0" d="M156.5,52.3c0,2.4-0.4,4-0.6,4.6c-0.1-0.8-0.1-3.1-0.1-4.6c0-1.5,0-3.8,0.1-4.6
			C156.2,48.2,156.5,49.9,156.5,52.3z"/>
		<path class="st3" d="M116.5,78.1c-1.1,0-2-0.1-2.6-0.1c1.7-1.6,6.6-7.8,6.6-25.7c0-17.9-4.9-24-6.6-25.7c0.6-0.1,1.5-0.1,2.6-0.1
			c1.1,0,2.2,0.1,3.2,0.2c2.3,0.3,13.9,4.4,21.9,7.6l0.1,36c-8.1,3.2-19.7,7.3-22,7.6C118.7,78,117.6,78.1,116.5,78.1z"/>
		<path class="st3" d="M91.2,71c0-0.1,1.8-9.3,1.8-18.7c0-9.4-1.8-18.6-1.8-18.7c-0.4-2-0.1-2.4,1-2.9c1.2-0.5,13.1-3.3,14.6-3.3
			l0.1,0c1,0.1,3.2,1,5,3.8c2,2.9,4.3,10.2,4.3,21.1c0,10.9-2.3,18.2-4.3,21.2c-1.9,2.8-4,3.7-5,3.8c0,0,0,0,0,0
			c-1.5,0-13.4-2.8-14.7-3.3C91.1,73.4,90.8,73,91.2,71z"/>
		<path class="st3" d="M98.3,84.1c0,0.1-0.1,0.2-0.1,0.2c3.4-0.2,6.3-0.3,8.2-0.4c4.4-0.1,6.6,0.1,10.7,0.5c1,0.1,2.2,0.2,3.5,0.3
			c6.4,0.6,11.8,0.2,16.9-1.1c1.7-0.5,3.3-0.9,5-1.5c-0.5-0.3-0.8-0.5-0.8-0.5l0-1.5c-0.1,0-0.2-0.1-0.2-0.2c-0.1-0.2,0-0.4,0.1-0.5
			c0,0,0.1-0.1,0.1-0.2l0-8.5c-8.1,3.2-19.6,7.3-21.9,7.6c-1,0.2-2.1,0.2-3.3,0.2c-2,0-3.4-0.2-3.4-0.2l-0.8-0.1l0.7-0.4
			c0.1,0,6.9-4.7,6.9-25.6c0-20.9-6.8-25.6-6.9-25.6l-0.7-0.4l0.8-0.1c0.1,0,1.5-0.2,3.4-0.2c1.2,0,2.3,0.1,3.3,0.2
			c2.3,0.3,13.7,4.3,21.8,7.6l0-8.7c0,0,0,0,0,0c-0.1-0.1-0.2-0.3-0.1-0.5c0,0,0.1,0,0.1-0.1l0-2.3c0,0,0.1,0,0.3-0.1
			c-1.5-0.5-2.9-0.9-4.4-1.3c-5-1.3-10.4-1.7-16.9-1.1c-1.4,0.1-2.6,0.2-3.6,0.3c-4,0.4-6.2,0.6-10.6,0.5c-1.9,0-4.8-0.2-8.2-0.4
			c0,0.1,0.1,0.2,0.1,0.2c0,0.1,0,0.1,0,0.1c0,0.2,0.1,0.3,0.1,0.5c0,0.1,0,0.1,0,0.2c0,0.1,0,0.1,0,0.2c0,0.2,0,0.3,0,0.4
			c0.1,0.2,0.3,0.6,0.8,0.9c0.6,0.5,1.5,0.8,1.5,0.8l1,0.3l-6.5,1.7l-0.1-0.3c0-0.1-0.1-0.7,0-1.1c0.1-0.3,0.1-0.4,0-0.8
			c-0.1-0.3-0.2-0.3-0.5-0.4c-0.6-0.1-0.9-0.2-1.2-0.8c-0.2-0.3-0.6-1.2-1-2.2c-4.6-0.2-9.6-0.4-14-0.4c-4.8,0-9.9,0.1-13.9,0.3
			c-2.7,0.1-5,0.1-6.4,0.1c-0.9,0-1.4,0-1.6-0.1c-1.2-0.2-5.8-0.9-9.9-1.4c-1.4-0.1-3.1-0.2-5.1-0.2c-3.6,0-8,0.2-11.7,0.7
			c-5.2,0.6-15.5,3.2-20.3,5.5c-4.7,2.3-6.8,4.9-7.6,9.5c-0.8,5-1.4,12.2-1.4,18.5c0,6.2,0.5,13.5,1.4,18.5c0.8,4.6,2.9,7.2,7.6,9.5
			c4.8,2.3,15.1,5,20.3,5.5c3.7,0.4,8.1,0.7,11.8,0.7c2,0,3.7-0.1,5.1-0.2c4.1-0.5,8.7-1.1,9.9-1.4c0.2,0,0.8-0.1,1.6-0.1
			c1.4,0,3.7,0.1,6.4,0.1c4.1,0.1,9.1,0.3,13.9,0.3c4.4,0,9.4-0.2,14-0.4c0.4-1,0.8-1.9,1-2.2c0.1-0.2,0.2-0.3,0.2-0.4
			c0.1-0.1,0.2-0.2,0.3-0.2c0.2-0.1,0.4-0.2,0.7-0.2c0,0,0,0,0,0c0.3,0,0.4-0.1,0.5-0.4c0.1-0.4,0.1-0.5,0-0.8c-0.1-0.4,0-1,0-1.1
			l0.1-0.3l6.5,1.7l-1,0.3c0,0-0.9,0.3-1.5,0.8c-0.4,0.3-0.7,0.7-0.8,0.9c0,0,0,0,0,0c0,0.1,0,0.1,0,0.2c0,0,0,0.1,0,0.1
			c0,0.1,0,0.2,0,0.4c0,0,0,0,0,0c0,0.1-0.1,0.3-0.1,0.5C98.4,84.1,98.4,84.1,98.3,84.1z M15.4,52.3c0,5.4,0.3,11.6,0.8,13.8
			c0.4,2.2,1.1,3.4,1.1,3.5l0.3,0.5L17,70c-0.3,0-8-0.4-9.5-0.7C5.8,69,5,68.6,4.6,67.3c-0.4-1.4-1.5-7.9-1.5-15
			c0-7.1,1.1-13.6,1.5-15c0.4-1.3,1.3-1.7,2.9-2.1c1.5-0.3,9.2-0.6,9.5-0.7l0.6,0L17.3,35c0,0-0.7,1.3-1.1,3.5
			C15.8,40.7,15.4,46.9,15.4,52.3z M42.8,52.3c0,4.6,0.3,8.8,0.4,11.6c0.1,1.3,0.1,2.3,0.1,2.8c0,2.3-0.8,3.2-2.7,3.3
			c-0.2,0-0.5,0-0.9,0c-3.4,0-14-0.4-15.7-0.7c-2-0.4-2.6-0.8-3.2-2.9c-0.5-2-0.8-7.1-0.8-14.1c0-6.9,0.3-12.1,0.8-14.1
			c0.6-2.1,1.2-2.5,3.2-2.9c1.7-0.3,12.4-0.7,15.7-0.7c0.4,0,0.7,0,0.8,0c1.9,0.1,2.7,1.1,2.7,3.3c0,0.5-0.1,1.5-0.1,2.8
			C43,43.5,42.8,47.7,42.8,52.3z M89.2,52.3c0,10.1-1.5,18.3-3.5,19.5c-0.2,0.1-0.7,0.4-6.1,0.4c-10,0-29.5-1-31.2-2.1
			c-2.3-1.4-2.6-9.4-2.6-17.8c0-8.4,0.3-16.4,2.6-17.8c1.7-1,21.3-2.1,31.2-2.1c5.4,0,5.9,0.3,6.1,0.4
			C87.8,33.9,89.2,42.1,89.2,52.3z M91.9,74.5c-1.7-0.7-1.8-1.7-1.4-3.6c0-0.1,1.8-9.3,1.8-18.6c0-9.3-1.8-18.5-1.8-18.6
			c-0.4-1.9-0.3-2.9,1.4-3.6c1.3-0.6,13.3-3.4,14.9-3.4c0,0,0,0,0,0c0,0,0.1,0,0.1,0c1.5,0.1,3.7,1.5,5.5,4.1
			c2.1,3.2,4.4,10.5,4.4,21.5c0,11-2.3,18.4-4.4,21.5c-1.8,2.6-4,3.9-5.5,4.1c0,0-0.1,0-0.1,0C105,77.8,93,74.9,91.9,74.5z"/>
		<path class="st3" d="M7.6,68.7c-1.5-0.3-2.1-0.6-2.4-1.6c-0.4-1.3-1.5-7.9-1.5-14.8c0-6.9,1.1-13.5,1.5-14.8
			c0.3-1,0.9-1.3,2.4-1.6c1.3-0.2,7.1-0.5,8.9-0.6c-0.3,0.6-0.7,1.7-0.9,3.2c-0.4,2.3-0.8,8.5-0.8,13.9c0,5.4,0.3,11.7,0.8,13.9
			c0.3,1.5,0.7,2.6,0.9,3.2C14.7,69.3,8.9,69,7.6,68.7z"/>
		<path class="st3" d="M85.4,71.2c-0.1,0.1-0.9,0.3-5.8,0.3c-10.5,0-29.5-1.1-30.9-2c-2.3-1.4-2.3-12.5-2.3-17.2
			c0-4.7,0-15.8,2.3-17.2c1.5-0.9,20.4-2,30.9-2c4.8,0,5.6,0.2,5.8,0.3c1.6,0.9,3.2,8.2,3.2,18.9C88.6,63,87,70.3,85.4,71.2z"/>
		<path class="st3" d="M42.7,66.6c0,2.2-0.7,2.6-2.1,2.7c-0.2,0-0.4,0-0.8,0c-3.3,0-13.9-0.4-15.6-0.7c-1.8-0.3-2.2-0.6-2.7-2.5
			c-0.5-1.9-0.8-7.1-0.8-13.9c0-6.8,0.3-12,0.8-13.9c0.5-1.9,0.9-2.1,2.7-2.5c1.7-0.3,12.4-0.7,15.6-0.7c0.4,0,0.6,0,0.8,0
			c1.4,0.1,2.1,0.5,2.1,2.7c0,0.5-0.1,1.5-0.1,2.8c-0.2,2.8-0.4,7-0.4,11.6c0,4.6,0.3,8.8,0.4,11.6C42.7,65.2,42.7,66.1,42.7,66.6z"
			/>
		<path class="st2" d="M67.5,85.3v0.2c0,0-0.1,0.1-0.2,0.2c-0.9,0-1.8-0.1-2.7-0.1c-3.3-0.1-5.9-0.2-7.1-0.1c-0.1,0-0.1-0.1-0.1-0.1
			v-0.2C58.9,85,62.7,85.1,67.5,85.3z"/>
		<path class="st2" d="M68.1,85.3c3.3,0.1,6.9,0.2,10.5,0.2c4.3,0,9.3-0.2,13.9-0.4c0,0.1-0.1,0.2-0.1,0.3
			c-4.6,0.2-9.4,0.4-13.7,0.4c-3.5,0-7.2-0.1-10.5-0.2c0,0,0-0.1,0-0.1V85.3z"/>
		<path class="st2" d="M137.6,20.4c-4.9-1.3-10.3-1.7-17-1.1c-6.7,0.6-8.7,0.9-14.2,0.9c-1.9,0-4.9-0.2-8.3-0.4c0,0,0,0,0-0.1
			c0-0.1-0.1-0.2-0.1-0.3c3.5,0.2,6.5,0.4,8.5,0.4c4.3,0.1,6.5-0.1,10.5-0.5c1.1-0.1,2.2-0.2,3.6-0.3c6.5-0.6,12-0.2,17.1,1.1
			c1.9,0.5,3.6,1,5.5,1.7c-0.2,0-0.5,0.1-0.6,0.1C140.9,21.4,139.3,20.9,137.6,20.4z"/>
		<path class="st2" d="M98.1,84.7c3.4-0.2,6.4-0.3,8.3-0.4c5.5-0.1,7.5,0.3,14.2,0.9c6.7,0.6,12.1,0.2,17-1.1c1.9-0.5,3.5-1,5.3-1.6
			c0.1,0.1,0.2,0.1,0.3,0.2c-1.9,0.6-3.6,1.2-5.5,1.7c-5.1,1.3-10.6,1.7-17.1,1.1c-1.3-0.1-2.5-0.2-3.5-0.3
			c-4.1-0.4-6.2-0.6-10.6-0.5c-2,0-5,0.2-8.5,0.4C98,85,98.1,84.9,98.1,84.7C98.1,84.8,98.1,84.7,98.1,84.7z"/>
		<path class="st2" d="M153.8,28.7c2,3.5,5,14.9,5,23.6c0,8.7-3,20.1-5,23.6c-1.9,3.2-3.1,4.2-6.8,5.5c-1.4,0.5-2.7,1-3.9,1.3
			c-0.1-0.1-0.2-0.2-0.3-0.2c1.3-0.4,2.6-0.9,4.1-1.4c3.6-1.3,4.8-2.3,6.6-5.4c2.1-3.5,5-14.8,5-23.4c0-8.6-2.9-19.9-5-23.4
			c-1.8-3.1-3-4.1-6.6-5.4c-1.6-0.6-3-1.1-4.4-1.5c0.2,0,0.4-0.1,0.6-0.1c1.1,0.4,2.4,0.8,3.8,1.3C150.7,24.4,151.9,25.5,153.8,28.7
			z"/>
		<path class="st2" d="M78.6,19.1c-9.8,0-20.6,0.6-21.9,0.3c-1.3-0.3-5.9-0.9-10-1.4c-4.3-0.5-11.6-0.2-16.9,0.4
			C24.6,19,14.2,21.7,9.4,24c-4.8,2.3-7,5.1-7.7,9.7c-0.8,4.9-1.4,12.2-1.4,18.5c0,6.4,0.6,13.7,1.4,18.5c0.8,4.6,2.9,7.4,7.7,9.7
			c4.8,2.3,15.1,5,20.4,5.6c5.3,0.6,12.7,0.9,16.9,0.4c4-0.4,8.7-1.1,10-1.4c0,0,0,0,0,0v0.2c0,0,0,0.1,0,0.1
			c-1.3,0.2-5.9,0.9-10,1.4C45.4,87,43.7,87,41.6,87c-3.7,0-8.1-0.2-11.9-0.7c-5.2-0.6-15.7-3.3-20.5-5.6c-4.9-2.4-7.1-5.1-7.9-9.9
			C0.5,65.8,0,58.5,0,52.3C0,46,0.5,38.7,1.4,33.7c0.8-4.8,3-7.6,7.9-9.9c4.8-2.3,15.3-5,20.5-5.6c3.7-0.4,8.1-0.7,11.8-0.7
			c2.1,0,3.8,0.1,5.2,0.2c4.1,0.4,8.6,1.1,9.9,1.4v0.3h0.6v-0.2c1.2,0,3.9,0,7.3-0.1c0.9,0,1.9-0.1,2.8-0.1c0,0,0,0,0,0v0.2h0.6
			v-0.3c3.3-0.1,6.9-0.2,10.5-0.2c4.3,0,9.2,0.2,13.7,0.4c0,0.1,0.1,0.2,0.1,0.3C87.8,19.3,82.9,19.1,78.6,19.1z"/>
		<path class="st2" d="M78.6,19.4c-4.8,0-9.9,0.1-13.9,0.3c-2.7,0.1-5,0.1-6.4,0.1c-0.9,0-1.4,0-1.6-0.1c-1.2-0.2-5.8-0.9-9.9-1.4
			c-1.4-0.1-3.1-0.2-5.1-0.2c-3.6,0-8,0.2-11.7,0.7c-5.2,0.6-15.5,3.2-20.3,5.5c-4.7,2.3-6.8,4.9-7.6,9.5c-0.8,5-1.4,12.2-1.4,18.5
			c0,6.2,0.5,13.5,1.4,18.5c0.8,4.6,2.9,7.2,7.6,9.5c4.8,2.3,15.1,5,20.3,5.5c3.7,0.4,8.1,0.7,11.8,0.7c2,0,3.7-0.1,5.1-0.2
			c4.1-0.5,8.7-1.1,9.9-1.4c0.2,0,0.8-0.1,1.6-0.1c1.4,0,3.7,0.1,6.4,0.1c4.1,0.1,9.1,0.3,13.9,0.3c4.4,0,9.4-0.2,14-0.4
			c0,0.1-0.1,0.2-0.1,0.3c-4.6,0.2-9.5,0.4-13.9,0.4c-3.5,0-7.2-0.1-10.5-0.2v-0.1h-0.6v0.1c-4.7-0.1-8.6-0.3-10.1-0.2V85h-0.6v0.1
			c0,0,0,0,0,0c-1.3,0.3-5.9,0.9-10,1.4c-4.3,0.5-11.6,0.1-16.9-0.4c-5.3-0.6-15.6-3.3-20.4-5.6c-4.8-2.3-7-5.1-7.7-9.7
			c-0.8-4.9-1.4-12.2-1.4-18.5c0-6.3,0.6-13.6,1.4-18.5c0.8-4.6,2.9-7.4,7.7-9.7c4.8-2.3,15.1-5,20.4-5.6c5.3-0.6,12.7-0.9,16.9-0.4
			c4,0.4,8.7,1.1,10,1.4c1.3,0.3,12.1-0.3,21.9-0.3c4.3,0,9.3,0.2,13.9,0.4c0,0.1,0.1,0.2,0.1,0.3C87.9,19.6,82.9,19.4,78.6,19.4z"
			/>
		<path class="st2" d="M137.5,20.7c-5-1.3-10.4-1.7-16.9-1.1c-1.4,0.1-2.6,0.2-3.6,0.3c-4,0.4-6.2,0.6-10.6,0.5
			c-1.9,0-4.8-0.2-8.2-0.4c0-0.1-0.1-0.2-0.1-0.3c3.4,0.2,6.4,0.3,8.3,0.4c5.5,0.1,7.5-0.3,14.2-0.9c6.7-0.6,12.1-0.2,17,1.1
			c1.8,0.5,3.3,0.9,5,1.5c-0.3,0.1-0.5,0.1-0.6,0.1C140.4,21.6,139,21.1,137.5,20.7z"/>
		<path class="st2" d="M120.6,85.2c-6.7-0.6-8.7-0.9-14.2-0.9c-1.9,0-4.9,0.2-8.3,0.4c0.1-0.1,0.1-0.2,0.1-0.3
			c3.4-0.2,6.3-0.3,8.2-0.4c4.4-0.1,6.6,0.1,10.7,0.5c1,0.1,2.2,0.2,3.5,0.3c6.4,0.6,11.8,0.2,16.9-1.1c1.7-0.5,3.3-0.9,5-1.5
			c0.1,0.1,0.2,0.1,0.3,0.2c-1.8,0.6-3.4,1.1-5.3,1.6C132.7,85.4,127.3,85.8,120.6,85.2z"/>
		<path class="st2" d="M146.8,80.8c3.5-1.2,4.6-2.2,6.4-5.3c2-3.4,5-14.7,5-23.3c0-8.6-3-19.9-5-23.3c-1.8-3.1-2.9-4-6.4-5.3
			c-1.9-0.7-3.5-1.2-4.9-1.7c0.2,0,0.4-0.1,0.6-0.1c1.3,0.4,2.8,0.9,4.4,1.5c3.6,1.3,4.8,2.3,6.6,5.4c2.1,3.5,5,14.8,5,23.4
			c0,8.6-2.9,19.9-5,23.4c-1.8,3.1-3,4.1-6.6,5.4c-1.5,0.5-2.8,1-4.1,1.4c-0.1-0.1-0.2-0.2-0.3-0.2
			C143.8,81.9,145.2,81.4,146.8,80.8z"/>
		<path class="st2" d="M119.7,26.7c-1-0.2-2.1-0.2-3.2-0.2c-1.1,0-2,0.1-2.6,0.1c1.7,1.6,6.6,7.8,6.6,25.7c0,17.9-4.9,24.1-6.6,25.7
			c0.6,0.1,1.5,0.1,2.6,0.1c1.1,0,2.2-0.1,3.2-0.2c2.3-0.3,13.9-4.4,22-7.6v0.6c-8.1,3.2-19.6,7.3-21.9,7.6c-1,0.2-2.1,0.2-3.3,0.2
			c-2,0-3.4-0.2-3.4-0.2l-0.8-0.1l0.7-0.4c0.1,0,6.9-4.7,6.9-25.6c0-20.9-6.8-25.6-6.9-25.6l-0.7-0.4l0.8-0.1c0.1,0,1.5-0.2,3.4-0.2
			c1.2,0,2.3,0.1,3.3,0.2c2.3,0.3,13.7,4.3,21.8,7.6l0,0.7C133.6,31.1,122,27,119.7,26.7z"/>
		<path class="st2" d="M152.8,52.3c0,4.1-1,13.2-2.8,14.9c-0.6,0.6-4,2-8.2,3.7v-0.6c4-1.6,7.2-3,7.8-3.5c1.6-1.5,2.6-10.3,2.6-14.4
			c0-4.1-1-12.9-2.6-14.4c-0.6-0.6-3.8-2-7.9-3.6l0-0.7c4.3,1.7,7.7,3.2,8.3,3.8C151.8,39.1,152.8,48.1,152.8,52.3z"/>
		<path class="st2" d="M16.2,66.1c-0.4-2.2-0.8-8.4-0.8-13.8c0-5.4,0.3-11.6,0.8-13.8c0.4-2.2,1.1-3.5,1.1-3.5l0.3-0.5l-0.6,0
			c-0.3,0-8,0.4-9.5,0.7c-1.6,0.3-2.5,0.7-2.9,2.1c-0.4,1.4-1.5,7.9-1.5,15c0,7.1,1.1,13.6,1.5,15C5,68.6,5.8,69,7.5,69.3
			C9,69.6,16.7,70,17,70l0.6,0l-0.3-0.5C17.3,69.5,16.6,68.3,16.2,66.1z M15.6,66.2c0.3,1.5,0.7,2.6,0.9,3.2
			c-1.8-0.1-7.6-0.4-8.9-0.6c-1.5-0.3-2.1-0.6-2.4-1.6c-0.4-1.3-1.5-7.9-1.5-14.8c0-6.9,1.1-13.5,1.5-14.8c0.3-1,0.9-1.3,2.4-1.6
			c1.3-0.2,7.1-0.5,8.9-0.6c-0.3,0.6-0.7,1.7-0.9,3.2c-0.4,2.3-0.8,8.5-0.8,13.9C14.8,57.7,15.1,63.9,15.6,66.2z"/>
		<path class="st2" d="M43.2,63.8c-0.2-2.8-0.4-6.9-0.4-11.6c0-4.6,0.3-8.8,0.4-11.5c0.1-1.3,0.1-2.3,0.1-2.8c0-2.3-0.8-3.2-2.7-3.3
			c-0.2,0-0.5,0-0.8,0c-3.4,0-14,0.4-15.7,0.7c-2,0.4-2.6,0.8-3.2,2.9c-0.5,2-0.8,7.1-0.8,14.1c0,6.9,0.3,12.1,0.8,14.1
			c0.6,2.1,1.2,2.5,3.2,2.9c1.7,0.3,12.4,0.7,15.7,0.7c0.4,0,0.7,0,0.9,0c2-0.1,2.7-1.1,2.7-3.3C43.3,66.1,43.3,65.1,43.2,63.8z
			 M42.1,52.3c0,4.6,0.3,8.8,0.4,11.6c0.1,1.3,0.1,2.3,0.1,2.8c0,2.2-0.7,2.6-2.1,2.7c-0.2,0-0.4,0-0.8,0c-3.3,0-13.9-0.4-15.6-0.7
			c-1.8-0.3-2.2-0.6-2.7-2.5c-0.5-1.9-0.8-7.1-0.8-13.9c0-6.8,0.3-12,0.8-13.9c0.5-1.9,0.9-2.1,2.7-2.5c1.7-0.3,12.4-0.7,15.6-0.7
			c0.4,0,0.6,0,0.8,0c1.4,0.1,2.1,0.5,2.1,2.7c0,0.5-0.1,1.5-0.1,2.8C42.4,43.4,42.1,47.6,42.1,52.3z"/>
		<path class="st2" d="M89.2,52.3c0-10.1-1.5-18.3-3.5-19.4c-0.2-0.1-0.7-0.4-6.1-0.4c-10,0-29.5,1-31.2,2.1
			c-2.3,1.4-2.6,9.4-2.6,17.8c0,8.4,0.3,16.4,2.6,17.8c1.7,1,21.3,2.1,31.2,2.1c5.4,0,5.9-0.3,6.1-0.4
			C87.8,70.6,89.2,62.4,89.2,52.3z M88.6,52.3c0,10.7-1.6,18-3.2,18.9c-0.1,0.1-0.9,0.3-5.8,0.3c-10.5,0-29.5-1.1-30.9-2
			c-2.3-1.4-2.3-12.5-2.3-17.2c0-4.7,0-15.8,2.3-17.2c1.5-0.9,20.4-2,30.9-2c4.8,0,5.6,0.2,5.8,0.3C87,34.2,88.6,41.5,88.6,52.3z"/>
		<path class="st2" d="M98,82.3c0.2-0.2,0.4-0.6,0.8-0.9c0.3-0.2,0.6-0.4,0.8-0.5l-3.9-1c0,0.2,0,0.3,0,0.4c0.1,0.4,0.2,0.6,0,1.2
			c0,0.1-0.1,0.2-0.1,0.2c-0.3,0-0.5,0-0.7,0c-0.1,0-0.2,0-0.3,0c0.3,0,0.4-0.1,0.5-0.4c0.1-0.4,0.1-0.5,0-0.8c-0.1-0.4,0-1,0-1.1
			l0.1-0.3l6.5,1.7l-1,0.3c0,0-0.9,0.3-1.5,0.8c-0.4,0.3-0.7,0.7-0.8,0.9c0,0,0,0,0,0c0-0.1,0-0.1,0-0.2
			C98.4,82.5,98.2,82.4,98,82.3z"/>
		<path class="st0" d="M97.8,83.8c0,0.2-0.1,0.4-0.2,0.6l0,0C97.7,84.2,97.7,84,97.8,83.8z"/>
		<polygon class="st0" points="97.8,82.9 97.8,82.9 97.8,82.9 		"/>
		<path class="st0" d="M97.6,84.4C97.5,84.5,97.5,84.5,97.6,84.4C97.5,84.5,97.5,84.5,97.6,84.4L97.6,84.4z"/>
		<path class="st2" d="M94,81.9c0.2-0.1,0.4-0.2,0.7-0.2c0,0,0,0,0,0c0,0,0,0,0,0C94.4,81.7,94.2,81.7,94,81.9z"/>
		<path class="st2" d="M97.9,82.5c-0.5-0.3-1.5-0.5-2.3-0.6c0.1-0.1,0.1-0.2,0.2-0.3c0.8,0.1,1.7,0.3,2.3,0.6
			C97.9,82.4,97.9,82.5,97.9,82.5z"/>
		<path class="st2" d="M98.3,84.1c0,0.1-0.1,0.2-0.1,0.2c0,0,0,0,0,0C98.3,84.3,98.3,84.2,98.3,84.1z"/>
		<path class="st2" d="M98.1,84.8C98.1,84.8,98.1,84.7,98.1,84.8L98.1,84.8C98.1,84.7,98.1,84.8,98.1,84.8z"/>
		<path class="st2" d="M98.3,84.4c0,0.1-0.1,0.2-0.1,0.3h0C98.2,84.6,98.2,84.5,98.3,84.4C98.2,84.4,98.3,84.4,98.3,84.4z"/>
		<path class="st2" d="M91.6,88.2c-0.1,0.5,0.3,0.8,1,0.9c0.8,0.1,1.4-0.1,2.1-0.6c0.7-0.5,2.1-2.1,2.8-3.4c0,0,0,0,0,0
			c0.1,0,0.2,0,0.4,0c-0.8,1.4-2.3,3.2-3,3.7c-0.8,0.6-1.4,0.7-2.3,0.6c-0.5-0.1-0.9-0.2-1.1-0.5c-0.2-0.2-0.2-0.5-0.2-0.8
			c0.1-0.4,0.5-1.6,1-2.8c0.1,0,0.2,0,0.3,0C92.1,86.5,91.7,87.8,91.6,88.2z"/>
		<path class="st2" d="M98.1,82.7c0-0.1-0.1-0.1-0.3-0.2c0,0,0.1-0.1,0.1-0.2c0.2,0.1,0.3,0.2,0.4,0.3c0,0,0,0.1,0,0.2
			c0,0.1,0,0.1,0,0.2c0,0,0,0.1,0,0.1c0,0.1,0,0.2,0,0.4c0,0,0,0,0,0c0,0.1-0.1,0.3-0.1,0.5c0,0,0,0.1,0,0.1c0,0.1-0.1,0.2-0.1,0.2
			c-0.1,0-0.2,0-0.3,0C98.3,83.4,98.1,82.7,98.1,82.7z"/>
		<path class="st2" d="M93.8,82.1c0.1-0.1,0.2-0.2,0.3-0.2c0.2-0.1,0.4-0.2,0.7-0.2c0,0,0,0,0,0c0.1,0,0.2,0,0.3,0
			c0.2,0,0.4,0,0.7,0c-0.1,0.1-0.1,0.2-0.2,0.3c-0.3,0-0.6,0-0.8,0c-0.5,0.1-0.7,0.1-1,0.6c-0.2,0.3-0.5,1.1-0.9,2.1
			c-0.1,0-0.2,0-0.3,0c0.4-1,0.8-1.9,1-2.2C93.6,82.3,93.7,82.2,93.8,82.1z"/>
		<path class="st2" d="M92.8,85c0,0.1-0.1,0.2-0.1,0.3c-0.1,0-0.2,0-0.3,0c0-0.1,0.1-0.2,0.1-0.3C92.5,85,92.6,85,92.8,85z"/>
		<path class="st2" d="M97.6,85.1c0.1-0.1,0.1-0.2,0.2-0.3c0.1,0,0.2,0,0.4,0c0,0,0,0,0,0.1c0,0.1-0.1,0.2-0.1,0.3
			C97.8,85.1,97.7,85.1,97.6,85.1C97.6,85.1,97.6,85.1,97.6,85.1z"/>
		<path class="st2" d="M97.9,84.4c0.1,0,0.2,0,0.3,0c0,0.1-0.1,0.2-0.1,0.3c-0.1,0-0.2,0-0.4,0c0,0,0-0.1,0.1-0.1
			C97.9,84.6,97.9,84.5,97.9,84.4z"/>
		<path class="st2" d="M92.9,84.7c0,0.1-0.1,0.2-0.1,0.3c-0.1,0-0.2,0-0.4,0c0-0.1,0.1-0.2,0.1-0.3C92.7,84.7,92.8,84.7,92.9,84.7z"
			/>
		<path class="st2" d="M97.8,82.6l-0.1,0.1l0,0.1c0,0,0,0,0,0c-0.3-0.2-1.8-0.6-2.8-0.6c-0.1,0-0.2,0-0.2,0c0.3,0,0.5-0.1,0.7-0.3
			C96.3,82.1,97.4,82.3,97.8,82.6C97.9,82.6,97.8,82.6,97.8,82.6z"/>
		<path class="st2" d="M91.9,88.2c0,0.2,0,0.2,0.1,0.3c0.1,0.1,0.3,0.2,0.7,0.3c0.1,0,0.3,0,0.4,0c0.5,0,0.9-0.1,1.5-0.5
			c0.6-0.4,1.9-1.9,2.7-3.2c0.1,0,0.3,0,0.4,0c-0.8,1.3-2.2,3-2.8,3.4c-0.7,0.5-1.3,0.7-2.1,0.6c-0.7-0.1-1.1-0.4-1-0.9
			c0.1-0.4,0.5-1.6,1-2.8c0.1,0,0.2,0,0.3,0C92.5,86.5,92,87.8,91.9,88.2z"/>
		<path class="st2" d="M94.8,82c0.2,0,0.5,0,0.8,0c-0.2,0.2-0.5,0.3-0.7,0.3c-0.4,0-0.5,0.1-0.7,0.5c-0.2,0.3-0.5,1.1-0.8,1.9
			c-0.1,0-0.2,0-0.4,0c0.4-0.9,0.7-1.7,0.9-2.1C94.1,82.1,94.2,82,94.8,82z"/>
		<path class="st2" d="M97.8,83.7c0-0.1,0-0.2,0-0.3c0-0.1,0-0.1,0-0.2c0-0.1,0-0.1,0-0.2c0,0,0-0.1,0-0.1c0,0,0,0,0,0l0,0
			c0,0,0,0,0,0l0-0.1l0.1-0.1c0,0,0,0,0-0.1c0.1,0.1,0.2,0.1,0.3,0.2c0,0,0.2,0.6-0.2,1.7c-0.1,0-0.2,0-0.3,0c0,0,0,0,0,0
			c0.1-0.2,0.2-0.4,0.2-0.6C97.8,83.8,97.8,83.7,97.8,83.7z"/>
		<path class="st2" d="M93,85.3c-0.1,0-0.2,0-0.3,0c0-0.1,0.1-0.2,0.1-0.3c0.1,0,0.2,0,0.4,0C93.1,85.1,93,85.2,93,85.3z"/>
		<path class="st2" d="M97.4,84.8c0.1,0,0.2,0,0.4,0c-0.1,0.1-0.1,0.2-0.2,0.3c-0.1,0-0.3,0-0.4,0C97.3,85,97.3,84.9,97.4,84.8z"/>
		<path class="st2" d="M93.2,84.7c0,0.1-0.1,0.2-0.1,0.3c-0.1,0-0.2,0-0.4,0c0-0.1,0.1-0.2,0.1-0.3C93,84.7,93.1,84.7,93.2,84.7z"/>
		<path class="st2" d="M97.5,84.5C97.5,84.5,97.5,84.5,97.5,84.5C97.6,84.4,97.6,84.4,97.5,84.5c0.2-0.1,0.3-0.1,0.4-0.1
			c0,0.1-0.1,0.1-0.1,0.2c0,0,0,0.1-0.1,0.1c-0.1,0-0.2,0-0.4,0C97.4,84.7,97.5,84.6,97.5,84.5z"/>
		<path class="st2" d="M94.9,15.8c0.7,0.5,2.3,2.3,3,3.7C97.2,18.1,95.6,16.3,94.9,15.8z"/>
		<path class="st2" d="M95.7,22.8c0,0.1,0.1,0.1,0.1,0.2c0.2,0.6,0.1,0.8,0,1.2c0,0.1,0,0.3,0,0.4l3.9-1c-0.3-0.1-0.6-0.3-0.8-0.5
			c-0.4-0.3-0.6-0.7-0.8-0.9c0.2-0.1,0.3-0.2,0.4-0.3c0,0,0.1-0.3,0.1-0.6c0,0.2,0,0.3,0,0.4c0.1,0.2,0.3,0.6,0.8,0.9
			c0.6,0.5,1.5,0.8,1.5,0.8l1,0.3l-6.5,1.7l-0.1-0.3c0-0.1-0.1-0.7,0-1.1c0.1-0.3,0.1-0.4,0-0.8c-0.1-0.3-0.2-0.3-0.5-0.4
			c0.1,0,0.2,0,0.3,0C95.2,22.9,95.5,22.8,95.7,22.8z"/>
		<path class="st0" d="M97.6,20.1L97.6,20.1c0.1,0.2,0.2,0.4,0.2,0.6C97.7,20.5,97.7,20.3,97.6,20.1z"/>
		<path class="st0" d="M94.1,21.8c0.2,0.4,0.3,0.4,0.7,0.5C94.4,22.2,94.3,22.1,94.1,21.8z"/>
		<path class="st0" d="M97.8,21.6C97.8,21.6,97.8,21.6,97.8,21.6C97.8,21.6,97.8,21.6,97.8,21.6C97.8,21.6,97.8,21.6,97.8,21.6z"/>
		<path class="st0" d="M97.5,20C97.5,20,97.5,20.1,97.5,20L97.5,20C97.5,20.1,97.5,20,97.5,20z"/>
		<path class="st2" d="M93.1,15.1c0.7,0,1.2,0.2,1.8,0.7C94.2,15.3,93.7,15.1,93.1,15.1L93.1,15.1z"/>
		<path class="st2" d="M95.5,22.5c0.8-0.1,1.9-0.3,2.3-0.5c0,0,0.1,0.1,0.2,0.3c-0.6,0.3-1.5,0.5-2.3,0.6
			C95.7,22.7,95.6,22.6,95.5,22.5z"/>
		<path class="st2" d="M98.2,20.1C98.3,20.1,98.3,20.1,98.2,20.1c0,0.1,0.1,0.2,0.1,0.2C98.3,20.3,98.3,20.2,98.2,20.1z"/>
		<path class="st2" d="M98.1,19.7C98.1,19.8,98.1,19.8,98.1,19.7C98.1,19.8,98.1,19.8,98.1,19.7C98.1,19.8,98.1,19.8,98.1,19.7z"/>
		<path class="st2" d="M98.2,20.1c0-0.1-0.1-0.2-0.1-0.3c0,0,0,0,0,0C98.2,19.9,98.2,20,98.2,20.1C98.3,20.1,98.3,20.1,98.2,20.1z"
			/>
		<path class="st2" d="M97.6,19.4c-0.8-1.3-2.2-3-2.8-3.4c-0.7-0.5-1.3-0.7-2.1-0.6c-0.7,0.1-1.1,0.4-1,0.9c0.1,0.4,0.5,1.6,1,2.8
			c-0.1,0-0.2,0-0.3,0c-0.5-1.2-0.9-2.3-1-2.8c0-0.3,0-0.6,0.2-0.8c0.2-0.3,0.6-0.4,1.1-0.5c0.2,0,0.3,0,0.5,0
			c0.7,0,1.2,0.2,1.8,0.7c0.7,0.5,2.3,2.3,3,3.7c-0.1,0-0.1,0-0.2,0C97.7,19.5,97.6,19.5,97.6,19.4z"/>
		<path class="st2" d="M94.8,22.5c0.2,0,0.5,0,0.8,0c0.1,0.1,0.1,0.2,0.2,0.3c-0.3,0-0.5,0-0.7,0c-0.1,0-0.2,0-0.3,0
			c-0.6-0.1-0.9-0.2-1.2-0.8c-0.2-0.3-0.6-1.2-1-2.2c0.1,0,0.2,0,0.3,0c0.4,0.9,0.7,1.7,0.9,2.1C94.1,22.4,94.2,22.5,94.8,22.5z"/>
		<path class="st2" d="M98.4,20.5c0,0.2,0.1,0.3,0.1,0.5c0,0.1,0,0.1,0,0.2c0,0.1,0,0.1,0,0.2c0,0.3-0.1,0.6-0.1,0.6
			c-0.1,0.1-0.2,0.2-0.4,0.3c-0.1-0.1-0.1-0.2-0.2-0.3c0.1-0.1,0.2-0.1,0.3-0.2c0,0,0.2-0.6-0.2-1.7c0.1,0,0.2,0,0.3,0
			c0,0.1,0.1,0.2,0.1,0.2C98.4,20.4,98.4,20.5,98.4,20.5z"/>
		<path class="st2" d="M98.1,19.8c-0.1,0-0.2,0-0.4,0c-0.1-0.1-0.1-0.2-0.2-0.3c0,0,0.1,0,0.2,0c0.1,0,0.1,0,0.2,0
			C98,19.6,98.1,19.7,98.1,19.8C98.1,19.8,98.1,19.8,98.1,19.8z"/>
		<path class="st2" d="M92.8,19.5c-0.1,0-0.2,0-0.3,0c0-0.1-0.1-0.2-0.1-0.3c0.1,0,0.2,0,0.3,0C92.7,19.3,92.7,19.4,92.8,19.5z"/>
		<path class="st2" d="M92.6,19.8c0-0.1-0.1-0.2-0.1-0.3c0.1,0,0.2,0,0.3,0c0,0.1,0.1,0.2,0.1,0.3C92.8,19.8,92.7,19.8,92.6,19.8z"
			/>
		<path class="st2" d="M97.9,20.1c0-0.1-0.1-0.1-0.1-0.2c0,0,0-0.1-0.1-0.1c0.1,0,0.2,0,0.4,0c0.1,0.1,0.1,0.2,0.1,0.3
			C98.1,20.1,98,20.1,97.9,20.1z"/>
		<path class="st2" d="M94.8,22.2C94.8,22.2,94.8,22.2,94.8,22.2C94.8,22.2,94.8,22.2,94.8,22.2c0.1,0,0.1,0,0.2,0
			c1,0,2.5-0.4,2.8-0.6c0,0,0,0,0,0.1l0,0.1l0,0.1c0,0,0,0,0,0.1c-0.5,0.2-1.5,0.5-2.3,0.5C95.3,22.3,95.1,22.3,94.8,22.2z"/>
		<path class="st2" d="M94.6,16.3c-0.7-0.5-1.1-0.6-1.9-0.5c-0.3,0-0.6,0.1-0.7,0.3c0,0-0.1,0.1-0.1,0.3c0.1,0.4,0.5,1.7,1,2.9
			c-0.1,0-0.2,0-0.3,0c-0.5-1.2-0.9-2.4-1-2.8c-0.1-0.5,0.3-0.8,1-0.9c0.8-0.1,1.4,0.1,2.1,0.6c0.7,0.5,2.1,2.1,2.8,3.4
			c-0.1,0-0.3,0-0.4,0C96.4,18.2,95.1,16.7,94.6,16.3z"/>
		<path class="st2" d="M94.8,22.2C94.8,22.2,94.8,22.2,94.8,22.2c0.3,0,0.6,0.1,0.8,0.3c-0.3,0-0.6,0-0.8,0c-0.5-0.1-0.7-0.1-1-0.6
			c-0.2-0.3-0.5-1.2-0.9-2.1c0.1,0,0.2,0,0.4,0c0.4,0.8,0.7,1.6,0.8,1.9C94.3,22.1,94.4,22.2,94.8,22.2z"/>
		<path class="st2" d="M98.1,21.8c0,0.1-0.1,0.1-0.3,0.2c0,0,0-0.1,0-0.1l0-0.1l0-0.1c0,0,0,0,0-0.1c0,0,0,0,0,0c0,0,0,0,0,0
			c0,0,0-0.1,0-0.1c0-0.1,0-0.1,0-0.2c0,0,0-0.1,0-0.2c0-0.1,0-0.2,0-0.3c0-0.1,0-0.1,0-0.2c0-0.2-0.1-0.4-0.2-0.6c0,0,0.1,0,0.1,0
			c0.1,0,0.1,0,0.2,0C98.3,21.2,98.1,21.8,98.1,21.8z"/>
		<path class="st2" d="M97.2,19.4c0.1,0,0.3,0,0.4,0c0.1,0.1,0.1,0.2,0.2,0.3c-0.1,0-0.2,0-0.4,0C97.3,19.6,97.3,19.5,97.2,19.4z"/>
		<path class="st2" d="M93.1,19.5c-0.1,0-0.2,0-0.4,0c0-0.1-0.1-0.2-0.1-0.3c0.1,0,0.2,0,0.3,0C93,19.3,93.1,19.4,93.1,19.5z"/>
		<path class="st2" d="M97.9,20.1c-0.1,0-0.1,0-0.2,0c0,0-0.1,0-0.1,0c0,0,0,0,0-0.1c0-0.1-0.1-0.2-0.1-0.3c0.1,0,0.2,0,0.4,0
			c0,0,0,0.1,0.1,0.1C97.9,20,97.9,20,97.9,20.1z"/>
		<path class="st2" d="M93.2,19.9c-0.1,0-0.2,0-0.4,0c0-0.1-0.1-0.2-0.1-0.3c0.1,0,0.2,0,0.4,0C93.2,19.6,93.2,19.7,93.2,19.9z"/>
		<path class="st2" d="M57.5,85.4c0.4,0.3,1.5,1,2.2,1.1c0.9,0.2,4.5,0.3,5.4,0.1c0.7-0.1,1.8-0.7,2.2-1c0.3,0,0.5,0,0.8,0
			c-0.2,0.6-2.2,1.5-2.9,1.6c-0.9,0.2-4.7,0.1-5.6-0.1c-0.6-0.1-2.6-1.1-2.8-1.7c0,0,0,0,0,0C56.9,85.4,57.1,85.4,57.5,85.4z"/>
		<path class="st2" d="M67.5,85.4v-0.2c0.2,0,0.4,0,0.6,0v0.2c0,0,0,0.1,0,0.1c-0.3,0-0.5,0-0.8,0C67.3,85.5,67.4,85.5,67.5,85.4z"
			/>
		<path class="st2" d="M56.7,85.1c0.1,0,0.4,0,0.6-0.1v0.2c0,0,0.1,0.1,0.1,0.1c-0.3,0-0.6,0-0.7,0c0,0,0,0,0,0c0,0,0-0.1,0-0.1
			V85.1z"/>
		<path class="st2" d="M57.3,85L57.3,85c-0.3,0.1-0.5,0.1-0.6,0.1V85H57.3z"/>
		<path class="st2" d="M68.1,85.2v0.1c-0.2,0-0.4,0-0.6,0v-0.1H68.1z"/>
		<path class="st2" d="M65.1,17.8c-0.9-0.2-4.5-0.1-5.4,0.1c-0.8,0.2-2.1,1-2.4,1.2v0c-0.3,0-0.5,0-0.6,0c0,0,0,0-0.1,0v0
			c0-0.6,2.2-1.7,2.8-1.8c0.6-0.1,2.2-0.2,3.6-0.2c0.9,0,1.7,0,2.1,0.1c0.7,0.1,2.9,1.1,2.9,1.7v0c-0.2,0-0.4,0-0.7,0
			C67.2,18.6,65.8,17.9,65.1,17.8z"/>
		<path class="st2" d="M57.3,19.1v0.2h-0.6v-0.3c0,0,0,0,0.1,0C56.8,19.1,57.1,19.1,57.3,19.1z"/>
		<path class="st2" d="M67.5,19.2v-0.2c0,0,0,0,0,0c0.2,0,0.4,0,0.7,0v0.3H67.5z"/>
		<path class="st2" d="M91.9,74.5c1.1,0.5,13.1,3.4,14.9,3.4c0,0,0.1,0,0.1,0c1.5-0.1,3.7-1.5,5.5-4.1c2.1-3.2,4.4-10.5,4.4-21.5
			c0-11-2.3-18.3-4.4-21.5c-1.8-2.6-4-3.9-5.5-4.1c0,0-0.1,0-0.1,0c0,0,0,0,0,0c-1.6,0-13.6,2.8-14.9,3.4c-1.6,0.7-1.8,1.7-1.4,3.6
			c0,0.1,1.8,9.3,1.8,18.6c0,9.4-1.8,18.5-1.8,18.6C90.2,72.8,90.3,73.8,91.9,74.5z M92.2,73.9c-1.1-0.5-1.4-0.9-1-2.9
			c0-0.1,1.8-9.3,1.8-18.7c0-9.4-1.8-18.6-1.8-18.7c-0.4-2-0.1-2.4,1-2.9c1.2-0.5,13.1-3.3,14.6-3.3l0.1,0c1,0.1,3.2,1,5,3.8
			c2,2.9,4.3,10.2,4.3,21.1c0,10.9-2.3,18.2-4.3,21.2c-1.9,2.8-4,3.7-5,3.8c0,0,0,0,0,0C105.3,77.2,93.4,74.4,92.2,73.9z"/>
		<path class="st2" d="M141.5,80.1c-0.1-0.2,0-0.4,0.1-0.5c0,0,0.1-0.1,0.1-0.2l0,0.8C141.7,80.2,141.6,80.2,141.5,80.1z"/>
		<path class="st2" d="M141.7,79.4l0,0.8c0.1,0.1,0.3,0.1,0.4,0.1c1.1,0,4.9-1,6.8-2.6c1.9-1.7,4.6-8.2,4.5-9.4
			c0-0.2-0.1-0.3-0.2-0.4l-0.1-0.1l-0.1,0C152.1,67.8,143,77.8,141.7,79.4z M152.8,68.6c-0.3,1.6-2.6,7.1-4.3,8.5
			c-1.6,1.4-5,2.4-6.2,2.5C143.6,77.8,151,70.1,152.8,68.6z"/>
		<path class="st2" d="M141.6,24.9c-0.1-0.1-0.2-0.3-0.1-0.5c0,0,0.1,0,0.1-0.1L141.6,24.9C141.6,24.9,141.6,24.9,141.6,24.9z"/>
		<path class="st2" d="M142.1,24.2c-0.2,0-0.4,0-0.5,0.2l0,0.6c0.6,0.9,10.4,11.8,11.5,11.8h0.1l0.1-0.1c0.1-0.1,0.2-0.2,0.2-0.4
			c0.1-1.2-2.6-7.8-4.5-9.4C147.1,25.2,143.2,24.2,142.1,24.2z M142.3,24.8c1.2,0.1,4.6,1.1,6.2,2.5c1.7,1.5,4,7,4.3,8.6
			C151.2,34.6,143.6,26.7,142.3,24.8z"/>
		<path class="st2" d="M155.1,52.3c0,4.7,0.1,5.4,0.7,5.4c1.1,0,1.4-3.9,1.4-5.4c0-1.5-0.2-5.4-1.4-5.4
			C155.2,46.8,155.1,47.6,155.1,52.3z"/>
	</g>
</g>
<g>
</g>
<g>
</g>
<g>
</g>
<g>
</g>
<g>
</g>
<g>
</g>
</svg>
