<?xml version="1.0" encoding="utf-8"?>
<!-- Generator: Adobe Illustrator 16.0.4, SVG Export Plug-In . SVG Version: 6.00 Build 0)  -->
<!DOCTYPE svg PUBLIC "-//W3C//DTD SVG 1.1//EN" "http://www.w3.org/Graphics/SVG/1.1/DTD/svg11.dtd">
<svg version="1.1" id="car" xmlns="http://www.w3.org/2000/svg" xmlns:xlink="http://www.w3.org/1999/xlink" x="0px" y="0px"
	 width="385px" height="115px" viewBox="0 0 385 115" style="enable-background:new 0 0 385 115;" xml:space="preserve">
<style type="text/css">
<![CDATA[
	.st0{fill:#231F20;}
	.st1{fill:url(#SVGID_1_);}
	.st2{fill:#FFFFFF;}
	.st3{fill:none;}
	.st4{fill:#D1D3D4;}
]]>
</style>
<g>
	<g>
		<rect x="8.9" y="19.1" class="st4" width="29.6" height="6"/>
		<rect x="63.6" y="19.1" class="st4" width="29.6" height="6"/>
		<rect x="118.2" y="19.1" class="st4" width="29.6" height="6"/>
		<rect x="172.9" y="19.1" class="st4" width="29.6" height="6"/>
		<rect x="227.5" y="19.1" class="st4" width="29.6" height="6"/>
		<rect x="282.2" y="19.1" class="st4" width="29.6" height="6"/>
		<rect x="336.8" y="19.1" class="st4" width="29.6" height="6"/>
	</g>
	<g>
		
			<linearGradient id="SVGID_1_" gradientUnits="userSpaceOnUse" x1="148.0449" y1="51.6113" x2="364.1112" y2="51.6113" gradientTransform="matrix(1 0 0 1 0 11.7773)">
			<stop  offset="0" style="stop-color:#FFFFFF"/>
			<stop  offset="0.4609" style="stop-color:#FFFFFF;stop-opacity:0.55"/>
			<stop  offset="1" style="stop-color:#FFFFFF;stop-opacity:0.3"/>
		</linearGradient>
		<path class="st1" d="M326,71c-35.1-8.1-46.4-10.1-51.8-31.6c-5.5-21.5-20.6-32.3-58.8-25.6c-33.7,5.9-65.2,25.7-72.2,30.3
			c1.2,0.4,2.4,0.8,3.9,1.3c3.6,1.3,4.9,2.3,6.8,5.5c2,3.5,5,14.9,5,23.6c0,8.7-3,20.1-5,23.6c-1.9,3.2-3.1,4.2-6.8,5.5
			c-1.4,0.5-2.7,1-3.8,1.3c10.1,1.8,66.6,11.6,117.7,9.8C468.2,107.4,361.1,79.1,326,71z"/>
		<path class="st3" d="M64.6,41.3c0.8,0,1.7,0,2.7-0.1c-0.5-0.3-1.5-0.9-2.2-1c-0.9-0.2-4.5-0.1-5.4,0.1c-0.7,0.2-1.8,0.8-2.2,1.1
			C58.7,41.4,61.3,41.4,64.6,41.3z"/>
		<path class="st3" d="M59.7,108.9c0.9,0.2,4.5,0.3,5.4,0.1c0.8-0.1,2.1-0.9,2.4-1.2c-1,0-1.9-0.1-2.8-0.1c-3.4-0.1-6.1-0.2-7.3-0.1
			v0C57.6,107.9,58.9,108.7,59.7,108.9z"/>
		<path class="st0" d="M156.5,74.5c0-2.4-0.4-4-0.6-4.6c-0.1,0.8-0.1,3.1-0.1,4.6c0,1.5,0,3.8,0.1,4.6
			C156.2,78.5,156.5,76.9,156.5,74.5z"/>
		<path class="st3" d="M116.5,48.7c-1.1,0-2,0.1-2.6,0.1c1.7,1.6,6.6,7.8,6.6,25.7c0,17.9-4.9,24-6.6,25.7c0.6,0.1,1.5,0.1,2.6,0.1
			c1.1,0,2.2-0.1,3.2-0.2c2.3-0.3,13.9-4.4,21.9-7.6l0.1-36c-8.1-3.2-19.7-7.3-22-7.6C118.7,48.8,117.6,48.7,116.5,48.7z"/>
		<path class="st3" d="M91.2,55.8c0,0.1,1.8,9.3,1.8,18.7c0,9.4-1.8,18.6-1.8,18.7c-0.4,2-0.1,2.4,1,2.9c1.2,0.5,13.1,3.3,14.6,3.3
			l0.1,0c1-0.1,3.2-1,5-3.8c2-2.9,4.3-10.2,4.3-21.1c0-10.9-2.3-18.2-4.3-21.2c-1.9-2.8-4-3.7-5-3.8c0,0,0,0,0,0
			c-1.5,0-13.4,2.8-14.7,3.3C91.1,53.4,90.8,53.8,91.2,55.8z"/>
		<path class="st3" d="M98.4,42.8c0,0.2,0.1,0.4,0.1,0.5c0,0,0,0,0,0c0,0.1,0,0.3,0,0.4c0,0,0,0.1,0,0.1c0,0.1,0,0.2,0,0.2
			c0,0,0,0,0,0c0.1,0.2,0.3,0.6,0.8,0.9c0.6,0.5,1.5,0.8,1.5,0.8l1,0.3l-6.5,1.7l-0.1-0.3c0-0.1-0.1-0.7,0-1.1
			c0.1-0.3,0.1-0.4,0-0.8c-0.1-0.3-0.2-0.3-0.5-0.4c0,0,0,0,0,0c-0.3,0-0.5-0.1-0.7-0.2c-0.1-0.1-0.2-0.1-0.3-0.2
			c-0.1-0.1-0.2-0.2-0.2-0.4c-0.2-0.3-0.6-1.2-1-2.2c-4.6-0.2-9.6-0.4-14-0.4c-4.8,0-9.9,0.1-13.9,0.3C62,42,59.7,42,58.2,42
			c-0.9,0-1.4,0-1.6-0.1c-1.2-0.2-5.8-0.9-9.9-1.4c-1.3-0.1-3-0.2-5.1-0.2c-3.6,0-8.1,0.2-11.8,0.7c-5.2,0.6-15.5,3.2-20.3,5.5
			C4.9,48.8,2.8,51.5,2,56c-0.8,5-1.4,12.2-1.4,18.5C0.6,80.8,1.2,88,2,93c0.8,4.5,2.9,7.2,7.6,9.5c4.8,2.3,15.1,5,20.3,5.5
			c3.7,0.4,8.1,0.7,11.7,0.7c2,0,3.8-0.1,5.1-0.2c4.1-0.5,8.7-1.1,9.9-1.4c0.2,0,0.8-0.1,1.6-0.1c1.4,0,3.7,0.1,6.4,0.1
			c4.1,0.1,9.1,0.3,13.9,0.3c4.4,0,9.4-0.2,14-0.4c0.4-1,0.8-1.9,1-2.2c0.3-0.6,0.6-0.7,1.2-0.8c0.3,0,0.4-0.1,0.5-0.4
			c0.1-0.4,0.1-0.5,0-0.8c-0.1-0.4,0-1,0-1.1l0.1-0.3l6.5,1.7l-1,0.3c0,0-0.9,0.3-1.5,0.8c-0.4,0.3-0.7,0.7-0.8,0.9
			c0,0.1,0,0.2,0,0.4c0,0.1,0,0.1,0,0.2c0,0.1,0,0.1,0,0.2c0,0.1,0,0.3-0.1,0.5c0,0,0,0.1,0,0.1c0,0.1,0,0.2-0.1,0.2
			c3.4-0.2,6.3-0.3,8.2-0.4c4.4-0.1,6.6,0.1,10.6,0.5c1,0.1,2.2,0.2,3.6,0.3c6.4,0.6,11.8,0.2,16.9-1.1c1.5-0.4,2.9-0.8,4.4-1.3
			c-0.2,0-0.3-0.1-0.3-0.1l0-2.3c0,0-0.1,0-0.1-0.1c-0.1-0.2,0-0.4,0.1-0.5c0,0,0,0,0,0l0-8.7c-8.1,3.2-19.6,7.2-21.8,7.6
			c-1,0.2-2.1,0.2-3.3,0.2c-2,0-3.4-0.2-3.4-0.2l-0.8-0.1l0.7-0.4c0.1,0,6.9-4.8,6.9-25.6c0-21-6.8-25.6-6.9-25.6l-0.7-0.4l0.8-0.1
			c0.1,0,1.5-0.2,3.4-0.2c1.2,0,2.3,0.1,3.3,0.2c2.3,0.3,13.8,4.4,21.9,7.6l0-8.5c-0.1-0.1-0.1-0.2-0.1-0.2
			c-0.1-0.1-0.2-0.3-0.1-0.5c0-0.1,0.1-0.1,0.2-0.2l0-1.5c0,0,0.3-0.2,0.8-0.5c-1.7-0.6-3.3-1-5-1.5c-5.1-1.3-10.5-1.7-16.9-1.1
			c-1.3,0.1-2.5,0.2-3.5,0.3c-4.1,0.4-6.3,0.6-10.7,0.5c-1.9,0-4.8-0.2-8.2-0.4c0,0.1,0.1,0.2,0.1,0.2
			C98.4,42.7,98.4,42.7,98.4,42.8z M16.2,88.3c0.4,2.2,1.1,3.5,1.1,3.5l0.3,0.5l-0.6,0c-0.3,0-8-0.4-9.5-0.7
			c-1.6-0.3-2.5-0.7-2.9-2.1c-0.4-1.4-1.5-7.9-1.5-15c0-7.1,1.1-13.6,1.5-15c0.4-1.4,1.3-1.7,2.9-2.1c1.5-0.3,9.2-0.7,9.5-0.7l0.6,0
			l-0.3,0.5c0,0-0.7,1.3-1.1,3.5c-0.4,2.2-0.8,8.4-0.8,13.8C15.4,79.9,15.8,86.1,16.2,88.3z M43.2,86.1c0.1,1.3,0.1,2.3,0.1,2.8
			c0,2.3-0.8,3.2-2.7,3.3c-0.2,0-0.5,0-0.8,0c-3.4,0-14-0.4-15.7-0.7c-2-0.4-2.6-0.8-3.2-2.9c-0.5-2-0.8-7.1-0.8-14.1
			c0-6.9,0.3-12.1,0.8-14.1c0.6-2.1,1.2-2.5,3.2-2.9c1.7-0.3,12.4-0.7,15.7-0.7c0.4,0,0.7,0,0.9,0c2,0.1,2.7,1.1,2.7,3.3
			c0,0.5-0.1,1.5-0.1,2.8c-0.2,2.8-0.4,6.9-0.4,11.6C42.8,79.1,43,83.3,43.2,86.1z M85.7,94c-0.2,0.1-0.7,0.4-6.1,0.4
			c-10,0-29.5-1-31.2-2.1c-2.3-1.4-2.6-9.4-2.6-17.8c0-8.4,0.3-16.4,2.6-17.8c1.7-1,21.3-2.1,31.2-2.1c5.4,0,5.9,0.3,6.1,0.4
			c2,1.1,3.5,9.3,3.5,19.5C89.2,84.7,87.8,92.8,85.7,94z M106.8,48.9c0,0,0.1,0,0.1,0c1.5,0.1,3.7,1.5,5.5,4.1
			c2.1,3.2,4.4,10.5,4.4,21.5c0,11-2.3,18.3-4.4,21.5c-1.8,2.6-4,3.9-5.5,4.1c0,0-0.1,0-0.1,0c0,0,0,0,0,0c-1.6,0-13.6-2.8-14.9-3.4
			c-1.6-0.7-1.8-1.7-1.4-3.6c0-0.1,1.8-9.3,1.8-18.6c0-9.4-1.8-18.5-1.8-18.6c-0.4-1.9-0.3-2.9,1.4-3.6C93,51.8,105,48.9,106.8,48.9
			z"/>
		<path class="st3" d="M7.6,58.1c-1.5,0.3-2.1,0.6-2.4,1.6C4.8,61,3.7,67.6,3.7,74.5c0,6.9,1.1,13.5,1.5,14.8c0.3,1,0.9,1.3,2.4,1.6
			c1.3,0.2,7.1,0.5,8.9,0.6c-0.3-0.6-0.7-1.7-0.9-3.2c-0.4-2.3-0.8-8.5-0.8-13.9c0-5.4,0.3-11.7,0.8-13.9c0.3-1.5,0.7-2.6,0.9-3.2
			C14.7,57.5,8.9,57.8,7.6,58.1z"/>
		<path class="st3" d="M85.4,55.6c-0.1-0.1-0.9-0.3-5.8-0.3c-10.5,0-29.5,1.1-30.9,2c-2.3,1.4-2.3,12.5-2.3,17.2
			c0,4.7,0,15.8,2.3,17.2c1.5,0.9,20.4,2,30.9,2c4.8,0,5.6-0.2,5.8-0.3c1.6-0.9,3.2-8.2,3.2-18.9C88.6,63.8,87,56.5,85.4,55.6z"/>
		<path class="st3" d="M42.7,60.1c0-2.2-0.7-2.6-2.1-2.7c-0.2,0-0.4,0-0.8,0c-3.3,0-13.9,0.4-15.6,0.7c-1.8,0.3-2.2,0.6-2.7,2.5
			c-0.5,1.9-0.8,7.1-0.8,13.9c0,6.8,0.3,12,0.8,13.9c0.5,1.9,0.9,2.1,2.7,2.5c1.7,0.3,12.4,0.7,15.6,0.7c0.4,0,0.6,0,0.8,0
			c1.4-0.1,2.1-0.5,2.1-2.7c0-0.5-0.1-1.5-0.1-2.8c-0.2-2.8-0.4-7-0.4-11.6c0-4.6,0.3-8.8,0.4-11.6C42.7,61.6,42.7,60.6,42.7,60.1z"
			/>
		<path class="st2" d="M67.5,41.5v-0.2c0,0-0.1-0.1-0.2-0.2c-0.9,0-1.8,0.1-2.7,0.1c-3.3,0.1-5.9,0.2-7.1,0.1
			c-0.1,0-0.1,0.1-0.1,0.1v0.2C58.9,41.8,62.7,41.6,67.5,41.5z"/>
		<path class="st2" d="M68.1,41.5c3.3-0.1,6.9-0.2,10.5-0.2c4.3,0,9.3,0.2,13.9,0.4c0-0.1-0.1-0.2-0.1-0.3
			c-4.6-0.2-9.4-0.4-13.7-0.4c-3.5,0-7.2,0.1-10.5,0.2c0,0,0,0.1,0,0.1V41.5z"/>
		<path class="st2" d="M137.6,106.3c-4.9,1.3-10.3,1.7-17,1.1c-6.7-0.6-8.7-0.9-14.2-0.9c-1.9,0-4.9,0.2-8.3,0.4c0,0,0,0,0,0.1
			c0,0.1-0.1,0.2-0.1,0.3c3.5-0.2,6.5-0.4,8.5-0.4c4.3-0.1,6.5,0.1,10.5,0.5c1.1,0.1,2.2,0.2,3.6,0.3c6.5,0.6,12,0.2,17.1-1.1
			c1.9-0.5,3.6-1,5.5-1.7c-0.2,0-0.5-0.1-0.6-0.1C140.9,105.4,139.3,105.9,137.6,106.3z"/>
		<path class="st2" d="M98.1,42.1c3.4,0.2,6.4,0.3,8.3,0.4c5.5,0.1,7.5-0.3,14.2-0.9c6.7-0.6,12.1-0.2,17,1.1c1.9,0.5,3.5,1,5.3,1.6
			c0.1-0.1,0.2-0.1,0.3-0.2c-1.9-0.6-3.6-1.2-5.5-1.7c-5.1-1.3-10.6-1.7-17.1-1.1c-1.3,0.1-2.5,0.2-3.5,0.3
			c-4.1,0.4-6.2,0.6-10.6,0.5c-2,0-5-0.2-8.5-0.4C98,41.8,98.1,41.9,98.1,42.1C98.1,42,98.1,42,98.1,42.1z"/>
		<path class="st2" d="M153.8,98.1c2-3.5,5-14.9,5-23.6c0-8.7-3-20.1-5-23.6c-1.9-3.2-3.1-4.2-6.8-5.5c-1.4-0.5-2.7-1-3.9-1.3
			c-0.1,0.1-0.2,0.2-0.3,0.2c1.3,0.4,2.6,0.9,4.1,1.4c3.6,1.3,4.8,2.3,6.6,5.4c2.1,3.5,5,14.8,5,23.4c0,8.6-2.9,19.9-5,23.4
			c-1.8,3.1-3,4.1-6.6,5.4c-1.6,0.6-3,1.1-4.4,1.5c0.2,0,0.4,0.1,0.6,0.1c1.1-0.4,2.4-0.8,3.8-1.3
			C150.7,102.3,151.9,101.3,153.8,98.1z"/>
		<path class="st2" d="M78.6,107.7c-9.8,0-20.6-0.6-21.9-0.3c-1.3,0.3-5.9,0.9-10,1.4c-4.3,0.5-11.6,0.2-16.9-0.4
			c-5.3-0.6-15.6-3.3-20.4-5.6c-4.8-2.3-7-5.1-7.7-9.7c-0.8-4.9-1.4-12.2-1.4-18.5c0-6.4,0.6-13.7,1.4-18.5c0.8-4.6,2.9-7.4,7.7-9.7
			c4.8-2.3,15.1-5,20.4-5.6c5.3-0.6,12.7-0.9,16.9-0.4c4,0.4,8.7,1.1,10,1.4c0,0,0,0,0,0v-0.2c0,0,0-0.1,0-0.1
			c-1.3-0.2-5.9-0.9-10-1.4c-1.4-0.1-3.1-0.2-5.1-0.2c-3.7,0-8.1,0.2-11.9,0.7C24.6,41,14.1,43.7,9.3,46c-4.9,2.4-7.1,5.1-7.9,9.9
			C0.5,61,0,68.3,0,74.5c0,6.3,0.5,13.6,1.4,18.6c0.8,4.8,3,7.6,7.9,9.9c4.8,2.3,15.3,5,20.5,5.6c3.7,0.4,8.1,0.7,11.8,0.7
			c2.1,0,3.8-0.1,5.2-0.2c4.1-0.4,8.6-1.1,9.9-1.4v-0.3h0.6v0.2c1.2,0,3.9,0,7.3,0.1c0.9,0,1.9,0.1,2.8,0.1c0,0,0,0,0,0v-0.2h0.6
			v0.3c3.3,0.1,6.9,0.2,10.5,0.2c4.3,0,9.2-0.2,13.7-0.4c0-0.1,0.1-0.2,0.1-0.3C87.8,107.5,82.9,107.7,78.6,107.7z"/>
		<path class="st2" d="M78.6,107.4c-4.8,0-9.9-0.1-13.9-0.3c-2.7-0.1-5-0.1-6.4-0.1c-0.9,0-1.4,0-1.6,0.1c-1.2,0.2-5.8,0.9-9.9,1.4
			c-1.4,0.1-3.1,0.2-5.1,0.2c-3.6,0-8-0.2-11.7-0.7c-5.2-0.6-15.5-3.2-20.3-5.5C4.9,100.2,2.8,97.5,2,93c-0.8-5-1.4-12.2-1.4-18.5
			C0.6,68.3,1.2,61,2,56c0.8-4.6,2.9-7.2,7.6-9.5c4.8-2.3,15.1-5,20.3-5.5c3.7-0.4,8.1-0.7,11.8-0.7c2,0,3.7,0.1,5.1,0.2
			c4.1,0.5,8.7,1.1,9.9,1.4c0.2,0,0.8,0.1,1.6,0.1c1.4,0,3.7-0.1,6.4-0.1c4.1-0.1,9.1-0.3,13.9-0.3c4.4,0,9.4,0.2,14,0.4
			c0-0.1-0.1-0.2-0.1-0.3c-4.6-0.2-9.5-0.4-13.9-0.4c-3.5,0-7.2,0.1-10.5,0.2v0.1h-0.6v-0.1c-4.7,0.1-8.6,0.3-10.1,0.2v0.1h-0.6
			v-0.1c0,0,0,0,0,0c-1.3-0.3-5.9-0.9-10-1.4c-4.3-0.5-11.6-0.1-16.9,0.4c-5.3,0.6-15.6,3.3-20.4,5.6c-4.8,2.3-7,5.1-7.7,9.7
			c-0.8,4.9-1.4,12.2-1.4,18.5c0,6.3,0.6,13.6,1.4,18.5c0.8,4.6,2.9,7.4,7.7,9.7c4.8,2.3,15.1,5,20.4,5.6c5.3,0.6,12.7,0.9,16.9,0.4
			c4-0.4,8.7-1.1,10-1.4c1.3-0.3,12.1,0.3,21.9,0.3c4.3,0,9.3-0.2,13.9-0.4c0-0.1,0.1-0.2,0.1-0.3C87.9,107.2,82.9,107.4,78.6,107.4
			z"/>
		<path class="st2" d="M137.5,106c-5,1.3-10.4,1.7-16.9,1.1c-1.4-0.1-2.6-0.2-3.6-0.3c-4-0.4-6.2-0.6-10.6-0.5
			c-1.9,0-4.8,0.2-8.2,0.4c0,0.1-0.1,0.2-0.1,0.3c3.4-0.2,6.4-0.3,8.3-0.4c5.5-0.1,7.5,0.3,14.2,0.9c6.7,0.6,12.1,0.2,17-1.1
			c1.8-0.5,3.3-0.9,5-1.5c-0.3-0.1-0.5-0.1-0.6-0.1C140.4,105.2,139,105.6,137.5,106z"/>
		<path class="st2" d="M120.6,41.6c-6.7,0.6-8.7,0.9-14.2,0.9c-1.9,0-4.9-0.2-8.3-0.4c0.1,0.1,0.1,0.2,0.1,0.3
			c3.4,0.2,6.3,0.3,8.2,0.4c4.4,0.1,6.6-0.1,10.7-0.5c1-0.1,2.2-0.2,3.5-0.3c6.4-0.6,11.8-0.2,16.9,1.1c1.7,0.5,3.3,0.9,5,1.5
			c0.1-0.1,0.2-0.1,0.3-0.2c-1.8-0.6-3.4-1.1-5.3-1.6C132.7,41.4,127.3,41,120.6,41.6z"/>
		<path class="st2" d="M146.8,46c3.5,1.2,4.6,2.2,6.4,5.3c2,3.4,5,14.7,5,23.3c0,8.6-3,19.9-5,23.3c-1.8,3.1-2.9,4-6.4,5.3
			c-1.9,0.7-3.5,1.2-4.9,1.7c0.2,0,0.4,0.1,0.6,0.1c1.3-0.4,2.8-0.9,4.4-1.5c3.6-1.3,4.8-2.3,6.6-5.4c2.1-3.5,5-14.8,5-23.4
			c0-8.6-2.9-19.9-5-23.4c-1.8-3.1-3-4.1-6.6-5.4c-1.5-0.5-2.8-1-4.1-1.4c-0.1,0.1-0.2,0.2-0.3,0.2C143.8,44.9,145.2,45.4,146.8,46z
			"/>
		<path class="st2" d="M119.7,100.1c-1,0.2-2.1,0.2-3.2,0.2c-1.1,0-2-0.1-2.6-0.1c1.7-1.6,6.6-7.8,6.6-25.7
			c0-17.9-4.9-24.1-6.6-25.7c0.6-0.1,1.5-0.1,2.6-0.1c1.1,0,2.2,0.1,3.2,0.2c2.3,0.3,13.9,4.4,22,7.6v-0.6
			c-8.1-3.2-19.6-7.3-21.9-7.6c-1-0.2-2.1-0.2-3.3-0.2c-2,0-3.4,0.2-3.4,0.2l-0.8,0.1l0.7,0.4c0.1,0,6.9,4.7,6.9,25.6
			c0,20.9-6.8,25.6-6.9,25.6l-0.7,0.4l0.8,0.1c0.1,0,1.5,0.2,3.4,0.2c1.2,0,2.3-0.1,3.3-0.2c2.3-0.3,13.7-4.3,21.8-7.6l0-0.7
			C133.6,95.7,122,99.8,119.7,100.1z"/>
		<path class="st2" d="M152.8,74.5c0-4.1-1-13.2-2.8-14.9c-0.6-0.6-4-2-8.2-3.7v0.6c4,1.6,7.2,3,7.8,3.5c1.6,1.5,2.6,10.3,2.6,14.4
			c0,4.1-1,12.9-2.6,14.4c-0.6,0.6-3.8,2-7.9,3.6l0,0.7c4.3-1.7,7.7-3.2,8.3-3.8C151.8,87.7,152.8,78.7,152.8,74.5z"/>
		<path class="st2" d="M17.3,57.2l0.3-0.5l-0.6,0c-0.3,0-8,0.4-9.5,0.7c-1.6,0.3-2.5,0.7-2.9,2.1c-0.4,1.4-1.5,7.9-1.5,15
			c0,7.1,1.1,13.6,1.5,15c0.4,1.3,1.3,1.7,2.9,2.1c1.5,0.3,9.2,0.6,9.5,0.7l0.6,0l-0.3-0.5c0,0-0.7-1.3-1.1-3.5
			c-0.4-2.2-0.8-8.4-0.8-13.8c0-5.4,0.3-11.6,0.8-13.8C16.6,58.5,17.3,57.3,17.3,57.2z M14.8,74.5c0,5.4,0.3,11.7,0.8,13.9
			c0.3,1.5,0.7,2.6,0.9,3.2c-1.8-0.1-7.6-0.4-8.9-0.6c-1.5-0.3-2.1-0.6-2.4-1.6C4.8,88,3.7,81.4,3.7,74.5c0-6.9,1.1-13.5,1.5-14.8
			c0.3-1,0.9-1.3,2.4-1.6c1.3-0.3,7.1-0.5,8.9-0.6c-0.3,0.6-0.7,1.7-0.9,3.2C15.1,62.9,14.8,69.1,14.8,74.5z"/>
		<path class="st2" d="M43.3,60.1c0-2.3-0.8-3.2-2.7-3.3c-0.2,0-0.5,0-0.9,0c-3.4,0-14,0.4-15.7,0.7c-2,0.4-2.6,0.8-3.2,2.9
			c-0.5,2-0.8,7.1-0.8,14.1c0,6.9,0.3,12.1,0.8,14.1c0.6,2.1,1.2,2.5,3.2,2.9c1.7,0.3,12.4,0.7,15.7,0.7c0.4,0,0.7,0,0.8,0
			c1.9-0.1,2.7-1.1,2.7-3.3c0-0.5-0.1-1.5-0.1-2.8c-0.2-2.8-0.4-6.9-0.4-11.5c0-4.6,0.3-8.8,0.4-11.6C43.3,61.6,43.3,60.7,43.3,60.1
			z M42.6,86.1c0.1,1.3,0.1,2.3,0.1,2.8c0,2.2-0.7,2.6-2.1,2.7c-0.2,0-0.4,0-0.8,0c-3.3,0-13.9-0.4-15.6-0.7
			c-1.8-0.4-2.2-0.6-2.7-2.5c-0.5-1.9-0.8-7.1-0.8-13.9c0-6.8,0.3-12,0.8-13.9c0.5-1.9,0.9-2.1,2.7-2.5c1.7-0.3,12.3-0.7,15.6-0.7
			c0.4,0,0.6,0,0.8,0c1.4,0.1,2.1,0.5,2.1,2.7c0,0.5-0.1,1.5-0.1,2.8c-0.2,2.8-0.4,7-0.4,11.6C42.1,79.1,42.4,83.3,42.6,86.1z"/>
		<path class="st2" d="M85.7,55.1c-0.2-0.1-0.7-0.4-6.1-0.4c-10,0-29.5,1-31.2,2.1c-2.3,1.4-2.6,9.4-2.6,17.8
			c0,8.4,0.3,16.4,2.6,17.8c1.7,1,21.3,2.1,31.2,2.1c5.4,0,5.9-0.3,6.1-0.4c2-1.1,3.5-9.3,3.5-19.4C89.2,64.4,87.8,56.2,85.7,55.1z
			 M85.4,93.4c-0.1,0.1-0.9,0.3-5.8,0.3c-10.5,0-29.5-1.1-30.9-2c-2.3-1.4-2.3-12.5-2.3-17.2c0-4.7,0-15.9,2.3-17.2
			c1.5-0.9,20.4-2,30.9-2c4.8,0,5.6,0.2,5.8,0.3c1.6,0.9,3.2,8.2,3.2,18.9C88.6,85.2,87,92.5,85.4,93.4z"/>
		<path class="st2" d="M98,44.5c0.2,0.2,0.4,0.6,0.8,0.9c0.3,0.2,0.6,0.4,0.8,0.5l-3.9,1c0-0.2,0-0.3,0-0.4c0.1-0.4,0.2-0.6,0-1.2
			c0-0.1-0.1-0.2-0.1-0.2c-0.3,0-0.5,0-0.7,0c-0.1,0-0.2,0-0.3,0c0.3,0,0.4,0.1,0.5,0.4c0.1,0.4,0.1,0.5,0,0.8c-0.1,0.4,0,1,0,1.1
			l0.1,0.3l6.5-1.7l-1-0.3c0,0-0.9-0.3-1.5-0.8c-0.4-0.3-0.7-0.7-0.8-0.9c0,0,0,0,0,0c0,0.1,0,0.1,0,0.2
			C98.4,44.3,98.2,44.4,98,44.5z"/>
		<path class="st0" d="M97.8,42.9c0-0.2-0.1-0.4-0.2-0.6l0,0C97.7,42.6,97.7,42.8,97.8,42.9z"/>
		<polygon class="st0" points="97.8,43.9 97.8,43.9 97.8,43.9 		"/>
		<path class="st0" d="M97.6,42.3C97.5,42.3,97.5,42.3,97.6,42.3C97.5,42.3,97.5,42.3,97.6,42.3L97.6,42.3z"/>
		<path class="st2" d="M94,44.9c0.2,0.1,0.4,0.2,0.7,0.2c0,0,0,0,0,0c0,0,0,0,0,0C94.4,45.1,94.2,45,94,44.9z"/>
		<path class="st2" d="M97.9,44.2c-0.5,0.3-1.5,0.5-2.3,0.6c0.1,0.1,0.1,0.2,0.2,0.3c0.8-0.1,1.7-0.3,2.3-0.6
			C97.9,44.4,97.9,44.3,97.9,44.2z"/>
		<path class="st2" d="M98.3,42.6c0-0.1-0.1-0.2-0.1-0.2c0,0,0,0,0,0C98.3,42.5,98.3,42.6,98.3,42.6z"/>
		<path class="st2" d="M98.1,42C98.1,42,98.1,42,98.1,42L98.1,42C98.1,42,98.1,42,98.1,42z"/>
		<path class="st2" d="M98.3,42.4c0-0.1-0.1-0.2-0.1-0.3h0C98.2,42.2,98.2,42.3,98.3,42.4C98.2,42.4,98.3,42.4,98.3,42.4z"/>
		<path class="st2" d="M91.6,38.6c-0.1-0.5,0.3-0.8,1-0.9c0.8-0.1,1.4,0.1,2.1,0.6c0.7,0.5,2.1,2.1,2.8,3.4c0,0,0,0,0,0
			c0.1,0,0.2,0,0.4,0c-0.8-1.4-2.3-3.2-3-3.7c-0.8-0.6-1.4-0.7-2.3-0.6c-0.5,0.1-0.9,0.2-1.1,0.5c-0.2,0.2-0.2,0.5-0.2,0.8
			c0.1,0.4,0.5,1.6,1,2.8c0.1,0,0.2,0,0.3,0C92.1,40.2,91.7,39,91.6,38.6z"/>
		<path class="st2" d="M98.1,44c0,0.1-0.1,0.1-0.3,0.2c0,0,0.1,0.1,0.1,0.2c0.2-0.1,0.3-0.2,0.4-0.3c0,0,0-0.1,0-0.2
			c0-0.1,0-0.1,0-0.2c0,0,0-0.1,0-0.1c0-0.1,0-0.2,0-0.4c0,0,0,0,0,0c0-0.1-0.1-0.3-0.1-0.5c0,0,0-0.1,0-0.1c0-0.1-0.1-0.2-0.1-0.2
			c-0.1,0-0.2,0-0.3,0C98.3,43.4,98.1,44,98.1,44z"/>
		<path class="st2" d="M93.8,44.7c0.1,0.1,0.2,0.2,0.3,0.2c0.2,0.1,0.4,0.2,0.7,0.2c0,0,0,0,0,0c0.1,0,0.2,0,0.3,0
			c0.2,0,0.4,0,0.7,0c-0.1-0.1-0.1-0.2-0.2-0.3c-0.3,0-0.6,0-0.8,0c-0.5-0.1-0.7-0.1-1-0.6c-0.2-0.3-0.5-1.1-0.9-2.1
			c-0.1,0-0.2,0-0.3,0c0.4,1,0.8,1.9,1,2.2C93.6,44.5,93.7,44.6,93.8,44.7z"/>
		<path class="st2" d="M92.8,41.8c0-0.1-0.1-0.2-0.1-0.3c-0.1,0-0.2,0-0.3,0c0,0.1,0.1,0.2,0.1,0.3C92.5,41.8,92.6,41.8,92.8,41.8z"
			/>
		<path class="st2" d="M97.6,41.7c0.1,0.1,0.1,0.2,0.2,0.3c0.1,0,0.2,0,0.4,0c0,0,0,0,0-0.1c0-0.1-0.1-0.2-0.1-0.3
			C97.8,41.7,97.7,41.7,97.6,41.7C97.6,41.7,97.6,41.7,97.6,41.7z"/>
		<path class="st2" d="M97.9,42.4c0.1,0,0.2,0,0.3,0c0-0.1-0.1-0.2-0.1-0.3c-0.1,0-0.2,0-0.4,0c0,0,0,0.1,0.1,0.1
			C97.9,42.2,97.9,42.3,97.9,42.4z"/>
		<path class="st2" d="M92.9,42.1c0-0.1-0.1-0.2-0.1-0.3c-0.1,0-0.2,0-0.4,0c0,0.1,0.1,0.2,0.1,0.3C92.7,42.1,92.8,42.1,92.9,42.1z"
			/>
		<path class="st2" d="M97.8,44.2l-0.1-0.1l0-0.1c0,0,0,0,0,0c-0.3,0.2-1.8,0.6-2.8,0.6c-0.1,0-0.2,0-0.2,0c0.3,0,0.5,0.1,0.7,0.3
			C96.3,44.7,97.4,44.5,97.8,44.2C97.9,44.2,97.8,44.2,97.8,44.2z"/>
		<path class="st2" d="M91.9,38.6c0-0.2,0-0.2,0.1-0.3c0.1-0.1,0.3-0.2,0.7-0.3c0.1,0,0.3,0,0.4,0c0.5,0,0.9,0.1,1.5,0.5
			c0.6,0.4,1.9,1.9,2.7,3.2c0.1,0,0.3,0,0.4,0c-0.8-1.3-2.2-3-2.8-3.4c-0.7-0.5-1.3-0.7-2.1-0.6c-0.7,0.1-1.1,0.4-1,0.9
			c0.1,0.4,0.5,1.6,1,2.8c0.1,0,0.2,0,0.3,0C92.5,40.2,92,39,91.9,38.6z"/>
		<path class="st2" d="M94.8,44.8c0.2,0,0.5,0,0.8,0c-0.2-0.2-0.5-0.3-0.7-0.3c-0.4,0-0.5-0.1-0.7-0.5c-0.2-0.3-0.5-1.1-0.8-1.9
			c-0.1,0-0.2,0-0.4,0c0.4,0.9,0.7,1.7,0.9,2.1C94.1,44.7,94.2,44.7,94.8,44.8z"/>
		<path class="st2" d="M97.8,43.1c0,0.1,0,0.2,0,0.3c0,0.1,0,0.1,0,0.2c0,0.1,0,0.1,0,0.2c0,0,0,0.1,0,0.1c0,0,0,0,0,0l0,0
			c0,0,0,0,0,0l0,0.1l0.1,0.1c0,0,0,0,0,0.1c0.1-0.1,0.2-0.1,0.3-0.2c0,0,0.2-0.6-0.2-1.7c-0.1,0-0.2,0-0.3,0c0,0,0,0,0,0
			c0.1,0.2,0.2,0.4,0.2,0.6C97.8,43,97.8,43.1,97.8,43.1z"/>
		<path class="st2" d="M93,41.5c-0.1,0-0.2,0-0.3,0c0,0.1,0.1,0.2,0.1,0.3c0.1,0,0.2,0,0.4,0C93.1,41.7,93,41.6,93,41.5z"/>
		<path class="st2" d="M97.4,42c0.1,0,0.2,0,0.4,0c-0.1-0.1-0.1-0.2-0.2-0.3c-0.1,0-0.3,0-0.4,0C97.3,41.8,97.3,41.9,97.4,42z"/>
		<path class="st2" d="M93.2,42.1c0-0.1-0.1-0.2-0.1-0.3c-0.1,0-0.2,0-0.4,0c0,0.1,0.1,0.2,0.1,0.3C93,42.1,93.1,42.1,93.2,42.1z"/>
		<path class="st2" d="M97.5,42.3C97.5,42.3,97.5,42.3,97.5,42.3C97.6,42.3,97.6,42.3,97.5,42.3c0.2,0.1,0.3,0.1,0.4,0.1
			c0-0.1-0.1-0.1-0.1-0.2c0,0,0-0.1-0.1-0.1c-0.1,0-0.2,0-0.4,0C97.4,42.1,97.5,42.2,97.5,42.3z"/>
		<path class="st2" d="M94.9,111c0.7-0.5,2.3-2.3,3-3.7C97.2,108.7,95.6,110.5,94.9,111z"/>
		<path class="st2" d="M95.7,104c0-0.1,0.1-0.1,0.1-0.2c0.2-0.6,0.1-0.8,0-1.2c0-0.1,0-0.3,0-0.4l3.9,1c-0.3,0.1-0.6,0.3-0.8,0.5
			c-0.4,0.3-0.6,0.7-0.8,0.9c0.2,0.1,0.3,0.2,0.4,0.3c0,0,0.1,0.3,0.1,0.6c0-0.2,0-0.3,0-0.4c0.1-0.2,0.3-0.6,0.8-0.9
			c0.6-0.5,1.5-0.8,1.5-0.8l1-0.3l-6.5-1.7l-0.1,0.3c0,0.1-0.1,0.7,0,1.1c0.1,0.3,0.1,0.4,0,0.8c-0.1,0.3-0.2,0.3-0.5,0.4
			c0.1,0,0.2,0,0.3,0C95.2,103.9,95.5,103.9,95.7,104z"/>
		<path class="st0" d="M97.6,106.7L97.6,106.7c0.1-0.2,0.2-0.4,0.2-0.6C97.7,106.3,97.7,106.5,97.6,106.7z"/>
		<path class="st0" d="M94.1,105c0.2-0.4,0.3-0.4,0.7-0.5C94.4,104.6,94.3,104.6,94.1,105z"/>
		<path class="st0" d="M97.8,105.1C97.8,105.1,97.8,105.1,97.8,105.1C97.8,105.2,97.8,105.2,97.8,105.1
			C97.8,105.2,97.8,105.1,97.8,105.1z"/>
		<path class="st0" d="M97.5,106.8C97.5,106.7,97.5,106.7,97.5,106.8L97.5,106.8C97.5,106.7,97.5,106.7,97.5,106.8z"/>
		<path class="st2" d="M93.1,111.7c0.7,0,1.2-0.2,1.8-0.7C94.2,111.5,93.7,111.7,93.1,111.7L93.1,111.7z"/>
		<path class="st2" d="M95.5,104.3c0.8,0.1,1.9,0.3,2.3,0.5c0,0,0.1-0.1,0.2-0.3c-0.6-0.3-1.5-0.5-2.3-0.6
			C95.7,104.1,95.6,104.2,95.5,104.3z"/>
		<path class="st2" d="M98.2,106.7C98.3,106.7,98.3,106.7,98.2,106.7c0-0.1,0.1-0.2,0.1-0.2C98.3,106.5,98.3,106.6,98.2,106.7z"/>
		<path class="st2" d="M98.1,107C98.1,107,98.1,107,98.1,107C98.1,107,98.1,107,98.1,107C98.1,107,98.1,107,98.1,107z"/>
		<path class="st2" d="M98.2,106.7c0,0.1-0.1,0.2-0.1,0.3c0,0,0,0,0,0C98.2,106.9,98.2,106.8,98.2,106.7
			C98.3,106.7,98.3,106.7,98.2,106.7z"/>
		<path class="st2" d="M97.6,107.3c-0.8,1.3-2.2,3-2.8,3.4c-0.7,0.5-1.3,0.7-2.1,0.6c-0.7-0.1-1.1-0.4-1-0.9c0.1-0.4,0.5-1.6,1-2.8
			c-0.1,0-0.2,0-0.3,0c-0.5,1.2-0.9,2.3-1,2.8c0,0.3,0,0.6,0.2,0.8c0.2,0.3,0.6,0.4,1.1,0.5c0.2,0,0.3,0,0.5,0
			c0.7,0,1.2-0.2,1.8-0.7c0.7-0.5,2.3-2.3,3-3.7c-0.1,0-0.1,0-0.2,0C97.7,107.3,97.6,107.3,97.6,107.3z"/>
		<path class="st2" d="M94.8,104.2c0.2,0,0.5,0,0.8,0c0.1-0.1,0.1-0.2,0.2-0.3c-0.3,0-0.5,0-0.7,0c-0.1,0-0.2,0-0.3,0
			c-0.6,0.1-0.9,0.2-1.2,0.8c-0.2,0.3-0.6,1.2-1,2.2c0.1,0,0.2,0,0.3,0c0.4-0.9,0.7-1.7,0.9-2.1C94.1,104.4,94.2,104.3,94.8,104.2z"
			/>
		<path class="st2" d="M98.4,106.3c0-0.2,0.1-0.3,0.1-0.5c0-0.1,0-0.1,0-0.2c0-0.1,0-0.1,0-0.2c0-0.3-0.1-0.6-0.1-0.6
			c-0.1-0.1-0.2-0.2-0.4-0.3c-0.1,0.1-0.1,0.2-0.2,0.3c0.1,0.1,0.2,0.1,0.3,0.2c0,0,0.2,0.6-0.2,1.7c0.1,0,0.2,0,0.3,0
			c0-0.1,0.1-0.2,0.1-0.2C98.4,106.4,98.4,106.3,98.4,106.3z"/>
		<path class="st2" d="M98.1,107c-0.1,0-0.2,0-0.4,0c-0.1,0.1-0.1,0.2-0.2,0.3c0,0,0.1,0,0.2,0c0.1,0,0.1,0,0.2,0
			C98,107.2,98.1,107.1,98.1,107C98.1,107,98.1,107,98.1,107z"/>
		<path class="st2" d="M92.8,107.3c-0.1,0-0.2,0-0.3,0c0,0.1-0.1,0.2-0.1,0.3c0.1,0,0.2,0,0.3,0C92.7,107.5,92.7,107.4,92.8,107.3z"
			/>
		<path class="st2" d="M92.6,107c0,0.1-0.1,0.2-0.1,0.3c0.1,0,0.2,0,0.3,0c0-0.1,0.1-0.2,0.1-0.3C92.8,106.9,92.7,107,92.6,107z"/>
		<path class="st2" d="M97.9,106.7c0,0.1-0.1,0.1-0.1,0.2c0,0,0,0.1-0.1,0.1c0.1,0,0.2,0,0.4,0c0.1-0.1,0.1-0.2,0.1-0.3
			C98.1,106.7,98,106.7,97.9,106.7z"/>
		<path class="st2" d="M94.8,104.6C94.8,104.6,94.8,104.6,94.8,104.6C94.8,104.6,94.8,104.6,94.8,104.6c0.1,0,0.1,0,0.2,0
			c1,0,2.5,0.4,2.8,0.6c0,0,0,0,0-0.1l0-0.1l0-0.1c0,0,0,0,0-0.1c-0.5-0.2-1.5-0.5-2.3-0.5C95.3,104.4,95.1,104.5,94.8,104.6z"/>
		<path class="st2" d="M94.6,110.5c-0.7,0.5-1.1,0.6-1.9,0.5c-0.3,0-0.6-0.1-0.7-0.3c0,0-0.1-0.1-0.1-0.3c0.1-0.4,0.5-1.7,1-2.9
			c-0.1,0-0.2,0-0.3,0c-0.5,1.2-0.9,2.4-1,2.8c-0.1,0.5,0.3,0.8,1,0.9c0.8,0.1,1.4-0.1,2.1-0.6c0.7-0.5,2.1-2.1,2.8-3.4
			c-0.1,0-0.3,0-0.4,0C96.4,108.6,95.1,110.1,94.6,110.5z"/>
		<path class="st2" d="M94.8,104.6C94.8,104.6,94.8,104.6,94.8,104.6c0.3,0,0.6-0.1,0.8-0.3c-0.3,0-0.6,0-0.8,0
			c-0.5,0.1-0.7,0.1-1,0.6c-0.2,0.3-0.5,1.2-0.9,2.1c0.1,0,0.2,0,0.4,0c0.4-0.8,0.7-1.6,0.8-1.9C94.3,104.6,94.4,104.6,94.8,104.6z"
			/>
		<path class="st2" d="M98.1,105c0-0.1-0.1-0.1-0.3-0.2c0,0,0,0.1,0,0.1l0,0.1l0,0.1c0,0,0,0,0,0.1c0,0,0,0,0,0c0,0,0,0,0,0
			c0,0,0,0.1,0,0.1c0,0.1,0,0.1,0,0.2c0,0,0,0.1,0,0.2c0,0.1,0,0.2,0,0.3c0,0.1,0,0.1,0,0.2c0,0.2-0.1,0.4-0.2,0.6c0,0,0.1,0,0.1,0
			c0.1,0,0.1,0,0.2,0C98.3,105.6,98.1,105,98.1,105z"/>
		<path class="st2" d="M97.2,107.3c0.1,0,0.3,0,0.4,0c0.1-0.1,0.1-0.2,0.2-0.3c-0.1,0-0.2,0-0.4,0C97.3,107.1,97.3,107.2,97.2,107.3
			z"/>
		<path class="st2" d="M93.1,107.2c-0.1,0-0.2,0-0.4,0c0,0.1-0.1,0.2-0.1,0.3c0.1,0,0.2,0,0.3,0C93,107.5,93.1,107.4,93.1,107.2z"/>
		<path class="st2" d="M97.9,106.7c-0.1,0-0.1,0-0.2,0c0,0-0.1,0-0.1,0c0,0,0,0,0,0.1c0,0.1-0.1,0.2-0.1,0.3c0.1,0,0.2,0,0.4,0
			c0,0,0-0.1,0.1-0.1C97.9,106.8,97.9,106.8,97.9,106.7z"/>
		<path class="st2" d="M93.2,106.9c-0.1,0-0.2,0-0.4,0c0,0.1-0.1,0.2-0.1,0.3c0.1,0,0.2,0,0.4,0C93.2,107.1,93.2,107,93.2,106.9z"/>
		<path class="st2" d="M57.5,41.4c0.4-0.3,1.5-1,2.2-1.1c0.9-0.2,4.5-0.3,5.4-0.1c0.7,0.1,1.8,0.7,2.2,1c0.3,0,0.5,0,0.8,0
			c-0.2-0.6-2.2-1.5-2.9-1.6c-0.9-0.2-4.7-0.1-5.6,0.1c-0.6,0.1-2.6,1.1-2.8,1.7c0,0,0,0,0,0C56.9,41.4,57.1,41.4,57.5,41.4z"/>
		<path class="st2" d="M67.5,41.3v0.2c0.2,0,0.4,0,0.6,0v-0.2c0,0,0-0.1,0-0.1c-0.3,0-0.5,0-0.8,0C67.3,41.2,67.4,41.3,67.5,41.3z"
			/>
		<path class="st2" d="M56.7,41.7c0.1,0,0.4,0,0.6,0.1v-0.2c0,0,0.1-0.1,0.1-0.1c-0.3,0-0.6,0-0.7,0c0,0,0,0,0,0c0,0,0,0.1,0,0.1
			V41.7z"/>
		<path class="st2" d="M57.3,41.8L57.3,41.8c-0.3-0.1-0.5-0.1-0.6-0.1v0.1H57.3z"/>
		<path class="st2" d="M68.1,41.6v-0.1c-0.2,0-0.4,0-0.6,0v0.1H68.1z"/>
		<path class="st2" d="M65.1,109c-0.9,0.2-4.5,0.1-5.4-0.1c-0.8-0.2-2.1-1-2.4-1.2v0c-0.3,0-0.5,0-0.6,0c0,0,0,0-0.1,0v0
			c0,0.6,2.2,1.7,2.8,1.8c0.6,0.1,2.2,0.2,3.6,0.2c0.9,0,1.7,0,2.1-0.1c0.7-0.1,2.9-1.1,2.9-1.7v0c-0.2,0-0.4,0-0.7,0
			C67.2,108.1,65.8,108.9,65.1,109z"/>
		<path class="st2" d="M57.3,107.6v-0.2h-0.6v0.3c0,0,0,0,0.1,0C56.8,107.7,57.1,107.7,57.3,107.6z"/>
		<path class="st2" d="M67.5,107.6v0.2c0,0,0,0,0,0c0.2,0,0.4,0,0.7,0v-0.3H67.5z"/>
		<path class="st2" d="M90.5,55.9c0,0.1,1.8,9.3,1.8,18.6c0,9.3-1.8,18.5-1.8,18.6c-0.4,1.9-0.3,2.9,1.4,3.6
			c1.3,0.6,13.3,3.4,14.9,3.4c0,0,0,0,0,0c0,0,0.1,0,0.1,0c1.5-0.1,3.7-1.5,5.5-4.1c2.1-3.2,4.4-10.5,4.4-21.5
			c0-11-2.3-18.4-4.4-21.5c-1.8-2.6-4-3.9-5.5-4.1c0,0-0.1,0-0.1,0c-1.8,0-13.8,2.9-14.9,3.4C90.3,53,90.2,54,90.5,55.9z
			 M106.9,49.6C106.9,49.6,106.9,49.6,106.9,49.6c1,0.1,3.2,1,5,3.8c2,2.9,4.3,10.2,4.3,21.2c0,10.9-2.3,18.2-4.3,21.1
			c-1.9,2.8-4,3.7-5,3.8l-0.1,0c-1.5,0-13.4-2.8-14.6-3.3c-1.1-0.5-1.4-0.9-1-2.9c0-0.1,1.8-9.3,1.8-18.7c0-9.4-1.8-18.6-1.8-18.7
			c-0.4-2-0.1-2.4,1-2.9C93.4,52.3,105.3,49.6,106.9,49.6z"/>
		<path class="st2" d="M141.5,46.7c-0.1,0.2,0,0.4,0.1,0.5c0,0,0.1,0.1,0.1,0.2l0-0.8C141.7,46.6,141.6,46.6,141.5,46.7z"/>
		<path class="st2" d="M153.1,59l0.1,0l0.1-0.1c0.1-0.1,0.2-0.2,0.2-0.4c0.1-1.2-2.6-7.8-4.5-9.4c-1.9-1.6-5.7-2.6-6.8-2.6
			c-0.1,0-0.3,0-0.4,0.1l0,0.8C143,49,152.1,59,153.1,59z M142.3,47.1c1.2,0.1,4.6,1.1,6.2,2.5c1.7,1.5,4,7,4.3,8.5
			C151,56.7,143.6,48.9,142.3,47.1z"/>
		<path class="st2" d="M141.6,101.9c-0.1,0.1-0.2,0.3-0.1,0.5c0,0,0.1,0,0.1,0.1L141.6,101.9C141.6,101.8,141.6,101.9,141.6,101.9z"
			/>
		<path class="st2" d="M148.9,99.9c1.9-1.7,4.6-8.2,4.5-9.4c0-0.2-0.1-0.3-0.2-0.4l-0.1-0.1h-0.1c-1.1,0-10.9,10.9-11.5,11.8l0,0.6
			c0.1,0.1,0.3,0.2,0.5,0.2C143.2,102.6,147.1,101.5,148.9,99.9z M152.8,90.9c-0.3,1.5-2.6,7.1-4.3,8.6c-1.6,1.4-5,2.4-6.2,2.5
			C143.6,100.1,151.2,92.2,152.8,90.9z"/>
		<path class="st2" d="M155.8,80c1.1,0,1.4-3.9,1.4-5.4c0-1.5-0.2-5.4-1.4-5.4c-0.6,0-0.7,0.8-0.7,5.4C155.1,79.2,155.2,80,155.8,80
			z"/>
	</g>
</g>
<g>
</g>
<g>
</g>
<g>
</g>
<g>
</g>
<g>
</g>
<g>
</g>
</svg>
