<?xml version="1.0" encoding="utf-8"?>
<!-- Generator: Adobe Illustrator 19.2.1, SVG Export Plug-In . SVG Version: 6.00 Build 0)  -->
<svg version="1.1" id="flat-sided" xmlns="http://www.w3.org/2000/svg" xmlns:xlink="http://www.w3.org/1999/xlink" x="0px" y="0px"
	 viewBox="0 0 189.2 166.5" style="enable-background:new 0 0 189.2 166.5;" xml:space="preserve">
<style type="text/css">
	.st0{fill-rule:evenodd;clip-rule:evenodd;fill:none;stroke:#999999;stroke-miterlimit:10;}
	.st1{fill:none;stroke:#999999;stroke-miterlimit:2.6131;}
	.st2{fill:#E5E5E5;stroke:#999999;stroke-miterlimit:2.6131;}
	.st3{fill:none;stroke:#999999;stroke-width:0.5;stroke-miterlimit:2.6131;}
	.st4{fill-rule:evenodd;clip-rule:evenodd;fill:#666766;stroke:#999999;stroke-width:0.5;stroke-miterlimit:10;}
	.st5{fill:none;stroke:#999999;stroke-width:0.25;stroke-miterlimit:2.6131;}
	.st6{fill-rule:evenodd;clip-rule:evenodd;fill:#E5E5E5;stroke:#999999;stroke-width:0.5;stroke-miterlimit:10;}
	.st7{fill:#E5E5E5;stroke:#999999;stroke-width:0.5;stroke-miterlimit:2.6131;}
</style>
<path class="st0" d="M30.5,34.7c39.5-0.5,78.9,1,117.6,7c4.3,0.7,8.6,2.7,11.6,5.8c15.6,16.2,26.9,37.5,28,65.9
	c0.1,2.6-1.4,6.3-3.9,6.6l-6.6,0.8c-2.6,0.3-4.7,2.1-7,3.3c-28.3,14.8-59.8,17.7-101.5-13c-1.9-1.4-3.8-3.4-6.2-3.5
	C22.8,105.6-1.5,94,0.9,53.3C1.6,41.5,12,34.9,30.5,34.7z"/>
<path class="st1" d="M24.6,83.9c11.7,7.6,21.4,6.4,29.6-2.3l5.2-1.2c19.6,39.6,79.6,38.8,86.6-5.8l14,21.9l-21.6,0.2"/>
<path class="st2" d="M137.7,47.9c1.3,4,2,8.3,2,12.8c0,21.7-16.2,39.3-36.1,39.3c-32.7,0-44.3-34.8-26.6-60.3L137.7,47.9z"/>
<path class="st3" d="M130.6,50.6c-4.2,9.3-3.9,18.6,1.2,28"/>
<path class="st3" d="M125.8,48.7c-4.6,14.3-3.6,25.8,3.9,34"/>
<path class="st3" d="M120.8,48.1c-3.7,16.1-2.3,29.5,5.6,39.6"/>
<path class="st3" d="M115,47.3c-3.7,18.2-2.3,33.4,5.6,44.7"/>
<path class="st3" d="M109,46.9c-3,17.4-1.2,33.6,6.8,48.3"/>
<path class="st3" d="M103.8,46.5c-1.6,20.3,0.6,36.5,6.2,49.1"/>
<path class="st3" d="M101.4,78.2c0.6,6.2,1.9,12,4.1,17.2"/>
<path class="st3" d="M79.6,42.4c-2.2,15-2.6,30.3,1.2,46.4"/>
<path class="st3" d="M74.6,49c-2.3,10.8-2.2,21.5,1,32.3"/>
<path class="st3" d="M84.8,43.3c-2.1,16.9-1.9,33,1,48.3"/>
<path class="st3" d="M90.6,44.5c-2.7,16.4-2.6,33,1.2,49.9"/>
<path class="st3" d="M96.4,45.3c-2.7,16.4-2.9,33.1-0.6,50.1"/>
<ellipse class="st4" cx="100.2" cy="62.8" rx="7.6" ry="8.2"/>
<ellipse class="st4" cx="100.2" cy="62.8" rx="5.8" ry="6.7"/>
<ellipse class="st4" cx="100.2" cy="62.8" rx="4.6" ry="5"/>
<path class="st5" d="M72.3,38.6c-37,63.5,62.3,97,70.8,25.9"/>
<path class="st6" d="M29.8,37.3l2.1,5.2c-7.5,3.1-12.6,8.1-13.8,16.2l7.4,0.7l-0.2,9.4l-6.8,1.4c1.9,5.2,4.5,9.2,8.3,11.4l-7.9,5.6
	C10.2,82.5-2.3,42.2,29.8,37.3z"/>
<path class="st7" d="M19.2,58l3.3,0.1c0.4-12.5,19.7-17,26.9-7h8.3l-0.1,23.4l-7.7,0.2c-3.5,9.7-20.5,9.1-27.6-4.1l-2.1,0.7
	c1.8,9.9,21.2,20.3,32.5,5.9l6.9-0.4l0.3-27.3L51,49.7C40.9,37.7,23,42.9,19.2,58z"/>
<path class="st3" d="M26.6,51.2c-0.5,9.2-0.2,17.6,1.2,24.9"/>
<path class="st3" d="M29.4,49.6c-0.5,9.2,0.7,22.8,3.7,30"/>
<path class="st3" d="M32.9,48.1c-0.5,9.2,0.5,24.3,4.6,31.6"/>
<path class="st3" d="M43.1,48.5c-1.2,9-0.2,22.8,2,30.1"/>
<path class="st3" d="M46,49.8c-0.5,9.2-0.2,17.6,1.2,24.9"/>
<path class="st3" d="M38.2,47.3c-0.5,9.2-0.1,24.3,2.9,31.6"/>
<ellipse class="st4" cx="36.4" cy="62.6" rx="5.8" ry="6.7"/>
<ellipse class="st4" cx="36.4" cy="62.6" rx="4.6" ry="5"/>
<path class="st5" d="M58.5,83.5c-1.9,7.3-0.5,14.6,4.2,21.9"/>
<line class="st5" x1="161.9" y1="97.6" x2="185.2" y2="118.4"/>
</svg>
