<?xml version="1.0" encoding="utf-8"?>
<!-- Generator: Adobe Illustrator 16.0.4, SVG Export Plug-In . SVG Version: 6.00 Build 0)  -->
<!DOCTYPE svg PUBLIC "-//W3C//DTD SVG 1.1//EN" "http://www.w3.org/Graphics/SVG/1.1/DTD/svg11.dtd">
<svg version="1.1" id="round" xmlns="http://www.w3.org/2000/svg" xmlns:xlink="http://www.w3.org/1999/xlink" x="0px" y="0px"
	 width="189.2px" height="166.5px" viewBox="0 0 189.2 166.5" style="enable-background:new 0 0 189.2 166.5;" xml:space="preserve"
	>
<style type="text/css">
<![CDATA[
	.st0{fill:#474647;}
	.st1{fill:#FFFFFF;}
	.st2{fill-rule:evenodd;clip-rule:evenodd;fill:#262626;}
]]>
</style>
<g>
	<path class="st1" d="M63.5,131.4C63.5,131.4,63.5,131.4,63.5,131.4c-16.4,0-32.6-3.5-48-10.5l-0.2-0.1L1.8,71.1
		c-1.6-6,0.7-7.3,5.2-9.4c15.3-7,50.1-11,95.6-11c13.3,0,27.6,0.3,42.4,1c6.4,0.3,12.7,3.4,16,7.8C169.4,71,178.1,84,189,102
		c0.3,0.6,0.3,1.3,0,2.1c-0.5,1-1.4,1.8-2.3,1.9l-54,8c-4.8,0.5-8.7,2.4-12.9,4.3c-1.4,0.7-2.9,1.3-4.3,2
		C97.9,127.7,80.4,131.4,63.5,131.4z M16.1,120.1c15.2,6.8,31.1,10.3,47.3,10.3c0,0,0,0,0,0c16.8,0,34.2-3.7,51.6-11.1
		c1.5-0.6,2.9-1.3,4.3-2c4.1-1.9,8.3-3.9,13.2-4.4l54-8c0.5-0.1,1.2-0.7,1.5-1.4c0.2-0.5,0.2-0.9,0.1-1.1
		c-10.9-17.9-19.5-30.9-27.9-42.3c-3.2-4.2-9.2-7.2-15.3-7.4c-14.9-0.7-29.1-1-42.4-1c-45.3,0-80,4-95.1,10.9c-4.4,2-6.1,3-4.6,8.2
		L16.1,120.1z"/>
</g>
<g>
	<path class="st0" d="M107.8,60.7c11.1-5.1,24,0.6,28.8,12.6c0.8,2.1,1.4,4.2,1.7,6.4c-12.2,1.1-14.7,16.4-7.7,21.2
		c-1.5,1.4-3.3,2.5-5.2,3.4c-11.1,5.1-24-0.6-28.8-12.6C91.7,79.6,96.7,65.7,107.8,60.7z"/>
	<path class="st1" d="M116.9,106.5c-9,0-17.1-5.8-20.7-14.7c-4.9-12.2,0.2-26.3,11.4-31.4c2.7-1.3,5.6-1.9,8.6-1.9
		c9,0,17.1,5.8,20.7,14.7c0.8,2.1,1.4,4.3,1.7,6.5l0.1,0.4l-0.4,0c-5.4,0.5-9.4,3.9-10.8,9.1c-1.2,4.6,0.1,9.2,3.3,11.4l0.4,0.3
		l-0.4,0.3c-1.6,1.4-3.4,2.6-5.3,3.4C122.8,105.9,119.9,106.5,116.9,106.5z M116.2,59.2c-2.9,0-5.6,0.6-8.3,1.8
		c-10.9,5-15.8,18.6-11,30.4c3.5,8.6,11.3,14.2,20,14.2c2.9,0,5.6-0.6,8.3-1.8c1.7-0.8,3.3-1.8,4.7-3c-3.2-2.5-4.4-7.2-3.2-11.9
		c1.1-4.2,4.6-8.9,11.1-9.7c-0.3-2-0.8-4-1.6-5.9C132.7,64.8,124.9,59.2,116.2,59.2z"/>
</g>
<g>
	<path class="st1" d="M60.3,117.2c-10.9,0-20.7-6.6-25.1-16.8c-2.9-6.7-3-14.2-0.4-20.9c2.6-6.8,7.7-12.1,14.3-14.9
		c3.3-1.4,6.8-2.1,10.4-2.1c10.9,0,20.7,6.6,25.1,16.8c6,13.9-0.2,30-13.9,35.8C67.4,116.5,63.9,117.2,60.3,117.2z M59.4,62.6
		c-3.6,0-7.1,0.7-10.3,2.1c-6.6,2.8-11.6,8.1-14.2,14.8c-2.6,6.7-2.5,14.1,0.4,20.8c4.4,10.1,14.2,16.7,25,16.7
		c3.6,0,7.1-0.7,10.3-2.1c13.5-5.8,19.7-21.8,13.8-35.7C80.1,69.2,70.3,62.6,59.4,62.6z"/>
</g>
<g>
	<path class="st0" d="M45.5,63.3c15.2-6.2,33,0.7,39.6,15.5s-0.2,31.8-15.5,38c-15.2,6.2-33-0.7-39.6-15.5S30.3,69.5,45.5,63.3z"/>
	<path class="st1" d="M58.1,119.4c-12.3,0-23.4-7.1-28.4-18c-3.2-7.2-3.4-15.1-0.6-22.3C32.1,71.8,37.8,66,45.3,63
		c3.7-1.5,7.7-2.3,11.8-2.3c12.3,0,23.4,7.1,28.4,18c3.2,7.2,3.4,15.1,0.6,22.3c-2.9,7.4-8.7,13.1-16.2,16.2
		C66.1,118.7,62.1,119.4,58.1,119.4z M57.1,61.4c-4,0-7.8,0.8-11.5,2.2c-7.3,3-12.9,8.6-15.8,15.7c-2.8,7-2.6,14.7,0.5,21.7
		c4.8,10.7,15.7,17.5,27.7,17.5c4,0,7.8-0.8,11.5-2.2c7.3-3,12.9-8.6,15.8-15.7c2.8-7,2.6-14.7-0.5-21.7
		C80,68.3,69.1,61.4,57.1,61.4z"/>
</g>
<g>
	<path class="st1" d="M64.5,125c-0.2,0-0.5,0-0.7,0c-19.8-0.1-36.3-4.5-40.9-5.8l0.1-0.5c4.6,1.3,21,5.7,40.8,5.8c0.2,0,0.5,0,0.7,0
		c17.9,0,32.3-3.7,41.9-10.7c3.5-2.5,8.1-4.2,13.8-5l51.9-6.9c0.6-0.1,1-0.2,1.2-0.5c0.2-0.3,0.1-0.9-0.3-1.8
		c-5.8-12.6-13.9-23.9-24.3-37c-2-2.5-3.9-3.1-5.1-3.1l0-0.5c1.3,0,3.3,0.7,5.4,3.3c10.4,13.1,18.5,24.4,24.4,37.1
		c0.5,1,0.6,1.7,0.3,2.2c-0.3,0.5-0.9,0.7-1.5,0.7l-51.9,6.9c-5.6,0.7-10.2,2.4-13.6,4.9C97.1,121.2,82.5,125,64.5,125z"/>
</g>
<g>
	<path class="st1" d="M63.7,116.3l1.7-1.1C75.2,108.9,80.3,99,79,88.7c-1.4-11.1-9.8-20.2-22.4-24.4l0.1-0.5
		c7.8,1.1,14.6,4.3,19.5,9.2c4.5,4.5,7.2,10.3,7.8,16.3c1.1,11.7-6.1,22-18.3,26.2L63.7,116.3z M59.4,64.9
		c11.3,4.6,18.7,13.3,20,23.8c1.3,9.8-3.2,19.3-12.1,25.8c13.1-5.3,16.9-16.3,16.1-25C82.1,75.7,70.9,67.4,59.4,64.9z"/>
</g>
<g>
	<path class="st2" d="M48.5,79.9l3.7,1.8c0.9,0.5,1.2,3.3,1.2,4.5c0,2.3-0.7,4.8-2.4,5.4l-2.5,0.9c-2.7,0-5-2.8-5-6.3
		S45.8,79.9,48.5,79.9z"/>
	<path class="st1" d="M48.5,92.8L48.5,92.8c-2.9,0-5.2-2.9-5.2-6.6s2.3-6.6,5.2-6.6l0.1,0l3.7,1.8c1.3,0.7,1.4,4.7,1.4,4.7
		c0,2.3-0.7,5-2.6,5.7L48.5,92.8z M48.4,80.2c-2.6,0-4.6,2.7-4.6,6.1c0,3.3,2.1,6,4.7,6.1l2.5-0.9c1.7-0.6,2.2-3.2,2.2-5.2
		c0-1.6-0.4-3.9-1.1-4.2L48.4,80.2z"/>
</g>
<g>
	<g>
		<path class="st1" d="M67.4,112.6c-11-14.4-14.2-29.7-9.4-45.4l0.5,0.1c-4.8,15.6-1.6,30.7,9.3,45L67.4,112.6z"/>
	</g>
	<g>
		<path class="st1" d="M72.6,107.3c-9.5-11-12.2-22.9-8.1-35.3l0.5,0.2c-4,12.3-1.4,24,8,34.8L72.6,107.3z"/>
	</g>
	<g>
		<path class="st1" d="M61.9,114.4c-10.7-14-13.8-30.8-8.7-47.4l0.5,0.1c-5,16.4-1.9,33.1,8.6,46.9L61.9,114.4z"/>
	</g>
	<g>
		<path class="st1" d="M51.5,115.5c-10.7-14-13.8-30.8-8.7-47.4l0.5,0.1c-5,16.4-1.9,33.1,8.6,46.9L51.5,115.5z"/>
	</g>
	<g>
		<path class="st1" d="M43.2,110.1c-7.9-9.4-10.3-21.3-6.9-34.4l0.5,0.1c-3.4,12.9-1,24.7,6.8,34L43.2,110.1z"/>
	</g>
</g>
<g>
	<path class="st1" d="M30.8,115.8c-5.3,0-13.8-4.3-14.9-7.5C15.7,107.6,5.5,71.9,5,70.3c-0.2-0.3-0.1-0.7,0-0.8
		c0.3-0.6,1.4-0.9,1.9-0.9l22.2-1c1.1,0,2.3,1,2.8,2c0.3,0.6,0.4,1.2,0.1,1.7c-12.1,17.9-4,32.3,1.9,39.3c0.2,0.2,0.4,0.4,0.6,0.6
		c0.6,0.6,1.3,1.3,1.2,2.1c-0.1,0.6-0.6,1.3-1.7,1.9C33.2,115.5,32.1,115.8,30.8,115.8z M29.2,68.1L7,69.1c-0.5,0-1.3,0.3-1.5,0.6
		c0,0.1-0.1,0.2,0,0.4c0.1,0.4,10.7,37.3,10.9,37.9c0.9,2.8,9,7.2,14.4,7.2c1.2,0,2.2-0.2,3-0.7c0.9-0.5,1.4-1,1.4-1.5
		c0.1-0.6-0.5-1.2-1.1-1.7c-0.2-0.2-0.4-0.4-0.6-0.6c-10.2-12.1-10.9-26.6-1.9-39.9c0.2-0.4,0.1-0.8-0.1-1.2
		C31.1,68.8,30,68.1,29.2,68.1z"/>
</g>
<g>
	<path class="st1" d="M49.8,104.4c-0.5,0-1.2-0.2-2-0.7c-0.8-0.5-1.3-1.4-1.4-2.3c0-0.7,0.2-1.4,0.7-1.8c0.9-0.8,2.2-0.5,3.5,0.7
		l-0.3,0.4c-0.5-0.5-1.8-1.5-2.8-0.6c-0.3,0.3-0.5,0.8-0.5,1.4c0,0.8,0.5,1.5,1.1,1.9c1.4,0.9,2.4,0.8,3.1-0.1l0.4,0.3
		C51.2,103.9,50.7,104.4,49.8,104.4z"/>
</g>
<g>
	<path class="st1" d="M95,95c-3.5,0-5.9-1-7-3.1l-0.2-0.3l9-1.3c2-4,1.4-7.4-1.7-10.5l-9.1,1l0.1-0.4c0.9-2.6,4-4.3,9.3-4.9l0.1,0.5
		c-4.9,0.6-7.8,2-8.8,4.2l8.6-0.9l0.1,0.1c3.3,3.2,3.9,7,1.8,11.2l-0.1,0.1l-8.5,1.3c1.5,2.2,4.8,3,9.7,2.3l0.1,0.5
		C97.2,94.9,96,95,95,95z"/>
</g>
<g>
	<path class="st1" d="M90.5,67.1c-1.7,0-3-1.5-3-3.4c0-1.9,1.3-3.4,3-3.4s3,1.5,3,3.4C93.5,65.6,92.1,67.1,90.5,67.1z M90.5,60.8
		c-1.4,0-2.5,1.3-2.5,2.9s1.1,2.9,2.5,2.9s2.5-1.3,2.5-2.9S91.9,60.8,90.5,60.8z"/>
</g>
<g>
	<path class="st1" d="M90.6,66.3c-1.3,0-2.4-1.2-2.4-2.7c0-1.5,1.1-2.7,2.4-2.7S93,62,93,63.5C93,65,91.9,66.3,90.6,66.3z
		 M90.6,61.3c-1,0-1.9,1-1.9,2.2c0,1.2,0.8,2.2,1.9,2.2s1.9-1,1.9-2.2C92.5,62.3,91.6,61.3,90.6,61.3z"/>
</g>
<g>
	<path class="st1" d="M88.5,70.1c-3.3,0-6-2.7-6-6.1c0-1.5,0.5-2.9,1.5-4l0.1-0.1l8.4-0.6l0.1,0.1c1.3,1.2,2,2.8,2,4.6
		C94.5,67.4,91.8,70.1,88.5,70.1z M84.2,60.4c-0.8,1-1.3,2.3-1.3,3.6c0,3.1,2.5,5.6,5.5,5.6S94,67.1,94,64c0-1.6-0.6-3.1-1.8-4.1
		L84.2,60.4z"/>
</g>
<g>
	<path class="st1" d="M118.6,103.1c-7.1,0-13.5-5-16.3-12.7c-3.9-10.5,0.2-22.6,9-27c2.2-1.1,4.4-1.6,6.8-1.6
		c7.1,0,13.5,5,16.3,12.7c0.6,1.6,1,3.4,1.3,5.1l0,0.2l-0.2,0.1c-4.2,1.3-7,3.5-8.4,6.5c-2,4.4-0.5,9.6,1.1,13.2l0.1,0.2l-0.2,0.1
		c-0.8,0.7-1.8,1.2-2.7,1.7C123.2,102.6,120.9,103.1,118.6,103.1z M118,62.3c-2.3,0-4.5,0.5-6.5,1.6c-8.6,4.3-12.5,16.2-8.7,26.4
		c2.8,7.5,9,12.4,15.8,12.4c2.3,0,4.5-0.5,6.5-1.6c0.9-0.4,1.7-0.9,2.5-1.5c-1.6-3.7-3-9-1-13.5c1.4-3.1,4.3-5.3,8.5-6.7
		c-0.2-1.6-0.6-3.2-1.2-4.8C131.1,67.1,124.9,62.3,118,62.3z"/>
</g>
<g>
	<path class="st1" d="M115.8,101c-10.3-10.6-11.9-22.9-4.8-36.5l0.4,0.2c-7,13.4-5.4,25.5,4.7,35.9L115.8,101z"/>
</g>
<g>
	<path class="st1" d="M114.5,88.3c-1.6-8-0.8-15.5,2.5-22.4l0.5,0.2c-3.2,6.8-4,14.3-2.4,22.1L114.5,88.3z"/>
</g>
<g>
	<path class="st1" d="M142.7,104.3L142.7,104.3c-5.2-1.7-8.6-6.7-8.6-12.7c0-7.2,3.6-11.8,9.5-12.4c2.9-0.3,6.8,1,9.9,3.3l0.1,0.1
		l3.1,13.7l0,0c-0.2,2.1-1,3.2-1.9,4.4c-0.3,0.4-0.7,0.9-1,1.4l-0.1,0.1l-0.1,0L142.7,104.3z M144.5,79.7c-0.3,0-0.5,0-0.8,0
		c-5.7,0.5-9.1,5-9.1,11.9c0,5.8,3.2,10.6,8.1,12.2l10.8-2c0.3-0.5,0.6-0.9,0.9-1.3c0.8-1.1,1.6-2.2,1.8-4.1l-3.1-13.5
		C150.5,80.9,147.2,79.7,144.5,79.7z"/>
</g>
<g>
	<path class="st1" d="M146.9,102.8c-4.9,0-8.8-4.9-8.8-10.9S142,81,146.9,81s8.8,4.9,8.8,10.9S151.7,102.8,146.9,102.8z M146.9,81.5
		c-4.6,0-8.3,4.7-8.3,10.4s3.7,10.4,8.3,10.4s8.3-4.7,8.3-10.4S151.5,81.5,146.9,81.5z"/>
</g>
<g>
	<path class="st1" d="M148,102.1l-0.3-0.4c4.2-3,6.3-7.3,5.6-11.4c-0.6-3.7-3.5-6.6-7.7-7.9l0.1-0.5c4.5,1.4,7.4,4.4,8.1,8.3
		C154.6,94.5,152.4,98.9,148,102.1z"/>
</g>
<g>
	<path class="st1" d="M150.5,98.7c-3-4.6-3.8-9.6-2.3-14.8l0.5,0.1c-1.4,5.2-0.7,9.9,2.2,14.4L150.5,98.7z"/>
</g>
<g>
	<path class="st1" d="M147.8,101.1c-3.6-6.1-4.4-12.3-2.3-18.5l0.5,0.2c-2.1,6.1-1.3,12.2,2.2,18.1L147.8,101.1z"/>
</g>
<g>
	<path class="st1" d="M144.1,101.1c-3-4.7-4.1-11.4-2.6-16.6l0.5,0.1c-1.4,5.1-0.4,11.6,2.6,16.2L144.1,101.1z"/>
</g>
<g>
	<ellipse class="st2" cx="51.7" cy="86.7" rx="4.4" ry="5"/>
	<path class="st1" d="M51.7,91.9c-2.6,0-4.7-2.3-4.7-5.2s2.1-5.2,4.7-5.2c2.6,0,4.7,2.3,4.7,5.2S54.3,91.9,51.7,91.9z M51.7,82
		c-2.3,0-4.2,2.1-4.2,4.7s1.9,4.7,4.2,4.7s4.2-2.1,4.2-4.7S54,82,51.7,82z"/>
</g>
<g>
	<path class="st2" d="M50.9,92l0,7.1c0,0.9-0.6,2-1.7,1.9l-0.3,1.8l3.1,0.3c0.3,0,0.5-0.5,0.5-0.9l-0.1-10.5L50.9,92z"/>
	<path class="st1" d="M52,103.4L52,103.4l-3.4-0.4l0.3-2.3l0.2,0c0,0,0,0,0,0c0.4,0,0.7-0.1,0.9-0.4c0.3-0.3,0.5-0.8,0.5-1.3l0-7.3
		l2.1-0.3l0.1,10.8c0,0.3-0.1,0.7-0.3,1C52.3,103.4,52.2,103.4,52,103.4z M49.2,102.6l2.8,0.3c0,0,0,0,0,0c0.1-0.1,0.2-0.4,0.2-0.6
		l-0.1-10.2l-1.1,0.1l0,6.9c0,0.6-0.3,1.2-0.7,1.6c-0.3,0.3-0.7,0.5-1.1,0.5L49.2,102.6z"/>
</g>
<g>
	<path class="st2" d="M86.4,80.4c1.7,3.1,2.2,6.9,1.9,11.4l8.7-1.3c2-4.5,1.3-8.1-1.9-11L86.4,80.4z"/>
	<path class="st1" d="M88,92.1l0-0.3c0.3-4.8-0.3-8.3-1.8-11.2L86,80.2l9.2-1l0.1,0.1c3.4,3,4,6.8,2,11.3l-0.1,0.1L88,92.1z
		 M86.8,80.6c1.5,2.8,2,6.3,1.8,10.9l8.3-1.3c1.9-4.3,1.3-7.7-1.9-10.5L86.8,80.6z"/>
</g>
</svg>
