<?xml version="1.0" encoding="utf-8"?>
<!-- Generator: Adobe Illustrator 16.0.4, SVG Export Plug-In . SVG Version: 6.00 Build 0)  -->
<!DOCTYPE svg PUBLIC "-//W3C//DTD SVG 1.1//EN" "http://www.w3.org/Graphics/SVG/1.1/DTD/svg11.dtd">
<svg version="1.1" id="Large" xmlns="http://www.w3.org/2000/svg" xmlns:xlink="http://www.w3.org/1999/xlink" x="0px" y="0px"
	 width="189.2px" height="166.5px" viewBox="0 0 189.2 166.5" style="enable-background:new 0 0 189.2 166.5;" xml:space="preserve"
	>
<style type="text/css">
<![CDATA[
	.st0{fill:#474647;}
	.st1{fill:#262626;}
	.st2{fill:#FFFFFF;}
	.st3{fill-rule:evenodd;clip-rule:evenodd;fill:#262626;}
]]>
</style>
<g>
	<path class="st2" d="M133,158.6c-2.4,0-5.6-1.1-7.1-3.5l-16.3-26.2c-3.4-5.4-11.6-6.6-15-6.9L31.3,117l-8.5-8.1L1.9,60.5l-1.6-8.1
		l0-0.1l0.9-17.9c0.5-10.4,5.1-15.4,14-15.4l0.2,0l150.9,1.6c3.2,0,4.6,1.2,5.5,4.5c12.9,45.7,18.1,87.2,15.9,126.9l0,0.2
		c-0.1,1.8-0.2,4.5-3.9,4.6L133,158.6z M31.7,116l63,5c3.5,0.3,12.2,1.6,15.8,7.4l16.3,26.2c1.3,2.1,4.1,3,6.2,3l0.2,0l50.5-1.6
		c2.8-0.1,2.9-1.8,3-3.7l0-0.2c2.2-39.6-2.9-81-15.8-126.6c-0.8-2.9-1.9-3.7-4.6-3.8L15.2,20.1c-8.3,0-12.5,4.7-13,14.5L1.2,52.4
		l1.6,7.9l20.8,48.1L31.7,116z"/>
</g>
<g>
	<path class="st2" d="M41.5,109.7l-8.6-1.2c-2.5-0.3-4.5-2.8-5.4-5L8.9,60.7c-1-2.6-2.3-5.8-2.2-9l0.6-18.1c0.1-2.5,1.7-6,4.1-6
		l0.1,0l20.7,0.6c2.6,0.1,4.5,3.7,4.5,6.1L41.5,109.7z M11.5,28.1c-2.1,0-3.5,3.3-3.6,5.5L7.3,51.7c-0.1,3.1,1.1,6.3,2.1,8.8
		L28,103.3c0.8,2.1,2.7,4.4,5,4.7l8,1.1l-4.8-74.8c-0.1-2.2-1.8-5.6-4.1-5.7L11.5,28.1C11.5,28.1,11.5,28.1,11.5,28.1z"/>
</g>
<g>
	<path class="st0" d="M54.5,30.5H151c6.9,0,10.1,3,11.2,8.6c3.3,16.2,9,32.9,9.9,50.2c0.4,6.8-0.9,9.7-10.6,9.9l-51,0.9
		c-4.7,0.1-10.3,3.3-11.6,7.8c-0.7,2.4-4.1,2.9-6.5,2.9l-34.5-1c-7.2-0.2-9.9-5.7-10.3-12.8l-3.4-56.7
		C43.8,34.5,49.4,30.5,54.5,30.5z"/>
	<path class="st2" d="M92.8,111.2c-0.1,0-0.3,0-0.4,0l-34.5-1c-6.6-0.2-10.3-4.8-10.8-13.2l-3.4-56.7c-0.2-2.5,0.7-4.8,2.5-6.7
		c2.1-2.2,5.2-3.6,8.3-3.6H151c6.8,0,10.4,2.8,11.7,9c1,5.2,2.4,10.5,3.7,15.7c2.8,11.2,5.6,22.8,6.3,34.6c0.2,3.4,0,6.1-1.7,7.8
		c-1.6,1.7-4.5,2.5-9.4,2.6l-51,0.9c-4.3,0.1-9.8,3.1-11.2,7.4C98.5,110.9,94.5,111.2,92.8,111.2z M54.5,31c-2.8,0-5.7,1.3-7.6,3.3
		c-1.1,1.2-2.4,3.2-2.2,6l3.4,56.7c0.5,8,3.8,12.1,9.9,12.3l34.5,1c0.1,0,0.3,0,0.4,0c1.1,0,4.9-0.2,5.6-2.5c1.5-4.9,7.5-8,12.1-8.1
		l51-0.9c4.6-0.1,7.3-0.8,8.7-2.3c1.4-1.5,1.6-3.9,1.4-7.1c-0.6-11.7-3.5-23.3-6.2-34.4c-1.3-5.2-2.6-10.6-3.7-15.8
		c-1.2-5.8-4.4-8.2-10.7-8.2H54.5z"/>
</g>
<g>
	<path class="st1" d="M111.2,116.7l20.8,30.9c2,3,6.3,4.2,9.9,4.2l30.1-0.6c3.2-0.1,8-2.1,7.9-5.3l-1.5-31.9c-0.2-4-5.6-7.4-9.6-7.4
		l-51.5,0.1C111.4,106.8,108,112.1,111.2,116.7z"/>
	<path class="st2" d="M141.6,152c-3.2,0-7.7-1.1-9.8-4.3l-20.8-30.9c-1.4-2.1-1.6-4.6-0.5-6.6c1.2-2.3,3.8-3.7,6.8-3.7l51.5-0.1
		c4.3,0,9.7,3.5,9.9,7.6l1.5,31.9c0,1-0.3,1.9-1.1,2.7c-1.7,1.8-4.8,2.8-7,2.8L141.6,152z M168.8,106.9l-51.6,0.1
		c-2.8,0-5.3,1.3-6.4,3.5c-1,1.9-0.8,4.1,0.5,6.1l20.8,30.9c2,3,6.3,4.1,9.4,4.1l0.3,0l30.1-0.6c2,0,5.1-1,6.7-2.7
		c0.7-0.7,1-1.5,1-2.4l-1.5-31.9C178,110.2,172.8,106.9,168.8,106.9z"/>
</g>
<g>
	<path class="st3" d="M69.3,53.4c-2.3-0.1-4.5,1-4.5,2.9l0.1,7c0,2.2,1.3,2.7,3,2l0.1,7.8c0,1.6,4.7,1.5,4.7-0.1v-6.7l13.1-1.1
		c1-0.1,2.6-0.5,2.6-1.4l0.1-5.6c0-1.1-1.5-1.7-2.4-2.3c-2.4-1.5-5.1-1.9-7.6-2L69.3,53.4z"/>
	<path class="st2" d="M70.3,74.8c-1.6,0-2.7-0.7-2.8-1.6L67.5,66c-0.3,0.1-0.5,0.1-0.8,0.1c-0.7,0-2.2-0.3-2.2-2.8l-0.1-7
		c0-0.8,0.3-1.4,0.8-2c0.9-0.9,2.5-1.4,4.1-1.4l9.2,0.4c2.2,0.1,5.1,0.4,7.8,2.1c0.2,0.1,0.3,0.2,0.5,0.3c1,0.5,2.2,1.2,2.1,2.4
		l-0.1,5.6c0,1.5-2.3,1.9-3,1.9l-12.6,1.1v6.3c0,0.3-0.1,0.9-1.1,1.4C71.7,74.7,71,74.8,70.3,74.8z M68.5,64.6l0.1,8.5
		c0,0.3,0.7,0.6,1.8,0.6c0.5,0,1.1-0.1,1.4-0.3c0.2-0.1,0.5-0.2,0.5-0.4v-7.2l13.5-1.2c1-0.1,2.1-0.4,2.1-1l0.1-5.6
		c0-0.6-0.9-1.1-1.6-1.5c-0.2-0.1-0.4-0.2-0.6-0.3c-2.5-1.5-5.3-1.8-7.4-1.9l-9.2-0.4c-1.4-0.1-2.7,0.4-3.4,1.1
		c-0.4,0.4-0.5,0.8-0.5,1.3l0.1,7c0,1.8,0.9,1.8,1.2,1.8c0.3,0,0.7-0.1,1.1-0.2L68.5,64.6z"/>
</g>
<g>
	<g>
		<path class="st2" d="M146,92.2c-18.3-13.7-27.2-26-26.4-36.7c0.6-8.4,7.3-16.1,19.7-22.7l0.2,0.4c-12.3,6.6-18.8,14.1-19.5,22.3
			c-0.8,10.5,8,22.7,26.2,36.3L146,92.2z"/>
	</g>
	<g>
		<path class="st2" d="M47.5,72.1l0-0.5c23.1-2.1,48.2-2.4,76.7-1.1l0,0.5C95.7,69.6,70.6,70,47.5,72.1z"/>
	</g>
	<g>
		<path class="st2" d="M46.1,48.9l0-0.5c23.2-2.1,48.1-2.5,76.3-1.2l0,0.5C94.1,46.5,69.2,46.9,46.1,48.9z"/>
	</g>
	<g>
		<path class="st2" d="M47.8,36.6l0-0.5c27.1-1.5,63-1.8,87.1-0.7l0,0.5C110.7,34.8,74.9,35.1,47.8,36.6z"/>
	</g>
	<g>
		<path class="st2" d="M48.8,86.1l-0.1-0.5c27.4-5.1,65.9-5.1,89.6-0.1l-0.1,0.5C114.6,81,76.1,81,48.8,86.1z"/>
	</g>
	<g>
		
			<rect x="129.7" y="31.3" transform="matrix(0.8344 0.5511 -0.5511 0.8344 41.2722 -65.6829)" class="st2" width="0.5" height="9.1"/>
	</g>
	<g>
		<path class="st2" d="M127,84.1c-3.7-3.1-6.1-7.7-7-13.5l0.5-0.1c0.8,5.7,3.2,10.2,6.8,13.2L127,84.1z"/>
	</g>
	<g>
		<path class="st2" d="M118.4,83.1c-9.9-19-7.5-36.7,6.8-51.4l0.4,0.3c-14.4,14.7-16.6,31.8-6.7,50.8L118.4,83.1z"/>
	</g>
	<g>
		<path class="st2" d="M111.1,82.4c-9.7-18.7-7.3-35.8,7.2-50.7l0.4,0.3c-14.4,14.7-16.8,31.6-7.1,50.1L111.1,82.4z"/>
	</g>
	<g>
		<path class="st2" d="M104.8,82.4C95,63.6,97.5,47.1,112.2,32l0.4,0.3c-14.6,14.9-17,31.2-7.3,49.8L104.8,82.4z"/>
	</g>
	<g>
		<path class="st2" d="M98.9,82.1c-9.7-18.7-7.3-35.8,7.2-50.7l0.4,0.3c-14.4,14.7-16.8,31.6-7.1,50.1L98.9,82.1z"/>
	</g>
	<g>
		<path class="st2" d="M93.3,82.2c-9.7-18.7-7.3-35.8,7.2-50.7l0.4,0.3C86.5,46.6,84.1,63.4,93.7,82L93.3,82.2z"/>
	</g>
	<g>
		<path class="st2" d="M88.6,82.4c-9.7-18.7-7.3-35.8,7.2-50.7l0.4,0.3c-14.4,14.7-16.8,31.6-7.1,50.1L88.6,82.4z"/>
	</g>
	<g>
		<path class="st2" d="M84.2,82.3c-9.7-18.7-7.3-35.8,7.2-50.7l0.4,0.3C77.4,46.6,75,63.5,84.6,82L84.2,82.3z"/>
	</g>
	<g>
		<path class="st2" d="M77.4,82.3c-9.7-18.7-7.3-35.8,7.2-50.7l0.4,0.3C70.6,46.6,68.2,63.5,77.9,82L77.4,82.3z"/>
	</g>
	<g>
		<path class="st2" d="M70.7,83.3c-9.7-18.7-7.3-35.8,7.2-50.7l0.4,0.3C63.9,47.6,61.5,64.5,71.1,83L70.7,83.3z"/>
	</g>
	<g>
		<path class="st2" d="M77.6,105.4c-0.1-0.3-2.2-4-4.5-8.3c-3.9-7-8.7-15.8-8.9-16.2c-8.4-17.8-5.6-34.1,8.3-48.4l0.4,0.3
			C59,46.9,56.2,63,64.5,80.7c0.2,0.4,5.2,9.6,8.9,16.2c2.5,4.5,4.4,8,4.6,8.3L77.6,105.4z"/>
	</g>
	<g>
		<path class="st2" d="M74.1,105.4c-0.2-0.3-2.2-4-4.6-8.3c-3.9-7-8.7-15.7-8.9-16.2C52.2,63,55,46.7,69,32.4l0.4,0.3
			C55.6,46.9,52.8,63,61.1,80.7c0.2,0.4,5.2,9.5,8.9,16.2c2.5,4.5,4.4,8,4.6,8.3L74.1,105.4z"/>
	</g>
	<g>
		<path class="st2" d="M65.8,105.8c-0.1-0.3-2.2-4-4.5-8.2c-3.9-7.1-8.7-15.8-8.9-16.3c-8.4-17.8-5.6-34.1,8.3-48.4l0.4,0.3
			c-13.8,14.1-16.6,30.2-8.2,47.9c0.2,0.5,5.3,9.6,8.9,16.3c2.4,4.4,4.4,7.9,4.5,8.2L65.8,105.8z"/>
	</g>
	<g>
		<path class="st2" d="M70.1,105.7c-0.1-0.3-2.2-4-4.5-8.3c-3.9-7-8.7-15.8-8.9-16.2C48.2,63.3,51,47,65,32.7l0.4,0.3
			c-13.8,14.1-16.6,30.2-8.2,47.9c0.2,0.4,5.2,9.6,8.9,16.2c2.5,4.5,4.4,8,4.6,8.3L70.1,105.7z"/>
	</g>
</g>
<g>
	<path class="st1" d="M69.3,53.4c-2.3-0.1-4.5,1-4.5,2.9l0.1,7c0,2.2,1.3,2.7,3,2l0.1,7.8c0,1.6,4.7,1.5,4.7-0.1v-6.7l13.1-1.1
		c1-0.1,2.6-0.5,2.6-1.4l0.1-5.6c0-1.1-1.5-1.7-2.4-2.3c-2.4-1.5-5.1-1.9-7.6-2L69.3,53.4z"/>
	<path class="st2" d="M70.3,74.8c-1.6,0-2.7-0.7-2.8-1.6L67.5,66c-0.3,0.1-0.5,0.1-0.8,0.1c-0.7,0-2.2-0.3-2.2-2.8l-0.1-7
		c0-0.8,0.3-1.4,0.8-2c0.9-0.9,2.5-1.4,4.1-1.4l9.2,0.4c2.2,0.1,5.1,0.4,7.8,2.1c0.2,0.1,0.3,0.2,0.5,0.3c1,0.5,2.2,1.2,2.1,2.4
		l-0.1,5.6c0,1.5-2.3,1.9-3,1.9l-12.6,1.1v6.3c0,0.3-0.1,0.9-1.1,1.4C71.7,74.7,71,74.8,70.3,74.8z M68.5,64.6l0.1,8.5
		c0,0.3,0.7,0.6,1.8,0.6c0.5,0,1.1-0.1,1.4-0.3c0.2-0.1,0.5-0.2,0.5-0.4v-7.2l13.5-1.2c1-0.1,2.1-0.4,2.1-1l0.1-5.6
		c0-0.6-0.9-1.1-1.6-1.5c-0.2-0.1-0.4-0.2-0.6-0.3c-2.5-1.5-5.3-1.8-7.4-1.9l-9.2-0.4c-1.4-0.1-2.7,0.4-3.4,1.1
		c-0.4,0.4-0.5,0.8-0.5,1.3l0.1,7c0,1.8,0.9,1.8,1.2,1.8c0.3,0,0.7-0.1,1.1-0.2L68.5,64.6z"/>
</g>
<g>
	<path class="st1" d="M84.5,55.9l-11.9,0.1c-1.3,0-2.6,1.5-2.6,2.7V63c0,1.6,2,2.3,3.3,1.8"/>
	<path class="st2" d="M72.4,65.3c-0.6,0-1.2-0.2-1.7-0.5c-0.6-0.4-1-1-1-1.7v-4.2c0-1.4,1.5-3,2.8-3l11.9-0.1l0,0.5l-11.9,0.1
		c-1.1,0-2.3,1.3-2.3,2.5V63c0,0.7,0.4,1.1,0.7,1.3c0.6,0.4,1.6,0.5,2.2,0.3l0.2,0.5C73.1,65.2,72.7,65.3,72.4,65.3z"/>
</g>
</svg>
