<?xml version="1.0" encoding="utf-8"?>
<!-- Generator: Adobe Illustrator 16.0.4, SVG Export Plug-In . SVG Version: 6.00 Build 0)  -->
<!DOCTYPE svg PUBLIC "-//W3C//DTD SVG 1.1//EN" "http://www.w3.org/Graphics/SVG/1.1/DTD/svg11.dtd">
<svg version="1.1" id="Oval" xmlns="http://www.w3.org/2000/svg" xmlns:xlink="http://www.w3.org/1999/xlink" x="0px" y="0px"
	 width="189.2px" height="166.5px" viewBox="0 0 189.2 166.5" style="enable-background:new 0 0 189.2 166.5;" xml:space="preserve"
	>
<style type="text/css">
<![CDATA[
	.st0{fill:#474647;}
	.st1{fill:#FFFFFF;}
	.st2{fill-rule:evenodd;clip-rule:evenodd;fill:#262626;}
]]>
</style>
<g>
	<g>
		<path class="st1" d="M99.4,148.6c-21.4,0-41.3-7-56-19.6C28.8,116.5,20.8,99.8,20.8,82c0-37.3,17-61.8,44.5-63.9
			c2.3-0.2,4.7-0.3,7.1-0.3c18.3,0,37.9,4.8,53.7,13.3c19.9,10.6,33.4,26.6,39.2,46.2c5.5,18.7,3.6,35.1-5.7,47.4
			C148.3,139.9,126.4,148.6,99.4,148.6z M72.4,18.9c-2.4,0-4.8,0.1-7,0.3C38.5,21.2,21.8,45.3,21.8,82c0,17.5,7.9,33.9,22.2,46.2
			c14.5,12.5,34.2,19.4,55.3,19.4c26.7,0,48.4-8.6,59.5-23.5c9-12.1,10.9-28.2,5.5-46.5c-5.7-19.4-19.1-35.1-38.8-45.6
			C110,23.7,90.6,18.9,72.4,18.9z"/>
	</g>
	<g>
		<path class="st1" d="M44.5,120.8l-0.8-1.1C26.1,96.3,22.3,75.9,32.4,59l0.1-0.1l29.2,1.9L61,61.1C51.3,67,45,75,42.3,84.9
			c-2.6,9.6-2,21.2,1.8,34.6L44.5,120.8z M32.8,59.4c-9.8,16.4-6.2,36.3,10.5,59c-3.5-13-4-24.3-1.5-33.6C44.5,75,50.6,67,60,61.1
			L32.8,59.4z"/>
	</g>
	<g>
		<path class="st0" d="M32.9,43.2c23.7-37.2,81-22.1,106.5,3c3,3,4.8,12.1-5.5,11.6l-95.2-4.6C34.8,53,26.9,52.6,32.9,43.2z"/>
		<path class="st1" d="M134.7,58.3c-0.3,0-0.5,0-0.8,0l-95.2-4.6c-2.3-0.1-6.6-0.3-7.9-3c-1-1.9-0.4-4.4,1.8-7.9
			C44.4,24.2,63.3,20.3,77,20.3c22.1,0,47.3,10.2,62.7,25.5c1.9,1.9,3.2,5.9,2.1,8.8C141.1,56.3,139.3,58.3,134.7,58.3z M77,21.3
			c-13.5,0-32,3.8-43.7,22.1c-2,3.1-2.6,5.4-1.8,6.9c1.1,2.1,5,2.3,7.1,2.4l95.2,4.6c3.7,0.2,6.1-0.9,7-3.1c1-2.5-0.2-6-1.8-7.7
			C123.7,31.5,98.8,21.3,77,21.3z"/>
	</g>
	<g>
		<g>
			<ellipse class="st2" cx="39.1" cy="72.5" rx="8.5" ry="7.8"/>
			<path class="st1" d="M39.1,80.5c-4.8,0-8.7-3.6-8.7-8.1s3.9-8.1,8.7-8.1c4.8,0,8.7,3.6,8.7,8.1S43.9,80.5,39.1,80.5z M39.1,64.9
				c-4.5,0-8.2,3.4-8.2,7.6s3.7,7.6,8.2,7.6c4.5,0,8.2-3.4,8.2-7.6S43.6,64.9,39.1,64.9z"/>
		</g>
		<g>
			<ellipse class="st2" cx="36.4" cy="73.9" rx="5.5" ry="5.4"/>
			<path class="st1" d="M36.4,79.5c-3.2,0-5.7-2.5-5.7-5.7c0-3.1,2.6-5.6,5.7-5.6s5.7,2.5,5.7,5.6C42.1,77,39.6,79.5,36.4,79.5z
				 M36.4,68.7c-2.9,0-5.2,2.3-5.2,5.1c0,2.8,2.4,5.2,5.2,5.2c2.9,0,5.2-2.3,5.2-5.2C41.6,71,39.3,68.7,36.4,68.7z"/>
		</g>
	</g>
	<g>
		<g>
			<path class="st1" d="M45.7,52.5l-0.5,0C45.6,42,49,33.7,55.7,27l0.4,0.4C49.5,33.9,46.1,42.1,45.7,52.5z"/>
		</g>
		<g>
			<path class="st1" d="M113.3,55.5c-0.4-11.7-1.7-19.2-7.5-24.9l0.4-0.4c5.9,5.9,7.3,13.4,7.7,25.3L113.3,55.5z"/>
		</g>
		<g>
			<path class="st1" d="M120.3,35.4c-26.1-12-48.8-14.7-67.5-8L52.6,27c18.8-6.8,41.7-4.1,67.9,8L120.3,35.4z"/>
		</g>
		<g>
			<path class="st1" d="M59.8,53.1c-0.4-11.6-1.3-17.9-2.5-25.4l0.5-0.1c1.2,7.6,2.1,13.8,2.5,25.5L59.8,53.1z"/>
		</g>
		<g>
			<path class="st1" d="M89.1,55.3c-0.4-11.6-1.3-17.9-2.5-25.4l0.5-0.1c1.2,7.6,2.1,13.8,2.5,25.5L89.1,55.3z"/>
		</g>
		<g>
			<path class="st1" d="M99.6,55.7c-0.4-11.7-1.3-17.9-2.5-25.4l0.5-0.1c1.2,7.6,2.1,13.8,2.5,25.5L99.6,55.7z"/>
		</g>
		<g>
			<path class="st1" d="M75.4,54.4C75,42.7,74.2,36.5,73,28.9l0.5-0.1c1.2,7.6,2.1,13.8,2.5,25.5L75.4,54.4z"/>
		</g>
		<g>
			
				<rect x="55.8" y="28.7" transform="matrix(0.9979 6.497885e-02 -6.497885e-02 0.9979 2.0501 -5.2005)" class="st1" width="50.4" height="0.5"/>
		</g>
		<g>
			<path class="st1" d="M128.4,56.1c-1.1-8.5-1.9-11.9-4.7-18.9l0.5-0.2c2.7,7,3.6,10.4,4.7,19L128.4,56.1z"/>
		</g>
		<g>
			<path class="st1" d="M36.2,50.7l-0.5,0c0.1-3.9,0.7-6,1.3-8.1c0.3-0.9,0.5-1.9,0.8-3.1l0.5,0.1c-0.2,1.2-0.5,2.2-0.8,3.1
				C36.9,44.8,36.3,46.8,36.2,50.7z"/>
		</g>
	</g>
	<g>
		<path class="st0" d="M102.3,62.5c33.2,0,60.1,12,60.1,36.2c0,24.2-26.9,43.8-60.1,43.8s-60.1-19.6-60.1-43.8
			C42.2,74.5,69.1,62.5,102.3,62.5z"/>
		<path class="st1" d="M102.3,143c-33.4,0-60.6-19.9-60.6-44.3c0-11.6,6.2-21.1,17.9-27.6c10.7-5.9,25.5-9.1,42.8-9.1
			s32,3.1,42.8,9.1c11.7,6.5,17.9,16,17.9,27.6C163,123.1,135.8,143,102.3,143z M102.3,63C85.3,63,70.6,66.1,60,72
			c-11.4,6.3-17.4,15.5-17.4,26.7c0,23.9,26.8,43.3,59.6,43.3S162,122.6,162,98.7c0-11.2-6-20.4-17.4-26.7
			C134,66.1,119.4,63,102.3,63z"/>
	</g>
	<g>
		<g>
			<path class="st1" d="M101.6,136.9c-1.5,0-3.1,0-4.6-0.1c-17.3-1-33.1-7.6-44.6-18.5l0.3-0.4c11.4,10.8,27.1,17.3,44.3,18.3
				c15.8,0.9,31.4-2.9,42.7-10.6c15.4-10.4,20.5-25.9,13.9-42.7l0.5-0.2c6.7,17,1.6,32.8-14,43.3
				C129.7,133.1,115.9,136.9,101.6,136.9z"/>
		</g>
		<g>
			<path class="st1" d="M92,124.2c-10,0-20.1-1.7-29.5-5c-5.2-1.9-9.3-4.6-12.7-8.5l0.4-0.3c3.3,3.8,7.4,6.5,12.5,8.4
				c22.6,8.2,49.3,6.3,69.7-4.9c11-6,18.5-22.8,16.4-36.5l0.5-0.1c2.2,13.9-5.4,30.9-16.6,37C120.5,120.8,106.3,124.2,92,124.2z"/>
		</g>
		<g>
			
				<rect x="57.1" y="93.7" transform="matrix(5.491897e-02 0.9985 -0.9985 5.491897e-02 174.2585 3.8847)" class="st1" width="56" height="0.5"/>
		</g>
		<g>
			
				<rect x="72" y="92.9" transform="matrix(3.857283e-02 0.9993 -0.9993 3.857283e-02 189.2469 -10.4235)" class="st1" width="56.1" height="0.5"/>
		</g>
		<g>
			<path class="st1" d="M78.6,121.2l-0.5,0c0.6-13.2,0.8-29.2-4.4-52.3l0.5-0.1C79.4,91.9,79.2,107.9,78.6,121.2z"/>
		</g>
		<g>
			<path class="st1" d="M69.1,119l-0.5,0c0.1-19.4-1-30.4-4.8-47.1l0.5-0.1C68.1,88.5,69.3,99.5,69.1,119z"/>
		</g>
		<g>
			<path class="st1" d="M58.3,115.1l-0.5,0c0.4-15.4-1.3-23.6-3.3-33.1c-0.2-1.1-0.5-2.3-0.7-3.5l0.5-0.1c0.2,1.2,0.5,2.4,0.7,3.5
				C56.9,91.4,58.6,99.6,58.3,115.1z"/>
		</g>
		<g>
			<path class="st1" d="M110.2,119.4c-1.8-20.8-2.2-37.5-1.4-54.2l0.5,0c-0.8,16.6-0.4,33.3,1.4,54.1L110.2,119.4z"/>
		</g>
		<g>
			<path class="st1" d="M119.2,117.4c-2.1-20-2.8-34.1-0.9-51.1l0.5,0.1c-1.9,17-1.1,31,0.9,51L119.2,117.4z"/>
		</g>
		<g>
			<path class="st1" d="M130.2,112.3c-1.7-12.6-2.8-30.8-0.7-44.3l0.5,0.1c-2.1,13.4-1,31.6,0.7,44.1L130.2,112.3z"/>
		</g>
		<g>
			<path class="st1" d="M142.1,100.4c-0.7-6.8-0.3-19.3,0.7-27.4l0.5,0.1c-1.1,8-1.4,20.6-0.7,27.3L142.1,100.4z"/>
		</g>
		<g>
			<path class="st1" d="M47.2,92.1l-0.1-0.5c9.7-2.4,19.7-4.3,29.9-5.4l0.1,0.5C66.9,87.8,56.9,89.7,47.2,92.1z"/>
		</g>
		<g>
			<path class="st1" d="M54.4,111.6l-0.2-0.5c26-9.6,53.4-11,83.9-4.4l-0.1,0.5C107.6,100.6,80.3,102.1,54.4,111.6z"/>
		</g>
		<g>
			<path class="st1" d="M147.5,87c-12.6-1-25.3-1.8-38.8-2.3l0-0.5c13.5,0.5,26.2,1.3,38.8,2.3L147.5,87z"/>
		</g>
		<g>
			
				<rect x="91.2" y="62.2" transform="matrix(4.292917e-02 0.9991 -0.9991 4.292917e-02 157.3213 -24.4919)" class="st1" width="0.5" height="15.3"/>
		</g>
		<g>
			
				<rect x="91.6" y="71.6" transform="matrix(4.292917e-02 0.9991 -0.9991 4.292917e-02 166.966 -16.0034)" class="st1" width="0.5" height="15"/>
		</g>
		<g>
			
				<rect x="92" y="78.8" transform="matrix(4.292917e-02 0.9991 -0.9991 4.292917e-02 174.5219 -9.516)" class="st1" width="0.5" height="15"/>
		</g>
		<g>
			
				<rect x="104.1" y="84.6" transform="matrix(1.562313e-02 0.9999 -0.9999 1.562313e-02 191.6855 -16.8114)" class="st1" width="0.5" height="8.8"/>
		</g>
		<g>
			<rect x="80.9" y="86.9" transform="matrix(0.1034 0.9946 -0.9946 0.1034 162.6104 0.3174)" class="st1" width="0.5" height="7"/>
		</g>
	</g>
	<g>
		<g>
			<polygon class="st2" points="101.3,96.6 101.4,100.3 101.4,104 98.9,106.6 96.4,109.2 92.8,109.2 89.2,109.2 86.6,106.5 
				84,103.8 83.9,100.1 83.8,96.4 86.3,93.8 88.8,91.2 92.5,91.2 96.1,91.2 98.7,93.9 			"/>
			<path class="st1" d="M96.7,109.8l-7.7-0.1l-5.5-5.7l-0.1-7.9l5.4-5.6l7.7,0.1l5.5,5.7l0.1,7.9L96.7,109.8z M89.4,108.6l6.8,0.1
				l4.7-4.9l-0.1-7l-4.9-5l-6.8-0.1l-4.7,4.9l0.1,7L89.4,108.6z"/>
		</g>
		<g>
			<path class="st1" d="M94.9,105.5l-4.4,0l-3.1-3.1L87.3,98l3-3l4.4,0l3.1,3.1l0.1,4.3L94.9,105.5z M91,104.3l3.4,0l2.4-2.4
				l-0.1-3.4l-2.5-2.4l-3.4,0l-2.4,2.4l0.1,3.4L91,104.3z"/>
		</g>
	</g>
	<g>
		<ellipse class="st2" cx="68.6" cy="42.3" rx="12.3" ry="12.1"/>
		<path class="st1" d="M68.6,54.9c-7.1,0-12.8-5.6-12.8-12.6s5.7-12.6,12.8-12.6c7.1,0,12.8,5.6,12.8,12.6S75.6,54.9,68.6,54.9z
			 M68.6,30.7c-6.5,0-11.8,5.2-11.8,11.6s5.3,11.6,11.8,11.6c6.5,0,11.8-5.2,11.8-11.6S75.1,30.7,68.6,30.7z"/>
	</g>
</g>
</svg>
