<?xml version="1.0" encoding="utf-8"?>
<!-- Generator: Adobe Illustrator 16.0.4, SVG Export Plug-In . SVG Version: 6.00 Build 0)  -->
<!DOCTYPE svg PUBLIC "-//W3C//DTD SVG 1.1//EN" "http://www.w3.org/Graphics/SVG/1.1/DTD/svg11.dtd">
<svg version="1.1" id="flat-sided" xmlns="http://www.w3.org/2000/svg" xmlns:xlink="http://www.w3.org/1999/xlink" x="0px" y="0px"
	 width="189.2px" height="166.5px" viewBox="0 0 189.2 166.5" style="enable-background:new 0 0 189.2 166.5;" xml:space="preserve"
	>
<style type="text/css">
<![CDATA[
	.st0{fill:#474647;}
	.st1{fill:#262626;}
	.st2{fill:#FFFFFF;}
	.st3{fill-rule:evenodd;clip-rule:evenodd;fill:#262626;}
]]>
</style>
<g>
	<path class="st3" d="M30.5,34.7c39.5-0.5,78.9,1,117.6,7c4.3,0.7,8.6,2.7,11.6,5.8c15.6,16.2,26.9,37.5,28,65.9
		c0.1,2.6-1.4,6.3-3.9,6.6l-6.6,0.8c-2.6,0.3-4.7,2.1-7,3.3c-28.3,14.8-59.8,17.7-101.5-13c-1.9-1.4-3.8-3.4-6.2-3.5
		C22.8,105.6-1.5,94,0.9,53.3C1.6,41.5,12,34.9,30.5,34.7z"/>
	<path class="st2" d="M130,135.4c-19.7,0-39.9-7.8-61.7-23.9c-0.4-0.3-0.8-0.6-1.2-0.9c-1.5-1.2-3-2.4-4.8-2.5
		c-26.3-1.3-42.2-6.6-51.9-17.4C2.7,82-0.6,69.8,0.4,53.3c0.7-12.1,11.4-18.9,30.1-19.1c4.5-0.1,9-0.1,13.3-0.1
		c40.1,0,73.2,2.3,104.4,7.1c4.6,0.7,8.9,2.9,11.9,5.9c17.7,18.4,27.2,40.6,28.1,66.2c0.1,2.7-1.5,6.8-4.4,7.1l-6.6,0.8
		c-1.7,0.2-3.3,1.1-4.9,2.1c-0.6,0.4-1.3,0.8-2,1.1C156.4,131.9,143.2,135.4,130,135.4z M43.8,35.1c-4.3,0-8.8,0-13.3,0.1
		C12.4,35.4,2.1,41.8,1.4,53.3c-1,16.2,2.3,28.2,9.9,36.7c9.4,10.5,25.2,15.7,51.2,17c2.1,0.1,3.7,1.4,5.3,2.7
		c0.4,0.3,0.8,0.6,1.2,0.9c21.6,16,41.6,23.7,61.1,23.7c13,0,26.1-3.5,39.9-10.7c0.6-0.3,1.3-0.7,1.9-1.1c1.7-1,3.4-2,5.3-2.3
		l6.6-0.8c2.3-0.3,3.6-3.8,3.5-6.1C186.3,88.1,177,66,159.4,47.8c-2.8-2.9-6.9-5-11.3-5.7C117,37.3,83.8,35.1,43.8,35.1z"/>
</g>
<g>
	<path class="st1" d="M30.5,34.7c39.5-0.5,78.9,1,117.6,7c4.3,0.7,8.6,2.7,11.6,5.8c15.6,16.2,26.9,37.5,28,65.9
		c0.1,2.6-1.4,6.3-3.9,6.6l-6.6,0.8c-2.6,0.3-4.7,2.1-7,3.3c-28.3,14.8-59.8,17.7-101.5-13c-1.9-1.4-3.8-3.4-6.2-3.5
		C22.8,105.6-1.5,94,0.9,53.3C1.6,41.5,12,34.9,30.5,34.7z"/>
	<path class="st2" d="M130,135.4c-19.7,0-39.9-7.8-61.7-23.9c-0.4-0.3-0.8-0.6-1.2-0.9c-1.5-1.2-3-2.4-4.8-2.5
		c-26.3-1.3-42.2-6.6-51.9-17.4C2.7,82-0.6,69.8,0.4,53.3c0.7-12.1,11.4-18.9,30.1-19.1c4.5-0.1,9-0.1,13.3-0.1
		c40.1,0,73.2,2.3,104.4,7.1c4.6,0.7,8.9,2.9,11.9,5.9c17.7,18.4,27.2,40.6,28.1,66.2c0.1,2.7-1.5,6.8-4.4,7.1l-6.6,0.8
		c-1.7,0.2-3.3,1.1-4.9,2.1c-0.6,0.4-1.3,0.8-2,1.1C156.4,131.9,143.2,135.4,130,135.4z M43.8,35.1c-4.3,0-8.8,0-13.3,0.1
		C12.4,35.4,2.1,41.8,1.4,53.3c-1,16.2,2.3,28.2,9.9,36.7c9.4,10.5,25.2,15.7,51.2,17c2.1,0.1,3.7,1.4,5.3,2.7
		c0.4,0.3,0.8,0.6,1.2,0.9c21.6,16,41.6,23.7,61.1,23.7c13,0,26.1-3.5,39.9-10.7c0.6-0.3,1.3-0.7,1.9-1.1c1.7-1,3.4-2,5.3-2.3
		l6.6-0.8c2.3-0.3,3.6-3.8,3.5-6.1C186.3,88.1,177,66,159.4,47.8c-2.8-2.9-6.9-5-11.3-5.7C117,37.3,83.8,35.1,43.8,35.1z"/>
</g>
<g>
	<path class="st1" d="M24.6,83.9c11.7,7.6,21.4,6.4,29.6-2.3l5.2-1.2c19.6,39.6,79.6,38.8,86.6-5.8l14,21.9l-21.6,0.2"/>
	<path class="st2" d="M105.1,109.7c-19,0-37.1-11.1-46-28.6l-4.6,1.1c-8.5,8.9-18.6,9.7-30.1,2.2l0.5-0.8
		c11.3,7.3,20.7,6.6,28.9-2.2l0.1-0.1l5.7-1.4l0.2,0.4c9.7,19.7,31.3,31.1,52.5,27.9c17.9-2.7,30.3-15.3,33.2-33.6l0.9-0.2L160.8,97
		l-22.5,0.2l0-1L159,96l-12.8-20c-3.3,18-15.8,30.4-33.8,33.1C109.9,109.5,107.5,109.7,105.1,109.7z"/>
</g>
<g>
	<path class="st0" d="M137.7,47.9c1.3,4,2,8.3,2,12.8c0,21.7-16.2,39.3-36.1,39.3c-32.7,0-44.3-34.8-26.6-60.3L137.7,47.9z"/>
	<path class="st2" d="M103.6,100.4c-14,0-25.3-6.5-31.2-17.8c-6.7-12.9-5.1-29.9,4.3-43.3l0.2-0.3l0.3,0l61.1,8.3l0.1,0.3
		c1.3,4.1,2,8.5,2,12.9C140.2,82.6,123.8,100.4,103.6,100.4z M77.2,40.1c-9,13-10.6,29.5-4,42c5.7,11,16.8,17.2,30.4,17.2
		c19.6,0,35.6-17.4,35.6-38.8c0-4.2-0.6-8.4-1.8-12.3L77.2,40.1z"/>
</g>
<g>
	<path class="st2" d="M131.6,78.7c-5.1-9.3-5.5-18.8-1.3-28.2l0.5,0.2c-4.2,9.3-3.8,18.6,1.2,27.7L131.6,78.7z"/>
</g>
<g>
	<path class="st2" d="M129.6,82.9c-7.4-8-8.7-19.6-4-34.2l0.5,0.2c-4.7,14.5-3.4,25.8,3.9,33.7L129.6,82.9z"/>
</g>
<g>
	<path class="st2" d="M126.2,87.8c-7.7-9.7-9.5-22.7-5.6-39.8l0.5,0.1c-3.9,16.9-2,29.8,5.5,39.4L126.2,87.8z"/>
</g>
<g>
	<path class="st2" d="M120.4,92.2c-7.7-11-9.5-25.7-5.6-44.9l0.5,0.1c-3.9,19.1-2,33.7,5.6,44.5L120.4,92.2z"/>
</g>
<g>
	<path class="st2" d="M115.6,95.3c-7.8-14.1-10-30-6.9-48.4l0.5,0.1c-3.1,18.4-0.9,34.1,6.8,48.1L115.6,95.3z"/>
</g>
<g>
	<path class="st2" d="M109.8,95.7c-5.7-12.7-7.8-29.3-6.2-49.2l0.5,0c-1.5,19.9,0.5,36.3,6.2,49L109.8,95.7z"/>
</g>
<g>
	<path class="st2" d="M105.3,95.4c-2.2-4.9-3.5-10.5-4.2-17.3l0.5,0c0.6,6.7,2,12.3,4.1,17.1L105.3,95.4z"/>
</g>
<g>
	<path class="st2" d="M80.6,88.9c-3.4-14.1-3.8-28.9-1.2-46.5l0.5,0.1c-2.6,17.5-2.2,32.2,1.2,46.3L80.6,88.9z"/>
</g>
<g>
	<path class="st2" d="M75.4,81.4c-3.1-10.3-3.4-21.3-1-32.4l0.5,0.1c-2.4,11.1-2,21.9,1,32.2L75.4,81.4z"/>
</g>
<g>
	<path class="st2" d="M85.6,91.6c-2.8-14.7-3.2-31-1-48.3l0.5,0.1c-2.1,17.3-1.8,33.5,1,48.2L85.6,91.6z"/>
</g>
<g>
	<path class="st2" d="M91.6,94.5c-3.7-16.3-4.2-32.7-1.2-50l0.5,0.1c-2.9,17.3-2.5,33.5,1.2,49.8L91.6,94.5z"/>
</g>
<g>
	<path class="st2" d="M95.5,95.5c-2.3-16.9-2.1-33.8,0.6-50.2l0.5,0.1C94,61.7,93.8,78.5,96,95.4L95.5,95.5z"/>
</g>
<g>
	<ellipse class="st3" cx="100.2" cy="62.8" rx="7.6" ry="8.2"/>
	<path class="st2" d="M100.2,71.3c-4.3,0-7.9-3.8-7.9-8.4s3.5-8.4,7.9-8.4s7.9,3.8,7.9,8.4S104.5,71.3,100.2,71.3z M100.2,54.9
		c-4.1,0-7.4,3.6-7.4,7.9s3.3,7.9,7.4,7.9s7.4-3.6,7.4-7.9S104.2,54.9,100.2,54.9z"/>
</g>
<g>
	<ellipse class="st3" cx="100.2" cy="62.8" rx="5.8" ry="6.7"/>
	<path class="st2" d="M100.2,69.8c-3.3,0-6-3.1-6-6.9s2.7-6.9,6-6.9c3.3,0,6,3.1,6,6.9S103.5,69.8,100.2,69.8z M100.2,56.4
		c-3.1,0-5.5,2.9-5.5,6.4s2.5,6.4,5.5,6.4s5.5-2.9,5.5-6.4S103.2,56.4,100.2,56.4z"/>
</g>
<g>
	<ellipse class="st3" cx="100.2" cy="62.8" rx="4.6" ry="5"/>
	<path class="st2" d="M100.2,68.1c-2.7,0-4.8-2.4-4.8-5.3s2.2-5.3,4.8-5.3s4.8,2.4,4.8,5.3S102.8,68.1,100.2,68.1z M100.2,58.1
		c-2.4,0-4.3,2.1-4.3,4.8s1.9,4.8,4.3,4.8s4.3-2.1,4.3-4.8S102.5,58.1,100.2,58.1z"/>
</g>
<g>
	<path class="st2" d="M104.4,104.5c-12.5,0-25.1-5.9-32.8-15.9c-4.8-6.2-7.4-13.7-7.6-21.7c-0.2-9.1,2.5-18.6,8.2-28.4l0.2,0.1
		c-5.7,9.7-8.4,19.3-8.2,28.3c0.2,7.9,2.8,15.4,7.6,21.5c9.8,12.7,27.4,18.7,42.8,14.5c7.3-2,13.6-6.2,18.4-12.1
		c5.4-6.7,8.8-15.6,10.1-26.3l0.2,0c-1.3,10.8-4.7,19.7-10.1,26.4c-4.8,6-11.2,10.2-18.5,12.2C111.2,104.1,107.8,104.5,104.4,104.5z
		"/>
</g>
<g>
	<path class="st3" d="M29.8,37.3l2.1,5.2c-7.5,3.1-12.6,8.1-13.8,16.2l7.4,0.7l-0.2,9.4l-6.8,1.4c1.9,5.2,4.5,9.2,8.3,11.4l-7.9,5.6
		C10.2,82.5-2.3,42.2,29.8,37.3z"/>
	<path class="st2" d="M18.8,87.6l-0.1-0.1c-5.3-2.9-11.8-18.6-9.5-31.6c1.3-7.4,6-16.6,20.5-18.8l0.2,0l2.2,5.6L32,42.8
		c-8,3.3-12.5,8.5-13.6,15.7l7.3,0.7L25.5,69l-6.7,1.4c2,5.4,4.6,9,8.1,11l0.3,0.2L18.8,87.6z M29.6,37.6C15.5,39.8,11,48.8,9.7,56
		c-2.3,12.7,3.9,27.9,9.1,31l7.4-5.3c-3.5-2.1-6.1-5.8-8.1-11.3l-0.1-0.3l6.9-1.5l0.2-9l-7.4-0.7l0-0.3c1.1-7.5,5.5-12.8,13.7-16.3
		L29.6,37.6z"/>
</g>
<g>
	<path class="st1" d="M19.2,58l3.3,0.1c0.4-12.5,19.7-17,26.9-7h8.3l-0.1,23.4l-7.7,0.2c-3.5,9.7-20.5,9.1-27.6-4.1l-2.1,0.7
		c1.8,9.9,21.2,20.3,32.5,5.9l6.9-0.4l0.3-27.3L51,49.7C40.9,37.7,23,42.9,19.2,58z"/>
	<path class="st2" d="M38.8,84.5c-9.4,0-17.7-7-18.8-13.2l0-0.2l2.5-0.8l0.1,0.2c4.2,7.8,11.3,10.6,16.6,10.6
		c5.1,0,9.1-2.4,10.5-6.5l0.1-0.2l7.6-0.2l0.1-22.9h-8.2l-0.1-0.1c-2.4-3.4-6.6-5.4-11.4-5.4c-7.2,0-14.8,4.6-15,12.2l0,0.3
		l-3.8-0.2l0.1-0.3c2.2-8.9,9.8-15.1,18.3-15.1c5.3,0,10.2,2.3,13.8,6.6l9-0.2L59.9,77l-7.1,0.4C48.2,83.3,42.6,84.5,38.8,84.5z
		 M20.5,71.5c1.3,6,9.2,12.6,18.3,12.6c3.7,0,9.2-1.2,13.7-7l0.1-0.1l6.8-0.4l0.3-26.8l-8.8,0.2l-0.1-0.1c-3.6-4.2-8.4-6.5-13.5-6.5
		c-8.3,0-15.5,5.9-17.8,14.4l2.7,0.1c0.4-7.8,8.2-12.4,15.5-12.4c4.9,0,9.2,2,11.7,5.5h8.4l-0.1,23.9L50.1,75
		c-1.6,4.1-5.8,6.6-10.9,6.6c-5.4,0-12.6-2.8-16.9-10.7L20.5,71.5z"/>
</g>
<g>
	<path class="st1" d="M26.6,51.2c-0.5,9.2-0.2,17.6,1.2,24.9"/>
	<path class="st2" d="M27.6,76.1c-1.4-6.8-1.8-14.9-1.2-24.9l0.5,0c-0.5,9.9-0.1,18,1.2,24.8L27.6,76.1z"/>
</g>
<g>
	<path class="st1" d="M29.4,49.6c-0.5,9.2,0.7,22.8,3.7,30"/>
	<path class="st2" d="M32.9,79.7c-3.1-7.4-4.2-21.1-3.7-30.1l0.5,0c-0.5,9,0.7,22.6,3.7,29.9L32.9,79.7z"/>
</g>
<g>
	<path class="st1" d="M32.9,48.1c-0.5,9.2,0.5,24.3,4.6,31.6"/>
	<path class="st2" d="M37.2,79.8c-4.2-7.5-5-23.1-4.6-31.7l0.5,0c-0.5,8.6,0.4,24,4.5,31.5L37.2,79.8z"/>
</g>
<g>
	<path class="st1" d="M43.1,48.5c-1.2,9-0.2,22.8,2,30.1"/>
	<path class="st2" d="M44.8,78.7c-2.2-7.8-3.1-21.6-2-30.2l0.5,0.1c-1.1,8.6-0.3,22.3,2,30L44.8,78.7z"/>
</g>
<g>
	<path class="st1" d="M46,49.8c-0.5,9.2-0.2,17.6,1.2,24.9"/>
	<path class="st2" d="M47,74.7c-1.4-6.8-1.8-14.9-1.2-24.9l0.5,0c-0.5,9.9-0.1,18,1.2,24.8L47,74.7z"/>
</g>
<g>
	<path class="st1" d="M38.2,47.3c-0.5,9.2-0.1,24.3,2.9,31.6"/>
	<path class="st2" d="M40.9,79c-2.8-6.7-3.5-21.2-2.9-31.7l0.5,0c-0.6,10.5,0.1,24.8,2.9,31.5L40.9,79z"/>
</g>
<g>
	<ellipse class="st3" cx="36.4" cy="62.6" rx="5.8" ry="6.7"/>
	<path class="st2" d="M36.4,69.5c-3.3,0-6-3.1-6-6.9s2.7-6.9,6-6.9c3.3,0,6,3.1,6,6.9S39.7,69.5,36.4,69.5z M36.4,56.2
		c-3.1,0-5.5,2.9-5.5,6.4s2.5,6.4,5.5,6.4s5.5-2.9,5.5-6.4S39.4,56.2,36.4,56.2z"/>
</g>
<g>
	<ellipse class="st3" cx="36.4" cy="62.6" rx="4.6" ry="5"/>
	<path class="st2" d="M36.4,67.9c-2.7,0-4.8-2.4-4.8-5.3c0-2.9,2.2-5.3,4.8-5.3s4.8,2.4,4.8,5.3C41.2,65.5,39,67.9,36.4,67.9z
		 M36.4,57.8c-2.4,0-4.3,2.1-4.3,4.8s1.9,4.8,4.3,4.8s4.3-2.1,4.3-4.8S38.8,57.8,36.4,57.8z"/>
</g>
<g>
	<path class="st2" d="M62.7,105.4c-4.7-7.3-6.1-14.7-4.2-22l0.2,0.1c-1.9,7.2-0.4,14.5,4.2,21.8L62.7,105.4z"/>
</g>
<g>
	
		<rect x="157.9" y="107.9" transform="matrix(0.7455 0.6665 -0.6665 0.7455 116.145 -88.1728)" class="st2" width="31.2" height="0.2"/>
</g>
</svg>
