<?xml version="1.0" encoding="utf-8"?>
<!-- Generator: Adobe Illustrator 16.0.4, SVG Export Plug-In . SVG Version: 6.00 Build 0)  -->
<!DOCTYPE svg PUBLIC "-//W3C//DTD SVG 1.1//EN" "http://www.w3.org/Graphics/SVG/1.1/DTD/svg11.dtd">
<svg version="1.1" id="small" xmlns="http://www.w3.org/2000/svg" xmlns:xlink="http://www.w3.org/1999/xlink" x="0px" y="0px"
	 width="189.2px" height="166.5px" viewBox="0 0 189.2 166.5" style="enable-background:new 0 0 189.2 166.5;" xml:space="preserve"
	>
<style type="text/css">
<![CDATA[
	.st0{fill:#474647;}
	.st1{fill:#262626;}
	.st2{fill:#FFFFFF;}
	.st3{fill-rule:evenodd;clip-rule:evenodd;fill:#262626;}
]]>
</style>
<g>
	<path class="st3" d="M51.2,63.1c30.6,3.1,61.1,7.1,91.7,9.2c4.4,0.5,13.8,0.1,25.1,7.4c6.8,5.1,15.2,11.2,19.7,34.8
		c0.3,1.5-3.7,2-5.7,1.8c-80.8-5.8-159.9-13.3-177.2-42.6c-3.8-6.4-4.2-13.4-4.1-19.1c0.1-4.7,3.6-2.9,11.2-0.2S35.8,61.6,51.2,63.1
		z"/>
	<path class="st2" d="M182.8,116.8c-0.3,0-0.5,0-0.8,0C98.2,110.7,21.5,102.8,4.4,73.9C0.5,67.2,0.2,60,0.3,54.5
		c0-2.3,0.9-3.4,2.8-3.4c1.6,0,4,0.9,7.2,2.1c0.6,0.2,1.2,0.5,1.9,0.7c6.4,2.3,22.7,7.1,39.1,8.7c10.2,1,20.5,2.2,30.5,3.3
		c20.1,2.2,40.8,4.5,61.2,5.9c0.7,0.1,1.4,0.1,2.2,0.2c5,0.4,13.3,1,23.1,7.3l0.2,0.1c6.8,5.1,15.2,11.3,19.8,35
		c0.1,0.4,0,0.8-0.3,1.1C186.8,116.7,183.2,116.8,182.8,116.8z M3,52.1c-1.1,0-1.7,0.4-1.8,2.4c-0.1,5.4,0.3,12.4,4.1,18.8
		c16.8,28.5,93.2,36.3,176.8,42.4c0.2,0,0.5,0,0.7,0c2,0,3.9-0.4,4.3-1c0.1-0.1,0.1-0.2,0.1-0.3c-4.5-23.3-12.7-29.4-19.4-34.4
		l-0.1-0.1c-9.5-6.1-17.7-6.7-22.6-7.1c-0.9-0.1-1.6-0.1-2.2-0.2c-20.4-1.4-41.2-3.7-61.3-5.9c-10-1.1-20.3-2.2-30.5-3.3
		c-16.4-1.6-32.9-6.4-39.3-8.7c-0.7-0.2-1.3-0.5-1.9-0.7C6.7,53,4.5,52.1,3,52.1z"/>
</g>
<g>
	<path class="st0" d="M34.5,63.8l13.7,25.8c0.5,1-1.7,2-2.7,1.8c-12.2-2.2-23.5-6.9-32.7-13.9c-2-1.5-3.6-3.6-5-5.7
		c-2.7-4-3.9-9.1-4.3-15.8c-0.1-1.4,2.7-2.2,4-1.5c7.9,4,15.8,5.8,23.7,7C32.6,61.9,33.9,62.4,34.5,63.8z"/>
	<path class="st2" d="M45.7,92c-0.1,0-0.3,0-0.4,0c-12.6-2.3-24-7.2-32.9-14c-1.8-1.3-3.4-3.2-5.1-5.8c-2.6-3.8-3.9-8.6-4.4-16
		c0-0.4,0.1-0.9,0.5-1.2c0.7-0.7,1.9-1.1,2.9-1.1c0.5,0,1,0.1,1.4,0.3c8.6,4.3,17.1,6,23.5,7c1.2,0.2,3,0.7,3.7,2.5l13.7,25.8
		c0.2,0.4,0.2,0.8-0.1,1.2C48.1,91.4,46.7,92,45.7,92z M6.3,54.9c-0.8,0-1.7,0.3-2.1,0.7c-0.2,0.2-0.2,0.3-0.2,0.5
		C4.4,63.3,5.7,68,8.1,71.6c1.7,2.5,3.3,4.3,4.9,5.5c8.8,6.7,20,11.5,32.5,13.8c0.7,0.1,1.9-0.4,2.2-0.9c0.1-0.1,0-0.2,0-0.2L34,64
		c-0.5-1.1-1.4-1.7-3-1.9c-6.5-1-15.1-2.7-23.8-7.1C7,54.9,6.6,54.9,6.3,54.9z"/>
</g>
<g>
	<g>
		<path class="st2" d="M25.5,81.2c-5.9,0-9.3-1.7-10.5-3.3c-5.5-7.6-6-14.2-1.4-20.2l0.2,0.2c-4.5,5.9-4.1,12.4,1.4,19.9
			c1.4,1.9,5.9,3.8,14.1,3c0.7-0.1,3.2-0.4,4-1.5c0.2-0.3,0.3-0.5,0.2-0.8l-2.7-16l0.2,0l2.7,16c0.1,0.4,0,0.7-0.3,1
			c-0.9,1.1-3.4,1.5-4.2,1.6C28,81.1,26.7,81.2,25.5,81.2z"/>
	</g>
	<g>
		<path class="st2" d="M32,76.3c-2.1-4.2-3.2-9-3.5-14.9l0.2,0c0.3,5.9,1.4,10.6,3.5,14.8L32,76.3z"/>
	</g>
	<g>
		<path class="st2" d="M31.1,79c-4.1-4.6-5.9-10.3-5.5-18l0.2,0c-0.4,7.6,1.3,13.2,5.4,17.8L31.1,79z"/>
	</g>
	<g>
		<path class="st2" d="M28.4,80.3c-4.4-4.8-6.3-11.4-5.5-19.6l0.2,0c-0.8,8.2,1,14.7,5.4,19.5L28.4,80.3z"/>
	</g>
	<g>
		<path class="st2" d="M24.2,80.3c-2.8-5.9-4.2-12.8-4.1-20.4l0.2,0c-0.1,7.6,1.2,14.4,4,20.3L24.2,80.3z"/>
	</g>
	<g>
		<path class="st2" d="M20.5,80c-3.1-7.2-4-14.2-2.8-20.8l0.2,0c-1.2,6.5-0.3,13.5,2.7,20.6L20.5,80z"/>
	</g>
	<g>
		<path class="st2" d="M17.4,77.9c-3.5-5.7-4.3-11.8-2.5-18.4l0.2,0.1c-1.7,6.6-0.9,12.6,2.5,18.2L17.4,77.9z"/>
	</g>
</g>
<g>
	
		<rect x="32.2" y="85.3" transform="matrix(0.7359 0.6771 -0.6771 0.7359 68.4035 -4.5178)" class="st2" width="15.6" height="0.2"/>
</g>
<g>
	<ellipse class="st3" cx="22.6" cy="67.4" rx="3.5" ry="3.8"/>
	<path class="st2" d="M22.6,71.7c-2.2,0-4-1.9-4-4.3s1.8-4.3,4-4.3s4,1.9,4,4.3S24.8,71.7,22.6,71.7z M22.6,64.1c-1.7,0-3,1.5-3,3.3
		s1.4,3.3,3,3.3s3-1.5,3-3.3S24.2,64.1,22.6,64.1z"/>
</g>
<g>
	<ellipse class="st1" cx="22.6" cy="67.4" rx="3.5" ry="3.8"/>
	<path class="st2" d="M22.6,71.3c-2,0-3.6-1.7-3.6-3.9s1.6-3.9,3.6-3.9s3.6,1.7,3.6,3.9S24.6,71.3,22.6,71.3z M22.6,63.7
		c-1.9,0-3.4,1.7-3.4,3.7s1.5,3.7,3.4,3.7s3.4-1.7,3.4-3.7S24.5,63.7,22.6,63.7z"/>
</g>
<g>
	<path class="st0" d="M110.9,71.8c6.4,10,11.9,20,16.8,31.2c0.6,1.4,0.3,4.4-2.3,4.1L74.9,101c-15.7-3.5-22.8-16.4-29.8-31.6
		c-2.6-5.7-2.1-4.1-1.6-5.1L110.9,71.8z"/>
	<path class="st2" d="M125.8,107.6c-0.1,0-0.3,0-0.4,0l-50.6-6.1c-16-3.6-23.2-16.6-30.2-31.9c-0.6-1.2-1-2.1-1.3-2.8
		c-0.9-1.9-1-2.1-0.5-2.5c0.1-0.1,0.1-0.1,0.2-0.2c0.1-0.2,0.3-0.3,0.5-0.3l67.4,7.5c0.1,0,0.3,0.1,0.4,0.2
		c6.6,10.3,12,20.2,16.9,31.3c0.4,1,0.5,2.6-0.2,3.7C127.5,107.3,126.8,107.6,125.8,107.6z M43.6,64.9c0.1,0.2,0.3,0.7,0.7,1.4
		c0.3,0.7,0.7,1.6,1.3,2.8C52.5,84.3,59.5,97,75,100.5l50.5,6.1c0.8,0.1,1.3-0.1,1.6-0.7c0.5-0.8,0.5-2,0.1-2.8
		c-4.9-11-10.2-20.8-16.7-31l-66.9-7.4C43.7,64.9,43.6,64.9,43.6,64.9z"/>
</g>
<g>
	<path class="st2" d="M117.1,103c-0.3,0-0.5,0-0.8,0c-3.5-0.3-7.1-0.6-10.6-0.9c-16.6-1.3-32.4-2.6-40.3-5.6l0.1-0.1
		c7.9,3,23.6,4.3,40.2,5.6c3.5,0.3,7.1,0.6,10.6,0.9c2.5,0.2,3.7-0.6,4.2-1.3c0.6-0.8,0.6-1.9,0.2-3c-5.1-11.5-10.2-21.3-14.6-28.3
		l0.1-0.1c4.4,7.1,9.5,16.9,14.6,28.3c0.5,1.1,0.4,2.3-0.2,3.1C120.1,102.3,119.1,103,117.1,103z"/>
</g>
<g>
	<path class="st0" d="M153.4,74c12.5,9.8,16.9,27.9,3.4,33.7c-12.9,5.6-24.3,0.2-31.2-12.6c-4.1-7.6-6.2-15.8-4.4-24L153.4,74z"/>
	<path class="st2" d="M146.9,110.4c-8.8,0-16.5-5.3-21.8-15c-4.6-8.5-6.1-16.7-4.4-24.4l0.1-0.4l32.8,3l0.1,0.1
		c8,6.3,12.7,15.8,11.7,23.6c-0.6,5-3.6,8.8-8.5,10.9C153.5,109.7,150.1,110.4,146.9,110.4z M121.5,71.6c-1.5,7.3,0,15.2,4.4,23.3
		c5.1,9.4,12.5,14.5,20.9,14.5c3.1,0,6.4-0.7,9.7-2.1c4.5-2,7.3-5.5,7.9-10.1c1-7.4-3.7-16.7-11.2-22.6L121.5,71.6z"/>
</g>
<g>
	<g>
		<path class="st2" d="M132,94c-2.6-5.5-3.1-11.4-1.3-17.9l0.1,0c-1.8,6.5-1.3,12.3,1.3,17.8L132,94z"/>
	</g>
	<g>
		<g>
			<path class="st2" d="M136.3,102.1c-1.7,0-3.5-0.3-5.2-0.8l0-0.1c5.7,1.7,11.4,0.6,15.7-3.1c5.3-4.6,7.6-12.1,6.3-20.8l0.1,0
				c1.3,8.7-1,16.3-6.4,20.9C143.9,100.8,140.2,102.1,136.3,102.1z"/>
		</g>
		<g>
			<path class="st2" d="M128.5,96.6l0-0.1c2.9-0.9,7.2-2.4,10.6-5.7c3.6-3.6,5.7-8.7,6.2-15.2l0.1,0c-0.5,6.6-2.6,11.7-6.2,15.3
				C135.7,94.2,131.4,95.7,128.5,96.6z"/>
		</g>
		<g>
			<path class="st2" d="M136.7,91.6c-2.6-5.5-3.1-11.4-1.3-17.9l0.1,0c-1.8,6.5-1.3,12.3,1.3,17.8L136.7,91.6z"/>
		</g>
		<g>
			<path class="st2" d="M134.3,92.3c-2.6-5.5-3.1-11.4-1.3-17.9l0.1,0c-1.8,6.5-1.3,12.3,1.3,17.8L134.3,92.3z"/>
		</g>
	</g>
</g>
<g>
	<ellipse class="st3" cx="65.9" cy="73.3" rx="3.7" ry="3.6"/>
	<path class="st2" d="M65.9,77.4c-2.3,0-4.2-1.8-4.2-4.1s1.9-4.1,4.2-4.1s4.2,1.8,4.2,4.1S68.2,77.4,65.9,77.4z M65.9,70.2
		c-1.7,0-3.2,1.4-3.2,3.1s1.4,3.1,3.2,3.1c1.7,0,3.2-1.4,3.2-3.1S67.6,70.2,65.9,70.2z"/>
</g>
<g>
	<ellipse class="st3" cx="70.8" cy="75" rx="6.4" ry="6.6"/>
	<path class="st2" d="M70.8,82.1c-3.8,0-6.9-3.2-6.9-7.1S67,68,70.8,68s6.9,3.2,6.9,7.1S74.6,82.1,70.8,82.1z M70.8,69
		c-3.2,0-5.9,2.7-5.9,6.1s2.6,6.1,5.9,6.1s5.9-2.7,5.9-6.1S74.1,69,70.8,69z"/>
</g>
<g>
	<ellipse class="st3" cx="72.5" cy="76.5" rx="4.7" ry="5.1"/>
	<path class="st2" d="M72.5,82.1c-2.9,0-5.2-2.5-5.2-5.6s2.3-5.6,5.2-5.6s5.2,2.5,5.2,5.6S75.3,82.1,72.5,82.1z M72.5,72
		c-2.3,0-4.2,2.1-4.2,4.6s1.9,4.6,4.2,4.6s4.2-2.1,4.2-4.6S74.8,72,72.5,72z"/>
</g>
<g>
	<g>
		<path class="st2" d="M51.6,80.2l-0.1,0c0.1-5.9,2.5-11,7.4-15.4l0.1,0.1C54.1,69.4,51.7,74.4,51.6,80.2z"/>
	</g>
	<g>
		<path class="st2" d="M113.8,99.2c-13.7-6.1-24.7-10-33.7-11.8c-10-2-17.3-1.4-22.2,1.8L57.7,89c5-3.2,12.3-3.8,22.4-1.8
			c9,1.8,20,5.6,33.6,11.7c-4-9-9-18.6-15.4-29.5l0.1-0.1C104.9,80.3,109.9,90,113.8,99.2L113.8,99.2z"/>
	</g>
	<g>
		<path class="st2" d="M106.8,95.7c-3.3-7.3-4.8-13.2-4.8-17.9h0.1c0,4.7,1.5,10.6,4.8,17.8L106.8,95.7z"/>
	</g>
	<g>
		<path class="st2" d="M101.9,93.7C98.7,86.8,97.4,79.4,98,71l0.1,0c-0.6,8.4,0.7,15.8,3.9,22.6L101.9,93.7z"/>
	</g>
	<g>
		<path class="st2" d="M98,92.3c-3.3-7.1-4.6-14.6-4-22.8l0.1,0c-0.6,8.2,0.7,15.6,4,22.7L98,92.3z"/>
	</g>
	<g>
		<path class="st2" d="M94.8,90.9c-1.4-2.6-2.4-5.6-3.1-9.4l0.1,0c0.7,3.8,1.8,6.8,3.1,9.4L94.8,90.9z"/>
	</g>
	<g>
		<path class="st2" d="M90.9,89.7c-3-6.5-4.1-13.2-3.4-21.2l0.1,0c-0.7,8,0.3,14.7,3.4,21.1L90.9,89.7z"/>
	</g>
	<g>
		<path class="st2" d="M81.8,87c-3.1-7.1-3-13.7-2.4-19.2l0.1,0C79,73.3,78.9,79.9,82,86.9L81.8,87z"/>
	</g>
	<g>
		<path class="st2" d="M87.1,89.3c-0.1-0.2-0.2-0.4-0.2-0.5c-0.1-0.2-0.2-0.4-0.2-0.5c-2.7-6.1-3.6-12.5-2.9-20.1l0.1,0
			c-0.7,7.6,0.2,13.9,2.9,20.1c0.1,0.2,0.2,0.4,0.2,0.5c0.1,0.2,0.2,0.4,0.2,0.5L87.1,89.3z"/>
	</g>
	<g>
		<path class="st2" d="M77.4,86.2c-2.3-5.8-3-11.8-2.4-18.8l0.1,0c-0.6,7.1,0.1,13,2.4,18.8L77.4,86.2z"/>
	</g>
	<g>
		<path class="st2" d="M72.6,85.7C70.4,80,69.7,74,70.3,67l0.1,0c-0.6,7,0.1,12.9,2.3,18.6L72.6,85.7z"/>
	</g>
	<g>
		<path class="st2" d="M68.5,85.5c-2.4-5.9-3.2-12-2.5-19.2l0.1,0c-0.7,7.2,0.1,13.3,2.5,19.2L68.5,85.5z"/>
	</g>
	<g>
		<path class="st2" d="M64.7,85.8c-2.6-6.1-3.6-12.5-2.9-20.1l0.1,0c-0.7,7.6,0.2,13.9,2.9,20L64.7,85.8z"/>
	</g>
	<g>
		<path class="st2" d="M61,86.8c-2.6-6.1-3.5-12.4-2.8-19.9l0.1,0c-0.7,7.5,0.2,13.8,2.8,19.9L61,86.8z"/>
	</g>
	<g>
		<path class="st2" d="M58.8,91.3c-3-6.5-4.1-13.2-3.4-21.2l0.1,0c-0.7,8,0.3,14.7,3.4,21.1L58.8,91.3z"/>
	</g>
	<g>
		<path class="st2" d="M54.1,85.4c-0.6-3.5-0.7-7.2-0.3-11.3l0.1,0c-0.4,4.1-0.3,7.8,0.3,11.2L54.1,85.4z"/>
	</g>
	<g>
		<path class="st2" d="M103,85.5c-8.1-3.2-16.8-5.7-26-7.5l0-0.1c9.2,1.8,17.9,4.3,26,7.5L103,85.5z"/>
	</g>
</g>
<g>
	<ellipse class="st1" cx="65.9" cy="73.3" rx="3.7" ry="3.6"/>
	<path class="st2" d="M65.9,77c-2.1,0-3.7-1.6-3.7-3.7s1.7-3.7,3.7-3.7c2.1,0,3.7,1.6,3.7,3.7S67.9,77,65.9,77z M65.9,69.8
		c-2,0-3.6,1.6-3.6,3.5s1.6,3.5,3.6,3.5s3.6-1.6,3.6-3.5S67.9,69.8,65.9,69.8z"/>
</g>
<g>
	<ellipse class="st1" cx="70.8" cy="75" rx="6.4" ry="6.6"/>
	<path class="st2" d="M70.8,81.7c-3.6,0-6.5-3-6.5-6.6s2.9-6.6,6.5-6.6s6.5,3,6.5,6.6S74.4,81.7,70.8,81.7z M70.8,68.5
		c-3.5,0-6.3,2.9-6.3,6.5s2.8,6.5,6.3,6.5s6.3-2.9,6.3-6.5S74.3,68.5,70.8,68.5z"/>
</g>
<g>
	<ellipse class="st1" cx="72.5" cy="76.5" rx="4.7" ry="5.1"/>
	<path class="st2" d="M72.5,81.7c-2.7,0-4.8-2.3-4.8-5.2s2.2-5.2,4.8-5.2s4.8,2.3,4.8,5.2S75.1,81.7,72.5,81.7z M72.5,71.5
		c-2.6,0-4.7,2.2-4.7,5s2.1,5,4.7,5s4.7-2.2,4.7-5S75,71.5,72.5,71.5z"/>
</g>
</svg>
