<?xml version="1.0" encoding="utf-8"?>
<!-- Generator: Adobe Illustrator 19.2.1, SVG Export Plug-In . SVG Version: 6.00 Build 0)  -->
<svg version="1.1" id="Shrouds" xmlns="http://www.w3.org/2000/svg" xmlns:xlink="http://www.w3.org/1999/xlink" x="0px" y="0px"
	 viewBox="0 0 685 115" style="enable-background:new 0 0 685 115;" xml:space="preserve">
<style type="text/css">
	.st0{opacity:0.5;}
	.st1{fill:#191919;}
	.st2{fill-rule:evenodd;clip-rule:evenodd;fill:#88E333;}
</style>
<g class="st0">
	<path class="st1" d="M50.5,92.1V25.4h11.2c4.2,0,8.2,0,11.5,3.8c3,3.5,4.7,8.6,4.7,16.2c0,14.7-5.1,20.1-14.3,20.1h-3.1v26.6H50.5z
		 M60.5,56.4h2c3.8,0,4.9-0.9,4.9-11.5c0-11-2.1-11-4.9-11h-2V56.4z"/>
	<path class="st1" d="M100.5,92.1L94,63.4h-2.4v28.7h-10V25.4h11.6c4.1,0,8.4,0.6,11.5,4.7c2.1,2.8,3.8,6.6,3.8,14.5
		c0,12.7-3.9,15.1-6.1,16.4l8.4,31.1H100.5z M91.6,54.7h1.6c3.7,0,4.8-1.8,4.8-10.7c0-10.1-2.2-10.1-4.8-10.1h-1.6V54.7z"/>
	<path class="st1" d="M127.5,24.6c10.6,0,15.2,8.4,15.2,34.2c0,25.8-4.6,34.1-15.2,34.1c-13.5,0-15.1-14.5-15.1-34.1
		C112.4,39.9,113.7,24.6,127.5,24.6z M123.9,80.6c0.4,1.9,1.1,4,3.6,4c2.5,0,3.2-2,3.6-4c0.9-4.5,0.9-18.9,0.9-20.1
		c0-9.5-0.1-13.7-0.5-20.8c-0.2-4.9-1.4-6.8-4-6.8c-2.5,0-3.2,1.9-3.6,4c-0.8,4.2-0.8,21.5-0.8,21.9C123.1,64,123.1,76.1,123.9,80.6
		z"/>
	<path class="st1" d="M144,83.6c1.9,0.3,2.3,0.3,3.5,0.3c4.7,0,5.5-1.8,5.5-8.6V25.4h10v49.5c0,5.5,0,17.7-13.6,17.7
		c-0.8,0-3.2,0-5.4-0.7V83.6z"/>
	<path class="st1" d="M169.4,92.1V25.4h22.7v8.5h-12.7v19h9.2v8.5h-9.2v22.2H193v8.5H169.4z"/>
	<path class="st1" d="M223.5,77c-0.8,6.2-2.9,15.9-13.4,15.9c-11.8,0-15.3-10.7-15.3-34.5c0-23.6,3.7-33.8,15.2-33.8
		c7.8,0,12.4,5.2,13.5,16.7l-9.3,1.2c-0.5-6.5-1.6-9.5-4.4-9.5c-2.7,0-3.4,3-3.8,6.6c-0.7,5-0.7,12.7-0.7,19.4
		c0,6.1,0,17.1,1.4,22.2c0.2,1,1,3.3,3.4,3.3c3,0,3.5-3.3,4.1-8.7L223.5,77z"/>
	<path class="st1" d="M231,92.1V33.9h-7.4v-8.5h24.7v8.5H241v58.2H231z"/>
	<path class="st1" d="M264.4,24.6c10.6,0,15.2,8.4,15.2,34.2c0,25.8-4.6,34.1-15.2,34.1c-13.5,0-15.1-14.5-15.1-34.1
		C249.3,39.9,250.6,24.6,264.4,24.6z M260.8,80.6c0.4,1.9,1.1,4,3.6,4c2.5,0,3.2-2,3.6-4c0.9-4.5,0.9-18.9,0.9-20.1
		c0-9.5-0.1-13.7-0.5-20.8c-0.2-4.9-1.4-6.8-4-6.8c-2.5,0-3.2,1.9-3.6,4c-0.8,4.2-0.8,21.5-0.8,21.9C260,64,260,76.1,260.8,80.6z"/>
	<path class="st1" d="M303.9,92.1l-6.5-28.7H295v28.7h-10V25.4h11.6c4.1,0,8.4,0.6,11.5,4.7c2.1,2.8,3.8,6.6,3.8,14.5
		c0,12.7-3.9,15.1-6.1,16.4l8.4,31.1H303.9z M295,54.7h1.6c3.7,0,4.8-1.8,4.8-10.7c0-10.1-2.2-10.1-4.8-10.1H295V54.7z"/>
	<path class="st1" d="M341.6,75.8c0.1,4.2,0.3,8.8,4.2,8.8c2.9,0,4.3-2.8,4.3-9.5c0-7.6-2.4-9.7-8.7-15c-2.5-2.1-8.3-7.9-8.3-18.2
		c0-9.3,3.5-17.3,12.9-17.3c9.6,0,12.4,7.9,12.9,14.6l-9.3,1.2c-0.7-7.4-2.1-7.4-3.5-7.4c-2.4,0-3.1,3.1-3.1,8
		c0,4.8,1.1,7.1,6.6,11.7c5.9,5.1,10.4,10,10.4,20.6c0,8.3-1.8,19.6-14.1,19.6c-11.6,0-13.6-9.7-13.6-16.1L341.6,75.8z"/>
	<path class="st1" d="M382.9,92.1V62.5h-8.7v29.6h-10V25.4h10v28.1h8.7V25.4h10v66.7H382.9z"/>
	<path class="st1" d="M418.5,92.1L412,63.4h-2.4v28.7h-10V25.4h11.6c4.1,0,8.4,0.6,11.5,4.7c2.1,2.8,3.8,6.6,3.8,14.5
		c0,12.7-3.9,15.1-6.1,16.4l8.4,31.1H418.5z M409.6,54.7h1.6c3.7,0,4.8-1.8,4.8-10.7c0-10.1-2.2-10.1-4.8-10.1h-1.6V54.7z"/>
	<path class="st1" d="M445.5,24.6c10.6,0,15.2,8.4,15.2,34.2c0,25.8-4.6,34.1-15.2,34.1c-13.5,0-15.1-14.5-15.1-34.1
		C430.4,39.9,431.7,24.6,445.5,24.6z M441.9,80.6c0.4,1.9,1.1,4,3.6,4c2.5,0,3.2-2,3.6-4c0.9-4.5,0.9-18.9,0.9-20.1
		c0-9.5-0.1-13.7-0.5-20.8c-0.2-4.9-1.4-6.8-4-6.8c-2.5,0-3.2,1.9-3.6,4c-0.8,4.2-0.8,21.5-0.8,21.9C441.1,64,441.1,76.1,441.9,80.6
		z"/>
	<path class="st1" d="M475.8,25.4v50.2c0.1,5.8,0.1,8.3,3.6,8.3c3.7,0,3.7-2.9,3.7-8.3V25.4h9.9v49.3c0,6.9,0,18.2-13.4,18.2
		S466,82.7,466,74.7V25.4H475.8z"/>
	<path class="st1" d="M499.7,25.4h9.5c5,0,10.2,0.2,14.6,7.1c4.1,6.2,4.5,18.9,4.5,26.3c0,30.3-7.8,33.3-17.5,33.3h-11.1V25.4z
		 M509.7,83.6c3,0,4.8,0,6.3-3.7c1.8-4.6,1.9-16.9,1.9-20.1c0-3.4,0-12.8-1-18.4c-1.4-7.5-4.1-7.5-7.2-7.5V83.6z"/>
	<path class="st1" d="M540.4,75.8c0.1,4.2,0.3,8.8,4.2,8.8c2.9,0,4.3-2.8,4.3-9.5c0-7.6-2.4-9.7-8.7-15c-2.5-2.1-8.3-7.9-8.3-18.2
		c0-9.3,3.5-17.3,12.9-17.3c9.6,0,12.4,7.9,12.9,14.6l-9.3,1.2c-0.7-7.4-2.1-7.4-3.5-7.4c-2.4,0-3.1,3.1-3.1,8
		c0,4.8,1.1,7.1,6.6,11.7c5.9,5.1,10.4,10,10.4,20.6c0,8.3-1.8,19.6-14.1,19.6c-11.6,0-13.6-9.7-13.6-16.1L540.4,75.8z"/>
</g>
<g>
	<path class="st2" d="M445.5,32.9c-2.5,0-3.2,1.9-3.6,4c-0.8,4.2-0.8,21.5-0.8,21.9c0,5.2,0,17.3,0.8,21.8c0.4,1.9,1.1,4,3.6,4
		c2.5,0,3.2-2,3.6-4c0.9-4.5,0.9-18.9,0.9-20.1c0-9.5-0.1-13.7-0.5-20.8C449.3,34.8,448.1,32.9,445.5,32.9z"/>
	<path class="st2" d="M296.6,33.9H295v20.8h1.6c3.7,0,4.8-1.8,4.8-10.7C301.4,33.9,299.2,33.9,296.6,33.9z"/>
	<path class="st2" d="M411.2,33.9h-1.6v20.8h1.6c3.7,0,4.8-1.8,4.8-10.7C416,33.9,413.8,33.9,411.2,33.9z"/>
	<path class="st2" d="M62.5,33.9h-2v22.5h2c3.8,0,4.9-0.9,4.9-11.5C67.4,33.9,65.3,33.9,62.5,33.9z"/>
	<path class="st2" d="M93.2,33.9h-1.6v20.8h1.6c3.7,0,4.8-1.8,4.8-10.7C98,33.9,95.8,33.9,93.2,33.9z"/>
	<path class="st2" d="M127.5,32.9c-2.5,0-3.2,1.9-3.6,4c-0.8,4.2-0.8,21.5-0.8,21.9c0,5.2,0,17.3,0.8,21.8c0.4,1.9,1.1,4,3.6,4
		c2.5,0,3.2-2,3.6-4c0.9-4.5,0.9-18.9,0.9-20.1c0-9.5-0.1-13.7-0.5-20.8C131.3,34.8,130.1,32.9,127.5,32.9z"/>
	<path class="st2" d="M264.4,32.9c-2.5,0-3.2,1.9-3.6,4c-0.8,4.2-0.8,21.5-0.8,21.9c0,5.2,0,17.3,0.8,21.8c0.4,1.9,1.1,4,3.6,4
		c2.5,0,3.2-2,3.6-4c0.9-4.5,0.9-18.9,0.9-20.1c0-9.5-0.1-13.7-0.5-20.8C268.2,34.8,267,32.9,264.4,32.9z"/>
	<path class="st2" d="M598.4,53.1L582.7,0H0v115h582.7l15.7-53.1C599.2,59.5,599.2,55.5,598.4,53.1z M63.6,65.5h-3.1v26.6h-10V25.4
		h11.2c4.2,0,8.2,0,11.5,3.8c3,3.5,4.7,8.6,4.7,16.2C77.9,60.1,72.8,65.5,63.6,65.5z M100.5,92.1L94,63.4h-2.4v28.7h-10V25.4h11.6
		c4.1,0,8.4,0.6,11.5,4.7c2.1,2.8,3.8,6.6,3.8,14.5c0,12.7-3.9,15.1-6.1,16.4l8.4,31.1H100.5z M127.5,92.9
		c-13.5,0-15.1-14.5-15.1-34.1c0-18.9,1.3-34.2,15.1-34.2c10.6,0,15.2,8.4,15.2,34.2C142.7,84.6,138.1,92.9,127.5,92.9z M163,74.9
		c0,5.5,0,17.7-13.6,17.7c-0.8,0-3.2,0-5.4-0.7v-8.3c1.9,0.3,2.3,0.3,3.5,0.3c4.7,0,5.5-1.8,5.5-8.6V25.4h10V74.9z M193,92.1h-23.6
		V25.4h22.7v8.5h-12.7v19h9.2v8.5h-9.2v22.2H193V92.1z M206.7,81.2c0.2,1,1,3.3,3.4,3.3c3,0,3.5-3.3,4.1-8.7l9.3,1.2
		c-0.8,6.2-2.9,15.9-13.4,15.9c-11.8,0-15.3-10.7-15.3-34.5c0-23.6,3.7-33.8,15.2-33.8c7.8,0,12.4,5.2,13.5,16.7l-9.3,1.2
		c-0.5-6.5-1.6-9.5-4.4-9.5c-2.7,0-3.4,3-3.8,6.6c-0.7,5-0.7,12.7-0.7,19.4C205.3,65.1,205.3,76.1,206.7,81.2z M248.3,33.9H241v58.2
		h-10V33.9h-7.4v-8.5h24.7V33.9z M264.4,92.9c-13.5,0-15.1-14.5-15.1-34.1c0-18.9,1.3-34.2,15.1-34.2c10.6,0,15.2,8.4,15.2,34.2
		C279.6,84.6,275,92.9,264.4,92.9z M303.9,92.1l-6.5-28.7H295v28.7h-10V25.4h11.6c4.1,0,8.4,0.6,11.5,4.7c2.1,2.8,3.8,6.6,3.8,14.5
		c0,12.7-3.9,15.1-6.1,16.4l8.4,31.1H303.9z M345.9,92.9c-11.6,0-13.6-9.7-13.6-16.1l9.3-1c0.1,4.2,0.3,8.8,4.2,8.8
		c2.9,0,4.3-2.8,4.3-9.5c0-7.6-2.4-9.7-8.7-15c-2.5-2.1-8.3-7.9-8.3-18.2c0-9.3,3.5-17.3,12.9-17.3c9.6,0,12.4,7.9,12.9,14.6
		l-9.3,1.2c-0.7-7.4-2.1-7.4-3.5-7.4c-2.4,0-3.1,3.1-3.1,8c0,4.8,1.1,7.1,6.6,11.7c5.9,5.1,10.4,10,10.4,20.6
		C360,81.6,358.2,92.9,345.9,92.9z M392.9,92.1h-10V62.5h-8.7v29.6h-10V25.4h10v28.1h8.7V25.4h10V92.1z M418.5,92.1L412,63.4h-2.4
		v28.7h-10V25.4h11.6c4.1,0,8.4,0.6,11.5,4.7c2.1,2.8,3.8,6.6,3.8,14.5c0,12.7-3.9,15.1-6.1,16.4l8.4,31.1H418.5z M445.5,92.9
		c-13.5,0-15.1-14.5-15.1-34.1c0-18.9,1.3-34.2,15.1-34.2c10.6,0,15.2,8.4,15.2,34.2C460.7,84.6,456.1,92.9,445.5,92.9z M493,74.7
		c0,6.9,0,18.2-13.4,18.2S466,82.7,466,74.7V25.4h9.8v50.2c0.1,5.8,0.1,8.3,3.6,8.3c3.7,0,3.7-2.9,3.7-8.3V25.4h9.9V74.7z
		 M510.8,92.1h-11.1V25.4h9.5c5,0,10.2,0.2,14.6,7.1c4.1,6.2,4.5,18.9,4.5,26.3C528.3,89.1,520.5,92.1,510.8,92.1z M544.7,92.9
		c-11.6,0-13.6-9.7-13.6-16.1l9.3-1c0.1,4.2,0.3,8.8,4.2,8.8c2.9,0,4.3-2.8,4.3-9.5c0-7.6-2.4-9.7-8.7-15c-2.5-2.1-8.3-7.9-8.3-18.2
		c0-9.3,3.5-17.3,12.9-17.3c9.6,0,12.4,7.9,12.9,14.6l-9.3,1.2c-0.7-7.4-2.1-7.4-3.5-7.4c-2.4,0-3.1,3.1-3.1,8
		c0,4.8,1.1,7.1,6.6,11.7c5.9,5.1,10.4,10,10.4,20.6C558.8,81.6,557,92.9,544.7,92.9z"/>
	<path class="st2" d="M509.7,33.9v49.7c3,0,4.8,0,6.3-3.7c1.8-4.6,1.9-16.9,1.9-20.1c0-3.4,0-12.8-1-18.4
		C515.5,33.9,512.8,33.9,509.7,33.9z"/>
</g>
</svg>
