<?xml version="1.0" encoding="utf-8"?>
<!-- Generator: Adobe Illustrator 21.1.0, SVG Export Plug-In . SVG Version: 6.00 Build 0)  -->
<svg version="1.1" id="Vehicle_Spec" xmlns="http://www.w3.org/2000/svg" xmlns:xlink="http://www.w3.org/1999/xlink" x="0px"
	 y="0px" viewBox="0 0 685 115" style="enable-background:new 0 0 685 115;" xml:space="preserve">
<style type="text/css">
	.st0{opacity:0.5;}
	.st1{fill:#191919;}
	.st2{fill-rule:evenodd;clip-rule:evenodd;fill:#88E333;}
</style>
<g class="st0">
	<path class="st1" d="M57.1,92.1L46.5,25.4h10l3.1,24.9c0.9,7.4,1.7,14.7,2.3,22c0.5-7.4,1.3-14.8,2.2-22.1l3-24.8h9.3L66.2,92.1
		H57.1z"/>
	<path class="st1" d="M80,92.1V25.4h22.7v8.5H90v19h9.2v8.5H90v22.2h13.6v8.5H80z"/>
	<path class="st1" d="M126.2,92.1V62.5h-8.7v29.6h-10V25.4h10v28.1h8.7V25.4h10v66.7H126.2z"/>
	<path class="st1" d="M143,92.1V25.4h10v66.7H143z"/>
	<path class="st1" d="M187,77c-0.8,6.2-2.9,15.9-13.4,15.9c-11.8,0-15.3-10.7-15.3-34.5c0-23.6,3.7-33.8,15.2-33.8
		c7.8,0,12.4,5.2,13.5,16.7l-9.3,1.2c-0.5-6.5-1.6-9.5-4.4-9.5c-2.7,0-3.4,3-3.8,6.6c-0.7,5-0.7,12.7-0.7,19.4
		c0,6.1,0,17.1,1.4,22.2c0.2,1,1,3.3,3.4,3.3c3,0,3.5-3.3,4.1-8.7L187,77z"/>
	<path class="st1" d="M190.2,92.1V25.4h10v58.2h12.5v8.5H190.2z"/>
	<path class="st1" d="M215.6,92.1V25.4h22.7v8.5h-12.7v19h9.2v8.5h-9.2v22.2h13.6v8.5H215.6z"/>
	<path class="st1" d="M267.2,75.8c0.1,4.2,0.3,8.8,4.2,8.8c2.9,0,4.3-2.8,4.3-9.5c0-7.6-2.4-9.7-8.7-15c-2.5-2.1-8.3-7.9-8.3-18.2
		c0-9.3,3.5-17.3,12.9-17.3c9.6,0,12.4,7.9,12.9,14.6l-9.3,1.2c-0.7-7.4-2.1-7.4-3.5-7.4c-2.4,0-3.1,3.1-3.1,8
		c0,4.8,1.1,7.1,6.6,11.7c5.9,5.1,10.4,10,10.4,20.6c0,8.3-1.8,19.6-14.1,19.6c-11.6,0-13.6-9.7-13.6-16.1L267.2,75.8z"/>
	<path class="st1" d="M289.8,92.1V25.4H301c4.2,0,8.2,0,11.5,3.8c3,3.5,4.7,8.6,4.7,16.2c0,14.7-5.1,20.1-14.3,20.1h-3.1v26.6H289.8
		z M299.8,56.4h2c3.8,0,4.9-0.9,4.9-11.5c0-11-2.1-11-4.9-11h-2V56.4z"/>
	<path class="st1" d="M320.9,92.1V25.4h22.7v8.5h-12.7v19h9.2v8.5h-9.2v22.2h13.6v8.5H320.9z"/>
	<path class="st1" d="M375.1,77c-0.8,6.2-2.9,15.9-13.4,15.9c-11.8,0-15.3-10.7-15.3-34.5c0-23.6,3.7-33.8,15.2-33.8
		c7.8,0,12.4,5.2,13.5,16.7l-9.3,1.2c-0.5-6.5-1.6-9.5-4.4-9.5c-2.7,0-3.4,3-3.8,6.6c-0.7,5-0.7,12.7-0.7,19.4
		c0,6.1,0,17.1,1.4,22.2c0.2,1,1,3.3,3.4,3.3c3,0,3.5-3.3,4.1-8.7L375.1,77z"/>
	<path class="st1" d="M378.3,92.1V25.4h10v66.7H378.3z"/>
	<path class="st1" d="M394.9,92.1V25.4h22.3v8.5h-12.3v19.3h9.9v8.5h-9.9v30.4H394.9z"/>
	<path class="st1" d="M420.9,92.1V25.4h10v66.7H420.9z"/>
	<path class="st1" d="M465,77c-0.8,6.2-2.9,15.9-13.4,15.9c-11.8,0-15.3-10.7-15.3-34.5c0-23.6,3.7-33.8,15.2-33.8
		c7.8,0,12.4,5.2,13.5,16.7l-9.3,1.2c-0.5-6.5-1.6-9.5-4.4-9.5c-2.7,0-3.4,3-3.8,6.6c-0.7,5-0.7,12.7-0.7,19.4
		c0,6.1,0,17.1,1.4,22.2c0.2,1,1,3.3,3.4,3.3c3,0,3.5-3.3,4.1-8.7L465,77z"/>
</g>
<g>
	<path class="st2" d="M505.1,53.1L489.4,0H0v115h489.4l15.7-53.1C505.9,59.5,505.9,55.5,505.1,53.1z M66.2,92.1h-9.1L46.5,25.4h10
		l3.1,24.9c0.9,7.4,1.7,14.7,2.3,22c0.5-7.4,1.3-14.8,2.2-22.1l3-24.8h9.3L66.2,92.1z M103.7,92.1H80V25.4h22.7v8.5H90v19h9.2v8.5
		H90v22.2h13.6V92.1z M136.3,92.1h-10V62.5h-8.7v29.6h-10V25.4h10v28.1h8.7V25.4h10V92.1z M153,92.1h-10V25.4h10V92.1z M170.2,81.2
		c0.2,1,1,3.3,3.4,3.3c3,0,3.5-3.3,4.1-8.7L187,77c-0.8,6.2-2.9,15.9-13.4,15.9c-11.8,0-15.3-10.7-15.3-34.5
		c0-23.6,3.7-33.8,15.2-33.8c7.8,0,12.4,5.2,13.5,16.7l-9.3,1.2c-0.5-6.5-1.6-9.5-4.4-9.5c-2.7,0-3.4,3-3.8,6.6
		c-0.7,5-0.7,12.7-0.7,19.4C168.8,65.1,168.8,76.1,170.2,81.2z M212.7,92.1h-22.5V25.4h10v58.2h12.5V92.1z M239.2,92.1h-23.6V25.4
		h22.7v8.5h-12.7v19h9.2v8.5h-9.2v22.2h13.6V92.1z M271.5,92.9c-11.6,0-13.6-9.7-13.6-16.1l9.3-1c0.1,4.2,0.3,8.8,4.2,8.8
		c2.9,0,4.3-2.8,4.3-9.5c0-7.6-2.4-9.7-8.7-15c-2.5-2.1-8.3-7.9-8.3-18.2c0-9.3,3.5-17.3,12.9-17.3c9.6,0,12.4,7.9,12.9,14.6
		l-9.3,1.2c-0.7-7.4-2.1-7.4-3.5-7.4c-2.4,0-3.1,3.1-3.1,8c0,4.8,1.1,7.1,6.6,11.7c5.9,5.1,10.4,10,10.4,20.6
		C285.6,81.6,283.8,92.9,271.5,92.9z M302.9,65.5h-3.1v26.6h-10V25.4H301c4.2,0,8.2,0,11.5,3.8c3,3.5,4.7,8.6,4.7,16.2
		C317.2,60.1,312.1,65.5,302.9,65.5z M344.5,92.1h-23.6V25.4h22.7v8.5h-12.7v19h9.2v8.5h-9.2v22.2h13.6V92.1z M358.3,81.2
		c0.2,1,1,3.3,3.4,3.3c3,0,3.5-3.3,4.1-8.7l9.3,1.2c-0.8,6.2-2.9,15.9-13.4,15.9c-11.8,0-15.3-10.7-15.3-34.5
		c0-23.6,3.7-33.8,15.2-33.8c7.8,0,12.4,5.2,13.5,16.7l-9.3,1.2c-0.5-6.5-1.6-9.5-4.4-9.5c-2.7,0-3.4,3-3.8,6.6
		c-0.7,5-0.7,12.7-0.7,19.4C356.9,65.1,356.9,76.1,358.3,81.2z M388.3,92.1h-10V25.4h10V92.1z M417.2,33.9h-12.3v19.3h9.9v8.5h-9.9
		v30.4h-10V25.4h22.3V33.9z M430.9,92.1h-10V25.4h10V92.1z M448.2,81.2c0.2,1,1,3.3,3.4,3.3c3,0,3.5-3.3,4.1-8.7L465,77
		c-0.8,6.2-2.9,15.9-13.4,15.9c-11.8,0-15.3-10.7-15.3-34.5c0-23.6,3.7-33.8,15.2-33.8c7.8,0,12.4,5.2,13.5,16.7l-9.3,1.2
		c-0.5-6.5-1.6-9.5-4.4-9.5c-2.7,0-3.4,3-3.8,6.6c-0.7,5-0.7,12.7-0.7,19.4C446.8,65.1,446.8,76.1,448.2,81.2z"/>
	<path class="st2" d="M301.8,33.9h-2v22.5h2c3.8,0,4.9-0.9,4.9-11.5C306.7,33.9,304.6,33.9,301.8,33.9z"/>
</g>
</svg>
