<?xml version="1.0" encoding="utf-8"?>
<!-- Generator: Adobe Illustrator 21.1.0, SVG Export Plug-In . SVG Version: 6.00 Build 0)  -->
<svg version="1.1" id="RGB" xmlns="http://www.w3.org/2000/svg" xmlns:xlink="http://www.w3.org/1999/xlink" x="0px" y="0px"
	 viewBox="0 0 685 115" style="enable-background:new 0 0 685 115;" xml:space="preserve">
<style type="text/css">
	.st0{opacity:0.5;}
	.st1{fill:#191919;}
	.st2{fill-rule:evenodd;clip-rule:evenodd;fill:#88E333;}
</style>
<g class="st0">
	<path class="st1" d="M69.4,92.1l-6.5-28.7h-2.4v28.7h-10V25.4h11.6c4.1,0,8.4,0.6,11.5,4.7c2.1,2.8,3.8,6.6,3.8,14.5
		c0,12.7-3.9,15.1-6.1,16.4l8.4,31.1H69.4z M60.5,54.7h1.6c3.7,0,4.8-1.8,4.8-10.7c0-10.1-2.2-10.1-4.8-10.1h-1.6V54.7z"/>
	<path class="st1" d="M104.5,92.5l-0.9-5.3c-1.1,2.7-3.2,5.5-8.4,5.5c-11.3,0-13.9-12.1-13.9-34.1c0-18.1,0.6-34,15.4-34
		c10.7,0,13.2,8.7,14.3,16.2l-9.8,1.3c-0.6-7.2-2.3-9-4.6-9c-3.2,0-3.9,3-4.3,6.1c-0.6,4.3-0.6,14-0.6,18.7c0,5,0.1,15.7,0.6,20.1
		c0.4,2.6,1,6.8,4.6,6.8c4.1,0,4.8-4.5,4.8-13.1v-4.3H97v-8.9h14v34H104.5z"/>
	<path class="st1" d="M116.9,25.4h9c5.1,0,15.8,0,15.8,16.5c0,2.5,0,13.2-7.4,14.7c8.2,1.9,9.2,11.7,9.2,16.6
		c0,15.5-7.2,18.9-17.6,18.9h-9V25.4z M126.4,53.1h1.4c3.9,0,4.8-2.8,4.8-10.3c0-9.2-2.5-9.7-4.8-9.7h-1.4V53.1z M126.4,84.2h1.7
		c4.6,0,5.4-2.9,5.4-11.6c0-11.5-2.9-11.9-5.4-11.9h-1.7V84.2z"/>
	<path class="st1" d="M196.1,92.1c-1,0.5-1.8,0.7-3.2,0.7c-3.4,0-5.2-2-6.9-4.4c-1.5,1.7-4.1,4.5-9.6,4.5
		c-10.7,0-14.3-9.5-14.3-18.4c0-10,3.9-15.4,8.2-21.4c-3.2-6.3-5.3-10.3-5.3-15.4c0-6.2,3.7-13.4,11.2-13.4
		c6.4,0,11.4,4.8,11.4,13.3c0,4.8-1.6,9.8-7.9,16.8l7.2,15.9c0.7-3.2,1.1-9.9,1.1-11l7.3,0.9c-0.5,7.8-1.6,13.1-4.1,19.2
		c1,2.5,2.3,4.6,4.1,4.6c0.4,0,0.6-0.1,0.8-0.2V92.1z M174,61.3c-2.6,5.5-2.6,11.3-2.6,12.8c0,4.7,1.2,10.6,5.8,10.6
		c0.8,0,3.8-0.2,5.7-3.4L174,61.3z M176.4,47.3c1.3-1.7,3.7-4.8,3.7-9.8c0-3.9-1.6-5.5-3.3-5.5c-1.8,0-3.3,1.9-3.3,5.5
		C173.5,41.6,175.7,45.9,176.4,47.3z"/>
	<path class="st1" d="M222.2,75.8c0.1,4.2,0.3,8.8,4.2,8.8c2.9,0,4.3-2.8,4.3-9.5c0-7.6-2.4-9.7-8.7-15c-2.5-2.1-8.3-7.9-8.3-18.2
		c0-9.3,3.5-17.3,12.9-17.3c9.6,0,12.4,7.9,12.9,14.6l-9.3,1.2c-0.7-7.4-2.1-7.4-3.5-7.4c-2.4,0-3.1,3.1-3.1,8
		c0,4.8,1.1,7.1,6.6,11.7c5.9,5.1,10.4,10,10.4,20.6c0,8.3-1.8,19.6-14.1,19.6c-11.6,0-13.6-9.7-13.6-16.1L222.2,75.8z"/>
	<path class="st1" d="M269.5,92.1l-4.6-34.7c-0.5-3.7-1-9.7-1.4-14.2c-0.1,2.6-0.6,9.6-1.1,13.9l-4.2,35h-8l-8.6-66.7h9.1l3.1,31.4
		c0.3,2.5,0.9,13.5,1.1,15.7c0.2-5.8,0.6-11.8,1.1-15.5l3.4-31.6h8.3l4.2,31.7c0.4,3.1,1.1,12.9,1.4,16.1c0-1.7,0-2.2,0.1-6.5
		c0.3-7.2,0.4-7.5,0.5-9.6l2.5-31.7h8.5l-7.7,66.7H269.5z"/>
	<path class="st1" d="M288.7,92.1V25.4h10v66.7H288.7z"/>
	<path class="st1" d="M308.9,92.1V33.9h-7.4v-8.5h24.7v8.5h-7.3v58.2H308.9z"/>
	<path class="st1" d="M355.8,77c-0.8,6.2-2.9,15.9-13.4,15.9c-11.8,0-15.3-10.7-15.3-34.5c0-23.6,3.7-33.8,15.2-33.8
		c7.8,0,12.4,5.2,13.5,16.7l-9.3,1.2c-0.5-6.5-1.6-9.5-4.4-9.5c-2.7,0-3.4,3-3.8,6.6c-0.7,5-0.7,12.7-0.7,19.4
		c0,6.1,0,17.1,1.4,22.2c0.2,1,1,3.3,3.4,3.3c3,0,3.5-3.3,4.1-8.7L355.8,77z"/>
	<path class="st1" d="M377.7,92.1V62.5H369v29.6h-10V25.4h10v28.1h8.7V25.4h10v66.7H377.7z"/>
	<path class="st1" d="M394.4,25.4h9c5.1,0,15.8,0,15.8,16.5c0,2.5,0,13.2-7.4,14.7c8.2,1.9,9.2,11.7,9.2,16.6
		c0,15.5-7.2,18.9-17.6,18.9h-9V25.4z M403.9,53.1h1.4c3.9,0,4.8-2.8,4.8-10.3c0-9.2-2.5-9.7-4.8-9.7h-1.4V53.1z M403.9,84.2h1.7
		c4.6,0,5.4-2.9,5.4-11.6c0-11.5-2.9-11.9-5.4-11.9h-1.7V84.2z"/>
	<path class="st1" d="M443.3,92.1L441,73.7h-8l-2.1,18.4H422l10.3-66.7h9.8l10.6,66.7H443.3z M440.1,65.6l-1.5-11.9
		c-0.4-3.2-1.8-16.3-2-18.2c-0.1,1.9-0.2,3.6-0.5,6.7c-0.6,6.4-0.7,7.1-1.1,11.6l-1.3,11.8H440.1z"/>
	<path class="st1" d="M482.4,77c-0.8,6.2-2.9,15.9-13.4,15.9c-11.8,0-15.3-10.7-15.3-34.5c0-23.6,3.7-33.8,15.2-33.8
		c7.8,0,12.4,5.2,13.5,16.7l-9.3,1.2c-0.5-6.5-1.6-9.5-4.4-9.5c-2.7,0-3.4,3-3.8,6.6c-0.7,5-0.7,12.7-0.7,19.4
		c0,6.1,0,17.1,1.4,22.2c0.2,1,1,3.3,3.4,3.3c3,0,3.5-3.3,4.1-8.7L482.4,77z"/>
	<path class="st1" d="M504.3,92.1l-9-31.3v31.3h-9.7V25.4h9.7V50l8.9-24.6h9.5l-12.2,28.4l13.1,38.3H504.3z"/>
</g>
<g>
	<path class="st2" d="M171.4,74.1c0,4.7,1.2,10.6,5.8,10.6c0.8,0,3.8-0.2,5.7-3.4l-8.9-20C171.4,66.8,171.4,72.6,171.4,74.1z"/>
	<path class="st2" d="M410.1,42.8c0-9.2-2.5-9.7-4.8-9.7h-1.4v20h1.4C409.2,53.1,410.1,50.3,410.1,42.8z"/>
	<path class="st2" d="M180.1,37.5c0-3.9-1.6-5.5-3.3-5.5c-1.8,0-3.3,1.9-3.3,5.5c0,4.1,2.2,8.4,2.9,9.8
		C177.7,45.6,180.1,42.5,180.1,37.5z"/>
	<path class="st2" d="M128.1,60.7h-1.7v23.5h1.7c4.6,0,5.4-2.9,5.4-11.6C133.5,61.1,130.6,60.7,128.1,60.7z"/>
	<path class="st2" d="M62.1,33.9h-1.6v20.8h1.6c3.7,0,4.8-1.8,4.8-10.7C66.9,33.9,64.7,33.9,62.1,33.9z"/>
	<path class="st2" d="M132.6,42.8c0-9.2-2.5-9.7-4.8-9.7h-1.4v20h1.4C131.7,53.1,132.6,50.3,132.6,42.8z"/>
	<path class="st2" d="M405.6,60.7h-1.7v23.5h1.7c4.6,0,5.4-2.9,5.4-11.6C411,61.1,408.1,60.7,405.6,60.7z"/>
	<path class="st2" d="M436.6,35.5c-0.1,1.9-0.2,3.6-0.5,6.7c-0.6,6.4-0.7,7.1-1.1,11.6l-1.3,11.8h6.4l-1.5-11.9
		C438.2,50.5,436.8,37.4,436.6,35.5z"/>
	<path class="st2" d="M554.1,53.1L538.3,0H0v115h538.3l15.7-53.1C554.8,59.5,554.8,55.5,554.1,53.1z M69.4,92.1l-6.5-28.7h-2.4v28.7
		h-10V25.4h11.6c4.1,0,8.4,0.6,11.5,4.7c2.1,2.8,3.8,6.6,3.8,14.5c0,12.7-3.9,15.1-6.1,16.4l8.4,31.1H69.4z M92.3,78
		c0.4,2.6,1,6.8,4.6,6.8c4.1,0,4.8-4.5,4.8-13.1v-4.3H97v-8.9h14v34h-6.5l-0.9-5.3c-1.1,2.7-3.2,5.5-8.4,5.5
		c-11.3,0-13.9-12.1-13.9-34.1c0-18.1,0.6-34,15.4-34c10.7,0,13.2,8.7,14.3,16.2l-9.8,1.3c-0.6-7.2-2.3-9-4.6-9
		c-3.2,0-3.9,3-4.3,6.1c-0.6,4.3-0.6,14-0.6,18.7C91.7,62.9,91.8,73.6,92.3,78z M125.9,92.1h-9V25.4h9c5.1,0,15.8,0,15.8,16.5
		c0,2.5,0,13.2-7.4,14.7c8.2,1.9,9.2,11.7,9.2,16.6C143.5,88.7,136.3,92.1,125.9,92.1z M196.1,92.1c-1,0.5-1.8,0.7-3.2,0.7
		c-3.4,0-5.2-2-6.9-4.4c-1.5,1.7-4.1,4.5-9.6,4.5c-10.7,0-14.3-9.5-14.3-18.4c0-10,3.9-15.4,8.2-21.4c-3.2-6.3-5.3-10.3-5.3-15.4
		c0-6.2,3.7-13.4,11.2-13.4c6.4,0,11.4,4.8,11.4,13.3c0,4.8-1.6,9.8-7.9,16.8l7.2,15.9c0.7-3.2,1.1-9.9,1.1-11l7.3,0.9
		c-0.5,7.8-1.6,13.1-4.1,19.2c1,2.5,2.3,4.6,4.1,4.6c0.4,0,0.6-0.1,0.8-0.2V92.1z M226.5,92.9c-11.6,0-13.6-9.7-13.6-16.1l9.3-1
		c0.1,4.2,0.3,8.8,4.2,8.8c2.9,0,4.3-2.8,4.3-9.5c0-7.6-2.4-9.7-8.7-15c-2.5-2.1-8.3-7.9-8.3-18.2c0-9.3,3.5-17.3,12.9-17.3
		c9.6,0,12.4,7.9,12.9,14.6l-9.3,1.2c-0.7-7.4-2.1-7.4-3.5-7.4c-2.4,0-3.1,3.1-3.1,8c0,4.8,1.1,7.1,6.6,11.7
		c5.9,5.1,10.4,10,10.4,20.6C240.6,81.6,238.8,92.9,226.5,92.9z M277.2,92.1h-7.7l-4.6-34.7c-0.5-3.7-1-9.7-1.4-14.2
		c-0.1,2.6-0.6,9.6-1.1,13.9l-4.2,35h-8l-8.6-66.7h9.1l3.1,31.4c0.3,2.5,0.9,13.5,1.1,15.7c0.2-5.8,0.6-11.8,1.1-15.5l3.4-31.6h8.3
		l4.2,31.7c0.4,3.1,1.1,12.9,1.4,16.1c0-1.7,0-2.2,0.1-6.5c0.3-7.2,0.4-7.5,0.5-9.6l2.5-31.7h8.5L277.2,92.1z M298.7,92.1h-10V25.4
		h10V92.1z M326.2,33.9h-7.3v58.2h-10V33.9h-7.4v-8.5h24.7V33.9z M339,81.2c0.2,1,1,3.3,3.4,3.3c3,0,3.5-3.3,4.1-8.7l9.3,1.2
		c-0.8,6.2-2.9,15.9-13.4,15.9c-11.8,0-15.3-10.7-15.3-34.5c0-23.6,3.7-33.8,15.2-33.8c7.8,0,12.4,5.2,13.5,16.7l-9.3,1.2
		c-0.5-6.5-1.6-9.5-4.4-9.5c-2.7,0-3.4,3-3.8,6.6c-0.7,5-0.7,12.7-0.7,19.4C337.6,65.1,337.6,76.1,339,81.2z M387.7,92.1h-10V62.5
		H369v29.6h-10V25.4h10v28.1h8.7V25.4h10V92.1z M403.4,92.1h-9V25.4h9c5.1,0,15.8,0,15.8,16.5c0,2.5,0,13.2-7.4,14.7
		c8.2,1.9,9.2,11.7,9.2,16.6C421,88.7,413.8,92.1,403.4,92.1z M443.3,92.1L441,73.7h-8l-2.1,18.4H422l10.3-66.7h9.8l10.6,66.7H443.3
		z M465.6,81.2c0.2,1,1,3.3,3.4,3.3c3,0,3.5-3.3,4.1-8.7l9.3,1.2c-0.8,6.2-2.9,15.9-13.4,15.9c-11.8,0-15.3-10.7-15.3-34.5
		c0-23.6,3.7-33.8,15.2-33.8c7.8,0,12.4,5.2,13.5,16.7l-9.3,1.2c-0.5-6.5-1.6-9.5-4.4-9.5c-2.7,0-3.4,3-3.8,6.6
		c-0.7,5-0.7,12.7-0.7,19.4C464.2,65.1,464.2,76.1,465.6,81.2z M504.3,92.1l-9-31.3v31.3h-9.7V25.4h9.7V50l8.9-24.6h9.5l-12.2,28.4
		l13.1,38.3H504.3z"/>
</g>
</svg>
