<?xml version="1.0" encoding="utf-8"?>
<!-- Generator: Adobe Illustrator 21.1.0, SVG Export Plug-In . SVG Version: 6.00 Build 0)  -->
<svg version="1.1" id="Assemblies" xmlns="http://www.w3.org/2000/svg" xmlns:xlink="http://www.w3.org/1999/xlink" x="0px" y="0px"
	 viewBox="0 0 685 115" style="enable-background:new 0 0 685 115;" xml:space="preserve">
<style type="text/css">
	.st0{opacity:0.5;}
	.st1{fill:#191919;}
	.st2{fill-rule:evenodd;clip-rule:evenodd;fill:#88E333;}
</style>
<g class="st0">
	<path class="st1" d="M67.4,92.1l-2.3-18.4h-8L55,92.1h-8.9l10.3-66.7h9.8l10.6,66.7H67.4z M64.2,65.6l-1.5-11.9
		c-0.4-3.2-1.8-16.3-2-18.2c-0.1,1.9-0.2,3.6-0.5,6.7c-0.6,6.4-0.7,7.1-1.1,11.6l-1.3,11.8H64.2z"/>
	<path class="st1" d="M87.3,75.8c0.1,4.2,0.3,8.8,4.2,8.8c2.9,0,4.3-2.8,4.3-9.5c0-7.6-2.4-9.7-8.7-15c-2.5-2.1-8.3-7.9-8.3-18.2
		c0-9.3,3.5-17.3,12.9-17.3c9.6,0,12.4,7.9,12.9,14.6l-9.3,1.2C94.6,33,93.2,33,91.8,33c-2.4,0-3.1,3.1-3.1,8
		c0,4.8,1.1,7.1,6.6,11.7c5.9,5.1,10.4,10,10.4,20.6c0,8.3-1.8,19.6-14.1,19.6C80,92.9,78,83.2,78,76.8L87.3,75.8z"/>
	<path class="st1" d="M117.8,75.8c0.1,4.2,0.3,8.8,4.2,8.8c2.9,0,4.3-2.8,4.3-9.5c0-7.6-2.4-9.7-8.7-15c-2.5-2.1-8.3-7.9-8.3-18.2
		c0-9.3,3.5-17.3,12.9-17.3c9.6,0,12.4,7.9,12.9,14.6l-9.3,1.2c-0.7-7.4-2.1-7.4-3.5-7.4c-2.4,0-3.1,3.1-3.1,8
		c0,4.8,1.1,7.1,6.6,11.7c5.9,5.1,10.4,10,10.4,20.6c0,8.3-1.8,19.6-14.1,19.6c-11.6,0-13.6-9.7-13.6-16.1L117.8,75.8z"/>
	<path class="st1" d="M140.4,92.1V25.4h22.7v8.5h-12.7v19h9.2v8.5h-9.2v22.2H164v8.5H140.4z"/>
	<path class="st1" d="M196.8,92.1V66.9c0-3.4,0.2-14.4,0.3-24.3c-0.2,1.2-2.3,17.4-3.3,24.3l-3.9,25.2h-7.4l-4.1-25.8
		c-2.3-14.5-2.3-14.6-3.2-23.7c0.3,13.1,0.5,20.8,0.5,24v25.5h-7.8V25.4h10.8l5.5,35c0.8,4.5,1.4,11.2,2.1,18.9
		c0.3-6.6,0.9-11,2.2-18.9l5.3-35h11.1v66.7H196.8z"/>
	<path class="st1" d="M211.7,25.4h9c5.1,0,15.8,0,15.8,16.5c0,2.5,0,13.2-7.4,14.7c8.2,1.9,9.2,11.7,9.2,16.6
		c0,15.5-7.2,18.9-17.6,18.9h-9V25.4z M221.2,53.1h1.4c3.9,0,4.8-2.8,4.8-10.3c0-9.2-2.5-9.7-4.8-9.7h-1.4V53.1z M221.2,84.2h1.7
		c4.6,0,5.4-2.9,5.4-11.6c0-11.5-2.9-11.9-5.4-11.9h-1.7V84.2z"/>
	<path class="st1" d="M242.6,92.1V25.4h10v58.2h12.5v8.5H242.6z"/>
	<path class="st1" d="M268,92.1V25.4h10v66.7H268z"/>
	<path class="st1" d="M284.6,92.1V25.4h22.7v8.5h-12.7v19h9.2v8.5h-9.2v22.2h13.6v8.5H284.6z"/>
	<path class="st1" d="M319.8,75.8c0.1,4.2,0.3,8.8,4.2,8.8c2.9,0,4.3-2.8,4.3-9.5c0-7.6-2.4-9.7-8.7-15c-2.5-2.1-8.3-7.9-8.3-18.2
		c0-9.3,3.5-17.3,12.9-17.3c9.6,0,12.4,7.9,12.9,14.6l-9.3,1.2c-0.7-7.4-2.1-7.4-3.5-7.4c-2.4,0-3.1,3.1-3.1,8
		c0,4.8,1.1,7.1,6.6,11.7c5.9,5.1,10.4,10,10.4,20.6c0,8.3-1.8,19.6-14.1,19.6c-11.6,0-13.6-9.7-13.6-16.1L319.8,75.8z"/>
</g>
<g>
	<path class="st2" d="M227.4,42.8c0-9.2-2.5-9.7-4.8-9.7h-1.4v20h1.4C226.5,53.1,227.4,50.3,227.4,42.8z"/>
	<path class="st2" d="M222.9,60.7h-1.7v23.5h1.7c4.6,0,5.4-2.9,5.4-11.6C228.3,61.1,225.4,60.7,222.9,60.7z"/>
	<path class="st2" d="M378,53.1L362.3,0H0v115h362.3L378,61.9C378.7,59.5,378.7,55.5,378,53.1z M67.4,92.1l-2.3-18.4h-8L55,92.1
		h-8.9l10.3-66.7h9.8l10.6,66.7H67.4z M91.6,92.9C80,92.9,78,83.2,78,76.8l9.3-1c0.1,4.2,0.3,8.8,4.2,8.8c2.9,0,4.3-2.8,4.3-9.5
		c0-7.6-2.4-9.7-8.7-15c-2.5-2.1-8.3-7.9-8.3-18.2c0-9.3,3.5-17.3,12.9-17.3c9.6,0,12.4,7.9,12.9,14.6l-9.3,1.2
		C94.6,33,93.2,33,91.8,33c-2.4,0-3.1,3.1-3.1,8c0,4.8,1.1,7.1,6.6,11.7c5.9,5.1,10.4,10,10.4,20.6C105.7,81.6,103.9,92.9,91.6,92.9
		z M122.1,92.9c-11.6,0-13.6-9.7-13.6-16.1l9.3-1c0.1,4.2,0.3,8.8,4.2,8.8c2.9,0,4.3-2.8,4.3-9.5c0-7.6-2.4-9.7-8.7-15
		c-2.5-2.1-8.3-7.9-8.3-18.2c0-9.3,3.5-17.3,12.9-17.3c9.6,0,12.4,7.9,12.9,14.6l-9.3,1.2c-0.7-7.4-2.1-7.4-3.5-7.4
		c-2.4,0-3.1,3.1-3.1,8c0,4.8,1.1,7.1,6.6,11.7c5.9,5.1,10.4,10,10.4,20.6C136.2,81.6,134.4,92.9,122.1,92.9z M164,92.1h-23.6V25.4
		h22.7v8.5h-12.7v19h9.2v8.5h-9.2v22.2H164V92.1z M204.9,92.1h-8.1V66.9c0-3.4,0.2-14.4,0.3-24.3c-0.2,1.2-2.3,17.4-3.3,24.3
		l-3.9,25.2h-7.4l-4.1-25.8c-2.3-14.5-2.3-14.6-3.2-23.7c0.3,13.1,0.5,20.8,0.5,24v25.5h-7.8V25.4h10.8l5.5,35
		c0.8,4.5,1.4,11.2,2.1,18.9c0.3-6.6,0.9-11,2.2-18.9l5.3-35h11.1V92.1z M220.7,92.1h-9V25.4h9c5.1,0,15.8,0,15.8,16.5
		c0,2.5,0,13.2-7.4,14.7c8.2,1.9,9.2,11.7,9.2,16.6C238.3,88.7,231.1,92.1,220.7,92.1z M265.1,92.1h-22.5V25.4h10v58.2h12.5V92.1z
		 M278,92.1h-10V25.4h10V92.1z M308.2,92.1h-23.6V25.4h22.7v8.5h-12.7v19h9.2v8.5h-9.2v22.2h13.6V92.1z M324.1,92.9
		c-11.6,0-13.6-9.7-13.6-16.1l9.3-1c0.1,4.2,0.3,8.8,4.2,8.8c2.9,0,4.3-2.8,4.3-9.5c0-7.6-2.4-9.7-8.7-15c-2.5-2.1-8.3-7.9-8.3-18.2
		c0-9.3,3.5-17.3,12.9-17.3c9.6,0,12.4,7.9,12.9,14.6l-9.3,1.2c-0.7-7.4-2.1-7.4-3.5-7.4c-2.4,0-3.1,3.1-3.1,8
		c0,4.8,1.1,7.1,6.6,11.7c5.9,5.1,10.4,10,10.4,20.6C338.2,81.6,336.4,92.9,324.1,92.9z"/>
	<path class="st2" d="M60.7,35.5c-0.1,1.9-0.2,3.6-0.5,6.7c-0.6,6.4-0.7,7.1-1.1,11.6l-1.3,11.8h6.4l-1.5-11.9
		C62.3,50.5,60.9,37.4,60.7,35.5z"/>
</g>
</svg>
