<?xml version="1.0" encoding="utf-8"?>
<!-- Generator: Adobe Illustrator 19.2.1, SVG Export Plug-In . SVG Version: 6.00 Build 0)  -->
<svg version="1.1" id="Projectors" xmlns="http://www.w3.org/2000/svg" xmlns:xlink="http://www.w3.org/1999/xlink" x="0px" y="0px"
	 viewBox="0 0 685 115" style="enable-background:new 0 0 685 115;" xml:space="preserve">
<style type="text/css">
	.st0{opacity:0.5;}
	.st1{fill:#191919;}
	.st2{fill-rule:evenodd;clip-rule:evenodd;fill:#88E333;}
</style>
<g class="st0">
	<path class="st1" d="M69.2,92.1V62.5h-8.7v29.6h-10V25.4h10v28.1h8.7V25.4h10v66.7H69.2z"/>
	<path class="st1" d="M85.9,92.1V25.4h10v66.7H85.9z"/>
	<path class="st1" d="M102.5,25.4h9.5c5,0,10.2,0.2,14.6,7.1c4.1,6.2,4.5,18.9,4.5,26.3c0,30.3-7.8,33.3-17.5,33.3h-11.1V25.4z
		 M112.5,83.6c3,0,4.8,0,6.3-3.7c1.8-4.6,1.9-16.9,1.9-20.1c0-3.4,0-12.8-1-18.4c-1.4-7.5-4.1-7.5-7.2-7.5V83.6z"/>
	<path class="st1" d="M154.5,92.1V25.4h11.2c4.2,0,8.2,0,11.5,3.8c3,3.5,4.7,8.6,4.7,16.2c0,14.7-5.1,20.1-14.3,20.1h-3.1v26.6
		H154.5z M164.5,56.4h2c3.8,0,4.9-0.9,4.9-11.5c0-11-2.1-11-4.9-11h-2V56.4z"/>
	<path class="st1" d="M204.6,92.1l-6.5-28.7h-2.4v28.7h-10V25.4h11.6c4.1,0,8.4,0.6,11.5,4.7c2.1,2.8,3.8,6.6,3.8,14.5
		c0,12.7-3.9,15.1-6.1,16.4l8.4,31.1H204.6z M195.7,54.7h1.6c3.7,0,4.8-1.8,4.8-10.7c0-10.1-2.2-10.1-4.8-10.1h-1.6V54.7z"/>
	<path class="st1" d="M231.6,24.6c10.6,0,15.2,8.4,15.2,34.2c0,25.8-4.6,34.1-15.2,34.1c-13.5,0-15.1-14.5-15.1-34.1
		C216.5,39.9,217.8,24.6,231.6,24.6z M228,80.6c0.4,1.9,1.1,4,3.6,4c2.5,0,3.2-2,3.6-4c0.9-4.5,0.9-18.9,0.9-20.1
		c0-9.5-0.1-13.7-0.5-20.8c-0.2-4.9-1.4-6.8-4-6.8c-2.5,0-3.2,1.9-3.6,4c-0.8,4.2-0.8,21.5-0.8,21.9C227.2,64,227.2,76.1,228,80.6z"
		/>
	<path class="st1" d="M248,83.6c1.9,0.3,2.3,0.3,3.5,0.3c4.7,0,5.5-1.8,5.5-8.6V25.4h10v49.5c0,5.5,0,17.7-13.6,17.7
		c-0.8,0-3.2,0-5.4-0.7V83.6z"/>
	<path class="st1" d="M273.4,92.1V25.4h22.7v8.5h-12.7v19h9.2v8.5h-9.2v22.2H297v8.5H273.4z"/>
	<path class="st1" d="M327.5,77c-0.8,6.2-2.9,15.9-13.4,15.9c-11.8,0-15.3-10.7-15.3-34.5c0-23.6,3.7-33.8,15.2-33.8
		c7.8,0,12.4,5.2,13.5,16.7l-9.3,1.2c-0.5-6.5-1.6-9.5-4.4-9.5c-2.7,0-3.4,3-3.8,6.6c-0.7,5-0.7,12.7-0.7,19.4
		c0,6.1,0,17.1,1.4,22.2c0.2,1,1,3.3,3.4,3.3c3,0,3.5-3.3,4.1-8.7L327.5,77z"/>
	<path class="st1" d="M335.1,92.1V33.9h-7.4v-8.5h24.7v8.5h-7.3v58.2H335.1z"/>
	<path class="st1" d="M368.4,24.6c10.6,0,15.2,8.4,15.2,34.2c0,25.8-4.6,34.1-15.2,34.1c-13.5,0-15.1-14.5-15.1-34.1
		C353.3,39.9,354.6,24.6,368.4,24.6z M364.8,80.6c0.4,1.9,1.1,4,3.6,4c2.5,0,3.2-2,3.6-4c0.9-4.5,0.9-18.9,0.9-20.1
		c0-9.5-0.1-13.7-0.5-20.8c-0.2-4.9-1.4-6.8-4-6.8c-2.5,0-3.2,1.9-3.6,4c-0.8,4.2-0.8,21.5-0.8,21.9C364,64,364,76.1,364.8,80.6z"/>
	<path class="st1" d="M407.9,92.1l-6.5-28.7H399v28.7h-10V25.4h11.6c4.1,0,8.4,0.6,11.5,4.7c2.1,2.8,3.8,6.6,3.8,14.5
		c0,12.7-3.9,15.1-6.1,16.4l8.4,31.1H407.9z M399,54.7h1.6c3.7,0,4.8-1.8,4.8-10.7c0-10.1-2.2-10.1-4.8-10.1H399V54.7z"/>
	<path class="st1" d="M428.5,75.8c0.1,4.2,0.3,8.8,4.2,8.8c2.9,0,4.3-2.8,4.3-9.5c0-7.6-2.4-9.7-8.7-15c-2.5-2.1-8.3-7.9-8.3-18.2
		c0-9.3,3.5-17.3,12.9-17.3c9.6,0,12.4,7.9,12.9,14.6l-9.3,1.2c-0.7-7.4-2.1-7.4-3.5-7.4c-2.4,0-3.1,3.1-3.1,8
		c0,4.8,1.1,7.1,6.6,11.7c5.9,5.1,10.4,10,10.4,20.6c0,8.3-1.8,19.6-14.1,19.6c-11.6,0-13.6-9.7-13.6-16.1L428.5,75.8z"/>
</g>
<g>
	<path class="st2" d="M112.5,33.9v49.7c3,0,4.8,0,6.3-3.7c1.8-4.6,1.9-16.9,1.9-20.1c0-3.4,0-12.8-1-18.4
		C118.3,33.9,115.6,33.9,112.5,33.9z"/>
	<path class="st2" d="M231.6,32.9c-2.5,0-3.2,1.9-3.6,4c-0.8,4.2-0.8,21.5-0.8,21.9c0,5.2,0,17.3,0.8,21.8c0.4,1.9,1.1,4,3.6,4
		c2.5,0,3.2-2,3.6-4c0.9-4.5,0.9-18.9,0.9-20.1c0-9.5-0.1-13.7-0.5-20.8C235.4,34.8,234.2,32.9,231.6,32.9z"/>
	<path class="st2" d="M197.3,33.9h-1.6v20.8h1.6c3.7,0,4.8-1.8,4.8-10.7C202.1,33.9,199.9,33.9,197.3,33.9z"/>
	<path class="st2" d="M166.5,33.9h-2v22.5h2c3.8,0,4.9-0.9,4.9-11.5C171.4,33.9,169.3,33.9,166.5,33.9z"/>
	<path class="st2" d="M368.4,32.9c-2.5,0-3.2,1.9-3.6,4c-0.8,4.2-0.8,21.5-0.8,21.9c0,5.2,0,17.3,0.8,21.8c0.4,1.9,1.1,4,3.6,4
		c2.5,0,3.2-2,3.6-4c0.9-4.5,0.9-18.9,0.9-20.1c0-9.5-0.1-13.7-0.5-20.8C372.3,34.8,371,32.9,368.4,32.9z"/>
	<path class="st2" d="M400.6,33.9H399v20.8h1.6c3.7,0,4.8-1.8,4.8-10.7C405.4,33.9,403.2,33.9,400.6,33.9z"/>
	<path class="st2" d="M486.4,53.1L470.7,0H0v115h470.7l15.7-53.1C487.2,59.5,487.2,55.5,486.4,53.1z M79.2,92.1h-10V62.5h-8.7v29.6
		h-10V25.4h10v28.1h8.7V25.4h10V92.1z M95.9,92.1h-10V25.4h10V92.1z M113.6,92.1h-11.1V25.4h9.5c5,0,10.2,0.2,14.6,7.1
		c4.1,6.2,4.5,18.9,4.5,26.3C131.1,89.1,123.3,92.1,113.6,92.1z M167.6,65.5h-3.1v26.6h-10V25.4h11.2c4.2,0,8.2,0,11.5,3.8
		c3,3.5,4.7,8.6,4.7,16.2C181.9,60.1,176.8,65.5,167.6,65.5z M204.6,92.1l-6.5-28.7h-2.4v28.7h-10V25.4h11.6c4.1,0,8.4,0.6,11.5,4.7
		c2.1,2.8,3.8,6.6,3.8,14.5c0,12.7-3.9,15.1-6.1,16.4l8.4,31.1H204.6z M231.6,92.9c-13.5,0-15.1-14.5-15.1-34.1
		c0-18.9,1.3-34.2,15.1-34.2c10.6,0,15.2,8.4,15.2,34.2C246.8,84.6,242.2,92.9,231.6,92.9z M267,74.9c0,5.5,0,17.7-13.6,17.7
		c-0.8,0-3.2,0-5.4-0.7v-8.3c1.9,0.3,2.3,0.3,3.5,0.3c4.7,0,5.5-1.8,5.5-8.6V25.4h10V74.9z M297,92.1h-23.6V25.4h22.7v8.5h-12.7v19
		h9.2v8.5h-9.2v22.2H297V92.1z M310.7,81.2c0.2,1,1,3.3,3.4,3.3c3,0,3.5-3.3,4.1-8.7l9.3,1.2c-0.8,6.2-2.9,15.9-13.4,15.9
		c-11.8,0-15.3-10.7-15.3-34.5c0-23.6,3.7-33.8,15.2-33.8c7.8,0,12.4,5.2,13.5,16.7l-9.3,1.2c-0.5-6.5-1.6-9.5-4.4-9.5
		c-2.7,0-3.4,3-3.8,6.6c-0.7,5-0.7,12.7-0.7,19.4C309.3,65.1,309.3,76.1,310.7,81.2z M352.4,33.9h-7.3v58.2h-10V33.9h-7.4v-8.5h24.7
		V33.9z M368.4,92.9c-13.5,0-15.1-14.5-15.1-34.1c0-18.9,1.3-34.2,15.1-34.2c10.6,0,15.2,8.4,15.2,34.2
		C383.7,84.6,379.1,92.9,368.4,92.9z M407.9,92.1l-6.5-28.7H399v28.7h-10V25.4h11.6c4.1,0,8.4,0.6,11.5,4.7
		c2.1,2.8,3.8,6.6,3.8,14.5c0,12.7-3.9,15.1-6.1,16.4l8.4,31.1H407.9z M432.8,92.9c-11.6,0-13.6-9.7-13.6-16.1l9.3-1
		c0.1,4.2,0.3,8.8,4.2,8.8c2.9,0,4.3-2.8,4.3-9.5c0-7.6-2.4-9.7-8.7-15c-2.5-2.1-8.3-7.9-8.3-18.2c0-9.3,3.5-17.3,12.9-17.3
		c9.6,0,12.4,7.9,12.9,14.6l-9.3,1.2c-0.7-7.4-2.1-7.4-3.5-7.4c-2.4,0-3.1,3.1-3.1,8c0,4.8,1.1,7.1,6.6,11.7
		c5.9,5.1,10.4,10,10.4,20.6C446.9,81.6,445.1,92.9,432.8,92.9z"/>
</g>
</svg>
