<?xml version="1.0" encoding="utf-8"?>
<!-- Generator: Adobe Illustrator 19.2.1, SVG Export Plug-In . SVG Version: 6.00 Build 0)  -->
<svg version="1.1" id="Koito" xmlns="http://www.w3.org/2000/svg" xmlns:xlink="http://www.w3.org/1999/xlink" x="0px" y="0px"
	 viewBox="0 0 685 115" style="enable-background:new 0 0 685 115;" xml:space="preserve">
<style type="text/css">
	.st0{opacity:0.5;}
	.st1{fill-rule:evenodd;clip-rule:evenodd;fill:#231F20;}
	.st2{fill-rule:evenodd;clip-rule:evenodd;fill:#88E333;}
</style>
<g class="st0">
	<path class="st1" d="M65.3,34.4c-2.2-1.2-3.7-2.8-3.7-5.4c0-2.5,1.5-4.2,4-4.2c9.3-0.1,18.6-0.1,27.8,0c1.9,0,3.5,1,4.1,2.8
		c0.5,1.7,0.4,3.5-1.2,4.8c-1.8,1.5-2.9,3.3-3.2,5.7c-0.3,2.5-1.1,4.9-1.6,7.1c3.6-3.7,7.3-7.4,11.1-11.2c-0.2-0.3-0.7-1-1.2-1.7
		c-1.2-1.7-1.2-3.6-0.3-5.4c0.8-1.7,2.4-1.8,4-1.8c8.7,0,17.3,0,26,0c2.2,0,3.6,0.9,4,2.4c0.7,2.3,0.1,4.8-1.8,5.6
		c-6,2.6-9.5,8-13.9,12.3c-1.3,1.3-2.7,2.6-4,4c-3,3.1-6,6.2-8.9,9.4c-0.4,0.4-0.6,1.5-0.3,2c2.9,7.2,5.9,14.4,9,21.5
		c0.3,0.6,0.9,1.1,1.4,1.6c1.6,1.5,3.2,2.9,2.9,5.4c-0.2,1.7-1.3,3-3,3c-8,0-15.9,0-23.9,0c-2.2,0-3.9-2.6-3.3-4.9
		c0.5-2,1.8-3.4,3.9-4c-2.1-5.2-4.2-10.4-6.3-15.5c-0.1,0-0.3,0-0.4,0c-2,5.1-3.9,10.3-5.9,15.4c0.9,0.8,1.9,1.4,2.5,2.3
		c2.3,3.5,0.5,7-3.7,7.1c-9.1,0.1-18.2,0.1-27.3,0c-1.5,0-2.7-0.8-3.1-2.4c-0.7-2.5-0.1-4.5,1.8-5.6c1-0.6,1.3-1.2,1.6-2.3
		c4.1-15.4,8.3-30.8,12.5-46.2C65.1,35.6,65.2,35,65.3,34.4z"/>
	<path class="st1" d="M247.8,83.9c2.6,1.5,3.7,3.9,3,6.2c-0.6,1.9-1.6,2.7-3.7,2.7c-9.1,0-18.2,0-27.3,0c-1.6,0-2.8-0.8-3.3-2.3
		c-0.7-2.2-0.3-4.2,1.4-5c2-1,2.4-2.7,3-4.5c2-6.7,4-13.5,6-20.2c2.1-7,4.2-14,6.4-21.2c-0.8,0-1.4,0-2,0c-26.6,0-53.3,0-79.9,0
		c-2.3,0-4.4-0.5-5.9-2.3c-2.1-2.4-2.5-5.3-1.5-8.2c1-2.9,2.9-4.1,6.3-4.5c1.2-0.1,2.5-0.2,3.7,0c2.6,0.5,4.4,2,4.5,5
		c0.7,0,1.3,0,1.9,0c46.3,0,92.5,0,138.8,0c1.3,0,2.1-0.2,2.8-1.5c1.7-2.9,5.1-3.7,8.6-2.9c2.5,0.5,4,2.5,4.6,5.2
		c0.9,4.3-1.1,7.9-4.8,8.8c-0.6,0.1-1.2,0.2-1.8,0.2c-14.9,0-29.7,0-44.6,0c-1.6,0-2.3,0.4-2.8,2c-3.4,11.1-6.9,22.2-10.4,33.2
		C249.6,77.9,248.7,80.9,247.8,83.9z"/>
	<path class="st1" d="M204.7,83.3c1.2,1.1,2.4,2,3.3,3c1.1,1.3,0.5,2.7,0.1,4.1c-0.6,1.7-2,2.5-3.6,2.5c-9.2,0.1-18.4,0.1-27.6,0
		c-1.5,0-3.4-1.6-3.8-2.9c-0.5-1.8,0.1-3.8,1.9-4.8c1.4-0.8,1.9-1.7,2.3-3.2c1.4-4.9,3-9.7,4.5-14.6c1-3.3,1.9-6.7,3-9.9
		c0.3-1,0-1.3-0.7-1.8c-2.1-1.5-2.9-4-2.1-6.3c0.5-1.6,1.7-2.4,3.3-2.4c9.7-0.1,19.5-0.1,29.2,0c2.9,0.1,3.6,1.8,3.2,5
		c-0.2,1.7-1.3,2.9-2.8,3.8c-0.6,0.3-1.1,0.9-1.3,1.5C210.4,66,207.5,74.7,204.7,83.3z"/>
	<path class="st1" d="M168.2,67.4c0,6.4-2.1,11.9-6.2,16.8c-3,3.6-6.7,6.2-11.2,7.4c-7.7,2-15.4,0-20.6-7.1
		c-5-6.7-4.9-13.9-2.4-21.4c2-5.9,5.7-10.4,11-13.5c2.5-1.5,5.3-2.1,8.3-2.4c3.9-0.3,7.5,0.3,10.8,2.1c5.6,2.9,8.9,7.5,9.8,13.8
		C167.9,64.5,168.1,66,168.2,67.4z M140.1,71.7c0,0.2,0,0.6,0,1c0.1,4.3,4.1,6.9,8,5.1c4.7-2.1,6.6-6,6.5-11c-0.1-2.2-1-3.9-2.8-4.8
		c-2.1-1.1-4.5-1.5-6.6-0.1C141.7,64.1,139.9,67.3,140.1,71.7z"/>
	<path class="st1" d="M307.9,67.5c0,9.1-3.9,16.1-11,21.3c-6.9,5-16,5.3-22.9,0.1c-5-3.7-8-8.8-8.1-15.4c-0.1-6.3,1.4-12.1,5.2-17.1
		c3.9-5.2,9-8.6,15.9-9.1c4.6-0.3,8.7,0.7,12.4,3.1c4.6,3,7.4,7.3,8.1,12.8C307.6,64.7,307.7,66.1,307.9,67.5z M294.3,66.4
		c0.1-1.3-0.9-3.2-3.2-4.3c-2.1-1-4.4-1.4-6.6,0.2c-4.3,3.1-5.4,7.3-4.7,11.6c0.8,4.4,4.9,5.7,8.2,4.1
		C292.3,75.8,294,72.2,294.3,66.4z"/>
</g>
<g>
	<path class="st2" d="M151.7,61.9c-2.1-1.1-4.5-1.5-6.6-0.1c-3.4,2.3-5.2,5.5-5,9.9c0,0.2,0,0.6,0,1c0.1,4.3,4.1,6.9,8,5.1
		c4.7-2.1,6.6-6,6.5-11C154.5,64.6,153.6,62.8,151.7,61.9z"/>
	<path class="st2" d="M291.1,62.1c-2.1-1-4.4-1.4-6.6,0.2c-4.3,3.1-5.4,7.3-4.7,11.6c0.8,4.4,4.9,5.7,8.2,4.1
		c4.3-2.2,6-5.8,6.3-11.6C294.4,65.1,293.3,63.1,291.1,62.1z"/>
	<path class="st2" d="M354.4,53.1L338.7,0H0v115h338.7l15.7-53.1C355.2,59.5,355.2,55.5,354.4,53.1z M106.3,60.7
		c2.9,7.2,5.9,14.4,9,21.5c0.3,0.6,0.9,1.1,1.4,1.6c1.6,1.5,3.2,2.9,2.9,5.4c-0.2,1.7-1.3,3-3,3c-8,0-15.9,0-23.9,0
		c-2.2,0-3.9-2.6-3.3-4.9c0.5-2,1.8-3.4,3.9-4c-2.1-5.2-4.2-10.4-6.3-15.5c-0.1,0-0.3,0-0.4,0c-2,5.1-3.9,10.3-5.9,15.4
		c0.9,0.8,1.9,1.4,2.5,2.3c2.3,3.5,0.5,7-3.7,7.1c-9.1,0.1-18.2,0.1-27.3,0c-1.5,0-2.7-0.8-3.1-2.4c-0.7-2.5-0.1-4.5,1.8-5.6
		c1-0.6,1.3-1.2,1.6-2.3c4.1-15.4,8.3-30.8,12.5-46.2c0.1-0.5,0.2-1.1,0.4-1.8c-2.2-1.2-3.7-2.8-3.7-5.4c0-2.5,1.5-4.2,4-4.2
		c9.3-0.1,18.6-0.1,27.8,0c1.9,0,3.5,1,4.1,2.8c0.5,1.7,0.4,3.5-1.2,4.8c-1.8,1.5-2.9,3.3-3.2,5.7c-0.3,2.5-1.1,4.9-1.6,7.1
		c3.6-3.7,7.3-7.4,11.1-11.2c-0.2-0.3-0.7-1-1.2-1.7c-1.2-1.7-1.2-3.6-0.3-5.4c0.8-1.7,2.4-1.8,4-1.8c8.7,0,17.3,0,26,0
		c2.2,0,3.6,0.9,4,2.4c0.7,2.3,0.1,4.8-1.8,5.6c-6,2.6-9.5,8-13.9,12.3c-1.3,1.3-2.7,2.6-4,4c-3,3.1-6,6.2-8.9,9.4
		C106.2,59.1,106,60.2,106.3,60.7z M162,84.2c-3,3.6-6.7,6.2-11.2,7.4c-7.7,2-15.4,0-20.6-7.1c-5-6.7-4.9-13.9-2.4-21.4
		c2-5.9,5.7-10.4,11-13.5c2.5-1.5,5.3-2.1,8.3-2.4c3.9-0.3,7.5,0.3,10.8,2.1c5.6,2.9,8.9,7.5,9.8,13.8c0.2,1.4,0.3,2.9,0.5,4.4
		C168.2,73.8,166.1,79.4,162,84.2z M213.4,57.3c-3,8.7-5.9,17.4-8.7,26c1.2,1.1,2.4,2,3.3,3c1.1,1.3,0.5,2.7,0.1,4.1
		c-0.6,1.7-2,2.5-3.6,2.5c-9.2,0.1-18.4,0.1-27.6,0c-1.5,0-3.4-1.6-3.8-2.9c-0.5-1.8,0.1-3.8,1.9-4.8c1.4-0.8,1.9-1.7,2.3-3.2
		c1.4-4.9,3-9.7,4.5-14.6c1-3.3,1.9-6.7,3-9.9c0.3-1,0-1.3-0.7-1.8c-2.1-1.5-2.9-4-2.1-6.3c0.5-1.6,1.7-2.4,3.3-2.4
		c9.7-0.1,19.5-0.1,29.2,0c2.9,0.1,3.6,1.8,3.2,5c-0.2,1.7-1.3,2.9-2.8,3.8C214.2,56.1,213.6,56.7,213.4,57.3z M296.9,88.9
		c-6.9,5-16,5.3-22.9,0.1c-5-3.7-8-8.8-8.1-15.4c-0.1-6.3,1.4-12.1,5.2-17.1c3.9-5.2,9-8.6,15.9-9.1c4.6-0.3,8.7,0.7,12.4,3.1
		c4.6,3,7.4,7.3,8.1,12.8c0.2,1.4,0.3,2.8,0.5,4.2C307.9,76.6,304,83.7,296.9,88.9z M310.1,39.5c-0.6,0.1-1.2,0.2-1.8,0.2
		c-14.9,0-29.7,0-44.6,0c-1.6,0-2.3,0.4-2.8,2c-3.4,11.1-6.9,22.2-10.4,33.2c-0.9,3-1.8,6.1-2.7,9.1c2.6,1.5,3.7,3.9,3,6.2
		c-0.6,1.9-1.6,2.7-3.7,2.7c-9.1,0-18.2,0-27.3,0c-1.6,0-2.8-0.8-3.3-2.3c-0.7-2.2-0.3-4.2,1.4-5c2-1,2.4-2.7,3-4.5
		c2-6.7,4-13.5,6-20.2c2.1-7,4.2-14,6.4-21.2c-0.8,0-1.4,0-2,0c-26.6,0-53.3,0-79.9,0c-2.3,0-4.4-0.5-5.9-2.3
		c-2.1-2.4-2.5-5.3-1.5-8.2c1-2.9,2.9-4.1,6.3-4.5c1.2-0.1,2.5-0.2,3.7,0c2.6,0.5,4.4,2,4.5,5c0.7,0,1.3,0,1.9,0
		c46.3,0,92.5,0,138.8,0c1.3,0,2.1-0.2,2.8-1.5c1.7-2.9,5.1-3.7,8.6-2.9c2.5,0.5,4,2.5,4.6,5.2C315.9,35,313.9,38.6,310.1,39.5z"/>
</g>
</svg>
