<?xml version="1.0" encoding="utf-8"?>
<!-- Generator: Adobe Illustrator 21.1.0, SVG Export Plug-In . SVG Version: 6.00 Build 0)  -->
<svg version="1.1" id="Plug_N_Play" xmlns="http://www.w3.org/2000/svg" xmlns:xlink="http://www.w3.org/1999/xlink" x="0px"
	 y="0px" viewBox="0 0 685 115" style="enable-background:new 0 0 685 115;" xml:space="preserve">
<style type="text/css">
	.st0{opacity:0.5;}
	.st1{fill:#191919;}
	.st2{fill-rule:evenodd;clip-rule:evenodd;fill:#88E333;}
</style>
<g class="st0">
	<path class="st1" d="M50.5,92.1V25.4h11.2c4.2,0,8.2,0,11.5,3.8c3,3.5,4.7,8.6,4.7,16.2c0,14.7-5.1,20.1-14.3,20.1h-3.1v26.6H50.5z
		 M60.5,56.4h2c3.8,0,4.9-0.9,4.9-11.5c0-11-2.1-11-4.9-11h-2V56.4z"/>
	<path class="st1" d="M81.6,92.1V25.4h10v58.2h12.5v8.5H81.6z"/>
	<path class="st1" d="M116.6,25.4v50.2c0.1,5.8,0.1,8.3,3.6,8.3c3.7,0,3.7-2.9,3.7-8.3V25.4h9.9v49.3c0,6.9,0,18.2-13.4,18.2
		s-13.6-10.2-13.6-18.2V25.4H116.6z"/>
	<path class="st1" d="M162.4,92.5l-0.9-5.3c-1.1,2.7-3.2,5.5-8.4,5.5c-11.3,0-13.9-12.1-13.9-34.1c0-18.1,0.6-34,15.4-34
		c10.7,0,13.2,8.7,14.3,16.2l-9.8,1.3c-0.6-7.2-2.3-9-4.6-9c-3.2,0-3.9,3-4.3,6.1c-0.6,4.3-0.6,14-0.6,18.7c0,5,0.1,15.7,0.6,20.1
		c0.4,2.6,1,6.8,4.6,6.8c4.1,0,4.8-4.5,4.8-13.1v-4.3h-4.7v-8.9h14v34H162.4z"/>
	<path class="st1" d="M213.5,92.1l-8.9-29.5c-0.3-1-2.4-7.7-4.3-16.8c0.3,7.6,0.8,20.6,0.8,24.8v21.5h-8.2V25.4h8.4l8.5,30
		c2.3,8.1,3.1,11.1,4.6,17.5c-0.5-7.9-0.9-16.5-0.9-23.8V25.4h8.1v66.7H213.5z"/>
	<path class="st1" d="M246.6,92.1V25.4h11.2c4.2,0,8.2,0,11.5,3.8c3,3.5,4.7,8.6,4.7,16.2c0,14.7-5.1,20.1-14.3,20.1h-3.1v26.6
		H246.6z M256.6,56.4h2c3.8,0,4.9-0.9,4.9-11.5c0-11-2.1-11-4.9-11h-2V56.4z"/>
	<path class="st1" d="M277.8,92.1V25.4h10v58.2h12.5v8.5H277.8z"/>
	<path class="st1" d="M322.5,92.1l-2.3-18.4h-8l-2.1,18.4h-8.9l10.3-66.7h9.8l10.6,66.7H322.5z M319.3,65.6l-1.5-11.9
		c-0.4-3.2-1.8-16.3-2-18.2c-0.1,1.9-0.2,3.6-0.5,6.7c-0.6,6.4-0.7,7.1-1.1,11.6l-1.3,11.8H319.3z"/>
	<path class="st1" d="M337.7,92.1v-28l-10.1-38.7h9.9l3,14c1.3,6,2.6,11.8,2.9,17c0.5-6.1,2.2-15.8,2.6-17.5l2.7-13.5h9.5
		l-10.5,38.5v28.2H337.7z"/>
</g>
<g>
	<path class="st2" d="M258.6,33.9h-2v22.5h2c3.8,0,4.9-0.9,4.9-11.5C263.5,33.9,261.4,33.9,258.6,33.9z"/>
	<path class="st2" d="M397.3,53.1L381.6,0H0v115h381.6l15.7-53.1C398.1,59.5,398.1,55.5,397.3,53.1z M63.6,65.5h-3.1v26.6h-10V25.4
		h11.2c4.2,0,8.2,0,11.5,3.8c3,3.5,4.7,8.6,4.7,16.2C77.9,60.1,72.8,65.5,63.6,65.5z M104.1,92.1H81.6V25.4h10v58.2h12.5V92.1z
		 M133.8,74.7c0,6.9,0,18.2-13.4,18.2s-13.6-10.2-13.6-18.2V25.4h9.8v50.2c0.1,5.8,0.1,8.3,3.6,8.3c3.7,0,3.7-2.9,3.7-8.3V25.4h9.9
		V74.7z M150.2,78c0.4,2.6,1,6.8,4.6,6.8c4.1,0,4.8-4.5,4.8-13.1v-4.3h-4.7v-8.9h14v34h-6.5l-0.9-5.3c-1.1,2.7-3.2,5.5-8.4,5.5
		c-11.3,0-13.9-12.1-13.9-34.1c0-18.1,0.6-34,15.4-34c10.7,0,13.2,8.7,14.3,16.2l-9.8,1.3c-0.6-7.2-2.3-9-4.6-9
		c-3.2,0-3.9,3-4.3,6.1c-0.6,4.3-0.6,14-0.6,18.7C149.6,62.9,149.7,73.6,150.2,78z M221.6,92.1h-8.1l-8.9-29.5
		c-0.3-1-2.4-7.7-4.3-16.8c0.3,7.6,0.8,20.6,0.8,24.8v21.5h-8.2V25.4h8.4l8.5,30c2.3,8.1,3.1,11.1,4.6,17.5
		c-0.5-7.9-0.9-16.5-0.9-23.8V25.4h8.1V92.1z M259.7,65.5h-3.1v26.6h-10V25.4h11.2c4.2,0,8.2,0,11.5,3.8c3,3.5,4.7,8.6,4.7,16.2
		C274,60.1,268.9,65.5,259.7,65.5z M300.3,92.1h-22.5V25.4h10v58.2h12.5V92.1z M322.5,92.1l-2.3-18.4h-8l-2.1,18.4h-8.9l10.3-66.7
		h9.8l10.6,66.7H322.5z M347.7,63.9v28.2h-10v-28l-10.1-38.7h9.9l3,14c1.3,6,2.6,11.8,2.9,17c0.5-6.1,2.2-15.8,2.6-17.5l2.7-13.5
		h9.5L347.7,63.9z"/>
	<path class="st2" d="M315.8,35.5c-0.1,1.9-0.2,3.6-0.5,6.7c-0.6,6.4-0.7,7.1-1.1,11.6l-1.3,11.8h6.4l-1.5-11.9
		C317.4,50.5,316,37.4,315.8,35.5z"/>
	<path class="st2" d="M62.5,33.9h-2v22.5h2c3.8,0,4.9-0.9,4.9-11.5C67.4,33.9,65.3,33.9,62.5,33.9z"/>
</g>
</svg>
