<?xml version="1.0" encoding="utf-8"?>
<!-- Generator: Adobe Illustrator 21.1.0, SVG Export Plug-In . SVG Version: 6.00 Build 0)  -->
<svg version="1.1" id="LED_Acc" xmlns="http://www.w3.org/2000/svg" xmlns:xlink="http://www.w3.org/1999/xlink" x="0px" y="0px"
	 viewBox="0 0 685 115" style="enable-background:new 0 0 685 115;" xml:space="preserve">
<style type="text/css">
	.st0{opacity:0.5;}
	.st1{fill:#191919;}
	.st2{fill-rule:evenodd;clip-rule:evenodd;fill:#88E333;}
</style>
<g class="st0">
	<path class="st1" d="M50.5,92.1V25.4h10v58.2H73v8.5H50.5z"/>
	<path class="st1" d="M75.8,92.1V25.4h22.7v8.5H85.8v19H95v8.5h-9.2v22.2h13.6v8.5H75.8z"/>
	<path class="st1" d="M103.3,25.4h9.5c5,0,10.2,0.2,14.6,7.1c4.1,6.2,4.5,18.9,4.5,26.3c0,30.3-7.8,33.3-17.5,33.3h-11.1V25.4z
		 M113.3,83.6c3,0,4.8,0,6.3-3.7c1.8-4.6,1.9-16.9,1.9-20.1c0-3.4,0-12.8-1-18.4c-1.4-7.5-4.1-7.5-7.2-7.5V83.6z"/>
	<path class="st1" d="M172.2,92.1l-2.3-18.4h-8l-2.1,18.4h-8.9l10.3-66.7h9.8l10.6,66.7H172.2z M169,65.6l-1.5-11.9
		c-0.4-3.2-1.8-16.3-2-18.2c-0.1,1.9-0.2,3.6-0.5,6.7c-0.6,6.4-0.7,7.1-1.1,11.6l-1.3,11.8H169z"/>
	<path class="st1" d="M211.3,77c-0.8,6.2-2.9,15.9-13.4,15.9c-11.8,0-15.3-10.7-15.3-34.5c0-23.6,3.7-33.8,15.2-33.8
		c7.8,0,12.4,5.2,13.5,16.7l-9.3,1.2c-0.5-6.5-1.6-9.5-4.4-9.5c-2.7,0-3.4,3-3.8,6.6c-0.7,5-0.7,12.7-0.7,19.4
		c0,6.1,0,17.1,1.4,22.2c0.2,1,1,3.3,3.4,3.3c3,0,3.5-3.3,4.1-8.7L211.3,77z"/>
	<path class="st1" d="M241.9,77c-0.8,6.2-2.9,15.9-13.4,15.9c-11.8,0-15.3-10.7-15.3-34.5c0-23.6,3.7-33.8,15.2-33.8
		c7.8,0,12.4,5.2,13.5,16.7l-9.3,1.2c-0.5-6.5-1.6-9.5-4.4-9.5c-2.7,0-3.4,3-3.8,6.6c-0.7,5-0.7,12.7-0.7,19.4
		c0,6.1,0,17.1,1.4,22.2c0.2,1,1,3.3,3.4,3.3c3,0,3.5-3.3,4.1-8.7L241.9,77z"/>
	<path class="st1" d="M245.1,92.1V25.4h22.7v8.5h-12.7v19h9.2v8.5h-9.2v22.2h13.6v8.5H245.1z"/>
	<path class="st1" d="M280.4,75.8c0.1,4.2,0.3,8.8,4.2,8.8c2.9,0,4.3-2.8,4.3-9.5c0-7.6-2.4-9.7-8.7-15c-2.5-2.1-8.3-7.9-8.3-18.2
		c0-9.3,3.5-17.3,12.9-17.3c9.6,0,12.4,7.9,12.9,14.6l-9.3,1.2c-0.7-7.4-2.1-7.4-3.5-7.4c-2.4,0-3.1,3.1-3.1,8
		c0,4.8,1.1,7.1,6.6,11.7c5.9,5.1,10.4,10,10.4,20.6c0,8.3-1.8,19.6-14.1,19.6c-11.6,0-13.6-9.7-13.6-16.1L280.4,75.8z"/>
	<path class="st1" d="M310.9,75.8c0.1,4.2,0.3,8.8,4.2,8.8c2.9,0,4.3-2.8,4.3-9.5c0-7.6-2.4-9.7-8.7-15c-2.5-2.1-8.3-7.9-8.3-18.2
		c0-9.3,3.5-17.3,12.9-17.3c9.6,0,12.4,7.9,12.9,14.6l-9.3,1.2c-0.7-7.4-2.1-7.4-3.5-7.4c-2.4,0-3.1,3.1-3.1,8
		c0,4.8,1.1,7.1,6.6,11.7c5.9,5.1,10.4,10,10.4,20.6c0,8.3-1.8,19.6-14.1,19.6c-11.6,0-13.6-9.7-13.6-16.1L310.9,75.8z"/>
	<path class="st1" d="M347.7,24.6c10.6,0,15.2,8.4,15.2,34.2c0,25.8-4.6,34.1-15.2,34.1c-13.5,0-15.1-14.5-15.1-34.1
		C332.6,39.9,333.9,24.6,347.7,24.6z M344.1,80.6c0.4,1.9,1.1,4,3.6,4c2.5,0,3.2-2,3.6-4c0.9-4.5,0.9-18.9,0.9-20.1
		c0-9.5-0.1-13.7-0.5-20.8c-0.2-4.9-1.4-6.8-4-6.8c-2.5,0-3.2,1.9-3.6,4c-0.8,4.2-0.8,21.5-0.8,21.9C343.3,64,343.3,76.1,344.1,80.6
		z"/>
	<path class="st1" d="M387.1,92.1l-6.5-28.7h-2.4v28.7h-10V25.4h11.6c4.1,0,8.4,0.6,11.5,4.7c2.1,2.8,3.8,6.6,3.8,14.5
		c0,12.7-3.9,15.1-6.1,16.4l8.4,31.1H387.1z M378.2,54.7h1.6c3.7,0,4.8-1.8,4.8-10.7c0-10.1-2.2-10.1-4.8-10.1h-1.6V54.7z"/>
	<path class="st1" d="M401.1,92.1V25.4h10v66.7H401.1z"/>
	<path class="st1" d="M417.7,92.1V25.4h22.7v8.5h-12.7v19h9.2v8.5h-9.2v22.2h13.6v8.5H417.7z"/>
	<path class="st1" d="M453,75.8c0.1,4.2,0.3,8.8,4.2,8.8c2.9,0,4.3-2.8,4.3-9.5c0-7.6-2.4-9.7-8.7-15c-2.5-2.1-8.3-7.9-8.3-18.2
		c0-9.3,3.5-17.3,12.9-17.3c9.6,0,12.4,7.9,12.9,14.6l-9.3,1.2c-0.7-7.4-2.1-7.4-3.5-7.4c-2.4,0-3.1,3.1-3.1,8
		c0,4.8,1.1,7.1,6.6,11.7c5.9,5.1,10.4,10,10.4,20.6c0,8.3-1.8,19.6-14.1,19.6c-11.6,0-13.6-9.7-13.6-16.1L453,75.8z"/>
</g>
<g>
	<path class="st2" d="M347.7,32.9c-2.5,0-3.2,1.9-3.6,4c-0.8,4.2-0.8,21.5-0.8,21.9c0,5.2,0,17.3,0.8,21.8c0.4,1.9,1.1,4,3.6,4
		c2.5,0,3.2-2,3.6-4c0.9-4.5,0.9-18.9,0.9-20.1c0-9.5-0.1-13.7-0.5-20.8C351.5,34.8,350.3,32.9,347.7,32.9z"/>
	<path class="st2" d="M379.8,33.9h-1.6v20.8h1.6c3.7,0,4.8-1.8,4.8-10.7C384.6,33.9,382.4,33.9,379.8,33.9z"/>
	<path class="st2" d="M113.3,33.9v49.7c3,0,4.8,0,6.3-3.7c1.8-4.6,1.9-16.9,1.9-20.1c0-3.4,0-12.8-1-18.4
		C119.1,33.9,116.4,33.9,113.3,33.9z"/>
	<path class="st2" d="M165.5,35.5c-0.1,1.9-0.2,3.6-0.5,6.7c-0.6,6.4-0.7,7.1-1.1,11.6l-1.3,11.8h6.4l-1.5-11.9
		C167.1,50.5,165.7,37.4,165.5,35.5z"/>
	<path class="st2" d="M510.4,53.1L494.7,0H0v115h494.7l15.7-53.1C511.1,59.5,511.1,55.5,510.4,53.1z M73,92.1H50.5V25.4h10v58.2H73
		V92.1z M99.4,92.1H75.8V25.4h22.7v8.5H85.8v19H95v8.5h-9.2v22.2h13.6V92.1z M114.4,92.1h-11.1V25.4h9.5c5,0,10.2,0.2,14.6,7.1
		c4.1,6.2,4.5,18.9,4.5,26.3C131.9,89.1,124.1,92.1,114.4,92.1z M172.2,92.1l-2.3-18.4h-8l-2.1,18.4h-8.9l10.3-66.7h9.8l10.6,66.7
		H172.2z M194.5,81.2c0.2,1,1,3.3,3.4,3.3c3,0,3.5-3.3,4.1-8.7l9.3,1.2c-0.8,6.2-2.9,15.9-13.4,15.9c-11.8,0-15.3-10.7-15.3-34.5
		c0-23.6,3.7-33.8,15.2-33.8c7.8,0,12.4,5.2,13.5,16.7l-9.3,1.2c-0.5-6.5-1.6-9.5-4.4-9.5c-2.7,0-3.4,3-3.8,6.6
		c-0.7,5-0.7,12.7-0.7,19.4C193.1,65.1,193.1,76.1,194.5,81.2z M225.1,81.2c0.2,1,1,3.3,3.4,3.3c3,0,3.5-3.3,4.1-8.7l9.3,1.2
		c-0.8,6.2-2.9,15.9-13.4,15.9c-11.8,0-15.3-10.7-15.3-34.5c0-23.6,3.7-33.8,15.2-33.8c7.8,0,12.4,5.2,13.5,16.7l-9.3,1.2
		c-0.5-6.5-1.6-9.5-4.4-9.5c-2.7,0-3.4,3-3.8,6.6c-0.7,5-0.7,12.7-0.7,19.4C223.7,65.1,223.7,76.1,225.1,81.2z M268.7,92.1h-23.6
		V25.4h22.7v8.5h-12.7v19h9.2v8.5h-9.2v22.2h13.6V92.1z M284.7,92.9c-11.6,0-13.6-9.7-13.6-16.1l9.3-1c0.1,4.2,0.3,8.8,4.2,8.8
		c2.9,0,4.3-2.8,4.3-9.5c0-7.6-2.4-9.7-8.7-15c-2.5-2.1-8.3-7.9-8.3-18.2c0-9.3,3.5-17.3,12.9-17.3c9.6,0,12.4,7.9,12.9,14.6
		l-9.3,1.2c-0.7-7.4-2.1-7.4-3.5-7.4c-2.4,0-3.1,3.1-3.1,8c0,4.8,1.1,7.1,6.6,11.7c5.9,5.1,10.4,10,10.4,20.6
		C298.8,81.6,297,92.9,284.7,92.9z M315.2,92.9c-11.6,0-13.6-9.7-13.6-16.1l9.3-1c0.1,4.2,0.3,8.8,4.2,8.8c2.9,0,4.3-2.8,4.3-9.5
		c0-7.6-2.4-9.7-8.7-15c-2.5-2.1-8.3-7.9-8.3-18.2c0-9.3,3.5-17.3,12.9-17.3c9.6,0,12.4,7.9,12.9,14.6l-9.3,1.2
		c-0.7-7.4-2.1-7.4-3.5-7.4c-2.4,0-3.1,3.1-3.1,8c0,4.8,1.1,7.1,6.6,11.7c5.9,5.1,10.4,10,10.4,20.6
		C329.3,81.6,327.5,92.9,315.2,92.9z M347.7,92.9c-13.5,0-15.1-14.5-15.1-34.1c0-18.9,1.3-34.2,15.1-34.2c10.6,0,15.2,8.4,15.2,34.2
		C362.9,84.6,358.3,92.9,347.7,92.9z M387.1,92.1l-6.5-28.7h-2.4v28.7h-10V25.4h11.6c4.1,0,8.4,0.6,11.5,4.7
		c2.1,2.8,3.8,6.6,3.8,14.5c0,12.7-3.9,15.1-6.1,16.4l8.4,31.1H387.1z M411.1,92.1h-10V25.4h10V92.1z M441.3,92.1h-23.6V25.4h22.7
		v8.5h-12.7v19h9.2v8.5h-9.2v22.2h13.6V92.1z M457.3,92.9c-11.6,0-13.6-9.7-13.6-16.1l9.3-1c0.1,4.2,0.3,8.8,4.2,8.8
		c2.9,0,4.3-2.8,4.3-9.5c0-7.6-2.4-9.7-8.7-15c-2.5-2.1-8.3-7.9-8.3-18.2c0-9.3,3.5-17.3,12.9-17.3c9.6,0,12.4,7.9,12.9,14.6
		l-9.3,1.2c-0.7-7.4-2.1-7.4-3.5-7.4c-2.4,0-3.1,3.1-3.1,8c0,4.8,1.1,7.1,6.6,11.7c5.9,5.1,10.4,10,10.4,20.6
		C471.4,81.6,469.6,92.9,457.3,92.9z"/>
</g>
</svg>
