<?xml version="1.0" encoding="utf-8"?>
<!-- Generator: Adobe Illustrator 19.2.1, SVG Export Plug-In . SVG Version: 6.00 Build 0)  -->
<svg version="1.1" id="Vehicle" xmlns="http://www.w3.org/2000/svg" xmlns:xlink="http://www.w3.org/1999/xlink" x="0px" y="0px"
	 viewBox="0 0 685 115" style="enable-background:new 0 0 685 115;" xml:space="preserve">
<style type="text/css">
	.st0{opacity:0.5;}
	.st1{fill:#191919;}
	.st2{fill-rule:evenodd;clip-rule:evenodd;fill:#88E333;}
</style>
<g class="st0">
	<path class="st1" d="M56.9,75.8c0.1,4.2,0.3,8.8,4.2,8.8c2.9,0,4.3-2.8,4.3-9.5c0-7.6-2.4-9.7-8.7-15c-2.5-2.1-8.3-7.9-8.3-18.2
		c0-9.3,3.5-17.3,12.9-17.3c9.6,0,12.4,7.9,12.9,14.6l-9.3,1.2C64.2,33,62.8,33,61.4,33c-2.4,0-3.1,3.1-3.1,8
		c0,4.8,1.1,7.1,6.6,11.7c5.9,5.1,10.4,10,10.4,20.6c0,8.3-1.8,19.6-14.1,19.6c-11.6,0-13.6-9.7-13.6-16.1L56.9,75.8z"/>
	<path class="st1" d="M98.1,92.1V62.5h-8.7v29.6h-10V25.4h10v28.1h8.7V25.4h10v66.7H98.1z"/>
	<path class="st1" d="M128.7,24.6c10.6,0,15.2,8.4,15.2,34.2c0,25.8-4.6,34.1-15.2,34.1c-13.5,0-15.1-14.5-15.1-34.1
		C113.5,39.9,114.8,24.6,128.7,24.6z M125,80.6c0.4,1.9,1.1,4,3.6,4c2.5,0,3.2-2,3.6-4c0.9-4.5,0.9-18.9,0.9-20.1
		c0-9.5-0.1-13.7-0.5-20.8c-0.2-4.9-1.4-6.8-4-6.8c-2.5,0-3.2,1.9-3.6,4c-0.8,4.2-0.8,21.5-0.8,21.9C124.2,64,124.2,76.1,125,80.6z"
		/>
	<path class="st1" d="M149.2,92.1V25.4h11.2c4.2,0,8.2,0,11.5,3.8c3,3.5,4.7,8.6,4.7,16.2c0,14.7-5.1,20.1-14.3,20.1h-3.1v26.6
		H149.2z M159.2,56.4h2c3.8,0,4.9-0.9,4.9-11.5c0-11-2.1-11-4.9-11h-2V56.4z"/>
	<path class="st1" d="M197.8,25.4h9c5.1,0,15.8,0,15.8,16.5c0,2.5,0,13.2-7.4,14.7c8.2,1.9,9.2,11.7,9.2,16.6
		c0,15.5-7.2,18.9-17.6,18.9h-9V25.4z M207.3,53.1h1.4c3.9,0,4.8-2.8,4.8-10.3c0-9.2-2.5-9.7-4.8-9.7h-1.4V53.1z M207.3,84.2h1.7
		c4.6,0,5.4-2.9,5.4-11.6c0-11.5-2.9-11.9-5.4-11.9h-1.7V84.2z"/>
	<path class="st1" d="M233.8,92.1v-28l-10.1-38.7h9.9l3,14c1.3,6,2.6,11.8,2.9,17c0.5-6.1,2.2-15.8,2.6-17.5l2.7-13.5h9.5
		l-10.5,38.5v28.2H233.8z"/>
	<path class="st1" d="M280.7,92.1l-10.6-66.7h10l3.1,24.9c0.9,7.4,1.7,14.7,2.3,22c0.5-7.4,1.3-14.8,2.2-22.1l3-24.8h9.3l-10.2,66.7
		H280.7z"/>
	<path class="st1" d="M303.6,92.1V25.4h22.7v8.5h-12.7v19h9.2v8.5h-9.2v22.2h13.6v8.5H303.6z"/>
	<path class="st1" d="M349.8,92.1V62.5h-8.7v29.6h-10V25.4h10v28.1h8.7V25.4h10v66.7H349.8z"/>
	<path class="st1" d="M366.6,92.1V25.4h10v66.7H366.6z"/>
	<path class="st1" d="M410.6,77c-0.8,6.2-2.9,15.9-13.4,15.9c-11.8,0-15.3-10.7-15.3-34.5c0-23.6,3.7-33.8,15.2-33.8
		c7.8,0,12.4,5.2,13.5,16.7l-9.3,1.2c-0.5-6.5-1.6-9.5-4.4-9.5c-2.7,0-3.4,3-3.8,6.6c-0.7,5-0.7,12.7-0.7,19.4
		c0,6.1,0,17.1,1.4,22.2c0.2,1,1,3.3,3.4,3.3c3,0,3.5-3.3,4.1-8.7L410.6,77z"/>
	<path class="st1" d="M413.8,92.1V25.4h10v58.2h12.5v8.5H413.8z"/>
	<path class="st1" d="M439.2,92.1V25.4h22.7v8.5h-12.7v19h9.2v8.5h-9.2v22.2h13.6v8.5H439.2z"/>
</g>
<g>
	<path class="st2" d="M161.2,33.9h-2v22.5h2c3.8,0,4.9-0.9,4.9-11.5C166.1,33.9,164,33.9,161.2,33.9z"/>
	<path class="st2" d="M213.5,42.8c0-9.2-2.5-9.7-4.8-9.7h-1.4v20h1.4C212.6,53.1,213.5,50.3,213.5,42.8z"/>
	<path class="st2" d="M209,60.7h-1.7v23.5h1.7c4.6,0,5.4-2.9,5.4-11.6C214.4,61.1,211.5,60.7,209,60.7z"/>
	<path class="st2" d="M128.7,32.9c-2.5,0-3.2,1.9-3.6,4c-0.8,4.2-0.8,21.5-0.8,21.9c0,5.2,0,17.3,0.8,21.8c0.4,1.9,1.1,4,3.6,4
		c2.5,0,3.2-2,3.6-4c0.9-4.5,0.9-18.9,0.9-20.1c0-9.5-0.1-13.7-0.5-20.8C132.5,34.8,131.3,32.9,128.7,32.9z"/>
	<path class="st2" d="M502.4,53.1L486.7,0H0v115h486.7l15.7-53.1C503.2,59.5,503.2,55.5,502.4,53.1z M61.2,92.9
		c-11.6,0-13.6-9.7-13.6-16.1l9.3-1c0.1,4.2,0.3,8.8,4.2,8.8c2.9,0,4.3-2.8,4.3-9.5c0-7.6-2.4-9.7-8.7-15c-2.5-2.1-8.3-7.9-8.3-18.2
		c0-9.3,3.5-17.3,12.9-17.3c9.6,0,12.4,7.9,12.9,14.6l-9.3,1.2C64.2,33,62.8,33,61.4,33c-2.4,0-3.1,3.1-3.1,8
		c0,4.8,1.1,7.1,6.6,11.7c5.9,5.1,10.4,10,10.4,20.6C75.3,81.6,73.5,92.9,61.2,92.9z M108.1,92.1h-10V62.5h-8.7v29.6h-10V25.4h10
		v28.1h8.7V25.4h10V92.1z M128.7,92.9c-13.5,0-15.1-14.5-15.1-34.1c0-18.9,1.3-34.2,15.1-34.2c10.6,0,15.2,8.4,15.2,34.2
		C143.9,84.6,139.3,92.9,128.7,92.9z M162.3,65.5h-3.1v26.6h-10V25.4h11.2c4.2,0,8.2,0,11.5,3.8c3,3.5,4.7,8.6,4.7,16.2
		C176.6,60.1,171.5,65.5,162.3,65.5z M206.8,92.1h-9V25.4h9c5.1,0,15.8,0,15.8,16.5c0,2.5,0,13.2-7.4,14.7
		c8.2,1.9,9.2,11.7,9.2,16.6C224.4,88.7,217.2,92.1,206.8,92.1z M243.8,63.9v28.2h-10v-28l-10.1-38.7h9.9l3,14
		c1.3,6,2.6,11.8,2.9,17c0.5-6.1,2.2-15.8,2.6-17.5l2.7-13.5h9.5L243.8,63.9z M289.8,92.1h-9.1l-10.6-66.7h10l3.1,24.9
		c0.9,7.4,1.7,14.7,2.3,22c0.5-7.4,1.3-14.8,2.2-22.1l3-24.8h9.3L289.8,92.1z M327.2,92.1h-23.6V25.4h22.7v8.5h-12.7v19h9.2v8.5
		h-9.2v22.2h13.6V92.1z M359.8,92.1h-10V62.5h-8.7v29.6h-10V25.4h10v28.1h8.7V25.4h10V92.1z M376.6,92.1h-10V25.4h10V92.1z
		 M393.8,81.2c0.2,1,1,3.3,3.4,3.3c3,0,3.5-3.3,4.1-8.7l9.3,1.2c-0.8,6.2-2.9,15.9-13.4,15.9c-11.8,0-15.3-10.7-15.3-34.5
		c0-23.6,3.7-33.8,15.2-33.8c7.8,0,12.4,5.2,13.5,16.7l-9.3,1.2c-0.5-6.5-1.6-9.5-4.4-9.5c-2.7,0-3.4,3-3.8,6.6
		c-0.7,5-0.7,12.7-0.7,19.4C392.4,65.1,392.4,76.1,393.8,81.2z M436.3,92.1h-22.5V25.4h10v58.2h12.5V92.1z M462.8,92.1h-23.6V25.4
		h22.7v8.5h-12.7v19h9.2v8.5h-9.2v22.2h13.6V92.1z"/>
</g>
</svg>
