<?xml version="1.0" encoding="utf-8"?>
<!-- Generator: Adobe Illustrator 19.2.1, SVG Export Plug-In . SVG Version: 6.00 Build 0)  -->
<svg version="1.1" id="Hella" xmlns="http://www.w3.org/2000/svg" xmlns:xlink="http://www.w3.org/1999/xlink" x="0px" y="0px"
	 viewBox="0 0 685 115" style="enable-background:new 0 0 685 115;" xml:space="preserve">
<style type="text/css">
	.st0{opacity:0.5;}
	.st1{fill:#231F20;}
	.st2{fill-rule:evenodd;clip-rule:evenodd;fill:#88E333;}
</style>
<g class="st0">
	<path class="st1" d="M48.8,55.4c0.1-0.5,0.3-1.1,0.4-1.6c0.8-4.6,2.9-8.5,5.9-12.1c4.2-4.9,9.4-8.4,15.2-11.2
		c3.2-1.6,6.6-2.9,10-3.8c2.8-0.8,5.7-1.4,8.6-2c5.9-1.1,11.9-1.5,18-1.3c3.2,0.1,6.3,0.6,9.5,0.9c3.6,0.4,7.1,1.2,10.6,2.3
		c2.9,0.9,5.7,2,8.5,3.1c4.2,1.7,8,4,11.5,6.9c1.4,1.1,2.7,2.4,4,3.6c0.1,0.1,0.2,0.3,0.4,0.5c-1.3,0.1-2.4,0.2-3.6,0.2
		c-0.9,0.1-1.8,0.1-2.8,0.1c-0.3,0-0.8-0.1-1-0.3c-3.3-2.6-6.9-4.6-10.7-6.3c-3.4-1.5-6.8-2.7-10.4-3.5c-3.1-0.7-6.2-1.1-9.3-1.6
		c-4.2-0.6-8.4-0.8-12.6-0.6c-3.3,0.2-6.6,0.5-9.9,1c-2.6,0.4-5.2,0.9-7.8,1.6c-2.7,0.8-5.4,1.7-8.1,2.7c-3.4,1.2-6.5,3-9.5,5.1
		c-3.1,2.2-5.9,4.7-8,7.9c-2.5,3.7-3.8,7.8-3.4,12.3c0.2,2.3,0.9,4.4,2,6.4c2.4,4.6,6.1,8,10.4,10.9c3.3,2.2,6.9,4,10.7,5.3
		c3.1,1.1,6.3,1.9,9.5,2.7c6.6,1.6,13.3,2,20,1.7c3.2-0.1,6.4-0.5,9.6-1c2.6-0.4,5.2-0.9,7.8-1.6c2.6-0.7,5.2-1.6,7.7-2.6
		c4.3-1.7,8.3-3.9,12-6.9c0.2-0.1,0.4-0.2,0.6-0.2c2.2,0.1,4.3,0.2,6.5,0.3c0.1,0,0.1,0,0.2,0.1c-0.8,0.8-1.5,1.6-2.3,2.3
		c-3.7,3.4-7.9,6.2-12.6,8.2c-3.1,1.3-6.2,2.5-9.3,3.5c-2.1,0.7-4.3,1.1-6.5,1.6c-4.2,1-8.5,1.5-12.9,1.6c-3.7,0.1-7.5,0-11.2-0.2
		c-2.3-0.1-4.6-0.5-6.8-0.8c-1.6-0.2-3.1-0.6-4.7-1c-2-0.5-3.9-1-5.8-1.5c-4.7-1.4-9.2-3.4-13.4-5.9c-3.7-2.2-7-4.8-9.9-8
		c-2.6-2.8-4.6-6-5.8-9.7c-0.5-1.3-0.6-2.8-1-4.2c-0.1-0.3-0.1-0.5-0.2-0.8C48.8,58.2,48.8,56.8,48.8,55.4z"/>
	<path class="st1" d="M156.7,60.4c-0.1,0.5-0.3,1.1-0.3,1.6c-0.5,3.3-1.6,6.4-2.9,9.4c-0.1,0.2-0.4,0.4-0.5,0.4
		c-2.2-0.1-4.4-0.3-6.6-0.4c0,0,0,0-0.1-0.1c1-2.3,2-4.7,2.7-7.4c-1.3,0-2.5,0-3.7,0c-0.7,0-1.3,0.1-2,0.1c-0.4,0-0.7,0.2-0.9,0.6
		c-0.7,1.9-1.5,3.8-2.2,5.7c-0.2,0.4-0.4,0.7-0.9,0.7c-1.9-0.2-3.8-0.3-5.8-0.5c2.8-8.8,3.1-17.5,0-26.3c0.2,0,0.4-0.1,0.5-0.1
		c3.2-0.2,6.5-0.5,9.7-0.7c3-0.2,6-0.4,8.9-0.6c0.2,0,0.6,0.2,0.7,0.4c0.8,2,1.7,4,2.3,6.1c0.5,1.5,0.6,3.1,0.9,4.6
		c0,0.2,0.1,0.3,0.2,0.4C156.7,56.5,156.7,58.5,156.7,60.4z M143,56.8c2.2,0.2,4.2,0.1,6.2-0.3c0.1,0,0.3-0.3,0.3-0.5
		c-0.2-1.8-0.5-3.6-0.7-5.4c-0.1-0.4-0.2-0.6-0.6-0.6c-1.5,0-3,0-4.5,0.1c-1.1,0-1.2,0.2-1.2,1.3C142.6,53.2,142.8,55,143,56.8z"/>
	<path class="st1" d="M62.7,45.8c2.2-2.2,4.5-3.9,7-5.4c3.4-2,7-3.6,10.8-4.7c2.6-0.8,5.2-1.5,7.8-2c2.2-0.5,4.5-0.7,6.7-1
		c4.3-0.5,8.7-0.6,13-0.3c3.5,0.3,7.1,0.6,10.6,1.2c6.8,1.3,13.3,3.4,19.2,7.1c0.4,0.2,0.7,0.5,1.2,0.8c-0.9,0.1-1.6,0.2-2.3,0.2
		c-5.5,0.3-11,0.6-16.6,0.9c-3.8,0.2-7.7,0.4-11.5,0.7c-6.3,0.4-12.5,0.7-18.8,1.1c-6.3,0.4-12.7,0.7-19,1.1c-2.7,0.2-5.3,0.3-8,0.5
		C62.9,45.9,62.9,45.8,62.7,45.8z"/>
	<path class="st1" d="M64,70.3c24.9,1.1,49.8,2.2,74.8,3.4c-0.1,0.2-0.2,0.3-0.3,0.4c-3,1.9-6.1,3.4-9.4,4.6c-3.2,1.2-6.4,2-9.8,2.7
		c-6.7,1.4-13.4,1.8-20.2,1.4c-3.3-0.2-6.5-0.7-9.8-1.1c-3.8-0.5-7.6-1.6-11.2-3c-5-1.9-9.7-4.3-13.8-7.8c-0.1-0.1-0.3-0.2-0.5-0.3
		C63.9,70.5,64,70.4,64,70.3z"/>
	<path class="st1" d="M96.5,52c-0.7,0-1.3,0-1.9,0c-2.5,0.1-4.9,0.3-7.4,0.4c-0.5,0-0.7,0.2-0.7,0.7c-0.2,2.1-0.2,2.1,1.9,2.1
		c2.7,0,5.3,0,8,0c0.5,0,0.7,0.1,0.7,0.6c0,1.4,0.1,2.8,0.1,4.2c0,0.5-0.4,0.5-0.7,0.5c-1.8,0-3.7,0-5.5-0.1c-1.2,0-2.4,0-3.6,0
		c-0.4,0-0.6,0.1-0.6,0.6c0,0.1,0,0.3,0,0.4c-0.1,1.7,0.1,1.8,1.7,1.9c2.6,0,5.2,0,7.8,0c0.2,0,0.4,0,0.7,0c-0.1,0.5-0.2,1-0.3,1.4
		c-0.2,1.1-0.4,2.2-0.6,3.3c-0.1,0.4-0.2,0.5-0.6,0.5c-2.8-0.1-5.6-0.1-8.4-0.1c-1.5,0-3-0.2-4.5-0.3c-0.3,0-0.6-0.3-0.7-0.5
		c-1.3-2.6-2.2-5.3-2.6-8.2c-0.6-4.1,0.5-7.8,2.6-11.3c0.1-0.2,0.5-0.5,0.7-0.5c4.1-0.2,8.1-0.3,12.2-0.5c0.4,0,0.6,0.1,0.7,0.4
		C95.7,48.9,96.1,50.4,96.5,52z"/>
	<path class="st1" d="M68.8,61.8c-1.4,0-2.7,0-4,0c0,1.8,0.7,3.5,1.5,5.2c-0.8,0-1.6,0-2.4,0c-0.9,0-1.7,0-2.6-0.1
		c-0.2,0-0.5-0.2-0.7-0.4c-1.4-2.6-2.5-5.3-2.7-8.3c-0.3-3.3,0.7-6.2,2.8-8.7c0.1-0.1,0.2-0.2,0.4-0.2c1.7-0.1,3.3-0.2,5-0.3
		c-0.6,1.9-1.2,3.7-1.9,5.7c1.5,0,2.7,0,4,0c0.1,0,0.3-0.3,0.4-0.5c0.1-1.7,0.7-3.2,1.5-4.6c0.2-0.4,0.4-0.8,0.9-0.8
		c1.8-0.1,3.7-0.2,5.6-0.3c-1.1,3.2-1.9,6.3-1.9,9.6c0,3.3,0.9,6.4,2.4,9.5c-0.7,0-1.4,0-2,0c-1.3,0-2.6-0.1-3.9-0.1
		c-0.4,0-0.6-0.1-0.8-0.5C69.4,65.3,68.8,63.7,68.8,61.8z"/>
	<path class="st1" d="M116.7,45.2c2.4-0.1,4.7-0.2,7-0.3c0.2,0,0.5,0.3,0.6,0.5c1.8,5,2.5,10.1,2.2,15.3c-0.1,1.2-0.3,2.3-0.5,3.6
		c2.1,0,4.2,0,6.4,0c-0.2,0.7-0.4,1.2-0.5,1.8c-0.3,1.2-0.7,2.4-1,3.7c-0.1,0.4-0.2,0.7-0.7,0.7c-4.2-0.3-8.5-0.6-12.7-0.9
		c0,0-0.1,0-0.2-0.1C119,61.4,118.8,53.4,116.7,45.2z"/>
	<path class="st1" d="M100.3,46.7c2.5-0.2,5-0.4,7.5-0.7c1.7,5.6,2,11.4,1.3,17.3c2.1,0.1,4.1,0.2,6,0.3c-0.6,1.9-1.2,3.8-1.9,5.8
		c-4.3-0.2-8.8-0.3-13.3-0.5C102.3,61.6,102.5,54.2,100.3,46.7z"/>
</g>
<g>
	<path class="st2" d="M148.1,50.1c-1.5,0-3,0-4.5,0.1c-1.1,0-1.2,0.2-1.2,1.3c0.1,1.8,0.4,3.5,0.5,5.3c2.2,0.2,4.2,0.1,6.2-0.3
		c0.1,0,0.3-0.3,0.3-0.5c-0.2-1.8-0.5-3.6-0.7-5.4C148.7,50.2,148.5,50.1,148.1,50.1z"/>
	<path class="st2" d="M196.4,53.1L180.7,0H0v115h180.7l15.7-53.1C197.2,59.5,197.2,55.5,196.4,53.1z M148.9,76.7
		c-3.7,3.4-7.9,6.2-12.6,8.2c-3.1,1.3-6.2,2.5-9.3,3.5c-2.1,0.7-4.3,1.1-6.5,1.6c-4.2,1-8.5,1.5-12.9,1.6c-3.7,0.1-7.5,0-11.2-0.2
		c-2.3-0.1-4.6-0.5-6.8-0.8c-1.6-0.2-3.1-0.6-4.7-1c-2-0.5-3.9-1-5.8-1.5c-4.7-1.4-9.2-3.4-13.4-5.9c-3.7-2.2-7-4.8-9.9-8
		c-2.6-2.8-4.6-6-5.8-9.7c-0.5-1.3-0.6-2.8-1-4.2c-0.1-0.3-0.1-0.5-0.2-0.8c0-1.4,0-2.8,0-4.2c0.1-0.5,0.3-1.1,0.4-1.6
		c0.8-4.6,2.9-8.5,5.9-12.1c4.2-4.9,9.4-8.4,15.2-11.2c3.2-1.6,6.6-2.9,10-3.8c2.8-0.8,5.7-1.4,8.6-2c5.9-1.1,11.9-1.5,18-1.3
		c3.2,0.1,6.3,0.6,9.5,0.9c3.6,0.4,7.1,1.2,10.6,2.3c2.9,0.9,5.7,2,8.5,3.1c4.2,1.7,8,4,11.5,6.9c1.4,1.1,2.7,2.4,4,3.6
		c0.1,0.1,0.2,0.3,0.4,0.5c-1.3,0.1-2.4,0.2-3.6,0.2c-0.9,0.1-1.8,0.1-2.8,0.1c-0.3,0-0.8-0.1-1-0.3c-3.3-2.6-6.9-4.6-10.7-6.3
		c-3.4-1.5-6.8-2.7-10.4-3.5c-3.1-0.7-6.2-1.1-9.3-1.6c-4.2-0.6-8.4-0.8-12.6-0.6c-3.3,0.2-6.6,0.5-9.9,1c-2.6,0.4-5.2,0.9-7.8,1.6
		c-2.7,0.8-5.4,1.7-8.1,2.7c-3.4,1.2-6.5,3-9.5,5.1c-3.1,2.2-5.9,4.7-8,7.9c-2.5,3.7-3.8,7.8-3.4,12.3c0.2,2.3,0.9,4.4,2,6.4
		c2.4,4.6,6.1,8,10.4,10.9c3.3,2.2,6.9,4,10.7,5.3c3.1,1.1,6.3,1.9,9.5,2.7c6.6,1.6,13.3,2,20,1.7c3.2-0.1,6.4-0.5,9.6-1
		c2.6-0.4,5.2-0.9,7.8-1.6c2.6-0.7,5.2-1.6,7.7-2.6c4.3-1.7,8.3-3.9,12-6.9c0.2-0.1,0.4-0.2,0.6-0.2c2.2,0.1,4.3,0.2,6.5,0.3
		c0.1,0,0.1,0,0.2,0.1C150.4,75.1,149.7,75.9,148.9,76.7z M68.2,54.6c0.1,0,0.3-0.3,0.4-0.5c0.1-1.7,0.7-3.2,1.5-4.6
		c0.2-0.4,0.4-0.8,0.9-0.8c1.8-0.1,3.7-0.2,5.6-0.3c-1.1,3.2-1.9,6.3-1.9,9.6c0,3.3,0.9,6.4,2.4,9.5c-0.7,0-1.4,0-2,0
		c-1.3,0-2.6-0.1-3.9-0.1c-0.4,0-0.6-0.1-0.8-0.5c-0.9-1.6-1.5-3.2-1.5-5.1c-1.4,0-2.7,0-4,0c0,1.8,0.7,3.5,1.5,5.2
		c-0.8,0-1.6,0-2.4,0c-0.9,0-1.7,0-2.6-0.1c-0.2,0-0.5-0.2-0.7-0.4c-1.4-2.6-2.5-5.3-2.7-8.3c-0.3-3.3,0.7-6.2,2.8-8.7
		c0.1-0.1,0.2-0.2,0.4-0.2c1.7-0.1,3.3-0.2,5-0.3c-0.6,1.9-1.2,3.7-1.9,5.7C65.7,54.6,66.9,54.7,68.2,54.6z M64,70.3
		c24.9,1.1,49.8,2.2,74.8,3.4c-0.1,0.2-0.2,0.3-0.3,0.4c-3,1.9-6.1,3.4-9.4,4.6c-3.2,1.2-6.4,2-9.8,2.7c-6.7,1.4-13.4,1.8-20.2,1.4
		c-3.3-0.2-6.5-0.7-9.8-1.1c-3.8-0.5-7.6-1.6-11.2-3c-5-1.9-9.7-4.3-13.8-7.8c-0.1-0.1-0.3-0.2-0.5-0.3C63.9,70.5,64,70.4,64,70.3z
		 M88.4,55.3c2.7,0,5.3,0,8,0c0.5,0,0.7,0.1,0.7,0.6c0,1.4,0.1,2.8,0.1,4.2c0,0.5-0.4,0.5-0.7,0.5c-1.8,0-3.7,0-5.5-0.1
		c-1.2,0-2.4,0-3.6,0c-0.4,0-0.6,0.1-0.6,0.6c0,0.1,0,0.3,0,0.4c-0.1,1.7,0.1,1.8,1.7,1.9c2.6,0,5.2,0,7.8,0c0.2,0,0.4,0,0.7,0
		c-0.1,0.5-0.2,1-0.3,1.4c-0.2,1.1-0.4,2.2-0.6,3.3c-0.1,0.4-0.2,0.5-0.6,0.5c-2.8-0.1-5.6-0.1-8.4-0.1c-1.5,0-3-0.2-4.5-0.3
		c-0.3,0-0.6-0.3-0.7-0.5c-1.3-2.6-2.2-5.3-2.6-8.2c-0.6-4.1,0.5-7.8,2.6-11.3c0.1-0.2,0.5-0.5,0.7-0.5c4.1-0.2,8.1-0.3,12.2-0.5
		c0.4,0,0.6,0.1,0.7,0.4c0.4,1.4,0.8,2.9,1.2,4.5c-0.7,0-1.3,0-1.9,0c-2.5,0.1-4.9,0.3-7.4,0.4c-0.5,0-0.7,0.2-0.7,0.7
		C86.3,55.2,86.3,55.3,88.4,55.3z M100.3,46.7c2.5-0.2,5-0.4,7.5-0.7c1.7,5.6,2,11.4,1.3,17.3c2.1,0.1,4.1,0.2,6,0.3
		c-0.6,1.9-1.2,3.8-1.9,5.8c-4.3-0.2-8.8-0.3-13.3-0.5C102.3,61.6,102.5,54.2,100.3,46.7z M131.8,66.1c-0.3,1.2-0.7,2.4-1,3.7
		c-0.1,0.4-0.2,0.7-0.7,0.7c-4.2-0.3-8.5-0.6-12.7-0.9c0,0-0.1,0-0.2-0.1c1.9-8,1.7-16-0.4-24.2c2.4-0.1,4.7-0.2,7-0.3
		c0.2,0,0.5,0.3,0.6,0.5c1.8,5,2.5,10.1,2.2,15.3c-0.1,1.2-0.3,2.3-0.5,3.6c2.1,0,4.2,0,6.4,0C132.1,65,131.9,65.5,131.8,66.1z
		 M120.3,42.6c-3.8,0.2-7.7,0.4-11.5,0.7c-6.3,0.4-12.5,0.7-18.8,1.1c-6.3,0.4-12.7,0.7-19,1.1c-2.7,0.2-5.3,0.3-8,0.5
		c-0.1,0-0.1,0-0.3-0.1c2.2-2.2,4.5-3.9,7-5.4c3.4-2,7-3.6,10.8-4.7c2.6-0.8,5.2-1.5,7.8-2c2.2-0.5,4.5-0.7,6.7-1
		c4.3-0.5,8.7-0.6,13-0.3c3.5,0.3,7.1,0.6,10.6,1.2c6.8,1.3,13.3,3.4,19.2,7.1c0.4,0.2,0.7,0.5,1.2,0.8c-0.9,0.1-1.6,0.2-2.3,0.2
		C131.3,41.9,125.8,42.2,120.3,42.6z M156.7,60.4c-0.1,0.5-0.3,1.1-0.3,1.6c-0.5,3.3-1.6,6.4-2.9,9.4c-0.1,0.2-0.4,0.4-0.5,0.4
		c-2.2-0.1-4.4-0.3-6.6-0.4c0,0,0,0-0.1-0.1c1-2.3,2-4.7,2.7-7.4c-1.3,0-2.5,0-3.7,0c-0.7,0-1.3,0.1-2,0.1c-0.4,0-0.7,0.2-0.9,0.6
		c-0.7,1.9-1.5,3.8-2.2,5.7c-0.2,0.4-0.4,0.7-0.9,0.7c-1.9-0.2-3.8-0.3-5.8-0.5c2.8-8.8,3.1-17.5,0-26.3c0.2,0,0.4-0.1,0.5-0.1
		c3.2-0.2,6.5-0.5,9.7-0.7c3-0.2,6-0.4,8.9-0.6c0.2,0,0.6,0.2,0.7,0.4c0.8,2,1.7,4,2.3,6.1c0.5,1.5,0.6,3.1,0.9,4.6
		c0,0.2,0.1,0.3,0.2,0.4C156.7,56.5,156.7,58.5,156.7,60.4z"/>
</g>
</svg>
