<?xml version="1.0" encoding="utf-8"?>
<!-- Generator: Adobe Illustrator 21.1.0, SVG Export Plug-In . SVG Version: 6.00 Build 0)  -->
<svg version="1.1" id="LED_Bulbs" xmlns="http://www.w3.org/2000/svg" xmlns:xlink="http://www.w3.org/1999/xlink" x="0px" y="0px"
	 viewBox="0 0 685 115" style="enable-background:new 0 0 685 115;" xml:space="preserve">
<style type="text/css">
	.st0{opacity:0.5;}
	.st1{fill:#191919;}
	.st2{fill-rule:evenodd;clip-rule:evenodd;fill:#88E333;}
</style>
<g class="st0">
	<path class="st1" d="M50.5,92.1V25.4h10v58.2H73v8.5H50.5z"/>
	<path class="st1" d="M75.8,92.1V25.4h22.7v8.5H85.8v19H95v8.5h-9.2v22.2h13.6v8.5H75.8z"/>
	<path class="st1" d="M103.3,25.4h9.5c5,0,10.2,0.2,14.6,7.1c4.1,6.2,4.5,18.9,4.5,26.3c0,30.3-7.8,33.3-17.5,33.3h-11.1V25.4z
		 M113.3,83.6c3,0,4.8,0,6.3-3.7c1.8-4.6,1.9-16.9,1.9-20.1c0-3.4,0-12.8-1-18.4c-1.4-7.5-4.1-7.5-7.2-7.5V83.6z"/>
	<path class="st1" d="M155.3,25.4h9c5.1,0,15.8,0,15.8,16.5c0,2.5,0,13.2-7.4,14.7c8.2,1.9,9.2,11.7,9.2,16.6
		c0,15.5-7.2,18.9-17.6,18.9h-9V25.4z M164.8,53.1h1.4c3.9,0,4.8-2.8,4.8-10.3c0-9.2-2.5-9.7-4.8-9.7h-1.4V53.1z M164.8,84.2h1.7
		c4.6,0,5.4-2.9,5.4-11.6c0-11.5-2.9-11.9-5.4-11.9h-1.7V84.2z"/>
	<path class="st1" d="M195.9,25.4v50.2c0.1,5.8,0.1,8.3,3.6,8.3c3.7,0,3.7-2.9,3.7-8.3V25.4h9.9v49.3c0,6.9,0,18.2-13.4,18.2
		s-13.6-10.2-13.6-18.2V25.4H195.9z"/>
	<path class="st1" d="M219.8,92.1V25.4h10v58.2h12.5v8.5H219.8z"/>
	<path class="st1" d="M245.1,25.4h9c5.1,0,15.8,0,15.8,16.5c0,2.5,0,13.2-7.4,14.7c8.2,1.9,9.2,11.7,9.2,16.6
		c0,15.5-7.2,18.9-17.6,18.9h-9V25.4z M254.6,53.1h1.4c3.9,0,4.8-2.8,4.8-10.3c0-9.2-2.5-9.7-4.8-9.7h-1.4V53.1z M254.6,84.2h1.7
		c4.6,0,5.4-2.9,5.4-11.6c0-11.5-2.9-11.9-5.4-11.9h-1.7V84.2z"/>
	<path class="st1" d="M283.8,75.8c0.1,4.2,0.3,8.8,4.2,8.8c2.9,0,4.3-2.8,4.3-9.5c0-7.6-2.4-9.7-8.7-15c-2.5-2.1-8.3-7.9-8.3-18.2
		c0-9.3,3.5-17.3,12.9-17.3c9.6,0,12.4,7.9,12.9,14.6l-9.3,1.2c-0.7-7.4-2.1-7.4-3.5-7.4c-2.4,0-3.1,3.1-3.1,8
		c0,4.8,1.1,7.1,6.6,11.7c5.9,5.1,10.4,10,10.4,20.6c0,8.3-1.8,19.6-14.1,19.6c-11.6,0-13.6-9.7-13.6-16.1L283.8,75.8z"/>
</g>
<g>
	<path class="st2" d="M260.8,42.8c0-9.2-2.5-9.7-4.8-9.7h-1.4v20h1.4C259.9,53.1,260.8,50.3,260.8,42.8z"/>
	<path class="st2" d="M113.3,33.9v49.7c3,0,4.8,0,6.3-3.7c1.8-4.6,1.9-16.9,1.9-20.1c0-3.4,0-12.8-1-18.4
		C119.1,33.9,116.4,33.9,113.3,33.9z"/>
	<path class="st2" d="M171,42.8c0-9.2-2.5-9.7-4.8-9.7h-1.4v20h1.4C170.1,53.1,171,50.3,171,42.8z"/>
	<path class="st2" d="M256.3,60.7h-1.7v23.5h1.7c4.6,0,5.4-2.9,5.4-11.6C261.7,61.1,258.8,60.7,256.3,60.7z"/>
	<path class="st2" d="M341.9,53.1L326.2,0H0v115h326.2l15.7-53.1C342.7,59.5,342.7,55.5,341.9,53.1z M73,92.1H50.5V25.4h10v58.2H73
		V92.1z M99.4,92.1H75.8V25.4h22.7v8.5H85.8v19H95v8.5h-9.2v22.2h13.6V92.1z M114.4,92.1h-11.1V25.4h9.5c5,0,10.2,0.2,14.6,7.1
		c4.1,6.2,4.5,18.9,4.5,26.3C131.9,89.1,124.1,92.1,114.4,92.1z M164.3,92.1h-9V25.4h9c5.1,0,15.8,0,15.8,16.5
		c0,2.5,0,13.2-7.4,14.7c8.2,1.9,9.2,11.7,9.2,16.6C181.9,88.7,174.7,92.1,164.3,92.1z M213.1,74.7c0,6.9,0,18.2-13.4,18.2
		s-13.6-10.2-13.6-18.2V25.4h9.8v50.2c0.1,5.8,0.1,8.3,3.6,8.3c3.7,0,3.7-2.9,3.7-8.3V25.4h9.9V74.7z M242.3,92.1h-22.5V25.4h10
		v58.2h12.5V92.1z M254.1,92.1h-9V25.4h9c5.1,0,15.8,0,15.8,16.5c0,2.5,0,13.2-7.4,14.7c8.2,1.9,9.2,11.7,9.2,16.6
		C271.7,88.7,264.5,92.1,254.1,92.1z M288.1,92.9c-11.6,0-13.6-9.7-13.6-16.1l9.3-1c0.1,4.2,0.3,8.8,4.2,8.8c2.9,0,4.3-2.8,4.3-9.5
		c0-7.6-2.4-9.7-8.7-15c-2.5-2.1-8.3-7.9-8.3-18.2c0-9.3,3.5-17.3,12.9-17.3c9.6,0,12.4,7.9,12.9,14.6l-9.3,1.2
		c-0.7-7.4-2.1-7.4-3.5-7.4c-2.4,0-3.1,3.1-3.1,8c0,4.8,1.1,7.1,6.6,11.7c5.9,5.1,10.4,10,10.4,20.6
		C302.2,81.6,300.4,92.9,288.1,92.9z"/>
	<path class="st2" d="M166.5,60.7h-1.7v23.5h1.7c4.6,0,5.4-2.9,5.4-11.6C171.9,61.1,169,60.7,166.5,60.7z"/>
</g>
</svg>
