<?xml version="1.0" encoding="utf-8"?>
<!-- Generator: Adobe Illustrator 19.2.1, SVG Export Plug-In . SVG Version: 6.00 Build 0)  -->
<svg version="1.1" id="Bulbs" xmlns="http://www.w3.org/2000/svg" xmlns:xlink="http://www.w3.org/1999/xlink" x="0px" y="0px"
	 viewBox="0 0 685 115" style="enable-background:new 0 0 685 115;" xml:space="preserve">
<style type="text/css">
	.st0{opacity:0.5;}
	.st1{fill:#191919;}
	.st2{fill-rule:evenodd;clip-rule:evenodd;fill:#88E333;}
</style>
<g class="st0">
	<path class="st1" d="M69.2,92.1V62.5h-8.7v29.6h-10V25.4h10v28.1h8.7V25.4h10v66.7H69.2z"/>
	<path class="st1" d="M85.9,92.1V25.4h10v66.7H85.9z"/>
	<path class="st1" d="M102.5,25.4h9.5c5,0,10.2,0.2,14.6,7.1c4.1,6.2,4.5,18.9,4.5,26.3c0,30.3-7.8,33.3-17.5,33.3h-11.1V25.4z
		 M112.5,83.6c3,0,4.8,0,6.3-3.7c1.8-4.6,1.9-16.9,1.9-20.1c0-3.4,0-12.8-1-18.4c-1.4-7.5-4.1-7.5-7.2-7.5V83.6z"/>
	<path class="st1" d="M154.5,25.4h9c5.1,0,15.8,0,15.8,16.5c0,2.5,0,13.2-7.4,14.7c8.2,1.9,9.2,11.7,9.2,16.6
		c0,15.5-7.2,18.9-17.6,18.9h-9V25.4z M164,53.1h1.4c3.9,0,4.8-2.8,4.8-10.3c0-9.2-2.5-9.7-4.8-9.7H164V53.1z M164,84.2h1.7
		c4.6,0,5.4-2.9,5.4-11.6c0-11.5-2.9-11.9-5.4-11.9H164V84.2z"/>
	<path class="st1" d="M195,25.4v50.2c0.1,5.8,0.1,8.3,3.6,8.3c3.7,0,3.7-2.9,3.7-8.3V25.4h9.9v49.3c0,6.9,0,18.2-13.4,18.2
		s-13.6-10.2-13.6-18.2V25.4H195z"/>
	<path class="st1" d="M218.9,92.1V25.4h10v58.2h12.5v8.5H218.9z"/>
	<path class="st1" d="M244.3,25.4h9c5.1,0,15.8,0,15.8,16.5c0,2.5,0,13.2-7.4,14.7c8.2,1.9,9.2,11.7,9.2,16.6
		c0,15.5-7.2,18.9-17.6,18.9h-9V25.4z M253.8,53.1h1.4c3.9,0,4.8-2.8,4.8-10.3c0-9.2-2.5-9.7-4.8-9.7h-1.4V53.1z M253.8,84.2h1.7
		c4.6,0,5.4-2.9,5.4-11.6c0-11.5-2.9-11.9-5.4-11.9h-1.7V84.2z"/>
	<path class="st1" d="M283,75.8c0.1,4.2,0.3,8.8,4.2,8.8c2.9,0,4.3-2.8,4.3-9.5c0-7.6-2.4-9.7-8.7-15c-2.5-2.1-8.3-7.9-8.3-18.2
		c0-9.3,3.5-17.3,12.9-17.3c9.6,0,12.4,7.9,12.9,14.6l-9.3,1.2c-0.7-7.4-2.1-7.4-3.5-7.4c-2.4,0-3.1,3.1-3.1,8
		c0,4.8,1.1,7.1,6.6,11.7c5.9,5.1,10.4,10,10.4,20.6c0,8.3-1.8,19.6-14.1,19.6c-11.6,0-13.6-9.7-13.6-16.1L283,75.8z"/>
</g>
<g>
	<path class="st2" d="M170.2,42.8c0-9.2-2.5-9.7-4.8-9.7H164v20h1.4C169.3,53.1,170.2,50.3,170.2,42.8z"/>
	<path class="st2" d="M260,42.8c0-9.2-2.5-9.7-4.8-9.7h-1.4v20h1.4C259.1,53.1,260,50.3,260,42.8z"/>
	<path class="st2" d="M112.5,33.9v49.7c3,0,4.8,0,6.3-3.7c1.8-4.6,1.9-16.9,1.9-20.1c0-3.4,0-12.8-1-18.4
		C118.3,33.9,115.6,33.9,112.5,33.9z"/>
	<path class="st2" d="M165.7,60.7H164v23.5h1.7c4.6,0,5.4-2.9,5.4-11.6C171.1,61.1,168.2,60.7,165.7,60.7z"/>
	<path class="st2" d="M341.4,53.1L325.7,0H0v115h325.7l15.7-53.1C342.2,59.5,342.2,55.5,341.4,53.1z M79.2,92.1h-10V62.5h-8.7v29.6
		h-10V25.4h10v28.1h8.7V25.4h10V92.1z M95.9,92.1h-10V25.4h10V92.1z M113.6,92.1h-11.1V25.4h9.5c5,0,10.2,0.2,14.6,7.1
		c4.1,6.2,4.5,18.9,4.5,26.3C131.1,89.1,123.3,92.1,113.6,92.1z M163.5,92.1h-9V25.4h9c5.1,0,15.8,0,15.8,16.5
		c0,2.5,0,13.2-7.4,14.7c8.2,1.9,9.2,11.7,9.2,16.6C181.1,88.7,173.9,92.1,163.5,92.1z M212.2,74.7c0,6.9,0,18.2-13.4,18.2
		s-13.6-10.2-13.6-18.2V25.4h9.8v50.2c0.1,5.8,0.1,8.3,3.6,8.3c3.7,0,3.7-2.9,3.7-8.3V25.4h9.9V74.7z M241.4,92.1h-22.5V25.4h10
		v58.2h12.5V92.1z M253.3,92.1h-9V25.4h9c5.1,0,15.8,0,15.8,16.5c0,2.5,0,13.2-7.4,14.7c8.2,1.9,9.2,11.7,9.2,16.6
		C270.9,88.7,263.7,92.1,253.3,92.1z M287.3,92.9c-11.6,0-13.6-9.7-13.6-16.1l9.3-1c0.1,4.2,0.3,8.8,4.2,8.8c2.9,0,4.3-2.8,4.3-9.5
		c0-7.6-2.4-9.7-8.7-15c-2.5-2.1-8.3-7.9-8.3-18.2c0-9.3,3.5-17.3,12.9-17.3c9.6,0,12.4,7.9,12.9,14.6l-9.3,1.2
		c-0.7-7.4-2.1-7.4-3.5-7.4c-2.4,0-3.1,3.1-3.1,8c0,4.8,1.1,7.1,6.6,11.7c5.9,5.1,10.4,10,10.4,20.6
		C301.4,81.6,299.6,92.9,287.3,92.9z"/>
	<path class="st2" d="M255.5,60.7h-1.7v23.5h1.7c4.6,0,5.4-2.9,5.4-11.6C260.9,61.1,258,60.7,255.5,60.7z"/>
</g>
</svg>
