<?xml version="1.0" encoding="utf-8"?>
<!-- Generator: Adobe Illustrator 21.1.0, SVG Export Plug-In . SVG Version: 6.00 Build 0)  -->
<svg version="1.1" id="Wiring" xmlns="http://www.w3.org/2000/svg" xmlns:xlink="http://www.w3.org/1999/xlink" x="0px" y="0px"
	 viewBox="0 0 685 115" style="enable-background:new 0 0 685 115;" xml:space="preserve">
<style type="text/css">
	.st0{opacity:0.5;}
	.st1{fill:#191919;}
	.st2{fill-rule:evenodd;clip-rule:evenodd;fill:#88E333;}
</style>
<g class="st0">
	<path class="st1" d="M74.5,92.1l-4.6-34.7c-0.5-3.7-1-9.7-1.4-14.2c-0.1,2.6-0.6,9.6-1.1,13.9l-4.2,35h-8l-8.6-66.7h9.1l3.1,31.4
		c0.3,2.5,0.9,13.5,1.1,15.7c0.2-5.8,0.6-11.8,1.1-15.5l3.4-31.6h8.3l4.2,31.7c0.4,3.1,1.1,12.9,1.4,16.1c0-1.7,0-2.2,0.1-6.5
		c0.3-7.2,0.4-7.5,0.5-9.6l2.5-31.7h8.5l-7.7,66.7H74.5z"/>
	<path class="st1" d="M93.6,92.1V25.4h10v66.7H93.6z"/>
	<path class="st1" d="M129.2,92.1l-6.5-28.7h-2.4v28.7h-10V25.4h11.6c4.1,0,8.4,0.6,11.5,4.7c2.1,2.8,3.8,6.6,3.8,14.5
		c0,12.7-3.9,15.1-6.1,16.4l8.4,31.1H129.2z M120.3,54.7h1.6c3.7,0,4.8-1.8,4.8-10.7c0-10.1-2.2-10.1-4.8-10.1h-1.6V54.7z"/>
	<path class="st1" d="M143.2,92.1V25.4h10v66.7H143.2z"/>
	<path class="st1" d="M180.4,92.1l-8.9-29.5c-0.3-1-2.4-7.7-4.3-16.8c0.3,7.6,0.8,20.6,0.8,24.8v21.5h-8.2V25.4h8.4l8.5,30
		c2.3,8.1,3.1,11.1,4.6,17.5c-0.5-7.9-0.9-16.5-0.9-23.8V25.4h8.1v66.7H180.4z"/>
	<path class="st1" d="M217.1,92.5l-0.9-5.3c-1.1,2.7-3.2,5.5-8.4,5.5c-11.3,0-13.9-12.1-13.9-34.1c0-18.1,0.6-34,15.4-34
		c10.7,0,13.2,8.7,14.3,16.2l-9.8,1.3c-0.6-7.2-2.3-9-4.6-9c-3.2,0-3.9,3-4.3,6.1c-0.6,4.3-0.6,14-0.6,18.7c0,5,0.1,15.7,0.6,20.1
		c0.4,2.6,1,6.8,4.6,6.8c4.1,0,4.8-4.5,4.8-13.1v-4.3h-4.7v-8.9h14v34H217.1z"/>
</g>
<g>
	<path class="st2" d="M262.7,53.1L247,0H0v115h247l15.7-53.1C263.4,59.5,263.4,55.5,262.7,53.1z M82.2,92.1h-7.7l-4.6-34.7
		c-0.5-3.7-1-9.7-1.4-14.2c-0.1,2.6-0.6,9.6-1.1,13.9l-4.2,35h-8l-8.6-66.7h9.1l3.1,31.4c0.3,2.5,0.9,13.5,1.1,15.7
		c0.2-5.8,0.6-11.8,1.1-15.5l3.4-31.6h8.3l4.2,31.7c0.4,3.1,1.1,12.9,1.4,16.1c0-1.7,0-2.2,0.1-6.5c0.3-7.2,0.4-7.5,0.5-9.6
		l2.5-31.7h8.5L82.2,92.1z M103.6,92.1h-10V25.4h10V92.1z M129.2,92.1l-6.5-28.7h-2.4v28.7h-10V25.4h11.6c4.1,0,8.4,0.6,11.5,4.7
		c2.1,2.8,3.8,6.6,3.8,14.5c0,12.7-3.9,15.1-6.1,16.4l8.4,31.1H129.2z M153.2,92.1h-10V25.4h10V92.1z M188.5,92.1h-8.1l-8.9-29.5
		c-0.3-1-2.4-7.7-4.3-16.8c0.3,7.6,0.8,20.6,0.8,24.8v21.5h-8.2V25.4h8.4l8.5,30c2.3,8.1,3.1,11.1,4.6,17.5
		c-0.5-7.9-0.9-16.5-0.9-23.8V25.4h8.1V92.1z M204.9,78c0.4,2.6,1,6.8,4.6,6.8c4.1,0,4.8-4.5,4.8-13.1v-4.3h-4.7v-8.9h14v34h-6.5
		l-0.9-5.3c-1.1,2.7-3.2,5.5-8.4,5.5c-11.3,0-13.9-12.1-13.9-34.1c0-18.1,0.6-34,15.4-34c10.7,0,13.2,8.7,14.3,16.2l-9.8,1.3
		c-0.6-7.2-2.3-9-4.6-9c-3.2,0-3.9,3-4.3,6.1c-0.6,4.3-0.6,14-0.6,18.7C204.3,62.9,204.4,73.6,204.9,78z"/>
	<path class="st2" d="M121.9,33.9h-1.6v20.8h1.6c3.7,0,4.8-1.8,4.8-10.7C126.7,33.9,124.5,33.9,121.9,33.9z"/>
</g>
</svg>
