<?xml version="1.0" encoding="utf-8"?>
<!-- Generator: Adobe Illustrator 19.2.1, SVG Export Plug-In . SVG Version: 6.00 Build 0)  -->
<svg version="1.1" id="BRAND_-_Denso" xmlns="http://www.w3.org/2000/svg" xmlns:xlink="http://www.w3.org/1999/xlink" x="0px"
	 y="0px" viewBox="0 0 60 60" style="enable-background:new 0 0 60 60;" xml:space="preserve">
<style type="text/css">
	.Arched_x0020_Green{fill:url(#SVGID_1_);stroke:#FFFFFF;stroke-width:0.25;stroke-miterlimit:1;}
	.st0{fill-rule:evenodd;clip-rule:evenodd;fill:#EC1C24;}
</style>
<linearGradient id="SVGID_1_" gradientUnits="userSpaceOnUse" x1="-20" y1="262.2046" x2="-19.2929" y2="261.4975">
	<stop  offset="0" style="stop-color:#1EAB4B"/>
	<stop  offset="0.9831" style="stop-color:#19361A"/>
</linearGradient>
<g>
	<path class="st0" d="M5.2,26l2.4,0c2.1,0,2.4,1.3,1.4,4.1C8.2,32.5,6.9,34,4.5,34H2.6L5.2,26L5.2,26z M48.9,29.1
		c1.4-3.4,3.3-4.7,7-4.8c3.4-0.1,4.9,1.5,3.7,5.4c-1.3,4.2-3.7,6-7.4,6C48.2,35.7,47.2,33.2,48.9,29.1L48.9,29.1z M51.5,29.4
		c0.9-2.2,2.1-3.7,4-3.7c1.7,0,2,1.2,1.2,3.8c-1,3.3-2.4,4.8-4.3,4.8C50.3,34.2,50.4,32.2,51.5,29.4L51.5,29.4z M46.8,26.7l0.6-1.9
		c-1-0.3-2-0.5-3.4-0.5c-2.4,0-4.1,0.7-4.9,2.4c-1.1,2.5,0.5,3.3,2.4,4.2c2.8,1.3,1.2,3.6-1.5,3.3c-1.1-0.1-2-0.6-3-1l-0.6,1.9
		c1.1,0.4,2.5,0.7,4.1,0.6c2.8-0.2,4.5-1.3,5.2-3.1c0.8-2-0.4-3.3-2.3-3.8C39.8,27.5,42.1,23.9,46.8,26.7L46.8,26.7z M26.1,24.5
		c0.3,0.4,0.5,0.7,0.7,1.1l-3.1,9.8h1.9l2.6-8.2l3,8.2h2.7l-0.1-0.3l3.4-10.6h-1.9l-2.5,7.8l-2.9-7.8C28.6,24.5,27.4,24.5,26.1,24.5
		L26.1,24.5z M15.5,24.5c0.3,0.4,0.6,0.7,0.7,1.1l-3.1,9.8c2.7,0,5.4,0,8.2,0l0.4-1.2h-5.5l1.2-3.8H21l0.4-1.2h-3.7l1.1-3.5h5.3
		l0.4-1.2C21.5,24.5,18.5,24.5,15.5,24.5L15.5,24.5z M2.4,24.5c0.3,0.4,0.6,0.7,0.7,1.1L0,35.4h2.7l0,0l1.6,0c4.6,0,6.7-2.3,7.6-5.2
		c1.3-4.2-0.3-5.7-4.2-5.7L2.4,24.5L2.4,24.5z"/>
</g>
<g>
</g>
<g>
</g>
<g>
</g>
<g>
</g>
<g>
</g>
<g>
</g>
</svg>
