<?xml version="1.0" encoding="utf-8"?>
<!-- Generator: Adobe Illustrator 21.1.0, SVG Export Plug-In . SVG Version: 6.00 Build 0)  -->
<svg version="1.1" id="BRAND_-_Osram" xmlns="http://www.w3.org/2000/svg" xmlns:xlink="http://www.w3.org/1999/xlink" x="0px"
	 y="0px" viewBox="0 0 60 60" style="enable-background:new 0 0 60 60;" xml:space="preserve">
<style type="text/css">
	.st0{fill:#E33433;}
	.st1{fill:#EDC11B;}
	.st2{fill:#D6DE23;}
	.st3{fill:#53B856;}
</style>
<g>
	<polygon class="st0" points="10.78,32.26 9.54,32.26 10.33,29.72 8.62,28.01 5.04,37.21 7.6,37.21 8.62,34.62 10.79,34.62 
		10.78,37.21 13.35,37.21 13.35,32.75 10.93,30.33 	"/>
	<polygon class="st0" points="14.95,34.35 14.4,37.21 16.93,37.21 17.07,36.47 	"/>
	<polygon class="st0" points="5.76,25.15 3.4,22.79 0.56,22.79 0.1,25.15 2.57,25.15 0,37.21 2.52,37.21 5.1,25.15 	"/>
</g>
<g>
	<polygon class="st1" points="8.76,27.64 8.62,28.01 10.33,29.72 10.45,29.33 11.22,26.83 10.97,29.86 10.93,30.33 13.35,32.75 
		13.36,32.24 13.36,24.45 10,24.45 	"/>
	<polygon class="st1" points="24.93,37.21 27.46,37.21 29.04,29.8 26.96,27.72 	"/>
	<path class="st1" d="M34.08,34.85h-0.43l0.07-0.36l-2.12-2.12l-0.6,3.1c-0.1,0.48,0.01,0.9,0.32,1.24c0.3,0.34,0.71,0.5,1.21,0.5
		h3.72c0.06,0,0.12-0.01,0.17-0.01L34.08,34.85z"/>
	<path class="st1" d="M22.47,24.45h-5.6l-1.84,9.47l-0.08,0.43l2.12,2.12l0.08-0.43l0.66-3.38h1.2c1.05,0,1.97-0.28,2.78-0.84
		c0.86-0.59,1.38-1.37,1.57-2.34l0.64-3.29c0.1-0.48-0.01-0.9-0.32-1.24C23.38,24.62,22.98,24.45,22.47,24.45z M20.83,29.48
		c-0.11,0.55-0.56,0.82-1.36,0.82h-1.2l0.68-3.49h2.4L20.83,29.48z"/>
	<polygon class="st1" points="3.4,22.79 5.76,25.15 6.27,25.15 7.57,25.15 8.03,22.79 3.91,22.79 	"/>
</g>
<g>
	<path class="st2" d="M38.07,24.45l-2.02,10.4h-1.81h-0.16l2.35,2.35c0.05,0,0.1-0.01,0.15-0.01c0.39-0.06,0.75-0.21,1.09-0.48
		c0.44-0.34,0.7-0.75,0.8-1.24l2.14-11.02H38.07z"/>
	<path class="st2" d="M48.39,30.88l-1.77-1.77l-0.07,0.37c-0.04,0.23-0.17,0.42-0.38,0.58c-0.21,0.16-0.44,0.24-0.68,0.24h-1.49
		l0.62-3.2l-2.12-2.12l-2.38,12.23h2.53l0.88-4.55h1.49c0.24,0,0.44,0.08,0.59,0.23c0.15,0.17,0.2,0.37,0.16,0.6l-0.72,3.72h2.54
		l0.72-3.72c0.16-0.84-0.03-1.52-0.58-2.02C47.99,31.3,48.2,31.1,48.39,30.88z"/>
	<polygon class="st2" points="49.4,37.21 51.93,37.21 52.39,34.88 50.27,32.75 	"/>
	<polygon class="st2" points="33.14,24.45 31.63,32.24 31.6,32.37 33.72,34.49 33.75,34.36 35.67,24.45 	"/>
	<polygon class="st2" points="32.96,22.79 25.49,22.79 25.03,25.15 27.51,25.15 26.98,27.59 26.96,27.72 29.04,29.8 29.07,29.67 
		30.03,25.15 32.5,25.15 	"/>
	<polygon class="st2" points="53.97,36.46 54.01,37.21 54.72,37.21 	"/>
</g>
<g>
	<path class="st3" d="M48.19,24.45h-5.6l-0.02,0.11l-0.08,0.43l2.12,2.12l0.06-0.29h0.16h2.24l-0.36,1.87l-0.08,0.43l1.77,1.77
		c0.08-0.09,0.17-0.18,0.23-0.28c0.23-0.33,0.38-0.71,0.46-1.12l0.64-3.29c0.1-0.48-0.01-0.9-0.32-1.24
		C49.11,24.62,48.7,24.45,48.19,24.45z"/>
	<polygon class="st3" points="57.47,24.45 55.86,32.71 55.39,24.45 51.88,24.45 50.35,32.33 50.27,32.75 52.39,34.88 52.47,34.45 
		53.53,28.99 53.94,35.92 53.97,36.46 54.72,37.21 55.23,37.21 57.52,37.21 60,24.45 	"/>
</g>
</svg>
