<?xml version="1.0" encoding="utf-8"?>
<!-- Generator: Adobe Illustrator 21.1.0, SVG Export Plug-In . SVG Version: 6.00 Build 0)  -->
<svg version="1.1" id="BRAND_-_Osram" xmlns="http://www.w3.org/2000/svg" xmlns:xlink="http://www.w3.org/1999/xlink" x="0px"
	 y="0px" viewBox="0 0 60 60" style="enable-background:new 0 0 60 60;" xml:space="preserve">
<style type="text/css">
	.st0{fill:#90DDC5;}
</style>
<g>
	<g>
		<g>
			<path id="SVGID_9_" class="st0" d="M5.98,41.57H4.82v2.41h0.5v-0.67h0.66c0.47,0,0.88-0.32,0.88-0.87
				C6.85,41.85,6.45,41.57,5.98,41.57z M5.9,42.89H5.32v-0.88H5.9c0.24,0,0.44,0.16,0.44,0.44C6.34,42.72,6.14,42.89,5.9,42.89z
				 M9.43,41.57h1.91v0.44H9.91v0.52h1.17v0.44H9.91v0.58h1.43v0.44H9.43V41.57z M16.01,42.36c0-0.54-0.37-0.78-0.96-0.78h-1.06
				v2.41h0.5v-0.87h0.3l0.81,0.87h0.56v-0.08l-0.77-0.81C15.74,43.03,16.01,42.74,16.01,42.36z M14.49,42.73v-0.72h0.62
				c0.23,0,0.39,0.12,0.39,0.36c0,0.22-0.16,0.36-0.39,0.36H14.49z M18.7,41.57h1.84v0.44h-1.36v0.69h1.17v0.44h-1.17v0.85H18.7
				V41.57z M24.19,41.54c-0.71,0-1.24,0.53-1.24,1.25c0,0.71,0.53,1.24,1.24,1.24s1.25-0.53,1.25-1.24
				C25.43,42.07,24.9,41.54,24.19,41.54z M24.19,43.56c-0.44,0-0.75-0.34-0.75-0.77c0-0.44,0.32-0.77,0.75-0.77
				c0.44,0,0.75,0.33,0.75,0.77C24.94,43.22,24.63,43.56,24.19,43.56z M30.09,42.36c0-0.54-0.37-0.78-0.96-0.78h-1.06v2.41h0.5
				v-0.87h0.3l0.81,0.87h0.56v-0.08l-0.77-0.81C29.82,43.03,30.09,42.74,30.09,42.36z M28.57,42.73v-0.72h0.62
				c0.23,0,0.39,0.12,0.39,0.36c0,0.22-0.16,0.36-0.39,0.36H28.57z M35.03,41.57h0.45v2.41h-0.5v-1.63l-0.81,0.97h-0.09l-0.81-0.97
				v1.63h-0.5v-2.41h0.45l0.9,1.08L35.03,41.57z M38.93,41.57l-0.96,2.41h0.5l0.19-0.48h1.1l0.18,0.48h0.5l-0.93-2.41H38.93z
				 M38.79,43.14l0.43-1.07l0.41,1.07H38.79z M44.74,41.57h0.5v2.41H44.8l-1.36-1.62v1.62h-0.5v-2.41h0.43l1.36,1.63v-1.63H44.74z
				 M48.38,42.78c0,0.44,0.31,0.78,0.75,0.78c0.31,0,0.54-0.11,0.71-0.24l0.23,0.35c-0.25,0.23-0.58,0.35-0.94,0.35
				c-0.72,0-1.26-0.54-1.26-1.24s0.54-1.24,1.26-1.24c0.37,0,0.69,0.12,0.94,0.35l-0.23,0.35C49.68,42.11,49.45,42,49.13,42
				C48.69,42,48.38,42.34,48.38,42.78z M53.15,42.01v0.52h1.17v0.44h-1.17v0.58h1.43v0.44h-1.91v-2.41h1.91v0.44L53.15,42.01
				L53.15,42.01z M36.68,31.1V30c0-0.16-0.15-0.29-0.29-0.29h-7.41c-0.16,0-0.29,0.13-0.29,0.29v0.26c0,0.15,0.13,0.29,0.29,0.29
				h0.54v6.3h-1.39l0,0l0,0h-1.39v-6.84c0-0.16-0.13-0.29-0.29-0.29h-6.56c-0.15,0-0.29,0.13-0.29,0.29v6.84h-1.39l0,0l0,0h-1.39
				l-2.1-2.1h1.81c0.15,0,0.29-0.13,0.29-0.29V30c0-0.16-0.15-0.29-0.29-0.29h-7.4c-0.16,0-0.29,0.13-0.29,0.29v0.26
				c0,0.15,0.13,0.29,0.29,0.29h0.54v6.3H8.28c-0.16,0-0.29,0.15-0.29,0.29v0.26c0,0.16,0.13,0.29,0.29,0.29h3.21
				c0.15,0,0.29-0.13,0.29-0.29v-2.65h0.41l2.87,2.86c0.03,0.04,0.12,0.09,0.2,0.09h2.95l0,0l0,0h9.92l0,0l0,0h1.39v1.9
				c0,0.13,0.09,0.23,0.2,0.28l1.5,0.6c0,0,0.07,0.03,0.1,0.03c0.17,0,0.31-0.13,0.31-0.29v-5.45h2.65c0.15,0,0.29-0.13,0.29-0.29
				V34.2c0-0.15-0.15-0.29-0.29-0.29h-2.65v-3.35h2.93v0.54c0,0.16,0.15,0.29,0.29,0.29h1.53C36.53,31.39,36.68,31.26,36.68,31.1z
				 M11.78,33.91v-3.35h2.95v3.35H11.78z M24.65,36.86H21.7v-6.3h2.95C24.65,30.56,24.65,36.86,24.65,36.86z M59.5,37.16v0.25
				c0,0.16-0.15,0.29-0.29,0.29h-9.27c-0.03,0-0.05,0-0.07-0.01c-0.02,0.01-0.05,0.01-0.07,0.01h-8.24l0,0l0,0h-4.87
				c-0.16,0-0.29-0.13-0.29-0.29v-0.26c0-0.15,0.13-0.29,0.29-0.29h1.39v-6.3h-0.54c-0.16,0-0.29-0.13-0.29-0.29v-0.25
				c0-0.16,0.13-0.29,0.29-0.29h3.19c0.16,0,0.29,0.13,0.29,0.29v0.25c0,0.16-0.13,0.29-0.29,0.29h-0.55v6.3h1.39l0,0l0,0h1.39v-6.3
				h-0.54c-0.16,0-0.29-0.13-0.29-0.29v-0.25c0-0.16,0.13-0.29,0.29-0.29h2.35c0.16,0,0.29,0.13,0.29,0.29v6.84h2.95v-0.54
				c0-0.16,0.13-0.29,0.29-0.29h1.52c0.16,0,0.29,0.13,0.29,0.29v0.54h1.24V34.2c0-0.15,0.15-0.29,0.29-0.29h1.82l-2.03-2.01
				c-0.01-0.01-0.09-0.17-0.09-0.2V30c0-0.16,0.15-0.29,0.29-0.29h6.58c0.15,0,0.29,0.13,0.29,0.29v1.09c0,0.16-0.15,0.29-0.29,0.29
				h-1.52c-0.16,0-0.29-0.13-0.29-0.29v-0.54h-2.95v0.89l2.39,2.39c0.01,0.01,0.09,0.17,0.09,0.2v0.42c0,0.16-0.15,0.29-0.29,0.29
				h-2.19v2.1h5.77C59.35,36.86,59.5,37,59.5,37.16z M7.99,30v4.46c0,0.16-0.15,0.29-0.29,0.29H4.07c-0.15,0-0.29-0.13-0.29-0.29
				V34.2c0-0.15,0.15-0.29,0.29-0.29h1.82v-3.35H2.95v9.65c0,0.16-0.13,0.29-0.31,0.29c-0.03,0-0.1-0.03-0.1-0.03l-1.51-0.6
				c-0.12-0.04-0.2-0.15-0.2-0.28v-9.04H0.29C0.13,30.56,0,30.41,0,30.26V30c0-0.16,0.13-0.29,0.29-0.29H7.7
				C7.84,29.71,7.99,29.84,7.99,30z M39.63,19.68c-0.15-0.14-0.38-0.17-0.55-0.05l-3.18,2.16l0.27-3.41
				c0.01-0.17-0.07-0.33-0.22-0.41s-0.33-0.07-0.47,0.02l-3.12,2.23l-2.3-4.04c-0.16-0.27-0.6-0.27-0.76,0L27,20.22l-3.12-2.23
				c-0.14-0.1-0.32-0.11-0.47-0.02c-0.15,0.08-0.23,0.24-0.22,0.41l0.27,3.41l-3.18-2.16c-0.17-0.12-0.4-0.1-0.55,0.05
				c-0.15,0.14-0.17,0.37-0.06,0.55l4.23,6.55c0,0,0,0.01,0.01,0.01v0.01c0,0,0,0,0,0.01c0.02,0.03,0.05,0.06,0.09,0.09
				c0.01,0,0.01,0.01,0.02,0.01c0.01,0.01,0.02,0.01,0.03,0.02c0.01,0,0.02,0.01,0.03,0.01c0.02,0.01,0.03,0.01,0.05,0.02
				c0.01,0,0.01,0,0.02,0.01c0.01,0,0.02,0.01,0.03,0.01c0.03,0.01,0.06,0.01,0.1,0.01h5.41h5.41c0.03,0,0.07-0.01,0.1-0.01
				c0.01,0,0.02-0.01,0.03-0.01s0.01,0,0.02-0.01c0.02-0.01,0.03-0.01,0.05-0.02c0.01,0,0.02-0.01,0.03-0.01
				c0.01-0.01,0.02-0.01,0.03-0.02c0.01,0,0.01-0.01,0.02-0.01c0.03-0.02,0.06-0.05,0.09-0.09c0,0,0,0,0-0.01v-0.01
				c0,0,0-0.01,0.01-0.01l4.23-6.55C39.8,20.05,39.78,19.82,39.63,19.68z M35.22,19.24l-0.25,3.17l-0.99,0.67l-1.2-2.11L35.22,19.24
				z M26.14,24.66l-1.5,1.07l-0.17-2.21L26.14,24.66z M32.46,24.12l-2.03-1.45l1.65-1.18l1.19,2.09L32.46,24.12z M31.69,24.65
				l-2.01,1.37l-2.01-1.37l2.01-1.44L31.69,24.65z M26.9,24.12l-0.8-0.55l1.19-2.09l1.65,1.18L26.9,24.12z M34.89,23.53l-0.17,2.21
				l-1.5-1.07L34.89,23.53z M29.68,17.28l1.97,3.46l-1.96,1.4l-1.97-1.4L29.68,17.28z M24.14,19.24l2.43,1.74l-1.2,2.11l-0.99-0.67
				L24.14,19.24z M23.55,22.9l0.15,1.96l-2.14-3.31L23.55,22.9z M25.62,26.11l1.29-0.92l1.35,0.92H25.62z M31.1,26.11l1.35-0.92
				l1.29,0.92H31.1z M35.66,24.86l0.15-1.96l1.98-1.35L35.66,24.86z"/>
		</g>
		<g>
			<defs>
				<path id="SVGID_1_" d="M5.98,41.57H4.82v2.41h0.5v-0.67h0.66c0.47,0,0.88-0.32,0.88-0.87C6.85,41.85,6.45,41.57,5.98,41.57z
					 M5.9,42.89H5.32v-0.88H5.9c0.24,0,0.44,0.16,0.44,0.44C6.34,42.72,6.14,42.89,5.9,42.89z M9.43,41.57h1.91v0.44H9.91v0.52h1.17
					v0.44H9.91v0.58h1.43v0.44H9.43V41.57z M16.01,42.36c0-0.54-0.37-0.78-0.96-0.78h-1.06v2.41h0.5v-0.87h0.3l0.81,0.87h0.56v-0.08
					l-0.77-0.81C15.74,43.03,16.01,42.74,16.01,42.36z M14.49,42.73v-0.72h0.62c0.23,0,0.39,0.12,0.39,0.36
					c0,0.22-0.16,0.36-0.39,0.36H14.49z M18.7,41.57h1.84v0.44h-1.36v0.69h1.17v0.44h-1.17v0.85H18.7V41.57z M24.19,41.54
					c-0.71,0-1.24,0.53-1.24,1.25c0,0.71,0.53,1.24,1.24,1.24s1.25-0.53,1.25-1.24C25.43,42.07,24.9,41.54,24.19,41.54z
					 M24.19,43.56c-0.44,0-0.75-0.34-0.75-0.77c0-0.44,0.32-0.77,0.75-0.77c0.44,0,0.75,0.33,0.75,0.77
					C24.94,43.22,24.63,43.56,24.19,43.56z M30.09,42.36c0-0.54-0.37-0.78-0.96-0.78h-1.06v2.41h0.5v-0.87h0.3l0.81,0.87h0.56v-0.08
					l-0.77-0.81C29.82,43.03,30.09,42.74,30.09,42.36z M28.57,42.73v-0.72h0.62c0.23,0,0.39,0.12,0.39,0.36
					c0,0.22-0.16,0.36-0.39,0.36H28.57z M35.03,41.57h0.45v2.41h-0.5v-1.63l-0.81,0.97h-0.09l-0.81-0.97v1.63h-0.5v-2.41h0.45
					l0.9,1.08L35.03,41.57z M38.93,41.57l-0.96,2.41h0.5l0.19-0.48h1.1l0.18,0.48h0.5l-0.93-2.41H38.93z M38.79,43.14l0.43-1.07
					l0.41,1.07H38.79z M44.74,41.57h0.5v2.41H44.8l-1.36-1.62v1.62h-0.5v-2.41h0.43l1.36,1.63v-1.63H44.74z M48.38,42.78
					c0,0.44,0.31,0.78,0.75,0.78c0.31,0,0.54-0.11,0.71-0.24l0.23,0.35c-0.25,0.23-0.58,0.35-0.94,0.35c-0.72,0-1.26-0.54-1.26-1.24
					s0.54-1.24,1.26-1.24c0.37,0,0.69,0.12,0.94,0.35l-0.23,0.35C49.68,42.11,49.45,42,49.13,42C48.69,42,48.38,42.34,48.38,42.78z
					 M53.15,42.01v0.52h1.17v0.44h-1.17v0.58h1.43v0.44h-1.91v-2.41h1.91v0.44L53.15,42.01L53.15,42.01z M36.68,31.1V30
					c0-0.16-0.15-0.29-0.29-0.29h-7.41c-0.16,0-0.29,0.13-0.29,0.29v0.26c0,0.15,0.13,0.29,0.29,0.29h0.54v6.3h-1.39l0,0l0,0h-1.39
					v-6.84c0-0.16-0.13-0.29-0.29-0.29h-6.56c-0.15,0-0.29,0.13-0.29,0.29v6.84h-1.39l0,0l0,0h-1.39l-2.1-2.1h1.81
					c0.15,0,0.29-0.13,0.29-0.29V30c0-0.16-0.15-0.29-0.29-0.29h-7.4c-0.16,0-0.29,0.13-0.29,0.29v0.26c0,0.15,0.13,0.29,0.29,0.29
					h0.54v6.3H8.28c-0.16,0-0.29,0.15-0.29,0.29v0.26c0,0.16,0.13,0.29,0.29,0.29h3.21c0.15,0,0.29-0.13,0.29-0.29v-2.65h0.41
					l2.87,2.86c0.03,0.04,0.12,0.09,0.2,0.09h2.95l0,0l0,0h9.92l0,0l0,0h1.39v1.9c0,0.13,0.09,0.23,0.2,0.28l1.5,0.6
					c0,0,0.07,0.03,0.1,0.03c0.17,0,0.31-0.13,0.31-0.29v-5.45h2.65c0.15,0,0.29-0.13,0.29-0.29V34.2c0-0.15-0.15-0.29-0.29-0.29
					h-2.65v-3.35h2.93v0.54c0,0.16,0.15,0.29,0.29,0.29h1.53C36.53,31.39,36.68,31.26,36.68,31.1z M11.78,33.91v-3.35h2.95v3.35
					H11.78z M24.65,36.86H21.7v-6.3h2.95C24.65,30.56,24.65,36.86,24.65,36.86z M59.5,37.16v0.25c0,0.16-0.15,0.29-0.29,0.29h-9.27
					c-0.03,0-0.05,0-0.07-0.01c-0.02,0.01-0.05,0.01-0.07,0.01h-8.24l0,0l0,0h-4.87c-0.16,0-0.29-0.13-0.29-0.29v-0.26
					c0-0.15,0.13-0.29,0.29-0.29h1.39v-6.3h-0.54c-0.16,0-0.29-0.13-0.29-0.29v-0.25c0-0.16,0.13-0.29,0.29-0.29h3.19
					c0.16,0,0.29,0.13,0.29,0.29v0.25c0,0.16-0.13,0.29-0.29,0.29h-0.55v6.3h1.39l0,0l0,0h1.39v-6.3h-0.54
					c-0.16,0-0.29-0.13-0.29-0.29v-0.25c0-0.16,0.13-0.29,0.29-0.29h2.35c0.16,0,0.29,0.13,0.29,0.29v6.84h2.95v-0.54
					c0-0.16,0.13-0.29,0.29-0.29h1.52c0.16,0,0.29,0.13,0.29,0.29v0.54h1.24V34.2c0-0.15,0.15-0.29,0.29-0.29h1.82l-2.03-2.01
					c-0.01-0.01-0.09-0.17-0.09-0.2V30c0-0.16,0.15-0.29,0.29-0.29h6.58c0.15,0,0.29,0.13,0.29,0.29v1.09
					c0,0.16-0.15,0.29-0.29,0.29h-1.52c-0.16,0-0.29-0.13-0.29-0.29v-0.54h-2.95v0.89l2.39,2.39c0.01,0.01,0.09,0.17,0.09,0.2v0.42
					c0,0.16-0.15,0.29-0.29,0.29h-2.19v2.1h5.77C59.35,36.86,59.5,37,59.5,37.16z M7.99,30v4.46c0,0.16-0.15,0.29-0.29,0.29H4.07
					c-0.15,0-0.29-0.13-0.29-0.29V34.2c0-0.15,0.15-0.29,0.29-0.29h1.82v-3.35H2.95v9.65c0,0.16-0.13,0.29-0.31,0.29
					c-0.03,0-0.1-0.03-0.1-0.03l-1.51-0.6c-0.12-0.04-0.2-0.15-0.2-0.28v-9.04H0.29C0.13,30.56,0,30.41,0,30.26V30
					c0-0.16,0.13-0.29,0.29-0.29H7.7C7.84,29.71,7.99,29.84,7.99,30z M39.63,19.68c-0.15-0.14-0.38-0.17-0.55-0.05l-3.18,2.16
					l0.27-3.41c0.01-0.17-0.07-0.33-0.22-0.41s-0.33-0.07-0.47,0.02l-3.12,2.23l-2.3-4.04c-0.16-0.27-0.6-0.27-0.76,0L27,20.22
					l-3.12-2.23c-0.14-0.1-0.32-0.11-0.47-0.02c-0.15,0.08-0.23,0.24-0.22,0.41l0.27,3.41l-3.18-2.16c-0.17-0.12-0.4-0.1-0.55,0.05
					c-0.15,0.14-0.17,0.37-0.06,0.55l4.23,6.55c0,0,0,0.01,0.01,0.01v0.01c0,0,0,0,0,0.01c0.02,0.03,0.05,0.06,0.09,0.09
					c0.01,0,0.01,0.01,0.02,0.01c0.01,0.01,0.02,0.01,0.03,0.02c0.01,0,0.02,0.01,0.03,0.01c0.02,0.01,0.03,0.01,0.05,0.02
					c0.01,0,0.01,0,0.02,0.01c0.01,0,0.02,0.01,0.03,0.01c0.03,0.01,0.06,0.01,0.1,0.01h5.41h5.41c0.03,0,0.07-0.01,0.1-0.01
					c0.01,0,0.02-0.01,0.03-0.01s0.01,0,0.02-0.01c0.02-0.01,0.03-0.01,0.05-0.02c0.01,0,0.02-0.01,0.03-0.01
					c0.01-0.01,0.02-0.01,0.03-0.02c0.01,0,0.01-0.01,0.02-0.01c0.03-0.02,0.06-0.05,0.09-0.09c0,0,0,0,0-0.01v-0.01
					c0,0,0-0.01,0.01-0.01l4.23-6.55C39.8,20.05,39.78,19.82,39.63,19.68z M35.22,19.24l-0.25,3.17l-0.99,0.67l-1.2-2.11
					L35.22,19.24z M26.14,24.66l-1.5,1.07l-0.17-2.21L26.14,24.66z M32.46,24.12l-2.03-1.45l1.65-1.18l1.19,2.09L32.46,24.12z
					 M31.69,24.65l-2.01,1.37l-2.01-1.37l2.01-1.44L31.69,24.65z M26.9,24.12l-0.8-0.55l1.19-2.09l1.65,1.18L26.9,24.12z
					 M34.89,23.53l-0.17,2.21l-1.5-1.07L34.89,23.53z M29.68,17.28l1.97,3.46l-1.96,1.4l-1.97-1.4L29.68,17.28z M24.14,19.24
					l2.43,1.74l-1.2,2.11l-0.99-0.67L24.14,19.24z M23.55,22.9l0.15,1.96l-2.14-3.31L23.55,22.9z M25.62,26.11l1.29-0.92l1.35,0.92
					H25.62z M31.1,26.11l1.35-0.92l1.29,0.92H31.1z M35.66,24.86l0.15-1.96l1.98-1.35L35.66,24.86z"/>
			</defs>
			<use xlink:href="#SVGID_1_"  style="overflow:visible;fill:#90DDC5;"/>
			<clipPath id="SVGID_2_">
				<use xlink:href="#SVGID_1_"  style="overflow:visible;"/>
			</clipPath>
		</g>
	</g>
</g>
</svg>
