<?xml version="1.0" encoding="utf-8"?>
<!-- Generator: Adobe Illustrator 19.2.1, SVG Export Plug-In . SVG Version: 6.00 Build 0)  -->
<svg version="1.1" id="BRAND_-_Philips" xmlns="http://www.w3.org/2000/svg" xmlns:xlink="http://www.w3.org/1999/xlink" x="0px"
	 y="0px" viewBox="0 0 60 60" style="enable-background:new 0 0 60 60;" xml:space="preserve">
<style type="text/css">
	.Arched_x0020_Green{fill:url(#SVGID_1_);stroke:#FFFFFF;stroke-width:0.25;stroke-miterlimit:1;}
	.st0{fill-rule:evenodd;clip-rule:evenodd;fill:#FFFFFF;}
</style>
<linearGradient id="SVGID_1_" gradientUnits="userSpaceOnUse" x1="-20" y1="262.2046" x2="-19.2929" y2="261.4975">
	<stop  offset="0" style="stop-color:#1EAB4B"/>
	<stop  offset="0.9831" style="stop-color:#19361A"/>
</linearGradient>
<g>
	<path class="st0" d="M3.1,30.6h1.2c0,0,1.6-0.2,1.6-1.9c0-1.8-1.8-1.9-1.8-1.9H3.1V30.6L3.1,30.6L3.1,30.6z M0,24.2h5.3
		c0,0,4,0.1,4,4.5c0,4.2-4.1,4.5-4.1,4.5H3.1v2.6H0V24.2L0,24.2z"/>
	<path class="st0" d="M44.8,30.6h1.2c0,0,1.6-0.2,1.6-1.9c0-1.8-1.8-1.9-1.8-1.9h-1.1V30.6L44.8,30.6L44.8,30.6z M41.8,24.2h5.3
		c0,0,3.9,0.2,3.9,4.5c0,3.9-3.9,4.5-3.9,4.5h-2.2v2.6h-3.1V24.2L41.8,24.2z"/>
	<polygon class="st0" points="10.6,24.3 13.6,24.3 13.6,28.6 16.8,28.6 16.8,24.3 19.8,24.3 19.8,35.8 16.9,35.8 16.9,31.2 
		13.6,31.2 13.6,35.8 10.6,35.8 10.6,24.3 	"/>
	<polygon class="st0" points="22.6,24.3 25.5,24.3 25.5,35.8 22.6,35.8 22.6,24.3 	"/>
	<polygon class="st0" points="36,24.3 38.9,24.3 38.9,35.8 36,35.8 36,24.3 	"/>
	<polygon class="st0" points="28.4,24.3 31.3,24.3 31.3,33.1 34.5,33.1 34.5,35.8 28.4,35.8 28.4,24.3 	"/>
	<path class="st0" d="M58.7,24.2c0,0-1.1-0.2-2.2-0.2c-1.6,0-4.4,0.4-4.4,3.8c0,0-0.2,2.6,2.6,3.3c2.7,0.7,2.1,1.2,2.2,1.3
		c0,0,0.1,0.8-2,0.8c-2,0-2.5-0.4-2.5-0.4v2.7c0,0,0.5,0.2,2.5,0.4c2.6,0.2,5.1-0.9,5.1-3.7c0-1.1-0.6-2.9-3.1-3.5
		c-1.6-0.4-1.9-0.9-1.8-1.1c0,0-0.1-0.9,1.8-0.9c1.7,0,1.9,0.3,1.9,0.3L58.7,24.2L58.7,24.2z"/>
</g>
<g>
</g>
<g>
</g>
<g>
</g>
<g>
</g>
<g>
</g>
<g>
</g>
</svg>
