<?xml version="1.0" encoding="utf-8"?>
<!-- Generator: Adobe Illustrator 21.1.0, SVG Export Plug-In . SVG Version: 6.00 Build 0)  -->
<svg version="1.1" id="BRAND_-_Osram" xmlns="http://www.w3.org/2000/svg" xmlns:xlink="http://www.w3.org/1999/xlink" x="0px"
	 y="0px" viewBox="0 0 60 60" style="enable-background:new 0 0 60 60;" xml:space="preserve">
<style type="text/css">
	.st0{clip-path:url(#SVGID_4_);fill-rule:evenodd;clip-rule:evenodd;fill:#555555;}
	.st1{clip-path:url(#SVGID_10_);fill-rule:evenodd;clip-rule:evenodd;fill:#272727;}
</style>
<g>
	<g>
		<g>
			<defs>
				<path id="SVGID_1_" d="M5.32,32.79l3.07-7.73h1.65v9.67H8.82v-5.61c0-0.3,0-0.99,0-1.85l0,0l-3.04,7.46H4.76l-3-7.46H1.72
					c0,0.86,0.03,1.55,0.03,1.85v5.61H0.5v-9.67h1.65l3.1,7.73H5.32L5.32,32.79z M58.08,32.33v-1.12c-0.3,0.1-0.4,0.17-1.95,0.43
					c-0.56,0.1-1.52,0.36-1.52,1.25c0,0.76,0.59,1.16,1.49,1.16C57.19,34.04,58.08,33.25,58.08,32.33L58.08,32.33z M54.78,30.05
					h-1.06c0-1.85,1.16-2.44,2.91-2.44c0.53,0,2.61,0.17,2.61,1.95v4c0,0.26,0.13,0.4,0.36,0.4c0.13,0,0.26-0.03,0.4-0.07v0.86
					c-0.2,0.07-0.36,0.13-0.63,0.13c-1.02,0-1.19-0.53-1.22-1.09c-0.46,0.5-0.99,1.16-2.54,1.16c-1.25,0-2.31-0.79-2.31-1.98
					c0-0.69,0.33-1.88,2.38-2.15l1.65-0.3c0.43-0.07,0.76-0.2,0.76-0.83c0-0.73-0.53-1.16-1.62-1.16
					C55.11,28.53,54.92,29.22,54.78,30.05L54.78,30.05z M15.52,32.33v-1.12c-0.3,0.1-0.4,0.17-1.95,0.43
					c-0.56,0.1-1.52,0.36-1.52,1.25c0,0.76,0.59,1.16,1.49,1.16C14.63,34.04,15.52,33.25,15.52,32.33L15.52,32.33z M12.22,30.05
					h-1.06c0-1.85,1.16-2.44,2.91-2.44c0.56,0,2.61,0.17,2.61,1.95v4c0,0.26,0.13,0.4,0.36,0.4c0.13,0,0.26-0.03,0.4-0.07v0.86
					c-0.2,0.07-0.36,0.13-0.63,0.13c-1.02,0-1.19-0.53-1.22-1.09c-0.46,0.5-0.99,1.16-2.54,1.16c-1.25,0-2.28-0.79-2.28-1.98
					c0-0.69,0.33-1.88,2.34-2.15l1.65-0.3c0.43-0.07,0.76-0.2,0.76-0.83c0-0.73-0.53-1.16-1.62-1.16
					C12.55,28.53,12.35,29.22,12.22,30.05L12.22,30.05z M19.42,28.76h1.32v-0.99h-1.32v-2.15h-1.16v2.15h-1.02v0.99h1.02v4.59
					c0,0.83,0.23,1.49,1.39,1.49c0.13,0,0.46-0.07,0.86-0.1v-0.92h-0.4c-0.23,0-0.69,0-0.69-0.53V28.76L19.42,28.76z M51.81,28.73
					h1.32v-0.96h-1.32v-2.15h-1.16v2.15h-1.02v0.96h1.02v4.62c0,0.83,0.23,1.49,1.39,1.49c0.13,0,0.46-0.07,0.86-0.1v-0.92h-0.4
					c-0.23,0-0.69,0-0.69-0.53V28.73L51.81,28.73z M25.56,29.72h1.12c0.03-0.59-0.46-2.25-2.67-2.25c-1.35,0-2.84,0.56-2.84,2.11
					c0,1.02,0.86,1.55,1.82,1.78l1.35,0.33c1.09,0.23,1.42,0.5,1.42,1.06c0,0.76-0.56,1.19-1.62,1.19c-1.78,0-1.92-1.16-2.01-1.58
					h-1.16c-0.03,0.3-0.17,2.54,3.24,2.54c1.75,0,2.84-0.79,2.84-2.28c0-0.92-0.53-1.55-2.11-1.95l-1.16-0.3
					c-0.89-0.23-1.32-0.43-1.32-0.99c0-0.86,1.09-0.96,1.42-0.96C25.36,28.43,25.53,29.29,25.56,29.72L25.56,29.72z M38.67,29.72
					h1.12c0.03-0.59-0.46-2.25-2.67-2.25c-1.35,0-2.84,0.56-2.84,2.11c0,1.02,0.86,1.55,1.82,1.78l1.35,0.33
					c1.09,0.23,1.42,0.5,1.42,1.06c0,0.76-0.56,1.19-1.62,1.19c-1.82,0-1.95-1.16-2.05-1.58h-1.12c-0.03,0.3-0.17,2.54,3.24,2.54
					c1.75,0,2.84-0.79,2.84-2.28c0-0.92-0.53-1.55-2.11-1.95l-1.16-0.3c-0.89-0.23-1.35-0.43-1.35-0.99c0-0.86,1.09-0.96,1.45-0.96
					C38.47,28.43,38.64,29.29,38.67,29.72L38.67,29.72z M32.33,34.74h1.09V27.8h-1.16v3.83c0,0.99-0.33,2.41-1.88,2.41
					c-0.76,0-1.52-0.5-1.52-1.65V27.8h-1.16v4.99c0,1.65,1.35,2.15,2.38,2.15c1.12,0,1.72-0.43,2.21-1.22h0.03V34.74L32.33,34.74z
					 M46.63,34.74v-4.72c0-1.98-1.32-2.41-2.38-2.41c-1.12,0-1.88,0.69-2.21,1.12H42v-3.67h-1.16v9.67H42v-3.76
					c0-1.75,1.06-2.31,1.95-2.31c1.12,0,1.52,0.59,1.52,1.55v4.52H46.63L46.63,34.74z M47.78,27.8v6.93h1.16V27.8H47.78L47.78,27.8z
					 M47.78,25.06v1.32h1.16v-1.32H47.78L47.78,25.06z"/>
			</defs>
			<clipPath id="SVGID_2_">
				<use xlink:href="#SVGID_1_"  style="overflow:visible;"/>
			</clipPath>
		</g>
		<g>
			<defs>
				<path id="SVGID_3_" d="M5.32,32.79l3.07-7.73h1.65v9.67H8.82v-5.61c0-0.3,0-0.99,0-1.85l0,0l-3.04,7.46H4.76l-3-7.46H1.72
					c0,0.86,0.03,1.55,0.03,1.85v5.61H0.5v-9.67h1.65l3.1,7.73H5.32L5.32,32.79z M58.08,32.33v-1.12c-0.3,0.1-0.4,0.17-1.95,0.43
					c-0.56,0.1-1.52,0.36-1.52,1.25c0,0.76,0.59,1.16,1.49,1.16C57.19,34.04,58.08,33.25,58.08,32.33L58.08,32.33z M54.78,30.05
					h-1.06c0-1.85,1.16-2.44,2.91-2.44c0.53,0,2.61,0.17,2.61,1.95v4c0,0.26,0.13,0.4,0.36,0.4c0.13,0,0.26-0.03,0.4-0.07v0.86
					c-0.2,0.07-0.36,0.13-0.63,0.13c-1.02,0-1.19-0.53-1.22-1.09c-0.46,0.5-0.99,1.16-2.54,1.16c-1.25,0-2.31-0.79-2.31-1.98
					c0-0.69,0.33-1.88,2.38-2.15l1.65-0.3c0.43-0.07,0.76-0.2,0.76-0.83c0-0.73-0.53-1.16-1.62-1.16
					C55.11,28.53,54.92,29.22,54.78,30.05L54.78,30.05z M15.52,32.33v-1.12c-0.3,0.1-0.4,0.17-1.95,0.43
					c-0.56,0.1-1.52,0.36-1.52,1.25c0,0.76,0.59,1.16,1.49,1.16C14.63,34.04,15.52,33.25,15.52,32.33L15.52,32.33z M12.22,30.05
					h-1.06c0-1.85,1.16-2.44,2.91-2.44c0.56,0,2.61,0.17,2.61,1.95v4c0,0.26,0.13,0.4,0.36,0.4c0.13,0,0.26-0.03,0.4-0.07v0.86
					c-0.2,0.07-0.36,0.13-0.63,0.13c-1.02,0-1.19-0.53-1.22-1.09c-0.46,0.5-0.99,1.16-2.54,1.16c-1.25,0-2.28-0.79-2.28-1.98
					c0-0.69,0.33-1.88,2.34-2.15l1.65-0.3c0.43-0.07,0.76-0.2,0.76-0.83c0-0.73-0.53-1.16-1.62-1.16
					C12.55,28.53,12.35,29.22,12.22,30.05L12.22,30.05z M19.42,28.76h1.32v-0.99h-1.32v-2.15h-1.16v2.15h-1.02v0.99h1.02v4.59
					c0,0.83,0.23,1.49,1.39,1.49c0.13,0,0.46-0.07,0.86-0.1v-0.92h-0.4c-0.23,0-0.69,0-0.69-0.53V28.76L19.42,28.76z M51.81,28.73
					h1.32v-0.96h-1.32v-2.15h-1.16v2.15h-1.02v0.96h1.02v4.62c0,0.83,0.23,1.49,1.39,1.49c0.13,0,0.46-0.07,0.86-0.1v-0.92h-0.4
					c-0.23,0-0.69,0-0.69-0.53V28.73L51.81,28.73z M25.56,29.72h1.12c0.03-0.59-0.46-2.25-2.67-2.25c-1.35,0-2.84,0.56-2.84,2.11
					c0,1.02,0.86,1.55,1.82,1.78l1.35,0.33c1.09,0.23,1.42,0.5,1.42,1.06c0,0.76-0.56,1.19-1.62,1.19c-1.78,0-1.92-1.16-2.01-1.58
					h-1.16c-0.03,0.3-0.17,2.54,3.24,2.54c1.75,0,2.84-0.79,2.84-2.28c0-0.92-0.53-1.55-2.11-1.95l-1.16-0.3
					c-0.89-0.23-1.32-0.43-1.32-0.99c0-0.86,1.09-0.96,1.42-0.96C25.36,28.43,25.53,29.29,25.56,29.72L25.56,29.72z M38.67,29.72
					h1.12c0.03-0.59-0.46-2.25-2.67-2.25c-1.35,0-2.84,0.56-2.84,2.11c0,1.02,0.86,1.55,1.82,1.78l1.35,0.33
					c1.09,0.23,1.42,0.5,1.42,1.06c0,0.76-0.56,1.19-1.62,1.19c-1.82,0-1.95-1.16-2.05-1.58h-1.12c-0.03,0.3-0.17,2.54,3.24,2.54
					c1.75,0,2.84-0.79,2.84-2.28c0-0.92-0.53-1.55-2.11-1.95l-1.16-0.3c-0.89-0.23-1.35-0.43-1.35-0.99c0-0.86,1.09-0.96,1.45-0.96
					C38.47,28.43,38.64,29.29,38.67,29.72L38.67,29.72z M32.33,34.74h1.09V27.8h-1.16v3.83c0,0.99-0.33,2.41-1.88,2.41
					c-0.76,0-1.52-0.5-1.52-1.65V27.8h-1.16v4.99c0,1.65,1.35,2.15,2.38,2.15c1.12,0,1.72-0.43,2.21-1.22h0.03V34.74L32.33,34.74z
					 M46.63,34.74v-4.72c0-1.98-1.32-2.41-2.38-2.41c-1.12,0-1.88,0.69-2.21,1.12H42v-3.67h-1.16v9.67H42v-3.76
					c0-1.75,1.06-2.31,1.95-2.31c1.12,0,1.52,0.59,1.52,1.55v4.52H46.63L46.63,34.74z M47.78,27.8v6.93h1.16V27.8H47.78L47.78,27.8z
					 M47.78,25.06v1.32h1.16v-1.32H47.78L47.78,25.06z"/>
			</defs>
			<use xlink:href="#SVGID_3_"  style="overflow:visible;fill-rule:evenodd;clip-rule:evenodd;fill:#555555;"/>
			<clipPath id="SVGID_4_">
				<use xlink:href="#SVGID_3_"  style="overflow:visible;"/>
			</clipPath>
			<path class="st0" d="M5.82,33.29l3.07-7.73h1.65v9.67H9.32v-5.61c0-0.3,0-0.99,0-1.85l0,0l-3.04,7.46H5.26l-3-7.46H2.22
				c0,0.86,0.03,1.55,0.03,1.85v5.61H1v-9.67h1.65l3.1,7.73H5.82L5.82,33.29z M58.58,32.83v-1.12c-0.3,0.1-0.4,0.17-1.95,0.43
				c-0.56,0.1-1.52,0.36-1.52,1.25c0,0.76,0.59,1.16,1.49,1.16C57.69,34.54,58.58,33.75,58.58,32.83L58.58,32.83z M55.28,30.55
				h-1.06c0-1.85,1.16-2.44,2.91-2.44c0.53,0,2.61,0.17,2.61,1.95v4c0,0.26,0.13,0.4,0.36,0.4c0.13,0,0.26-0.03,0.4-0.07v0.86
				c-0.2,0.07-0.36,0.13-0.63,0.13c-1.02,0-1.19-0.53-1.22-1.09c-0.46,0.5-0.99,1.16-2.54,1.16c-1.25,0-2.31-0.79-2.31-1.98
				c0-0.69,0.33-1.88,2.38-2.15l1.65-0.3c0.43-0.07,0.76-0.2,0.76-0.83c0-0.73-0.53-1.16-1.62-1.16
				C55.61,29.03,55.42,29.72,55.28,30.55L55.28,30.55z M16.02,32.83v-1.12c-0.3,0.1-0.4,0.17-1.95,0.43
				c-0.56,0.1-1.52,0.36-1.52,1.25c0,0.76,0.59,1.16,1.49,1.16C15.13,34.54,16.02,33.75,16.02,32.83L16.02,32.83z M12.72,30.55
				h-1.06c0-1.85,1.16-2.44,2.91-2.44c0.56,0,2.61,0.17,2.61,1.95v4c0,0.26,0.13,0.4,0.36,0.4c0.13,0,0.26-0.03,0.4-0.07v0.86
				c-0.2,0.07-0.36,0.13-0.63,0.13c-1.02,0-1.19-0.53-1.22-1.09c-0.46,0.5-0.99,1.16-2.54,1.16c-1.25,0-2.28-0.79-2.28-1.98
				c0-0.69,0.33-1.88,2.34-2.15l1.65-0.3c0.43-0.07,0.76-0.2,0.76-0.83c0-0.73-0.53-1.16-1.62-1.16
				C13.05,29.03,12.85,29.72,12.72,30.55L12.72,30.55z M19.92,29.26h1.32v-0.99h-1.32v-2.15h-1.16v2.15h-1.02v0.99h1.02v4.59
				c0,0.83,0.23,1.49,1.39,1.49c0.13,0,0.46-0.07,0.86-0.1v-0.92h-0.4c-0.23,0-0.69,0-0.69-0.53V29.26L19.92,29.26z M52.31,29.23
				h1.32v-0.96h-1.32v-2.15h-1.16v2.15h-1.02v0.96h1.02v4.62c0,0.83,0.23,1.49,1.39,1.49c0.13,0,0.46-0.07,0.86-0.1v-0.92H53
				c-0.23,0-0.69,0-0.69-0.53V29.23L52.31,29.23z M26.06,30.22h1.12c0.03-0.59-0.46-2.25-2.67-2.25c-1.35,0-2.84,0.56-2.84,2.11
				c0,1.02,0.86,1.55,1.82,1.78l1.35,0.33c1.09,0.23,1.42,0.5,1.42,1.06c0,0.76-0.56,1.19-1.62,1.19c-1.78,0-1.92-1.16-2.01-1.58
				h-1.16c-0.03,0.3-0.17,2.54,3.24,2.54c1.75,0,2.84-0.79,2.84-2.28c0-0.92-0.53-1.55-2.11-1.95l-1.16-0.3
				c-0.89-0.23-1.32-0.43-1.32-0.99c0-0.86,1.09-0.96,1.42-0.96C25.86,28.93,26.03,29.79,26.06,30.22L26.06,30.22z M39.17,30.22
				h1.12c0.03-0.59-0.46-2.25-2.67-2.25c-1.35,0-2.84,0.56-2.84,2.11c0,1.02,0.86,1.55,1.82,1.78l1.35,0.33
				c1.09,0.23,1.42,0.5,1.42,1.06c0,0.76-0.56,1.19-1.62,1.19c-1.82,0-1.95-1.16-2.05-1.58h-1.12c-0.03,0.3-0.17,2.54,3.24,2.54
				c1.75,0,2.84-0.79,2.84-2.28c0-0.92-0.53-1.55-2.11-1.95l-1.16-0.3c-0.89-0.23-1.35-0.43-1.35-0.99c0-0.86,1.09-0.96,1.45-0.96
				C38.97,28.93,39.14,29.79,39.17,30.22L39.17,30.22z M32.83,35.24h1.09V28.3h-1.16v3.83c0,0.99-0.33,2.41-1.88,2.41
				c-0.76,0-1.52-0.5-1.52-1.65V28.3h-1.16v4.99c0,1.65,1.35,2.15,2.38,2.15c1.12,0,1.72-0.43,2.21-1.22h0.03V35.24L32.83,35.24z
				 M47.13,35.24v-4.72c0-1.98-1.32-2.41-2.38-2.41c-1.12,0-1.88,0.69-2.21,1.12H42.5v-3.67h-1.16v9.67h1.16v-3.76
				c0-1.75,1.06-2.31,1.95-2.31c1.12,0,1.52,0.59,1.52,1.55v4.52H47.13L47.13,35.24z M48.28,28.3v6.93h1.16V28.3H48.28L48.28,28.3z
				 M48.28,25.56v1.32h1.16v-1.32H48.28L48.28,25.56z"/>
		</g>
		<g>
			<defs>
				<path id="SVGID_5_" d="M5.32,32.79l3.07-7.73h1.65v9.67H8.82v-5.61c0-0.3,0-0.99,0-1.85l0,0l-3.04,7.46H4.76l-3-7.46H1.72
					c0,0.86,0.03,1.55,0.03,1.85v5.61H0.5v-9.67h1.65l3.1,7.73H5.32L5.32,32.79z M58.08,32.33v-1.12c-0.3,0.1-0.4,0.17-1.95,0.43
					c-0.56,0.1-1.52,0.36-1.52,1.25c0,0.76,0.59,1.16,1.49,1.16C57.19,34.04,58.08,33.25,58.08,32.33L58.08,32.33z M54.78,30.05
					h-1.06c0-1.85,1.16-2.44,2.91-2.44c0.53,0,2.61,0.17,2.61,1.95v4c0,0.26,0.13,0.4,0.36,0.4c0.13,0,0.26-0.03,0.4-0.07v0.86
					c-0.2,0.07-0.36,0.13-0.63,0.13c-1.02,0-1.19-0.53-1.22-1.09c-0.46,0.5-0.99,1.16-2.54,1.16c-1.25,0-2.31-0.79-2.31-1.98
					c0-0.69,0.33-1.88,2.38-2.15l1.65-0.3c0.43-0.07,0.76-0.2,0.76-0.83c0-0.73-0.53-1.16-1.62-1.16
					C55.11,28.53,54.92,29.22,54.78,30.05L54.78,30.05z M15.52,32.33v-1.12c-0.3,0.1-0.4,0.17-1.95,0.43
					c-0.56,0.1-1.52,0.36-1.52,1.25c0,0.76,0.59,1.16,1.49,1.16C14.63,34.04,15.52,33.25,15.52,32.33L15.52,32.33z M12.22,30.05
					h-1.06c0-1.85,1.16-2.44,2.91-2.44c0.56,0,2.61,0.17,2.61,1.95v4c0,0.26,0.13,0.4,0.36,0.4c0.13,0,0.26-0.03,0.4-0.07v0.86
					c-0.2,0.07-0.36,0.13-0.63,0.13c-1.02,0-1.19-0.53-1.22-1.09c-0.46,0.5-0.99,1.16-2.54,1.16c-1.25,0-2.28-0.79-2.28-1.98
					c0-0.69,0.33-1.88,2.34-2.15l1.65-0.3c0.43-0.07,0.76-0.2,0.76-0.83c0-0.73-0.53-1.16-1.62-1.16
					C12.55,28.53,12.35,29.22,12.22,30.05L12.22,30.05z M19.42,28.76h1.32v-0.99h-1.32v-2.15h-1.16v2.15h-1.02v0.99h1.02v4.59
					c0,0.83,0.23,1.49,1.39,1.49c0.13,0,0.46-0.07,0.86-0.1v-0.92h-0.4c-0.23,0-0.69,0-0.69-0.53V28.76L19.42,28.76z M51.81,28.73
					h1.32v-0.96h-1.32v-2.15h-1.16v2.15h-1.02v0.96h1.02v4.62c0,0.83,0.23,1.49,1.39,1.49c0.13,0,0.46-0.07,0.86-0.1v-0.92h-0.4
					c-0.23,0-0.69,0-0.69-0.53V28.73L51.81,28.73z M25.56,29.72h1.12c0.03-0.59-0.46-2.25-2.67-2.25c-1.35,0-2.84,0.56-2.84,2.11
					c0,1.02,0.86,1.55,1.82,1.78l1.35,0.33c1.09,0.23,1.42,0.5,1.42,1.06c0,0.76-0.56,1.19-1.62,1.19c-1.78,0-1.92-1.16-2.01-1.58
					h-1.16c-0.03,0.3-0.17,2.54,3.24,2.54c1.75,0,2.84-0.79,2.84-2.28c0-0.92-0.53-1.55-2.11-1.95l-1.16-0.3
					c-0.89-0.23-1.32-0.43-1.32-0.99c0-0.86,1.09-0.96,1.42-0.96C25.36,28.43,25.53,29.29,25.56,29.72L25.56,29.72z M38.67,29.72
					h1.12c0.03-0.59-0.46-2.25-2.67-2.25c-1.35,0-2.84,0.56-2.84,2.11c0,1.02,0.86,1.55,1.82,1.78l1.35,0.33
					c1.09,0.23,1.42,0.5,1.42,1.06c0,0.76-0.56,1.19-1.62,1.19c-1.82,0-1.95-1.16-2.05-1.58h-1.12c-0.03,0.3-0.17,2.54,3.24,2.54
					c1.75,0,2.84-0.79,2.84-2.28c0-0.92-0.53-1.55-2.11-1.95l-1.16-0.3c-0.89-0.23-1.35-0.43-1.35-0.99c0-0.86,1.09-0.96,1.45-0.96
					C38.47,28.43,38.64,29.29,38.67,29.72L38.67,29.72z M32.33,34.74h1.09V27.8h-1.16v3.83c0,0.99-0.33,2.41-1.88,2.41
					c-0.76,0-1.52-0.5-1.52-1.65V27.8h-1.16v4.99c0,1.65,1.35,2.15,2.38,2.15c1.12,0,1.72-0.43,2.21-1.22h0.03V34.74L32.33,34.74z
					 M46.63,34.74v-4.72c0-1.98-1.32-2.41-2.38-2.41c-1.12,0-1.88,0.69-2.21,1.12H42v-3.67h-1.16v9.67H42v-3.76
					c0-1.75,1.06-2.31,1.95-2.31c1.12,0,1.52,0.59,1.52,1.55v4.52H46.63L46.63,34.74z M47.78,27.8v6.93h1.16V27.8H47.78L47.78,27.8z
					 M47.78,25.06v1.32h1.16v-1.32H47.78L47.78,25.06z"/>
			</defs>
			<clipPath id="SVGID_6_">
				<use xlink:href="#SVGID_5_"  style="overflow:visible;"/>
			</clipPath>
		</g>
	</g>
	<g>
		<g>
			<defs>
				<path id="SVGID_7_" d="M4.82,32.29l3.07-7.73h1.65v9.67H8.32v-5.61c0-0.3,0-0.99,0-1.85l0,0l-3.04,7.46H4.26l-3-7.46H1.22
					c0,0.86,0.03,1.55,0.03,1.85v5.61H0v-9.67h1.65l3.1,7.73H4.82L4.82,32.29z M57.58,31.83v-1.12c-0.3,0.1-0.4,0.17-1.95,0.43
					c-0.56,0.1-1.52,0.36-1.52,1.25c0,0.76,0.59,1.16,1.49,1.16C56.69,33.54,57.58,32.75,57.58,31.83L57.58,31.83z M54.28,29.55
					h-1.06c0-1.85,1.16-2.44,2.91-2.44c0.53,0,2.61,0.17,2.61,1.95v4c0,0.26,0.13,0.4,0.36,0.4c0.13,0,0.26-0.03,0.4-0.07v0.86
					c-0.2,0.07-0.36,0.13-0.63,0.13c-1.02,0-1.19-0.53-1.22-1.09c-0.46,0.5-0.99,1.16-2.54,1.16c-1.25,0-2.31-0.79-2.31-1.98
					c0-0.69,0.33-1.88,2.38-2.15l1.65-0.3c0.43-0.07,0.76-0.2,0.76-0.83c0-0.73-0.53-1.16-1.62-1.16
					C54.61,28.03,54.42,28.72,54.28,29.55L54.28,29.55z M15.02,31.83v-1.12c-0.3,0.1-0.4,0.17-1.95,0.43
					c-0.56,0.1-1.52,0.36-1.52,1.25c0,0.76,0.59,1.16,1.49,1.16C14.13,33.54,15.02,32.75,15.02,31.83L15.02,31.83z M11.72,29.55
					h-1.06c0-1.85,1.16-2.44,2.91-2.44c0.56,0,2.61,0.17,2.61,1.95v4c0,0.26,0.13,0.4,0.36,0.4c0.13,0,0.26-0.03,0.4-0.07v0.86
					c-0.2,0.07-0.36,0.13-0.63,0.13c-1.02,0-1.19-0.53-1.22-1.09c-0.46,0.5-0.99,1.16-2.54,1.16c-1.25,0-2.28-0.79-2.28-1.98
					c0-0.69,0.33-1.88,2.34-2.15l1.65-0.3c0.43-0.07,0.76-0.2,0.76-0.83c0-0.73-0.53-1.16-1.62-1.16
					C12.05,28.03,11.85,28.72,11.72,29.55L11.72,29.55z M18.92,28.26h1.32v-0.99h-1.32v-2.15h-1.16v2.15h-1.02v0.99h1.02v4.59
					c0,0.83,0.23,1.49,1.39,1.49c0.13,0,0.46-0.07,0.86-0.1v-0.92h-0.4c-0.23,0-0.69,0-0.69-0.53V28.26L18.92,28.26z M51.31,28.23
					h1.32v-0.96h-1.32v-2.15h-1.16v2.15h-1.02v0.96h1.02v4.62c0,0.83,0.23,1.49,1.39,1.49c0.13,0,0.46-0.07,0.86-0.1v-0.92H52
					c-0.23,0-0.69,0-0.69-0.53V28.23L51.31,28.23z M25.06,29.22h1.12c0.03-0.59-0.46-2.25-2.67-2.25c-1.35,0-2.84,0.56-2.84,2.11
					c0,1.02,0.86,1.55,1.82,1.78l1.35,0.33c1.09,0.23,1.42,0.5,1.42,1.06c0,0.76-0.56,1.19-1.62,1.19c-1.78,0-1.92-1.16-2.01-1.58
					h-1.16c-0.03,0.3-0.17,2.54,3.24,2.54c1.75,0,2.84-0.79,2.84-2.28c0-0.92-0.53-1.55-2.11-1.95l-1.16-0.3
					c-0.89-0.23-1.32-0.43-1.32-0.99c0-0.86,1.09-0.96,1.42-0.96C24.86,27.93,25.03,28.79,25.06,29.22L25.06,29.22z M38.17,29.22
					h1.12c0.03-0.59-0.46-2.25-2.67-2.25c-1.35,0-2.84,0.56-2.84,2.11c0,1.02,0.86,1.55,1.82,1.78l1.35,0.33
					c1.09,0.23,1.42,0.5,1.42,1.06c0,0.76-0.56,1.19-1.62,1.19c-1.82,0-1.95-1.16-2.05-1.58h-1.12c-0.03,0.3-0.17,2.54,3.24,2.54
					c1.75,0,2.84-0.79,2.84-2.28c0-0.92-0.53-1.55-2.11-1.95l-1.16-0.3c-0.89-0.23-1.35-0.43-1.35-0.99c0-0.86,1.09-0.96,1.45-0.96
					C37.97,27.93,38.14,28.79,38.17,29.22L38.17,29.22z M31.83,34.24h1.09V27.3h-1.16v3.83c0,0.99-0.33,2.41-1.88,2.41
					c-0.76,0-1.52-0.5-1.52-1.65V27.3h-1.16v4.99c0,1.65,1.35,2.15,2.38,2.15c1.12,0,1.72-0.43,2.21-1.22h0.03V34.24L31.83,34.24z
					 M46.13,34.24v-4.72c0-1.98-1.32-2.41-2.38-2.41c-1.12,0-1.88,0.69-2.21,1.12H41.5v-3.67h-1.16v9.67h1.16v-3.76
					c0-1.75,1.06-2.31,1.95-2.31c1.12,0,1.52,0.59,1.52,1.55v4.52H46.13L46.13,34.24z M47.28,27.3v6.93h1.16V27.3H47.28L47.28,27.3z
					 M47.28,24.56v1.32h1.16v-1.32H47.28L47.28,24.56z"/>
			</defs>
			<clipPath id="SVGID_8_">
				<use xlink:href="#SVGID_7_"  style="overflow:visible;"/>
			</clipPath>
		</g>
		<g>
			<defs>
				<path id="SVGID_9_" d="M4.82,32.29l3.07-7.73h1.65v9.67H8.32v-5.61c0-0.3,0-0.99,0-1.85l0,0l-3.04,7.46H4.26l-3-7.46H1.22
					c0,0.86,0.03,1.55,0.03,1.85v5.61H0v-9.67h1.65l3.1,7.73H4.82L4.82,32.29z M57.58,31.83v-1.12c-0.3,0.1-0.4,0.17-1.95,0.43
					c-0.56,0.1-1.52,0.36-1.52,1.25c0,0.76,0.59,1.16,1.49,1.16C56.69,33.54,57.58,32.75,57.58,31.83L57.58,31.83z M54.28,29.55
					h-1.06c0-1.85,1.16-2.44,2.91-2.44c0.53,0,2.61,0.17,2.61,1.95v4c0,0.26,0.13,0.4,0.36,0.4c0.13,0,0.26-0.03,0.4-0.07v0.86
					c-0.2,0.07-0.36,0.13-0.63,0.13c-1.02,0-1.19-0.53-1.22-1.09c-0.46,0.5-0.99,1.16-2.54,1.16c-1.25,0-2.31-0.79-2.31-1.98
					c0-0.69,0.33-1.88,2.38-2.15l1.65-0.3c0.43-0.07,0.76-0.2,0.76-0.83c0-0.73-0.53-1.16-1.62-1.16
					C54.61,28.03,54.42,28.72,54.28,29.55L54.28,29.55z M15.02,31.83v-1.12c-0.3,0.1-0.4,0.17-1.95,0.43
					c-0.56,0.1-1.52,0.36-1.52,1.25c0,0.76,0.59,1.16,1.49,1.16C14.13,33.54,15.02,32.75,15.02,31.83L15.02,31.83z M11.72,29.55
					h-1.06c0-1.85,1.16-2.44,2.91-2.44c0.56,0,2.61,0.17,2.61,1.95v4c0,0.26,0.13,0.4,0.36,0.4c0.13,0,0.26-0.03,0.4-0.07v0.86
					c-0.2,0.07-0.36,0.13-0.63,0.13c-1.02,0-1.19-0.53-1.22-1.09c-0.46,0.5-0.99,1.16-2.54,1.16c-1.25,0-2.28-0.79-2.28-1.98
					c0-0.69,0.33-1.88,2.34-2.15l1.65-0.3c0.43-0.07,0.76-0.2,0.76-0.83c0-0.73-0.53-1.16-1.62-1.16
					C12.05,28.03,11.85,28.72,11.72,29.55L11.72,29.55z M18.92,28.26h1.32v-0.99h-1.32v-2.15h-1.16v2.15h-1.02v0.99h1.02v4.59
					c0,0.83,0.23,1.49,1.39,1.49c0.13,0,0.46-0.07,0.86-0.1v-0.92h-0.4c-0.23,0-0.69,0-0.69-0.53V28.26L18.92,28.26z M51.31,28.23
					h1.32v-0.96h-1.32v-2.15h-1.16v2.15h-1.02v0.96h1.02v4.62c0,0.83,0.23,1.49,1.39,1.49c0.13,0,0.46-0.07,0.86-0.1v-0.92H52
					c-0.23,0-0.69,0-0.69-0.53V28.23L51.31,28.23z M25.06,29.22h1.12c0.03-0.59-0.46-2.25-2.67-2.25c-1.35,0-2.84,0.56-2.84,2.11
					c0,1.02,0.86,1.55,1.82,1.78l1.35,0.33c1.09,0.23,1.42,0.5,1.42,1.06c0,0.76-0.56,1.19-1.62,1.19c-1.78,0-1.92-1.16-2.01-1.58
					h-1.16c-0.03,0.3-0.17,2.54,3.24,2.54c1.75,0,2.84-0.79,2.84-2.28c0-0.92-0.53-1.55-2.11-1.95l-1.16-0.3
					c-0.89-0.23-1.32-0.43-1.32-0.99c0-0.86,1.09-0.96,1.42-0.96C24.86,27.93,25.03,28.79,25.06,29.22L25.06,29.22z M38.17,29.22
					h1.12c0.03-0.59-0.46-2.25-2.67-2.25c-1.35,0-2.84,0.56-2.84,2.11c0,1.02,0.86,1.55,1.82,1.78l1.35,0.33
					c1.09,0.23,1.42,0.5,1.42,1.06c0,0.76-0.56,1.19-1.62,1.19c-1.82,0-1.95-1.16-2.05-1.58h-1.12c-0.03,0.3-0.17,2.54,3.24,2.54
					c1.75,0,2.84-0.79,2.84-2.28c0-0.92-0.53-1.55-2.11-1.95l-1.16-0.3c-0.89-0.23-1.35-0.43-1.35-0.99c0-0.86,1.09-0.96,1.45-0.96
					C37.97,27.93,38.14,28.79,38.17,29.22L38.17,29.22z M31.83,34.24h1.09V27.3h-1.16v3.83c0,0.99-0.33,2.41-1.88,2.41
					c-0.76,0-1.52-0.5-1.52-1.65V27.3h-1.16v4.99c0,1.65,1.35,2.15,2.38,2.15c1.12,0,1.72-0.43,2.21-1.22h0.03V34.24L31.83,34.24z
					 M46.13,34.24v-4.72c0-1.98-1.32-2.41-2.38-2.41c-1.12,0-1.88,0.69-2.21,1.12H41.5v-3.67h-1.16v9.67h1.16v-3.76
					c0-1.75,1.06-2.31,1.95-2.31c1.12,0,1.52,0.59,1.52,1.55v4.52H46.13L46.13,34.24z M47.28,27.3v6.93h1.16V27.3H47.28L47.28,27.3z
					 M47.28,24.56v1.32h1.16v-1.32H47.28L47.28,24.56z"/>
			</defs>
			<use xlink:href="#SVGID_9_"  style="overflow:visible;fill-rule:evenodd;clip-rule:evenodd;fill:#111111;"/>
			<clipPath id="SVGID_10_">
				<use xlink:href="#SVGID_9_"  style="overflow:visible;"/>
			</clipPath>
			<path class="st1" d="M5.32,32.79l3.07-7.73h1.65v9.67H8.82v-5.61c0-0.3,0-0.99,0-1.85l0,0l-3.04,7.46H4.76l-3-7.46H1.72
				c0,0.86,0.03,1.55,0.03,1.85v5.61H0.5v-9.67h1.65l3.1,7.73H5.32L5.32,32.79z M58.08,32.33v-1.12c-0.3,0.1-0.4,0.17-1.95,0.43
				c-0.56,0.1-1.52,0.36-1.52,1.25c0,0.76,0.59,1.16,1.49,1.16C57.19,34.04,58.08,33.25,58.08,32.33L58.08,32.33z M54.78,30.05
				h-1.06c0-1.85,1.16-2.44,2.91-2.44c0.53,0,2.61,0.17,2.61,1.95v4c0,0.26,0.13,0.4,0.36,0.4c0.13,0,0.26-0.03,0.4-0.07v0.86
				c-0.2,0.07-0.36,0.13-0.63,0.13c-1.02,0-1.19-0.53-1.22-1.09c-0.46,0.5-0.99,1.16-2.54,1.16c-1.25,0-2.31-0.79-2.31-1.98
				c0-0.69,0.33-1.88,2.38-2.15l1.65-0.3c0.43-0.07,0.76-0.2,0.76-0.83c0-0.73-0.53-1.16-1.62-1.16
				C55.11,28.53,54.92,29.22,54.78,30.05L54.78,30.05z M15.52,32.33v-1.12c-0.3,0.1-0.4,0.17-1.95,0.43
				c-0.56,0.1-1.52,0.36-1.52,1.25c0,0.76,0.59,1.16,1.49,1.16C14.63,34.04,15.52,33.25,15.52,32.33L15.52,32.33z M12.22,30.05
				h-1.06c0-1.85,1.16-2.44,2.91-2.44c0.56,0,2.61,0.17,2.61,1.95v4c0,0.26,0.13,0.4,0.36,0.4c0.13,0,0.26-0.03,0.4-0.07v0.86
				c-0.2,0.07-0.36,0.13-0.63,0.13c-1.02,0-1.19-0.53-1.22-1.09c-0.46,0.5-0.99,1.16-2.54,1.16c-1.25,0-2.28-0.79-2.28-1.98
				c0-0.69,0.33-1.88,2.34-2.15l1.65-0.3c0.43-0.07,0.76-0.2,0.76-0.83c0-0.73-0.53-1.16-1.62-1.16
				C12.55,28.53,12.35,29.22,12.22,30.05L12.22,30.05z M19.42,28.76h1.32v-0.99h-1.32v-2.15h-1.16v2.15h-1.02v0.99h1.02v4.59
				c0,0.83,0.23,1.49,1.39,1.49c0.13,0,0.46-0.07,0.86-0.1v-0.92h-0.4c-0.23,0-0.69,0-0.69-0.53V28.76L19.42,28.76z M51.81,28.73
				h1.32v-0.96h-1.32v-2.15h-1.16v2.15h-1.02v0.96h1.02v4.62c0,0.83,0.23,1.49,1.39,1.49c0.13,0,0.46-0.07,0.86-0.1v-0.92h-0.4
				c-0.23,0-0.69,0-0.69-0.53V28.73L51.81,28.73z M25.56,29.72h1.12c0.03-0.59-0.46-2.25-2.67-2.25c-1.35,0-2.84,0.56-2.84,2.11
				c0,1.02,0.86,1.55,1.82,1.78l1.35,0.33c1.09,0.23,1.42,0.5,1.42,1.06c0,0.76-0.56,1.19-1.62,1.19c-1.78,0-1.92-1.16-2.01-1.58
				h-1.16c-0.03,0.3-0.17,2.54,3.24,2.54c1.75,0,2.84-0.79,2.84-2.28c0-0.92-0.53-1.55-2.11-1.95l-1.16-0.3
				c-0.89-0.23-1.32-0.43-1.32-0.99c0-0.86,1.09-0.96,1.42-0.96C25.36,28.43,25.53,29.29,25.56,29.72L25.56,29.72z M38.67,29.72
				h1.12c0.03-0.59-0.46-2.25-2.67-2.25c-1.35,0-2.84,0.56-2.84,2.11c0,1.02,0.86,1.55,1.82,1.78l1.35,0.33
				c1.09,0.23,1.42,0.5,1.42,1.06c0,0.76-0.56,1.19-1.62,1.19c-1.82,0-1.95-1.16-2.05-1.58h-1.12c-0.03,0.3-0.17,2.54,3.24,2.54
				c1.75,0,2.84-0.79,2.84-2.28c0-0.92-0.53-1.55-2.11-1.95l-1.16-0.3c-0.89-0.23-1.35-0.43-1.35-0.99c0-0.86,1.09-0.96,1.45-0.96
				C38.47,28.43,38.64,29.29,38.67,29.72L38.67,29.72z M32.33,34.74h1.09V27.8h-1.16v3.83c0,0.99-0.33,2.41-1.88,2.41
				c-0.76,0-1.52-0.5-1.52-1.65V27.8h-1.16v4.99c0,1.65,1.35,2.15,2.38,2.15c1.12,0,1.72-0.43,2.21-1.22h0.03V34.74L32.33,34.74z
				 M46.63,34.74v-4.72c0-1.98-1.32-2.41-2.38-2.41c-1.12,0-1.88,0.69-2.21,1.12H42v-3.67h-1.16v9.67H42v-3.76
				c0-1.75,1.06-2.31,1.95-2.31c1.12,0,1.52,0.59,1.52,1.55v4.52H46.63L46.63,34.74z M47.78,27.8v6.93h1.16V27.8H47.78L47.78,27.8z
				 M47.78,25.06v1.32h1.16v-1.32H47.78L47.78,25.06z"/>
		</g>
		<g>
			<defs>
				<path id="SVGID_11_" d="M4.82,32.29l3.07-7.73h1.65v9.67H8.32v-5.61c0-0.3,0-0.99,0-1.85l0,0l-3.04,7.46H4.26l-3-7.46H1.22
					c0,0.86,0.03,1.55,0.03,1.85v5.61H0v-9.67h1.65l3.1,7.73H4.82L4.82,32.29z M57.58,31.83v-1.12c-0.3,0.1-0.4,0.17-1.95,0.43
					c-0.56,0.1-1.52,0.36-1.52,1.25c0,0.76,0.59,1.16,1.49,1.16C56.69,33.54,57.58,32.75,57.58,31.83L57.58,31.83z M54.28,29.55
					h-1.06c0-1.85,1.16-2.44,2.91-2.44c0.53,0,2.61,0.17,2.61,1.95v4c0,0.26,0.13,0.4,0.36,0.4c0.13,0,0.26-0.03,0.4-0.07v0.86
					c-0.2,0.07-0.36,0.13-0.63,0.13c-1.02,0-1.19-0.53-1.22-1.09c-0.46,0.5-0.99,1.16-2.54,1.16c-1.25,0-2.31-0.79-2.31-1.98
					c0-0.69,0.33-1.88,2.38-2.15l1.65-0.3c0.43-0.07,0.76-0.2,0.76-0.83c0-0.73-0.53-1.16-1.62-1.16
					C54.61,28.03,54.42,28.72,54.28,29.55L54.28,29.55z M15.02,31.83v-1.12c-0.3,0.1-0.4,0.17-1.95,0.43
					c-0.56,0.1-1.52,0.36-1.52,1.25c0,0.76,0.59,1.16,1.49,1.16C14.13,33.54,15.02,32.75,15.02,31.83L15.02,31.83z M11.72,29.55
					h-1.06c0-1.85,1.16-2.44,2.91-2.44c0.56,0,2.61,0.17,2.61,1.95v4c0,0.26,0.13,0.4,0.36,0.4c0.13,0,0.26-0.03,0.4-0.07v0.86
					c-0.2,0.07-0.36,0.13-0.63,0.13c-1.02,0-1.19-0.53-1.22-1.09c-0.46,0.5-0.99,1.16-2.54,1.16c-1.25,0-2.28-0.79-2.28-1.98
					c0-0.69,0.33-1.88,2.34-2.15l1.65-0.3c0.43-0.07,0.76-0.2,0.76-0.83c0-0.73-0.53-1.16-1.62-1.16
					C12.05,28.03,11.85,28.72,11.72,29.55L11.72,29.55z M18.92,28.26h1.32v-0.99h-1.32v-2.15h-1.16v2.15h-1.02v0.99h1.02v4.59
					c0,0.83,0.23,1.49,1.39,1.49c0.13,0,0.46-0.07,0.86-0.1v-0.92h-0.4c-0.23,0-0.69,0-0.69-0.53V28.26L18.92,28.26z M51.31,28.23
					h1.32v-0.96h-1.32v-2.15h-1.16v2.15h-1.02v0.96h1.02v4.62c0,0.83,0.23,1.49,1.39,1.49c0.13,0,0.46-0.07,0.86-0.1v-0.92H52
					c-0.23,0-0.69,0-0.69-0.53V28.23L51.31,28.23z M25.06,29.22h1.12c0.03-0.59-0.46-2.25-2.67-2.25c-1.35,0-2.84,0.56-2.84,2.11
					c0,1.02,0.86,1.55,1.82,1.78l1.35,0.33c1.09,0.23,1.42,0.5,1.42,1.06c0,0.76-0.56,1.19-1.62,1.19c-1.78,0-1.92-1.16-2.01-1.58
					h-1.16c-0.03,0.3-0.17,2.54,3.24,2.54c1.75,0,2.84-0.79,2.84-2.28c0-0.92-0.53-1.55-2.11-1.95l-1.16-0.3
					c-0.89-0.23-1.32-0.43-1.32-0.99c0-0.86,1.09-0.96,1.42-0.96C24.86,27.93,25.03,28.79,25.06,29.22L25.06,29.22z M38.17,29.22
					h1.12c0.03-0.59-0.46-2.25-2.67-2.25c-1.35,0-2.84,0.56-2.84,2.11c0,1.02,0.86,1.55,1.82,1.78l1.35,0.33
					c1.09,0.23,1.42,0.5,1.42,1.06c0,0.76-0.56,1.19-1.62,1.19c-1.82,0-1.95-1.16-2.05-1.58h-1.12c-0.03,0.3-0.17,2.54,3.24,2.54
					c1.75,0,2.84-0.79,2.84-2.28c0-0.92-0.53-1.55-2.11-1.95l-1.16-0.3c-0.89-0.23-1.35-0.43-1.35-0.99c0-0.86,1.09-0.96,1.45-0.96
					C37.97,27.93,38.14,28.79,38.17,29.22L38.17,29.22z M31.83,34.24h1.09V27.3h-1.16v3.83c0,0.99-0.33,2.41-1.88,2.41
					c-0.76,0-1.52-0.5-1.52-1.65V27.3h-1.16v4.99c0,1.65,1.35,2.15,2.38,2.15c1.12,0,1.72-0.43,2.21-1.22h0.03V34.24L31.83,34.24z
					 M46.13,34.24v-4.72c0-1.98-1.32-2.41-2.38-2.41c-1.12,0-1.88,0.69-2.21,1.12H41.5v-3.67h-1.16v9.67h1.16v-3.76
					c0-1.75,1.06-2.31,1.95-2.31c1.12,0,1.52,0.59,1.52,1.55v4.52H46.13L46.13,34.24z M47.28,27.3v6.93h1.16V27.3H47.28L47.28,27.3z
					 M47.28,24.56v1.32h1.16v-1.32H47.28L47.28,24.56z"/>
			</defs>
			<clipPath id="SVGID_12_">
				<use xlink:href="#SVGID_11_"  style="overflow:visible;"/>
			</clipPath>
		</g>
	</g>
</g>
</svg>
