<?xml version="1.0" encoding="utf-8"?>
<!-- Generator: Adobe Illustrator 21.1.0, SVG Export Plug-In . SVG Version: 6.00 Build 0)  -->
<svg version="1.1" id="BRAND_-_Osram" xmlns="http://www.w3.org/2000/svg" xmlns:xlink="http://www.w3.org/1999/xlink" x="0px"
	 y="0px" viewBox="0 0 60 60" style="enable-background:new 0 0 60 60;" xml:space="preserve">
<style type="text/css">
	.st0{clip-path:url(#SVGID_4_);fill:#555555;}
	.st1{clip-path:url(#SVGID_10_);fill:#272727;}
</style>
<g>
	<g>
		<g>
			<defs>
				<path id="SVGID_1_" d="M12.56,30.5c0,3.85-2.37,6.52-6.03,6.52S0.5,34.35,0.5,30.5s2.57-6.52,6.03-6.52S12.56,26.55,12.56,30.5
					L12.56,30.5z M9.59,30.5c0-1.98-0.89-3.95-3.06-3.95s-3.06,1.98-3.06,3.95c0,1.88,0.99,3.85,3.06,3.85S9.59,32.28,9.59,30.5
					L9.59,30.5z M23.43,33.07c0,2.37-2.27,3.95-5.04,3.95c-5.44,0-5.14-4.05-5.14-4.45h2.87c-0.1,1.28,1.19,1.98,2.37,1.98
					c0.89,0,1.88-0.2,2.08-1.28c0.3-2.27-7.12-0.59-7.12-5.34c0-2.47,2.47-3.85,4.94-3.85c3.46,0,5.04,2.08,5.04,4.25h-2.97
					c0,0,0.1-1.78-2.08-1.78c-0.89,0-1.88,0.3-1.98,1.19C16.12,29.81,23.33,28.23,23.43,33.07L23.43,33.07z M34.9,28.52
					c0,1.78-0.89,3.16-2.47,3.95l2.08,4.15h-3.16l-1.88-3.95h-1.88v3.95h-2.87V24.37h6.33C33.22,24.37,34.9,26.15,34.9,28.52
					L34.9,28.52z M31.93,28.52c0-0.89-0.49-1.68-1.38-1.68h-2.97v3.36h2.97C31.34,30.2,31.93,29.31,31.93,28.52L31.93,28.52z
					 M47.15,36.63h-3.06l-0.69-2.08h-4.84l-0.69,2.08H34.8l4.45-12.35h3.56L47.15,36.63L47.15,36.63z M42.51,31.98l-1.58-4.55l0,0
					l-1.58,4.45h3.16V31.98z M59.8,36.63h-2.97v-6.82l-2.97,5.04l-2.97-4.84v6.62h-3.06V24.27h3.16l2.87,5.04l3.06-5.04H60v12.35
					H59.8z"/>
			</defs>
			<clipPath id="SVGID_2_">
				<use xlink:href="#SVGID_1_"  style="overflow:visible;"/>
			</clipPath>
		</g>
		<g>
			<defs>
				<path id="SVGID_3_" d="M12.56,30.5c0,3.85-2.37,6.52-6.03,6.52S0.5,34.35,0.5,30.5s2.57-6.52,6.03-6.52S12.56,26.55,12.56,30.5
					L12.56,30.5z M9.59,30.5c0-1.98-0.89-3.95-3.06-3.95s-3.06,1.98-3.06,3.95c0,1.88,0.99,3.85,3.06,3.85S9.59,32.28,9.59,30.5
					L9.59,30.5z M23.43,33.07c0,2.37-2.27,3.95-5.04,3.95c-5.44,0-5.14-4.05-5.14-4.45h2.87c-0.1,1.28,1.19,1.98,2.37,1.98
					c0.89,0,1.88-0.2,2.08-1.28c0.3-2.27-7.12-0.59-7.12-5.34c0-2.47,2.47-3.85,4.94-3.85c3.46,0,5.04,2.08,5.04,4.25h-2.97
					c0,0,0.1-1.78-2.08-1.78c-0.89,0-1.88,0.3-1.98,1.19C16.12,29.81,23.33,28.23,23.43,33.07L23.43,33.07z M34.9,28.52
					c0,1.78-0.89,3.16-2.47,3.95l2.08,4.15h-3.16l-1.88-3.95h-1.88v3.95h-2.87V24.37h6.33C33.22,24.37,34.9,26.15,34.9,28.52
					L34.9,28.52z M31.93,28.52c0-0.89-0.49-1.68-1.38-1.68h-2.97v3.36h2.97C31.34,30.2,31.93,29.31,31.93,28.52L31.93,28.52z
					 M47.15,36.63h-3.06l-0.69-2.08h-4.84l-0.69,2.08H34.8l4.45-12.35h3.56L47.15,36.63L47.15,36.63z M42.51,31.98l-1.58-4.55l0,0
					l-1.58,4.45h3.16V31.98z M59.8,36.63h-2.97v-6.82l-2.97,5.04l-2.97-4.84v6.62h-3.06V24.27h3.16l2.87,5.04l3.06-5.04H60v12.35
					H59.8z"/>
			</defs>
			<use xlink:href="#SVGID_3_"  style="overflow:visible;fill:#555555;"/>
			<clipPath id="SVGID_4_">
				<use xlink:href="#SVGID_3_"  style="overflow:visible;"/>
			</clipPath>
			<path class="st0" d="M13.06,31c0,3.85-2.37,6.52-6.03,6.52S1,34.85,1,31s2.57-6.52,6.03-6.52S13.06,27.05,13.06,31L13.06,31z
				 M10.09,31c0-1.98-0.89-3.95-3.06-3.95S3.97,29.02,3.97,31c0,1.88,0.99,3.85,3.06,3.85S10.09,32.78,10.09,31L10.09,31z
				 M23.93,33.57c0,2.37-2.27,3.95-5.04,3.95c-5.44,0-5.14-4.05-5.14-4.45h2.87c-0.1,1.28,1.19,1.98,2.37,1.98
				c0.89,0,1.88-0.2,2.08-1.28c0.3-2.27-7.12-0.59-7.12-5.34c0-2.47,2.47-3.85,4.94-3.85c3.46,0,5.04,2.08,5.04,4.25h-2.97
				c0,0,0.1-1.78-2.08-1.78c-0.89,0-1.88,0.3-1.98,1.19C16.62,30.31,23.83,28.73,23.93,33.57L23.93,33.57z M35.4,29.02
				c0,1.78-0.89,3.16-2.47,3.95L35,37.13h-3.16l-1.88-3.95h-1.88v3.95h-2.87V24.87h6.33C33.72,24.87,35.4,26.65,35.4,29.02
				L35.4,29.02z M32.43,29.02c0-0.89-0.49-1.68-1.38-1.68h-2.97v3.36h2.97C31.84,30.7,32.43,29.81,32.43,29.02L32.43,29.02z
				 M47.65,37.13h-3.06l-0.69-2.08h-4.84l-0.69,2.08H35.3l4.45-12.35h3.56L47.65,37.13L47.65,37.13z M43.01,32.48l-1.58-4.55l0,0
				l-1.58,4.45h3.16V32.48z M60.3,37.13h-2.97v-6.82l-2.97,5.04l-2.97-4.84v6.62h-3.06V24.77h3.16l2.87,5.04l3.06-5.04h3.06v12.35
				H60.3z"/>
		</g>
		<g>
			<defs>
				<path id="SVGID_5_" d="M12.56,30.5c0,3.85-2.37,6.52-6.03,6.52S0.5,34.35,0.5,30.5s2.57-6.52,6.03-6.52S12.56,26.55,12.56,30.5
					L12.56,30.5z M9.59,30.5c0-1.98-0.89-3.95-3.06-3.95s-3.06,1.98-3.06,3.95c0,1.88,0.99,3.85,3.06,3.85S9.59,32.28,9.59,30.5
					L9.59,30.5z M23.43,33.07c0,2.37-2.27,3.95-5.04,3.95c-5.44,0-5.14-4.05-5.14-4.45h2.87c-0.1,1.28,1.19,1.98,2.37,1.98
					c0.89,0,1.88-0.2,2.08-1.28c0.3-2.27-7.12-0.59-7.12-5.34c0-2.47,2.47-3.85,4.94-3.85c3.46,0,5.04,2.08,5.04,4.25h-2.97
					c0,0,0.1-1.78-2.08-1.78c-0.89,0-1.88,0.3-1.98,1.19C16.12,29.81,23.33,28.23,23.43,33.07L23.43,33.07z M34.9,28.52
					c0,1.78-0.89,3.16-2.47,3.95l2.08,4.15h-3.16l-1.88-3.95h-1.88v3.95h-2.87V24.37h6.33C33.22,24.37,34.9,26.15,34.9,28.52
					L34.9,28.52z M31.93,28.52c0-0.89-0.49-1.68-1.38-1.68h-2.97v3.36h2.97C31.34,30.2,31.93,29.31,31.93,28.52L31.93,28.52z
					 M47.15,36.63h-3.06l-0.69-2.08h-4.84l-0.69,2.08H34.8l4.45-12.35h3.56L47.15,36.63L47.15,36.63z M42.51,31.98l-1.58-4.55l0,0
					l-1.58,4.45h3.16V31.98z M59.8,36.63h-2.97v-6.82l-2.97,5.04l-2.97-4.84v6.62h-3.06V24.27h3.16l2.87,5.04l3.06-5.04H60v12.35
					H59.8z"/>
			</defs>
			<clipPath id="SVGID_6_">
				<use xlink:href="#SVGID_5_"  style="overflow:visible;"/>
			</clipPath>
		</g>
	</g>
	<g>
		<g>
			<defs>
				<path id="SVGID_7_" d="M12.06,30c0,3.85-2.37,6.52-6.03,6.52S0,33.85,0,30s2.57-6.52,6.03-6.52S12.06,26.05,12.06,30L12.06,30z
					 M9.09,30c0-1.98-0.89-3.95-3.06-3.95S2.97,28.02,2.97,30c0,1.88,0.99,3.85,3.06,3.85S9.09,31.78,9.09,30L9.09,30z M22.93,32.57
					c0,2.37-2.27,3.95-5.04,3.95c-5.44,0-5.14-4.05-5.14-4.45h2.87c-0.1,1.28,1.19,1.98,2.37,1.98c0.89,0,1.88-0.2,2.08-1.28
					c0.3-2.27-7.12-0.59-7.12-5.34c0-2.47,2.47-3.85,4.94-3.85c3.46,0,5.04,2.08,5.04,4.25h-2.97c0,0,0.1-1.78-2.08-1.78
					c-0.89,0-1.88,0.3-1.98,1.19C15.62,29.31,22.83,27.73,22.93,32.57L22.93,32.57z M34.4,28.02c0,1.78-0.89,3.16-2.47,3.95
					L34,36.13h-3.16l-1.88-3.95h-1.88v3.95h-2.87V23.87h6.33C32.72,23.87,34.4,25.65,34.4,28.02L34.4,28.02z M31.43,28.02
					c0-0.89-0.49-1.68-1.38-1.68h-2.97v3.36h2.97C30.84,29.7,31.43,28.81,31.43,28.02L31.43,28.02z M46.65,36.13h-3.06l-0.69-2.08
					h-4.84l-0.69,2.08H34.3l4.45-12.35h3.56L46.65,36.13L46.65,36.13z M42.01,31.48l-1.58-4.55l0,0l-1.58,4.45h3.16V31.48z
					 M59.3,36.13h-2.97v-6.82l-2.97,5.04l-2.97-4.84v6.62h-3.06V23.77h3.16l2.87,5.04l3.06-5.04h3.06v12.35H59.3z"/>
			</defs>
			<clipPath id="SVGID_8_">
				<use xlink:href="#SVGID_7_"  style="overflow:visible;"/>
			</clipPath>
		</g>
		<g>
			<defs>
				<path id="SVGID_9_" d="M12.06,30c0,3.85-2.37,6.52-6.03,6.52S0,33.85,0,30s2.57-6.52,6.03-6.52S12.06,26.05,12.06,30L12.06,30z
					 M9.09,30c0-1.98-0.89-3.95-3.06-3.95S2.97,28.02,2.97,30c0,1.88,0.99,3.85,3.06,3.85S9.09,31.78,9.09,30L9.09,30z M22.93,32.57
					c0,2.37-2.27,3.95-5.04,3.95c-5.44,0-5.14-4.05-5.14-4.45h2.87c-0.1,1.28,1.19,1.98,2.37,1.98c0.89,0,1.88-0.2,2.08-1.28
					c0.3-2.27-7.12-0.59-7.12-5.34c0-2.47,2.47-3.85,4.94-3.85c3.46,0,5.04,2.08,5.04,4.25h-2.97c0,0,0.1-1.78-2.08-1.78
					c-0.89,0-1.88,0.3-1.98,1.19C15.62,29.31,22.83,27.73,22.93,32.57L22.93,32.57z M34.4,28.02c0,1.78-0.89,3.16-2.47,3.95
					L34,36.13h-3.16l-1.88-3.95h-1.88v3.95h-2.87V23.87h6.33C32.72,23.87,34.4,25.65,34.4,28.02L34.4,28.02z M31.43,28.02
					c0-0.89-0.49-1.68-1.38-1.68h-2.97v3.36h2.97C30.84,29.7,31.43,28.81,31.43,28.02L31.43,28.02z M46.65,36.13h-3.06l-0.69-2.08
					h-4.84l-0.69,2.08H34.3l4.45-12.35h3.56L46.65,36.13L46.65,36.13z M42.01,31.48l-1.58-4.55l0,0l-1.58,4.45h3.16V31.48z
					 M59.3,36.13h-2.97v-6.82l-2.97,5.04l-2.97-4.84v6.62h-3.06V23.77h3.16l2.87,5.04l3.06-5.04h3.06v12.35H59.3z"/>
			</defs>
			<use xlink:href="#SVGID_9_"  style="overflow:visible;fill:#111111;"/>
			<clipPath id="SVGID_10_">
				<use xlink:href="#SVGID_9_"  style="overflow:visible;"/>
			</clipPath>
			<path class="st1" d="M12.56,30.5c0,3.85-2.37,6.52-6.03,6.52S0.5,34.35,0.5,30.5s2.57-6.52,6.03-6.52S12.56,26.55,12.56,30.5
				L12.56,30.5z M9.59,30.5c0-1.98-0.89-3.95-3.06-3.95s-3.06,1.98-3.06,3.95c0,1.88,0.99,3.85,3.06,3.85S9.59,32.28,9.59,30.5
				L9.59,30.5z M23.43,33.07c0,2.37-2.27,3.95-5.04,3.95c-5.44,0-5.14-4.05-5.14-4.45h2.87c-0.1,1.28,1.19,1.98,2.37,1.98
				c0.89,0,1.88-0.2,2.08-1.28c0.3-2.27-7.12-0.59-7.12-5.34c0-2.47,2.47-3.85,4.94-3.85c3.46,0,5.04,2.08,5.04,4.25h-2.97
				c0,0,0.1-1.78-2.08-1.78c-0.89,0-1.88,0.3-1.98,1.19C16.12,29.81,23.33,28.23,23.43,33.07L23.43,33.07z M34.9,28.52
				c0,1.78-0.89,3.16-2.47,3.95l2.08,4.15h-3.16l-1.88-3.95h-1.88v3.95h-2.87V24.37h6.33C33.22,24.37,34.9,26.15,34.9,28.52
				L34.9,28.52z M31.93,28.52c0-0.89-0.49-1.68-1.38-1.68h-2.97v3.36h2.97C31.34,30.2,31.93,29.31,31.93,28.52L31.93,28.52z
				 M47.15,36.63h-3.06l-0.69-2.08h-4.84l-0.69,2.08H34.8l4.45-12.35h3.56L47.15,36.63L47.15,36.63z M42.51,31.98l-1.58-4.55l0,0
				l-1.58,4.45h3.16V31.98z M59.8,36.63h-2.97v-6.82l-2.97,5.04l-2.97-4.84v6.62h-3.06V24.27h3.16l2.87,5.04l3.06-5.04H60v12.35
				H59.8z"/>
		</g>
		<g>
			<defs>
				<path id="SVGID_11_" d="M12.06,30c0,3.85-2.37,6.52-6.03,6.52S0,33.85,0,30s2.57-6.52,6.03-6.52S12.06,26.05,12.06,30L12.06,30z
					 M9.09,30c0-1.98-0.89-3.95-3.06-3.95S2.97,28.02,2.97,30c0,1.88,0.99,3.85,3.06,3.85S9.09,31.78,9.09,30L9.09,30z M22.93,32.57
					c0,2.37-2.27,3.95-5.04,3.95c-5.44,0-5.14-4.05-5.14-4.45h2.87c-0.1,1.28,1.19,1.98,2.37,1.98c0.89,0,1.88-0.2,2.08-1.28
					c0.3-2.27-7.12-0.59-7.12-5.34c0-2.47,2.47-3.85,4.94-3.85c3.46,0,5.04,2.08,5.04,4.25h-2.97c0,0,0.1-1.78-2.08-1.78
					c-0.89,0-1.88,0.3-1.98,1.19C15.62,29.31,22.83,27.73,22.93,32.57L22.93,32.57z M34.4,28.02c0,1.78-0.89,3.16-2.47,3.95
					L34,36.13h-3.16l-1.88-3.95h-1.88v3.95h-2.87V23.87h6.33C32.72,23.87,34.4,25.65,34.4,28.02L34.4,28.02z M31.43,28.02
					c0-0.89-0.49-1.68-1.38-1.68h-2.97v3.36h2.97C30.84,29.7,31.43,28.81,31.43,28.02L31.43,28.02z M46.65,36.13h-3.06l-0.69-2.08
					h-4.84l-0.69,2.08H34.3l4.45-12.35h3.56L46.65,36.13L46.65,36.13z M42.01,31.48l-1.58-4.55l0,0l-1.58,4.45h3.16V31.48z
					 M59.3,36.13h-2.97v-6.82l-2.97,5.04l-2.97-4.84v6.62h-3.06V23.77h3.16l2.87,5.04l3.06-5.04h3.06v12.35H59.3z"/>
			</defs>
			<clipPath id="SVGID_12_">
				<use xlink:href="#SVGID_11_"  style="overflow:visible;"/>
			</clipPath>
		</g>
	</g>
</g>
</svg>
