<?xml version="1.0" encoding="utf-8"?>
<!-- Generator: Adobe Illustrator 21.1.0, SVG Export Plug-In . SVG Version: 6.00 Build 0)  -->
<svg version="1.1" id="BRAND_-_Osram" xmlns="http://www.w3.org/2000/svg" xmlns:xlink="http://www.w3.org/1999/xlink" x="0px"
	 y="0px" viewBox="0 0 60 60" style="enable-background:new 0 0 60 60;" xml:space="preserve">
<style type="text/css">
	.st0{clip-path:url(#SVGID_4_);fill:#555555;}
	.st1{clip-path:url(#SVGID_10_);fill:#272727;}
</style>
<g>
	<g>
		<g>
			<defs>
				<path id="SVGID_1_" d="M11.59,23.88h0.15v0.15v11.62v0.15h-0.15H7.86H7.71v-0.15v-4.36H4.53v4.36v0.15H4.38H0.65H0.5l0-0.15
					V24.03l0-0.15h0.15h3.73h0.15v0.15v3.79h3.18v-3.79v-0.15h0.15H11.59z M59.85,35.57l-3.84-5.96l3.71-5.5l0.16-0.23H59.6h-4.11
					h-0.09l-0.04,0.08l-1.56,2.71l-1.43-2.7l-0.04-0.08h-0.09h-4.2h-0.27l0.15,0.23l3.59,5.5l-3.94,5.96l-0.15,0.23h0.28h4.29h0.09
					l0.04-0.08l1.64-2.92l1.63,2.92l0.04,0.08h0.09h4.22H60L59.85,35.57z M29.56,32.41v-8.38v-0.15h-0.15h-3.73h-0.15v0.15v11.62
					v0.15h0.15h8.81h0.15v-0.15v-3.09v-0.15h-0.15H29.56z M42.98,23.88h-0.15v0.15v7.16c0,0.32-0.03,0.6-0.1,0.82
					c-0.06,0.21-0.15,0.38-0.27,0.5l0,0c-0.12,0.12-0.28,0.21-0.48,0.27c-0.21,0.06-0.47,0.1-0.77,0.1c-0.31,0-0.57-0.03-0.79-0.1
					c-0.21-0.06-0.37-0.16-0.49-0.28l0,0c-0.12-0.12-0.21-0.29-0.27-0.5c-0.06-0.22-0.1-0.49-0.1-0.81v-7.16v-0.15l-0.15,0H35.7
					h-0.15v0.15v7.46c0,0.75,0.12,1.41,0.37,1.98c0.25,0.58,0.62,1.07,1.11,1.47c0.49,0.4,1.09,0.7,1.79,0.89
					c0.7,0.2,1.5,0.29,2.41,0.29c0.9,0,1.7-0.1,2.4-0.29c0.7-0.2,1.29-0.5,1.78-0.89l0,0c0.49-0.4,0.86-0.89,1.1-1.47
					c0.24-0.57,0.36-1.24,0.36-1.98v-7.46v-0.15h-0.15H42.98z M20.71,23.88h-0.09l-0.04,0.08l-1.89,3.7l-1.87-3.7l-0.04-0.08h-0.09
					h-4.14h-0.26l0.13,0.22l4.26,7.29v4.26v0.15h0.15h3.73h0.15v-0.15v-4.26l4.15-7.29l0.13-0.22h-0.26H20.71z"/>
			</defs>
			<clipPath id="SVGID_2_">
				<use xlink:href="#SVGID_1_"  style="overflow:visible;"/>
			</clipPath>
		</g>
		<g>
			<defs>
				<path id="SVGID_3_" d="M11.59,23.88h0.15v0.15v11.62v0.15h-0.15H7.86H7.71v-0.15v-4.36H4.53v4.36v0.15H4.38H0.65H0.5l0-0.15
					V24.03l0-0.15h0.15h3.73h0.15v0.15v3.79h3.18v-3.79v-0.15h0.15H11.59z M59.85,35.57l-3.84-5.96l3.71-5.5l0.16-0.23H59.6h-4.11
					h-0.09l-0.04,0.08l-1.56,2.71l-1.43-2.7l-0.04-0.08h-0.09h-4.2h-0.27l0.15,0.23l3.59,5.5l-3.94,5.96l-0.15,0.23h0.28h4.29h0.09
					l0.04-0.08l1.64-2.92l1.63,2.92l0.04,0.08h0.09h4.22H60L59.85,35.57z M29.56,32.41v-8.38v-0.15h-0.15h-3.73h-0.15v0.15v11.62
					v0.15h0.15h8.81h0.15v-0.15v-3.09v-0.15h-0.15H29.56z M42.98,23.88h-0.15v0.15v7.16c0,0.32-0.03,0.6-0.1,0.82
					c-0.06,0.21-0.15,0.38-0.27,0.5l0,0c-0.12,0.12-0.28,0.21-0.48,0.27c-0.21,0.06-0.47,0.1-0.77,0.1c-0.31,0-0.57-0.03-0.79-0.1
					c-0.21-0.06-0.37-0.16-0.49-0.28l0,0c-0.12-0.12-0.21-0.29-0.27-0.5c-0.06-0.22-0.1-0.49-0.1-0.81v-7.16v-0.15l-0.15,0H35.7
					h-0.15v0.15v7.46c0,0.75,0.12,1.41,0.37,1.98c0.25,0.58,0.62,1.07,1.11,1.47c0.49,0.4,1.09,0.7,1.79,0.89
					c0.7,0.2,1.5,0.29,2.41,0.29c0.9,0,1.7-0.1,2.4-0.29c0.7-0.2,1.29-0.5,1.78-0.89l0,0c0.49-0.4,0.86-0.89,1.1-1.47
					c0.24-0.57,0.36-1.24,0.36-1.98v-7.46v-0.15h-0.15H42.98z M20.71,23.88h-0.09l-0.04,0.08l-1.89,3.7l-1.87-3.7l-0.04-0.08h-0.09
					h-4.14h-0.26l0.13,0.22l4.26,7.29v4.26v0.15h0.15h3.73h0.15v-0.15v-4.26l4.15-7.29l0.13-0.22h-0.26H20.71z"/>
			</defs>
			<use xlink:href="#SVGID_3_"  style="overflow:visible;fill:#555555;"/>
			<clipPath id="SVGID_4_">
				<use xlink:href="#SVGID_3_"  style="overflow:visible;"/>
			</clipPath>
			<path class="st0" d="M12.09,24.38h0.15v0.15v11.62v0.15h-0.15H8.36H8.21v-0.15v-4.36H5.03v4.36v0.15H4.88H1.15H1l0-0.15V24.53
				l0-0.15h0.15h3.73h0.15v0.15v3.79h3.18v-3.79v-0.15h0.15H12.09z M60.35,36.07l-3.84-5.96l3.71-5.5l0.16-0.23H60.1h-4.11h-0.09
				l-0.04,0.08l-1.56,2.71l-1.43-2.7l-0.04-0.08h-0.09h-4.2h-0.27l0.15,0.23l3.59,5.5l-3.94,5.96l-0.15,0.23h0.28h4.29h0.09
				l0.04-0.08l1.64-2.92l1.63,2.92l0.04,0.08h0.09h4.22h0.27L60.35,36.07z M30.06,32.91v-8.38v-0.15h-0.15h-3.73h-0.15v0.15v11.62
				v0.15h0.15h8.81h0.15v-0.15v-3.09v-0.15h-0.15H30.06z M43.48,24.38h-0.15v0.15v7.16c0,0.32-0.03,0.6-0.1,0.82
				c-0.06,0.21-0.15,0.38-0.27,0.5l0,0c-0.12,0.12-0.28,0.21-0.48,0.27c-0.21,0.06-0.47,0.1-0.77,0.1c-0.31,0-0.57-0.03-0.79-0.1
				c-0.21-0.06-0.37-0.16-0.49-0.28l0,0c-0.12-0.12-0.21-0.29-0.27-0.5c-0.06-0.22-0.1-0.49-0.1-0.81v-7.16v-0.15l-0.15,0H36.2
				h-0.15v0.15v7.46c0,0.75,0.12,1.41,0.37,1.98c0.25,0.58,0.62,1.07,1.11,1.47c0.49,0.4,1.09,0.7,1.79,0.89
				c0.7,0.2,1.5,0.29,2.41,0.29c0.9,0,1.7-0.1,2.4-0.29c0.7-0.2,1.29-0.5,1.78-0.89l0,0c0.49-0.4,0.86-0.89,1.1-1.47
				c0.24-0.57,0.36-1.24,0.36-1.98v-7.46v-0.15h-0.15H43.48z M21.21,24.38h-0.09l-0.04,0.08l-1.89,3.7l-1.87-3.7l-0.04-0.08h-0.09
				h-4.14h-0.26l0.13,0.22l4.26,7.29v4.26v0.15h0.15h3.73h0.15v-0.15v-4.26l4.15-7.29l0.13-0.22h-0.26H21.21z"/>
		</g>
		<g>
			<defs>
				<path id="SVGID_5_" d="M11.59,23.88h0.15v0.15v11.62v0.15h-0.15H7.86H7.71v-0.15v-4.36H4.53v4.36v0.15H4.38H0.65H0.5l0-0.15
					V24.03l0-0.15h0.15h3.73h0.15v0.15v3.79h3.18v-3.79v-0.15h0.15H11.59z M59.85,35.57l-3.84-5.96l3.71-5.5l0.16-0.23H59.6h-4.11
					h-0.09l-0.04,0.08l-1.56,2.71l-1.43-2.7l-0.04-0.08h-0.09h-4.2h-0.27l0.15,0.23l3.59,5.5l-3.94,5.96l-0.15,0.23h0.28h4.29h0.09
					l0.04-0.08l1.64-2.92l1.63,2.92l0.04,0.08h0.09h4.22H60L59.85,35.57z M29.56,32.41v-8.38v-0.15h-0.15h-3.73h-0.15v0.15v11.62
					v0.15h0.15h8.81h0.15v-0.15v-3.09v-0.15h-0.15H29.56z M42.98,23.88h-0.15v0.15v7.16c0,0.32-0.03,0.6-0.1,0.82
					c-0.06,0.21-0.15,0.38-0.27,0.5l0,0c-0.12,0.12-0.28,0.21-0.48,0.27c-0.21,0.06-0.47,0.1-0.77,0.1c-0.31,0-0.57-0.03-0.79-0.1
					c-0.21-0.06-0.37-0.16-0.49-0.28l0,0c-0.12-0.12-0.21-0.29-0.27-0.5c-0.06-0.22-0.1-0.49-0.1-0.81v-7.16v-0.15l-0.15,0H35.7
					h-0.15v0.15v7.46c0,0.75,0.12,1.41,0.37,1.98c0.25,0.58,0.62,1.07,1.11,1.47c0.49,0.4,1.09,0.7,1.79,0.89
					c0.7,0.2,1.5,0.29,2.41,0.29c0.9,0,1.7-0.1,2.4-0.29c0.7-0.2,1.29-0.5,1.78-0.89l0,0c0.49-0.4,0.86-0.89,1.1-1.47
					c0.24-0.57,0.36-1.24,0.36-1.98v-7.46v-0.15h-0.15H42.98z M20.71,23.88h-0.09l-0.04,0.08l-1.89,3.7l-1.87-3.7l-0.04-0.08h-0.09
					h-4.14h-0.26l0.13,0.22l4.26,7.29v4.26v0.15h0.15h3.73h0.15v-0.15v-4.26l4.15-7.29l0.13-0.22h-0.26H20.71z"/>
			</defs>
			<clipPath id="SVGID_6_">
				<use xlink:href="#SVGID_5_"  style="overflow:visible;"/>
			</clipPath>
		</g>
	</g>
	<g>
		<g>
			<defs>
				<path id="SVGID_7_" d="M11.09,23.38h0.15v0.15v11.62v0.15h-0.15H7.36H7.21v-0.15v-4.36H4.03v4.36v0.15H3.88H0.15H0l0-0.15V23.53
					l0-0.15h0.15h3.73h0.15v0.15v3.79h3.18v-3.79v-0.15h0.15H11.09z M59.35,35.07l-3.84-5.96l3.71-5.5l0.16-0.23H59.1h-4.11h-0.09
					l-0.04,0.08l-1.56,2.71l-1.43-2.7l-0.04-0.08h-0.09h-4.2h-0.27l0.15,0.23l3.59,5.5l-3.94,5.96l-0.15,0.23h0.28h4.29h0.09
					l0.04-0.08l1.64-2.92l1.63,2.92l0.04,0.08h0.09h4.22h0.27L59.35,35.07z M29.06,31.91v-8.38v-0.15h-0.15h-3.73h-0.15v0.15v11.62
					v0.15h0.15h8.81h0.15v-0.15v-3.09v-0.15h-0.15H29.06z M42.48,23.38h-0.15v0.15v7.16c0,0.32-0.03,0.6-0.1,0.82
					c-0.06,0.21-0.15,0.38-0.27,0.5l0,0c-0.12,0.12-0.28,0.21-0.48,0.27c-0.21,0.06-0.47,0.1-0.77,0.1c-0.31,0-0.57-0.03-0.79-0.1
					c-0.21-0.06-0.37-0.16-0.49-0.28l0,0c-0.12-0.12-0.21-0.29-0.27-0.5c-0.06-0.22-0.1-0.49-0.1-0.81v-7.16v-0.15l-0.15,0H35.2
					h-0.15v0.15v7.46c0,0.75,0.12,1.41,0.37,1.98c0.25,0.58,0.62,1.07,1.11,1.47c0.49,0.4,1.09,0.7,1.79,0.89
					c0.7,0.2,1.5,0.29,2.41,0.29c0.9,0,1.7-0.1,2.4-0.29c0.7-0.2,1.29-0.5,1.78-0.89l0,0c0.49-0.4,0.86-0.89,1.1-1.47
					c0.24-0.57,0.36-1.24,0.36-1.98v-7.46v-0.15h-0.15H42.48z M20.21,23.38h-0.09l-0.04,0.08l-1.89,3.7l-1.87-3.7l-0.04-0.08h-0.09
					h-4.14h-0.26l0.13,0.22l4.26,7.29v4.26v0.15h0.15h3.73h0.15v-0.15v-4.26l4.15-7.29l0.13-0.22h-0.26H20.21z"/>
			</defs>
			<clipPath id="SVGID_8_">
				<use xlink:href="#SVGID_7_"  style="overflow:visible;"/>
			</clipPath>
		</g>
		<g>
			<defs>
				<path id="SVGID_9_" d="M11.09,23.38h0.15v0.15v11.62v0.15h-0.15H7.36H7.21v-0.15v-4.36H4.03v4.36v0.15H3.88H0.15H0l0-0.15V23.53
					l0-0.15h0.15h3.73h0.15v0.15v3.79h3.18v-3.79v-0.15h0.15H11.09z M59.35,35.07l-3.84-5.96l3.71-5.5l0.16-0.23H59.1h-4.11h-0.09
					l-0.04,0.08l-1.56,2.71l-1.43-2.7l-0.04-0.08h-0.09h-4.2h-0.27l0.15,0.23l3.59,5.5l-3.94,5.96l-0.15,0.23h0.28h4.29h0.09
					l0.04-0.08l1.64-2.92l1.63,2.92l0.04,0.08h0.09h4.22h0.27L59.35,35.07z M29.06,31.91v-8.38v-0.15h-0.15h-3.73h-0.15v0.15v11.62
					v0.15h0.15h8.81h0.15v-0.15v-3.09v-0.15h-0.15H29.06z M42.48,23.38h-0.15v0.15v7.16c0,0.32-0.03,0.6-0.1,0.82
					c-0.06,0.21-0.15,0.38-0.27,0.5l0,0c-0.12,0.12-0.28,0.21-0.48,0.27c-0.21,0.06-0.47,0.1-0.77,0.1c-0.31,0-0.57-0.03-0.79-0.1
					c-0.21-0.06-0.37-0.16-0.49-0.28l0,0c-0.12-0.12-0.21-0.29-0.27-0.5c-0.06-0.22-0.1-0.49-0.1-0.81v-7.16v-0.15l-0.15,0H35.2
					h-0.15v0.15v7.46c0,0.75,0.12,1.41,0.37,1.98c0.25,0.58,0.62,1.07,1.11,1.47c0.49,0.4,1.09,0.7,1.79,0.89
					c0.7,0.2,1.5,0.29,2.41,0.29c0.9,0,1.7-0.1,2.4-0.29c0.7-0.2,1.29-0.5,1.78-0.89l0,0c0.49-0.4,0.86-0.89,1.1-1.47
					c0.24-0.57,0.36-1.24,0.36-1.98v-7.46v-0.15h-0.15H42.48z M20.21,23.38h-0.09l-0.04,0.08l-1.89,3.7l-1.87-3.7l-0.04-0.08h-0.09
					h-4.14h-0.26l0.13,0.22l4.26,7.29v4.26v0.15h0.15h3.73h0.15v-0.15v-4.26l4.15-7.29l0.13-0.22h-0.26H20.21z"/>
			</defs>
			<use xlink:href="#SVGID_9_"  style="overflow:visible;fill:#111111;"/>
			<clipPath id="SVGID_10_">
				<use xlink:href="#SVGID_9_"  style="overflow:visible;"/>
			</clipPath>
			<path class="st1" d="M11.59,23.88h0.15v0.15v11.62v0.15h-0.15H7.86H7.71v-0.15v-4.36H4.53v4.36v0.15H4.38H0.65H0.5l0-0.15V24.03
				l0-0.15h0.15h3.73h0.15v0.15v3.79h3.18v-3.79v-0.15h0.15H11.59z M59.85,35.57l-3.84-5.96l3.71-5.5l0.16-0.23H59.6h-4.11h-0.09
				l-0.04,0.08l-1.56,2.71l-1.43-2.7l-0.04-0.08h-0.09h-4.2h-0.27l0.15,0.23l3.59,5.5l-3.94,5.96l-0.15,0.23h0.28h4.29h0.09
				l0.04-0.08l1.64-2.92l1.63,2.92l0.04,0.08h0.09h4.22H60L59.85,35.57z M29.56,32.41v-8.38v-0.15h-0.15h-3.73h-0.15v0.15v11.62
				v0.15h0.15h8.81h0.15v-0.15v-3.09v-0.15h-0.15H29.56z M42.98,23.88h-0.15v0.15v7.16c0,0.32-0.03,0.6-0.1,0.82
				c-0.06,0.21-0.15,0.38-0.27,0.5l0,0c-0.12,0.12-0.28,0.21-0.48,0.27c-0.21,0.06-0.47,0.1-0.77,0.1c-0.31,0-0.57-0.03-0.79-0.1
				c-0.21-0.06-0.37-0.16-0.49-0.28l0,0c-0.12-0.12-0.21-0.29-0.27-0.5c-0.06-0.22-0.1-0.49-0.1-0.81v-7.16v-0.15l-0.15,0H35.7
				h-0.15v0.15v7.46c0,0.75,0.12,1.41,0.37,1.98c0.25,0.58,0.62,1.07,1.11,1.47c0.49,0.4,1.09,0.7,1.79,0.89
				c0.7,0.2,1.5,0.29,2.41,0.29c0.9,0,1.7-0.1,2.4-0.29c0.7-0.2,1.29-0.5,1.78-0.89l0,0c0.49-0.4,0.86-0.89,1.1-1.47
				c0.24-0.57,0.36-1.24,0.36-1.98v-7.46v-0.15h-0.15H42.98z M20.71,23.88h-0.09l-0.04,0.08l-1.89,3.7l-1.87-3.7l-0.04-0.08h-0.09
				h-4.14h-0.26l0.13,0.22l4.26,7.29v4.26v0.15h0.15h3.73h0.15v-0.15v-4.26l4.15-7.29l0.13-0.22h-0.26H20.71z"/>
		</g>
		<g>
			<defs>
				<path id="SVGID_11_" d="M11.09,23.38h0.15v0.15v11.62v0.15h-0.15H7.36H7.21v-0.15v-4.36H4.03v4.36v0.15H3.88H0.15H0l0-0.15
					V23.53l0-0.15h0.15h3.73h0.15v0.15v3.79h3.18v-3.79v-0.15h0.15H11.09z M59.35,35.07l-3.84-5.96l3.71-5.5l0.16-0.23H59.1h-4.11
					h-0.09l-0.04,0.08l-1.56,2.71l-1.43-2.7l-0.04-0.08h-0.09h-4.2h-0.27l0.15,0.23l3.59,5.5l-3.94,5.96l-0.15,0.23h0.28h4.29h0.09
					l0.04-0.08l1.64-2.92l1.63,2.92l0.04,0.08h0.09h4.22h0.27L59.35,35.07z M29.06,31.91v-8.38v-0.15h-0.15h-3.73h-0.15v0.15v11.62
					v0.15h0.15h8.81h0.15v-0.15v-3.09v-0.15h-0.15H29.06z M42.48,23.38h-0.15v0.15v7.16c0,0.32-0.03,0.6-0.1,0.82
					c-0.06,0.21-0.15,0.38-0.27,0.5l0,0c-0.12,0.12-0.28,0.21-0.48,0.27c-0.21,0.06-0.47,0.1-0.77,0.1c-0.31,0-0.57-0.03-0.79-0.1
					c-0.21-0.06-0.37-0.16-0.49-0.28l0,0c-0.12-0.12-0.21-0.29-0.27-0.5c-0.06-0.22-0.1-0.49-0.1-0.81v-7.16v-0.15l-0.15,0H35.2
					h-0.15v0.15v7.46c0,0.75,0.12,1.41,0.37,1.98c0.25,0.58,0.62,1.07,1.11,1.47c0.49,0.4,1.09,0.7,1.79,0.89
					c0.7,0.2,1.5,0.29,2.41,0.29c0.9,0,1.7-0.1,2.4-0.29c0.7-0.2,1.29-0.5,1.78-0.89l0,0c0.49-0.4,0.86-0.89,1.1-1.47
					c0.24-0.57,0.36-1.24,0.36-1.98v-7.46v-0.15h-0.15H42.48z M20.21,23.38h-0.09l-0.04,0.08l-1.89,3.7l-1.87-3.7l-0.04-0.08h-0.09
					h-4.14h-0.26l0.13,0.22l4.26,7.29v4.26v0.15h0.15h3.73h0.15v-0.15v-4.26l4.15-7.29l0.13-0.22h-0.26H20.21z"/>
			</defs>
			<clipPath id="SVGID_12_">
				<use xlink:href="#SVGID_11_"  style="overflow:visible;"/>
			</clipPath>
		</g>
	</g>
</g>
</svg>
