<?xml version="1.0" encoding="utf-8"?>
<!-- Generator: Adobe Illustrator 21.1.0, SVG Export Plug-In . SVG Version: 6.00 Build 0)  -->
<svg version="1.1" id="BRAND_-_Osram" xmlns="http://www.w3.org/2000/svg" xmlns:xlink="http://www.w3.org/1999/xlink" x="0px"
	 y="0px" viewBox="0 0 60 50" style="enable-background:new 0 0 60 50;" xml:space="preserve">
<style type="text/css">
	.st0{fill:#555555;}
	.st1{clip-path:url(#SVGID_2_);fill:#555555;}
	.st2{fill:#111111;}
	.st3{clip-path:url(#SVGID_5_);fill:#272727;}
</style>
<g>
	<g>
		<g>
			<g>
				<path id="SVGID_3_" class="st0" d="M51.9,30.5l8.1-4.7l-12.1-6.2c4.6,3.2,5.8,5.1,5.8,6.9C53.5,28,52.8,29.2,51.9,30.5z
					 M0.5,27.5l0.3-0.9h1c0.2,0,0.4,0,0.5-0.1s0.2-0.2,0.2-0.4l0.7-2.6h1.1l-0.8,2.7c-0.1,0.3-0.2,0.5-0.3,0.6
					C3.1,27,3,27.1,2.8,27.2c-0.1,0.1-0.3,0.2-0.5,0.2s-0.5,0.1-0.8,0.1L0.5,27.5L0.5,27.5z M4.1,27.5c-0.1,0-0.2,0-0.2,0l-0.1-0.1
					v-0.1l0.1-0.4c0-0.1,0.1-0.2,0.1-0.2c0.1,0,0.2-0.1,0.3-0.1h0.3c0.1,0,0.2,0,0.2,0l0.1,0.1l0,0l0,0l-0.1,0.4
					c0,0.1-0.1,0.2-0.1,0.2c-0.1,0-0.1,0.1-0.3,0.1L4.1,27.5C4.1,27.4,4.1,27.5,4.1,27.5z M11.6,27.5c-0.1,0-0.2,0-0.2,0l-0.1-0.1
					v-0.1l0.1-0.4c0-0.1,0.1-0.2,0.1-0.2c0.1,0,0.2-0.1,0.3-0.1h0.3c0.1,0,0.2,0,0.2,0l0.1,0.1l0,0l0,0v0.6c0,0.1-0.1,0.2-0.1,0.2
					c-0.1,0-0.1,0.1-0.3,0.1L11.6,27.5C11.6,27.6,11.6,27.5,11.6,27.5z M8.8,24.9l-1.7,2.2c-0.1,0.1-0.2,0.3-0.4,0.3
					c-0.1,0.1-0.3,0.1-0.5,0.1s-0.3,0-0.4-0.1s-0.1-0.2-0.1-0.3l-0.5-3.6h1.2l0.3,2.6l1.7-2.3c0.1-0.2,0.2-0.3,0.4-0.3
					c0.1-0.1,0.3-0.1,0.4-0.1c0.2,0,0.3,0,0.4,0.1c0.1,0.1,0.1,0.2,0.2,0.3l0.4,2.3l1.8-2.6h1.3l-2.6,3.6c-0.1,0.1-0.2,0.2-0.3,0.3
					s-0.3,0.1-0.4,0.1c-0.2,0-0.3,0-0.4-0.1c-0.1-0.1-0.1-0.2-0.2-0.3L8.8,24.9z M13.9,27.5l0.3-0.9h3c0.2,0,0.4-0.1,0.4-0.3
					c0-0.1,0-0.1,0.1-0.2V26c0-0.1,0-0.1-0.1-0.1c0,0-0.1,0-0.2,0h-1.8c-0.4,0-0.7-0.1-0.8-0.2s-0.2-0.3-0.2-0.5c0-0.1,0-0.1,0-0.2
					s0.1-0.2,0.1-0.4c0.1-0.2,0.1-0.4,0.2-0.5c0.1-0.1,0.2-0.3,0.3-0.4s0.3-0.2,0.4-0.2c0.2,0,0.4-0.1,0.6-0.1h3l-0.3,0.9H16
					c-0.1,0-0.2,0-0.3,0.1c-0.1,0-0.1,0.1-0.1,0.2s0,0.1,0,0.1s0,0,0,0.1s0,0.1,0,0.1s0.1,0,0.2,0h1.8c0.4,0,0.7,0.1,0.8,0.2
					c0.2,0.1,0.2,0.3,0.2,0.6c0,0,0,0,0,0.1v0.1c0,0,0,0.1,0,0.2s0,0.2-0.1,0.3c-0.1,0.2-0.1,0.4-0.2,0.5s-0.2,0.2-0.3,0.3
					s-0.3,0.1-0.4,0.2c-0.2,0-0.4,0.1-0.6,0.1H13.9z M20.1,26.4l-0.3,1.1h-1.1l1.1-4h3.3c0.2,0,0.5,0,0.6,0.1c0.2,0,0.3,0.1,0.4,0.2
					s0.2,0.2,0.2,0.3c0,0.1,0,0.2,0,0.4v0.1v0.1c0,0.1,0,0.1-0.1,0.2c0,0.1-0.1,0.2-0.1,0.3c-0.1,0.2-0.2,0.4-0.2,0.6
					c-0.1,0.2-0.2,0.3-0.4,0.4c-0.1,0.1-0.3,0.2-0.5,0.2s-0.5,0.1-0.8,0.1h-2.1V26.4z M23.1,25.1c0-0.1,0-0.1,0-0.2v-0.1v-0.1l0,0
					c0-0.1,0-0.2-0.1-0.2s-0.2,0-0.3,0h-2.1l-0.3,1.1h2.1c0.2,0,0.3,0,0.4-0.1C23,25.4,23.1,25.3,23.1,25.1 M25.6,27.5
					c-0.2,0-0.5,0-0.6-0.1c-0.2,0-0.3-0.1-0.4-0.2c-0.1-0.1-0.2-0.2-0.2-0.3c0-0.1,0-0.3,0-0.4v-0.1c0,0,0-0.1,0.1-0.3
					c0-0.1,0.1-0.3,0.1-0.5c0.1-0.2,0.1-0.5,0.2-0.9c0.1-0.3,0.2-0.5,0.3-0.6c0.1-0.2,0.2-0.3,0.4-0.4s0.3-0.2,0.5-0.2
					s0.5-0.1,0.8-0.1h2.8l-0.3,0.9h-2.8c-0.2,0-0.3,0-0.4,0.1s-0.2,0.2-0.2,0.3l-0.1,0.2h3.3L28.9,26h-3.3c0,0.1-0.1,0.3-0.1,0.3
					c0,0.1,0,0.1,0,0.1c0,0.1,0,0.2,0.1,0.2s0.2,0,0.3,0h2.8l-0.3,0.9L25.6,27.5L25.6,27.5z M41.3,27.5c-0.2,0-0.5,0-0.6-0.1
					c-0.2,0-0.3-0.1-0.4-0.2c-0.1-0.1-0.2-0.2-0.2-0.3c0-0.1,0-0.3,0-0.4v-0.1c0,0,0-0.1,0.1-0.3c0-0.1,0.1-0.3,0.1-0.5
					c0.1-0.2,0.1-0.5,0.2-0.9c0.1-0.3,0.2-0.5,0.3-0.6c0.1-0.2,0.2-0.3,0.4-0.4s0.3-0.2,0.5-0.2s0.5-0.1,0.8-0.1h2.7l-0.3,0.9h-2.7
					c-0.2,0-0.3,0-0.4,0.1c-0.1,0.1-0.2,0.2-0.2,0.3l-0.1,0.2h3.3L44.5,26h-3.3c0,0.1-0.1,0.3-0.1,0.3c0,0.1,0,0.1,0,0.1
					c0,0.1,0,0.2,0.1,0.2s0.2,0,0.3,0h2.8L44,27.5L41.3,27.5L41.3,27.5z M33.7,27.5l-0.3-0.9h-2.5l-0.8,0.9h-1.3l3.3-3.6
					c0.1-0.1,0.3-0.3,0.4-0.3c0.1-0.1,0.3-0.1,0.6-0.1c0.1,0,0.2,0,0.3,0s0.1,0.1,0.2,0.1c0.1,0,0.1,0.1,0.1,0.1
					c0,0.1,0.1,0.1,0.1,0.2l1.2,3.6C35,27.5,33.7,27.5,33.7,27.5z M33.1,25.9c-0.1-0.2-0.1-0.3-0.2-0.4c0-0.1-0.1-0.3-0.1-0.4
					s-0.1-0.2-0.1-0.3c0-0.1,0-0.2-0.1-0.2c-0.1,0.1-0.1,0.2-0.2,0.2c-0.1,0.1-0.2,0.2-0.2,0.3c-0.1,0.1-0.2,0.2-0.3,0.4
					c-0.1,0.1-0.3,0.3-0.4,0.4H33.1z M38.3,27.5l-1.4-1.9l-0.5,1.9h-1.1l1.1-4h1.1L37,25.4l2.3-1.9h1.5l-2.5,2l1.4,2L38.3,27.5
					L38.3,27.5z M47.9,27.5L46.2,26l-0.4,1.5h-1.1l1.1-4H49c0.2,0,0.5,0,0.6,0c0.2,0,0.3,0.1,0.4,0.1c0.1,0.1,0.2,0.2,0.2,0.3
					c0,0.1,0.1,0.2,0,0.4v0.1v0.1c0,0,0,0.1,0,0.2s0,0.2-0.1,0.3c-0.1,0.2-0.2,0.4-0.3,0.6s-0.2,0.3-0.4,0.4s-0.3,0.1-0.5,0.2
					c-0.2,0-0.4,0-0.7,0h-0.5l1.7,1.3L47.9,27.5L47.9,27.5z M49.1,25c0-0.1,0.1-0.2,0.1-0.3v-0.1c0-0.1,0-0.2-0.1-0.2s-0.1,0-0.3,0
					h-2.2l-0.3,1h2c0.2,0,0.4,0,0.5-0.1C49,25.3,49.1,25.2,49.1,25 M50.7,26.6c0.3,0,0.5,0.2,0.5,0.5s-0.2,0.5-0.5,0.5
					s-0.5-0.2-0.5-0.5C50.2,26.8,50.4,26.6,50.7,26.6L50.7,26.6z M50.7,26.7c-0.2,0-0.4,0.2-0.4,0.4c0,0.2,0.2,0.4,0.4,0.4
					s0.4-0.2,0.4-0.4C51.1,26.9,50.9,26.7,50.7,26.7L50.7,26.7z M50.6,27.3L50.6,27.3l-0.1-0.5c0,0,0.1,0,0.2,0c0.1,0,0.1,0,0.2,0
					v0.1c0,0.1,0,0.1-0.1,0.1l0,0l0.1,0.1c0,0.1,0,0.1,0,0.1h-0.1v-0.1c0,0,0-0.1-0.1-0.1h-0.1C50.6,27,50.6,27.3,50.6,27.3z
					 M50.6,27L50.6,27c0.1,0,0.2,0,0.2-0.1c0,0,0-0.1-0.1-0.1c0,0,0,0-0.1,0C50.6,26.8,50.6,27,50.6,27z"/>
			</g>
			<g>
				<defs>
					<path id="SVGID_1_" d="M51.9,30.5l8.1-4.7l-12.1-6.2c4.6,3.2,5.8,5.1,5.8,6.9C53.5,28,52.8,29.2,51.9,30.5z M0.5,27.5l0.3-0.9
						h1c0.2,0,0.4,0,0.5-0.1s0.2-0.2,0.2-0.4l0.7-2.6h1.1l-0.8,2.7c-0.1,0.3-0.2,0.5-0.3,0.6C3.1,27,3,27.1,2.8,27.2
						c-0.1,0.1-0.3,0.2-0.5,0.2s-0.5,0.1-0.8,0.1L0.5,27.5L0.5,27.5z M4.1,27.5c-0.1,0-0.2,0-0.2,0l-0.1-0.1v-0.1l0.1-0.4
						c0-0.1,0.1-0.2,0.1-0.2c0.1,0,0.2-0.1,0.3-0.1h0.3c0.1,0,0.2,0,0.2,0l0.1,0.1l0,0l0,0l-0.1,0.4c0,0.1-0.1,0.2-0.1,0.2
						c-0.1,0-0.1,0.1-0.3,0.1L4.1,27.5C4.1,27.4,4.1,27.5,4.1,27.5z M11.6,27.5c-0.1,0-0.2,0-0.2,0l-0.1-0.1v-0.1l0.1-0.4
						c0-0.1,0.1-0.2,0.1-0.2c0.1,0,0.2-0.1,0.3-0.1h0.3c0.1,0,0.2,0,0.2,0l0.1,0.1l0,0l0,0v0.6c0,0.1-0.1,0.2-0.1,0.2
						c-0.1,0-0.1,0.1-0.3,0.1L11.6,27.5C11.6,27.6,11.6,27.5,11.6,27.5z M8.8,24.9l-1.7,2.2c-0.1,0.1-0.2,0.3-0.4,0.3
						c-0.1,0.1-0.3,0.1-0.5,0.1s-0.3,0-0.4-0.1s-0.1-0.2-0.1-0.3l-0.5-3.6h1.2l0.3,2.6l1.7-2.3c0.1-0.2,0.2-0.3,0.4-0.3
						c0.1-0.1,0.3-0.1,0.4-0.1c0.2,0,0.3,0,0.4,0.1c0.1,0.1,0.1,0.2,0.2,0.3l0.4,2.3l1.8-2.6h1.3l-2.6,3.6c-0.1,0.1-0.2,0.2-0.3,0.3
						s-0.3,0.1-0.4,0.1c-0.2,0-0.3,0-0.4-0.1c-0.1-0.1-0.1-0.2-0.2-0.3L8.8,24.9z M13.9,27.5l0.3-0.9h3c0.2,0,0.4-0.1,0.4-0.3
						c0-0.1,0-0.1,0.1-0.2V26c0-0.1,0-0.1-0.1-0.1c0,0-0.1,0-0.2,0h-1.8c-0.4,0-0.7-0.1-0.8-0.2s-0.2-0.3-0.2-0.5c0-0.1,0-0.1,0-0.2
						s0.1-0.2,0.1-0.4c0.1-0.2,0.1-0.4,0.2-0.5c0.1-0.1,0.2-0.3,0.3-0.4s0.3-0.2,0.4-0.2c0.2,0,0.4-0.1,0.6-0.1h3l-0.3,0.9H16
						c-0.1,0-0.2,0-0.3,0.1c-0.1,0-0.1,0.1-0.1,0.2s0,0.1,0,0.1s0,0,0,0.1s0,0.1,0,0.1s0.1,0,0.2,0h1.8c0.4,0,0.7,0.1,0.8,0.2
						c0.2,0.1,0.2,0.3,0.2,0.6c0,0,0,0,0,0.1v0.1c0,0,0,0.1,0,0.2s0,0.2-0.1,0.3c-0.1,0.2-0.1,0.4-0.2,0.5s-0.2,0.2-0.3,0.3
						s-0.3,0.1-0.4,0.2c-0.2,0-0.4,0.1-0.6,0.1H13.9z M20.1,26.4l-0.3,1.1h-1.1l1.1-4h3.3c0.2,0,0.5,0,0.6,0.1
						c0.2,0,0.3,0.1,0.4,0.2s0.2,0.2,0.2,0.3c0,0.1,0,0.2,0,0.4v0.1v0.1c0,0.1,0,0.1-0.1,0.2c0,0.1-0.1,0.2-0.1,0.3
						c-0.1,0.2-0.2,0.4-0.2,0.6c-0.1,0.2-0.2,0.3-0.4,0.4c-0.1,0.1-0.3,0.2-0.5,0.2s-0.5,0.1-0.8,0.1h-2.1V26.4z M23.1,25.1
						c0-0.1,0-0.1,0-0.2v-0.1v-0.1l0,0c0-0.1,0-0.2-0.1-0.2s-0.2,0-0.3,0h-2.1l-0.3,1.1h2.1c0.2,0,0.3,0,0.4-0.1
						C23,25.4,23.1,25.3,23.1,25.1 M25.6,27.5c-0.2,0-0.5,0-0.6-0.1c-0.2,0-0.3-0.1-0.4-0.2c-0.1-0.1-0.2-0.2-0.2-0.3
						c0-0.1,0-0.3,0-0.4v-0.1c0,0,0-0.1,0.1-0.3c0-0.1,0.1-0.3,0.1-0.5c0.1-0.2,0.1-0.5,0.2-0.9c0.1-0.3,0.2-0.5,0.3-0.6
						c0.1-0.2,0.2-0.3,0.4-0.4s0.3-0.2,0.5-0.2s0.5-0.1,0.8-0.1h2.8l-0.3,0.9h-2.8c-0.2,0-0.3,0-0.4,0.1s-0.2,0.2-0.2,0.3l-0.1,0.2
						h3.3L28.9,26h-3.3c0,0.1-0.1,0.3-0.1,0.3c0,0.1,0,0.1,0,0.1c0,0.1,0,0.2,0.1,0.2s0.2,0,0.3,0h2.8l-0.3,0.9L25.6,27.5L25.6,27.5
						z M41.3,27.5c-0.2,0-0.5,0-0.6-0.1c-0.2,0-0.3-0.1-0.4-0.2c-0.1-0.1-0.2-0.2-0.2-0.3c0-0.1,0-0.3,0-0.4v-0.1c0,0,0-0.1,0.1-0.3
						c0-0.1,0.1-0.3,0.1-0.5c0.1-0.2,0.1-0.5,0.2-0.9c0.1-0.3,0.2-0.5,0.3-0.6c0.1-0.2,0.2-0.3,0.4-0.4s0.3-0.2,0.5-0.2
						s0.5-0.1,0.8-0.1h2.7l-0.3,0.9h-2.7c-0.2,0-0.3,0-0.4,0.1c-0.1,0.1-0.2,0.2-0.2,0.3l-0.1,0.2h3.3L44.5,26h-3.3
						c0,0.1-0.1,0.3-0.1,0.3c0,0.1,0,0.1,0,0.1c0,0.1,0,0.2,0.1,0.2s0.2,0,0.3,0h2.8L44,27.5L41.3,27.5L41.3,27.5z M33.7,27.5
						l-0.3-0.9h-2.5l-0.8,0.9h-1.3l3.3-3.6c0.1-0.1,0.3-0.3,0.4-0.3c0.1-0.1,0.3-0.1,0.6-0.1c0.1,0,0.2,0,0.3,0s0.1,0.1,0.2,0.1
						c0.1,0,0.1,0.1,0.1,0.1c0,0.1,0.1,0.1,0.1,0.2l1.2,3.6C35,27.5,33.7,27.5,33.7,27.5z M33.1,25.9c-0.1-0.2-0.1-0.3-0.2-0.4
						c0-0.1-0.1-0.3-0.1-0.4s-0.1-0.2-0.1-0.3c0-0.1,0-0.2-0.1-0.2c-0.1,0.1-0.1,0.2-0.2,0.2c-0.1,0.1-0.2,0.2-0.2,0.3
						c-0.1,0.1-0.2,0.2-0.3,0.4c-0.1,0.1-0.3,0.3-0.4,0.4H33.1z M38.3,27.5l-1.4-1.9l-0.5,1.9h-1.1l1.1-4h1.1L37,25.4l2.3-1.9h1.5
						l-2.5,2l1.4,2L38.3,27.5L38.3,27.5z M47.9,27.5L46.2,26l-0.4,1.5h-1.1l1.1-4H49c0.2,0,0.5,0,0.6,0c0.2,0,0.3,0.1,0.4,0.1
						c0.1,0.1,0.2,0.2,0.2,0.3c0,0.1,0.1,0.2,0,0.4v0.1v0.1c0,0,0,0.1,0,0.2s0,0.2-0.1,0.3c-0.1,0.2-0.2,0.4-0.3,0.6
						s-0.2,0.3-0.4,0.4s-0.3,0.1-0.5,0.2c-0.2,0-0.4,0-0.7,0h-0.5l1.7,1.3L47.9,27.5L47.9,27.5z M49.1,25c0-0.1,0.1-0.2,0.1-0.3
						v-0.1c0-0.1,0-0.2-0.1-0.2s-0.1,0-0.3,0h-2.2l-0.3,1h2c0.2,0,0.4,0,0.5-0.1C49,25.3,49.1,25.2,49.1,25 M50.7,26.6
						c0.3,0,0.5,0.2,0.5,0.5s-0.2,0.5-0.5,0.5s-0.5-0.2-0.5-0.5C50.2,26.8,50.4,26.6,50.7,26.6L50.7,26.6z M50.7,26.7
						c-0.2,0-0.4,0.2-0.4,0.4c0,0.2,0.2,0.4,0.4,0.4s0.4-0.2,0.4-0.4C51.1,26.9,50.9,26.7,50.7,26.7L50.7,26.7z M50.6,27.3
						L50.6,27.3l-0.1-0.5c0,0,0.1,0,0.2,0c0.1,0,0.1,0,0.2,0v0.1c0,0.1,0,0.1-0.1,0.1l0,0l0.1,0.1c0,0.1,0,0.1,0,0.1h-0.1v-0.1
						c0,0,0-0.1-0.1-0.1h-0.1C50.6,27,50.6,27.3,50.6,27.3z M50.6,27L50.6,27c0.1,0,0.2,0,0.2-0.1c0,0,0-0.1-0.1-0.1c0,0,0,0-0.1,0
						C50.6,26.8,50.6,27,50.6,27z"/>
				</defs>
				<clipPath id="SVGID_2_">
					<use xlink:href="#SVGID_1_"  style="overflow:visible;"/>
				</clipPath>
				<path class="st1" d="M52.4,31l8.1-4.7L48.4,20c4.6,3.2,5.8,5.1,5.8,6.9C54,28.5,53.3,29.7,52.4,31z M1,28l0.3-0.9h1
					c0.2,0,0.4,0,0.5-0.1S3,26.8,3,26.6L3.7,24h1.1L4,26.7c-0.1,0.3-0.2,0.5-0.3,0.6c-0.1,0.2-0.2,0.3-0.4,0.4
					c-0.1,0.1-0.3,0.2-0.5,0.2S2.3,28,2,28H1z M4.6,28c-0.1,0-0.2,0-0.2,0l-0.1-0.1v-0.1l0.1-0.4c0-0.1,0.1-0.2,0.1-0.2
					c0.1,0,0.2-0.1,0.3-0.1h0.3c0.1,0,0.2,0,0.2,0l0.1,0.1l0,0l0,0l-0.1,0.4c0,0.1-0.1,0.2-0.1,0.2c-0.1,0-0.1,0.1-0.3,0.1L4.6,28
					L4.6,28z M12.1,28c-0.1,0-0.2,0-0.2,0l-0.1-0.1v-0.1l0.1-0.4c0-0.1,0.1-0.2,0.1-0.2c0.1,0,0.2-0.1,0.3-0.1h0.3
					c0.1,0,0.2,0,0.2,0l0.1,0.1l0,0l0,0v0.6c0,0.1-0.1,0.2-0.1,0.2c-0.1,0-0.1,0.1-0.3,0.1L12.1,28C12.1,28.1,12.1,28,12.1,28z
					 M9.3,25.4l-1.7,2.2c-0.1,0.1-0.2,0.3-0.4,0.3C7.1,28,6.9,28,6.7,28s-0.3,0-0.4-0.1s-0.1-0.2-0.1-0.3L5.7,24h1.2l0.3,2.6
					l1.7-2.3C9,24.1,9.1,24,9.3,24c0.1-0.1,0.3-0.1,0.4-0.1c0.2,0,0.3,0,0.4,0.1c0.1,0.1,0.1,0.2,0.2,0.3l0.4,2.3l1.8-2.6h1.3
					l-2.6,3.6c-0.1,0.1-0.2,0.2-0.3,0.3S10.6,28,10.5,28c-0.2,0-0.3,0-0.4-0.1c-0.1-0.1-0.1-0.2-0.2-0.3L9.3,25.4z M14.4,28l0.3-0.9
					h3c0.2,0,0.4-0.1,0.4-0.3c0-0.1,0-0.1,0.1-0.2v-0.1c0-0.1,0-0.1-0.1-0.1c0,0-0.1,0-0.2,0h-1.8c-0.4,0-0.7-0.1-0.8-0.2
					s-0.2-0.3-0.2-0.5c0-0.1,0-0.1,0-0.2s0.1-0.2,0.1-0.4c0.1-0.2,0.1-0.4,0.2-0.5c0.1-0.1,0.2-0.3,0.3-0.4S16,24,16.1,24
					c0.2,0,0.4-0.1,0.6-0.1h3l-0.3,0.9h-2.9c-0.1,0-0.2,0-0.3,0.1c-0.1,0-0.1,0.1-0.1,0.2s0,0.1,0,0.1s0,0,0,0.1s0,0.1,0,0.1
					s0.1,0,0.2,0h1.8c0.4,0,0.7,0.1,0.8,0.2c0.2,0.1,0.2,0.3,0.2,0.6c0,0,0,0,0,0.1v0.1c0,0,0,0.1,0,0.2s0,0.2-0.1,0.3
					c-0.1,0.2-0.1,0.4-0.2,0.5s-0.2,0.2-0.3,0.3s-0.3,0.1-0.4,0.2c-0.2,0-0.4,0.1-0.6,0.1H14.4z M20.6,26.9L20.3,28h-1.1l1.1-4h3.3
					c0.2,0,0.5,0,0.6,0.1c0.2,0,0.3,0.1,0.4,0.2s0.2,0.2,0.2,0.3c0,0.1,0,0.2,0,0.4v0.1v0.1c0,0.1,0,0.1-0.1,0.2
					c0,0.1-0.1,0.2-0.1,0.3c-0.1,0.2-0.2,0.4-0.2,0.6c-0.1,0.2-0.2,0.3-0.4,0.4c-0.1,0.1-0.3,0.2-0.5,0.2S23,27,22.7,27h-2.1V26.9z
					 M23.6,25.6c0-0.1,0-0.1,0-0.2v-0.1v-0.1l0,0c0-0.1,0-0.2-0.1-0.2s-0.2,0-0.3,0h-2.1l-0.3,1.1h2.1c0.2,0,0.3,0,0.4-0.1
					C23.5,25.9,23.6,25.8,23.6,25.6 M26.1,28c-0.2,0-0.5,0-0.6-0.1c-0.2,0-0.3-0.1-0.4-0.2c-0.1-0.1-0.2-0.2-0.2-0.3s0-0.3,0-0.4
					v-0.1c0,0,0-0.1,0.1-0.3c0-0.1,0.1-0.3,0.1-0.5c0.1-0.2,0.1-0.5,0.2-0.9c0.1-0.3,0.2-0.5,0.3-0.6c0.1-0.2,0.2-0.3,0.4-0.4
					s0.3-0.2,0.5-0.2s0.5-0.1,0.8-0.1h2.8l-0.3,0.9H27c-0.2,0-0.3,0-0.4,0.1s-0.2,0.2-0.2,0.3l-0.1,0.2h3.3l-0.2,1.1h-3.3
					c0,0.1-0.1,0.3-0.1,0.3c0,0.1,0,0.1,0,0.1c0,0.1,0,0.2,0.1,0.2s0.2,0,0.3,0h2.8L28.9,28L26.1,28L26.1,28z M41.8,28
					c-0.2,0-0.5,0-0.6-0.1c-0.2,0-0.3-0.1-0.4-0.2c-0.1-0.1-0.2-0.2-0.2-0.3s0-0.3,0-0.4v-0.1c0,0,0-0.1,0.1-0.3
					c0-0.1,0.1-0.3,0.1-0.5c0.1-0.2,0.1-0.5,0.2-0.9c0.1-0.3,0.2-0.5,0.3-0.6c0.1-0.2,0.2-0.3,0.4-0.4S42,24,42.2,24
					s0.5-0.1,0.8-0.1h2.7l-0.3,0.9h-2.7c-0.2,0-0.3,0-0.4,0.1C42.1,25,42,25.1,42,25.2l-0.1,0.2h3.3L45,26.5h-3.3
					c0,0.1-0.1,0.3-0.1,0.3c0,0.1,0,0.1,0,0.1c0,0.1,0,0.2,0.1,0.2s0.2,0,0.3,0h2.8L44.5,28L41.8,28L41.8,28z M34.2,28l-0.3-0.9
					h-2.5L30.7,28h-1.3l3.3-3.6c0.1-0.1,0.3-0.3,0.4-0.3c0.1-0.1,0.3-0.1,0.6-0.1c0.1,0,0.2,0,0.3,0s0.1,0.1,0.2,0.1
					c0.1,0,0.1,0.1,0.1,0.1c0,0.1,0.1,0.1,0.1,0.2l1.2,3.6C35.5,28,34.2,28,34.2,28z M33.6,26.4c-0.1-0.2-0.1-0.3-0.2-0.4
					c0-0.1-0.1-0.3-0.1-0.4s-0.1-0.2-0.1-0.3c0-0.1,0-0.2-0.1-0.2c-0.1,0.1-0.1,0.2-0.2,0.2c-0.1,0.1-0.2,0.2-0.2,0.3
					c-0.1,0.1-0.2,0.2-0.3,0.4c-0.1,0.1-0.3,0.3-0.4,0.4H33.6z M38.8,28l-1.4-1.9L36.9,28h-1.1l1.1-4H38l-0.5,1.9l2.3-1.9h1.5
					l-2.5,2l1.4,2H38.8z M48.4,28l-1.7-1.5L46.3,28h-1.1l1.1-4h3.2c0.2,0,0.5,0,0.6,0c0.2,0,0.3,0.1,0.4,0.1
					c0.1,0.1,0.2,0.2,0.2,0.3c0,0.1,0.1,0.2,0,0.4v0.1V25c0,0,0,0.1,0,0.2s0,0.2-0.1,0.3c-0.1,0.2-0.2,0.4-0.3,0.6s-0.2,0.3-0.4,0.4
					s-0.3,0.1-0.5,0.2c-0.2,0-0.4,0-0.7,0h-0.5l1.7,1.3L48.4,28L48.4,28z M49.6,25.5c0-0.1,0.1-0.2,0.1-0.3v-0.1
					c0-0.1,0-0.2-0.1-0.2s-0.1,0-0.3,0h-2.2l-0.3,1h2c0.2,0,0.4,0,0.5-0.1C49.5,25.8,49.6,25.7,49.6,25.5 M51.2,27.1
					c0.3,0,0.5,0.2,0.5,0.5s-0.2,0.5-0.5,0.5s-0.5-0.2-0.5-0.5C50.7,27.3,50.9,27.1,51.2,27.1L51.2,27.1z M51.2,27.2
					c-0.2,0-0.4,0.2-0.4,0.4S51,28,51.2,28s0.4-0.2,0.4-0.4C51.6,27.4,51.4,27.2,51.2,27.2L51.2,27.2z M51.1,27.8L51.1,27.8L51,27.3
					c0,0,0.1,0,0.2,0c0.1,0,0.1,0,0.2,0v0.1c0,0.1,0,0.1-0.1,0.1l0,0l0.1,0.1c0,0.1,0,0.1,0,0.1h-0.1v-0.1c0,0,0-0.1-0.1-0.1h-0.1
					C51.1,27.5,51.1,27.8,51.1,27.8z M51.1,27.5L51.1,27.5c0.1,0,0.2,0,0.2-0.1c0,0,0-0.1-0.1-0.1c0,0,0,0-0.1,0
					C51.1,27.3,51.1,27.5,51.1,27.5z"/>
			</g>
		</g>
	</g>
	<g>
		<g>
			<g>
				<path id="SVGID_9_" class="st2" d="M51.4,30l8.1-4.7L47.4,19c4.6,3.2,5.8,5.1,5.8,6.9C53,27.5,52.3,28.7,51.4,30z M0,27l0.3-0.9
					h1c0.2,0,0.4,0,0.5-0.1S2,25.8,2,25.6L2.7,23h1.1L3,25.7c-0.1,0.3-0.2,0.5-0.3,0.6c-0.1,0.2-0.2,0.3-0.4,0.4
					c-0.1,0.1-0.3,0.2-0.5,0.2S1.3,27,1,27L0,27L0,27z M3.6,27c-0.1,0-0.2,0-0.2,0l-0.1-0.1v-0.1l0.1-0.4c0-0.1,0.1-0.2,0.1-0.2
					c0.1,0,0.2-0.1,0.3-0.1h0.3c0.1,0,0.2,0,0.2,0l0.1,0.1l0,0l0,0l-0.1,0.4c0,0.1-0.1,0.2-0.1,0.2c-0.1,0-0.1,0.1-0.3,0.1H3.6
					C3.6,26.9,3.6,27,3.6,27z M11.1,27c-0.1,0-0.2,0-0.2,0l-0.1-0.1v-0.1l0.1-0.4c0-0.1,0.1-0.2,0.1-0.2c0.1,0,0.2-0.1,0.3-0.1h0.3
					c0.1,0,0.2,0,0.2,0l0.1,0.1l0,0l0,0v0.6c0,0.1-0.1,0.2-0.1,0.2c-0.1,0-0.1,0.1-0.3,0.1L11.1,27C11.1,27.1,11.1,27,11.1,27z
					 M8.3,24.4l-1.7,2.2c-0.1,0.1-0.2,0.3-0.4,0.3C6.1,27,5.9,27,5.7,27s-0.3,0-0.4-0.1s-0.1-0.2-0.1-0.3L4.7,23h1.2l0.3,2.6
					l1.7-2.3C8,23.1,8.1,23,8.3,23c0.1-0.1,0.3-0.1,0.4-0.1c0.2,0,0.3,0,0.4,0.1c0.1,0.1,0.1,0.2,0.2,0.3l0.4,2.3l1.8-2.6h1.3
					l-2.6,3.6c-0.1,0.1-0.2,0.2-0.3,0.3C9.8,27,9.6,27,9.5,27c-0.2,0-0.3,0-0.4-0.1C9,26.8,9,26.7,8.9,26.6L8.3,24.4z M13.4,27
					l0.3-0.9h3c0.2,0,0.4-0.1,0.4-0.3c0-0.1,0-0.1,0.1-0.2v-0.1c0-0.1,0-0.1-0.1-0.1c0,0-0.1,0-0.2,0h-1.8c-0.4,0-0.7-0.1-0.8-0.2
					s-0.2-0.3-0.2-0.5c0-0.1,0-0.1,0-0.2s0.1-0.2,0.1-0.4c0.1-0.2,0.1-0.4,0.2-0.5c0.1-0.1,0.2-0.3,0.3-0.4S15,23,15.1,23
					c0.2,0,0.4-0.1,0.6-0.1h3l-0.3,0.9h-2.9c-0.1,0-0.2,0-0.3,0.1c-0.1,0-0.1,0.1-0.1,0.2s0,0.1,0,0.1s0,0,0,0.1s0,0.1,0,0.1
					s0.1,0,0.2,0h1.8c0.4,0,0.7,0.1,0.8,0.2c0.2,0.1,0.2,0.3,0.2,0.6c0,0,0,0,0,0.1v0.1c0,0,0,0.1,0,0.2s0,0.2-0.1,0.3
					c-0.1,0.2-0.1,0.4-0.2,0.5s-0.2,0.2-0.3,0.3s-0.3,0.1-0.4,0.2c-0.2,0-0.4,0.1-0.6,0.1C16.5,27,13.4,27,13.4,27z M19.6,25.9
					L19.3,27h-1.1l1.1-4h3.3c0.2,0,0.5,0,0.6,0.1c0.2,0,0.3,0.1,0.4,0.2s0.2,0.2,0.2,0.3c0,0.1,0,0.2,0,0.4v0.1v0.1
					c0,0.1,0,0.1-0.1,0.2c0,0.1-0.1,0.2-0.1,0.3c-0.1,0.2-0.2,0.4-0.2,0.6c-0.1,0.2-0.2,0.3-0.4,0.4c-0.1,0.1-0.3,0.2-0.5,0.2
					S22,26,21.7,26h-2.1V25.9z M22.6,24.6c0-0.1,0-0.1,0-0.2v-0.1v-0.1l0,0c0-0.1,0-0.2-0.1-0.2s-0.2,0-0.3,0h-2.1l-0.3,1.1h2.1
					c0.2,0,0.3,0,0.4-0.1C22.5,24.9,22.6,24.8,22.6,24.6 M25.1,27c-0.2,0-0.5,0-0.6-0.1c-0.2,0-0.3-0.1-0.4-0.2s-0.2-0.2-0.2-0.3
					c0-0.1,0-0.3,0-0.4v-0.1c0,0,0-0.1,0.1-0.3c0-0.1,0.1-0.3,0.1-0.5c0.1-0.2,0.1-0.5,0.2-0.9c0.1-0.3,0.2-0.5,0.3-0.6
					c0.1-0.2,0.2-0.3,0.4-0.4s0.3-0.2,0.5-0.2s0.5-0.1,0.8-0.1h2.8l-0.3,0.9H26c-0.2,0-0.3,0-0.4,0.1s-0.2,0.2-0.2,0.3l-0.1,0.2h3.3
					l-0.2,1.1h-3.3c0,0.1-0.1,0.3-0.1,0.3c0,0.1,0,0.1,0,0.1c0,0.1,0,0.2,0.1,0.2s0.2,0,0.3,0h2.8L27.9,27L25.1,27L25.1,27z
					 M40.8,27c-0.2,0-0.5,0-0.6-0.1c-0.2,0-0.3-0.1-0.4-0.2c-0.1-0.1-0.2-0.2-0.2-0.3c0-0.1,0-0.3,0-0.4v-0.1c0,0,0-0.1,0.1-0.3
					c0-0.1,0.1-0.3,0.1-0.5c0.1-0.2,0.1-0.5,0.2-0.9c0.1-0.3,0.2-0.5,0.3-0.6c0.1-0.2,0.2-0.3,0.4-0.4S41,23,41.2,23
					s0.5-0.1,0.8-0.1h2.7l-0.3,0.9h-2.7c-0.2,0-0.3,0-0.4,0.1C41.1,24,41,24.1,41,24.2l-0.1,0.2h3.3L44,25.5h-3.3
					c0,0.1-0.1,0.3-0.1,0.3c0,0.1,0,0.1,0,0.1c0,0.1,0,0.2,0.1,0.2s0.2,0,0.3,0h2.8L43.5,27L40.8,27L40.8,27z M33.2,27l-0.3-0.9
					h-2.5L29.7,27h-1.3l3.3-3.6c0.1-0.1,0.3-0.3,0.4-0.3c0.1-0.1,0.3-0.1,0.6-0.1c0.1,0,0.2,0,0.3,0s0.1,0.1,0.2,0.1
					c0.1,0,0.1,0.1,0.1,0.1c0,0.1,0.1,0.1,0.1,0.2l1.2,3.6C34.5,27,33.2,27,33.2,27z M32.6,25.4c-0.1-0.2-0.1-0.3-0.2-0.4
					c0-0.1-0.1-0.3-0.1-0.4s-0.1-0.2-0.1-0.3c0-0.1,0-0.2-0.1-0.2c-0.1,0.1-0.1,0.2-0.2,0.2c-0.1,0.1-0.2,0.2-0.2,0.3
					c-0.1,0.1-0.2,0.2-0.3,0.4c-0.1,0.1-0.3,0.3-0.4,0.4H32.6z M37.8,27l-1.4-1.9L35.9,27h-1.1l1.1-4H37l-0.5,1.9l2.3-1.9h1.5
					l-2.5,2l1.4,2H37.8z M47.4,27l-1.7-1.5L45.3,27h-1.1l1.1-4h3.2c0.2,0,0.5,0,0.6,0c0.2,0,0.3,0.1,0.4,0.1
					c0.1,0.1,0.2,0.2,0.2,0.3c0,0.1,0.1,0.2,0,0.4v0.1V24c0,0,0,0.1,0,0.2s0,0.2-0.1,0.3c-0.1,0.2-0.2,0.4-0.3,0.6s-0.2,0.3-0.4,0.4
					s-0.3,0.1-0.5,0.2c-0.2,0-0.4,0-0.7,0h-0.5l1.7,1.3L47.4,27L47.4,27z M48.6,24.5c0-0.1,0.1-0.2,0.1-0.3v-0.1
					c0-0.1,0-0.2-0.1-0.2s-0.1,0-0.3,0h-2.2l-0.3,1h2c0.2,0,0.4,0,0.5-0.1C48.5,24.8,48.6,24.7,48.6,24.5 M50.2,26.1
					c0.3,0,0.5,0.2,0.5,0.5s-0.2,0.5-0.5,0.5s-0.5-0.2-0.5-0.5S49.9,26.1,50.2,26.1L50.2,26.1z M50.2,26.2c-0.2,0-0.4,0.2-0.4,0.4
					S50,27,50.2,27s0.4-0.2,0.4-0.4C50.6,26.4,50.4,26.2,50.2,26.2L50.2,26.2z M50.1,26.8L50.1,26.8L50,26.3c0,0,0.1,0,0.2,0
					c0.1,0,0.1,0,0.2,0v0.1c0,0.1,0,0.1-0.1,0.1l0,0l0.1,0.1c0,0.1,0,0.1,0,0.1h-0.1v-0.1c0,0,0-0.1-0.1-0.1h-0.1
					C50.1,26.5,50.1,26.8,50.1,26.8z M50.1,26.5L50.1,26.5c0.1,0,0.2,0,0.2-0.1c0,0,0-0.1-0.1-0.1c0,0,0,0-0.1,0
					C50.1,26.3,50.1,26.5,50.1,26.5z"/>
			</g>
			<g>
				<defs>
					<path id="SVGID_4_" d="M51.4,30l8.1-4.7L47.4,19c4.6,3.2,5.8,5.1,5.8,6.9C53,27.5,52.3,28.7,51.4,30z M0,27l0.3-0.9h1
						c0.2,0,0.4,0,0.5-0.1S2,25.8,2,25.6L2.7,23h1.1L3,25.7c-0.1,0.3-0.2,0.5-0.3,0.6c-0.1,0.2-0.2,0.3-0.4,0.4
						c-0.1,0.1-0.3,0.2-0.5,0.2S1.3,27,1,27L0,27L0,27z M3.6,27c-0.1,0-0.2,0-0.2,0l-0.1-0.1v-0.1l0.1-0.4c0-0.1,0.1-0.2,0.1-0.2
						c0.1,0,0.2-0.1,0.3-0.1h0.3c0.1,0,0.2,0,0.2,0l0.1,0.1l0,0l0,0l-0.1,0.4c0,0.1-0.1,0.2-0.1,0.2c-0.1,0-0.1,0.1-0.3,0.1H3.6
						C3.6,26.9,3.6,27,3.6,27z M11.1,27c-0.1,0-0.2,0-0.2,0l-0.1-0.1v-0.1l0.1-0.4c0-0.1,0.1-0.2,0.1-0.2c0.1,0,0.2-0.1,0.3-0.1h0.3
						c0.1,0,0.2,0,0.2,0l0.1,0.1l0,0l0,0v0.6c0,0.1-0.1,0.2-0.1,0.2c-0.1,0-0.1,0.1-0.3,0.1L11.1,27C11.1,27.1,11.1,27,11.1,27z
						 M8.3,24.4l-1.7,2.2c-0.1,0.1-0.2,0.3-0.4,0.3C6.1,27,5.9,27,5.7,27s-0.3,0-0.4-0.1s-0.1-0.2-0.1-0.3L4.7,23h1.2l0.3,2.6
						l1.7-2.3C8,23.1,8.1,23,8.3,23c0.1-0.1,0.3-0.1,0.4-0.1c0.2,0,0.3,0,0.4,0.1c0.1,0.1,0.1,0.2,0.2,0.3l0.4,2.3l1.8-2.6h1.3
						l-2.6,3.6c-0.1,0.1-0.2,0.2-0.3,0.3C9.8,27,9.6,27,9.5,27c-0.2,0-0.3,0-0.4-0.1C9,26.8,9,26.7,8.9,26.6L8.3,24.4z M13.4,27
						l0.3-0.9h3c0.2,0,0.4-0.1,0.4-0.3c0-0.1,0-0.1,0.1-0.2v-0.1c0-0.1,0-0.1-0.1-0.1c0,0-0.1,0-0.2,0h-1.8c-0.4,0-0.7-0.1-0.8-0.2
						s-0.2-0.3-0.2-0.5c0-0.1,0-0.1,0-0.2s0.1-0.2,0.1-0.4c0.1-0.2,0.1-0.4,0.2-0.5c0.1-0.1,0.2-0.3,0.3-0.4S15,23,15.1,23
						c0.2,0,0.4-0.1,0.6-0.1h3l-0.3,0.9h-2.9c-0.1,0-0.2,0-0.3,0.1c-0.1,0-0.1,0.1-0.1,0.2s0,0.1,0,0.1s0,0,0,0.1s0,0.1,0,0.1
						s0.1,0,0.2,0h1.8c0.4,0,0.7,0.1,0.8,0.2c0.2,0.1,0.2,0.3,0.2,0.6c0,0,0,0,0,0.1v0.1c0,0,0,0.1,0,0.2s0,0.2-0.1,0.3
						c-0.1,0.2-0.1,0.4-0.2,0.5s-0.2,0.2-0.3,0.3s-0.3,0.1-0.4,0.2c-0.2,0-0.4,0.1-0.6,0.1C16.5,27,13.4,27,13.4,27z M19.6,25.9
						L19.3,27h-1.1l1.1-4h3.3c0.2,0,0.5,0,0.6,0.1c0.2,0,0.3,0.1,0.4,0.2s0.2,0.2,0.2,0.3c0,0.1,0,0.2,0,0.4v0.1v0.1
						c0,0.1,0,0.1-0.1,0.2c0,0.1-0.1,0.2-0.1,0.3c-0.1,0.2-0.2,0.4-0.2,0.6c-0.1,0.2-0.2,0.3-0.4,0.4c-0.1,0.1-0.3,0.2-0.5,0.2
						S22,26,21.7,26h-2.1V25.9z M22.6,24.6c0-0.1,0-0.1,0-0.2v-0.1v-0.1l0,0c0-0.1,0-0.2-0.1-0.2s-0.2,0-0.3,0h-2.1l-0.3,1.1h2.1
						c0.2,0,0.3,0,0.4-0.1C22.5,24.9,22.6,24.8,22.6,24.6 M25.1,27c-0.2,0-0.5,0-0.6-0.1c-0.2,0-0.3-0.1-0.4-0.2s-0.2-0.2-0.2-0.3
						c0-0.1,0-0.3,0-0.4v-0.1c0,0,0-0.1,0.1-0.3c0-0.1,0.1-0.3,0.1-0.5c0.1-0.2,0.1-0.5,0.2-0.9c0.1-0.3,0.2-0.5,0.3-0.6
						c0.1-0.2,0.2-0.3,0.4-0.4s0.3-0.2,0.5-0.2s0.5-0.1,0.8-0.1h2.8l-0.3,0.9H26c-0.2,0-0.3,0-0.4,0.1s-0.2,0.2-0.2,0.3l-0.1,0.2
						h3.3l-0.2,1.1h-3.3c0,0.1-0.1,0.3-0.1,0.3c0,0.1,0,0.1,0,0.1c0,0.1,0,0.2,0.1,0.2s0.2,0,0.3,0h2.8L27.9,27L25.1,27L25.1,27z
						 M40.8,27c-0.2,0-0.5,0-0.6-0.1c-0.2,0-0.3-0.1-0.4-0.2c-0.1-0.1-0.2-0.2-0.2-0.3c0-0.1,0-0.3,0-0.4v-0.1c0,0,0-0.1,0.1-0.3
						c0-0.1,0.1-0.3,0.1-0.5c0.1-0.2,0.1-0.5,0.2-0.9c0.1-0.3,0.2-0.5,0.3-0.6c0.1-0.2,0.2-0.3,0.4-0.4S41,23,41.2,23
						s0.5-0.1,0.8-0.1h2.7l-0.3,0.9h-2.7c-0.2,0-0.3,0-0.4,0.1C41.1,24,41,24.1,41,24.2l-0.1,0.2h3.3L44,25.5h-3.3
						c0,0.1-0.1,0.3-0.1,0.3c0,0.1,0,0.1,0,0.1c0,0.1,0,0.2,0.1,0.2s0.2,0,0.3,0h2.8L43.5,27L40.8,27L40.8,27z M33.2,27l-0.3-0.9
						h-2.5L29.7,27h-1.3l3.3-3.6c0.1-0.1,0.3-0.3,0.4-0.3c0.1-0.1,0.3-0.1,0.6-0.1c0.1,0,0.2,0,0.3,0s0.1,0.1,0.2,0.1
						c0.1,0,0.1,0.1,0.1,0.1c0,0.1,0.1,0.1,0.1,0.2l1.2,3.6C34.5,27,33.2,27,33.2,27z M32.6,25.4c-0.1-0.2-0.1-0.3-0.2-0.4
						c0-0.1-0.1-0.3-0.1-0.4s-0.1-0.2-0.1-0.3c0-0.1,0-0.2-0.1-0.2c-0.1,0.1-0.1,0.2-0.2,0.2c-0.1,0.1-0.2,0.2-0.2,0.3
						c-0.1,0.1-0.2,0.2-0.3,0.4c-0.1,0.1-0.3,0.3-0.4,0.4H32.6z M37.8,27l-1.4-1.9L35.9,27h-1.1l1.1-4H37l-0.5,1.9l2.3-1.9h1.5
						l-2.5,2l1.4,2H37.8z M47.4,27l-1.7-1.5L45.3,27h-1.1l1.1-4h3.2c0.2,0,0.5,0,0.6,0c0.2,0,0.3,0.1,0.4,0.1
						c0.1,0.1,0.2,0.2,0.2,0.3c0,0.1,0.1,0.2,0,0.4v0.1V24c0,0,0,0.1,0,0.2s0,0.2-0.1,0.3c-0.1,0.2-0.2,0.4-0.3,0.6
						s-0.2,0.3-0.4,0.4s-0.3,0.1-0.5,0.2c-0.2,0-0.4,0-0.7,0h-0.5l1.7,1.3L47.4,27L47.4,27z M48.6,24.5c0-0.1,0.1-0.2,0.1-0.3v-0.1
						c0-0.1,0-0.2-0.1-0.2s-0.1,0-0.3,0h-2.2l-0.3,1h2c0.2,0,0.4,0,0.5-0.1C48.5,24.8,48.6,24.7,48.6,24.5 M50.2,26.1
						c0.3,0,0.5,0.2,0.5,0.5s-0.2,0.5-0.5,0.5s-0.5-0.2-0.5-0.5S49.9,26.1,50.2,26.1L50.2,26.1z M50.2,26.2c-0.2,0-0.4,0.2-0.4,0.4
						S50,27,50.2,27s0.4-0.2,0.4-0.4C50.6,26.4,50.4,26.2,50.2,26.2L50.2,26.2z M50.1,26.8L50.1,26.8L50,26.3c0,0,0.1,0,0.2,0
						c0.1,0,0.1,0,0.2,0v0.1c0,0.1,0,0.1-0.1,0.1l0,0l0.1,0.1c0,0.1,0,0.1,0,0.1h-0.1v-0.1c0,0,0-0.1-0.1-0.1h-0.1
						C50.1,26.5,50.1,26.8,50.1,26.8z M50.1,26.5L50.1,26.5c0.1,0,0.2,0,0.2-0.1c0,0,0-0.1-0.1-0.1c0,0,0,0-0.1,0
						C50.1,26.3,50.1,26.5,50.1,26.5z"/>
				</defs>
				<clipPath id="SVGID_5_">
					<use xlink:href="#SVGID_4_"  style="overflow:visible;"/>
				</clipPath>
				<path class="st3" d="M51.9,30.5l8.1-4.7l-12.1-6.2c4.6,3.2,5.8,5.1,5.8,6.9C53.5,28,52.8,29.2,51.9,30.5z M0.5,27.5l0.3-0.9h1
					c0.2,0,0.4,0,0.5-0.1s0.2-0.2,0.2-0.4l0.7-2.6h1.1l-0.8,2.7c-0.1,0.3-0.2,0.5-0.3,0.6C3.1,27,3,27.1,2.8,27.2
					c-0.1,0.1-0.3,0.2-0.5,0.2s-0.5,0.1-0.8,0.1L0.5,27.5L0.5,27.5z M4.1,27.5c-0.1,0-0.2,0-0.2,0l-0.1-0.1v-0.1l0.1-0.4
					c0-0.1,0.1-0.2,0.1-0.2c0.1,0,0.2-0.1,0.3-0.1h0.3c0.1,0,0.2,0,0.2,0l0.1,0.1l0,0l0,0l-0.1,0.4c0,0.1-0.1,0.2-0.1,0.2
					c-0.1,0-0.1,0.1-0.3,0.1L4.1,27.5C4.1,27.4,4.1,27.5,4.1,27.5z M11.6,27.5c-0.1,0-0.2,0-0.2,0l-0.1-0.1v-0.1l0.1-0.4
					c0-0.1,0.1-0.2,0.1-0.2c0.1,0,0.2-0.1,0.3-0.1h0.3c0.1,0,0.2,0,0.2,0l0.1,0.1l0,0l0,0v0.6c0,0.1-0.1,0.2-0.1,0.2
					c-0.1,0-0.1,0.1-0.3,0.1L11.6,27.5C11.6,27.6,11.6,27.5,11.6,27.5z M8.8,24.9l-1.7,2.2c-0.1,0.1-0.2,0.3-0.4,0.3
					c-0.1,0.1-0.3,0.1-0.5,0.1s-0.3,0-0.4-0.1s-0.1-0.2-0.1-0.3l-0.5-3.6h1.2l0.3,2.6l1.7-2.3c0.1-0.2,0.2-0.3,0.4-0.3
					c0.1-0.1,0.3-0.1,0.4-0.1c0.2,0,0.3,0,0.4,0.1c0.1,0.1,0.1,0.2,0.2,0.3l0.4,2.3l1.8-2.6h1.3l-2.6,3.6c-0.1,0.1-0.2,0.2-0.3,0.3
					s-0.3,0.1-0.4,0.1c-0.2,0-0.3,0-0.4-0.1c-0.1-0.1-0.1-0.2-0.2-0.3L8.8,24.9z M13.9,27.5l0.3-0.9h3c0.2,0,0.4-0.1,0.4-0.3
					c0-0.1,0-0.1,0.1-0.2V26c0-0.1,0-0.1-0.1-0.1c0,0-0.1,0-0.2,0h-1.8c-0.4,0-0.7-0.1-0.8-0.2s-0.2-0.3-0.2-0.5c0-0.1,0-0.1,0-0.2
					s0.1-0.2,0.1-0.4c0.1-0.2,0.1-0.4,0.2-0.5c0.1-0.1,0.2-0.3,0.3-0.4s0.3-0.2,0.4-0.2c0.2,0,0.4-0.1,0.6-0.1h3l-0.3,0.9H16
					c-0.1,0-0.2,0-0.3,0.1c-0.1,0-0.1,0.1-0.1,0.2s0,0.1,0,0.1s0,0,0,0.1s0,0.1,0,0.1s0.1,0,0.2,0h1.8c0.4,0,0.7,0.1,0.8,0.2
					c0.2,0.1,0.2,0.3,0.2,0.6c0,0,0,0,0,0.1v0.1c0,0,0,0.1,0,0.2s0,0.2-0.1,0.3c-0.1,0.2-0.1,0.4-0.2,0.5s-0.2,0.2-0.3,0.3
					s-0.3,0.1-0.4,0.2c-0.2,0-0.4,0.1-0.6,0.1H13.9z M20.1,26.4l-0.3,1.1h-1.1l1.1-4h3.3c0.2,0,0.5,0,0.6,0.1c0.2,0,0.3,0.1,0.4,0.2
					s0.2,0.2,0.2,0.3c0,0.1,0,0.2,0,0.4v0.1v0.1c0,0.1,0,0.1-0.1,0.2c0,0.1-0.1,0.2-0.1,0.3c-0.1,0.2-0.2,0.4-0.2,0.6
					c-0.1,0.2-0.2,0.3-0.4,0.4c-0.1,0.1-0.3,0.2-0.5,0.2s-0.5,0.1-0.8,0.1h-2.1V26.4z M23.1,25.1c0-0.1,0-0.1,0-0.2v-0.1v-0.1l0,0
					c0-0.1,0-0.2-0.1-0.2s-0.2,0-0.3,0h-2.1l-0.3,1.1h2.1c0.2,0,0.3,0,0.4-0.1C23,25.4,23.1,25.3,23.1,25.1 M25.6,27.5
					c-0.2,0-0.5,0-0.6-0.1c-0.2,0-0.3-0.1-0.4-0.2c-0.1-0.1-0.2-0.2-0.2-0.3c0-0.1,0-0.3,0-0.4v-0.1c0,0,0-0.1,0.1-0.3
					c0-0.1,0.1-0.3,0.1-0.5c0.1-0.2,0.1-0.5,0.2-0.9c0.1-0.3,0.2-0.5,0.3-0.6c0.1-0.2,0.2-0.3,0.4-0.4s0.3-0.2,0.5-0.2
					s0.5-0.1,0.8-0.1h2.8l-0.3,0.9h-2.8c-0.2,0-0.3,0-0.4,0.1s-0.2,0.2-0.2,0.3l-0.1,0.2h3.3L28.9,26h-3.3c0,0.1-0.1,0.3-0.1,0.3
					c0,0.1,0,0.1,0,0.1c0,0.1,0,0.2,0.1,0.2s0.2,0,0.3,0h2.8l-0.3,0.9L25.6,27.5L25.6,27.5z M41.3,27.5c-0.2,0-0.5,0-0.6-0.1
					c-0.2,0-0.3-0.1-0.4-0.2c-0.1-0.1-0.2-0.2-0.2-0.3c0-0.1,0-0.3,0-0.4v-0.1c0,0,0-0.1,0.1-0.3c0-0.1,0.1-0.3,0.1-0.5
					c0.1-0.2,0.1-0.5,0.2-0.9c0.1-0.3,0.2-0.5,0.3-0.6c0.1-0.2,0.2-0.3,0.4-0.4s0.3-0.2,0.5-0.2s0.5-0.1,0.8-0.1h2.7l-0.3,0.9h-2.7
					c-0.2,0-0.3,0-0.4,0.1c-0.1,0.1-0.2,0.2-0.2,0.3l-0.1,0.2h3.3L44.5,26h-3.3c0,0.1-0.1,0.3-0.1,0.3c0,0.1,0,0.1,0,0.1
					c0,0.1,0,0.2,0.1,0.2s0.2,0,0.3,0h2.8L44,27.5L41.3,27.5L41.3,27.5z M33.7,27.5l-0.3-0.9h-2.5l-0.8,0.9h-1.3l3.3-3.6
					c0.1-0.1,0.3-0.3,0.4-0.3c0.1-0.1,0.3-0.1,0.6-0.1c0.1,0,0.2,0,0.3,0s0.1,0.1,0.2,0.1c0.1,0,0.1,0.1,0.1,0.1
					c0,0.1,0.1,0.1,0.1,0.2l1.2,3.6C35,27.5,33.7,27.5,33.7,27.5z M33.1,25.9c-0.1-0.2-0.1-0.3-0.2-0.4c0-0.1-0.1-0.3-0.1-0.4
					s-0.1-0.2-0.1-0.3c0-0.1,0-0.2-0.1-0.2c-0.1,0.1-0.1,0.2-0.2,0.2c-0.1,0.1-0.2,0.2-0.2,0.3c-0.1,0.1-0.2,0.2-0.3,0.4
					c-0.1,0.1-0.3,0.3-0.4,0.4H33.1z M38.3,27.5l-1.4-1.9l-0.5,1.9h-1.1l1.1-4h1.1L37,25.4l2.3-1.9h1.5l-2.5,2l1.4,2L38.3,27.5
					L38.3,27.5z M47.9,27.5L46.2,26l-0.4,1.5h-1.1l1.1-4H49c0.2,0,0.5,0,0.6,0c0.2,0,0.3,0.1,0.4,0.1c0.1,0.1,0.2,0.2,0.2,0.3
					c0,0.1,0.1,0.2,0,0.4v0.1v0.1c0,0,0,0.1,0,0.2s0,0.2-0.1,0.3c-0.1,0.2-0.2,0.4-0.3,0.6s-0.2,0.3-0.4,0.4s-0.3,0.1-0.5,0.2
					c-0.2,0-0.4,0-0.7,0h-0.5l1.7,1.3L47.9,27.5L47.9,27.5z M49.1,25c0-0.1,0.1-0.2,0.1-0.3v-0.1c0-0.1,0-0.2-0.1-0.2s-0.1,0-0.3,0
					h-2.2l-0.3,1h2c0.2,0,0.4,0,0.5-0.1C49,25.3,49.1,25.2,49.1,25 M50.7,26.6c0.3,0,0.5,0.2,0.5,0.5s-0.2,0.5-0.5,0.5
					s-0.5-0.2-0.5-0.5C50.2,26.8,50.4,26.6,50.7,26.6L50.7,26.6z M50.7,26.7c-0.2,0-0.4,0.2-0.4,0.4c0,0.2,0.2,0.4,0.4,0.4
					s0.4-0.2,0.4-0.4C51.1,26.9,50.9,26.7,50.7,26.7L50.7,26.7z M50.6,27.3L50.6,27.3l-0.1-0.5c0,0,0.1,0,0.2,0c0.1,0,0.1,0,0.2,0
					v0.1c0,0.1,0,0.1-0.1,0.1l0,0l0.1,0.1c0,0.1,0,0.1,0,0.1h-0.1v-0.1c0,0,0-0.1-0.1-0.1h-0.1C50.6,27,50.6,27.3,50.6,27.3z
					 M50.6,27L50.6,27c0.1,0,0.2,0,0.2-0.1c0,0,0-0.1-0.1-0.1c0,0,0,0-0.1,0C50.6,26.8,50.6,27,50.6,27z"/>
			</g>
		</g>
	</g>
</g>
</svg>
