<?xml version="1.0" encoding="utf-8"?>
<!-- Generator: Adobe Illustrator 19.2.1, SVG Export Plug-In . SVG Version: 6.00 Build 0)  -->
<svg version="1.1" id="BRAND_-_Morimoto" xmlns="http://www.w3.org/2000/svg" xmlns:xlink="http://www.w3.org/1999/xlink" x="0px"
	 y="0px" viewBox="0 0 60 60" style="enable-background:new 0 0 60 60;" xml:space="preserve">
<style type="text/css">
	.st0{fill:#423F3F;}
</style>
<g>
	<polygon class="st0" points="6.7,30.4 4.4,27.6 3.5,27.6 3.5,32.4 4.4,32.4 4.4,29.2 6.5,31.8 6.8,31.8 8.9,29.1 8.9,32.4 10,32.4 
		10,27.6 9,27.6 	"/>
	<path class="st0" d="M16,28.2h-2.9c-0.4,0-0.6,0.1-0.8,0.2c-0.1,0.1-0.2,0.4-0.2,0.7v2c0,0.3,0.1,0.6,0.2,0.7
		c0.1,0.1,0.4,0.2,0.8,0.2H16c0.4,0,0.6-0.1,0.8-0.2c0.1-0.1,0.2-0.4,0.2-0.7v-2c0-0.4-0.1-0.6-0.2-0.7C16.7,28.3,16.4,28.2,16,28.2
		z M16.1,31.2h-3v-2.3h3V31.2z"/>
	<rect x="25.6" y="28.2" class="st0" width="0.9" height="3.7"/>
	<polygon class="st0" points="31.1,30.4 29.3,28.2 28.5,28.2 28.5,31.9 29.3,31.9 29.3,29.4 30.9,31.5 31.1,31.5 32.8,29.4 
		32.8,31.9 33.6,31.9 33.6,28.2 32.9,28.2 	"/>
	<path class="st0" d="M36.8,28.2c-0.4,0-0.6,0.1-0.8,0.2c-0.1,0.1-0.2,0.4-0.2,0.7v2c0,0.3,0.1,0.6,0.2,0.7c0.1,0.1,0.4,0.2,0.8,0.2
		h2.9c0.4,0,0.6-0.1,0.8-0.2c0.1-0.1,0.2-0.4,0.2-0.7v-2c0-0.4-0.1-0.6-0.2-0.7c-0.1-0.1-0.4-0.2-0.8-0.2H36.8z M39.7,31.2h-3v-2.3
		h3V31.2z"/>
	<polygon class="st0" points="44.8,31.9 44.8,28.9 46.6,28.9 46.6,28.2 42.1,28.2 42.1,28.9 43.9,28.9 43.9,31.9 	"/>
	<path class="st0" d="M22.3,30.5c0.6,0,0.9-0.2,0.9-0.7v-0.9c0-0.5-0.3-0.7-0.9-0.7H19v3.7h0.9v-3.1H22c0.3,0,0.4,0.1,0.4,0.3v0.4
		c0,0.2-0.1,0.3-0.4,0.3h-1.7V30l2,1.8h1.3l-1.8-1.4h0.5V30.5z"/>
	<path class="st0" d="M46,27.6c-2.1-0.9-4.5-2-6.1-2.7h-6.3c2.4,0.7,6,1.7,9.3,2.7H46z"/>
	<path class="st0" d="M54,28.1c1.2-0.8,2.9-1.8,4.2-2.7c-0.3-0.3-0.6-0.4-1-0.4h-0.5c-0.9,0.7-2.2,1.9-3.2,2.7
		c-0.2-0.1-0.4-0.1-0.7-0.1c0.7-0.8,1.6-1.9,2.2-2.6h-1.3c-0.4,0.7-1.1,1.8-1.6,2.6h-0.7c0.1-0.8,0.3-1.9,0.4-2.6h-1.3
		c0.1,0.7,0.3,1.8,0.4,2.6h-0.7c-0.5-0.8-1.1-1.9-1.6-2.6h-1.3c0.6,0.7,1.5,1.8,2.2,2.6c-0.3,0-0.5,0.1-0.7,0.1
		c-1-0.8-2.4-2-3.2-2.7h-2.2c1.3,0.8,3.5,2.2,4.9,3.1c-0.1,0.1-0.2,0.3-0.2,0.5c-0.3-0.1-0.7-0.3-1-0.4v0.7l0,0
		c0.4,0.1,0.7,0.2,1,0.3V31c-0.7,0.2-1.7,0.5-2.8,0.8v0.7h-2.1v-0.1c-3.1,0.9-6.8,1.9-9.3,2.7H40c2.3-1,5.9-2.6,8-3.5
		c0,0.2,0.1,0.4,0.2,0.5c-1.4,0.9-3.4,2.1-4.7,3h2.1c0.9-0.7,2.1-1.8,3.1-2.6c0.2,0.1,0.4,0.1,0.7,0.1c-0.6,0.8-1.5,1.8-2.1,2.5h1.2
		c0.4-0.7,1-1.7,1.5-2.5h0.7c-0.1,0.7-0.3,1.7-0.4,2.5h1.3c-0.1-0.7-0.3-1.7-0.4-2.5h0.7c0.4,0.7,1,1.7,1.5,2.5h1.2
		c-0.6-0.7-1.4-1.7-2.1-2.5c0.3,0,0.5-0.1,0.7-0.1c0.9,0.8,2.2,1.9,3.1,2.6H57c0.3,0,0.7-0.1,0.9-0.3c-1.3-0.8-3-1.9-4.2-2.6
		c0.1-0.1,0.2-0.3,0.2-0.5c1.3,0.6,3.1,1.4,4.4,1.9v-1.2c-1.3-0.4-3.1-0.9-4.4-1.3v-0.6c1.3,0.1,3.1,0.2,4.4,0.3v-1.1
		c-1.3,0.1-3.1,0.2-4.4,0.3v-0.6c1.3-0.4,3.1-0.9,4.4-1.3v-1.2c-1.3,0.5-3.1,1.3-4.4,1.9C54.2,28.4,54.1,28.2,54,28.1z M53.6,31
		c0,0.1,0,0.2,0,0.2c0,0.2-0.1,0.4-0.2,0.5l0,0c-0.1,0.1-0.3,0.1-0.5,0.2c-0.1,0-0.2,0-0.3,0h-2.9c-0.1,0-0.2,0-0.3,0
		c-0.2,0-0.4-0.1-0.5-0.2l0,0c-0.1-0.1-0.1-0.2-0.2-0.5c0-0.1,0-0.1,0-0.2v-2c0-0.1,0-0.1,0-0.2c0-0.2,0.1-0.4,0.2-0.5l0,0
		c0.1-0.1,0.3-0.1,0.5-0.2c0.1,0,0.2,0,0.3,0h2.9c0.1,0,0.2,0,0.3,0c0.2,0,0.4,0.1,0.5,0.2l0,0c0.1,0.1,0.1,0.2,0.2,0.5
		c0,0.1,0,0.1,0,0.2V31z"/>
	<polygon class="st0" points="49.7,28.9 49.7,28.9 49.7,28.9 49.7,29.3 49.7,30.9 49.7,31.2 49.7,31.2 49.8,31.2 52.6,31.2 
		52.7,31.2 52.7,31.2 52.7,30.9 52.7,29.3 52.7,28.9 52.7,28.9 52.7,28.9 	"/>
	<path class="st0" d="M57.2,23.6H2.8c-1.5,0-2.8,1.2-2.8,2.8v7.3c0,1.5,1.2,2.8,2.8,2.8h54.5c1.5,0,2.8-1.2,2.8-2.8v-7.3
		C60,24.8,58.8,23.6,57.2,23.6z M59.3,33.6c0,1.1-0.9,2.1-2.1,2.1H2.8c-1.1,0-2.1-0.9-2.1-2.1v-7.3c0-1.1,0.9-2.1,2.1-2.1h54.5
		c1.1,0,2.1,0.9,2.1,2.1L59.3,33.6L59.3,33.6z"/>
</g>
</svg>
