<?xml version="1.0" encoding="utf-8"?>
<!-- Generator: Adobe Illustrator 21.1.0, SVG Export Plug-In . SVG Version: 6.00 Build 0)  -->
<svg version="1.1" id="BRAND_-_Osram" xmlns="http://www.w3.org/2000/svg" xmlns:xlink="http://www.w3.org/1999/xlink" x="0px"
	 y="0px" viewBox="0 0 60 60" style="enable-background:new 0 0 60 60;" xml:space="preserve">
<style type="text/css">
	.st0{clip-path:url(#SVGID_4_);fill:#555555;}
	.st1{clip-path:url(#SVGID_10_);fill:#272727;}
</style>
<g>
	<g>
		<g>
			<defs>
				<path id="SVGID_1_" d="M3.57,30.63h1.19c0,0,1.59-0.2,1.59-1.88c0-1.78-1.78-1.88-1.78-1.88H3.57V30.63L3.57,30.63L3.57,30.63z
					 M0.5,24.29h5.26c0,0,3.97,0.1,3.97,4.46c0,4.17-4.07,4.46-4.07,4.46H3.57v2.58H0.5V24.29L0.5,24.29z M44.93,30.63h1.19
					c0,0,1.59-0.2,1.59-1.88c0-1.78-1.78-1.88-1.78-1.88h-1.09v3.77H44.93L44.93,30.63z M41.95,24.29h5.26c0,0,3.87,0.2,3.87,4.46
					c0,3.87-3.87,4.46-3.87,4.46h-2.18v2.58h-3.07V24.29L41.95,24.29z M11.01,24.39h2.98v4.26h3.17v-4.26h2.98v11.4h-2.88v-4.56
					h-3.27v4.56h-2.98V24.39z M22.91,24.39h2.88v11.4h-2.88V24.39z M36.2,24.39h2.88v11.4H36.2V24.39z M28.66,24.39h2.88v8.73h3.17
					v2.68h-6.05V24.39z M58.71,24.29c0,0-1.09-0.2-2.18-0.2c-1.59,0-4.36,0.4-4.36,3.77c0,0-0.2,2.58,2.58,3.27
					c2.68,0.69,2.08,1.19,2.18,1.29c0,0,0.1,0.79-1.98,0.79c-1.98,0-2.48-0.4-2.48-0.4v2.68c0,0,0.5,0.2,2.48,0.4
					C57.52,36.09,60,35,60,32.22c0-1.09-0.59-2.88-3.07-3.47c-1.59-0.4-1.88-0.89-1.78-1.09c0,0-0.1-0.89,1.78-0.89
					c1.69,0,1.88,0.3,1.88,0.3L58.71,24.29L58.71,24.29z"/>
			</defs>
			<clipPath id="SVGID_2_">
				<use xlink:href="#SVGID_1_"  style="overflow:visible;"/>
			</clipPath>
		</g>
		<g>
			<defs>
				<path id="SVGID_3_" d="M3.57,30.63h1.19c0,0,1.59-0.2,1.59-1.88c0-1.78-1.78-1.88-1.78-1.88H3.57V30.63L3.57,30.63L3.57,30.63z
					 M0.5,24.29h5.26c0,0,3.97,0.1,3.97,4.46c0,4.17-4.07,4.46-4.07,4.46H3.57v2.58H0.5V24.29L0.5,24.29z M44.93,30.63h1.19
					c0,0,1.59-0.2,1.59-1.88c0-1.78-1.78-1.88-1.78-1.88h-1.09v3.77H44.93L44.93,30.63z M41.95,24.29h5.26c0,0,3.87,0.2,3.87,4.46
					c0,3.87-3.87,4.46-3.87,4.46h-2.18v2.58h-3.07V24.29L41.95,24.29z M11.01,24.39h2.98v4.26h3.17v-4.26h2.98v11.4h-2.88v-4.56
					h-3.27v4.56h-2.98V24.39z M22.91,24.39h2.88v11.4h-2.88V24.39z M36.2,24.39h2.88v11.4H36.2V24.39z M28.66,24.39h2.88v8.73h3.17
					v2.68h-6.05V24.39z M58.71,24.29c0,0-1.09-0.2-2.18-0.2c-1.59,0-4.36,0.4-4.36,3.77c0,0-0.2,2.58,2.58,3.27
					c2.68,0.69,2.08,1.19,2.18,1.29c0,0,0.1,0.79-1.98,0.79c-1.98,0-2.48-0.4-2.48-0.4v2.68c0,0,0.5,0.2,2.48,0.4
					C57.52,36.09,60,35,60,32.22c0-1.09-0.59-2.88-3.07-3.47c-1.59-0.4-1.88-0.89-1.78-1.09c0,0-0.1-0.89,1.78-0.89
					c1.69,0,1.88,0.3,1.88,0.3L58.71,24.29L58.71,24.29z"/>
			</defs>
			<use xlink:href="#SVGID_3_"  style="overflow:visible;fill:#555555;"/>
			<clipPath id="SVGID_4_">
				<use xlink:href="#SVGID_3_"  style="overflow:visible;"/>
			</clipPath>
			<path class="st0" d="M4.07,31.13h1.19c0,0,1.59-0.2,1.59-1.88c0-1.78-1.78-1.88-1.78-1.88H4.07V31.13L4.07,31.13L4.07,31.13z
				 M1,24.79h5.26c0,0,3.97,0.1,3.97,4.46c0,4.17-4.07,4.46-4.07,4.46H4.07v2.58H1V24.79L1,24.79z M45.43,31.13h1.19
				c0,0,1.59-0.2,1.59-1.88c0-1.78-1.78-1.88-1.78-1.88h-1.09v3.77H45.43L45.43,31.13z M42.45,24.79h5.26c0,0,3.87,0.2,3.87,4.46
				c0,3.87-3.87,4.46-3.87,4.46h-2.18v2.58h-3.07V24.79L42.45,24.79z M11.51,24.89h2.98v4.26h3.17v-4.26h2.98v11.4h-2.88v-4.56
				h-3.27v4.56h-2.98V24.89z M23.41,24.89h2.88v11.4h-2.88V24.89z M36.7,24.89h2.88v11.4H36.7V24.89z M29.16,24.89h2.88v8.73h3.17
				v2.68h-6.05V24.89z M59.21,24.79c0,0-1.09-0.2-2.18-0.2c-1.59,0-4.36,0.4-4.36,3.77c0,0-0.2,2.58,2.58,3.27
				c2.68,0.69,2.08,1.19,2.18,1.29c0,0,0.1,0.79-1.98,0.79c-1.98,0-2.48-0.4-2.48-0.4v2.68c0,0,0.5,0.2,2.48,0.4
				c2.58,0.2,5.06-0.89,5.06-3.67c0-1.09-0.59-2.88-3.07-3.47c-1.59-0.4-1.88-0.89-1.78-1.09c0,0-0.1-0.89,1.78-0.89
				c1.69,0,1.88,0.3,1.88,0.3L59.21,24.79L59.21,24.79z"/>
		</g>
		<g>
			<defs>
				<path id="SVGID_5_" d="M3.57,30.63h1.19c0,0,1.59-0.2,1.59-1.88c0-1.78-1.78-1.88-1.78-1.88H3.57V30.63L3.57,30.63L3.57,30.63z
					 M0.5,24.29h5.26c0,0,3.97,0.1,3.97,4.46c0,4.17-4.07,4.46-4.07,4.46H3.57v2.58H0.5V24.29L0.5,24.29z M44.93,30.63h1.19
					c0,0,1.59-0.2,1.59-1.88c0-1.78-1.78-1.88-1.78-1.88h-1.09v3.77H44.93L44.93,30.63z M41.95,24.29h5.26c0,0,3.87,0.2,3.87,4.46
					c0,3.87-3.87,4.46-3.87,4.46h-2.18v2.58h-3.07V24.29L41.95,24.29z M11.01,24.39h2.98v4.26h3.17v-4.26h2.98v11.4h-2.88v-4.56
					h-3.27v4.56h-2.98V24.39z M22.91,24.39h2.88v11.4h-2.88V24.39z M36.2,24.39h2.88v11.4H36.2V24.39z M28.66,24.39h2.88v8.73h3.17
					v2.68h-6.05V24.39z M58.71,24.29c0,0-1.09-0.2-2.18-0.2c-1.59,0-4.36,0.4-4.36,3.77c0,0-0.2,2.58,2.58,3.27
					c2.68,0.69,2.08,1.19,2.18,1.29c0,0,0.1,0.79-1.98,0.79c-1.98,0-2.48-0.4-2.48-0.4v2.68c0,0,0.5,0.2,2.48,0.4
					C57.52,36.09,60,35,60,32.22c0-1.09-0.59-2.88-3.07-3.47c-1.59-0.4-1.88-0.89-1.78-1.09c0,0-0.1-0.89,1.78-0.89
					c1.69,0,1.88,0.3,1.88,0.3L58.71,24.29L58.71,24.29z"/>
			</defs>
			<clipPath id="SVGID_6_">
				<use xlink:href="#SVGID_5_"  style="overflow:visible;"/>
			</clipPath>
		</g>
	</g>
	<g>
		<g>
			<defs>
				<path id="SVGID_7_" d="M3.07,30.13h1.19c0,0,1.59-0.2,1.59-1.88c0-1.78-1.78-1.88-1.78-1.88H3.07V30.13L3.07,30.13L3.07,30.13z
					 M0,23.79h5.26c0,0,3.97,0.1,3.97,4.46c0,4.17-4.07,4.46-4.07,4.46H3.07v2.58H0V23.79L0,23.79z M44.43,30.13h1.19
					c0,0,1.59-0.2,1.59-1.88c0-1.78-1.78-1.88-1.78-1.88h-1.09v3.77H44.43L44.43,30.13z M41.45,23.79h5.26c0,0,3.87,0.2,3.87,4.46
					c0,3.87-3.87,4.46-3.87,4.46h-2.18v2.58h-3.07V23.79L41.45,23.79z M10.51,23.89h2.98v4.26h3.17v-4.26h2.98v11.4h-2.88v-4.56
					h-3.27v4.56h-2.98V23.89z M22.41,23.89h2.88v11.4h-2.88V23.89z M35.7,23.89h2.88v11.4H35.7V23.89z M28.16,23.89h2.88v8.73h3.17
					v2.68h-6.05V23.89z M58.21,23.79c0,0-1.09-0.2-2.18-0.2c-1.59,0-4.36,0.4-4.36,3.77c0,0-0.2,2.58,2.58,3.27
					c2.68,0.69,2.08,1.19,2.18,1.29c0,0,0.1,0.79-1.98,0.79c-1.98,0-2.48-0.4-2.48-0.4v2.68c0,0,0.5,0.2,2.48,0.4
					c2.58,0.2,5.06-0.89,5.06-3.67c0-1.09-0.59-2.88-3.07-3.47c-1.59-0.4-1.88-0.89-1.78-1.09c0,0-0.1-0.89,1.78-0.89
					c1.69,0,1.88,0.3,1.88,0.3L58.21,23.79L58.21,23.79z"/>
			</defs>
			<clipPath id="SVGID_8_">
				<use xlink:href="#SVGID_7_"  style="overflow:visible;"/>
			</clipPath>
		</g>
		<g>
			<defs>
				<path id="SVGID_9_" d="M3.07,30.13h1.19c0,0,1.59-0.2,1.59-1.88c0-1.78-1.78-1.88-1.78-1.88H3.07V30.13L3.07,30.13L3.07,30.13z
					 M0,23.79h5.26c0,0,3.97,0.1,3.97,4.46c0,4.17-4.07,4.46-4.07,4.46H3.07v2.58H0V23.79L0,23.79z M44.43,30.13h1.19
					c0,0,1.59-0.2,1.59-1.88c0-1.78-1.78-1.88-1.78-1.88h-1.09v3.77H44.43L44.43,30.13z M41.45,23.79h5.26c0,0,3.87,0.2,3.87,4.46
					c0,3.87-3.87,4.46-3.87,4.46h-2.18v2.58h-3.07V23.79L41.45,23.79z M10.51,23.89h2.98v4.26h3.17v-4.26h2.98v11.4h-2.88v-4.56
					h-3.27v4.56h-2.98V23.89z M22.41,23.89h2.88v11.4h-2.88V23.89z M35.7,23.89h2.88v11.4H35.7V23.89z M28.16,23.89h2.88v8.73h3.17
					v2.68h-6.05V23.89z M58.21,23.79c0,0-1.09-0.2-2.18-0.2c-1.59,0-4.36,0.4-4.36,3.77c0,0-0.2,2.58,2.58,3.27
					c2.68,0.69,2.08,1.19,2.18,1.29c0,0,0.1,0.79-1.98,0.79c-1.98,0-2.48-0.4-2.48-0.4v2.68c0,0,0.5,0.2,2.48,0.4
					c2.58,0.2,5.06-0.89,5.06-3.67c0-1.09-0.59-2.88-3.07-3.47c-1.59-0.4-1.88-0.89-1.78-1.09c0,0-0.1-0.89,1.78-0.89
					c1.69,0,1.88,0.3,1.88,0.3L58.21,23.79L58.21,23.79z"/>
			</defs>
			<use xlink:href="#SVGID_9_"  style="overflow:visible;fill:#111111;"/>
			<clipPath id="SVGID_10_">
				<use xlink:href="#SVGID_9_"  style="overflow:visible;"/>
			</clipPath>
			<path class="st1" d="M3.57,30.63h1.19c0,0,1.59-0.2,1.59-1.88c0-1.78-1.78-1.88-1.78-1.88H3.57V30.63L3.57,30.63L3.57,30.63z
				 M0.5,24.29h5.26c0,0,3.97,0.1,3.97,4.46c0,4.17-4.07,4.46-4.07,4.46H3.57v2.58H0.5V24.29L0.5,24.29z M44.93,30.63h1.19
				c0,0,1.59-0.2,1.59-1.88c0-1.78-1.78-1.88-1.78-1.88h-1.09v3.77H44.93L44.93,30.63z M41.95,24.29h5.26c0,0,3.87,0.2,3.87,4.46
				c0,3.87-3.87,4.46-3.87,4.46h-2.18v2.58h-3.07V24.29L41.95,24.29z M11.01,24.39h2.98v4.26h3.17v-4.26h2.98v11.4h-2.88v-4.56
				h-3.27v4.56h-2.98V24.39z M22.91,24.39h2.88v11.4h-2.88V24.39z M36.2,24.39h2.88v11.4H36.2V24.39z M28.66,24.39h2.88v8.73h3.17
				v2.68h-6.05V24.39z M58.71,24.29c0,0-1.09-0.2-2.18-0.2c-1.59,0-4.36,0.4-4.36,3.77c0,0-0.2,2.58,2.58,3.27
				c2.68,0.69,2.08,1.19,2.18,1.29c0,0,0.1,0.79-1.98,0.79c-1.98,0-2.48-0.4-2.48-0.4v2.68c0,0,0.5,0.2,2.48,0.4
				C57.52,36.09,60,35,60,32.22c0-1.09-0.59-2.88-3.07-3.47c-1.59-0.4-1.88-0.89-1.78-1.09c0,0-0.1-0.89,1.78-0.89
				c1.69,0,1.88,0.3,1.88,0.3L58.71,24.29L58.71,24.29z"/>
		</g>
		<g>
			<defs>
				<path id="SVGID_11_" d="M3.07,30.13h1.19c0,0,1.59-0.2,1.59-1.88c0-1.78-1.78-1.88-1.78-1.88H3.07V30.13L3.07,30.13L3.07,30.13z
					 M0,23.79h5.26c0,0,3.97,0.1,3.97,4.46c0,4.17-4.07,4.46-4.07,4.46H3.07v2.58H0V23.79L0,23.79z M44.43,30.13h1.19
					c0,0,1.59-0.2,1.59-1.88c0-1.78-1.78-1.88-1.78-1.88h-1.09v3.77H44.43L44.43,30.13z M41.45,23.79h5.26c0,0,3.87,0.2,3.87,4.46
					c0,3.87-3.87,4.46-3.87,4.46h-2.18v2.58h-3.07V23.79L41.45,23.79z M10.51,23.89h2.98v4.26h3.17v-4.26h2.98v11.4h-2.88v-4.56
					h-3.27v4.56h-2.98V23.89z M22.41,23.89h2.88v11.4h-2.88V23.89z M35.7,23.89h2.88v11.4H35.7V23.89z M28.16,23.89h2.88v8.73h3.17
					v2.68h-6.05V23.89z M58.21,23.79c0,0-1.09-0.2-2.18-0.2c-1.59,0-4.36,0.4-4.36,3.77c0,0-0.2,2.58,2.58,3.27
					c2.68,0.69,2.08,1.19,2.18,1.29c0,0,0.1,0.79-1.98,0.79c-1.98,0-2.48-0.4-2.48-0.4v2.68c0,0,0.5,0.2,2.48,0.4
					c2.58,0.2,5.06-0.89,5.06-3.67c0-1.09-0.59-2.88-3.07-3.47c-1.59-0.4-1.88-0.89-1.78-1.09c0,0-0.1-0.89,1.78-0.89
					c1.69,0,1.88,0.3,1.88,0.3L58.21,23.79L58.21,23.79z"/>
			</defs>
			<clipPath id="SVGID_12_">
				<use xlink:href="#SVGID_11_"  style="overflow:visible;"/>
			</clipPath>
		</g>
	</g>
</g>
</svg>
