<?xml version="1.0" encoding="utf-8"?>
<!-- Generator: Adobe Illustrator 19.2.1, SVG Export Plug-In . SVG Version: 6.00 Build 0)  -->
<svg version="1.1" id="BRAND_-_Hella" xmlns="http://www.w3.org/2000/svg" xmlns:xlink="http://www.w3.org/1999/xlink" x="0px"
	 y="0px" viewBox="0 0 60 60" style="enable-background:new 0 0 60 60;" xml:space="preserve">
<style type="text/css">
	.Arched_x0020_Green{fill:url(#SVGID_1_);stroke:#FFFFFF;stroke-width:0.25;stroke-miterlimit:1;}
	.st0{fill:#293577;}
</style>
<linearGradient id="SVGID_1_" gradientUnits="userSpaceOnUse" x1="-20" y1="262.2046" x2="-19.2929" y2="261.4975">
	<stop  offset="0" style="stop-color:#1EAB4B"/>
	<stop  offset="0.9831" style="stop-color:#19361A"/>
</linearGradient>
<g>
	<path class="st0" d="M0,28.9c0.1-0.3,0.1-0.6,0.2-0.9c0.4-2.6,1.6-4.8,3.3-6.7c2.3-2.7,5.2-4.7,8.4-6.2c1.8-0.9,3.6-1.6,5.6-2.1
		c1.6-0.4,3.2-0.8,4.8-1.1c3.3-0.6,6.6-0.9,10-0.7c1.8,0.1,3.5,0.3,5.3,0.5c2,0.2,4,0.7,5.9,1.3c1.6,0.5,3.2,1.1,4.7,1.7
		c2.3,0.9,4.5,2.2,6.4,3.8c0.8,0.6,1.5,1.3,2.2,2c0.1,0.1,0.1,0.2,0.2,0.3c-0.7,0-1.4,0.1-2,0.1c-0.5,0-1,0.1-1.5,0.1
		c-0.2,0-0.4-0.1-0.6-0.2c-1.8-1.5-3.8-2.6-5.9-3.5c-1.9-0.8-3.8-1.5-5.8-1.9c-1.7-0.4-3.4-0.6-5.1-0.9c-2.3-0.4-4.7-0.4-7-0.3
		c-1.8,0.1-3.7,0.3-5.5,0.6c-1.5,0.2-2.9,0.5-4.3,0.9c-1.5,0.4-3,1-4.5,1.5c-1.9,0.7-3.6,1.7-5.3,2.8c-1.7,1.2-3.3,2.6-4.5,4.4
		C3.5,26.2,2.8,28.5,3,31c0.1,1.3,0.5,2.5,1.1,3.6c1.3,2.6,3.4,4.5,5.8,6.1c1.9,1.2,3.8,2.2,5.9,2.9c1.7,0.6,3.5,1.1,5.3,1.5
		c3.7,0.9,7.4,1.1,11.1,0.9c1.8-0.1,3.6-0.3,5.4-0.5c1.5-0.2,2.9-0.5,4.3-0.9c1.5-0.4,2.9-0.9,4.3-1.5c2.4-0.9,4.6-2.2,6.6-3.8
		c0.1-0.1,0.2-0.1,0.3-0.1c1.2,0,2.4,0.1,3.6,0.2c0,0,0.1,0,0.1,0c-0.4,0.4-0.8,0.9-1.3,1.3c-2.1,1.9-4.4,3.4-7,4.5
		c-1.7,0.7-3.4,1.4-5.2,2c-1.2,0.4-2.4,0.6-3.6,0.9c-2.4,0.5-4.8,0.8-7.2,0.9c-2.1,0.1-4.1,0-6.2-0.1c-1.3-0.1-2.5-0.3-3.8-0.4
		c-0.9-0.1-1.7-0.3-2.6-0.5C19,47.6,18,47.3,16.9,47c-2.6-0.8-5.1-1.9-7.5-3.3c-2-1.2-3.9-2.7-5.5-4.4c-1.4-1.6-2.6-3.4-3.3-5.4
		c-0.3-0.7-0.4-1.6-0.5-2.3c0-0.1-0.1-0.3-0.1-0.4C0,30.4,0,29.6,0,28.9z"/>
	<path class="st0" d="M60,31.6c-0.1,0.3-0.2,0.6-0.2,0.9c-0.3,1.8-0.9,3.6-1.6,5.2c0,0.1-0.2,0.2-0.3,0.2c-1.2-0.1-2.5-0.1-3.7-0.2
		c0,0,0,0-0.1,0c0.6-1.3,1.1-2.6,1.5-4.1c-0.7,0-1.4,0-2.1,0c-0.4,0-0.7,0-1.1,0c-0.2,0-0.4,0.1-0.5,0.3c-0.4,1.1-0.8,2.1-1.2,3.2
		c-0.1,0.2-0.2,0.4-0.5,0.4c-1.1-0.1-2.1-0.2-3.2-0.3c1.5-4.9,1.7-9.7,0-14.6c0.1,0,0.2,0,0.3,0c1.8-0.1,3.6-0.3,5.4-0.4
		c1.7-0.1,3.3-0.2,5-0.3c0.1,0,0.4,0.1,0.4,0.2c0.5,1.1,0.9,2.2,1.3,3.4c0.3,0.8,0.4,1.7,0.5,2.6c0,0.1,0.1,0.2,0.1,0.2
		C60,29.4,60,30.5,60,31.6z M52.4,29.6c1.2,0.1,2.3,0.1,3.5-0.2c0.1,0,0.2-0.2,0.1-0.3c-0.1-1-0.3-2-0.4-3c0-0.2-0.1-0.3-0.3-0.3
		c-0.8,0-1.7,0-2.5,0c-0.6,0-0.7,0.1-0.6,0.7C52.2,27.6,52.3,28.6,52.4,29.6z"/>
	<path class="st0" d="M7.8,23.5c1.2-1.2,2.5-2.2,3.9-3c1.9-1.1,3.9-2,6-2.6c1.4-0.4,2.9-0.8,4.3-1.1c1.2-0.3,2.5-0.4,3.7-0.5
		c2.4-0.3,4.8-0.4,7.3-0.2c2,0.1,3.9,0.3,5.9,0.7c3.8,0.7,7.4,1.9,10.7,3.9c0.2,0.1,0.4,0.3,0.7,0.5c-0.5,0-0.9,0.1-1.3,0.1
		c-3.1,0.2-6.1,0.3-9.2,0.5c-2.1,0.1-4.3,0.2-6.4,0.4c-3.5,0.2-7,0.4-10.4,0.6c-3.5,0.2-7,0.4-10.6,0.6c-1.5,0.1-3,0.2-4.4,0.3
		C7.9,23.5,7.9,23.5,7.8,23.5z"/>
	<path class="st0" d="M8.5,37.1c13.8,0.6,27.7,1.2,41.6,1.9c-0.1,0.1-0.1,0.2-0.2,0.2c-1.7,1-3.4,1.9-5.2,2.6
		c-1.8,0.6-3.6,1.1-5.4,1.5c-3.7,0.8-7.5,1-11.3,0.8c-1.8-0.1-3.6-0.4-5.4-0.6c-2.1-0.3-4.2-0.9-6.2-1.6c-2.8-1-5.4-2.4-7.7-4.3
		c-0.1-0.1-0.2-0.1-0.3-0.2C8.4,37.2,8.5,37.2,8.5,37.1z"/>
	<path class="st0" d="M26.6,26.9c-0.4,0-0.7,0-1.1,0c-1.4,0.1-2.7,0.1-4.1,0.2c-0.3,0-0.4,0.1-0.4,0.4c-0.1,1.2-0.1,1.2,1.1,1.2
		c1.5,0,3,0,4.5,0c0.3,0,0.4,0.1,0.4,0.3c0,0.8,0,1.6,0.1,2.4c0,0.3-0.2,0.3-0.4,0.3c-1,0-2,0-3.1,0c-0.7,0-1.3,0-2,0
		c-0.2,0-0.4,0.1-0.3,0.3c0,0.1,0,0.1,0,0.2c0,0.9,0,1,0.9,1c1.4,0,2.9,0,4.3,0c0.1,0,0.2,0,0.4,0c-0.1,0.3-0.1,0.5-0.2,0.8
		c-0.1,0.6-0.2,1.2-0.3,1.8c0,0.2-0.1,0.3-0.3,0.3c-1.6,0-3.1,0-4.7-0.1c-0.8,0-1.7-0.1-2.5-0.2c-0.1,0-0.3-0.1-0.4-0.3
		c-0.7-1.4-1.2-2.9-1.4-4.6c-0.3-2.3,0.3-4.3,1.4-6.3c0.1-0.1,0.3-0.3,0.4-0.3c2.3-0.1,4.5-0.2,6.8-0.3c0.2,0,0.3,0,0.4,0.2
		C26.1,25.2,26.3,26,26.6,26.9z"/>
	<path class="st0" d="M11.1,32.4c-0.8,0-1.5,0-2.3,0c0,1,0.4,1.9,0.8,2.9c-0.5,0-0.9,0-1.3,0c-0.5,0-1,0-1.4,0
		c-0.1,0-0.3-0.1-0.4-0.2c-0.8-1.4-1.4-3-1.5-4.6c-0.2-1.8,0.4-3.4,1.5-4.8c0.1-0.1,0.1-0.1,0.2-0.1c0.9-0.1,1.8-0.1,2.8-0.2
		c-0.4,1.1-0.7,2.1-1.1,3.2c0.8,0,1.5,0,2.2,0c0.1,0,0.2-0.2,0.2-0.3c0.1-0.9,0.4-1.8,0.8-2.6c0.1-0.2,0.2-0.4,0.5-0.4
		c1-0.1,2-0.1,3.1-0.2c-0.6,1.8-1.1,3.5-1.1,5.3c0,1.9,0.5,3.6,1.3,5.3c-0.4,0-0.8,0-1.1,0c-0.7,0-1.4,0-2.2,0
		c-0.2,0-0.3-0.1-0.5-0.3C11.5,34.3,11.2,33.4,11.1,32.4z"/>
	<path class="st0" d="M37.8,23.2c1.3-0.1,2.6-0.1,3.9-0.2c0.1,0,0.3,0.2,0.3,0.3c1,2.8,1.4,5.6,1.2,8.5c0,0.6-0.2,1.3-0.3,2
		c1.2,0,2.3,0,3.5,0c-0.1,0.4-0.2,0.7-0.3,1c-0.2,0.7-0.4,1.4-0.6,2c-0.1,0.2-0.1,0.4-0.4,0.4c-2.4-0.2-4.7-0.3-7.1-0.5
		c0,0,0,0-0.1-0.1C39.1,32.2,38.9,27.7,37.8,23.2z"/>
	<path class="st0" d="M28.7,24c1.4-0.1,2.8-0.2,4.2-0.4c0.9,3.1,1.1,6.3,0.7,9.6c1.2,0.1,2.3,0.1,3.4,0.2c-0.3,1.1-0.7,2.1-1,3.2
		c-2.4-0.1-4.9-0.2-7.4-0.3C29.8,32.3,29.9,28.2,28.7,24z"/>
</g>
<g>
</g>
<g>
</g>
<g>
</g>
<g>
</g>
<g>
</g>
<g>
</g>
</svg>
