<?xml version="1.0" encoding="utf-8"?>
<!-- Generator: Adobe Illustrator 21.1.0, SVG Export Plug-In . SVG Version: 6.00 Build 0)  -->
<svg version="1.1" id="BRAND_-_Osram" xmlns="http://www.w3.org/2000/svg" xmlns:xlink="http://www.w3.org/1999/xlink" x="0px"
	 y="0px" viewBox="0 0 60 60" style="enable-background:new 0 0 60 60;" xml:space="preserve">
<style type="text/css">
	.st0{clip-path:url(#SVGID_4_);fill:#555555;}
	.st1{clip-path:url(#SVGID_10_);fill:#272727;}
</style>
<g>
	<g>
		<g>
			<defs>
				<path id="SVGID_1_" d="M9.05,34.58l-1.01,2.57H5.5l4.91-12.65h3.34l-0.02,12.65h-2.55l0.01-2.57H9.05z M9.96,32.24h1.23
					l0.43-5.39L9.96,32.24z M17.24,24.5h5.55c0.5,0,0.9,0.17,1.2,0.5c0.31,0.34,0.41,0.75,0.32,1.23l-0.64,3.26
					c-0.18,0.96-0.7,1.74-1.55,2.33c-0.8,0.55-1.72,0.83-2.76,0.83h-1.19l-0.88,4.51h-2.51L17.24,24.5z M19.29,26.84l-0.67,3.46
					h1.19c0.79,0,1.24-0.27,1.35-0.81l0.52-2.65H19.29z M25.22,37.15h2.5l2.55-11.96h2.45l0.46-2.34h-7.4l-0.45,2.34h2.45
					L25.22,37.15z M35.88,24.5h-2.51l-2.12,10.92c-0.09,0.48,0.01,0.89,0.31,1.23c0.3,0.33,0.7,0.5,1.2,0.5h3.69
					c0.5,0,0.97-0.17,1.4-0.5c0.43-0.34,0.7-0.75,0.79-1.23l2.12-10.92h-2.51l-2,10.31h-2.38L35.88,24.5z M43.67,32.64l-0.88,4.51
					h-2.51l2.46-12.65h5.55c0.5,0,0.9,0.17,1.2,0.5c0.31,0.34,0.41,0.75,0.32,1.23l-0.64,3.26c-0.16,0.83-0.61,1.49-1.35,1.98
					c0.54,0.5,0.74,1.16,0.58,2l-0.72,3.69h-2.51l0.72-3.69c0.05-0.23-0.01-0.43-0.16-0.59c-0.15-0.15-0.34-0.23-0.58-0.23H43.67z
					 M45.61,30.3c0.24,0,0.46-0.08,0.67-0.24c0.21-0.16,0.34-0.35,0.38-0.58l0.52-2.65H44.8l-0.67,3.46H45.61z M54.06,37.15h3.48
					L60,24.5h-2.51l-1.59,8.19l-0.46-8.19h-3.48l-2.46,12.65H52L53.59,29L54.06,37.15z M0.5,37.15H3l2.55-11.96H8l0.46-2.34h-7.4
					L0.6,25.19h2.45L0.5,37.15z"/>
			</defs>
			<clipPath id="SVGID_2_">
				<use xlink:href="#SVGID_1_"  style="overflow:visible;"/>
			</clipPath>
		</g>
		<g>
			<defs>
				<path id="SVGID_3_" d="M9.05,34.58l-1.01,2.57H5.5l4.91-12.65h3.34l-0.02,12.65h-2.55l0.01-2.57H9.05z M9.96,32.24h1.23
					l0.43-5.39L9.96,32.24z M17.24,24.5h5.55c0.5,0,0.9,0.17,1.2,0.5c0.31,0.34,0.41,0.75,0.32,1.23l-0.64,3.26
					c-0.18,0.96-0.7,1.74-1.55,2.33c-0.8,0.55-1.72,0.83-2.76,0.83h-1.19l-0.88,4.51h-2.51L17.24,24.5z M19.29,26.84l-0.67,3.46
					h1.19c0.79,0,1.24-0.27,1.35-0.81l0.52-2.65H19.29z M25.22,37.15h2.5l2.55-11.96h2.45l0.46-2.34h-7.4l-0.45,2.34h2.45
					L25.22,37.15z M35.88,24.5h-2.51l-2.12,10.92c-0.09,0.48,0.01,0.89,0.31,1.23c0.3,0.33,0.7,0.5,1.2,0.5h3.69
					c0.5,0,0.97-0.17,1.4-0.5c0.43-0.34,0.7-0.75,0.79-1.23l2.12-10.92h-2.51l-2,10.31h-2.38L35.88,24.5z M43.67,32.64l-0.88,4.51
					h-2.51l2.46-12.65h5.55c0.5,0,0.9,0.17,1.2,0.5c0.31,0.34,0.41,0.75,0.32,1.23l-0.64,3.26c-0.16,0.83-0.61,1.49-1.35,1.98
					c0.54,0.5,0.74,1.16,0.58,2l-0.72,3.69h-2.51l0.72-3.69c0.05-0.23-0.01-0.43-0.16-0.59c-0.15-0.15-0.34-0.23-0.58-0.23H43.67z
					 M45.61,30.3c0.24,0,0.46-0.08,0.67-0.24c0.21-0.16,0.34-0.35,0.38-0.58l0.52-2.65H44.8l-0.67,3.46H45.61z M54.06,37.15h3.48
					L60,24.5h-2.51l-1.59,8.19l-0.46-8.19h-3.48l-2.46,12.65H52L53.59,29L54.06,37.15z M0.5,37.15H3l2.55-11.96H8l0.46-2.34h-7.4
					L0.6,25.19h2.45L0.5,37.15z"/>
			</defs>
			<use xlink:href="#SVGID_3_"  style="overflow:visible;fill:#555555;"/>
			<clipPath id="SVGID_4_">
				<use xlink:href="#SVGID_3_"  style="overflow:visible;"/>
			</clipPath>
			<path class="st0" d="M9.55,35.08l-1.01,2.57H6L10.91,25h3.34l-0.02,12.65h-2.55l0.01-2.57H9.55z M10.46,32.74h1.23l0.43-5.39
				L10.46,32.74z M17.74,25h5.55c0.5,0,0.9,0.17,1.2,0.5c0.31,0.34,0.41,0.75,0.32,1.23l-0.64,3.26c-0.18,0.96-0.7,1.74-1.55,2.33
				c-0.8,0.55-1.72,0.83-2.76,0.83h-1.19l-0.88,4.51h-2.51L17.74,25z M19.79,27.34l-0.67,3.46h1.19c0.79,0,1.24-0.27,1.35-0.81
				l0.52-2.65H19.79z M25.72,37.65h2.5l2.55-11.96h2.45l0.46-2.34h-7.4l-0.45,2.34h2.45L25.72,37.65z M36.38,25h-2.51l-2.12,10.92
				c-0.09,0.48,0.01,0.89,0.31,1.23c0.3,0.33,0.7,0.5,1.2,0.5h3.69c0.5,0,0.97-0.17,1.4-0.5c0.43-0.34,0.7-0.75,0.79-1.23L41.27,25
				h-2.51l-2,10.31h-2.38L36.38,25z M44.17,33.14l-0.88,4.51h-2.51L43.24,25h5.55c0.5,0,0.9,0.17,1.2,0.5
				c0.31,0.34,0.41,0.75,0.32,1.23l-0.64,3.26c-0.16,0.83-0.61,1.49-1.35,1.98c0.54,0.5,0.74,1.16,0.58,2l-0.72,3.69h-2.51
				l0.72-3.69c0.05-0.23-0.01-0.43-0.16-0.59c-0.15-0.15-0.34-0.23-0.58-0.23H44.17z M46.11,30.8c0.24,0,0.46-0.08,0.67-0.24
				c0.21-0.16,0.34-0.35,0.38-0.58l0.52-2.65H45.3l-0.67,3.46H46.11z M54.56,37.65h3.48L60.5,25h-2.51l-1.59,8.19L55.93,25h-3.48
				l-2.46,12.65h2.51l1.59-8.15L54.56,37.65z M1,37.65h2.5l2.55-11.96H8.5l0.46-2.34h-7.4L1.1,25.69h2.45L1,37.65z"/>
		</g>
		<g>
			<defs>
				<path id="SVGID_5_" d="M9.05,34.58l-1.01,2.57H5.5l4.91-12.65h3.34l-0.02,12.65h-2.55l0.01-2.57H9.05z M9.96,32.24h1.23
					l0.43-5.39L9.96,32.24z M17.24,24.5h5.55c0.5,0,0.9,0.17,1.2,0.5c0.31,0.34,0.41,0.75,0.32,1.23l-0.64,3.26
					c-0.18,0.96-0.7,1.74-1.55,2.33c-0.8,0.55-1.72,0.83-2.76,0.83h-1.19l-0.88,4.51h-2.51L17.24,24.5z M19.29,26.84l-0.67,3.46
					h1.19c0.79,0,1.24-0.27,1.35-0.81l0.52-2.65H19.29z M25.22,37.15h2.5l2.55-11.96h2.45l0.46-2.34h-7.4l-0.45,2.34h2.45
					L25.22,37.15z M35.88,24.5h-2.51l-2.12,10.92c-0.09,0.48,0.01,0.89,0.31,1.23c0.3,0.33,0.7,0.5,1.2,0.5h3.69
					c0.5,0,0.97-0.17,1.4-0.5c0.43-0.34,0.7-0.75,0.79-1.23l2.12-10.92h-2.51l-2,10.31h-2.38L35.88,24.5z M43.67,32.64l-0.88,4.51
					h-2.51l2.46-12.65h5.55c0.5,0,0.9,0.17,1.2,0.5c0.31,0.34,0.41,0.75,0.32,1.23l-0.64,3.26c-0.16,0.83-0.61,1.49-1.35,1.98
					c0.54,0.5,0.74,1.16,0.58,2l-0.72,3.69h-2.51l0.72-3.69c0.05-0.23-0.01-0.43-0.16-0.59c-0.15-0.15-0.34-0.23-0.58-0.23H43.67z
					 M45.61,30.3c0.24,0,0.46-0.08,0.67-0.24c0.21-0.16,0.34-0.35,0.38-0.58l0.52-2.65H44.8l-0.67,3.46H45.61z M54.06,37.15h3.48
					L60,24.5h-2.51l-1.59,8.19l-0.46-8.19h-3.48l-2.46,12.65H52L53.59,29L54.06,37.15z M0.5,37.15H3l2.55-11.96H8l0.46-2.34h-7.4
					L0.6,25.19h2.45L0.5,37.15z"/>
			</defs>
			<clipPath id="SVGID_6_">
				<use xlink:href="#SVGID_5_"  style="overflow:visible;"/>
			</clipPath>
		</g>
	</g>
	<g>
		<g>
			<defs>
				<path id="SVGID_7_" d="M8.55,34.08l-1.01,2.57H5L9.91,24h3.34l-0.02,12.65h-2.55l0.01-2.57H8.55z M9.46,31.74h1.23l0.43-5.39
					L9.46,31.74z M16.74,24h5.55c0.5,0,0.9,0.17,1.2,0.5c0.31,0.34,0.41,0.75,0.32,1.23l-0.64,3.26c-0.18,0.96-0.7,1.74-1.55,2.33
					c-0.8,0.55-1.72,0.83-2.76,0.83h-1.19l-0.88,4.51h-2.51L16.74,24z M18.79,26.34l-0.67,3.46h1.19c0.79,0,1.24-0.27,1.35-0.81
					l0.52-2.65H18.79z M24.72,36.65h2.5l2.55-11.96h2.45l0.46-2.34h-7.4l-0.45,2.34h2.45L24.72,36.65z M35.38,24h-2.51l-2.12,10.92
					c-0.09,0.48,0.01,0.89,0.31,1.23c0.3,0.33,0.7,0.5,1.2,0.5h3.69c0.5,0,0.97-0.17,1.4-0.5c0.43-0.34,0.7-0.75,0.79-1.23L40.27,24
					h-2.51l-2,10.31h-2.38L35.38,24z M43.17,32.14l-0.88,4.51h-2.51L42.24,24h5.55c0.5,0,0.9,0.17,1.2,0.5
					c0.31,0.34,0.41,0.75,0.32,1.23l-0.64,3.26c-0.16,0.83-0.61,1.49-1.35,1.98c0.54,0.5,0.74,1.16,0.58,2l-0.72,3.69h-2.51
					l0.72-3.69c0.05-0.23-0.01-0.43-0.16-0.59c-0.15-0.15-0.34-0.23-0.58-0.23H43.17z M45.11,29.8c0.24,0,0.46-0.08,0.67-0.24
					c0.21-0.16,0.34-0.35,0.38-0.58l0.52-2.65H44.3l-0.67,3.46H45.11z M53.56,36.65h3.48L59.5,24h-2.51l-1.59,8.19L54.93,24h-3.48
					l-2.46,12.65h2.51l1.59-8.15L53.56,36.65z M0,36.65h2.5l2.55-11.96H7.5l0.46-2.34h-7.4L0.1,24.69h2.45L0,36.65z"/>
			</defs>
			<clipPath id="SVGID_8_">
				<use xlink:href="#SVGID_7_"  style="overflow:visible;"/>
			</clipPath>
		</g>
		<g>
			<defs>
				<path id="SVGID_9_" d="M8.55,34.08l-1.01,2.57H5L9.91,24h3.34l-0.02,12.65h-2.55l0.01-2.57H8.55z M9.46,31.74h1.23l0.43-5.39
					L9.46,31.74z M16.74,24h5.55c0.5,0,0.9,0.17,1.2,0.5c0.31,0.34,0.41,0.75,0.32,1.23l-0.64,3.26c-0.18,0.96-0.7,1.74-1.55,2.33
					c-0.8,0.55-1.72,0.83-2.76,0.83h-1.19l-0.88,4.51h-2.51L16.74,24z M18.79,26.34l-0.67,3.46h1.19c0.79,0,1.24-0.27,1.35-0.81
					l0.52-2.65H18.79z M24.72,36.65h2.5l2.55-11.96h2.45l0.46-2.34h-7.4l-0.45,2.34h2.45L24.72,36.65z M35.38,24h-2.51l-2.12,10.92
					c-0.09,0.48,0.01,0.89,0.31,1.23c0.3,0.33,0.7,0.5,1.2,0.5h3.69c0.5,0,0.97-0.17,1.4-0.5c0.43-0.34,0.7-0.75,0.79-1.23L40.27,24
					h-2.51l-2,10.31h-2.38L35.38,24z M43.17,32.14l-0.88,4.51h-2.51L42.24,24h5.55c0.5,0,0.9,0.17,1.2,0.5
					c0.31,0.34,0.41,0.75,0.32,1.23l-0.64,3.26c-0.16,0.83-0.61,1.49-1.35,1.98c0.54,0.5,0.74,1.16,0.58,2l-0.72,3.69h-2.51
					l0.72-3.69c0.05-0.23-0.01-0.43-0.16-0.59c-0.15-0.15-0.34-0.23-0.58-0.23H43.17z M45.11,29.8c0.24,0,0.46-0.08,0.67-0.24
					c0.21-0.16,0.34-0.35,0.38-0.58l0.52-2.65H44.3l-0.67,3.46H45.11z M53.56,36.65h3.48L59.5,24h-2.51l-1.59,8.19L54.93,24h-3.48
					l-2.46,12.65h2.51l1.59-8.15L53.56,36.65z M0,36.65h2.5l2.55-11.96H7.5l0.46-2.34h-7.4L0.1,24.69h2.45L0,36.65z"/>
			</defs>
			<use xlink:href="#SVGID_9_"  style="overflow:visible;fill:#111111;"/>
			<clipPath id="SVGID_10_">
				<use xlink:href="#SVGID_9_"  style="overflow:visible;"/>
			</clipPath>
			<path class="st1" d="M9.05,34.58l-1.01,2.57H5.5l4.91-12.65h3.34l-0.02,12.65h-2.55l0.01-2.57H9.05z M9.96,32.24h1.23l0.43-5.39
				L9.96,32.24z M17.24,24.5h5.55c0.5,0,0.9,0.17,1.2,0.5c0.31,0.34,0.41,0.75,0.32,1.23l-0.64,3.26c-0.18,0.96-0.7,1.74-1.55,2.33
				c-0.8,0.55-1.72,0.83-2.76,0.83h-1.19l-0.88,4.51h-2.51L17.24,24.5z M19.29,26.84l-0.67,3.46h1.19c0.79,0,1.24-0.27,1.35-0.81
				l0.52-2.65H19.29z M25.22,37.15h2.5l2.55-11.96h2.45l0.46-2.34h-7.4l-0.45,2.34h2.45L25.22,37.15z M35.88,24.5h-2.51l-2.12,10.92
				c-0.09,0.48,0.01,0.89,0.31,1.23c0.3,0.33,0.7,0.5,1.2,0.5h3.69c0.5,0,0.97-0.17,1.4-0.5c0.43-0.34,0.7-0.75,0.79-1.23
				l2.12-10.92h-2.51l-2,10.31h-2.38L35.88,24.5z M43.67,32.64l-0.88,4.51h-2.51l2.46-12.65h5.55c0.5,0,0.9,0.17,1.2,0.5
				c0.31,0.34,0.41,0.75,0.32,1.23l-0.64,3.26c-0.16,0.83-0.61,1.49-1.35,1.98c0.54,0.5,0.74,1.16,0.58,2l-0.72,3.69h-2.51
				l0.72-3.69c0.05-0.23-0.01-0.43-0.16-0.59c-0.15-0.15-0.34-0.23-0.58-0.23H43.67z M45.61,30.3c0.24,0,0.46-0.08,0.67-0.24
				c0.21-0.16,0.34-0.35,0.38-0.58l0.52-2.65H44.8l-0.67,3.46H45.61z M54.06,37.15h3.48L60,24.5h-2.51l-1.59,8.19l-0.46-8.19h-3.48
				l-2.46,12.65H52L53.59,29L54.06,37.15z M0.5,37.15H3l2.55-11.96H8l0.46-2.34h-7.4L0.6,25.19h2.45L0.5,37.15z"/>
		</g>
		<g>
			<defs>
				<path id="SVGID_11_" d="M8.55,34.08l-1.01,2.57H5L9.91,24h3.34l-0.02,12.65h-2.55l0.01-2.57H8.55z M9.46,31.74h1.23l0.43-5.39
					L9.46,31.74z M16.74,24h5.55c0.5,0,0.9,0.17,1.2,0.5c0.31,0.34,0.41,0.75,0.32,1.23l-0.64,3.26c-0.18,0.96-0.7,1.74-1.55,2.33
					c-0.8,0.55-1.72,0.83-2.76,0.83h-1.19l-0.88,4.51h-2.51L16.74,24z M18.79,26.34l-0.67,3.46h1.19c0.79,0,1.24-0.27,1.35-0.81
					l0.52-2.65H18.79z M24.72,36.65h2.5l2.55-11.96h2.45l0.46-2.34h-7.4l-0.45,2.34h2.45L24.72,36.65z M35.38,24h-2.51l-2.12,10.92
					c-0.09,0.48,0.01,0.89,0.31,1.23c0.3,0.33,0.7,0.5,1.2,0.5h3.69c0.5,0,0.97-0.17,1.4-0.5c0.43-0.34,0.7-0.75,0.79-1.23L40.27,24
					h-2.51l-2,10.31h-2.38L35.38,24z M43.17,32.14l-0.88,4.51h-2.51L42.24,24h5.55c0.5,0,0.9,0.17,1.2,0.5
					c0.31,0.34,0.41,0.75,0.32,1.23l-0.64,3.26c-0.16,0.83-0.61,1.49-1.35,1.98c0.54,0.5,0.74,1.16,0.58,2l-0.72,3.69h-2.51
					l0.72-3.69c0.05-0.23-0.01-0.43-0.16-0.59c-0.15-0.15-0.34-0.23-0.58-0.23H43.17z M45.11,29.8c0.24,0,0.46-0.08,0.67-0.24
					c0.21-0.16,0.34-0.35,0.38-0.58l0.52-2.65H44.3l-0.67,3.46H45.11z M53.56,36.65h3.48L59.5,24h-2.51l-1.59,8.19L54.93,24h-3.48
					l-2.46,12.65h2.51l1.59-8.15L53.56,36.65z M0,36.65h2.5l2.55-11.96H7.5l0.46-2.34h-7.4L0.1,24.69h2.45L0,36.65z"/>
			</defs>
			<clipPath id="SVGID_12_">
				<use xlink:href="#SVGID_11_"  style="overflow:visible;"/>
			</clipPath>
		</g>
	</g>
</g>
</svg>
