<?xml version="1.0" encoding="utf-8"?>
<!-- Generator: Adobe Illustrator 19.2.1, SVG Export Plug-In . SVG Version: 6.00 Build 0)  -->
<svg version="1.1" id="BRAND_-_Osram" xmlns="http://www.w3.org/2000/svg" xmlns:xlink="http://www.w3.org/1999/xlink" x="0px"
	 y="0px" viewBox="0 0 60 60" style="enable-background:new 0 0 60 60;" xml:space="preserve">
<style type="text/css">
	.Arched_x0020_Green{fill:url(#SVGID_1_);stroke:#FFFFFF;stroke-width:0.25;stroke-miterlimit:1;}
	.st0{fill-rule:evenodd;clip-rule:evenodd;fill:#E27E3B;}
</style>
<linearGradient id="SVGID_1_" gradientUnits="userSpaceOnUse" x1="-20" y1="262.2046" x2="-19.2929" y2="261.4975">
	<stop  offset="0" style="stop-color:#1EAB4B"/>
	<stop  offset="0.9831" style="stop-color:#19361A"/>
</linearGradient>
<path class="st0" d="M12.2,30c0,3.9-2.4,6.6-6.1,6.6C2.4,36.6,0,33.9,0,30c0-3.9,2.6-6.6,6.1-6.6C9.6,23.4,12.2,26,12.2,30L12.2,30z
	 M9.2,30c0-2-0.9-4-3.1-4C3.9,26,3,28,3,30c0,1.9,1,3.9,3.1,3.9C8.2,33.9,9.2,31.8,9.2,30L9.2,30z M23.2,32.6c0,2.4-2.3,4-5.1,4
	c-5.5,0-5.2-4.1-5.2-4.5h2.9c-0.1,1.3,1.2,2,2.4,2c0.9,0,1.9-0.2,2.1-1.3c0.3-2.3-7.2-0.6-7.2-5.4c0-2.5,2.5-3.9,5-3.9
	c3.5,0,5.1,2.1,5.1,4.3h-3c0,0,0.1-1.8-2.1-1.8c-0.9,0-1.9,0.3-2,1.2C15.8,29.3,23.1,27.7,23.2,32.6L23.2,32.6z M34.8,28
	c0,1.8-0.9,3.2-2.5,4l2.1,4.2h-3.2l-1.9-4h-1.9v4h-2.9V23.8h6.4C33.1,23.8,34.8,25.6,34.8,28L34.8,28z M31.8,28
	c0-0.9-0.5-1.7-1.4-1.7h-3v3.4h3C31.2,29.7,31.8,28.8,31.8,28L31.8,28z M47.2,36.2h-3.1l-0.7-2.1h-4.9l-0.7,2.1h-3.1l4.5-12.5h3.6
	L47.2,36.2L47.2,36.2z M42.5,31.5l-1.6-4.6v0l-1.6,4.5H42.5L42.5,31.5z M60,36.2h-3l0-6.9l-3,5.1l-3-4.9v6.7h-3.1V23.7l3.2,0
	l2.9,5.1l3.1-5.1l3.1,0V36.2L60,36.2z"/>
<g>
</g>
<g>
</g>
<g>
</g>
<g>
</g>
<g>
</g>
<g>
</g>
</svg>
