<?xml version="1.0" encoding="utf-8"?>
<!-- Generator: Adobe Illustrator 21.1.0, SVG Export Plug-In . SVG Version: 6.00 Build 0)  -->
<svg version="1.1" id="BRAND_-_Osram" xmlns="http://www.w3.org/2000/svg" xmlns:xlink="http://www.w3.org/1999/xlink" x="0px"
	 y="0px" viewBox="0 0 60 60" style="enable-background:new 0 0 60 60;" xml:space="preserve">
<style type="text/css">
	.st0{clip-path:url(#SVGID_4_);fill:#555555;}
	.st1{clip-path:url(#SVGID_10_);fill:#272727;}
</style>
<g>
	<g>
		<g>
			<defs>
				<path id="SVGID_1_" d="M4.25,24.44c-0.5-0.3-0.79-0.6-0.79-1.19s0.3-0.89,0.89-0.89c2.08,0,4.17,0,6.25,0
					c0.4,0,0.79,0.2,0.89,0.6s0.1,0.79-0.3,1.09c-0.4,0.3-0.6,0.69-0.69,1.29c-0.1,0.6-0.2,1.09-0.4,1.59
					c0.79-0.79,1.69-1.69,2.48-2.48c-0.1-0.1-0.2-0.2-0.3-0.4c-0.3-0.4-0.3-0.79-0.1-1.19c0.2-0.4,0.5-0.4,0.89-0.4
					c1.89,0,3.87,0,5.76,0c0.5,0,0.79,0.2,0.89,0.5c0.1,0.5,0,1.09-0.4,1.29c-1.39,0.6-2.08,1.79-3.08,2.78
					c-0.3,0.3-0.6,0.6-0.89,0.89c-0.69,0.69-1.39,1.39-1.99,2.08c-0.1,0.1-0.1,0.3-0.1,0.5c0.69,1.59,1.29,3.18,1.99,4.77
					c0.1,0.1,0.2,0.3,0.3,0.4c0.4,0.3,0.69,0.69,0.69,1.19c0,0.4-0.3,0.69-0.69,0.69c-1.79,0-3.57,0-5.36,0
					c-0.5,0-0.89-0.6-0.69-1.09c0.1-0.5,0.4-0.79,0.89-0.89c-0.5-1.19-0.99-2.28-1.39-3.47h-0.1c-0.4,1.19-0.89,2.28-1.29,3.47
					c0.2,0.2,0.4,0.3,0.6,0.5c0.5,0.79,0.1,1.59-0.79,1.59c-2.08,0-4.07,0-6.16,0c-0.3,0-0.6-0.2-0.69-0.5c-0.2-0.6,0-0.99,0.4-1.29
					c0.2-0.1,0.3-0.3,0.4-0.5c0.89-3.47,1.89-6.85,2.78-10.33C4.25,24.74,4.25,24.64,4.25,24.44z M45.06,35.56
					c0.6,0.3,0.79,0.89,0.69,1.39c-0.1,0.4-0.4,0.6-0.79,0.6c-2.08,0-4.07,0-6.16,0c-0.4,0-0.6-0.2-0.79-0.5
					c-0.2-0.5-0.1-0.89,0.3-1.09c0.4-0.2,0.6-0.6,0.69-0.99c0.5-1.49,0.89-2.98,1.39-4.47c0.5-1.59,0.89-3.08,1.39-4.77
					c-0.2,0-0.3,0-0.5,0c-5.96,0-11.91,0-17.87,0c-0.5,0-0.99-0.1-1.29-0.5c-0.5-0.5-0.6-1.19-0.3-1.79
					c0.2-0.69,0.69-0.89,1.39-0.99c0.3,0,0.6,0,0.79,0c0.6,0.1,0.99,0.5,0.99,1.09c0.2,0,0.3,0,0.4,0c10.33,0,20.65,0,31.08,0
					c0.3,0,0.5,0,0.6-0.3c0.4-0.69,1.09-0.79,1.89-0.69c0.6,0.1,0.89,0.6,0.99,1.19c0.2,0.99-0.2,1.79-1.09,1.99c-0.1,0-0.3,0-0.4,0
					c-3.28,0-6.65,0-9.93,0c-0.4,0-0.5,0.1-0.6,0.5c-0.79,2.48-1.59,4.96-2.28,7.45C45.45,34.17,45.26,34.86,45.06,35.56z
					 M35.43,35.36c0.3,0.3,0.5,0.5,0.69,0.69c0.2,0.3,0.1,0.6,0,0.89c-0.1,0.4-0.5,0.6-0.79,0.6c-2.08,0-4.17,0-6.16,0
					c-0.3,0-0.79-0.4-0.89-0.69c-0.1-0.4,0-0.89,0.4-1.09c0.3-0.2,0.4-0.4,0.5-0.69c0.3-1.09,0.69-2.18,0.99-3.28
					c0.2-0.69,0.4-1.49,0.69-2.18c0.1-0.2,0-0.3-0.2-0.4c-0.3-0.3-0.5-0.89-0.3-1.39c0.1-0.4,0.4-0.5,0.69-0.5c2.18,0,4.37,0,6.55,0
					c0.6,0,0.79,0.4,0.69,1.09c0,0.4-0.3,0.69-0.6,0.89c-0.1,0.1-0.3,0.2-0.3,0.3C36.72,31.49,36.12,33.47,35.43,35.36z
					 M27.29,31.79c0,1.39-0.5,2.68-1.39,3.77c-0.69,0.79-1.49,1.39-2.48,1.69c-1.69,0.5-3.47,0-4.57-1.59
					c-1.09-1.49-1.09-3.08-0.5-4.77c0.4-1.29,1.29-2.28,2.48-3.08c0.6-0.3,1.19-0.5,1.89-0.5c0.89-0.1,1.69,0.1,2.38,0.5
					c1.29,0.69,1.99,1.69,2.18,3.08C27.19,31.19,27.29,31.49,27.29,31.79z M21.03,32.78c0,0,0,0.1,0,0.2c0,0.99,0.89,1.49,1.79,1.09
					c0.99-0.5,1.49-1.29,1.49-2.48c0-0.5-0.2-0.89-0.6-1.09c-0.5-0.2-0.99-0.3-1.49,0C21.33,31.09,20.93,31.79,21.03,32.78z
					 M58.46,31.89c0,1.99-0.89,3.57-2.48,4.77c-1.59,1.09-3.57,1.19-5.16,0c-1.09-0.79-1.79-1.99-1.79-3.47
					c0-1.39,0.3-2.68,1.19-3.77c0.89-1.19,1.99-1.89,3.57-1.99c0.99-0.1,1.99,0.1,2.78,0.69c0.99,0.69,1.69,1.59,1.79,2.88
					C58.46,31.19,58.46,31.59,58.46,31.89z M55.48,31.59c0-0.3-0.2-0.69-0.69-0.99c-0.5-0.2-0.99-0.3-1.49,0.1
					c-0.99,0.69-1.19,1.59-0.99,2.58s1.09,1.29,1.79,0.89C54.99,33.67,55.38,32.88,55.48,31.59z"/>
			</defs>
			<clipPath id="SVGID_2_">
				<use xlink:href="#SVGID_1_"  style="overflow:visible;"/>
			</clipPath>
		</g>
		<g>
			<defs>
				<path id="SVGID_3_" d="M4.25,24.44c-0.5-0.3-0.79-0.6-0.79-1.19s0.3-0.89,0.89-0.89c2.08,0,4.17,0,6.25,0
					c0.4,0,0.79,0.2,0.89,0.6s0.1,0.79-0.3,1.09c-0.4,0.3-0.6,0.69-0.69,1.29c-0.1,0.6-0.2,1.09-0.4,1.59
					c0.79-0.79,1.69-1.69,2.48-2.48c-0.1-0.1-0.2-0.2-0.3-0.4c-0.3-0.4-0.3-0.79-0.1-1.19c0.2-0.4,0.5-0.4,0.89-0.4
					c1.89,0,3.87,0,5.76,0c0.5,0,0.79,0.2,0.89,0.5c0.1,0.5,0,1.09-0.4,1.29c-1.39,0.6-2.08,1.79-3.08,2.78
					c-0.3,0.3-0.6,0.6-0.89,0.89c-0.69,0.69-1.39,1.39-1.99,2.08c-0.1,0.1-0.1,0.3-0.1,0.5c0.69,1.59,1.29,3.18,1.99,4.77
					c0.1,0.1,0.2,0.3,0.3,0.4c0.4,0.3,0.69,0.69,0.69,1.19c0,0.4-0.3,0.69-0.69,0.69c-1.79,0-3.57,0-5.36,0
					c-0.5,0-0.89-0.6-0.69-1.09c0.1-0.5,0.4-0.79,0.89-0.89c-0.5-1.19-0.99-2.28-1.39-3.47h-0.1c-0.4,1.19-0.89,2.28-1.29,3.47
					c0.2,0.2,0.4,0.3,0.6,0.5c0.5,0.79,0.1,1.59-0.79,1.59c-2.08,0-4.07,0-6.16,0c-0.3,0-0.6-0.2-0.69-0.5c-0.2-0.6,0-0.99,0.4-1.29
					c0.2-0.1,0.3-0.3,0.4-0.5c0.89-3.47,1.89-6.85,2.78-10.33C4.25,24.74,4.25,24.64,4.25,24.44z M45.06,35.56
					c0.6,0.3,0.79,0.89,0.69,1.39c-0.1,0.4-0.4,0.6-0.79,0.6c-2.08,0-4.07,0-6.16,0c-0.4,0-0.6-0.2-0.79-0.5
					c-0.2-0.5-0.1-0.89,0.3-1.09c0.4-0.2,0.6-0.6,0.69-0.99c0.5-1.49,0.89-2.98,1.39-4.47c0.5-1.59,0.89-3.08,1.39-4.77
					c-0.2,0-0.3,0-0.5,0c-5.96,0-11.91,0-17.87,0c-0.5,0-0.99-0.1-1.29-0.5c-0.5-0.5-0.6-1.19-0.3-1.79
					c0.2-0.69,0.69-0.89,1.39-0.99c0.3,0,0.6,0,0.79,0c0.6,0.1,0.99,0.5,0.99,1.09c0.2,0,0.3,0,0.4,0c10.33,0,20.65,0,31.08,0
					c0.3,0,0.5,0,0.6-0.3c0.4-0.69,1.09-0.79,1.89-0.69c0.6,0.1,0.89,0.6,0.99,1.19c0.2,0.99-0.2,1.79-1.09,1.99c-0.1,0-0.3,0-0.4,0
					c-3.28,0-6.65,0-9.93,0c-0.4,0-0.5,0.1-0.6,0.5c-0.79,2.48-1.59,4.96-2.28,7.45C45.45,34.17,45.26,34.86,45.06,35.56z
					 M35.43,35.36c0.3,0.3,0.5,0.5,0.69,0.69c0.2,0.3,0.1,0.6,0,0.89c-0.1,0.4-0.5,0.6-0.79,0.6c-2.08,0-4.17,0-6.16,0
					c-0.3,0-0.79-0.4-0.89-0.69c-0.1-0.4,0-0.89,0.4-1.09c0.3-0.2,0.4-0.4,0.5-0.69c0.3-1.09,0.69-2.18,0.99-3.28
					c0.2-0.69,0.4-1.49,0.69-2.18c0.1-0.2,0-0.3-0.2-0.4c-0.3-0.3-0.5-0.89-0.3-1.39c0.1-0.4,0.4-0.5,0.69-0.5c2.18,0,4.37,0,6.55,0
					c0.6,0,0.79,0.4,0.69,1.09c0,0.4-0.3,0.69-0.6,0.89c-0.1,0.1-0.3,0.2-0.3,0.3C36.72,31.49,36.12,33.47,35.43,35.36z
					 M27.29,31.79c0,1.39-0.5,2.68-1.39,3.77c-0.69,0.79-1.49,1.39-2.48,1.69c-1.69,0.5-3.47,0-4.57-1.59
					c-1.09-1.49-1.09-3.08-0.5-4.77c0.4-1.29,1.29-2.28,2.48-3.08c0.6-0.3,1.19-0.5,1.89-0.5c0.89-0.1,1.69,0.1,2.38,0.5
					c1.29,0.69,1.99,1.69,2.18,3.08C27.19,31.19,27.29,31.49,27.29,31.79z M21.03,32.78c0,0,0,0.1,0,0.2c0,0.99,0.89,1.49,1.79,1.09
					c0.99-0.5,1.49-1.29,1.49-2.48c0-0.5-0.2-0.89-0.6-1.09c-0.5-0.2-0.99-0.3-1.49,0C21.33,31.09,20.93,31.79,21.03,32.78z
					 M58.46,31.89c0,1.99-0.89,3.57-2.48,4.77c-1.59,1.09-3.57,1.19-5.16,0c-1.09-0.79-1.79-1.99-1.79-3.47
					c0-1.39,0.3-2.68,1.19-3.77c0.89-1.19,1.99-1.89,3.57-1.99c0.99-0.1,1.99,0.1,2.78,0.69c0.99,0.69,1.69,1.59,1.79,2.88
					C58.46,31.19,58.46,31.59,58.46,31.89z M55.48,31.59c0-0.3-0.2-0.69-0.69-0.99c-0.5-0.2-0.99-0.3-1.49,0.1
					c-0.99,0.69-1.19,1.59-0.99,2.58s1.09,1.29,1.79,0.89C54.99,33.67,55.38,32.88,55.48,31.59z"/>
			</defs>
			<use xlink:href="#SVGID_3_"  style="overflow:visible;fill:#555555;"/>
			<clipPath id="SVGID_4_">
				<use xlink:href="#SVGID_3_"  style="overflow:visible;"/>
			</clipPath>
			<path class="st0" d="M4.75,24.94c-0.5-0.3-0.79-0.6-0.79-1.19s0.3-0.89,0.89-0.89c2.08,0,4.17,0,6.25,0c0.4,0,0.79,0.2,0.89,0.6
				s0.1,0.79-0.3,1.09c-0.4,0.3-0.6,0.69-0.69,1.29c-0.1,0.6-0.2,1.09-0.4,1.59c0.79-0.79,1.69-1.69,2.48-2.48
				c-0.1-0.1-0.2-0.2-0.3-0.4c-0.3-0.4-0.3-0.79-0.1-1.19c0.2-0.4,0.5-0.4,0.89-0.4c1.89,0,3.87,0,5.76,0c0.5,0,0.79,0.2,0.89,0.5
				c0.1,0.5,0,1.09-0.4,1.29c-1.39,0.6-2.08,1.79-3.08,2.78c-0.3,0.3-0.6,0.6-0.89,0.89c-0.69,0.69-1.39,1.39-1.99,2.08
				c-0.1,0.1-0.1,0.3-0.1,0.5c0.69,1.59,1.29,3.18,1.99,4.77c0.1,0.1,0.2,0.3,0.3,0.4c0.4,0.3,0.69,0.69,0.69,1.19
				c0,0.4-0.3,0.69-0.69,0.69c-1.79,0-3.57,0-5.36,0c-0.5,0-0.89-0.6-0.69-1.09c0.1-0.5,0.4-0.79,0.89-0.89
				c-0.5-1.19-0.99-2.28-1.39-3.47h-0.1c-0.4,1.19-0.89,2.28-1.29,3.47c0.2,0.2,0.4,0.3,0.6,0.5c0.5,0.79,0.1,1.59-0.79,1.59
				c-2.08,0-4.07,0-6.16,0c-0.3,0-0.6-0.2-0.69-0.5c-0.2-0.6,0-0.99,0.4-1.29c0.2-0.1,0.3-0.3,0.4-0.5
				c0.89-3.47,1.89-6.85,2.78-10.33C4.75,25.24,4.75,25.14,4.75,24.94z M45.56,36.06c0.6,0.3,0.79,0.89,0.69,1.39
				c-0.1,0.4-0.4,0.6-0.79,0.6c-2.08,0-4.07,0-6.16,0c-0.4,0-0.6-0.2-0.79-0.5c-0.2-0.5-0.1-0.89,0.3-1.09
				c0.4-0.2,0.6-0.6,0.69-0.99c0.5-1.49,0.89-2.98,1.39-4.47c0.5-1.59,0.89-3.08,1.39-4.77c-0.2,0-0.3,0-0.5,0
				c-5.96,0-11.91,0-17.87,0c-0.5,0-0.99-0.1-1.29-0.5c-0.5-0.5-0.6-1.19-0.3-1.79c0.2-0.69,0.69-0.89,1.39-0.99c0.3,0,0.6,0,0.79,0
				c0.6,0.1,0.99,0.5,0.99,1.09c0.2,0,0.3,0,0.4,0c10.33,0,20.65,0,31.08,0c0.3,0,0.5,0,0.6-0.3c0.4-0.69,1.09-0.79,1.89-0.69
				c0.6,0.1,0.89,0.6,0.99,1.19c0.2,0.99-0.2,1.79-1.09,1.99c-0.1,0-0.3,0-0.4,0c-3.28,0-6.65,0-9.93,0c-0.4,0-0.5,0.1-0.6,0.5
				c-0.79,2.48-1.59,4.96-2.28,7.45C45.95,34.67,45.76,35.36,45.56,36.06z M35.93,35.86c0.3,0.3,0.5,0.5,0.69,0.69
				c0.2,0.3,0.1,0.6,0,0.89c-0.1,0.4-0.5,0.6-0.79,0.6c-2.08,0-4.17,0-6.16,0c-0.3,0-0.79-0.4-0.89-0.69c-0.1-0.4,0-0.89,0.4-1.09
				c0.3-0.2,0.4-0.4,0.5-0.69c0.3-1.09,0.69-2.18,0.99-3.28c0.2-0.69,0.4-1.49,0.69-2.18c0.1-0.2,0-0.3-0.2-0.4
				c-0.3-0.3-0.5-0.89-0.3-1.39c0.1-0.4,0.4-0.5,0.69-0.5c2.18,0,4.37,0,6.55,0c0.6,0,0.79,0.4,0.69,1.09c0,0.4-0.3,0.69-0.6,0.89
				c-0.1,0.1-0.3,0.2-0.3,0.3C37.22,31.99,36.62,33.97,35.93,35.86z M27.79,32.29c0,1.39-0.5,2.68-1.39,3.77
				c-0.69,0.79-1.49,1.39-2.48,1.69c-1.69,0.5-3.47,0-4.57-1.59c-1.09-1.49-1.09-3.08-0.5-4.77c0.4-1.29,1.29-2.28,2.48-3.08
				c0.6-0.3,1.19-0.5,1.89-0.5c0.89-0.1,1.69,0.1,2.38,0.5c1.29,0.69,1.99,1.69,2.18,3.08C27.69,31.69,27.79,31.99,27.79,32.29z
				 M21.53,33.28c0,0,0,0.1,0,0.2c0,0.99,0.89,1.49,1.79,1.09c0.99-0.5,1.49-1.29,1.49-2.48c0-0.5-0.2-0.89-0.6-1.09
				c-0.5-0.2-0.99-0.3-1.49,0C21.83,31.59,21.43,32.29,21.53,33.28z M58.96,32.39c0,1.99-0.89,3.57-2.48,4.77
				c-1.59,1.09-3.57,1.19-5.16,0c-1.09-0.79-1.79-1.99-1.79-3.47c0-1.39,0.3-2.68,1.19-3.77c0.89-1.19,1.99-1.89,3.57-1.99
				c0.99-0.1,1.99,0.1,2.78,0.69c0.99,0.69,1.69,1.59,1.79,2.88C58.96,31.69,58.96,32.09,58.96,32.39z M55.98,32.09
				c0-0.3-0.2-0.69-0.69-0.99c-0.5-0.2-0.99-0.3-1.49,0.1c-0.99,0.69-1.19,1.59-0.99,2.58s1.09,1.29,1.79,0.89
				C55.49,34.17,55.88,33.38,55.98,32.09z"/>
		</g>
		<g>
			<defs>
				<path id="SVGID_5_" d="M4.25,24.44c-0.5-0.3-0.79-0.6-0.79-1.19s0.3-0.89,0.89-0.89c2.08,0,4.17,0,6.25,0
					c0.4,0,0.79,0.2,0.89,0.6s0.1,0.79-0.3,1.09c-0.4,0.3-0.6,0.69-0.69,1.29c-0.1,0.6-0.2,1.09-0.4,1.59
					c0.79-0.79,1.69-1.69,2.48-2.48c-0.1-0.1-0.2-0.2-0.3-0.4c-0.3-0.4-0.3-0.79-0.1-1.19c0.2-0.4,0.5-0.4,0.89-0.4
					c1.89,0,3.87,0,5.76,0c0.5,0,0.79,0.2,0.89,0.5c0.1,0.5,0,1.09-0.4,1.29c-1.39,0.6-2.08,1.79-3.08,2.78
					c-0.3,0.3-0.6,0.6-0.89,0.89c-0.69,0.69-1.39,1.39-1.99,2.08c-0.1,0.1-0.1,0.3-0.1,0.5c0.69,1.59,1.29,3.18,1.99,4.77
					c0.1,0.1,0.2,0.3,0.3,0.4c0.4,0.3,0.69,0.69,0.69,1.19c0,0.4-0.3,0.69-0.69,0.69c-1.79,0-3.57,0-5.36,0
					c-0.5,0-0.89-0.6-0.69-1.09c0.1-0.5,0.4-0.79,0.89-0.89c-0.5-1.19-0.99-2.28-1.39-3.47h-0.1c-0.4,1.19-0.89,2.28-1.29,3.47
					c0.2,0.2,0.4,0.3,0.6,0.5c0.5,0.79,0.1,1.59-0.79,1.59c-2.08,0-4.07,0-6.16,0c-0.3,0-0.6-0.2-0.69-0.5c-0.2-0.6,0-0.99,0.4-1.29
					c0.2-0.1,0.3-0.3,0.4-0.5c0.89-3.47,1.89-6.85,2.78-10.33C4.25,24.74,4.25,24.64,4.25,24.44z M45.06,35.56
					c0.6,0.3,0.79,0.89,0.69,1.39c-0.1,0.4-0.4,0.6-0.79,0.6c-2.08,0-4.07,0-6.16,0c-0.4,0-0.6-0.2-0.79-0.5
					c-0.2-0.5-0.1-0.89,0.3-1.09c0.4-0.2,0.6-0.6,0.69-0.99c0.5-1.49,0.89-2.98,1.39-4.47c0.5-1.59,0.89-3.08,1.39-4.77
					c-0.2,0-0.3,0-0.5,0c-5.96,0-11.91,0-17.87,0c-0.5,0-0.99-0.1-1.29-0.5c-0.5-0.5-0.6-1.19-0.3-1.79
					c0.2-0.69,0.69-0.89,1.39-0.99c0.3,0,0.6,0,0.79,0c0.6,0.1,0.99,0.5,0.99,1.09c0.2,0,0.3,0,0.4,0c10.33,0,20.65,0,31.08,0
					c0.3,0,0.5,0,0.6-0.3c0.4-0.69,1.09-0.79,1.89-0.69c0.6,0.1,0.89,0.6,0.99,1.19c0.2,0.99-0.2,1.79-1.09,1.99c-0.1,0-0.3,0-0.4,0
					c-3.28,0-6.65,0-9.93,0c-0.4,0-0.5,0.1-0.6,0.5c-0.79,2.48-1.59,4.96-2.28,7.45C45.45,34.17,45.26,34.86,45.06,35.56z
					 M35.43,35.36c0.3,0.3,0.5,0.5,0.69,0.69c0.2,0.3,0.1,0.6,0,0.89c-0.1,0.4-0.5,0.6-0.79,0.6c-2.08,0-4.17,0-6.16,0
					c-0.3,0-0.79-0.4-0.89-0.69c-0.1-0.4,0-0.89,0.4-1.09c0.3-0.2,0.4-0.4,0.5-0.69c0.3-1.09,0.69-2.18,0.99-3.28
					c0.2-0.69,0.4-1.49,0.69-2.18c0.1-0.2,0-0.3-0.2-0.4c-0.3-0.3-0.5-0.89-0.3-1.39c0.1-0.4,0.4-0.5,0.69-0.5c2.18,0,4.37,0,6.55,0
					c0.6,0,0.79,0.4,0.69,1.09c0,0.4-0.3,0.69-0.6,0.89c-0.1,0.1-0.3,0.2-0.3,0.3C36.72,31.49,36.12,33.47,35.43,35.36z
					 M27.29,31.79c0,1.39-0.5,2.68-1.39,3.77c-0.69,0.79-1.49,1.39-2.48,1.69c-1.69,0.5-3.47,0-4.57-1.59
					c-1.09-1.49-1.09-3.08-0.5-4.77c0.4-1.29,1.29-2.28,2.48-3.08c0.6-0.3,1.19-0.5,1.89-0.5c0.89-0.1,1.69,0.1,2.38,0.5
					c1.29,0.69,1.99,1.69,2.18,3.08C27.19,31.19,27.29,31.49,27.29,31.79z M21.03,32.78c0,0,0,0.1,0,0.2c0,0.99,0.89,1.49,1.79,1.09
					c0.99-0.5,1.49-1.29,1.49-2.48c0-0.5-0.2-0.89-0.6-1.09c-0.5-0.2-0.99-0.3-1.49,0C21.33,31.09,20.93,31.79,21.03,32.78z
					 M58.46,31.89c0,1.99-0.89,3.57-2.48,4.77c-1.59,1.09-3.57,1.19-5.16,0c-1.09-0.79-1.79-1.99-1.79-3.47
					c0-1.39,0.3-2.68,1.19-3.77c0.89-1.19,1.99-1.89,3.57-1.99c0.99-0.1,1.99,0.1,2.78,0.69c0.99,0.69,1.69,1.59,1.79,2.88
					C58.46,31.19,58.46,31.59,58.46,31.89z M55.48,31.59c0-0.3-0.2-0.69-0.69-0.99c-0.5-0.2-0.99-0.3-1.49,0.1
					c-0.99,0.69-1.19,1.59-0.99,2.58s1.09,1.29,1.79,0.89C54.99,33.67,55.38,32.88,55.48,31.59z"/>
			</defs>
			<clipPath id="SVGID_6_">
				<use xlink:href="#SVGID_5_"  style="overflow:visible;"/>
			</clipPath>
		</g>
	</g>
	<g>
		<g>
			<defs>
				<path id="SVGID_7_" d="M3.75,23.94c-0.5-0.3-0.79-0.6-0.79-1.19s0.3-0.89,0.89-0.89c2.08,0,4.17,0,6.25,0
					c0.4,0,0.79,0.2,0.89,0.6s0.1,0.79-0.3,1.09c-0.4,0.3-0.6,0.69-0.69,1.29c-0.1,0.6-0.2,1.09-0.4,1.59
					c0.79-0.79,1.69-1.69,2.48-2.48c-0.1-0.1-0.2-0.2-0.3-0.4c-0.3-0.4-0.3-0.79-0.1-1.19c0.2-0.4,0.5-0.4,0.89-0.4
					c1.89,0,3.87,0,5.76,0c0.5,0,0.79,0.2,0.89,0.5c0.1,0.5,0,1.09-0.4,1.29c-1.39,0.6-2.08,1.79-3.08,2.78
					c-0.3,0.3-0.6,0.6-0.89,0.89c-0.69,0.69-1.39,1.39-1.99,2.08c-0.1,0.1-0.1,0.3-0.1,0.5c0.69,1.59,1.29,3.18,1.99,4.77
					c0.1,0.1,0.2,0.3,0.3,0.4c0.4,0.3,0.69,0.69,0.69,1.19c0,0.4-0.3,0.69-0.69,0.69c-1.79,0-3.57,0-5.36,0
					c-0.5,0-0.89-0.6-0.69-1.09c0.1-0.5,0.4-0.79,0.89-0.89c-0.5-1.19-0.99-2.28-1.39-3.47h-0.1c-0.4,1.19-0.89,2.28-1.29,3.47
					c0.2,0.2,0.4,0.3,0.6,0.5c0.5,0.79,0.1,1.59-0.79,1.59c-2.08,0-4.07,0-6.16,0c-0.3,0-0.6-0.2-0.69-0.5c-0.2-0.6,0-0.99,0.4-1.29
					c0.2-0.1,0.3-0.3,0.4-0.5c0.89-3.47,1.89-6.85,2.78-10.33C3.75,24.24,3.75,24.14,3.75,23.94z M44.56,35.06
					c0.6,0.3,0.79,0.89,0.69,1.39c-0.1,0.4-0.4,0.6-0.79,0.6c-2.08,0-4.07,0-6.16,0c-0.4,0-0.6-0.2-0.79-0.5
					c-0.2-0.5-0.1-0.89,0.3-1.09c0.4-0.2,0.6-0.6,0.69-0.99c0.5-1.49,0.89-2.98,1.39-4.47c0.5-1.59,0.89-3.08,1.39-4.77
					c-0.2,0-0.3,0-0.5,0c-5.96,0-11.91,0-17.87,0c-0.5,0-0.99-0.1-1.29-0.5c-0.5-0.5-0.6-1.19-0.3-1.79
					c0.2-0.69,0.69-0.89,1.39-0.99c0.3,0,0.6,0,0.79,0c0.6,0.1,0.99,0.5,0.99,1.09c0.2,0,0.3,0,0.4,0c10.33,0,20.65,0,31.08,0
					c0.3,0,0.5,0,0.6-0.3c0.4-0.69,1.09-0.79,1.89-0.69c0.6,0.1,0.89,0.6,0.99,1.19c0.2,0.99-0.2,1.79-1.09,1.99c-0.1,0-0.3,0-0.4,0
					c-3.28,0-6.65,0-9.93,0c-0.4,0-0.5,0.1-0.6,0.5c-0.79,2.48-1.59,4.96-2.28,7.45C44.95,33.67,44.76,34.36,44.56,35.06z
					 M34.93,34.86c0.3,0.3,0.5,0.5,0.69,0.69c0.2,0.3,0.1,0.6,0,0.89c-0.1,0.4-0.5,0.6-0.79,0.6c-2.08,0-4.17,0-6.16,0
					c-0.3,0-0.79-0.4-0.89-0.69c-0.1-0.4,0-0.89,0.4-1.09c0.3-0.2,0.4-0.4,0.5-0.69c0.3-1.09,0.69-2.18,0.99-3.28
					c0.2-0.69,0.4-1.49,0.69-2.18c0.1-0.2,0-0.3-0.2-0.4c-0.3-0.3-0.5-0.89-0.3-1.39c0.1-0.4,0.4-0.5,0.69-0.5c2.18,0,4.37,0,6.55,0
					c0.6,0,0.79,0.4,0.69,1.09c0,0.4-0.3,0.69-0.6,0.89c-0.1,0.1-0.3,0.2-0.3,0.3C36.22,30.99,35.62,32.97,34.93,34.86z
					 M26.79,31.29c0,1.39-0.5,2.68-1.39,3.77c-0.69,0.79-1.49,1.39-2.48,1.69c-1.69,0.5-3.47,0-4.57-1.59
					c-1.09-1.49-1.09-3.08-0.5-4.77c0.4-1.29,1.29-2.28,2.48-3.08c0.6-0.3,1.19-0.5,1.89-0.5c0.89-0.1,1.69,0.1,2.38,0.5
					c1.29,0.69,1.99,1.69,2.18,3.08C26.69,30.69,26.79,30.99,26.79,31.29z M20.53,32.28c0,0,0,0.1,0,0.2c0,0.99,0.89,1.49,1.79,1.09
					c0.99-0.5,1.49-1.29,1.49-2.48c0-0.5-0.2-0.89-0.6-1.09c-0.5-0.2-0.99-0.3-1.49,0C20.83,30.59,20.43,31.29,20.53,32.28z
					 M57.96,31.39c0,1.99-0.89,3.57-2.48,4.77c-1.59,1.09-3.57,1.19-5.16,0c-1.09-0.79-1.79-1.99-1.79-3.47
					c0-1.39,0.3-2.68,1.19-3.77c0.89-1.19,1.99-1.89,3.57-1.99c0.99-0.1,1.99,0.1,2.78,0.69c0.99,0.69,1.69,1.59,1.79,2.88
					C57.96,30.69,57.96,31.09,57.96,31.39z M54.98,31.09c0-0.3-0.2-0.69-0.69-0.99c-0.5-0.2-0.99-0.3-1.49,0.1
					c-0.99,0.69-1.19,1.59-0.99,2.58c0.2,0.99,1.09,1.29,1.79,0.89C54.49,33.17,54.88,32.38,54.98,31.09z"/>
			</defs>
			<clipPath id="SVGID_8_">
				<use xlink:href="#SVGID_7_"  style="overflow:visible;"/>
			</clipPath>
		</g>
		<g>
			<defs>
				<path id="SVGID_9_" d="M3.75,23.94c-0.5-0.3-0.79-0.6-0.79-1.19s0.3-0.89,0.89-0.89c2.08,0,4.17,0,6.25,0
					c0.4,0,0.79,0.2,0.89,0.6s0.1,0.79-0.3,1.09c-0.4,0.3-0.6,0.69-0.69,1.29c-0.1,0.6-0.2,1.09-0.4,1.59
					c0.79-0.79,1.69-1.69,2.48-2.48c-0.1-0.1-0.2-0.2-0.3-0.4c-0.3-0.4-0.3-0.79-0.1-1.19c0.2-0.4,0.5-0.4,0.89-0.4
					c1.89,0,3.87,0,5.76,0c0.5,0,0.79,0.2,0.89,0.5c0.1,0.5,0,1.09-0.4,1.29c-1.39,0.6-2.08,1.79-3.08,2.78
					c-0.3,0.3-0.6,0.6-0.89,0.89c-0.69,0.69-1.39,1.39-1.99,2.08c-0.1,0.1-0.1,0.3-0.1,0.5c0.69,1.59,1.29,3.18,1.99,4.77
					c0.1,0.1,0.2,0.3,0.3,0.4c0.4,0.3,0.69,0.69,0.69,1.19c0,0.4-0.3,0.69-0.69,0.69c-1.79,0-3.57,0-5.36,0
					c-0.5,0-0.89-0.6-0.69-1.09c0.1-0.5,0.4-0.79,0.89-0.89c-0.5-1.19-0.99-2.28-1.39-3.47h-0.1c-0.4,1.19-0.89,2.28-1.29,3.47
					c0.2,0.2,0.4,0.3,0.6,0.5c0.5,0.79,0.1,1.59-0.79,1.59c-2.08,0-4.07,0-6.16,0c-0.3,0-0.6-0.2-0.69-0.5c-0.2-0.6,0-0.99,0.4-1.29
					c0.2-0.1,0.3-0.3,0.4-0.5c0.89-3.47,1.89-6.85,2.78-10.33C3.75,24.24,3.75,24.14,3.75,23.94z M44.56,35.06
					c0.6,0.3,0.79,0.89,0.69,1.39c-0.1,0.4-0.4,0.6-0.79,0.6c-2.08,0-4.07,0-6.16,0c-0.4,0-0.6-0.2-0.79-0.5
					c-0.2-0.5-0.1-0.89,0.3-1.09c0.4-0.2,0.6-0.6,0.69-0.99c0.5-1.49,0.89-2.98,1.39-4.47c0.5-1.59,0.89-3.08,1.39-4.77
					c-0.2,0-0.3,0-0.5,0c-5.96,0-11.91,0-17.87,0c-0.5,0-0.99-0.1-1.29-0.5c-0.5-0.5-0.6-1.19-0.3-1.79
					c0.2-0.69,0.69-0.89,1.39-0.99c0.3,0,0.6,0,0.79,0c0.6,0.1,0.99,0.5,0.99,1.09c0.2,0,0.3,0,0.4,0c10.33,0,20.65,0,31.08,0
					c0.3,0,0.5,0,0.6-0.3c0.4-0.69,1.09-0.79,1.89-0.69c0.6,0.1,0.89,0.6,0.99,1.19c0.2,0.99-0.2,1.79-1.09,1.99c-0.1,0-0.3,0-0.4,0
					c-3.28,0-6.65,0-9.93,0c-0.4,0-0.5,0.1-0.6,0.5c-0.79,2.48-1.59,4.96-2.28,7.45C44.95,33.67,44.76,34.36,44.56,35.06z
					 M34.93,34.86c0.3,0.3,0.5,0.5,0.69,0.69c0.2,0.3,0.1,0.6,0,0.89c-0.1,0.4-0.5,0.6-0.79,0.6c-2.08,0-4.17,0-6.16,0
					c-0.3,0-0.79-0.4-0.89-0.69c-0.1-0.4,0-0.89,0.4-1.09c0.3-0.2,0.4-0.4,0.5-0.69c0.3-1.09,0.69-2.18,0.99-3.28
					c0.2-0.69,0.4-1.49,0.69-2.18c0.1-0.2,0-0.3-0.2-0.4c-0.3-0.3-0.5-0.89-0.3-1.39c0.1-0.4,0.4-0.5,0.69-0.5c2.18,0,4.37,0,6.55,0
					c0.6,0,0.79,0.4,0.69,1.09c0,0.4-0.3,0.69-0.6,0.89c-0.1,0.1-0.3,0.2-0.3,0.3C36.22,30.99,35.62,32.97,34.93,34.86z
					 M26.79,31.29c0,1.39-0.5,2.68-1.39,3.77c-0.69,0.79-1.49,1.39-2.48,1.69c-1.69,0.5-3.47,0-4.57-1.59
					c-1.09-1.49-1.09-3.08-0.5-4.77c0.4-1.29,1.29-2.28,2.48-3.08c0.6-0.3,1.19-0.5,1.89-0.5c0.89-0.1,1.69,0.1,2.38,0.5
					c1.29,0.69,1.99,1.69,2.18,3.08C26.69,30.69,26.79,30.99,26.79,31.29z M20.53,32.28c0,0,0,0.1,0,0.2c0,0.99,0.89,1.49,1.79,1.09
					c0.99-0.5,1.49-1.29,1.49-2.48c0-0.5-0.2-0.89-0.6-1.09c-0.5-0.2-0.99-0.3-1.49,0C20.83,30.59,20.43,31.29,20.53,32.28z
					 M57.96,31.39c0,1.99-0.89,3.57-2.48,4.77c-1.59,1.09-3.57,1.19-5.16,0c-1.09-0.79-1.79-1.99-1.79-3.47
					c0-1.39,0.3-2.68,1.19-3.77c0.89-1.19,1.99-1.89,3.57-1.99c0.99-0.1,1.99,0.1,2.78,0.69c0.99,0.69,1.69,1.59,1.79,2.88
					C57.96,30.69,57.96,31.09,57.96,31.39z M54.98,31.09c0-0.3-0.2-0.69-0.69-0.99c-0.5-0.2-0.99-0.3-1.49,0.1
					c-0.99,0.69-1.19,1.59-0.99,2.58c0.2,0.99,1.09,1.29,1.79,0.89C54.49,33.17,54.88,32.38,54.98,31.09z"/>
			</defs>
			<use xlink:href="#SVGID_9_"  style="overflow:visible;fill:#111111;"/>
			<clipPath id="SVGID_10_">
				<use xlink:href="#SVGID_9_"  style="overflow:visible;"/>
			</clipPath>
			<path class="st1" d="M4.25,24.44c-0.5-0.3-0.79-0.6-0.79-1.19s0.3-0.89,0.89-0.89c2.08,0,4.17,0,6.25,0c0.4,0,0.79,0.2,0.89,0.6
				s0.1,0.79-0.3,1.09c-0.4,0.3-0.6,0.69-0.69,1.29c-0.1,0.6-0.2,1.09-0.4,1.59c0.79-0.79,1.69-1.69,2.48-2.48
				c-0.1-0.1-0.2-0.2-0.3-0.4c-0.3-0.4-0.3-0.79-0.1-1.19c0.2-0.4,0.5-0.4,0.89-0.4c1.89,0,3.87,0,5.76,0c0.5,0,0.79,0.2,0.89,0.5
				c0.1,0.5,0,1.09-0.4,1.29c-1.39,0.6-2.08,1.79-3.08,2.78c-0.3,0.3-0.6,0.6-0.89,0.89c-0.69,0.69-1.39,1.39-1.99,2.08
				c-0.1,0.1-0.1,0.3-0.1,0.5c0.69,1.59,1.29,3.18,1.99,4.77c0.1,0.1,0.2,0.3,0.3,0.4c0.4,0.3,0.69,0.69,0.69,1.19
				c0,0.4-0.3,0.69-0.69,0.69c-1.79,0-3.57,0-5.36,0c-0.5,0-0.89-0.6-0.69-1.09c0.1-0.5,0.4-0.79,0.89-0.89
				c-0.5-1.19-0.99-2.28-1.39-3.47h-0.1c-0.4,1.19-0.89,2.28-1.29,3.47c0.2,0.2,0.4,0.3,0.6,0.5c0.5,0.79,0.1,1.59-0.79,1.59
				c-2.08,0-4.07,0-6.16,0c-0.3,0-0.6-0.2-0.69-0.5c-0.2-0.6,0-0.99,0.4-1.29c0.2-0.1,0.3-0.3,0.4-0.5
				c0.89-3.47,1.89-6.85,2.78-10.33C4.25,24.74,4.25,24.64,4.25,24.44z M45.06,35.56c0.6,0.3,0.79,0.89,0.69,1.39
				c-0.1,0.4-0.4,0.6-0.79,0.6c-2.08,0-4.07,0-6.16,0c-0.4,0-0.6-0.2-0.79-0.5c-0.2-0.5-0.1-0.89,0.3-1.09
				c0.4-0.2,0.6-0.6,0.69-0.99c0.5-1.49,0.89-2.98,1.39-4.47c0.5-1.59,0.89-3.08,1.39-4.77c-0.2,0-0.3,0-0.5,0
				c-5.96,0-11.91,0-17.87,0c-0.5,0-0.99-0.1-1.29-0.5c-0.5-0.5-0.6-1.19-0.3-1.79c0.2-0.69,0.69-0.89,1.39-0.99c0.3,0,0.6,0,0.79,0
				c0.6,0.1,0.99,0.5,0.99,1.09c0.2,0,0.3,0,0.4,0c10.33,0,20.65,0,31.08,0c0.3,0,0.5,0,0.6-0.3c0.4-0.69,1.09-0.79,1.89-0.69
				c0.6,0.1,0.89,0.6,0.99,1.19c0.2,0.99-0.2,1.79-1.09,1.99c-0.1,0-0.3,0-0.4,0c-3.28,0-6.65,0-9.93,0c-0.4,0-0.5,0.1-0.6,0.5
				c-0.79,2.48-1.59,4.96-2.28,7.45C45.45,34.17,45.26,34.86,45.06,35.56z M35.43,35.36c0.3,0.3,0.5,0.5,0.69,0.69
				c0.2,0.3,0.1,0.6,0,0.89c-0.1,0.4-0.5,0.6-0.79,0.6c-2.08,0-4.17,0-6.16,0c-0.3,0-0.79-0.4-0.89-0.69c-0.1-0.4,0-0.89,0.4-1.09
				c0.3-0.2,0.4-0.4,0.5-0.69c0.3-1.09,0.69-2.18,0.99-3.28c0.2-0.69,0.4-1.49,0.69-2.18c0.1-0.2,0-0.3-0.2-0.4
				c-0.3-0.3-0.5-0.89-0.3-1.39c0.1-0.4,0.4-0.5,0.69-0.5c2.18,0,4.37,0,6.55,0c0.6,0,0.79,0.4,0.69,1.09c0,0.4-0.3,0.69-0.6,0.89
				c-0.1,0.1-0.3,0.2-0.3,0.3C36.72,31.49,36.12,33.47,35.43,35.36z M27.29,31.79c0,1.39-0.5,2.68-1.39,3.77
				c-0.69,0.79-1.49,1.39-2.48,1.69c-1.69,0.5-3.47,0-4.57-1.59c-1.09-1.49-1.09-3.08-0.5-4.77c0.4-1.29,1.29-2.28,2.48-3.08
				c0.6-0.3,1.19-0.5,1.89-0.5c0.89-0.1,1.69,0.1,2.38,0.5c1.29,0.69,1.99,1.69,2.18,3.08C27.19,31.19,27.29,31.49,27.29,31.79z
				 M21.03,32.78c0,0,0,0.1,0,0.2c0,0.99,0.89,1.49,1.79,1.09c0.99-0.5,1.49-1.29,1.49-2.48c0-0.5-0.2-0.89-0.6-1.09
				c-0.5-0.2-0.99-0.3-1.49,0C21.33,31.09,20.93,31.79,21.03,32.78z M58.46,31.89c0,1.99-0.89,3.57-2.48,4.77
				c-1.59,1.09-3.57,1.19-5.16,0c-1.09-0.79-1.79-1.99-1.79-3.47c0-1.39,0.3-2.68,1.19-3.77c0.89-1.19,1.99-1.89,3.57-1.99
				c0.99-0.1,1.99,0.1,2.78,0.69c0.99,0.69,1.69,1.59,1.79,2.88C58.46,31.19,58.46,31.59,58.46,31.89z M55.48,31.59
				c0-0.3-0.2-0.69-0.69-0.99c-0.5-0.2-0.99-0.3-1.49,0.1c-0.99,0.69-1.19,1.59-0.99,2.58s1.09,1.29,1.79,0.89
				C54.99,33.67,55.38,32.88,55.48,31.59z"/>
		</g>
		<g>
			<defs>
				<path id="SVGID_11_" d="M3.75,23.94c-0.5-0.3-0.79-0.6-0.79-1.19s0.3-0.89,0.89-0.89c2.08,0,4.17,0,6.25,0
					c0.4,0,0.79,0.2,0.89,0.6s0.1,0.79-0.3,1.09c-0.4,0.3-0.6,0.69-0.69,1.29c-0.1,0.6-0.2,1.09-0.4,1.59
					c0.79-0.79,1.69-1.69,2.48-2.48c-0.1-0.1-0.2-0.2-0.3-0.4c-0.3-0.4-0.3-0.79-0.1-1.19c0.2-0.4,0.5-0.4,0.89-0.4
					c1.89,0,3.87,0,5.76,0c0.5,0,0.79,0.2,0.89,0.5c0.1,0.5,0,1.09-0.4,1.29c-1.39,0.6-2.08,1.79-3.08,2.78
					c-0.3,0.3-0.6,0.6-0.89,0.89c-0.69,0.69-1.39,1.39-1.99,2.08c-0.1,0.1-0.1,0.3-0.1,0.5c0.69,1.59,1.29,3.18,1.99,4.77
					c0.1,0.1,0.2,0.3,0.3,0.4c0.4,0.3,0.69,0.69,0.69,1.19c0,0.4-0.3,0.69-0.69,0.69c-1.79,0-3.57,0-5.36,0
					c-0.5,0-0.89-0.6-0.69-1.09c0.1-0.5,0.4-0.79,0.89-0.89c-0.5-1.19-0.99-2.28-1.39-3.47h-0.1c-0.4,1.19-0.89,2.28-1.29,3.47
					c0.2,0.2,0.4,0.3,0.6,0.5c0.5,0.79,0.1,1.59-0.79,1.59c-2.08,0-4.07,0-6.16,0c-0.3,0-0.6-0.2-0.69-0.5c-0.2-0.6,0-0.99,0.4-1.29
					c0.2-0.1,0.3-0.3,0.4-0.5c0.89-3.47,1.89-6.85,2.78-10.33C3.75,24.24,3.75,24.14,3.75,23.94z M44.56,35.06
					c0.6,0.3,0.79,0.89,0.69,1.39c-0.1,0.4-0.4,0.6-0.79,0.6c-2.08,0-4.07,0-6.16,0c-0.4,0-0.6-0.2-0.79-0.5
					c-0.2-0.5-0.1-0.89,0.3-1.09c0.4-0.2,0.6-0.6,0.69-0.99c0.5-1.49,0.89-2.98,1.39-4.47c0.5-1.59,0.89-3.08,1.39-4.77
					c-0.2,0-0.3,0-0.5,0c-5.96,0-11.91,0-17.87,0c-0.5,0-0.99-0.1-1.29-0.5c-0.5-0.5-0.6-1.19-0.3-1.79
					c0.2-0.69,0.69-0.89,1.39-0.99c0.3,0,0.6,0,0.79,0c0.6,0.1,0.99,0.5,0.99,1.09c0.2,0,0.3,0,0.4,0c10.33,0,20.65,0,31.08,0
					c0.3,0,0.5,0,0.6-0.3c0.4-0.69,1.09-0.79,1.89-0.69c0.6,0.1,0.89,0.6,0.99,1.19c0.2,0.99-0.2,1.79-1.09,1.99c-0.1,0-0.3,0-0.4,0
					c-3.28,0-6.65,0-9.93,0c-0.4,0-0.5,0.1-0.6,0.5c-0.79,2.48-1.59,4.96-2.28,7.45C44.95,33.67,44.76,34.36,44.56,35.06z
					 M34.93,34.86c0.3,0.3,0.5,0.5,0.69,0.69c0.2,0.3,0.1,0.6,0,0.89c-0.1,0.4-0.5,0.6-0.79,0.6c-2.08,0-4.17,0-6.16,0
					c-0.3,0-0.79-0.4-0.89-0.69c-0.1-0.4,0-0.89,0.4-1.09c0.3-0.2,0.4-0.4,0.5-0.69c0.3-1.09,0.69-2.18,0.99-3.28
					c0.2-0.69,0.4-1.49,0.69-2.18c0.1-0.2,0-0.3-0.2-0.4c-0.3-0.3-0.5-0.89-0.3-1.39c0.1-0.4,0.4-0.5,0.69-0.5c2.18,0,4.37,0,6.55,0
					c0.6,0,0.79,0.4,0.69,1.09c0,0.4-0.3,0.69-0.6,0.89c-0.1,0.1-0.3,0.2-0.3,0.3C36.22,30.99,35.62,32.97,34.93,34.86z
					 M26.79,31.29c0,1.39-0.5,2.68-1.39,3.77c-0.69,0.79-1.49,1.39-2.48,1.69c-1.69,0.5-3.47,0-4.57-1.59
					c-1.09-1.49-1.09-3.08-0.5-4.77c0.4-1.29,1.29-2.28,2.48-3.08c0.6-0.3,1.19-0.5,1.89-0.5c0.89-0.1,1.69,0.1,2.38,0.5
					c1.29,0.69,1.99,1.69,2.18,3.08C26.69,30.69,26.79,30.99,26.79,31.29z M20.53,32.28c0,0,0,0.1,0,0.2c0,0.99,0.89,1.49,1.79,1.09
					c0.99-0.5,1.49-1.29,1.49-2.48c0-0.5-0.2-0.89-0.6-1.09c-0.5-0.2-0.99-0.3-1.49,0C20.83,30.59,20.43,31.29,20.53,32.28z
					 M57.96,31.39c0,1.99-0.89,3.57-2.48,4.77c-1.59,1.09-3.57,1.19-5.16,0c-1.09-0.79-1.79-1.99-1.79-3.47
					c0-1.39,0.3-2.68,1.19-3.77c0.89-1.19,1.99-1.89,3.57-1.99c0.99-0.1,1.99,0.1,2.78,0.69c0.99,0.69,1.69,1.59,1.79,2.88
					C57.96,30.69,57.96,31.09,57.96,31.39z M54.98,31.09c0-0.3-0.2-0.69-0.69-0.99c-0.5-0.2-0.99-0.3-1.49,0.1
					c-0.99,0.69-1.19,1.59-0.99,2.58c0.2,0.99,1.09,1.29,1.79,0.89C54.49,33.17,54.88,32.38,54.98,31.09z"/>
			</defs>
			<clipPath id="SVGID_12_">
				<use xlink:href="#SVGID_11_"  style="overflow:visible;"/>
			</clipPath>
		</g>
	</g>
</g>
</svg>
