<?xml version="1.0" encoding="utf-8"?>
<!-- Generator: Adobe Illustrator 21.1.0, SVG Export Plug-In . SVG Version: 6.00 Build 0)  -->
<svg version="1.1" id="BRAND_-_Osram" xmlns="http://www.w3.org/2000/svg" xmlns:xlink="http://www.w3.org/1999/xlink" x="0px"
	 y="0px" viewBox="0 0 60 60" style="enable-background:new 0 0 60 60;" xml:space="preserve">
<style type="text/css">
	.st0{fill:#CCCCCC;}
	.st1{fill:url(#SVGID_1_);}
</style>
<g>
	<path class="st0" d="M55.25,35.08c1.74,0,3.19-0.68,4.15-1.69L60,34.27c-1.17,1.26-2.83,1.96-4.75,1.96
		c-3.58,0-6.26-2.69-6.26-6.23c0-3.54,2.69-6.23,6.26-6.23c1.92,0,3.58,0.69,4.75,1.96l-0.61,0.87c-0.96-1.01-2.4-1.69-4.15-1.69
		c-2.92,0-5.02,2.19-5.02,5.09S52.33,35.08,55.25,35.08z"/>
	<g>
		<linearGradient id="SVGID_1_" gradientUnits="userSpaceOnUse" x1="23.2001" y1="36.2329" x2="23.2001" y2="23.7671">
			<stop  offset="0" style="stop-color:#BABCBE"/>
			<stop  offset="0.2377" style="stop-color:#808083"/>
			<stop  offset="0.5617" style="stop-color:#F1F1F1"/>
			<stop  offset="0.616" style="stop-color:#FFFFFF"/>
			<stop  offset="1" style="stop-color:#CFD1D2"/>
		</linearGradient>
		<path class="st1" d="M11.72,24.84c-0.12-0.12-0.18-0.27-0.18-0.45c0-0.17,0.06-0.31,0.18-0.43c0.12-0.13,0.27-0.19,0.45-0.19
			c0.17,0,0.31,0.07,0.43,0.19c0.13,0.12,0.19,0.26,0.19,0.43c0,0.18-0.07,0.33-0.19,0.45c-0.12,0.12-0.26,0.18-0.43,0.18
			C11.98,25.01,11.83,24.96,11.72,24.84z M11.72,26.09c-0.12-0.12-0.18-0.27-0.18-0.45c0-0.17,0.06-0.31,0.18-0.43
			c0.12-0.13,0.27-0.19,0.45-0.19c0.17,0,0.31,0.07,0.43,0.19c0.13,0.12,0.19,0.26,0.19,0.43c0,0.18-0.07,0.33-0.19,0.45
			c-0.12,0.12-0.26,0.18-0.43,0.18C11.98,26.26,11.83,26.2,11.72,26.09z M11.83,27.25c-0.12-0.1-0.18-0.23-0.18-0.37
			c0-0.1,0.05-0.21,0.14-0.31c0.12-0.12,0.24-0.18,0.37-0.18c0.1,0,0.21,0.05,0.31,0.14c0.12,0.12,0.18,0.23,0.18,0.35
			c0,0.14-0.05,0.27-0.14,0.37c-0.1,0.09-0.22,0.14-0.35,0.14C12.05,27.39,11.94,27.34,11.83,27.25z M11.83,28.5
			c-0.12-0.1-0.18-0.23-0.18-0.37c0-0.1,0.05-0.21,0.14-0.31c0.12-0.12,0.24-0.18,0.37-0.18c0.1,0,0.21,0.05,0.31,0.14
			c0.12,0.12,0.18,0.23,0.18,0.35c0,0.14-0.05,0.27-0.14,0.37c-0.1,0.09-0.22,0.14-0.35,0.14C12.05,28.64,11.94,28.59,11.83,28.5z
			 M11.83,32.24c-0.12-0.1-0.18-0.23-0.18-0.37c0-0.1,0.05-0.21,0.14-0.31c0.12-0.12,0.24-0.18,0.37-0.18c0.1,0,0.21,0.05,0.31,0.14
			c0.12,0.12,0.18,0.23,0.18,0.35c0,0.14-0.05,0.27-0.14,0.37c-0.1,0.09-0.22,0.14-0.35,0.14C12.05,32.38,11.94,32.33,11.83,32.24z
			 M11.91,29.65c-0.09-0.08-0.14-0.17-0.14-0.27c0-0.08,0.04-0.16,0.12-0.23c0.08-0.09,0.17-0.14,0.27-0.14
			c0.08,0,0.16,0.04,0.23,0.12c0.09,0.08,0.14,0.16,0.14,0.25c0,0.1-0.04,0.19-0.12,0.27c-0.07,0.08-0.15,0.12-0.25,0.12
			C12.07,29.77,11.99,29.73,11.91,29.65z M11.91,30.9c-0.09-0.08-0.14-0.17-0.14-0.27c0-0.08,0.04-0.16,0.12-0.23
			c0.08-0.09,0.17-0.14,0.27-0.14c0.08,0,0.16,0.04,0.23,0.12c0.09,0.08,0.14,0.16,0.14,0.25c0,0.1-0.04,0.19-0.12,0.27
			c-0.07,0.08-0.15,0.12-0.25,0.12C12.07,31.01,11.99,30.97,11.91,30.9z M12.96,24.84c-0.12-0.12-0.18-0.27-0.18-0.45
			c0-0.17,0.06-0.31,0.18-0.43c0.12-0.13,0.27-0.19,0.45-0.19c0.17,0,0.31,0.07,0.43,0.19c0.13,0.12,0.19,0.26,0.19,0.43
			c0,0.18-0.07,0.33-0.19,0.45c-0.12,0.12-0.26,0.18-0.43,0.18C13.23,25.01,13.08,24.96,12.96,24.84z M12.96,26.09
			c-0.12-0.12-0.18-0.27-0.18-0.45c0-0.17,0.06-0.31,0.18-0.43c0.12-0.13,0.27-0.19,0.45-0.19c0.17,0,0.31,0.07,0.43,0.19
			c0.13,0.12,0.19,0.26,0.19,0.43c0,0.18-0.07,0.33-0.19,0.45c-0.12,0.12-0.26,0.18-0.43,0.18C13.23,26.26,13.08,26.2,12.96,26.09z
			 M13.08,27.25c-0.12-0.1-0.18-0.23-0.18-0.37c0-0.1,0.05-0.21,0.14-0.31c0.12-0.12,0.24-0.18,0.37-0.18c0.1,0,0.21,0.05,0.31,0.14
			c0.12,0.12,0.18,0.23,0.18,0.35c0,0.14-0.05,0.27-0.14,0.37c-0.1,0.09-0.22,0.14-0.35,0.14C13.29,27.39,13.18,27.34,13.08,27.25z
			 M13.08,28.5c-0.12-0.1-0.18-0.23-0.18-0.37c0-0.1,0.05-0.21,0.14-0.31c0.12-0.12,0.24-0.18,0.37-0.18c0.1,0,0.21,0.05,0.31,0.14
			c0.12,0.12,0.18,0.23,0.18,0.35c0,0.14-0.05,0.27-0.14,0.37c-0.1,0.09-0.22,0.14-0.35,0.14C13.29,28.64,13.18,28.59,13.08,28.5z
			 M13.08,32.24c-0.12-0.1-0.18-0.23-0.18-0.37c0-0.1,0.05-0.21,0.14-0.31c0.12-0.12,0.24-0.18,0.37-0.18c0.1,0,0.21,0.05,0.31,0.14
			c0.12,0.12,0.18,0.23,0.18,0.35c0,0.14-0.05,0.27-0.14,0.37c-0.1,0.09-0.22,0.14-0.35,0.14C13.29,32.38,13.18,32.33,13.08,32.24z
			 M13.16,29.65c-0.09-0.08-0.14-0.17-0.14-0.27c0-0.08,0.04-0.16,0.12-0.23c0.08-0.09,0.17-0.14,0.27-0.14
			c0.08,0,0.16,0.04,0.23,0.12c0.09,0.08,0.14,0.16,0.14,0.25c0,0.1-0.04,0.19-0.12,0.27c-0.07,0.08-0.15,0.12-0.25,0.12
			C13.32,29.77,13.24,29.73,13.16,29.65z M13.16,30.9c-0.09-0.08-0.14-0.17-0.14-0.27c0-0.08,0.04-0.16,0.12-0.23
			c0.08-0.09,0.17-0.14,0.27-0.14c0.08,0,0.16,0.04,0.23,0.12c0.09,0.08,0.14,0.16,0.14,0.25c0,0.1-0.04,0.19-0.12,0.27
			c-0.07,0.08-0.15,0.12-0.25,0.12C13.32,31.01,13.24,30.97,13.16,30.9z M14.21,24.84c-0.12-0.12-0.18-0.27-0.18-0.45
			c0-0.17,0.06-0.31,0.18-0.43c0.12-0.13,0.27-0.19,0.45-0.19c0.17,0,0.31,0.07,0.43,0.19c0.13,0.12,0.19,0.26,0.19,0.43
			c0,0.18-0.07,0.33-0.19,0.45c-0.12,0.12-0.26,0.18-0.43,0.18C14.48,25.01,14.33,24.96,14.21,24.84z M14.21,26.09
			c-0.12-0.12-0.18-0.27-0.18-0.45c0-0.17,0.06-0.31,0.18-0.43c0.12-0.13,0.27-0.19,0.45-0.19c0.17,0,0.31,0.07,0.43,0.19
			c0.13,0.12,0.19,0.26,0.19,0.43c0,0.18-0.07,0.33-0.19,0.45c-0.12,0.12-0.26,0.18-0.43,0.18C14.48,26.26,14.33,26.2,14.21,26.09z
			 M14.33,27.25c-0.12-0.1-0.18-0.23-0.18-0.37c0-0.1,0.05-0.21,0.14-0.31c0.12-0.12,0.24-0.18,0.37-0.18c0.1,0,0.21,0.05,0.31,0.14
			c0.12,0.12,0.18,0.23,0.18,0.35c0,0.14-0.05,0.27-0.14,0.37c-0.1,0.09-0.22,0.14-0.35,0.14C14.54,27.39,14.43,27.34,14.33,27.25z
			 M14.33,28.5c-0.12-0.1-0.18-0.23-0.18-0.37c0-0.1,0.05-0.21,0.14-0.31c0.12-0.12,0.24-0.18,0.37-0.18c0.1,0,0.21,0.05,0.31,0.14
			c0.12,0.12,0.18,0.23,0.18,0.35c0,0.14-0.05,0.27-0.14,0.37c-0.1,0.09-0.22,0.14-0.35,0.14C14.54,28.64,14.43,28.59,14.33,28.5z
			 M14.33,32.24c-0.12-0.1-0.18-0.23-0.18-0.37c0-0.1,0.05-0.21,0.14-0.31c0.12-0.12,0.24-0.18,0.37-0.18c0.1,0,0.21,0.05,0.31,0.14
			c0.12,0.12,0.18,0.23,0.18,0.35c0,0.14-0.05,0.27-0.14,0.37c-0.1,0.09-0.22,0.14-0.35,0.14C14.54,32.38,14.43,32.33,14.33,32.24z
			 M14.4,29.65c-0.09-0.08-0.14-0.17-0.14-0.27c0-0.08,0.04-0.16,0.12-0.23c0.08-0.09,0.17-0.14,0.27-0.14
			c0.08,0,0.16,0.04,0.23,0.12c0.09,0.08,0.14,0.16,0.14,0.25c0,0.1-0.04,0.19-0.12,0.27c-0.07,0.08-0.15,0.12-0.25,0.12
			C14.57,29.77,14.48,29.73,14.4,29.65z M14.4,30.9c-0.09-0.08-0.14-0.17-0.14-0.27c0-0.08,0.04-0.16,0.12-0.23
			c0.08-0.09,0.17-0.14,0.27-0.14c0.08,0,0.16,0.04,0.23,0.12c0.09,0.08,0.14,0.16,0.14,0.25c0,0.1-0.04,0.19-0.12,0.27
			c-0.07,0.08-0.15,0.12-0.25,0.12C14.57,31.01,14.48,30.97,14.4,30.9z M15.46,24.84c-0.12-0.12-0.18-0.27-0.18-0.45
			c0-0.17,0.06-0.31,0.18-0.43c0.12-0.13,0.27-0.19,0.45-0.19c0.17,0,0.31,0.07,0.43,0.19c0.13,0.12,0.19,0.26,0.19,0.43
			c0,0.18-0.07,0.33-0.19,0.45c-0.12,0.12-0.26,0.18-0.43,0.18C15.72,25.01,15.57,24.96,15.46,24.84z M15.46,26.09
			c-0.12-0.12-0.18-0.27-0.18-0.45c0-0.17,0.06-0.31,0.18-0.43c0.12-0.13,0.27-0.19,0.45-0.19c0.17,0,0.31,0.07,0.43,0.19
			c0.13,0.12,0.19,0.26,0.19,0.43c0,0.18-0.07,0.33-0.19,0.45c-0.12,0.12-0.26,0.18-0.43,0.18C15.72,26.26,15.57,26.2,15.46,26.09z
			 M15.65,29.65c-0.09-0.08-0.14-0.17-0.14-0.27c0-0.08,0.04-0.16,0.12-0.23c0.08-0.09,0.17-0.14,0.27-0.14
			c0.08,0,0.16,0.04,0.23,0.12c0.09,0.08,0.14,0.16,0.14,0.25c0,0.1-0.04,0.19-0.12,0.27c-0.06,0.08-0.15,0.12-0.25,0.12
			C15.81,29.77,15.73,29.73,15.65,29.65z M15.65,30.9c-0.09-0.08-0.14-0.17-0.14-0.27c0-0.08,0.04-0.16,0.12-0.23
			c0.08-0.09,0.17-0.14,0.27-0.14c0.08,0,0.16,0.04,0.23,0.12c0.09,0.08,0.14,0.16,0.14,0.25c0,0.1-0.04,0.19-0.12,0.27
			c-0.06,0.08-0.15,0.12-0.25,0.12C15.81,31.01,15.73,30.97,15.65,30.9z M16.7,24.84c-0.12-0.12-0.18-0.27-0.18-0.45
			c0-0.17,0.06-0.31,0.18-0.43c0.12-0.13,0.27-0.19,0.45-0.19c0.17,0,0.31,0.07,0.43,0.19c0.13,0.12,0.19,0.26,0.19,0.43
			c0,0.18-0.06,0.33-0.19,0.45c-0.12,0.12-0.26,0.18-0.43,0.18C16.97,25.01,16.82,24.96,16.7,24.84z M16.7,26.09
			c-0.12-0.12-0.18-0.27-0.18-0.45c0-0.17,0.06-0.31,0.18-0.43c0.12-0.13,0.27-0.19,0.45-0.19c0.17,0,0.31,0.07,0.43,0.19
			c0.13,0.12,0.19,0.26,0.19,0.43c0,0.18-0.06,0.33-0.19,0.45c-0.12,0.12-0.26,0.18-0.43,0.18C16.97,26.26,16.82,26.2,16.7,26.09z
			 M16.9,29.65c-0.09-0.08-0.14-0.17-0.14-0.27c0-0.08,0.04-0.16,0.12-0.23c0.08-0.09,0.17-0.14,0.27-0.14
			c0.08,0,0.16,0.04,0.23,0.12c0.09,0.08,0.14,0.16,0.14,0.25c0,0.1-0.04,0.19-0.12,0.27c-0.07,0.08-0.15,0.12-0.25,0.12
			C17.06,29.77,16.98,29.73,16.9,29.65z M16.9,30.9c-0.09-0.08-0.14-0.17-0.14-0.27c0-0.08,0.04-0.16,0.12-0.23
			c0.08-0.09,0.17-0.14,0.27-0.14c0.08,0,0.16,0.04,0.23,0.12c0.09,0.08,0.14,0.16,0.14,0.25c0,0.1-0.04,0.19-0.12,0.27
			c-0.07,0.08-0.15,0.12-0.25,0.12C17.06,31.01,16.98,30.97,16.9,30.9z M17.95,24.84c-0.12-0.12-0.18-0.27-0.18-0.45
			c0-0.17,0.06-0.31,0.18-0.43c0.12-0.13,0.27-0.19,0.45-0.19c0.17,0,0.31,0.07,0.43,0.19c0.13,0.12,0.19,0.26,0.19,0.43
			c0,0.18-0.07,0.33-0.19,0.45c-0.12,0.12-0.26,0.18-0.43,0.18C18.22,25.01,18.07,24.96,17.95,24.84z M17.95,26.09
			c-0.12-0.12-0.18-0.27-0.18-0.45c0-0.17,0.06-0.31,0.18-0.43c0.12-0.13,0.27-0.19,0.45-0.19c0.17,0,0.31,0.07,0.43,0.19
			c0.13,0.12,0.19,0.26,0.19,0.43c0,0.18-0.07,0.33-0.19,0.45c-0.12,0.12-0.26,0.18-0.43,0.18C18.22,26.26,18.07,26.2,17.95,26.09z
			 M18.14,29.65c-0.09-0.08-0.14-0.17-0.14-0.27c0-0.08,0.04-0.16,0.12-0.23c0.08-0.09,0.17-0.14,0.27-0.14
			c0.08,0,0.16,0.04,0.23,0.12c0.09,0.08,0.14,0.16,0.14,0.25c0,0.1-0.04,0.19-0.12,0.27c-0.07,0.08-0.15,0.12-0.25,0.12
			C18.31,29.77,18.22,29.73,18.14,29.65z M18.14,30.9c-0.09-0.08-0.14-0.17-0.14-0.27c0-0.08,0.04-0.16,0.12-0.23
			c0.08-0.09,0.17-0.14,0.27-0.14c0.08,0,0.16,0.04,0.23,0.12c0.09,0.08,0.14,0.16,0.14,0.25c0,0.1-0.04,0.19-0.12,0.27
			c-0.07,0.08-0.15,0.12-0.25,0.12C18.31,31.01,18.22,30.97,18.14,30.9z M19.2,24.84c-0.12-0.12-0.18-0.27-0.18-0.45
			c0-0.17,0.06-0.31,0.18-0.43c0.12-0.13,0.27-0.19,0.45-0.19c0.17,0,0.31,0.07,0.43,0.19c0.13,0.12,0.19,0.26,0.19,0.43
			c0,0.18-0.07,0.33-0.19,0.45c-0.12,0.12-0.26,0.18-0.43,0.18C19.46,25.01,19.31,24.96,19.2,24.84z M19.2,26.09
			c-0.12-0.12-0.18-0.27-0.18-0.45c0-0.17,0.06-0.31,0.18-0.43c0.12-0.13,0.27-0.19,0.45-0.19c0.17,0,0.31,0.07,0.43,0.19
			c0.13,0.12,0.19,0.26,0.19,0.43c0,0.18-0.07,0.33-0.19,0.45c-0.12,0.12-0.26,0.18-0.43,0.18C19.46,26.26,19.31,26.2,19.2,26.09z
			 M19.2,34.81c-0.12-0.12-0.18-0.27-0.18-0.45c0-0.17,0.06-0.31,0.18-0.43c0.12-0.13,0.27-0.19,0.45-0.19
			c0.17,0,0.31,0.07,0.43,0.19c0.13,0.12,0.19,0.26,0.19,0.43c0,0.18-0.07,0.33-0.19,0.45c-0.12,0.12-0.26,0.18-0.43,0.18
			C19.46,34.99,19.31,34.93,19.2,34.81z M19.2,36.06c-0.12-0.12-0.18-0.27-0.18-0.45c0-0.17,0.06-0.31,0.18-0.43
			c0.12-0.13,0.27-0.19,0.45-0.19c0.17,0,0.31,0.07,0.43,0.19c0.13,0.12,0.19,0.26,0.19,0.43c0,0.18-0.07,0.33-0.19,0.45
			c-0.12,0.12-0.26,0.18-0.43,0.18C19.46,36.23,19.31,36.17,19.2,36.06z M19.39,29.65c-0.09-0.08-0.14-0.17-0.14-0.27
			c0-0.08,0.04-0.16,0.12-0.23c0.08-0.09,0.17-0.14,0.27-0.14c0.08,0,0.16,0.04,0.23,0.12c0.09,0.08,0.14,0.16,0.14,0.25
			c0,0.1-0.04,0.19-0.12,0.27c-0.07,0.08-0.15,0.12-0.25,0.12C19.55,29.77,19.47,29.73,19.39,29.65z M19.39,30.9
			c-0.09-0.08-0.14-0.17-0.14-0.27c0-0.08,0.04-0.16,0.12-0.23c0.08-0.09,0.17-0.14,0.27-0.14c0.08,0,0.16,0.04,0.23,0.12
			c0.09,0.08,0.14,0.16,0.14,0.25c0,0.1-0.04,0.19-0.12,0.27c-0.07,0.08-0.15,0.12-0.25,0.12C19.55,31.01,19.47,30.97,19.39,30.9z
			 M20.44,24.84c-0.12-0.12-0.18-0.27-0.18-0.45c0-0.17,0.06-0.31,0.18-0.43c0.12-0.13,0.27-0.19,0.45-0.19
			c0.17,0,0.31,0.07,0.43,0.19c0.13,0.12,0.19,0.26,0.19,0.43c0,0.18-0.07,0.33-0.19,0.45c-0.12,0.12-0.26,0.18-0.43,0.18
			C20.71,25.01,20.56,24.96,20.44,24.84z M20.44,26.09c-0.12-0.12-0.18-0.27-0.18-0.45c0-0.17,0.06-0.31,0.18-0.43
			c0.12-0.13,0.27-0.19,0.45-0.19c0.17,0,0.31,0.07,0.43,0.19c0.13,0.12,0.19,0.26,0.19,0.43c0,0.18-0.07,0.33-0.19,0.45
			c-0.12,0.12-0.26,0.18-0.43,0.18C20.71,26.26,20.56,26.2,20.44,26.09z M20.44,34.81c-0.12-0.12-0.18-0.27-0.18-0.45
			c0-0.17,0.06-0.31,0.18-0.43c0.12-0.13,0.27-0.19,0.45-0.19c0.17,0,0.31,0.07,0.43,0.19c0.13,0.12,0.19,0.26,0.19,0.43
			c0,0.18-0.07,0.33-0.19,0.45c-0.12,0.12-0.26,0.18-0.43,0.18C20.71,34.99,20.56,34.93,20.44,34.81z M20.44,36.06
			c-0.12-0.12-0.18-0.27-0.18-0.45c0-0.17,0.06-0.31,0.18-0.43c0.12-0.13,0.27-0.19,0.45-0.19c0.17,0,0.31,0.07,0.43,0.19
			c0.13,0.12,0.19,0.26,0.19,0.43c0,0.18-0.07,0.33-0.19,0.45c-0.12,0.12-0.26,0.18-0.43,0.18C20.71,36.23,20.56,36.17,20.44,36.06z
			 M20.64,29.65c-0.09-0.08-0.14-0.17-0.14-0.27c0-0.08,0.04-0.16,0.12-0.23c0.08-0.09,0.17-0.14,0.27-0.14
			c0.08,0,0.16,0.04,0.23,0.12c0.09,0.08,0.14,0.16,0.14,0.25c0,0.1-0.04,0.19-0.12,0.27c-0.07,0.08-0.15,0.12-0.25,0.12
			C20.8,29.77,20.72,29.73,20.64,29.65z M20.64,30.9c-0.09-0.08-0.14-0.17-0.14-0.27c0-0.08,0.04-0.16,0.12-0.23
			c0.08-0.09,0.17-0.14,0.27-0.14c0.08,0,0.16,0.04,0.23,0.12c0.09,0.08,0.14,0.16,0.14,0.25c0,0.1-0.04,0.19-0.12,0.27
			c-0.07,0.08-0.15,0.12-0.25,0.12C20.8,31.01,20.72,30.97,20.64,30.9z M21.69,24.84c-0.12-0.12-0.18-0.27-0.18-0.45
			c0-0.17,0.06-0.31,0.18-0.43c0.12-0.13,0.27-0.19,0.45-0.19c0.17,0,0.31,0.07,0.43,0.19c0.13,0.12,0.19,0.26,0.19,0.43
			c0,0.18-0.07,0.33-0.19,0.45c-0.12,0.12-0.26,0.18-0.43,0.18C21.95,25.01,21.81,24.96,21.69,24.84z M21.69,26.09
			c-0.12-0.12-0.18-0.27-0.18-0.45c0-0.17,0.06-0.31,0.18-0.43c0.12-0.13,0.27-0.19,0.45-0.19c0.17,0,0.31,0.07,0.43,0.19
			c0.13,0.12,0.19,0.26,0.19,0.43c0,0.18-0.07,0.33-0.19,0.45c-0.12,0.12-0.26,0.18-0.43,0.18C21.95,26.26,21.81,26.2,21.69,26.09z
			 M21.69,34.81c-0.12-0.12-0.18-0.27-0.18-0.45c0-0.17,0.06-0.31,0.18-0.43c0.12-0.13,0.27-0.19,0.45-0.19
			c0.17,0,0.31,0.07,0.43,0.19c0.13,0.12,0.19,0.26,0.19,0.43c0,0.18-0.07,0.33-0.19,0.45c-0.12,0.12-0.26,0.18-0.43,0.18
			C21.95,34.99,21.81,34.93,21.69,34.81z M21.69,36.06c-0.12-0.12-0.18-0.27-0.18-0.45c0-0.17,0.06-0.31,0.18-0.43
			c0.12-0.13,0.27-0.19,0.45-0.19c0.17,0,0.31,0.07,0.43,0.19c0.13,0.12,0.19,0.26,0.19,0.43c0,0.18-0.07,0.33-0.19,0.45
			c-0.12,0.12-0.26,0.18-0.43,0.18C21.95,36.23,21.81,36.17,21.69,36.06z M21.88,29.65c-0.09-0.08-0.14-0.17-0.14-0.27
			c0-0.08,0.04-0.16,0.12-0.23c0.08-0.09,0.17-0.14,0.27-0.14c0.08,0,0.16,0.04,0.23,0.12c0.09,0.08,0.14,0.16,0.14,0.25
			c0,0.1-0.04,0.19-0.12,0.27c-0.07,0.08-0.15,0.12-0.25,0.12C22.05,29.77,21.96,29.73,21.88,29.65z M21.88,30.9
			c-0.09-0.08-0.14-0.17-0.14-0.27c0-0.08,0.04-0.16,0.12-0.23c0.08-0.09,0.17-0.14,0.27-0.14c0.08,0,0.16,0.04,0.23,0.12
			c0.09,0.08,0.14,0.16,0.14,0.25c0,0.1-0.04,0.19-0.12,0.27c-0.07,0.08-0.15,0.12-0.25,0.12C22.05,31.01,21.96,30.97,21.88,30.9z
			 M22.94,24.84c-0.12-0.12-0.18-0.27-0.18-0.45c0-0.17,0.06-0.31,0.18-0.43c0.12-0.13,0.27-0.19,0.45-0.19
			c0.17,0,0.31,0.07,0.43,0.19c0.13,0.12,0.19,0.26,0.19,0.43c0,0.18-0.07,0.33-0.19,0.45c-0.12,0.12-0.26,0.18-0.43,0.18
			C23.2,25.01,23.05,24.96,22.94,24.84z M22.94,26.09c-0.12-0.12-0.18-0.27-0.18-0.45c0-0.17,0.06-0.31,0.18-0.43
			c0.12-0.13,0.27-0.19,0.45-0.19c0.17,0,0.31,0.07,0.43,0.19c0.13,0.12,0.19,0.26,0.19,0.43c0,0.18-0.07,0.33-0.19,0.45
			c-0.12,0.12-0.26,0.18-0.43,0.18C23.2,26.26,23.05,26.2,22.94,26.09z M22.94,34.81c-0.12-0.12-0.18-0.27-0.18-0.45
			c0-0.17,0.06-0.31,0.18-0.43c0.12-0.13,0.27-0.19,0.45-0.19c0.17,0,0.31,0.07,0.43,0.19c0.13,0.12,0.19,0.26,0.19,0.43
			c0,0.18-0.07,0.33-0.19,0.45c-0.12,0.12-0.26,0.18-0.43,0.18C23.2,34.99,23.05,34.93,22.94,34.81z M22.94,36.06
			c-0.12-0.12-0.18-0.27-0.18-0.45c0-0.17,0.06-0.31,0.18-0.43c0.12-0.13,0.27-0.19,0.45-0.19c0.17,0,0.31,0.07,0.43,0.19
			c0.13,0.12,0.19,0.26,0.19,0.43c0,0.18-0.07,0.33-0.19,0.45c-0.12,0.12-0.26,0.18-0.43,0.18C23.2,36.23,23.05,36.17,22.94,36.06z
			 M23.13,29.65c-0.09-0.08-0.14-0.17-0.14-0.27c0-0.08,0.04-0.16,0.12-0.23c0.08-0.09,0.17-0.14,0.27-0.14
			c0.08,0,0.16,0.04,0.23,0.12c0.09,0.08,0.14,0.16,0.14,0.25c0,0.1-0.04,0.19-0.12,0.27c-0.07,0.08-0.15,0.12-0.25,0.12
			C23.29,29.77,23.21,29.73,23.13,29.65z M23.13,30.9c-0.09-0.08-0.14-0.17-0.14-0.27c0-0.08,0.04-0.16,0.12-0.23
			c0.08-0.09,0.17-0.14,0.27-0.14c0.08,0,0.16,0.04,0.23,0.12c0.09,0.08,0.14,0.16,0.14,0.25c0,0.1-0.04,0.19-0.12,0.27
			c-0.07,0.08-0.15,0.12-0.25,0.12C23.29,31.01,23.21,30.97,23.13,30.9z M24.18,24.84c-0.12-0.12-0.18-0.27-0.18-0.45
			c0-0.17,0.06-0.31,0.18-0.43c0.12-0.13,0.27-0.19,0.45-0.19c0.17,0,0.31,0.07,0.43,0.19c0.13,0.12,0.19,0.26,0.19,0.43
			c0,0.18-0.07,0.33-0.19,0.45c-0.12,0.12-0.26,0.18-0.43,0.18C24.45,25.01,24.3,24.96,24.18,24.84z M24.18,26.09
			c-0.12-0.12-0.18-0.27-0.18-0.45c0-0.17,0.06-0.31,0.18-0.43c0.12-0.13,0.27-0.19,0.45-0.19c0.17,0,0.31,0.07,0.43,0.19
			c0.13,0.12,0.19,0.26,0.19,0.43c0,0.18-0.07,0.33-0.19,0.45c-0.12,0.12-0.26,0.18-0.43,0.18C24.45,26.26,24.3,26.2,24.18,26.09z
			 M24.18,34.81c-0.12-0.12-0.18-0.27-0.18-0.45c0-0.17,0.06-0.31,0.18-0.43c0.12-0.13,0.27-0.19,0.45-0.19
			c0.17,0,0.31,0.07,0.43,0.19c0.13,0.12,0.19,0.26,0.19,0.43c0,0.18-0.07,0.33-0.19,0.45c-0.12,0.12-0.26,0.18-0.43,0.18
			C24.45,34.99,24.3,34.93,24.18,34.81z M24.18,36.06c-0.12-0.12-0.18-0.27-0.18-0.45c0-0.17,0.06-0.31,0.18-0.43
			c0.12-0.13,0.27-0.19,0.45-0.19c0.17,0,0.31,0.07,0.43,0.19c0.13,0.12,0.19,0.26,0.19,0.43c0,0.18-0.07,0.33-0.19,0.45
			c-0.12,0.12-0.26,0.18-0.43,0.18C24.45,36.23,24.3,36.17,24.18,36.06z M25.43,24.84c-0.12-0.12-0.18-0.27-0.18-0.45
			c0-0.17,0.06-0.31,0.18-0.43c0.12-0.13,0.27-0.19,0.45-0.19c0.17,0,0.31,0.07,0.43,0.19c0.13,0.12,0.19,0.26,0.19,0.43
			c0,0.18-0.07,0.33-0.19,0.45c-0.12,0.12-0.26,0.18-0.43,0.18C25.69,25.01,25.55,24.96,25.43,24.84z M25.43,26.09
			c-0.12-0.12-0.18-0.27-0.18-0.45c0-0.17,0.06-0.31,0.18-0.43c0.12-0.13,0.27-0.19,0.45-0.19c0.17,0,0.31,0.07,0.43,0.19
			c0.13,0.12,0.19,0.26,0.19,0.43c0,0.18-0.07,0.33-0.19,0.45c-0.12,0.12-0.26,0.18-0.43,0.18C25.69,26.26,25.55,26.2,25.43,26.09z
			 M25.43,34.81c-0.12-0.12-0.18-0.27-0.18-0.45c0-0.17,0.06-0.31,0.18-0.43c0.12-0.13,0.27-0.19,0.45-0.19
			c0.17,0,0.31,0.07,0.43,0.19c0.13,0.12,0.19,0.26,0.19,0.43c0,0.18-0.07,0.33-0.19,0.45c-0.12,0.12-0.26,0.18-0.43,0.18
			C25.69,34.99,25.55,34.93,25.43,34.81z M25.43,36.06c-0.12-0.12-0.18-0.27-0.18-0.45c0-0.17,0.06-0.31,0.18-0.43
			c0.12-0.13,0.27-0.19,0.45-0.19c0.17,0,0.31,0.07,0.43,0.19c0.13,0.12,0.19,0.26,0.19,0.43c0,0.18-0.07,0.33-0.19,0.45
			c-0.12,0.12-0.26,0.18-0.43,0.18C25.69,36.23,25.55,36.17,25.43,36.06z M26.68,24.84c-0.12-0.12-0.18-0.27-0.18-0.45
			c0-0.17,0.06-0.31,0.18-0.43c0.12-0.13,0.27-0.19,0.45-0.19c0.17,0,0.31,0.07,0.43,0.19c0.13,0.12,0.19,0.26,0.19,0.43
			c0,0.18-0.07,0.33-0.19,0.45c-0.12,0.12-0.26,0.18-0.43,0.18C26.94,25.01,26.79,24.96,26.68,24.84z M26.68,26.09
			c-0.12-0.12-0.18-0.27-0.18-0.45c0-0.17,0.06-0.31,0.18-0.43c0.12-0.13,0.27-0.19,0.45-0.19c0.17,0,0.31,0.07,0.43,0.19
			c0.13,0.12,0.19,0.26,0.19,0.43c0,0.18-0.07,0.33-0.19,0.45c-0.12,0.12-0.26,0.18-0.43,0.18C26.94,26.26,26.79,26.2,26.68,26.09z
			 M26.68,34.81c-0.12-0.12-0.18-0.27-0.18-0.45c0-0.17,0.06-0.31,0.18-0.43c0.12-0.13,0.27-0.19,0.45-0.19
			c0.17,0,0.31,0.07,0.43,0.19c0.13,0.12,0.19,0.26,0.19,0.43c0,0.18-0.07,0.33-0.19,0.45c-0.12,0.12-0.26,0.18-0.43,0.18
			C26.94,34.99,26.79,34.93,26.68,34.81z M26.68,36.06c-0.12-0.12-0.18-0.27-0.18-0.45c0-0.17,0.06-0.31,0.18-0.43
			c0.12-0.13,0.27-0.19,0.45-0.19c0.17,0,0.31,0.07,0.43,0.19c0.13,0.12,0.19,0.26,0.19,0.43c0,0.18-0.07,0.33-0.19,0.45
			c-0.12,0.12-0.26,0.18-0.43,0.18C26.94,36.23,26.79,36.17,26.68,36.06z M30.51,24.84c-0.12-0.12-0.18-0.27-0.18-0.45
			c0-0.17,0.06-0.31,0.18-0.43c0.12-0.13,0.27-0.19,0.45-0.19c0.17,0,0.31,0.07,0.43,0.19c0.13,0.12,0.19,0.26,0.19,0.43
			c0,0.18-0.07,0.33-0.19,0.45c-0.12,0.12-0.26,0.18-0.43,0.18C30.77,25.01,30.62,24.96,30.51,24.84z M30.51,26.09
			c-0.12-0.12-0.18-0.27-0.18-0.45c0-0.17,0.06-0.31,0.18-0.43c0.12-0.13,0.27-0.19,0.45-0.19c0.17,0,0.31,0.07,0.43,0.19
			c0.13,0.12,0.19,0.26,0.19,0.43c0,0.18-0.07,0.33-0.19,0.45c-0.12,0.12-0.26,0.18-0.43,0.18C30.77,26.26,30.62,26.2,30.51,26.09z
			 M30.51,34.81c-0.12-0.12-0.18-0.27-0.18-0.45c0-0.17,0.06-0.31,0.18-0.43c0.12-0.13,0.27-0.19,0.45-0.19
			c0.17,0,0.31,0.07,0.43,0.19c0.13,0.12,0.19,0.26,0.19,0.43c0,0.18-0.07,0.33-0.19,0.45c-0.12,0.12-0.26,0.18-0.43,0.18
			C30.77,34.99,30.62,34.93,30.51,34.81z M30.51,36.06c-0.12-0.12-0.18-0.27-0.18-0.45c0-0.17,0.06-0.31,0.18-0.43
			c0.12-0.13,0.27-0.19,0.45-0.19c0.17,0,0.31,0.07,0.43,0.19c0.13,0.12,0.19,0.26,0.19,0.43c0,0.18-0.07,0.33-0.19,0.45
			c-0.12,0.12-0.26,0.18-0.43,0.18C30.77,36.23,30.62,36.17,30.51,36.06z M30.62,27.25c-0.12-0.1-0.18-0.23-0.18-0.37
			c0-0.1,0.05-0.21,0.14-0.31c0.12-0.12,0.24-0.18,0.37-0.18c0.1,0,0.21,0.05,0.31,0.14c0.12,0.12,0.18,0.23,0.18,0.35
			c0,0.14-0.05,0.27-0.14,0.37c-0.1,0.09-0.22,0.14-0.35,0.14C30.84,27.39,30.73,27.34,30.62,27.25z M30.62,28.5
			c-0.12-0.1-0.18-0.23-0.18-0.37c0-0.1,0.05-0.21,0.14-0.31c0.12-0.12,0.24-0.18,0.37-0.18c0.1,0,0.21,0.05,0.31,0.14
			c0.12,0.12,0.18,0.23,0.18,0.35c0,0.14-0.05,0.27-0.14,0.37c-0.1,0.09-0.22,0.14-0.35,0.14C30.84,28.64,30.73,28.59,30.62,28.5z
			 M30.62,32.24c-0.12-0.1-0.18-0.23-0.18-0.37c0-0.1,0.05-0.21,0.14-0.31c0.12-0.12,0.24-0.18,0.37-0.18c0.1,0,0.21,0.05,0.31,0.14
			c0.12,0.12,0.18,0.23,0.18,0.35c0,0.14-0.05,0.27-0.14,0.37c-0.1,0.09-0.22,0.14-0.35,0.14C30.84,32.38,30.73,32.33,30.62,32.24z
			 M30.62,33.49c-0.12-0.1-0.18-0.23-0.18-0.37c0-0.1,0.05-0.21,0.14-0.31c0.12-0.12,0.24-0.18,0.37-0.18c0.1,0,0.21,0.05,0.31,0.14
			c0.12,0.12,0.18,0.23,0.18,0.35c0,0.14-0.05,0.27-0.14,0.37c-0.1,0.09-0.22,0.14-0.35,0.14C30.84,33.62,30.73,33.58,30.62,33.49z
			 M30.7,29.65c-0.09-0.08-0.14-0.17-0.14-0.27c0-0.08,0.04-0.16,0.12-0.23c0.08-0.09,0.17-0.14,0.27-0.14
			c0.08,0,0.16,0.04,0.23,0.12c0.09,0.08,0.14,0.16,0.14,0.25c0,0.1-0.04,0.19-0.12,0.27c-0.07,0.08-0.15,0.12-0.25,0.12
			C30.86,29.77,30.78,29.73,30.7,29.65z M30.7,30.9c-0.09-0.08-0.14-0.17-0.14-0.27c0-0.08,0.04-0.16,0.12-0.23
			c0.08-0.09,0.17-0.14,0.27-0.14c0.08,0,0.16,0.04,0.23,0.12c0.09,0.08,0.14,0.16,0.14,0.25c0,0.1-0.04,0.19-0.12,0.27
			c-0.07,0.08-0.15,0.12-0.25,0.12C30.86,31.01,30.78,30.97,30.7,30.9z M31.75,24.84c-0.12-0.12-0.18-0.27-0.18-0.45
			c0-0.17,0.06-0.31,0.18-0.43c0.12-0.13,0.27-0.19,0.45-0.19c0.17,0,0.31,0.07,0.43,0.19c0.13,0.12,0.19,0.26,0.19,0.43
			c0,0.18-0.07,0.33-0.19,0.45c-0.12,0.12-0.26,0.18-0.43,0.18C32.02,25.01,31.87,24.96,31.75,24.84z M31.75,26.09
			c-0.12-0.12-0.18-0.27-0.18-0.45c0-0.17,0.06-0.31,0.18-0.43c0.12-0.13,0.27-0.19,0.45-0.19c0.17,0,0.31,0.07,0.43,0.19
			c0.13,0.12,0.19,0.26,0.19,0.43c0,0.18-0.07,0.33-0.19,0.45c-0.12,0.12-0.26,0.18-0.43,0.18C32.02,26.26,31.87,26.2,31.75,26.09z
			 M31.75,34.81c-0.12-0.12-0.18-0.27-0.18-0.45c0-0.17,0.06-0.31,0.18-0.43c0.12-0.13,0.27-0.19,0.45-0.19
			c0.17,0,0.31,0.07,0.43,0.19c0.13,0.12,0.19,0.26,0.19,0.43c0,0.18-0.07,0.33-0.19,0.45c-0.12,0.12-0.26,0.18-0.43,0.18
			C32.02,34.99,31.87,34.93,31.75,34.81z M31.75,36.06c-0.12-0.12-0.18-0.27-0.18-0.45c0-0.17,0.06-0.31,0.18-0.43
			c0.12-0.13,0.27-0.19,0.45-0.19c0.17,0,0.31,0.07,0.43,0.19c0.13,0.12,0.19,0.26,0.19,0.43c0,0.18-0.07,0.33-0.19,0.45
			c-0.12,0.12-0.26,0.18-0.43,0.18C32.02,36.23,31.87,36.17,31.75,36.06z M31.87,27.25c-0.12-0.1-0.18-0.23-0.18-0.37
			c0-0.1,0.05-0.21,0.14-0.31c0.12-0.12,0.24-0.18,0.37-0.18c0.1,0,0.21,0.05,0.31,0.14c0.12,0.12,0.18,0.23,0.18,0.35
			c0,0.14-0.05,0.27-0.14,0.37c-0.1,0.09-0.22,0.14-0.35,0.14C32.08,27.39,31.97,27.34,31.87,27.25z M31.87,28.5
			c-0.12-0.1-0.18-0.23-0.18-0.37c0-0.1,0.05-0.21,0.14-0.31c0.12-0.12,0.24-0.18,0.37-0.18c0.1,0,0.21,0.05,0.31,0.14
			c0.12,0.12,0.18,0.23,0.18,0.35c0,0.14-0.05,0.27-0.14,0.37c-0.1,0.09-0.22,0.14-0.35,0.14C32.08,28.64,31.97,28.59,31.87,28.5z
			 M31.87,32.24c-0.12-0.1-0.18-0.23-0.18-0.37c0-0.1,0.05-0.21,0.14-0.31c0.12-0.12,0.24-0.18,0.37-0.18c0.1,0,0.21,0.05,0.31,0.14
			c0.12,0.12,0.18,0.23,0.18,0.35c0,0.14-0.05,0.27-0.14,0.37c-0.1,0.09-0.22,0.14-0.35,0.14C32.08,32.38,31.97,32.33,31.87,32.24z
			 M31.87,33.49c-0.12-0.1-0.18-0.23-0.18-0.37c0-0.1,0.05-0.21,0.14-0.31c0.12-0.12,0.24-0.18,0.37-0.18c0.1,0,0.21,0.05,0.31,0.14
			c0.12,0.12,0.18,0.23,0.18,0.35c0,0.14-0.05,0.27-0.14,0.37c-0.1,0.09-0.22,0.14-0.35,0.14C32.08,33.62,31.97,33.58,31.87,33.49z
			 M31.95,29.65c-0.09-0.08-0.14-0.17-0.14-0.27c0-0.08,0.04-0.16,0.12-0.23c0.08-0.09,0.17-0.14,0.27-0.14
			c0.08,0,0.16,0.04,0.23,0.12c0.09,0.08,0.14,0.16,0.14,0.25c0,0.1-0.04,0.19-0.12,0.27c-0.07,0.08-0.15,0.12-0.25,0.12
			C32.11,29.77,32.03,29.73,31.95,29.65z M31.95,30.9c-0.09-0.08-0.14-0.17-0.14-0.27c0-0.08,0.04-0.16,0.12-0.23
			c0.08-0.09,0.17-0.14,0.27-0.14c0.08,0,0.16,0.04,0.23,0.12c0.09,0.08,0.14,0.16,0.14,0.25c0,0.1-0.04,0.19-0.12,0.27
			c-0.07,0.08-0.15,0.12-0.25,0.12C32.11,31.01,32.03,30.97,31.95,30.9z M33,24.84c-0.12-0.12-0.18-0.27-0.18-0.45
			c0-0.17,0.06-0.31,0.18-0.43c0.12-0.13,0.27-0.19,0.45-0.19c0.17,0,0.31,0.07,0.43,0.19c0.13,0.12,0.19,0.26,0.19,0.43
			c0,0.18-0.07,0.33-0.19,0.45c-0.12,0.12-0.26,0.18-0.43,0.18C33.27,25.01,33.12,24.96,33,24.84z M33,26.09
			c-0.12-0.12-0.18-0.27-0.18-0.45c0-0.17,0.06-0.31,0.18-0.43c0.12-0.13,0.27-0.19,0.45-0.19c0.17,0,0.31,0.07,0.43,0.19
			c0.13,0.12,0.19,0.26,0.19,0.43c0,0.18-0.07,0.33-0.19,0.45c-0.12,0.12-0.26,0.18-0.43,0.18C33.27,26.26,33.12,26.2,33,26.09z
			 M33,34.81c-0.12-0.12-0.18-0.27-0.18-0.45c0-0.17,0.06-0.31,0.18-0.43c0.12-0.13,0.27-0.19,0.45-0.19c0.17,0,0.31,0.07,0.43,0.19
			c0.13,0.12,0.19,0.26,0.19,0.43c0,0.18-0.07,0.33-0.19,0.45c-0.12,0.12-0.26,0.18-0.43,0.18C33.27,34.99,33.12,34.93,33,34.81z
			 M33,36.06c-0.12-0.12-0.18-0.27-0.18-0.45c0-0.17,0.06-0.31,0.18-0.43c0.12-0.13,0.27-0.19,0.45-0.19c0.17,0,0.31,0.07,0.43,0.19
			c0.13,0.12,0.19,0.26,0.19,0.43c0,0.18-0.07,0.33-0.19,0.45c-0.12,0.12-0.26,0.18-0.43,0.18C33.27,36.23,33.12,36.17,33,36.06z
			 M33.12,27.25c-0.12-0.1-0.18-0.23-0.18-0.37c0-0.1,0.05-0.21,0.14-0.31c0.12-0.12,0.24-0.18,0.37-0.18c0.1,0,0.21,0.05,0.31,0.14
			c0.12,0.12,0.18,0.23,0.18,0.35c0,0.14-0.05,0.27-0.14,0.37c-0.1,0.09-0.22,0.14-0.35,0.14C33.33,27.39,33.22,27.34,33.12,27.25z
			 M33.12,28.5c-0.12-0.1-0.18-0.23-0.18-0.37c0-0.1,0.05-0.21,0.14-0.31c0.12-0.12,0.24-0.18,0.37-0.18c0.1,0,0.21,0.05,0.31,0.14
			c0.12,0.12,0.18,0.23,0.18,0.35c0,0.14-0.05,0.27-0.14,0.37c-0.1,0.09-0.22,0.14-0.35,0.14C33.33,28.64,33.22,28.59,33.12,28.5z
			 M33.12,32.24c-0.12-0.1-0.18-0.23-0.18-0.37c0-0.1,0.05-0.21,0.14-0.31c0.12-0.12,0.24-0.18,0.37-0.18c0.1,0,0.21,0.05,0.31,0.14
			c0.12,0.12,0.18,0.23,0.18,0.35c0,0.14-0.05,0.27-0.14,0.37c-0.1,0.09-0.22,0.14-0.35,0.14C33.33,32.38,33.22,32.33,33.12,32.24z
			 M33.12,33.49c-0.12-0.1-0.18-0.23-0.18-0.37c0-0.1,0.05-0.21,0.14-0.31c0.12-0.12,0.24-0.18,0.37-0.18c0.1,0,0.21,0.05,0.31,0.14
			c0.12,0.12,0.18,0.23,0.18,0.35c0,0.14-0.05,0.27-0.14,0.37c-0.1,0.09-0.22,0.14-0.35,0.14C33.33,33.62,33.22,33.58,33.12,33.49z
			 M33.19,29.65c-0.09-0.08-0.14-0.17-0.14-0.27c0-0.08,0.04-0.16,0.12-0.23c0.08-0.09,0.17-0.14,0.27-0.14
			c0.08,0,0.16,0.04,0.23,0.12c0.09,0.08,0.14,0.16,0.14,0.25c0,0.1-0.04,0.19-0.12,0.27c-0.07,0.08-0.15,0.12-0.25,0.12
			C33.36,29.77,33.27,29.73,33.19,29.65z M33.19,30.9c-0.09-0.08-0.14-0.17-0.14-0.27c0-0.08,0.04-0.16,0.12-0.23
			c0.08-0.09,0.17-0.14,0.27-0.14c0.08,0,0.16,0.04,0.23,0.12c0.09,0.08,0.14,0.16,0.14,0.25c0,0.1-0.04,0.19-0.12,0.27
			c-0.07,0.08-0.15,0.12-0.25,0.12C33.36,31.01,33.27,30.97,33.19,30.9z M34.25,24.84c-0.12-0.12-0.18-0.27-0.18-0.45
			c0-0.17,0.06-0.31,0.18-0.43c0.12-0.13,0.27-0.19,0.45-0.19c0.17,0,0.31,0.07,0.43,0.19c0.13,0.12,0.19,0.26,0.19,0.43
			c0,0.18-0.07,0.33-0.19,0.45c-0.12,0.12-0.26,0.18-0.43,0.18C34.51,25.01,34.36,24.96,34.25,24.84z M34.25,26.09
			c-0.12-0.12-0.18-0.27-0.18-0.45c0-0.17,0.06-0.31,0.18-0.43c0.12-0.13,0.27-0.19,0.45-0.19c0.17,0,0.31,0.07,0.43,0.19
			c0.13,0.12,0.19,0.26,0.19,0.43c0,0.18-0.07,0.33-0.19,0.45c-0.12,0.12-0.26,0.18-0.43,0.18C34.51,26.26,34.36,26.2,34.25,26.09z
			 M34.25,34.81c-0.12-0.12-0.18-0.27-0.18-0.45c0-0.17,0.06-0.31,0.18-0.43c0.12-0.13,0.27-0.19,0.45-0.19
			c0.17,0,0.31,0.07,0.43,0.19c0.13,0.12,0.19,0.26,0.19,0.43c0,0.18-0.07,0.33-0.19,0.45c-0.12,0.12-0.26,0.18-0.43,0.18
			C34.51,34.99,34.36,34.93,34.25,34.81z M34.25,36.06c-0.12-0.12-0.18-0.27-0.18-0.45c0-0.17,0.06-0.31,0.18-0.43
			c0.12-0.13,0.27-0.19,0.45-0.19c0.17,0,0.31,0.07,0.43,0.19c0.13,0.12,0.19,0.26,0.19,0.43c0,0.18-0.07,0.33-0.19,0.45
			c-0.12,0.12-0.26,0.18-0.43,0.18C34.51,36.23,34.36,36.17,34.25,36.06z M35.49,24.84c-0.12-0.12-0.18-0.27-0.18-0.45
			c0-0.17,0.06-0.31,0.18-0.43c0.12-0.13,0.27-0.19,0.45-0.19c0.17,0,0.31,0.07,0.43,0.19c0.13,0.12,0.19,0.26,0.19,0.43
			c0,0.18-0.06,0.33-0.19,0.45c-0.12,0.12-0.26,0.18-0.43,0.18C35.76,25.01,35.61,24.96,35.49,24.84z M35.49,26.09
			c-0.12-0.12-0.18-0.27-0.18-0.45c0-0.17,0.06-0.31,0.18-0.43c0.12-0.13,0.27-0.19,0.45-0.19c0.17,0,0.31,0.07,0.43,0.19
			c0.13,0.12,0.19,0.26,0.19,0.43c0,0.18-0.06,0.33-0.19,0.45c-0.12,0.12-0.26,0.18-0.43,0.18C35.76,26.26,35.61,26.2,35.49,26.09z
			 M35.49,34.81c-0.12-0.12-0.18-0.27-0.18-0.45c0-0.17,0.06-0.31,0.18-0.43c0.12-0.13,0.27-0.19,0.45-0.19
			c0.17,0,0.31,0.07,0.43,0.19c0.13,0.12,0.19,0.26,0.19,0.43c0,0.18-0.06,0.33-0.19,0.45c-0.12,0.12-0.26,0.18-0.43,0.18
			C35.76,34.99,35.61,34.93,35.49,34.81z M35.49,36.06c-0.12-0.12-0.18-0.27-0.18-0.45c0-0.17,0.06-0.31,0.18-0.43
			c0.12-0.13,0.27-0.19,0.45-0.19c0.17,0,0.31,0.07,0.43,0.19c0.13,0.12,0.19,0.26,0.19,0.43c0,0.18-0.06,0.33-0.19,0.45
			c-0.12,0.12-0.26,0.18-0.43,0.18C35.76,36.23,35.61,36.17,35.49,36.06z M36.74,24.84c-0.12-0.12-0.18-0.27-0.18-0.45
			c0-0.17,0.06-0.31,0.18-0.43c0.12-0.13,0.27-0.19,0.45-0.19c0.17,0,0.31,0.07,0.43,0.19c0.13,0.12,0.19,0.26,0.19,0.43
			c0,0.18-0.07,0.33-0.19,0.45c-0.12,0.12-0.26,0.18-0.43,0.18C37,25.01,36.86,24.96,36.74,24.84z M36.74,26.09
			c-0.12-0.12-0.18-0.27-0.18-0.45c0-0.17,0.06-0.31,0.18-0.43c0.12-0.13,0.27-0.19,0.45-0.19c0.17,0,0.31,0.07,0.43,0.19
			c0.13,0.12,0.19,0.26,0.19,0.43c0,0.18-0.07,0.33-0.19,0.45c-0.12,0.12-0.26,0.18-0.43,0.18C37,26.26,36.86,26.2,36.74,26.09z
			 M36.74,34.81c-0.12-0.12-0.18-0.27-0.18-0.45c0-0.17,0.06-0.31,0.18-0.43c0.12-0.13,0.27-0.19,0.45-0.19
			c0.17,0,0.31,0.07,0.43,0.19c0.13,0.12,0.19,0.26,0.19,0.43c0,0.18-0.07,0.33-0.19,0.45c-0.12,0.12-0.26,0.18-0.43,0.18
			C37,34.99,36.86,34.93,36.74,34.81z M36.74,36.06c-0.12-0.12-0.18-0.27-0.18-0.45c0-0.17,0.06-0.31,0.18-0.43
			c0.12-0.13,0.27-0.19,0.45-0.19c0.17,0,0.31,0.07,0.43,0.19c0.13,0.12,0.19,0.26,0.19,0.43c0,0.18-0.07,0.33-0.19,0.45
			c-0.12,0.12-0.26,0.18-0.43,0.18C37,36.23,36.86,36.17,36.74,36.06z M37.99,24.84c-0.12-0.12-0.18-0.27-0.18-0.45
			c0-0.17,0.06-0.31,0.18-0.43c0.12-0.13,0.27-0.19,0.45-0.19c0.17,0,0.31,0.07,0.43,0.19c0.13,0.12,0.19,0.26,0.19,0.43
			c0,0.18-0.07,0.33-0.19,0.45c-0.12,0.12-0.26,0.18-0.43,0.18C38.25,25.01,38.1,24.96,37.99,24.84z M37.99,26.09
			c-0.12-0.12-0.18-0.27-0.18-0.45c0-0.17,0.06-0.31,0.18-0.43c0.12-0.13,0.27-0.19,0.45-0.19c0.17,0,0.31,0.07,0.43,0.19
			c0.13,0.12,0.19,0.26,0.19,0.43c0,0.18-0.07,0.33-0.19,0.45c-0.12,0.12-0.26,0.18-0.43,0.18C38.25,26.26,38.1,26.2,37.99,26.09z
			 M37.99,34.81c-0.12-0.12-0.18-0.27-0.18-0.45c0-0.17,0.06-0.31,0.18-0.43c0.12-0.13,0.27-0.19,0.45-0.19
			c0.17,0,0.31,0.07,0.43,0.19c0.13,0.12,0.19,0.26,0.19,0.43c0,0.18-0.07,0.33-0.19,0.45c-0.12,0.12-0.26,0.18-0.43,0.18
			C38.25,34.99,38.1,34.93,37.99,34.81z M37.99,36.06c-0.12-0.12-0.18-0.27-0.18-0.45c0-0.17,0.06-0.31,0.18-0.43
			c0.12-0.13,0.27-0.19,0.45-0.19c0.17,0,0.31,0.07,0.43,0.19c0.13,0.12,0.19,0.26,0.19,0.43c0,0.18-0.07,0.33-0.19,0.45
			c-0.12,0.12-0.26,0.18-0.43,0.18C38.25,36.23,38.1,36.17,37.99,36.06z M39.23,24.84c-0.12-0.12-0.18-0.27-0.18-0.45
			c0-0.17,0.06-0.31,0.18-0.43c0.12-0.13,0.27-0.19,0.45-0.19c0.17,0,0.31,0.07,0.43,0.19c0.13,0.12,0.19,0.26,0.19,0.43
			c0,0.18-0.07,0.33-0.19,0.45c-0.12,0.12-0.26,0.18-0.43,0.18C39.5,25.01,39.35,24.96,39.23,24.84z M39.23,26.09
			c-0.12-0.12-0.18-0.27-0.18-0.45c0-0.17,0.06-0.31,0.18-0.43c0.12-0.13,0.27-0.19,0.45-0.19c0.17,0,0.31,0.07,0.43,0.19
			c0.13,0.12,0.19,0.26,0.19,0.43c0,0.18-0.07,0.33-0.19,0.45c-0.12,0.12-0.26,0.18-0.43,0.18C39.5,26.26,39.35,26.2,39.23,26.09z
			 M39.23,34.81c-0.12-0.12-0.18-0.27-0.18-0.45c0-0.17,0.06-0.31,0.18-0.43c0.12-0.13,0.27-0.19,0.45-0.19
			c0.17,0,0.31,0.07,0.43,0.19c0.13,0.12,0.19,0.26,0.19,0.43c0,0.18-0.07,0.33-0.19,0.45c-0.12,0.12-0.26,0.18-0.43,0.18
			C39.5,34.99,39.35,34.93,39.23,34.81z M39.23,36.06c-0.12-0.12-0.18-0.27-0.18-0.45c0-0.17,0.06-0.31,0.18-0.43
			c0.12-0.13,0.27-0.19,0.45-0.19c0.17,0,0.31,0.07,0.43,0.19c0.13,0.12,0.19,0.26,0.19,0.43c0,0.18-0.07,0.33-0.19,0.45
			c-0.12,0.12-0.26,0.18-0.43,0.18C39.5,36.23,39.35,36.17,39.23,36.06z M40.48,24.84c-0.12-0.12-0.18-0.27-0.18-0.45
			c0-0.17,0.06-0.31,0.18-0.43c0.12-0.13,0.27-0.19,0.45-0.19c0.17,0,0.31,0.07,0.43,0.19c0.13,0.12,0.19,0.26,0.19,0.43
			c0,0.18-0.07,0.33-0.19,0.45c-0.12,0.12-0.26,0.18-0.43,0.18C40.74,25.01,40.6,24.96,40.48,24.84z M40.48,26.09
			c-0.12-0.12-0.18-0.27-0.18-0.45c0-0.17,0.06-0.31,0.18-0.43c0.12-0.13,0.27-0.19,0.45-0.19c0.17,0,0.31,0.07,0.43,0.19
			c0.13,0.12,0.19,0.26,0.19,0.43c0,0.18-0.07,0.33-0.19,0.45c-0.12,0.12-0.26,0.18-0.43,0.18C40.74,26.26,40.6,26.2,40.48,26.09z
			 M40.48,34.81c-0.12-0.12-0.18-0.27-0.18-0.45c0-0.17,0.06-0.31,0.18-0.43c0.12-0.13,0.27-0.19,0.45-0.19
			c0.17,0,0.31,0.07,0.43,0.19c0.13,0.12,0.19,0.26,0.19,0.43c0,0.18-0.07,0.33-0.19,0.45c-0.12,0.12-0.26,0.18-0.43,0.18
			C40.74,34.99,40.6,34.93,40.48,34.81z M40.48,36.06c-0.12-0.12-0.18-0.27-0.18-0.45c0-0.17,0.06-0.31,0.18-0.43
			c0.12-0.13,0.27-0.19,0.45-0.19c0.17,0,0.31,0.07,0.43,0.19c0.13,0.12,0.19,0.26,0.19,0.43c0,0.18-0.07,0.33-0.19,0.45
			c-0.12,0.12-0.26,0.18-0.43,0.18C40.74,36.23,40.6,36.17,40.48,36.06z M41.73,24.84c-0.12-0.12-0.18-0.27-0.18-0.45
			c0-0.17,0.06-0.31,0.18-0.43c0.12-0.13,0.27-0.19,0.45-0.19c0.17,0,0.31,0.07,0.43,0.19c0.13,0.12,0.19,0.26,0.19,0.43
			c0,0.18-0.07,0.33-0.19,0.45c-0.12,0.12-0.26,0.18-0.43,0.18C41.99,25.01,41.84,24.96,41.73,24.84z M41.73,26.09
			c-0.12-0.12-0.18-0.27-0.18-0.45c0-0.17,0.06-0.31,0.18-0.43c0.12-0.13,0.27-0.19,0.45-0.19c0.17,0,0.31,0.07,0.43,0.19
			c0.13,0.12,0.19,0.26,0.19,0.43c0,0.18-0.07,0.33-0.19,0.45c-0.12,0.12-0.26,0.18-0.43,0.18C41.99,26.26,41.84,26.2,41.73,26.09z
			 M41.73,34.81c-0.12-0.12-0.18-0.27-0.18-0.45c0-0.17,0.06-0.31,0.18-0.43c0.12-0.13,0.27-0.19,0.45-0.19
			c0.17,0,0.31,0.07,0.43,0.19c0.13,0.12,0.19,0.26,0.19,0.43c0,0.18-0.07,0.33-0.19,0.45c-0.12,0.12-0.26,0.18-0.43,0.18
			C41.99,34.99,41.84,34.93,41.73,34.81z M41.73,36.06c-0.12-0.12-0.18-0.27-0.18-0.45c0-0.17,0.06-0.31,0.18-0.43
			c0.12-0.13,0.27-0.19,0.45-0.19c0.17,0,0.31,0.07,0.43,0.19c0.13,0.12,0.19,0.26,0.19,0.43c0,0.18-0.07,0.33-0.19,0.45
			c-0.12,0.12-0.26,0.18-0.43,0.18C41.99,36.23,41.84,36.17,41.73,36.06z M41.84,27.25c-0.12-0.1-0.18-0.23-0.18-0.37
			c0-0.1,0.05-0.21,0.14-0.31c0.12-0.12,0.24-0.18,0.37-0.18c0.1,0,0.21,0.05,0.31,0.14c0.12,0.12,0.18,0.23,0.18,0.35
			c0,0.14-0.05,0.27-0.14,0.37c-0.1,0.09-0.22,0.14-0.35,0.14C42.06,27.39,41.95,27.34,41.84,27.25z M41.84,33.49
			c-0.12-0.1-0.18-0.23-0.18-0.37c0-0.1,0.05-0.21,0.14-0.31c0.12-0.12,0.24-0.18,0.37-0.18c0.1,0,0.21,0.05,0.31,0.14
			c0.12,0.12,0.18,0.23,0.18,0.35c0,0.14-0.05,0.27-0.14,0.37c-0.1,0.09-0.22,0.14-0.35,0.14C42.06,33.62,41.95,33.58,41.84,33.49z
			 M42.97,24.84c-0.12-0.12-0.18-0.27-0.18-0.45c0-0.17,0.06-0.31,0.18-0.43c0.12-0.13,0.27-0.19,0.45-0.19
			c0.17,0,0.31,0.07,0.43,0.19c0.13,0.12,0.19,0.26,0.19,0.43c0,0.18-0.07,0.33-0.19,0.45c-0.12,0.12-0.26,0.18-0.43,0.18
			C43.24,25.01,43.09,24.96,42.97,24.84z M42.97,26.09c-0.12-0.12-0.18-0.27-0.18-0.45c0-0.17,0.06-0.31,0.18-0.43
			c0.12-0.13,0.27-0.19,0.45-0.19c0.17,0,0.31,0.07,0.43,0.19c0.13,0.12,0.19,0.26,0.19,0.43c0,0.18-0.07,0.33-0.19,0.45
			c-0.12,0.12-0.26,0.18-0.43,0.18C43.24,26.26,43.09,26.2,42.97,26.09z M42.97,34.81c-0.12-0.12-0.18-0.27-0.18-0.45
			c0-0.17,0.06-0.31,0.18-0.43c0.12-0.13,0.27-0.19,0.45-0.19c0.17,0,0.31,0.07,0.43,0.19c0.13,0.12,0.19,0.26,0.19,0.43
			c0,0.18-0.07,0.33-0.19,0.45c-0.12,0.12-0.26,0.18-0.43,0.18C43.24,34.99,43.09,34.93,42.97,34.81z M42.97,36.06
			c-0.12-0.12-0.18-0.27-0.18-0.45c0-0.17,0.06-0.31,0.18-0.43c0.12-0.13,0.27-0.19,0.45-0.19c0.17,0,0.31,0.07,0.43,0.19
			c0.13,0.12,0.19,0.26,0.19,0.43c0,0.18-0.07,0.33-0.19,0.45c-0.12,0.12-0.26,0.18-0.43,0.18C43.24,36.23,43.09,36.17,42.97,36.06z
			 M43.09,27.25c-0.12-0.1-0.18-0.23-0.18-0.37c0-0.1,0.05-0.21,0.14-0.31c0.12-0.12,0.24-0.18,0.37-0.18c0.1,0,0.21,0.05,0.31,0.14
			c0.12,0.12,0.18,0.23,0.18,0.35c0,0.14-0.05,0.27-0.14,0.37c-0.1,0.09-0.22,0.14-0.35,0.14C43.3,27.39,43.19,27.34,43.09,27.25z
			 M43.09,28.5c-0.12-0.1-0.18-0.23-0.18-0.37c0-0.1,0.05-0.21,0.14-0.31c0.12-0.12,0.24-0.18,0.37-0.18c0.1,0,0.21,0.05,0.31,0.14
			c0.12,0.12,0.18,0.23,0.18,0.35c0,0.14-0.05,0.27-0.14,0.37c-0.1,0.09-0.22,0.14-0.35,0.14C43.3,28.64,43.19,28.59,43.09,28.5z
			 M43.09,32.24c-0.12-0.1-0.18-0.23-0.18-0.37c0-0.1,0.05-0.21,0.14-0.31c0.12-0.12,0.24-0.18,0.37-0.18c0.1,0,0.21,0.05,0.31,0.14
			c0.12,0.12,0.18,0.23,0.18,0.35c0,0.14-0.05,0.27-0.14,0.37c-0.1,0.09-0.22,0.14-0.35,0.14C43.3,32.38,43.19,32.33,43.09,32.24z
			 M43.09,33.49c-0.12-0.1-0.18-0.23-0.18-0.37c0-0.1,0.05-0.21,0.14-0.31c0.12-0.12,0.24-0.18,0.37-0.18c0.1,0,0.21,0.05,0.31,0.14
			c0.12,0.12,0.18,0.23,0.18,0.35c0,0.14-0.05,0.27-0.14,0.37c-0.1,0.09-0.22,0.14-0.35,0.14C43.3,33.62,43.19,33.58,43.09,33.49z
			 M43.17,29.65c-0.09-0.08-0.14-0.17-0.14-0.27c0-0.08,0.04-0.16,0.12-0.23c0.08-0.09,0.17-0.14,0.27-0.14
			c0.08,0,0.16,0.04,0.23,0.12c0.09,0.08,0.14,0.16,0.14,0.25c0,0.1-0.04,0.19-0.12,0.27c-0.07,0.08-0.15,0.12-0.25,0.12
			C43.33,29.77,43.24,29.73,43.17,29.65z M43.17,30.9c-0.09-0.08-0.14-0.17-0.14-0.27c0-0.08,0.04-0.16,0.12-0.23
			c0.08-0.09,0.17-0.14,0.27-0.14c0.08,0,0.16,0.04,0.23,0.12c0.09,0.08,0.14,0.16,0.14,0.25c0,0.1-0.04,0.19-0.12,0.27
			c-0.07,0.08-0.15,0.12-0.25,0.12C43.33,31.01,43.24,30.97,43.17,30.9z M44.22,26.09c-0.12-0.12-0.18-0.27-0.18-0.45
			c0-0.17,0.06-0.31,0.18-0.43c0.12-0.13,0.27-0.19,0.45-0.19c0.17,0,0.31,0.07,0.43,0.19c0.13,0.12,0.19,0.26,0.19,0.43
			c0,0.18-0.07,0.33-0.19,0.45c-0.12,0.12-0.26,0.18-0.43,0.18C44.48,26.26,44.34,26.2,44.22,26.09z M44.22,34.81
			c-0.12-0.12-0.18-0.27-0.18-0.45c0-0.17,0.06-0.31,0.18-0.43c0.12-0.13,0.27-0.19,0.45-0.19c0.17,0,0.31,0.07,0.43,0.19
			c0.13,0.12,0.19,0.26,0.19,0.43c0,0.18-0.07,0.33-0.19,0.45c-0.12,0.12-0.26,0.18-0.43,0.18C44.48,34.99,44.34,34.93,44.22,34.81z
			 M44.34,27.25c-0.12-0.1-0.18-0.23-0.18-0.37c0-0.1,0.05-0.21,0.14-0.31c0.12-0.12,0.24-0.18,0.37-0.18c0.1,0,0.21,0.05,0.31,0.14
			c0.12,0.12,0.18,0.23,0.18,0.35c0,0.14-0.05,0.27-0.14,0.37c-0.1,0.09-0.22,0.14-0.35,0.14C44.55,27.39,44.44,27.34,44.34,27.25z
			 M44.34,28.5c-0.12-0.1-0.18-0.23-0.18-0.37c0-0.1,0.05-0.21,0.14-0.31c0.12-0.12,0.24-0.18,0.37-0.18c0.1,0,0.21,0.05,0.31,0.14
			c0.12,0.12,0.18,0.23,0.18,0.35c0,0.14-0.05,0.27-0.14,0.37c-0.1,0.09-0.22,0.14-0.35,0.14C44.55,28.64,44.44,28.59,44.34,28.5z
			 M44.34,32.24c-0.12-0.1-0.18-0.23-0.18-0.37c0-0.1,0.05-0.21,0.14-0.31c0.12-0.12,0.24-0.18,0.37-0.18c0.1,0,0.21,0.05,0.31,0.14
			c0.12,0.12,0.18,0.23,0.18,0.35c0,0.14-0.05,0.27-0.14,0.37c-0.1,0.09-0.22,0.14-0.35,0.14C44.55,32.38,44.44,32.33,44.34,32.24z
			 M44.34,33.49c-0.12-0.1-0.18-0.23-0.18-0.37c0-0.1,0.05-0.21,0.14-0.31c0.12-0.12,0.24-0.18,0.37-0.18c0.1,0,0.21,0.05,0.31,0.14
			c0.12,0.12,0.18,0.23,0.18,0.35c0,0.14-0.05,0.27-0.14,0.37c-0.1,0.09-0.22,0.14-0.35,0.14C44.55,33.62,44.44,33.58,44.34,33.49z
			 M44.41,29.65c-0.09-0.08-0.14-0.17-0.14-0.27c0-0.08,0.04-0.16,0.12-0.23c0.08-0.09,0.17-0.14,0.27-0.14
			c0.08,0,0.16,0.04,0.23,0.12c0.09,0.08,0.14,0.16,0.14,0.25c0,0.1-0.04,0.19-0.12,0.27c-0.07,0.08-0.15,0.12-0.25,0.12
			C44.58,29.77,44.49,29.73,44.41,29.65z M44.41,30.9c-0.09-0.08-0.14-0.17-0.14-0.27c0-0.08,0.04-0.16,0.12-0.23
			c0.08-0.09,0.17-0.14,0.27-0.14c0.08,0,0.16,0.04,0.23,0.12c0.09,0.08,0.14,0.16,0.14,0.25c0,0.1-0.04,0.19-0.12,0.27
			c-0.07,0.08-0.15,0.12-0.25,0.12C44.58,31.01,44.49,30.97,44.41,30.9z M45.58,27.25c-0.12-0.1-0.18-0.23-0.18-0.37
			c0-0.1,0.05-0.21,0.14-0.31c0.12-0.12,0.24-0.18,0.37-0.18c0.1,0,0.21,0.05,0.31,0.14c0.12,0.12,0.18,0.23,0.18,0.35
			c0,0.14-0.05,0.27-0.14,0.37c-0.1,0.09-0.22,0.14-0.35,0.14C45.8,27.39,45.69,27.34,45.58,27.25z M45.58,28.5
			c-0.12-0.1-0.18-0.23-0.18-0.37c0-0.1,0.05-0.21,0.14-0.31c0.12-0.12,0.24-0.18,0.37-0.18c0.1,0,0.21,0.05,0.31,0.14
			c0.12,0.12,0.18,0.23,0.18,0.35c0,0.14-0.05,0.27-0.14,0.37c-0.1,0.09-0.22,0.14-0.35,0.14C45.8,28.64,45.69,28.59,45.58,28.5z
			 M45.58,32.24c-0.12-0.1-0.18-0.23-0.18-0.37c0-0.1,0.05-0.21,0.14-0.31c0.12-0.12,0.24-0.18,0.37-0.18c0.1,0,0.21,0.05,0.31,0.14
			c0.12,0.12,0.18,0.23,0.18,0.35c0,0.14-0.05,0.27-0.14,0.37c-0.1,0.09-0.22,0.14-0.35,0.14C45.8,32.38,45.69,32.33,45.58,32.24z
			 M45.58,33.49c-0.12-0.1-0.18-0.23-0.18-0.37c0-0.1,0.05-0.21,0.14-0.31c0.12-0.12,0.24-0.18,0.37-0.18c0.1,0,0.21,0.05,0.31,0.14
			c0.12,0.12,0.18,0.23,0.18,0.35c0,0.14-0.05,0.27-0.14,0.37c-0.1,0.09-0.22,0.14-0.35,0.14C45.8,33.62,45.69,33.58,45.58,33.49z
			 M45.66,29.65c-0.09-0.08-0.14-0.17-0.14-0.27c0-0.08,0.04-0.16,0.12-0.23c0.08-0.09,0.17-0.14,0.27-0.14
			c0.08,0,0.16,0.04,0.23,0.12c0.09,0.08,0.14,0.16,0.14,0.25c0,0.1-0.04,0.19-0.12,0.27c-0.07,0.08-0.15,0.12-0.25,0.12
			C45.82,29.77,45.74,29.73,45.66,29.65z M45.66,30.9c-0.09-0.08-0.14-0.17-0.14-0.27c0-0.08,0.04-0.16,0.12-0.23
			c0.08-0.09,0.17-0.14,0.27-0.14c0.08,0,0.16,0.04,0.23,0.12c0.09,0.08,0.14,0.16,0.14,0.25c0,0.1-0.04,0.19-0.12,0.27
			c-0.07,0.08-0.15,0.12-0.25,0.12C45.82,31.01,45.74,30.97,45.66,30.9z M0.18,24.84C0.06,24.72,0,24.57,0,24.39
			c0-0.17,0.06-0.31,0.18-0.43c0.12-0.13,0.27-0.19,0.45-0.19c0.17,0,0.31,0.07,0.43,0.19c0.13,0.12,0.19,0.26,0.19,0.43
			c0,0.18-0.07,0.33-0.19,0.45c-0.12,0.12-0.26,0.18-0.43,0.18C0.44,25.01,0.29,24.96,0.18,24.84z M0.18,26.09
			C0.06,25.97,0,25.82,0,25.64c0-0.17,0.06-0.31,0.18-0.43c0.12-0.13,0.27-0.19,0.45-0.19c0.17,0,0.31,0.07,0.43,0.19
			c0.13,0.12,0.19,0.26,0.19,0.43c0,0.18-0.07,0.33-0.19,0.45c-0.12,0.12-0.26,0.18-0.43,0.18C0.44,26.26,0.29,26.2,0.18,26.09z
			 M0.18,34.81C0.06,34.69,0,34.55,0,34.36c0-0.17,0.06-0.31,0.18-0.43c0.12-0.13,0.27-0.19,0.45-0.19c0.17,0,0.31,0.07,0.43,0.19
			c0.13,0.12,0.19,0.26,0.19,0.43c0,0.18-0.07,0.33-0.19,0.45c-0.12,0.12-0.26,0.18-0.43,0.18C0.44,34.99,0.29,34.93,0.18,34.81z
			 M0.18,36.06C0.06,35.94,0,35.79,0,35.61c0-0.17,0.06-0.31,0.18-0.43c0.12-0.13,0.27-0.19,0.45-0.19c0.17,0,0.31,0.07,0.43,0.19
			c0.13,0.12,0.19,0.26,0.19,0.43c0,0.18-0.07,0.33-0.19,0.45c-0.12,0.12-0.26,0.18-0.43,0.18C0.44,36.23,0.29,36.17,0.18,36.06z
			 M0.29,27.25c-0.12-0.1-0.18-0.23-0.18-0.37c0-0.1,0.05-0.21,0.14-0.31c0.12-0.12,0.24-0.18,0.37-0.18c0.1,0,0.21,0.05,0.31,0.14
			c0.12,0.12,0.18,0.23,0.18,0.35c0,0.14-0.05,0.27-0.14,0.37c-0.1,0.09-0.22,0.14-0.35,0.14C0.51,27.39,0.4,27.34,0.29,27.25z
			 M0.29,28.5c-0.12-0.1-0.18-0.23-0.18-0.37c0-0.1,0.05-0.21,0.14-0.31c0.12-0.12,0.24-0.18,0.37-0.18c0.1,0,0.21,0.05,0.31,0.14
			c0.12,0.12,0.18,0.23,0.18,0.35c0,0.14-0.05,0.27-0.14,0.37c-0.1,0.09-0.22,0.14-0.35,0.14C0.51,28.64,0.4,28.59,0.29,28.5z
			 M0.29,32.24c-0.12-0.1-0.18-0.23-0.18-0.37c0-0.1,0.05-0.21,0.14-0.31c0.12-0.12,0.24-0.18,0.37-0.18c0.1,0,0.21,0.05,0.31,0.14
			c0.12,0.12,0.18,0.23,0.18,0.35c0,0.14-0.05,0.27-0.14,0.37c-0.1,0.09-0.22,0.14-0.35,0.14C0.51,32.38,0.4,32.33,0.29,32.24z
			 M0.29,33.49c-0.12-0.1-0.18-0.23-0.18-0.37c0-0.1,0.05-0.21,0.14-0.31c0.12-0.12,0.24-0.18,0.37-0.18c0.1,0,0.21,0.05,0.31,0.14
			c0.12,0.12,0.18,0.23,0.18,0.35c0,0.14-0.05,0.27-0.14,0.37c-0.1,0.09-0.22,0.14-0.35,0.14C0.51,33.62,0.4,33.58,0.29,33.49z
			 M0.37,29.65c-0.09-0.08-0.14-0.17-0.14-0.27c0-0.08,0.04-0.16,0.12-0.23c0.08-0.09,0.17-0.14,0.27-0.14
			c0.08,0,0.16,0.04,0.23,0.12c0.09,0.08,0.14,0.16,0.14,0.25c0,0.1-0.04,0.19-0.12,0.27c-0.07,0.08-0.15,0.12-0.25,0.12
			C0.53,29.77,0.45,29.73,0.37,29.65z M0.37,30.9c-0.09-0.08-0.14-0.17-0.14-0.27c0-0.08,0.04-0.16,0.12-0.23
			c0.08-0.09,0.17-0.14,0.27-0.14c0.08,0,0.16,0.04,0.23,0.12c0.09,0.08,0.14,0.16,0.14,0.25c0,0.1-0.04,0.19-0.12,0.27
			c-0.07,0.08-0.15,0.12-0.25,0.12C0.53,31.01,0.45,30.97,0.37,30.9z M1.42,24.84c-0.12-0.12-0.18-0.27-0.18-0.45
			c0-0.17,0.06-0.31,0.18-0.43c0.12-0.13,0.27-0.19,0.45-0.19c0.17,0,0.31,0.07,0.43,0.19c0.13,0.12,0.19,0.26,0.19,0.43
			c0,0.18-0.07,0.33-0.19,0.45c-0.12,0.12-0.26,0.18-0.43,0.18C1.69,25.01,1.54,24.96,1.42,24.84z M1.42,26.09
			c-0.12-0.12-0.18-0.27-0.18-0.45c0-0.17,0.06-0.31,0.18-0.43c0.12-0.13,0.27-0.19,0.45-0.19c0.17,0,0.31,0.07,0.43,0.19
			c0.13,0.12,0.19,0.26,0.19,0.43c0,0.18-0.07,0.33-0.19,0.45c-0.12,0.12-0.26,0.18-0.43,0.18C1.69,26.26,1.54,26.2,1.42,26.09z
			 M1.42,34.81c-0.12-0.12-0.18-0.27-0.18-0.45c0-0.17,0.06-0.31,0.18-0.43c0.12-0.13,0.27-0.19,0.45-0.19
			c0.17,0,0.31,0.07,0.43,0.19c0.13,0.12,0.19,0.26,0.19,0.43c0,0.18-0.07,0.33-0.19,0.45c-0.12,0.12-0.26,0.18-0.43,0.18
			C1.69,34.99,1.54,34.93,1.42,34.81z M1.42,36.06c-0.12-0.12-0.18-0.27-0.18-0.45c0-0.17,0.06-0.31,0.18-0.43
			c0.12-0.13,0.27-0.19,0.45-0.19c0.17,0,0.31,0.07,0.43,0.19c0.13,0.12,0.19,0.26,0.19,0.43c0,0.18-0.07,0.33-0.19,0.45
			c-0.12,0.12-0.26,0.18-0.43,0.18C1.69,36.23,1.54,36.17,1.42,36.06z M1.54,27.25c-0.12-0.1-0.18-0.23-0.18-0.37
			c0-0.1,0.05-0.21,0.14-0.31c0.12-0.12,0.24-0.18,0.37-0.18c0.1,0,0.21,0.05,0.31,0.14c0.12,0.12,0.18,0.23,0.18,0.35
			c0,0.14-0.05,0.27-0.14,0.37c-0.1,0.09-0.22,0.14-0.35,0.14C1.75,27.39,1.64,27.34,1.54,27.25z M1.54,28.5
			c-0.12-0.1-0.18-0.23-0.18-0.37c0-0.1,0.05-0.21,0.14-0.31c0.12-0.12,0.24-0.18,0.37-0.18c0.1,0,0.21,0.05,0.31,0.14
			c0.12,0.12,0.18,0.23,0.18,0.35c0,0.14-0.05,0.27-0.14,0.37c-0.1,0.09-0.22,0.14-0.35,0.14C1.75,28.64,1.64,28.59,1.54,28.5z
			 M1.54,32.24c-0.12-0.1-0.18-0.23-0.18-0.37c0-0.1,0.05-0.21,0.14-0.31c0.12-0.12,0.24-0.18,0.37-0.18c0.1,0,0.21,0.05,0.31,0.14
			c0.12,0.12,0.18,0.23,0.18,0.35c0,0.14-0.05,0.27-0.14,0.37c-0.1,0.09-0.22,0.14-0.35,0.14C1.75,32.38,1.64,32.33,1.54,32.24z
			 M1.54,33.49c-0.12-0.1-0.18-0.23-0.18-0.37c0-0.1,0.05-0.21,0.14-0.31c0.12-0.12,0.24-0.18,0.37-0.18c0.1,0,0.21,0.05,0.31,0.14
			C2.3,32.88,2.36,33,2.36,33.12c0,0.14-0.05,0.27-0.14,0.37c-0.1,0.09-0.22,0.14-0.35,0.14C1.75,33.62,1.64,33.58,1.54,33.49z
			 M1.62,29.65c-0.09-0.08-0.14-0.17-0.14-0.27c0-0.08,0.04-0.16,0.12-0.23c0.08-0.09,0.17-0.14,0.27-0.14
			c0.08,0,0.16,0.04,0.23,0.12c0.09,0.08,0.14,0.16,0.14,0.25c0,0.1-0.04,0.19-0.12,0.27c-0.07,0.08-0.15,0.12-0.25,0.12
			C1.78,29.77,1.69,29.73,1.62,29.65z M1.62,30.9c-0.09-0.08-0.14-0.17-0.14-0.27c0-0.08,0.04-0.16,0.12-0.23
			c0.08-0.09,0.17-0.14,0.27-0.14c0.08,0,0.16,0.04,0.23,0.12c0.09,0.08,0.14,0.16,0.14,0.25c0,0.1-0.04,0.19-0.12,0.27
			c-0.07,0.08-0.15,0.12-0.25,0.12C1.78,31.01,1.69,30.97,1.62,30.9z M2.67,24.84c-0.12-0.12-0.18-0.27-0.18-0.45
			c0-0.17,0.06-0.31,0.18-0.43c0.12-0.13,0.27-0.19,0.45-0.19c0.17,0,0.31,0.07,0.43,0.19c0.13,0.12,0.19,0.26,0.19,0.43
			c0,0.18-0.07,0.33-0.19,0.45c-0.12,0.12-0.26,0.18-0.43,0.18C2.93,25.01,2.79,24.96,2.67,24.84z M2.67,26.09
			c-0.12-0.12-0.18-0.27-0.18-0.45c0-0.17,0.06-0.31,0.18-0.43c0.12-0.13,0.27-0.19,0.45-0.19c0.17,0,0.31,0.07,0.43,0.19
			c0.13,0.12,0.19,0.26,0.19,0.43c0,0.18-0.07,0.33-0.19,0.45c-0.12,0.12-0.26,0.18-0.43,0.18C2.93,26.26,2.79,26.2,2.67,26.09z
			 M2.67,34.81c-0.12-0.12-0.18-0.27-0.18-0.45c0-0.17,0.06-0.31,0.18-0.43c0.12-0.13,0.27-0.19,0.45-0.19
			c0.17,0,0.31,0.07,0.43,0.19c0.13,0.12,0.19,0.26,0.19,0.43c0,0.18-0.07,0.33-0.19,0.45c-0.12,0.12-0.26,0.18-0.43,0.18
			C2.93,34.99,2.79,34.93,2.67,34.81z M2.67,36.06c-0.12-0.12-0.18-0.27-0.18-0.45c0-0.17,0.06-0.31,0.18-0.43
			c0.12-0.13,0.27-0.19,0.45-0.19c0.17,0,0.31,0.07,0.43,0.19c0.13,0.12,0.19,0.26,0.19,0.43c0,0.18-0.07,0.33-0.19,0.45
			c-0.12,0.12-0.26,0.18-0.43,0.18C2.93,36.23,2.79,36.17,2.67,36.06z M2.79,27.25c-0.12-0.1-0.18-0.23-0.18-0.37
			c0-0.1,0.05-0.21,0.14-0.31c0.12-0.12,0.24-0.18,0.37-0.18c0.1,0,0.21,0.05,0.31,0.14c0.12,0.12,0.18,0.23,0.18,0.35
			c0,0.14-0.05,0.27-0.14,0.37c-0.1,0.09-0.22,0.14-0.35,0.14C3,27.39,2.89,27.34,2.79,27.25z M2.79,28.5
			c-0.12-0.1-0.18-0.23-0.18-0.37c0-0.1,0.05-0.21,0.14-0.31c0.12-0.12,0.24-0.18,0.37-0.18c0.1,0,0.21,0.05,0.31,0.14
			c0.12,0.12,0.18,0.23,0.18,0.35c0,0.14-0.05,0.27-0.14,0.37c-0.1,0.09-0.22,0.14-0.35,0.14C3,28.64,2.89,28.59,2.79,28.5z
			 M2.79,32.24c-0.12-0.1-0.18-0.23-0.18-0.37c0-0.1,0.05-0.21,0.14-0.31c0.12-0.12,0.24-0.18,0.37-0.18c0.1,0,0.21,0.05,0.31,0.14
			c0.12,0.12,0.18,0.23,0.18,0.35c0,0.14-0.05,0.27-0.14,0.37c-0.1,0.09-0.22,0.14-0.35,0.14C3,32.38,2.89,32.33,2.79,32.24z
			 M2.79,33.49c-0.12-0.1-0.18-0.23-0.18-0.37c0-0.1,0.05-0.21,0.14-0.31c0.12-0.12,0.24-0.18,0.37-0.18c0.1,0,0.21,0.05,0.31,0.14
			C3.54,32.88,3.6,33,3.6,33.12c0,0.14-0.05,0.27-0.14,0.37c-0.1,0.09-0.22,0.14-0.35,0.14C3,33.62,2.89,33.58,2.79,33.49z
			 M2.86,29.65c-0.09-0.08-0.14-0.17-0.14-0.27c0-0.08,0.04-0.16,0.12-0.23c0.08-0.09,0.17-0.14,0.27-0.14
			c0.08,0,0.16,0.04,0.23,0.12c0.09,0.08,0.14,0.16,0.14,0.25c0,0.1-0.04,0.19-0.12,0.27c-0.07,0.08-0.15,0.12-0.25,0.12
			C3.03,29.77,2.94,29.73,2.86,29.65z M2.86,30.9c-0.09-0.08-0.14-0.17-0.14-0.27c0-0.08,0.04-0.16,0.12-0.23
			c0.08-0.09,0.17-0.14,0.27-0.14c0.08,0,0.16,0.04,0.23,0.12c0.09,0.08,0.14,0.16,0.14,0.25c0,0.1-0.04,0.19-0.12,0.27
			c-0.07,0.08-0.15,0.12-0.25,0.12C3.03,31.01,2.94,30.97,2.86,30.9z M3.92,34.81c-0.12-0.12-0.18-0.27-0.18-0.45
			c0-0.17,0.06-0.31,0.18-0.43c0.12-0.13,0.27-0.19,0.45-0.19c0.17,0,0.31,0.07,0.43,0.19c0.13,0.12,0.19,0.26,0.19,0.43
			c0,0.18-0.07,0.33-0.19,0.45c-0.12,0.12-0.26,0.18-0.43,0.18C4.18,34.99,4.03,34.93,3.92,34.81z M3.92,36.06
			c-0.12-0.12-0.18-0.27-0.18-0.45c0-0.17,0.06-0.31,0.18-0.43c0.12-0.13,0.27-0.19,0.45-0.19c0.17,0,0.31,0.07,0.43,0.19
			c0.13,0.12,0.19,0.26,0.19,0.43c0,0.18-0.07,0.33-0.19,0.45c-0.12,0.12-0.26,0.18-0.43,0.18C4.18,36.23,4.03,36.17,3.92,36.06z
			 M5.16,34.81c-0.12-0.12-0.18-0.27-0.18-0.45c0-0.17,0.06-0.31,0.18-0.43c0.12-0.13,0.27-0.19,0.45-0.19
			c0.17,0,0.31,0.07,0.43,0.19c0.13,0.12,0.19,0.26,0.19,0.43c0,0.18-0.06,0.33-0.19,0.45c-0.12,0.12-0.26,0.18-0.43,0.18
			C5.43,34.99,5.28,34.93,5.16,34.81z M5.16,36.06c-0.12-0.12-0.18-0.27-0.18-0.45c0-0.17,0.06-0.31,0.18-0.43
			c0.12-0.13,0.27-0.19,0.45-0.19c0.17,0,0.31,0.07,0.43,0.19c0.13,0.12,0.19,0.26,0.19,0.43c0,0.18-0.06,0.33-0.19,0.45
			c-0.12,0.12-0.26,0.18-0.43,0.18C5.43,36.23,5.28,36.17,5.16,36.06z M6.41,34.81c-0.12-0.12-0.18-0.27-0.18-0.45
			c0-0.17,0.06-0.31,0.18-0.43c0.12-0.13,0.27-0.19,0.45-0.19c0.17,0,0.31,0.07,0.43,0.19c0.13,0.12,0.19,0.26,0.19,0.43
			c0,0.18-0.07,0.33-0.19,0.45c-0.12,0.12-0.26,0.18-0.43,0.18C6.67,34.99,6.53,34.93,6.41,34.81z M6.41,36.06
			c-0.12-0.12-0.18-0.27-0.18-0.45c0-0.17,0.06-0.31,0.18-0.43c0.12-0.13,0.27-0.19,0.45-0.19c0.17,0,0.31,0.07,0.43,0.19
			c0.13,0.12,0.19,0.26,0.19,0.43c0,0.18-0.07,0.33-0.19,0.45c-0.12,0.12-0.26,0.18-0.43,0.18C6.67,36.23,6.53,36.17,6.41,36.06z
			 M7.65,34.81c-0.12-0.12-0.18-0.27-0.18-0.45c0-0.17,0.06-0.31,0.18-0.43c0.12-0.13,0.27-0.19,0.45-0.19
			c0.17,0,0.31,0.07,0.43,0.19c0.13,0.12,0.19,0.26,0.19,0.43c0,0.18-0.07,0.33-0.19,0.45c-0.12,0.12-0.26,0.18-0.43,0.18
			C7.92,34.99,7.77,34.93,7.65,34.81z M7.65,36.06c-0.12-0.12-0.18-0.27-0.18-0.45c0-0.17,0.06-0.31,0.18-0.43
			c0.12-0.13,0.27-0.19,0.45-0.19c0.17,0,0.31,0.07,0.43,0.19c0.13,0.12,0.19,0.26,0.19,0.43c0,0.18-0.07,0.33-0.19,0.45
			c-0.12,0.12-0.26,0.18-0.43,0.18C7.92,36.23,7.77,36.17,7.65,36.06z M8.9,34.81c-0.12-0.12-0.18-0.27-0.18-0.45
			c0-0.17,0.06-0.31,0.18-0.43c0.12-0.13,0.27-0.19,0.45-0.19c0.17,0,0.31,0.07,0.43,0.19c0.13,0.12,0.19,0.26,0.19,0.43
			c0,0.18-0.07,0.33-0.19,0.45c-0.12,0.12-0.26,0.18-0.43,0.18C9.17,34.99,9.02,34.93,8.9,34.81z M8.9,36.06
			c-0.12-0.12-0.18-0.27-0.18-0.45c0-0.17,0.06-0.31,0.18-0.43c0.12-0.13,0.27-0.19,0.45-0.19c0.17,0,0.31,0.07,0.43,0.19
			c0.13,0.12,0.19,0.26,0.19,0.43c0,0.18-0.07,0.33-0.19,0.45c-0.12,0.12-0.26,0.18-0.43,0.18C9.17,36.23,9.02,36.17,8.9,36.06z
			 M10.15,34.81c-0.12-0.12-0.18-0.27-0.18-0.45c0-0.17,0.06-0.31,0.18-0.43c0.12-0.13,0.27-0.19,0.45-0.19
			c0.17,0,0.31,0.07,0.43,0.19c0.13,0.12,0.19,0.26,0.19,0.43c0,0.18-0.07,0.33-0.19,0.45c-0.12,0.12-0.26,0.18-0.43,0.18
			C10.41,34.99,10.26,34.93,10.15,34.81z M10.15,36.06c-0.12-0.12-0.18-0.27-0.18-0.45c0-0.17,0.06-0.31,0.18-0.43
			c0.12-0.13,0.27-0.19,0.45-0.19c0.17,0,0.31,0.07,0.43,0.19c0.13,0.12,0.19,0.26,0.19,0.43c0,0.18-0.07,0.33-0.19,0.45
			c-0.12,0.12-0.26,0.18-0.43,0.18C10.41,36.23,10.26,36.17,10.15,36.06z M11.39,34.81c-0.12-0.12-0.18-0.27-0.18-0.45
			c0-0.17,0.06-0.31,0.18-0.43c0.12-0.13,0.27-0.19,0.45-0.19c0.17,0,0.31,0.07,0.43,0.19c0.13,0.12,0.19,0.26,0.19,0.43
			c0,0.18-0.07,0.33-0.19,0.45c-0.12,0.12-0.26,0.18-0.43,0.18C11.66,34.99,11.51,34.93,11.39,34.81z M11.39,36.06
			c-0.12-0.12-0.18-0.27-0.18-0.45c0-0.17,0.06-0.31,0.18-0.43c0.12-0.13,0.27-0.19,0.45-0.19c0.17,0,0.31,0.07,0.43,0.19
			c0.13,0.12,0.19,0.26,0.19,0.43c0,0.18-0.07,0.33-0.19,0.45c-0.12,0.12-0.26,0.18-0.43,0.18C11.66,36.23,11.51,36.17,11.39,36.06z
			 M12.64,34.81c-0.12-0.12-0.18-0.27-0.18-0.45c0-0.17,0.06-0.31,0.18-0.43c0.12-0.13,0.27-0.19,0.45-0.19
			c0.17,0,0.31,0.07,0.43,0.19c0.13,0.12,0.19,0.26,0.19,0.43c0,0.18-0.07,0.33-0.19,0.45c-0.12,0.12-0.26,0.18-0.43,0.18
			C12.91,34.99,12.76,34.93,12.64,34.81z M12.64,36.06c-0.12-0.12-0.18-0.27-0.18-0.45c0-0.17,0.06-0.31,0.18-0.43
			c0.12-0.13,0.27-0.19,0.45-0.19c0.17,0,0.31,0.07,0.43,0.19c0.13,0.12,0.19,0.26,0.19,0.43c0,0.18-0.07,0.33-0.19,0.45
			c-0.12,0.12-0.26,0.18-0.43,0.18C12.91,36.23,12.76,36.17,12.64,36.06z M13.89,34.81c-0.12-0.12-0.18-0.27-0.18-0.45
			c0-0.17,0.06-0.31,0.18-0.43c0.12-0.13,0.27-0.19,0.45-0.19c0.17,0,0.31,0.07,0.43,0.19c0.13,0.12,0.19,0.26,0.19,0.43
			c0,0.18-0.07,0.33-0.19,0.45c-0.12,0.12-0.26,0.18-0.43,0.18C14.15,34.99,14,34.93,13.89,34.81z M13.89,36.06
			c-0.12-0.12-0.18-0.27-0.18-0.45c0-0.17,0.06-0.31,0.18-0.43c0.12-0.13,0.27-0.19,0.45-0.19c0.17,0,0.31,0.07,0.43,0.19
			c0.13,0.12,0.19,0.26,0.19,0.43c0,0.18-0.07,0.33-0.19,0.45c-0.12,0.12-0.26,0.18-0.43,0.18C14.15,36.23,14,36.17,13.89,36.06z
			 M15.13,34.81c-0.12-0.12-0.18-0.27-0.18-0.45c0-0.17,0.06-0.31,0.18-0.43c0.12-0.13,0.27-0.19,0.45-0.19
			c0.17,0,0.31,0.07,0.43,0.19c0.13,0.12,0.19,0.26,0.19,0.43c0,0.18-0.07,0.33-0.19,0.45c-0.12,0.12-0.26,0.18-0.43,0.18
			C15.4,34.99,15.25,34.93,15.13,34.81z M15.13,36.06c-0.12-0.12-0.18-0.27-0.18-0.45c0-0.17,0.06-0.31,0.18-0.43
			c0.12-0.13,0.27-0.19,0.45-0.19c0.17,0,0.31,0.07,0.43,0.19c0.13,0.12,0.19,0.26,0.19,0.43c0,0.18-0.07,0.33-0.19,0.45
			c-0.12,0.12-0.26,0.18-0.43,0.18C15.4,36.23,15.25,36.17,15.13,36.06z"/>
	</g>
</g>
</svg>
