<?xml version="1.0" encoding="utf-8"?>
<!-- Generator: Adobe Illustrator 21.1.0, SVG Export Plug-In . SVG Version: 6.00 Build 0)  -->
<svg version="1.1" id="BRAND_-_Osram" xmlns="http://www.w3.org/2000/svg" xmlns:xlink="http://www.w3.org/1999/xlink" x="0px"
	 y="0px" viewBox="0 0 60 60" style="enable-background:new 0 0 60 60;" xml:space="preserve">
<style type="text/css">
	.st0{clip-path:url(#SVGID_4_);fill:#555555;}
	.st1{clip-path:url(#SVGID_10_);fill:#272727;}
</style>
<g>
	<g>
		<g>
			<defs>
				<path id="SVGID_1_" d="M8.13,24.54H2.88c0.3,0.4,0.59,0.69,0.69,1.09L0.5,35.35h2.68h1.59c4.56,0,6.64-2.28,7.54-5.16
					C13.59,26.03,12,24.54,8.13,24.54z M9.42,30.09c-0.79,2.38-2.08,3.87-4.46,3.87H3.08l2.58-7.93h2.38
					C10.12,26.03,10.42,27.32,9.42,30.09z M55.93,24.34c-3.67,0.1-5.55,1.39-6.94,4.76c-1.69,4.07-0.69,6.54,3.27,6.54
					c3.67,0,6.05-1.78,7.34-5.95C60.78,25.83,59.3,24.24,55.93,24.34z M56.72,29.5c-0.99,3.27-2.38,4.76-4.26,4.76
					c-2.08-0.1-1.98-2.08-0.89-4.86c0.89-2.18,2.08-3.67,3.97-3.67C57.21,25.73,57.51,26.92,56.72,29.5z M46.9,26.72l0.59-1.88
					c-0.99-0.3-1.98-0.5-3.37-0.5c-2.38,0-4.07,0.69-4.86,2.38c-1.09,2.48,0.5,3.27,2.38,4.16c2.78,1.29,1.19,3.57-1.49,3.27
					c-1.09-0.1-1.98-0.59-2.97-0.99l-0.59,1.88c1.09,0.4,2.48,0.69,4.07,0.59c2.78-0.2,4.46-1.29,5.16-3.07
					c0.79-1.98-0.4-3.27-2.28-3.77C39.96,27.51,42.24,23.94,46.9,26.72L46.9,26.72z M26.38,24.54c0.3,0.4,0.5,0.69,0.69,1.09
					L24,35.35h1.88l2.58-8.13l2.97,8.13h2.68l-0.1-0.3l3.37-10.51H35.5l-2.48,7.73l-2.88-7.73C28.86,24.54,27.67,24.54,26.38,24.54
					L26.38,24.54z M15.87,24.54c0.3,0.4,0.59,0.69,0.69,1.09l-3.07,9.72c2.68,0,5.35,0,8.13,0l0.4-1.19h-5.45l1.19-3.77h3.57
					l0.4-1.19h-3.67l1.09-3.47h5.26l0.4-1.19C21.82,24.54,18.84,24.54,15.87,24.54L15.87,24.54z"/>
			</defs>
			<clipPath id="SVGID_2_">
				<use xlink:href="#SVGID_1_"  style="overflow:visible;"/>
			</clipPath>
		</g>
		<g>
			<defs>
				<path id="SVGID_3_" d="M8.13,24.54H2.88c0.3,0.4,0.59,0.69,0.69,1.09L0.5,35.35h2.68h1.59c4.56,0,6.64-2.28,7.54-5.16
					C13.59,26.03,12,24.54,8.13,24.54z M9.42,30.09c-0.79,2.38-2.08,3.87-4.46,3.87H3.08l2.58-7.93h2.38
					C10.12,26.03,10.42,27.32,9.42,30.09z M55.93,24.34c-3.67,0.1-5.55,1.39-6.94,4.76c-1.69,4.07-0.69,6.54,3.27,6.54
					c3.67,0,6.05-1.78,7.34-5.95C60.78,25.83,59.3,24.24,55.93,24.34z M56.72,29.5c-0.99,3.27-2.38,4.76-4.26,4.76
					c-2.08-0.1-1.98-2.08-0.89-4.86c0.89-2.18,2.08-3.67,3.97-3.67C57.21,25.73,57.51,26.92,56.72,29.5z M46.9,26.72l0.59-1.88
					c-0.99-0.3-1.98-0.5-3.37-0.5c-2.38,0-4.07,0.69-4.86,2.38c-1.09,2.48,0.5,3.27,2.38,4.16c2.78,1.29,1.19,3.57-1.49,3.27
					c-1.09-0.1-1.98-0.59-2.97-0.99l-0.59,1.88c1.09,0.4,2.48,0.69,4.07,0.59c2.78-0.2,4.46-1.29,5.16-3.07
					c0.79-1.98-0.4-3.27-2.28-3.77C39.96,27.51,42.24,23.94,46.9,26.72L46.9,26.72z M26.38,24.54c0.3,0.4,0.5,0.69,0.69,1.09
					L24,35.35h1.88l2.58-8.13l2.97,8.13h2.68l-0.1-0.3l3.37-10.51H35.5l-2.48,7.73l-2.88-7.73C28.86,24.54,27.67,24.54,26.38,24.54
					L26.38,24.54z M15.87,24.54c0.3,0.4,0.59,0.69,0.69,1.09l-3.07,9.72c2.68,0,5.35,0,8.13,0l0.4-1.19h-5.45l1.19-3.77h3.57
					l0.4-1.19h-3.67l1.09-3.47h5.26l0.4-1.19C21.82,24.54,18.84,24.54,15.87,24.54L15.87,24.54z"/>
			</defs>
			<use xlink:href="#SVGID_3_"  style="overflow:visible;fill:#555555;"/>
			<clipPath id="SVGID_4_">
				<use xlink:href="#SVGID_3_"  style="overflow:visible;"/>
			</clipPath>
			<path class="st0" d="M8.63,25.05H3.38c0.3,0.4,0.59,0.69,0.69,1.09L1,35.85h2.68h1.59c4.56,0,6.64-2.28,7.54-5.16
				C14.09,26.53,12.5,25.05,8.63,25.05z M9.92,30.6c-0.79,2.38-2.08,3.87-4.46,3.87H3.58l2.58-7.93h2.38
				C10.62,26.53,10.92,27.82,9.92,30.6z M56.43,24.85c-3.67,0.1-5.55,1.39-6.94,4.76c-1.69,4.07-0.69,6.54,3.27,6.54
				c3.67,0,6.05-1.78,7.34-5.95C61.28,26.34,59.8,24.75,56.43,24.85z M57.22,30c-0.99,3.27-2.38,4.76-4.26,4.76
				c-2.08-0.1-1.98-2.08-0.89-4.86c0.89-2.18,2.08-3.67,3.97-3.67C57.71,26.24,58.01,27.43,57.22,30z M47.4,27.23L48,25.34
				c-0.99-0.3-1.98-0.5-3.37-0.5c-2.38,0-4.07,0.69-4.86,2.38c-1.09,2.48,0.5,3.27,2.38,4.16c2.78,1.29,1.19,3.57-1.49,3.27
				c-1.09-0.1-1.98-0.59-2.97-0.99l-0.59,1.88c1.09,0.4,2.48,0.69,4.07,0.59c2.78-0.2,4.46-1.29,5.16-3.07
				c0.79-1.98-0.4-3.27-2.28-3.77C40.46,28.02,42.74,24.45,47.4,27.23L47.4,27.23z M26.88,25.05c0.3,0.4,0.5,0.69,0.69,1.09
				l-3.07,9.72h1.88l2.58-8.13l2.97,8.13h2.68l-0.1-0.3l3.37-10.51H36l-2.48,7.73l-2.88-7.73C29.36,25.05,28.17,25.05,26.88,25.05
				L26.88,25.05z M16.37,25.05c0.3,0.4,0.59,0.69,0.69,1.09l-3.07,9.72c2.68,0,5.35,0,8.13,0l0.4-1.19h-5.45l1.19-3.77h3.57
				l0.4-1.19h-3.67l1.09-3.47h5.26l0.4-1.19C22.32,25.05,19.34,25.05,16.37,25.05L16.37,25.05z"/>
		</g>
		<g>
			<defs>
				<path id="SVGID_5_" d="M8.13,24.54H2.88c0.3,0.4,0.59,0.69,0.69,1.09L0.5,35.35h2.68h1.59c4.56,0,6.64-2.28,7.54-5.16
					C13.59,26.03,12,24.54,8.13,24.54z M9.42,30.09c-0.79,2.38-2.08,3.87-4.46,3.87H3.08l2.58-7.93h2.38
					C10.12,26.03,10.42,27.32,9.42,30.09z M55.93,24.34c-3.67,0.1-5.55,1.39-6.94,4.76c-1.69,4.07-0.69,6.54,3.27,6.54
					c3.67,0,6.05-1.78,7.34-5.95C60.78,25.83,59.3,24.24,55.93,24.34z M56.72,29.5c-0.99,3.27-2.38,4.76-4.26,4.76
					c-2.08-0.1-1.98-2.08-0.89-4.86c0.89-2.18,2.08-3.67,3.97-3.67C57.21,25.73,57.51,26.92,56.72,29.5z M46.9,26.72l0.59-1.88
					c-0.99-0.3-1.98-0.5-3.37-0.5c-2.38,0-4.07,0.69-4.86,2.38c-1.09,2.48,0.5,3.27,2.38,4.16c2.78,1.29,1.19,3.57-1.49,3.27
					c-1.09-0.1-1.98-0.59-2.97-0.99l-0.59,1.88c1.09,0.4,2.48,0.69,4.07,0.59c2.78-0.2,4.46-1.29,5.16-3.07
					c0.79-1.98-0.4-3.27-2.28-3.77C39.96,27.51,42.24,23.94,46.9,26.72L46.9,26.72z M26.38,24.54c0.3,0.4,0.5,0.69,0.69,1.09
					L24,35.35h1.88l2.58-8.13l2.97,8.13h2.68l-0.1-0.3l3.37-10.51H35.5l-2.48,7.73l-2.88-7.73C28.86,24.54,27.67,24.54,26.38,24.54
					L26.38,24.54z M15.87,24.54c0.3,0.4,0.59,0.69,0.69,1.09l-3.07,9.72c2.68,0,5.35,0,8.13,0l0.4-1.19h-5.45l1.19-3.77h3.57
					l0.4-1.19h-3.67l1.09-3.47h5.26l0.4-1.19C21.82,24.54,18.84,24.54,15.87,24.54L15.87,24.54z"/>
			</defs>
			<clipPath id="SVGID_6_">
				<use xlink:href="#SVGID_5_"  style="overflow:visible;"/>
			</clipPath>
		</g>
	</g>
	<g>
		<g>
			<defs>
				<path id="SVGID_7_" d="M7.63,24.04H2.38c0.3,0.4,0.59,0.69,0.69,1.09L0,34.85h2.68h1.59c4.56,0,6.64-2.28,7.54-5.16
					C13.09,25.53,11.5,24.04,7.63,24.04z M8.92,29.59c-0.79,2.38-2.08,3.87-4.46,3.87H2.58l2.58-7.93h2.38
					C9.62,25.53,9.92,26.82,8.92,29.59z M55.43,23.84c-3.67,0.1-5.55,1.39-6.94,4.76c-1.69,4.07-0.69,6.54,3.27,6.54
					c3.67,0,6.05-1.78,7.34-5.95C60.28,25.33,58.8,23.74,55.43,23.84z M56.22,29c-0.99,3.27-2.38,4.76-4.26,4.76
					c-2.08-0.1-1.98-2.08-0.89-4.86c0.89-2.18,2.08-3.67,3.97-3.67C56.71,25.23,57.01,26.42,56.22,29z M46.4,26.22L47,24.34
					c-0.99-0.3-1.98-0.5-3.37-0.5c-2.38,0-4.07,0.69-4.86,2.38c-1.09,2.48,0.5,3.27,2.38,4.16c2.78,1.29,1.19,3.57-1.49,3.27
					c-1.09-0.1-1.98-0.59-2.97-0.99l-0.59,1.88c1.09,0.4,2.48,0.69,4.07,0.59c2.78-0.2,4.46-1.29,5.16-3.07
					c0.79-1.98-0.4-3.27-2.28-3.77C39.46,27.01,41.74,23.44,46.4,26.22L46.4,26.22z M25.88,24.04c0.3,0.4,0.5,0.69,0.69,1.09
					l-3.07,9.72h1.88l2.58-8.13l2.97,8.13h2.68l-0.1-0.3l3.37-10.51H35l-2.48,7.73l-2.88-7.73C28.36,24.04,27.17,24.04,25.88,24.04
					L25.88,24.04z M15.37,24.04c0.3,0.4,0.59,0.69,0.69,1.09l-3.07,9.72c2.68,0,5.35,0,8.13,0l0.4-1.19h-5.45l1.19-3.77h3.57
					l0.4-1.19h-3.67l1.09-3.47h5.26l0.4-1.19C21.32,24.04,18.34,24.04,15.37,24.04L15.37,24.04z"/>
			</defs>
			<clipPath id="SVGID_8_">
				<use xlink:href="#SVGID_7_"  style="overflow:visible;"/>
			</clipPath>
		</g>
		<g>
			<defs>
				<path id="SVGID_9_" d="M7.63,24.04H2.38c0.3,0.4,0.59,0.69,0.69,1.09L0,34.85h2.68h1.59c4.56,0,6.64-2.28,7.54-5.16
					C13.09,25.53,11.5,24.04,7.63,24.04z M8.92,29.59c-0.79,2.38-2.08,3.87-4.46,3.87H2.58l2.58-7.93h2.38
					C9.62,25.53,9.92,26.82,8.92,29.59z M55.43,23.84c-3.67,0.1-5.55,1.39-6.94,4.76c-1.69,4.07-0.69,6.54,3.27,6.54
					c3.67,0,6.05-1.78,7.34-5.95C60.28,25.33,58.8,23.74,55.43,23.84z M56.22,29c-0.99,3.27-2.38,4.76-4.26,4.76
					c-2.08-0.1-1.98-2.08-0.89-4.86c0.89-2.18,2.08-3.67,3.97-3.67C56.71,25.23,57.01,26.42,56.22,29z M46.4,26.22L47,24.34
					c-0.99-0.3-1.98-0.5-3.37-0.5c-2.38,0-4.07,0.69-4.86,2.38c-1.09,2.48,0.5,3.27,2.38,4.16c2.78,1.29,1.19,3.57-1.49,3.27
					c-1.09-0.1-1.98-0.59-2.97-0.99l-0.59,1.88c1.09,0.4,2.48,0.69,4.07,0.59c2.78-0.2,4.46-1.29,5.16-3.07
					c0.79-1.98-0.4-3.27-2.28-3.77C39.46,27.01,41.74,23.44,46.4,26.22L46.4,26.22z M25.88,24.04c0.3,0.4,0.5,0.69,0.69,1.09
					l-3.07,9.72h1.88l2.58-8.13l2.97,8.13h2.68l-0.1-0.3l3.37-10.51H35l-2.48,7.73l-2.88-7.73C28.36,24.04,27.17,24.04,25.88,24.04
					L25.88,24.04z M15.37,24.04c0.3,0.4,0.59,0.69,0.69,1.09l-3.07,9.72c2.68,0,5.35,0,8.13,0l0.4-1.19h-5.45l1.19-3.77h3.57
					l0.4-1.19h-3.67l1.09-3.47h5.26l0.4-1.19C21.32,24.04,18.34,24.04,15.37,24.04L15.37,24.04z"/>
			</defs>
			<use xlink:href="#SVGID_9_"  style="overflow:visible;fill:#111111;"/>
			<clipPath id="SVGID_10_">
				<use xlink:href="#SVGID_9_"  style="overflow:visible;"/>
			</clipPath>
			<path class="st1" d="M8.13,24.55H2.88c0.3,0.4,0.59,0.69,0.69,1.09L0.5,35.35h2.68h1.59c4.56,0,6.64-2.28,7.54-5.16
				C13.59,26.03,12,24.55,8.13,24.55z M9.42,30.1c-0.79,2.38-2.08,3.87-4.46,3.87H3.08l2.58-7.93h2.38
				C10.12,26.03,10.42,27.32,9.42,30.1z M55.93,24.35c-3.67,0.1-5.55,1.39-6.94,4.76c-1.69,4.07-0.69,6.54,3.27,6.54
				c3.67,0,6.05-1.78,7.34-5.95C60.78,25.84,59.3,24.25,55.93,24.35z M56.72,29.5c-0.99,3.27-2.38,4.76-4.26,4.76
				c-2.08-0.1-1.98-2.08-0.89-4.86c0.89-2.18,2.08-3.67,3.97-3.67C57.21,25.74,57.51,26.93,56.72,29.5z M46.9,26.73l0.59-1.88
				c-0.99-0.3-1.98-0.5-3.37-0.5c-2.38,0-4.07,0.69-4.86,2.38c-1.09,2.48,0.5,3.27,2.38,4.16c2.78,1.29,1.19,3.57-1.49,3.27
				c-1.09-0.1-1.98-0.59-2.97-0.99l-0.59,1.88c1.09,0.4,2.48,0.69,4.07,0.59c2.78-0.2,4.46-1.29,5.16-3.07
				c0.79-1.98-0.4-3.27-2.28-3.77C39.96,27.52,42.24,23.95,46.9,26.73L46.9,26.73z M26.38,24.55c0.3,0.4,0.5,0.69,0.69,1.09
				L24,35.35h1.88l2.58-8.13l2.97,8.13h2.68l-0.1-0.3l3.37-10.51H35.5l-2.48,7.73l-2.88-7.73C28.86,24.55,27.67,24.55,26.38,24.55
				L26.38,24.55z M15.87,24.55c0.3,0.4,0.59,0.69,0.69,1.09l-3.07,9.72c2.68,0,5.35,0,8.13,0l0.4-1.19h-5.45l1.19-3.77h3.57
				l0.4-1.19h-3.67l1.09-3.47h5.26l0.4-1.19C21.82,24.55,18.84,24.55,15.87,24.55L15.87,24.55z"/>
		</g>
		<g>
			<defs>
				<path id="SVGID_11_" d="M7.63,24.04H2.38c0.3,0.4,0.59,0.69,0.69,1.09L0,34.85h2.68h1.59c4.56,0,6.64-2.28,7.54-5.16
					C13.09,25.53,11.5,24.04,7.63,24.04z M8.92,29.59c-0.79,2.38-2.08,3.87-4.46,3.87H2.58l2.58-7.93h2.38
					C9.62,25.53,9.92,26.82,8.92,29.59z M55.43,23.84c-3.67,0.1-5.55,1.39-6.94,4.76c-1.69,4.07-0.69,6.54,3.27,6.54
					c3.67,0,6.05-1.78,7.34-5.95C60.28,25.33,58.8,23.74,55.43,23.84z M56.22,29c-0.99,3.27-2.38,4.76-4.26,4.76
					c-2.08-0.1-1.98-2.08-0.89-4.86c0.89-2.18,2.08-3.67,3.97-3.67C56.71,25.23,57.01,26.42,56.22,29z M46.4,26.22L47,24.34
					c-0.99-0.3-1.98-0.5-3.37-0.5c-2.38,0-4.07,0.69-4.86,2.38c-1.09,2.48,0.5,3.27,2.38,4.16c2.78,1.29,1.19,3.57-1.49,3.27
					c-1.09-0.1-1.98-0.59-2.97-0.99l-0.59,1.88c1.09,0.4,2.48,0.69,4.07,0.59c2.78-0.2,4.46-1.29,5.16-3.07
					c0.79-1.98-0.4-3.27-2.28-3.77C39.46,27.01,41.74,23.44,46.4,26.22L46.4,26.22z M25.88,24.04c0.3,0.4,0.5,0.69,0.69,1.09
					l-3.07,9.72h1.88l2.58-8.13l2.97,8.13h2.68l-0.1-0.3l3.37-10.51H35l-2.48,7.73l-2.88-7.73C28.36,24.04,27.17,24.04,25.88,24.04
					L25.88,24.04z M15.37,24.04c0.3,0.4,0.59,0.69,0.69,1.09l-3.07,9.72c2.68,0,5.35,0,8.13,0l0.4-1.19h-5.45l1.19-3.77h3.57
					l0.4-1.19h-3.67l1.09-3.47h5.26l0.4-1.19C21.32,24.04,18.34,24.04,15.37,24.04L15.37,24.04z"/>
			</defs>
			<clipPath id="SVGID_12_">
				<use xlink:href="#SVGID_11_"  style="overflow:visible;"/>
			</clipPath>
		</g>
	</g>
</g>
</svg>
