<?xml version="1.0" encoding="utf-8"?>
<!-- Generator: Adobe Illustrator 21.1.0, SVG Export Plug-In . SVG Version: 6.00 Build 0)  -->
<svg version="1.1" id="BRAND_-_Osram" xmlns="http://www.w3.org/2000/svg" xmlns:xlink="http://www.w3.org/1999/xlink" x="0px"
	 y="0px" viewBox="0 0 60 60" style="enable-background:new 0 0 60 60;" xml:space="preserve">
<style type="text/css">
	.st0{clip-path:url(#SVGID_4_);fill:#555555;}
	.st1{clip-path:url(#SVGID_10_);fill:#272727;}
</style>
<g>
	<g>
		<g>
			<defs>
				<path id="SVGID_1_" d="M6.48,42.07H5.32v2.41h0.5v-0.67h0.66c0.47,0,0.88-0.32,0.88-0.87C7.35,42.35,6.95,42.07,6.48,42.07z
					 M6.4,43.39H5.82v-0.88H6.4c0.24,0,0.44,0.16,0.44,0.44C6.84,43.22,6.64,43.39,6.4,43.39z M9.93,42.07h1.91v0.44h-1.43v0.52
					h1.17v0.44h-1.17v0.58h1.43v0.44H9.93V42.07z M16.51,42.86c0-0.54-0.37-0.78-0.96-0.78h-1.06v2.41h0.5v-0.87h0.3l0.81,0.87h0.56
					v-0.08l-0.77-0.81C16.24,43.53,16.51,43.24,16.51,42.86z M14.99,43.23v-0.72h0.62c0.23,0,0.39,0.12,0.39,0.36
					c0,0.22-0.16,0.36-0.39,0.36H14.99z M19.2,42.07h1.84v0.44h-1.36v0.69h1.17v0.44h-1.17v0.85H19.2V42.07z M24.69,42.04
					c-0.71,0-1.24,0.53-1.24,1.25c0,0.71,0.53,1.24,1.24,1.24c0.71,0,1.25-0.53,1.25-1.24C25.93,42.57,25.4,42.04,24.69,42.04z
					 M24.69,44.06c-0.44,0-0.75-0.34-0.75-0.77c0-0.44,0.32-0.77,0.75-0.77c0.44,0,0.75,0.33,0.75,0.77
					C25.44,43.72,25.13,44.06,24.69,44.06z M30.59,42.86c0-0.54-0.37-0.78-0.96-0.78h-1.06v2.41h0.5v-0.87h0.3l0.81,0.87h0.56v-0.08
					l-0.77-0.81C30.32,43.53,30.59,43.24,30.59,42.86z M29.07,43.23v-0.72h0.62c0.23,0,0.39,0.12,0.39,0.36
					c0,0.22-0.16,0.36-0.39,0.36H29.07z M35.53,42.07h0.45v2.41h-0.5v-1.63l-0.81,0.97h-0.09l-0.81-0.97v1.63h-0.5v-2.41h0.45
					l0.9,1.08L35.53,42.07z M39.43,42.07l-0.96,2.41h0.5L39.16,44h1.1l0.18,0.48h0.5l-0.93-2.41H39.43z M39.29,43.64l0.43-1.07
					l0.41,1.07H39.29z M45.24,42.07h0.5v2.41H45.3l-1.36-1.62v1.62h-0.5v-2.41h0.43l1.36,1.63V42.07z M48.88,43.28
					c0,0.44,0.31,0.78,0.75,0.78c0.31,0,0.54-0.11,0.71-0.24l0.23,0.35c-0.25,0.23-0.58,0.35-0.94,0.35c-0.72,0-1.26-0.54-1.26-1.24
					s0.54-1.24,1.26-1.24c0.37,0,0.69,0.12,0.94,0.35l-0.23,0.35c-0.16-0.13-0.39-0.24-0.71-0.24
					C49.19,42.5,48.88,42.84,48.88,43.28z M53.65,42.51v0.52h1.17v0.44h-1.17v0.58h1.43v0.44h-1.91v-2.41h1.91v0.44H53.65z
					 M37.18,31.6V30.5c0-0.16-0.15-0.29-0.29-0.29h-7.41c-0.16,0-0.29,0.13-0.29,0.29v0.26c0,0.15,0.13,0.29,0.29,0.29h0.54v6.3
					h-1.39c0,0,0,0,0,0c0,0,0,0,0,0h-1.39v-6.84c0-0.16-0.13-0.29-0.29-0.29h-6.56c-0.15,0-0.29,0.13-0.29,0.29v6.84h-1.39
					c0,0,0,0,0,0s0,0,0,0h-1.39l-2.1-2.1h1.81c0.15,0,0.29-0.13,0.29-0.29V30.5c0-0.16-0.15-0.29-0.29-0.29H9.63
					c-0.16,0-0.29,0.13-0.29,0.29v0.26c0,0.15,0.13,0.29,0.29,0.29h0.54v6.3H8.78c-0.16,0-0.29,0.15-0.29,0.29v0.26
					c0,0.16,0.13,0.29,0.29,0.29h3.21c0.15,0,0.29-0.13,0.29-0.29v-2.65h0.41l2.87,2.86c0.03,0.04,0.12,0.09,0.2,0.09h2.95
					c0,0,0,0,0,0s0,0,0,0h9.92c0,0,0,0,0,0c0,0,0,0,0,0h1.39v1.9c0,0.13,0.09,0.23,0.2,0.28l1.5,0.6c0,0,0.07,0.03,0.1,0.03
					c0.17,0,0.31-0.13,0.31-0.29v-5.45h2.65c0.15,0,0.29-0.13,0.29-0.29V34.7c0-0.15-0.15-0.29-0.29-0.29h-2.65v-3.35h2.93v0.54
					c0,0.16,0.15,0.29,0.29,0.29h1.53C37.03,31.89,37.18,31.76,37.18,31.6z M12.28,34.41v-3.35h2.95v3.35H12.28z M25.15,37.36H22.2
					v-6.3h2.95V37.36z M60,37.66v0.25c0,0.16-0.15,0.29-0.29,0.29h-9.27c-0.03,0-0.05,0-0.07-0.01c-0.02,0.01-0.05,0.01-0.07,0.01
					h-8.24c0,0,0,0,0,0s0,0,0,0h-4.87c-0.16,0-0.29-0.13-0.29-0.29v-0.26c0-0.15,0.13-0.29,0.29-0.29h1.39v-6.3h-0.54
					c-0.16,0-0.29-0.13-0.29-0.29v-0.25c0-0.16,0.13-0.29,0.29-0.29h3.19c0.16,0,0.29,0.13,0.29,0.29v0.25
					c0,0.16-0.13,0.29-0.29,0.29h-0.55v6.3h1.39c0,0,0,0,0,0s0,0,0,0h1.39v-6.3h-0.54c-0.16,0-0.29-0.13-0.29-0.29v-0.25
					c0-0.16,0.13-0.29,0.29-0.29h2.35c0.16,0,0.29,0.13,0.29,0.29v6.84h2.95v-0.54c0-0.16,0.13-0.29,0.29-0.29h1.52
					c0.16,0,0.29,0.13,0.29,0.29v0.54h1.24V34.7c0-0.15,0.15-0.29,0.29-0.29h1.82l-2.03-2.01c-0.01-0.01-0.09-0.17-0.09-0.2V30.5
					c0-0.16,0.15-0.29,0.29-0.29h6.58c0.15,0,0.29,0.13,0.29,0.29v1.09c0,0.16-0.15,0.29-0.29,0.29h-1.52
					c-0.16,0-0.29-0.13-0.29-0.29v-0.54h-2.95v0.89l2.39,2.39c0.01,0.01,0.09,0.17,0.09,0.2v0.42c0,0.16-0.15,0.29-0.29,0.29h-2.19
					v2.1h5.77C59.85,37.36,60,37.5,60,37.66z M8.49,30.5v4.46c0,0.16-0.15,0.29-0.29,0.29H4.57c-0.15,0-0.29-0.13-0.29-0.29V34.7
					c0-0.15,0.15-0.29,0.29-0.29h1.82v-3.35H3.45l0,9.65c0,0.16-0.13,0.29-0.31,0.29c-0.03,0-0.1-0.03-0.1-0.03l-1.51-0.6
					c-0.12-0.04-0.2-0.15-0.2-0.28l0-9.04H0.79c-0.16,0-0.29-0.15-0.29-0.29V30.5c0-0.16,0.13-0.29,0.29-0.29H8.2
					C8.34,30.21,8.49,30.34,8.49,30.5z M40.13,20.18c-0.15-0.14-0.38-0.17-0.55-0.05l-3.18,2.16l0.27-3.41
					c0.01-0.17-0.07-0.33-0.22-0.41c-0.15-0.08-0.33-0.07-0.47,0.02l-3.12,2.23l-2.3-4.04c-0.16-0.27-0.6-0.27-0.76,0l-2.3,4.04
					l-3.12-2.23c-0.14-0.1-0.32-0.11-0.47-0.02c-0.15,0.08-0.23,0.24-0.22,0.41l0.27,3.41l-3.18-2.16c-0.17-0.12-0.4-0.1-0.55,0.05
					c-0.15,0.14-0.17,0.37-0.06,0.55l4.23,6.55c0,0,0,0.01,0.01,0.01c0,0,0,0.01,0,0.01c0,0,0,0,0,0.01
					c0.02,0.03,0.05,0.06,0.09,0.09c0.01,0,0.01,0.01,0.02,0.01c0.01,0.01,0.02,0.01,0.03,0.02c0.01,0,0.02,0.01,0.03,0.01
					c0.02,0.01,0.03,0.01,0.05,0.02c0.01,0,0.01,0,0.02,0.01c0.01,0,0.02,0.01,0.03,0.01c0.03,0.01,0.06,0.01,0.1,0.01h5.41h5.41
					c0.03,0,0.07-0.01,0.1-0.01c0.01,0,0.02-0.01,0.03-0.01c0.01,0,0.01,0,0.02-0.01c0.02-0.01,0.03-0.01,0.05-0.02
					c0.01,0,0.02-0.01,0.03-0.01c0.01-0.01,0.02-0.01,0.03-0.02c0.01,0,0.01-0.01,0.02-0.01c0.03-0.02,0.06-0.05,0.09-0.09
					c0,0,0,0,0-0.01c0,0,0-0.01,0-0.01c0,0,0-0.01,0.01-0.01l4.23-6.55C40.3,20.55,40.28,20.32,40.13,20.18z M35.72,19.74
					l-0.25,3.17l-0.99,0.67l-1.2-2.11L35.72,19.74z M26.64,25.16l-1.5,1.07l-0.17-2.21L26.64,25.16z M32.96,24.62l-2.03-1.45
					l1.65-1.18l1.19,2.09L32.96,24.62z M32.19,25.15l-2.01,1.37l-2.01-1.37l2.01-1.44L32.19,25.15z M27.4,24.62l-0.8-0.55l1.19-2.09
					l1.65,1.18L27.4,24.62z M35.39,24.03l-0.17,2.21l-1.5-1.07L35.39,24.03z M30.18,17.78l1.97,3.46l-1.96,1.4l-1.97-1.4
					L30.18,17.78z M24.64,19.74l2.43,1.74l-1.2,2.11l-0.99-0.67L24.64,19.74z M24.05,23.4l0.15,1.96l-2.14-3.31L24.05,23.4z
					 M26.12,26.61l1.29-0.92l1.35,0.92H26.12z M31.6,26.61l1.35-0.92l1.29,0.92H31.6z M36.16,25.36l0.15-1.96l1.98-1.35L36.16,25.36
					z"/>
			</defs>
			<clipPath id="SVGID_2_">
				<use xlink:href="#SVGID_1_"  style="overflow:visible;"/>
			</clipPath>
		</g>
		<g>
			<defs>
				<path id="SVGID_3_" d="M6.48,42.07H5.32v2.41h0.5v-0.67h0.66c0.47,0,0.88-0.32,0.88-0.87C7.35,42.35,6.95,42.07,6.48,42.07z
					 M6.4,43.39H5.82v-0.88H6.4c0.24,0,0.44,0.16,0.44,0.44C6.84,43.22,6.64,43.39,6.4,43.39z M9.93,42.07h1.91v0.44h-1.43v0.52
					h1.17v0.44h-1.17v0.58h1.43v0.44H9.93V42.07z M16.51,42.86c0-0.54-0.37-0.78-0.96-0.78h-1.06v2.41h0.5v-0.87h0.3l0.81,0.87h0.56
					v-0.08l-0.77-0.81C16.24,43.53,16.51,43.24,16.51,42.86z M14.99,43.23v-0.72h0.62c0.23,0,0.39,0.12,0.39,0.36
					c0,0.22-0.16,0.36-0.39,0.36H14.99z M19.2,42.07h1.84v0.44h-1.36v0.69h1.17v0.44h-1.17v0.85H19.2V42.07z M24.69,42.04
					c-0.71,0-1.24,0.53-1.24,1.25c0,0.71,0.53,1.24,1.24,1.24c0.71,0,1.25-0.53,1.25-1.24C25.93,42.57,25.4,42.04,24.69,42.04z
					 M24.69,44.06c-0.44,0-0.75-0.34-0.75-0.77c0-0.44,0.32-0.77,0.75-0.77c0.44,0,0.75,0.33,0.75,0.77
					C25.44,43.72,25.13,44.06,24.69,44.06z M30.59,42.86c0-0.54-0.37-0.78-0.96-0.78h-1.06v2.41h0.5v-0.87h0.3l0.81,0.87h0.56v-0.08
					l-0.77-0.81C30.32,43.53,30.59,43.24,30.59,42.86z M29.07,43.23v-0.72h0.62c0.23,0,0.39,0.12,0.39,0.36
					c0,0.22-0.16,0.36-0.39,0.36H29.07z M35.53,42.07h0.45v2.41h-0.5v-1.63l-0.81,0.97h-0.09l-0.81-0.97v1.63h-0.5v-2.41h0.45
					l0.9,1.08L35.53,42.07z M39.43,42.07l-0.96,2.41h0.5L39.16,44h1.1l0.18,0.48h0.5l-0.93-2.41H39.43z M39.29,43.64l0.43-1.07
					l0.41,1.07H39.29z M45.24,42.07h0.5v2.41H45.3l-1.36-1.62v1.62h-0.5v-2.41h0.43l1.36,1.63V42.07z M48.88,43.28
					c0,0.44,0.31,0.78,0.75,0.78c0.31,0,0.54-0.11,0.71-0.24l0.23,0.35c-0.25,0.23-0.58,0.35-0.94,0.35c-0.72,0-1.26-0.54-1.26-1.24
					s0.54-1.24,1.26-1.24c0.37,0,0.69,0.12,0.94,0.35l-0.23,0.35c-0.16-0.13-0.39-0.24-0.71-0.24
					C49.19,42.5,48.88,42.84,48.88,43.28z M53.65,42.51v0.52h1.17v0.44h-1.17v0.58h1.43v0.44h-1.91v-2.41h1.91v0.44H53.65z
					 M37.18,31.6V30.5c0-0.16-0.15-0.29-0.29-0.29h-7.41c-0.16,0-0.29,0.13-0.29,0.29v0.26c0,0.15,0.13,0.29,0.29,0.29h0.54v6.3
					h-1.39c0,0,0,0,0,0c0,0,0,0,0,0h-1.39v-6.84c0-0.16-0.13-0.29-0.29-0.29h-6.56c-0.15,0-0.29,0.13-0.29,0.29v6.84h-1.39
					c0,0,0,0,0,0s0,0,0,0h-1.39l-2.1-2.1h1.81c0.15,0,0.29-0.13,0.29-0.29V30.5c0-0.16-0.15-0.29-0.29-0.29H9.63
					c-0.16,0-0.29,0.13-0.29,0.29v0.26c0,0.15,0.13,0.29,0.29,0.29h0.54v6.3H8.78c-0.16,0-0.29,0.15-0.29,0.29v0.26
					c0,0.16,0.13,0.29,0.29,0.29h3.21c0.15,0,0.29-0.13,0.29-0.29v-2.65h0.41l2.87,2.86c0.03,0.04,0.12,0.09,0.2,0.09h2.95
					c0,0,0,0,0,0s0,0,0,0h9.92c0,0,0,0,0,0c0,0,0,0,0,0h1.39v1.9c0,0.13,0.09,0.23,0.2,0.28l1.5,0.6c0,0,0.07,0.03,0.1,0.03
					c0.17,0,0.31-0.13,0.31-0.29v-5.45h2.65c0.15,0,0.29-0.13,0.29-0.29V34.7c0-0.15-0.15-0.29-0.29-0.29h-2.65v-3.35h2.93v0.54
					c0,0.16,0.15,0.29,0.29,0.29h1.53C37.03,31.89,37.18,31.76,37.18,31.6z M12.28,34.41v-3.35h2.95v3.35H12.28z M25.15,37.36H22.2
					v-6.3h2.95V37.36z M60,37.66v0.25c0,0.16-0.15,0.29-0.29,0.29h-9.27c-0.03,0-0.05,0-0.07-0.01c-0.02,0.01-0.05,0.01-0.07,0.01
					h-8.24c0,0,0,0,0,0s0,0,0,0h-4.87c-0.16,0-0.29-0.13-0.29-0.29v-0.26c0-0.15,0.13-0.29,0.29-0.29h1.39v-6.3h-0.54
					c-0.16,0-0.29-0.13-0.29-0.29v-0.25c0-0.16,0.13-0.29,0.29-0.29h3.19c0.16,0,0.29,0.13,0.29,0.29v0.25
					c0,0.16-0.13,0.29-0.29,0.29h-0.55v6.3h1.39c0,0,0,0,0,0s0,0,0,0h1.39v-6.3h-0.54c-0.16,0-0.29-0.13-0.29-0.29v-0.25
					c0-0.16,0.13-0.29,0.29-0.29h2.35c0.16,0,0.29,0.13,0.29,0.29v6.84h2.95v-0.54c0-0.16,0.13-0.29,0.29-0.29h1.52
					c0.16,0,0.29,0.13,0.29,0.29v0.54h1.24V34.7c0-0.15,0.15-0.29,0.29-0.29h1.82l-2.03-2.01c-0.01-0.01-0.09-0.17-0.09-0.2V30.5
					c0-0.16,0.15-0.29,0.29-0.29h6.58c0.15,0,0.29,0.13,0.29,0.29v1.09c0,0.16-0.15,0.29-0.29,0.29h-1.52
					c-0.16,0-0.29-0.13-0.29-0.29v-0.54h-2.95v0.89l2.39,2.39c0.01,0.01,0.09,0.17,0.09,0.2v0.42c0,0.16-0.15,0.29-0.29,0.29h-2.19
					v2.1h5.77C59.85,37.36,60,37.5,60,37.66z M8.49,30.5v4.46c0,0.16-0.15,0.29-0.29,0.29H4.57c-0.15,0-0.29-0.13-0.29-0.29V34.7
					c0-0.15,0.15-0.29,0.29-0.29h1.82v-3.35H3.45l0,9.65c0,0.16-0.13,0.29-0.31,0.29c-0.03,0-0.1-0.03-0.1-0.03l-1.51-0.6
					c-0.12-0.04-0.2-0.15-0.2-0.28l0-9.04H0.79c-0.16,0-0.29-0.15-0.29-0.29V30.5c0-0.16,0.13-0.29,0.29-0.29H8.2
					C8.34,30.21,8.49,30.34,8.49,30.5z M40.13,20.18c-0.15-0.14-0.38-0.17-0.55-0.05l-3.18,2.16l0.27-3.41
					c0.01-0.17-0.07-0.33-0.22-0.41c-0.15-0.08-0.33-0.07-0.47,0.02l-3.12,2.23l-2.3-4.04c-0.16-0.27-0.6-0.27-0.76,0l-2.3,4.04
					l-3.12-2.23c-0.14-0.1-0.32-0.11-0.47-0.02c-0.15,0.08-0.23,0.24-0.22,0.41l0.27,3.41l-3.18-2.16c-0.17-0.12-0.4-0.1-0.55,0.05
					c-0.15,0.14-0.17,0.37-0.06,0.55l4.23,6.55c0,0,0,0.01,0.01,0.01c0,0,0,0.01,0,0.01c0,0,0,0,0,0.01
					c0.02,0.03,0.05,0.06,0.09,0.09c0.01,0,0.01,0.01,0.02,0.01c0.01,0.01,0.02,0.01,0.03,0.02c0.01,0,0.02,0.01,0.03,0.01
					c0.02,0.01,0.03,0.01,0.05,0.02c0.01,0,0.01,0,0.02,0.01c0.01,0,0.02,0.01,0.03,0.01c0.03,0.01,0.06,0.01,0.1,0.01h5.41h5.41
					c0.03,0,0.07-0.01,0.1-0.01c0.01,0,0.02-0.01,0.03-0.01c0.01,0,0.01,0,0.02-0.01c0.02-0.01,0.03-0.01,0.05-0.02
					c0.01,0,0.02-0.01,0.03-0.01c0.01-0.01,0.02-0.01,0.03-0.02c0.01,0,0.01-0.01,0.02-0.01c0.03-0.02,0.06-0.05,0.09-0.09
					c0,0,0,0,0-0.01c0,0,0-0.01,0-0.01c0,0,0-0.01,0.01-0.01l4.23-6.55C40.3,20.55,40.28,20.32,40.13,20.18z M35.72,19.74
					l-0.25,3.17l-0.99,0.67l-1.2-2.11L35.72,19.74z M26.64,25.16l-1.5,1.07l-0.17-2.21L26.64,25.16z M32.96,24.62l-2.03-1.45
					l1.65-1.18l1.19,2.09L32.96,24.62z M32.19,25.15l-2.01,1.37l-2.01-1.37l2.01-1.44L32.19,25.15z M27.4,24.62l-0.8-0.55l1.19-2.09
					l1.65,1.18L27.4,24.62z M35.39,24.03l-0.17,2.21l-1.5-1.07L35.39,24.03z M30.18,17.78l1.97,3.46l-1.96,1.4l-1.97-1.4
					L30.18,17.78z M24.64,19.74l2.43,1.74l-1.2,2.11l-0.99-0.67L24.64,19.74z M24.05,23.4l0.15,1.96l-2.14-3.31L24.05,23.4z
					 M26.12,26.61l1.29-0.92l1.35,0.92H26.12z M31.6,26.61l1.35-0.92l1.29,0.92H31.6z M36.16,25.36l0.15-1.96l1.98-1.35L36.16,25.36
					z"/>
			</defs>
			<use xlink:href="#SVGID_3_"  style="overflow:visible;fill:#555555;"/>
			<clipPath id="SVGID_4_">
				<use xlink:href="#SVGID_3_"  style="overflow:visible;"/>
			</clipPath>
			<path class="st0" d="M6.98,42.57H5.82v2.41h0.5v-0.67h0.66c0.47,0,0.88-0.32,0.88-0.87C7.85,42.85,7.45,42.57,6.98,42.57z
				 M6.9,43.89H6.32v-0.88H6.9c0.24,0,0.44,0.16,0.44,0.44C7.34,43.72,7.14,43.89,6.9,43.89z M10.43,42.57h1.91v0.44h-1.43v0.52
				h1.17v0.44h-1.17v0.58h1.43v0.44h-1.91V42.57z M17.01,43.36c0-0.54-0.37-0.78-0.96-0.78h-1.06v2.41h0.5v-0.87h0.3l0.81,0.87h0.56
				v-0.08l-0.77-0.81C16.74,44.03,17.01,43.74,17.01,43.36z M15.49,43.73v-0.72h0.62c0.23,0,0.39,0.12,0.39,0.36
				c0,0.22-0.16,0.36-0.39,0.36H15.49z M19.7,42.57h1.84v0.44h-1.36v0.69h1.17v0.44h-1.17v0.85H19.7V42.57z M25.19,42.54
				c-0.71,0-1.24,0.53-1.24,1.25c0,0.71,0.53,1.24,1.24,1.24c0.71,0,1.25-0.53,1.25-1.24C26.43,43.07,25.9,42.54,25.19,42.54z
				 M25.19,44.56c-0.44,0-0.75-0.34-0.75-0.77c0-0.44,0.32-0.77,0.75-0.77c0.44,0,0.75,0.33,0.75,0.77
				C25.94,44.22,25.63,44.56,25.19,44.56z M31.09,43.36c0-0.54-0.37-0.78-0.96-0.78h-1.06v2.41h0.5v-0.87h0.3l0.81,0.87h0.56v-0.08
				l-0.77-0.81C30.82,44.03,31.09,43.74,31.09,43.36z M29.57,43.73v-0.72h0.62c0.23,0,0.39,0.12,0.39,0.36
				c0,0.22-0.16,0.36-0.39,0.36H29.57z M36.03,42.57h0.45v2.41h-0.5v-1.63l-0.81,0.97h-0.09l-0.81-0.97v1.63h-0.5v-2.41h0.45
				l0.9,1.08L36.03,42.57z M39.93,42.57l-0.96,2.41h0.5l0.19-0.48h1.1l0.18,0.48h0.5l-0.93-2.41H39.93z M39.79,44.14l0.43-1.07
				l0.41,1.07H39.79z M45.74,42.57h0.5v2.41H45.8l-1.36-1.62v1.62h-0.5v-2.41h0.43l1.36,1.63V42.57z M49.38,43.78
				c0,0.44,0.31,0.78,0.75,0.78c0.31,0,0.54-0.11,0.71-0.24l0.23,0.35c-0.25,0.23-0.58,0.35-0.94,0.35c-0.72,0-1.26-0.54-1.26-1.24
				s0.54-1.24,1.26-1.24c0.37,0,0.69,0.12,0.94,0.35l-0.23,0.35C50.68,43.11,50.45,43,50.13,43C49.69,43,49.38,43.34,49.38,43.78z
				 M54.15,43.01v0.52h1.17v0.44h-1.17v0.58h1.43v0.44h-1.91v-2.41h1.91v0.44H54.15z M37.68,32.1V31c0-0.16-0.15-0.29-0.29-0.29
				h-7.41c-0.16,0-0.29,0.13-0.29,0.29v0.26c0,0.15,0.13,0.29,0.29,0.29h0.54v6.3h-1.39c0,0,0,0,0,0c0,0,0,0,0,0h-1.39v-6.84
				c0-0.16-0.13-0.29-0.29-0.29h-6.56c-0.15,0-0.29,0.13-0.29,0.29v6.84h-1.39c0,0,0,0,0,0s0,0,0,0h-1.39l-2.1-2.1h1.81
				c0.15,0,0.29-0.13,0.29-0.29V31c0-0.16-0.15-0.29-0.29-0.29h-7.41c-0.16,0-0.29,0.13-0.29,0.29v0.26c0,0.15,0.13,0.29,0.29,0.29
				h0.54v6.3H9.28c-0.16,0-0.29,0.15-0.29,0.29v0.26c0,0.16,0.13,0.29,0.29,0.29h3.21c0.15,0,0.29-0.13,0.29-0.29v-2.65h0.41
				l2.87,2.86c0.03,0.04,0.12,0.09,0.2,0.09h2.95c0,0,0,0,0,0s0,0,0,0h9.92c0,0,0,0,0,0c0,0,0,0,0,0h1.39v1.9
				c0,0.13,0.09,0.23,0.2,0.28l1.5,0.6c0,0,0.07,0.03,0.1,0.03c0.17,0,0.31-0.13,0.31-0.29v-5.45h2.65c0.15,0,0.29-0.13,0.29-0.29
				V35.2c0-0.15-0.15-0.29-0.29-0.29h-2.65v-3.35h2.93v0.54c0,0.16,0.15,0.29,0.29,0.29h1.53C37.53,32.39,37.68,32.26,37.68,32.1z
				 M12.78,34.91v-3.35h2.95v3.35H12.78z M25.65,37.86H22.7v-6.3h2.95V37.86z M60.5,38.16v0.25c0,0.16-0.15,0.29-0.29,0.29h-9.27
				c-0.03,0-0.05,0-0.07-0.01c-0.02,0.01-0.05,0.01-0.07,0.01h-8.24c0,0,0,0,0,0s0,0,0,0h-4.87c-0.16,0-0.29-0.13-0.29-0.29v-0.26
				c0-0.15,0.13-0.29,0.29-0.29h1.39v-6.3h-0.54c-0.16,0-0.29-0.13-0.29-0.29v-0.25c0-0.16,0.13-0.29,0.29-0.29h3.19
				c0.16,0,0.29,0.13,0.29,0.29v0.25c0,0.16-0.13,0.29-0.29,0.29h-0.55v6.3h1.39c0,0,0,0,0,0s0,0,0,0h1.39v-6.3h-0.54
				c-0.16,0-0.29-0.13-0.29-0.29v-0.25c0-0.16,0.13-0.29,0.29-0.29h2.35c0.16,0,0.29,0.13,0.29,0.29v6.84h2.95v-0.54
				c0-0.16,0.13-0.29,0.29-0.29h1.52c0.16,0,0.29,0.13,0.29,0.29v0.54h1.24V35.2c0-0.15,0.15-0.29,0.29-0.29h1.82l-2.03-2.01
				c-0.01-0.01-0.09-0.17-0.09-0.2V31c0-0.16,0.15-0.29,0.29-0.29h6.58c0.15,0,0.29,0.13,0.29,0.29v1.09c0,0.16-0.15,0.29-0.29,0.29
				h-1.52c-0.16,0-0.29-0.13-0.29-0.29v-0.54h-2.95v0.89l2.39,2.39c0.01,0.01,0.09,0.17,0.09,0.2v0.42c0,0.16-0.15,0.29-0.29,0.29
				h-2.19v2.1h5.77C60.35,37.86,60.5,38,60.5,38.16z M8.99,31v4.46c0,0.16-0.15,0.29-0.29,0.29H5.07c-0.15,0-0.29-0.13-0.29-0.29
				V35.2c0-0.15,0.15-0.29,0.29-0.29h1.82v-3.35H3.95l0,9.65c0,0.16-0.13,0.29-0.31,0.29c-0.03,0-0.1-0.03-0.1-0.03l-1.51-0.6
				c-0.12-0.04-0.2-0.15-0.2-0.28l0-9.04H1.29C1.13,31.56,1,31.41,1,31.26V31c0-0.16,0.13-0.29,0.29-0.29H8.7
				C8.84,30.71,8.99,30.84,8.99,31z M40.63,20.68c-0.15-0.14-0.38-0.17-0.55-0.05l-3.18,2.16l0.27-3.41
				c0.01-0.17-0.07-0.33-0.22-0.41c-0.15-0.08-0.33-0.07-0.47,0.02l-3.12,2.23l-2.3-4.04c-0.16-0.27-0.6-0.27-0.76,0L28,21.22
				l-3.12-2.23c-0.14-0.1-0.32-0.11-0.47-0.02c-0.15,0.08-0.23,0.24-0.22,0.41l0.27,3.41l-3.18-2.16c-0.17-0.12-0.4-0.1-0.55,0.05
				c-0.15,0.14-0.17,0.37-0.06,0.55l4.23,6.55c0,0,0,0.01,0.01,0.01c0,0,0,0.01,0,0.01c0,0,0,0,0,0.01
				c0.02,0.03,0.05,0.06,0.09,0.09c0.01,0,0.01,0.01,0.02,0.01c0.01,0.01,0.02,0.01,0.03,0.02c0.01,0,0.02,0.01,0.03,0.01
				c0.02,0.01,0.03,0.01,0.05,0.02c0.01,0,0.01,0,0.02,0.01c0.01,0,0.02,0.01,0.03,0.01c0.03,0.01,0.06,0.01,0.1,0.01h5.41h5.41
				c0.03,0,0.07-0.01,0.1-0.01c0.01,0,0.02-0.01,0.03-0.01c0.01,0,0.01,0,0.02-0.01c0.02-0.01,0.03-0.01,0.05-0.02
				c0.01,0,0.02-0.01,0.03-0.01c0.01-0.01,0.02-0.01,0.03-0.02c0.01,0,0.01-0.01,0.02-0.01c0.03-0.02,0.06-0.05,0.09-0.09
				c0,0,0,0,0-0.01c0,0,0-0.01,0-0.01c0,0,0-0.01,0.01-0.01l4.23-6.55C40.8,21.05,40.78,20.82,40.63,20.68z M36.22,20.24l-0.25,3.17
				l-0.99,0.67l-1.2-2.11L36.22,20.24z M27.14,25.66l-1.5,1.07l-0.17-2.21L27.14,25.66z M33.46,25.12l-2.03-1.45l1.65-1.18
				l1.19,2.09L33.46,25.12z M32.69,25.65l-2.01,1.37l-2.01-1.37l2.01-1.44L32.69,25.65z M27.9,25.12l-0.8-0.55l1.19-2.09l1.65,1.18
				L27.9,25.12z M35.89,24.53l-0.17,2.21l-1.5-1.07L35.89,24.53z M30.68,18.28l1.97,3.46l-1.96,1.4l-1.97-1.4L30.68,18.28z
				 M25.14,20.24l2.43,1.74l-1.2,2.11l-0.99-0.67L25.14,20.24z M24.55,23.9l0.15,1.96l-2.14-3.31L24.55,23.9z M26.62,27.11
				l1.29-0.92l1.35,0.92H26.62z M32.1,27.11l1.35-0.92l1.29,0.92H32.1z M36.66,25.86l0.15-1.96l1.98-1.35L36.66,25.86z"/>
		</g>
		<g>
			<defs>
				<path id="SVGID_5_" d="M6.48,42.07H5.32v2.41h0.5v-0.67h0.66c0.47,0,0.88-0.32,0.88-0.87C7.35,42.35,6.95,42.07,6.48,42.07z
					 M6.4,43.39H5.82v-0.88H6.4c0.24,0,0.44,0.16,0.44,0.44C6.84,43.22,6.64,43.39,6.4,43.39z M9.93,42.07h1.91v0.44h-1.43v0.52
					h1.17v0.44h-1.17v0.58h1.43v0.44H9.93V42.07z M16.51,42.86c0-0.54-0.37-0.78-0.96-0.78h-1.06v2.41h0.5v-0.87h0.3l0.81,0.87h0.56
					v-0.08l-0.77-0.81C16.24,43.53,16.51,43.24,16.51,42.86z M14.99,43.23v-0.72h0.62c0.23,0,0.39,0.12,0.39,0.36
					c0,0.22-0.16,0.36-0.39,0.36H14.99z M19.2,42.07h1.84v0.44h-1.36v0.69h1.17v0.44h-1.17v0.85H19.2V42.07z M24.69,42.04
					c-0.71,0-1.24,0.53-1.24,1.25c0,0.71,0.53,1.24,1.24,1.24c0.71,0,1.25-0.53,1.25-1.24C25.93,42.57,25.4,42.04,24.69,42.04z
					 M24.69,44.06c-0.44,0-0.75-0.34-0.75-0.77c0-0.44,0.32-0.77,0.75-0.77c0.44,0,0.75,0.33,0.75,0.77
					C25.44,43.72,25.13,44.06,24.69,44.06z M30.59,42.86c0-0.54-0.37-0.78-0.96-0.78h-1.06v2.41h0.5v-0.87h0.3l0.81,0.87h0.56v-0.08
					l-0.77-0.81C30.32,43.53,30.59,43.24,30.59,42.86z M29.07,43.23v-0.72h0.62c0.23,0,0.39,0.12,0.39,0.36
					c0,0.22-0.16,0.36-0.39,0.36H29.07z M35.53,42.07h0.45v2.41h-0.5v-1.63l-0.81,0.97h-0.09l-0.81-0.97v1.63h-0.5v-2.41h0.45
					l0.9,1.08L35.53,42.07z M39.43,42.07l-0.96,2.41h0.5L39.16,44h1.1l0.18,0.48h0.5l-0.93-2.41H39.43z M39.29,43.64l0.43-1.07
					l0.41,1.07H39.29z M45.24,42.07h0.5v2.41H45.3l-1.36-1.62v1.62h-0.5v-2.41h0.43l1.36,1.63V42.07z M48.88,43.28
					c0,0.44,0.31,0.78,0.75,0.78c0.31,0,0.54-0.11,0.71-0.24l0.23,0.35c-0.25,0.23-0.58,0.35-0.94,0.35c-0.72,0-1.26-0.54-1.26-1.24
					s0.54-1.24,1.26-1.24c0.37,0,0.69,0.12,0.94,0.35l-0.23,0.35c-0.16-0.13-0.39-0.24-0.71-0.24
					C49.19,42.5,48.88,42.84,48.88,43.28z M53.65,42.51v0.52h1.17v0.44h-1.17v0.58h1.43v0.44h-1.91v-2.41h1.91v0.44H53.65z
					 M37.18,31.6V30.5c0-0.16-0.15-0.29-0.29-0.29h-7.41c-0.16,0-0.29,0.13-0.29,0.29v0.26c0,0.15,0.13,0.29,0.29,0.29h0.54v6.3
					h-1.39c0,0,0,0,0,0c0,0,0,0,0,0h-1.39v-6.84c0-0.16-0.13-0.29-0.29-0.29h-6.56c-0.15,0-0.29,0.13-0.29,0.29v6.84h-1.39
					c0,0,0,0,0,0s0,0,0,0h-1.39l-2.1-2.1h1.81c0.15,0,0.29-0.13,0.29-0.29V30.5c0-0.16-0.15-0.29-0.29-0.29H9.63
					c-0.16,0-0.29,0.13-0.29,0.29v0.26c0,0.15,0.13,0.29,0.29,0.29h0.54v6.3H8.78c-0.16,0-0.29,0.15-0.29,0.29v0.26
					c0,0.16,0.13,0.29,0.29,0.29h3.21c0.15,0,0.29-0.13,0.29-0.29v-2.65h0.41l2.87,2.86c0.03,0.04,0.12,0.09,0.2,0.09h2.95
					c0,0,0,0,0,0s0,0,0,0h9.92c0,0,0,0,0,0c0,0,0,0,0,0h1.39v1.9c0,0.13,0.09,0.23,0.2,0.28l1.5,0.6c0,0,0.07,0.03,0.1,0.03
					c0.17,0,0.31-0.13,0.31-0.29v-5.45h2.65c0.15,0,0.29-0.13,0.29-0.29V34.7c0-0.15-0.15-0.29-0.29-0.29h-2.65v-3.35h2.93v0.54
					c0,0.16,0.15,0.29,0.29,0.29h1.53C37.03,31.89,37.18,31.76,37.18,31.6z M12.28,34.41v-3.35h2.95v3.35H12.28z M25.15,37.36H22.2
					v-6.3h2.95V37.36z M60,37.66v0.25c0,0.16-0.15,0.29-0.29,0.29h-9.27c-0.03,0-0.05,0-0.07-0.01c-0.02,0.01-0.05,0.01-0.07,0.01
					h-8.24c0,0,0,0,0,0s0,0,0,0h-4.87c-0.16,0-0.29-0.13-0.29-0.29v-0.26c0-0.15,0.13-0.29,0.29-0.29h1.39v-6.3h-0.54
					c-0.16,0-0.29-0.13-0.29-0.29v-0.25c0-0.16,0.13-0.29,0.29-0.29h3.19c0.16,0,0.29,0.13,0.29,0.29v0.25
					c0,0.16-0.13,0.29-0.29,0.29h-0.55v6.3h1.39c0,0,0,0,0,0s0,0,0,0h1.39v-6.3h-0.54c-0.16,0-0.29-0.13-0.29-0.29v-0.25
					c0-0.16,0.13-0.29,0.29-0.29h2.35c0.16,0,0.29,0.13,0.29,0.29v6.84h2.95v-0.54c0-0.16,0.13-0.29,0.29-0.29h1.52
					c0.16,0,0.29,0.13,0.29,0.29v0.54h1.24V34.7c0-0.15,0.15-0.29,0.29-0.29h1.82l-2.03-2.01c-0.01-0.01-0.09-0.17-0.09-0.2V30.5
					c0-0.16,0.15-0.29,0.29-0.29h6.58c0.15,0,0.29,0.13,0.29,0.29v1.09c0,0.16-0.15,0.29-0.29,0.29h-1.52
					c-0.16,0-0.29-0.13-0.29-0.29v-0.54h-2.95v0.89l2.39,2.39c0.01,0.01,0.09,0.17,0.09,0.2v0.42c0,0.16-0.15,0.29-0.29,0.29h-2.19
					v2.1h5.77C59.85,37.36,60,37.5,60,37.66z M8.49,30.5v4.46c0,0.16-0.15,0.29-0.29,0.29H4.57c-0.15,0-0.29-0.13-0.29-0.29V34.7
					c0-0.15,0.15-0.29,0.29-0.29h1.82v-3.35H3.45l0,9.65c0,0.16-0.13,0.29-0.31,0.29c-0.03,0-0.1-0.03-0.1-0.03l-1.51-0.6
					c-0.12-0.04-0.2-0.15-0.2-0.28l0-9.04H0.79c-0.16,0-0.29-0.15-0.29-0.29V30.5c0-0.16,0.13-0.29,0.29-0.29H8.2
					C8.34,30.21,8.49,30.34,8.49,30.5z M40.13,20.18c-0.15-0.14-0.38-0.17-0.55-0.05l-3.18,2.16l0.27-3.41
					c0.01-0.17-0.07-0.33-0.22-0.41c-0.15-0.08-0.33-0.07-0.47,0.02l-3.12,2.23l-2.3-4.04c-0.16-0.27-0.6-0.27-0.76,0l-2.3,4.04
					l-3.12-2.23c-0.14-0.1-0.32-0.11-0.47-0.02c-0.15,0.08-0.23,0.24-0.22,0.41l0.27,3.41l-3.18-2.16c-0.17-0.12-0.4-0.1-0.55,0.05
					c-0.15,0.14-0.17,0.37-0.06,0.55l4.23,6.55c0,0,0,0.01,0.01,0.01c0,0,0,0.01,0,0.01c0,0,0,0,0,0.01
					c0.02,0.03,0.05,0.06,0.09,0.09c0.01,0,0.01,0.01,0.02,0.01c0.01,0.01,0.02,0.01,0.03,0.02c0.01,0,0.02,0.01,0.03,0.01
					c0.02,0.01,0.03,0.01,0.05,0.02c0.01,0,0.01,0,0.02,0.01c0.01,0,0.02,0.01,0.03,0.01c0.03,0.01,0.06,0.01,0.1,0.01h5.41h5.41
					c0.03,0,0.07-0.01,0.1-0.01c0.01,0,0.02-0.01,0.03-0.01c0.01,0,0.01,0,0.02-0.01c0.02-0.01,0.03-0.01,0.05-0.02
					c0.01,0,0.02-0.01,0.03-0.01c0.01-0.01,0.02-0.01,0.03-0.02c0.01,0,0.01-0.01,0.02-0.01c0.03-0.02,0.06-0.05,0.09-0.09
					c0,0,0,0,0-0.01c0,0,0-0.01,0-0.01c0,0,0-0.01,0.01-0.01l4.23-6.55C40.3,20.55,40.28,20.32,40.13,20.18z M35.72,19.74
					l-0.25,3.17l-0.99,0.67l-1.2-2.11L35.72,19.74z M26.64,25.16l-1.5,1.07l-0.17-2.21L26.64,25.16z M32.96,24.62l-2.03-1.45
					l1.65-1.18l1.19,2.09L32.96,24.62z M32.19,25.15l-2.01,1.37l-2.01-1.37l2.01-1.44L32.19,25.15z M27.4,24.62l-0.8-0.55l1.19-2.09
					l1.65,1.18L27.4,24.62z M35.39,24.03l-0.17,2.21l-1.5-1.07L35.39,24.03z M30.18,17.78l1.97,3.46l-1.96,1.4l-1.97-1.4
					L30.18,17.78z M24.64,19.74l2.43,1.74l-1.2,2.11l-0.99-0.67L24.64,19.74z M24.05,23.4l0.15,1.96l-2.14-3.31L24.05,23.4z
					 M26.12,26.61l1.29-0.92l1.35,0.92H26.12z M31.6,26.61l1.35-0.92l1.29,0.92H31.6z M36.16,25.36l0.15-1.96l1.98-1.35L36.16,25.36
					z"/>
			</defs>
			<clipPath id="SVGID_6_">
				<use xlink:href="#SVGID_5_"  style="overflow:visible;"/>
			</clipPath>
		</g>
	</g>
	<g>
		<g>
			<defs>
				<path id="SVGID_7_" d="M5.98,41.57H4.82v2.41h0.5v-0.67h0.66c0.47,0,0.88-0.32,0.88-0.87C6.85,41.85,6.45,41.57,5.98,41.57z
					 M5.9,42.89H5.32v-0.88H5.9c0.24,0,0.44,0.16,0.44,0.44C6.34,42.72,6.14,42.89,5.9,42.89z M9.43,41.57h1.91v0.44H9.91v0.52h1.17
					v0.44H9.91v0.58h1.43v0.44H9.43V41.57z M16.01,42.36c0-0.54-0.37-0.78-0.96-0.78h-1.06v2.41h0.5v-0.87h0.3l0.81,0.87h0.56v-0.08
					l-0.77-0.81C15.74,43.03,16.01,42.74,16.01,42.36z M14.49,42.73v-0.72h0.62c0.23,0,0.39,0.12,0.39,0.36
					c0,0.22-0.16,0.36-0.39,0.36H14.49z M18.7,41.57h1.84v0.44h-1.36v0.69h1.17v0.44h-1.17v0.85H18.7V41.57z M24.19,41.54
					c-0.71,0-1.24,0.53-1.24,1.25c0,0.71,0.53,1.24,1.24,1.24c0.71,0,1.25-0.53,1.25-1.24C25.43,42.07,24.9,41.54,24.19,41.54z
					 M24.19,43.56c-0.44,0-0.75-0.34-0.75-0.77c0-0.44,0.32-0.77,0.75-0.77c0.44,0,0.75,0.33,0.75,0.77
					C24.94,43.22,24.63,43.56,24.19,43.56z M30.09,42.36c0-0.54-0.37-0.78-0.96-0.78h-1.06v2.41h0.5v-0.87h0.3l0.81,0.87h0.56v-0.08
					l-0.77-0.81C29.82,43.03,30.09,42.74,30.09,42.36z M28.57,42.73v-0.72h0.62c0.23,0,0.39,0.12,0.39,0.36
					c0,0.22-0.16,0.36-0.39,0.36H28.57z M35.03,41.57h0.45v2.41h-0.5v-1.63l-0.81,0.97h-0.09l-0.81-0.97v1.63h-0.5v-2.41h0.45
					l0.9,1.08L35.03,41.57z M38.93,41.57l-0.96,2.41h0.5l0.19-0.48h1.1l0.18,0.48h0.5l-0.93-2.41H38.93z M38.79,43.14l0.43-1.07
					l0.41,1.07H38.79z M44.74,41.57h0.5v2.41H44.8l-1.36-1.62v1.62h-0.5v-2.41h0.43l1.36,1.63V41.57z M48.38,42.78
					c0,0.44,0.31,0.78,0.75,0.78c0.31,0,0.54-0.11,0.71-0.24l0.23,0.35c-0.25,0.23-0.58,0.35-0.94,0.35c-0.72,0-1.26-0.54-1.26-1.24
					s0.54-1.24,1.26-1.24c0.37,0,0.69,0.12,0.94,0.35l-0.23,0.35C49.68,42.11,49.45,42,49.13,42C48.69,42,48.38,42.34,48.38,42.78z
					 M53.15,42.01v0.52h1.17v0.44h-1.17v0.58h1.43v0.44h-1.91v-2.41h1.91v0.44H53.15z M36.68,31.1V30c0-0.16-0.15-0.29-0.29-0.29
					h-7.41c-0.16,0-0.29,0.13-0.29,0.29v0.26c0,0.15,0.13,0.29,0.29,0.29h0.54v6.3h-1.39c0,0,0,0,0,0c0,0,0,0,0,0h-1.39v-6.84
					c0-0.16-0.13-0.29-0.29-0.29h-6.56c-0.15,0-0.29,0.13-0.29,0.29v6.84h-1.39c0,0,0,0,0,0s0,0,0,0h-1.39l-2.1-2.1h1.81
					c0.15,0,0.29-0.13,0.29-0.29V30c0-0.16-0.15-0.29-0.29-0.29H9.13c-0.16,0-0.29,0.13-0.29,0.29v0.26c0,0.15,0.13,0.29,0.29,0.29
					h0.54v6.3H8.28c-0.16,0-0.29,0.15-0.29,0.29v0.26c0,0.16,0.13,0.29,0.29,0.29h3.21c0.15,0,0.29-0.13,0.29-0.29v-2.65h0.41
					l2.87,2.86c0.03,0.04,0.12,0.09,0.2,0.09h2.95c0,0,0,0,0,0s0,0,0,0h9.92c0,0,0,0,0,0c0,0,0,0,0,0h1.39v1.9
					c0,0.13,0.09,0.23,0.2,0.28l1.5,0.6c0,0,0.07,0.03,0.1,0.03c0.17,0,0.31-0.13,0.31-0.29v-5.45h2.65c0.15,0,0.29-0.13,0.29-0.29
					V34.2c0-0.15-0.15-0.29-0.29-0.29h-2.65v-3.35h2.93v0.54c0,0.16,0.15,0.29,0.29,0.29h1.53C36.53,31.39,36.68,31.26,36.68,31.1z
					 M11.78,33.91v-3.35h2.95v3.35H11.78z M24.65,36.86H21.7v-6.3h2.95V36.86z M59.5,37.16v0.25c0,0.16-0.15,0.29-0.29,0.29h-9.27
					c-0.03,0-0.05,0-0.07-0.01c-0.02,0.01-0.05,0.01-0.07,0.01h-8.24c0,0,0,0,0,0s0,0,0,0h-4.87c-0.16,0-0.29-0.13-0.29-0.29v-0.26
					c0-0.15,0.13-0.29,0.29-0.29h1.39v-6.3h-0.54c-0.16,0-0.29-0.13-0.29-0.29v-0.25c0-0.16,0.13-0.29,0.29-0.29h3.19
					c0.16,0,0.29,0.13,0.29,0.29v0.25c0,0.16-0.13,0.29-0.29,0.29h-0.55v6.3h1.39c0,0,0,0,0,0s0,0,0,0h1.39v-6.3h-0.54
					c-0.16,0-0.29-0.13-0.29-0.29v-0.25c0-0.16,0.13-0.29,0.29-0.29h2.35c0.16,0,0.29,0.13,0.29,0.29v6.84h2.95v-0.54
					c0-0.16,0.13-0.29,0.29-0.29h1.52c0.16,0,0.29,0.13,0.29,0.29v0.54h1.24V34.2c0-0.15,0.15-0.29,0.29-0.29h1.82l-2.03-2.01
					c-0.01-0.01-0.09-0.17-0.09-0.2V30c0-0.16,0.15-0.29,0.29-0.29h6.58c0.15,0,0.29,0.13,0.29,0.29v1.09
					c0,0.16-0.15,0.29-0.29,0.29h-1.52c-0.16,0-0.29-0.13-0.29-0.29v-0.54h-2.95v0.89l2.39,2.39c0.01,0.01,0.09,0.17,0.09,0.2v0.42
					c0,0.16-0.15,0.29-0.29,0.29h-2.19v2.1h5.77C59.35,36.86,59.5,37,59.5,37.16z M7.99,30v4.46c0,0.16-0.15,0.29-0.29,0.29H4.07
					c-0.15,0-0.29-0.13-0.29-0.29V34.2c0-0.15,0.15-0.29,0.29-0.29h1.82v-3.35H2.95l0,9.65c0,0.16-0.13,0.29-0.31,0.29
					c-0.03,0-0.1-0.03-0.1-0.03l-1.51-0.6c-0.12-0.04-0.2-0.15-0.2-0.28l0-9.04H0.29C0.13,30.56,0,30.41,0,30.26V30
					c0-0.16,0.13-0.29,0.29-0.29H7.7C7.84,29.71,7.99,29.84,7.99,30z M39.63,19.68c-0.15-0.14-0.38-0.17-0.55-0.05l-3.18,2.16
					l0.27-3.41c0.01-0.17-0.07-0.33-0.22-0.41c-0.15-0.08-0.33-0.07-0.47,0.02l-3.12,2.23l-2.3-4.04c-0.16-0.27-0.6-0.27-0.76,0
					L27,20.22l-3.12-2.23c-0.14-0.1-0.32-0.11-0.47-0.02c-0.15,0.08-0.23,0.24-0.22,0.41l0.27,3.41l-3.18-2.16
					c-0.17-0.12-0.4-0.1-0.55,0.05c-0.15,0.14-0.17,0.37-0.06,0.55l4.23,6.55c0,0,0,0.01,0.01,0.01c0,0,0,0.01,0,0.01
					c0,0,0,0,0,0.01c0.02,0.03,0.05,0.06,0.09,0.09c0.01,0,0.01,0.01,0.02,0.01c0.01,0.01,0.02,0.01,0.03,0.02
					c0.01,0,0.02,0.01,0.03,0.01c0.02,0.01,0.03,0.01,0.05,0.02c0.01,0,0.01,0,0.02,0.01c0.01,0,0.02,0.01,0.03,0.01
					c0.03,0.01,0.06,0.01,0.1,0.01h5.41h5.41c0.03,0,0.07-0.01,0.1-0.01c0.01,0,0.02-0.01,0.03-0.01c0.01,0,0.01,0,0.02-0.01
					c0.02-0.01,0.03-0.01,0.05-0.02c0.01,0,0.02-0.01,0.03-0.01c0.01-0.01,0.02-0.01,0.03-0.02c0.01,0,0.01-0.01,0.02-0.01
					c0.03-0.02,0.06-0.05,0.09-0.09c0,0,0,0,0-0.01c0,0,0-0.01,0-0.01c0,0,0-0.01,0.01-0.01l4.23-6.55
					C39.8,20.05,39.78,19.82,39.63,19.68z M35.22,19.24l-0.25,3.17l-0.99,0.67l-1.2-2.11L35.22,19.24z M26.14,24.66l-1.5,1.07
					l-0.17-2.21L26.14,24.66z M32.46,24.12l-2.03-1.45l1.65-1.18l1.19,2.09L32.46,24.12z M31.69,24.65l-2.01,1.37l-2.01-1.37
					l2.01-1.44L31.69,24.65z M26.9,24.12l-0.8-0.55l1.19-2.09l1.65,1.18L26.9,24.12z M34.89,23.53l-0.17,2.21l-1.5-1.07L34.89,23.53
					z M29.68,17.28l1.97,3.46l-1.96,1.4l-1.97-1.4L29.68,17.28z M24.14,19.24l2.43,1.74l-1.2,2.11l-0.99-0.67L24.14,19.24z
					 M23.55,22.9l0.15,1.96l-2.14-3.31L23.55,22.9z M25.62,26.11l1.29-0.92l1.35,0.92H25.62z M31.1,26.11l1.35-0.92l1.29,0.92H31.1z
					 M35.66,24.86l0.15-1.96l1.98-1.35L35.66,24.86z"/>
			</defs>
			<clipPath id="SVGID_8_">
				<use xlink:href="#SVGID_7_"  style="overflow:visible;"/>
			</clipPath>
		</g>
		<g>
			<defs>
				<path id="SVGID_9_" d="M5.98,41.57H4.82v2.41h0.5v-0.67h0.66c0.47,0,0.88-0.32,0.88-0.87C6.85,41.85,6.45,41.57,5.98,41.57z
					 M5.9,42.89H5.32v-0.88H5.9c0.24,0,0.44,0.16,0.44,0.44C6.34,42.72,6.14,42.89,5.9,42.89z M9.43,41.57h1.91v0.44H9.91v0.52h1.17
					v0.44H9.91v0.58h1.43v0.44H9.43V41.57z M16.01,42.36c0-0.54-0.37-0.78-0.96-0.78h-1.06v2.41h0.5v-0.87h0.3l0.81,0.87h0.56v-0.08
					l-0.77-0.81C15.74,43.03,16.01,42.74,16.01,42.36z M14.49,42.73v-0.72h0.62c0.23,0,0.39,0.12,0.39,0.36
					c0,0.22-0.16,0.36-0.39,0.36H14.49z M18.7,41.57h1.84v0.44h-1.36v0.69h1.17v0.44h-1.17v0.85H18.7V41.57z M24.19,41.54
					c-0.71,0-1.24,0.53-1.24,1.25c0,0.71,0.53,1.24,1.24,1.24c0.71,0,1.25-0.53,1.25-1.24C25.43,42.07,24.9,41.54,24.19,41.54z
					 M24.19,43.56c-0.44,0-0.75-0.34-0.75-0.77c0-0.44,0.32-0.77,0.75-0.77c0.44,0,0.75,0.33,0.75,0.77
					C24.94,43.22,24.63,43.56,24.19,43.56z M30.09,42.36c0-0.54-0.37-0.78-0.96-0.78h-1.06v2.41h0.5v-0.87h0.3l0.81,0.87h0.56v-0.08
					l-0.77-0.81C29.82,43.03,30.09,42.74,30.09,42.36z M28.57,42.73v-0.72h0.62c0.23,0,0.39,0.12,0.39,0.36
					c0,0.22-0.16,0.36-0.39,0.36H28.57z M35.03,41.57h0.45v2.41h-0.5v-1.63l-0.81,0.97h-0.09l-0.81-0.97v1.63h-0.5v-2.41h0.45
					l0.9,1.08L35.03,41.57z M38.93,41.57l-0.96,2.41h0.5l0.19-0.48h1.1l0.18,0.48h0.5l-0.93-2.41H38.93z M38.79,43.14l0.43-1.07
					l0.41,1.07H38.79z M44.74,41.57h0.5v2.41H44.8l-1.36-1.62v1.62h-0.5v-2.41h0.43l1.36,1.63V41.57z M48.38,42.78
					c0,0.44,0.31,0.78,0.75,0.78c0.31,0,0.54-0.11,0.71-0.24l0.23,0.35c-0.25,0.23-0.58,0.35-0.94,0.35c-0.72,0-1.26-0.54-1.26-1.24
					s0.54-1.24,1.26-1.24c0.37,0,0.69,0.12,0.94,0.35l-0.23,0.35C49.68,42.11,49.45,42,49.13,42C48.69,42,48.38,42.34,48.38,42.78z
					 M53.15,42.01v0.52h1.17v0.44h-1.17v0.58h1.43v0.44h-1.91v-2.41h1.91v0.44H53.15z M36.68,31.1V30c0-0.16-0.15-0.29-0.29-0.29
					h-7.41c-0.16,0-0.29,0.13-0.29,0.29v0.26c0,0.15,0.13,0.29,0.29,0.29h0.54v6.3h-1.39c0,0,0,0,0,0c0,0,0,0,0,0h-1.39v-6.84
					c0-0.16-0.13-0.29-0.29-0.29h-6.56c-0.15,0-0.29,0.13-0.29,0.29v6.84h-1.39c0,0,0,0,0,0s0,0,0,0h-1.39l-2.1-2.1h1.81
					c0.15,0,0.29-0.13,0.29-0.29V30c0-0.16-0.15-0.29-0.29-0.29H9.13c-0.16,0-0.29,0.13-0.29,0.29v0.26c0,0.15,0.13,0.29,0.29,0.29
					h0.54v6.3H8.28c-0.16,0-0.29,0.15-0.29,0.29v0.26c0,0.16,0.13,0.29,0.29,0.29h3.21c0.15,0,0.29-0.13,0.29-0.29v-2.65h0.41
					l2.87,2.86c0.03,0.04,0.12,0.09,0.2,0.09h2.95c0,0,0,0,0,0s0,0,0,0h9.92c0,0,0,0,0,0c0,0,0,0,0,0h1.39v1.9
					c0,0.13,0.09,0.23,0.2,0.28l1.5,0.6c0,0,0.07,0.03,0.1,0.03c0.17,0,0.31-0.13,0.31-0.29v-5.45h2.65c0.15,0,0.29-0.13,0.29-0.29
					V34.2c0-0.15-0.15-0.29-0.29-0.29h-2.65v-3.35h2.93v0.54c0,0.16,0.15,0.29,0.29,0.29h1.53C36.53,31.39,36.68,31.26,36.68,31.1z
					 M11.78,33.91v-3.35h2.95v3.35H11.78z M24.65,36.86H21.7v-6.3h2.95V36.86z M59.5,37.16v0.25c0,0.16-0.15,0.29-0.29,0.29h-9.27
					c-0.03,0-0.05,0-0.07-0.01c-0.02,0.01-0.05,0.01-0.07,0.01h-8.24c0,0,0,0,0,0s0,0,0,0h-4.87c-0.16,0-0.29-0.13-0.29-0.29v-0.26
					c0-0.15,0.13-0.29,0.29-0.29h1.39v-6.3h-0.54c-0.16,0-0.29-0.13-0.29-0.29v-0.25c0-0.16,0.13-0.29,0.29-0.29h3.19
					c0.16,0,0.29,0.13,0.29,0.29v0.25c0,0.16-0.13,0.29-0.29,0.29h-0.55v6.3h1.39c0,0,0,0,0,0s0,0,0,0h1.39v-6.3h-0.54
					c-0.16,0-0.29-0.13-0.29-0.29v-0.25c0-0.16,0.13-0.29,0.29-0.29h2.35c0.16,0,0.29,0.13,0.29,0.29v6.84h2.95v-0.54
					c0-0.16,0.13-0.29,0.29-0.29h1.52c0.16,0,0.29,0.13,0.29,0.29v0.54h1.24V34.2c0-0.15,0.15-0.29,0.29-0.29h1.82l-2.03-2.01
					c-0.01-0.01-0.09-0.17-0.09-0.2V30c0-0.16,0.15-0.29,0.29-0.29h6.58c0.15,0,0.29,0.13,0.29,0.29v1.09
					c0,0.16-0.15,0.29-0.29,0.29h-1.52c-0.16,0-0.29-0.13-0.29-0.29v-0.54h-2.95v0.89l2.39,2.39c0.01,0.01,0.09,0.17,0.09,0.2v0.42
					c0,0.16-0.15,0.29-0.29,0.29h-2.19v2.1h5.77C59.35,36.86,59.5,37,59.5,37.16z M7.99,30v4.46c0,0.16-0.15,0.29-0.29,0.29H4.07
					c-0.15,0-0.29-0.13-0.29-0.29V34.2c0-0.15,0.15-0.29,0.29-0.29h1.82v-3.35H2.95l0,9.65c0,0.16-0.13,0.29-0.31,0.29
					c-0.03,0-0.1-0.03-0.1-0.03l-1.51-0.6c-0.12-0.04-0.2-0.15-0.2-0.28l0-9.04H0.29C0.13,30.56,0,30.41,0,30.26V30
					c0-0.16,0.13-0.29,0.29-0.29H7.7C7.84,29.71,7.99,29.84,7.99,30z M39.63,19.68c-0.15-0.14-0.38-0.17-0.55-0.05l-3.18,2.16
					l0.27-3.41c0.01-0.17-0.07-0.33-0.22-0.41c-0.15-0.08-0.33-0.07-0.47,0.02l-3.12,2.23l-2.3-4.04c-0.16-0.27-0.6-0.27-0.76,0
					L27,20.22l-3.12-2.23c-0.14-0.1-0.32-0.11-0.47-0.02c-0.15,0.08-0.23,0.24-0.22,0.41l0.27,3.41l-3.18-2.16
					c-0.17-0.12-0.4-0.1-0.55,0.05c-0.15,0.14-0.17,0.37-0.06,0.55l4.23,6.55c0,0,0,0.01,0.01,0.01c0,0,0,0.01,0,0.01
					c0,0,0,0,0,0.01c0.02,0.03,0.05,0.06,0.09,0.09c0.01,0,0.01,0.01,0.02,0.01c0.01,0.01,0.02,0.01,0.03,0.02
					c0.01,0,0.02,0.01,0.03,0.01c0.02,0.01,0.03,0.01,0.05,0.02c0.01,0,0.01,0,0.02,0.01c0.01,0,0.02,0.01,0.03,0.01
					c0.03,0.01,0.06,0.01,0.1,0.01h5.41h5.41c0.03,0,0.07-0.01,0.1-0.01c0.01,0,0.02-0.01,0.03-0.01c0.01,0,0.01,0,0.02-0.01
					c0.02-0.01,0.03-0.01,0.05-0.02c0.01,0,0.02-0.01,0.03-0.01c0.01-0.01,0.02-0.01,0.03-0.02c0.01,0,0.01-0.01,0.02-0.01
					c0.03-0.02,0.06-0.05,0.09-0.09c0,0,0,0,0-0.01c0,0,0-0.01,0-0.01c0,0,0-0.01,0.01-0.01l4.23-6.55
					C39.8,20.05,39.78,19.82,39.63,19.68z M35.22,19.24l-0.25,3.17l-0.99,0.67l-1.2-2.11L35.22,19.24z M26.14,24.66l-1.5,1.07
					l-0.17-2.21L26.14,24.66z M32.46,24.12l-2.03-1.45l1.65-1.18l1.19,2.09L32.46,24.12z M31.69,24.65l-2.01,1.37l-2.01-1.37
					l2.01-1.44L31.69,24.65z M26.9,24.12l-0.8-0.55l1.19-2.09l1.65,1.18L26.9,24.12z M34.89,23.53l-0.17,2.21l-1.5-1.07L34.89,23.53
					z M29.68,17.28l1.97,3.46l-1.96,1.4l-1.97-1.4L29.68,17.28z M24.14,19.24l2.43,1.74l-1.2,2.11l-0.99-0.67L24.14,19.24z
					 M23.55,22.9l0.15,1.96l-2.14-3.31L23.55,22.9z M25.62,26.11l1.29-0.92l1.35,0.92H25.62z M31.1,26.11l1.35-0.92l1.29,0.92H31.1z
					 M35.66,24.86l0.15-1.96l1.98-1.35L35.66,24.86z"/>
			</defs>
			<use xlink:href="#SVGID_9_"  style="overflow:visible;fill:#111111;"/>
			<clipPath id="SVGID_10_">
				<use xlink:href="#SVGID_9_"  style="overflow:visible;"/>
			</clipPath>
			<path class="st1" d="M6.48,42.07H5.32v2.41h0.5v-0.67h0.66c0.47,0,0.88-0.32,0.88-0.87C7.35,42.35,6.95,42.07,6.48,42.07z
				 M6.4,43.39H5.82v-0.88H6.4c0.24,0,0.44,0.16,0.44,0.44C6.84,43.22,6.64,43.39,6.4,43.39z M9.93,42.07h1.91v0.44h-1.43v0.52h1.17
				v0.44h-1.17v0.58h1.43v0.44H9.93V42.07z M16.51,42.86c0-0.54-0.37-0.78-0.96-0.78h-1.06v2.41h0.5v-0.87h0.3l0.81,0.87h0.56v-0.08
				l-0.77-0.81C16.24,43.53,16.51,43.24,16.51,42.86z M14.99,43.23v-0.72h0.62c0.23,0,0.39,0.12,0.39,0.36
				c0,0.22-0.16,0.36-0.39,0.36H14.99z M19.2,42.07h1.84v0.44h-1.36v0.69h1.17v0.44h-1.17v0.85H19.2V42.07z M24.69,42.04
				c-0.71,0-1.24,0.53-1.24,1.25c0,0.71,0.53,1.24,1.24,1.24c0.71,0,1.25-0.53,1.25-1.24C25.93,42.57,25.4,42.04,24.69,42.04z
				 M24.69,44.06c-0.44,0-0.75-0.34-0.75-0.77c0-0.44,0.32-0.77,0.75-0.77c0.44,0,0.75,0.33,0.75,0.77
				C25.44,43.72,25.13,44.06,24.69,44.06z M30.59,42.86c0-0.54-0.37-0.78-0.96-0.78h-1.06v2.41h0.5v-0.87h0.3l0.81,0.87h0.56v-0.08
				l-0.77-0.81C30.32,43.53,30.59,43.24,30.59,42.86z M29.07,43.23v-0.72h0.62c0.23,0,0.39,0.12,0.39,0.36
				c0,0.22-0.16,0.36-0.39,0.36H29.07z M35.53,42.07h0.45v2.41h-0.5v-1.63l-0.81,0.97h-0.09l-0.81-0.97v1.63h-0.5v-2.41h0.45
				l0.9,1.08L35.53,42.07z M39.43,42.07l-0.96,2.41h0.5L39.16,44h1.1l0.18,0.48h0.5l-0.93-2.41H39.43z M39.29,43.64l0.43-1.07
				l0.41,1.07H39.29z M45.24,42.07h0.5v2.41H45.3l-1.36-1.62v1.62h-0.5v-2.41h0.43l1.36,1.63V42.07z M48.88,43.28
				c0,0.44,0.31,0.78,0.75,0.78c0.31,0,0.54-0.11,0.71-0.24l0.23,0.35c-0.25,0.23-0.58,0.35-0.94,0.35c-0.72,0-1.26-0.54-1.26-1.24
				s0.54-1.24,1.26-1.24c0.37,0,0.69,0.12,0.94,0.35l-0.23,0.35c-0.16-0.13-0.39-0.24-0.71-0.24C49.19,42.5,48.88,42.84,48.88,43.28
				z M53.65,42.51v0.52h1.17v0.44h-1.17v0.58h1.43v0.44h-1.91v-2.41h1.91v0.44H53.65z M37.18,31.6V30.5c0-0.16-0.15-0.29-0.29-0.29
				h-7.41c-0.16,0-0.29,0.13-0.29,0.29v0.26c0,0.15,0.13,0.29,0.29,0.29h0.54v6.3h-1.39c0,0,0,0,0,0c0,0,0,0,0,0h-1.39v-6.84
				c0-0.16-0.13-0.29-0.29-0.29h-6.56c-0.15,0-0.29,0.13-0.29,0.29v6.84h-1.39c0,0,0,0,0,0s0,0,0,0h-1.39l-2.1-2.1h1.81
				c0.15,0,0.29-0.13,0.29-0.29V30.5c0-0.16-0.15-0.29-0.29-0.29H9.63c-0.16,0-0.29,0.13-0.29,0.29v0.26c0,0.15,0.13,0.29,0.29,0.29
				h0.54v6.3H8.78c-0.16,0-0.29,0.15-0.29,0.29v0.26c0,0.16,0.13,0.29,0.29,0.29h3.21c0.15,0,0.29-0.13,0.29-0.29v-2.65h0.41
				l2.87,2.86c0.03,0.04,0.12,0.09,0.2,0.09h2.95c0,0,0,0,0,0s0,0,0,0h9.92c0,0,0,0,0,0c0,0,0,0,0,0h1.39v1.9
				c0,0.13,0.09,0.23,0.2,0.28l1.5,0.6c0,0,0.07,0.03,0.1,0.03c0.17,0,0.31-0.13,0.31-0.29v-5.45h2.65c0.15,0,0.29-0.13,0.29-0.29
				V34.7c0-0.15-0.15-0.29-0.29-0.29h-2.65v-3.35h2.93v0.54c0,0.16,0.15,0.29,0.29,0.29h1.53C37.03,31.89,37.18,31.76,37.18,31.6z
				 M12.28,34.41v-3.35h2.95v3.35H12.28z M25.15,37.36H22.2v-6.3h2.95V37.36z M60,37.66v0.25c0,0.16-0.15,0.29-0.29,0.29h-9.27
				c-0.03,0-0.05,0-0.07-0.01c-0.02,0.01-0.05,0.01-0.07,0.01h-8.24c0,0,0,0,0,0s0,0,0,0h-4.87c-0.16,0-0.29-0.13-0.29-0.29v-0.26
				c0-0.15,0.13-0.29,0.29-0.29h1.39v-6.3h-0.54c-0.16,0-0.29-0.13-0.29-0.29v-0.25c0-0.16,0.13-0.29,0.29-0.29h3.19
				c0.16,0,0.29,0.13,0.29,0.29v0.25c0,0.16-0.13,0.29-0.29,0.29h-0.55v6.3h1.39c0,0,0,0,0,0s0,0,0,0h1.39v-6.3h-0.54
				c-0.16,0-0.29-0.13-0.29-0.29v-0.25c0-0.16,0.13-0.29,0.29-0.29h2.35c0.16,0,0.29,0.13,0.29,0.29v6.84h2.95v-0.54
				c0-0.16,0.13-0.29,0.29-0.29h1.52c0.16,0,0.29,0.13,0.29,0.29v0.54h1.24V34.7c0-0.15,0.15-0.29,0.29-0.29h1.82l-2.03-2.01
				c-0.01-0.01-0.09-0.17-0.09-0.2V30.5c0-0.16,0.15-0.29,0.29-0.29h6.58c0.15,0,0.29,0.13,0.29,0.29v1.09
				c0,0.16-0.15,0.29-0.29,0.29h-1.52c-0.16,0-0.29-0.13-0.29-0.29v-0.54h-2.95v0.89l2.39,2.39c0.01,0.01,0.09,0.17,0.09,0.2v0.42
				c0,0.16-0.15,0.29-0.29,0.29h-2.19v2.1h5.77C59.85,37.36,60,37.5,60,37.66z M8.49,30.5v4.46c0,0.16-0.15,0.29-0.29,0.29H4.57
				c-0.15,0-0.29-0.13-0.29-0.29V34.7c0-0.15,0.15-0.29,0.29-0.29h1.82v-3.35H3.45l0,9.65c0,0.16-0.13,0.29-0.31,0.29
				c-0.03,0-0.1-0.03-0.1-0.03l-1.51-0.6c-0.12-0.04-0.2-0.15-0.2-0.28l0-9.04H0.79c-0.16,0-0.29-0.15-0.29-0.29V30.5
				c0-0.16,0.13-0.29,0.29-0.29H8.2C8.34,30.21,8.49,30.34,8.49,30.5z M40.13,20.18c-0.15-0.14-0.38-0.17-0.55-0.05l-3.18,2.16
				l0.27-3.41c0.01-0.17-0.07-0.33-0.22-0.41c-0.15-0.08-0.33-0.07-0.47,0.02l-3.12,2.23l-2.3-4.04c-0.16-0.27-0.6-0.27-0.76,0
				l-2.3,4.04l-3.12-2.23c-0.14-0.1-0.32-0.11-0.47-0.02c-0.15,0.08-0.23,0.24-0.22,0.41l0.27,3.41l-3.18-2.16
				c-0.17-0.12-0.4-0.1-0.55,0.05c-0.15,0.14-0.17,0.37-0.06,0.55l4.23,6.55c0,0,0,0.01,0.01,0.01c0,0,0,0.01,0,0.01c0,0,0,0,0,0.01
				c0.02,0.03,0.05,0.06,0.09,0.09c0.01,0,0.01,0.01,0.02,0.01c0.01,0.01,0.02,0.01,0.03,0.02c0.01,0,0.02,0.01,0.03,0.01
				c0.02,0.01,0.03,0.01,0.05,0.02c0.01,0,0.01,0,0.02,0.01c0.01,0,0.02,0.01,0.03,0.01c0.03,0.01,0.06,0.01,0.1,0.01h5.41h5.41
				c0.03,0,0.07-0.01,0.1-0.01c0.01,0,0.02-0.01,0.03-0.01c0.01,0,0.01,0,0.02-0.01c0.02-0.01,0.03-0.01,0.05-0.02
				c0.01,0,0.02-0.01,0.03-0.01c0.01-0.01,0.02-0.01,0.03-0.02c0.01,0,0.01-0.01,0.02-0.01c0.03-0.02,0.06-0.05,0.09-0.09
				c0,0,0,0,0-0.01c0,0,0-0.01,0-0.01c0,0,0-0.01,0.01-0.01l4.23-6.55C40.3,20.55,40.28,20.32,40.13,20.18z M35.72,19.74l-0.25,3.17
				l-0.99,0.67l-1.2-2.11L35.72,19.74z M26.64,25.16l-1.5,1.07l-0.17-2.21L26.64,25.16z M32.96,24.62l-2.03-1.45l1.65-1.18
				l1.19,2.09L32.96,24.62z M32.19,25.15l-2.01,1.37l-2.01-1.37l2.01-1.44L32.19,25.15z M27.4,24.62l-0.8-0.55l1.19-2.09l1.65,1.18
				L27.4,24.62z M35.39,24.03l-0.17,2.21l-1.5-1.07L35.39,24.03z M30.18,17.78l1.97,3.46l-1.96,1.4l-1.97-1.4L30.18,17.78z
				 M24.64,19.74l2.43,1.74l-1.2,2.11l-0.99-0.67L24.64,19.74z M24.05,23.4l0.15,1.96l-2.14-3.31L24.05,23.4z M26.12,26.61
				l1.29-0.92l1.35,0.92H26.12z M31.6,26.61l1.35-0.92l1.29,0.92H31.6z M36.16,25.36l0.15-1.96l1.98-1.35L36.16,25.36z"/>
		</g>
		<g>
			<defs>
				<path id="SVGID_11_" d="M5.98,41.57H4.82v2.41h0.5v-0.67h0.66c0.47,0,0.88-0.32,0.88-0.87C6.85,41.85,6.45,41.57,5.98,41.57z
					 M5.9,42.89H5.32v-0.88H5.9c0.24,0,0.44,0.16,0.44,0.44C6.34,42.72,6.14,42.89,5.9,42.89z M9.43,41.57h1.91v0.44H9.91v0.52h1.17
					v0.44H9.91v0.58h1.43v0.44H9.43V41.57z M16.01,42.36c0-0.54-0.37-0.78-0.96-0.78h-1.06v2.41h0.5v-0.87h0.3l0.81,0.87h0.56v-0.08
					l-0.77-0.81C15.74,43.03,16.01,42.74,16.01,42.36z M14.49,42.73v-0.72h0.62c0.23,0,0.39,0.12,0.39,0.36
					c0,0.22-0.16,0.36-0.39,0.36H14.49z M18.7,41.57h1.84v0.44h-1.36v0.69h1.17v0.44h-1.17v0.85H18.7V41.57z M24.19,41.54
					c-0.71,0-1.24,0.53-1.24,1.25c0,0.71,0.53,1.24,1.24,1.24c0.71,0,1.25-0.53,1.25-1.24C25.43,42.07,24.9,41.54,24.19,41.54z
					 M24.19,43.56c-0.44,0-0.75-0.34-0.75-0.77c0-0.44,0.32-0.77,0.75-0.77c0.44,0,0.75,0.33,0.75,0.77
					C24.94,43.22,24.63,43.56,24.19,43.56z M30.09,42.36c0-0.54-0.37-0.78-0.96-0.78h-1.06v2.41h0.5v-0.87h0.3l0.81,0.87h0.56v-0.08
					l-0.77-0.81C29.82,43.03,30.09,42.74,30.09,42.36z M28.57,42.73v-0.72h0.62c0.23,0,0.39,0.12,0.39,0.36
					c0,0.22-0.16,0.36-0.39,0.36H28.57z M35.03,41.57h0.45v2.41h-0.5v-1.63l-0.81,0.97h-0.09l-0.81-0.97v1.63h-0.5v-2.41h0.45
					l0.9,1.08L35.03,41.57z M38.93,41.57l-0.96,2.41h0.5l0.19-0.48h1.1l0.18,0.48h0.5l-0.93-2.41H38.93z M38.79,43.14l0.43-1.07
					l0.41,1.07H38.79z M44.74,41.57h0.5v2.41H44.8l-1.36-1.62v1.62h-0.5v-2.41h0.43l1.36,1.63V41.57z M48.38,42.78
					c0,0.44,0.31,0.78,0.75,0.78c0.31,0,0.54-0.11,0.71-0.24l0.23,0.35c-0.25,0.23-0.58,0.35-0.94,0.35c-0.72,0-1.26-0.54-1.26-1.24
					s0.54-1.24,1.26-1.24c0.37,0,0.69,0.12,0.94,0.35l-0.23,0.35C49.68,42.11,49.45,42,49.13,42C48.69,42,48.38,42.34,48.38,42.78z
					 M53.15,42.01v0.52h1.17v0.44h-1.17v0.58h1.43v0.44h-1.91v-2.41h1.91v0.44H53.15z M36.68,31.1V30c0-0.16-0.15-0.29-0.29-0.29
					h-7.41c-0.16,0-0.29,0.13-0.29,0.29v0.26c0,0.15,0.13,0.29,0.29,0.29h0.54v6.3h-1.39c0,0,0,0,0,0c0,0,0,0,0,0h-1.39v-6.84
					c0-0.16-0.13-0.29-0.29-0.29h-6.56c-0.15,0-0.29,0.13-0.29,0.29v6.84h-1.39c0,0,0,0,0,0s0,0,0,0h-1.39l-2.1-2.1h1.81
					c0.15,0,0.29-0.13,0.29-0.29V30c0-0.16-0.15-0.29-0.29-0.29H9.13c-0.16,0-0.29,0.13-0.29,0.29v0.26c0,0.15,0.13,0.29,0.29,0.29
					h0.54v6.3H8.28c-0.16,0-0.29,0.15-0.29,0.29v0.26c0,0.16,0.13,0.29,0.29,0.29h3.21c0.15,0,0.29-0.13,0.29-0.29v-2.65h0.41
					l2.87,2.86c0.03,0.04,0.12,0.09,0.2,0.09h2.95c0,0,0,0,0,0s0,0,0,0h9.92c0,0,0,0,0,0c0,0,0,0,0,0h1.39v1.9
					c0,0.13,0.09,0.23,0.2,0.28l1.5,0.6c0,0,0.07,0.03,0.1,0.03c0.17,0,0.31-0.13,0.31-0.29v-5.45h2.65c0.15,0,0.29-0.13,0.29-0.29
					V34.2c0-0.15-0.15-0.29-0.29-0.29h-2.65v-3.35h2.93v0.54c0,0.16,0.15,0.29,0.29,0.29h1.53C36.53,31.39,36.68,31.26,36.68,31.1z
					 M11.78,33.91v-3.35h2.95v3.35H11.78z M24.65,36.86H21.7v-6.3h2.95V36.86z M59.5,37.16v0.25c0,0.16-0.15,0.29-0.29,0.29h-9.27
					c-0.03,0-0.05,0-0.07-0.01c-0.02,0.01-0.05,0.01-0.07,0.01h-8.24c0,0,0,0,0,0s0,0,0,0h-4.87c-0.16,0-0.29-0.13-0.29-0.29v-0.26
					c0-0.15,0.13-0.29,0.29-0.29h1.39v-6.3h-0.54c-0.16,0-0.29-0.13-0.29-0.29v-0.25c0-0.16,0.13-0.29,0.29-0.29h3.19
					c0.16,0,0.29,0.13,0.29,0.29v0.25c0,0.16-0.13,0.29-0.29,0.29h-0.55v6.3h1.39c0,0,0,0,0,0s0,0,0,0h1.39v-6.3h-0.54
					c-0.16,0-0.29-0.13-0.29-0.29v-0.25c0-0.16,0.13-0.29,0.29-0.29h2.35c0.16,0,0.29,0.13,0.29,0.29v6.84h2.95v-0.54
					c0-0.16,0.13-0.29,0.29-0.29h1.52c0.16,0,0.29,0.13,0.29,0.29v0.54h1.24V34.2c0-0.15,0.15-0.29,0.29-0.29h1.82l-2.03-2.01
					c-0.01-0.01-0.09-0.17-0.09-0.2V30c0-0.16,0.15-0.29,0.29-0.29h6.58c0.15,0,0.29,0.13,0.29,0.29v1.09
					c0,0.16-0.15,0.29-0.29,0.29h-1.52c-0.16,0-0.29-0.13-0.29-0.29v-0.54h-2.95v0.89l2.39,2.39c0.01,0.01,0.09,0.17,0.09,0.2v0.42
					c0,0.16-0.15,0.29-0.29,0.29h-2.19v2.1h5.77C59.35,36.86,59.5,37,59.5,37.16z M7.99,30v4.46c0,0.16-0.15,0.29-0.29,0.29H4.07
					c-0.15,0-0.29-0.13-0.29-0.29V34.2c0-0.15,0.15-0.29,0.29-0.29h1.82v-3.35H2.95l0,9.65c0,0.16-0.13,0.29-0.31,0.29
					c-0.03,0-0.1-0.03-0.1-0.03l-1.51-0.6c-0.12-0.04-0.2-0.15-0.2-0.28l0-9.04H0.29C0.13,30.56,0,30.41,0,30.26V30
					c0-0.16,0.13-0.29,0.29-0.29H7.7C7.84,29.71,7.99,29.84,7.99,30z M39.63,19.68c-0.15-0.14-0.38-0.17-0.55-0.05l-3.18,2.16
					l0.27-3.41c0.01-0.17-0.07-0.33-0.22-0.41c-0.15-0.08-0.33-0.07-0.47,0.02l-3.12,2.23l-2.3-4.04c-0.16-0.27-0.6-0.27-0.76,0
					L27,20.22l-3.12-2.23c-0.14-0.1-0.32-0.11-0.47-0.02c-0.15,0.08-0.23,0.24-0.22,0.41l0.27,3.41l-3.18-2.16
					c-0.17-0.12-0.4-0.1-0.55,0.05c-0.15,0.14-0.17,0.37-0.06,0.55l4.23,6.55c0,0,0,0.01,0.01,0.01c0,0,0,0.01,0,0.01
					c0,0,0,0,0,0.01c0.02,0.03,0.05,0.06,0.09,0.09c0.01,0,0.01,0.01,0.02,0.01c0.01,0.01,0.02,0.01,0.03,0.02
					c0.01,0,0.02,0.01,0.03,0.01c0.02,0.01,0.03,0.01,0.05,0.02c0.01,0,0.01,0,0.02,0.01c0.01,0,0.02,0.01,0.03,0.01
					c0.03,0.01,0.06,0.01,0.1,0.01h5.41h5.41c0.03,0,0.07-0.01,0.1-0.01c0.01,0,0.02-0.01,0.03-0.01c0.01,0,0.01,0,0.02-0.01
					c0.02-0.01,0.03-0.01,0.05-0.02c0.01,0,0.02-0.01,0.03-0.01c0.01-0.01,0.02-0.01,0.03-0.02c0.01,0,0.01-0.01,0.02-0.01
					c0.03-0.02,0.06-0.05,0.09-0.09c0,0,0,0,0-0.01c0,0,0-0.01,0-0.01c0,0,0-0.01,0.01-0.01l4.23-6.55
					C39.8,20.05,39.78,19.82,39.63,19.68z M35.22,19.24l-0.25,3.17l-0.99,0.67l-1.2-2.11L35.22,19.24z M26.14,24.66l-1.5,1.07
					l-0.17-2.21L26.14,24.66z M32.46,24.12l-2.03-1.45l1.65-1.18l1.19,2.09L32.46,24.12z M31.69,24.65l-2.01,1.37l-2.01-1.37
					l2.01-1.44L31.69,24.65z M26.9,24.12l-0.8-0.55l1.19-2.09l1.65,1.18L26.9,24.12z M34.89,23.53l-0.17,2.21l-1.5-1.07L34.89,23.53
					z M29.68,17.28l1.97,3.46l-1.96,1.4l-1.97-1.4L29.68,17.28z M24.14,19.24l2.43,1.74l-1.2,2.11l-0.99-0.67L24.14,19.24z
					 M23.55,22.9l0.15,1.96l-2.14-3.31L23.55,22.9z M25.62,26.11l1.29-0.92l1.35,0.92H25.62z M31.1,26.11l1.35-0.92l1.29,0.92H31.1z
					 M35.66,24.86l0.15-1.96l1.98-1.35L35.66,24.86z"/>
			</defs>
			<clipPath id="SVGID_12_">
				<use xlink:href="#SVGID_11_"  style="overflow:visible;"/>
			</clipPath>
		</g>
	</g>
</g>
</svg>
