<?xml version="1.0" encoding="utf-8"?>
<!-- Generator: Adobe Illustrator 21.1.0, SVG Export Plug-In . SVG Version: 6.00 Build 0)  -->
<svg version="1.1" id="BRAND_-_Osram" xmlns="http://www.w3.org/2000/svg" xmlns:xlink="http://www.w3.org/1999/xlink" x="0px"
	 y="0px" viewBox="0 0 60 60" style="enable-background:new 0 0 60 60;" xml:space="preserve">
<style type="text/css">
	.st0{fill:#C6A571;}
</style>
<g>
	<polygon class="st0" points="6.72,30.43 4.4,27.61 3.47,27.61 3.47,32.36 4.4,32.36 4.4,29.17 6.54,31.79 6.77,31.79 8.89,29.09 
		8.89,32.36 9.97,32.36 9.97,27.61 9.04,27.61 	"/>
	<path class="st0" d="M16.03,28.21h-2.87c-0.38,0-0.63,0.06-0.76,0.18c-0.13,0.12-0.2,0.35-0.2,0.7v1.96c0,0.34,0.07,0.58,0.2,0.7
		c0.13,0.12,0.39,0.18,0.76,0.18h2.87c0.37,0,0.62-0.06,0.76-0.18c0.14-0.12,0.21-0.35,0.21-0.7v-1.96c0-0.35-0.07-0.58-0.2-0.7
		C16.66,28.27,16.4,28.21,16.03,28.21z M16.08,31.21H13.1V28.9h2.98V31.21z"/>
	<rect x="25.57" y="28.21" class="st0" width="0.9" height="3.71"/>
	<polygon class="st0" points="31.09,30.42 29.27,28.21 28.55,28.21 28.55,31.92 29.27,31.92 29.27,29.43 30.95,31.48 31.12,31.48 
		32.78,29.37 32.78,31.92 33.63,31.92 33.63,28.21 32.9,28.21 	"/>
	<path class="st0" d="M36.81,28.21c-0.38,0-0.63,0.06-0.76,0.18c-0.13,0.12-0.2,0.35-0.2,0.7v1.96c0,0.34,0.07,0.58,0.2,0.7
		c0.13,0.12,0.39,0.18,0.76,0.18h2.87c0.37,0,0.62-0.06,0.76-0.18c0.14-0.12,0.21-0.35,0.21-0.7v-1.96c0-0.35-0.07-0.58-0.2-0.7
		c-0.13-0.12-0.39-0.18-0.76-0.18H36.81z M39.74,31.21h-2.98V28.9h2.98V31.21z"/>
	<polygon class="st0" points="44.84,31.92 44.84,28.88 46.64,28.88 46.64,28.21 42.15,28.21 42.15,28.88 43.94,28.88 43.94,31.92 	
		"/>
	<path class="st0" d="M22.32,30.52c0.58,0,0.87-0.24,0.87-0.71v-0.88c0-0.48-0.29-0.72-0.87-0.72h-3.34v3.71h0.89v-3.07h2.06
		c0.27,0,0.41,0.1,0.41,0.3v0.43c0,0.2-0.14,0.3-0.41,0.3h-1.68v0.22l2.02,1.83h1.3l-1.76-1.4H22.32z"/>
	<path class="st0" d="M45.98,27.64c-2.06-0.9-4.5-1.96-6.08-2.65h-6.31c2.37,0.68,6.03,1.73,9.25,2.65H45.98z"/>
	<path class="st0" d="M54,28.07c1.23-0.77,2.94-1.85,4.24-2.66c-0.25-0.26-0.6-0.42-0.99-0.42h-0.51c-0.86,0.73-2.21,1.88-3.21,2.73
		c-0.18-0.08-0.4-0.12-0.67-0.13c0.68-0.8,1.59-1.89,2.19-2.59h-1.26c-0.43,0.71-1.08,1.81-1.55,2.59h-0.75
		c0.12-0.77,0.28-1.87,0.39-2.59h-1.33c0.11,0.72,0.27,1.82,0.39,2.59h-0.75c-0.47-0.78-1.13-1.88-1.55-2.59h-1.26
		c0.6,0.71,1.51,1.79,2.19,2.6c-0.26,0.02-0.48,0.06-0.66,0.14c-1-0.85-2.35-2-3.22-2.74h-2.18c1.32,0.83,3.48,2.18,4.93,3.1
		c-0.1,0.15-0.18,0.33-0.22,0.54c-0.31-0.13-0.65-0.28-1.02-0.44v0.7v0.01c0.36,0.1,0.69,0.2,0.98,0.28v1.79
		c-0.73,0.21-1.69,0.48-2.78,0.8v0.74h-2.05v-0.15c-3.14,0.9-6.79,1.95-9.29,2.66h6.14c2.27-0.99,5.94-2.59,8.02-3.5
		c0.04,0.21,0.12,0.39,0.22,0.53c-1.38,0.87-3.39,2.13-4.72,2.97h2.12c0.87-0.74,2.13-1.81,3.07-2.61c0.18,0.08,0.4,0.12,0.66,0.14
		c-0.64,0.76-1.48,1.76-2.08,2.47h1.22c0.43-0.72,1.04-1.73,1.48-2.46h0.74c-0.11,0.72-0.26,1.74-0.37,2.46h1.29
		c-0.11-0.72-0.26-1.74-0.37-2.46h0.74c0.44,0.73,1.05,1.75,1.48,2.46h1.22c-0.6-0.71-1.44-1.71-2.08-2.47
		c0.26-0.01,0.48-0.06,0.67-0.13c0.94,0.8,2.19,1.86,3.06,2.6h0.67c0.35,0,0.66-0.13,0.91-0.34c-1.29-0.81-2.96-1.86-4.16-2.61
		c0.11-0.14,0.19-0.32,0.23-0.54c1.31,0.57,3.14,1.37,4.4,1.92v-1.21c-1.26-0.36-3.07-0.88-4.35-1.25v-0.65
		c1.27,0.09,3.09,0.22,4.35,0.3V29.5c-1.26,0.09-3.09,0.22-4.35,0.3v-0.65c1.28-0.37,3.1-0.89,4.35-1.25V26.7
		c-1.26,0.55-3.09,1.35-4.4,1.91C54.18,28.4,54.11,28.22,54,28.07z M53.63,31.04c0,0.08,0,0.15-0.01,0.22
		c-0.02,0.21-0.08,0.36-0.18,0.45c-0.01,0.01-0.01,0.01-0.02,0.02c-0.1,0.09-0.27,0.15-0.51,0.17c-0.08,0.01-0.16,0.01-0.25,0.01
		h-2.87c-0.1,0-0.19-0.01-0.28-0.01c-0.23-0.02-0.39-0.08-0.49-0.17c-0.01-0.01-0.02-0.02-0.02-0.03c-0.09-0.1-0.15-0.25-0.17-0.46
		c-0.01-0.07-0.01-0.13-0.01-0.21v-1.96c0-0.07,0-0.14,0.01-0.2c0.02-0.21,0.07-0.36,0.16-0.46c0.01-0.01,0.02-0.03,0.03-0.04
		c0.1-0.08,0.26-0.14,0.47-0.16c0.09-0.01,0.18-0.02,0.29-0.02h2.87c0.1,0,0.18,0,0.26,0.01c0.23,0.02,0.4,0.08,0.5,0.16
		c0.01,0.01,0.02,0.02,0.02,0.03c0.09,0.09,0.15,0.25,0.17,0.46c0.01,0.07,0.01,0.13,0.01,0.21V31.04z"/>
	<polygon class="st0" points="49.74,28.89 49.74,28.89 49.74,28.89 49.74,29.28 49.74,30.86 49.74,31.21 49.74,31.21 49.8,31.21 
		52.63,31.21 52.72,31.21 52.72,31.21 52.72,30.87 52.72,29.27 52.72,28.89 52.72,28.89 52.69,28.89 	"/>
	<path class="st0" d="M57.24,23.61H2.76C1.24,23.61,0,24.84,0,26.37v7.27c0,1.52,1.24,2.76,2.76,2.76h54.48
		c1.52,0,2.76-1.24,2.76-2.76v-7.27C60,24.84,58.76,23.61,57.24,23.61z M59.31,33.63c0,1.14-0.93,2.07-2.07,2.07H2.76
		c-1.14,0-2.07-0.93-2.07-2.07v-7.27c0-1.14,0.93-2.07,2.07-2.07h54.48c1.14,0,2.07,0.93,2.07,2.07V33.63z"/>
</g>
</svg>
