<?xml version="1.0" encoding="utf-8"?>
<!-- Generator: Adobe Illustrator 19.2.1, SVG Export Plug-In . SVG Version: 6.00 Build 0)  -->
<svg version="1.1" id="BRAND_-_Koito" xmlns="http://www.w3.org/2000/svg" xmlns:xlink="http://www.w3.org/1999/xlink" x="0px"
	 y="0px" viewBox="0 0 60 60" style="enable-background:new 0 0 60 60;" xml:space="preserve">
<style type="text/css">
	.Arched_x0020_Green{fill:url(#SVGID_1_);stroke:#FFFFFF;stroke-width:0.25;stroke-miterlimit:1;}
	.st0{fill-rule:evenodd;clip-rule:evenodd;fill:#FFFFFF;}
</style>
<linearGradient id="SVGID_1_" gradientUnits="userSpaceOnUse" x1="-20" y1="262.2046" x2="-19.2929" y2="261.4975">
	<stop  offset="0" style="stop-color:#1EAB4B"/>
	<stop  offset="0.9831" style="stop-color:#19361A"/>
</linearGradient>
<g>
	<path class="st0" d="M3.7,24.5c-0.5-0.3-0.8-0.6-0.8-1.2c0-0.6,0.3-0.9,0.9-0.9c2.1,0,4.2,0,6.3,0c0.4,0,0.8,0.2,0.9,0.6
		c0.1,0.4,0.1,0.8-0.3,1.1c-0.4,0.3-0.6,0.7-0.7,1.3c-0.1,0.6-0.2,1.1-0.4,1.6c0.8-0.8,1.7-1.7,2.5-2.5c-0.1-0.1-0.2-0.2-0.3-0.4
		c-0.3-0.4-0.3-0.8-0.1-1.2c0.2-0.4,0.5-0.4,0.9-0.4c1.9,0,3.9,0,5.8,0c0.5,0,0.8,0.2,0.9,0.5c0.1,0.5,0,1.1-0.4,1.3
		c-1.4,0.6-2.1,1.8-3.1,2.8c-0.3,0.3-0.6,0.6-0.9,0.9c-0.7,0.7-1.4,1.4-2,2.1c-0.1,0.1-0.1,0.3-0.1,0.5c0.7,1.6,1.3,3.2,2,4.8
		c0.1,0.1,0.2,0.3,0.3,0.4c0.4,0.3,0.7,0.7,0.7,1.2c0,0.4-0.3,0.7-0.7,0.7c-1.8,0-3.6,0-5.4,0c-0.5,0-0.9-0.6-0.7-1.1
		c0.1-0.5,0.4-0.8,0.9-0.9c-0.5-1.2-1-2.3-1.4-3.5c0,0-0.1,0-0.1,0c-0.4,1.2-0.9,2.3-1.3,3.5c0.2,0.2,0.4,0.3,0.6,0.5
		c0.5,0.8,0.1,1.6-0.8,1.6c-2.1,0-4.1,0-6.2,0c-0.3,0-0.6-0.2-0.7-0.5c-0.2-0.6,0-1,0.4-1.3c0.2-0.1,0.3-0.3,0.4-0.5
		c0.9-3.5,1.9-6.9,2.8-10.4C3.7,24.8,3.7,24.7,3.7,24.5z"/>
	<path class="st0" d="M44.8,35.7c0.6,0.3,0.8,0.9,0.7,1.4c-0.1,0.4-0.4,0.6-0.8,0.6c-2.1,0-4.1,0-6.2,0c-0.4,0-0.6-0.2-0.8-0.5
		c-0.2-0.5-0.1-0.9,0.3-1.1c0.4-0.2,0.6-0.6,0.7-1c0.5-1.5,0.9-3,1.4-4.5c0.5-1.6,0.9-3.1,1.4-4.8c-0.2,0-0.3,0-0.5,0
		c-6,0-12,0-18,0c-0.5,0-1-0.1-1.3-0.5c-0.5-0.5-0.6-1.2-0.3-1.8c0.2-0.7,0.7-0.9,1.4-1c0.3,0,0.6,0,0.8,0c0.6,0.1,1,0.5,1,1.1
		c0.2,0,0.3,0,0.4,0c10.4,0,20.8,0,31.3,0c0.3,0,0.5,0,0.6-0.3c0.4-0.7,1.1-0.8,1.9-0.7c0.6,0.1,0.9,0.6,1,1.2c0.2,1-0.2,1.8-1.1,2
		c-0.1,0-0.3,0-0.4,0c-3.3,0-6.7,0-10,0c-0.4,0-0.5,0.1-0.6,0.5c-0.8,2.5-1.6,5-2.3,7.5C45.2,34.3,45,35,44.8,35.7z"/>
	<path class="st0" d="M35.1,35.5c0.3,0.3,0.5,0.5,0.7,0.7c0.2,0.3,0.1,0.6,0,0.9c-0.1,0.4-0.5,0.6-0.8,0.6c-2.1,0-4.2,0-6.2,0
		c-0.3,0-0.8-0.4-0.9-0.7c-0.1-0.4,0-0.9,0.4-1.1c0.3-0.2,0.4-0.4,0.5-0.7c0.3-1.1,0.7-2.2,1-3.3c0.2-0.7,0.4-1.5,0.7-2.2
		c0.1-0.2,0-0.3-0.2-0.4C30,29,29.8,28.4,30,27.9c0.1-0.4,0.4-0.5,0.7-0.5c2.2,0,4.4,0,6.6,0c0.6,0,0.8,0.4,0.7,1.1
		c0,0.4-0.3,0.7-0.6,0.9c-0.1,0.1-0.3,0.2-0.3,0.3C36.4,31.6,35.8,33.6,35.1,35.5z"/>
	<path class="st0" d="M26.9,31.9c0,1.4-0.5,2.7-1.4,3.8c-0.7,0.8-1.5,1.4-2.5,1.7c-1.7,0.5-3.5,0-4.6-1.6c-1.1-1.5-1.1-3.1-0.5-4.8
		c0.4-1.3,1.3-2.3,2.5-3.1c0.6-0.3,1.2-0.5,1.9-0.5c0.9-0.1,1.7,0.1,2.4,0.5c1.3,0.7,2,1.7,2.2,3.1C26.8,31.3,26.9,31.6,26.9,31.9z
		 M20.6,32.9c0,0,0,0.1,0,0.2c0,1,0.9,1.5,1.8,1.1c1-0.5,1.5-1.3,1.5-2.5c0-0.5-0.2-0.9-0.6-1.1c-0.5-0.2-1-0.3-1.5,0
		C20.9,31.2,20.5,31.9,20.6,32.9z"/>
	<path class="st0" d="M58.3,32c0,2-0.9,3.6-2.5,4.8c-1.6,1.1-3.6,1.2-5.2,0c-1.1-0.8-1.8-2-1.8-3.5c0-1.4,0.3-2.7,1.2-3.8
		c0.9-1.2,2-1.9,3.6-2c1-0.1,2,0.1,2.8,0.7c1,0.7,1.7,1.6,1.8,2.9C58.3,31.3,58.3,31.7,58.3,32z M55.3,31.7c0-0.3-0.2-0.7-0.7-1
		c-0.5-0.2-1-0.3-1.5,0.1c-1,0.7-1.2,1.6-1,2.6c0.2,1,1.1,1.3,1.8,0.9C54.8,33.8,55.2,33,55.3,31.7z"/>
</g>
<g>
</g>
<g>
</g>
<g>
</g>
<g>
</g>
<g>
</g>
<g>
</g>
</svg>
