<?xml version="1.0" encoding="utf-8"?>
<!-- Generator: Adobe Illustrator 21.1.0, SVG Export Plug-In . SVG Version: 6.00 Build 0)  -->
<svg version="1.1" id="BRAND_-_Osram" xmlns="http://www.w3.org/2000/svg" xmlns:xlink="http://www.w3.org/1999/xlink" x="0px"
	 y="0px" viewBox="0 0 60 60" style="enable-background:new 0 0 60 60;" xml:space="preserve">
<style type="text/css">
	.st0{fill-rule:evenodd;clip-rule:evenodd;fill:#0472B6;}
</style>
<path class="st0" d="M4.86,32.81l3.1-7.79h1.66v9.76H8.39v-5.66c0-0.3,0-1,0-1.86l0,0l-3.06,7.53H4.3l-3.03-7.53H1.23
	c0,0.87,0.03,1.56,0.03,1.86v5.66H0v-9.76h1.66l3.13,7.79H4.86L4.86,32.81z M58.07,32.35v-1.13c-0.3,0.1-0.4,0.17-1.96,0.43
	c-0.57,0.1-1.53,0.37-1.53,1.27c0,0.77,0.6,1.17,1.5,1.17C57.17,34.08,58.07,33.28,58.07,32.35L58.07,32.35z M54.74,30.05h-1.07
	c0-1.86,1.17-2.46,2.93-2.46c0.53,0,2.63,0.17,2.63,1.96v4.03c0,0.27,0.13,0.4,0.37,0.4c0.13,0,0.27-0.03,0.4-0.07v0.87
	c-0.2,0.07-0.37,0.13-0.63,0.13c-1.03,0-1.2-0.53-1.23-1.1c-0.47,0.5-1,1.17-2.56,1.17c-1.27,0-2.33-0.8-2.33-2
	c0-0.7,0.33-1.9,2.4-2.16l1.66-0.3c0.43-0.07,0.77-0.2,0.77-0.83c0-0.73-0.53-1.17-1.63-1.17C55.07,28.52,54.87,29.22,54.74,30.05
	L54.74,30.05z M15.15,32.35v-1.13c-0.3,0.1-0.4,0.17-1.96,0.43c-0.57,0.1-1.53,0.37-1.53,1.27c0,0.77,0.6,1.17,1.5,1.17
	C14.25,34.08,15.15,33.28,15.15,32.35L15.15,32.35z M11.82,30.05h-1.07c0-1.86,1.17-2.46,2.93-2.46c0.57,0,2.63,0.17,2.63,1.96v4.03
	c0,0.27,0.13,0.4,0.37,0.4c0.13,0,0.27-0.03,0.4-0.07v0.87c-0.2,0.07-0.37,0.13-0.63,0.13c-1.03,0-1.2-0.53-1.23-1.1
	c-0.47,0.5-1,1.17-2.56,1.17c-1.27,0-2.3-0.8-2.3-2c0-0.7,0.33-1.9,2.36-2.16l1.66-0.3c0.43-0.07,0.77-0.2,0.77-0.83
	c0-0.73-0.53-1.17-1.63-1.17C12.15,28.52,11.95,29.22,11.82,30.05L11.82,30.05z M19.08,28.75h1.33v-1h-1.33v-2.16h-1.17v2.16h-1.03
	v1h1.03v4.63c0,0.83,0.23,1.5,1.4,1.5c0.13,0,0.47-0.07,0.87-0.1v-0.93h-0.4c-0.23,0-0.7,0-0.7-0.53V28.75L19.08,28.75z
	 M51.74,28.72h1.33v-0.97h-1.33v-2.16h-1.17v2.16h-1.03v0.97h1.03v4.66c0,0.83,0.23,1.5,1.4,1.5c0.13,0,0.47-0.07,0.87-0.1v-0.93
	h-0.4c-0.23,0-0.7,0-0.7-0.53V28.72L51.74,28.72z M25.27,29.72h1.13c0.03-0.6-0.47-2.26-2.7-2.26c-1.37,0-2.86,0.57-2.86,2.13
	c0,1.03,0.87,1.56,1.83,1.8l1.37,0.33c1.1,0.23,1.43,0.5,1.43,1.07c0,0.77-0.57,1.2-1.63,1.2c-1.8,0-1.93-1.17-2.03-1.6h-1.17
	c-0.03,0.3-0.17,2.56,3.26,2.56c1.76,0,2.86-0.8,2.86-2.3c0-0.93-0.53-1.56-2.13-1.96l-1.17-0.3c-0.9-0.23-1.33-0.43-1.33-1
	c0-0.87,1.1-0.97,1.43-0.97C25.07,28.42,25.24,29.28,25.27,29.72L25.27,29.72z M38.49,29.72h1.13c0.03-0.6-0.47-2.26-2.7-2.26
	c-1.37,0-2.86,0.57-2.86,2.13c0,1.03,0.87,1.56,1.83,1.8l1.37,0.33c1.1,0.23,1.43,0.5,1.43,1.07c0,0.77-0.57,1.2-1.63,1.2
	c-1.83,0-1.96-1.17-2.06-1.6h-1.13c-0.03,0.3-0.17,2.56,3.26,2.56c1.76,0,2.86-0.8,2.86-2.3c0-0.93-0.53-1.56-2.13-1.96l-1.17-0.3
	c-0.9-0.23-1.37-0.43-1.37-1c0-0.87,1.1-0.97,1.46-0.97C38.29,28.42,38.46,29.28,38.49,29.72L38.49,29.72z M32.1,34.78h1.1v-6.99
	h-1.17v3.86c0,1-0.33,2.43-1.9,2.43c-0.77,0-1.53-0.5-1.53-1.66v-4.63h-1.17v5.03c0,1.66,1.37,2.16,2.4,2.16
	c1.13,0,1.73-0.43,2.23-1.23h0.03V34.78L32.1,34.78z M46.52,34.78v-4.76c0-2-1.33-2.43-2.4-2.43c-1.13,0-1.9,0.7-2.23,1.13h-0.03
	v-3.7h-1.17v9.76h1.17v-3.8c0-1.76,1.07-2.33,1.96-2.33c1.13,0,1.53,0.6,1.53,1.56v4.56H46.52L46.52,34.78z M47.68,27.79v6.99h1.17
	v-6.99H47.68L47.68,27.79z M47.68,25.02v1.33h1.17v-1.33H47.68L47.68,25.02z"/>
</svg>
