<?xml version="1.0" encoding="utf-8"?>
<!-- Generator: Adobe Illustrator 19.2.1, SVG Export Plug-In . SVG Version: 6.00 Build 0)  -->
<svg version="1.1" id="BRAND_-_Speaker" xmlns="http://www.w3.org/2000/svg" xmlns:xlink="http://www.w3.org/1999/xlink" x="0px"
	 y="0px" viewBox="0 0 60 60" style="enable-background:new 0 0 60 60;" xml:space="preserve">
<style type="text/css">
	.Arched_x0020_Green{fill:url(#SVGID_1_);stroke:#FFFFFF;stroke-width:0.25;stroke-miterlimit:1;}
	.st0{fill:#EC1C24;}
	.st1{fill:#E2231A;}
</style>
<linearGradient id="SVGID_1_" gradientUnits="userSpaceOnUse" x1="-20" y1="262.2046" x2="-19.2929" y2="261.4975">
	<stop  offset="0" style="stop-color:#1EAB4B"/>
	<stop  offset="0.9831" style="stop-color:#19361A"/>
</linearGradient>
<g>
	<path class="st0" d="M51.8,35.5l8.2-4.7l-12.2-6.3c4.6,3.2,5.8,5.1,5.8,7C53.5,33,52.7,34.2,51.8,35.5z"/>
	<g>
		<path class="st1" d="M0,32.5l0.3-0.9h1c0.2,0,0.4,0,0.5-0.1c0.1-0.1,0.2-0.2,0.2-0.4l0.7-2.6h1.1L3,31.2c-0.1,0.3-0.2,0.5-0.3,0.6
			c-0.1,0.2-0.2,0.3-0.4,0.4c-0.1,0.1-0.3,0.2-0.5,0.2c-0.2,0-0.5,0.1-0.8,0.1H0z"/>
		<path class="st1" d="M3.6,32.5c-0.1,0-0.2,0-0.2,0c0,0-0.1-0.1-0.1-0.1c0,0,0-0.1,0-0.1l0.1-0.4c0-0.1,0.1-0.2,0.1-0.2
			c0.1,0,0.2-0.1,0.3-0.1h0.3c0.1,0,0.2,0,0.2,0c0,0,0.1,0.1,0.1,0.1c0,0,0,0,0,0c0,0,0,0,0,0l-0.1,0.4c0,0.1-0.1,0.2-0.1,0.2
			c-0.1,0-0.1,0.1-0.3,0.1H3.6z"/>
		<path class="st1" d="M11.2,32.5c-0.1,0-0.2,0-0.2,0c0,0-0.1-0.1-0.1-0.1c0,0,0-0.1,0-0.1l0.1-0.4c0-0.1,0.1-0.2,0.1-0.2
			c0.1,0,0.2-0.1,0.3-0.1h0.3c0.1,0,0.2,0,0.2,0c0,0,0.1,0.1,0.1,0.1c0,0,0,0,0,0c0,0,0,0,0,0L12,32.3c0,0.1-0.1,0.2-0.1,0.2
			c-0.1,0-0.1,0.1-0.3,0.1H11.2z"/>
		<path class="st1" d="M8.4,29.9l-1.7,2.2c-0.1,0.1-0.2,0.3-0.4,0.3c-0.1,0.1-0.3,0.1-0.5,0.1c-0.2,0-0.3,0-0.4-0.1
			c-0.1-0.1-0.1-0.2-0.1-0.3l-0.5-3.6H6l0.3,2.6l1.7-2.3c0.1-0.2,0.2-0.3,0.4-0.3c0.1-0.1,0.3-0.1,0.4-0.1c0.2,0,0.3,0,0.4,0.1
			c0.1,0.1,0.1,0.2,0.2,0.3l0.4,2.3l1.8-2.6h1.3l-2.6,3.6c-0.1,0.1-0.2,0.2-0.3,0.3c-0.1,0.1-0.3,0.1-0.4,0.1c-0.2,0-0.3,0-0.4-0.1
			c-0.1-0.1-0.1-0.2-0.2-0.3L8.4,29.9z"/>
		<path class="st1" d="M13.5,32.5l0.3-0.9h3c0.2,0,0.4-0.1,0.4-0.3c0-0.1,0-0.1,0.1-0.2c0,0,0-0.1,0-0.1c0-0.1,0-0.1-0.1-0.1
			c0,0-0.1,0-0.2,0h-1.8c-0.4,0-0.7-0.1-0.8-0.2c-0.1-0.1-0.2-0.3-0.2-0.5c0-0.1,0-0.1,0-0.2c0-0.1,0.1-0.2,0.1-0.4
			c0.1-0.2,0.1-0.4,0.2-0.5c0.1-0.1,0.2-0.3,0.3-0.4c0.1-0.1,0.3-0.2,0.4-0.2c0.2,0,0.4-0.1,0.6-0.1h3l-0.3,0.9h-2.9
			c-0.1,0-0.2,0-0.3,0.1c-0.1,0-0.1,0.1-0.1,0.2c0,0.1,0,0.1,0,0.1c0,0,0,0,0,0.1c0,0.1,0,0.1,0,0.1c0,0,0.1,0,0.2,0h1.8
			c0.4,0,0.7,0.1,0.8,0.2c0.2,0.1,0.2,0.3,0.2,0.6c0,0,0,0,0,0.1c0,0,0,0.1,0,0.1c0,0,0,0.1,0,0.2c0,0.1,0,0.2-0.1,0.3
			c-0.1,0.2-0.1,0.4-0.2,0.5c-0.1,0.1-0.2,0.2-0.3,0.3c-0.1,0.1-0.3,0.1-0.4,0.2c-0.2,0-0.4,0.1-0.6,0.1H13.5z"/>
		<path class="st1" d="M19.8,31.4l-0.3,1.1h-1.1l1.1-4h3.3c0.2,0,0.5,0,0.6,0.1c0.2,0,0.3,0.1,0.4,0.2c0.1,0.1,0.2,0.2,0.2,0.3
			c0,0.1,0,0.2,0,0.4c0,0,0,0.1,0,0.1c0,0,0,0.1,0,0.1c0,0.1,0,0.1-0.1,0.2c0,0.1-0.1,0.2-0.1,0.3c-0.1,0.2-0.2,0.4-0.2,0.6
			c-0.1,0.2-0.2,0.3-0.4,0.4c-0.1,0.1-0.3,0.2-0.5,0.2c-0.2,0-0.5,0.1-0.8,0.1H19.8z M22.8,30.1c0-0.1,0-0.1,0-0.2c0,0,0-0.1,0-0.1
			c0,0,0-0.1,0-0.1c0,0,0,0,0,0c0-0.1,0-0.2-0.1-0.2c-0.1,0-0.2,0-0.3,0h-2.1l-0.3,1.1h2.1c0.2,0,0.3,0,0.4-0.1
			C22.7,30.4,22.8,30.3,22.8,30.1"/>
		<path class="st1" d="M25.3,32.5c-0.2,0-0.5,0-0.6-0.1c-0.2,0-0.3-0.1-0.4-0.2c-0.1-0.1-0.2-0.2-0.2-0.3c0-0.1,0-0.3,0-0.4
			c0,0,0-0.1,0-0.1c0,0,0-0.1,0.1-0.3c0-0.1,0.1-0.3,0.1-0.5c0.1-0.2,0.1-0.5,0.2-0.9c0.1-0.3,0.2-0.5,0.3-0.6
			c0.1-0.2,0.2-0.3,0.4-0.4c0.2-0.1,0.3-0.2,0.5-0.2c0.2,0,0.5-0.1,0.8-0.1h2.8l-0.3,0.9h-2.8c-0.2,0-0.3,0-0.4,0.1
			c-0.1,0.1-0.2,0.2-0.2,0.3l-0.1,0.2h3.3L28.6,31h-3.3c0,0.1-0.1,0.3-0.1,0.3c0,0.1,0,0.1,0,0.1c0,0.1,0,0.2,0.1,0.2
			c0.1,0,0.2,0,0.3,0h2.8l-0.3,0.9H25.3z"/>
		<path class="st1" d="M41.1,32.5c-0.2,0-0.5,0-0.6-0.1c-0.2,0-0.3-0.1-0.4-0.2c-0.1-0.1-0.2-0.2-0.2-0.3c0-0.1,0-0.3,0-0.4
			c0,0,0-0.1,0-0.1c0,0,0-0.1,0.1-0.3c0-0.1,0.1-0.3,0.1-0.5c0.1-0.2,0.1-0.5,0.2-0.9c0.1-0.3,0.2-0.5,0.3-0.6
			c0.1-0.2,0.2-0.3,0.4-0.4c0.2-0.1,0.3-0.2,0.5-0.2c0.2,0,0.5-0.1,0.8-0.1H45l-0.3,0.9H42c-0.2,0-0.3,0-0.4,0.1
			c-0.1,0.1-0.2,0.2-0.2,0.3l-0.1,0.2h3.3L44.4,31h-3.3c0,0.1-0.1,0.3-0.1,0.3c0,0.1,0,0.1,0,0.1c0,0.1,0,0.2,0.1,0.2
			c0.1,0,0.2,0,0.3,0h2.8l-0.3,0.9H41.1z"/>
		<path class="st1" d="M33.5,32.5l-0.3-0.9h-2.5l-0.8,0.9h-1.3l3.3-3.6c0.1-0.1,0.3-0.3,0.4-0.3c0.1-0.1,0.3-0.1,0.6-0.1
			c0.1,0,0.2,0,0.3,0c0.1,0,0.1,0.1,0.2,0.1c0.1,0,0.1,0.1,0.1,0.1c0,0.1,0.1,0.1,0.1,0.2l1.2,3.6H33.5z M32.9,30.9
			c-0.1-0.2-0.1-0.3-0.2-0.4c0-0.1-0.1-0.3-0.1-0.4c0-0.1-0.1-0.2-0.1-0.3c0-0.1,0-0.2-0.1-0.2c-0.1,0.1-0.1,0.2-0.2,0.2
			c-0.1,0.1-0.2,0.2-0.2,0.3c-0.1,0.1-0.2,0.2-0.3,0.4c-0.1,0.1-0.3,0.3-0.4,0.4H32.9z"/>
		<polygon class="st1" points="38.1,32.5 36.7,30.6 36.2,32.5 35.1,32.5 36.2,28.5 37.3,28.5 36.8,30.4 39.1,28.5 40.6,28.5 
			38.1,30.5 39.5,32.5 		"/>
		<path class="st1" d="M47.8,32.5l-1.7-1.5l-0.4,1.5h-1.1l1.1-4h3.2c0.2,0,0.5,0,0.6,0c0.2,0,0.3,0.1,0.4,0.1
			c0.1,0.1,0.2,0.2,0.2,0.3c0,0.1,0.1,0.2,0,0.4c0,0,0,0.1,0,0.1c0,0,0,0.1,0,0.1c0,0,0,0.1,0,0.2c0,0.1,0,0.2-0.1,0.3
			c-0.1,0.2-0.2,0.4-0.3,0.6c-0.1,0.2-0.2,0.3-0.4,0.4c-0.2,0.1-0.3,0.1-0.5,0.2c-0.2,0-0.4,0-0.7,0h-0.5l1.7,1.3H47.8z M49,30
			c0-0.1,0.1-0.2,0.1-0.3c0,0,0-0.1,0-0.1c0-0.1,0-0.2-0.1-0.2c-0.1,0-0.1,0-0.3,0h-2.2l-0.3,1h2c0.2,0,0.4,0,0.5-0.1
			C48.9,30.3,49,30.2,49,30"/>
	</g>
	<path class="st1" d="M50.6,31.6c0.3,0,0.5,0.2,0.5,0.5c0,0.3-0.2,0.5-0.5,0.5c-0.3,0-0.5-0.2-0.5-0.5
		C50.1,31.8,50.3,31.6,50.6,31.6L50.6,31.6z M50.6,31.7c-0.2,0-0.4,0.2-0.4,0.4c0,0.2,0.2,0.4,0.4,0.4c0.2,0,0.4-0.2,0.4-0.4
		C51,31.9,50.8,31.7,50.6,31.7L50.6,31.7z M50.5,32.3h-0.1v-0.5c0,0,0.1,0,0.2,0c0.1,0,0.1,0,0.2,0c0,0,0,0.1,0,0.1
		c0,0.1,0,0.1-0.1,0.1v0c0,0,0.1,0.1,0.1,0.1c0,0.1,0,0.1,0,0.1h-0.1c0,0,0-0.1,0-0.1c0,0,0-0.1-0.1-0.1h-0.1V32.3z M50.5,32
		L50.5,32c0.1,0,0.2,0,0.2-0.1c0,0,0-0.1-0.1-0.1c0,0,0,0-0.1,0V32z"/>
</g>
<g>
</g>
<g>
</g>
<g>
</g>
<g>
</g>
<g>
</g>
<g>
</g>
</svg>
