<?xml version="1.0" encoding="utf-8"?>
<!-- Generator: Adobe Illustrator 19.2.1, SVG Export Plug-In . SVG Version: 6.00 Build 0)  -->
<svg version="1.1" id="BRAND_-_Speaker" xmlns="http://www.w3.org/2000/svg" xmlns:xlink="http://www.w3.org/1999/xlink" x="0px"
	 y="0px" viewBox="0 0 60 60" style="enable-background:new 0 0 60 60;" xml:space="preserve">
<style type="text/css">
	.Arched_x0020_Green{fill:url(#SVGID_1_);stroke:#FFFFFF;stroke-width:0.25;stroke-miterlimit:1;}
	.st0{fill:#FFFFFF;}
</style>
<linearGradient id="SVGID_1_" gradientUnits="userSpaceOnUse" x1="-20" y1="262.2046" x2="-19.2929" y2="261.4975">
	<stop  offset="0" style="stop-color:#1EAB4B"/>
	<stop  offset="0.9831" style="stop-color:#19361A"/>
</linearGradient>
<g>
	<path class="st0" d="M28.4,32.4L41.2,25l-19.1-9.9c7.1,4.9,9.1,8,9,11C31,28.4,29.7,30.4,28.4,32.4z"/>
	<g>
		<g>
			<path class="st0" d="M0,40.8l0.3-1.1h1.1c0.3,0,0.4,0,0.6-0.1c0.1-0.1,0.2-0.2,0.3-0.4l0.8-3h1.3l-0.9,3.1
				c-0.1,0.3-0.2,0.6-0.3,0.8c-0.1,0.2-0.3,0.4-0.4,0.5c-0.2,0.1-0.4,0.2-0.6,0.3c-0.3,0.1-0.6,0.1-0.9,0.1H0z"/>
			<path class="st0" d="M4.2,40.8c-0.1,0-0.2,0-0.3,0c-0.1,0-0.1-0.1-0.1-0.2c0,0,0-0.1,0-0.1L4,40c0-0.1,0.1-0.2,0.2-0.2
				c0.1-0.1,0.2-0.1,0.3-0.1h0.4c0.1,0,0.2,0,0.3,0.1c0,0,0.1,0.1,0.1,0.2c0,0,0,0,0,0c0,0,0,0,0,0L5,40.5c0,0.1-0.1,0.2-0.1,0.2
				c-0.1,0-0.2,0.1-0.3,0.1H4.2z"/>
			<path class="st0" d="M13.2,40.8c-0.1,0-0.2,0-0.3,0c-0.1,0-0.1-0.1-0.1-0.2c0,0,0-0.1,0-0.1L13,40c0-0.1,0.1-0.2,0.2-0.2
				c0.1-0.1,0.2-0.1,0.3-0.1h0.4c0.1,0,0.2,0,0.3,0.1c0,0,0.1,0.1,0.1,0.2c0,0,0,0,0,0c0,0,0,0,0,0l-0.1,0.5c0,0.1-0.1,0.2-0.1,0.2
				c-0.1,0-0.2,0.1-0.3,0.1H13.2z"/>
			<path class="st0" d="M9.8,37.7l-2,2.6c-0.1,0.2-0.3,0.3-0.4,0.4c-0.2,0.1-0.3,0.2-0.5,0.2c-0.2,0-0.4-0.1-0.4-0.2
				c-0.1-0.1-0.1-0.2-0.2-0.4l-0.6-4.3H7l0.3,3.1l2-2.7c0.1-0.2,0.3-0.3,0.4-0.4C9.9,36,10.1,36,10.3,36c0.2,0,0.4,0,0.5,0.1
				c0.1,0.1,0.2,0.2,0.2,0.4l0.4,2.7l2.1-3.1h1.5l-3.1,4.3c-0.1,0.2-0.3,0.3-0.4,0.4c-0.2,0.1-0.3,0.2-0.5,0.2
				c-0.2,0-0.4-0.1-0.5-0.2c-0.1-0.1-0.2-0.2-0.2-0.4L9.8,37.7z"/>
			<path class="st0" d="M15.9,40.8l0.3-1.1h3.6c0.3,0,0.4-0.1,0.5-0.3c0-0.1,0.1-0.2,0.1-0.2c0,0,0-0.1,0-0.1c0-0.1,0-0.1-0.1-0.2
				c-0.1,0-0.1,0-0.3,0h-2.2c-0.5,0-0.8-0.1-0.9-0.2c-0.2-0.1-0.2-0.3-0.2-0.6c0-0.1,0-0.1,0-0.2c0-0.1,0.1-0.2,0.1-0.4
				c0.1-0.2,0.2-0.5,0.3-0.6c0.1-0.2,0.2-0.3,0.4-0.4c0.1-0.1,0.3-0.2,0.5-0.2c0.2,0,0.4-0.1,0.7-0.1h3.5l-0.3,1.1h-3.4
				c-0.1,0-0.2,0-0.3,0.1c-0.1,0.1-0.1,0.1-0.2,0.3c0,0.1,0,0.1,0,0.2c0,0,0,0.1,0,0.1c0,0.1,0,0.1,0.1,0.1c0,0,0.1,0,0.2,0h2.1
				c0.5,0,0.8,0.1,1,0.2c0.2,0.1,0.3,0.4,0.2,0.7c0,0,0,0.1,0,0.1c0,0,0,0.1,0,0.1c0,0.1,0,0.1-0.1,0.2c0,0.1-0.1,0.2-0.1,0.3
				c-0.1,0.2-0.1,0.4-0.2,0.6c-0.1,0.2-0.2,0.3-0.4,0.4c-0.1,0.1-0.3,0.2-0.5,0.2c-0.2,0-0.4,0.1-0.7,0.1H15.9z"/>
			<path class="st0" d="M23.3,39.5L23,40.8h-1.3l1.3-4.7h3.8c0.3,0,0.5,0,0.7,0.1c0.2,0,0.4,0.1,0.5,0.2c0.1,0.1,0.2,0.2,0.2,0.3
				c0,0.1,0.1,0.3,0,0.5c0,0,0,0.1,0,0.1c0,0,0,0.1,0,0.2c0,0.1,0,0.1-0.1,0.2c0,0.1-0.1,0.2-0.1,0.4c-0.1,0.3-0.2,0.5-0.3,0.7
				c-0.1,0.2-0.2,0.3-0.4,0.4c-0.2,0.1-0.4,0.2-0.6,0.2c-0.2,0-0.5,0.1-0.9,0.1H23.3z M26.8,38c0-0.1,0-0.2,0.1-0.2
				c0-0.1,0-0.1,0-0.1c0,0,0-0.1,0-0.1c0,0,0,0,0-0.1c0-0.1,0-0.2-0.1-0.2c-0.1,0-0.2-0.1-0.4-0.1H24l-0.3,1.2h2.5
				c0.2,0,0.4,0,0.5-0.1C26.7,38.2,26.7,38.1,26.8,38"/>
			<path class="st0" d="M29.7,40.8c-0.3,0-0.5,0-0.7-0.1c-0.2,0-0.4-0.1-0.5-0.2c-0.1-0.1-0.2-0.2-0.2-0.3c0-0.1-0.1-0.3,0-0.5
				c0,0,0-0.1,0-0.1c0-0.1,0-0.2,0.1-0.3c0-0.1,0.1-0.3,0.2-0.6c0.1-0.3,0.2-0.6,0.3-1c0.1-0.3,0.2-0.5,0.3-0.8
				c0.1-0.2,0.3-0.4,0.4-0.5c0.2-0.1,0.4-0.2,0.6-0.3c0.3-0.1,0.6-0.1,0.9-0.1h3.3L34,37.2h-3.3c-0.2,0-0.4,0-0.5,0.1
				c-0.1,0.1-0.2,0.2-0.2,0.4L30,37.9h3.9l-0.3,1h-3.9c-0.1,0.2-0.1,0.3-0.1,0.4c0,0.1,0,0.1,0,0.1c0,0.1,0,0.2,0.1,0.2
				c0.1,0,0.2,0.1,0.4,0.1h3.3l-0.3,1.1H29.7z"/>
			<path class="st0" d="M48.3,40.8c-0.3,0-0.5,0-0.7-0.1c-0.2,0-0.4-0.1-0.5-0.2c-0.1-0.1-0.2-0.2-0.2-0.3c0-0.1-0.1-0.3,0-0.5
				c0,0,0-0.1,0-0.1c0-0.1,0-0.2,0.1-0.3c0-0.1,0.1-0.3,0.2-0.6c0.1-0.3,0.2-0.6,0.3-1c0.1-0.3,0.2-0.5,0.3-0.8
				c0.1-0.2,0.3-0.4,0.4-0.5c0.2-0.1,0.4-0.2,0.6-0.3c0.3-0.1,0.6-0.1,0.9-0.1h3.3l-0.3,1.1h-3.3c-0.2,0-0.4,0-0.5,0.1
				c-0.1,0.1-0.2,0.2-0.2,0.4l-0.1,0.2h3.9l-0.3,1h-3.9c-0.1,0.2-0.1,0.3-0.1,0.4c0,0.1,0,0.1,0,0.1c0,0.1,0,0.2,0.1,0.2
				c0.1,0,0.2,0.1,0.4,0.1h3.3l-0.3,1.1H48.3z"/>
			<path class="st0" d="M39.3,40.8l-0.3-1h-3l-0.9,1h-1.5l3.8-4.3c0.1-0.2,0.3-0.3,0.5-0.4c0.2-0.1,0.4-0.2,0.6-0.2
				c0.1,0,0.2,0,0.3,0c0.1,0,0.2,0.1,0.2,0.1c0.1,0,0.1,0.1,0.2,0.2c0,0.1,0.1,0.1,0.1,0.2l1.4,4.3H39.3z M38.7,38.8
				c-0.1-0.2-0.1-0.4-0.2-0.5c-0.1-0.2-0.1-0.3-0.1-0.4c0-0.1-0.1-0.2-0.1-0.3c0-0.1-0.1-0.2-0.1-0.3c-0.1,0.1-0.2,0.2-0.2,0.3
				c-0.1,0.1-0.2,0.2-0.3,0.3c-0.1,0.1-0.2,0.3-0.4,0.4c-0.1,0.2-0.3,0.3-0.5,0.5H38.7z"/>
			<polygon class="st0" points="44.8,40.8 43.1,38.5 42.5,40.8 41.2,40.8 42.5,36.1 43.8,36.1 43.2,38.3 46,36.1 47.7,36.1 
				44.7,38.4 46.4,40.8 			"/>
			<path class="st0" d="M56.2,40.8l-2-1.7l-0.5,1.7h-1.3l1.3-4.7h3.8c0.3,0,0.5,0,0.7,0c0.2,0,0.4,0.1,0.5,0.2
				c0.1,0.1,0.2,0.2,0.3,0.3c0,0.1,0.1,0.3,0,0.5c0,0,0,0.1,0,0.1c0,0,0,0.1,0,0.1c0,0.1,0,0.1-0.1,0.2c0,0.1-0.1,0.2-0.1,0.3
				c-0.1,0.3-0.2,0.5-0.3,0.7c-0.1,0.2-0.3,0.3-0.4,0.4c-0.2,0.1-0.4,0.2-0.6,0.2c-0.2,0-0.5,0.1-0.8,0.1h-0.6l2,1.6H56.2z
				 M57.6,37.8c0-0.1,0.1-0.2,0.1-0.3c0-0.1,0-0.1,0-0.1c0-0.1,0-0.2-0.1-0.2c-0.1,0-0.2,0-0.3,0h-2.6l-0.3,1.1h2.4
				c0.3,0,0.5,0,0.6-0.1C57.4,38.1,57.5,38,57.6,37.8"/>
		</g>
		<path class="st0" d="M59.4,39.7c0.3,0,0.6,0.2,0.6,0.5c0,0.3-0.2,0.6-0.6,0.6c-0.3,0-0.6-0.2-0.6-0.6
			C58.9,39.9,59.1,39.7,59.4,39.7L59.4,39.7z M59.4,39.8c-0.2,0-0.4,0.2-0.4,0.4c0,0.2,0.2,0.4,0.4,0.4c0.2,0,0.4-0.2,0.4-0.4
			C59.9,40,59.7,39.8,59.4,39.8L59.4,39.8z M59.3,40.5h-0.1V40c0,0,0.1,0,0.2,0c0.1,0,0.2,0,0.2,0c0,0,0.1,0.1,0.1,0.1
			c0,0.1,0,0.1-0.1,0.1v0c0.1,0,0.1,0.1,0.1,0.1c0,0.1,0,0.1,0,0.1h-0.1c0,0,0-0.1,0-0.1c0-0.1,0-0.1-0.1-0.1h-0.1V40.5z M59.4,40.2
			L59.4,40.2c0.1,0,0.2,0,0.2-0.1c0-0.1,0-0.1-0.1-0.1c0,0-0.1,0-0.1,0V40.2z"/>
	</g>
</g>
<g>
</g>
<g>
</g>
<g>
</g>
<g>
</g>
<g>
</g>
<g>
</g>
</svg>
