<?xml version="1.0" encoding="utf-8"?>
<!-- Generator: Adobe Illustrator 21.1.0, SVG Export Plug-In . SVG Version: 6.00 Build 0)  -->
<svg version="1.1" id="BRAND_-_Osram" xmlns="http://www.w3.org/2000/svg" xmlns:xlink="http://www.w3.org/1999/xlink" x="0px"
	 y="0px" viewBox="0 0 60 60" style="enable-background:new 0 0 60 60;" xml:space="preserve">
<style type="text/css">
	.st0{clip-path:url(#SVGID_4_);fill:#555555;}
	.st1{clip-path:url(#SVGID_10_);fill:#272727;}
</style>
<g>
	<g>
		<g>
			<defs>
				<path id="SVGID_1_" d="M9.46,28.13h0.92v4.71H9.32V29.6l-2.1,2.67H6.99l-2.13-2.59v3.16H3.94v-4.71h0.92l2.3,2.79L9.46,28.13z
					 M17.15,28.9c0.13,0.12,0.2,0.35,0.2,0.7v1.94c0,0.34-0.07,0.57-0.2,0.69c-0.14,0.12-0.39,0.18-0.75,0.18h-2.85
					c-0.37,0-0.62-0.06-0.76-0.18c-0.13-0.12-0.2-0.35-0.2-0.69V29.6c0-0.35,0.07-0.58,0.2-0.7c0.13-0.12,0.39-0.17,0.76-0.17h2.85
					C16.77,28.73,17.02,28.79,17.15,28.9z M16.45,29.41h-2.96v2.3h2.96V29.41z M25.85,32.41h0.9v-3.68h-0.9V32.41z M31.33,30.91
					l-1.8-2.18h-0.72v3.68h0.72v-2.47l1.66,2.03h0.17l1.64-2.09v2.53h0.84v-3.68h-0.72L31.33,30.91z M39.85,28.73
					c0.37,0,0.62,0.06,0.76,0.17c0.13,0.12,0.2,0.35,0.2,0.7v1.94c0,0.34-0.07,0.57-0.2,0.69c-0.14,0.12-0.39,0.18-0.75,0.18H37
					c-0.37,0-0.62-0.06-0.76-0.18c-0.13-0.12-0.2-0.35-0.2-0.69V29.6c0-0.35,0.07-0.58,0.2-0.7c0.13-0.12,0.39-0.17,0.76-0.17H39.85
					z M39.91,29.41h-2.96v2.3h2.96V29.41z M44.97,32.41v-3.02h1.78v-0.66H42.3v0.66h1.77v3.02H44.97z M22.63,31.02
					c0.57,0,0.86-0.23,0.86-0.7v-0.87c0-0.48-0.29-0.71-0.86-0.71h-3.31v3.68h0.89v-3.04h2.04c0.27,0,0.41,0.1,0.41,0.3v0.43
					c0,0.2-0.14,0.3-0.41,0.3h-1.66v0.21l2,1.81h1.29l-1.75-1.39H22.63z M46.1,28.16c-2.05-0.89-4.46-1.95-6.03-2.63h-6.26
					c2.35,0.67,5.98,1.71,9.18,2.63H46.1z M54.27,29.12c1.3-0.56,3.11-1.35,4.36-1.9v1.2c-1.25,0.36-3.05,0.88-4.32,1.24v0.64
					c1.26-0.09,3.06-0.21,4.32-0.3v1.12c-1.25-0.09-3.06-0.21-4.32-0.3v0.64c1.27,0.37,3.07,0.88,4.32,1.24v1.2
					c-1.25-0.55-3.07-1.34-4.36-1.9c-0.04,0.21-0.12,0.39-0.23,0.53c1.19,0.75,2.85,1.79,4.13,2.59c-0.24,0.21-0.55,0.34-0.9,0.34
					H56.6c-0.86-0.73-2.1-1.79-3.03-2.58c-0.18,0.07-0.4,0.12-0.66,0.13c0.63,0.75,1.47,1.74,2.06,2.45h-1.21
					c-0.43-0.71-1.03-1.71-1.47-2.44h-0.74c0.11,0.72,0.26,1.73,0.37,2.44h-1.28c0.11-0.71,0.26-1.73,0.37-2.44h-0.74
					c-0.44,0.73-1.04,1.73-1.47,2.44h-1.21c0.59-0.7,1.43-1.7,2.06-2.45c-0.26-0.01-0.47-0.06-0.65-0.14
					c-0.93,0.79-2.18,1.85-3.04,2.59h-2.1c1.32-0.83,3.32-2.08,4.68-2.94c-0.11-0.14-0.18-0.32-0.22-0.53
					c-2.06,0.9-5.71,2.49-7.96,3.47h-6.09c2.48-0.71,6.1-1.75,9.21-2.64v0.15h2.04v-0.73c1.08-0.31,2.03-0.58,2.75-0.79v-1.78
					C48,29.6,47.68,29.5,47.32,29.4v-0.01v-0.7c0.37,0.16,0.71,0.31,1.01,0.44c0.04-0.21,0.11-0.39,0.22-0.53
					c-1.44-0.91-3.59-2.25-4.89-3.07h2.16c0.86,0.73,2.2,1.87,3.19,2.71c0.18-0.08,0.39-0.12,0.66-0.14
					c-0.67-0.8-1.58-1.87-2.17-2.57h1.24c0.42,0.71,1.07,1.79,1.54,2.57h0.74c-0.11-0.76-0.28-1.85-0.39-2.57h1.32
					c-0.11,0.71-0.27,1.8-0.39,2.57h0.74c0.47-0.78,1.12-1.86,1.54-2.57h1.24c-0.59,0.7-1.5,1.77-2.17,2.57
					c0.26,0.01,0.48,0.06,0.66,0.13c0.99-0.84,2.32-1.98,3.18-2.7h0.5c0.39,0,0.74,0.16,0.99,0.42c-1.28,0.81-2.98,1.87-4.2,2.64
					C54.15,28.73,54.23,28.91,54.27,29.12z M53.69,29.59c0-0.08,0-0.14-0.01-0.21c-0.02-0.21-0.08-0.36-0.17-0.46
					c-0.01-0.01-0.01-0.02-0.02-0.03c-0.1-0.09-0.26-0.14-0.5-0.16c-0.08-0.01-0.17-0.01-0.26-0.01h-2.85
					c-0.11,0-0.2,0.01-0.29,0.02c-0.22,0.02-0.37,0.08-0.47,0.16c-0.01,0.01-0.02,0.03-0.03,0.04c-0.08,0.1-0.14,0.25-0.16,0.46
					c-0.01,0.06-0.01,0.13-0.01,0.2v1.94c0,0.08,0,0.14,0.01,0.21c0.02,0.21,0.08,0.36,0.16,0.45c0.01,0.01,0.01,0.02,0.02,0.03
					c0.1,0.09,0.26,0.14,0.48,0.16c0.08,0.01,0.17,0.01,0.28,0.01h2.85c0.09,0,0.17,0,0.25-0.01c0.23-0.02,0.4-0.08,0.51-0.17
					c0.01-0.01,0.01-0.01,0.02-0.02c0.09-0.09,0.15-0.24,0.18-0.45c0.01-0.07,0.01-0.14,0.01-0.22V29.59z M49.82,29.4L49.82,29.4
					L49.82,29.4v0.38v1.57v0.35v0h0.06h2.8h0.09v0v-0.33v-1.59V29.4v0h-0.03H49.82z M60,26.9v7.21c0,1.51-1.23,2.74-2.74,2.74H3.24
					c-1.51,0-2.74-1.23-2.74-2.74V26.9c0-1.51,1.23-2.74,2.74-2.74h54.03C58.77,24.16,60,25.39,60,26.9z M59.32,26.9
					c0-1.13-0.92-2.05-2.05-2.05H3.24c-1.13,0-2.05,0.92-2.05,2.05v7.21c0,1.13,0.92,2.05,2.05,2.05h54.03
					c1.13,0,2.05-0.92,2.05-2.05V26.9z"/>
			</defs>
			<clipPath id="SVGID_2_">
				<use xlink:href="#SVGID_1_"  style="overflow:visible;"/>
			</clipPath>
		</g>
		<g>
			<defs>
				<path id="SVGID_3_" d="M9.46,28.13h0.92v4.71H9.32V29.6l-2.1,2.67H6.99l-2.13-2.59v3.16H3.94v-4.71h0.92l2.3,2.79L9.46,28.13z
					 M17.15,28.9c0.13,0.12,0.2,0.35,0.2,0.7v1.94c0,0.34-0.07,0.57-0.2,0.69c-0.14,0.12-0.39,0.18-0.75,0.18h-2.85
					c-0.37,0-0.62-0.06-0.76-0.18c-0.13-0.12-0.2-0.35-0.2-0.69V29.6c0-0.35,0.07-0.58,0.2-0.7c0.13-0.12,0.39-0.17,0.76-0.17h2.85
					C16.77,28.73,17.02,28.79,17.15,28.9z M16.45,29.41h-2.96v2.3h2.96V29.41z M25.85,32.41h0.9v-3.68h-0.9V32.41z M31.33,30.91
					l-1.8-2.18h-0.72v3.68h0.72v-2.47l1.66,2.03h0.17l1.64-2.09v2.53h0.84v-3.68h-0.72L31.33,30.91z M39.85,28.73
					c0.37,0,0.62,0.06,0.76,0.17c0.13,0.12,0.2,0.35,0.2,0.7v1.94c0,0.34-0.07,0.57-0.2,0.69c-0.14,0.12-0.39,0.18-0.75,0.18H37
					c-0.37,0-0.62-0.06-0.76-0.18c-0.13-0.12-0.2-0.35-0.2-0.69V29.6c0-0.35,0.07-0.58,0.2-0.7c0.13-0.12,0.39-0.17,0.76-0.17H39.85
					z M39.91,29.41h-2.96v2.3h2.96V29.41z M44.97,32.41v-3.02h1.78v-0.66H42.3v0.66h1.77v3.02H44.97z M22.63,31.02
					c0.57,0,0.86-0.23,0.86-0.7v-0.87c0-0.48-0.29-0.71-0.86-0.71h-3.31v3.68h0.89v-3.04h2.04c0.27,0,0.41,0.1,0.41,0.3v0.43
					c0,0.2-0.14,0.3-0.41,0.3h-1.66v0.21l2,1.81h1.29l-1.75-1.39H22.63z M46.1,28.16c-2.05-0.89-4.46-1.95-6.03-2.63h-6.26
					c2.35,0.67,5.98,1.71,9.18,2.63H46.1z M54.27,29.12c1.3-0.56,3.11-1.35,4.36-1.9v1.2c-1.25,0.36-3.05,0.88-4.32,1.24v0.64
					c1.26-0.09,3.06-0.21,4.32-0.3v1.12c-1.25-0.09-3.06-0.21-4.32-0.3v0.64c1.27,0.37,3.07,0.88,4.32,1.24v1.2
					c-1.25-0.55-3.07-1.34-4.36-1.9c-0.04,0.21-0.12,0.39-0.23,0.53c1.19,0.75,2.85,1.79,4.13,2.59c-0.24,0.21-0.55,0.34-0.9,0.34
					H56.6c-0.86-0.73-2.1-1.79-3.03-2.58c-0.18,0.07-0.4,0.12-0.66,0.13c0.63,0.75,1.47,1.74,2.06,2.45h-1.21
					c-0.43-0.71-1.03-1.71-1.47-2.44h-0.74c0.11,0.72,0.26,1.73,0.37,2.44h-1.28c0.11-0.71,0.26-1.73,0.37-2.44h-0.74
					c-0.44,0.73-1.04,1.73-1.47,2.44h-1.21c0.59-0.7,1.43-1.7,2.06-2.45c-0.26-0.01-0.47-0.06-0.65-0.14
					c-0.93,0.79-2.18,1.85-3.04,2.59h-2.1c1.32-0.83,3.32-2.08,4.68-2.94c-0.11-0.14-0.18-0.32-0.22-0.53
					c-2.06,0.9-5.71,2.49-7.96,3.47h-6.09c2.48-0.71,6.1-1.75,9.21-2.64v0.15h2.04v-0.73c1.08-0.31,2.03-0.58,2.75-0.79v-1.78
					C48,29.6,47.68,29.5,47.32,29.4v-0.01v-0.7c0.37,0.16,0.71,0.31,1.01,0.44c0.04-0.21,0.11-0.39,0.22-0.53
					c-1.44-0.91-3.59-2.25-4.89-3.07h2.16c0.86,0.73,2.2,1.87,3.19,2.71c0.18-0.08,0.39-0.12,0.66-0.14
					c-0.67-0.8-1.58-1.87-2.17-2.57h1.24c0.42,0.71,1.07,1.79,1.54,2.57h0.74c-0.11-0.76-0.28-1.85-0.39-2.57h1.32
					c-0.11,0.71-0.27,1.8-0.39,2.57h0.74c0.47-0.78,1.12-1.86,1.54-2.57h1.24c-0.59,0.7-1.5,1.77-2.17,2.57
					c0.26,0.01,0.48,0.06,0.66,0.13c0.99-0.84,2.32-1.98,3.18-2.7h0.5c0.39,0,0.74,0.16,0.99,0.42c-1.28,0.81-2.98,1.87-4.2,2.64
					C54.15,28.73,54.23,28.91,54.27,29.12z M53.69,29.59c0-0.08,0-0.14-0.01-0.21c-0.02-0.21-0.08-0.36-0.17-0.46
					c-0.01-0.01-0.01-0.02-0.02-0.03c-0.1-0.09-0.26-0.14-0.5-0.16c-0.08-0.01-0.17-0.01-0.26-0.01h-2.85
					c-0.11,0-0.2,0.01-0.29,0.02c-0.22,0.02-0.37,0.08-0.47,0.16c-0.01,0.01-0.02,0.03-0.03,0.04c-0.08,0.1-0.14,0.25-0.16,0.46
					c-0.01,0.06-0.01,0.13-0.01,0.2v1.94c0,0.08,0,0.14,0.01,0.21c0.02,0.21,0.08,0.36,0.16,0.45c0.01,0.01,0.01,0.02,0.02,0.03
					c0.1,0.09,0.26,0.14,0.48,0.16c0.08,0.01,0.17,0.01,0.28,0.01h2.85c0.09,0,0.17,0,0.25-0.01c0.23-0.02,0.4-0.08,0.51-0.17
					c0.01-0.01,0.01-0.01,0.02-0.02c0.09-0.09,0.15-0.24,0.18-0.45c0.01-0.07,0.01-0.14,0.01-0.22V29.59z M49.82,29.4L49.82,29.4
					L49.82,29.4v0.38v1.57v0.35v0h0.06h2.8h0.09v0v-0.33v-1.59V29.4v0h-0.03H49.82z M60,26.9v7.21c0,1.51-1.23,2.74-2.74,2.74H3.24
					c-1.51,0-2.74-1.23-2.74-2.74V26.9c0-1.51,1.23-2.74,2.74-2.74h54.03C58.77,24.16,60,25.39,60,26.9z M59.32,26.9
					c0-1.13-0.92-2.05-2.05-2.05H3.24c-1.13,0-2.05,0.92-2.05,2.05v7.21c0,1.13,0.92,2.05,2.05,2.05h54.03
					c1.13,0,2.05-0.92,2.05-2.05V26.9z"/>
			</defs>
			<use xlink:href="#SVGID_3_"  style="overflow:visible;fill:#555555;"/>
			<clipPath id="SVGID_4_">
				<use xlink:href="#SVGID_3_"  style="overflow:visible;"/>
			</clipPath>
			<path class="st0" d="M9.96,28.63h0.92v4.71H9.82V30.1l-2.1,2.67H7.49l-2.13-2.59v3.16H4.44v-4.71h0.92l2.3,2.79L9.96,28.63z
				 M17.65,29.4c0.13,0.12,0.2,0.35,0.2,0.7v1.94c0,0.34-0.07,0.57-0.2,0.69c-0.14,0.12-0.39,0.18-0.75,0.18h-2.85
				c-0.37,0-0.62-0.06-0.76-0.18c-0.13-0.12-0.2-0.35-0.2-0.69V30.1c0-0.35,0.07-0.58,0.2-0.7c0.13-0.12,0.39-0.17,0.76-0.17h2.85
				C17.27,29.23,17.52,29.29,17.65,29.4z M16.95,29.91h-2.96v2.3h2.96V29.91z M26.35,32.91h0.9v-3.68h-0.9V32.91z M31.83,31.41
				l-1.8-2.18h-0.72v3.68h0.72v-2.47l1.66,2.03h0.17l1.64-2.09v2.53h0.84v-3.68h-0.72L31.83,31.41z M40.35,29.23
				c0.37,0,0.62,0.06,0.76,0.17c0.13,0.12,0.2,0.35,0.2,0.7v1.94c0,0.34-0.07,0.57-0.2,0.69c-0.14,0.12-0.39,0.18-0.75,0.18H37.5
				c-0.37,0-0.62-0.06-0.76-0.18c-0.13-0.12-0.2-0.35-0.2-0.69V30.1c0-0.35,0.07-0.58,0.2-0.7c0.13-0.12,0.39-0.17,0.76-0.17H40.35z
				 M40.41,29.91h-2.96v2.3h2.96V29.91z M45.47,32.91v-3.02h1.78v-0.66H42.8v0.66h1.77v3.02H45.47z M23.13,31.52
				c0.57,0,0.86-0.23,0.86-0.7v-0.87c0-0.48-0.29-0.71-0.86-0.71h-3.31v3.68h0.89v-3.04h2.04c0.27,0,0.41,0.1,0.41,0.3v0.43
				c0,0.2-0.14,0.3-0.41,0.3h-1.66v0.21l2,1.81h1.29l-1.75-1.39H23.13z M46.6,28.66c-2.05-0.89-4.46-1.95-6.03-2.63h-6.26
				c2.35,0.67,5.98,1.71,9.18,2.63H46.6z M54.77,29.62c1.3-0.56,3.11-1.35,4.36-1.9v1.2c-1.25,0.36-3.05,0.88-4.32,1.24v0.64
				c1.26-0.09,3.06-0.21,4.32-0.3v1.12c-1.25-0.09-3.06-0.21-4.32-0.3v0.64c1.27,0.37,3.07,0.88,4.32,1.24v1.2
				c-1.25-0.55-3.07-1.34-4.36-1.9c-0.04,0.21-0.12,0.39-0.23,0.53c1.19,0.75,2.85,1.79,4.13,2.59c-0.24,0.21-0.55,0.34-0.9,0.34
				H57.1c-0.86-0.73-2.1-1.79-3.03-2.58c-0.18,0.07-0.4,0.12-0.66,0.13c0.63,0.75,1.47,1.74,2.06,2.45h-1.21
				c-0.43-0.71-1.03-1.71-1.47-2.44h-0.74c0.11,0.72,0.26,1.73,0.37,2.44h-1.28c0.11-0.71,0.26-1.73,0.37-2.44h-0.74
				c-0.44,0.73-1.04,1.73-1.47,2.44h-1.21c0.59-0.7,1.43-1.7,2.06-2.45c-0.26-0.01-0.47-0.06-0.65-0.14
				c-0.93,0.79-2.18,1.85-3.04,2.59h-2.1c1.32-0.83,3.32-2.08,4.68-2.94c-0.11-0.14-0.18-0.32-0.22-0.53
				c-2.06,0.9-5.71,2.49-7.96,3.47h-6.09c2.48-0.71,6.1-1.75,9.21-2.64v0.15h2.04v-0.73c1.08-0.31,2.03-0.58,2.75-0.79v-1.78
				C48.5,30.1,48.18,30,47.82,29.9v-0.01v-0.7c0.37,0.16,0.71,0.31,1.01,0.44c0.04-0.21,0.11-0.39,0.22-0.53
				c-1.44-0.91-3.59-2.25-4.89-3.07h2.16c0.86,0.73,2.2,1.87,3.19,2.71c0.18-0.08,0.39-0.12,0.66-0.14
				c-0.67-0.8-1.58-1.87-2.17-2.57h1.24c0.42,0.71,1.07,1.79,1.54,2.57h0.74c-0.11-0.76-0.28-1.85-0.39-2.57h1.32
				c-0.11,0.71-0.27,1.8-0.39,2.57h0.74c0.47-0.78,1.12-1.86,1.54-2.57h1.24c-0.59,0.7-1.5,1.77-2.17,2.57
				c0.26,0.01,0.48,0.06,0.66,0.13c0.99-0.84,2.32-1.98,3.18-2.7h0.5c0.39,0,0.74,0.16,0.99,0.42c-1.28,0.81-2.98,1.87-4.2,2.64
				C54.65,29.23,54.73,29.41,54.77,29.62z M54.19,30.09c0-0.08,0-0.14-0.01-0.21c-0.02-0.21-0.08-0.36-0.17-0.46
				C54,29.42,54,29.4,53.99,29.4c-0.1-0.09-0.26-0.14-0.5-0.16c-0.08-0.01-0.17-0.01-0.26-0.01h-2.85c-0.11,0-0.2,0.01-0.29,0.02
				c-0.22,0.02-0.37,0.08-0.47,0.16c-0.01,0.01-0.02,0.03-0.03,0.04c-0.08,0.1-0.14,0.25-0.16,0.46c-0.01,0.06-0.01,0.13-0.01,0.2
				v1.94c0,0.08,0,0.14,0.01,0.21c0.02,0.21,0.08,0.36,0.16,0.45c0.01,0.01,0.01,0.02,0.02,0.03c0.1,0.09,0.26,0.14,0.48,0.16
				c0.08,0.01,0.17,0.01,0.28,0.01h2.85c0.09,0,0.17,0,0.25-0.01c0.23-0.02,0.4-0.08,0.51-0.17c0.01-0.01,0.01-0.01,0.02-0.02
				c0.09-0.09,0.15-0.24,0.18-0.45c0.01-0.07,0.01-0.14,0.01-0.22V30.09z M50.32,29.9L50.32,29.9L50.32,29.9v0.38v1.57v0.35v0h0.06
				h2.8h0.09v0v-0.33v-1.59V29.9v0h-0.03H50.32z M60.5,27.4v7.21c0,1.51-1.23,2.74-2.74,2.74H3.74C2.23,37.34,1,36.11,1,34.6V27.4
				c0-1.51,1.23-2.74,2.74-2.74h54.03C59.27,24.66,60.5,25.89,60.5,27.4z M59.82,27.4c0-1.13-0.92-2.05-2.05-2.05H3.74
				c-1.13,0-2.05,0.92-2.05,2.05v7.21c0,1.13,0.92,2.05,2.05,2.05h54.03c1.13,0,2.05-0.92,2.05-2.05V27.4z"/>
		</g>
		<g>
			<defs>
				<path id="SVGID_5_" d="M9.46,28.13h0.92v4.71H9.32V29.6l-2.1,2.67H6.99l-2.13-2.59v3.16H3.94v-4.71h0.92l2.3,2.79L9.46,28.13z
					 M17.15,28.9c0.13,0.12,0.2,0.35,0.2,0.7v1.94c0,0.34-0.07,0.57-0.2,0.69c-0.14,0.12-0.39,0.18-0.75,0.18h-2.85
					c-0.37,0-0.62-0.06-0.76-0.18c-0.13-0.12-0.2-0.35-0.2-0.69V29.6c0-0.35,0.07-0.58,0.2-0.7c0.13-0.12,0.39-0.17,0.76-0.17h2.85
					C16.77,28.73,17.02,28.79,17.15,28.9z M16.45,29.41h-2.96v2.3h2.96V29.41z M25.85,32.41h0.9v-3.68h-0.9V32.41z M31.33,30.91
					l-1.8-2.18h-0.72v3.68h0.72v-2.47l1.66,2.03h0.17l1.64-2.09v2.53h0.84v-3.68h-0.72L31.33,30.91z M39.85,28.73
					c0.37,0,0.62,0.06,0.76,0.17c0.13,0.12,0.2,0.35,0.2,0.7v1.94c0,0.34-0.07,0.57-0.2,0.69c-0.14,0.12-0.39,0.18-0.75,0.18H37
					c-0.37,0-0.62-0.06-0.76-0.18c-0.13-0.12-0.2-0.35-0.2-0.69V29.6c0-0.35,0.07-0.58,0.2-0.7c0.13-0.12,0.39-0.17,0.76-0.17H39.85
					z M39.91,29.41h-2.96v2.3h2.96V29.41z M44.97,32.41v-3.02h1.78v-0.66H42.3v0.66h1.77v3.02H44.97z M22.63,31.02
					c0.57,0,0.86-0.23,0.86-0.7v-0.87c0-0.48-0.29-0.71-0.86-0.71h-3.31v3.68h0.89v-3.04h2.04c0.27,0,0.41,0.1,0.41,0.3v0.43
					c0,0.2-0.14,0.3-0.41,0.3h-1.66v0.21l2,1.81h1.29l-1.75-1.39H22.63z M46.1,28.16c-2.05-0.89-4.46-1.95-6.03-2.63h-6.26
					c2.35,0.67,5.98,1.71,9.18,2.63H46.1z M54.27,29.12c1.3-0.56,3.11-1.35,4.36-1.9v1.2c-1.25,0.36-3.05,0.88-4.32,1.24v0.64
					c1.26-0.09,3.06-0.21,4.32-0.3v1.12c-1.25-0.09-3.06-0.21-4.32-0.3v0.64c1.27,0.37,3.07,0.88,4.32,1.24v1.2
					c-1.25-0.55-3.07-1.34-4.36-1.9c-0.04,0.21-0.12,0.39-0.23,0.53c1.19,0.75,2.85,1.79,4.13,2.59c-0.24,0.21-0.55,0.34-0.9,0.34
					H56.6c-0.86-0.73-2.1-1.79-3.03-2.58c-0.18,0.07-0.4,0.12-0.66,0.13c0.63,0.75,1.47,1.74,2.06,2.45h-1.21
					c-0.43-0.71-1.03-1.71-1.47-2.44h-0.74c0.11,0.72,0.26,1.73,0.37,2.44h-1.28c0.11-0.71,0.26-1.73,0.37-2.44h-0.74
					c-0.44,0.73-1.04,1.73-1.47,2.44h-1.21c0.59-0.7,1.43-1.7,2.06-2.45c-0.26-0.01-0.47-0.06-0.65-0.14
					c-0.93,0.79-2.18,1.85-3.04,2.59h-2.1c1.32-0.83,3.32-2.08,4.68-2.94c-0.11-0.14-0.18-0.32-0.22-0.53
					c-2.06,0.9-5.71,2.49-7.96,3.47h-6.09c2.48-0.71,6.1-1.75,9.21-2.64v0.15h2.04v-0.73c1.08-0.31,2.03-0.58,2.75-0.79v-1.78
					C48,29.6,47.68,29.5,47.32,29.4v-0.01v-0.7c0.37,0.16,0.71,0.31,1.01,0.44c0.04-0.21,0.11-0.39,0.22-0.53
					c-1.44-0.91-3.59-2.25-4.89-3.07h2.16c0.86,0.73,2.2,1.87,3.19,2.71c0.18-0.08,0.39-0.12,0.66-0.14
					c-0.67-0.8-1.58-1.87-2.17-2.57h1.24c0.42,0.71,1.07,1.79,1.54,2.57h0.74c-0.11-0.76-0.28-1.85-0.39-2.57h1.32
					c-0.11,0.71-0.27,1.8-0.39,2.57h0.74c0.47-0.78,1.12-1.86,1.54-2.57h1.24c-0.59,0.7-1.5,1.77-2.17,2.57
					c0.26,0.01,0.48,0.06,0.66,0.13c0.99-0.84,2.32-1.98,3.18-2.7h0.5c0.39,0,0.74,0.16,0.99,0.42c-1.28,0.81-2.98,1.87-4.2,2.64
					C54.15,28.73,54.23,28.91,54.27,29.12z M53.69,29.59c0-0.08,0-0.14-0.01-0.21c-0.02-0.21-0.08-0.36-0.17-0.46
					c-0.01-0.01-0.01-0.02-0.02-0.03c-0.1-0.09-0.26-0.14-0.5-0.16c-0.08-0.01-0.17-0.01-0.26-0.01h-2.85
					c-0.11,0-0.2,0.01-0.29,0.02c-0.22,0.02-0.37,0.08-0.47,0.16c-0.01,0.01-0.02,0.03-0.03,0.04c-0.08,0.1-0.14,0.25-0.16,0.46
					c-0.01,0.06-0.01,0.13-0.01,0.2v1.94c0,0.08,0,0.14,0.01,0.21c0.02,0.21,0.08,0.36,0.16,0.45c0.01,0.01,0.01,0.02,0.02,0.03
					c0.1,0.09,0.26,0.14,0.48,0.16c0.08,0.01,0.17,0.01,0.28,0.01h2.85c0.09,0,0.17,0,0.25-0.01c0.23-0.02,0.4-0.08,0.51-0.17
					c0.01-0.01,0.01-0.01,0.02-0.02c0.09-0.09,0.15-0.24,0.18-0.45c0.01-0.07,0.01-0.14,0.01-0.22V29.59z M49.82,29.4L49.82,29.4
					L49.82,29.4v0.38v1.57v0.35v0h0.06h2.8h0.09v0v-0.33v-1.59V29.4v0h-0.03H49.82z M60,26.9v7.21c0,1.51-1.23,2.74-2.74,2.74H3.24
					c-1.51,0-2.74-1.23-2.74-2.74V26.9c0-1.51,1.23-2.74,2.74-2.74h54.03C58.77,24.16,60,25.39,60,26.9z M59.32,26.9
					c0-1.13-0.92-2.05-2.05-2.05H3.24c-1.13,0-2.05,0.92-2.05,2.05v7.21c0,1.13,0.92,2.05,2.05,2.05h54.03
					c1.13,0,2.05-0.92,2.05-2.05V26.9z"/>
			</defs>
			<clipPath id="SVGID_6_">
				<use xlink:href="#SVGID_5_"  style="overflow:visible;"/>
			</clipPath>
		</g>
	</g>
	<g>
		<g>
			<defs>
				<path id="SVGID_7_" d="M8.96,27.63h0.92v4.71H8.82V29.1l-2.1,2.67H6.49l-2.13-2.59v3.16H3.44v-4.71h0.92l2.3,2.79L8.96,27.63z
					 M16.65,28.4c0.13,0.12,0.2,0.35,0.2,0.7v1.94c0,0.34-0.07,0.57-0.2,0.69c-0.14,0.12-0.39,0.18-0.75,0.18h-2.85
					c-0.37,0-0.62-0.06-0.76-0.18c-0.13-0.12-0.2-0.35-0.2-0.69V29.1c0-0.35,0.07-0.58,0.2-0.7c0.13-0.12,0.39-0.17,0.76-0.17h2.85
					C16.27,28.23,16.52,28.29,16.65,28.4z M15.95,28.91h-2.96v2.3h2.96V28.91z M25.35,31.91h0.9v-3.68h-0.9V31.91z M30.83,30.41
					l-1.8-2.18h-0.72v3.68h0.72v-2.47l1.66,2.03h0.17l1.64-2.09v2.53h0.84v-3.68h-0.72L30.83,30.41z M39.35,28.23
					c0.37,0,0.62,0.06,0.76,0.17c0.13,0.12,0.2,0.35,0.2,0.7v1.94c0,0.34-0.07,0.57-0.2,0.69c-0.14,0.12-0.39,0.18-0.75,0.18H36.5
					c-0.37,0-0.62-0.06-0.76-0.18c-0.13-0.12-0.2-0.35-0.2-0.69V29.1c0-0.35,0.07-0.58,0.2-0.7c0.13-0.12,0.39-0.17,0.76-0.17H39.35
					z M39.41,28.91h-2.96v2.3h2.96V28.91z M44.47,31.91v-3.02h1.78v-0.66H41.8v0.66h1.77v3.02H44.47z M22.13,30.52
					c0.57,0,0.86-0.23,0.86-0.7v-0.87c0-0.48-0.29-0.71-0.86-0.71h-3.31v3.68h0.89v-3.04h2.04c0.27,0,0.41,0.1,0.41,0.3v0.43
					c0,0.2-0.14,0.3-0.41,0.3h-1.66v0.21l2,1.81h1.29l-1.75-1.39H22.13z M45.6,27.66c-2.05-0.89-4.46-1.95-6.03-2.63h-6.26
					c2.35,0.67,5.98,1.71,9.18,2.63H45.6z M53.77,28.62c1.3-0.56,3.11-1.35,4.36-1.9v1.2c-1.25,0.36-3.05,0.88-4.32,1.24v0.64
					c1.26-0.09,3.06-0.21,4.32-0.3v1.12c-1.25-0.09-3.06-0.21-4.32-0.3v0.64c1.27,0.37,3.07,0.88,4.32,1.24v1.2
					c-1.25-0.55-3.07-1.34-4.36-1.9c-0.04,0.21-0.12,0.39-0.23,0.53c1.19,0.75,2.85,1.79,4.13,2.59c-0.24,0.21-0.55,0.34-0.9,0.34
					H56.1c-0.86-0.73-2.1-1.79-3.03-2.58c-0.18,0.07-0.4,0.12-0.66,0.13c0.63,0.75,1.47,1.74,2.06,2.45h-1.21
					c-0.43-0.71-1.03-1.71-1.47-2.44h-0.74c0.11,0.72,0.26,1.73,0.37,2.44h-1.28c0.11-0.71,0.26-1.73,0.37-2.44h-0.74
					c-0.44,0.73-1.04,1.73-1.47,2.44h-1.21c0.59-0.7,1.43-1.7,2.06-2.45c-0.26-0.01-0.47-0.06-0.65-0.14
					c-0.93,0.79-2.18,1.85-3.04,2.59h-2.1c1.32-0.83,3.32-2.08,4.68-2.94c-0.11-0.14-0.18-0.32-0.22-0.53
					c-2.06,0.9-5.71,2.49-7.96,3.47h-6.09c2.48-0.71,6.1-1.75,9.21-2.64v0.15h2.04v-0.73c1.08-0.31,2.03-0.58,2.75-0.79v-1.78
					C47.5,29.1,47.18,29,46.82,28.9v-0.01v-0.7c0.37,0.16,0.71,0.31,1.01,0.44c0.04-0.21,0.11-0.39,0.22-0.53
					c-1.44-0.91-3.59-2.25-4.89-3.07h2.16c0.86,0.73,2.2,1.87,3.19,2.71c0.18-0.08,0.39-0.12,0.66-0.14
					c-0.67-0.8-1.58-1.87-2.17-2.57h1.24c0.42,0.71,1.07,1.79,1.54,2.57h0.74c-0.11-0.76-0.28-1.85-0.39-2.57h1.32
					c-0.11,0.71-0.27,1.8-0.39,2.57h0.74c0.47-0.78,1.12-1.86,1.54-2.57h1.24c-0.59,0.7-1.5,1.77-2.17,2.57
					c0.26,0.01,0.48,0.06,0.66,0.13c0.99-0.84,2.32-1.98,3.18-2.7h0.5c0.39,0,0.74,0.16,0.99,0.42c-1.28,0.81-2.98,1.87-4.2,2.64
					C53.65,28.23,53.73,28.41,53.77,28.62z M53.19,29.09c0-0.08,0-0.14-0.01-0.21c-0.02-0.21-0.08-0.36-0.17-0.46
					C53,28.42,53,28.4,52.99,28.4c-0.1-0.09-0.26-0.14-0.5-0.16c-0.08-0.01-0.17-0.01-0.26-0.01h-2.85c-0.11,0-0.2,0.01-0.29,0.02
					c-0.22,0.02-0.37,0.08-0.47,0.16c-0.01,0.01-0.02,0.03-0.03,0.04c-0.08,0.1-0.14,0.25-0.16,0.46c-0.01,0.06-0.01,0.13-0.01,0.2
					v1.94c0,0.08,0,0.14,0.01,0.21c0.02,0.21,0.08,0.36,0.16,0.45c0.01,0.01,0.01,0.02,0.02,0.03c0.1,0.09,0.26,0.14,0.48,0.16
					c0.08,0.01,0.17,0.01,0.28,0.01h2.85c0.09,0,0.17,0,0.25-0.01c0.23-0.02,0.4-0.08,0.51-0.17c0.01-0.01,0.01-0.01,0.02-0.02
					c0.09-0.09,0.15-0.24,0.18-0.45c0.01-0.07,0.01-0.14,0.01-0.22V29.09z M49.32,28.9L49.32,28.9L49.32,28.9v0.38v1.57v0.35v0h0.06
					h2.8h0.09v0v-0.33v-1.59V28.9v0h-0.03H49.32z M59.5,26.4v7.21c0,1.51-1.23,2.74-2.74,2.74H2.74C1.23,36.34,0,35.11,0,33.6V26.4
					c0-1.51,1.23-2.74,2.74-2.74h54.03C58.27,23.66,59.5,24.89,59.5,26.4z M58.82,26.4c0-1.13-0.92-2.05-2.05-2.05H2.74
					c-1.13,0-2.05,0.92-2.05,2.05v7.21c0,1.13,0.92,2.05,2.05,2.05h54.03c1.13,0,2.05-0.92,2.05-2.05V26.4z"/>
			</defs>
			<clipPath id="SVGID_8_">
				<use xlink:href="#SVGID_7_"  style="overflow:visible;"/>
			</clipPath>
		</g>
		<g>
			<defs>
				<path id="SVGID_9_" d="M8.96,27.63h0.92v4.71H8.82V29.1l-2.1,2.67H6.49l-2.13-2.59v3.16H3.44v-4.71h0.92l2.3,2.79L8.96,27.63z
					 M16.65,28.4c0.13,0.12,0.2,0.35,0.2,0.7v1.94c0,0.34-0.07,0.57-0.2,0.69c-0.14,0.12-0.39,0.18-0.75,0.18h-2.85
					c-0.37,0-0.62-0.06-0.76-0.18c-0.13-0.12-0.2-0.35-0.2-0.69V29.1c0-0.35,0.07-0.58,0.2-0.7c0.13-0.12,0.39-0.17,0.76-0.17h2.85
					C16.27,28.23,16.52,28.29,16.65,28.4z M15.95,28.91h-2.96v2.3h2.96V28.91z M25.35,31.91h0.9v-3.68h-0.9V31.91z M30.83,30.41
					l-1.8-2.18h-0.72v3.68h0.72v-2.47l1.66,2.03h0.17l1.64-2.09v2.53h0.84v-3.68h-0.72L30.83,30.41z M39.35,28.23
					c0.37,0,0.62,0.06,0.76,0.17c0.13,0.12,0.2,0.35,0.2,0.7v1.94c0,0.34-0.07,0.57-0.2,0.69c-0.14,0.12-0.39,0.18-0.75,0.18H36.5
					c-0.37,0-0.62-0.06-0.76-0.18c-0.13-0.12-0.2-0.35-0.2-0.69V29.1c0-0.35,0.07-0.58,0.2-0.7c0.13-0.12,0.39-0.17,0.76-0.17H39.35
					z M39.41,28.91h-2.96v2.3h2.96V28.91z M44.47,31.91v-3.02h1.78v-0.66H41.8v0.66h1.77v3.02H44.47z M22.13,30.52
					c0.57,0,0.86-0.23,0.86-0.7v-0.87c0-0.48-0.29-0.71-0.86-0.71h-3.31v3.68h0.89v-3.04h2.04c0.27,0,0.41,0.1,0.41,0.3v0.43
					c0,0.2-0.14,0.3-0.41,0.3h-1.66v0.21l2,1.81h1.29l-1.75-1.39H22.13z M45.6,27.66c-2.05-0.89-4.46-1.95-6.03-2.63h-6.26
					c2.35,0.67,5.98,1.71,9.18,2.63H45.6z M53.77,28.62c1.3-0.56,3.11-1.35,4.36-1.9v1.2c-1.25,0.36-3.05,0.88-4.32,1.24v0.64
					c1.26-0.09,3.06-0.21,4.32-0.3v1.12c-1.25-0.09-3.06-0.21-4.32-0.3v0.64c1.27,0.37,3.07,0.88,4.32,1.24v1.2
					c-1.25-0.55-3.07-1.34-4.36-1.9c-0.04,0.21-0.12,0.39-0.23,0.53c1.19,0.75,2.85,1.79,4.13,2.59c-0.24,0.21-0.55,0.34-0.9,0.34
					H56.1c-0.86-0.73-2.1-1.79-3.03-2.58c-0.18,0.07-0.4,0.12-0.66,0.13c0.63,0.75,1.47,1.74,2.06,2.45h-1.21
					c-0.43-0.71-1.03-1.71-1.47-2.44h-0.74c0.11,0.72,0.26,1.73,0.37,2.44h-1.28c0.11-0.71,0.26-1.73,0.37-2.44h-0.74
					c-0.44,0.73-1.04,1.73-1.47,2.44h-1.21c0.59-0.7,1.43-1.7,2.06-2.45c-0.26-0.01-0.47-0.06-0.65-0.14
					c-0.93,0.79-2.18,1.85-3.04,2.59h-2.1c1.32-0.83,3.32-2.08,4.68-2.94c-0.11-0.14-0.18-0.32-0.22-0.53
					c-2.06,0.9-5.71,2.49-7.96,3.47h-6.09c2.48-0.71,6.1-1.75,9.21-2.64v0.15h2.04v-0.73c1.08-0.31,2.03-0.58,2.75-0.79v-1.78
					C47.5,29.1,47.18,29,46.82,28.9v-0.01v-0.7c0.37,0.16,0.71,0.31,1.01,0.44c0.04-0.21,0.11-0.39,0.22-0.53
					c-1.44-0.91-3.59-2.25-4.89-3.07h2.16c0.86,0.73,2.2,1.87,3.19,2.71c0.18-0.08,0.39-0.12,0.66-0.14
					c-0.67-0.8-1.58-1.87-2.17-2.57h1.24c0.42,0.71,1.07,1.79,1.54,2.57h0.74c-0.11-0.76-0.28-1.85-0.39-2.57h1.32
					c-0.11,0.71-0.27,1.8-0.39,2.57h0.74c0.47-0.78,1.12-1.86,1.54-2.57h1.24c-0.59,0.7-1.5,1.77-2.17,2.57
					c0.26,0.01,0.48,0.06,0.66,0.13c0.99-0.84,2.32-1.98,3.18-2.7h0.5c0.39,0,0.74,0.16,0.99,0.42c-1.28,0.81-2.98,1.87-4.2,2.64
					C53.65,28.23,53.73,28.41,53.77,28.62z M53.19,29.09c0-0.08,0-0.14-0.01-0.21c-0.02-0.21-0.08-0.36-0.17-0.46
					C53,28.42,53,28.4,52.99,28.4c-0.1-0.09-0.26-0.14-0.5-0.16c-0.08-0.01-0.17-0.01-0.26-0.01h-2.85c-0.11,0-0.2,0.01-0.29,0.02
					c-0.22,0.02-0.37,0.08-0.47,0.16c-0.01,0.01-0.02,0.03-0.03,0.04c-0.08,0.1-0.14,0.25-0.16,0.46c-0.01,0.06-0.01,0.13-0.01,0.2
					v1.94c0,0.08,0,0.14,0.01,0.21c0.02,0.21,0.08,0.36,0.16,0.45c0.01,0.01,0.01,0.02,0.02,0.03c0.1,0.09,0.26,0.14,0.48,0.16
					c0.08,0.01,0.17,0.01,0.28,0.01h2.85c0.09,0,0.17,0,0.25-0.01c0.23-0.02,0.4-0.08,0.51-0.17c0.01-0.01,0.01-0.01,0.02-0.02
					c0.09-0.09,0.15-0.24,0.18-0.45c0.01-0.07,0.01-0.14,0.01-0.22V29.09z M49.32,28.9L49.32,28.9L49.32,28.9v0.38v1.57v0.35v0h0.06
					h2.8h0.09v0v-0.33v-1.59V28.9v0h-0.03H49.32z M59.5,26.4v7.21c0,1.51-1.23,2.74-2.74,2.74H2.74C1.23,36.34,0,35.11,0,33.6V26.4
					c0-1.51,1.23-2.74,2.74-2.74h54.03C58.27,23.66,59.5,24.89,59.5,26.4z M58.82,26.4c0-1.13-0.92-2.05-2.05-2.05H2.74
					c-1.13,0-2.05,0.92-2.05,2.05v7.21c0,1.13,0.92,2.05,2.05,2.05h54.03c1.13,0,2.05-0.92,2.05-2.05V26.4z"/>
			</defs>
			<use xlink:href="#SVGID_9_"  style="overflow:visible;fill:#111111;"/>
			<clipPath id="SVGID_10_">
				<use xlink:href="#SVGID_9_"  style="overflow:visible;"/>
			</clipPath>
			<path class="st1" d="M9.46,28.13h0.92v4.71H9.32V29.6l-2.1,2.67H6.99l-2.13-2.59v3.16H3.94v-4.71h0.92l2.3,2.79L9.46,28.13z
				 M17.15,28.9c0.13,0.12,0.2,0.35,0.2,0.7v1.94c0,0.34-0.07,0.57-0.2,0.69c-0.14,0.12-0.39,0.18-0.75,0.18h-2.85
				c-0.37,0-0.62-0.06-0.76-0.18c-0.13-0.12-0.2-0.35-0.2-0.69V29.6c0-0.35,0.07-0.58,0.2-0.7c0.13-0.12,0.39-0.17,0.76-0.17h2.85
				C16.77,28.73,17.02,28.79,17.15,28.9z M16.45,29.41h-2.96v2.3h2.96V29.41z M25.85,32.41h0.9v-3.68h-0.9V32.41z M31.33,30.91
				l-1.8-2.18h-0.72v3.68h0.72v-2.47l1.66,2.03h0.17l1.64-2.09v2.53h0.84v-3.68h-0.72L31.33,30.91z M39.85,28.73
				c0.37,0,0.62,0.06,0.76,0.17c0.13,0.12,0.2,0.35,0.2,0.7v1.94c0,0.34-0.07,0.57-0.2,0.69c-0.14,0.12-0.39,0.18-0.75,0.18H37
				c-0.37,0-0.62-0.06-0.76-0.18c-0.13-0.12-0.2-0.35-0.2-0.69V29.6c0-0.35,0.07-0.58,0.2-0.7c0.13-0.12,0.39-0.17,0.76-0.17H39.85z
				 M39.91,29.41h-2.96v2.3h2.96V29.41z M44.97,32.41v-3.02h1.78v-0.66H42.3v0.66h1.77v3.02H44.97z M22.63,31.02
				c0.57,0,0.86-0.23,0.86-0.7v-0.87c0-0.48-0.29-0.71-0.86-0.71h-3.31v3.68h0.89v-3.04h2.04c0.27,0,0.41,0.1,0.41,0.3v0.43
				c0,0.2-0.14,0.3-0.41,0.3h-1.66v0.21l2,1.81h1.29l-1.75-1.39H22.63z M46.1,28.16c-2.05-0.89-4.46-1.95-6.03-2.63h-6.26
				c2.35,0.67,5.98,1.71,9.18,2.63H46.1z M54.27,29.12c1.3-0.56,3.11-1.35,4.36-1.9v1.2c-1.25,0.36-3.05,0.88-4.32,1.24v0.64
				c1.26-0.09,3.06-0.21,4.32-0.3v1.12c-1.25-0.09-3.06-0.21-4.32-0.3v0.64c1.27,0.37,3.07,0.88,4.32,1.24v1.2
				c-1.25-0.55-3.07-1.34-4.36-1.9c-0.04,0.21-0.12,0.39-0.23,0.53c1.19,0.75,2.85,1.79,4.13,2.59c-0.24,0.21-0.55,0.34-0.9,0.34
				H56.6c-0.86-0.73-2.1-1.79-3.03-2.58c-0.18,0.07-0.4,0.12-0.66,0.13c0.63,0.75,1.47,1.74,2.06,2.45h-1.21
				c-0.43-0.71-1.03-1.71-1.47-2.44h-0.74c0.11,0.72,0.26,1.73,0.37,2.44h-1.28c0.11-0.71,0.26-1.73,0.37-2.44h-0.74
				c-0.44,0.73-1.04,1.73-1.47,2.44h-1.21c0.59-0.7,1.43-1.7,2.06-2.45c-0.26-0.01-0.47-0.06-0.65-0.14
				c-0.93,0.79-2.18,1.85-3.04,2.59h-2.1c1.32-0.83,3.32-2.08,4.68-2.94c-0.11-0.14-0.18-0.32-0.22-0.53
				c-2.06,0.9-5.71,2.49-7.96,3.47h-6.09c2.48-0.71,6.1-1.75,9.21-2.64v0.15h2.04v-0.73c1.08-0.31,2.03-0.58,2.75-0.79v-1.78
				C48,29.6,47.68,29.5,47.32,29.4v-0.01v-0.7c0.37,0.16,0.71,0.31,1.01,0.44c0.04-0.21,0.11-0.39,0.22-0.53
				c-1.44-0.91-3.59-2.25-4.89-3.07h2.16c0.86,0.73,2.2,1.87,3.19,2.71c0.18-0.08,0.39-0.12,0.66-0.14
				c-0.67-0.8-1.58-1.87-2.17-2.57h1.24c0.42,0.71,1.07,1.79,1.54,2.57h0.74c-0.11-0.76-0.28-1.85-0.39-2.57h1.32
				c-0.11,0.71-0.27,1.8-0.39,2.57h0.74c0.47-0.78,1.12-1.86,1.54-2.57h1.24c-0.59,0.7-1.5,1.77-2.17,2.57
				c0.26,0.01,0.48,0.06,0.66,0.13c0.99-0.84,2.32-1.98,3.18-2.7h0.5c0.39,0,0.74,0.16,0.99,0.42c-1.28,0.81-2.98,1.87-4.2,2.64
				C54.15,28.73,54.23,28.91,54.27,29.12z M53.69,29.59c0-0.08,0-0.14-0.01-0.21c-0.02-0.21-0.08-0.36-0.17-0.46
				c-0.01-0.01-0.01-0.02-0.02-0.03c-0.1-0.09-0.26-0.14-0.5-0.16c-0.08-0.01-0.17-0.01-0.26-0.01h-2.85c-0.11,0-0.2,0.01-0.29,0.02
				c-0.22,0.02-0.37,0.08-0.47,0.16c-0.01,0.01-0.02,0.03-0.03,0.04c-0.08,0.1-0.14,0.25-0.16,0.46c-0.01,0.06-0.01,0.13-0.01,0.2
				v1.94c0,0.08,0,0.14,0.01,0.21c0.02,0.21,0.08,0.36,0.16,0.45c0.01,0.01,0.01,0.02,0.02,0.03c0.1,0.09,0.26,0.14,0.48,0.16
				c0.08,0.01,0.17,0.01,0.28,0.01h2.85c0.09,0,0.17,0,0.25-0.01c0.23-0.02,0.4-0.08,0.51-0.17c0.01-0.01,0.01-0.01,0.02-0.02
				c0.09-0.09,0.15-0.24,0.18-0.45c0.01-0.07,0.01-0.14,0.01-0.22V29.59z M49.82,29.4L49.82,29.4L49.82,29.4v0.38v1.57v0.35v0h0.06
				h2.8h0.09v0v-0.33v-1.59V29.4v0h-0.03H49.82z M60,26.9v7.21c0,1.51-1.23,2.74-2.74,2.74H3.24c-1.51,0-2.74-1.23-2.74-2.74V26.9
				c0-1.51,1.23-2.74,2.74-2.74h54.03C58.77,24.16,60,25.39,60,26.9z M59.32,26.9c0-1.13-0.92-2.05-2.05-2.05H3.24
				c-1.13,0-2.05,0.92-2.05,2.05v7.21c0,1.13,0.92,2.05,2.05,2.05h54.03c1.13,0,2.05-0.92,2.05-2.05V26.9z"/>
		</g>
		<g>
			<defs>
				<path id="SVGID_11_" d="M8.96,27.63h0.92v4.71H8.82V29.1l-2.1,2.67H6.49l-2.13-2.59v3.16H3.44v-4.71h0.92l2.3,2.79L8.96,27.63z
					 M16.65,28.4c0.13,0.12,0.2,0.35,0.2,0.7v1.94c0,0.34-0.07,0.57-0.2,0.69c-0.14,0.12-0.39,0.18-0.75,0.18h-2.85
					c-0.37,0-0.62-0.06-0.76-0.18c-0.13-0.12-0.2-0.35-0.2-0.69V29.1c0-0.35,0.07-0.58,0.2-0.7c0.13-0.12,0.39-0.17,0.76-0.17h2.85
					C16.27,28.23,16.52,28.29,16.65,28.4z M15.95,28.91h-2.96v2.3h2.96V28.91z M25.35,31.91h0.9v-3.68h-0.9V31.91z M30.83,30.41
					l-1.8-2.18h-0.72v3.68h0.72v-2.47l1.66,2.03h0.17l1.64-2.09v2.53h0.84v-3.68h-0.72L30.83,30.41z M39.35,28.23
					c0.37,0,0.62,0.06,0.76,0.17c0.13,0.12,0.2,0.35,0.2,0.7v1.94c0,0.34-0.07,0.57-0.2,0.69c-0.14,0.12-0.39,0.18-0.75,0.18H36.5
					c-0.37,0-0.62-0.06-0.76-0.18c-0.13-0.12-0.2-0.35-0.2-0.69V29.1c0-0.35,0.07-0.58,0.2-0.7c0.13-0.12,0.39-0.17,0.76-0.17H39.35
					z M39.41,28.91h-2.96v2.3h2.96V28.91z M44.47,31.91v-3.02h1.78v-0.66H41.8v0.66h1.77v3.02H44.47z M22.13,30.52
					c0.57,0,0.86-0.23,0.86-0.7v-0.87c0-0.48-0.29-0.71-0.86-0.71h-3.31v3.68h0.89v-3.04h2.04c0.27,0,0.41,0.1,0.41,0.3v0.43
					c0,0.2-0.14,0.3-0.41,0.3h-1.66v0.21l2,1.81h1.29l-1.75-1.39H22.13z M45.6,27.66c-2.05-0.89-4.46-1.95-6.03-2.63h-6.26
					c2.35,0.67,5.98,1.71,9.18,2.63H45.6z M53.77,28.62c1.3-0.56,3.11-1.35,4.36-1.9v1.2c-1.25,0.36-3.05,0.88-4.32,1.24v0.64
					c1.26-0.09,3.06-0.21,4.32-0.3v1.12c-1.25-0.09-3.06-0.21-4.32-0.3v0.64c1.27,0.37,3.07,0.88,4.32,1.24v1.2
					c-1.25-0.55-3.07-1.34-4.36-1.9c-0.04,0.21-0.12,0.39-0.23,0.53c1.19,0.75,2.85,1.79,4.13,2.59c-0.24,0.21-0.55,0.34-0.9,0.34
					H56.1c-0.86-0.73-2.1-1.79-3.03-2.58c-0.18,0.07-0.4,0.12-0.66,0.13c0.63,0.75,1.47,1.74,2.06,2.45h-1.21
					c-0.43-0.71-1.03-1.71-1.47-2.44h-0.74c0.11,0.72,0.26,1.73,0.37,2.44h-1.28c0.11-0.71,0.26-1.73,0.37-2.44h-0.74
					c-0.44,0.73-1.04,1.73-1.47,2.44h-1.21c0.59-0.7,1.43-1.7,2.06-2.45c-0.26-0.01-0.47-0.06-0.65-0.14
					c-0.93,0.79-2.18,1.85-3.04,2.59h-2.1c1.32-0.83,3.32-2.08,4.68-2.94c-0.11-0.14-0.18-0.32-0.22-0.53
					c-2.06,0.9-5.71,2.49-7.96,3.47h-6.09c2.48-0.71,6.1-1.75,9.21-2.64v0.15h2.04v-0.73c1.08-0.31,2.03-0.58,2.75-0.79v-1.78
					C47.5,29.1,47.18,29,46.82,28.9v-0.01v-0.7c0.37,0.16,0.71,0.31,1.01,0.44c0.04-0.21,0.11-0.39,0.22-0.53
					c-1.44-0.91-3.59-2.25-4.89-3.07h2.16c0.86,0.73,2.2,1.87,3.19,2.71c0.18-0.08,0.39-0.12,0.66-0.14
					c-0.67-0.8-1.58-1.87-2.17-2.57h1.24c0.42,0.71,1.07,1.79,1.54,2.57h0.74c-0.11-0.76-0.28-1.85-0.39-2.57h1.32
					c-0.11,0.71-0.27,1.8-0.39,2.57h0.74c0.47-0.78,1.12-1.86,1.54-2.57h1.24c-0.59,0.7-1.5,1.77-2.17,2.57
					c0.26,0.01,0.48,0.06,0.66,0.13c0.99-0.84,2.32-1.98,3.18-2.7h0.5c0.39,0,0.74,0.16,0.99,0.42c-1.28,0.81-2.98,1.87-4.2,2.64
					C53.65,28.23,53.73,28.41,53.77,28.62z M53.19,29.09c0-0.08,0-0.14-0.01-0.21c-0.02-0.21-0.08-0.36-0.17-0.46
					C53,28.42,53,28.4,52.99,28.4c-0.1-0.09-0.26-0.14-0.5-0.16c-0.08-0.01-0.17-0.01-0.26-0.01h-2.85c-0.11,0-0.2,0.01-0.29,0.02
					c-0.22,0.02-0.37,0.08-0.47,0.16c-0.01,0.01-0.02,0.03-0.03,0.04c-0.08,0.1-0.14,0.25-0.16,0.46c-0.01,0.06-0.01,0.13-0.01,0.2
					v1.94c0,0.08,0,0.14,0.01,0.21c0.02,0.21,0.08,0.36,0.16,0.45c0.01,0.01,0.01,0.02,0.02,0.03c0.1,0.09,0.26,0.14,0.48,0.16
					c0.08,0.01,0.17,0.01,0.28,0.01h2.85c0.09,0,0.17,0,0.25-0.01c0.23-0.02,0.4-0.08,0.51-0.17c0.01-0.01,0.01-0.01,0.02-0.02
					c0.09-0.09,0.15-0.24,0.18-0.45c0.01-0.07,0.01-0.14,0.01-0.22V29.09z M49.32,28.9L49.32,28.9L49.32,28.9v0.38v1.57v0.35v0h0.06
					h2.8h0.09v0v-0.33v-1.59V28.9v0h-0.03H49.32z M59.5,26.4v7.21c0,1.51-1.23,2.74-2.74,2.74H2.74C1.23,36.34,0,35.11,0,33.6V26.4
					c0-1.51,1.23-2.74,2.74-2.74h54.03C58.27,23.66,59.5,24.89,59.5,26.4z M58.82,26.4c0-1.13-0.92-2.05-2.05-2.05H2.74
					c-1.13,0-2.05,0.92-2.05,2.05v7.21c0,1.13,0.92,2.05,2.05,2.05h54.03c1.13,0,2.05-0.92,2.05-2.05V26.4z"/>
			</defs>
			<clipPath id="SVGID_12_">
				<use xlink:href="#SVGID_11_"  style="overflow:visible;"/>
			</clipPath>
		</g>
	</g>
</g>
</svg>
