<?xml version="1.0" encoding="utf-8"?>
<!-- Generator: Adobe Illustrator 21.1.0, SVG Export Plug-In . SVG Version: 6.00 Build 0)  -->
<svg version="1.1" id="BRAND_-_Speaker" xmlns="http://www.w3.org/2000/svg" xmlns:xlink="http://www.w3.org/1999/xlink" x="0px"
	 y="0px" viewBox="0 0 60 50" style="enable-background:new 0 0 60 50;" xml:space="preserve">
<style type="text/css">
	.st0{fill:#EC1C24;}
	.st1{fill:#E2231A;}
</style>
<g>
	<path class="st0" d="M51.8,30.5l8.2-4.7l-12.2-6.3c4.6,3.2,5.8,5.1,5.8,7C53.5,28,52.7,29.2,51.8,30.5z"/>
	<g>
		<path class="st1" d="M0,27.5l0.3-0.9h1c0.2,0,0.4,0,0.5-0.1S2,26.3,2,26.1l0.7-2.6h1.1L3,26.2c-0.1,0.3-0.2,0.5-0.3,0.6
			c-0.1,0.2-0.2,0.3-0.4,0.4c-0.1,0.1-0.3,0.2-0.5,0.2S1.3,27.5,1,27.5H0z"/>
		<path class="st1" d="M3.6,27.5c-0.1,0-0.2,0-0.2,0l-0.1-0.1v-0.1l0.1-0.4c0-0.1,0.1-0.2,0.1-0.2c0.1,0,0.2-0.1,0.3-0.1h0.3
			c0.1,0,0.2,0,0.2,0l0.1,0.1l0,0l0,0l-0.1,0.4c0,0.1-0.1,0.2-0.1,0.2c-0.1,0-0.1,0.1-0.3,0.1L3.6,27.5L3.6,27.5z"/>
		<path class="st1" d="M11.2,27.5c-0.1,0-0.2,0-0.2,0l-0.1-0.1v-0.1l0.1-0.4c0-0.1,0.1-0.2,0.1-0.2c0.1,0,0.2-0.1,0.3-0.1h0.3
			c0.1,0,0.2,0,0.2,0l0.1,0.1l0,0l0,0l0,0.6c0,0.1-0.1,0.2-0.1,0.2c-0.1,0-0.1,0.1-0.3,0.1L11.2,27.5L11.2,27.5z"/>
		<path class="st1" d="M8.4,24.9l-1.7,2.2c-0.1,0.1-0.2,0.3-0.4,0.3c-0.1,0.1-0.3,0.1-0.5,0.1s-0.3,0-0.4-0.1s-0.1-0.2-0.1-0.3
			l-0.5-3.6H6l0.3,2.6L8,23.8c0.1-0.2,0.2-0.3,0.4-0.3c0.1-0.1,0.3-0.1,0.4-0.1c0.2,0,0.3,0,0.4,0.1c0.1,0.1,0.1,0.2,0.2,0.3
			l0.4,2.3l1.8-2.6h1.3l-2.6,3.6c-0.1,0.1-0.2,0.2-0.3,0.3s-0.3,0.1-0.4,0.1c-0.2,0-0.3,0-0.4-0.1c-0.1-0.1-0.1-0.2-0.2-0.3
			L8.4,24.9z"/>
		<path class="st1" d="M13.5,27.5l0.3-0.9h3c0.2,0,0.4-0.1,0.4-0.3c0-0.1,0-0.1,0.1-0.2V26c0-0.1,0-0.1-0.1-0.1c0,0-0.1,0-0.2,0
			h-1.8c-0.4,0-0.7-0.1-0.8-0.2s-0.2-0.3-0.2-0.5c0-0.1,0-0.1,0-0.2s0.1-0.2,0.1-0.4c0.1-0.2,0.1-0.4,0.2-0.5
			c0.1-0.1,0.2-0.3,0.3-0.4s0.3-0.2,0.4-0.2c0.2,0,0.4-0.1,0.6-0.1h3l-0.3,0.9h-2.9c-0.1,0-0.2,0-0.3,0.1c-0.1,0-0.1,0.1-0.1,0.2
			s0,0.1,0,0.1s0,0,0,0.1s0,0.1,0,0.1s0.1,0,0.2,0h1.8c0.4,0,0.7,0.1,0.8,0.2c0.2,0.1,0.2,0.3,0.2,0.6c0,0,0,0,0,0.1v0.1
			c0,0,0,0.1,0,0.2s0,0.2-0.1,0.3c-0.1,0.2-0.1,0.4-0.2,0.5c-0.1,0.1-0.2,0.2-0.3,0.3c-0.1,0.1-0.3,0.1-0.4,0.2
			c-0.2,0-0.4,0.1-0.6,0.1H13.5z"/>
		<path class="st1" d="M19.8,26.4l-0.3,1.1h-1.1l1.1-4h3.3c0.2,0,0.5,0,0.6,0.1c0.2,0,0.3,0.1,0.4,0.2S24,24,24,24.1
			c0,0.1,0,0.2,0,0.4v0.1v0.1c0,0.1,0,0.1-0.1,0.2c0,0.1-0.1,0.2-0.1,0.3c-0.1,0.2-0.2,0.4-0.2,0.6c-0.1,0.2-0.2,0.3-0.4,0.4
			c-0.1,0.1-0.3,0.2-0.5,0.2s-0.5,0.1-0.8,0.1h-2.1V26.4z M22.8,25.1c0-0.1,0-0.1,0-0.2v-0.1v-0.1l0,0c0-0.1,0-0.2-0.1-0.2
			s-0.2,0-0.3,0h-2.1L20,25.6h2.1c0.2,0,0.3,0,0.4-0.1C22.7,25.4,22.8,25.3,22.8,25.1"/>
		<path class="st1" d="M25.3,27.5c-0.2,0-0.5,0-0.6-0.1c-0.2,0-0.3-0.1-0.4-0.2c-0.1-0.1-0.2-0.2-0.2-0.3c0-0.1,0-0.3,0-0.4v-0.1
			c0,0,0-0.1,0.1-0.3c0-0.1,0.1-0.3,0.1-0.5c0.1-0.2,0.1-0.5,0.2-0.9c0.1-0.3,0.2-0.5,0.3-0.6c0.1-0.2,0.2-0.3,0.4-0.4
			c0.2-0.1,0.3-0.2,0.5-0.2s0.5-0.1,0.8-0.1h2.8L29,24.3h-2.8c-0.2,0-0.3,0-0.4,0.1s-0.2,0.2-0.2,0.3l-0.1,0.2h3.3L28.6,26h-3.3
			c0,0.1-0.1,0.3-0.1,0.3c0,0.1,0,0.1,0,0.1c0,0.1,0,0.2,0.1,0.2s0.2,0,0.3,0h2.8l-0.3,0.9H25.3z"/>
		<path class="st1" d="M41.1,27.5c-0.2,0-0.5,0-0.6-0.1c-0.2,0-0.3-0.1-0.4-0.2c-0.1-0.1-0.2-0.2-0.2-0.3c0-0.1,0-0.3,0-0.4v-0.1
			c0,0,0-0.1,0.1-0.3c0-0.1,0.1-0.3,0.1-0.5c0.1-0.2,0.1-0.5,0.2-0.9c0.1-0.3,0.2-0.5,0.3-0.6c0.1-0.2,0.2-0.3,0.4-0.4
			s0.3-0.2,0.5-0.2s0.5-0.1,0.8-0.1H45l-0.3,0.9H42c-0.2,0-0.3,0-0.4,0.1c-0.1,0.1-0.2,0.2-0.2,0.3l-0.1,0.2h3.3L44.4,26h-3.3
			c0,0.1-0.1,0.3-0.1,0.3c0,0.1,0,0.1,0,0.1c0,0.1,0,0.2,0.1,0.2s0.2,0,0.3,0h2.8l-0.3,0.9H41.1z"/>
		<path class="st1" d="M33.5,27.5l-0.3-0.9h-2.5l-0.8,0.9h-1.3l3.3-3.6c0.1-0.1,0.3-0.3,0.4-0.3c0.1-0.1,0.3-0.1,0.6-0.1
			c0.1,0,0.2,0,0.3,0s0.1,0.1,0.2,0.1c0.1,0,0.1,0.1,0.1,0.1c0,0.1,0.1,0.1,0.1,0.2l1.2,3.6H33.5z M32.9,25.9
			c-0.1-0.2-0.1-0.3-0.2-0.4c0-0.1-0.1-0.3-0.1-0.4s-0.1-0.2-0.1-0.3c0-0.1,0-0.2-0.1-0.2c-0.1,0.1-0.1,0.2-0.2,0.2
			C32.1,24.9,32,25,32,25.1c-0.1,0.1-0.2,0.2-0.3,0.4c-0.1,0.1-0.3,0.3-0.4,0.4H32.9z"/>
		<polygon class="st1" points="38.1,27.5 36.7,25.6 36.2,27.5 35.1,27.5 36.2,23.5 37.3,23.5 36.8,25.4 39.1,23.5 40.6,23.5 
			38.1,25.5 39.5,27.5 		"/>
		<path class="st1" d="M47.8,27.5L46.1,26l-0.4,1.5h-1.1l1.1-4h3.2c0.2,0,0.5,0,0.6,0c0.2,0,0.3,0.1,0.4,0.1
			c0.1,0.1,0.2,0.2,0.2,0.3c0,0.1,0.1,0.2,0,0.4v0.1v0.1c0,0,0,0.1,0,0.2s0,0.2-0.1,0.3c-0.1,0.2-0.2,0.4-0.3,0.6s-0.2,0.3-0.4,0.4
			s-0.3,0.1-0.5,0.2c-0.2,0-0.4,0-0.7,0h-0.5l1.7,1.3H47.8z M49,25c0-0.1,0.1-0.2,0.1-0.3v-0.1c0-0.1,0-0.2-0.1-0.2s-0.1,0-0.3,0
			h-2.2l-0.3,1h2c0.2,0,0.4,0,0.5-0.1C48.9,25.3,49,25.2,49,25"/>
	</g>
	<path class="st1" d="M50.6,26.6c0.3,0,0.5,0.2,0.5,0.5c0,0.3-0.2,0.5-0.5,0.5s-0.5-0.2-0.5-0.5S50.3,26.6,50.6,26.6L50.6,26.6z
		 M50.6,26.7c-0.2,0-0.4,0.2-0.4,0.4s0.2,0.4,0.4,0.4s0.4-0.2,0.4-0.4C51,26.9,50.8,26.7,50.6,26.7L50.6,26.7z M50.5,27.3L50.5,27.3
		l-0.1-0.5c0,0,0.1,0,0.2,0c0.1,0,0.1,0,0.2,0v0.1c0,0.1,0,0.1-0.1,0.1l0,0l0.1,0.1c0,0.1,0,0.1,0,0.1h-0.1v-0.1c0,0,0-0.1-0.1-0.1
		h-0.1C50.5,27,50.5,27.3,50.5,27.3z M50.5,27L50.5,27c0.1,0,0.2,0,0.2-0.1c0,0,0-0.1-0.1-0.1c0,0,0,0-0.1,0
		C50.5,26.8,50.5,27,50.5,27z"/>
</g>
</svg>
