<?xml version="1.0" encoding="utf-8"?>
<!-- Generator: Adobe Illustrator 19.2.1, SVG Export Plug-In . SVG Version: 6.00 Build 0)  -->
<svg version="1.1" id="Stacked_Hex_Tab_BTN_2" xmlns="http://www.w3.org/2000/svg" xmlns:xlink="http://www.w3.org/1999/xlink"
	 x="0px" y="0px" viewBox="0 0 70 11" style="enable-background:new 0 0 70 11;" xml:space="preserve">
<style type="text/css">
	.st0{fill:url(#SVGID_1_);}
	.st1{fill:#888888;}
	.st2{fill:#464646;}
	.st3{fill:#88E333;}
</style>
<g>
	
		<linearGradient id="SVGID_1_" gradientUnits="userSpaceOnUse" x1="35.0003" y1="2.9881" x2="35.0003" y2="13.8748" gradientTransform="matrix(1 0 0 -1 0 14)">
		<stop  offset="0" style="stop-color:#191919;stop-opacity:0.5"/>
		<stop  offset="1" style="stop-color:#191919;stop-opacity:0.5"/>
	</linearGradient>
	<polygon class="st0" points="0.2,11 0.1,10.9 0.1,0.3 0.2,0.1 66.7,0.1 66.8,0.2 69.9,5.5 69.9,5.6 66.8,10.9 66.7,11 	"/>
	<path class="st1" d="M66.7,0.2l3.1,5.3l-3.1,5.3H0.2V0.2H66.7 M66.7,0H0.2L0,0.2v10.6L0.2,11h66.5l0.2-0.1L70,5.7V5.4l-3.1-5.3
		L66.7,0L66.7,0z"/>
</g>
<g>
	<path class="st2" d="M61.8,8C61.8,8,61.7,8,61.8,8l-1.5-2.5V5.4L61.7,3l0.1-0.1h2.8c0,0,0.1,0,0.1,0.1L66,5.5v0.1L64.7,8l-0.1,0.1
		h-2.8V8z"/>
	<path class="st1" d="M64.6,3.2L66,5.6L64.6,8h-2.8l-1.4-2.4l1.4-2.4L64.6,3.2 M64.6,3h-2.8c-0.1,0-0.2,0-0.2,0.1l-1.4,2.4
		c0,0.1,0,0.2,0,0.3L61.6,8c0,0.1,0.1,0.1,0.2,0.1h2.8c0.1,0,0.2,0,0.2-0.1l1.4-2.4c0-0.1,0-0.2,0-0.3l-1.4-2.4
		C64.7,3,64.6,3,64.6,3L64.6,3z"/>
</g>
<polygon class="st3" points="64.4,5.6 62.7,4 62.4,4.3 63.6,5.5 63.7,5.6 63.6,5.7 62.4,6.8 62.7,7.2 "/>
</svg>
