<?xml version="1.0" encoding="utf-8"?>
<!-- Generator: Adobe Illustrator 19.2.1, SVG Export Plug-In . SVG Version: 6.00 Build 0)  -->
<svg version="1.1" id="Complete_Kits" xmlns="http://www.w3.org/2000/svg" xmlns:xlink="http://www.w3.org/1999/xlink" x="0px"
	 y="0px" viewBox="0 0 685 115" style="enable-background:new 0 0 685 115;" xml:space="preserve">
<style type="text/css">
	.st0{opacity:0.5;}
	.st1{fill:#191919;}
	.st2{fill-rule:evenodd;clip-rule:evenodd;fill:#88E333;}
</style>
<g class="st0">
	<path class="st1" d="M77.5,77c-0.8,6.2-2.9,15.9-13.4,15.9c-11.8,0-15.3-10.7-15.3-34.5c0-23.6,3.7-33.8,15.2-33.8
		c7.8,0,12.4,5.2,13.5,16.7l-9.3,1.2C67.7,36,66.6,33,63.8,33c-2.7,0-3.4,3-3.8,6.6c-0.7,5-0.7,12.7-0.7,19.4c0,6.1,0,17.1,1.4,22.2
		c0.2,1,1,3.3,3.4,3.3c3,0,3.5-3.3,4.1-8.7L77.5,77z"/>
	<path class="st1" d="M94.6,24.6c10.6,0,15.2,8.4,15.2,34.2c0,25.8-4.6,34.1-15.2,34.1c-13.5,0-15.1-14.5-15.1-34.1
		C79.5,39.9,80.8,24.6,94.6,24.6z M91,80.6c0.4,1.9,1.1,4,3.6,4c2.5,0,3.2-2,3.6-4c0.9-4.5,0.9-18.9,0.9-20.1
		c0-9.5-0.1-13.7-0.5-20.8c-0.2-4.9-1.4-6.8-4-6.8c-2.5,0-3.2,1.9-3.6,4c-0.8,4.2-0.8,21.5-0.8,21.9C90.2,64,90.2,76.1,91,80.6z"/>
	<path class="st1" d="M144.1,92.1V66.9c0-3.4,0.2-14.4,0.3-24.3c-0.2,1.2-2.3,17.4-3.3,24.3l-3.9,25.2h-7.4l-4.1-25.8
		c-2.3-14.5-2.3-14.6-3.2-23.7c0.3,13.1,0.5,20.8,0.5,24v25.5h-7.8V25.4H126l5.5,35c0.8,4.5,1.4,11.2,2.1,18.9
		c0.3-6.6,0.9-11,2.2-18.9l5.3-35h11.1v66.7H144.1z"/>
	<path class="st1" d="M159,92.1V25.4h11.2c4.2,0,8.2,0,11.5,3.8c3,3.5,4.7,8.6,4.7,16.2c0,14.7-5.1,20.1-14.3,20.1H169v26.6H159z
		 M169,56.4h2c3.8,0,4.9-0.9,4.9-11.5c0-11-2.1-11-4.9-11h-2V56.4z"/>
	<path class="st1" d="M190.1,92.1V25.4h10v58.2h12.5v8.5H190.1z"/>
	<path class="st1" d="M215.5,92.1V25.4h22.7v8.5h-12.7v19h9.2v8.5h-9.2v22.2h13.6v8.5H215.5z"/>
	<path class="st1" d="M247.4,92.1V33.9H240v-8.5h24.7v8.5h-7.3v58.2H247.4z"/>
	<path class="st1" d="M267.6,92.1V25.4h22.7v8.5h-12.7v19h9.2v8.5h-9.2v22.2h13.6v8.5H267.6z"/>
	<path class="st1" d="M331.7,92.1l-6.5-28.7h-2.4v28.7h-10V25.4h11.6c4.1,0,8.4,0.6,11.5,4.7c2.1,2.8,3.8,6.6,3.8,14.5
		c0,12.7-3.9,15.1-6.1,16.4l8.4,31.1H331.7z M322.8,54.7h1.6c3.7,0,4.8-1.8,4.8-10.7c0-10.1-2.2-10.1-4.8-10.1h-1.6V54.7z"/>
	<path class="st1" d="M345.7,92.1V25.4h22.7v8.5h-12.7v19h9.2v8.5h-9.2v22.2h13.6v8.5H345.7z"/>
	<path class="st1" d="M377.6,92.1V33.9h-7.4v-8.5h24.7v8.5h-7.3v58.2H377.6z"/>
	<path class="st1" d="M416.7,92.1l-6.5-28.7h-2.4v28.7h-10V25.4h11.6c4.1,0,8.4,0.6,11.5,4.7c2.1,2.8,3.8,6.6,3.8,14.5
		c0,12.7-3.9,15.1-6.1,16.4l8.4,31.1H416.7z M407.8,54.7h1.6c3.7,0,4.8-1.8,4.8-10.7c0-10.1-2.2-10.1-4.8-10.1h-1.6V54.7z"/>
	<path class="st1" d="M443.7,24.6c10.6,0,15.2,8.4,15.2,34.2c0,25.8-4.6,34.1-15.2,34.1c-13.5,0-15.1-14.5-15.1-34.1
		C428.6,39.9,429.9,24.6,443.7,24.6z M440.1,80.6c0.4,1.9,1.1,4,3.6,4c2.5,0,3.2-2,3.6-4c0.9-4.5,0.9-18.9,0.9-20.1
		c0-9.5-0.1-13.7-0.5-20.8c-0.2-4.9-1.4-6.8-4-6.8c-2.5,0-3.2,1.9-3.6,4c-0.8,4.2-0.8,21.5-0.8,21.9C439.3,64,439.3,76.1,440.1,80.6
		z"/>
	<path class="st1" d="M464.3,92.1V25.4h22.3v8.5h-12.3v19.3h9.9v8.5h-9.9v30.4H464.3z"/>
	<path class="st1" d="M490.3,92.1V25.4h10v66.7H490.3z"/>
	<path class="st1" d="M510.6,92.1V33.9h-7.4v-8.5h24.7v8.5h-7.3v58.2H510.6z"/>
	<path class="st1" d="M566,92.1l-9-31.3v31.3h-9.7V25.4h9.7V50l8.9-24.6h9.5l-12.2,28.4l13.1,38.3H566z"/>
	<path class="st1" d="M579.3,92.1V25.4h10v66.7H579.3z"/>
	<path class="st1" d="M599.6,92.1V33.9h-7.4v-8.5h24.7v8.5h-7.3v58.2H599.6z"/>
	<path class="st1" d="M627,75.8c0.1,4.2,0.3,8.8,4.2,8.8c2.9,0,4.3-2.8,4.3-9.5c0-7.6-2.4-9.7-8.7-15c-2.5-2.1-8.3-7.9-8.3-18.2
		c0-9.3,3.5-17.3,12.9-17.3c9.6,0,12.4,7.9,12.9,14.6l-9.3,1.2c-0.7-7.4-2.1-7.4-3.5-7.4c-2.4,0-3.1,3.1-3.1,8
		c0,4.8,1.1,7.1,6.6,11.7c5.9,5.1,10.4,10,10.4,20.6c0,8.3-1.8,19.6-14.1,19.6c-11.6,0-13.6-9.7-13.6-16.1L627,75.8z"/>
</g>
<g>
	<path class="st2" d="M443.7,32.9c-2.5,0-3.2,1.9-3.6,4c-0.8,4.2-0.8,21.5-0.8,21.9c0,5.2,0,17.3,0.8,21.8c0.4,1.9,1.1,4,3.6,4
		c2.5,0,3.2-2,3.6-4c0.9-4.5,0.9-18.9,0.9-20.1c0-9.5-0.1-13.7-0.5-20.8C447.5,34.8,446.3,32.9,443.7,32.9z"/>
	<path class="st2" d="M171,33.9h-2v22.5h2c3.8,0,4.9-0.9,4.9-11.5C175.9,33.9,173.8,33.9,171,33.9z"/>
	<path class="st2" d="M409.4,33.9h-1.6v20.8h1.6c3.7,0,4.8-1.8,4.8-10.7C414.2,33.9,412,33.9,409.4,33.9z"/>
	<path class="st2" d="M94.6,32.9c-2.5,0-3.2,1.9-3.6,4c-0.8,4.2-0.8,21.5-0.8,21.9c0,5.2,0,17.3,0.8,21.8c0.4,1.9,1.1,4,3.6,4
		c2.5,0,3.2-2,3.6-4c0.9-4.5,0.9-18.9,0.9-20.1c0-9.5-0.1-13.7-0.5-20.8C98.4,34.8,97.2,32.9,94.6,32.9z"/>
	<path class="st2" d="M324.4,33.9h-1.6v20.8h1.6c3.7,0,4.8-1.8,4.8-10.7C329.2,33.9,327,33.9,324.4,33.9z"/>
	<path class="st2" d="M684.4,53.1L668.7,0H0v115h668.7l15.7-53.1C685.2,59.5,685.2,55.5,684.4,53.1z M60.7,81.2c0.2,1,1,3.3,3.4,3.3
		c3,0,3.5-3.3,4.1-8.7l9.3,1.2c-0.8,6.2-2.9,15.9-13.4,15.9c-11.8,0-15.3-10.7-15.3-34.5c0-23.6,3.7-33.8,15.2-33.8
		c7.8,0,12.4,5.2,13.5,16.7l-9.3,1.2C67.7,36,66.6,33,63.8,33c-2.7,0-3.4,3-3.8,6.6c-0.7,5-0.7,12.7-0.7,19.4
		C59.3,65.1,59.3,76.1,60.7,81.2z M94.6,92.9c-13.5,0-15.1-14.5-15.1-34.1c0-18.9,1.3-34.2,15.1-34.2c10.6,0,15.2,8.4,15.2,34.2
		C109.8,84.6,105.2,92.9,94.6,92.9z M152.2,92.1h-8.1V66.9c0-3.4,0.2-14.4,0.3-24.3c-0.2,1.2-2.3,17.4-3.3,24.3l-3.9,25.2h-7.4
		l-4.1-25.8c-2.3-14.5-2.3-14.6-3.2-23.7c0.3,13.1,0.5,20.8,0.5,24v25.5h-7.8V25.4H126l5.5,35c0.8,4.5,1.4,11.2,2.1,18.9
		c0.3-6.6,0.9-11,2.2-18.9l5.3-35h11.1V92.1z M172.1,65.5H169v26.6h-10V25.4h11.2c4.2,0,8.2,0,11.5,3.8c3,3.5,4.7,8.6,4.7,16.2
		C186.4,60.1,181.3,65.5,172.1,65.5z M212.6,92.1h-22.5V25.4h10v58.2h12.5V92.1z M239.1,92.1h-23.6V25.4h22.7v8.5h-12.7v19h9.2v8.5
		h-9.2v22.2h13.6V92.1z M264.7,33.9h-7.3v58.2h-10V33.9H240v-8.5h24.7V33.9z M291.2,92.1h-23.6V25.4h22.7v8.5h-12.7v19h9.2v8.5h-9.2
		v22.2h13.6V92.1z M331.7,92.1l-6.5-28.7h-2.4v28.7h-10V25.4h11.6c4.1,0,8.4,0.6,11.5,4.7c2.1,2.8,3.8,6.6,3.8,14.5
		c0,12.7-3.9,15.1-6.1,16.4l8.4,31.1H331.7z M369.3,92.1h-23.6V25.4h22.7v8.5h-12.7v19h9.2v8.5h-9.2v22.2h13.6V92.1z M394.9,33.9
		h-7.3v58.2h-10V33.9h-7.4v-8.5h24.7V33.9z M416.7,92.1l-6.5-28.7h-2.4v28.7h-10V25.4h11.6c4.1,0,8.4,0.6,11.5,4.7
		c2.1,2.8,3.8,6.6,3.8,14.5c0,12.7-3.9,15.1-6.1,16.4l8.4,31.1H416.7z M443.7,92.9c-13.5,0-15.1-14.5-15.1-34.1
		c0-18.9,1.3-34.2,15.1-34.2c10.6,0,15.2,8.4,15.2,34.2C458.9,84.6,454.3,92.9,443.7,92.9z M486.6,33.9h-12.3v19.3h9.9v8.5h-9.9
		v30.4h-10V25.4h22.3V33.9z M500.3,92.1h-10V25.4h10V92.1z M527.9,33.9h-7.3v58.2h-10V33.9h-7.4v-8.5h24.7V33.9z M566,92.1l-9-31.3
		v31.3h-9.7V25.4h9.7V50l8.9-24.6h9.5l-12.2,28.4l13.1,38.3H566z M589.3,92.1h-10V25.4h10V92.1z M616.9,33.9h-7.3v58.2h-10V33.9
		h-7.4v-8.5h24.7V33.9z M631.3,92.9c-11.6,0-13.6-9.7-13.6-16.1l9.3-1c0.1,4.2,0.3,8.8,4.2,8.8c2.9,0,4.3-2.8,4.3-9.5
		c0-7.6-2.4-9.7-8.7-15c-2.5-2.1-8.3-7.9-8.3-18.2c0-9.3,3.5-17.3,12.9-17.3c9.6,0,12.4,7.9,12.9,14.6l-9.3,1.2
		c-0.7-7.4-2.1-7.4-3.5-7.4c-2.4,0-3.1,3.1-3.1,8c0,4.8,1.1,7.1,6.6,11.7c5.9,5.1,10.4,10,10.4,20.6
		C645.4,81.6,643.6,92.9,631.3,92.9z"/>
</g>
</svg>
