<?xml version="1.0" encoding="utf-8"?>
<!-- Generator: Adobe Illustrator 19.2.1, SVG Export Plug-In . SVG Version: 6.00 Build 0)  -->
<svg version="1.1" id="LED" xmlns="http://www.w3.org/2000/svg" xmlns:xlink="http://www.w3.org/1999/xlink" x="0px" y="0px"
	 viewBox="0 0 685 115" style="enable-background:new 0 0 685 115;" xml:space="preserve">
<style type="text/css">
	.st0{opacity:0.5;}
	.st1{fill:#191919;}
	.st2{fill-rule:evenodd;clip-rule:evenodd;fill:#88E333;}
</style>
<g class="st0">
	<path class="st1" d="M50.5,92.1V25.4h10v58.2H73v8.5H50.5z"/>
	<path class="st1" d="M75.8,92.1V25.4h22.7v8.5H85.8v19H95v8.5h-9.2v22.2h13.6v8.5H75.8z"/>
	<path class="st1" d="M103.3,25.4h9.5c5,0,10.2,0.2,14.6,7.1c4.1,6.2,4.5,18.9,4.5,26.3c0,30.3-7.8,33.3-17.5,33.3h-11.1V25.4z
		 M113.3,83.6c3,0,4.8,0,6.3-3.7c1.8-4.6,1.9-16.9,1.9-20.1c0-3.4,0-12.8-1-18.4c-1.4-7.5-4.1-7.5-7.2-7.5V83.6z"/>
	<path class="st1" d="M155.3,92.1V25.4h10v58.2h12.5v8.5H155.3z"/>
	<path class="st1" d="M180.7,92.1V25.4h10v66.7H180.7z"/>
	<path class="st1" d="M219.3,92.5l-0.9-5.3c-1.1,2.7-3.2,5.5-8.4,5.5c-11.3,0-13.9-12.1-13.9-34.1c0-18.1,0.6-34,15.4-34
		c10.7,0,13.2,8.7,14.3,16.2l-9.8,1.3c-0.6-7.2-2.3-9-4.6-9c-3.2,0-3.9,3-4.3,6.1c-0.6,4.3-0.6,14-0.6,18.7c0,5,0.1,15.7,0.6,20.1
		c0.4,2.6,1,6.8,4.6,6.8c4.1,0,4.8-4.5,4.8-13.1v-4.3h-4.7v-8.9h14v34H219.3z"/>
	<path class="st1" d="M250.5,92.1V62.5h-8.7v29.6h-10V25.4h10v28.1h8.7V25.4h10v66.7H250.5z"/>
	<path class="st1" d="M270.8,92.1V33.9h-7.4v-8.5h24.7v8.5h-7.3v58.2H270.8z"/>
	<path class="st1" d="M291.1,92.1V25.4h10v66.7H291.1z"/>
	<path class="st1" d="M328.3,92.1l-8.9-29.5c-0.3-1-2.4-7.7-4.3-16.8c0.3,7.6,0.8,20.6,0.8,24.8v21.5h-8.2V25.4h8.4l8.5,30
		c2.3,8.1,3.1,11.1,4.6,17.5c-0.5-7.9-0.9-16.5-0.9-23.8V25.4h8.1v66.7H328.3z"/>
	<path class="st1" d="M365,92.5l-0.9-5.3c-1.1,2.7-3.2,5.5-8.4,5.5c-11.3,0-13.9-12.1-13.9-34.1c0-18.1,0.6-34,15.4-34
		c10.7,0,13.2,8.7,14.3,16.2l-9.8,1.3c-0.6-7.2-2.3-9-4.6-9c-3.2,0-3.9,3-4.3,6.1c-0.6,4.3-0.6,14-0.6,18.7c0,5,0.1,15.7,0.6,20.1
		c0.4,2.6,1,6.8,4.6,6.8c4.1,0,4.8-4.5,4.8-13.1v-4.3h-4.7v-8.9h14v34H365z"/>
</g>
<g>
	<path class="st2" d="M113.3,33.9v49.7c3,0,4.8,0,6.3-3.7c1.8-4.6,1.9-16.9,1.9-20.1c0-3.4,0-12.8-1-18.4
		C119.1,33.9,116.4,33.9,113.3,33.9z"/>
	<path class="st2" d="M411.4,53.1L395.7,0H0v115h395.7l15.7-53.1C412.2,59.5,412.2,55.5,411.4,53.1z M73,92.1H50.5V25.4h10v58.2H73
		V92.1z M99.4,92.1H75.8V25.4h22.7v8.5H85.8v19H95v8.5h-9.2v22.2h13.6V92.1z M114.4,92.1h-11.1V25.4h9.5c5,0,10.2,0.2,14.6,7.1
		c4.1,6.2,4.5,18.9,4.5,26.3C131.9,89.1,124.1,92.1,114.4,92.1z M177.8,92.1h-22.5V25.4h10v58.2h12.5V92.1z M190.7,92.1h-10V25.4h10
		V92.1z M207.1,78c0.4,2.6,1,6.8,4.6,6.8c4.1,0,4.8-4.5,4.8-13.1v-4.3h-4.7v-8.9h14v34h-6.5l-0.9-5.3c-1.1,2.7-3.2,5.5-8.4,5.5
		c-11.3,0-13.9-12.1-13.9-34.1c0-18.1,0.6-34,15.4-34c10.7,0,13.2,8.7,14.3,16.2l-9.8,1.3c-0.6-7.2-2.3-9-4.6-9
		c-3.2,0-3.9,3-4.3,6.1c-0.6,4.3-0.6,14-0.6,18.7C206.5,62.9,206.6,73.6,207.1,78z M260.5,92.1h-10V62.5h-8.7v29.6h-10V25.4h10v28.1
		h8.7V25.4h10V92.1z M288.1,33.9h-7.3v58.2h-10V33.9h-7.4v-8.5h24.7V33.9z M301.1,92.1h-10V25.4h10V92.1z M336.4,92.1h-8.1
		l-8.9-29.5c-0.3-1-2.4-7.7-4.3-16.8c0.3,7.6,0.8,20.6,0.8,24.8v21.5h-8.2V25.4h8.4l8.5,30c2.3,8.1,3.1,11.1,4.6,17.5
		c-0.5-7.9-0.9-16.5-0.9-23.8V25.4h8.1V92.1z M352.8,78c0.4,2.6,1,6.8,4.6,6.8c4.1,0,4.8-4.5,4.8-13.1v-4.3h-4.7v-8.9h14v34H365
		l-0.9-5.3c-1.1,2.7-3.2,5.5-8.4,5.5c-11.3,0-13.9-12.1-13.9-34.1c0-18.1,0.6-34,15.4-34c10.7,0,13.2,8.7,14.3,16.2l-9.8,1.3
		c-0.6-7.2-2.3-9-4.6-9c-3.2,0-3.9,3-4.3,6.1c-0.6,4.3-0.6,14-0.6,18.7C352.2,62.9,352.3,73.6,352.8,78z"/>
</g>
</svg>
