<?xml version="1.0" encoding="utf-8"?>
<!-- Generator: Adobe Illustrator 19.2.1, SVG Export Plug-In . SVG Version: 6.00 Build 0)  -->
<svg version="1.1" id="Denso" xmlns="http://www.w3.org/2000/svg" xmlns:xlink="http://www.w3.org/1999/xlink" x="0px" y="0px"
	 viewBox="0 0 685 115" style="enable-background:new 0 0 685 115;" xml:space="preserve">
<style type="text/css">
	.st0{opacity:0.5;fill-rule:evenodd;clip-rule:evenodd;fill:#231F20;}
	.st1{fill-rule:evenodd;clip-rule:evenodd;fill:#88E333;}
</style>
<path class="st0" d="M80.1,34.5l14.2-0.1c12.9,0.2,14.4,7.8,8.5,24.8c-4.9,14.6-12.5,23.5-27,23.4H64.6L80.1,34.5L80.1,34.5z
	 M341.7,53.6c8.4-20.4,19.5-28.2,42.2-28.7c20.3-0.5,29.3,8.9,21.9,32.3c-8,25.4-22.5,35.7-44.3,35.7
	C337.4,92.9,331.3,78.2,341.7,53.6L341.7,53.6z M357.3,54.9c5.2-13,12.9-22,24.2-22.1c10.1-0.1,12,7.3,7.4,22.9
	c-5.8,20.1-14.2,28.8-25.8,28.6C350.4,84.2,350.6,71.7,357.3,54.9L357.3,54.9z M329.4,38.9l3.9-11.2c-5.8-1.8-12-3.1-20.3-3.1
	c-14.1-0.1-24.7,4.3-29.1,14.2c-6.8,15.2,2.7,19.8,14.2,25.2c16.9,7.9,7.2,21.4-9,20.1c-6.5-0.6-12.2-3.5-17.9-6.3l-3.6,11.4
	c6.8,2.3,14.9,4.2,24.8,3.5c16.8-1,27.1-7.8,31.3-18.4c4.8-12.1-2.6-19.5-13.7-23C287.1,44,300.9,22.2,329.4,38.9L329.4,38.9z
	 M205.3,26c1.6,2.3,3.2,4.4,4.1,6.7l-18.6,58.7h11.3l15.5-49l17.8,49h16l-0.7-1.8L270.8,26h-11.4l-14.8,47l-17.1-47
	C220.1,26,212.7,26.1,205.3,26L205.3,26z M141.5,26c1.7,2.3,3.3,4.4,4.1,6.7l-18.5,58.7c16.3,0,32.6,0,48.9,0l2.3-7.3h-33.1
	l7.3-22.9h21.9l2.3-7.2h-21.9l6.6-21h31.9l2.2-7.1C177.6,26,159.6,26.1,141.5,26L141.5,26z M63.2,26c1.6,2.3,3.3,4.4,4.1,6.7
	L48.8,91.4h16l0,0l9.3-0.1c27.4,0,40.3-13.6,45.8-31.2c7.9-25.2-1.7-34-25-34L63.2,26L63.2,26z"/>
<g>
	<path class="st1" d="M381.5,32.8c-11.3,0.1-18.9,9.1-24.2,22.1c-6.7,16.8-7,29.3,5.8,29.4c11.5,0.2,19.9-8.5,25.8-28.6
		C393.4,40.1,391.6,32.7,381.5,32.8z"/>
	<path class="st1" d="M94.4,34.4l-14.2,0.1L64.6,82.6h11.3c14.5,0.1,22.1-8.8,27-23.4C108.7,42.2,107.2,34.7,94.4,34.4z"/>
	<path class="st1" d="M448.4,53.1L432.7,0H0v115h432.7l15.7-53.1C449.2,59.5,449.2,55.5,448.4,53.1z M119.9,60.1
		c-5.5,17.7-18.5,31.2-45.8,31.2l-9.3,0.1h-16l18.6-58.7c-0.8-2.3-2.5-4.4-4.1-6.7l31.7,0.1C118.2,26.1,127.8,34.9,119.9,60.1z
		 M176.1,91.4c-16.3,0-32.6,0-48.9,0l18.5-58.7c-0.8-2.3-2.4-4.4-4.1-6.7c18,0.1,36,0,54,0l-2.2,7.1h-31.9l-6.6,21h21.9l-2.3,7.2
		h-21.9l-7.3,22.9h33.1L176.1,91.4z M235.4,91.4l-17.8-49l-15.5,49h-11.3l18.6-58.7c-0.9-2.3-2.5-4.4-4.1-6.7c7.4,0.1,14.8,0,22.2,0
		l17.1,47l14.8-47h11.4l-20.2,63.6l0.7,1.8H235.4z M329.4,38.9c-28.5-16.6-42.3,5.1-19.3,12.5c11.1,3.5,18.5,10.9,13.7,23
		c-4.2,10.6-14.6,17.3-31.3,18.4c-9.9,0.7-18-1.3-24.8-3.5l3.6-11.4c5.7,2.7,11.4,5.7,17.9,6.3c16.2,1.4,25.9-12.2,9-20.1
		c-11.5-5.4-21.1-10-14.2-25.2c4.3-9.9,14.9-14.4,29.1-14.2c8.3,0,14.5,1.3,20.3,3.1L329.4,38.9z M405.8,57.1
		c-8,25.4-22.5,35.7-44.3,35.7c-24.1,0.1-30.1-14.6-19.7-39.2c8.4-20.4,19.5-28.2,42.2-28.7C404.2,24.4,413.2,33.7,405.8,57.1z"/>
</g>
</svg>
