<?xml version="1.0" encoding="utf-8"?>
<!-- Generator: Adobe Illustrator 19.2.1, SVG Export Plug-In . SVG Version: 6.00 Build 0)  -->
<svg version="1.1" id="Accessories" xmlns="http://www.w3.org/2000/svg" xmlns:xlink="http://www.w3.org/1999/xlink" x="0px"
	 y="0px" viewBox="0 0 685 115" style="enable-background:new 0 0 685 115;" xml:space="preserve">
<style type="text/css">
	.st0{opacity:0.5;}
	.st1{fill:#191919;}
	.st2{fill-rule:evenodd;clip-rule:evenodd;fill:#88E333;}
</style>
<g class="st0">
	<path class="st1" d="M67.4,92.1l-2.3-18.4h-8L55,92.1h-8.9l10.3-66.7h9.8l10.6,66.7H67.4z M64.2,65.6l-1.5-11.9
		c-0.4-3.2-1.8-16.3-2-18.2c-0.1,1.9-0.2,3.6-0.5,6.7c-0.6,6.4-0.7,7.1-1.1,11.6l-1.3,11.8H64.2z"/>
	<path class="st1" d="M106.4,77c-0.8,6.2-2.9,15.9-13.4,15.9c-11.8,0-15.3-10.7-15.3-34.5c0-23.6,3.7-33.8,15.2-33.8
		c7.8,0,12.4,5.2,13.5,16.7l-9.3,1.2C96.6,36,95.5,33,92.7,33c-2.7,0-3.4,3-3.8,6.6c-0.7,5-0.7,12.7-0.7,19.4c0,6.1,0,17.1,1.4,22.2
		c0.2,1,1,3.3,3.4,3.3c3,0,3.5-3.3,4.1-8.7L106.4,77z"/>
	<path class="st1" d="M137.1,77c-0.8,6.2-2.9,15.9-13.4,15.9c-11.8,0-15.3-10.7-15.3-34.5c0-23.6,3.7-33.8,15.2-33.8
		c7.8,0,12.4,5.2,13.5,16.7l-9.3,1.2c-0.5-6.5-1.6-9.5-4.4-9.5c-2.7,0-3.4,3-3.8,6.6c-0.7,5-0.7,12.7-0.7,19.4
		c0,6.1,0,17.1,1.4,22.2c0.2,1,1,3.3,3.4,3.3c3,0,3.5-3.3,4.1-8.7L137.1,77z"/>
	<path class="st1" d="M140.3,92.1V25.4H163v8.5h-12.7v19h9.2v8.5h-9.2v22.2h13.6v8.5H140.3z"/>
	<path class="st1" d="M175.5,75.8c0.1,4.2,0.3,8.8,4.2,8.8c2.9,0,4.3-2.8,4.3-9.5c0-7.6-2.4-9.7-8.7-15c-2.5-2.1-8.3-7.9-8.3-18.2
		c0-9.3,3.5-17.3,12.9-17.3c9.6,0,12.4,7.9,12.9,14.6l-9.3,1.2c-0.7-7.4-2.1-7.4-3.5-7.4c-2.4,0-3.1,3.1-3.1,8
		c0,4.8,1.1,7.1,6.6,11.7c5.9,5.1,10.4,10,10.4,20.6c0,8.3-1.8,19.6-14.1,19.6c-11.6,0-13.6-9.7-13.6-16.1L175.5,75.8z"/>
	<path class="st1" d="M206,75.8c0.1,4.2,0.3,8.8,4.2,8.8c2.9,0,4.3-2.8,4.3-9.5c0-7.6-2.4-9.7-8.7-15c-2.5-2.1-8.3-7.9-8.3-18.2
		c0-9.3,3.5-17.3,12.9-17.3c9.6,0,12.4,7.9,12.9,14.6l-9.3,1.2c-0.7-7.4-2.1-7.4-3.5-7.4c-2.4,0-3.1,3.1-3.1,8
		c0,4.8,1.1,7.1,6.6,11.7c5.9,5.1,10.4,10,10.4,20.6c0,8.3-1.8,19.6-14.1,19.6c-11.6,0-13.6-9.7-13.6-16.1L206,75.8z"/>
	<path class="st1" d="M242.8,24.6c10.6,0,15.2,8.4,15.2,34.2c0,25.8-4.6,34.1-15.2,34.1c-13.5,0-15.1-14.5-15.1-34.1
		C227.7,39.9,229,24.6,242.8,24.6z M239.2,80.6c0.4,1.9,1.1,4,3.6,4c2.5,0,3.2-2,3.6-4c0.9-4.5,0.9-18.9,0.9-20.1
		c0-9.5-0.1-13.7-0.5-20.8c-0.2-4.9-1.4-6.8-4-6.8c-2.5,0-3.2,1.9-3.6,4c-0.8,4.2-0.8,21.5-0.8,21.9C238.4,64,238.4,76.1,239.2,80.6
		z"/>
	<path class="st1" d="M282.2,92.1l-6.5-28.7h-2.4v28.7h-10V25.4h11.6c4.1,0,8.4,0.6,11.5,4.7c2.1,2.8,3.8,6.6,3.8,14.5
		c0,12.7-3.9,15.1-6.1,16.4l8.4,31.1H282.2z M273.3,54.7h1.6c3.7,0,4.8-1.8,4.8-10.7c0-10.1-2.2-10.1-4.8-10.1h-1.6V54.7z"/>
	<path class="st1" d="M296.3,92.1V25.4h10v66.7H296.3z"/>
	<path class="st1" d="M312.9,92.1V25.4h22.7v8.5h-12.7v19h9.2v8.5h-9.2v22.2h13.6v8.5H312.9z"/>
	<path class="st1" d="M348.1,75.8c0.1,4.2,0.3,8.8,4.2,8.8c2.9,0,4.3-2.8,4.3-9.5c0-7.6-2.4-9.7-8.7-15c-2.5-2.1-8.3-7.9-8.3-18.2
		c0-9.3,3.5-17.3,12.9-17.3c9.6,0,12.4,7.9,12.9,14.6l-9.3,1.2c-0.7-7.4-2.1-7.4-3.5-7.4c-2.4,0-3.1,3.1-3.1,8
		c0,4.8,1.1,7.1,6.6,11.7c5.9,5.1,10.4,10,10.4,20.6c0,8.3-1.8,19.6-14.1,19.6c-11.6,0-13.6-9.7-13.6-16.1L348.1,75.8z"/>
</g>
<g>
	<path class="st2" d="M60.7,35.5c-0.1,1.9-0.2,3.6-0.5,6.7c-0.6,6.4-0.7,7.1-1.1,11.6l-1.3,11.8h6.4l-1.5-11.9
		C62.3,50.5,60.9,37.4,60.7,35.5z"/>
	<path class="st2" d="M274.9,33.9h-1.6v20.8h1.6c3.7,0,4.8-1.8,4.8-10.7C279.7,33.9,277.5,33.9,274.9,33.9z"/>
	<path class="st2" d="M242.8,32.9c-2.5,0-3.2,1.9-3.6,4c-0.8,4.2-0.8,21.5-0.8,21.9c0,5.2,0,17.3,0.8,21.8c0.4,1.9,1.1,4,3.6,4
		c2.5,0,3.2-2,3.6-4c0.9-4.5,0.9-18.9,0.9-20.1c0-9.5-0.1-13.7-0.5-20.8C246.6,34.8,245.4,32.9,242.8,32.9z"/>
	<path class="st2" d="M405.4,53.1L389.7,0H0v115h389.7l15.7-53.1C406.2,59.5,406.2,55.5,405.4,53.1z M67.4,92.1l-2.3-18.4h-8
		L55,92.1h-8.9l10.3-66.7h9.8l10.6,66.7H67.4z M89.6,81.2c0.2,1,1,3.3,3.4,3.3c3,0,3.5-3.3,4.1-8.7l9.3,1.2
		c-0.8,6.2-2.9,15.9-13.4,15.9c-11.8,0-15.3-10.7-15.3-34.5c0-23.6,3.7-33.8,15.2-33.8c7.8,0,12.4,5.2,13.5,16.7l-9.3,1.2
		C96.6,36,95.5,33,92.7,33c-2.7,0-3.4,3-3.8,6.6c-0.7,5-0.7,12.7-0.7,19.4C88.2,65.1,88.2,76.1,89.6,81.2z M120.3,81.2
		c0.2,1,1,3.3,3.4,3.3c3,0,3.5-3.3,4.1-8.7l9.3,1.2c-0.8,6.2-2.9,15.9-13.4,15.9c-11.8,0-15.3-10.7-15.3-34.5
		c0-23.6,3.7-33.8,15.2-33.8c7.8,0,12.4,5.2,13.5,16.7l-9.3,1.2c-0.5-6.5-1.6-9.5-4.4-9.5c-2.7,0-3.4,3-3.8,6.6
		c-0.7,5-0.7,12.7-0.7,19.4C118.9,65.1,118.9,76.1,120.3,81.2z M163.9,92.1h-23.6V25.4H163v8.5h-12.7v19h9.2v8.5h-9.2v22.2h13.6
		V92.1z M179.8,92.9c-11.6,0-13.6-9.7-13.6-16.1l9.3-1c0.1,4.2,0.3,8.8,4.2,8.8c2.9,0,4.3-2.8,4.3-9.5c0-7.6-2.4-9.7-8.7-15
		c-2.5-2.1-8.3-7.9-8.3-18.2c0-9.3,3.5-17.3,12.9-17.3c9.6,0,12.4,7.9,12.9,14.6l-9.3,1.2c-0.7-7.4-2.1-7.4-3.5-7.4
		c-2.4,0-3.1,3.1-3.1,8c0,4.8,1.1,7.1,6.6,11.7c5.9,5.1,10.4,10,10.4,20.6C193.9,81.6,192.1,92.9,179.8,92.9z M210.3,92.9
		c-11.6,0-13.6-9.7-13.6-16.1l9.3-1c0.1,4.2,0.3,8.8,4.2,8.8c2.9,0,4.3-2.8,4.3-9.5c0-7.6-2.4-9.7-8.7-15c-2.5-2.1-8.3-7.9-8.3-18.2
		c0-9.3,3.5-17.3,12.9-17.3c9.6,0,12.4,7.9,12.9,14.6l-9.3,1.2c-0.7-7.4-2.1-7.4-3.5-7.4c-2.4,0-3.1,3.1-3.1,8
		c0,4.8,1.1,7.1,6.6,11.7c5.9,5.1,10.4,10,10.4,20.6C224.4,81.6,222.6,92.9,210.3,92.9z M242.8,92.9c-13.5,0-15.1-14.5-15.1-34.1
		c0-18.9,1.3-34.2,15.1-34.2c10.6,0,15.2,8.4,15.2,34.2C258,84.6,253.4,92.9,242.8,92.9z M282.2,92.1l-6.5-28.7h-2.4v28.7h-10V25.4
		h11.6c4.1,0,8.4,0.6,11.5,4.7c2.1,2.8,3.8,6.6,3.8,14.5c0,12.7-3.9,15.1-6.1,16.4l8.4,31.1H282.2z M306.3,92.1h-10V25.4h10V92.1z
		 M336.5,92.1h-23.6V25.4h22.7v8.5h-12.7v19h9.2v8.5h-9.2v22.2h13.6V92.1z M352.4,92.9c-11.6,0-13.6-9.7-13.6-16.1l9.3-1
		c0.1,4.2,0.3,8.8,4.2,8.8c2.9,0,4.3-2.8,4.3-9.5c0-7.6-2.4-9.7-8.7-15c-2.5-2.1-8.3-7.9-8.3-18.2c0-9.3,3.5-17.3,12.9-17.3
		c9.6,0,12.4,7.9,12.9,14.6l-9.3,1.2c-0.7-7.4-2.1-7.4-3.5-7.4c-2.4,0-3.1,3.1-3.1,8c0,4.8,1.1,7.1,6.6,11.7
		c5.9,5.1,10.4,10,10.4,20.6C366.5,81.6,364.7,92.9,352.4,92.9z"/>
</g>
</svg>
