<?xml version="1.0" encoding="utf-8"?>
<!-- Generator: Adobe Illustrator 19.2.1, SVG Export Plug-In . SVG Version: 6.00 Build 0)  -->
<svg version="1.1" id="Osram" xmlns="http://www.w3.org/2000/svg" xmlns:xlink="http://www.w3.org/1999/xlink" x="0px" y="0px"
	 viewBox="0 0 685 115" style="enable-background:new 0 0 685 115;" xml:space="preserve">
<style type="text/css">
	.st0{opacity:0.5;fill-rule:evenodd;clip-rule:evenodd;fill:#231F20;}
	.st1{fill-rule:evenodd;clip-rule:evenodd;fill:#88E333;}
</style>
<path class="st0" d="M111.7,58.8c0,20.2-12.4,34-31.4,34c-18.9,0-31.5-13.9-31.5-34c0-20.1,13.5-34.2,31.5-34.2
	C98.7,24.5,111.7,38.2,111.7,58.8L111.7,58.8z M96.2,58.7c0-10.5-4.7-20.5-15.9-20.5c-11.3,0-16.1,10.5-16.1,20.6
	c0,10,5.1,20.3,16,20.3C91.1,79,96.2,68.3,96.2,58.7L96.2,58.7z M168.7,72.1c0.1,12.5-11.9,20.8-26.3,20.8
	c-28.7,0-26.7-21.3-26.9-23.1h15.2c-0.6,6.6,6.2,10.3,12.3,10.2c4.5-0.1,10-0.9,10.8-6.8c1.4-11.9-37.4-3.4-37.4-28.1
	c0-13.2,13.1-20.4,26-20.4c18.2,0,26.3,10.8,26.3,22.3H153c0,0,0.8-9.2-11-9.2c-4.6,0-9.7,1.8-10.2,6.1
	C130.3,55,168.3,46.7,168.7,72.1L168.7,72.1z M228.7,48.7c0,9.4-4.6,16.8-13.1,20.7L226.4,91h-16.6l-9.6-20.6h-9.8V91h-15.1V26.5h33
	C219.9,26.5,228.7,36.2,228.7,48.7L228.7,48.7z M213.3,48.7c-0.3-4.5-2.8-8.6-7.3-8.6h-15.7v17.4H206
	C210.4,57.4,213.5,52.7,213.3,48.7L213.3,48.7z M293,91h-16l-3.9-11.1h-25.4L243.9,91h-16.2l23.4-64.6h18.4L293,91L293,91z
	 M268.6,66.4l-8.1-23.6v0.1l-8.2,23.5H268.6L268.6,66.4z M359.2,91h-15.8l-0.1-35.6l-15.8,26.4l-15.8-25.4V91h-16.3V26.4l16.7,0.1
	l15.1,26.2l16-26.2l16-0.1V91L359.2,91z"/>
<g>
	<polygon class="st1" points="260.5,42.9 252.3,66.4 268.6,66.4 260.5,42.8 	"/>
	<path class="st1" d="M80.3,38.2c-11.3,0-16.1,10.5-16.1,20.6c0,10,5.1,20.3,16,20.3c11,0,16-10.7,16-20.3
		C96.2,48.2,91.5,38.2,80.3,38.2z"/>
	<path class="st1" d="M206,40.1h-15.7v17.4H206c4.4,0,7.5-4.8,7.3-8.8C213,44.2,210.5,40.1,206,40.1z"/>
	<path class="st1" d="M398.4,53.1L382.7,0H0v115h382.7l15.7-53.1C399.2,59.5,399.2,55.5,398.4,53.1z M80.3,92.9
		c-18.9,0-31.5-13.9-31.5-34c0-20.1,13.5-34.2,31.5-34.2c18.4-0.1,31.4,13.5,31.4,34.2C111.7,79,99.3,92.9,80.3,92.9z M142.1,37.8
		c-4.6,0-9.7,1.8-10.2,6.1c-1.6,11.2,36.5,2.9,36.8,28.2c0.1,12.5-11.9,20.8-26.3,20.8c-28.7,0-26.7-21.3-26.9-23.1h15.2
		c-0.6,6.6,6.2,10.3,12.3,10.2c4.5-0.1,10-0.9,10.8-6.8c1.4-11.9-37.4-3.4-37.4-28.1c0-13.2,13.1-20.4,26-20.4
		c18.2,0,26.3,10.8,26.3,22.3H153C153,47,153.8,37.8,142.1,37.8z M209.8,91l-9.6-20.6h-9.8V91h-15.1V26.5h33
		c11.6,0,20.4,9.7,20.4,22.2c0,9.4-4.6,16.8-13.1,20.7L226.4,91H209.8z M277,91l-3.9-11.1h-25.4L243.9,91h-16.2l23.4-64.6h18.4
		L293,91H277z M359.2,91h-15.8l-0.1-35.6l-15.8,26.4l-15.8-25.4V91h-16.3V26.4l16.7,0.1l15.1,26.2l16-26.2l16-0.1V91z"/>
</g>
</svg>
