<?xml version="1.0" encoding="utf-8"?>
<!-- Generator: Adobe Illustrator 19.2.1, SVG Export Plug-In . SVG Version: 6.00 Build 0)  -->
<svg version="1.1" id="Philips" xmlns="http://www.w3.org/2000/svg" xmlns:xlink="http://www.w3.org/1999/xlink" x="0px" y="0px"
	 viewBox="0 0 685 115" style="enable-background:new 0 0 685 115;" xml:space="preserve">
<style type="text/css">
	.st0{opacity:0.5;}
	.st1{fill-rule:evenodd;clip-rule:evenodd;fill:#231F20;}
	.st2{fill-rule:evenodd;clip-rule:evenodd;fill:#88E333;}
</style>
<g class="st0">
	<g>
		<path class="st1" d="M137.4,62.7h7c0,0,9.2-0.9,9.2-11c0-10.1-9.9-10.8-9.9-10.8h-6.3V62.7L137.4,62.7L137.4,62.7z M120,26.5h29.7
			c0,0,22.5,0.3,22.5,25.6c0,24-23,25.6-23,25.6h-11.8v14.6H120V26.5L120,26.5z"/>
		<path class="st1" d="M373.7,62.7h7c0,0,9.2-0.9,9.2-11c0-10.1-9.9-10.8-9.9-10.8h-6.3V62.7L373.7,62.7L373.7,62.7z M356.3,26.5
			h30.3c0,0,21.9,1.4,21.9,25.6c0,21.9-22.1,25.6-22.1,25.6h-12.7v14.6h-17.4V26.5L356.3,26.5z"/>
		<polygon class="st1" points="179.8,27 197,27 197,51 215.3,51 215.3,27 231.8,27 231.8,92.3 215.5,92.3 215.5,65.8 197.2,65.8 
			197.2,92.3 179.8,92.3 179.8,27 		"/>
		<polygon class="st1" points="248.1,26.8 264.5,26.8 264.5,92.3 248.1,92.3 248.1,26.8 		"/>
		<polygon class="st1" points="323.9,26.8 340.4,26.8 340.4,92.3 323.9,92.3 323.9,26.8 		"/>
		<polygon class="st1" points="280.7,27 297.2,27 297.2,76.8 315.2,76.8 315.2,92.3 280.7,92.3 280.7,27 		"/>
		<path class="st1" d="M452.2,26.3c0,0-6.4-0.9-12.4-0.9c-9,0-24.9,2.4-25,21.2c0,0-1.2,14.7,15,18.8c15.1,3.8,11.7,6.9,12.2,7.3
			c0,0,0.3,4.7-11.1,4.7c-11.5,0-14.1-2.1-14.1-2.1v15.3c0,0,2.6,1.2,13.9,2.1c14.8,1.2,28.9-5.2,28.9-21c0-6.3-3.1-16.4-17.6-19.8
			c-9.2-2.2-10.5-4.9-10.4-6.1c0,0-0.4-5.3,10.1-5c9.7,0.2,10.8,1.6,10.8,1.6L452.2,26.3L452.2,26.3z"/>
	</g>
	<path class="st1" d="M73.7,91.5c15.9,0,24-13.5,24-24c0-2.4,0-40.6,0-40.6H50.2c0,0,0,38.2,0,40.6C50.2,78,57.7,91.5,73.7,91.5
		L73.7,91.5L73.7,91.5L73.7,91.5z M73.4,92.9c-16.9,0-24.6-14.3-24.6-25.4c0-2.5,0-42,0-42h50.4c0,0,0,39.5,0,42
		c0,11.2-8.3,25.4-25.2,25.4C73.8,92.9,73.5,92.9,73.4,92.9L73.4,92.9z"/>
	<path class="st1" d="M74,88.9c11.7,0,21.2-9.5,21.2-21.2c0-11.7-9.5-21.2-21.2-21.2c-11.7,0-21.2,9.5-21.2,21.2
		C52.8,79.4,62.3,88.9,74,88.9L74,88.9L74,88.9z M51.5,67.7c0-12.4,10.1-22.5,22.5-22.5c12.4,0,22.5,10.1,22.5,22.5
		c0,12.4-10.1,22.5-22.5,22.5C61.5,90.2,51.5,80.1,51.5,67.7L51.5,67.7z"/>
	<polygon class="st1" points="63.5,48.9 64.8,56 71.8,57.2 64.8,58.5 63.5,65.5 62.3,58.5 55.2,57.2 62.3,56 63.5,48.9 	"/>
	<polygon class="st1" points="68.8,46.7 69.6,51.1 74.1,51.9 69.6,52.7 68.8,57.2 68,52.7 63.5,51.9 68,51.1 68.8,46.7 	"/>
	<polygon class="st1" points="84.5,86.7 83.3,79.6 76.3,78.4 83.3,77.1 84.5,70.1 85.8,77.1 92.8,78.4 85.8,79.6 84.5,86.7 	"/>
	<polygon class="st1" points="79.3,88.9 78.5,84.5 74,83.7 78.5,82.9 79.3,78.4 80.1,82.9 84.5,83.7 80.1,84.5 79.3,88.9 	"/>
	<path class="st1" d="M94.9,64.7c0,0-2.9,1.3-5.1,1.3c-2.2,0-4.7-1.3-4.7-1.3s-2.7-1.6-6-1.6c-2.8,0-5.3,1.7-5.3,1.7
		s-2.9,1.3-5.4,1.3s-4.6-1.3-4.6-1.3s-2.4-1.7-5.7-1.7c-3.3,0-5.2,1.5-5.2,1.5l-0.1,1.7c0,0,2-1.5,5.3-1.5c3.3,0,5.7,1.7,5.7,1.7
		s2.2,1.3,4.6,1.3s5.4-1.3,5.4-1.3s2.5-1.7,5.3-1.7c3.3,0,6,1.6,6,1.6s2.5,1.3,4.7,1.3c2.2,0,5.3-1.4,5.3-1.4L94.9,64.7L94.9,64.7z"
		/>
	<path class="st1" d="M95.1,69.6c0,0-3.1,1.5-5.4,1.5c-2.2,0-4.7-1.3-4.7-1.3s-2.7-1.6-6-1.6c-2.8,0-5.3,1.7-5.3,1.7
		s-2.9,1.3-5.4,1.3s-4.6-1.3-4.6-1.3s-2.4-1.7-5.7-1.7c-3.3,0-5.4,1.5-5.4,1.5l0.1,1.7c0,0,2-1.5,5.3-1.5c3.3,0,5.7,1.7,5.7,1.7
		s2.2,1.3,4.6,1.3s5.4-1.3,5.4-1.3s2.5-1.7,5.3-1.7c3.3,0,6,1.6,6,1.6s2.5,1.3,4.7,1.3c2.2,0,5.3-1.4,5.3-1.4L95.1,69.6L95.1,69.6z"
		/>
	<path class="st1" d="M95.2,67.1c0,0-3.2,1.5-5.4,1.5c-2.2,0-4.7-1.3-4.7-1.3s-2.7-1.6-6-1.6c-2.8,0-5.3,1.7-5.3,1.7
		s-2.9,1.3-5.4,1.3s-4.6-1.3-4.6-1.3s-2.4-1.7-5.7-1.7c-3.3,0-5.4,1.5-5.4,1.5l0.1,1.6c0,0,2-1.5,5.3-1.5c3.3,0,5.7,1.7,5.7,1.7
		s2.2,1.3,4.6,1.3s5.4-1.3,5.4-1.3s2.5-1.7,5.3-1.7c3.3,0,6,1.6,6,1.6s2.5,1.3,4.7,1.3c2.2,0,5.5-1.5,5.5-1.5L95.2,67.1L95.2,67.1z"
		/>
	<path class="st1" d="M54.5,36.7h0.9c0,0,1.2-0.1,1.2-1.4c0-1.3-1.3-1.4-1.3-1.4h-0.8V36.7L54.5,36.7L54.5,36.7z M52.3,32h3.9
		c0,0,2.8,0.2,2.8,3.3c0,2.8-2.9,3.3-2.9,3.3h-1.6v1.9h-2.2V32L52.3,32z"/>
	<path class="st1" d="M85,36.7h0.9c0,0,1.2-0.1,1.2-1.4c0-1.3-1.3-1.4-1.3-1.4H85V36.7L85,36.7L85,36.7z M82.8,32h3.9
		c0,0,2.8,0.2,2.8,3.3c0,2.8-2.9,3.3-2.9,3.3H85v1.9h-2.2V32L82.8,32z"/>
	<polygon class="st1" points="60,32.1 62.2,32.1 62.2,35.2 64.6,35.2 64.6,32.1 66.7,32.1 66.7,40.5 64.6,40.5 64.6,37.1 62.3,37.1 
		62.3,40.5 60,40.5 60,32.1 	"/>
	<polygon class="st1" points="68.8,32 70.9,32 70.9,40.5 68.8,40.5 68.8,32 	"/>
	<polygon class="st1" points="78.6,32 80.7,32 80.7,40.5 78.6,40.5 78.6,32 	"/>
	<polygon class="st1" points="73,32.1 75.2,32.1 75.2,38.5 77.5,38.5 77.5,40.5 73,40.5 73,32.1 	"/>
	<path class="st1" d="M95.2,32c0,0-0.8-0.1-1.6-0.1c-1.2,0-3.2,0.3-3.2,2.7c0,0-0.1,1.9,1.9,2.4c2,0.5,1.5,0.9,1.6,0.9
		c0,0,0,0.6-1.4,0.6c-1.5,0-1.8-0.3-1.8-0.3v2c0,0,0.3,0.2,1.8,0.3c1.9,0.2,3.7-0.7,3.7-2.7c0-0.8-0.4-2.1-2.3-2.6
		c-1.2-0.3-1.4-0.6-1.3-0.8c0.1-0.2,0-0.7,1.3-0.7c1.3,0,1.4,0.2,1.4,0.2L95.2,32L95.2,32z"/>
</g>
<g>
	<path class="st2" d="M69.6,51.1l4.5,0.8l-4.5,0.8l-0.7,4l2.9,0.5l-7,1.3l-1.1,6.3c0,0,0,0,0,0s2.2,1.3,4.6,1.3
		c2.5,0,5.4-1.3,5.4-1.3s2.5-1.7,5.3-1.7c3.3,0,6,1.6,6,1.6s2.5,1.3,4.7,1.3c2.1,0,4.7-1.2,5.1-1.3C93.4,54.4,84.6,46.5,74,46.5
		c-1.8,0-3.4,0.2-5.1,0.6L69.6,51.1z"/>
	<path class="st2" d="M84.4,86.1L84,83.8l-3.9,0.7l-0.7,3.7C81.2,87.7,82.9,87,84.4,86.1z"/>
	<path class="st2" d="M63.7,69.9c0,0,2.2,1.3,4.6,1.3c2.5,0,5.4-1.3,5.4-1.3s2.5-1.7,5.3-1.7c3.3,0,6,1.6,6,1.6s2.5,1.3,4.7,1.3
		c2,0,4.7-1.2,5.2-1.4c0-0.3,0-0.6,0-1c-0.7,0.3-3.4,1.5-5.3,1.5c-2.2,0-4.7-1.3-4.7-1.3s-2.7-1.6-6-1.6c-2.8,0-5.3,1.7-5.3,1.7
		s-2.9,1.3-5.4,1.3c-2.5,0-4.6-1.3-4.6-1.3s-2.4-1.7-5.7-1.7c-2.8,0-4.7,1.1-5.2,1.4c0,0.3,0,0.6,0,0.8c0.6-0.4,2.5-1.4,5.2-1.4
		C61.3,68.2,63.7,69.9,63.7,69.9z"/>
	<path class="st2" d="M63.4,64.6l-1.1-6.1l-6.7-1.2c-1.2,2.2-2.1,4.6-2.5,7.1c0.6-0.4,2.3-1.3,5-1.3C60.6,63.1,62.6,64.1,63.4,64.6z
		"/>
	<path class="st2" d="M85.1,71.4c0,0-0.1-0.1-0.3-0.2l1,5.8l6.5,1.2c1.2-2.1,2.1-4.4,2.5-6.8c-0.9,0.4-3.2,1.3-5,1.3
		C87.6,72.7,85.1,71.4,85.1,71.4z"/>
	<path class="st2" d="M85.8,79.6l-1.1,6.3c3.1-1.8,5.6-4.4,7.5-7.4L85.8,79.6z"/>
	<path class="st2" d="M63.6,49.3l0.5,2.6l3.9-0.7l0.7-3.9C66.9,47.7,65.2,48.4,63.6,49.3z"/>
	<path class="st2" d="M78.5,84.5L74,83.7l4.5-0.8l0.7-4l-2.9-0.5l7-1.3l1.1-6c-1-0.5-3-1.3-5.3-1.3c-2.8,0-5.3,1.7-5.3,1.7
		s-2.9,1.3-5.4,1.3c-2.5,0-4.6-1.3-4.6-1.3s-2.4-1.7-5.7-1.7c-2.5,0-4.2,0.9-4.9,1.3C54.7,81.2,63.4,88.9,74,88.9
		c1.8,0,3.5-0.2,5.2-0.7L78.5,84.5z"/>
	<path class="st2" d="M56.6,35.3c0-1.3-1.3-1.4-1.3-1.4h-0.8v2.8h0.9C55.4,36.7,56.6,36.6,56.6,35.3z"/>
	<path class="st2" d="M87.1,35.3c0-1.3-1.3-1.4-1.3-1.4H85v2.8h0.9C85.9,36.7,87.1,36.6,87.1,35.3z"/>
	<polygon class="st2" points="64.8,56 68.7,56.7 68,52.7 64.1,52 	"/>
	<path class="st2" d="M58,65.6c3.3,0,5.7,1.7,5.7,1.7s2.2,1.3,4.6,1.3c2.5,0,5.4-1.3,5.4-1.3s2.5-1.7,5.3-1.7c3.3,0,6,1.6,6,1.6
		s2.5,1.3,4.7,1.3c2,0,4.8-1.2,5.3-1.4c0-0.3,0-0.6,0-0.9c-0.4,0.2-3.2,1.4-5.3,1.4c-2.2,0-4.7-1.3-4.7-1.3s-2.7-1.6-6-1.6
		c-2.8,0-5.3,1.7-5.3,1.7s-2.9,1.3-5.4,1.3c-2.5,0-4.6-1.3-4.6-1.3s-2.4-1.7-5.7-1.7c-2.8,0-4.7,1.1-5.2,1.4c0,0.3,0,0.6,0,0.9
		C53.4,66.7,55.3,65.6,58,65.6z"/>
	<path class="st2" d="M62.3,56l1.2-6.6c-3.2,1.9-6,4.6-7.8,7.8L62.3,56z"/>
	<polygon class="st2" points="83.3,79.6 79.4,78.9 80.1,82.9 84,83.6 	"/>
	<path class="st2" d="M499.4,53.1L483.7,0H0v115h483.7l15.7-53.1C500.2,59.5,500.2,55.5,499.4,53.1z M99.2,67.5
		c0,11.2-8.3,25.4-25.2,25.4c-0.1,0-0.4,0-0.5,0c-16.9,0-24.6-14.3-24.6-25.4c0-2.5,0-42,0-42h50.4C99.2,25.5,99.2,65,99.2,67.5z
		 M149.2,77.6h-11.8v14.6H120V26.5h29.7c0,0,22.5,0.3,22.5,25.6C172.2,76.1,149.2,77.6,149.2,77.6z M231.8,92.3h-16.4V65.8h-18.3
		v26.4h-17.4V27H197v24h18.3V27h16.5V92.3z M264.5,92.3h-16.4V26.8h16.4V92.3z M315.2,92.3h-34.4V27h16.5v49.8h17.9V92.3z
		 M340.4,92.3h-16.4V26.8h16.4V92.3z M386.4,77.6h-12.7v14.6h-17.4V26.5h30.3c0,0,21.9,1.4,21.9,25.6
		C408.4,74,386.4,77.6,386.4,77.6z M430.7,92.8c-11.3-0.9-13.9-2.1-13.9-2.1V75.4c0,0,2.6,2.1,14.1,2.1s11.1-4.7,11.1-4.7
		c-0.4-0.4,3-3.5-12.2-7.3c-16.1-4.1-15-18.8-15-18.8c0.2-18.8,16-21.2,25-21.2c5.9,0,12.4,0.9,12.4,0.9l0.2,16c0,0-1-1.4-10.8-1.6
		c-10.5-0.2-10.1,5-10.1,5c-0.1,1.2,1.2,3.9,10.4,6.1c14.4,3.5,17.6,13.6,17.6,19.8C459.5,87.6,445.5,94,430.7,92.8z"/>
	<path class="st2" d="M379.9,40.9h-6.3v21.7h7c0,0,9.2-0.9,9.2-11C389.8,41.6,379.9,40.9,379.9,40.9z"/>
	<path class="st2" d="M143.6,40.9h-6.3v21.7h7c0,0,9.2-0.9,9.2-11C153.5,41.6,143.6,40.9,143.6,40.9z"/>
	<path class="st2" d="M73.7,91.5L73.7,91.5c16,0,24-13.5,24-24c0-2.4,0-40.6,0-40.6H50.2c0,0,0,38.2,0,40.6
		C50.2,78,57.7,91.5,73.7,91.5z M90.4,34.6c0-2.4,2.1-2.7,3.2-2.7c0.8,0,1.6,0.1,1.6,0.1l0,2.1c0,0-0.1-0.2-1.4-0.2
		c-1.3,0-1.2,0.5-1.3,0.7c-0.1,0.2,0.2,0.5,1.3,0.8c1.9,0.4,2.3,1.8,2.3,2.6c0,2-1.8,2.9-3.7,2.7c-1.5-0.1-1.8-0.3-1.8-0.3v-2
		c0,0,0.3,0.3,1.8,0.3c1.5,0,1.4-0.6,1.4-0.6c-0.1-0.1,0.4-0.4-1.6-0.9C90.2,36.5,90.4,34.6,90.4,34.6z M82.8,32h3.9
		c0,0,2.8,0.2,2.8,3.3c0,2.8-2.9,3.3-2.9,3.3H85v1.9h-2.2V32z M80.7,32v8.4h-2.1l0-8.4H80.7z M73,32.1h2.1v6.4h2.3v2H73V32.1z
		 M70.9,32v8.4h-2.1l0-8.4H70.9z M60,32.1h2.2v3.1h2.4v-3.1h2.1v8.4h-2.1v-3.4h-2.4v3.4H60V32.1z M52.3,32h3.9c0,0,2.8,0.2,2.8,3.3
		c0,2.8-2.9,3.3-2.9,3.3h-1.6v1.9h-2.2V32z M74,45.2c12.4,0,22.5,10.1,22.5,22.5c0,12.4-10.1,22.5-22.5,22.5
		c-12.4,0-22.5-10.1-22.5-22.5C51.5,55.3,61.5,45.2,74,45.2z"/>
</g>
</svg>
