<?xml version="1.0" encoding="utf-8"?>
<!-- Generator: Adobe Illustrator 19.2.1, SVG Export Plug-In . SVG Version: 6.00 Build 0)  -->
<svg version="1.1" id="Lens_Etching" xmlns="http://www.w3.org/2000/svg" xmlns:xlink="http://www.w3.org/1999/xlink" x="0px"
	 y="0px" viewBox="0 0 685 115" style="enable-background:new 0 0 685 115;" xml:space="preserve">
<style type="text/css">
	.st0{opacity:0.5;}
	.st1{fill:#191919;}
	.st2{fill-rule:evenodd;clip-rule:evenodd;fill:#88E333;}
</style>
<g class="st0">
	<path class="st1" d="M50.5,92.1V25.4h10v58.2H73v8.5H50.5z"/>
	<path class="st1" d="M75.8,92.1V25.4h22.7v8.5H85.8v19H95v8.5h-9.2v22.2h13.6v8.5H75.8z"/>
	<path class="st1" d="M123.9,92.1L115,62.6c-0.3-1-2.4-7.7-4.3-16.8c0.3,7.6,0.8,20.6,0.8,24.8v21.5h-8.2V25.4h8.4l8.5,30
		c2.3,8.1,3.1,11.1,4.6,17.5c-0.5-7.9-0.9-16.5-0.9-23.8V25.4h8.1v66.7H123.9z"/>
	<path class="st1" d="M145.5,75.8c0.1,4.2,0.3,8.8,4.2,8.8c2.9,0,4.3-2.8,4.3-9.5c0-7.6-2.4-9.7-8.7-15c-2.5-2.1-8.3-7.9-8.3-18.2
		c0-9.3,3.5-17.3,12.9-17.3c9.6,0,12.4,7.9,12.9,14.6l-9.3,1.2c-0.7-7.4-2.1-7.4-3.5-7.4c-2.4,0-3.1,3.1-3.1,8
		c0,4.8,1.1,7.1,6.6,11.7c5.9,5.1,10.4,10,10.4,20.6c0,8.3-1.8,19.6-14.1,19.6c-11.6,0-13.6-9.7-13.6-16.1L145.5,75.8z"/>
	<path class="st1" d="M186,92.1V25.4h22.7v8.5H196v19h9.2v8.5H196v22.2h13.6v8.5H186z"/>
	<path class="st1" d="M217.9,92.1V33.9h-7.4v-8.5h24.7v8.5h-7.3v58.2H217.9z"/>
	<path class="st1" d="M264.8,77c-0.8,6.2-2.9,15.9-13.4,15.9c-11.8,0-15.3-10.7-15.3-34.5c0-23.6,3.7-33.8,15.2-33.8
		c7.8,0,12.4,5.2,13.5,16.7l-9.3,1.2c-0.5-6.5-1.6-9.5-4.4-9.5c-2.7,0-3.4,3-3.8,6.6c-0.7,5-0.7,12.7-0.7,19.4
		c0,6.1,0,17.1,1.4,22.2c0.2,1,1,3.3,3.4,3.3c3,0,3.5-3.3,4.1-8.7L264.8,77z"/>
	<path class="st1" d="M286.7,92.1V62.5H278v29.6h-10V25.4h10v28.1h8.7V25.4h10v66.7H286.7z"/>
	<path class="st1" d="M303.4,92.1V25.4h10v66.7H303.4z"/>
	<path class="st1" d="M340.6,92.1l-8.9-29.5c-0.3-1-2.4-7.7-4.3-16.8c0.3,7.6,0.8,20.6,0.8,24.8v21.5H320V25.4h8.4l8.5,30
		c2.3,8.1,3.1,11.1,4.6,17.5c-0.5-7.9-0.9-16.5-0.9-23.8V25.4h8.1v66.7H340.6z"/>
	<path class="st1" d="M377.3,92.5l-0.9-5.3c-1.1,2.7-3.2,5.5-8.4,5.5c-11.3,0-13.9-12.1-13.9-34.1c0-18.1,0.6-34,15.4-34
		c10.7,0,13.2,8.7,14.3,16.2l-9.8,1.3c-0.6-7.2-2.3-9-4.6-9c-3.2,0-3.9,3-4.3,6.1c-0.6,4.3-0.6,14-0.6,18.7c0,5,0.1,15.7,0.6,20.1
		c0.4,2.6,1,6.8,4.6,6.8c4.1,0,4.8-4.5,4.8-13.1v-4.3h-4.7v-8.9h14v34H377.3z"/>
</g>
<path class="st2" d="M423.4,53.1L407.7,0H0v115h407.7l15.7-53.1C424.2,59.5,424.2,55.5,423.4,53.1z M73,92.1H50.5V25.4h10v58.2H73
	V92.1z M99.4,92.1H75.8V25.4h22.7v8.5H85.8v19H95v8.5h-9.2v22.2h13.6V92.1z M132,92.1h-8.1L115,62.6c-0.3-1-2.4-7.7-4.3-16.8
	c0.3,7.6,0.8,20.6,0.8,24.8v21.5h-8.2V25.4h8.4l8.5,30c2.3,8.1,3.1,11.1,4.6,17.5c-0.5-7.9-0.9-16.5-0.9-23.8V25.4h8.1V92.1z
	 M149.8,92.9c-11.6,0-13.6-9.7-13.6-16.1l9.3-1c0.1,4.2,0.3,8.8,4.2,8.8c2.9,0,4.3-2.8,4.3-9.5c0-7.6-2.4-9.7-8.7-15
	c-2.5-2.1-8.3-7.9-8.3-18.2c0-9.3,3.5-17.3,12.9-17.3c9.6,0,12.4,7.9,12.9,14.6l-9.3,1.2c-0.7-7.4-2.1-7.4-3.5-7.4
	c-2.4,0-3.1,3.1-3.1,8c0,4.8,1.1,7.1,6.6,11.7c5.9,5.1,10.4,10,10.4,20.6C163.9,81.6,162.1,92.9,149.8,92.9z M209.6,92.1H186V25.4
	h22.7v8.5H196v19h9.2v8.5H196v22.2h13.6V92.1z M235.2,33.9h-7.3v58.2h-10V33.9h-7.4v-8.5h24.7V33.9z M248,81.2c0.2,1,1,3.3,3.4,3.3
	c3,0,3.5-3.3,4.1-8.7l9.3,1.2c-0.8,6.2-2.9,15.9-13.4,15.9c-11.8,0-15.3-10.7-15.3-34.5c0-23.6,3.7-33.8,15.2-33.8
	c7.8,0,12.4,5.2,13.5,16.7l-9.3,1.2c-0.5-6.5-1.6-9.5-4.4-9.5c-2.7,0-3.4,3-3.8,6.6c-0.7,5-0.7,12.7-0.7,19.4
	C246.6,65.1,246.6,76.1,248,81.2z M296.7,92.1h-10V62.5H278v29.6h-10V25.4h10v28.1h8.7V25.4h10V92.1z M313.4,92.1h-10V25.4h10V92.1z
	 M348.7,92.1h-8.1l-8.9-29.5c-0.3-1-2.4-7.7-4.3-16.8c0.3,7.6,0.8,20.6,0.8,24.8v21.5H320V25.4h8.4l8.5,30
	c2.3,8.1,3.1,11.1,4.6,17.5c-0.5-7.9-0.9-16.5-0.9-23.8V25.4h8.1V92.1z M365.1,78c0.4,2.6,1,6.8,4.6,6.8c4.1,0,4.8-4.5,4.8-13.1
	v-4.3h-4.7v-8.9h14v34h-6.5l-0.9-5.3c-1.1,2.7-3.2,5.5-8.4,5.5c-11.3,0-13.9-12.1-13.9-34.1c0-18.1,0.6-34,15.4-34
	c10.7,0,13.2,8.7,14.3,16.2l-9.8,1.3c-0.6-7.2-2.3-9-4.6-9c-3.2,0-3.9,3-4.3,6.1c-0.6,4.3-0.6,14-0.6,18.7
	C364.5,62.9,364.6,73.6,365.1,78z"/>
</svg>
