<?xml version="1.0" encoding="utf-8"?>
<!-- Generator: Adobe Illustrator 19.2.1, SVG Export Plug-In . SVG Version: 6.00 Build 0)  -->
<svg version="1.1" id="Ballasts" xmlns="http://www.w3.org/2000/svg" xmlns:xlink="http://www.w3.org/1999/xlink" x="0px" y="0px"
	 viewBox="0 0 685 115" style="enable-background:new 0 0 685 115;" xml:space="preserve">
<style type="text/css">
	.st0{opacity:0.5;}
	.st1{fill:#191919;}
	.st2{fill-rule:evenodd;clip-rule:evenodd;fill:#88E333;}
</style>
<g class="st0">
	<path class="st1" d="M69.2,92.1V62.5h-8.7v29.6h-10V25.4h10v28.1h8.7V25.4h10v66.7H69.2z"/>
	<path class="st1" d="M85.9,92.1V25.4h10v66.7H85.9z"/>
	<path class="st1" d="M102.5,25.4h9.5c5,0,10.2,0.2,14.6,7.1c4.1,6.2,4.5,18.9,4.5,26.3c0,30.3-7.8,33.3-17.5,33.3h-11.1V25.4z
		 M112.5,83.6c3,0,4.8,0,6.3-3.7c1.8-4.6,1.9-16.9,1.9-20.1c0-3.4,0-12.8-1-18.4c-1.4-7.5-4.1-7.5-7.2-7.5V83.6z"/>
	<path class="st1" d="M154.5,25.4h9c5.1,0,15.8,0,15.8,16.5c0,2.5,0,13.2-7.4,14.7c8.2,1.9,9.2,11.7,9.2,16.6
		c0,15.5-7.2,18.9-17.6,18.9h-9V25.4z M164,53.1h1.4c3.9,0,4.8-2.8,4.8-10.3c0-9.2-2.5-9.7-4.8-9.7H164V53.1z M164,84.2h1.7
		c4.6,0,5.4-2.9,5.4-11.6c0-11.5-2.9-11.9-5.4-11.9H164V84.2z"/>
	<path class="st1" d="M203.4,92.1l-2.3-18.4h-8L191,92.1h-8.9l10.3-66.7h9.8l10.6,66.7H203.4z M200.2,65.6l-1.5-11.9
		c-0.4-3.2-1.8-16.3-2-18.2c-0.1,1.9-0.2,3.6-0.5,6.7c-0.6,6.4-0.7,7.1-1.1,11.6l-1.3,11.8H200.2z"/>
	<path class="st1" d="M216.3,92.1V25.4h10v58.2h12.5v8.5H216.3z"/>
	<path class="st1" d="M241.7,92.1V25.4h10v58.2h12.5v8.5H241.7z"/>
	<path class="st1" d="M286.4,92.1l-2.3-18.4h-8L274,92.1h-8.9l10.3-66.7h9.8l10.6,66.7H286.4z M283.2,65.6l-1.5-11.9
		c-0.4-3.2-1.8-16.3-2-18.2c-0.1,1.9-0.2,3.6-0.5,6.7c-0.6,6.4-0.7,7.1-1.1,11.6l-1.3,11.8H283.2z"/>
	<path class="st1" d="M306.3,75.8c0.1,4.2,0.3,8.8,4.2,8.8c2.9,0,4.3-2.8,4.3-9.5c0-7.6-2.4-9.7-8.7-15c-2.5-2.1-8.3-7.9-8.3-18.2
		c0-9.3,3.5-17.3,12.9-17.3c9.6,0,12.4,7.9,12.9,14.6l-9.3,1.2c-0.7-7.4-2.1-7.4-3.5-7.4c-2.4,0-3.1,3.1-3.1,8
		c0,4.8,1.1,7.1,6.6,11.7c5.9,5.1,10.4,10,10.4,20.6c0,8.3-1.8,19.6-14.1,19.6c-11.6,0-13.6-9.7-13.6-16.1L306.3,75.8z"/>
	<path class="st1" d="M332.9,92.1V33.9h-7.4v-8.5h24.7v8.5h-7.3v58.2H332.9z"/>
	<path class="st1" d="M360.3,75.8c0.1,4.2,0.3,8.8,4.2,8.8c2.9,0,4.3-2.8,4.3-9.5c0-7.6-2.4-9.7-8.7-15c-2.5-2.1-8.3-7.9-8.3-18.2
		c0-9.3,3.5-17.3,12.9-17.3c9.6,0,12.4,7.9,12.9,14.6l-9.3,1.2c-0.7-7.4-2.1-7.4-3.5-7.4c-2.4,0-3.1,3.1-3.1,8
		c0,4.8,1.1,7.1,6.6,11.7c5.9,5.1,10.4,10,10.4,20.6c0,8.3-1.8,19.6-14.1,19.6c-11.6,0-13.6-9.7-13.6-16.1L360.3,75.8z"/>
</g>
<g>
	<path class="st2" d="M170.2,42.8c0-9.2-2.5-9.7-4.8-9.7H164v20h1.4C169.3,53.1,170.2,50.3,170.2,42.8z"/>
	<path class="st2" d="M279.7,35.5c-0.1,1.9-0.2,3.6-0.5,6.7c-0.6,6.4-0.7,7.1-1.1,11.6l-1.3,11.8h6.4l-1.5-11.9
		C281.3,50.5,279.9,37.4,279.7,35.5z"/>
	<path class="st2" d="M165.7,60.7H164v23.5h1.7c4.6,0,5.4-2.9,5.4-11.6C171.1,61.1,168.2,60.7,165.7,60.7z"/>
	<path class="st2" d="M196.7,35.5c-0.1,1.9-0.2,3.6-0.5,6.7c-0.6,6.4-0.7,7.1-1.1,11.6l-1.3,11.8h6.4l-1.5-11.9
		C198.3,50.5,196.9,37.4,196.7,35.5z"/>
	<path class="st2" d="M112.5,33.9v49.7c3,0,4.8,0,6.3-3.7c1.8-4.6,1.9-16.9,1.9-20.1c0-3.4,0-12.8-1-18.4
		C118.3,33.9,115.6,33.9,112.5,33.9z"/>
	<path class="st2" d="M418.4,53.1L402.7,0H0v115h402.7l15.7-53.1C419.2,59.5,419.2,55.5,418.4,53.1z M79.2,92.1h-10V62.5h-8.7v29.6
		h-10V25.4h10v28.1h8.7V25.4h10V92.1z M95.9,92.1h-10V25.4h10V92.1z M113.6,92.1h-11.1V25.4h9.5c5,0,10.2,0.2,14.6,7.1
		c4.1,6.2,4.5,18.9,4.5,26.3C131.1,89.1,123.3,92.1,113.6,92.1z M163.5,92.1h-9V25.4h9c5.1,0,15.8,0,15.8,16.5
		c0,2.5,0,13.2-7.4,14.7c8.2,1.9,9.2,11.7,9.2,16.6C181.1,88.7,173.9,92.1,163.5,92.1z M203.4,92.1l-2.3-18.4h-8L191,92.1h-8.9
		l10.3-66.7h9.8l10.6,66.7H203.4z M238.8,92.1h-22.5V25.4h10v58.2h12.5V92.1z M264.2,92.1h-22.5V25.4h10v58.2h12.5V92.1z
		 M286.4,92.1l-2.3-18.4h-8L274,92.1h-8.9l10.3-66.7h9.8l10.6,66.7H286.4z M310.6,92.9c-11.6,0-13.6-9.7-13.6-16.1l9.3-1
		c0.1,4.2,0.3,8.8,4.2,8.8c2.9,0,4.3-2.8,4.3-9.5c0-7.6-2.4-9.7-8.7-15c-2.5-2.1-8.3-7.9-8.3-18.2c0-9.3,3.5-17.3,12.9-17.3
		c9.6,0,12.4,7.9,12.9,14.6l-9.3,1.2c-0.7-7.4-2.1-7.4-3.5-7.4c-2.4,0-3.1,3.1-3.1,8c0,4.8,1.1,7.1,6.6,11.7
		c5.9,5.1,10.4,10,10.4,20.6C324.7,81.6,322.9,92.9,310.6,92.9z M350.2,33.9h-7.3v58.2h-10V33.9h-7.4v-8.5h24.7V33.9z M364.6,92.9
		c-11.6,0-13.6-9.7-13.6-16.1l9.3-1c0.1,4.2,0.3,8.8,4.2,8.8c2.9,0,4.3-2.8,4.3-9.5c0-7.6-2.4-9.7-8.7-15c-2.5-2.1-8.3-7.9-8.3-18.2
		c0-9.3,3.5-17.3,12.9-17.3c9.6,0,12.4,7.9,12.9,14.6l-9.3,1.2c-0.7-7.4-2.1-7.4-3.5-7.4c-2.4,0-3.1,3.1-3.1,8
		c0,4.8,1.1,7.1,6.6,11.7c5.9,5.1,10.4,10,10.4,20.6C378.7,81.6,376.9,92.9,364.6,92.9z"/>
</g>
</svg>
