<?xml version="1.0" encoding="utf-8"?>
<!-- Generator: Adobe Illustrator 19.2.1, SVG Export Plug-In . SVG Version: 6.00 Build 0)  -->
<svg version="1.1" id="Morimoto" xmlns="http://www.w3.org/2000/svg" xmlns:xlink="http://www.w3.org/1999/xlink" x="0px" y="0px"
	 viewBox="0 0 685 115" style="enable-background:new 0 0 685 115;" xml:space="preserve">
<style type="text/css">
	.st0{opacity:0.5;}
	.st1{fill:#231F20;}
	.st2{fill-rule:evenodd;clip-rule:evenodd;fill:#88E333;}
</style>
<g class="st0">
	<polygon class="st1" points="84.7,61.1 72.3,46 67.3,46 67.3,71.4 72.3,71.4 72.3,54.3 83.7,68.3 84.9,68.3 96.3,53.9 96.3,71.4 
		102,71.4 102,46 97,46 	"/>
	<path class="st1" d="M134.4,49.2H119c-2,0-3.4,0.3-4.1,0.9c-0.7,0.6-1.1,1.9-1.1,3.7v10.5c0,1.8,0.4,3.1,1.1,3.7
		c0.7,0.6,2.1,1,4.1,1h15.4c2,0,3.3-0.3,4.1-1c0.7-0.6,1.1-1.9,1.1-3.7V53.9c0-1.9-0.4-3.1-1.1-3.7
		C137.7,49.5,136.4,49.2,134.4,49.2z M134.7,65.3h-15.9V52.9h15.9V65.3z"/>
	<rect x="185.3" y="49.2" class="st1" width="4.8" height="19.8"/>
	<polygon class="st1" points="214.8,61 205.1,49.2 201.2,49.2 201.2,69.1 205.1,69.1 205.1,55.7 214.1,66.7 215,66.7 223.9,55.4 
		223.9,69.1 228.4,69.1 228.4,49.2 224.5,49.2 	"/>
	<path class="st1" d="M245.4,49.2c-2,0-3.4,0.3-4.1,0.9c-0.7,0.6-1.1,1.9-1.1,3.7v10.5c0,1.8,0.4,3.1,1.1,3.7c0.7,0.6,2.1,1,4.1,1
		h15.4c2,0,3.3-0.3,4.1-1c0.7-0.6,1.1-1.9,1.1-3.7V53.9c0-1.9-0.4-3.1-1.1-3.7c-0.7-0.6-2.1-0.9-4.1-0.9H245.4z M261,65.3h-15.9
		V52.9H261V65.3z"/>
	<polygon class="st1" points="288.3,69.1 288.3,52.8 297.9,52.8 297.9,49.2 273.9,49.2 273.9,52.8 283.5,52.8 283.5,69.1 	"/>
	<path class="st1" d="M168,61.6c3.1,0,4.6-1.3,4.6-3.8v-4.7c0-2.6-1.5-3.8-4.6-3.8h-17.9v19.8h4.8V52.7h11c1.5,0,2.2,0.5,2.2,1.6
		v2.3c0,1.1-0.7,1.6-2.2,1.6H157v1.1l10.8,9.8h6.9l-9.4-7.5H168z"/>
	<path class="st1" d="M294.4,46.2c-11-4.8-24-10.5-32.5-14.2h-33.7c12.7,3.6,32.2,9.2,49.4,14.2H294.4z"/>
	<path class="st1" d="M337.2,48.5c6.6-4.1,15.7-9.9,22.6-14.2c-1.3-1.4-3.2-2.3-5.3-2.3h-2.7c-4.6,3.9-11.8,10-17.1,14.6
		c-1-0.4-2.2-0.6-3.6-0.7c3.6-4.3,8.5-10.1,11.7-13.9h-6.7c-2.3,3.8-5.8,9.6-8.3,13.8h-4c0.6-4.1,1.5-10,2.1-13.8h-7.1
		c0.6,3.8,1.5,9.7,2.1,13.8h-4c-2.5-4.2-6-10-8.3-13.8h-6.7c3.2,3.8,8.1,9.6,11.7,13.9c-1.4,0.1-2.6,0.3-3.5,0.7
		c-5.3-4.5-12.6-10.7-17.2-14.6h-11.6c7,4.4,18.6,11.7,26.4,16.6c-0.6,0.8-0.9,1.7-1.2,2.9c-1.6-0.7-3.5-1.5-5.4-2.4v3.7v0.1
		c1.9,0.5,3.7,1.1,5.2,1.5v9.6c-3.9,1.1-9,2.6-14.8,4.3v3.9h-11v-0.8c-16.8,4.8-36.3,10.4-49.6,14.2h32.8
		c12.1-5.3,31.7-13.8,42.9-18.7c0.2,1.1,0.6,2.1,1.2,2.9c-7.4,4.6-18.1,11.4-25.2,15.8h11.3c4.6-4,11.4-9.7,16.4-13.9
		c1,0.4,2.1,0.7,3.5,0.7c-3.4,4-7.9,9.4-11.1,13.2h6.5c2.3-3.8,5.5-9.2,7.9-13.2h4c-0.6,3.9-1.4,9.3-2,13.2h6.9
		c-0.6-3.9-1.4-9.3-2-13.2h4c2.4,3.9,5.6,9.3,7.9,13.2h6.5c-3.2-3.8-7.7-9.1-11.1-13.2c1.4-0.1,2.6-0.3,3.6-0.7
		c5,4.3,11.7,9.9,16.3,13.9h3.6c1.9,0,3.5-0.7,4.8-1.8c-6.9-4.3-15.8-9.9-22.2-14c0.6-0.8,1-1.7,1.2-2.9c7,3,16.8,7.3,23.5,10.2
		v-6.5c-6.7-1.9-16.4-4.7-23.3-6.7v-3.5c6.8,0.5,16.5,1.2,23.3,1.6v-6c-6.7,0.5-16.5,1.2-23.3,1.6v-3.5c6.8-2,16.5-4.8,23.3-6.7
		v-6.5c-6.7,2.9-16.5,7.2-23.5,10.2C338.2,50.2,337.8,49.2,337.2,48.5z M335.3,64.3c0,0.4,0,0.8-0.1,1.2c-0.1,1.1-0.4,1.9-1,2.4
		c0,0-0.1,0.1-0.1,0.1c-0.6,0.5-1.5,0.8-2.7,0.9c-0.4,0-0.9,0.1-1.3,0.1h-15.4c-0.5,0-1,0-1.5-0.1c-1.2-0.1-2.1-0.4-2.6-0.9
		c0,0-0.1-0.1-0.1-0.2c-0.5-0.5-0.8-1.3-0.9-2.4c0-0.3-0.1-0.7-0.1-1.1V53.9c0-0.4,0-0.7,0.1-1.1c0.1-1.1,0.4-1.9,0.8-2.5
		c0.1-0.1,0.1-0.2,0.2-0.2c0.5-0.4,1.4-0.7,2.5-0.9c0.5-0.1,1-0.1,1.6-0.1h15.4c0.5,0,1,0,1.4,0.1c1.2,0.1,2.1,0.4,2.7,0.9
		c0,0,0.1,0.1,0.1,0.2c0.5,0.5,0.8,1.3,0.9,2.5c0,0.4,0.1,0.7,0.1,1.1V64.3z"/>
	<polygon class="st1" points="314.5,52.9 314.5,52.9 314.5,52.9 314.5,54.9 314.5,63.4 314.5,65.2 314.5,65.2 314.8,65.2 
		329.9,65.2 330.4,65.2 330.4,65.2 330.4,63.4 330.4,54.9 330.4,52.9 330.4,52.9 330.2,52.9 	"/>
	<path class="st1" d="M354.5,24.6h-291c-8.1,0-14.7,6.6-14.7,14.7v38.8c0,8.1,6.6,14.7,14.7,14.7h291c8.1,0,14.7-6.6,14.7-14.7V39.4
		C369.3,31.2,362.7,24.6,354.5,24.6z M365.6,78.2c0,6.1-5,11.1-11.1,11.1h-291c-6.1,0-11.1-5-11.1-11.1V39.4c0-6.1,5-11.1,11.1-11.1
		h291c6.1,0,11.1,5,11.1,11.1V78.2z"/>
</g>
<g>
	<rect x="118.7" y="52.9" class="st2" width="15.9" height="12.4"/>
	<path class="st2" d="M334.3,50.3c0,0-0.1-0.1-0.1-0.2c-0.5-0.5-1.4-0.8-2.7-0.9c-0.4,0-0.9-0.1-1.4-0.1h-15.4c-0.6,0-1.1,0-1.6,0.1
		c-1.2,0.1-2,0.4-2.5,0.9c-0.1,0.1-0.1,0.2-0.2,0.2c-0.5,0.5-0.7,1.3-0.8,2.5c0,0.3-0.1,0.7-0.1,1.1v10.5c0,0.4,0,0.8,0.1,1.1
		c0.1,1.1,0.4,1.9,0.9,2.4c0,0,0.1,0.1,0.1,0.2c0.5,0.5,1.4,0.8,2.6,0.9c0.5,0,0.9,0.1,1.5,0.1h15.4c0.5,0,0.9,0,1.3-0.1
		c1.3-0.1,2.2-0.4,2.7-0.9c0,0,0.1-0.1,0.1-0.1c0.5-0.5,0.8-1.3,1-2.4c0-0.4,0.1-0.8,0.1-1.2V53.9c0-0.4,0-0.8-0.1-1.1
		C335.1,51.6,334.8,50.8,334.3,50.3z M330.4,52.9v2v8.6v1.8v0h-0.5h-15.1h-0.3v0v-1.9v-8.4v-2.1v0v0h15.8L330.4,52.9L330.4,52.9z"/>
	<path class="st2" d="M409.4,53.1L393.7,0H0v115h393.7l15.7-53.1C410.2,59.5,410.2,55.5,409.4,53.1z M369.3,78.2
		c0,8.1-6.6,14.7-14.7,14.7h-291c-8.1,0-14.7-6.6-14.7-14.7V39.4c0-8.1,6.6-14.7,14.7-14.7h291c8.1,0,14.7,6.6,14.7,14.7V78.2z"/>
	<path class="st2" d="M354.5,28.3h-291c-6.1,0-11.1,5-11.1,11.1v38.8c0,6.1,5,11.1,11.1,11.1h291c6.1,0,11.1-5,11.1-11.1V39.4
		C365.6,33.3,360.6,28.3,354.5,28.3z M261.9,32c8.4,3.7,21.5,9.4,32.5,14.2h-16.8c-17.2-4.9-36.8-10.5-49.4-14.2H261.9z M273.9,52.8
		v-3.6h24v3.6h-9.6v16.3h-4.8V52.8H273.9z M265.9,53.9v10.5c0,1.8-0.4,3.1-1.1,3.7c-0.7,0.6-2.1,1-4.1,1h-15.4c-2,0-3.4-0.3-4.1-1
		c-0.7-0.6-1.1-1.9-1.1-3.7V53.9c0-1.9,0.4-3.1,1.1-3.7c0.7-0.6,2.1-0.9,4.1-0.9h15.4c2,0,3.4,0.3,4.1,0.9
		C265.6,50.8,265.9,52,265.9,53.9z M102,71.4h-5.8V53.9L84.9,68.3h-1.2l-11.5-14v17h-5V46h5l12.4,15.1L97,46h5V71.4z M139.5,64.4
		c0,1.8-0.4,3.1-1.1,3.7c-0.7,0.6-2.1,1-4.1,1H119c-2,0-3.4-0.3-4.1-1c-0.7-0.6-1.1-1.9-1.1-3.7V53.9c0-1.9,0.4-3.1,1.1-3.7
		c0.7-0.6,2.1-0.9,4.1-0.9h15.4c2,0,3.4,0.3,4.1,0.9c0.7,0.6,1.1,1.9,1.1,3.7V64.4z M167.7,69.1L157,59.3v-1.1h8.9
		c1.5,0,2.2-0.5,2.2-1.6v-2.3c0-1.1-0.7-1.6-2.2-1.6h-11v16.4h-4.8V49.2H168c3.1,0,4.6,1.3,4.6,3.8v4.7c0,2.5-1.5,3.8-4.6,3.8h-2.7
		l9.4,7.5H167.7z M190.1,69.1h-4.8V49.2h4.8V69.1z M228.4,69.1h-4.5V55.4L215,66.7h-0.9l-9-10.9v13.3h-3.9V49.2h3.9l9.7,11.8
		l9.7-11.8h3.9V69.1z M361.9,47.6c-6.7,1.9-16.4,4.7-23.3,6.7v3.5c6.8-0.5,16.5-1.2,23.3-1.6v6c-6.7-0.5-16.5-1.2-23.3-1.6V64
		c6.8,2,16.5,4.8,23.3,6.7v6.5c-6.7-2.9-16.5-7.2-23.5-10.2c-0.2,1.1-0.7,2.1-1.2,2.9c6.4,4,15.3,9.6,22.2,14
		c-1.3,1.1-3,1.8-4.8,1.8H351c-4.6-3.9-11.3-9.6-16.3-13.9c-1,0.4-2.2,0.6-3.6,0.7c3.4,4,7.9,9.4,11.1,13.2h-6.5
		c-2.3-3.8-5.5-9.2-7.9-13.2h-4c0.6,3.9,1.4,9.3,2,13.2h-6.9c0.6-3.9,1.4-9.3,2-13.2h-4c-2.4,3.9-5.6,9.3-7.9,13.2h-6.5
		c3.2-3.8,7.7-9.2,11.1-13.2c-1.4-0.1-2.6-0.3-3.5-0.7c-5,4.3-11.7,10-16.4,13.9h-11.3c7.1-4.5,17.9-11.2,25.2-15.8
		c-0.6-0.8-1-1.7-1.2-2.9c-11.1,4.8-30.7,13.4-42.9,18.7h-32.8c13.4-3.8,32.9-9.4,49.6-14.2v0.8h11v-3.9c5.8-1.7,10.9-3.1,14.8-4.3
		v-9.6c-1.6-0.4-3.3-0.9-5.2-1.5v-0.1V49c2,0.9,3.8,1.7,5.4,2.4c0.2-1.1,0.6-2.1,1.2-2.9c-7.8-4.9-19.3-12.1-26.4-16.6h11.6
		c4.6,3.9,11.9,10.1,17.2,14.6c1-0.4,2.1-0.7,3.5-0.7c-3.6-4.3-8.5-10.1-11.7-13.9h6.7c2.3,3.8,5.8,9.6,8.3,13.8h4
		c-0.6-4.1-1.5-10-2.1-13.8h7.1c-0.6,3.8-1.5,9.7-2.1,13.8h4c2.5-4.2,6-10,8.3-13.8h6.7c-3.2,3.8-8.1,9.6-11.7,13.9
		c1.4,0.1,2.6,0.3,3.6,0.7C340,42,347.2,35.9,351.8,32h2.7c2.1,0,4,0.9,5.3,2.3c-6.9,4.3-16.1,10.1-22.6,14.2c0.6,0.8,1,1.7,1.2,2.9
		c7-3,16.7-7.3,23.5-10.2V47.6z"/>
	<rect x="245.1" y="52.9" class="st2" width="15.9" height="12.4"/>
</g>
</svg>
