<?xml version="1.0" encoding="utf-8"?>
<!-- Generator: Adobe Illustrator 19.2.1, SVG Export Plug-In . SVG Version: 6.00 Build 0)  -->
<svg version="1.1" id="HID_Systems" xmlns="http://www.w3.org/2000/svg" xmlns:xlink="http://www.w3.org/1999/xlink" x="0px"
	 y="0px" viewBox="0 0 685 115" style="enable-background:new 0 0 685 115;" xml:space="preserve">
<style type="text/css">
	.st0{opacity:0.5;}
	.st1{fill:#191919;}
	.st2{fill-rule:evenodd;clip-rule:evenodd;fill:#88E333;}
</style>
<g class="st0">
	<path class="st1" d="M69.2,92.1V62.5h-8.7v29.6h-10V25.4h10v28.1h8.7V25.4h10v66.7H69.2z"/>
	<path class="st1" d="M85.9,92.1V25.4h10v66.7H85.9z"/>
	<path class="st1" d="M102.5,25.4h9.5c5,0,10.2,0.2,14.6,7.1c4.1,6.2,4.5,18.9,4.5,26.3c0,30.3-7.8,33.3-17.5,33.3h-11.1V25.4z
		 M112.5,83.6c3,0,4.8,0,6.3-3.7c1.8-4.6,1.9-16.9,1.9-20.1c0-3.4,0-12.8-1-18.4c-1.4-7.5-4.1-7.5-7.2-7.5V83.6z"/>
	<path class="st1" d="M160.9,75.8c0.1,4.2,0.3,8.8,4.2,8.8c2.9,0,4.3-2.8,4.3-9.5c0-7.6-2.4-9.7-8.7-15c-2.5-2.1-8.3-7.9-8.3-18.2
		c0-9.3,3.5-17.3,12.9-17.3c9.6,0,12.4,7.9,12.9,14.6l-9.3,1.2c-0.7-7.4-2.1-7.4-3.5-7.4c-2.4,0-3.1,3.1-3.1,8
		c0,4.8,1.1,7.1,6.6,11.7c5.9,5.1,10.4,10,10.4,20.6c0,8.3-1.8,19.6-14.1,19.6c-11.6,0-13.6-9.7-13.6-16.1L160.9,75.8z"/>
	<path class="st1" d="M189.2,92.1v-28l-10.1-38.7h9.9l3,14c1.3,6,2.6,11.8,2.9,17c0.5-6.1,2.2-15.8,2.6-17.5l2.7-13.5h9.5
		l-10.5,38.5v28.2H189.2z"/>
	<path class="st1" d="M218.8,75.8c0.1,4.2,0.3,8.8,4.2,8.8c2.9,0,4.3-2.8,4.3-9.5c0-7.6-2.4-9.7-8.7-15c-2.5-2.1-8.3-7.9-8.3-18.2
		c0-9.3,3.5-17.3,12.9-17.3c9.6,0,12.4,7.9,12.9,14.6l-9.3,1.2c-0.7-7.4-2.1-7.4-3.5-7.4c-2.4,0-3.1,3.1-3.1,8
		c0,4.8,1.1,7.1,6.6,11.7c5.9,5.1,10.4,10,10.4,20.6c0,8.3-1.8,19.6-14.1,19.6c-11.6,0-13.6-9.7-13.6-16.1L218.8,75.8z"/>
	<path class="st1" d="M245.4,92.1V33.9H238v-8.5h24.7v8.5h-7.3v58.2H245.4z"/>
	<path class="st1" d="M265.6,92.1V25.4h22.7v8.5h-12.7v19h9.2v8.5h-9.2v22.2h13.6v8.5H265.6z"/>
	<path class="st1" d="M322,92.1V66.9c0-3.4,0.2-14.4,0.3-24.3c-0.2,1.2-2.3,17.4-3.3,24.3l-3.9,25.2h-7.4l-4.1-25.8
		c-2.3-14.5-2.3-14.6-3.2-23.7c0.3,13.1,0.5,20.8,0.5,24v25.5h-7.8V25.4h10.8l5.5,35c0.8,4.5,1.4,11.2,2.1,18.9
		c0.3-6.6,0.9-11,2.2-18.9l5.3-35h11.1v66.7H322z"/>
	<path class="st1" d="M343.6,75.8c0.1,4.2,0.3,8.8,4.2,8.8c2.9,0,4.3-2.8,4.3-9.5c0-7.6-2.4-9.7-8.7-15c-2.5-2.1-8.3-7.9-8.3-18.2
		c0-9.3,3.5-17.3,12.9-17.3c9.6,0,12.4,7.9,12.9,14.6l-9.3,1.2c-0.7-7.4-2.1-7.4-3.5-7.4c-2.4,0-3.1,3.1-3.1,8
		c0,4.8,1.1,7.1,6.6,11.7c5.9,5.1,10.4,10,10.4,20.6c0,8.3-1.8,19.6-14.1,19.6c-11.6,0-13.6-9.7-13.6-16.1L343.6,75.8z"/>
</g>
<g>
	<path class="st2" d="M112.5,33.9v49.7c3,0,4.8,0,6.3-3.7c1.8-4.6,1.9-16.9,1.9-20.1c0-3.4,0-12.8-1-18.4
		C118.3,33.9,115.6,33.9,112.5,33.9z"/>
	<path class="st2" d="M402.4,53.1L386.7,0H0v115h386.7l15.7-53.1C403.2,59.5,403.2,55.5,402.4,53.1z M79.2,92.1h-10V62.5h-8.7v29.6
		h-10V25.4h10v28.1h8.7V25.4h10V92.1z M95.9,92.1h-10V25.4h10V92.1z M113.6,92.1h-11.1V25.4h9.5c5,0,10.2,0.2,14.6,7.1
		c4.1,6.2,4.5,18.9,4.5,26.3C131.1,89.1,123.3,92.1,113.6,92.1z M165.2,92.9c-11.6,0-13.6-9.7-13.6-16.1l9.3-1
		c0.1,4.2,0.3,8.8,4.2,8.8c2.9,0,4.3-2.8,4.3-9.5c0-7.6-2.4-9.7-8.7-15c-2.5-2.1-8.3-7.9-8.3-18.2c0-9.3,3.5-17.3,12.9-17.3
		c9.6,0,12.4,7.9,12.9,14.6l-9.3,1.2c-0.7-7.4-2.1-7.4-3.5-7.4c-2.4,0-3.1,3.1-3.1,8c0,4.8,1.1,7.1,6.6,11.7
		c5.9,5.1,10.4,10,10.4,20.6C179.3,81.6,177.5,92.9,165.2,92.9z M199.2,92.1h-10v-28l-10.1-38.7h9.9l3,14c1.3,6,2.6,11.8,2.9,17
		c0.5-6.1,2.2-15.8,2.6-17.5l2.7-13.5h9.5l-10.5,38.5V92.1z M223.1,92.9c-11.6,0-13.6-9.7-13.6-16.1l9.3-1c0.1,4.2,0.3,8.8,4.2,8.8
		c2.9,0,4.3-2.8,4.3-9.5c0-7.6-2.4-9.7-8.7-15c-2.5-2.1-8.3-7.9-8.3-18.2c0-9.3,3.5-17.3,12.9-17.3c9.6,0,12.4,7.9,12.9,14.6
		l-9.3,1.2c-0.7-7.4-2.1-7.4-3.5-7.4c-2.4,0-3.1,3.1-3.1,8c0,4.8,1.1,7.1,6.6,11.7c5.9,5.1,10.4,10,10.4,20.6
		C237.2,81.6,235.4,92.9,223.1,92.9z M262.7,33.9h-7.3v58.2h-10V33.9H238v-8.5h24.7V33.9z M289.2,92.1h-23.6V25.4h22.7v8.5h-12.7v19
		h9.2v8.5h-9.2v22.2h13.6V92.1z M330.1,92.1H322V66.9c0-3.4,0.2-14.4,0.3-24.3c-0.2,1.2-2.3,17.4-3.3,24.3l-3.9,25.2h-7.4l-4.1-25.8
		c-2.3-14.5-2.3-14.6-3.2-23.7c0.3,13.1,0.5,20.8,0.5,24v25.5h-7.8V25.4h10.8l5.5,35c0.8,4.5,1.4,11.2,2.1,18.9
		c0.3-6.6,0.9-11,2.2-18.9l5.3-35h11.1V92.1z M347.9,92.9c-11.6,0-13.6-9.7-13.6-16.1l9.3-1c0.1,4.2,0.3,8.8,4.2,8.8
		c2.9,0,4.3-2.8,4.3-9.5c0-7.6-2.4-9.7-8.7-15c-2.5-2.1-8.3-7.9-8.3-18.2c0-9.3,3.5-17.3,12.9-17.3c9.6,0,12.4,7.9,12.9,14.6
		l-9.3,1.2c-0.7-7.4-2.1-7.4-3.5-7.4c-2.4,0-3.1,3.1-3.1,8c0,4.8,1.1,7.1,6.6,11.7c5.9,5.1,10.4,10,10.4,20.6
		C362,81.6,360.2,92.9,347.9,92.9z"/>
</g>
</svg>
