<?xml version="1.0" encoding="utf-8"?>
<!-- Generator: Adobe Illustrator 19.2.1, SVG Export Plug-In . SVG Version: 6.00 Build 0)  -->
<svg version="1.1" id="JWSpeaker" xmlns="http://www.w3.org/2000/svg" xmlns:xlink="http://www.w3.org/1999/xlink" x="0px" y="0px"
	 viewBox="0 0 685 115" style="enable-background:new 0 0 685 115;" xml:space="preserve">
<style type="text/css">
	.st0{opacity:0.5;}
	.st1{fill:#231F20;}
	.st2{fill-rule:evenodd;clip-rule:evenodd;fill:#88E333;}
</style>
<g class="st0">
	<path class="st1" d="M368.1,92.9l50.7-29.2l-75.4-39.1c28.2,19.5,36,31.7,35.6,43.5C378.6,77.2,373.5,85,368.1,92.9z"/>
	<g>
		<path class="st1" d="M48.4,74.4l1.6-5.8h6c1.3,0,2.3-0.3,2.9-0.8c0.6-0.5,1.1-1.3,1.4-2.4l4.5-15.8h6.8L67,65.9
			c-0.5,1.6-1,2.9-1.6,4c-0.6,1.1-1.4,2-2.3,2.6c-0.9,0.7-2,1.1-3.4,1.5c-1.3,0.3-2.9,0.5-4.8,0.5H48.4z"/>
		<path class="st1" d="M70.3,74.4c-0.7,0-1.1-0.1-1.4-0.3c-0.3-0.2-0.4-0.5-0.3-0.9c0-0.2,0.1-0.4,0.1-0.5l0.8-2.6
			c0.2-0.6,0.4-1,0.8-1.3c0.4-0.3,0.9-0.4,1.7-0.4h2c0.7,0,1.1,0.1,1.4,0.3c0.3,0.2,0.4,0.5,0.3,0.9c0,0.1,0,0.1,0,0.2
			c0,0.1,0,0.2-0.1,0.3l-0.8,2.6c-0.2,0.6-0.4,1-0.8,1.3c-0.3,0.3-0.9,0.4-1.7,0.4H70.3z"/>
		<path class="st1" d="M117.7,74.4c-0.7,0-1.1-0.1-1.4-0.3c-0.3-0.2-0.4-0.5-0.3-0.9c0-0.2,0-0.4,0.1-0.5l0.8-2.6
			c0.2-0.6,0.4-1,0.8-1.3c0.4-0.3,0.9-0.4,1.7-0.4h2c0.7,0,1.1,0.1,1.4,0.3c0.3,0.2,0.4,0.5,0.3,0.9c0,0.1,0,0.1,0,0.2
			c0,0.1,0,0.2-0.1,0.3l-0.8,2.6c-0.2,0.6-0.4,1-0.8,1.3c-0.3,0.3-0.9,0.4-1.7,0.4H117.7z"/>
		<path class="st1" d="M100,58.3L89.2,72.2c-0.7,0.9-1.4,1.6-2.3,2.1c-0.8,0.5-1.8,0.8-2.9,0.8c-1.1,0-1.9-0.3-2.3-0.8
			c-0.5-0.5-0.7-1.2-0.9-2.1l-2.9-22.5h7.3l1.6,16.2l10.6-14.2c0.8-1,1.5-1.8,2.2-2.1c0.7-0.4,1.6-0.6,2.7-0.6
			c1.1,0,1.9,0.2,2.4,0.6c0.5,0.4,0.9,1.1,1,2.1l2.4,14.2l11-16.2h7.8l-16.1,22.5c-0.6,0.8-1.3,1.5-2.1,2.1
			c-0.8,0.5-1.7,0.8-2.7,0.8c-1.1,0-1.9-0.3-2.4-0.8c-0.5-0.5-0.9-1.2-1-2.1L100,58.3z"/>
		<path class="st1" d="M131.7,74.4l1.6-5.7H152c1.4,0,2.3-0.5,2.6-1.6c0.2-0.5,0.3-0.9,0.3-1.1c0-0.2,0.1-0.3,0.1-0.4
			c0-0.4-0.1-0.7-0.3-0.8c-0.3-0.1-0.8-0.2-1.4-0.2h-11.4c-2.4,0-4-0.3-4.9-1.1c-0.9-0.7-1.2-1.8-1.1-3.3c0-0.3,0.1-0.7,0.2-1.2
			c0.1-0.5,0.3-1.2,0.6-2.3c0.4-1.3,0.8-2.4,1.4-3.3c0.5-0.9,1.2-1.6,1.9-2.2c0.8-0.6,1.6-1,2.6-1.2c1-0.3,2.2-0.4,3.5-0.4h18.6
			l-1.6,5.7h-17.8c-0.7,0-1.2,0.1-1.6,0.4c-0.4,0.3-0.7,0.7-0.8,1.3c-0.1,0.4-0.2,0.7-0.2,0.9c0,0.2-0.1,0.3-0.1,0.4
			c0,0.4,0.1,0.7,0.3,0.8c0.2,0.1,0.7,0.1,1.3,0.1h11.1c2.4,0,4.2,0.4,5.2,1.1c1,0.7,1.4,1.9,1.2,3.5c0,0.1,0,0.3-0.1,0.5
			c0,0.2-0.1,0.4-0.1,0.7c-0.1,0.3-0.2,0.7-0.3,1.1c-0.1,0.5-0.3,1-0.5,1.7c-0.3,1.2-0.8,2.2-1.3,3c-0.5,0.8-1.2,1.5-1.9,2
			c-0.8,0.5-1.7,0.9-2.8,1.2c-1.1,0.2-2.3,0.4-3.7,0.4H131.7z"/>
		<path class="st1" d="M170.9,67.5l-1.9,6.9h-6.8l7-24.8h20.1c1.5,0,2.8,0.1,3.8,0.3c1,0.2,1.9,0.5,2.5,1c0.6,0.4,1.1,1,1.3,1.7
			c0.2,0.7,0.3,1.5,0.2,2.5c0,0.2,0,0.4-0.1,0.6c0,0.2-0.1,0.5-0.2,0.9c-0.1,0.4-0.2,0.8-0.3,1.3c-0.1,0.5-0.3,1.2-0.6,2
			c-0.4,1.5-1,2.7-1.5,3.7c-0.6,1-1.3,1.8-2.2,2.3c-0.9,0.6-2,1-3.3,1.2c-1.3,0.2-2.9,0.3-4.7,0.3H170.9z M189.2,59.5
			c0.1-0.5,0.2-0.8,0.3-1.1c0.1-0.3,0.1-0.5,0.2-0.7c0-0.2,0.1-0.3,0.1-0.4c0-0.1,0-0.2,0-0.3c0.1-0.6-0.1-1-0.5-1.2
			c-0.4-0.2-1.1-0.3-2.1-0.3h-13l-1.8,6.5h13c1.1,0,1.9-0.2,2.4-0.6C188.5,61,188.9,60.3,189.2,59.5"/>
		<path class="st1" d="M204.5,74.4c-1.5,0-2.8-0.1-3.9-0.3c-1.1-0.2-1.9-0.5-2.5-1c-0.6-0.4-1.1-1-1.3-1.7c-0.2-0.7-0.3-1.6-0.2-2.6
			c0-0.2,0.1-0.5,0.1-0.8c0.1-0.3,0.2-0.8,0.4-1.5c0.2-0.7,0.5-1.7,0.8-3.1c0.4-1.3,0.8-3.1,1.5-5.3c0.4-1.5,1-2.9,1.6-4
			c0.6-1.1,1.4-2,2.3-2.6c0.9-0.7,2.1-1.1,3.4-1.5c1.3-0.3,2.9-0.5,4.8-0.5h17.2l-1.6,5.7h-17.2c-1.1,0-1.9,0.2-2.4,0.7
			c-0.5,0.5-0.9,1.2-1.2,2l-0.4,1.3h20.3l-1.5,5.3h-20.3c-0.3,0.9-0.4,1.6-0.5,1.9c-0.1,0.3-0.1,0.6-0.2,0.8
			c-0.1,0.6,0.1,0.9,0.4,1.1c0.3,0.2,1,0.3,1.9,0.3h17.6l-1.6,5.7H204.5z"/>
		<path class="st1" d="M302.1,74.4c-1.5,0-2.8-0.1-3.9-0.3c-1.1-0.2-1.9-0.5-2.5-1c-0.6-0.4-1.1-1-1.3-1.7c-0.2-0.7-0.3-1.6-0.2-2.6
			c0-0.2,0.1-0.5,0.1-0.8c0.1-0.3,0.2-0.8,0.4-1.5c0.2-0.7,0.5-1.7,0.8-3.1c0.4-1.3,0.8-3.1,1.5-5.3c0.4-1.5,1-2.9,1.6-4
			c0.6-1.1,1.4-2,2.3-2.6c0.9-0.7,2.1-1.1,3.4-1.5c1.3-0.3,2.9-0.5,4.8-0.5h17.2l-1.6,5.7h-17.2c-1.1,0-1.9,0.2-2.4,0.7
			c-0.5,0.5-0.9,1.2-1.2,2l-0.4,1.3h20.3l-1.5,5.3H302c-0.3,0.9-0.4,1.6-0.5,1.9c-0.1,0.3-0.1,0.6-0.2,0.8c-0.1,0.6,0.1,0.9,0.4,1.1
			c0.3,0.2,1,0.3,1.9,0.3h17.6l-1.6,5.7H302.1z"/>
		<path class="st1" d="M255.1,74.4l-1.8-5.3h-15.7l-4.7,5.3h-8L245.1,52c0.8-0.9,1.6-1.6,2.5-2.1c0.9-0.5,2-0.8,3.4-0.8
			c0.7,0,1.3,0.1,1.7,0.2c0.5,0.1,0.9,0.3,1.2,0.6c0.3,0.3,0.6,0.6,0.8,0.9c0.2,0.4,0.4,0.8,0.5,1.2l7.4,22.5H255.1z M251.7,64.1
			c-0.4-1-0.7-1.9-0.9-2.7c-0.3-0.8-0.5-1.6-0.7-2.2c-0.2-0.7-0.4-1.3-0.5-1.8c-0.2-0.5-0.3-1-0.4-1.5c-0.4,0.5-0.8,1-1.3,1.5
			c-0.4,0.5-1,1.1-1.5,1.8c-0.6,0.7-1.2,1.4-2,2.2c-0.7,0.8-1.6,1.7-2.5,2.7H251.7z"/>
		<polygon class="st1" points="283.6,74.4 275.1,62.4 271.7,74.4 264.9,74.4 271.9,49.7 278.7,49.7 275.4,61.4 289.9,49.7 
			298.9,49.7 283.3,61.9 292.2,74.4 		"/>
		<path class="st1" d="M343.5,74.4l-10.5-9l-2.5,9h-6.8l7-24.8h19.9c1.5,0,2.8,0.1,3.9,0.3c1.1,0.2,1.9,0.5,2.6,0.9
			c0.7,0.4,1.1,1,1.4,1.6c0.3,0.7,0.3,1.5,0.2,2.5c0,0.2,0,0.4-0.1,0.6c0,0.2-0.1,0.5-0.2,0.8c-0.1,0.3-0.2,0.7-0.3,1.1
			c-0.1,0.4-0.3,1-0.5,1.7c-0.4,1.5-1,2.7-1.6,3.6c-0.6,0.9-1.4,1.7-2.4,2.2c-0.9,0.5-2,0.9-3.2,1.1c-1.2,0.2-2.6,0.3-4.2,0.3h-3.1
			l10.5,8.2H343.5z M350.9,58.9c0.2-0.8,0.4-1.3,0.4-1.6c0.1-0.3,0.1-0.5,0.1-0.6c0.1-0.6-0.1-1-0.4-1.1c-0.3-0.2-0.9-0.2-1.6-0.2
			h-13.7l-1.6,5.9h12.4c1.4,0,2.4-0.2,3-0.5C350.2,60.4,350.7,59.8,350.9,58.9"/>
	</g>
	<path class="st1" d="M360.7,68.6c1.6,0,2.9,1.3,2.9,2.9c0,1.6-1.3,2.9-3,2.9c-1.7,0-3-1.3-3-2.9C357.7,69.9,359.1,68.6,360.7,68.6
		L360.7,68.6z M360.7,69.2c-1.3,0-2.2,1-2.2,2.3c0,1.3,1,2.3,2.3,2.3c1.2,0,2.2-1,2.2-2.3C362.9,70.3,362,69.2,360.7,69.2
		L360.7,69.2z M360.3,73h-0.7v-2.9c0.3,0,0.6-0.1,1.1-0.1c0.5,0,0.8,0.1,1,0.2c0.2,0.1,0.3,0.3,0.3,0.6c0,0.4-0.3,0.6-0.6,0.7v0
		c0.3,0.1,0.4,0.3,0.5,0.7c0.1,0.4,0.2,0.6,0.2,0.7h-0.7c-0.1-0.1-0.1-0.4-0.2-0.7c-0.1-0.3-0.2-0.4-0.6-0.4h-0.3V73z M360.3,71.4
		h0.3c0.4,0,0.7-0.1,0.7-0.4c0-0.3-0.2-0.4-0.6-0.4c-0.2,0-0.3,0-0.4,0V71.4z"/>
</g>
<g>
	<path class="st2" d="M360.7,69.2L360.7,69.2c-1.3,0-2.2,1-2.2,2.3c0,1.3,1,2.3,2.3,2.3c1.2,0,2.2-1,2.2-2.3
		C362.9,70.3,362,69.2,360.7,69.2z M361.4,73c-0.1-0.1-0.1-0.4-0.2-0.7c-0.1-0.3-0.2-0.4-0.6-0.4h-0.3V73h-0.7v-2.9
		c0.3,0,0.6-0.1,1.1-0.1c0.5,0,0.8,0.1,1,0.2c0.2,0.1,0.3,0.3,0.3,0.6c0,0.4-0.3,0.6-0.6,0.7v0c0.3,0.1,0.4,0.3,0.5,0.7
		c0.1,0.4,0.2,0.6,0.2,0.7H361.4z"/>
	<path class="st2" d="M250.1,59.1c-0.2-0.7-0.4-1.3-0.5-1.8c-0.2-0.5-0.3-1-0.4-1.5c-0.4,0.5-0.8,1-1.3,1.5c-0.4,0.5-1,1.1-1.5,1.8
		c-0.6,0.7-1.2,1.4-2,2.2c-0.7,0.8-1.6,1.7-2.5,2.7h9.8c-0.4-1-0.7-1.9-0.9-2.7C250.5,60.5,250.3,59.8,250.1,59.1z"/>
	<path class="st2" d="M351.1,55.6c-0.3-0.2-0.9-0.2-1.6-0.2h-13.7l-1.6,5.9h12.4c1.4,0,2.4-0.2,3-0.5c0.6-0.3,1.1-1,1.3-1.8
		c0.2-0.8,0.4-1.3,0.4-1.6c0.1-0.3,0.1-0.5,0.1-0.6C351.6,56.1,351.4,55.8,351.1,55.6z"/>
	<path class="st2" d="M360.6,70.5c-0.2,0-0.3,0-0.4,0v0.8h0.3c0.4,0,0.7-0.1,0.7-0.4C361.3,70.7,361.1,70.5,360.6,70.5z"/>
	<path class="st2" d="M189.4,55.8c-0.4-0.2-1.1-0.3-2.1-0.3h-13l-1.8,6.5h13c1.1,0,1.9-0.2,2.4-0.6c0.6-0.4,1-1.1,1.2-1.9
		c0.1-0.5,0.2-0.8,0.3-1.1c0.1-0.3,0.1-0.5,0.2-0.7c0-0.2,0.1-0.3,0.1-0.4c0-0.1,0-0.2,0-0.3C189.9,56.4,189.7,56,189.4,55.8z"/>
	<path class="st2" d="M458.4,53.1L442.7,0H0v115h442.7l15.7-53.1C459.2,59.5,459.2,55.5,458.4,53.1z M65.4,69.9
		c-0.6,1.1-1.4,2-2.3,2.6c-0.9,0.7-2,1.1-3.4,1.5c-1.3,0.3-2.9,0.5-4.8,0.5h-6.5l1.6-5.8h6c1.3,0,2.3-0.3,2.9-0.8
		c0.6-0.5,1.1-1.3,1.4-2.4l4.5-15.8h6.8L67,65.9C66.5,67.5,66,68.8,65.4,69.9z M75.7,69.9c0,0.1,0,0.2-0.1,0.3l-0.8,2.6
		c-0.2,0.6-0.4,1-0.8,1.3c-0.3,0.3-0.9,0.4-1.7,0.4h-2c-0.7,0-1.1-0.1-1.4-0.3c-0.3-0.2-0.4-0.5-0.3-0.9c0-0.2,0.1-0.4,0.1-0.5
		l0.8-2.6c0.2-0.6,0.4-1,0.8-1.3c0.4-0.3,0.9-0.4,1.7-0.4h2c0.7,0,1.1,0.1,1.4,0.3c0.3,0.2,0.4,0.5,0.3,0.9
		C75.7,69.7,75.7,69.8,75.7,69.9z M123,69.9c0,0.1,0,0.2-0.1,0.3l-0.8,2.6c-0.2,0.6-0.4,1-0.8,1.3c-0.3,0.3-0.9,0.4-1.7,0.4h-2
		c-0.7,0-1.1-0.1-1.4-0.3c-0.3-0.2-0.4-0.5-0.3-0.9c0-0.2,0-0.4,0.1-0.5l0.8-2.6c0.2-0.6,0.4-1,0.8-1.3c0.4-0.3,0.9-0.4,1.7-0.4h2
		c0.7,0,1.1,0.1,1.4,0.3c0.3,0.2,0.4,0.5,0.3,0.9C123.1,69.7,123,69.8,123,69.9z M110.8,72.2c-0.6,0.8-1.3,1.5-2.1,2.1
		c-0.8,0.5-1.7,0.8-2.7,0.8c-1.1,0-1.9-0.3-2.4-0.8c-0.5-0.5-0.9-1.2-1-2.1L100,58.3L89.2,72.2c-0.7,0.9-1.4,1.6-2.3,2.1
		c-0.8,0.5-1.8,0.8-2.9,0.8c-1.1,0-1.9-0.3-2.3-0.8c-0.5-0.5-0.7-1.2-0.9-2.1l-2.9-22.5h7.3l1.6,16.2l10.6-14.2
		c0.8-1,1.5-1.8,2.2-2.1c0.7-0.4,1.6-0.6,2.7-0.6c1.1,0,1.9,0.2,2.4,0.6c0.5,0.4,0.9,1.1,1,2.1l2.4,14.2l11-16.2h7.8L110.8,72.2z
		 M161.7,63.9c0,0.1,0,0.3-0.1,0.5c0,0.2-0.1,0.4-0.1,0.7c-0.1,0.3-0.2,0.7-0.3,1.1c-0.1,0.5-0.3,1-0.5,1.7c-0.3,1.2-0.8,2.2-1.3,3
		c-0.5,0.8-1.2,1.5-1.9,2c-0.8,0.5-1.7,0.9-2.8,1.2c-1.1,0.2-2.3,0.4-3.7,0.4h-19.3l1.6-5.7H152c1.4,0,2.3-0.5,2.6-1.6
		c0.2-0.5,0.3-0.9,0.3-1.1c0-0.2,0.1-0.3,0.1-0.4c0-0.4-0.1-0.7-0.3-0.8c-0.3-0.1-0.8-0.2-1.4-0.2h-11.4c-2.4,0-4-0.3-4.9-1.1
		c-0.9-0.7-1.2-1.8-1.1-3.3c0-0.3,0.1-0.7,0.2-1.2c0.1-0.5,0.3-1.2,0.6-2.3c0.4-1.3,0.8-2.4,1.4-3.3c0.5-0.9,1.2-1.6,1.9-2.2
		c0.8-0.6,1.6-1,2.6-1.2c1-0.3,2.2-0.4,3.5-0.4h18.6l-1.6,5.7h-17.8c-0.7,0-1.2,0.1-1.6,0.4c-0.4,0.3-0.7,0.7-0.8,1.3
		c-0.1,0.4-0.2,0.7-0.2,0.9c0,0.2-0.1,0.3-0.1,0.4c0,0.4,0.1,0.7,0.3,0.8c0.2,0.1,0.7,0.1,1.3,0.1h11.1c2.4,0,4.2,0.4,5.2,1.1
		C161.4,61.1,161.8,62.2,161.7,63.9z M195.9,59.9c-0.4,1.5-1,2.7-1.5,3.7c-0.6,1-1.3,1.8-2.2,2.3c-0.9,0.6-2,1-3.3,1.2
		c-1.3,0.2-2.9,0.3-4.7,0.3h-13.3l-1.9,6.9h-6.8l7-24.8h20.1c1.5,0,2.8,0.1,3.8,0.3c1,0.2,1.9,0.5,2.5,1c0.6,0.4,1.1,1,1.3,1.7
		c0.2,0.7,0.3,1.5,0.2,2.5c0,0.2,0,0.4-0.1,0.6c0,0.2-0.1,0.5-0.2,0.9c-0.1,0.4-0.2,0.8-0.3,1.3C196.3,58.5,196.1,59.1,195.9,59.9z
		 M204.2,68.5c0.3,0.2,1,0.3,1.9,0.3h17.6l-1.6,5.7h-17.6c-1.5,0-2.8-0.1-3.9-0.3c-1.1-0.2-1.9-0.5-2.5-1c-0.6-0.4-1.1-1-1.3-1.7
		c-0.2-0.7-0.3-1.6-0.2-2.6c0-0.2,0.1-0.5,0.1-0.8c0.1-0.3,0.2-0.8,0.4-1.5c0.2-0.7,0.5-1.7,0.8-3.1c0.4-1.3,0.8-3.1,1.5-5.3
		c0.4-1.5,1-2.9,1.6-4c0.6-1.1,1.4-2,2.3-2.6c0.9-0.7,2.1-1.1,3.4-1.5c1.3-0.3,2.9-0.5,4.8-0.5h17.2l-1.6,5.7h-17.2
		c-1.1,0-1.9,0.2-2.4,0.7c-0.5,0.5-0.9,1.2-1.2,2l-0.4,1.3h20.3l-1.5,5.3h-20.3c-0.3,0.9-0.4,1.6-0.5,1.9c-0.1,0.3-0.1,0.6-0.2,0.8
		C203.7,67.9,203.8,68.3,204.2,68.5z M255.1,74.4l-1.8-5.3h-15.7l-4.7,5.3h-8L245.1,52c0.8-0.9,1.6-1.6,2.5-2.1
		c0.9-0.5,2-0.8,3.4-0.8c0.7,0,1.3,0.1,1.7,0.2c0.5,0.1,0.9,0.3,1.2,0.6c0.3,0.3,0.6,0.6,0.8,0.9c0.2,0.4,0.4,0.8,0.5,1.2l7.4,22.5
		H255.1z M283.6,74.4l-8.5-12.1l-3.4,12.1h-6.8l7-24.8h6.8l-3.3,11.8l14.6-11.8h9l-15.6,12.3l8.9,12.5H283.6z M301.8,68.5
		c0.3,0.2,1,0.3,1.9,0.3h17.6l-1.6,5.7h-17.6c-1.5,0-2.8-0.1-3.9-0.3c-1.1-0.2-1.9-0.5-2.5-1c-0.6-0.4-1.1-1-1.3-1.7
		c-0.2-0.7-0.3-1.6-0.2-2.6c0-0.2,0.1-0.5,0.1-0.8c0.1-0.3,0.2-0.8,0.4-1.5c0.2-0.7,0.5-1.7,0.8-3.1c0.4-1.3,0.8-3.1,1.5-5.3
		c0.4-1.5,1-2.9,1.6-4c0.6-1.1,1.4-2,2.3-2.6c0.9-0.7,2.1-1.1,3.4-1.5c1.3-0.3,2.9-0.5,4.8-0.5h17.2l-1.6,5.7h-17.2
		c-1.1,0-1.9,0.2-2.4,0.7c-0.5,0.5-0.9,1.2-1.2,2l-0.4,1.3h20.3l-1.5,5.3H302c-0.3,0.9-0.4,1.6-0.5,1.9c-0.1,0.3-0.1,0.6-0.2,0.8
		C301.3,67.9,301.4,68.3,301.8,68.5z M356.1,62.6c-0.6,0.9-1.4,1.7-2.4,2.2c-0.9,0.5-2,0.9-3.2,1.1c-1.2,0.2-2.6,0.3-4.2,0.3h-3.1
		l10.5,8.2h-10.2l-10.5-9l-2.5,9h-6.8l7-24.8h19.9c1.5,0,2.8,0.1,3.9,0.3c1.1,0.2,1.9,0.5,2.6,0.9c0.7,0.4,1.1,1,1.4,1.6
		c0.3,0.7,0.3,1.5,0.2,2.5c0,0.2,0,0.4-0.1,0.6c0,0.2-0.1,0.5-0.2,0.8c-0.1,0.3-0.2,0.7-0.3,1.1c-0.1,0.4-0.3,1-0.5,1.7
		C357.3,60.5,356.7,61.7,356.1,62.6z M360.7,74.4c-1.7,0-3-1.3-3-2.9c0-1.6,1.3-2.9,3-2.9h0c1.6,0,2.9,1.3,2.9,2.9
		C363.7,73.2,362.4,74.4,360.7,74.4z M368.1,92.9c5.4-7.9,10.5-15.7,10.8-24.8c0.4-11.8-7.3-23.9-35.6-43.5l75.4,39.1L368.1,92.9z"
		/>
</g>
</svg>
