<?xml version="1.0" encoding="utf-8"?>
<!-- Generator: Adobe Illustrator 19.2.1, SVG Export Plug-In . SVG Version: 6.00 Build 0)  -->
<svg version="1.1" id="Motorcycle" xmlns="http://www.w3.org/2000/svg" xmlns:xlink="http://www.w3.org/1999/xlink" x="0px" y="0px"
	 viewBox="0 0 685 115" style="enable-background:new 0 0 685 115;" xml:space="preserve">
<style type="text/css">
	.st0{opacity:0.5;}
	.st1{fill:#191919;}
	.st2{fill-rule:evenodd;clip-rule:evenodd;fill:#88E333;}
</style>
<g class="st0">
	<path class="st1" d="M79.5,92.1V66.9c0-3.4,0.2-14.4,0.3-24.3c-0.2,1.2-2.3,17.4-3.3,24.3l-3.9,25.2h-7.4l-4.1-25.8
		c-2.3-14.5-2.3-14.6-3.2-23.7c0.3,13.1,0.5,20.8,0.5,24v25.5h-7.8V25.4h10.8l5.5,35c0.8,4.5,1.4,11.2,2.1,18.9
		c0.3-6.6,0.9-11,2.2-18.9l5.3-35h11.1v66.7H79.5z"/>
	<path class="st1" d="M108.1,24.6c10.6,0,15.2,8.4,15.2,34.2c0,25.8-4.6,34.1-15.2,34.1C94.6,92.9,93,78.4,93,58.8
		C93,39.9,94.3,24.6,108.1,24.6z M104.5,80.6c0.4,1.9,1.1,4,3.6,4c2.5,0,3.2-2,3.6-4c0.9-4.5,0.9-18.9,0.9-20.1
		c0-9.5-0.1-13.7-0.5-20.8c-0.2-4.9-1.4-6.8-4-6.8c-2.5,0-3.2,1.9-3.6,4c-0.8,4.2-0.8,21.5-0.8,21.9C103.7,64,103.7,76.1,104.5,80.6
		z"/>
	<path class="st1" d="M131.7,92.1V33.9h-7.4v-8.5H149v8.5h-7.3v58.2H131.7z"/>
	<path class="st1" d="M165.1,24.6c10.6,0,15.2,8.4,15.2,34.2c0,25.8-4.6,34.1-15.2,34.1c-13.5,0-15.1-14.5-15.1-34.1
		C150,39.9,151.3,24.6,165.1,24.6z M161.5,80.6c0.4,1.9,1.1,4,3.6,4c2.5,0,3.2-2,3.6-4c0.9-4.5,0.9-18.9,0.9-20.1
		c0-9.5-0.1-13.7-0.5-20.8c-0.2-4.9-1.4-6.8-4-6.8c-2.5,0-3.2,1.9-3.6,4c-0.8,4.2-0.8,21.5-0.8,21.9C160.7,64,160.7,76.1,161.5,80.6
		z"/>
	<path class="st1" d="M204.5,92.1L198,63.4h-2.4v28.7h-10V25.4h11.6c4.1,0,8.4,0.6,11.5,4.7c2.1,2.8,3.8,6.6,3.8,14.5
		c0,12.7-3.9,15.1-6.1,16.4l8.4,31.1H204.5z M195.6,54.7h1.6c3.7,0,4.8-1.8,4.8-10.7c0-10.1-2.2-10.1-4.8-10.1h-1.6V54.7z"/>
	<path class="st1" d="M245,77c-0.8,6.2-2.9,15.9-13.4,15.9c-11.8,0-15.3-10.7-15.3-34.5c0-23.6,3.7-33.8,15.2-33.8
		c7.8,0,12.4,5.2,13.5,16.7l-9.3,1.2c-0.5-6.5-1.6-9.5-4.4-9.5c-2.7,0-3.4,3-3.8,6.6c-0.7,5-0.7,12.7-0.7,19.4
		c0,6.1,0,17.1,1.4,22.2c0.2,1,1,3.3,3.4,3.3c3,0,3.5-3.3,4.1-8.7L245,77z"/>
	<path class="st1" d="M254.3,92.1v-28l-10.1-38.7h9.9l3,14c1.3,6,2.6,11.8,2.9,17c0.5-6.1,2.2-15.8,2.6-17.5l2.7-13.5h9.5
		l-10.5,38.5v28.2H254.3z"/>
	<path class="st1" d="M303.4,77c-0.8,6.2-2.9,15.9-13.4,15.9c-11.8,0-15.3-10.7-15.3-34.5c0-23.6,3.7-33.8,15.2-33.8
		c7.8,0,12.4,5.2,13.5,16.7l-9.3,1.2c-0.5-6.5-1.6-9.5-4.4-9.5c-2.7,0-3.4,3-3.8,6.6c-0.7,5-0.7,12.7-0.7,19.4
		c0,6.1,0,17.1,1.4,22.2c0.2,1,1,3.3,3.4,3.3c3,0,3.5-3.3,4.1-8.7L303.4,77z"/>
	<path class="st1" d="M306.6,92.1V25.4h10v58.2h12.5v8.5H306.6z"/>
	<path class="st1" d="M332,92.1V25.4h22.7v8.5H342v19h9.2v8.5H342v22.2h13.6v8.5H332z"/>
	<path class="st1" d="M383.5,75.8c0.1,4.2,0.3,8.8,4.2,8.8c2.9,0,4.3-2.8,4.3-9.5c0-7.6-2.4-9.7-8.7-15c-2.5-2.1-8.3-7.9-8.3-18.2
		c0-9.3,3.5-17.3,12.9-17.3c9.6,0,12.4,7.9,12.9,14.6l-9.3,1.2c-0.7-7.4-2.1-7.4-3.5-7.4c-2.4,0-3.1,3.1-3.1,8
		c0,4.8,1.1,7.1,6.6,11.7c5.9,5.1,10.4,10,10.4,20.6c0,8.3-1.8,19.6-14.1,19.6c-11.6,0-13.6-9.7-13.6-16.1L383.5,75.8z"/>
	<path class="st1" d="M406.1,92.1V25.4h11.2c4.2,0,8.2,0,11.5,3.8c3,3.5,4.7,8.6,4.7,16.2c0,14.7-5.1,20.1-14.3,20.1h-3.1v26.6
		H406.1z M416.1,56.4h2c3.8,0,4.9-0.9,4.9-11.5c0-11-2.1-11-4.9-11h-2V56.4z"/>
	<path class="st1" d="M437.3,92.1V25.4H460v8.5h-12.7v19h9.2v8.5h-9.2v22.2h13.6v8.5H437.3z"/>
	<path class="st1" d="M491.4,77c-0.8,6.2-2.9,15.9-13.4,15.9c-11.8,0-15.3-10.7-15.3-34.5c0-23.6,3.7-33.8,15.2-33.8
		c7.8,0,12.4,5.2,13.5,16.7l-9.3,1.2c-0.5-6.5-1.6-9.5-4.4-9.5c-2.7,0-3.4,3-3.8,6.6c-0.7,5-0.7,12.7-0.7,19.4
		c0,6.1,0,17.1,1.4,22.2c0.2,1,1,3.3,3.4,3.3c3,0,3.5-3.3,4.1-8.7L491.4,77z"/>
	<path class="st1" d="M494.6,92.1V25.4h10v66.7H494.6z"/>
	<path class="st1" d="M511.2,92.1V25.4h22.3v8.5h-12.3v19.3h9.9v8.5h-9.9v30.4H511.2z"/>
	<path class="st1" d="M537.3,92.1V25.4h10v66.7H537.3z"/>
	<path class="st1" d="M581.3,77c-0.8,6.2-2.9,15.9-13.4,15.9c-11.8,0-15.3-10.7-15.3-34.5c0-23.6,3.7-33.8,15.2-33.8
		c7.8,0,12.4,5.2,13.5,16.7l-9.3,1.2c-0.5-6.5-1.6-9.5-4.4-9.5c-2.7,0-3.4,3-3.8,6.6c-0.7,5-0.7,12.7-0.7,19.4
		c0,6.1,0,17.1,1.4,22.2c0.2,1,1,3.3,3.4,3.3c3,0,3.5-3.3,4.1-8.7L581.3,77z"/>
</g>
<g>
	<path class="st2" d="M418.1,33.9h-2v22.5h2c3.8,0,4.9-0.9,4.9-11.5C423,33.9,420.9,33.9,418.1,33.9z"/>
	<path class="st2" d="M165.1,32.9c-2.5,0-3.2,1.9-3.6,4c-0.8,4.2-0.8,21.5-0.8,21.9c0,5.2,0,17.3,0.8,21.8c0.4,1.9,1.1,4,3.6,4
		c2.5,0,3.2-2,3.6-4c0.9-4.5,0.9-18.9,0.9-20.1c0-9.5-0.1-13.7-0.5-20.8C168.9,34.8,167.7,32.9,165.1,32.9z"/>
	<path class="st2" d="M197.2,33.9h-1.6v20.8h1.6c3.7,0,4.8-1.8,4.8-10.7C202,33.9,199.8,33.9,197.2,33.9z"/>
	<path class="st2" d="M621.4,53.1L605.7,0H0v115h605.7l15.7-53.1C622.2,59.5,622.2,55.5,621.4,53.1z M87.6,92.1h-8.1V66.9
		c0-3.4,0.2-14.4,0.3-24.3c-0.2,1.2-2.3,17.4-3.3,24.3l-3.9,25.2h-7.4l-4.1-25.8c-2.3-14.5-2.3-14.6-3.2-23.7
		c0.3,13.1,0.5,20.8,0.5,24v25.5h-7.8V25.4h10.8l5.5,35c0.8,4.5,1.4,11.2,2.1,18.9c0.3-6.6,0.9-11,2.2-18.9l5.3-35h11.1V92.1z
		 M108.1,92.9C94.6,92.9,93,78.4,93,58.8c0-18.9,1.3-34.2,15.1-34.2c10.6,0,15.2,8.4,15.2,34.2C123.3,84.6,118.7,92.9,108.1,92.9z
		 M149,33.9h-7.3v58.2h-10V33.9h-7.4v-8.5H149V33.9z M165.1,92.9c-13.5,0-15.1-14.5-15.1-34.1c0-18.9,1.3-34.2,15.1-34.2
		c10.6,0,15.2,8.4,15.2,34.2C180.3,84.6,175.7,92.9,165.1,92.9z M204.5,92.1L198,63.4h-2.4v28.7h-10V25.4h11.6
		c4.1,0,8.4,0.6,11.5,4.7c2.1,2.8,3.8,6.6,3.8,14.5c0,12.7-3.9,15.1-6.1,16.4l8.4,31.1H204.5z M228.2,81.2c0.2,1,1,3.3,3.4,3.3
		c3,0,3.5-3.3,4.1-8.7L245,77c-0.8,6.2-2.9,15.9-13.4,15.9c-11.8,0-15.3-10.7-15.3-34.5c0-23.6,3.7-33.8,15.2-33.8
		c7.8,0,12.4,5.2,13.5,16.7l-9.3,1.2c-0.5-6.5-1.6-9.5-4.4-9.5c-2.7,0-3.4,3-3.8,6.6c-0.7,5-0.7,12.7-0.7,19.4
		C226.8,65.1,226.8,76.1,228.2,81.2z M264.3,92.1h-10v-28l-10.1-38.7h9.9l3,14c1.3,6,2.6,11.8,2.9,17c0.5-6.1,2.2-15.8,2.6-17.5
		l2.7-13.5h9.5l-10.5,38.5V92.1z M286.6,81.2c0.2,1,1,3.3,3.4,3.3c3,0,3.5-3.3,4.1-8.7l9.3,1.2c-0.8,6.2-2.9,15.9-13.4,15.9
		c-11.8,0-15.3-10.7-15.3-34.5c0-23.6,3.7-33.8,15.2-33.8c7.8,0,12.4,5.2,13.5,16.7l-9.3,1.2c-0.5-6.5-1.6-9.5-4.4-9.5
		c-2.7,0-3.4,3-3.8,6.6c-0.7,5-0.7,12.7-0.7,19.4C285.2,65.1,285.2,76.1,286.6,81.2z M329.1,92.1h-22.5V25.4h10v58.2h12.5V92.1z
		 M355.6,92.1H332V25.4h22.7v8.5H342v19h9.2v8.5H342v22.2h13.6V92.1z M387.8,92.9c-11.6,0-13.6-9.7-13.6-16.1l9.3-1
		c0.1,4.2,0.3,8.8,4.2,8.8c2.9,0,4.3-2.8,4.3-9.5c0-7.6-2.4-9.7-8.7-15c-2.5-2.1-8.3-7.9-8.3-18.2c0-9.3,3.5-17.3,12.9-17.3
		c9.6,0,12.4,7.9,12.9,14.6l-9.3,1.2c-0.7-7.4-2.1-7.4-3.5-7.4c-2.4,0-3.1,3.1-3.1,8c0,4.8,1.1,7.1,6.6,11.7
		c5.9,5.1,10.4,10,10.4,20.6C402,81.6,400.2,92.9,387.8,92.9z M419.2,65.5h-3.1v26.6h-10V25.4h11.2c4.2,0,8.2,0,11.5,3.8
		c3,3.5,4.7,8.6,4.7,16.2C433.5,60.1,428.4,65.5,419.2,65.5z M460.9,92.1h-23.6V25.4H460v8.5h-12.7v19h9.2v8.5h-9.2v22.2h13.6V92.1z
		 M474.6,81.2c0.2,1,1,3.3,3.4,3.3c3,0,3.5-3.3,4.1-8.7l9.3,1.2c-0.8,6.2-2.9,15.9-13.4,15.9c-11.8,0-15.3-10.7-15.3-34.5
		c0-23.6,3.7-33.8,15.2-33.8c7.8,0,12.4,5.2,13.5,16.7l-9.3,1.2c-0.5-6.5-1.6-9.5-4.4-9.5c-2.7,0-3.4,3-3.8,6.6
		c-0.7,5-0.7,12.7-0.7,19.4C473.2,65.1,473.2,76.1,474.6,81.2z M504.6,92.1h-10V25.4h10V92.1z M533.5,33.9h-12.3v19.3h9.9v8.5h-9.9
		v30.4h-10V25.4h22.3V33.9z M547.3,92.1h-10V25.4h10V92.1z M564.5,81.2c0.2,1,1,3.3,3.4,3.3c3,0,3.5-3.3,4.1-8.7l9.3,1.2
		c-0.8,6.2-2.9,15.9-13.4,15.9c-11.8,0-15.3-10.7-15.3-34.5c0-23.6,3.7-33.8,15.2-33.8c7.8,0,12.4,5.2,13.5,16.7l-9.3,1.2
		c-0.5-6.5-1.6-9.5-4.4-9.5c-2.7,0-3.4,3-3.8,6.6c-0.7,5-0.7,12.7-0.7,19.4C563.1,65.1,563.1,76.1,564.5,81.2z"/>
	<path class="st2" d="M108.1,32.9c-2.5,0-3.2,1.9-3.6,4c-0.8,4.2-0.8,21.5-0.8,21.9c0,5.2,0,17.3,0.8,21.8c0.4,1.9,1.1,4,3.6,4
		c2.5,0,3.2-2,3.6-4c0.9-4.5,0.9-18.9,0.9-20.1c0-9.5-0.1-13.7-0.5-20.8C111.9,34.8,110.7,32.9,108.1,32.9z"/>
</g>
</svg>
