<?xml version="1.0" encoding="utf-8"?>
<!-- Generator: Adobe Illustrator 20.0.0, SVG Export Plug-In . SVG Version: 6.00 Build 0)  -->
<svg version="1.1" id="Modal_Divider" xmlns="http://www.w3.org/2000/svg" xmlns:xlink="http://www.w3.org/1999/xlink" x="0px"
	 y="0px" viewBox="0 0 1300 8" style="enable-background:new 0 0 1300 8;" xml:space="preserve">
<style type="text/css">
	.st0{fill:#88E333;}
</style>
<path class="st0" d="M248.7,7.9c1.4-0.1,6.5-0.1,11.6-0.1C257.4,7.9,253,7.9,248.7,7.9z M134.8,7.7c-10.8,0-24.6-0.1-28.9,0.2
	C115.3,7.8,124.2,7.9,134.8,7.7z M215.2,7.7c-4.6,0-11.1-0.1-16.1,0c3.9,0,4.8,0.1,8.2,0.1C210.7,7.7,212.4,7.7,215.2,7.7z
	 M176.2,7.7c-2.9,0-8.4,0-9.1,0C169.3,7.7,175.5,7.8,176.2,7.7z M690.9,7.6c1.2,0,1.9,0.1,5.8,0C691.2,7.4,675.8,7.5,690.9,7.6z
	 M819.7,7.1c-2.9,0-2.4,0.1-5.8,0c-1-0.1,1.2-0.1,2.2-0.2c-7.2,0-1.2,0.2-8.2,0.2C810.8,7.2,817.6,7.2,819.7,7.1z M1086,6.9
	c-3.1,0-6.5,0-8.2,0c-1.2,0.1,7.7,0,3.6,0.1C1084.1,7.1,1086,7,1086,6.9z M937.2,7c-3.4,0-6.5,0-8.2,0.1C932.2,7,935.8,7.1,937.2,7z
	 M872.9,6.9c-3.1,0-6.7,0-6.7,0.1C868.1,7,873.9,7,872.9,6.9z M961.5,6.9c1.2,0,3.9,0,6.7,0C969.9,6.8,961.5,6.8,961.5,6.9z
	 M1300,6.1c-4.1-0.1-9.6,0-11.6,0.1C1294.2,6.2,1296.9,6.1,1300,6.1z M13.7,5.8C14.2,6,8.7,6,8.9,6.2C16.6,6.2,19.8,5.9,13.7,5.8z
	 M1257.4,6.1c1-0.1-2.4-0.1-3.6-0.1c-0.5,0-1.4,0.1-1.2,0.1C1254.7,6.1,1256.4,6.1,1257.4,6.1z M1214.5,5.9c-4.3,0-0.7,0.2-4.6,0.2
	c1.4,0,2.4,0,3.6,0C1213.1,6,1215.7,6,1214.5,5.9z M1099.5,5c0.5,0.1-3.4,0-3.6,0.1C1099.7,5.2,1104.5,5.1,1099.5,5z M1111,5
	C1112.9,5,1110.8,5,1111,5c2.2,0.1,2.6,0.1,4.6,0.1C1114.9,5.1,1112.7,4.9,1111,5z M1236.7,4.7c2.9,0,7.7,0,8.2,0.1
	c0.2-0.1,4.8-0.1,2.2-0.2c-4.8,0-8.7,0-9.1-0.1c-5.8,0.1,1,0.4-5.8,0.3c-1.4,0.2,5.8,0.2,6.7,0.1C1236,4.9,1236.7,4.8,1236.7,4.7z
	 M1257.4,4.6c-3.6,0-6,0-6.7,0.1C1253.5,4.7,1256.9,4.7,1257.4,4.6z M1268.9,4.6c-3.1,0-6.3,0-9.1,0
	C1259.1,4.7,1269.4,4.7,1268.9,4.6z M1289.6,4.5c-2.4,0.1-7.5,0-10.4,0.1C1281.2,4.6,1292.8,4.6,1289.6,4.5z M1037.4,4.2
	c-2.2,0-2.2,0-3.6,0.1c0.2,0.1,0.2,0.2,3.6,0.2C1035.2,4.3,1040,4.3,1037.4,4.2z M1027,4.2c1,0.1-1.2,0.1-1.2,0.2
	c1.2,0,2.6,0.1,3.6,0C1026.3,4.4,1032.1,4.2,1027,4.2z M46,4.1c-3.4,0-8.2,0-9.1,0.1C38.8,4.3,46.2,4.3,46,4.1z M1232.1,4.1
	c-4.3-0.1-7-0.1-10.4,0.1C1226.1,4.2,1230.2,4.2,1232.1,4.1z M1023.6,4c-2.9,0-2.4-0.1-5.8,0c-1,0.1-3.9,0.2,0,0.2
	C1018.1,4,1022.7,4.1,1023.6,4z M1125,3.9c-5.1,0-7-0.2-11.6-0.2c-3.6,0.1,3.4,0.2,5.8,0.3c1,0.1-5.5,0-4.6,0.1
	C1119.9,4.1,1123.5,4,1125,3.9z M962.5,4c1.2-0.1-3.6-0.1-5.8-0.1C957.2,4.1,959.8,4,962.5,4z M971.9,3.7c-1.2-0.1-5.8-0.2-2.2-0.3
	c-5.1,0-4.6-0.1-8.2-0.1c0.2,0.1-6.5,0-4.6,0.2c1.9,0.1,5.3-0.1,8.2,0c-3.9,0-4.3,0.2-5.8,0.3c1.9,0,3.6,0,4.6,0
	c0.2-0.1-1.2-0.1-1.2-0.1c1.7,0,4.1,0,4.6,0c-2.9,0.1-1.2,0-1.2,0.2c-2.2,0-2.6,0-4.6,0C961,4,972.8,3.8,971.9,3.7z M1185.9,3.3
	c-3.6,0-2.2,0-5.8,0c-1,0.1,2.4,0.1,3.6,0.1C1184,3.4,1185.6,3.4,1185.9,3.3z M945.4,3.1c-2.2,0.1,0.5,0.1-1.2,0.2
	C949.2,3.3,947.6,3.2,945.4,3.1z M1007.5,3.2c-1,0-2.2,0-2.2,0c0.2-0.1,2.2-0.1-1.2-0.1c-1.7,0.1,1,0.1-1.2,0.2c0.7,0,1.2,0,1.2,0
	C1006.1,3.3,1007,3.2,1007.5,3.2z M943,2.8c2.4,0.2,8.9,0.2,11.6,0.4C960.8,2.9,948.5,2.8,943,2.8z M1081.2,2.9
	c-2.2,0-2.2,0-3.6-0.1c1.7,0.1-3.9,0-3.6,0.1c3.4,0,1.2,0.1,1.2,0.1c2.2,0,2.6,0,4.6,0C1080,3,1081.9,3,1081.2,2.9z M1266.5,2.9
	c1.9,0,7.7,0.1,10.4,0C1274.2,3,1268.9,2.8,1266.5,2.9z M1159.4,2.6c-3.4,0-7.9,0-8.2,0.1C1155.1,2.7,1158.4,2.7,1159.4,2.6z
	 M1149.1,2.5c2.6,0,8.4,0,9.1,0C1153.9,2.5,1151.5,2.4,1149.1,2.5z M1148.1,2.3c5.1-0.1,11.1,0,14-0.1c-3.9,0-1.4-0.1-5.8-0.1
	c-0.2,0.2-6.3,0-9.1,0c-0.7,0.1-1.7,0.2-2.2,0.3c1.4,0,2.4,0,3.6,0C1149.8,2.3,1147.8,2.4,1148.1,2.3z M1272.3,2.2
	c-2.2-0.1-1.9,0-5.8,0c-0.5,0.1,0.5,0.2,3.6,0.1C1269.2,2.3,1272.3,2.3,1272.3,2.2z M134.8,2c0.2-0.2,13.2-0.1,10.4-0.2
	C134.1,1.9,118,2,105.9,2.2C116.3,2.3,123.5,2,134.8,2z M778.3,2.1c0,0-3.1,0-3.6,0c0.2-0.1,5.3-0.1,6.7,0c0.5-0.1-2.2-0.1-1.2-0.2
	c-3.9,0-6.5,0-9.1,0c1.9,0.1,2.2,0.1-1.2,0.2c1.7,0,4.3,0,3.6,0.1C777.1,2.2,781.2,2.2,778.3,2.1z M84,2.1c-3.6,0-9.1,0-10.4,0.1
	C77.3,2.1,82.1,2.1,84,2.1z M1196.2,2.1c-3.1,0-9.1,0-10.4,0C1190.9,2.1,1193.3,2.2,1196.2,2.1z M861.1,1.9c-2.6,0-3.9,0-6.7,0
	c-0.2,0.1,0.7,0.2,2.2,0.2C856.1,2,859.9,2,861.1,1.9z M111.5,2.1C110.8,1.9,102.3,1.9,99,2c1.7,0,6,0,5.8,0c-2.4,0-3.9,0-3.6,0.1
	C105,2.2,106.9,2,111.5,2.1z M1083.3,1.9c-2.2,0-1.9-0.1-5.8-0.1C1077.3,2,1083.1,2.1,1083.3,1.9z M1007.5,1.8
	c-3.9,0-6.5,0.2-2.2,0.2C1005.6,1.9,1008.5,2,1007.5,1.8z M1069.6,1.8c-1.9-0.1-3.6-0.1-8.2-0.1c-3.4,0.2-14.2-0.1-17.1,0.1
	c4.6,0,7-0.1,9.1,0c-2.6,0-4.3,0-4.6,0.1C1051.6,2,1059.3,2,1065,2C1062.9,1.8,1070.1,1.9,1069.6,1.8z M1054.7,1.9
	c0.7,0,1.2-0.1,1.2-0.1c3.6,0,4.3,0.1,6.7,0.1C1059.5,1.9,1057.3,1.9,1054.7,1.9z M1276.9,1.8c-7,0-5.5,0-8.2-0.1
	c-2.2,0-4.8,0-4.6,0.1c5.1,0,6,0.1,10.4,0.1C1273.8,1.8,1276.9,1.9,1276.9,1.8z M1125.9,1.8c-1.2,0.1-4.6,0-4.6,0.1c1.7,0,6,0,5.8,0
	C1120.9,1.9,1130.8,1.8,1125.9,1.8z M1004.1,1.8c-2.2,0-2.6,0-4.6,0c1.7,0.1-3.9,0-3.6,0.1c1.2,0,2.2,0,3.6,0c0.2,0,0,0.1,1.2,0.1
	C1001,1.8,1004.9,1.9,1004.1,1.8z M163.5,1.7c0.7,0.1-3.1,0.1-3.6,0.2c0.7,0,1.2,0,1.2,0c0.7,0,1.4,0,2.2,0
	C163.7,1.8,167.3,1.8,163.5,1.7z M977.6,1.7c-5.5,0-1.2,0.1-4.6,0.2c1.4,0,3.1,0,4.6,0C977.6,1.8,977.6,1.7,977.6,1.7z M907.1,1.7
	c-6,0-13.7,0-16.1,0.1C898.7,1.8,904.7,1.9,907.1,1.7z M1088.1,1.8c-4.1-0.1-8.4-0.2-14.9-0.1C1073.5,1.9,1083.3,1.8,1088.1,1.8z
	 M809.4,1.7c-3.9,0-4.8,0.1-3.6,0.2c1.7,0,4.1,0,4.6,0C807.2,1.8,809.4,1.7,809.4,1.7z M786.3,1.7c-1.7,0-3.9-0.1-3.6-0.1
	c5.1-0.1,10.1,0,14,0c2.2,0,3.9-0.1,5.8-0.1c-0.2-0.1-1.7-0.1-4.6-0.1c-2.2,0-1.7,0.2-5.8,0.1c-1.9,0-3.6-0.1-4.6-0.1
	c2.9,0,4.6-0.1,5.8-0.2c-6.3,0-6.5,0.3-10.4,0.2c-0.2-0.1,4.3-0.1,4.6-0.2c-10.4-0.2-2.6,0.3-9.1,0.2c-0.7,0.1,4.1,0.1,3.6,0.2
	c-3.1,0-7.7,0-8.2,0.2c5.8,0.1,3.1-0.1,6.7-0.1c0,0.1,1.9,0.1,0,0.1C783.6,1.8,786.3,1.8,786.3,1.7z M1035.2,1.6
	c-6.7,0-3.6,0.1-9.1,0.2c2.2,0,4.6,0,6.7,0C1033.3,1.7,1035.4,1.7,1035.2,1.6z M916.5,1.7V1.6c-3.9-0.1-3.9,0.1-6.7,0
	c-0.2,0.1,1.2,0.1,1.2,0.1c-1.2,0-2.6,0-2.2,0.1C912.2,1.8,913.9,1.7,916.5,1.7z M543.4,1.5c-1.9,0-3.6,0-4.6,0
	c2.2,0.1-1.4,0.2,2.2,0.2C540,1.6,542.9,1.6,543.4,1.5z M108.1,1.5c-3.6,0.1-6,0.1-9.1,0c-0.7,0.2,6.5,0.1,9.1,0.1
	C107.4,1.5,110.3,1.5,108.1,1.5z M155.5,1.5c-2.2,0-4.6,0-6.7,0C147.8,1.7,155.3,1.6,155.5,1.5z M948.8,1.4c2.4,0,3.9,0.1,8.2,0.1
	C957.2,1.4,950,1.3,948.8,1.4z M1220.6,1.4c-2.4,0-7.5,0-8.2,0c1.4,0,1.9,0.1,3.6,0.1C1215.3,1.4,1220.1,1.4,1220.6,1.4z
	 M1152.4,1.5c2.6,0,5.3,0,8.2,0C1160.6,1.3,1152.2,1.4,1152.4,1.5z M1240.1,1.3c-3.4,0-4.8,0-8.2,0
	C1230.9,1.4,1240.8,1.4,1240.1,1.3z M650.5,1.3c-2.4,0-7.5-0.1-8.2,0C644.5,1.4,648.6,1.3,650.5,1.3z M731.1,1.2c-2.2,0-2.6,0-4.6,0
	v0.1C729.2,1.3,730.2,1.3,731.1,1.2z M629.8,1.1c-3.9,0-11.6,0-18.5,0c0-0.1,4.8-0.1,0-0.1c-1,0.1-2.4,0.1-4.6,0.1
	C612.2,1.2,623.5,1.3,629.8,1.1z M631,1.2c2.2,0.1,5.5-0.1,8.2,0C640.4,1.1,631,1.1,631,1.2z M859,1.1c0,0.1-3.4,0-3.6,0.1
	c2.9,0,3.6,0.1,5.8,0.1C861.6,1.1,860.9,1.1,859,1.1z M391.5,1c-6,0-13.5-0.1-14.9,0C383.5,1.1,386.4,1.2,391.5,1z M400.6,1
	c2.9,0.1,5.8,0,8.2,0.1C407.8,1,400.8,0.9,400.6,1z M139.2,1c-4.3,0-3.9,0.1-5.8,0.1C136.3,1.1,139.4,1.1,139.2,1z M989,1
	c-1.9,0-7-0.1-8.2,0C982.5,1.1,986.3,1.1,989,1z M621.6,1c3.6,0,5.5,0,8.2,0.1C631.2,0.9,623,0.9,621.6,1z M1165.2,1
	c4.8,0,6.7-0.1,8.2-0.2c-11.3,0.1-17.1,0-30.1,0c2.9,0.2,0,0.2-1.2,0.3c10.8,0,18.8-0.2,26.5-0.1C1167.1,0.9,1165.9,0.9,1165.2,1z
	 M1141.1,0.8c-6.5,0-14-0.1-19.7,0c7.2,0.1,7,0.1,14,0.2C1138.5,0.9,1138,0.9,1141.1,0.8z M613.7,1c1.4,0,2.2,0.1,4.6,0
	C614.9,0.8,602.3,0.9,613.7,1z M605.5,0.9c-5.8,0-14.4,0-18.5,0C593.9,1,604,0.9,605.5,0.9z M1295.4,0.5c-1.9-0.1-6.7-0.1-9.1,0
	c1.2,0,3.4,0,3.6,0c-6.3-0.1-14.4,0.1-9.1,0.2C1281,0.5,1291.3,0.7,1295.4,0.5z M1275.7,0.5c-5.5,0-6.5,0.1-8.2,0.2
	C1271.8,0.7,1271.8,0.5,1275.7,0.5z M268.2,0c-1.2,0.1-8.4,0-6.7,0.1C262.7,0.2,272.8,0.1,268.2,0z M246.3,7.9
	c-1,0.1-9.1,0.1-5.8,0.1C241.5,7.9,250.4,8,246.3,7.9z M302.9,7.9c-2.6-0.1-5.8,0.1-8.2,0.1C297.3,7.9,302.1,8,302.9,7.9z M78.3,7.7
	c8.7-0.1,14.2,0.1,22.9-0.1c-2.2,0-2.2,0-3.6-0.1c-0.5,0.1-6.3,0.1-6.7,0c0.2-0.1,4.1,0,4.6-0.1c-2.6,0-9.1,0.1-8.2-0.1
	c0.2-0.1,9.4,0.1,8.2-0.1c-6.5,0-13.5,0.1-20.7,0C70.8,7.6,75.9,7.5,78.3,7.7z M553.7,7.1L553.7,7.1c2.4,0,3.9-0.1,5.8-0.1
	c1.2,0.1,4.6,0.1,5.8,0.2c3.4-0.1,8.4,0,9.1-0.2c2.6,0.1,6.5-0.1,9.1,0c-0.2-0.1-0.2-0.2,2.2-0.2c2.6,0.1-1.7,0.3,2.2,0.4
	c5.3-0.1,12.8,0,14-0.2c-2.6,0-5.3,0-5.8-0.1c9.9-0.1,10.8,0.3,20.7,0.3c0,0-1.9,0-2.2,0.1c14.7,0.2,41.4-0.1,53.9,0.1
	c-0.2,0-1.9,0.1,0,0.1c1-0.1,3.9-0.1,5.8-0.1c17.8,0.2,44.1,0.1,64.3,0c0.7-0.1,1.7-0.1,2.2-0.1c-3.6,0-5.1,0-8.2-0.1
	c1.2,0.1-0.5,0.1,2.2,0.2c-4.1,0-7.9,0.1-10.4,0c0.2-0.1,6.5,0,5.8-0.1c-3.1-0.1-5.3,0-6.7-0.2c3.6,0,7.2-0.1,10.4-0.1
	c0.5,0.1-1.7,0.1,0,0.1c5.3-0.2,19,0,26.5,0c-1.2,0.1-1.4,0.2-2.2,0.3c-6.5-0.1-14.4,0.2-6.7,0.1c-1,0-2.2,0-2.2,0
	c4.3,0,7.2,0,3.6,0.1c13.5-0.1,29.6,0.1,42.6-0.1c5.3,0,7.9,0.2,10.4,0c-3.1-0.1-7.5,0-9.1-0.1c-0.5-0.1,3.4,0,3.6-0.1
	c-5.8,0-8.4-0.1-14,0c1.2-0.1-3.9-0.1-3.6-0.1c19-0.1,41.4,0.2,59.7-0.3c3.9,0.1,10.4,0,12.5,0.1c-1.4,0-8.4,0-4.6,0
	c6.5,0,7.9-0.1,10.4,0c-1.2,0-1.7,0-2.2-0.1c1.9,0,3.9,0,5.8,0c-0.2,0-1.7,0.1,1.2,0.1c6.3-0.2,27.2-0.1,34.7-0.1
	c-1.9,0-2.9,0-3.6,0.1c8.9,0,14.2,0,19.7-0.2c0,0,0.2,0,1.2,0c-3.9,0.1-2.6,0.2-5.8,0.2c2.2,0.1,3.4,0.2-1.2,0.2
	c3.9,0,8.4,0.1,10.4,0c-1.4,0-3.6-0.1-4.6-0.1c4.3,0,7.2,0,8.2,0c-0.7,0-1.2,0-1.2,0c0.7,0,1.2,0,1.2,0c-4.3,0-6.7,0-6.7-0.1
	c4.6,0.1,9.9,0,14,0.2c6-0.2,17.1,0.1,16.1-0.1c4.1,0,2.2,0.1,6.7,0.1c1-0.1,3.6-0.2-1.2-0.2c12.5,0,21.2-0.2,31.1,0
	c-0.5,0.1-5.5,0.2-2.2,0.2c2.6-0.1,6.7,0.2,12.5,0.1c-0.7,0.1-5.5,0-5.8,0.1c4.1,0,6.7,0.1,8.2,0c-6,0,2.4,0,1.2-0.1
	c-2.2,0-3.9,0.1-4.6,0c4.1-0.1,5.1-0.2,10.4-0.2c-5.1,0-8.2,0.1-10.4,0c3.9,0,8.7-0.1,11.6,0c0.5,0.1-2.2,0.1-1.2,0.2
	c2.9,0,3.4-0.2,4.6-0.2c5.3,0,7.5-0.1,11.6-0.1c2.9,0.1,8.7,0.2,10.4,0.3c-5.1,0-8.2,0.1-10.4,0c0,0,1.9,0,2.2-0.1
	c-1.4-0.1-7.9-0.1-8.2,0c0.7,0.1,4.3,0,4.6,0.1c-1.4,0.1-5.1,0-8.2,0c1.7,0.2-4.8,0.1-4.6,0.2c5.3,0,6.5-0.1,9.1,0
	c-2.4-0.1,7.7,0,3.6-0.1c-1.7,0-6,0-5.8,0c14.2-0.1,24.1-0.1,38,0c-1.2,0-3.4,0-3.6,0c3.4,0,2.9,0.1,5.8,0c-0.5-0.1,6.5-0.1,6.7-0.2
	c-6.5-0.1-10.8,0-17.1,0c7.9-0.1,18.1-0.1,22.9,0c2.9,0,0.7-0.1,2.2-0.1c4.8,0.1,12.5-0.1,14,0.2c5.1,0,15.2-0.1,16.1,0.1
	c2.9,0,20.2,0,16.1,0.1c8.4,0,11.1-0.2,17.1,0c1.2-0.2,8.2-0.2,14.9-0.1c-1.2-0.1,3.6-0.1,0-0.1c-0.7,0-16.6,0.2-14-0.1
	c-3.6,0-6,0.1-6.7,0c4.1,0,3.9-0.1,5.8-0.1c0,0.1,1,0.1,2.2,0.1c2.4-0.1-1.4-0.2,2.2-0.2c3.4,0.1,4.8-0.1,6.7-0.1
	c4.3,0.1,10.4,0.1,14,0.2c2.9,0-1.9-0.1,1.2-0.1c1.2,0,2.2,0,3.6,0c-0.5,0.1-3.1,0.1-3.6,0.1c1.9,0,6.7,0,6.7,0
	c-6.5,0,1.7-0.3,4.6-0.1c-1.2-0.1,3.6-0.1,0-0.1c-0.2,0.1-4.1-0.1-5.8-0.1c0.7-0.1,5.3,0,5.8-0.1c-1-0.1-3.9-0.1-3.6-0.1
	c-2.9,0-7.9,0-8.2,0.1c2.9,0,2.4-0.1,5.8,0c0,0.1,0.5,0.1,1.2,0.1c-3.4,0-5.8,0-6.7,0.1c1.4,0.1,4.1,0,4.6,0
	c-0.7,0.1,1.2,0.2-1.2,0.2c-2.2-0.1-2.9,0-5.8,0c0.5-0.1-4.8-0.1-4.6-0.2c-3.6,0-2.9,0.1-6.7,0.1c0.5-0.1,3.1-0.1,3.6-0.1
	c-6,0-6.5,0-9.1,0.1c-2.6-0.1-5.8,0-8.2-0.1c10.4-0.1,17.1-0.1,26.5,0c2.2-0.3-12.8-0.1-14-0.1c0.5-0.1,4.8-0.1,5.8-0.2
	c-9.6,0-9.4,0-19.7,0c0.5-0.1-3.1-0.2,1.2-0.2c8.4,0.3,17.1,0,30.1,0c1.2-0.2-6.7,0-5.8-0.2c1.2,0,1.2,0,2.2,0
	c9.6,0,24.6,0,24.3,0.4c0.7-0.1,5.5,0,8.2,0c0.5-0.1-6.5-0.1-8.2-0.1c3.9-0.2,1-0.2-2.2-0.3c7.9-0.1,6,0.2,9.1,0.2
	c0.2-0.1-1.2-0.1-1.2-0.1c5.5,0.1,11.1-0.1,12.5,0c-1.7,0.1-7.2,0.1-8.2,0.2c1.2,0.1,5.1,0.1,4.6,0.2c8.2-0.2,16.9,0.1,22.9-0.1
	c2.4,0,7.5,0,8.2,0.1c-5.8,0,1,0.1,0,0.1c0,0.1-3.1,0-3.6,0.1c1.2,0,2.6,0,3.6,0.1c-0.7,0.1,1.2,0.2-1.2,0.2c-4.1-0.1-8.9,0-11.6,0
	c10.8,0,20,0.2,31.1,0c-4.1,0-6.3-0.1-8.2-0.1c-3.6,0-2.6,0.1-6.7,0.1c1-0.2-1.7,0-2.2-0.1c-1.4-0.2,1.9-0.1,0-0.3
	c6.5,0.1,6.7-0.1,8.2-0.2c5.3,0,3.9,0.2,10.4,0.2c1.4-0.2,8.2-0.2,12.5-0.3c1.7-0.1-3.9,0-3.6-0.1c7-0.1,10.6,0.3,17.1,0
	c0.2,0.1-4.8,0.2,0,0.3c0.2-0.2,7.5-0.1,11.6-0.2c-1.7,0-4.3,0-3.6-0.1c8.7,0,14.9-0.1,19.7-0.1c-4.6-0.1-17.8,0.2-25.3,0
	c4.1,0,9.1-0.1,9.1-0.1c-7.2,0-10.6,0-14.9,0c-0.5,0.1-4.8,0.1-6.7,0c-1.2,0-0.5,0.1-3.6,0.1c-8.2-0.2-28.9,0.1-30.1-0.2
	c-0.2,0.1-3.9,0.2-4.6,0.1c-0.5-0.1,4.3,0,3.6-0.1c-2.4-0.1-6.3,0-10.4,0c1.2-0.2,7.5-0.1,14.9-0.1c-1.9-0.2-4.8-0.1-10.4-0.1
	c1-0.1-3.1-0.2-4.6-0.1c2.4,0-0.2,0.1-1.2,0.1c-4.8,0-4.6-0.1-6.7-0.1c0.5,0.1,1,0.1,2.2,0.3c-2.9,0-9.1,0.1-9.1,0
	c2.2,0,4.6,0,6.7,0c-0.2-0.3-6.5-0.1-10.4,0c-4.1-0.2-11.6,0-16.1-0.1c0,0-1,0-1.2-0.1c8.7-0.1,11.8,0,18.5,0
	c1-0.1,4.8-0.2,10.4-0.1c1.2-0.1-3.9,0-2.2-0.1c4.1,0,6,0,6.7,0c-2.4,0-3.9-0.1-4.6-0.1c-3.4,0-4.1,0.2-5.8,0.1
	c4.1-0.1,3.1-0.3,6.7-0.4c-0.5,0.2,7.2,0,9.1,0c-0.7,0,5.5-0.3,9.1-0.2c-3.6,0-3.9,0.1-3.6,0.2c2.6,0,1-0.2,5.8,0
	c1.4-0.2,6.5-0.2,8.2-0.4c-1.7,0-4.1,0-4.6,0c5.5,0-1.2,0,0-0.1c4.3,0,16.6-0.1,22.9,0c0.2-1.8-6.3-1.8-10.1-1.8c1.7,0,4.1,0,4.6,0
	c-2.9,0-2.2,0-3.6-0.2c3.1,0,4.1-0.1,9.1-0.1c0.7,0.1-6.5,0.1-2.2,0.1c1.7-0.1,2.6,0,6.7-0.1c-2.4-0.1,1.2-0.1,3.6-0.2
	c-4.3-0.1-14.9,0.1-18.5,0c2.9-0.1,1-0.1,4.6-0.2c3.9,0.1,7.9,0,12.5,0c-8.4-0.1,8.2-0.2,9.1-0.3c-3.9,0-4.8,0.1-9.1,0
	c0.5,0.2-9.6,0.2-12.5,0.2c5.3,0,2.2-0.1,0-0.1c2.4,0,7.5,0,8.2-0.1c-5.1,0-9.4,0.1-12.5,0c0.7,0,1.2-0.1,2.2-0.1c0,0,0,0,0,0.1
	c3.9,0,4.8-0.1,6.7,0c-1.7-0.2-14.2-0.1-18.5-0.2c1.2,0.1-3.9,0-2.2,0.1c3.6,0,7-0.1,8.2,0c-4.6,0-0.7,0.1-1.2,0.1
	c-6,0.1-7.2-0.1-10.4,0c1.4,0,2.2,0.2,0,0.3c1.9,0,6.7,0,6.7,0c-2.6,0-4.3,0-4.6,0.1c4.3,0,9.1,0,9.1-0.1c5.3,0.1-6.5,0.2,0,0.3
	c-5.5,0.1-5.8-0.1-6.7,0c-5.1,0-4.6-0.1-5.8-0.2c-1.4,0-0.2,0.1-2.2,0.1c-0.5-0.1-1.4,0-3.6,0c2.2-0.1-1-0.1-2.2-0.2
	c1.9,0,2.9,0,3.6-0.1c-3.9-0.1-9.1,0-14-0.1c0,0,0,0,0-0.1c8.4,0,12.8-0.2,19.7-0.4c-9.6,0,2.4-0.2-6.7-0.2c3.9,0.2-5.5,0.2-4.6,0.3
	c-0.5-0.1-9.1,0-6.7,0c2.2,0,3.9-0.1,4.6,0c-1.4,0.1-5.1,0-8.2,0c-1.7,0.1,3.9,0,3.6,0.1c-1.9,0.1-5.3,0.1-10.4,0.1
	c-0.5,0.1-0.2,0.2,2.2,0.3c-6,0.1-10.4,0-18.5,0c0.7,0.1-4.3,0.2-6.7,0.3c-2.2-0.1-5.3-0.1-6.7-0.1c-0.7-0.1,10.4-0.1,8.2-0.1
	c-7,0-12.3,0.1-17.1,0c3.4-0.1,6.5,0.1,8.2-0.1c-6.3-0.1-10.8,0.1-10.4,0.2c1.7-0.1,4.8,0.1,5.8,0c0.2,0.1-0.5,0.2-3.6,0.1
	c-6.5-0.3-9.1,0.2-16.1,0.1c-0.5-0.1-2.9-0.2-5.8-0.3c-1.7,0.1-4.8-0.2-5.8,0c1.9,0.1,4.3,0.1,3.6,0.3c2.4,0,10.6,0.1,4.6,0.2
	c7-0.1,12.5,0.1,14.9-0.1c-2.9,0-5.5,0-5.8-0.1c5.5-0.1,15.6,0.1,8.2,0.2c4.8,0,7.5,0,11.6,0c0.7-0.1-3.4-0.2,0-0.2
	c3.9,0,1.7,0.1,1.2,0.1c3.6,0,4.1-0.1,2.2-0.1c6-0.1,17.8-0.1,24.3,0.1c-1.9,0-9.6,0-10.4-0.1c2.2,0,4.8,0.1,4.6,0
	c-3.1,0-6.3,0-9.1,0c-0.5,0.1-2.9,0.1-3.6,0.2c1.9,0,6.7,0,6.7,0c-3.6,0.2-4.1,0.5-14.9,0.6c1.2,0.4,11.8-0.1,18.5,0.1
	c1.7-0.1,10.6-0.2,14.9-0.2c-6,0.1-3.9,0.1-1.2,0.2c-1.2,0-3.1,0-5.8,0c-1.2,0.2,0.2,0.3-3.6,0.4c1-0.1-5.5,0-4.6-0.1
	c1.2-0.1,3.9-0.2,1.2-0.3c-10.1,0.2-28.9,0.2-34.7,0.2c0-0.1,1-0.1,2.2-0.1c7.9,0,9.1,0,14-0.1c-7,0-5.1-0.1-8.2-0.2
	c3.4,0,7,0,10.4-0.1c-0.7-0.1,1.2-0.2-1.2-0.2c-0.2,0.1-3.9,0.1-6.7,0.1c0-0.2-6.5-0.2-5.8-0.3c-4.1,0.1-8.4,0-12.5,0.1
	c2.9,0-3.9,0.1,0,0.1c-1.9,0-3.9,0-5.8,0c2.6,0.1-1.7,0.1-3.6,0.2c1.2,0.1,4.3-0.1,5.8,0c-3.1,0.2-0.2,0.3,0,0.4
	c2.6,0,4.8,0,6.7-0.1c-0.7-0.1-1.4-0.1,1.2-0.2c6.3,0,6.3,0,10.4,0c0,0,1.4,0.1,1.2,0.1c-6.7,0-12,0.1-14.9,0.3
	c-7.5,0-8.9,0-16.1,0.1c-0.7-0.1-1.4-0.2-4.6-0.2c1.2,0.1,0.7,0.2,2.2,0.3c-1.2,0-3.9,0-6.7,0c-1.2,0.2,5.1,0,4.6,0.1
	c-2.4,0-3.1,0.1-4.6,0.1c-1.7,0-2.9-0.1-4.6-0.1c-2.4,0.1-3.9,0.2-5.8,0.3c10.6-0.2,16.9-0.1,12.5,0.2c-3.6,0-0.5-0.2-4.6-0.1
	c-1.4,0.1,0.7,0.1-1.2,0.2c3.9,0,8.4,0,9.1-0.1c1.7,0.1,3.1,0.1,8.2,0.1c0-0.1,0-0.2,0-0.3c-4.1-0.1-0.7,0.1-3.6,0.1
	c-3.1,0-4.8,0-4.6-0.1c4.6,0,9.1-0.1,16.1-0.1c-0.7-0.2,5.8-0.1,10.4-0.1c1.4-0.1-4.6-0.1-1.2-0.1c4.1-0.1,8.2,0,10.4-0.1
	c2.2,0.2,5.1,0.3,0,0.4c6,0,11.6,0.2,18.5,0.1c-1.7,0.3-15.6,0.1-19.7,0.2c1.7,0,4.1,0,4.6,0c-19.3,0.2-35.9-0.1-50.8,0.2
	c-0.2-0.1-8.9-0.1-9.1-0.1c2.4,0.1-5.3,0.1-3.6,0.3c0.2-0.1-3.6-0.1-3.6-0.2c-3.6,0-6,0-8.2,0c-0.2,0.1,1.2,0.1,1.2,0.1
	c-13.2,0-17.1,0-25.3-0.1c3.4,0.1-7.9,0-6.7-0.1c7.2,0,11.8-0.1,22.9,0c-1-0.1,1.7-0.1,2.2-0.2c-3.9,0-5.1-0.1-6.7-0.1
	c0-0.2,8.9-0.1,11.6-0.1c-1.9-0.1-8.2-0.1-10.4-0.1c2.2-0.1,4.6,0,5.8,0c1.9-0.1-0.2-0.1-1.2-0.2c4.3,0,5.5,0,5.8,0.1
	c-1.4,0-2.4-0.1-2.2,0c0.7,0,1.2,0,1.2,0s0.2,0,1.2,0c0.5,0,1.4-0.1,3.6-0.1c-2.2,0.1-0.5,0.1,0,0.2c-2.6,0-4.3,0-4.6,0.1
	c3.9,0,9.1-0.1,14-0.1c-1.7,0-1.7-0.2,0-0.2c0.2,0,0,0.1,1.2,0.1c3.6-0.1-2.6-0.1-6.7-0.1c2.9-0.1-2.2,0-3.6-0.1
	c2.9,0,1.4-0.1,4.6-0.1c2.6,0.1,6,0.1,6.7,0c3.9,0,3.9,0.1,1.2,0.2c2.9,0,5.5,0,5.8-0.1c-1.2,0-2.6,0-2.2-0.1c4.8,0,4.3-0.1,5.8-0.1
	c-3.6,0-3.6-0.1-8.2-0.1c-1.9,0-1.9,0.1-3.6,0.1c-1-0.1-7.2,0-8.2-0.1c4.6,0.1,0.5-0.2,3.6-0.1c2.9,0,5.3,0.1,6.7,0
	c-3.6,0.5-5.1,0.5-8.7,0.5c-1.2,0.1-0.7,0.3-5.8,0.3c-0.2-0.1,1.7-0.1,2.2-0.2c-1.9,0-5.8,0-4.6-0.1c-3.6,0-3.4,0.1-6.7,0
	c-1.9-0.2,7-0.1,1.2-0.3c4.6-0.1,7.5,0.1,12.5,0c0-0.1,0-0.1,0-0.2c-3.4,0-9.6,0.1-8.2-0.1c-3.9,0-3.4,0.2-6.7,0.2
	c1.2-0.1-3.6-0.1-5.8-0.1c-0.5-0.1-2.9-0.3,0-0.3c4.6,0.4,16.1,0,24.3,0.1c-2.6,0.3,13.5,0.2,17.1,0.3c-1.4,0-2.4,0-2.2,0.1
	c1.7,0.1,6-0.1,6.7,0c-1.2,0-2.6,0-2.2,0.1c2.2,0.1,6,0,6.7-0.1c-3.1-0.1-3.1-0.1-1.2-0.3c-2.9,0-6.5-0.1-3.6-0.2
	c-3.9-0.1-4.8,0.2-6.7,0c3.6,0,3.6-0.1,5.8-0.2c3.9,0,8.4,0,9.1,0.1c0.2-0.1,6-0.1,6.7-0.1c-5.5-0.2-8.9,0-14-0.1
	c3.1,0,6.7,0,6.7-0.1c-2.4,0-1-0.2-3.6-0.2c-2.9,0,1.2,0.1-1.2,0.1c0.5-0.1-4.1,0.1-4.6,0c1.2-0.1,4.8,0,4.6-0.1
	c-1.9-0.1-5.3,0-8.2-0.1c1.7,0,4.1,0,4.6,0c-3.9-0.1-3.1-0.1-4.6-0.3c3.9,0,5.3,0,8.2,0c-0.5-0.1,1.4-0.1,2.2-0.1
	c-6.5,0-0.2-0.1-3.6-0.1c1.2,0.1-7.5,0.1-6.7,0.1c0,0,1.4-0.1,1.2-0.1c-2.4,0-7.5,0-8.2,0c1.2,0,2.6,0,2.2,0.1c-5.5,0-5.8,0-12.5,0
	c-5.1,0.3-17.8,0-24.3,0.3c1.2,0,1.2,0.1,1.2,0.1c1.4,0.1,6.7,0,6.7,0.1c-5.5,0-9.1-0.1-14.9-0.1c0,0-1,0-1.2-0.1
	c1-0.1,5.8,0,4.6-0.1c-4.6,0-9.9,0-11.6,0.2c1.4,0.1,4.1,0,4.6,0c-0.2,0-1.2,0.1-2.2,0.1c-6.5,0-12-0.1-19.7-0.1
	c0.7-0.2-3.9-0.2-6.7-0.3c-7.5,0.2-25,0.1-33.2,0.3c-1.4-0.1,2.9-0.1,0-0.1c1,0.1-5.5,0-4.6,0.1c1.4,0.1,4.8,0.1,5.8,0.2
	c-4.3,0-6.7-0.1-8.2-0.1c-3.9,0.1-6.7-0.1-9.1,0.1c7.5,0,12.8,0.1,14.9,0.3c-1.4,0-8.2-0.1-8.2,0c1.2,0,4.1,0,3.6,0.1
	c-1.9,0-3.9,0-5.8,0c-6.3-0.2-8.4-0.3-9.1-0.5c-10.4,0-16.4,0.4-25.3,0.2c3.6-0.1,0.7-0.2-1.2-0.3c-4.8,0.1-6.5-0.1-9.1,0
	c2.2,0.1-1.4,0.1-3.6,0.2c-5.3,0-11.1,0.1-17.1,0c2.9,0.2-4.3,0.1-8.2,0.1c1.4,0.2,4.6,0.1,3.6,0.2c14,0,33.2-0.1,53.9,0
	c1,0.1,3.9,0.1,3.6,0.3c-1.9,0-3.6,0-4.6,0c6-0.4-9.1-0.2-16.1-0.2c2.2,0.1,2.2,0.2,5.8,0.2c-0.2-0.2,3.6,0,6.7,0
	c-1,0.1,1.4,0.1,1.2,0.2c-2.9,0-3.6,0.1-4.6,0.1c6.5,0.1,1.2,0.2,3.6,0.3c1.2,0,4.6-0.2,6.7-0.1c-0.5,0.1-3.1,0.1-5.8,0.1
	c-1.4,0.2,2.6,0.2,4.6,0.2c-2.6-0.2-1-0.1-2.4-0.1c-3.9-0.1-7.9,0-9.1,0.1c1.9,0,2.6,0,2.2,0.1c-5.3,0-7.2,0.1-3.6,0.1
	c-3.6,0-6.5,0.1-8.2,0c0.2-0.1,4.3-0.1,4.6-0.1c-3.9,0-9.9,0-10.4-0.1c1.9,0,8.7,0,10.4-0.1c-6,0-9.6,0-16.1-0.1
	c-1.2,0.1,1.2,0.2,3.6,0.2c-7.5,0.1-8.7-0.1-14.9,0c-1-0.1,1.7-0.1,1.2-0.3c-4.6,0-8.7,0-10.4,0.1c0.2-0.1-1-0.1-3.6-0.1
	c0.7,0.2-9.6,0.1-3.6,0.3c-4.1,0.1-4.1,0.1-8.2,0.2c-0.2-0.3,7.2-0.2,5.8-0.4c-3.4,0-3.1-0.1-5.8,0C913.1,4,911.4,4,910,4
	c1.7,0,3.9,0.1,3.6,0.1c-2.2,0-4.6,0-6.7,0c1-0.2-4.8-0.3-4.6-0.2c-1.7-0.1-2.9,0-3.6,0c1.4-0.1-2.4-0.4-2.2-0.5
	c-2.9,0.1-3.9,0.2-6.7,0.2c3.1,0,4.1,0.5-1.2,0.3c-1.2,0.1,3.9,0,2.2,0.1c3.4,0,2.9-0.2,4.6-0.1c-0.7,0.1-2.2,0.2-3.6,0.2
	c-5.1,0-3.9-0.2-6.7-0.2c1.9,0.1-0.5,0.1-3.6,0.2c2.4-0.1,2.6-0.1,1.2-0.3c2.9,0,3.6,0.1,4.6,0c-2.6-0.1-5.3-0.2-11.6-0.1
	c-1.2-0.1,0.7-0.2-2.2-0.2c1-0.1,6.5-0.1,6.7,0c0,0,0,0,0,0.1c-1.2-0.1-6,0-2.4,0c1-0.1,3.1,0.1,5.8,0c-0.2-0.1,0.5-0.2,3.6-0.1
	c1.4-0.2-3.4-0.3,0-0.4c-1,0.1,1.9,0.1,4.6,0.1c-1.2-0.1,3.6-0.2,0-0.2c-2.2,0-7.7-0.2-12.5-0.3c0.2,0.2-1.7,0-3.6,0
	c-0.2,0.1-0.7,0.1-2.2,0.1c-1.9,0-3.6-0.1-4.6-0.1c3.6,0,9.6-0.1,12.5,0c-0.5-0.2,6.5-0.1,8.2,0c-1.2-0.1,14.9-0.1,10.4,0
	c5.3-0.1,8.4-0.1,11.6,0c3.1,0,1.2-0.1,3.6-0.1c1.4,0,4.3,0,2.2,0c-8.9-0.1-23.8,0-30.1,0c-3.6-0.1-6.7-0.2-4.6-0.3
	c-3.1,0-10.1,0.1-11.6-0.1c1.2,0,3.1,0,5.8,0c-1.2-0.3-10.4,0.1-11.6-0.2c3.6,0,3.4,0.1,6.7,0c0-0.1,4.8-0.3,0-0.3
	c-1.4,0.1,1.2,0.2-5.8,0.1c-1.4-0.1,3.1-0.1,0-0.1c-0.5,0.1-1.4,0-3.6,0c-1,0.1,3.9,0,2.2,0.2c-8.9,0.1-19.3,0.2-27.7,0.2
	c1.9,0.1,4.1,0.1,5.8,0.2c-4.8,0.1-11.3-0.1-14,0.1c0.5,0.1,5.1,0,4.6,0.1c-5.1,0-5.3-0.1-6.7-0.2c-0.7,0-7.2,0-6.7-0.1
	c1.9,0,5.8,0,4.6-0.1c-4.8,0-4.6,0-6.7-0.1c-4.1,0.1,0.7,0.2-1.2,0.2c-4.1-0.1-2.4-0.2-8.2-0.2c4.6-0.2,17.1-0.3,22.9-0.4
	c1.4,0.1-7.5,0.1-4.6,0.1c3.6,0,2.9,0.1,4.6,0.1c1.9-0.1,6-0.3,8.2-0.2c0.2,0.1-3.1,0.1-2.2,0.3c3.9,0,7,0,8.2-0.1
	c-7.5,0,1.2-0.2-2.2-0.3c-6.5,0-6.5-0.1-14.9,0c-1.4-0.1-4.3-0.2-5.8-0.3c-3.1,0.1,0.5,0.2,0,0.4c-2.6-0.1-8.9,0.2-11.6,0
	c-1,0.3-7,0-12.5,0.1c-0.7,0.2-6.5,0-10.4,0.1c1.2,0.1,5.3,0.1,2.2,0.3c7.9-0.1,11.8-0.2,20.7-0.1c-1.2,0.2-8.2-0.1-4.6,0.1
	c-6.5,0-9.9,0-12.5,0.1c4.6,0,7.5,0.1,11.6,0.1c0.2,0.1-1,0.1-3.6,0.1c-0.7-0.1-7-0.1-10.4-0.1c2.4,0.2-10.4,0.3-6.7,0.5
	c-3.1,0-4.8-0.1-4.6,0c-1,0.1,5.5,0,4.6,0.1c-6.5,0,0.5,0.2-4.6,0.2c-3.9,0-6.3-0.1-8.2-0.1c3.1-0.1,5.1,0.1,8.2-0.1
	c-3.6,0-3.1-0.1-5.8-0.1c-1.7,0.1-3.1,0.2-4.6,0.3C767,3,762.4,3,760.7,2.8c3.6,0.1,8.4-0.2,11.6,0c1-0.1,3.9-0.3,1.2-0.4
	c-4.6,0.1-7.5,0.1-14,0c-3.4,0.1-3.9,0.3-9.1,0.1c-1.2,0-1.2,0.1-3.6,0.1c-3.4-0.1-9.1-0.2-14.9-0.3c0.7-0.1-1.7-0.2-3.6-0.2
	c0.2-0.1,3.9,0,3.6-0.1c-2.6,0-4.3,0-4.6-0.1c4.1,0,4.1,0,9.1,0c1-0.1-2.2-0.1-2.2-0.1c1.4-0.1,6.5,0,8.2-0.1
	c-1-0.1-2.4-0.3-5.8-0.3c0,0.4-4.3,0.6-6.5,0.5c2.4-0.1,4.8-0.3,9.1-0.4c1,0.1,6.5,0.2,6.7,0c-6,0,1.9-0.2-2.2-0.2
	c-0.2,0.1-4.1,0-4.6,0c1.9-0.2,7.7,0,9.1-0.1c-1.2,0.1,3.9,0.1,3.6,0.1c-1.4,0-2.2,0.1-4.6,0c1.4,0.2,1.2,0.3-3.6,0.4
	c2.9,0,5.5-0.1,5.8,0c-0.5,0.2-4.1,0.2-5.8,0.4c5.3,0.1,13,0.1,14-0.1c-4.1-0.1-0.7,0.1-3.6,0.1c-2.2-0.1-4.1-0.3-2.2-0.5
	c4.1-0.1,0.7,0.1,3.6,0.1c-0.2-0.1,1,0,3.6,0c-0.7-0.2,1.2-0.3,6.7-0.3c0.7,0.2-2.6,0.2-3.6,0.3c0.7,0,5.5,0.1,5.8,0
	c-3.6-0.1,3.4-0.4-1.2-0.6c-1.4,0-3.1,0-4.6,0c-1.9,0,0,0.2-2.2,0.2c-1.7,0-6,0-5.8,0c-0.2-0.1,2.6-0.1,2.4-0.2
	c-5.5-0.1-1.2,0.2-5.8,0.2c2.6-0.1-1.9-0.1-4.6-0.2c-0.2,0,0.2,0.1-1.2,0.1c-1.2-0.1-2.9-0.1-4.6-0.1c-3.6,0-3.9,0.1-6.7,0.1
	c-0.7,0.2,4.8,0.1,4.6,0.3c-2.6,0-5.3,0-8.2,0c-1.2,0.3-13.7,0.3-17.1,0.1c-1.7,0.2,3.6,0.2,4.6,0.3c-1.9,0-0.7,0.1-2.2,0.1
	c-9.4,0-24.6,0.2-27.7-0.1c-4.6,0-7.7,0-9.1-0.1c1.7-0.1,5.8-0.1,5.8-0.3c-10.1,0.3-19,0-20.7-0.3c-5.1,0-12.5,0.2-16.1,0
	c0.2,0.1-1.2,0.1-1.2,0.1c10.8,0,11.6,0.1,19.7,0.1c-1.4,0.1-9.1,0-9.1,0.1c0.2-0.1,2.4-0.2-1.2-0.2c-1.2,0.2-12.8,0-10.4,0.3
	c-1.9-0.1-8.7-0.1-5.8-0.2c-4.3,0-6.5,0-9.1-0.1c0.2,0.1,1.4,0.1,2.2,0.3c-4.1,0.1-5.8-0.1-11.6,0c1.9,0.1,10.4,0.1,9.1,0.3
	c3.6,0,2.2-0.1,5.8-0.1c1,0.1-3.6,0.2-10.4,0.1c0.5-0.1-3.6-0.1-5.8-0.2c-0.7,0.1,1.2,0.2-1.2,0.2c-1.7-0.1-1-0.1-4.6,0
	c0-0.1,0.2-0.1,1.2-0.1c-1.2,0-2.2,0-3.6,0c0,0-1,0-1.2,0c2.9,0,0.2,0.1-1.2,0.1c-1.2-0.1-1.2-0.2-4.6-0.1c-1.9,0,0,0.2-2.2,0.2
	c-1.9,0-2.6-0.1-2.2-0.2c4.1,0,10.8,0,10.4-0.3c-3.6,0-9.9,0-11.6,0c0.2,0,1.7,0,3.6,0c-0.5-0.1-0.5-0.2-3.6-0.1
	c1,0.2-7,0.1-10.4,0.1c1.9-0.1,7.9,0.1,8.2-0.1c-3.6,0-5.5,0-3.6-0.1c-3.9,0.1-7.9,0-11.6,0c2.4,0.2,3.4,0.3-3.6,0.3
	c0,0.1,2.6,0.2,4.6,0.2c-3.6,0-6.5,0-8.2,0.1c2.2,0,3.9,0,4.6,0.1c-7,0-16.1,0.1-14.9,0c-4.1,0-3.9,0.1-5.8,0.1
	c-3.6-0.1,1-0.2-4.6-0.1c0.2-0.1,1.9-0.1,2.2-0.1c-4.1,0.2-6-0.2-11.6,0c1.2,0,3.9,0.2,4.6,0.1c-1.2,0-1.4-0.1,0-0.1
	c0.7,0.1,1.7,0.1,2.2,0.1c-8.4-0.1-8.7,0-16.1-0.1c-2.4,0.1,1,0.1,2.2,0.2c-5.1-0.1-3.1,0.1-6.7,0.1c1,0,1.4-0.1,1.2-0.2
	c-6.3,0-1,0-1.2-0.1c-4.3,0-6.5,0.1-11.6,0.1c0.5-0.1-1.4-0.1-2.2-0.1c7.7,0,6.3-0.2,6.7-0.3c1.2,0,3.1,0.1,3.6,0.1
	c4.6,0,8.4,0.1,9.1,0c-3.4,0-4.8,0-8.2,0c2.2-0.1-1.2-0.1-2.2-0.2c4.6,0,8.2,0.1,10.4,0c-3.1,0-1-0.1-4.6-0.1
	c-1.9,0-0.7,0.1-2.2,0.1c-1.2,0-1.9-0.1-3.6-0.1c-0.2,0.1-1.9,0.1-4.6,0.1c2.9-0.2-7,0-6.7-0.1c1.2-0.1,5.3-0.1,6.7-0.1
	c-0.5,0-10.4,0-6.7,0.1c-2.6,0-2.2-0.1-5.8-0.1c-1.4,0.1,3.4,0.1,3.6,0.2c-5.8,0.1-11.3,0.1-16.1-0.1c1.7,0,3.9,0,3.6-0.1
	c-2.2,0-10.4,0-8.2,0.1c2.6,0,4.3,0,4.6,0.1c-3.9,0-4.8-0.1-9.1,0c2.4-0.1-2.2-0.1-4.6-0.2C480.3,1,462.5,1,462.5,0.8
	c-0.2,0.1-3.1,0.1-4.6,0c1.2,0.1,1.2,0.3-3.6,0.1c-2.4,0.1-1.2,0.2-5.8,0.2c-2.2,0,0.2-0.2-2.2-0.2c-3.9,0-13.5,0-16.1-0.1
	c-3.4,0.1,0.5,0.2-4.6,0.3c-3.9-0.1-6,0.1-10.4,0c2.9-0.1-1-0.1-2.2-0.2c-2.9,0.1-6.5,0.2-4.6,0.4c-2.2,0-2.2,0-3.6,0.1
	c-3.9,0-9.4-0.2-14-0.1V1.2c-3.9,0-4.3,0-5.8,0.1c-0.7-0.1-5.8-0.1-2.2-0.2c-3.9-0.1-7-0.1-9.9-0.1c-1.4,0.1,3.4,0.2,0,0.2
	c0-0.2-5.8-0.2-6.7-0.3c2.4,0,7.9,0.1,6.7-0.1c-1.2,0-11.1,0-9.1,0.1c-8.4,0-12-0.1-16.1-0.2c1.4,0,1.2-0.1,2.2-0.1
	c2.2,0,1.4,0.1,4.6,0.1c0.2-0.2-3.9,0-4.6-0.1c2.9,0-1.4-0.1,0-0.1c3.1,0,4.8,0,4.6-0.1c-3.4-0.1-7,0.1-10.4,0
	c-0.7,0.1,2.6,0.1-1.2,0.2c-6.3-0.1-11.8,0.2-19.7,0c4.1-0.1,6.5,0,8.2-0.1c-1.4,0-2.2-0.1-3.6-0.1c2.2,0,5.1-0.1,1.2-0.1
	c-0.5,0.2-2.4,0-3.6,0c-5.3,0.1-16.6,0.2-20.7,0c-6.5,0.2-15.9,0-27.7,0.1c14.2,0.2,33.5,0.1,46,0.1c-1.7,0.1-12.3,0.2-14,0.1
	c-8.9-0.1-14.4,0.2-21.9,0.1c-1,0-1.2-0.1-2.2-0.1c-9.6-0.2-27.7,0.2-39,0.1c-0.2,0,0.2,0.1-1.2,0.1C235,0.8,225.1,1,217.2,1
	c4.1,0.2-11.6,0.3-2.2,0.3c-3.9,0.1-5.1,0-9.1,0c-6.5,0.1-9.6,0.2-16.1,0.2c1.2,0.1,7.2,0,8.2,0.1c-23.4,0.2-30.6,0.5-57.5,0.4
	c1.7,0.1-0.2,0.1-2.2,0.2c-6.3,0-9.4,0.1-16.1,0c-1,0.1-1,0.3-5.8,0.3c0-0.1,3.1,0,2.2-0.1c-3.6,0-5.5,0-3.6-0.1c-3.9,0-7,0-9.1,0.1
	c1.4,0,2.4,0,2.2,0.1c-2.6,0-4.3,0-5.8,0c0-0.1,3.1,0,2.2-0.1c-3.6,0-3.4,0-8.2,0c0.2,0.1,2.2,0.1-1.2,0.1c1.2-0.1-3.9-0.2-4.6-0.1
	c1.2,0,1.7,0,2.2,0.1c-4.1,0.1-8.7,0.1-14,0.1c3.9,0.1-1.2,0.1,1.2,0.3C53,3.2,55.4,4.3,31.1,4.6C47,4.7,51.8,4.4,65.7,4.2
	C56.1,4.8,38.5,5,25.3,5.4c1,0,2.2,0,2.2,0c-2.6,0.1-4.8,0.2-8.2,0.2c4.3,0,3.9,0.1,6.7,0.1c4.1-0.3,9.1-0.3,16.1-0.4
	c0,0,1,0,1.2,0.1C39,5.5,37.1,5.7,30.8,5.7C30.6,5.8,32,5.8,32,5.8c-2.9,0.1-11.8,0-8.2,0.3c-4.8,0-4.3,0-8.2,0
	c0.2,0.1,2.2,0.1,2.2,0.2c1.2,0,4.1-0.2,4.6-0.1c-0.5,0.1-2.4,0.1-3.6,0.2c-2.2,0-1.4-0.1-4.6-0.1c3.9,0.2,10.1,0.4,14.9,0.3
	c-0.5,0.1,4.8,0.1,4.6,0.2c-3.6,0-2.2-0.1-5.8-0.1c-1.4,0.2-3.1,0-3.6,0.2c-3.9,0-5.5-0.1-10.4-0.1C12.5,7,8,7,4.4,6.9
	C3.9,7-2.4,7.1,1,7.2C10.6,7,23.4,7.3,28.7,7c1.2,0,3.1,0.1,4.6,0.1C34,7.1,34.9,7,36.9,7c1,0.1,4.3,0.1,4.6,0.2
	c3.1,0,2.4-0.1,4.6,0C47.7,7.1,43.4,7,46,7c3.9,0.1,14.2,0.2,18.5,0.2c-2.4,0-3.9,0-3.6-0.1c1.2,0,1.2,0,2.2,0
	c7.2,0.1,13.5,0.2,19.7,0.1c-1.4,0-2.4,0-2.2-0.1c4.6,0,4.1,0.1,9.1,0c1.2,0.1-3.6,0.1,0,0.1c1.2,0,0.5-0.1,3.6-0.1
	c2.4,0,4.3,0.1,5.8,0.2c6.3,0,9.1,0.1,14,0.1c5.1-0.1,16.1,0,17.1-0.3c-4.6,0.1-6.7,0-10.4-0.1c-0.2,0,0.2,0.1-1.2,0.1
	c-1.4-0.1-7.5,0-6.7-0.2c9.1-0.1,13.5-0.1,22.9-0.1c0.5-0.1-1.4-0.1-2.2-0.1c6.5,0.1,4.8,0.1,10.4,0.1c-1.9,0.2-7.2,0-7.2,0.2
	c5.8,0,7.9,0.1,9.1,0.2c7.9,0,7.7-0.1,16.1-0.1c7.2,0.2,20.2,0.1,26.5,0.1c-0.7,0.2-11.3,0-12.5,0.2c11.3-0.1,19.3,0,28.9-0.1v0.1
	c7.2,0,14-0.2,19.7-0.1c0.2,0-4.6,0.1-1.2,0.1c12,0,40.9-0.1,50.8,0c-2.9,0-7,0-6.7,0.1c9.1,0,29.4,0,40.4,0c-0.2-0.1,1-0.1,3.6-0.1
	c12.3,0.2,25.5,0,46,0.1c0.2-0.1-14.2,0-19.7,0c1-0.3-13.2,0.1-21.9-0.1c8.2-0.1,19-0.2,25.3-0.1c20-0.2,48.4,0,73.7-0.2
	c1.2,0.1,11.8,0,10.4,0c-3.9,0-5.5,0-5.8-0.1c6.5,0,12-0.1,19.7-0.1c1.7-0.1-1.2-0.1,2.2-0.2c6.3,0,5.8,0,3.6,0.1
	c5.1,0,7-0.2,9.1-0.1c0.2,0.1-6.3,0.1-2.2,0.3c3.9,0,2.4-0.1,4.6-0.1c1.2,0,3.4,0,3.6,0c-4.1,0.1-6.5-0.1-3.6-0.2
	c2.4,0,3.1,0.1,4.6,0.1c1.7-0.1,10.4-0.1,12.5-0.1c0,0.1-2.9,0-2.2,0.1c4.3,0,11.6-0.1,12.5,0.1c-4.8,0-4.6,0-6.7,0.1
	c-5.5,0.1-6.7-0.2-9.1-0.1c3.4,0-1.4,0.1,0,0.2c4.1-0.1,6.7,0,10.4,0.1c1-0.1,1.7-0.1,4.6-0.1c1.9,0.1,7.7,0,8.2,0.2
	c-1.2,0-3.4,0-3.6,0c1,0,1.2,0,1.2,0.1c11.6-0.1,33.9,0.1,42.6,0c-1,0-1.2,0-1.2-0.1c3.9,0,14.4,0,17.1-0.1c-3.9,0-1.7-0.1-2.2-0.2
	c-1.7,0-6,0-5.8,0c2.9,0,7.2,0,9.1,0c0,0.1-3.1,0-2.2,0.1c2.2,0,2.2,0,3.6-0.1c0,0.1,0,0.1,0,0.2c4.6-0.2,4.3,0,9.1,0
	c0-0.1,0.2-0.1,1.2-0.1C556.6,7.1,554.2,7.2,553.7,7.1z M468.5,1.1c-1.7,0.2-7.9,0-8.2,0C452.4,1.1,462,1.1,468.5,1.1z M1203.2,2.6
	c-0.7,0.1-6.5,0.1-9.1,0C1196.7,2.5,1199.1,2.5,1203.2,2.6z M929,6.8c-1-0.1,3.9-0.1,5.8-0.1C933.8,6.7,931.2,6.7,929,6.8z M274,7.5
	c1-0.1,3.9-0.1,5.8-0.1c3.4,0.1,8.9,0.1,11.6,0.1C287.7,7.6,278.6,7.5,274,7.5z M359.2,7.2c0.5-0.1-2.2-0.1-1.2-0.2
	c8.4,0,11.8,0,17.1,0c1-0.1,5.1-0.1,5.8-0.2c3.4,0-0.7,0.1,0,0.2c7.9,0,22.1,0.1,33.2,0.1C397.7,7.2,378.7,7.1,359.2,7.2z
	 M341.9,7.2c-0.5,0,11.1-0.1,14-0.1C352.5,7.3,349.6,7.1,341.9,7.2z M254.5,7.2c-1.7,0-6,0-5.8,0C247,7.1,255.2,7.1,254.5,7.2z
	 M656.3,7.2c-4.3,0-14.7,0.1-14-0.1c-4.1,0.1-10.4,0.1-19.7,0.1c-0.5-0.1-3.9-0.1-3.6-0.3c3.9,0,3.9,0,8.2-0.1
	c1,0.1,9.6,0.1,14.9,0.2c-1.9-0.1-4.1-0.2-8.2-0.2c6-0.1,12.8-0.2,17.1-0.1C653.1,6.9,650.5,7.1,656.3,7.2z M778.3,7
	c-4.6-0.1-4.6,0.1-10.4,0c0-0.1,0.2-0.1-1.2-0.1c1.4-0.1,7.2-0.1,10.4,0C778.1,6.9,778.3,6.9,778.3,7C781,6.9,776.9,7,778.3,7z
	 M659.9,6.9c-0.2,0.1-4.3,0-5.8,0c0,0,1.2,0,2.2,0c-1,0-1.2-0.1-1.2-0.1c1.4,0,4.1,0,5.8,0.1c0,0.1-1,0.1-2.2,0.1
	C658.2,6.9,658.9,6.9,659.9,6.9z M432.9,7c-6.5,0-11.8,0-16.1-0.1c6.5,0,10.4,0,17.1,0C434.3,6.9,432.6,6.9,432.9,7z M1111,6.9
	c0.2-0.1,4.8-0.1,8.2-0.1C1119.9,6.9,1113.7,6.8,1111,6.9z M1041.9,6.8c-3.1,0-9.1,0-10.4,0c-0.5-0.1,5.1-0.1,6.7-0.1
	c-4.6-0.1,1.2-0.1,3.6-0.1c-0.2,0-2.2,0-3.6,0c4.1-0.2,7.9,0.1,14.9,0c-2.4,0.1-10.1,0.1-10.4,0C1038.6,6.6,1043.1,6.7,1041.9,6.8z
	 M728.7,6.7c0-0.1,4.1-0.2,1.2-0.2c8.2-0.1,15.6-0.1,20.7,0c-0.2,0.1-5.1,0-4.6,0.1c1.2,0.1,4.8,0,6.7,0.1
	C744.4,6.8,739.1,6.8,728.7,6.7z M836.1,6.7c-5.1,0.1-3.1-0.1-6.7-0.1c-1.7,0,0.5,0,0,0.1c-1.2,0-3.9,0-6.7,0
	c0.7-0.1,3.9-0.1,4.6-0.2c1.9,0.1,3.4,0,5.8,0c0.2-0.1-2.9-0.1-5.8-0.1c0.5-0.1,5.5-0.1,6.7-0.1c2.4,0,0.2,0.2,4.6,0.1
	c1,0.1-5.5,0-4.6,0.1c0.5,0,2.9,0,4.6,0c-0.2,0,0.2,0.1,1.2,0.1C839.7,6.7,833.9,6.6,836.1,6.7z M813.9,6.7c-4.1,0-10.4,0-17.1,0
	C800,6.6,810.6,6.6,813.9,6.7z M818.5,6.6c-3.6,0-2.2-0.2-8.2-0.1c0.2-0.1,5.8-0.1,9.1-0.1C818.8,6.5,818.3,6.6,818.5,6.6z
	 M803.6,6.6c-2.9,0-5.5-0.1-5.8,0c-1.4,0-1-0.1-1.2-0.1c2.2,0,4.8,0.1,5.8,0C804.1,6.5,803.4,6.6,803.6,6.6z M865.7,6.5
	c2.4-0.2,9.6-0.1,16.1-0.1C880.4,6.6,870.3,6.4,865.7,6.5z M968.3,6.4c-6.5,0-12.5,0-14-0.2c4.8,0,4.3,0.2,9.1,0.1
	c5.1,0,3.4-0.2,10.4-0.1c0.2,0-0.5,0-1.2,0c-0.2,0,0.5,0,1.2,0C972.8,6.3,967.5,6.2,968.3,6.4z M1114.6,6.3c1.2-0.1,15.2-0.1,12.5,0
	S1117.5,6.4,1114.6,6.3z M749.7,6.2c5.8,0,5.8,0,10.4,0C759.8,6.5,749.2,6.4,749.7,6.2z M747,6.4c-4.6-0.1-6.3,0-14-0.1
	c2.4-0.2,8.4,0.1,9.1-0.1C744.9,6.2,749.9,6.3,747,6.4z M1073,6.3c-2.2,0-4.6,0-6.7,0C1065,6.1,1070.6,6.2,1073,6.3
	C1073,6.2,1073,6.3,1073,6.3z M1045.5,6.2c0.2,0,2.2,0,2.2-0.1C1047.7,6.1,1046.5,6.1,1045.5,6.2c-1.4-0.1-1,0-1.2,0
	c-3.6,0-3.1,0-5.8,0c0.2,0,2.2,0,2.2-0.1c-1-0.1-2.9,0-5.8,0c2.9-0.2-2.4-0.1-2.2-0.2c8.4,0.1,18.8,0.2,26.5,0.1
	c-0.5,0.1,4.8,0.1,4.6,0.2c-2.4,0-6.5,0-8.2-0.1C1053.7,6.2,1050.1,6.3,1045.5,6.2z M1128.3,6.2c-2.6,0.1-11.3,0.1-12.5,0
	c0.2-0.1,6.3,0.1,6.7-0.1c-3.6,0-7.2,0-12.5,0c0-0.1-1-0.1-2.2-0.1c1.7,0,7.2-0.1,4.6-0.3c4.8,0,6.7-0.1,11.6-0.2
	c-4.1,0.1-2.9,0.4-9.1,0.3c-0.2,0.1,1.7,0.1,3.6,0.1c1.9,0,2.4,0,4.6,0c-1,0-1.7-0.1,0-0.1C1127.6,5.9,1118.7,6.2,1128.3,6.2z
	 M1093.7,6.2c-0.2-0.1,3.9-0.2,5.8-0.1C1098.5,6.2,1097.3,6.3,1093.7,6.2z M1000.5,5.9c-1.9,0.1,0.2,0.1,1.2,0.2
	c-5.5,0.1-5.3-0.1-6.7-0.2C996.4,5.9,997.1,5.9,1000.5,5.9z M979.8,6.1c-0.2,0-1.2,0-1.2-0.1c-2.4,0-5.8,0.1-6.7,0
	c6.5-0.1,8.7,0.1,14.9,0c-1,0-1.4,0.1-1.2,0.2c-5.5-0.1-4.3,0-10.4,0C975.5,6.1,977.2,6.1,979.8,6.1z M1028,6.1
	c-2.4,0.1-7.5-0.1-6.7-0.2C1027,6,1024.8,6.1,1028,6.1z M994.7,6c-1,0-2.9,0-6.7,0C986.6,5.9,993.8,6,994.7,6z M1125.9,5.9
	c5.8,0,8.9,0.1,14.9,0C1138.9,6,1125.2,6.1,1125.9,5.9z M1088.1,5.8c2.6,0,4.3,0.1,8.2,0.1c3.9,0,0-0.2,5.8-0.3
	c-0.7,0.1,0.5,0.1,3.6,0.1c-2.4,0.1-1.4,0.1-1.2,0.2C1096.1,6,1091,6,1088.1,5.8z M1109.8,5.8c-4.3,0-4.1-0.2,1.2-0.1
	C1111.3,5.7,1109.6,5.7,1109.8,5.8z M1245.8,5.7c-3.1,0-3.9-0.1-3.6-0.1c1.4,0,3.1,0,4.6,0C1247.5,5.6,1246.1,5.6,1245.8,5.7z
	 M1109.8,5.6c-3.6,0-2.6,0-6.7,0c0.7,0,1.2-0.1,1.2-0.1C1106.2,5.5,1110.3,5.5,1109.8,5.6z M1013.3,5.3c0.2,0.2-1.4,0.1,0,0.3
	c-4.1,0-4.6,0-10.4,0c-1.2-0.1,0.7-0.1-2.2-0.2c-3.4,0,1.4,0.1,0,0.2c-2.9,0-6.3,0-10.4,0C997.4,5.4,1001.7,5.2,1013.3,5.3z
	 M982.2,5.6L982.2,5.6c1.2-0.1,1.9-0.1,2.2,0c2.4,0,2.2-0.1,4.6,0C988.2,5.5,986.1,5.6,982.2,5.6z M979.8,5.6
	c-3.1,0-1.2-0.1-3.6-0.1c0.7,0,2.4-0.1,4.6-0.1C981,5.4,981,5.5,979.8,5.6z M702.2,5.5c-2.6-0.1-1.9-0.3-8.2-0.2
	c0.2,0-0.2-0.1-1.2-0.1c2.6-0.1,6.3-0.1,10.4-0.1C701.5,5.3,702,5.3,702.2,5.5z M1248.2,5.4c-0.2,0.1-4.8,0-6.7,0c0.2,0,1.9,0,3.6,0
	c-1.2-0.1-2.2-0.3,3.6-0.3C1245.3,5.2,1244.4,5.4,1248.2,5.4z M1054.7,5.4c-3.1,0-7,0-5.8-0.2c4.3,0,6.5-0.1,14,0
	C1059.7,5.3,1055.6,5.3,1054.7,5.4z M1240.1,5.4c-5.8,0,1.7-0.2-3.6-0.2c1.2-0.1,3.6-0.1,6.7-0.1c0,0-1.2,0-2.2,0
	C1244.4,5.3,1239.8,5.3,1240.1,5.4z M1028,5.4c-3.9,0-5.3-0.3,1.2-0.2C1029.4,5.3,1029.6,5.4,1028,5.4z M1044.3,5.3
	c-2.6,0.1-6.3-0.1-10.4,0c0.5-0.1,5.1-0.1,5.8,0c1.9,0,2.6-0.1,2.2-0.1c1.7,0,3.9,0.1,3.6,0.1c-0.7,0-1.4,0-2.2,0
	C1042.9,5.3,1043.6,5.3,1044.3,5.3z M659.9,5.3c-1.7,0.1-7.5,0-5.8-0.1C658.9,5.1,655.3,5.3,659.9,5.3z M715,5.3
	c-2.6,0-4.3-0.1-8.2,0c1.7-0.2,10.4,0,11.6-0.1C718.1,5.2,714.8,5.2,715,5.3z M662,5.1c3.6,0.1,3.6,0.1,8.2,0
	C669.3,5.3,660.6,5.4,662,5.1z M1262,5.2c-1.9,0-3.9,0-5.8,0C1255,5.1,1259.8,5.2,1262,5.2L1262,5.2z M914.3,5.1
	c-3.4,0,0.7-0.3,4.6-0.3C918.2,4.9,915.1,5,914.3,5.1z M1078.8,5.1c-0.7,0.1-7,0-8.2,0c1.2-0.1,1.7-0.1,4.6-0.1
	C1074.7,5.1,1077.8,5,1078.8,5.1z M933.6,5.1c-2.9,0-4.8-0.1-5.8,0c-1.2-0.1-0.5-0.1-2.2-0.2c3.4,0,4.8,0,8.2,0
	C933.6,5,932.4,5,933.6,5.1z M701.3,5.1C699.8,5.1,700.6,5.1,701.3,5.1c-3.6-0.2-5.8-0.1-9.1-0.1c-0.5-0.1,2.2-0.2,3.6-0.3
	C696,4.8,701.5,5,701.3,5.1z M1029.4,5.1c-1.4,0-3.1,0-4.6,0C1023.9,4.9,1030.4,4.9,1029.4,5.1z M1202,5c-3.1-0.1,5.8-0.2,5.8,0
	C1206.1,5,1201.8,4.9,1202,5z M680.6,5c-1.9-0.1,0.5-0.1,3.6-0.1C684.2,4.9,683.5,5,680.6,5z M1045.5,5c-1.9-0.1,4.6-0.1,9.1-0.1
	C1053.5,4.9,1047.2,4.9,1045.5,5z M1031.6,4.5c-3.4,0.1-9.9,0.1-12.5,0.3c-1.9,0-3.9,0-5.8,0V4.7c-3.6,0-2.6,0.1-6.7,0.1
	c0.5-0.1-1.4-0.1-3.6-0.1c3.1-0.1,2.6-0.2,8.2-0.2c0.7,0.1-2.2,0.1-2.2,0.1c1,0,1.2,0,1.2,0c3.4,0,2.6-0.2,5.8-0.3
	c-1.7-0.1-5.3-0.1-9.1,0c0.5-0.1,3.1,0,1.2-0.2c4.8,0,5.3,0.2,9.1,0c2.2,0.1,0.5,0.1,0,0.2c1,0,1.4,0,2.2,0c3.4-0.1-1.4-0.2-1.2-0.3
	c-2.9,0-3.6,0.1-5.8,0c1-0.1,4.6-0.2-1.2-0.1c-1.9-0.1,4.1-0.1,1.2-0.2c3.9-0.1,7.5-0.2,5.8-0.4c-5.3,0.1-13.7,0.1-14.9-0.2
	c-6.7,0-12.3,0-17.1-0.1c-0.2,0,0.5,0,1.2,0c1,0,1.2,0,1.2,0c1.7,0-0.2,0,0,0.1c4.1,0,11.3,0,11.6-0.1c5.8,0,8.9,0,14,0
	c-7,0.4,6.3,0.4,19.7,0.4c0.5,0.1-1,0.1-1.2,0.1c0.5,0,2.9,0,4.6,0c1-0.1-3.1-0.1-2.2-0.2c5.5,0,11.1,0,14-0.1
	c1-0.1-1.4-0.1-1.2-0.2c-1.9,0.2-5.1,0-9.1,0.1c0.2-0.2-11.3,0-12.5-0.1c-0.7-0.1,8.7,0,11.6,0c-2.4,0-12,0-15.4,0
	c-3.1-0.1,5.1-0.2,5.8-0.1c3.9,0-2.4-0.1,1.2-0.1c-1-0.1-3.9-0.1-5.8-0.1c4.1-0.1,8.9-0.1,16.1-0.1c1,0.1-1.2,0.2-3.6,0.2
	c7,0.3,8.4,0.3,21.9,0.3c1.2-0.1-3.9,0-2.2-0.1c5.1,0,3.4-0.1,6.7-0.1c-3.4-0.1-11.3,0-12.5-0.2c6.5,0,13,0,19.7,0
	c1.2,0,1.2,0.1,1.2,0.2c1,0,1.2,0,2.2,0c2.4,0,0.2-0.2,2.2-0.2c6.7,0,6.5,0.1,10.4,0c1.9,0.1,4.1,0.3,9.1,0.3c0,0.1-0.2,0.1,1.2,0.1
	c-0.5,0-2.9,0-4.6,0c0.2,0.1,5.1,0,5.8,0.1c-3.9,0.1-14.2-0.1-19.7,0.1c0.5,0,1.2,0.1,2.2,0.1c-2.9,0-13.2-0.1-17.1-0.2
	c-3.4,0.1-6,0.1-9.1,0.2c1.9,0.1,12.3,0,8.2,0.2c5.3-0.1,12.8,0,18.5,0c-2.9,0.1-7.7,0.1-8.2,0.2c-6,0-7.7-0.1-10.4-0.1
	c3.1,0.1-4.8,0.2-6.7,0.3c-0.2,0.1,4.1,0,5.8,0c-0.7,0-1.2,0.1-1.2,0.1c-2.6,0-4.3,0-5.8,0c-1,0.1,2.4,0.1,3.6,0.1
	c-1.7,0.1-2.9,0-5.8,0c3.1,0.1-1.2,0.1-1.2,0.2c-1.9,0-3.4-0.1-5.8-0.1c1.2,0.1,1.7,0.2-1.2,0.2c0.2,0,1.2,0,1.2,0.1
	c1.4-0.1,3.9-0.1,6.7-0.1c-3.9,0.1-3.9,0.3-9.1,0.4c-1.9,0-0.2-0.1,0-0.1c-4.1,0.1-7.5,0.2-10.4,0.3c-4.6,0,2.2-0.2-2.2-0.2
	C1024.6,4.7,1032.5,4.6,1031.6,4.5z M956.9,4.7c3.1-0.2,4.8,0.1,8.2-0.1c-1.2,0-1.2,0.1-1.2,0.2c5.5,0,2.4-0.2,8.2-0.2
	c-2.2,0.1-0.2,0.1,0,0.2c-2.4,0-2.2,0.1-4.6,0.1C958.1,4.9,963,4.8,956.9,4.7z M946.6,4.7c-1.2,0-4.1,0-3.6,0.1
	c-1.4,0-1.7-0.1-3.6-0.1c0.5,0.1-1.4,0.2,2.2,0.2c-1.4,0.1-5.8,0.1-6.7,0c-0.7-0.2,4.6-0.2,3.6-0.4c3.4,0,7.9,0,8.2-0.1
	c0.5-0.1-6.5,0-4.6-0.1c1.9,0,3.9,0,5.8,0C948.5,4.5,943.7,4.5,946.6,4.7z M703.5,5c-2.2-0.1-1-0.1-4.6,0
	C697.9,4.8,708.5,4.9,703.5,5z M916.5,4.8c-3.9-0.1,1.2-0.1,1.2-0.2C920.8,4.6,916.7,4.7,916.5,4.8z M722,4.8c-1.2,0-2.2,0-3.6,0
	C716.7,4.7,722.5,4.8,722,4.8c-1.4-0.2-9.1,0-8.2-0.3c1.4,0,4.1,0,5.8,0.1c3.9-0.1-3.9,0-2.2-0.1c3.9,0,3.6-0.1,4.6-0.1
	c1,0,2.6,0,4.6,0c-0.5-0.1-2.4-0.1-2.2-0.2c1.4,0,4.1,0,5.8,0c-0.7,0.2,0.5,0.3-8.2,0.3c0.7,0,1.2,0.1,1.2,0.1
	c2.4-0.1,7.5-0.1,12.5-0.1c-1.4,0.1-7.5,0.3-9.1,0.1C725.6,4.7,722.2,4.7,722,4.8z M701.3,4.8c0.2,0-0.2-0.1-1.2-0.1
	c5.3,0,1.7-0.1,6.7-0.1c-3.1,0.1,1.2,0.1,1.2,0.2C705.4,4.7,704.9,4.8,701.3,4.8z M1062.6,4.7c-6,0.1-11.8-0.1-14.9,0
	c-4.1-0.1,5.3-0.1,8.2-0.1c0-0.1-1.9-0.1,0-0.1c-0.7,0-2.4-0.1-4.6-0.1c1.9-0.2,12-0.1,14.9-0.3c0.7,0.1-3.6,0.1-2.2,0.2
	c-4.1-0.1-2.9,0-4.6,0.1C1060.9,4.6,1063.8,4.5,1062.6,4.7z M932.6,4.7c-4.3-0.1-4.3-0.1-9.1,0c-0.2-0.1-2.2-0.1,0-0.2
	c6.5,0.1,3.9,0.1,5.8-0.1C932.4,4.4,931.7,4.6,932.6,4.7z M1048.9,4.6C1048.9,4.6,1048.9,4.5,1048.9,4.6c2.2-0.1,1.4-0.1,4.6-0.1
	c0,0,0,0,0,0.1C1050.4,4.6,1051.3,4.6,1048.9,4.6z M953.3,4.5c-1.4-0.2,5.3-0.2,4.6,0C956,4.5,955.5,4.5,953.3,4.5z M757.4,4.5
	c-1.4,0-3.1,0-4.6,0c0.2,0-0.2-0.1-1.2-0.1C752.6,4.4,758.3,4.4,757.4,4.5z M743.9,4.5c1.4-0.1,5.8-0.1,6.7,0
	C749.9,4.6,746.3,4.5,743.9,4.5z M779.5,4.4c-4.6-0.2,3.9-0.4,6.7-0.2C784.1,4.3,781,4.4,779.5,4.4z M1089.1,4.4
	c-2.9-0.2-8.2-0.1-12.5-0.1C1078.3,4.1,1088.1,4.1,1089.1,4.4z M49.4,4.4c-3.4-0.1,1.9-0.1,1.2-0.2c3.1,0,3.1,0.1,3.6,0.1
	C52,4.2,50.6,4.3,49.4,4.4z M1091.5,4.3c-1.2-0.1,6.7-0.1,5.8,0C1095.1,4.4,1094.4,4.3,1091.5,4.3z M740.3,4.1c3.4,0,9.1-0.2,10.4,0
	c-7,0-14.2,0.1-16.1-0.1C740.5,4.2,736.9,4,740.3,4.1z M702.2,4.2c-1.7-0.3-9.4,0-11.6-0.2c-1.4,0.1-3.4,0.1-4.6,0.2
	c-1.7-0.1-2.4-0.1-2.2-0.3c3.6,0,8.2,0,5.8-0.1c4.6,0.1,3.9,0.1,9.1,0C697.2,4.1,704.4,4,702.2,4.2z M995.9,3.7
	c1.2-0.1-3.9,0-2.2-0.1c5.3,0,6.5,0.1,10.4,0c0.7,0.1,0.2,0.2,2.2,0.3c-1.9,0-3.9,0-5.8,0c0-0.1,0.2-0.1-1.2-0.1
	c0.7,0.2-6.5,0.2-6.7,0.4c-1.9-0.1-6.5,0-8.2,0c-3.9-0.1,3.6-0.1,1.2-0.2c3.6,0,3.1,0.1,5.8,0c-4.1-0.2,2.4-0.2-3.6-0.3
	C988.7,3.6,992.6,3.7,995.9,3.7z M678.2,3.9c1.2,0,2.6,0,4.6,0c0.5,0.1-2.2,0.1-1.2,0.3C678.7,4.1,678.9,4,678.2,3.9z M728.7,3.9
	c5.1,0,8.7-0.1,9.1,0.1c-1.7,0-1.9,0-3.6,0C733.5,4.1,727.5,4.1,728.7,3.9z M717.4,4.1c0.2-0.1-1.2-0.3,3.6-0.3
	C720.3,3.9,718.6,4,717.4,4.1z M664.2,4c-2.4,0-6-0.1-5.8-0.2c5.1,0.1,10.8-0.1,16.1,0C670.5,3.9,665.7,3.8,664.2,4z M53,4
	c1-0.1,3.9-0.1,8.2-0.1C60,3.9,56.1,4,53,4z M809.4,3.8c0.5-0.1-3.9-0.4,8.2-0.4c0,0.1-1,0.1-2.2,0.1c4.3,0.1,8.2-0.1,14,0.1
	C821.9,3.6,819.7,3.8,809.4,3.8z M769.2,3.7c-3.6-0.1-4.3,0-6.7,0V3.6C766.5,3.6,768.2,3.6,769.2,3.7z M719.6,3.3
	c3.4-0.1,6.5,0.1,8.2-0.1c1.7,0.1,7,0.1,6.7,0.3c4.3,0,10.8,0.1,16.1,0c-1-0.1,1.9-0.2,1.2-0.3c-2.4,0-1.7,0.2-3.6,0.2
	c-1-0.1-5.3-0.1-5.8,0c-2.2,0-1.7-0.2,1.2-0.1c0.2-0.1-1.2-0.1-1.2-0.1c-1.7,0.1-1.2,0.2-3.6,0.2c-2.9-0.1,3.1-0.2-1.2-0.3
	c4.3-0.1,11.6,0.1,14-0.1c3.9,0,6.3,0,6.7,0.1c-3.4,0-4.1,0-5.8,0.1c-1,0.1,2.2,0.1,2.2,0.1c2.2,0,0.7-0.1,2.2-0.1
	c6.5,0.1-0.2,0.3,3.6,0.4c-3.1,0-7.7,0-4.6-0.1c-2.9,0.1-10.4,0.1-9.1,0.2c-2.2,0.1-4.6-0.1-8.2-0.1c-3.4,0,1.7,0.1-1.2,0.1
	c-2.2,0-1.9-0.1-5.8-0.1c1.7-0.1-1.2-0.2,1.2-0.3c-7.7,0-1.4,0.2-4.6,0.3C721.5,3.6,722,3.5,719.6,3.3z M722,3.6
	c-3.6,0-7.9,0-9.1-0.1C717.2,3.6,721.3,3.4,722,3.6z M1203.2,3.7L1203.2,3.7c3.6,0,8.4-0.1,11.6-0.1
	C1217.4,3.6,1206.6,3.6,1203.2,3.7z M698.9,3.6c-4.1,0-5.1-0.1-8.2,0c-3.6-0.2,6.5-0.1,10.4-0.1C700.8,3.6,699.1,3.6,698.9,3.6z
	 M801.4,3.6c-1.9,0-2.4,0-4.6,0C796.1,3.4,802.9,3.4,801.4,3.6z M1125,3.5c-1,0.1-6.5,0-9.1,0C1116.1,3.3,1121.6,3.5,1125,3.5z
	 M991.4,3.5c1.2-0.2,8.4,0,11.6-0.1C1002.2,3.6,992.1,3.4,991.4,3.5z M827.9,3.5c-4.8,0-3.6-0.2-2.2-0.3c3.4,0.2,7.7,0,14,0
	C836.8,3.4,827.2,3.3,827.9,3.5z M666.6,3.4c-1.2,0-3.1,0-5.8,0c1-0.1-2.9-0.2,0-0.3C665.2,3.2,666.1,3.3,666.6,3.4z M1216,3.3
	c0.5,0.1-1.4,0.1-4.6,0.1c6.3-0.1,0.2-0.2-1.2-0.3C1214.1,3.1,1213.1,3.3,1216,3.3z M1202,3.4c-1.2,0-2.2,0-3.6,0
	c0.5-0.2-1.2-0.2-5.8-0.1c1.2-0.2,6.3-0.1,9.1-0.1C1203.7,3.2,1203.7,3.4,1202,3.4z M612.7,3.1c3.1-0.1,8.7,0,9.1-0.1
	c4.3,0,5.1,0.2,10.4,0.2c-0.5,0.2,1.9,0.2-4.6,0.3c-1.7-0.1-6.3-0.2-10.4-0.3c-1,0-1.2,0-1.2,0C622.1,3.3,612,3.3,612.7,3.1z
	 M1120.2,3.4c-1,0-1.7,0-3.6,0c0.2-0.1,2.6-0.2,6.7-0.1C1125.9,3.4,1119.2,3.2,1120.2,3.4z M1228.5,3.3c-6.3,0-2.9-0.3-10.4-0.3
	c0.5,0,1.2-0.1,2.2-0.1c0.2-0.1-7-0.1-6.7,0c-1.2-0.2,13-0.1,16.1-0.1c-2.6,0-3.4,0.1-5.8,0.2c1.4,0.1,5.1,0.1,6.7,0.1v0.1
	C1229.5,3.3,1228.7,3.3,1228.5,3.3z M679.1,3.3c-3.4-0.1-4.6,0-8.2-0.1c-1.2-0.1,2.9-0.1,2.2-0.2C675.5,3.1,678.9,3.2,679.1,3.3z
	 M77.1,3.3C79.2,3.2,77.1,3.3,77.1,3.3C79.9,3.2,92,3,91,3.2c3.4,0,5.1-0.1,10.4-0.1C94.9,3.2,85.5,3.2,77.1,3.3z M811.8,3.3
	c-3.1-0.1-4.3,0-8.2-0.1C806.2,3,815.4,3.1,811.8,3.3z M658.4,3L658.4,3c-5.1,0-13.7,0.4-14,0c3.1,0,2.2-0.1,3.6-0.1
	C649.8,3.2,654.1,3,658.4,3z M840.4,3.2c1.2,0,3.4-0.1,2.2-0.2c4.6-0.1,6.7,0.2,5.8,0.1c1.2-0.1,2.2,0,3.6,0
	C851.5,3.3,844.3,3.2,840.4,3.2z M736.7,3.2c-3.4,0-5.3-0.1-5.8-0.2C735.7,3,736.2,3.1,736.7,3.2z M541.2,3.2
	c-3.9,0,5.3-0.2-2.2-0.1c0.5,0,2.9,0,4.6,0c0,0.1-0.2,0.1,1.2,0.1C544.3,3.3,541.4,3.2,541.2,3.2z M838.3,3.1
	c-1-0.1-2.9-0.1-3.6-0.2c-2.2,0-2.9,0.1-5.8,0.1c0,0.1-0.2,0.1,1.2,0.1c-2.9,0.1-6-0.1-6.7-0.2c3.1-0.1,9.4,0,14-0.1
	C838.7,2.9,836.3,3,838.3,3.1z M809.4,2.9c3.4,0,7.5-0.1,11.6,0c-1,0-1.2,0.1-1.2,0.1C813.7,3.1,810.1,3.1,809.4,2.9z M1114.6,2.9
	c4.1,0,3.4,0.1,6.7,0.1C1119.7,3.2,1116.1,3,1114.6,2.9z M593,3c0.2,0.1-4.1,0-5.8,0c-2.2,0,0.7,0,2.2,0c-0.2-0.1-4.6-0.2,1.2-0.2
	C589.3,3,589.8,3,593,3z M110.5,3.1C107.2,3,104.5,2.9,99,3c2.2-0.1,7,0,11.6-0.1c-1.7,0.1-3.9,0.2,2.2,0.2
	C112.4,3,110.5,3,110.5,3.1z M116.3,3c1-0.1,3.6-0.1,5.8-0.1c-0.2,0-2.2,0-2.2-0.1c-2.4,0.1-3.6,0.2-7,0.2c1.7-0.1,3.9-0.2-1.2-0.1
	c1.2,0,1.2-0.1,2.2-0.2c1.7,0.1,6,0,6.7,0C124.5,2.7,122.8,3,116.3,3z M732.3,2.9c-1.9,0-2.2,0-2.4-0.1c-2.9,0-4.3,0.1-4.6-0.1
	c1.4,0,3.1,0,4.6,0C728.5,2.9,733.8,2.8,732.3,2.9z M1125,2.9c-2.2,0-4.6,0-6.7,0c1,0,1.2-0.1,1.2-0.1
	C1122.8,2.7,1124.7,2.8,1125,2.9z M663,2.7c1.2-0.1,7-0.1,6.7,0C666.6,2.8,665.4,2.8,663,2.7z M727.8,2.8c-3.9,0-0.7-0.1-1.2-0.2
	C731.6,2.6,729.5,2.7,727.8,2.8z M642.3,2.8c-2.4,0-2.4-0.1-2.2-0.2c3.1,0,4.8,0,4.6,0.1c-1,0-1.2,0-2.2,0
	C642.3,2.7,642.3,2.7,642.3,2.8z M1218.1,2.7c1-0.1,2.9-0.1,5.8-0.1C1224.2,2.7,1219.8,2.7,1218.1,2.7z M710.2,2.3
	c-0.2,0.1,1.7,0.1,3.6,0.1c1.9,0,1-0.1,4.6-0.1c-0.2,0.1-3.1,0.1-4.6,0.1c-0.7,0.1,3.9,0.1,3.6,0.2c-6.5,0-10.4,0-14.9-0.1
	c10.6,0.1,3.4-0.5,10.4-0.3C711.9,2.3,711.6,2.3,710.2,2.3z M1115.6,2.6c1,0,1.2,0,1.2,0c-4.1-0.1-2.2-0.2-10.4-0.1
	c1,0,1.7-0.1,0-0.1c0.5-0.1,3.6,0,2.2,0.1c1.9-0.1,4.6-0.1,9.1,0c-2.4,0.1-1.2,0.2,3.6,0.1c-0.2,0.1,1.2,0.1,1.2,0.1
	c-3.9,0-6.5,0-9.1,0C1113.7,2.6,1115.6,2.6,1115.6,2.6z M861.1,2.6c-3.9,0-6.7-0.2-9.1-0.1c-3.1-0.1,3.6-0.2,9.1-0.2
	C863.1,2.5,859.2,2.4,861.1,2.6z M1030.6,2.5c-1.2,0.1-3.9,0-5.8,0C1026.5,2.3,1028.2,2.5,1030.6,2.5z M502.9,2.6
	c-1.9,0-3.9,0-5.8,0c0-0.1,2.2-0.2,6.7-0.2C504.8,2.5,502.2,2.5,502.9,2.6z M159.9,2.5c-3.9,0-11.8,0-17.1,0
	C145.2,2.2,155.3,2.4,159.9,2.5z M673.4,2.5c-1.9,0-3.9,0-5.8,0c1.4-0.1-3.9-0.1-2.2-0.2c-1.2,0-1,0.1-1.2,0.1
	c-3.6,0-1.4-0.1-1.2-0.2c4.3,0,13.7,0.1,14.9,0.1C683,2.6,671.9,2.3,673.4,2.5z M621.6,2.5c-3.1-0.1-4.1-0.1-9.1-0.1V2.3
	c2.9,0,5.5,0,6.7,0.1c-0.5-0.1,3.4-0.1,8.2-0.1C627.4,2.4,623,2.4,621.6,2.5z M682.7,2.5c0,0-1.2,0-2.2,0c-0.2-0.2,6.7-0.2,9.1-0.1
	C687.8,2.4,686.6,2.5,682.7,2.5z M657.5,2.5c-3.1,0.1-4.3-0.2-6.7-0.3c-2.2,0-0.7,0.1-2.2,0.1c-3.9,0-2.4-0.1-4.6-0.1
	c3.6-0.1,7.2,0,10.4-0.2c3.4,0.1,4.8,0.2,5.8,0.3c-1.9,0-3.1,0-3.6,0.1C656,2.5,656.7,2.5,657.5,2.5z M567.7,2.5
	c-5.3,0-0.5-0.2,0-0.2c3.1,0.1,6,0,10.4,0c1.2,0.1-3.9,0.1-3.6,0.1c-1.2,0-1.7-0.1-2.2-0.1C569.4,2.3,567.9,2.4,567.7,2.5z
	 M512.3,1.9c2.6,0,5.3,0,8.2,0c1.2,0,1.9,0.1,3.6,0.1c0.7-0.2,4.1,0.1,8.2,0c-1.4,0.2-3.9,0.1-9.1,0.1c1.2,0.2,9.9-0.1,10.4,0.2
	c1.2-0.1,3.9-0.1,4.6,0c3.6-0.2,8.4-0.1,14-0.1c0.5,0.1-0.2,0.1-1.2,0.2c-2.9,0-4.8-0.1-5.8,0c-2.6,0-2.6-0.1-1.2-0.1
	c-3.9,0.1-5.3,0.2-11.6,0.1c5.8-0.1-19.3,0.1-24.3-0.1c-0.2-0.1,1.7,0,3.6-0.1c0.5-0.1-2.9-0.1-4.6-0.1
	C508.7,2.1,513.3,2.1,512.3,1.9z M158.7,2.3c-2.4,0,1.7-0.2,4.6-0.1c0.5,0,1.2,0.1,2.2,0.1C165.9,2.4,158.4,2.2,158.7,2.3z
	 M554.9,2.3c-0.2-0.1,1.2-0.1,1.2-0.1c2.2,0,4.8,0,4.6,0.1C557.8,2.3,558,2.3,554.9,2.3z M169,2.3c-1.2,0-1-0.1-1.2-0.1
	c4.1,0,6.7-0.1,11.6-0.1C177,2.2,171.4,2.2,169,2.3z M641.3,2.2c-3.6,0-5.5-0.1-5.8-0.2c4.8,0,1.2-0.2,1.2-0.3
	c4.3,0.1,3.9-0.2,2.2-0.1c-2.9-0.1,1.2-0.1,4.6-0.1c-0.2,0.1-2.2,0.1,1.2,0.1c2.2-0.1-1.7-0.1,4.6-0.1C649.8,2,638.9,2,641.3,2.2z
	 M581.4,2.2c0.2,0.1-4.1,0-5.8,0c0.5-0.1-1.7-0.2-6.7-0.2V1.9c1.9,0,3.9,0,5.8,0c1.2,0.1,1,0.2,5.8,0.1
	C580.4,2.1,579.7,2.2,581.4,2.2z M565.3,2c-4.8,0.1-8.7-0.1-14.9-0.1C554.9,1.7,562.4,1.9,565.3,2z M586,1.9
	c2.2-0.1,5.5-0.3,10.4-0.2c-0.7,0.1-5.3,0-5.8,0.1c1,0.1,3.1-0.1,5.8,0c0.5,0,1.2,0.1,2.2,0.1C597.3,2.1,587.4,2,586,1.9z
	 M672.4,1.9c-1.7,0.2-5.8,0-9.1,0C660.1,1.8,670.7,1.9,672.4,1.9z M583.8,1.9c-2.4,0-3.1,0-4.6,0c1.2-0.1,4.1-0.2,8.2-0.1
	c-0.2,0-2.2,0-3.6,0C585,1.8,584,1.8,583.8,1.9z M438.6,1.8c-1.7,0,0.5,0,0,0.1c-1,0-1.7,0-3.6,0c-1.4-0.1,5.5-0.2,4.6,0
	C438.9,1.8,438.6,1.8,438.6,1.8z M679.1,1.8c-0.7,0.1-5.3-0.1-5.8,0c-3.6,0-0.7-0.1-2.2-0.2C675,1.6,675,1.8,679.1,1.8z M447.8,1.7
	c-1.2,0-1-0.1-2.2-0.1c0.2-0.1,4.8,0,6.7,0c-0.2,0,0.2,0.1,1.2,0.1C452.6,1.7,450.4,1.7,447.8,1.7C447.6,1.7,450,1.6,447.8,1.7z
	 M592,1.5c-0.2,0-1.2,0-1.2,0c-2.9,0.1,1.2,0.1,4.6,0.1c-2.4-0.1,11.1-0.1,11.6,0c-5.3,0-16.1,0.1-19.7,0.1c-3.4,0,0.2-0.2,0-0.2
	C590.3,1.4,589.3,1.5,592,1.5z M211.6,1.6c-1.2,0-1-0.1-1.2-0.1c1.9,0,6.7,0,6.7,0c1.4,0,1-0.1,1.2-0.1c6.5,0.2,18.1-0.2,28.9,0
	c-0.5,0.1-3.1,0.1-3.6,0.1C230.9,1.5,221,1.5,211.6,1.6z M510.1,1.5c-2.9,0-6,0-5.8-0.1C508,1.3,509.9,1.4,510.1,1.5z M436.5,1.5
	c0,0,1.2,0,2.2,0c-0.2,0-1.2,0-1.2-0.1c-4.3,0.1-4.8,0-9.1,0c-1.9-0.1,0.5-0.1-1.2-0.2c1.9,0.1,4.3,0.1,3.6-0.1c2.2,0,1,0.1,4.6,0.1
	c0.2,0.1-1.2,0.1-1.2,0.1c4.3,0.1,5.5-0.1,10.4,0C442.5,1.4,439.8,1.4,436.5,1.5z M333.9,1.2c0.2-0.1,1.9-0.1,4.6-0.1
	c-0.2-0.1-3.9,0-4.6-0.1c8.9-0.1,15.4,0.1,23.1,0.1C354.9,1.5,338.3,1.4,333.9,1.2z M362.6,1.4c-3.1,0-3.9-0.1-4.6-0.2
	C361.4,1.2,365.7,1.3,362.6,1.4z M684.9,1.1c-3.1,0-2.2,0.1-4.6,0c-0.2,0,0.2,0.1-1.2,0.1c-2.9,0-5.5,0-5.8-0.1c1.9,0,3.6,0,4.6,0
	c0.5-0.1-3.9-0.1-5.8-0.1c1,0.2-6.5,0.1-6.7,0c-1.9,0.3,8.7,0.2,11.6,0.3c1.7-0.2,19.7,0.1,16.1-0.1C693.1,1.4,680.3,1.2,684.9,1.1z
	 M1287.2,6.1c-12.8,0.1-22.4-0.1-28.9,0.1C1268.2,6.3,1278.3,6.2,1287.2,6.1z M1148.1,4.9c-1,0-1.4,0.1-1.2,0.2
	c5.8,0.1,14.2-0.1,11.6-0.2c-1.2,0.1-5.1,0.2-9.1,0.2C1145.9,5,1151.2,4.9,1148.1,4.9z M938.4,3.3c0.7,0.2-0.5,0.2-3.6,0.2
	c1.2,0.2-1.2,0.2-3.6,0.3c6.3,0.1,11.1,0.1,12.5,0C936.2,3.7,945.2,3.5,938.4,3.3z M1035.2,3.6c1.2,0,3.9,0.2,1.2,0.2
	c-4.6,0.1-0.5-0.2-3.6-0.1c-3.4,0.1-1.2,0.1-1.2,0.2C1039.5,4,1041.9,3.5,1035.2,3.6z M904.9,3.6c3.6,0,2.2-0.1,5.8-0.1
	c1.9,0.1-1,0.1,1.2,0.1c4.1,0.1,0.7-0.1,3.6-0.1c0.7,0.1,2.4,0.1,3.6,0.2c-2.2,0-5.1,0-4.6,0.1c3.9-0.1,8.4,0.2,10.4-0.1
	c-2.6,0-4.3,0-4.6-0.1c1.7-0.1,2.4-0.1,1.2-0.2c4.6,0,8.7,0,10.4,0.1c0.5-0.1,3.4-0.1,2.2-0.2c-1.2,0-3.4,0-3.6,0
	c3.6,0,3.9-0.1,2.2-0.2c-3.6,0-3.1,0.1-5.8,0.1c-3.1-0.1-1-0.1-2.2-0.2c-3.9,0-3.9,0.1-8.2,0c-1,0.2,3.1,0.1,4.6,0.2
	c-4.8,0-7.7,0-11.6,0c-2.4-0.2-0.2-0.3-3.6-0.3c-1-0.1,5.5,0,4.6-0.1c-2.9,0-2.4-0.1-5.8,0c-3.6,0.1-5.3,0.3-9.1,0.4
	c5.1,0.1,8.9,0.1,6.7,0.3c3.9-0.1,6.3,0.3,10.4,0.1c-2.2,0,0.7-0.1-1.2-0.1C912.4,3.7,905.4,3.7,904.9,3.6z M1241.3,3.4
	c2.2,0,2.4,0,1.2,0.1c3.6,0,3.4-0.1,6.7,0c-0.7-0.1,1.2-0.2,2.2-0.3c-2.9,0-2.4,0.1-5.8,0c-1,0.1,1.4,0.1,1.2,0.2
	C1244.1,3.4,1242.2,3.3,1241.3,3.4z M907.1,2.3c-2.2,0-7-0.1-11.6,0c-1.9,0-3.9-0.1-3.6-0.2c7.9,0.2,20.2-0.3,27.7,0.1
	c0.7-0.1-1.2-0.2,1.2-0.2c10.1,0.2,4.3,0,14,0.1C933.1,2,937.9,2,937,1.9c-1-0.1-3.6,0-1.2-0.1c-1.9,0-3.9,0-5.8,0
	c1.7-0.1-3.1-0.1-3.6-0.1c2.2-0.1,7.5-0.1,8.2-0.3c-4.3,0-4.1,0-6.7,0c-1.7,0.1-3.4,0.2-4.6,0.3c-1.7,0-1-0.1-4.6-0.1
	c1.2,0.1-2.9,0.1-2.2,0.2c6,0.1,7-0.2,11.6-0.1c-0.5,0.2-5.8,0.2-10.4,0.2V1.8c-3.1,0-2.4,0.1-4.6,0c-0.2,0,0.2,0.1-1.2,0.1
	c-9.6-0.1-27.7,0-31.1,0.4c3.4,0.1,7.7,0,3.6,0.1c5.3,0.1,7,0.2,12.5,0.1c0.7-0.1-2.6-0.1,1.2-0.2c4.3,0,9.1,0.1,11.6,0.1
	C906.4,2.5,910.2,2.3,907.1,2.3z M948.8,2c-1.9,0-3.6,0-4.6,0c0.7,0.1-1.2,0.2,1.2,0.2c1.7-0.1,6-0.2,6.7-0.3c4.3,0,0,0.1,2.2,0.2
	c2.6,0,8.4,0,9.1,0c-3.9,0-1.2-0.1,0-0.1c-6.5,0.1-4.8-0.1-9.1,0c-0.2-0.1,0.5-0.1-1.2-0.1c-1.2,0.1-7.5-0.1-8.2,0
	c1.9,0,3.9,0.1,4.6,0.2C947.6,1.9,947.3,1.9,948.8,2z M1034,1.3c-3.4,0-4.1,0.2-6.7,0.1c-1.7,0.1-4.1,0.2-3.6,0.3
	c-2.6,0-4.3,0-5.8,0c2.6,0.1,1.7,0.1,0,0.3c4.3,0,10.4,0.2,14.9,0c-5.3,0-2.6-0.1-4.6-0.2c-1.2,0-4.6,0.2-6.7,0.1
	C1024.8,1.6,1029.6,1.6,1034,1.3z M1111,1.9c0.2-0.1-1.2-0.1-1.2-0.1c3.6,0,9.1,0,9.1-0.1c-9.4,0-15.9-0.2-22.9,0
	c2.9,0.1,10.4,0,10.4,0.2c-1.2,0-3.4,0-3.6,0C1106.2,2.1,1107.4,1.8,1111,1.9z M1161.8,1.6c-1.2,0-3.4,0-3.6,0
	c1.9-0.1,3.6,0.1,4.6-0.1c-17.1-0.1-28.4,0.3-40.4,0c-0.5,0.1-1.2,0.1-3.6,0.2c1,0,1.2,0,1.2,0.1c4.8,0.1,12.5-0.1,12.5,0
	c4.3,0,7.5-0.1,11.6-0.2c1.7,0.1,6,0.1,5.8,0.2c-2.4-0.1-6.3-0.1-8.2,0c5.5,0,9.6,0.1,12.5,0c0,0-1.4,0.1-1.2,0.1
	c1.4,0,6.7,0.1,6.7,0C1157,1.8,1161.3,1.8,1161.8,1.6z M1212.4,1.6c-1.2,0.1-6.5,0-6.7,0.1C1209.2,1.8,1215,1.7,1212.4,1.6z
	 M1240.1,1.5c-1.2,0.1-6.3,0-4.6,0.2c1.9,0,2.9,0.1,3.6,0C1235.7,1.6,1243.7,1.5,1240.1,1.5z M1112.2,1.6c3.4-0.1,7-0.2,11.6-0.2
	C1117.3,1.3,1112.9,1.4,1112.2,1.6z M163.5,1.4c-3.9,0-1.4,0.1-4.6,0.1c0,0-0.2,0-1.2,0c-1.2,0.1,2.4,0.2,3.6,0.1
	C157.5,1.5,163.5,1.5,163.5,1.4z M551.5,1.1c2.9,0.1,6.5,0.1,6.7,0.2C555.2,1.3,555.4,1.2,551.5,1.1c-0.5,0.1,1.4,0.1,2.2,0.2
	c-3.9,0-4.8-0.1-6.7,0c5.1,0,6.7,0.1,9.1,0.2c2.2-0.1,8.7-0.1,5.8,0c3.4-0.2,11.3-0.1,16.1-0.2c-1.9,0-0.7-0.1-2.2-0.1
	c0,0.1-2.6,0.1-4.6,0.2c-2.2-0.1-6.7,0-10.4-0.1c3.9-0.1,0-0.1,3.6-0.2C557.6,1.1,554.4,1.1,551.5,1.1z M1278.1,1.1
	c-11.6,0.1-21.4,0-28.9,0.2c3.9,0,10.8-0.1,14,0c-2.2,0-7.5,0-4.6,0.1C1260.5,1.3,1272.3,1.2,1278.1,1.1z M542.2,1.1
	c3.6,0-3.9,0-3.6,0.1c1.7,0,3.9,0,3.6,0.1c-3.6,0-3.9,0-4.6,0.1c3.9,0,7.2,0.1,9.1,0C540.5,1.3,549.6,1,542.2,1.1z M134.8,1.4
	c6.3,0.1,14,0,16.1-0.2c-5.3,0-5.3-0.1-2.2-0.1c-3.9,0-7.5,0.1-9.1,0.1c1.2,0,1.2,0.1,1.2,0.1c-3.1-0.1-2.9,0-4.6,0.1
	C135.8,1.4,134.8,1.4,134.8,1.4z M394.8,1.2c0.2,0.1,12.8,0.3,9.1,0.1c-0.2,0-1.2,0.1-2.2,0.1C400.6,1.2,397.2,1.2,394.8,1.2z
	 M1134.1,1.1c-3.9,0-4.3-0.1-8.2,0c-2.4,0.1-1.4,0.1-1.2,0.2c3.9,0,9.1-0.1,10.4-0.1C1133.9,1.2,1133.9,1.2,1134.1,1.1z M1278.1,1
	c-3.4,0-10.1,0-10.4,0.1c3.1-0.1,11.8,0,5.8,0.1C1277.1,1.1,1276.6,1,1278.1,1z M1107.6,0.8c-3.1,0.1-5.8,0.2-10.4,0.2
	c1.4,0.1,5.5,0.1,6.7,0C1103.8,0.8,1107.2,0.9,1107.6,0.8z M754.2,2.5c-5.5,0-7.7,0-8.2,0.2c2.2,0,2.2,0.1,5.8,0.1
	C751.8,2.7,753.3,2.6,754.2,2.5z M994.7,1.9c-3.4-0.1-8.9-0.2-14-0.1c0,0.1,1.4,0.2,4.6,0.2C985.4,1.9,993.1,2,994.7,1.9z
	 M880.9,1.7c-1.9,0-5.8,0-4.6-0.1c3.4,0,3.1,0.1,5.8,0c1.4-0.1-0.5-0.2,2.2-0.3c-10.4,0-9.6,0-18.5,0c-0.2,0.1,1.4,0.1,2.2,0.1
	c-1.2,0-3.1,0-5.8,0c-1,0.1,0.5,0.2-3.6,0.2c7.2,0,12.8,0,21.9,0C880.9,1.8,880.9,1.8,880.9,1.7z"/>
</svg>
