<?xml version="1.0" encoding="utf-8"?>
<!-- Generator: Adobe Illustrator 20.0.0, SVG Export Plug-In . SVG Version: 6.00 Build 0)  -->
<svg version="1.1" id="Modal_Divider" xmlns="http://www.w3.org/2000/svg" xmlns:xlink="http://www.w3.org/1999/xlink" x="0px"
	 y="0px" viewBox="0 0 1100 8" style="enable-background:new 0 0 1100 8;" xml:space="preserve">
<style type="text/css">
	.st0{fill:#88E333;}
</style>
<path class="st0" d="M210.4,7.9c1.2-0.1,5.5-0.1,9.8-0.1C217.8,7.9,214.1,7.9,210.4,7.9z M114.1,7.7c-9.2,0-20.8-0.1-24.4,0.2
	C97.6,7.8,105.1,7.9,114.1,7.7z M182.1,7.7c-3.9,0-9.4-0.1-13.6,0c3.3,0,4.1,0.1,6.9,0.1C178.3,7.7,179.7,7.7,182.1,7.7z M149.1,7.7
	c-2.4,0-7.1,0-7.7,0C143.2,7.7,148.5,7.8,149.1,7.7z M584.6,7.6c1,0,1.6,0.1,4.9,0C584.8,7.4,571.8,7.5,584.6,7.6z M693.6,7.1
	c-2.4,0-2,0.1-4.9,0c-0.8-0.1,1-0.1,1.8-0.2c-6.1,0-1,0.2-6.9,0.2C686.1,7.2,691.8,7.2,693.6,7.1z M918.9,6.9c-2.6,0-5.5,0-6.9,0
	c-1,0.1,6.5,0,3.1,0.1C917.3,7.1,918.9,7,918.9,6.9z M793,7c-2.9,0-5.5,0-6.9,0.1C788.7,7,791.8,7.1,793,7z M738.6,6.9
	c-2.6,0-5.7,0-5.7,0.1C734.6,7,739.4,7,738.6,6.9z M813.6,6.9c1,0,3.3,0,5.7,0C820.7,6.8,813.6,6.8,813.6,6.9z M1100,6.1
	c-3.5-0.1-8.1,0-9.8,0.1C1095.1,6.2,1097.3,6.1,1100,6.1z M11.6,5.8C12,6,7.4,6,7.6,6.2C14.1,6.2,16.7,5.9,11.6,5.8z M1063.9,6.1
	c0.8-0.1-2-0.1-3.1-0.1c-0.4,0-1.2,0.1-1,0.1C1061.7,6.1,1063.1,6.1,1063.9,6.1z M1027.7,5.9c-3.7,0-0.6,0.2-3.9,0.2
	c1.2,0,2,0,3.1,0C1026.5,6,1028.7,6,1027.7,5.9z M930.3,5c0.4,0.1-2.9,0-3.1,0.1C930.5,5.2,934.6,5.1,930.3,5z M940.1,5
	C941.7,5,939.9,5,940.1,5c1.8,0.1,2.2,0.1,3.9,0.1C943.3,5.1,941.5,4.9,940.1,5z M1046.4,4.7c2.4,0,6.5,0,6.9,0.1
	c0.2-0.1,4.1-0.1,1.8-0.2c-4.1,0-7.3,0-7.7-0.1c-4.9,0.1,0.8,0.4-4.9,0.3c-1.2,0.2,4.9,0.2,5.7,0.1
	C1045.8,4.9,1046.4,4.8,1046.4,4.7z M1063.9,4.6c-3.1,0-5.1,0-5.7,0.1C1060.7,4.7,1063.5,4.7,1063.9,4.6z M1073.7,4.6
	c-2.6,0-5.3,0-7.7,0C1065.4,4.7,1074.1,4.7,1073.7,4.6z M1091.2,4.5c-2,0.1-6.3,0-8.8,0.1C1084.1,4.6,1093.9,4.6,1091.2,4.5z
	 M877.8,4.2c-1.8,0-1.8,0-3.1,0.1c0.2,0.1,0.2,0.2,3.1,0.2C875.9,4.3,880,4.3,877.8,4.2z M869,4.2c0.8,0.1-1,0.1-1,0.2
	c1,0,2.2,0.1,3.1,0C868.4,4.4,873.3,4.2,869,4.2z M38.9,4.1c-2.9,0-6.9,0-7.7,0.1C32.8,4.3,39.1,4.3,38.9,4.1z M1042.6,4.1
	c-3.7-0.1-5.9-0.1-8.8,0.1C1037.5,4.2,1040.9,4.2,1042.6,4.1z M866.1,4c-2.4,0-2-0.1-4.9,0c-0.8,0.1-3.3,0.2,0,0.2
	C861.5,4,865.3,4.1,866.1,4z M951.9,3.9c-4.3,0-5.9-0.2-9.8-0.2C939.1,3.8,945,3.9,947,4c0.8,0.1-4.7,0-3.9,0.1
	C947.6,4.1,950.7,4,951.9,3.9z M814.4,4c1-0.1-3.1-0.1-4.9-0.1C809.9,4.1,812.2,4,814.4,4z M822.4,3.7c-1-0.1-4.9-0.2-1.8-0.3
	c-4.3,0-3.9-0.1-6.9-0.1c0.2,0.1-5.5,0-3.9,0.2c1.6,0.1,4.5-0.1,6.9,0c-3.3,0-3.7,0.2-4.9,0.3c1.6,0,3.1,0,3.9,0
	c0.2-0.1-1-0.1-1-0.1c1.4,0,3.5,0,3.9,0c-2.4,0.1-1,0-1,0.2c-1.8,0-2.2,0-3.9,0C813.2,4,823.2,3.8,822.4,3.7z M1003.4,3.3
	c-3.1,0-1.8,0-4.9,0c-0.8,0.1,2,0.1,3.1,0.1C1001.8,3.4,1003.2,3.4,1003.4,3.3z M799.9,3.1c-1.8,0.1,0.4,0.1-1,0.2
	C803.2,3.3,801.8,3.2,799.9,3.1z M852.5,3.2c-0.8,0-1.8,0-1.8,0c0.2-0.1,1.8-0.1-1-0.1c-1.4,0.1,0.8,0.1-1,0.2c0.6,0,1,0,1,0
	C851.3,3.3,852.1,3.2,852.5,3.2z M797.9,2.8c2,0.2,7.5,0.2,9.8,0.4C813,2.9,802.6,2.8,797.9,2.8z M914.8,2.9c-1.8,0-1.8,0-3.1-0.1
	c1.4,0.1-3.3,0-3.1,0.1c2.9,0,1,0.1,1,0.1c1.8,0,2.2,0,3.9,0C913.8,3,915.4,3,914.8,2.9z M1071.7,2.9c1.6,0,6.5,0.1,8.8,0
	C1078.2,3,1073.7,2.8,1071.7,2.9z M981,2.6c-2.9,0-6.7,0-6.9,0.1C977.4,2.7,980.2,2.7,981,2.6z M972.3,2.5c2.2,0,7.1,0,7.7,0
	C976.3,2.5,974.3,2.4,972.3,2.5z M971.5,2.3c4.3-0.1,9.4,0,11.8-0.1c-3.3,0-1.2-0.1-4.9-0.1c-0.2,0.2-5.3,0-7.7,0
	c-0.6,0.1-1.4,0.2-1.8,0.3c1.2,0,2,0,3.1,0C972.9,2.3,971.3,2.4,971.5,2.3z M1076.6,2.2c-1.8-0.1-1.6,0-4.9,0
	c-0.4,0.1,0.4,0.2,3.1,0.1C1073.9,2.3,1076.6,2.3,1076.6,2.2z M114.1,2c0.2-0.2,11.2-0.1,8.8-0.2c-9.4,0.1-23,0.2-33.2,0.4
	C98.4,2.3,104.5,2,114.1,2z M658.6,2.1c0,0-2.6,0-3.1,0c0.2-0.1,4.5-0.1,5.7,0c0.4-0.1-1.8-0.1-1-0.2c-3.3,0-5.5,0-7.7,0
	c1.6,0.1,1.8,0.1-1,0.2c1.4,0,3.7,0,3.1,0.1C657.6,2.2,661,2.2,658.6,2.1z M71.1,2.1c-3.1,0-7.7,0-8.8,0.1
	C65.4,2.1,69.5,2.1,71.1,2.1z M1012.2,2.1c-2.6,0-7.7,0-8.8,0C1007.7,2.1,1009.8,2.2,1012.2,2.1z M728.7,1.9c-2.2,0-3.3,0-5.7,0
	c-0.2,0.1,0.6,0.2,1.8,0.2C724.4,2,727.6,2,728.7,1.9z M94.3,2.1C93.7,1.9,86.6,1.9,83.7,2c1.4,0,5.1,0,4.9,0c-2,0-3.3,0-3.1,0.1
	C88.8,2.2,90.5,2,94.3,2.1z M916.7,1.9c-1.8,0-1.6-0.1-4.9-0.1C911.6,2,916.5,2.1,916.7,1.9z M852.5,1.8c-3.3,0-5.5,0.2-1.8,0.2
	C850.9,1.9,853.3,2,852.5,1.8z M905.1,1.8c-1.6-0.1-3.1-0.1-6.9-0.1c-2.9,0.2-12-0.1-14.5,0.1c3.9,0,5.9-0.1,7.7,0
	c-2.2,0-3.7,0-3.9,0.1C889.8,2,896.3,2,901.2,2C899.4,1.8,905.5,1.9,905.1,1.8z M892.4,1.9c0.6,0,1-0.1,1-0.1c3.1,0,3.7,0.1,5.7,0.1
	C896.5,1.9,894.7,1.9,892.4,1.9z M1080.4,1.8c-5.9,0-4.7,0-6.9-0.1c-1.8,0-4.1,0-3.9,0.1c4.3,0,5.1,0.1,8.8,0.1
	C1077.8,1.8,1080.4,1.9,1080.4,1.8z M952.7,1.8c-1,0.1-3.9,0-3.9,0.1c1.4,0,5.1,0,4.9,0C948.4,1.9,956.8,1.8,952.7,1.8z M849.6,1.8
	c-1.8,0-2.2,0-3.9,0c1.4,0.1-3.3,0-3.1,0.1c1,0,1.8,0,3.1,0c0.2,0,0,0.1,1,0.1C847,1.8,850.3,1.9,849.6,1.8z M138.3,1.7
	c0.6,0.1-2.6,0.1-3.1,0.2c0.6,0,1,0,1,0c0.6,0,1.2,0,1.8,0C138.5,1.8,141.6,1.8,138.3,1.7z M827.2,1.7c-4.7,0-1,0.1-3.9,0.2
	c1.2,0,2.6,0,3.9,0C827.2,1.8,827.2,1.7,827.2,1.7z M767.6,1.7c-5.1,0-11.6,0-13.6,0.1C760.4,1.8,765.5,1.9,767.6,1.7z M920.7,1.8
	c-3.5-0.1-7.1-0.2-12.6-0.1C908.3,1.9,916.7,1.8,920.7,1.8z M684.9,1.7c-3.3,0-4.1,0.1-3.1,0.2c1.4,0,3.5,0,3.9,0
	C683,1.8,684.9,1.7,684.9,1.7z M665.3,1.7c-1.4,0-3.3-0.1-3.1-0.1c4.3-0.1,8.6,0,11.8,0c1.8,0,3.3-0.1,4.9-0.1
	c-0.2-0.1-1.4-0.1-3.9-0.1c-1.8,0-1.4,0.2-4.9,0.1c-1.6,0-3.1-0.1-3.9-0.1c2.4,0,3.9-0.1,4.9-0.2c-5.3,0-5.5,0.3-8.8,0.2
	c-0.2-0.1,3.7-0.1,3.9-0.2c-8.8-0.2-2.2,0.3-7.7,0.2c-0.6,0.1,3.5,0.1,3.1,0.2c-2.6,0-6.5,0-6.9,0.2c4.9,0.1,2.6-0.1,5.7-0.1
	c0,0.1,1.6,0.1,0,0.1C663.1,1.8,665.3,1.8,665.3,1.7z M875.9,1.6c-5.7,0-3.1,0.1-7.7,0.2c1.8,0,3.9,0,5.7,0
	C874.3,1.7,876.1,1.7,875.9,1.6z M775.5,1.7V1.6c-3.3-0.1-3.3,0.1-5.7,0c-0.2,0.1,1,0.1,1,0.1c-1,0-2.2,0-1.8,0.1
	C771.8,1.8,773.3,1.7,775.5,1.7z M459.8,1.5c-1.6,0-3.1,0-3.9,0c1.8,0.1-1.2,0.2,1.8,0.2C456.9,1.6,459.4,1.6,459.8,1.5z M91.5,1.5
	c-3.1,0.1-5.1,0.1-7.7,0c-0.6,0.2,5.5,0.1,7.7,0.1C90.9,1.5,93.3,1.5,91.5,1.5z M131.6,1.5c-1.8,0-3.9,0-5.7,0
	C125.1,1.7,131.4,1.6,131.6,1.5z M802.8,1.4c2,0,3.3,0.1,6.9,0.1C809.9,1.4,803.8,1.3,802.8,1.4z M1032.8,1.4c-2,0-6.3,0-6.9,0
	c1.2,0,1.6,0.1,3.1,0.1C1028.3,1.4,1032.4,1.4,1032.8,1.4z M975.1,1.5c2.2,0,4.5,0,6.9,0C982.1,1.3,974.9,1.4,975.1,1.5z
	 M1049.3,1.3c-2.9,0-4.1,0-6.9,0C1041.5,1.4,1049.9,1.4,1049.3,1.3z M550.4,1.3c-2,0-6.3-0.1-6.9,0C545.3,1.4,548.8,1.3,550.4,1.3z
	 M618.7,1.2c-1.8,0-2.2,0-3.9,0v0.1C617,1.3,617.8,1.3,618.7,1.2z M532.9,1.1c-3.3,0-9.8,0-15.7,0c0-0.1,4.1-0.1,0-0.1
	c-0.8,0.1-2,0.1-3.9,0.1C518,1.2,527.6,1.3,532.9,1.1z M533.9,1.2c1.8,0.1,4.7-0.1,6.9,0C541.9,1.1,533.9,1.1,533.9,1.2z M726.8,1.1
	c0,0.1-2.9,0-3.1,0.1c2.4,0,3.1,0.1,4.9,0.1C729.1,1.1,728.4,1.1,726.8,1.1z M331.2,1c-5.1,0-11.4-0.1-12.6,0
	C324.5,1.1,327,1.2,331.2,1z M339,1c2.4,0.1,4.9,0,6.9,0.1C345.1,1,339.2,0.9,339,1z M117.8,1c-3.7,0-3.3,0.1-4.9,0.1
	C115.3,1.1,118,1.1,117.8,1z M836.8,1c-1.6,0-5.9-0.1-6.9,0C831.3,1.1,834.6,1.1,836.8,1z M526,1c3.1,0,4.7,0,6.9,0.1
	C534.1,0.9,527.2,0.9,526,1z M985.9,1c4.1,0,5.7-0.1,6.9-0.2c-9.6,0.1-14.5,0-25.5,0c2.4,0.2,0,0.2-1,0.3c9.2,0,15.9-0.2,22.4-0.1
	C987.6,0.9,986.5,0.9,985.9,1z M965.6,0.8c-5.5,0-11.8-0.1-16.7,0c6.1,0.1,5.9,0.1,11.8,0.2C963.3,0.9,962.9,0.9,965.6,0.8z
	 M519.2,1c1.2,0,1.8,0.1,3.9,0C520.3,0.8,509.7,0.9,519.2,1z M512.3,0.9c-4.9,0-12.2,0-15.7,0C502.5,1,511.1,0.9,512.3,0.9z
	 M1096.1,0.5c-1.6-0.1-5.7-0.1-7.7,0c1,0,2.9,0,3.1,0c-5.3-0.1-12.2,0.1-7.7,0.2C1083.9,0.5,1092.7,0.7,1096.1,0.5z M1079.4,0.5
	c-4.7,0-5.5,0.1-6.9,0.2C1076.2,0.7,1076.2,0.5,1079.4,0.5z M226.9,0c-1,0.1-7.1,0-5.7,0.1C222.3,0.2,230.8,0.1,226.9,0z M208.4,7.9
	C207.6,8,200.7,8,203.5,8C204.3,7.9,211.9,8,208.4,7.9z M256.3,7.9C254,7.8,251.4,8,249.3,8C251.6,7.9,255.7,8,256.3,7.9z M66.2,7.7
	c7.3-0.1,12,0.1,19.4-0.1c-1.8,0-1.8,0-3.1-0.1c-0.4,0.1-5.3,0.1-5.7,0c0.2-0.1,3.5,0,3.9-0.1c-2.2,0-7.7,0.1-6.9-0.1
	c0.2-0.1,7.9,0.1,6.9-0.1c-5.5,0-11.4,0.1-17.5,0C59.9,7.6,64.2,7.5,66.2,7.7z M468.5,7.1L468.5,7.1c2,0,3.3-0.1,4.9-0.1
	c1,0.1,3.9,0.1,4.9,0.2c2.9-0.1,7.1,0,7.7-0.2c2.2,0.1,5.5-0.1,7.7,0c-0.2-0.1-0.2-0.2,1.8-0.2c2.2,0.1-1.4,0.3,1.8,0.4
	c4.5-0.1,10.8,0,11.8-0.2c-2.2,0-4.5,0-4.9-0.1c8.4-0.1,9.2,0.3,17.5,0.3c0,0-1.6,0-1.8,0.1c12.4,0.2,35-0.1,45.6,0.1
	c-0.2,0-1.6,0.1,0,0.1c0.8-0.1,3.3-0.1,4.9-0.1c15.1,0.2,37.3,0.1,54.4,0c0.6-0.1,1.4-0.1,1.8-0.1c-3.1,0-4.3,0-6.9-0.1
	c1,0.1-0.4,0.1,1.8,0.2c-3.5,0-6.7,0.1-8.8,0c0.2-0.1,5.5,0,4.9-0.1c-2.6-0.1-4.5,0-5.7-0.2c3.1,0,6.1-0.1,8.8-0.1
	c0.4,0.1-1.4,0.1,0,0.1c4.5-0.2,16.1,0,22.4,0c-1,0.1-1.2,0.2-1.8,0.3c-5.5-0.1-12.2,0.2-5.7,0.1c-0.8,0-1.8,0-1.8,0
	c3.7,0,6.1,0,3.1,0.1C648.4,7.5,662,7.7,673,7.5c4.5,0,6.7,0.2,8.8,0c-2.6-0.1-6.3,0-7.7-0.1c-0.4-0.1,2.9,0,3.1-0.1
	c-4.9,0-7.1-0.1-11.8,0c1-0.1-3.3-0.1-3.1-0.1c16.1-0.1,35,0.2,50.5-0.3c3.3,0.1,8.8,0,10.6,0.1c-1.2,0-7.1,0-3.9,0
	c5.5,0,6.7-0.1,8.8,0c-1,0-1.4,0-1.8-0.1c1.6,0,3.3,0,4.9,0c-0.2,0-1.4,0.1,1,0.1c5.3-0.2,23-0.1,29.3-0.1c-1.6,0-2.4,0-3.1,0.1
	c7.5,0,12,0,16.7-0.2c0,0,0.2,0,1,0c-3.3,0.1-2.2,0.2-4.9,0.2c1.8,0.1,2.9,0.2-1,0.2c3.3,0,7.1,0.1,8.8,0c-1.2,0-3.1-0.1-3.9-0.1
	c3.7,0,6.1,0,6.9,0c-0.6,0-1,0-1,0c0.6,0,1,0,1,0c-3.7,0-5.7,0-5.7-0.1c3.9,0.1,8.4,0,11.8,0.2c5.1-0.2,14.5,0.1,13.6-0.1
	c3.5,0,1.8,0.1,5.7,0.1c0.8-0.1,3.1-0.2-1-0.2c10.6,0,17.9-0.2,26.3,0c-0.4,0.1-4.7,0.2-1.8,0.2c2.2-0.1,5.7,0.2,10.6,0.1
	c-0.6,0.1-4.7,0-4.9,0.1c3.5,0,5.7,0.1,6.9,0c-5.1,0,2,0,1-0.1c-1.8,0-3.3,0.1-3.9,0c3.5-0.1,4.3-0.2,8.8-0.2c-4.3,0-6.9,0.1-8.8,0
	c3.3,0,7.3-0.1,9.8,0c0.4,0.1-1.8,0.1-1,0.2c2.4,0,2.9-0.2,3.9-0.2c4.5,0,6.3-0.1,9.8-0.1c2.4,0.1,7.3,0.2,8.8,0.3
	c-4.3,0-6.9,0.1-8.8,0c0,0,1.6,0,1.8-0.1c-1.2-0.1-6.7-0.1-6.9,0c0.6,0.1,3.7,0,3.9,0.1c-1.2,0.1-4.3,0-6.9,0
	c1.4,0.2-4.1,0.1-3.9,0.2c4.5,0,5.5-0.1,7.7,0c-2-0.1,6.5,0,3.1-0.1c-1.4,0-5.1,0-4.9,0c12-0.1,20.4-0.1,32.2,0c-1,0-2.9,0-3.1,0
	c2.9,0,2.4,0.1,4.9,0c-0.4-0.1,5.5-0.1,5.7-0.2c-5.5-0.1-9.2,0-14.5,0c6.7-0.1,15.3-0.1,19.4,0c2.4,0,0.6-0.1,1.8-0.1
	c4.1,0.1,10.6-0.1,11.8,0.2c4.3,0,12.8-0.1,13.6,0.1c2.4,0,17.1,0,13.6,0.1c7.1,0,9.4-0.2,14.5,0c1-0.2,6.9-0.2,12.6-0.1
	c-1-0.1,3.1-0.1,0-0.1c-0.6,0-14.1,0.2-11.8-0.1c-3.1,0-5.1,0.1-5.7,0c3.5,0,3.3-0.1,4.9-0.1c0,0.1,0.8,0.1,1.8,0.1
	c2-0.1-1.2-0.2,1.8-0.2c2.9,0.1,4.1-0.1,5.7-0.1c3.7,0.1,8.8,0.1,11.8,0.2c2.4,0-1.6-0.1,1-0.1c1,0,1.8,0,3.1,0
	c-0.4,0.1-2.6,0.1-3.1,0.1c1.6,0,5.7,0,5.7,0c-5.5,0,1.4-0.3,3.9-0.1c-1-0.1,3.1-0.1,0-0.1c-0.2,0.1-3.5-0.1-4.9-0.1
	c0.6-0.1,4.5,0,4.9-0.1c-0.8-0.1-3.3-0.1-3.1-0.1c-2.4,0-6.7,0-6.9,0.1c2.4,0,2-0.1,4.9,0c0,0.1,0.4,0.1,1,0.1c-2.9,0-4.9,0-5.7,0.1
	c1.2,0.1,3.5,0,3.9,0c-0.6,0.1,1,0.2-1,0.2c-1.8-0.1-2.4,0-4.9,0c0.4-0.1-4.1-0.1-3.9-0.2c-3.1,0-2.4,0.1-5.7,0.1
	c0.4-0.1,2.6-0.1,3.1-0.1c-5.1,0-5.5,0-7.7,0.1c-2.2-0.1-4.9,0-6.9-0.1c8.8-0.1,14.5-0.1,22.4,0c1.8-0.3-10.8-0.1-11.8-0.1
	c0.4-0.1,4.1-0.1,4.9-0.2c-8.1,0-7.9,0-16.7,0c0.4-0.1-2.6-0.2,1-0.2c7.1,0.3,14.5,0,25.5,0c1-0.2-5.7,0-4.9-0.2c1,0,1,0,1.8,0
	c8.1,0,20.8,0,20.6,0.4c0.6-0.1,4.7,0,6.9,0c0.4-0.1-5.5-0.1-6.9-0.1c3.3-0.2,0.8-0.2-1.8-0.3c6.7-0.1,5.1,0.2,7.7,0.2
	c0.2-0.1-1-0.1-1-0.1c4.7,0.1,9.4-0.1,10.6,0c-1.4,0.1-6.1,0.1-6.9,0.2c1,0.1,4.3,0.1,3.9,0.2c6.9-0.2,14.3,0.1,19.4-0.1
	c2,0,6.3,0,6.9,0.1c-4.9,0,0.8,0.1,0,0.1c0,0.1-2.6,0-3.1,0.1c1,0,2.2,0,3.1,0.1c-0.6,0.1,1,0.2-1,0.2c-3.5-0.1-7.5,0-9.8,0
	c9.2,0,16.9,0.2,26.3,0c-3.5,0-5.3-0.1-6.9-0.1c-3.1,0-2.2,0.1-5.7,0.1c0.8-0.2-1.4,0-1.8-0.1c-1.2-0.2,1.6-0.1,0-0.3
	c5.5,0.1,5.7-0.1,6.9-0.2c4.5,0,3.3,0.2,8.8,0.2c1.2-0.2,6.9-0.2,10.6-0.3c1.4-0.1-3.3,0-3.1-0.1c5.9-0.1,9,0.3,14.5,0
	c0.2,0.1-4.1,0.2,0,0.3c0.2-0.2,6.3-0.1,9.8-0.2c-1.4,0-3.7,0-3.1-0.1c7.3,0,12.6-0.1,16.7-0.1c-3.9-0.1-15.1,0.2-21.4,0
	c3.5,0,7.7-0.1,7.7-0.1c-6.1,0-9,0-12.6,0c-0.4,0.1-4.1,0.1-5.7,0c-1,0-0.4,0.1-3.1,0.1c-6.9-0.2-24.4,0.1-25.5-0.2
	c-0.2,0.1-3.3,0.2-3.9,0.1c-0.4-0.1,3.7,0,3.1-0.1c-2-0.1-5.3,0-8.8,0c1-0.2,6.3-0.1,12.6-0.1c-1.6-0.2-4.1-0.1-8.8-0.1
	c0.8-0.1-2.6-0.2-3.9-0.1c2,0-0.2,0.1-1,0.1c-4.1,0-3.9-0.1-5.7-0.1c0.4,0.1,0.8,0.1,1.8,0.3c-2.4,0-7.7,0.1-7.7,0
	c1.8,0,3.9,0,5.7,0c-0.2-0.3-5.5-0.1-8.8,0c-3.5-0.2-9.8,0-13.6-0.1c0,0-0.8,0-1-0.1c7.3-0.1,10,0,15.7,0c0.8-0.1,4.1-0.2,8.8-0.1
	c1-0.1-3.3,0-1.8-0.1c3.5,0,5.1,0,5.7,0c-2,0-3.3-0.1-3.9-0.1c-2.9,0-3.5,0.2-4.9,0.1c3.5-0.1,2.6-0.3,5.7-0.4c-0.4,0.2,6.1,0,7.7,0
	c-0.6,0,4.7-0.3,7.7-0.2c-3.1,0-3.3,0.1-3.1,0.2c2.2,0,0.8-0.2,4.9,0c1.2-0.2,5.5-0.2,6.9-0.4c-1.4,0-3.5,0-3.9,0c4.7,0-1,0,0-0.1
	c3.7,0,14.1-0.1,19.4,0c0.2-1.8-5.3-1.8-8.6-1.8c1.4,0,3.5,0,3.9,0c-2.4,0-1.8,0-3.1-0.2c2.6,0,3.5-0.1,7.7-0.1
	c0.6,0.1-5.5,0.1-1.8,0.1c1.4-0.1,2.2,0,5.7-0.1c-2-0.1,1-0.1,3.1-0.2c-3.7-0.1-12.6,0.1-15.7,0c2.4-0.1,0.8-0.1,3.9-0.2
	c3.3,0.1,6.7,0,10.6,0c-7.1-0.1,6.9-0.2,7.7-0.3c-3.3,0-4.1,0.1-7.7,0c0.4,0.2-8.1,0.2-10.6,0.2c4.5,0,1.8-0.1,0-0.1
	c2,0,6.3,0,6.9-0.1c-4.3,0-7.9,0.1-10.6,0c0.6,0,1-0.1,1.8-0.1c0,0,0,0,0,0.1c3.3,0,4.1-0.1,5.7,0c-1.4-0.2-12-0.1-15.7-0.2
	c1,0.1-3.3,0-1.8,0.1c3.1,0,5.9-0.1,6.9,0c-3.9,0-0.6,0.1-1,0.1c-5.1,0.1-6.1-0.1-8.8,0c1.2,0,1.8,0.2,0,0.3c1.6,0,5.7,0,5.7,0
	c-2.2,0-3.7,0-3.9,0.1c3.7,0,7.7,0,7.7-0.1c4.5,0.1-5.5,0.2,0,0.3c-4.7,0.1-4.9-0.1-5.7,0c-4.3,0-3.9-0.1-4.9-0.2
	c-1.2,0-0.2,0.1-1.8,0.1c-0.4-0.1-1.2,0-3.1,0c1.8-0.1-0.8-0.1-1.8-0.2c1.6,0,2.4,0,3.1-0.1c-3.3-0.1-7.7,0-11.8-0.1c0,0,0,0,0-0.1
	c7.1,0,10.8-0.2,16.7-0.4c-8.1,0,2-0.2-5.7-0.2c3.3,0.2-4.7,0.2-3.9,0.3c-0.4-0.1-7.7,0-5.7,0c1.8,0,3.3-0.1,3.9,0
	c-1.2,0.1-4.3,0-6.9,0c-1.4,0.1,3.3,0,3.1,0.1c-1.6,0.1-4.5,0.1-8.8,0.1c-0.4,0.1-0.2,0.2,1.8,0.3c-5.1,0.1-8.8,0-15.7,0
	c0.6,0.1-3.7,0.2-5.7,0.3c-1.8-0.1-4.5-0.1-5.7-0.1c-0.6-0.1,8.8-0.1,6.9-0.1c-5.9,0-10.4,0.1-14.5,0c2.9-0.1,5.5,0.1,6.9-0.1
	c-5.3-0.1-9.2,0.1-8.8,0.2c1.4-0.1,4.1,0.1,4.9,0c0.2,0.1-0.4,0.2-3.1,0.1c-5.5-0.3-7.7,0.2-13.6,0.1c-0.4-0.1-2.4-0.2-4.9-0.3
	c-1.4,0.1-4.1-0.2-4.9,0c1.6,0.1,3.7,0.1,3.1,0.3c2,0,9,0.1,3.9,0.2c5.9-0.1,10.6,0.1,12.6-0.1c-2.4,0-4.7,0-4.9-0.1
	c4.7-0.1,13.2,0.1,6.9,0.2c4.1,0,6.3,0,9.8,0c0.6-0.1-2.9-0.2,0-0.2c3.3,0,1.4,0.1,1,0.1c3.1,0,3.5-0.1,1.8-0.1
	c5.1-0.1,15.1-0.1,20.6,0.1c-1.6,0-8.1,0-8.8-0.1c1.8,0,4.1,0.1,3.9,0c-2.6,0-5.3,0-7.7,0c-0.4,0.1-2.4,0.1-3.1,0.2
	c1.6,0,5.7,0,5.7,0c-3.1,0.2-3.5,0.5-12.6,0.6c1,0.4,10-0.1,15.7,0.1c1.4-0.1,9-0.2,12.6-0.2c-5.1,0.1-3.3,0.1-1,0.2
	c-1,0-2.6,0-4.9,0c-1,0.2,0.2,0.3-3.1,0.4c0.8-0.1-4.7,0-3.9-0.1c1-0.1,3.3-0.2,1-0.3c-8.6,0.2-24.4,0.2-29.3,0.2
	c0-0.1,0.8-0.1,1.8-0.1c6.7,0,7.7,0,11.8-0.1c-5.9,0-4.3-0.1-6.9-0.2c2.9,0,5.9,0,8.8-0.1c-0.6-0.1,1-0.2-1-0.2
	c-0.2,0.1-3.3,0.1-5.7,0.1c0-0.2-5.5-0.2-4.9-0.3c-3.5,0.1-7.1,0-10.6,0.1c2.4,0-3.3,0.1,0,0.1c-1.6,0-3.3,0-4.9,0
	c2.2,0.1-1.4,0.1-3.1,0.2c1,0.1,3.7-0.1,4.9,0c-2.6,0.2-0.2,0.3,0,0.4c2.2,0,4.1,0,5.7-0.1c-0.6-0.1-1.2-0.1,1-0.2
	c5.3,0,5.3,0,8.8,0c0,0,1.2,0.1,1,0.1c-5.7,0-10.2,0.1-12.6,0.3c-6.3,0-7.5,0-13.6,0.1c-0.6-0.1-1.2-0.2-3.9-0.2
	c1,0.1,0.6,0.2,1.8,0.3c-1,0-3.3,0-5.7,0c-1,0.2,4.3,0,3.9,0.1c-2,0-2.6,0.1-3.9,0.1c-1.4,0-2.4-0.1-3.9-0.1c-2,0.1-3.3,0.2-4.9,0.3
	c9-0.2,14.3-0.1,10.6,0.2c-3.1,0-0.4-0.2-3.9-0.1c-1.2,0.1,0.6,0.1-1,0.2c3.3,0,7.1,0,7.7-0.1c1.4,0.1,2.6,0.1,6.9,0.1
	c0-0.1,0-0.2,0-0.3c-3.5-0.1-0.6,0.1-3.1,0.1c-2.6,0-4.1,0-3.9-0.1c3.9,0,7.7-0.1,13.6-0.1c-0.6-0.2,4.9-0.1,8.8-0.1
	c1.2-0.1-3.9-0.1-1-0.1c3.5-0.1,6.9,0,8.8-0.1c1.8,0.2,4.3,0.3,0,0.4c5.1,0,9.8,0.2,15.7,0.1c-1.4,0.3-13.2,0.1-16.7,0.2
	c1.4,0,3.5,0,3.9,0c-16.3,0.2-30.4-0.1-43,0.2c-0.2-0.1-7.5-0.1-7.7-0.1c2,0.1-4.5,0.1-3.1,0.3c0.2-0.1-3.1-0.1-3.1-0.2
	c-3.1,0-5.1,0-6.9,0c-0.2,0.1,1,0.1,1,0.1c-11.2,0-14.5,0-21.4-0.1c2.9,0.1-6.7,0-5.7-0.1c6.1,0,10-0.1,19.4,0
	c-0.8-0.1,1.4-0.1,1.8-0.2c-3.3,0-4.3-0.1-5.7-0.1c0-0.2,7.5-0.1,9.8-0.1c-1.6-0.1-6.9-0.1-8.8-0.1c1.8-0.1,3.9,0,4.9,0
	c1.6-0.1-0.2-0.1-1-0.2c3.7,0,4.7,0,4.9,0.1c-1.2,0-2-0.1-1.8,0c0.6,0,1,0,1,0s0.2,0,1,0c0.4,0,1.2-0.1,3.1-0.1
	c-1.8,0.1-0.4,0.1,0,0.2c-2.2,0-3.7,0-3.9,0.1c3.3,0,7.7-0.1,11.8-0.1c-1.4,0-1.4-0.2,0-0.2c0.2,0,0,0.1,1,0.1
	c3.1-0.1-2.2-0.1-5.7-0.1c2.4-0.1-1.8,0-3.1-0.1c2.4,0,1.2-0.1,3.9-0.1c2.2,0.1,5.1,0.1,5.7,0c3.3,0,3.3,0.1,1,0.2
	c2.4,0,4.7,0,4.9-0.1c-1,0-2.2,0-1.8-0.1c4.1,0,3.7-0.1,4.9-0.1c-3.1,0-3.1-0.1-6.9-0.1c-1.6,0-1.6,0.1-3.1,0.1
	c-0.8-0.1-6.1,0-6.9-0.1c3.9,0.1,0.4-0.2,3.1-0.1c2.4,0,4.5,0.1,5.7,0C938.7,4,937.4,4,934.4,4c-1,0.1-0.6,0.3-4.9,0.3
	c-0.2-0.1,1.4-0.1,1.8-0.2c-1.6,0-4.9,0-3.9-0.1c-3.1,0-2.9,0.1-5.7,0c-1.6-0.2,5.9-0.1,1-0.3c3.9-0.1,6.3,0.1,10.6,0
	c0-0.1,0-0.1,0-0.2c-2.9,0-8.1,0.1-6.9-0.1c-3.3,0-2.9,0.2-5.7,0.2c1-0.1-3.1-0.1-4.9-0.1c-0.4-0.1-2.4-0.3,0-0.3
	c3.9,0.4,13.6,0,20.6,0.1c-2.2,0.3,11.4,0.2,14.5,0.3c-1.2,0-2,0-1.8,0.1c1.4,0.1,5.1-0.1,5.7,0c-1,0-2.2,0-1.8,0.1
	c1.8,0.1,5.1,0,5.7-0.1c-2.6-0.1-2.6-0.1-1-0.3c-2.4,0-5.5-0.1-3.1-0.2c-3.3-0.1-4.1,0.2-5.7,0c3.1,0,3.1-0.1,4.9-0.2
	c3.3,0,7.1,0,7.7,0.1c0.2-0.1,5.1-0.1,5.7-0.1c-4.7-0.2-7.5,0-11.8-0.1c2.6,0,5.7,0,5.7-0.1c-2,0-0.8-0.2-3.1-0.2
	c-2.4,0,1,0.1-1,0.1c0.4-0.1-3.5,0.1-3.9,0c1-0.1,4.1,0,3.9-0.1c-1.6-0.1-4.5,0-6.9-0.1c1.4,0,3.5,0,3.9,0c-3.3-0.1-2.6-0.1-3.9-0.3
	c3.3,0,4.5,0,6.9,0c-0.4-0.1,1.2-0.1,1.8-0.1c-5.5,0-0.2-0.1-3.1-0.1c1,0.1-6.3,0.1-5.7,0.1c0,0,1.2-0.1,1-0.1c-2,0-6.3,0-6.9,0
	c1,0,2.2,0,1.8,0.1c-4.7,0-4.9,0-10.6,0c-4.3,0.3-15.1,0-20.6,0.3c1,0,1,0.1,1,0.1c1.2,0.1,5.7,0,5.7,0.1c-4.7,0-7.7-0.1-12.6-0.1
	c0,0-0.8,0-1-0.1c0.8-0.1,4.9,0,3.9-0.1c-3.9,0-8.4,0-9.8,0.2c1.2,0.1,3.5,0,3.9,0c-0.2,0-1,0.1-1.8,0.1c-5.5,0-10.2-0.1-16.7-0.1
	c0.6-0.2-3.3-0.2-5.7-0.3c-6.3,0.2-21.2,0.1-28.1,0.3c-1.2-0.1,2.4-0.1,0-0.1c0.8,0.1-4.7,0-3.9,0.1c1.2,0.1,4.1,0.1,4.9,0.2
	c-3.7,0-5.7-0.1-6.9-0.1c-3.3,0.1-5.7-0.1-7.7,0.1c6.3,0,10.8,0.1,12.6,0.3c-1.2,0-6.9-0.1-6.9,0c1,0,3.5,0,3.1,0.1
	c-1.6,0-3.3,0-4.9,0c-5.3-0.2-7.1-0.3-7.7-0.5c-8.8,0-13.9,0.4-21.4,0.2c3.1-0.1,0.6-0.2-1-0.3c-4.1,0.1-5.5-0.1-7.7,0
	c1.8,0.1-1.2,0.1-3.1,0.2c-4.5,0-9.4,0.1-14.5,0c2.4,0.2-3.7,0.1-6.9,0.1c1.2,0.2,3.9,0.1,3.1,0.2c11.8,0,28.1-0.1,45.6,0
	c0.8,0.1,3.3,0.1,3.1,0.3c-1.6,0-3.1,0-3.9,0c5.1-0.4-7.7-0.2-13.6-0.2c1.8,0.1,1.8,0.2,4.9,0.2c-0.2-0.2,3.1,0,5.7,0
	c-0.8,0.1,1.2,0.1,1,0.2c-2.4,0-3.1,0.1-3.9,0.1c5.5,0.1,1,0.2,3.1,0.3c1,0,3.9-0.2,5.7-0.1c-0.4,0.1-2.6,0.1-4.9,0.1
	c-1.2,0.2,2.2,0.2,3.9,0.2c-2.2-0.2-0.8-0.1-2-0.1c-3.3-0.1-6.7,0-7.7,0.1c1.6,0,2.2,0,1.8,0.1c-4.5,0-6.1,0.1-3.1,0.1
	c-3.1,0-5.5,0.1-6.9,0c0.2-0.1,3.7-0.1,3.9-0.1c-3.3,0-8.4,0-8.8-0.1c1.6,0,7.3,0,8.8-0.1c-5.1,0-8.1,0-13.6-0.1
	c-1,0.1,1,0.2,3.1,0.2c-6.3,0.1-7.3-0.1-12.6,0c-0.8-0.1,1.4-0.1,1-0.3c-3.9,0-7.3,0-8.8,0.1c0.2-0.1-0.8-0.1-3.1-0.1
	c0.6,0.2-8.1,0.1-3.1,0.3c-3.5,0.1-3.5,0.1-6.9,0.2c-0.2-0.3,6.1-0.2,4.9-0.4c-2.9,0-2.6-0.1-4.9,0C772.6,4,771.2,4,770,4
	c1.4,0,3.3,0.1,3.1,0.1c-1.8,0-3.9,0-5.7,0c0.8-0.2-4.1-0.3-3.9-0.2c-1.4-0.1-2.4,0-3.1,0c1.2-0.1-2-0.4-1.8-0.5
	c-2.4,0.1-3.3,0.2-5.7,0.2c2.6,0,3.5,0.5-1,0.3c-1,0.1,3.3,0,1.8,0.1c2.9,0,2.4-0.2,3.9-0.1c-0.6,0.1-1.8,0.2-3.1,0.2
	c-4.3,0-3.3-0.2-5.7-0.2c1.6,0.1-0.4,0.1-3.1,0.2c2-0.1,2.2-0.1,1-0.3c2.4,0,3.1,0.1,3.9,0c-2.2-0.1-4.5-0.2-9.8-0.1
	c-1-0.1,0.6-0.2-1.8-0.2c0.8-0.1,5.5-0.1,5.7,0c0,0,0,0,0,0.1c-1-0.1-5.1,0-2,0c0.8-0.1,2.6,0.1,4.9,0c-0.2-0.1,0.4-0.2,3.1-0.1
	c1.2-0.2-2.9-0.3,0-0.4c-0.8,0.1,1.6,0.1,3.9,0.1c-1-0.1,3.1-0.2,0-0.2c-1.8,0-6.5-0.2-10.6-0.3c0.2,0.2-1.4,0-3.1,0
	c-0.2,0.1-0.6,0.1-1.8,0.1c-1.6,0-3.1-0.1-3.9-0.1c3.1,0,8.1-0.1,10.6,0c-0.4-0.2,5.5-0.1,6.9,0c-1-0.1,12.6-0.1,8.8,0
	c4.5-0.1,7.1-0.1,9.8,0c2.6,0,1-0.1,3.1-0.1c1.2,0,3.7,0,1.8,0c-7.5-0.1-20.2,0-25.5,0c-3.1-0.1-5.7-0.2-3.9-0.3
	c-2.6,0-8.6,0.1-9.8-0.1c1,0,2.6,0,4.9,0c-1-0.3-8.8,0.1-9.8-0.2c3.1,0,2.9,0.1,5.7,0c0-0.1,4.1-0.3,0-0.3c-1.2,0.1,1,0.2-4.9,0.1
	c-1.2-0.1,2.6-0.1,0-0.1c-0.4,0.1-1.2,0-3.1,0c-0.8,0.1,3.3,0,1.8,0.2c-7.5,0.1-16.3,0.2-23.4,0.2c1.6,0.1,3.5,0.1,4.9,0.2
	c-4.1,0.1-9.6-0.1-11.8,0.1c0.4,0.1,4.3,0,3.9,0.1c-4.3,0-4.5-0.1-5.7-0.2c-0.6,0-6.1,0-5.7-0.1c1.6,0,4.9,0,3.9-0.1
	c-4.1,0-3.9,0-5.7-0.1c-3.5,0.1,0.6,0.2-1,0.2c-3.5-0.1-2-0.2-6.9-0.2c3.9-0.2,14.5-0.3,19.4-0.4c1.2,0.1-6.3,0.1-3.9,0.1
	c3.1,0,2.4,0.1,3.9,0.1c1.6-0.1,5.1-0.3,6.9-0.2c0.2,0.1-2.6,0.1-1.8,0.3c3.3,0,5.9,0,6.9-0.1c-6.3,0,1-0.2-1.8-0.3
	c-5.5,0-5.5-0.1-12.6,0c-1.2-0.1-3.7-0.2-4.9-0.3c-2.6,0.1,0.4,0.2,0,0.4c-2.2-0.1-7.5,0.2-9.8,0c-0.8,0.3-5.9,0-10.6,0.1
	c-0.6,0.2-5.5,0-8.8,0.1c1,0.1,4.5,0.1,1.8,0.3c6.7-0.1,10-0.2,17.5-0.1c-1,0.2-6.9-0.1-3.9,0.1c-5.5,0-8.4,0-10.6,0.1
	c3.9,0,6.3,0.1,9.8,0.1c0.2,0.1-0.8,0.1-3.1,0.1c-0.6-0.1-5.9-0.1-8.8-0.1c2,0.2-8.8,0.3-5.7,0.5c-2.6,0-4.1-0.1-3.9,0
	c-0.8,0.1,4.7,0,3.9,0.1c-5.5,0,0.4,0.2-3.9,0.2c-3.3,0-5.3-0.1-6.9-0.1c2.6-0.1,4.3,0.1,6.9-0.1c-3.1,0-2.6-0.1-4.9-0.1
	c-1.4,0.1-2.6,0.2-3.9,0.3C649,3,645.1,3,643.7,2.8c3.1,0.1,7.1-0.2,9.8,0c0.8-0.1,3.3-0.3,1-0.4c-3.9,0.1-6.3,0.1-11.8,0
	c-2.9,0.1-3.3,0.3-7.7,0.1c-1,0-1,0.1-3.1,0.1c-2.9-0.1-7.7-0.2-12.6-0.3c0.6-0.1-1.4-0.2-3.1-0.2c0.2-0.1,3.3,0,3.1-0.1
	c-2.2,0-3.7,0-3.9-0.1c3.5,0,3.5,0,7.7,0c0.8-0.1-1.8-0.1-1.8-0.1c1.2-0.1,5.5,0,6.9-0.1c-0.8-0.1-2-0.3-4.9-0.3
	c0,0.4-3.7,0.6-5.5,0.5c2-0.1,4.1-0.3,7.7-0.4c0.8,0.1,5.5,0.2,5.7,0c-5.1,0,1.6-0.2-1.8-0.2c-0.2,0.1-3.5,0-3.9,0
	c1.6-0.2,6.5,0,7.7-0.1c-1,0.1,3.3,0.1,3.1,0.1c-1.2,0-1.8,0.1-3.9,0c1.2,0.2,1,0.3-3.1,0.4c2.4,0,4.7-0.1,4.9,0
	c-0.4,0.2-3.5,0.2-4.9,0.4c4.5,0.1,11,0.1,11.8-0.1c-3.5-0.1-0.6,0.1-3.1,0.1c-1.8-0.1-3.5-0.3-1.8-0.5c3.5-0.1,0.6,0.1,3.1,0.1
	c-0.2-0.1,0.8,0,3.1,0c-0.6-0.2,1-0.3,5.7-0.3c0.6,0.2-2.2,0.2-3.1,0.3c0.6,0,4.7,0.1,4.9,0c-3.1-0.1,2.9-0.4-1-0.6
	c-1.2,0-2.6,0-3.9,0c-1.6,0,0,0.2-1.8,0.2c-1.4,0-5.1,0-4.9,0c-0.2-0.1,2.2-0.1,2-0.2c-4.7-0.1-1,0.2-4.9,0.2
	c2.2-0.1-1.6-0.1-3.9-0.2c-0.2,0,0.2,0.1-1,0.1c-1-0.1-2.4-0.1-3.9-0.1c-3.1,0-3.3,0.1-5.7,0.1c-0.6,0.2,4.1,0.1,3.9,0.3
	c-2.2,0-4.5,0-6.9,0c-1,0.3-11.6,0.3-14.5,0.1c-1.4,0.2,3.1,0.2,3.9,0.3c-1.6,0-0.6,0.1-1.8,0.1c-7.9,0-20.8,0.2-23.4-0.1
	c-3.9,0-6.5,0-7.7-0.1c1.4-0.1,4.9-0.1,4.9-0.3c-8.6,0.3-16.1,0-17.5-0.3c-4.3,0-10.6,0.2-13.6,0c0.2,0.1-1,0.1-1,0.1
	c9.2,0,9.8,0.1,16.7,0.1c-1.2,0.1-7.7,0-7.7,0.1c0.2-0.1,2-0.2-1-0.2c-1,0.2-10.8,0-8.8,0.3c-1.6-0.1-7.3-0.1-4.9-0.2
	c-3.7,0-5.5,0-7.7-0.1c0.2,0.1,1.2,0.1,1.8,0.3c-3.5,0.1-4.9-0.1-9.8,0c1.6,0.1,8.8,0.1,7.7,0.3c3.1,0,1.8-0.1,4.9-0.1
	c0.8,0.1-3.1,0.2-8.8,0.1c0.4-0.1-3.1-0.1-4.9-0.2c-0.6,0.1,1,0.2-1,0.2c-1.4-0.1-0.8-0.1-3.9,0c0-0.1,0.2-0.1,1-0.1
	c-1,0-1.8,0-3.1,0c0,0-0.8,0-1,0c2.4,0,0.2,0.1-1,0.1c-1-0.1-1-0.2-3.9-0.1c-1.6,0,0,0.2-1.8,0.2c-1.6,0-2.2-0.1-1.8-0.2
	c3.5,0,9.2,0,8.8-0.3c-3.1,0-8.4,0-9.8,0c0.2,0,1.4,0,3.1,0c-0.4-0.1-0.4-0.2-3.1-0.1c0.8,0.2-5.9,0.1-8.8,0.1
	c1.6-0.1,6.7,0.1,6.9-0.1c-3.1,0-4.7,0-3.1-0.1c-3.3,0.1-6.7,0-9.8,0c2,0.2,2.9,0.3-3.1,0.3c0,0.1,2.2,0.2,3.9,0.2
	c-3.1,0-5.5,0-6.9,0.1c1.8,0,3.3,0,3.9,0.1c-5.9,0-13.6,0.1-12.6,0c-3.5,0-3.3,0.1-4.9,0.1c-3.1-0.1,0.8-0.2-3.9-0.1
	c0.2-0.1,1.6-0.1,1.8-0.1c-3.5,0.2-5.1-0.2-9.8,0c1,0,3.3,0.2,3.9,0.1c-1,0-1.2-0.1,0-0.1c0.6,0.1,1.4,0.1,1.8,0.1
	c-7.1-0.1-7.3,0-13.6-0.1c-2,0.1,0.8,0.1,1.8,0.2c-4.3-0.1-2.6,0.1-5.7,0.1c0.8,0,1.2-0.1,1-0.2c-5.3,0-0.8,0-1-0.1
	c-3.7,0-5.5,0.1-9.8,0.1c0.4-0.1-1.2-0.1-1.8-0.1c6.5,0,5.3-0.2,5.7-0.3c1,0,2.6,0.1,3.1,0.1c3.9,0,7.1,0.1,7.7,0
	c-2.9,0-4.1,0-6.9,0c1.8-0.1-1-0.1-1.8-0.2c3.9,0,6.9,0.1,8.8,0c-2.6,0-0.8-0.1-3.9-0.1c-1.6,0-0.6,0.1-1.8,0.1
	c-1,0-1.6-0.1-3.1-0.1c-0.2,0.1-1.6,0.1-3.9,0.1c2.4-0.2-5.9,0-5.7-0.1c1-0.1,4.5-0.1,5.7-0.1c-0.4,0-8.8,0-5.7,0.1
	c-2.2,0-1.8-0.1-4.9-0.1c-1.2,0.1,2.9,0.1,3.1,0.2c-4.9,0.1-9.6,0.1-13.6-0.1c1.4,0,3.3,0,3.1-0.1c-1.8,0-8.8,0-6.9,0.1
	c2.2,0,3.7,0,3.9,0.1c-3.3,0-4.1-0.1-7.7,0c2-0.1-1.8-0.1-3.9-0.2C406.4,1,391.3,1,391.3,0.8c-0.2,0.1-2.6,0.1-3.9,0
	c1,0.1,1,0.3-3.1,0.1c-2,0.1-1,0.2-4.9,0.2c-1.8,0,0.2-0.2-1.8-0.2c-3.3,0-11.4,0-13.6-0.1c-2.9,0.1,0.4,0.2-3.9,0.3
	c-3.3-0.1-5.1,0.1-8.8,0c2.4-0.1-0.8-0.1-1.8-0.2c-2.4,0.1-5.5,0.2-3.9,0.4c-1.8,0-1.8,0-3.1,0.1c-3.3,0-7.9-0.2-11.8-0.1V1.2
	c-3.3,0-3.7,0-4.9,0.1c-0.6-0.1-4.9-0.1-1.8-0.2C320.8,1,318.2,1,315.8,1c-1.2,0.1,2.9,0.2,0,0.2c0-0.2-4.9-0.2-5.7-0.3
	c2,0,6.7,0.1,5.7-0.1c-1,0-9.4,0-7.7,0.1c-7.1,0-10.2-0.1-13.6-0.2c1.2,0,1-0.1,1.8-0.1c1.8,0,1.2,0.1,3.9,0.1
	c0.2-0.2-3.3,0-3.9-0.1c2.4,0-1.2-0.1,0-0.1c2.6,0,4.1,0,3.9-0.1c-2.9-0.1-5.9,0.1-8.8,0c-0.6,0.1,2.2,0.1-1,0.2
	c-5.3-0.1-10,0.2-16.7,0c3.5-0.1,5.5,0,6.9-0.1c-1.2,0-1.8-0.1-3.1-0.1c1.8,0,4.3-0.1,1-0.1c-0.4,0.2-2,0-3.1,0
	c-4.5,0.1-14.1,0.2-17.5,0c-5.5,0.2-13.4,0-23.4,0.1c12,0.2,28.3,0.1,38.9,0.1C272,0.6,263,0.7,261.6,0.6C254,0.5,249.3,0.8,243,0.7
	c-0.8,0-1-0.1-1.8-0.1c-8.1-0.2-23.4,0.2-33,0.1c-0.2,0,0.2,0.1-1,0.1c-8.4,0-16.7,0.2-23.4,0.2c3.5,0.2-9.8,0.3-1.8,0.3
	c-3.3,0.1-4.3,0-7.7,0c-5.5,0.1-8.1,0.2-13.6,0.2c1,0.1,6.1,0,6.9,0.1c-19.8,0.2-25.9,0.5-48.7,0.4c1.4,0.1-0.2,0.1-1.8,0.2
	c-5.3,0-7.9,0.1-13.6,0c-0.8,0.1-0.8,0.3-4.9,0.3c0-0.1,2.6,0,1.8-0.1c-3.1,0-4.7,0-3.1-0.1c-3.3,0-5.9,0-7.7,0.1c1.2,0,2,0,1.8,0.1
	c-2.2,0-3.7,0-4.9,0c0-0.1,2.6,0,1.8-0.1c-3.1,0-2.9,0-6.9,0c0.2,0.1,1.8,0.1-1,0.1c1-0.1-3.3-0.2-3.9-0.1c1,0,1.4,0,1.8,0.1
	c-3.5,0.1-7.3,0.1-11.8,0.1c3.3,0.1-1,0.1,1,0.3C44.8,3.2,46.9,4.3,26.3,4.6c13.4,0.1,17.5-0.2,29.3-0.4c-8.1,0.6-23,0.8-34.2,1.2
	c0.8,0,1.8,0,1.8,0c-2.2,0.1-4.1,0.2-6.9,0.2c3.7,0,3.3,0.1,5.7,0.1c3.5-0.3,7.7-0.3,13.6-0.4c0,0,0.8,0,1,0.1
	C33,5.5,31.4,5.7,26.1,5.7c-0.2,0.1,1,0.1,1,0.1c-2.4,0.1-10,0-6.9,0.3c-4.1,0-3.7,0-6.9,0c0.2,0.1,1.8,0.1,1.8,0.2
	c1,0,3.5-0.2,3.9-0.1c-0.4,0.1-2,0.1-3.1,0.2c-1.8,0-1.2-0.1-3.9-0.1c3.3,0.2,8.6,0.4,12.6,0.3c-0.4,0.1,4.1,0.1,3.9,0.2
	c-3.1,0-1.8-0.1-4.9-0.1c-1.2,0.2-2.6,0-3.1,0.2c-3.3,0-4.7-0.1-8.8-0.1C10.6,7,6.7,7,3.7,6.9C3.3,7-2,7.1,0.8,7.2
	C9,7,19.8,7.3,24.3,7c1,0,2.6,0.1,3.9,0.1c0.6,0,1.4-0.1,3.1-0.1c0.8,0.1,3.7,0.1,3.9,0.2c2.6,0,2-0.1,3.9,0c1.4-0.1-2.2-0.2,0-0.2
	c3.3,0.1,12,0.2,15.7,0.2c-2,0-3.3,0-3.1-0.1c1,0,1,0,1.8,0c6.1,0.1,11.4,0.2,16.7,0.1c-1.2,0-2,0-1.8-0.1c3.9,0,3.5,0.1,7.7,0
	c1,0.1-3.1,0.1,0,0.1c1,0,0.4-0.1,3.1-0.1c2,0,3.7,0.1,4.9,0.2c5.3,0,7.7,0.1,11.8,0.1c4.3-0.1,13.6,0,14.5-0.3
	c-3.9,0.1-5.7,0-8.8-0.1c-0.2,0,0.2,0.1-1,0.1c-1.2-0.1-6.3,0-5.7-0.2c7.7-0.1,11.4-0.1,19.4-0.1c0.4-0.1-1.2-0.1-1.8-0.1
	c5.5,0.1,4.1,0.1,8.8,0.1c-1.6,0.2-6.1,0-6.1,0.2c4.9,0,6.7,0.1,7.7,0.2c6.7,0,6.5-0.1,13.6-0.1c6.1,0.2,17.1,0.1,22.4,0.1
	c-0.6,0.2-9.6,0-10.6,0.2c9.6-0.1,16.3,0,24.4-0.1v0.1c6.1,0,11.8-0.2,16.7-0.1c0.2,0-3.9,0.1-1,0.1c10.2,0,34.6-0.1,43,0
	c-2.4,0-5.9,0-5.7,0.1c7.7,0,24.9,0,34.2,0c-0.2-0.1,0.8-0.1,3.1-0.1c10.4,0.2,21.6,0,38.9,0.1c0.2-0.1-12,0-16.7,0
	c0.8-0.3-11.2,0.1-18.5-0.1c6.9-0.1,16.1-0.2,21.4-0.1c16.9-0.2,40.9,0,62.3-0.2c1,0.1,10,0,8.8,0c-3.3,0-4.7,0-4.9-0.1
	c5.5,0,10.2-0.1,16.7-0.1c1.4-0.1-1-0.1,1.8-0.2c5.3,0,4.9,0,3.1,0.1c4.3,0,5.9-0.2,7.7-0.1c0.2,0.1-5.3,0.1-1.8,0.3
	c3.3,0,2-0.1,3.9-0.1c1,0,2.9,0,3.1,0C385,7,383,6.8,385.4,6.7c2,0,2.6,0.1,3.9,0.1c1.4-0.1,8.8-0.1,10.6-0.1c0,0.1-2.4,0-1.8,0.1
	c3.7,0,9.8-0.1,10.6,0.1c-4.1,0-3.9,0-5.7,0.1c-4.7,0.1-5.7-0.2-7.7-0.1c2.9,0-1.2,0.1,0,0.2c3.5-0.1,5.7,0,8.8,0.1
	c0.8-0.1,1.4-0.1,3.9-0.1c1.6,0.1,6.5,0,6.9,0.2c-1,0-2.9,0-3.1,0c0.8,0,1,0,1,0.1c9.8-0.1,28.7,0.1,36.1,0c-0.8,0-1,0-1-0.1
	c3.3,0,12.2,0,14.5-0.1c-3.3,0-1.4-0.1-1.8-0.2c-1.4,0-5.1,0-4.9,0c2.4,0,6.1,0,7.7,0c0,0.1-2.6,0-1.8,0.1c1.8,0,1.8,0,3.1-0.1
	c0,0.1,0,0.1,0,0.2c3.9-0.2,3.7,0,7.7,0c0-0.1,0.2-0.1,1-0.1C471,7.1,468.9,7.2,468.5,7.1z M396.4,1.1c-1.4,0.2-6.7,0-6.9,0
	C382.8,1.1,390.9,1.1,396.4,1.1z M1018.1,2.6c-0.6,0.1-5.5,0.1-7.7,0C1012.6,2.5,1014.6,2.5,1018.1,2.6z M786.1,6.8
	c-0.8-0.1,3.3-0.1,4.9-0.1C790.2,6.7,787.9,6.7,786.1,6.8z M231.8,7.5c0.8-0.1,3.3-0.1,4.9-0.1c2.9,0.1,7.5,0.1,9.8,0.1
	C243.4,7.6,235.7,7.5,231.8,7.5z M303.9,7.2c0.4-0.1-1.8-0.1-1-0.2c7.1,0,10,0,14.5,0c0.8-0.1,4.3-0.1,4.9-0.2c2.9,0-0.6,0.1,0,0.2
	c6.7,0,18.7,0.1,28.1,0.1C336.5,7.2,320.4,7.1,303.9,7.2z M289.3,7.2c-0.4,0,9.4-0.1,11.8-0.1C298.2,7.3,295.8,7.1,289.3,7.2z
	 M215.3,7.2c-1.4,0-5.1,0-4.9,0C209,7.1,215.9,7.1,215.3,7.2z M555.3,7.2c-3.7,0-12.4,0.1-11.8-0.1c-3.5,0.1-8.8,0.1-16.7,0.1
	c-0.4-0.1-3.3-0.1-3.1-0.3c3.3,0,3.3,0,6.9-0.1c0.8,0.1,8.1,0.1,12.6,0.2c-1.6-0.1-3.5-0.2-6.9-0.2c5.1-0.1,10.8-0.2,14.5-0.1
	C552.7,6.9,550.4,7.1,555.3,7.2z M658.6,7c-3.9-0.1-3.9,0.1-8.8,0c0-0.1,0.2-0.1-1-0.1c1.2-0.1,6.1-0.1,8.8,0
	C658.4,6.9,658.6,6.9,658.6,7C660.8,6.9,657.4,7,658.6,7z M558.4,6.9c-0.2,0.1-3.7,0-4.9,0c0,0,1,0,1.8,0c-0.8,0-1-0.1-1-0.1
	c1.2,0,3.5,0,4.9,0.1c0,0.1-0.8,0.1-1.8,0.1C556.9,6.9,557.5,6.9,558.4,6.9z M366.3,7c-5.5,0-10,0-13.6-0.1c5.5,0,8.8,0,14.5,0
	C367.5,6.9,366.1,6.9,366.3,7z M940.1,6.9c0.2-0.1,4.1-0.1,6.9-0.1C947.6,6.9,942.3,6.8,940.1,6.9z M881.6,6.8c-2.6,0-7.7,0-8.8,0
	c-0.4-0.1,4.3-0.1,5.7-0.1c-3.9-0.1,1-0.1,3.1-0.1c-0.2,0-1.8,0-3.1,0c3.5-0.2,6.7,0.1,12.6,0c-2,0.1-8.6,0.1-8.8,0
	C878.8,6.6,882.6,6.7,881.6,6.8z M616.6,6.7c0-0.1,3.5-0.2,1-0.2c6.9-0.1,13.2-0.1,17.5,0c-0.2,0.1-4.3,0-3.9,0.1
	c1,0.1,4.1,0,5.7,0.1C629.9,6.8,625.4,6.8,616.6,6.7z M707.5,6.7c-4.3,0.1-2.6-0.1-5.7-0.1c-1.4,0,0.4,0,0,0.1c-1,0-3.3,0-5.7,0
	c0.6-0.1,3.3-0.1,3.9-0.2c1.6,0.1,2.9,0,4.9,0c0.2-0.1-2.4-0.1-4.9-0.1c0.4-0.1,4.7-0.1,5.7-0.1c2,0,0.2,0.2,3.9,0.1
	c0.8,0.1-4.7,0-3.9,0.1c0.4,0,2.4,0,3.9,0c-0.2,0,0.2,0.1,1,0.1C710.5,6.7,705.6,6.6,707.5,6.7z M688.7,6.7c-3.5,0-8.8,0-14.5,0
	C676.9,6.6,685.9,6.6,688.7,6.7z M692.6,6.6c-3.1,0-1.8-0.2-6.9-0.1c0.2-0.1,4.9-0.1,7.7-0.1C692.8,6.5,692.4,6.6,692.6,6.6z
	 M680,6.6c-2.4,0-4.7-0.1-4.9,0c-1.2,0-0.8-0.1-1-0.1c1.8,0,4.1,0.1,4.9,0C680.4,6.5,679.8,6.6,680,6.6z M732.5,6.5
	c2-0.2,8.1-0.1,13.6-0.1C744.9,6.6,736.4,6.4,732.5,6.5z M819.3,6.4c-5.5,0-10.6,0-11.8-0.2c4.1,0,3.7,0.2,7.7,0.1
	c4.3,0,2.9-0.2,8.8-0.1c0.2,0-0.4,0-1,0c-0.2,0,0.4,0,1,0C823.2,6.3,818.7,6.2,819.3,6.4z M943.1,6.3c1-0.1,12.8-0.1,10.6,0
	S945.6,6.4,943.1,6.3z M634.3,6.2c4.9,0,4.9,0,8.8,0C642.9,6.5,633.9,6.4,634.3,6.2z M632.1,6.4c-3.9-0.1-5.3,0-11.8-0.1
	c2-0.2,7.1,0.1,7.7-0.1C630.3,6.2,634.5,6.3,632.1,6.4z M907.9,6.3c-1.8,0-3.9,0-5.7,0C901.2,6.1,905.9,6.2,907.9,6.3
	C907.9,6.2,907.9,6.3,907.9,6.3z M884.7,6.2c0.2,0,1.8,0,1.8-0.1C886.5,6.1,885.5,6.1,884.7,6.2c-1.2-0.1-0.8,0-1,0
	c-3.1,0-2.6,0-4.9,0c0.2,0,1.8,0,1.8-0.1c-0.8-0.1-2.4,0-4.9,0c2.4-0.2-2-0.1-1.8-0.2C881,6,889.8,6.1,896.3,6
	c-0.4,0.1,4.1,0.1,3.9,0.2c-2,0-5.5,0-6.9-0.1C891.6,6.2,888.6,6.3,884.7,6.2z M954.8,6.2c-2.2,0.1-9.6,0.1-10.6,0
	c0.2-0.1,5.3,0.1,5.7-0.1c-3.1,0-6.1,0-10.6,0c0-0.1-0.8-0.1-1.8-0.1c1.4,0,6.1-0.1,3.9-0.3c4.1,0,5.7-0.1,9.8-0.2
	c-3.5,0.1-2.4,0.4-7.7,0.3c-0.2,0.1,1.4,0.1,3.1,0.1c1.6,0,2,0,3.9,0c-0.8,0-1.4-0.1,0-0.1C954.1,5.9,946.6,6.2,954.8,6.2z
	 M925.4,6.2c-0.2-0.1,3.3-0.2,4.9-0.1C929.5,6.2,928.5,6.3,925.4,6.2z M846.6,5.9c-1.6,0.1,0.2,0.1,1,0.2c-4.7,0.1-4.5-0.1-5.7-0.2
	C843.1,5.9,843.7,5.9,846.6,5.9z M829.1,6.1c-0.2,0-1,0-1-0.1c-2,0-4.9,0.1-5.7,0c5.5-0.1,7.3,0.1,12.6,0c-0.8,0-1.2,0.1-1,0.2
	c-4.7-0.1-3.7,0-8.8,0C825.4,6.1,826.8,6.1,829.1,6.1z M869.8,6.1c-2,0.1-6.3-0.1-5.7-0.2C869,6,867.2,6.1,869.8,6.1z M841.7,6
	c-0.8,0-2.4,0-5.7,0C834.8,5.9,840.9,6,841.7,6z M952.7,5.9c4.9,0,7.5,0.1,12.6,0C963.7,6,952.1,6.1,952.7,5.9z M920.7,5.8
	c2.2,0,3.7,0.1,6.9,0.1c3.3,0,0-0.2,4.9-0.3c-0.6,0.1,0.4,0.1,3.1,0.1c-2,0.1-1.2,0.1-1,0.2C927.5,6,923.2,6,920.7,5.8z M939.1,5.8
	c-3.7,0-3.5-0.2,1-0.1C940.3,5.7,938.9,5.7,939.1,5.8z M1054.2,5.7c-2.6,0-3.3-0.1-3.1-0.1c1.2,0,2.6,0,3.9,0
	C1055.6,5.6,1054.4,5.6,1054.2,5.7z M939.1,5.6c-3.1,0-2.2,0-5.7,0c0.6,0,1-0.1,1-0.1C936,5.5,939.5,5.5,939.1,5.6z M857.4,5.3
	c0.2,0.2-1.2,0.1,0,0.3c-3.5,0-3.9,0-8.8,0c-1-0.1,0.6-0.1-1.8-0.2c-2.9,0,1.2,0.1,0,0.2c-2.4,0-5.3,0-8.8,0
	C843.9,5.4,847.6,5.2,857.4,5.3z M831.1,5.6L831.1,5.6c1-0.1,1.6-0.1,1.8,0c2,0,1.8-0.1,3.9,0C836.2,5.5,834.4,5.6,831.1,5.6z
	 M829.1,5.6c-2.6,0-1-0.1-3.1-0.1c0.6,0,2-0.1,3.9-0.1C830.1,5.4,830.1,5.5,829.1,5.6z M594.2,5.5c-2.2-0.1-1.6-0.3-6.9-0.2
	c0.2,0-0.2-0.1-1-0.1c2.2-0.1,5.3-0.1,8.8-0.1C593.6,5.3,594,5.3,594.2,5.5z M1056.2,5.4c-0.2,0.1-4.1,0-5.7,0c0.2,0,1.6,0,3.1,0
	c-1-0.1-1.8-0.3,3.1-0.3C1053.8,5.2,1052.9,5.4,1056.2,5.4z M892.4,5.4c-2.6,0-5.9,0-4.9-0.2c3.7,0,5.5-0.1,11.8,0
	C896.7,5.3,893.2,5.3,892.4,5.4z M1049.3,5.4c-4.9,0,1.4-0.2-3.1-0.2c1-0.1,3.1-0.1,5.7-0.1c0,0-1,0-1.8,0
	C1052.9,5.3,1049.1,5.3,1049.3,5.4z M869.8,5.4c-3.3,0-4.5-0.3,1-0.2C871,5.3,871.2,5.4,869.8,5.4z M883.7,5.3
	c-2.2,0.1-5.3-0.1-8.8,0c0.4-0.1,4.3-0.1,4.9,0c1.6,0,2.2-0.1,1.8-0.1c1.4,0,3.3,0.1,3.1,0.1c-0.6,0-1.2,0-1.8,0
	C882.4,5.3,883.1,5.3,883.7,5.3z M558.4,5.3c-1.4,0.1-6.3,0-4.9-0.1C557.5,5.1,554.5,5.3,558.4,5.3z M605,5.3c-2.2,0-3.7-0.1-6.9,0
	c1.4-0.2,8.8,0,9.8-0.1C607.7,5.2,604.8,5.2,605,5.3z M560.2,5.1c3.1,0.1,3.1,0.1,6.9,0C566.3,5.3,559,5.4,560.2,5.1z M1067.8,5.2
	c-1.6,0-3.3,0-4.9,0C1061.9,5.1,1066,5.2,1067.8,5.2L1067.8,5.2z M773.7,5.1c-2.9,0,0.6-0.3,3.9-0.3C776.9,4.9,774.3,5,773.7,5.1z
	 M912.8,5.1c-0.6,0.1-5.9,0-6.9,0c1-0.1,1.4-0.1,3.9-0.1C909.3,5.1,912,5,912.8,5.1z M790,5.1c-2.4,0-4.1-0.1-4.9,0
	c-1-0.1-0.4-0.1-1.8-0.2c2.9,0,4.1,0,6.9,0C790,5,788.9,5,790,5.1z M593.4,5.1C592.2,5.1,592.8,5.1,593.4,5.1
	c-3.1-0.2-4.9-0.1-7.7-0.1c-0.4-0.1,1.8-0.2,3.1-0.3C588.9,4.8,593.6,5,593.4,5.1z M871,5.1c-1.2,0-2.6,0-3.9,0
	C866.4,4.9,871.9,4.9,871,5.1z M1017.1,5c-2.6-0.1,4.9-0.2,4.9,0C1020.6,5,1016.9,4.9,1017.1,5z M575.9,5c-1.6-0.1,0.4-0.1,3.1-0.1
	C578.9,4.9,578.3,5,575.9,5z M884.7,5c-1.6-0.1,3.9-0.1,7.7-0.1C891.4,4.9,886.1,4.9,884.7,5z M872.9,4.5c-2.9,0.1-8.4,0.1-10.6,0.3
	c-1.6,0-3.3,0-4.9,0V4.7c-3.1,0-2.2,0.1-5.7,0.1c0.4-0.1-1.2-0.1-3.1-0.1c2.6-0.1,2.2-0.2,6.9-0.2c0.6,0.1-1.8,0.1-1.8,0.1
	c0.8,0,1,0,1,0c2.9,0,2.2-0.2,4.9-0.3c-1.4-0.1-4.5-0.1-7.7,0c0.4-0.1,2.6,0,1-0.2c4.1,0,4.5,0.2,7.7,0c1.8,0.1,0.4,0.1,0,0.2
	c0.8,0,1.2,0,1.8,0c2.9-0.1-1.2-0.2-1-0.3c-2.4,0-3.1,0.1-4.9,0c0.8-0.1,3.9-0.2-1-0.1c-1.6-0.1,3.5-0.1,1-0.2
	c3.3-0.1,6.3-0.2,4.9-0.4c-4.5,0.1-11.6,0.1-12.6-0.2c-5.7,0-10.4,0-14.5-0.1c-0.2,0,0.4,0,1,0c0.8,0,1,0,1,0c1.4,0-0.2,0,0,0.1
	c3.5,0,9.6,0,9.8-0.1c4.9,0,7.5,0,11.8,0c-5.9,0.4,5.3,0.4,16.7,0.4c0.4,0.1-0.8,0.1-1,0.1c0.4,0,2.4,0,3.9,0
	c0.8-0.1-2.6-0.1-1.8-0.2c4.7,0,9.4,0,11.8-0.1c0.8-0.1-1.2-0.1-1-0.2c-1.6,0.2-4.3,0-7.7,0.1c0.2-0.2-9.6,0-10.6-0.1
	c-0.6-0.1,7.3,0,9.8,0c-2,0-10.2,0-13,0c-2.6-0.1,4.3-0.2,4.9-0.1c3.3,0-2-0.1,1-0.1c-0.8-0.1-3.3-0.1-4.9-0.1
	c3.5-0.1,7.5-0.1,13.6-0.1c0.8,0.1-1,0.2-3.1,0.2c5.9,0.3,7.1,0.3,18.5,0.3c1-0.1-3.3,0-1.8-0.1c4.3,0,2.9-0.1,5.7-0.1
	c-2.9-0.1-9.6,0-10.6-0.2c5.5,0,11,0,16.7,0c1,0,1,0.1,1,0.2c0.8,0,1,0,1.8,0c2,0,0.2-0.2,1.8-0.2c5.7,0,5.5,0.1,8.8,0
	c1.6,0.1,3.5,0.3,7.7,0.3c0,0.1-0.2,0.1,1,0.1c-0.4,0-2.4,0-3.9,0c0.2,0.1,4.3,0,4.9,0.1c-3.3,0.1-12-0.1-16.7,0.1
	c0.4,0,1,0.1,1.8,0.1c-2.4,0-11.2-0.1-14.5-0.2c-2.9,0.1-5.1,0.1-7.7,0.2c1.6,0.1,10.4,0,6.9,0.2c4.5-0.1,10.8,0,15.7,0
	c-2.4,0.1-6.5,0.1-6.9,0.2c-5.1,0-6.5-0.1-8.8-0.1c2.6,0.1-4.1,0.2-5.7,0.3c-0.2,0.1,3.5,0,4.9,0c-0.6,0-1,0.1-1,0.1
	c-2.2,0-3.7,0-4.9,0c-0.8,0.1,2,0.1,3.1,0.1c-1.4,0.1-2.4,0-4.9,0c2.6,0.1-1,0.1-1,0.2c-1.6,0-2.9-0.1-4.9-0.1c1,0.1,1.4,0.2-1,0.2
	c0.2,0,1,0,1,0.1c1.2-0.1,3.3-0.1,5.7-0.1c-3.3,0.1-3.3,0.3-7.7,0.4c-1.6,0-0.2-0.1,0-0.1c-3.5,0.1-6.3,0.2-8.8,0.3
	c-3.9,0,1.8-0.2-1.8-0.2C867,4.7,873.7,4.6,872.9,4.5z M809.7,4.7c2.6-0.2,4.1,0.1,6.9-0.1c-1,0-1,0.1-1,0.2c4.7,0,2-0.2,6.9-0.2
	c-1.8,0.1-0.2,0.1,0,0.2c-2,0-1.8,0.1-3.9,0.1C810.7,4.9,814.8,4.8,809.7,4.7z M801,4.7c-1,0-3.5,0-3.1,0.1c-1.2,0-1.4-0.1-3.1-0.1
	c0.4,0.1-1.2,0.2,1.8,0.2c-1.2,0.1-4.9,0.1-5.7,0c-0.6-0.2,3.9-0.2,3.1-0.4c2.9,0,6.7,0,6.9-0.1c0.4-0.1-5.5,0-3.9-0.1
	c1.6,0,3.3,0,4.9,0C802.6,4.5,798.5,4.5,801,4.7z M595.2,5c-1.8-0.1-0.8-0.1-3.9,0C590.5,4.8,599.5,4.9,595.2,5z M775.5,4.8
	c-3.3-0.1,1-0.1,1-0.2C779.2,4.6,775.7,4.7,775.5,4.8z M610.9,4.8c-1,0-1.8,0-3.1,0C606.4,4.7,611.3,4.8,610.9,4.8
	c-1.2-0.2-7.7,0-6.9-0.3c1.2,0,3.5,0,4.9,0.1c3.3-0.1-3.3,0-1.8-0.1c3.3,0,3.1-0.1,3.9-0.1s2.2,0,3.9,0c-0.4-0.1-2-0.1-1.8-0.2
	c1.2,0,3.5,0,4.9,0c-0.6,0.2,0.4,0.3-6.9,0.3c0.6,0,1,0.1,1,0.1c2-0.1,6.3-0.1,10.6-0.1c-1.2,0.1-6.3,0.3-7.7,0.1
	C614,4.7,611.1,4.7,610.9,4.8z M593.4,4.8c0.2,0-0.2-0.1-1-0.1c4.5,0,1.4-0.1,5.7-0.1c-2.6,0.1,1,0.1,1,0.2
	C596.9,4.7,596.4,4.8,593.4,4.8z M899.1,4.7c-5.1,0.1-10-0.1-12.6,0c-3.5-0.1,4.5-0.1,6.9-0.1c0-0.1-1.6-0.1,0-0.1
	c-0.6,0-2-0.1-3.9-0.1c1.6-0.2,10.2-0.1,12.6-0.3c0.6,0.1-3.1,0.1-1.8,0.2c-3.5-0.1-2.4,0-3.9,0.1C897.7,4.6,900.2,4.5,899.1,4.7z
	 M789.1,4.7c-3.7-0.1-3.7-0.1-7.7,0c-0.2-0.1-1.8-0.1,0-0.2c5.5,0.1,3.3,0.1,4.9-0.1C788.9,4.4,788.3,4.6,789.1,4.7z M887.5,4.6
	C887.5,4.6,887.5,4.5,887.5,4.6c1.8-0.1,1.2-0.1,3.9-0.1c0,0,0,0,0,0.1C888.8,4.6,889.6,4.6,887.5,4.6z M806.7,4.5
	c-1.2-0.2,4.5-0.2,3.9,0C808.9,4.5,808.5,4.5,806.7,4.5z M640.9,4.5c-1.2,0-2.6,0-3.9,0c0.2,0-0.2-0.1-1-0.1
	C636.8,4.4,641.7,4.4,640.9,4.5z M629.4,4.5c1.2-0.1,4.9-0.1,5.7,0C634.5,4.6,631.5,4.5,629.4,4.5z M659.6,4.4
	c-3.9-0.2,3.3-0.4,5.7-0.2C663.5,4.3,660.8,4.4,659.6,4.4z M921.6,4.4c-2.4-0.2-6.9-0.1-10.6-0.1C912.4,4.1,920.7,4.1,921.6,4.4z
	 M41.8,4.4c-2.9-0.1,1.6-0.1,1-0.2c2.6,0,2.6,0.1,3.1,0.1C44,4.2,42.8,4.3,41.8,4.4z M923.6,4.3c-1-0.1,5.7-0.1,4.9,0
	C926.6,4.4,926,4.3,923.6,4.3z M626.4,4.1c2.9,0,7.7-0.2,8.8,0c-5.9,0-12,0.1-13.6-0.1C626.6,4.2,623.5,4,626.4,4.1z M594.2,4.2
	c-1.4-0.3-7.9,0-9.8-0.2c-1.2,0.1-2.9,0.1-3.9,0.2c-1.4-0.1-2-0.1-1.8-0.3c3.1,0,6.9,0,4.9-0.1c3.9,0.1,3.3,0.1,7.7,0
	C589.9,4.1,596,4,594.2,4.2z M842.7,3.7c1-0.1-3.3,0-1.8-0.1c4.5,0,5.5,0.1,8.8,0c0.6,0.1,0.2,0.2,1.8,0.3c-1.6,0-3.3,0-4.9,0
	c0-0.1,0.2-0.1-1-0.1c0.6,0.2-5.5,0.2-5.7,0.4c-1.6-0.1-5.5,0-6.9,0c-3.3-0.1,3.1-0.1,1-0.2c3.1,0,2.6,0.1,4.9,0
	c-3.5-0.2,2-0.2-3.1-0.3C836.6,3.6,839.9,3.7,842.7,3.7z M573.8,3.9c1,0,2.2,0,3.9,0c0.4,0.1-1.8,0.1-1,0.3
	C574.2,4.1,574.5,4,573.8,3.9z M616.6,3.9c4.3,0,7.3-0.1,7.7,0.1c-1.4,0-1.6,0-3.1,0C620.7,4.1,615.6,4.1,616.6,3.9z M607,4.1
	c0.2-0.1-1-0.3,3.1-0.3C609.5,3.9,608.1,4,607,4.1z M562,4c-2,0-5.1-0.1-4.9-0.2c4.3,0.1,9.2-0.1,13.6,0C567.3,3.9,563.2,3.8,562,4z
	 M44.8,4c0.8-0.1,3.3-0.1,6.9-0.1C50.7,3.9,47.5,4,44.8,4z M684.9,3.8c0.4-0.1-3.3-0.4,6.9-0.4c0,0.1-0.8,0.1-1.8,0.1
	c3.7,0.1,6.9-0.1,11.8,0.1C695.4,3.6,693.6,3.8,684.9,3.8z M650.8,3.7c-3.1-0.1-3.7,0-5.7,0V3.6C648.6,3.6,650,3.6,650.8,3.7z
	 M608.9,3.3c2.9-0.1,5.5,0.1,6.9-0.1c1.4,0.1,5.9,0.1,5.7,0.3c3.7,0,9.2,0.1,13.6,0c-0.8-0.1,1.6-0.2,1-0.3c-2,0-1.4,0.2-3.1,0.2
	c-0.8-0.1-4.5-0.1-4.9,0c-1.8,0-1.4-0.2,1-0.1c0.2-0.1-1-0.1-1-0.1c-1.4,0.1-1,0.2-3.1,0.2c-2.4-0.1,2.6-0.2-1-0.3
	C627.8,3,633.9,3.2,636,3c3.3,0,5.3,0,5.7,0.1c-2.9,0-3.5,0-4.9,0.1c-0.8,0.1,1.8,0.1,1.8,0.1c1.8,0,0.6-0.1,1.8-0.1
	c5.5,0.1-0.2,0.3,3.1,0.4c-2.6,0-6.5,0-3.9-0.1c-2.4,0.1-8.8,0.1-7.7,0.2c-1.8,0.1-3.9-0.1-6.9-0.1c-2.9,0,1.4,0.1-1,0.1
	c-1.8,0-1.6-0.1-4.9-0.1c1.4-0.1-1-0.2,1-0.3c-6.5,0-1.2,0.2-3.9,0.3C610.5,3.6,610.9,3.5,608.9,3.3z M610.9,3.6
	c-3.1,0-6.7,0-7.7-0.1C606.8,3.6,610.3,3.4,610.9,3.6z M1018.1,3.7L1018.1,3.7c3.1,0,7.1-0.1,9.8-0.1
	C1030.1,3.6,1021,3.6,1018.1,3.7z M591.4,3.6c-3.5,0-4.3-0.1-6.9,0c-3.1-0.2,5.5-0.1,8.8-0.1C593,3.6,591.6,3.6,591.4,3.6z
	 M678.1,3.6c-1.6,0-2,0-3.9,0C673.7,3.4,679.4,3.4,678.1,3.6z M951.9,3.5c-0.8,0.1-5.5,0-7.7,0C944.4,3.3,949.1,3.5,951.9,3.5z
	 M838.9,3.5c1-0.2,7.1,0,9.8-0.1C848,3.6,839.5,3.4,838.9,3.5z M700.5,3.5c-4.1,0-3.1-0.2-1.8-0.3c2.9,0.2,6.5,0,11.8,0
	C708.1,3.4,699.9,3.3,700.5,3.5z M564.1,3.4c-1,0-2.6,0-4.9,0c0.8-0.1-2.4-0.2,0-0.3C562.8,3.2,563.7,3.3,564.1,3.4z M1028.9,3.3
	c0.4,0.1-1.2,0.1-3.9,0.1c5.3-0.1,0.2-0.2-1-0.3C1027.3,3.1,1026.5,3.3,1028.9,3.3z M1017.1,3.4c-1,0-1.8,0-3.1,0
	c0.4-0.2-1-0.2-4.9-0.1c1-0.2,5.3-0.1,7.7-0.1C1018.5,3.2,1018.5,3.4,1017.1,3.4z M518.4,3.1c2.6-0.1,7.3,0,7.7-0.1
	c3.7,0,4.3,0.2,8.8,0.2c-0.4,0.2,1.6,0.2-3.9,0.3c-1.4-0.1-5.3-0.2-8.8-0.3c-0.8,0-1,0-1,0C526.4,3.3,517.8,3.3,518.4,3.1z
	 M947.8,3.4c-0.8,0-1.4,0-3.1,0c0.2-0.1,2.2-0.2,5.7-0.1C952.7,3.4,947,3.2,947.8,3.4z M1039.5,3.3c-5.3,0-2.4-0.3-8.8-0.3
	c0.4,0,1-0.1,1.8-0.1c0.2-0.1-5.9-0.1-5.7,0c-1-0.2,11-0.1,13.6-0.1c-2.2,0-2.9,0.1-4.9,0.2c1.2,0.1,4.3,0.1,5.7,0.1v0.1
	C1040.3,3.3,1039.7,3.3,1039.5,3.3z M574.7,3.3c-2.9-0.1-3.9,0-6.9-0.1c-1-0.1,2.4-0.1,1.8-0.2C571.6,3.1,574.5,3.2,574.7,3.3z
	 M65.2,3.3C67,3.2,65.2,3.3,65.2,3.3C67.6,3.2,77.8,3,77,3.2c2.9,0,4.3-0.1,8.8-0.1C80.3,3.2,72.3,3.2,65.2,3.3z M686.9,3.3
	c-2.6-0.1-3.7,0-6.9-0.1C682.2,3,689.9,3.1,686.9,3.3z M557.1,3L557.1,3c-4.3,0-11.6,0.4-11.8,0c2.6,0,1.8-0.1,3.1-0.1
	C549.8,3.2,553.5,3,557.1,3z M711.1,3.2c1,0,2.9-0.1,1.8-0.2c3.9-0.1,5.7,0.2,4.9,0.1c1-0.1,1.8,0,3.1,0
	C720.5,3.3,714.4,3.2,711.1,3.2z M623.3,3.2c-2.9,0-4.5-0.1-4.9-0.2C622.5,3,622.9,3.1,623.3,3.2z M457.9,3.2
	c-3.3,0,4.5-0.2-1.8-0.1c0.4,0,2.4,0,3.9,0c0,0.1-0.2,0.1,1,0.1C460.6,3.3,458.1,3.2,457.9,3.2z M709.3,3.1
	c-0.8-0.1-2.4-0.1-3.1-0.2c-1.8,0-2.4,0.1-4.9,0.1c0,0.1-0.2,0.1,1,0.1c-2.4,0.1-5.1-0.1-5.7-0.2c2.6-0.1,7.9,0,11.8-0.1
	C709.7,2.9,707.7,3,709.3,3.1z M684.9,2.9c2.9,0,6.3-0.1,9.8,0c-0.8,0-1,0.1-1,0.1C688.5,3.1,685.5,3.1,684.9,2.9z M943.1,2.9
	c3.5,0,2.9,0.1,5.7,0.1C947.4,3.2,944.4,3,943.1,2.9z M501.7,3c0.2,0.1-3.5,0-4.9,0c-1.8,0,0.6,0,1.8,0c-0.2-0.1-3.9-0.2,1-0.2
	C498.7,3,499.1,3,501.7,3z M93.5,3.1C90.7,3,88.4,2.9,83.7,3c1.8-0.1,5.9,0,9.8-0.1c-1.4,0.1-3.3,0.2,1.8,0.2
	C95.1,3,93.5,3,93.5,3.1z M98.4,3c0.8-0.1,3.1-0.1,4.9-0.1c-0.2,0-1.8,0-1.8-0.1c-2,0.1-3.1,0.2-5.9,0.2c1.4-0.1,3.3-0.2-1-0.1
	c1,0,1-0.1,1.8-0.2c1.4,0.1,5.1,0,5.7,0C105.3,2.7,103.9,3,98.4,3z M619.7,2.9c-1.6,0-1.8,0-2-0.1c-2.4,0-3.7,0.1-3.9-0.1
	c1.2,0,2.6,0,3.9,0C616.4,2.9,620.9,2.8,619.7,2.9z M951.9,2.9c-1.8,0-3.9,0-5.7,0c0.8,0,1-0.1,1-0.1C950.1,2.7,951.7,2.8,951.9,2.9
	z M561,2.7c1-0.1,5.9-0.1,5.7,0C564.1,2.8,563,2.8,561,2.7z M615.8,2.8c-3.3,0-0.6-0.1-1-0.2C619.1,2.6,617.2,2.7,615.8,2.8z
	 M543.5,2.8c-2,0-2-0.1-1.8-0.2c2.6,0,4.1,0,3.9,0.1c-0.8,0-1,0-1.8,0C543.5,2.7,543.5,2.7,543.5,2.8z M1030.7,2.7
	c0.8-0.1,2.4-0.1,4.9-0.1C1035.8,2.7,1032.2,2.7,1030.7,2.7z M600.9,2.3c-0.2,0.1,1.4,0.1,3.1,0.1c1.6,0,0.8-0.1,3.9-0.1
	c-0.2,0.1-2.6,0.1-3.9,0.1c-0.6,0.1,3.3,0.1,3.1,0.2c-5.5,0-8.8,0-12.6-0.1c9,0.1,2.9-0.5,8.8-0.3C602.4,2.3,602.2,2.3,600.9,2.3z
	 M944,2.6c0.8,0,1,0,1,0c-3.5-0.1-1.8-0.2-8.8-0.1c0.8,0,1.4-0.1,0-0.1c0.4-0.1,3.1,0,1.8,0.1c1.6-0.1,3.9-0.1,7.7,0
	c-2,0.1-1,0.2,3.1,0.1c-0.2,0.1,1,0.1,1,0.1c-3.3,0-5.5,0-7.7,0C942.3,2.6,944,2.6,944,2.6z M728.7,2.6c-3.3,0-5.7-0.2-7.7-0.1
	c-2.6-0.1,3.1-0.2,7.7-0.2C730.3,2.5,727,2.4,728.7,2.6z M872.1,2.5c-1,0.1-3.3,0-4.9,0C868.6,2.3,870,2.5,872.1,2.5z M425.5,2.6
	c-1.6,0-3.3,0-4.9,0c0-0.1,1.8-0.2,5.7-0.2C427.2,2.5,424.9,2.5,425.5,2.6z M135.3,2.5c-3.3,0-10,0-14.5,0
	C122.8,2.2,131.4,2.4,135.3,2.5z M569.8,2.5c-1.6,0-3.3,0-4.9,0c1.2-0.1-3.3-0.1-1.8-0.2c-1,0-0.8,0.1-1,0.1c-3.1,0-1.2-0.1-1-0.2
	c3.7,0,11.6,0.1,12.6,0.1C577.9,2.6,568.5,2.3,569.8,2.5z M526,2.5c-2.6-0.1-3.5-0.1-7.7-0.1V2.3c2.4,0,4.7,0,5.7,0.1
	c-0.4-0.1,2.9-0.1,6.9-0.1C530.9,2.4,527.2,2.4,526,2.5z M577.7,2.5c0,0-1,0-1.8,0c-0.2-0.2,5.7-0.2,7.7-0.1
	C582,2.4,581,2.5,577.7,2.5z M556.3,2.5c-2.6,0.1-3.7-0.2-5.7-0.3c-1.8,0-0.6,0.1-1.8,0.1c-3.3,0-2-0.1-3.9-0.1
	c3.1-0.1,6.1,0,8.8-0.2c2.9,0.1,4.1,0.2,4.9,0.3c-1.6,0-2.6,0-3.1,0.1C555.1,2.5,555.7,2.5,556.3,2.5z M480.3,2.5
	c-4.5,0-0.4-0.2,0-0.2c2.6,0.1,5.1,0,8.8,0c1,0.1-3.3,0.1-3.1,0.1c-1,0-1.4-0.1-1.8-0.1C481.8,2.3,480.5,2.4,480.3,2.5z M433.5,1.9
	c2.2,0,4.5,0,6.9,0c1,0,1.6,0.1,3.1,0.1c0.6-0.2,3.5,0.1,6.9,0c-1.2,0.2-3.3,0.1-7.7,0.1c1,0.2,8.4-0.1,8.8,0.2c1-0.1,3.3-0.1,3.9,0
	c3.1-0.2,7.1-0.1,11.8-0.1c0.4,0.1-0.2,0.1-1,0.2c-2.4,0-4.1-0.1-4.9,0c-2.2,0-2.2-0.1-1-0.1c-3.3,0.1-4.5,0.2-9.8,0.1
	c4.9-0.1-16.3,0.1-20.6-0.1c-0.2-0.1,1.4,0,3.1-0.1c0.4-0.1-2.4-0.1-3.9-0.1C430.4,2.1,434.3,2.1,433.5,1.9z M134.3,2.3
	c-2,0,1.4-0.2,3.9-0.1c0.4,0,1,0.1,1.8,0.1C140.4,2.4,134.1,2.2,134.3,2.3z M469.5,2.3c-0.2-0.1,1-0.1,1-0.1c1.8,0,4.1,0,3.9,0.1
	C472,2.3,472.2,2.3,469.5,2.3z M143,2.3c-1,0-0.8-0.1-1-0.1c3.5,0,5.7-0.1,9.8-0.1C149.7,2.2,145.1,2.2,143,2.3z M542.7,2.2
	c-3.1,0-4.7-0.1-4.9-0.2c4.1,0,1-0.2,1-0.3c3.7,0.1,3.3-0.2,1.8-0.1c-2.4-0.1,1-0.1,3.9-0.1c-0.2,0.1-1.8,0.1,1,0.1
	c1.8-0.1-1.4-0.1,3.9-0.1C549.8,2,540.6,2,542.7,2.2z M492,2.2c0.2,0.1-3.5,0-4.9,0c0.4-0.1-1.4-0.2-5.7-0.2V1.9c1.6,0,3.3,0,4.9,0
	c1,0.1,0.8,0.2,4.9,0.1C491.1,2.1,490.5,2.2,492,2.2z M478.3,2c-4.1,0.1-7.3-0.1-12.6-0.1C469.5,1.7,475.9,1.9,478.3,2z M495.8,1.9
	c1.8-0.1,4.7-0.3,8.8-0.2c-0.6,0.1-4.5,0-4.9,0.1c0.8,0.1,2.6-0.1,4.9,0c0.4,0,1,0.1,1.8,0.1C505.4,2.1,497,2,495.8,1.9z M569,1.9
	c-1.4,0.2-4.9,0-7.7,0C558.6,1.8,567.5,1.9,569,1.9z M494,1.9c-2,0-2.6,0-3.9,0c1-0.1,3.5-0.2,6.9-0.1c-0.2,0-1.8,0-3.1,0
	C495,1.8,494.2,1.8,494,1.9z M371.2,1.8c-1.4,0,0.4,0,0,0.1c-0.8,0-1.4,0-3.1,0c-1.2-0.1,4.7-0.2,3.9,0
	C371.4,1.8,371.2,1.8,371.2,1.8z M574.7,1.8c-0.6,0.1-4.5-0.1-4.9,0c-3.1,0-0.6-0.1-1.8-0.2C571.2,1.6,571.2,1.8,574.7,1.8z
	 M378.9,1.7c-1,0-0.8-0.1-1.8-0.1c0.2-0.1,4.1,0,5.7,0c-0.2,0,0.2,0.1,1,0.1C383,1.7,381.1,1.7,378.9,1.7
	C378.7,1.7,380.7,1.6,378.9,1.7z M500.9,1.5c-0.2,0-1,0-1,0c-2.4,0.1,1,0.1,3.9,0.1c-2-0.1,9.4-0.1,9.8,0c-4.5,0-13.6,0.1-16.7,0.1
	c-2.9,0,0.2-0.2,0-0.2C499.5,1.4,498.7,1.5,500.9,1.5z M179.1,1.6c-1,0-0.8-0.1-1-0.1c1.6,0,5.7,0,5.7,0c1.2,0,0.8-0.1,1-0.1
	c5.5,0.2,15.3-0.2,24.4,0c-0.4,0.1-2.6,0.1-3.1,0.1C195.4,1.5,187,1.5,179.1,1.6z M431.7,1.5c-2.4,0-5.1,0-4.9-0.1
	C429.8,1.3,431.5,1.4,431.7,1.5z M369.3,1.5c0,0,1,0,1.8,0c-0.2,0-1,0-1-0.1c-3.7,0.1-4.1,0-7.7,0c-1.6-0.1,0.4-0.1-1-0.2
	c1.6,0.1,3.7,0.1,3.1-0.1c1.8,0,0.8,0.1,3.9,0.1c0.2,0.1-1,0.1-1,0.1c3.7,0.1,4.7-0.1,8.8,0C374.4,1.4,372.2,1.4,369.3,1.5z
	 M282.5,1.2c0.2-0.1,1.6-0.1,3.9-0.1c-0.2-0.1-3.3,0-3.9-0.1c7.5-0.1,13,0.1,19.6,0.1C300.3,1.5,286.2,1.4,282.5,1.2z M306.8,1.4
	c-2.6,0-3.3-0.1-3.9-0.2C305.8,1.2,309.4,1.3,306.8,1.4z M579.5,1.1c-2.6,0-1.8,0.1-3.9,0c-0.2,0,0.2,0.1-1,0.1
	c-2.4,0-4.7,0-4.9-0.1c1.6,0,3.1,0,3.9,0C574,1,570.4,1,568.7,1c0.8,0.2-5.5,0.1-5.7,0c-1.6,0.3,7.3,0.2,9.8,0.3
	c1.4-0.2,16.7,0.1,13.6-0.1C586.5,1.4,575.7,1.2,579.5,1.1z M1089.2,6.1c-10.8,0.1-18.9-0.1-24.4,0.1
	C1073.1,6.3,1081.7,6.2,1089.2,6.1z M971.5,4.9c-0.8,0-1.2,0.1-1,0.2c4.9,0.1,12-0.1,9.8-0.2c-1,0.1-4.3,0.2-7.7,0.2
	C969.6,5,974.1,4.9,971.5,4.9z M794,3.3c0.6,0.2-0.4,0.2-3.1,0.2c1,0.2-1,0.2-3.1,0.3c5.3,0.1,9.4,0.1,10.6,0
	C792.2,3.7,799.7,3.5,794,3.3z M875.9,3.6c1,0,3.3,0.2,1,0.2c-3.9,0.1-0.4-0.2-3.1-0.1c-2.9,0.1-1,0.1-1,0.2
	C879.6,4,881.6,3.5,875.9,3.6z M765.7,3.6c3.1,0,1.8-0.1,4.9-0.1c1.6,0.1-0.8,0.1,1,0.1c3.5,0.1,0.6-0.1,3.1-0.1
	c0.6,0.1,2,0.1,3.1,0.2c-1.8,0-4.3,0-3.9,0.1c3.3-0.1,7.1,0.2,8.8-0.1c-2.2,0-3.7,0-3.9-0.1c1.4-0.1,2-0.1,1-0.2
	c3.9,0,7.3,0,8.8,0.1c0.4-0.1,2.9-0.1,1.8-0.2c-1,0-2.9,0-3.1,0c3.1,0,3.3-0.1,1.8-0.2c-3.1,0-2.6,0.1-4.9,0.1
	c-2.6-0.1-0.8-0.1-1.8-0.2c-3.3,0-3.3,0.1-6.9,0c-0.8,0.2,2.6,0.1,3.9,0.2c-4.1,0-6.5,0-9.8,0c-2-0.2-0.2-0.3-3.1-0.3
	c-0.8-0.1,4.7,0,3.9-0.1c-2.4,0-2-0.1-4.9,0c-3.1,0.1-4.5,0.3-7.7,0.4c4.3,0.1,7.5,0.1,5.7,0.3c3.3-0.1,5.3,0.3,8.8,0.1
	c-1.8,0,0.6-0.1-1-0.1C772,3.7,766.1,3.7,765.7,3.6z M1050.3,3.4c1.8,0,2,0,1,0.1c3.1,0,2.9-0.1,5.7,0c-0.6-0.1,1-0.2,1.8-0.3
	c-2.4,0-2,0.1-4.9,0c-0.8,0.1,1.2,0.1,1,0.2C1052.7,3.4,1051.1,3.3,1050.3,3.4z M767.6,2.3c-1.8,0-5.9-0.1-9.8,0
	c-1.6,0-3.3-0.1-3.1-0.2c6.7,0.2,17.1-0.3,23.4,0.1c0.6-0.1-1-0.2,1-0.2c8.6,0.2,3.7,0,11.8,0.1c-1.4-0.1,2.6-0.1,1.8-0.2
	s-3.1,0-1-0.1c-1.6,0-3.3,0-4.9,0c1.4-0.1-2.6-0.1-3.1-0.1c1.8-0.1,6.3-0.1,6.9-0.3c-3.7,0-3.5,0-5.7,0c-1.4,0.1-2.9,0.2-3.9,0.3
	c-1.4,0-0.8-0.1-3.9-0.1c1,0.1-2.4,0.1-1.8,0.2c5.1,0.1,5.9-0.2,9.8-0.1c-0.4,0.2-4.9,0.2-8.8,0.2V1.8c-2.6,0-2,0.1-3.9,0
	c-0.2,0,0.2,0.1-1,0.1c-8.1-0.1-23.4,0-26.3,0.4c2.9,0.1,6.5,0,3.1,0.1c4.5,0.1,5.9,0.2,10.6,0.1c0.6-0.1-2.2-0.1,1-0.2
	c3.7,0,7.7,0.1,9.8,0.1C766.9,2.5,770.2,2.3,767.6,2.3z M802.8,2c-1.6,0-3.1,0-3.9,0c0.6,0.1-1,0.2,1,0.2c1.4-0.1,5.1-0.2,5.7-0.3
	c3.7,0,0,0.1,1.8,0.2c2.2,0,7.1,0,7.7,0c-3.3,0-1-0.1,0-0.1c-5.5,0.1-4.1-0.1-7.7,0c-0.2-0.1,0.4-0.1-1-0.1c-1,0.1-6.3-0.1-6.9,0
	c1.6,0,3.3,0.1,3.9,0.2C801.8,1.9,801.6,1.9,802.8,2z M874.9,1.3c-2.9,0-3.5,0.2-5.7,0.1c-1.4,0.1-3.5,0.2-3.1,0.3
	c-2.2,0-3.7,0-4.9,0c2.2,0.1,1.4,0.1,0,0.3c3.7,0,8.8,0.2,12.6,0c-4.5,0-2.2-0.1-3.9-0.2c-1,0-3.9,0.2-5.7,0.1
	C867.2,1.6,871.2,1.6,874.9,1.3z M940.1,1.9c0.2-0.1-1-0.1-1-0.1c3.1,0,7.7,0,7.7-0.1c-7.9,0-13.4-0.2-19.4,0c2.4,0.1,8.8,0,8.8,0.2
	c-1,0-2.9,0-3.1,0C936,2.1,937,1.8,940.1,1.9z M983.1,1.6c-1,0-2.9,0-3.1,0c1.6-0.1,3.1,0.1,3.9-0.1c-14.5-0.1-24,0.3-34.2,0
	c-0.4,0.1-1,0.1-3.1,0.2c0.8,0,1,0,1,0.1c4.1,0.1,10.6-0.1,10.6,0c3.7,0,6.3-0.1,9.8-0.2c1.4,0.1,5.1,0.1,4.9,0.2
	c-2-0.1-5.3-0.1-6.9,0c4.7,0,8.1,0.1,10.6,0c0,0-1.2,0.1-1,0.1c1.2,0,5.7,0.1,5.7,0C979,1.8,982.7,1.8,983.1,1.6z M1025.8,1.6
	c-1,0.1-5.5,0-5.7,0.1C1023.2,1.8,1028.1,1.7,1025.8,1.6z M1049.3,1.5c-1,0.1-5.3,0-3.9,0.2c1.6,0,2.4,0.1,3.1,0
	C1045.6,1.6,1052.3,1.5,1049.3,1.5z M941.1,1.6c2.9-0.1,5.9-0.2,9.8-0.2C945.4,1.3,941.7,1.4,941.1,1.6z M138.3,1.4
	c-3.3,0-1.2,0.1-3.9,0.1c0,0-0.2,0-1,0c-1,0.1,2,0.2,3.1,0.1C133.2,1.5,138.3,1.5,138.3,1.4z M466.7,1.1c2.4,0.1,5.5,0.1,5.7,0.2
	C469.7,1.3,470,1.2,466.7,1.1c-0.4,0.1,1.2,0.1,1.8,0.2c-3.3,0-4.1-0.1-5.7,0c4.3,0,5.7,0.1,7.7,0.2c1.8-0.1,7.3-0.1,4.9,0
	c2.9-0.2,9.6-0.1,13.6-0.2c-1.6,0-0.6-0.1-1.8-0.1c0,0.1-2.2,0.1-3.9,0.2c-1.8-0.1-5.7,0-8.8-0.1c3.3-0.1,0-0.1,3.1-0.2
	C471.8,1.1,469.1,1.1,466.7,1.1z M1081.5,1.1c-9.8,0.1-18.1,0-24.4,0.2c3.3,0,9.2-0.1,11.8,0c-1.8,0-6.3,0-3.9,0.1
	C1066.6,1.3,1076.6,1.2,1081.5,1.1z M458.7,1.1c3.1,0-3.3,0-3.1,0.1c1.4,0,3.3,0,3.1,0.1c-3.1,0-3.3,0-3.9,0.1c3.3,0,6.1,0.1,7.7,0
	C457.3,1.3,465.1,1,458.7,1.1z M114.1,1.4c5.3,0.1,11.8,0,13.6-0.2c-4.5,0-4.5-0.1-1.8-0.1c-3.3,0-6.3,0.1-7.7,0.1c1,0,1,0.1,1,0.1
	c-2.6-0.1-2.4,0-3.9,0.1C114.9,1.4,114.1,1.4,114.1,1.4z M334.1,1.2c0.2,0.1,10.8,0.3,7.7,0.1c-0.2,0-1,0.1-1.8,0.1
	C339,1.2,336.1,1.2,334.1,1.2z M959.6,1.1c-3.3,0-3.7-0.1-6.9,0c-2,0.1-1.2,0.1-1,0.2c3.3,0,7.7-0.1,8.8-0.1
	C959.4,1.2,959.4,1.2,959.6,1.1z M1081.5,1c-2.9,0-8.6,0-8.8,0.1c2.6-0.1,10,0,4.9,0.1C1080.6,1.1,1080.2,1,1081.5,1z M937.2,0.8
	c-2.6,0.1-4.9,0.2-8.8,0.2c1.2,0.1,4.7,0.1,5.7,0C934,0.8,936.8,0.9,937.2,0.8z M638.2,2.5c-4.7,0-6.5,0-6.9,0.2
	c1.8,0,1.8,0.1,4.9,0.1C636.2,2.7,637.4,2.6,638.2,2.5z M841.7,1.9c-2.9-0.1-7.5-0.2-11.8-0.1c0,0.1,1.2,0.2,3.9,0.2
	C833.8,1.9,840.3,2,841.7,1.9z M745.4,1.7c-1.6,0-4.9,0-3.9-0.1c2.9,0,2.6,0.1,4.9,0c1.2-0.1-0.4-0.2,1.8-0.3c-8.8,0-8.1,0-15.7,0
	c-0.2,0.1,1.2,0.1,1.8,0.1c-1,0-2.6,0-4.9,0c-0.8,0.1,0.4,0.2-3.1,0.2c6.1,0,10.8,0,18.5,0C745.4,1.8,745.4,1.8,745.4,1.7z"/>
</svg>
