<?xml version="1.0" encoding="utf-8"?>
<!-- Generator: Adobe Illustrator 19.2.1, SVG Export Plug-In . SVG Version: 6.00 Build 0)  -->
<svg version="1.1" id="Modal_Divider" xmlns="http://www.w3.org/2000/svg" xmlns:xlink="http://www.w3.org/1999/xlink" x="0px"
	 y="0px" viewBox="0 0 600 8" style="enable-background:new 0 0 600 8;" xml:space="preserve">
<style type="text/css">
	.st0{fill:#88E333;}
</style>
<path class="st0" d="M133.3,7.9c0.6-0.1,2.7-0.1,4.8-0.1C136.9,7.9,135.1,7.9,133.3,7.9z M86,7.7c-4.5,0-10.2-0.1-12,0.2
	C77.9,7.8,81.6,7.9,86,7.7z M119.4,7.7c-1.9,0-4.6-0.1-6.7,0c1.6,0,2,0.1,3.4,0.1C117.5,7.7,118.2,7.7,119.4,7.7z M103.2,7.7
	c-1.2,0-3.5,0-3.8,0C100.3,7.7,102.9,7.8,103.2,7.7z M317,7.6c0.5,0,0.8,0.1,2.4,0C317.1,7.4,310.7,7.5,317,7.6z M370.5,7.1
	c-1.2,0-1,0.1-2.4,0C367.7,7,368.6,7,369,6.9c-3,0-0.5,0.2-3.4,0.2C366.8,7.2,369.6,7.2,370.5,7.1z M481.1,6.9c-1.3,0-2.7,0-3.4,0
	c-0.5,0.1,3.2,0,1.5,0.1C480.3,7.1,481.1,7,481.1,6.9z M419.3,7c-1.4,0-2.7,0-3.4,0.1C417.2,7,418.7,7.1,419.3,7z M392.6,6.9
	c-1.3,0-2.8,0-2.8,0.1C390.6,7,393,7,392.6,6.9z M429.4,6.9c0.5,0,1.6,0,2.8,0C432.9,6.8,429.4,6.8,429.4,6.9z M570,6.1
	c-1.7-0.1-4,0-4.8,0.1C567.6,6.2,568.7,6.1,570,6.1z M35.7,5.8C35.9,6,33.6,6,33.7,6.2C36.9,6.2,38.2,5.9,35.7,5.8z M552.3,6.1
	c0.4-0.1-1-0.1-1.5-0.1c-0.2,0-0.6,0.1-0.5,0.1C551.2,6.1,551.9,6.1,552.3,6.1z M534.5,5.9c-1.8,0-0.3,0.2-1.9,0.2c0.6,0,1,0,1.5,0
	C533.9,6,535,6,534.5,5.9z M486.7,5c0.2,0.1-1.4,0-1.5,0.1C486.8,5.2,488.8,5.1,486.7,5z M491.5,5C492.3,5,491.4,5,491.5,5
	c0.9,0.1,1.1,0.1,1.9,0.1C493.1,5.1,492.2,4.9,491.5,5z M543.7,4.7c1.2,0,3.2,0,3.4,0.1c0.1-0.1,2-0.1,0.9-0.2c-2,0-3.6,0-3.8-0.1
	c-2.4,0.1,0.4,0.4-2.4,0.3c-0.6,0.2,2.4,0.2,2.8,0.1C543.4,4.9,543.7,4.8,543.7,4.7z M552.3,4.6c-1.5,0-2.5,0-2.8,0.1
	C550.7,4.7,552.1,4.7,552.3,4.6z M557.1,4.6c-1.3,0-2.6,0-3.8,0C553,4.7,557.3,4.7,557.1,4.6z M565.7,4.5c-1,0.1-3.1,0-4.3,0.1
	C562.2,4.6,567,4.6,565.7,4.5z M460.9,4.2c-0.9,0-0.9,0-1.5,0.1c0.1,0.1,0.1,0.2,1.5,0.2C460,4.3,462,4.3,460.9,4.2z M456.6,4.2
	c0.4,0.1-0.5,0.1-0.5,0.2c0.5,0,1.1,0.1,1.5,0C456.3,4.4,458.7,4.2,456.6,4.2z M49.1,4.1c-1.4,0-3.4,0-3.8,0.1
	C46.1,4.3,49.2,4.3,49.1,4.1z M541.8,4.1C540,4,538.9,4,537.5,4.2C539.3,4.2,541,4.2,541.8,4.1z M455.2,4c-1.2,0-1-0.1-2.4,0
	c-0.4,0.1-1.6,0.2,0,0.2C452.9,4,454.8,4.1,455.2,4z M497.3,3.9c-2.1,0-2.9-0.2-4.8-0.2c-1.5,0.1,1.4,0.2,2.4,0.3
	c0.4,0.1-2.3,0-1.9,0.1C495.2,4.1,496.7,4,497.3,3.9z M429.8,4c0.5-0.1-1.5-0.1-2.4-0.1C427.6,4.1,428.7,4,429.8,4z M433.7,3.7
	c-0.5-0.1-2.4-0.2-0.9-0.3c-2.1,0-1.9-0.1-3.4-0.1c0.1,0.1-2.7,0-1.9,0.2c0.8,0.1,2.2-0.1,3.4,0c-1.6,0-1.8,0.2-2.4,0.3
	c0.8,0,1.5,0,1.9,0c0.1-0.1-0.5-0.1-0.5-0.1c0.7,0,1.7,0,1.9,0c-1.2,0.1-0.5,0-0.5,0.2c-0.9,0-1.1,0-1.9,0
	C429.2,4,434.1,3.8,433.7,3.7z M522.6,3.3c-1.5,0-0.9,0-2.4,0c-0.4,0.1,1,0.1,1.5,0.1C521.8,3.4,522.5,3.4,522.6,3.3z M422.7,3.1
	c-0.9,0.1,0.2,0.1-0.5,0.2C424.3,3.3,423.6,3.2,422.7,3.1z M448.5,3.2c-0.4,0-0.9,0-0.9,0c0.1-0.1,0.9-0.1-0.5-0.1
	c-0.7,0.1,0.4,0.1-0.5,0.2c0.3,0,0.5,0,0.5,0C447.9,3.3,448.3,3.2,448.5,3.2z M421.7,2.8c1,0.2,3.7,0.2,4.8,0.4
	C429.1,2.9,424,2.8,421.7,2.8z M479.1,2.9c-0.9,0-0.9,0-1.5-0.1c0.7,0.1-1.6,0-1.5,0.1c1.4,0,0.5,0.1,0.5,0.1c0.9,0,1.1,0,1.9,0
	C478.6,3,479.4,3,479.1,2.9z M556.1,2.9c0.8,0,3.2,0.1,4.3,0C559.3,3,557.1,2.8,556.1,2.9z M511.6,2.6c-1.4,0-3.3,0-3.4,0.1
	C509.8,2.7,511.2,2.7,511.6,2.6z M507.3,2.5c1.1,0,3.5,0,3.8,0C509.3,2.5,508.3,2.4,507.3,2.5z M506.9,2.3c2.1-0.1,4.6,0,5.8-0.1
	c-1.6,0-0.6-0.1-2.4-0.1c-0.1,0.2-2.6,0-3.8,0c-0.3,0.1-0.7,0.2-0.9,0.3c0.6,0,1,0,1.5,0C507.6,2.3,506.8,2.4,506.9,2.3z M558.5,2.2
	c-0.9-0.1-0.8,0-2.4,0c-0.2,0.1,0.2,0.2,1.5,0.1C557.2,2.3,558.5,2.3,558.5,2.2z M86,2c0.1-0.2,5.5-0.1,4.3-0.2
	C85.7,1.9,79,2,74,2.2C78.3,2.3,81.3,2,86,2z M353.3,2.1c0,0-1.3,0-1.5,0c0.1-0.1,2.2-0.1,2.8,0c0.2-0.1-0.9-0.1-0.5-0.2
	c-1.6,0-2.7,0-3.8,0c0.8,0.1,0.9,0.1-0.5,0.2c0.7,0,1.8,0,1.5,0.1C352.8,2.2,354.5,2.2,353.3,2.1z M64.9,2.1c-1.5,0-3.8,0-4.3,0.1
	C62.1,2.1,64.1,2.1,64.9,2.1z M526.9,2.1c-1.3,0-3.8,0-4.3,0C524.7,2.1,525.7,2.2,526.9,2.1z M387.7,1.9c-1.1,0-1.6,0-2.8,0
	c-0.1,0.1,0.3,0.2,0.9,0.2C385.6,2,387.2,2,387.7,1.9z M76.3,2.1c-0.3-0.2-3.8-0.2-5.2-0.1c0.7,0,2.5,0,2.4,0c-1,0-1.6,0-1.5,0.1
	C73.6,2.2,74.4,2,76.3,2.1z M480,1.9c-0.9,0-0.8-0.1-2.4-0.1C477.5,2,479.9,2.1,480,1.9z M448.5,1.8c-1.6,0-2.7,0.2-0.9,0.2
	C447.7,1.9,448.9,2,448.5,1.8z M474.3,1.8c-0.8-0.1-1.5-0.1-3.4-0.1c-1.4,0.2-5.9-0.1-7.1,0.1c1.9,0,2.9-0.1,3.8,0
	c-1.1,0-1.8,0-1.9,0.1C466.8,2,470,2,472.4,2C471.5,1.8,474.5,1.9,474.3,1.8z M468.1,1.9c0.3,0,0.5-0.1,0.5-0.1
	c1.5,0,1.8,0.1,2.8,0.1C470.1,1.9,469.2,1.9,468.1,1.9z M560.4,1.8c-2.9,0-2.3,0-3.4-0.1c-0.9,0-2,0-1.9,0.1c2.1,0,2.5,0.1,4.3,0.1
	C559.1,1.8,560.4,1.9,560.4,1.8z M497.7,1.8c-0.5,0.1-1.9,0-1.9,0.1c0.7,0,2.5,0,2.4,0C495.6,1.9,499.7,1.8,497.7,1.8z M447.1,1.8
	c-0.9,0-1.1,0-1.9,0c0.7,0.1-1.6,0-1.5,0.1c0.5,0,0.9,0,1.5,0c0.1,0,0,0.1,0.5,0.1C445.8,1.8,447.4,1.9,447.1,1.8z M97.9,1.7
	c0.3,0.1-1.3,0.1-1.5,0.2c0.3,0,0.5,0,0.5,0c0.3,0,0.6,0,0.9,0C98,1.8,99.5,1.8,97.9,1.7z M436.1,1.7c-2.3,0-0.5,0.1-1.9,0.2
	c0.6,0,1.3,0,1.9,0C436.1,1.8,436.1,1.7,436.1,1.7z M406.8,1.7c-2.5,0-5.7,0-6.7,0.1C403.3,1.8,405.8,1.9,406.8,1.7z M482,1.8
	c-1.7-0.1-3.5-0.2-6.2-0.1C475.9,1.9,480,1.8,482,1.8z M366.2,1.7c-1.6,0-2,0.1-1.5,0.2c0.7,0,1.7,0,1.9,0
	C365.3,1.8,366.2,1.7,366.2,1.7z M356.6,1.7c-0.7,0-1.6-0.1-1.5-0.1c2.1-0.1,4.2,0,5.8,0c0.9,0,1.6-0.1,2.4-0.1
	c-0.1-0.1-0.7-0.1-1.9-0.1c-0.9,0-0.7,0.2-2.4,0.1c-0.8,0-1.5-0.1-1.9-0.1c1.2,0,1.9-0.1,2.4-0.2c-2.6,0-2.7,0.3-4.3,0.2
	c-0.1-0.1,1.8-0.1,1.9-0.2c-4.3-0.2-1.1,0.3-3.8,0.2c-0.3,0.1,1.7,0.1,1.5,0.2c-1.3,0-3.2,0-3.4,0.2c2.4,0.1,1.3-0.1,2.8-0.1
	c0,0.1,0.8,0.1,0,0.1C355.5,1.8,356.6,1.8,356.6,1.7z M460,1.6c-2.8,0-1.5,0.1-3.8,0.2c0.9,0,1.9,0,2.8,0
	C459.2,1.7,460.1,1.7,460,1.6z M410.7,1.7V1.6c-1.6-0.1-1.6,0.1-2.8,0c-0.1,0.1,0.5,0.1,0.5,0.1c-0.5,0-1.1,0-0.9,0.1
	C408.9,1.8,409.6,1.7,410.7,1.7z M255.7,1.5c-0.8,0-1.5,0-1.9,0c0.9,0.1-0.6,0.2,0.9,0.2C254.3,1.6,255.5,1.6,255.7,1.5z M74.9,1.5
	c-1.5,0.1-2.5,0.1-3.8,0c-0.3,0.2,2.7,0.1,3.8,0.1C74.6,1.5,75.8,1.5,74.9,1.5z M94.6,1.5c-0.9,0-1.9,0-2.8,0
	C91.4,1.7,94.5,1.6,94.6,1.5z M424.1,1.4c1,0,1.6,0.1,3.4,0.1C427.6,1.4,424.6,1.3,424.1,1.4z M537,1.4c-1,0-3.1,0-3.4,0
	c0.6,0,0.8,0.1,1.5,0.1C534.8,1.4,536.8,1.4,537,1.4z M508.7,1.5c1.1,0,2.2,0,3.4,0C512.1,1.3,508.6,1.4,508.7,1.5z M545.1,1.3
	c-1.4,0-2,0-3.4,0C541.3,1.4,545.4,1.4,545.1,1.3z M300.2,1.3c-1,0-3.1-0.1-3.4,0C297.7,1.4,299.4,1.3,300.2,1.3z M333.7,1.2
	c-0.9,0-1.1,0-1.9,0v0.1C332.9,1.3,333.3,1.3,333.7,1.2z M291.6,1.1c-1.6,0-4.8,0-7.7,0c0-0.1,2-0.1,0-0.1c-0.4,0.1-1,0.1-1.9,0.1
	C284.3,1.2,289,1.3,291.6,1.1z M292.1,1.2c0.9,0.1,2.3-0.1,3.4,0C296,1.1,292.1,1.1,292.1,1.2z M386.8,1.1c0,0.1-1.4,0-1.5,0.1
	c1.2,0,1.5,0.1,2.4,0.1C387.9,1.1,387.6,1.1,386.8,1.1z M192.6,1c-2.5,0-5.6-0.1-6.2,0C189.3,1.1,190.5,1.2,192.6,1z M196.4,1
	c1.2,0.1,2.4,0,3.4,0.1C199.4,1,196.5,0.9,196.4,1z M87.8,1c-1.8,0-1.6,0.1-2.4,0.1C86.6,1.1,87.9,1.1,87.8,1z M440.8,1
	c-0.8,0-2.9-0.1-3.4,0C438.1,1.1,439.7,1.1,440.8,1z M288.2,1c1.5,0,2.3,0,3.4,0.1C292.2,0.9,288.8,0.9,288.2,1z M514,1
	c2,0,2.8-0.1,3.4-0.2c-4.7,0.1-7.1,0-12.5,0c1.2,0.2,0,0.2-0.5,0.3c4.5,0,7.8-0.2,11-0.1C514.8,0.9,514.3,0.9,514,1z M504,0.8
	c-2.7,0-5.8-0.1-8.2,0c3,0.1,2.9,0.1,5.8,0.2C502.9,0.9,502.7,0.9,504,0.8z M284.9,1c0.6,0,0.9,0.1,1.9,0
	C285.4,0.8,280.2,0.9,284.9,1z M281.5,0.9c-2.4,0-6,0-7.7,0C276.7,1,280.9,0.9,281.5,0.9z M568.1,0.5c-0.8-0.1-2.8-0.1-3.8,0
	c0.5,0,1.4,0,1.5,0c-2.6-0.1-6,0.1-3.8,0.2C562.1,0.5,566.4,0.7,568.1,0.5z M559.9,0.5c-2.3,0-2.7,0.1-3.4,0.2
	C558.3,0.7,558.3,0.5,559.9,0.5z M141.4,0c-0.5,0.1-3.5,0-2.8,0.1C139.1,0.2,143.3,0.1,141.4,0z M132.3,7.9C131.9,8,128.5,8,129.9,8
	C130.3,7.9,134,8,132.3,7.9z M155.8,7.9c-1.1-0.1-2.4,0.1-3.4,0.1C153.5,7.9,155.5,8,155.8,7.9z M62.5,7.7c3.6-0.1,5.9,0.1,9.5-0.1
	c-0.9,0-0.9,0-1.5-0.1c-0.2,0.1-2.6,0.1-2.8,0c0.1-0.1,1.7,0,1.9-0.1c-1.1,0-3.8,0.1-3.4-0.1c0.1-0.1,3.9,0.1,3.4-0.1
	c-2.7,0-5.6,0.1-8.6,0C59.4,7.6,61.5,7.5,62.5,7.7z M260,7.1L260,7.1c1,0,1.6-0.1,2.4-0.1c0.5,0.1,1.9,0.1,2.4,0.2
	c1.4-0.1,3.5,0,3.8-0.2c1.1,0.1,2.7-0.1,3.8,0c-0.1-0.1-0.1-0.2,0.9-0.2c1.1,0.1-0.7,0.3,0.9,0.4c2.2-0.1,5.3,0,5.8-0.2
	c-1.1,0-2.2,0-2.4-0.1c4.1-0.1,4.5,0.3,8.6,0.3c0,0-0.8,0-0.9,0.1c6.1,0.2,17.2-0.1,22.4,0.1c-0.1,0-0.8,0.1,0,0.1
	c0.4-0.1,1.6-0.1,2.4-0.1c7.4,0.2,18.3,0.1,26.7,0c0.3-0.1,0.7-0.1,0.9-0.1c-1.5,0-2.1,0-3.4-0.1c0.5,0.1-0.2,0.1,0.9,0.2
	c-1.7,0-3.3,0.1-4.3,0c0.1-0.1,2.7,0,2.4-0.1c-1.3-0.1-2.2,0-2.8-0.2c1.5,0,3-0.1,4.3-0.1c0.2,0.1-0.7,0.1,0,0.1c2.2-0.2,7.9,0,11,0
	c-0.5,0.1-0.6,0.2-0.9,0.3c-2.7-0.1-6,0.2-2.8,0.1c-0.4,0-0.9,0-0.9,0c1.8,0,3,0,1.5,0.1c5.6-0.1,12.3,0.1,17.7-0.1
	c2.2,0,3.3,0.2,4.3,0c-1.3-0.1-3.1,0-3.8-0.1c-0.2-0.1,1.4,0,1.5-0.1c-2.4,0-3.5-0.1-5.8,0c0.5-0.1-1.6-0.1-1.5-0.1
	c7.9-0.1,17.2,0.2,24.8-0.3c1.6,0.1,4.3,0,5.2,0.1c-0.6,0-3.5,0-1.9,0c2.7,0,3.3-0.1,4.3,0c-0.5,0-0.7,0-0.9-0.1c0.8,0,1.6,0,2.4,0
	c-0.1,0-0.7,0.1,0.5,0.1c2.6-0.2,11.3-0.1,14.4-0.1c-0.8,0-1.2,0-1.5,0.1c3.7,0,5.9,0,8.2-0.2c0,0,0.1,0,0.5,0
	c-1.6,0.1-1.1,0.2-2.4,0.2c0.9,0.1,1.4,0.2-0.5,0.2c1.6,0,3.5,0.1,4.3,0c-0.6,0-1.5-0.1-1.9-0.1c1.8,0,3,0,3.4,0c-0.3,0-0.5,0-0.5,0
	c0.3,0,0.5,0,0.5,0c-1.8,0-2.8,0-2.8-0.1c1.9,0.1,4.1,0,5.8,0.2c2.5-0.2,7.1,0.1,6.7-0.1c1.7,0,0.9,0.1,2.8,0.1
	c0.4-0.1,1.5-0.2-0.5-0.2c5.2,0,8.8-0.2,12.9,0c-0.2,0.1-2.3,0.2-0.9,0.2c1.1-0.1,2.8,0.2,5.2,0.1c-0.3,0.1-2.3,0-2.4,0.1
	c1.7,0,2.8,0.1,3.4,0c-2.5,0,1,0,0.5-0.1c-0.9,0-1.6,0.1-1.9,0c1.7-0.1,2.1-0.2,4.3-0.2c-2.1,0-3.4,0.1-4.3,0c1.6,0,3.6-0.1,4.8,0
	c0.2,0.1-0.9,0.1-0.5,0.2c1.2,0,1.4-0.2,1.9-0.2c2.2,0,3.1-0.1,4.8-0.1c1.2,0.1,3.6,0.2,4.3,0.3c-2.1,0-3.4,0.1-4.3,0
	c0,0,0.8,0,0.9-0.1c-0.6-0.1-3.3-0.1-3.4,0c0.3,0.1,1.8,0,1.9,0.1c-0.6,0.1-2.1,0-3.4,0c0.7,0.2-2,0.1-1.9,0.2c2.2,0,2.7-0.1,3.8,0
	c-1-0.1,3.2,0,1.5-0.1c-0.7,0-2.5,0-2.4,0c5.9-0.1,10-0.1,15.8,0c-0.5,0-1.4,0-1.5,0c1.4,0,1.2,0.1,2.4,0c-0.2-0.1,2.7-0.1,2.8-0.2
	c-2.7-0.1-4.5,0-7.1,0c3.3-0.1,7.5-0.1,9.5,0c1.2,0,0.3-0.1,0.9-0.1c2,0.1,5.2-0.1,5.8,0.2c2.1,0,6.3-0.1,6.7,0.1
	c1.2,0,8.4,0,6.7,0.1c3.5,0,4.6-0.2,7.1,0c0.5-0.2,3.4-0.2,6.2-0.1c-0.5-0.1,1.5-0.1,0-0.1c-0.3,0-6.9,0.2-5.8-0.1
	c-1.5,0-2.5,0.1-2.8,0c1.7,0,1.6-0.1,2.4-0.1c0,0.1,0.4,0.1,0.9,0.1c1-0.1-0.6-0.2,0.9-0.2c1.4,0.1,2-0.1,2.8-0.1
	c1.8,0.1,4.3,0.1,5.8,0.2c1.2,0-0.8-0.1,0.5-0.1c0.5,0,0.9,0,1.5,0c-0.2,0.1-1.3,0.1-1.5,0.1c0.8,0,2.8,0,2.8,0
	c-2.7,0,0.7-0.3,1.9-0.1c-0.5-0.1,1.5-0.1,0-0.1c-0.1,0.1-1.7-0.1-2.4-0.1c0.3-0.1,2.2,0,2.4-0.1c-0.4-0.1-1.6-0.1-1.5-0.1
	c-1.2,0-3.3,0-3.4,0.1c1.2,0,1-0.1,2.4,0c0,0.1,0.2,0.1,0.5,0.1c-1.4,0-2.4,0-2.8,0.1c0.6,0.1,1.7,0,1.9,0c-0.3,0.1,0.5,0.2-0.5,0.2
	c-0.9-0.1-1.2,0-2.4,0c0.2-0.1-2-0.1-1.9-0.2c-1.5,0-1.2,0.1-2.8,0.1c0.2-0.1,1.3-0.1,1.5-0.1c-2.5,0-2.7,0-3.8,0.1
	c-1.1-0.1-2.4,0-3.4-0.1c4.3-0.1,7.1-0.1,11,0c0.9-0.3-5.3-0.1-5.8-0.1c0.2-0.1,2-0.1,2.4-0.2c-4,0-3.9,0-8.2,0
	c0.2-0.1-1.3-0.2,0.5-0.2c3.5,0.3,7.1,0,12.5,0c0.5-0.2-2.8,0-2.4-0.2c0.5,0,0.5,0,0.9,0c4,0,10.2,0,10.1,0.4c0.3-0.1,2.3,0,3.4,0
	c0.2-0.1-2.7-0.1-3.4-0.1c1.6-0.2,0.4-0.2-0.9-0.3c3.3-0.1,2.5,0.2,3.8,0.2c0.1-0.1-0.5-0.1-0.5-0.1c2.3,0.1,4.6-0.1,5.2,0
	c-0.7,0.1-3,0.1-3.4,0.2c0.5,0.1,2.1,0.1,1.9,0.2c3.4-0.2,7,0.1,9.5-0.1c1,0,3.1,0,3.4,0.1c-2.4,0,0.4,0.1,0,0.1
	c0,0.1-1.3,0-1.5,0.1c0.5,0,1.1,0,1.5,0.1c-0.3,0.1,0.5,0.2-0.5,0.2c-1.7-0.1-3.7,0-4.8,0c4.5,0,8.3,0.2,12.9,0
	c-1.7,0-2.6-0.1-3.4-0.1c-1.5,0-1.1,0.1-2.8,0.1c0.4-0.2-0.7,0-0.9-0.1c-0.6-0.2,0.8-0.1,0-0.3c2.7,0.1,2.8-0.1,3.4-0.2
	c2.2,0,1.6,0.2,4.3,0.2c0.6-0.2,3.4-0.2,5.2-0.3c0.7-0.1-1.6,0-1.5-0.1c2.9-0.1,4.4,0.3,7.1,0c0.1,0.1-2,0.2,0,0.3
	c0.1-0.2,3.1-0.1,4.8-0.2c-0.7,0-1.8,0-1.5-0.1c3.6,0,6.2-0.1,8.2-0.1c-1.9-0.1-7.4,0.2-10.5,0c1.7,0,3.8-0.1,3.8-0.1
	c-3,0-4.4,0-6.2,0c-0.2,0.1-2,0.1-2.8,0c-0.5,0-0.2,0.1-1.5,0.1c-3.4-0.2-12,0.1-12.5-0.2c-0.1,0.1-1.6,0.2-1.9,0.1
	c-0.2-0.1,1.8,0,1.5-0.1c-1-0.1-2.6,0-4.3,0c0.5-0.2,3.1-0.1,6.2-0.1c-0.8-0.2-2-0.1-4.3-0.1c0.4-0.1-1.3-0.2-1.9-0.1
	c1,0-0.1,0.1-0.5,0.1c-2,0-1.9-0.1-2.8-0.1c0.2,0.1,0.4,0.1,0.9,0.3c-1.2,0-3.8,0.1-3.8,0c0.9,0,1.9,0,2.8,0c-0.1-0.3-2.7-0.1-4.3,0
	c-1.7-0.2-4.8,0-6.7-0.1c0,0-0.4,0-0.5-0.1c3.6-0.1,4.9,0,7.7,0c0.4-0.1,2-0.2,4.3-0.1c0.5-0.1-1.6,0-0.9-0.1c1.7,0,2.5,0,2.8,0
	c-1,0-1.6-0.1-1.9-0.1c-1.4,0-1.7,0.2-2.4,0.1c1.7-0.1,1.3-0.3,2.8-0.4c-0.2,0.2,3,0,3.8,0c-0.3,0,2.3-0.3,3.8-0.2
	c-1.5,0-1.6,0.1-1.5,0.2c1.1,0,0.4-0.2,2.4,0c0.6-0.2,2.7-0.2,3.4-0.4c-0.7,0-1.7,0-1.9,0c2.3,0-0.5,0,0-0.1c1.8,0,6.9-0.1,9.5,0
	c0.1-1.8-2.6-1.8-4.2-1.8c0.7,0,1.7,0,1.9,0c-1.2,0-0.9,0-1.5-0.2c1.3,0,1.7-0.1,3.8-0.1c0.3,0.1-2.7,0.1-0.9,0.1
	c0.7-0.1,1.1,0,2.8-0.1c-1-0.1,0.5-0.1,1.5-0.2c-1.8-0.1-6.2,0.1-7.7,0c1.2-0.1,0.4-0.1,1.9-0.2c1.6,0.1,3.3,0,5.2,0
	c-3.5-0.1,3.4-0.2,3.8-0.3c-1.6,0-2,0.1-3.8,0c0.2,0.2-4,0.2-5.2,0.2c2.2,0,0.9-0.1,0-0.1c1,0,3.1,0,3.4-0.1c-2.1,0-3.9,0.1-5.2,0
	c0.3,0,0.5-0.1,0.9-0.1c0,0,0,0,0,0.1c1.6,0,2-0.1,2.8,0c-0.7-0.2-5.9-0.1-7.7-0.2c0.5,0.1-1.6,0-0.9,0.1c1.5,0,2.9-0.1,3.4,0
	c-1.9,0-0.3,0.1-0.5,0.1c-2.5,0.1-3-0.1-4.3,0c0.6,0,0.9,0.2,0,0.3c0.8,0,2.8,0,2.8,0c-1.1,0-1.8,0-1.9,0.1c1.8,0,3.8,0,3.8-0.1
	c2.2,0.1-2.7,0.2,0,0.3c-2.3,0.1-2.4-0.1-2.8,0c-2.1,0-1.9-0.1-2.4-0.2c-0.6,0-0.1,0.1-0.9,0.1c-0.2-0.1-0.6,0-1.5,0
	c0.9-0.1-0.4-0.1-0.9-0.2c0.8,0,1.2,0,1.5-0.1c-1.6-0.1-3.8,0-5.8-0.1c0,0,0,0,0-0.1c3.5,0,5.3-0.2,8.2-0.4c-4,0,1-0.2-2.8-0.2
	c1.6,0.2-2.3,0.2-1.9,0.3c-0.2-0.1-3.8,0-2.8,0c0.9,0,1.6-0.1,1.9,0c-0.6,0.1-2.1,0-3.4,0c-0.7,0.1,1.6,0,1.5,0.1
	c-0.8,0.1-2.2,0.1-4.3,0.1c-0.2,0.1-0.1,0.2,0.9,0.3c-2.5,0.1-4.3,0-7.7,0c0.3,0.1-1.8,0.2-2.8,0.3c-0.9-0.1-2.2-0.1-2.8-0.1
	c-0.3-0.1,4.3-0.1,3.4-0.1c-2.9,0-5.1,0.1-7.1,0c1.4-0.1,2.7,0.1,3.4-0.1c-2.6-0.1-4.5,0.1-4.3,0.2c0.7-0.1,2,0.1,2.4,0
	c0.1,0.1-0.2,0.2-1.5,0.1c-2.7-0.3-3.8,0.2-6.7,0.1c-0.2-0.1-1.2-0.2-2.4-0.3c-0.7,0.1-2-0.2-2.4,0c0.8,0.1,1.8,0.1,1.5,0.3
	c1,0,4.4,0.1,1.9,0.2c2.9-0.1,5.2,0.1,6.2-0.1c-1.2,0-2.3,0-2.4-0.1c2.3-0.1,6.5,0.1,3.4,0.2c2,0,3.1,0,4.8,0c0.3-0.1-1.4-0.2,0-0.2
	c1.6,0,0.7,0.1,0.5,0.1c1.5,0,1.7-0.1,0.9-0.1c2.5-0.1,7.4-0.1,10.1,0.1c-0.8,0-4,0-4.3-0.1c0.9,0,2,0.1,1.9,0c-1.3,0-2.6,0-3.8,0
	c-0.2,0.1-1.2,0.1-1.5,0.2c0.8,0,2.8,0,2.8,0c-1.5,0.2-1.7,0.5-6.2,0.6c0.5,0.4,4.9-0.1,7.7,0.1c0.7-0.1,4.4-0.2,6.2-0.2
	c-2.5,0.1-1.6,0.1-0.5,0.2c-0.5,0-1.3,0-2.4,0c-0.5,0.2,0.1,0.3-1.5,0.4c0.4-0.1-2.3,0-1.9-0.1c0.5-0.1,1.6-0.2,0.5-0.3
	c-4.2,0.2-12,0.2-14.4,0.2c0-0.1,0.4-0.1,0.9-0.1c3.3,0,3.8,0,5.8-0.1c-2.9,0-2.1-0.1-3.4-0.2c1.4,0,2.9,0,4.3-0.1
	c-0.3-0.1,0.5-0.2-0.5-0.2c-0.1,0.1-1.6,0.1-2.8,0.1c0-0.2-2.7-0.2-2.4-0.3c-1.7,0.1-3.5,0-5.2,0.1c1.2,0-1.6,0.1,0,0.1
	c-0.8,0-1.6,0-2.4,0c1.1,0.1-0.7,0.1-1.5,0.2c0.5,0.1,1.8-0.1,2.4,0c-1.3,0.2-0.1,0.3,0,0.4c1.1,0,2,0,2.8-0.1
	c-0.3-0.1-0.6-0.1,0.5-0.2c2.6,0,2.6,0,4.3,0c0,0,0.6,0.1,0.5,0.1c-2.8,0-5,0.1-6.2,0.3c-3.1,0-3.7,0-6.7,0.1
	c-0.3-0.1-0.6-0.2-1.9-0.2c0.5,0.1,0.3,0.2,0.9,0.3c-0.5,0-1.6,0-2.8,0c-0.5,0.2,2.1,0,1.9,0.1c-1,0-1.3,0.1-1.9,0.1
	c-0.7,0-1.2-0.1-1.9-0.1c-1,0.1-1.6,0.2-2.4,0.3c4.4-0.2,7-0.1,5.2,0.2c-1.5,0-0.2-0.2-1.9-0.1c-0.6,0.1,0.3,0.1-0.5,0.2
	c1.6,0,3.5,0,3.8-0.1c0.7,0.1,1.3,0.1,3.4,0.1c0-0.1,0-0.2,0-0.3c-1.7-0.1-0.3,0.1-1.5,0.1c-1.3,0-2,0-1.9-0.1
	c1.9,0,3.8-0.1,6.7-0.1c-0.3-0.2,2.4-0.1,4.3-0.1c0.6-0.1-1.9-0.1-0.5-0.1c1.7-0.1,3.4,0,4.3-0.1c0.9,0.2,2.1,0.3,0,0.4
	c2.5,0,4.8,0.2,7.7,0.1c-0.7,0.3-6.5,0.1-8.2,0.2c0.7,0,1.7,0,1.9,0c-8,0.2-14.9-0.1-21.1,0.2c-0.1-0.1-3.7-0.1-3.8-0.1
	c1,0.1-2.2,0.1-1.5,0.3c0.1-0.1-1.5-0.1-1.5-0.2c-1.5,0-2.5,0-3.4,0c-0.1,0.1,0.5,0.1,0.5,0.1c-5.5,0-7.1,0-10.5-0.1
	c1.4,0.1-3.3,0-2.8-0.1c3,0,4.9-0.1,9.5,0c-0.4-0.1,0.7-0.1,0.9-0.2c-1.6,0-2.1-0.1-2.8-0.1c0-0.2,3.7-0.1,4.8-0.1
	c-0.8-0.1-3.4-0.1-4.3-0.1c0.9-0.1,1.9,0,2.4,0c0.8-0.1-0.1-0.1-0.5-0.2c1.8,0,2.3,0,2.4,0.1c-0.6,0-1-0.1-0.9,0c0.3,0,0.5,0,0.5,0
	c0,0,0.1,0,0.5,0c0.2,0,0.6-0.1,1.5-0.1c-0.9,0.1-0.2,0.1,0,0.2c-1.1,0-1.8,0-1.9,0.1c1.6,0,3.8-0.1,5.8-0.1c-0.7,0-0.7-0.2,0-0.2
	c0.1,0,0,0.1,0.5,0.1C493,4,490.4,4,488.7,4c1.2-0.1-0.9,0-1.5-0.1c1.2,0,0.6-0.1,1.9-0.1c1.1,0.1,2.5,0.1,2.8,0
	c1.6,0,1.6,0.1,0.5,0.2c1.2,0,2.3,0,2.4-0.1c-0.5,0-1.1,0-0.9-0.1c2,0,1.8-0.1,2.4-0.1c-1.5,0-1.5-0.1-3.4-0.1
	c-0.8,0-0.8,0.1-1.5,0.1c-0.4-0.1-3,0-3.4-0.1c1.9,0.1,0.2-0.2,1.5-0.1c1.2,0,2.2,0.1,2.8,0C490.8,4,490.2,4,488.7,4
	c-0.5,0.1-0.3,0.3-2.4,0.3c-0.1-0.1,0.7-0.1,0.9-0.2c-0.8,0-2.4,0-1.9-0.1c-1.5,0-1.4,0.1-2.8,0c-0.8-0.2,2.9-0.1,0.5-0.3
	c1.9-0.1,3.1,0.1,5.2,0c0-0.1,0-0.1,0-0.2c-1.4,0-4,0.1-3.4-0.1c-1.6,0-1.4,0.2-2.8,0.2c0.5-0.1-1.5-0.1-2.4-0.1
	c-0.2-0.1-1.2-0.3,0-0.3c1.9,0.4,6.7,0,10.1,0.1c-1.1,0.3,5.6,0.2,7.1,0.3c-0.6,0-1,0-0.9,0.1c0.7,0.1,2.5-0.1,2.8,0
	c-0.5,0-1.1,0-0.9,0.1c0.9,0.1,2.5,0,2.8-0.1c-1.3-0.1-1.3-0.1-0.5-0.3c-1.2,0-2.7-0.1-1.5-0.2c-1.6-0.1-2,0.2-2.8,0
	c1.5,0,1.5-0.1,2.4-0.2c1.6,0,3.5,0,3.8,0.1c0.1-0.1,2.5-0.1,2.8-0.1c-2.3-0.2-3.7,0-5.8-0.1c1.3,0,2.8,0,2.8-0.1
	c-1,0-0.4-0.2-1.5-0.2c-1.2,0,0.5,0.1-0.5,0.1c0.2-0.1-1.7,0.1-1.9,0c0.5-0.1,2,0,1.9-0.1c-0.8-0.1-2.2,0-3.4-0.1c0.7,0,1.7,0,1.9,0
	c-1.6-0.1-1.3-0.1-1.9-0.3c1.6,0,2.2,0,3.4,0c-0.2-0.1,0.6-0.1,0.9-0.1c-2.7,0-0.1-0.1-1.5-0.1c0.5,0.1-3.1,0.1-2.8,0.1
	c0,0,0.6-0.1,0.5-0.1c-1,0-3.1,0-3.4,0c0.5,0,1.1,0,0.9,0.1c-2.3,0-2.4,0-5.2,0c-2.1,0.3-7.4,0-10.1,0.3c0.5,0,0.5,0.1,0.5,0.1
	c0.6,0.1,2.8,0,2.8,0.1c-2.3,0-3.8-0.1-6.2-0.1c0,0-0.4,0-0.5-0.1c0.4-0.1,2.4,0,1.9-0.1c-1.9,0-4.1,0-4.8,0.2c0.6,0.1,1.7,0,1.9,0
	c-0.1,0-0.5,0.1-0.9,0.1c-2.7,0-5-0.1-8.2-0.1c0.3-0.2-1.6-0.2-2.8-0.3c-3.1,0.2-10.4,0.1-13.8,0.3c-0.6-0.1,1.2-0.1,0-0.1
	c0.4,0.1-2.3,0-1.9,0.1c0.6,0.1,2,0.1,2.4,0.2c-1.8,0-2.8-0.1-3.4-0.1c-1.6,0.1-2.8-0.1-3.8,0.1c3.1,0,5.3,0.1,6.2,0.3
	c-0.6,0-3.4-0.1-3.4,0c0.5,0,1.7,0,1.5,0.1c-0.8,0-1.6,0-2.4,0c-2.6-0.2-3.5-0.3-3.8-0.5c-4.3,0-6.8,0.4-10.5,0.2
	c1.5-0.1,0.3-0.2-0.5-0.3c-2,0.1-2.7-0.1-3.8,0c0.9,0.1-0.6,0.1-1.5,0.2c-2.2,0-4.6,0.1-7.1,0c1.2,0.2-1.8,0.1-3.4,0.1
	c0.6,0.2,1.9,0.1,1.5,0.2c5.8,0,13.8-0.1,22.4,0c0.4,0.1,1.6,0.1,1.5,0.3c-0.8,0-1.5,0-1.9,0c2.5-0.4-3.8-0.2-6.7-0.2
	c0.9,0.1,0.9,0.2,2.4,0.2c-0.1-0.2,1.5,0,2.8,0c-0.4,0.1,0.6,0.1,0.5,0.2c-1.2,0-1.5,0.1-1.9,0.1c2.7,0.1,0.5,0.2,1.5,0.3
	c0.5,0,1.9-0.2,2.8-0.1c-0.2,0.1-1.3,0.1-2.4,0.1c-0.6,0.2,1.1,0.2,1.9,0.2C436.9,3.9,437.6,4,437,4c-1.6-0.1-3.3,0-3.8,0.1
	c0.8,0,1.1,0,0.9,0.1c-2.2,0-3,0.1-1.5,0.1c-1.5,0-2.7,0.1-3.4,0c0.1-0.1,1.8-0.1,1.9-0.1c-1.6,0-4.1,0-4.3-0.1c0.8,0,3.6,0,4.3-0.1
	c-2.5,0-4,0-6.7-0.1c-0.5,0.1,0.5,0.2,1.5,0.2c-3.1,0.1-3.6-0.1-6.2,0c-0.4-0.1,0.7-0.1,0.5-0.3c-1.9,0-3.6,0-4.3,0.1
	c0.1-0.1-0.4-0.1-1.5-0.1c0.3,0.2-4,0.1-1.5,0.3c-1.7,0.1-1.7,0.1-3.4,0.2c-0.1-0.3,3-0.2,2.4-0.4c-1.4,0-1.3-0.1-2.4,0
	C409.3,4,408.6,4,408,4c0.7,0,1.6,0.1,1.5,0.1c-0.9,0-1.9,0-2.8,0c0.4-0.2-2-0.3-1.9-0.2c-0.7-0.1-1.2,0-1.5,0
	c0.6-0.1-1-0.4-0.9-0.5c-1.2,0.1-1.6,0.2-2.8,0.2c1.3,0,1.7,0.5-0.5,0.3c-0.5,0.1,1.6,0,0.9,0.1c1.4,0,1.2-0.2,1.9-0.1
	c-0.3,0.1-0.9,0.2-1.5,0.2c-2.1,0-1.6-0.2-2.8-0.2c0.8,0.1-0.2,0.1-1.5,0.2c1-0.1,1.1-0.1,0.5-0.3c1.2,0,1.5,0.1,1.9,0
	c-1.1-0.1-2.2-0.2-4.8-0.1c-0.5-0.1,0.3-0.2-0.9-0.2c0.4-0.1,2.7-0.1,2.8,0c0,0,0,0,0,0.1c-0.5-0.1-2.5,0-1,0c0.4-0.1,1.3,0.1,2.4,0
	c-0.1-0.1,0.2-0.2,1.5-0.1c0.6-0.2-1.4-0.3,0-0.4c-0.4,0.1,0.8,0.1,1.9,0.1c-0.5-0.1,1.5-0.2,0-0.2c-0.9,0-3.2-0.2-5.2-0.3
	c0.1,0.2-0.7,0-1.5,0c-0.1,0.1-0.3,0.1-0.9,0.1c-0.8,0-1.5-0.1-1.9-0.1c1.5,0,4-0.1,5.2,0c-0.2-0.2,2.7-0.1,3.4,0
	c-0.5-0.1,6.2-0.1,4.3,0c2.2-0.1,3.5-0.1,4.8,0c1.3,0,0.5-0.1,1.5-0.1c0.6,0,1.8,0,0.9,0c-3.7-0.1-9.9,0-12.5,0
	c-1.5-0.1-2.8-0.2-1.9-0.3c-1.3,0-4.2,0.1-4.8-0.1c0.5,0,1.3,0,2.4,0c-0.5-0.3-4.3,0.1-4.8-0.2c1.5,0,1.4,0.1,2.8,0
	c0-0.1,2-0.3,0-0.3c-0.6,0.1,0.5,0.2-2.4,0.1c-0.6-0.1,1.3-0.1,0-0.1c-0.2,0.1-0.6,0-1.5,0c-0.4,0.1,1.6,0,0.9,0.2
	c-3.7,0.1-8,0.2-11.5,0.2c0.8,0.1,1.7,0.1,2.4,0.2c-2,0.1-4.7-0.1-5.8,0.1c0.2,0.1,2.1,0,1.9,0.1c-2.1,0-2.2-0.1-2.8-0.2
	c-0.3,0-3,0-2.8-0.1c0.8,0,2.4,0,1.9-0.1c-2,0-1.9,0-2.8-0.1c-1.7,0.1,0.3,0.2-0.5,0.2c-1.7-0.1-1-0.2-3.4-0.2
	c1.9-0.2,7.1-0.3,9.5-0.4c0.6,0.1-3.1,0.1-1.9,0.1c1.5,0,1.2,0.1,1.9,0.1c0.8-0.1,2.5-0.3,3.4-0.2c0.1,0.1-1.3,0.1-0.9,0.3
	c1.6,0,2.9,0,3.4-0.1c-3.1,0,0.5-0.2-0.9-0.3c-2.7,0-2.7-0.1-6.2,0c-0.6-0.1-1.8-0.2-2.4-0.3c-1.3,0.1,0.2,0.2,0,0.4
	c-1.1-0.1-3.7,0.2-4.8,0c-0.4,0.3-2.9,0-5.2,0.1c-0.3,0.2-2.7,0-4.3,0.1c0.5,0.1,2.2,0.1,0.9,0.3c3.3-0.1,4.9-0.2,8.6-0.1
	c-0.5,0.2-3.4-0.1-1.9,0.1c-2.7,0-4.1,0-5.2,0.1c1.9,0,3.1,0.1,4.8,0.1c0.1,0.1-0.4,0.1-1.5,0.1c-0.3-0.1-2.9-0.1-4.3-0.1
	c1,0.2-4.3,0.3-2.8,0.5c-1.3,0-2-0.1-1.9,0c-0.4,0.1,2.3,0,1.9,0.1c-2.7,0,0.2,0.2-1.9,0.2c-1.6,0-2.6-0.1-3.4-0.1
	c1.3-0.1,2.1,0.1,3.4-0.1c-1.5,0-1.3-0.1-2.4-0.1c-0.7,0.1-1.3,0.2-1.9,0.3C348.6,3,346.7,3,346,2.8c1.5,0.1,3.5-0.2,4.8,0
	c0.4-0.1,1.6-0.3,0.5-0.4c-1.9,0.1-3.1,0.1-5.8,0c-1.4,0.1-1.6,0.3-3.8,0.1c-0.5,0-0.5,0.1-1.5,0.1c-1.4-0.1-3.8-0.2-6.2-0.3
	c0.3-0.1-0.7-0.2-1.5-0.2c0.1-0.1,1.6,0,1.5-0.1c-1.1,0-1.8,0-1.9-0.1c1.7,0,1.7,0,3.8,0c0.4-0.1-0.9-0.1-0.9-0.1
	c0.6-0.1,2.7,0,3.4-0.1c-0.4-0.1-1-0.3-2.4-0.3c0,0.4-1.8,0.6-2.7,0.5c1-0.1,2-0.3,3.8-0.4c0.4,0.1,2.7,0.2,2.8,0
	c-2.5,0,0.8-0.2-0.9-0.2c-0.1,0.1-1.7,0-1.9,0c0.8-0.2,3.2,0,3.8-0.1c-0.5,0.1,1.6,0.1,1.5,0.1c-0.6,0-0.9,0.1-1.9,0
	c0.6,0.2,0.5,0.3-1.5,0.4c1.2,0,2.3-0.1,2.4,0c-0.2,0.2-1.7,0.2-2.4,0.4c2.2,0.1,5.4,0.1,5.8-0.1c-1.7-0.1-0.3,0.1-1.5,0.1
	c-0.9-0.1-1.7-0.3-0.9-0.5c1.7-0.1,0.3,0.1,1.5,0.1c-0.1-0.1,0.4,0,1.5,0c-0.3-0.2,0.5-0.3,2.8-0.3c0.3,0.2-1.1,0.2-1.5,0.3
	c0.3,0,2.3,0.1,2.4,0c-1.5-0.1,1.4-0.4-0.5-0.6c-0.6,0-1.3,0-1.9,0c-0.8,0,0,0.2-0.9,0.2c-0.7,0-2.5,0-2.4,0c-0.1-0.1,1.1-0.1,1-0.2
	c-2.3-0.1-0.5,0.2-2.4,0.2c1.1-0.1-0.8-0.1-1.9-0.2c-0.1,0,0.1,0.1-0.5,0.1c-0.5-0.1-1.2-0.1-1.9-0.1c-1.5,0-1.6,0.1-2.8,0.1
	c-0.3,0.2,2,0.1,1.9,0.3c-1.1,0-2.2,0-3.4,0c-0.5,0.3-5.7,0.3-7.1,0.1c-0.7,0.2,1.5,0.2,1.9,0.3c-0.8,0-0.3,0.1-0.9,0.1
	c-3.9,0-10.2,0.2-11.5-0.1c-1.9,0-3.2,0-3.8-0.1c0.7-0.1,2.4-0.1,2.4-0.3c-4.2,0.3-7.9,0-8.6-0.3c-2.1,0-5.2,0.2-6.7,0
	c0.1,0.1-0.5,0.1-0.5,0.1c4.5,0,4.8,0.1,8.2,0.1c-0.6,0.1-3.8,0-3.8,0.1c0.1-0.1,1-0.2-0.5-0.2c-0.5,0.2-5.3,0-4.3,0.3
	c-0.8-0.1-3.6-0.1-2.4-0.2c-1.8,0-2.7,0-3.8-0.1c0.1,0.1,0.6,0.1,0.9,0.3c-1.7,0.1-2.4-0.1-4.8,0c0.8,0.1,4.3,0.1,3.8,0.3
	c1.5,0,0.9-0.1,2.4-0.1c0.4,0.1-1.5,0.2-4.3,0.1c0.2-0.1-1.5-0.1-2.4-0.2c-0.3,0.1,0.5,0.2-0.5,0.2c-0.7-0.1-0.4-0.1-1.9,0
	c0-0.1,0.1-0.1,0.5-0.1c-0.5,0-0.9,0-1.5,0c0,0-0.4,0-0.5,0c1.2,0,0.1,0.1-0.5,0.1c-0.5-0.1-0.5-0.2-1.9-0.1c-0.8,0,0,0.2-0.9,0.2
	c-0.8,0-1.1-0.1-0.9-0.2c1.7,0,4.5,0,4.3-0.3c-1.5,0-4.1,0-4.8,0c0.1,0,0.7,0,1.5,0c-0.2-0.1-0.2-0.2-1.5-0.1
	c0.4,0.2-2.9,0.1-4.3,0.1c0.8-0.1,3.3,0.1,3.4-0.1c-1.5,0-2.3,0-1.5-0.1c-1.6,0.1-3.3,0-4.8,0c1,0.2,1.4,0.3-1.5,0.3
	c0,0.1,1.1,0.2,1.9,0.2c-1.5,0-2.7,0-3.4,0.1c0.9,0,1.6,0,1.9,0.1c-2.9,0-6.7,0.1-6.2,0c-1.7,0-1.6,0.1-2.4,0.1
	c-1.5-0.1,0.4-0.2-1.9-0.1c0.1-0.1,0.8-0.1,0.9-0.1c-1.7,0.2-2.5-0.2-4.8,0c0.5,0,1.6,0.2,1.9,0.1c-0.5,0-0.6-0.1,0-0.1
	c0.3,0.1,0.7,0.1,0.9,0.1c-3.5-0.1-3.6,0-6.7-0.1c-1,0.1,0.4,0.1,0.9,0.2c-2.1-0.1-1.3,0.1-2.8,0.1c0.4,0,0.6-0.1,0.5-0.2
	c-2.6,0-0.4,0-0.5-0.1c-1.8,0-2.7,0.1-4.8,0.1c0.2-0.1-0.6-0.1-0.9-0.1c3.2,0,2.6-0.2,2.8-0.3c0.5,0,1.3,0.1,1.5,0.1
	c1.9,0,3.5,0.1,3.8,0c-1.4,0-2,0-3.4,0c0.9-0.1-0.5-0.1-0.9-0.2c1.9,0,3.4,0.1,4.3,0c-1.3,0-0.4-0.1-1.9-0.1c-0.8,0-0.3,0.1-0.9,0.1
	c-0.5,0-0.8-0.1-1.5-0.1c-0.1,0.1-0.8,0.1-1.9,0.1c1.2-0.2-2.9,0-2.8-0.1c0.5-0.1,2.2-0.1,2.8-0.1c-0.2,0-4.3,0-2.8,0.1
	c-1.1,0-0.9-0.1-2.4-0.1c-0.6,0.1,1.4,0.1,1.5,0.2c-2.4,0.1-4.7,0.1-6.7-0.1c0.7,0,1.6,0,1.5-0.1c-0.9,0-4.3,0-3.4,0.1
	c1.1,0,1.8,0,1.9,0.1c-1.6,0-2-0.1-3.8,0c1-0.1-0.9-0.1-1.9-0.2c-1.1-0.3-8.5-0.3-8.5-0.5c-0.1,0.1-1.3,0.1-1.9,0
	c0.5,0.1,0.5,0.3-1.5,0.1c-1,0.1-0.5,0.2-2.4,0.2c-0.9,0,0.1-0.2-0.9-0.2c-1.6,0-5.6,0-6.7-0.1c-1.4,0.1,0.2,0.2-1.9,0.3
	c-1.6-0.1-2.5,0.1-4.3,0c1.2-0.1-0.4-0.1-0.9-0.2c-1.2,0.1-2.7,0.2-1.9,0.4c-0.9,0-0.9,0-1.5,0.1c-1.6,0-3.9-0.2-5.8-0.1V1.2
	c-1.6,0-1.8,0-2.4,0.1c-0.3-0.1-2.4-0.1-0.9-0.2C187.5,1,186.2,1,185,1c-0.6,0.1,1.4,0.2,0,0.2c0-0.2-2.4-0.2-2.8-0.3
	c1,0,3.3,0.1,2.8-0.1c-0.5,0-4.6,0-3.8,0.1c-3.5,0-5-0.1-6.7-0.2c0.6,0,0.5-0.1,0.9-0.1c0.9,0,0.6,0.1,1.9,0.1
	c0.1-0.2-1.6,0-1.9-0.1c1.2,0-0.6-0.1,0-0.1c1.3,0,2,0,1.9-0.1c-1.4-0.1-2.9,0.1-4.3,0c-0.3,0.1,1.1,0.1-0.5,0.2
	c-2.6-0.1-4.9,0.2-8.2,0c1.7-0.1,2.7,0,3.4-0.1c-0.6,0-0.9-0.1-1.5-0.1c0.9,0,2.1-0.1,0.5-0.1c-0.2,0.2-1,0-1.5,0
	c-2.2,0.1-6.9,0.2-8.6,0c-2.7,0.2-6.6,0-11.5,0.1c5.9,0.2,13.9,0.1,19.1,0.1c-0.7,0.1-5.1,0.2-5.8,0.1c-3.7-0.1-6,0.2-9.1,0.1
	c-0.4,0-0.5-0.1-0.9-0.1c-4-0.2-11.5,0.2-16.2,0.1c-0.1,0,0.1,0.1-0.5,0.1c-4.1,0-8.2,0.2-11.5,0.2c1.7,0.2-4.8,0.3-0.9,0.3
	c-1.6,0.1-2.1,0-3.8,0c-2.7,0.1-4,0.2-6.7,0.2c0.5,0.1,3,0,3.4,0.1C102.5,1.8,99.5,2.1,88.3,2c0.7,0.1-0.1,0.1-0.9,0.2
	c-2.6,0-3.9,0.1-6.7,0c-0.4,0.1-0.4,0.3-2.4,0.3c0-0.1,1.3,0,0.9-0.1c-1.5,0-2.3,0-1.5-0.1c-1.6,0-2.9,0-3.8,0.1c0.6,0,1,0,0.9,0.1
	c-1.1,0-1.8,0-2.4,0c0-0.1,1.3,0,0.9-0.1c-1.5,0-1.4,0-3.4,0c0.1,0.1,0.9,0.1-0.5,0.1c0.5-0.1-1.6-0.2-1.9-0.1c0.5,0,0.7,0,0.9,0.1
	c-1.7,0.1-3.6,0.1-5.8,0.1c1.6,0.1-0.5,0.1,0.5,0.3C52,3.2,53,4.3,42.9,4.6c6.6,0.1,8.6-0.2,14.4-0.4C53.3,4.8,46,5,40.5,5.4
	c0.4,0,0.9,0,0.9,0c-1.1,0.1-2,0.2-3.4,0.2c1.8,0,1.6,0.1,2.8,0.1c1.7-0.3,3.8-0.3,6.7-0.4c0,0,0.4,0,0.5,0.1
	c-1.8,0.1-2.6,0.3-5.2,0.3c-0.1,0.1,0.5,0.1,0.5,0.1c-1.2,0.1-4.9,0-3.4,0.3c-2,0-1.8,0-3.4,0c0.1,0.1,0.9,0.1,0.9,0.2
	c0.5,0,1.7-0.2,1.9-0.1c-0.2,0.1-1,0.1-1.5,0.2c-0.9,0-0.6-0.1-1.9-0.1c1.6,0.2,4.2,0.4,6.2,0.3c-0.2,0.1,2,0.1,1.9,0.2
	c-1.5,0-0.9-0.1-2.4-0.1c-0.6,0.2-1.3,0-1.5,0.2c-1.6,0-2.3-0.1-4.3-0.1c-0.6,0.2-2.5,0.2-4,0.1C31.6,7,29,7.1,30.4,7.2
	c4-0.2,9.3,0.1,11.5-0.2c0.5,0,1.3,0.1,1.9,0.1c0.3,0,0.7-0.1,1.5-0.1c0.4,0.1,1.8,0.1,1.9,0.2c1.3,0,1-0.1,1.9,0
	C49.8,7.1,48,7,49.1,7c1.6,0.1,5.9,0.2,7.7,0.2c-1,0-1.6,0-1.5-0.1c0.5,0,0.5,0,0.9,0c3,0.1,5.6,0.2,8.2,0.1c-0.6,0-1,0-0.9-0.1
	c1.9,0,1.7,0.1,3.8,0c0.5,0.1-1.5,0.1,0,0.1c0.5,0,0.2-0.1,1.5-0.1c1,0,1.8,0.1,2.4,0.2c2.6,0,3.8,0.1,5.8,0.1
	c2.1-0.1,6.7,0,7.1-0.3c-1.9,0.1-2.8,0-4.3-0.1c-0.1,0,0.1,0.1-0.5,0.1c-0.6-0.1-3.1,0-2.8-0.2c3.8-0.1,5.6-0.1,9.5-0.1
	c0.2-0.1-0.6-0.1-0.9-0.1c2.7,0.1,2,0.1,4.3,0.1c-0.8,0.2-3,0-3,0.2c2.4,0,3.3,0.1,3.8,0.2c3.3,0,3.2-0.1,6.7-0.1
	c3,0.2,8.4,0.1,11,0.1c-0.3,0.2-4.7,0-5.2,0.2c4.7-0.1,8,0,12-0.1v0.1c3,0,5.8-0.2,8.2-0.1c0.1,0-1.9,0.1-0.5,0.1c5,0,17-0.1,21.1,0
	c-1.2,0-2.9,0-2.8,0.1c3.8,0,12.2,0,16.8,0c-0.1-0.1,0.4-0.1,1.5-0.1c5.1,0.2,10.6,0,19.1,0.1c0.1-0.1-5.9,0-8.2,0
	c0.4-0.3-5.5,0.1-9.1-0.1c3.4-0.1,7.9-0.2,10.5-0.1c8.3-0.2,20.1,0,30.6-0.2c0.5,0.1,4.9,0,4.3,0c-1.6,0-2.3,0-2.4-0.1
	c2.7,0,5-0.1,8.2-0.1c0.7-0.1-0.5-0.1,0.9-0.2c2.6,0,2.4,0,1.5,0.1c2.1,0,2.9-0.2,3.8-0.1c0.1,0.1-2.6,0.1-0.9,0.3
	c1.6,0,1-0.1,1.9-0.1c0.5,0,1.4,0,1.5,0C219,7,218,6.8,219.2,6.7c1,0,1.3,0.1,1.9,0.1c0.7-0.1,4.3-0.1,5.2-0.1c0,0.1-1.2,0-0.9,0.1
	c1.8,0,4.8-0.1,5.2,0.1c-2,0-1.9,0-2.8,0.1c-2.3,0.1-2.8-0.2-3.8-0.1c1.4,0-0.6,0.1,0,0.2c1.7-0.1,2.8,0,4.3,0.1
	c0.4-0.1,0.7-0.1,1.9-0.1c0.8,0.1,3.2,0,3.4,0.2c-0.5,0-1.4,0-1.5,0c0.4,0,0.5,0,0.5,0.1c4.8-0.1,14.1,0.1,17.7,0
	c-0.4,0-0.5,0-0.5-0.1c1.6,0,6,0,7.1-0.1c-1.6,0-0.7-0.1-0.9-0.2c-0.7,0-2.5,0-2.4,0c1.2,0,3,0,3.8,0c0,0.1-1.3,0-0.9,0.1
	c0.9,0,0.9,0,1.5-0.1c0,0.1,0,0.1,0,0.2c1.9-0.2,1.8,0,3.8,0c0-0.1,0.1-0.1,0.5-0.1C261.2,7.1,260.2,7.2,260,7.1z M224.6,1.1
	c-0.7,0.2-3.3,0-3.4,0C217.9,1.1,221.9,1.1,224.6,1.1z M529.8,2.6c-0.3,0.1-2.7,0.1-3.8,0C527.1,2.5,528.1,2.5,529.8,2.6z
	 M415.9,6.8c-0.4-0.1,1.6-0.1,2.4-0.1C417.9,6.7,416.8,6.7,415.9,6.8z M143.8,7.5c0.4-0.1,1.6-0.1,2.4-0.1c1.4,0.1,3.7,0.1,4.8,0.1
	C149.5,7.6,145.7,7.5,143.8,7.5z M179.2,7.2c0.2-0.1-0.9-0.1-0.5-0.2c3.5,0,4.9,0,7.1,0c0.4-0.1,2.1-0.1,2.4-0.2
	c1.4,0-0.3,0.1,0,0.2c3.3,0,9.2,0.1,13.8,0.1C195.2,7.2,187.3,7.1,179.2,7.2z M172,7.2c-0.2,0,4.6-0.1,5.8-0.1
	C176.4,7.3,175.2,7.1,172,7.2z M135.7,7.2c-0.7,0-2.5,0-2.4,0C132.6,7.1,136,7.1,135.7,7.2z M302.6,7.2c-1.8,0-6.1,0.1-5.8-0.1
	c-1.7,0.1-4.3,0.1-8.2,0.1c-0.2-0.1-1.6-0.1-1.5-0.3c1.6,0,1.6,0,3.4-0.1c0.4,0.1,4,0.1,6.2,0.2c-0.8-0.1-1.7-0.2-3.4-0.2
	c2.5-0.1,5.3-0.2,7.1-0.1C301.3,6.9,300.2,7.1,302.6,7.2z M353.3,7c-1.9-0.1-1.9,0.1-4.3,0c0-0.1,0.1-0.1-0.5-0.1
	c0.6-0.1,3-0.1,4.3,0C353.2,6.9,353.3,6.9,353.3,7C354.4,6.9,352.7,7,353.3,7z M304.1,6.9c-0.1,0.1-1.8,0-2.4,0c0,0,0.5,0,0.9,0
	c-0.4,0-0.5-0.1-0.5-0.1c0.6,0,1.7,0,2.4,0.1c0,0.1-0.4,0.1-0.9,0.1C303.4,6.9,303.7,6.9,304.1,6.9z M209.8,7c-2.7,0-4.9,0-6.7-0.1
	c2.7,0,4.3,0,7.1,0C210.4,6.9,209.7,6.9,209.8,7z M491.5,6.9c0.1-0.1,2-0.1,3.4-0.1C495.2,6.9,492.6,6.8,491.5,6.9z M462.8,6.8
	c-1.3,0-3.8,0-4.3,0c-0.2-0.1,2.1-0.1,2.8-0.1c-1.9-0.1,0.5-0.1,1.5-0.1c-0.1,0-0.9,0-1.5,0c1.7-0.2,3.3,0.1,6.2,0
	c-1,0.1-4.2,0.1-4.3,0C461.4,6.6,463.3,6.7,462.8,6.8z M332.7,6.7c0-0.1,1.7-0.2,0.5-0.2c3.4-0.1,6.5-0.1,8.6,0
	c-0.1,0.1-2.1,0-1.9,0.1c0.5,0.1,2,0,2.8,0.1C339.2,6.8,337,6.8,332.7,6.7z M377.3,6.7c-2.1,0.1-1.3-0.1-2.8-0.1c-0.7,0,0.2,0,0,0.1
	c-0.5,0-1.6,0-2.8,0c0.3-0.1,1.6-0.1,1.9-0.2c0.8,0.1,1.4,0,2.4,0c0.1-0.1-1.2-0.1-2.4-0.1c0.2-0.1,2.3-0.1,2.8-0.1
	c1,0,0.1,0.2,1.9,0.1c0.4,0.1-2.3,0-1.9,0.1c0.2,0,1.2,0,1.9,0c-0.1,0,0.1,0.1,0.5,0.1C378.8,6.7,376.4,6.6,377.3,6.7z M368.1,6.7
	c-1.7,0-4.3,0-7.1,0C362.3,6.6,366.7,6.6,368.1,6.7z M370,6.6c-1.5,0-0.9-0.2-3.4-0.1c0.1-0.1,2.4-0.1,3.8-0.1
	C370.1,6.5,369.9,6.6,370,6.6z M363.8,6.6c-1.2,0-2.3-0.1-2.4,0c-0.6,0-0.4-0.1-0.5-0.1c0.9,0,2,0.1,2.4,0
	C364,6.5,363.7,6.6,363.8,6.6z M389.6,6.5c1-0.2,4-0.1,6.7-0.1C395.7,6.6,391.5,6.4,389.6,6.5z M432.2,6.4c-2.7,0-5.2,0-5.8-0.2
	c2,0,1.8,0.2,3.8,0.1c2.1,0,1.4-0.2,4.3-0.1c0.1,0-0.2,0-0.5,0c-0.1,0,0.2,0,0.5,0C434.1,6.3,431.9,6.2,432.2,6.4z M493,6.3
	c0.5-0.1,6.3-0.1,5.2,0C497.1,6.4,494.2,6.4,493,6.3z M341.4,6.2c2.4,0,2.4,0,4.3,0C345.6,6.5,341.2,6.4,341.4,6.2z M340.3,6.4
	c-1.9-0.1-2.6,0-5.8-0.1c1-0.2,3.5,0.1,3.8-0.1C339.4,6.2,341.5,6.3,340.3,6.4z M475.7,6.3c-0.9,0-1.9,0-2.8,0
	C472.4,6.1,474.7,6.2,475.7,6.3C475.7,6.2,475.7,6.3,475.7,6.3z M464.3,6.2c0.1,0,0.9,0,0.9-0.1C465.2,6.1,464.7,6.1,464.3,6.2
	c-0.6-0.1-0.4,0-0.5,0c-1.5,0-1.3,0-2.4,0c0.1,0,0.9,0,0.9-0.1c-0.4-0.1-1.2,0-2.4,0c1.2-0.2-1-0.1-0.9-0.2c3.5,0.1,7.8,0.2,11,0.1
	c-0.2,0.1,2,0.1,1.9,0.2c-1,0-2.7,0-3.4-0.1C467.7,6.2,466.2,6.3,464.3,6.2z M498.7,6.2c-1.1,0.1-4.7,0.1-5.2,0
	c0.1-0.1,2.6,0.1,2.8-0.1c-1.5,0-3,0-5.2,0c0-0.1-0.4-0.1-0.9-0.1c0.7,0,3-0.1,1.9-0.3c2,0,2.8-0.1,4.8-0.2
	c-1.7,0.1-1.2,0.4-3.8,0.3c-0.1,0.1,0.7,0.1,1.5,0.1c0.8,0,1,0,1.9,0c-0.4,0-0.7-0.1,0-0.1C498.4,5.9,494.7,6.2,498.7,6.2z
	 M484.3,6.2c-0.1-0.1,1.6-0.2,2.4-0.1C486.3,6.2,485.8,6.3,484.3,6.2z M445.6,5.9c-0.8,0.1,0.1,0.1,0.5,0.2
	c-2.3,0.1-2.2-0.1-2.8-0.2C443.9,5.9,444.2,5.9,445.6,5.9z M437,6.1c-0.1,0-0.5,0-0.5-0.1c-1,0-2.4,0.1-2.8,0c2.7-0.1,3.6,0.1,6.2,0
	c-0.4,0-0.6,0.1-0.5,0.2c-2.3-0.1-1.8,0-4.3,0C435.2,6.1,435.9,6.1,437,6.1z M457,6.1c-1,0.1-3.1-0.1-2.8-0.2
	C456.6,6,455.7,6.1,457,6.1z M443.2,6c-0.4,0-1.2,0-2.8,0C439.8,5.9,442.8,6,443.2,6z M497.7,5.9c2.4,0,3.7,0.1,6.2,0
	C503.1,6,497.4,6.1,497.7,5.9z M482,5.8c1.1,0,1.8,0.1,3.4,0.1c1.6,0,0-0.2,2.4-0.3c-0.3,0.1,0.2,0.1,1.5,0.1
	c-1,0.1-0.6,0.1-0.5,0.2C485.3,6,483.2,6,482,5.8z M491,5.8c-1.8,0-1.7-0.2,0.5-0.1C491.6,5.7,490.9,5.7,491,5.8z M547.5,5.7
	c-1.3,0-1.6-0.1-1.5-0.1c0.6,0,1.3,0,1.9,0C548.2,5.6,547.6,5.6,547.5,5.7z M491,5.6c-1.5,0-1.1,0-2.8,0c0.3,0,0.5-0.1,0.5-0.1
	C489.5,5.5,491.2,5.5,491,5.6z M450.9,5.3c0.1,0.2-0.6,0.1,0,0.3c-1.7,0-1.9,0-4.3,0c-0.5-0.1,0.3-0.1-0.9-0.2c-1.4,0,0.6,0.1,0,0.2
	c-1.2,0-2.6,0-4.3,0C444.3,5.4,446.1,5.2,450.9,5.3z M438,5.6L438,5.6c0.5-0.1,0.8-0.1,0.9,0c1,0,0.9-0.1,1.9,0
	C440.5,5.5,439.6,5.6,438,5.6z M437,5.6c-1.3,0-0.5-0.1-1.5-0.1c0.3,0,1-0.1,1.9-0.1C437.5,5.4,437.5,5.5,437,5.6z M321.7,5.5
	c-1.1-0.1-0.8-0.3-3.4-0.2c0.1,0-0.1-0.1-0.5-0.1c1.1-0.1,2.6-0.1,4.3-0.1C321.4,5.3,321.6,5.3,321.7,5.5z M548.5,5.4
	c-0.1,0.1-2,0-2.8,0c0.1,0,0.8,0,1.5,0c-0.5-0.1-0.9-0.3,1.5-0.3C547.3,5.2,546.9,5.4,548.5,5.4z M468.1,5.4c-1.3,0-2.9,0-2.4-0.2
	c1.8,0,2.7-0.1,5.8,0C470.2,5.3,468.5,5.3,468.1,5.4z M545.1,5.4c-2.4,0,0.7-0.2-1.5-0.2c0.5-0.1,1.5-0.1,2.8-0.1c0,0-0.5,0-0.9,0
	C546.9,5.3,545,5.3,545.1,5.4z M457,5.4c-1.6,0-2.2-0.3,0.5-0.2C457.6,5.3,457.7,5.4,457,5.4z M463.8,5.3c-1.1,0.1-2.6-0.1-4.3,0
	c0.2-0.1,2.1-0.1,2.4,0c0.8,0,1.1-0.1,0.9-0.1c0.7,0,1.6,0.1,1.5,0.1c-0.3,0-0.6,0-0.9,0C463.2,5.3,463.5,5.3,463.8,5.3z M304.1,5.3
	c-0.7,0.1-3.1,0-2.4-0.1C303.7,5.1,302.2,5.3,304.1,5.3z M327,5.3c-1.1,0-1.8-0.1-3.4,0c0.7-0.2,4.3,0,4.8-0.1
	C328.3,5.2,326.9,5.2,327,5.3z M305,5.1c1.5,0.1,1.5,0.1,3.4,0C308,5.3,304.4,5.4,305,5.1z M554.2,5.2c-0.8,0-1.6,0-2.4,0
	C551.3,5.1,553.3,5.2,554.2,5.2L554.2,5.2z M409.8,5.1c-1.4,0,0.3-0.3,1.9-0.3C411.4,4.9,410.1,5,409.8,5.1z M478.1,5.1
	c-0.3,0.1-2.9,0-3.4,0c0.5-0.1,0.7-0.1,1.9-0.1C476.4,5.1,477.7,5,478.1,5.1z M417.8,5.1c-1.2,0-2-0.1-2.4,0
	c-0.5-0.1-0.2-0.1-0.9-0.2c1.4,0,2,0,3.4,0C417.8,5,417.3,5,417.8,5.1z M321.3,5.1C320.7,5.1,321,5.1,321.3,5.1
	c-1.5-0.2-2.4-0.1-3.8-0.1c-0.2-0.1,0.9-0.2,1.5-0.3C319.1,4.8,321.4,5,321.3,5.1z M457.6,5.1c-0.6,0-1.3,0-1.9,0
	C455.3,4.9,458,4.9,457.6,5.1z M529.3,5c-1.3-0.1,2.4-0.2,2.4,0C531,5,529.2,4.9,529.3,5z M312.7,5c-0.8-0.1,0.2-0.1,1.5-0.1
	C314.2,4.9,313.9,5,312.7,5z M464.3,5c-0.8-0.1,1.9-0.1,3.8-0.1C467.6,4.9,465,4.9,464.3,5z M458.5,4.5c-1.4,0.1-4.1,0.1-5.2,0.3
	c-0.8,0-1.6,0-2.4,0V4.7c-1.5,0-1.1,0.1-2.8,0.1c0.2-0.1-0.6-0.1-1.5-0.1c1.3-0.1,1.1-0.2,3.4-0.2c0.3,0.1-0.9,0.1-0.9,0.1
	c0.4,0,0.5,0,0.5,0c1.4,0,1.1-0.2,2.4-0.3c-0.7-0.1-2.2-0.1-3.8,0c0.2-0.1,1.3,0,0.5-0.2c2,0,2.2,0.2,3.8,0c0.9,0.1,0.2,0.1,0,0.2
	c0.4,0,0.6,0,0.9,0c1.4-0.1-0.6-0.2-0.5-0.3c-1.2,0-1.5,0.1-2.4,0c0.4-0.1,1.9-0.2-0.5-0.1c-0.8-0.1,1.7-0.1,0.5-0.2
	c1.6-0.1,3.1-0.2,2.4-0.4c-2.2,0.1-5.7,0.1-6.2-0.2c-2.8,0-5.1,0-7.1-0.1c-0.1,0,0.2,0,0.5,0c0.4,0,0.5,0,0.5,0c0.7,0-0.1,0,0,0.1
	c1.7,0,4.7,0,4.8-0.1c2.4,0,3.7,0,5.8,0c-2.9,0.4,2.6,0.4,8.2,0.4c0.2,0.1-0.4,0.1-0.5,0.1c0.2,0,1.2,0,1.9,0
	c0.4-0.1-1.3-0.1-0.9-0.2c2.3,0,4.6,0,5.8-0.1c0.4-0.1-0.6-0.1-0.5-0.2c-0.8,0.2-2.1,0-3.8,0.1c0.1-0.2-4.7,0-5.2-0.1
	c-0.3-0.1,3.6,0,4.8,0c-1,0-5,0-6.4,0c-1.3-0.1,2.1-0.2,2.4-0.1c1.6,0-1-0.1,0.5-0.1c-0.4-0.1-1.6-0.1-2.4-0.1
	c1.7-0.1,3.7-0.1,6.7-0.1c0.4,0.1-0.5,0.2-1.5,0.2c2.9,0.3,3.5,0.3,9.1,0.3c0.5-0.1-1.6,0-0.9-0.1c2.1,0,1.4-0.1,2.8-0.1
	c-1.4-0.1-4.7,0-5.2-0.2c2.7,0,5.4,0,8.2,0c0.5,0,0.5,0.1,0.5,0.2c0.4,0,0.5,0,0.9,0c1,0,0.1-0.2,0.9-0.2c2.8,0,2.7,0.1,4.3,0
	c0.8,0.1,1.7,0.3,3.8,0.3c0,0.1-0.1,0.1,0.5,0.1c-0.2,0-1.2,0-1.9,0c0.1,0.1,2.1,0,2.4,0.1c-1.6,0.1-5.9-0.1-8.2,0.1
	c0.2,0,0.5,0.1,0.9,0.1c-1.2,0-5.5-0.1-7.1-0.2c-1.4,0.1-2.5,0.1-3.8,0.2c0.8,0.1,5.1,0,3.4,0.2c2.2-0.1,5.3,0,7.7,0
	c-1.2,0.1-3.2,0.1-3.4,0.2c-2.5,0-3.2-0.1-4.3-0.1c1.3,0.1-2,0.2-2.8,0.3c-0.1,0.1,1.7,0,2.4,0c-0.3,0-0.5,0.1-0.5,0.1
	c-1.1,0-1.8,0-2.4,0c-0.4,0.1,1,0.1,1.5,0.1c-0.7,0.1-1.2,0-2.4,0c1.3,0.1-0.5,0.1-0.5,0.2c-0.8,0-1.4-0.1-2.4-0.1
	c0.5,0.1,0.7,0.2-0.5,0.2c0.1,0,0.5,0,0.5,0.1c0.6-0.1,1.6-0.1,2.8-0.1c-1.6,0.1-1.6,0.3-3.8,0.4c-0.8,0-0.1-0.1,0-0.1
	c-1.7,0.1-3.1,0.2-4.3,0.3c-1.9,0,0.9-0.2-0.9-0.2C455.6,4.7,458.9,4.6,458.5,4.5z M427.5,4.7c1.3-0.2,2,0.1,3.4-0.1
	c-0.5,0-0.5,0.1-0.5,0.2c2.3,0,1-0.2,3.4-0.2c-0.9,0.1-0.1,0.1,0,0.2c-1,0-0.9,0.1-1.9,0.1C428,4.9,430,4.8,427.5,4.7z M423.2,4.7
	c-0.5,0-1.7,0-1.5,0.1c-0.6,0-0.7-0.1-1.5-0.1c0.2,0.1-0.6,0.2,0.9,0.2c-0.6,0.1-2.4,0.1-2.8,0c-0.3-0.2,1.9-0.2,1.5-0.4
	c1.4,0,3.3,0,3.4-0.1c0.2-0.1-2.7,0-1.9-0.1c0.8,0,1.6,0,2.4,0C424,4.5,422,4.5,423.2,4.7z M322.2,5c-0.9-0.1-0.4-0.1-1.9,0
	C319.9,4.8,324.3,4.9,322.2,5z M410.7,4.8c-1.6-0.1,0.5-0.1,0.5-0.2C412.5,4.6,410.8,4.7,410.7,4.8z M329.9,4.8c-0.5,0-0.9,0-1.5,0
	C327.7,4.7,330.1,4.8,329.9,4.8c-0.6-0.2-3.8,0-3.4-0.3c0.6,0,1.7,0,2.4,0.1c1.6-0.1-1.6,0-0.9-0.1c1.6,0,1.5-0.1,1.9-0.1
	s1.1,0,1.9,0c-0.2-0.1-1-0.1-0.9-0.2c0.6,0,1.7,0,2.4,0c-0.3,0.2,0.2,0.3-3.4,0.3c0.3,0,0.5,0.1,0.5,0.1c1-0.1,3.1-0.1,5.2-0.1
	c-0.6,0.1-3.1,0.3-3.8,0.1C331.4,4.7,330,4.7,329.9,4.8z M321.3,4.8c0.1,0-0.1-0.1-0.5-0.1c2.2,0,0.7-0.1,2.8-0.1
	c-1.3,0.1,0.5,0.1,0.5,0.2C323,4.7,322.8,4.8,321.3,4.8z M471.4,4.7c-2.5,0.1-4.9-0.1-6.2,0c-1.7-0.1,2.2-0.1,3.4-0.1
	c0-0.1-0.8-0.1,0-0.1c-0.3,0-1-0.1-1.9-0.1c0.8-0.2,5-0.1,6.2-0.3c0.3,0.1-1.5,0.1-0.9,0.2c-1.7-0.1-1.2,0-1.9,0.1
	C470.7,4.6,471.9,4.5,471.4,4.7z M417.4,4.7c-1.8-0.1-1.8-0.1-3.8,0c-0.1-0.1-0.9-0.1,0-0.2c2.7,0.1,1.6,0.1,2.4-0.1
	C417.3,4.4,417,4.6,417.4,4.7z M465.7,4.6C465.7,4.6,465.7,4.5,465.7,4.6c0.9-0.1,0.6-0.1,1.9-0.1c0,0,0,0,0,0.1
	C466.3,4.6,466.7,4.6,465.7,4.6z M426,4.5c-0.6-0.2,2.2-0.2,1.9,0C427.1,4.5,426.9,4.5,426,4.5z M344.6,4.5c-0.6,0-1.3,0-1.9,0
	c0.1,0-0.1-0.1-0.5-0.1C342.6,4.4,345,4.4,344.6,4.5z M339,4.5c0.6-0.1,2.4-0.1,2.8,0C341.5,4.6,340,4.5,339,4.5z M353.8,4.4
	c-1.9-0.2,1.6-0.4,2.8-0.2C355.7,4.3,354.4,4.4,353.8,4.4z M482.4,4.4c-1.2-0.2-3.4-0.1-5.2-0.1C477.9,4.1,482,4.1,482.4,4.4z
	 M50.5,4.4c-1.4-0.1,0.8-0.1,0.5-0.2c1.3,0,1.3,0.1,1.5,0.1C51.6,4.2,51,4.3,50.5,4.4z M483.4,4.3c-0.5-0.1,2.8-0.1,2.4,0
	C484.9,4.4,484.6,4.3,483.4,4.3z M337.5,4.1c1.4,0,3.8-0.2,4.3,0c-2.9,0-5.9,0.1-6.7-0.1C337.6,4.2,336.1,4,337.5,4.1z M321.7,4.2
	c-0.7-0.3-3.9,0-4.8-0.2c-0.6,0.1-1.4,0.1-1.9,0.2c-0.7-0.1-1-0.1-0.9-0.3c1.5,0,3.4,0,2.4-0.1c1.9,0.1,1.6,0.1,3.8,0
	C319.6,4.1,322.6,4,321.7,4.2z M443.7,3.7c0.5-0.1-1.6,0-0.9-0.1c2.2,0,2.7,0.1,4.3,0c0.3,0.1,0.1,0.2,0.9,0.3c-0.8,0-1.6,0-2.4,0
	c0-0.1,0.1-0.1-0.5-0.1c0.3,0.2-2.7,0.2-2.8,0.4c-0.8-0.1-2.7,0-3.4,0c-1.6-0.1,1.5-0.1,0.5-0.2c1.5,0,1.3,0.1,2.4,0
	c-1.7-0.2,1-0.2-1.5-0.3C440.7,3.6,442.3,3.7,443.7,3.7z M311.7,3.9c0.5,0,1.1,0,1.9,0c0.2,0.1-0.9,0.1-0.5,0.3
	C311.9,4.1,312,4,311.7,3.9z M332.7,3.9c2.1,0,3.6-0.1,3.8,0.1c-0.7,0-0.8,0-1.5,0C334.7,4.1,332.2,4.1,332.7,3.9z M328,4.1
	c0.1-0.1-0.5-0.3,1.5-0.3C329.2,3.9,328.5,4,328,4.1z M305.9,4c-1,0-2.5-0.1-2.4-0.2c2.1,0.1,4.5-0.1,6.7,0
	C308.5,3.9,306.5,3.8,305.9,4z M52,4c0.4-0.1,1.6-0.1,3.4-0.1C54.9,3.9,53.3,4,52,4z M366.2,3.8c0.2-0.1-1.6-0.4,3.4-0.4
	c0,0.1-0.4,0.1-0.9,0.1c1.8,0.1,3.4-0.1,5.8,0.1C371.4,3.6,370.5,3.8,366.2,3.8z M349.5,3.7c-1.5-0.1-1.8,0-2.8,0V3.6
	C348.4,3.6,349.1,3.6,349.5,3.7z M328.9,3.3c1.4-0.1,2.7,0.1,3.4-0.1c0.7,0.1,2.9,0.1,2.8,0.3c1.8,0,4.5,0.1,6.7,0
	c-0.4-0.1,0.8-0.2,0.5-0.3c-1,0-0.7,0.2-1.5,0.2c-0.4-0.1-2.2-0.1-2.4,0c-0.9,0-0.7-0.2,0.5-0.1c0.1-0.1-0.5-0.1-0.5-0.1
	c-0.7,0.1-0.5,0.2-1.5,0.2c-1.2-0.1,1.3-0.2-0.5-0.3c1.8-0.1,4.8,0.1,5.8-0.1c1.6,0,2.6,0,2.8,0.1c-1.4,0-1.7,0-2.4,0.1
	c-0.4,0.1,0.9,0.1,0.9,0.1c0.9,0,0.3-0.1,0.9-0.1c2.7,0.1-0.1,0.3,1.5,0.4c-1.3,0-3.2,0-1.9-0.1c-1.2,0.1-4.3,0.1-3.8,0.2
	c-0.9,0.1-1.9-0.1-3.4-0.1c-1.4,0,0.7,0.1-0.5,0.1c-0.9,0-0.8-0.1-2.4-0.1c0.7-0.1-0.5-0.2,0.5-0.3c-3.2,0-0.6,0.2-1.9,0.3
	C329.7,3.6,329.9,3.5,328.9,3.3z M329.9,3.6c-1.5,0-3.3,0-3.8-0.1C327.9,3.6,329.6,3.4,329.9,3.6z M529.8,3.7L529.8,3.7
	c1.5,0,3.5-0.1,4.8-0.1C535.7,3.6,531.2,3.6,529.8,3.7z M320.3,3.6c-1.7,0-2.1-0.1-3.4,0c-1.5-0.2,2.7-0.1,4.3-0.1
	C321.1,3.6,320.4,3.6,320.3,3.6z M362.9,3.6c-0.8,0-1,0-1.9,0C360.7,3.4,363.5,3.4,362.9,3.6z M497.3,3.5c-0.4,0.1-2.7,0-3.8,0
	C493.6,3.3,495.9,3.5,497.3,3.5z M441.8,3.5c0.5-0.2,3.5,0,4.8-0.1C446.3,3.6,442.1,3.4,441.8,3.5z M373.9,3.5c-2,0-1.5-0.2-0.9-0.3
	c1.4,0.2,3.2,0,5.8,0C377.6,3.4,373.6,3.3,373.9,3.5z M306.9,3.4c-0.5,0-1.3,0-2.4,0c0.4-0.1-1.2-0.2,0-0.3
	C306.3,3.2,306.7,3.3,306.9,3.4z M535.1,3.3c0.2,0.1-0.6,0.1-1.9,0.1c2.6-0.1,0.1-0.2-0.5-0.3C534.3,3.1,533.9,3.3,535.1,3.3z
	 M529.3,3.4c-0.5,0-0.9,0-1.5,0c0.2-0.2-0.5-0.2-2.4-0.1c0.5-0.2,2.6-0.1,3.8-0.1C530,3.2,530,3.4,529.3,3.4z M284.5,3.1
	c1.3-0.1,3.6,0,3.8-0.1c1.8,0,2.1,0.2,4.3,0.2c-0.2,0.2,0.8,0.2-1.9,0.3c-0.7-0.1-2.6-0.2-4.3-0.3c-0.4,0-0.5,0-0.5,0
	C288.4,3.3,284.2,3.3,284.5,3.1z M495.3,3.4c-0.4,0-0.7,0-1.5,0c0.1-0.1,1.1-0.2,2.8-0.1C497.7,3.4,494.9,3.2,495.3,3.4z M540.3,3.3
	c-2.6,0-1.2-0.3-4.3-0.3c0.2,0,0.5-0.1,0.9-0.1c0.1-0.1-2.9-0.1-2.8,0c-0.5-0.2,5.4-0.1,6.7-0.1c-1.1,0-1.4,0.1-2.4,0.2
	c0.6,0.1,2.1,0.1,2.8,0.1v0.1C540.7,3.3,540.4,3.3,540.3,3.3z M312.1,3.3c-1.4-0.1-1.9,0-3.4-0.1c-0.5-0.1,1.2-0.1,0.9-0.2
	C310.6,3.1,312,3.2,312.1,3.3z M62,3.3C62.9,3.2,62,3.3,62,3.3c1.2-0.1,6.2-0.3,5.8-0.1c1.4,0,2.1-0.1,4.3-0.1
	C69.4,3.2,65.5,3.2,62,3.3z M367.2,3.3c-1.3-0.1-1.8,0-3.4-0.1C364.9,3,368.7,3.1,367.2,3.3z M303.5,3L303.5,3c-2.1,0-5.7,0.4-5.8,0
	c1.3,0,0.9-0.1,1.5-0.1C299.9,3.2,301.7,3,303.5,3z M379.1,3.2c0.5,0,1.4-0.1,0.9-0.2c1.9-0.1,2.8,0.2,2.4,0.1c0.5-0.1,0.9,0,1.5,0
	C383.7,3.3,380.7,3.2,379.1,3.2z M336,3.2c-1.4,0-2.2-0.1-2.4-0.2C335.6,3,335.8,3.1,336,3.2z M254.8,3.2c-1.6,0,2.2-0.2-0.9-0.1
	c0.2,0,1.2,0,1.9,0c0,0.1-0.1,0.1,0.5,0.1C256.1,3.3,254.9,3.2,254.8,3.2z M378.2,3.1C377.8,3,377,3,376.7,2.9
	c-0.9,0-1.2,0.1-2.4,0.1c0,0.1-0.1,0.1,0.5,0.1c-1.2,0.1-2.5-0.1-2.8-0.2c1.3-0.1,3.9,0,5.8-0.1C378.4,2.9,377.4,3,378.2,3.1z
	 M366.2,2.9c1.4,0,3.1-0.1,4.8,0c-0.4,0-0.5,0.1-0.5,0.1C368,3.1,366.5,3.1,366.2,2.9z M493,2.9c1.7,0,1.4,0.1,2.8,0.1
	C495.1,3.2,493.6,3,493,2.9z M276.3,3c0.1,0.1-1.7,0-2.4,0c-0.9,0,0.3,0,0.9,0c-0.1-0.1-1.9-0.2,0.5-0.2C274.8,3,275,3,276.3,3z
	 M75.9,3.1C74.5,3,73.4,2.9,71.1,3C72,2.9,74,3,75.9,2.9c-0.7,0.1-1.6,0.2,0.9,0.2C76.7,3,75.9,3,75.9,3.1z M78.3,3
	c0.4-0.1,1.5-0.1,2.4-0.1c-0.1,0-0.9,0-0.9-0.1C78.8,2.9,78.3,3,76.9,3c0.7-0.1,1.6-0.2-0.5-0.1c0.5,0,0.5-0.1,0.9-0.2
	c0.7,0.1,2.5,0,2.8,0C81.7,2.7,81,3,78.3,3z M334.2,2.9c-0.8,0-0.9,0-1-0.1c-1.2,0-1.8,0.1-1.9-0.1c0.6,0,1.3,0,1.9,0
	C332.6,2.9,334.8,2.8,334.2,2.9z M497.3,2.9c-0.9,0-1.9,0-2.8,0c0.4,0,0.5-0.1,0.5-0.1C496.4,2.7,497.2,2.8,497.3,2.9z M305.4,2.7
	c0.5-0.1,2.9-0.1,2.8,0C306.9,2.8,306.4,2.8,305.4,2.7z M332.3,2.8c-1.6,0-0.3-0.1-0.5-0.2C333.9,2.6,333,2.7,332.3,2.8z M296.8,2.8
	c-1,0-1-0.1-0.9-0.2c1.3,0,2,0,1.9,0.1c-0.4,0-0.5,0-0.9,0C296.8,2.7,296.8,2.7,296.8,2.8z M536,2.7c0.4-0.1,1.2-0.1,2.4-0.1
	C538.5,2.7,536.7,2.7,536,2.7z M325,2.3c-0.1,0.1,0.7,0.1,1.5,0.1s0.4-0.1,1.9-0.1c-0.1,0.1-1.3,0.1-1.9,0.1
	c-0.3,0.1,1.6,0.1,1.5,0.2c-2.7,0-4.3,0-6.2-0.1c4.4,0.1,1.4-0.5,4.3-0.3C325.7,2.3,325.6,2.3,325,2.3z M493.4,2.6
	c0.4,0,0.5,0,0.5,0c-1.7-0.1-0.9-0.2-4.3-0.1c0.4,0,0.7-0.1,0-0.1c0.2-0.1,1.5,0,0.9,0.1c0.8-0.1,1.9-0.1,3.8,0
	c-1,0.1-0.5,0.2,1.5,0.1c-0.1,0.1,0.5,0.1,0.5,0.1c-1.6,0-2.7,0-3.8,0C492.6,2.6,493.4,2.6,493.4,2.6z M387.7,2.6
	c-1.6,0-2.8-0.2-3.8-0.1c-1.3-0.1,1.5-0.2,3.8-0.2C388.5,2.5,386.9,2.4,387.7,2.6z M458.1,2.5c-0.5,0.1-1.6,0-2.4,0
	C456.4,2.3,457.1,2.5,458.1,2.5z M238.9,2.6c-0.8,0-1.6,0-2.4,0c0-0.1,0.9-0.2,2.8-0.2C239.7,2.5,238.6,2.5,238.9,2.6z M96.4,2.5
	c-1.6,0-4.9,0-7.1,0C90.3,2.2,94.5,2.4,96.4,2.5z M309.7,2.5c-0.8,0-1.6,0-2.4,0c0.6-0.1-1.6-0.1-0.9-0.2c-0.5,0-0.4,0.1-0.5,0.1
	c-1.5,0-0.6-0.1-0.5-0.2c1.8,0,5.7,0.1,6.2,0.1C313.7,2.6,309.1,2.3,309.7,2.5z M288.2,2.5c-1.3-0.1-1.7-0.1-3.8-0.1V2.3
	c1.2,0,2.3,0,2.8,0.1c-0.2-0.1,1.4-0.1,3.4-0.1C290.6,2.4,288.8,2.4,288.2,2.5z M313.6,2.5c0,0-0.5,0-0.9,0
	c-0.1-0.2,2.8-0.2,3.8-0.1C315.7,2.4,315.2,2.5,313.6,2.5z M303.1,2.5c-1.3,0.1-1.8-0.2-2.8-0.3c-0.9,0-0.3,0.1-0.9,0.1
	c-1.6,0-1-0.1-1.9-0.1c1.5-0.1,3,0,4.3-0.2c1.4,0.1,2,0.2,2.4,0.3c-0.8,0-1.3,0-1.5,0.1C302.5,2.5,302.8,2.5,303.1,2.5z M265.8,2.5
	c-2.2,0-0.2-0.2,0-0.2c1.3,0.1,2.5,0,4.3,0c0.5,0.1-1.6,0.1-1.5,0.1c-0.5,0-0.7-0.1-0.9-0.1C266.5,2.3,265.9,2.4,265.8,2.5z
	 M242.8,1.9c1.1,0,2.2,0,3.4,0c0.5,0,0.8,0.1,1.5,0.1c0.3-0.2,1.7,0.1,3.4,0c-0.6,0.2-1.6,0.1-3.8,0.1c0.5,0.2,4.1-0.1,4.3,0.2
	c0.5-0.1,1.6-0.1,1.9,0c1.5-0.2,3.5-0.1,5.8-0.1c0.2,0.1-0.1,0.1-0.5,0.2c-1.2,0-2-0.1-2.4,0c-1.1,0-1.1-0.1-0.5-0.1
	c-1.6,0.1-2.2,0.2-4.8,0.1c2.4-0.1-8,0.1-10.1-0.1c-0.1-0.1,0.7,0,1.5-0.1c0.2-0.1-1.2-0.1-1.9-0.1C241.3,2.1,243.2,2.1,242.8,1.9z
	 M95.9,2.3c-1,0,0.7-0.2,1.9-0.1c0.2,0,0.5,0.1,0.9,0.1C98.9,2.4,95.8,2.2,95.9,2.3z M260.5,2.3c-0.1-0.1,0.5-0.1,0.5-0.1
	c0.9,0,2,0,1.9,0.1C261.7,2.3,261.8,2.3,260.5,2.3z M100.2,2.3c-0.5,0-0.4-0.1-0.5-0.1c1.7,0,2.8-0.1,4.8-0.1
	C103.5,2.2,101.2,2.2,100.2,2.3z M296.4,2.2c-1.5,0-2.3-0.1-2.4-0.2c2,0,0.5-0.2,0.5-0.3c1.8,0.1,1.6-0.2,0.9-0.1
	c-1.2-0.1,0.5-0.1,1.9-0.1c-0.1,0.1-0.9,0.1,0.5,0.1c0.9-0.1-0.7-0.1,1.9-0.1C299.9,2,295.4,2,296.4,2.2z M271.5,2.2
	c0.1,0.1-1.7,0-2.4,0c0.2-0.1-0.7-0.2-2.8-0.2V1.9c0.8,0,1.6,0,2.4,0c0.5,0.1,0.4,0.2,2.4,0.1C271.1,2.1,270.8,2.2,271.5,2.2z
	 M264.8,2c-2,0.1-3.6-0.1-6.2-0.1C260.5,1.7,263.6,1.9,264.8,2z M273.4,1.9c0.9-0.1,2.3-0.3,4.3-0.2c-0.3,0.1-2.2,0-2.4,0.1
	c0.4,0.1,1.3-0.1,2.4,0c0.2,0,0.5,0.1,0.9,0.1C278.1,2.1,274,2,273.4,1.9z M309.3,1.9c-0.7,0.2-2.4,0-3.8,0
	C304.2,1.8,308.6,1.9,309.3,1.9z M272.5,1.9c-1,0-1.3,0-1.9,0c0.5-0.1,1.7-0.2,3.4-0.1c-0.1,0-0.9,0-1.5,0
	C273,1.8,272.6,1.8,272.5,1.9z M212.2,1.8c-0.7,0,0.2,0,0,0.1c-0.4,0-0.7,0-1.5,0c-0.6-0.1,2.3-0.2,1.9,0
	C212.3,1.8,212.2,1.8,212.2,1.8z M312.1,1.8c-0.3,0.1-2.2-0.1-2.4,0c-1.5,0-0.3-0.1-0.9-0.2C310.4,1.6,310.4,1.8,312.1,1.8z
	 M216,1.7c-0.5,0-0.4-0.1-0.9-0.1c0.1-0.1,2,0,2.8,0c-0.1,0,0.1,0.1,0.5,0.1C218,1.7,217.1,1.7,216,1.7C215.9,1.7,216.9,1.6,216,1.7
	z M275.9,1.5c-0.1,0-0.5,0-0.5,0c-1.2,0.1,0.5,0.1,1.9,0.1c-1-0.1,4.6-0.1,4.8,0c-2.2,0-6.7,0.1-8.2,0.1c-1.4,0,0.1-0.2,0-0.2
	C275.2,1.4,274.8,1.5,275.9,1.5z M117.9,1.6c-0.5,0-0.4-0.1-0.5-0.1c0.8,0,2.8,0,2.8,0c0.6,0,0.4-0.1,0.5-0.1c2.7,0.2,7.5-0.2,12,0
	c-0.2,0.1-1.3,0.1-1.5,0.1C125.9,1.5,121.8,1.5,117.9,1.6z M241.9,1.5c-1.2,0-2.5,0-2.4-0.1C241,1.3,241.8,1.4,241.9,1.5z
	 M211.3,1.5c0,0,0.5,0,0.9,0c-0.1,0-0.5,0-0.5-0.1c-1.8,0.1-2,0-3.8,0c-0.8-0.1,0.2-0.1-0.5-0.2c0.8,0.1,1.8,0.1,1.5-0.1
	c0.9,0,0.4,0.1,1.9,0.1c0.1,0.1-0.5,0.1-0.5,0.1c1.8,0.1,2.3-0.1,4.3,0C213.8,1.4,212.7,1.4,211.3,1.5z M168.7,1.2
	c0.1-0.1,0.8-0.1,1.9-0.1c-0.1-0.1-1.6,0-1.9-0.1c3.7-0.1,6.4,0.1,9.6,0.1C177.4,1.5,170.5,1.4,168.7,1.2z M180.6,1.4
	c-1.3,0-1.6-0.1-1.9-0.2C180.1,1.2,181.9,1.3,180.6,1.4z M314.5,1.1c-1.3,0-0.9,0.1-1.9,0c-0.1,0,0.1,0.1-0.5,0.1
	c-1.2,0-2.3,0-2.4-0.1c0.8,0,1.5,0,1.9,0c0.2-0.1-1.6-0.1-2.4-0.1c0.4,0.2-2.7,0.1-2.8,0c-0.8,0.3,3.6,0.2,4.8,0.3
	c0.7-0.2,8.2,0.1,6.7-0.1C317.9,1.4,312.6,1.2,314.5,1.1z M564.7,6.1c-5.3,0.1-9.3-0.1-12,0.1C556.8,6.3,561,6.2,564.7,6.1z
	 M506.9,4.9c-0.4,0-0.6,0.1-0.5,0.2c2.4,0.1,5.9-0.1,4.8-0.2c-0.5,0.1-2.1,0.2-3.8,0.2C506,5,508.2,4.9,506.9,4.9z M419.8,3.3
	c0.3,0.2-0.2,0.2-1.5,0.2c0.5,0.2-0.5,0.2-1.5,0.3c2.6,0.1,4.6,0.1,5.2,0C418.9,3.7,422.6,3.5,419.8,3.3z M460,3.6
	c0.5,0,1.6,0.2,0.5,0.2c-1.9,0.1-0.2-0.2-1.5-0.1c-1.4,0.1-0.5,0.1-0.5,0.2C461.8,4,462.8,3.5,460,3.6z M405.9,3.6
	c1.5,0,0.9-0.1,2.4-0.1c0.8,0.1-0.4,0.1,0.5,0.1c1.7,0.1,0.3-0.1,1.5-0.1c0.3,0.1,1,0.1,1.5,0.2c-0.9,0-2.1,0-1.9,0.1
	c1.6-0.1,3.5,0.2,4.3-0.1c-1.1,0-1.8,0-1.9-0.1c0.7-0.1,1-0.1,0.5-0.2c1.9,0,3.6,0,4.3,0.1c0.2-0.1,1.4-0.1,0.9-0.2
	c-0.5,0-1.4,0-1.5,0c1.5,0,1.6-0.1,0.9-0.2c-1.5,0-1.3,0.1-2.4,0.1c-1.3-0.1-0.4-0.1-0.9-0.2c-1.6,0-1.6,0.1-3.4,0
	c-0.4,0.2,1.3,0.1,1.9,0.2c-2,0-3.2,0-4.8,0c-1-0.2-0.1-0.3-1.5-0.3c-0.4-0.1,2.3,0,1.9-0.1c-1.2,0-1-0.1-2.4,0
	c-1.5,0.1-2.2,0.3-3.8,0.4c2.1,0.1,3.7,0.1,2.8,0.3c1.6-0.1,2.6,0.3,4.3,0.1c-0.9,0,0.3-0.1-0.5-0.1C409,3.7,406.1,3.7,405.9,3.6z
	 M545.6,3.4c0.9,0,1,0,0.5,0.1c1.5,0,1.4-0.1,2.8,0c-0.3-0.1,0.5-0.2,0.9-0.3c-1.2,0-1,0.1-2.4,0c-0.4,0.1,0.6,0.1,0.5,0.2
	C546.8,3.4,546,3.3,545.6,3.4z M406.8,2.3c-0.9,0-2.9-0.1-4.8,0c-0.8,0-1.6-0.1-1.5-0.2c3.3,0.2,8.4-0.3,11.5,0.1
	c0.3-0.1-0.5-0.2,0.5-0.2c4.2,0.2,1.8,0,5.8,0.1c-0.7-0.1,1.3-0.1,0.9-0.2s-1.5,0-0.5-0.1c-0.8,0-1.6,0-2.4,0
	c0.7-0.1-1.3-0.1-1.5-0.1c0.9-0.1,3.1-0.1,3.4-0.3c-1.8,0-1.7,0-2.8,0c-0.7,0.1-1.4,0.2-1.9,0.3c-0.7,0-0.4-0.1-1.9-0.1
	c0.5,0.1-1.2,0.1-0.9,0.2c2.5,0.1,2.9-0.2,4.8-0.1c-0.2,0.2-2.4,0.2-4.3,0.2V1.8c-1.3,0-1,0.1-1.9,0c-0.1,0,0.1,0.1-0.5,0.1
	c-4-0.1-11.5,0-12.9,0.4c1.4,0.1,3.2,0,1.5,0.1c2.2,0.1,2.9,0.2,5.2,0.1c0.3-0.1-1.1-0.1,0.5-0.2c1.8,0,3.8,0.1,4.8,0.1
	C406.5,2.5,408.1,2.3,406.8,2.3z M424.1,2c-0.8,0-1.5,0-1.9,0c0.3,0.1-0.5,0.2,0.5,0.2c0.7-0.1,2.5-0.2,2.8-0.3c1.8,0,0,0.1,0.9,0.2
	c1.1,0,3.5,0,3.8,0c-1.6,0-0.5-0.1,0-0.1c-2.7,0.1-2-0.1-3.8,0c-0.1-0.1,0.2-0.1-0.5-0.1c-0.5,0.1-3.1-0.1-3.4,0
	c0.8,0,1.6,0.1,1.9,0.2C423.6,1.9,423.5,1.9,424.1,2z M459.5,1.3c-1.4,0-1.7,0.2-2.8,0.1c-0.7,0.1-1.7,0.2-1.5,0.3
	c-1.1,0-1.8,0-2.4,0c1.1,0.1,0.7,0.1,0,0.3c1.8,0,4.3,0.2,6.2,0c-2.2,0-1.1-0.1-1.9-0.2c-0.5,0-1.9,0.2-2.8,0.1
	C455.7,1.6,457.7,1.6,459.5,1.3z M491.5,1.9c0.1-0.1-0.5-0.1-0.5-0.1c1.5,0,3.8,0,3.8-0.1c-3.9,0-6.6-0.2-9.5,0
	c1.2,0.1,4.3,0,4.3,0.2c-0.5,0-1.4,0-1.5,0C489.5,2.1,490,1.8,491.5,1.9z M512.6,1.6c-0.5,0-1.4,0-1.5,0c0.8-0.1,1.5,0.1,1.9-0.1
	c-7.1-0.1-11.8,0.3-16.8,0c-0.2,0.1-0.5,0.1-1.5,0.2c0.4,0,0.5,0,0.5,0.1c2,0.1,5.2-0.1,5.2,0c1.8,0,3.1-0.1,4.8-0.2
	c0.7,0.1,2.5,0.1,2.4,0.2c-1-0.1-2.6-0.1-3.4,0c2.3,0,4,0.1,5.2,0c0,0-0.6,0.1-0.5,0.1c0.6,0,2.8,0.1,2.8,0
	C510.6,1.8,512.4,1.8,512.6,1.6z M533.6,1.6c-0.5,0.1-2.7,0-2.8,0.1C532.3,1.8,534.7,1.7,533.6,1.6z M545.1,1.5
	c-0.5,0.1-2.6,0-1.9,0.2c0.8,0,1.2,0.1,1.5,0C543.3,1.6,546.6,1.5,545.1,1.5z M492,1.6c1.4-0.1,2.9-0.2,4.8-0.2
	C494.1,1.3,492.3,1.4,492,1.6z M97.9,1.4c-1.6,0-0.6,0.1-1.9,0.1c0,0-0.1,0-0.5,0c-0.5,0.1,1,0.2,1.5,0.1
	C95.4,1.5,97.9,1.5,97.9,1.4z M259.1,1.1c1.2,0.1,2.7,0.1,2.8,0.2C260.6,1.3,260.7,1.2,259.1,1.1c-0.2,0.1,0.6,0.1,0.9,0.2
	c-1.6,0-2-0.1-2.8,0c2.1,0,2.8,0.1,3.8,0.2c0.9-0.1,3.6-0.1,2.4,0c1.4-0.2,4.7-0.1,6.7-0.2c-0.8,0-0.3-0.1-0.9-0.1
	c0,0.1-1.1,0.1-1.9,0.2c-0.9-0.1-2.8,0-4.3-0.1c1.6-0.1,0-0.1,1.5-0.2C261.6,1.1,260.3,1.1,259.1,1.1z M560.9,1.1
	c-4.8,0.1-8.9,0-12,0.2c1.6,0,4.5-0.1,5.8,0c-0.9,0-3.1,0-1.9,0.1C553.6,1.3,558.5,1.2,560.9,1.1z M255.2,1.1c1.5,0-1.6,0-1.5,0.1
	c0.7,0,1.6,0,1.5,0.1c-1.5,0-1.6,0-1.9,0.1c1.6,0,3,0.1,3.8,0C254.5,1.3,258.3,1,255.2,1.1z M86,1.4c2.6,0.1,5.8,0,6.7-0.2
	c-2.2,0-2.2-0.1-0.9-0.1c-1.6,0-3.1,0.1-3.8,0.1c0.5,0,0.5,0.1,0.5,0.1c-1.3-0.1-1.2,0-1.9,0.1C86.4,1.4,86,1.4,86,1.4z M194,1.2
	c0.1,0.1,5.3,0.3,3.8,0.1c-0.1,0-0.5,0.1-0.9,0.1C196.4,1.2,195,1.2,194,1.2z M501.1,1.1c-1.6,0-1.8-0.1-3.4,0
	c-1,0.1-0.6,0.1-0.5,0.2c1.6,0,3.8-0.1,4.3-0.1C501,1.2,501,1.2,501.1,1.1z M560.9,1c-1.4,0-4.2,0-4.3,0.1c1.3-0.1,4.9,0,2.4,0.1
	C560.5,1.1,560.3,1,560.9,1z M490.1,0.8c-1.3,0.1-2.4,0.2-4.3,0.2c0.6,0.1,2.3,0.1,2.8,0C488.5,0.8,489.9,0.9,490.1,0.8z M343.3,2.5
	c-2.3,0-3.2,0-3.4,0.2c0.9,0,0.9,0.1,2.4,0.1C342.3,2.7,342.9,2.6,343.3,2.5z M443.2,1.9c-1.4-0.1-3.7-0.2-5.8-0.1
	c0,0.1,0.6,0.2,1.9,0.2C439.3,1.9,442.5,2,443.2,1.9z M395.9,1.7c-0.8,0-2.4,0-1.9-0.1c1.4,0,1.3,0.1,2.4,0c0.6-0.1-0.2-0.2,0.9-0.3
	c-4.3,0-4,0-7.7,0c-0.1,0.1,0.6,0.1,0.9,0.1c-0.5,0-1.3,0-2.4,0c-0.4,0.1,0.2,0.2-1.5,0.2c3,0,5.3,0,9.1,0
	C395.9,1.8,395.9,1.8,395.9,1.7z"/>
</svg>
