<?xml version="1.0" encoding="utf-8"?>
<!-- Generator: Adobe Illustrator 19.2.1, SVG Export Plug-In . SVG Version: 6.00 Build 0)  -->
<svg version="1.1" id="White_2_final" xmlns="http://www.w3.org/2000/svg" xmlns:xlink="http://www.w3.org/1999/xlink" x="0px"
	 y="0px" viewBox="0 0 600 25" style="enable-background:new 0 0 600 25;" xml:space="preserve">
<style type="text/css">
	.st0{fill:none;}
	.st1{fill:#FFFFFF;}
</style>
<path class="st0" d="M40.6,45.4c0.3,1.3-7.8-0.7-10.7,0.9c7.8-0.4,9.9,0.6,15.4-0.5C45.8,45.1,41.2,45.8,40.6,45.4z"/>
<path class="st0" d="M29,40.7c-2.8-0.2,2.2-0.4,1-1.1c-2.3-0.5-3.2-1.5-8.7-1.1c1.1,0.7,3.8,1,4.8,0.3c1.7,0.6,1.7,1.2,1,1.9
	c3.7,0.9,5.5-0.4,8.7-0.5C33.2,39.2,32.3,40.9,29,40.7z"/>
<path class="st0" d="M25.1,46.3c-0.9,0-0.8-0.3-1-0.5c-2.4,0.1-3.2,0.7-5.8,0.8c0.1,0.7,3.2,0.5,5.8,0.5c0.8-0.2,0.6-0.7,1.9-0.8
	C25.9,46,25.1,46.2,25.1,46.3z"/>
<path class="st0" d="M24.1,43.9c-0.5-0.8-4.6-0.5-6.7-0.8c1.4,1-4.3,0.1-2.9,1.1C19.1,43.9,18.9,43.6,24.1,43.9z"/>
<path class="st0" d="M19.3,39.3c-6,0.1-7.6-0.4-12.5,0.5c-0.2,0.5,1.6,0.7,0,0.8c0.3,0.4,2.4,0.2,3.9,0.3
	C8.9,39.5,17.3,40.8,19.3,39.3z"/>
<path class="st0" d="M58.9,47.1c3.5,0.2,4.3-1.5,5.8-0.3c2.9-0.4-0.7-1.2-2.9-1.1C62.8,46.8,58.2,46.2,58.9,47.1z"/>
<path class="st0" d="M4.9,42.8c-1.7,0.2-3.4,0.5-2.9,1.4c3.3,0.2,4.1-0.3,5.8-0.5C8,43,5,43.3,4.9,42.8z"/>
<path class="st0" d="M57.9,38.8c0.9-0.6-6.6-0.1-2.9-0.5c4,0.1,4.8-0.6,6.8-1.1c-2.4,0.4-2.8-0.9-1-0.8c2,1.3,0.8-0.4,3.9-0.3
	c0.5,1.1-2,1.4,1,1.9c3.3-0.6,0.7-2.1,1-3c-2.4,0.1-2,1-5.8,0.8c0.5-0.7,1.3-0.9-1-1.4c-2.8,0.6-4.3,0.4-5.8,0.1
	c0.2,0.4,1.1,0.7,2.9,0.6c0.1,0,0.1,0.1-0.1,0.1c1-0.1,2-0.2,3-0.3c1.6,2-6.8,1.2-7.7,2.4c-2.3-0.1-4-0.3-5.8-0.5
	c0.7,0.4,0.2,0.8-0.9,1.1c4.3-0.2,5.9,0.1,8.7,0.3C51.3,38.3,57.7,39.5,57.9,38.8z"/>
<path class="st0" d="M41.5,40.7c0.4-0.1,0.7-0.2,1.1-0.2C42,40.5,41.5,40.5,41.5,40.7z"/>
<path class="st0" d="M54.1,62.5c0.8,2,7.6-1.1,7.7,1.1c3,0.1,2.2-0.8,5.8-0.5C64.7,61.5,57.4,63,54.1,62.5z"/>
<path class="st0" d="M45.4,38c-1,0.2-2.4,0.4-3.9,0.5c-0.9-0.9,3.2-0.4,2.9-1.1c-1.4-0.6-3,0.5-2.9-0.5c0.4-0.5,1.2,0.1,2.9,0
	c0-0.4,0.5-0.6,1-0.8c-1.6,0-3.2,0-4.8,0c0.7-1.4,6-0.1,6.8,0.3c1.6-0.5,4-0.7,6.6-0.9c-1,0-1.9-0.1-2.2-0.3
	c-5.1,0.3-10.4,0.3-15.6,0.3c-0.3,0.6-0.4,1.2-0.4,1.7c-1.3,0.7-2.9-0.5-3.8,0.3c3,0.3,5.3,0.2,7.7,1.1c-1.1,0-1,0.4-1,0.8
	c2.5,0.1,3.1,0.2,4.7,1c4.8-0.7,5,1,5.9-0.7c-2,0.2-6-0.2-2.9-0.5c0.1,0.4,4.1-0.3,3.9-0.8C47.7,38.4,46.8,38.6,45.4,38z"/>
<path class="st0" d="M-19.3,60.4c1.1,0,0.8-0.5,1-0.8c0.8,0.1,1.6,0.3,2.9,0.3c0-0.3,0-0.5,0-0.8c-1.8,0.1-2.4,0.6-4.8,0.5
	C-19.7,59.8-19.2,60-19.3,60.4z"/>
<path class="st0" d="M-21.2,62.5c-3.1,0.8,6.2,0.1,2.9,0.8c0.2,0.3,1,0.1,1,0c1.7,0,2,0.3,3.9,0.3c0-0.3,0-0.5,0-0.8
	C-17,63-19,62.1-21.2,62.5z"/>
<path class="st0" d="M353.2,25.8c-0.2,0-0.3,0-0.5-0.1c0.1,0.1,0.3,0.1,0.5,0.2C353.2,25.8,353.2,25.8,353.2,25.8z"/>
<path class="st0" d="M-18.3,57.1c-2.9,0.7-6.2-0.1-8.7-0.3C-27.9,57.8-18.3,58.2-18.3,57.1z"/>
<path class="st0" d="M4.9,40.7C8.5,40-0.8,38.8,0,40.4C2.5,40.2,3.4,40,4.9,40.7z"/>
<path class="st0" d="M1,55.2c0.1,0.6,4.1,0.1,5.8,0.3C5.2,54.4,4.2,55,1,55.2z"/>
<path class="st0" d="M-11.5,58.2c-0.9,0.2-1.7,0.3-1.9,0c-2.7-0.1,2.4,1-1,1.1c0.3,0.6,2.6-0.3,3.9-0.3
	C-11.1,58.8-11.6,58.6-11.5,58.2z"/>
<path class="st0" d="M-16.4,40.9c3.5,0.3,10-0.8,15.4-0.8C-5.7,39.7-14.1,40.4-16.4,40.9z"/>
<path class="st0" d="M-12.5,48.5c0,0.3,1.2,0.2,1.9,0.3c-0.8,0.2-0.6,0.7-1.9,0.8c1.2,0.7,4.7-0.3,3.9-1.1
	C-9.9,48.5-11.2,48.5-12.5,48.5z"/>
<path class="st0" d="M159.5,33.2c-0.9,0.1-1.3,0.1-1.8,0.1c-0.7,0.1-1.2,0-2.4,0.2c-0.2,0.5,0.6,0.6,1.2,0.9
	c1.2-0.2,2.2-0.3,2.7,0.2c1-0.9,0.3-1.2,4.8-0.5c0,0,0-0.1,0-0.1C162,33.6,160.1,33.5,159.5,33.2z"/>
<path class="st0" d="M150.5,34.7c0.9,0.3,1.9,0.3,2.9,0.1c-0.2,0-0.3,0-0.5-0.1c0.1-0.2,1.1-0.1,1.2-0.4c-1.3,0-2.3-0.1-3.1-0.3
	C150.7,34.3,150.5,34.5,150.5,34.7z"/>
<path class="st0" d="M179.9,35.8c-0.5-0.1,0.2-0.3,0.3-0.5c-1.6,0-3.2,0.2-4.6,0.4C176.6,36.3,178.1,36,179.9,35.8z"/>
<path class="st0" d="M175,33.4c0.5-0.1,0.9-0.1,1-0.3c-1,0-1.8-0.2-2.7-0.3c0.1,0.2,0.2,0.3,0.5,0.4c-0.5,0-1.1,0-1.2,0.2
	c0.7,0,2.8,0.5,2.9,0.2C175.2,33.6,174.9,33.5,175,33.4z"/>
<path class="st0" d="M-30.8,60.6c3.6-0.1,4.7-1,7.7-0.5C-23.6,58.9-31,59.9-30.8,60.6z"/>
<path class="st0" d="M164,33.3c0.1-0.1,0.2-0.2,0.3-0.3c-0.5,0.1-1,0.1-1.5,0.2C163.3,33.2,163.7,33.3,164,33.3z"/>
<path class="st0" d="M170.8,32.8c0.4,0.2,0.7,0.4,1,0.6c0-0.2-0.1-0.4-0.2-0.6C171.4,32.8,171.1,32.8,170.8,32.8z"/>
<path class="st0" d="M180.5,35.8c0.9-0.1,1.8-0.1,2.9,0c-0.3-0.1-0.6-0.2-0.9-0.2C181.7,35.6,181,35.7,180.5,35.8z"/>
<path class="st0" d="M203.7,35.9c-2,0-4,0.1-5.9,0.1c-0.6,0.3-1.7,0.5-3.9,0.4c-0.5,0.8,2.6,1.2-1.9,1.1c0.5,0.4,1.4,0.7,1.9,1.1
	c3.4-0.9,4.5-0.2,8.7,0c0.3-0.7-2-0.7-3.9-0.8c1.2-0.4,3.3-0.5,5.8-0.5C203.3,36.7,203.1,36.3,203.7,35.9z"/>
<path class="st0" d="M362.8,70.4c-2.9,0.7-5.9-0.2-6.8,1.1C357.9,71.8,361.5,71,362.8,70.4z"/>
<path class="st0" d="M185.3,38.2c1.5,0.7,4.7-0.3,4.8-0.8C186.3,37.1,187.8,38.2,185.3,38.2z"/>
<path class="st0" d="M62.7,43.6c0.7,1,3.8-0.1,7.7,0.3C68.4,43.1,64.6,43.5,62.7,43.6z"/>
<path class="st0" d="M74.3,63.3c0.5,0.4,1.5,0.7,2.9,0.8c3.7,0.1,4-0.7,6.7-0.8C80.3,62.4,77.8,63.3,74.3,63.3z"/>
<path class="st0" d="M84.9,33.7C84.9,33.7,84.9,33.7,84.9,33.7c0,0-0.1,0-0.1,0C84.8,33.7,84.9,33.7,84.9,33.7z"/>
<path class="st0" d="M78.2,33.9c-0.8,0.2-2.6,0.4-2.9,0c-1.8,0-0.6,0.9-1.9,1.1c-1.3-0.7-2.9,0.5-3.9-0.3c-2.2,0.9,2.5,0.7,5.8,0.5
	C74.3,34.2,78.9,34.8,78.2,33.9z"/>
<path class="st0" d="M60.8,41.5c0.4,0.7-1.8,0.6-1,1.4c2.1-0.9,8.9-0.6,10.6-1.6C68.6,41.7,64.1,41.4,60.8,41.5z"/>
<path class="st0" d="M199.3,25.4C199.3,25.4,199.3,25.4,199.3,25.4c0.1,0,0.1,0,0.2,0C199.4,25.4,199.4,25.4,199.3,25.4z"/>
<path class="st0" d="M121.6,35.3c-0.8,0.2-0.6,0.7-1.9,0.8c1.2,1.1,4.6-0.8,4.8,0C126.5,36,123.5,35.1,121.6,35.3z"/>
<path class="st0" d="M192.9,25.8c2.3-0.3,2.7,0.1,3.3,0.5c0.2-0.1,0.4-0.1,0.6-0.1c-0.1-0.3-0.1-0.5,0.1-0.7c-1.3,0-2.7,0.1-4.1,0.2
	C192.9,25.6,193,25.7,192.9,25.8z"/>
<path class="st0" d="M196.5,26.5c0.1,0.1,0.3,0.1,0.4,0.2c0,0,0-0.1,0-0.1C196.8,26.5,196.7,26.5,196.5,26.5z"/>
<path class="st0" d="M180.8,25c-0.9,0.1-1.4,0.1-1.9,0.1c0.3,0.1,0.6,0.2,1,0.2C180.3,25.3,180.7,25.2,180.8,25z"/>
<path class="st0" d="M-14.4,44.2c-0.8,0-0.9,0.1-1,0.3c0,0.2,0,0.4,0,0.5c1.3,0,2.6,0,3.9,0C-11.1,43.8-14.1,44.6-14.4,44.2z"/>
<path class="st0" d="M43.9,34.2c-2.4-0.1-4.7-0.2-6.6-0.2c-0.3,0.3-0.5,0.5-0.7,0.8c1.7,0,3.5,0,5.1,0
	C42.1,34.5,42.9,34.3,43.9,34.2z"/>
<path class="st0" d="M51.2,34.4C51.2,34.5,51.2,34.5,51.2,34.4c0.4,0.1,0.8,0.1,1.2,0C51.9,34.5,51.6,34.4,51.2,34.4z"/>
<path class="st0" d="M-33.3,36.1c2.5,0.3,3,0.2,2.9,0C-31.4,36.1-32.4,36.1-33.3,36.1z"/>
<path class="st0" d="M83.6,33.9C83,34,82.5,34.1,82,34.2c0.3,0,0.6,0,1,0C83.2,34,83.4,33.9,83.6,33.9z"/>
<path class="st0" d="M-30.9,34.6c-0.2,0-0.2,0.1-0.1,0.2c0,0,0,0,0,0.1c0.2-0.1,0.6-0.1,1.1-0.2c0.1,0.1,0.5,0.2,1,0.3
	c0.3,0,0.6,0,0.8,0c0.3-0.3-1.2-0.5-2.1-0.5C-30.5,34.5-30.7,34.6-30.9,34.6z"/>
<path class="st0" d="M83.1,34.7c-0.8-0.1-1.5-0.3-2.3-0.4c-1.4,0.3-2.7,0.7-3.6,1.1C79.7,35.2,81.7,35.1,83.1,34.7z"/>
<path class="st0" d="M24.6,34.7c0.8-0.1,1.7-0.2,2.5-0.3c0,0.1,0,0.2,0,0.3c2,0,4,0,5.9,0c0.4-0.4,1.4-0.7,2.6-0.8c0,0,0,0,0,0
	c-0.3-0.3,1.7-0.7,0-0.9c-0.3,0.5-2.5,0.5-2.9,1.1c-1-0.1-1.9-0.2-2.8-0.2c0,0,0.1,0,0.1,0c-0.7,0.1-1.9,0-1.9,0.3
	c1,0,1.2,0.5,0,0.5c0-0.2,0-0.4,0-0.5c-1.8,0-3.1-0.1-4.1-0.1C23.8,34.4,24.6,34.4,24.6,34.7z"/>
<path class="st0" d="M32.8,43.6c0.2,0.3,2.9,0.4,2.9,0c1.9,0.6,1.5,0.3,4.8,0.5C39.6,43.5,34.9,43.1,32.8,43.6z"/>
<path class="st0" d="M14.5,36.3c-0.6,0.2-1.1,0.2-1.6,0.3c0.1,0.1,0.1,0.1,0.1,0.2c1.8-0.2,4.8,0.3,6.3-0.5
	c-0.4,0.4,0.3,0.5,1.1,0.6c1,0,1.8,0,2.2,0.1c2.1-0.7,7-0.6,9.3-1.2c0.4,0.5-1.4,0.7,0,0.8c2.4-0.3,1-0.8,2.6-1.1c-2.5,0-5,0-7.4,0
	c0,0.1,0,0.2,0,0.3c-3.5,0.2-6.7,0.4-9.3,0c-1,0.1-2.1,0.2-3,0.3c-0.8-0.2-1.7-0.2-2.8-0.2c-0.2,0.1-0.4,0.2-0.3,0.5
	C12.7,36.3,13.8,35.9,14.5,36.3z"/>
<path class="st0" d="M22.8,34.3c-0.4-0.1-1-0.1-1.8-0.1c-0.5,0.1-1,0.3-1.7,0.5c0-0.2-0.8-0.3-1.4-0.4c-1.2,0.1-2.1,0.2-2.1,0.3
	C19.7,34.6,21.1,35.4,22.8,34.3z"/>
<path class="st0" d="M-130.5,20.1c0.5,0.5-2.3,0.8-0.6,1.1c0.5-0.3,1.3-0.7,2.3-0.4C-129,20.4-129,20-130.5,20.1z"/>
<path class="st0" d="M-129.3,19.2c1.7-0.1,3.5-0.1,4-0.5C-127.5,18.6-128.9,18.7-129.3,19.2z"/>
<path class="st0" d="M-100.4,13.7c-2.2,0.5-4.7,0-5.8,0.5c2.8,0,4.1,0.4,5.8,0.7c0-0.2,1-0.2,1.2-0.4
	C-102.3,14.7-101.3,14.1-100.4,13.7z"/>
<path class="st0" d="M-110.3,15.3c0.6-0.9-5.5,0-6.9,0.2c-0.1,0.5,1,0.4,0,0.7c4.2-0.5,8.9-0.9,12.2-1.2
	C-107.7,14.7-108.5,15.2-110.3,15.3z"/>
<path class="st0" d="M28,38.2c1,0.6,2.9,1.8,5.8,1.1c-3.7-1.2,0.2-0.3,3.9-0.8C35.7,37.5,31.9,38.3,28,38.2z"/>
<path class="st0" d="M-76.1,11.4c-0.1-0.5,3.6,0.1,3.5-0.4c-0.7,0-0.9-0.2-1.2-0.4C-75.3,10.6-77.3,11.2-76.1,11.4z"/>
<path class="st0" d="M-95.2,12.6c-0.5,0.3-2.5,0.5-3.5,0.2c-0.6,0.2-0.6,0.7-1.2,0.9c2.6-0.3,1.5,0.2,0.6,0.5
	c1.8-0.1,2.3-0.6,3.5-0.9c0,0.2,1,0.2,1.2,0.4c-1.2,0.2-2.5,0.3-2.9,0.7C-94.2,14.3-93.4,13-95.2,12.6z"/>
<path class="st0" d="M-31.6,6.6C-37,5.7-42.7,7.5-46,6.6c-0.1,0.3,0.2,0.7-0.6,0.7c-0.1-0.4-2.5-0.1-3.5-0.2
	c0.1,0.2-0.1,0.5,0.6,0.5C-44.9,7-40,7.2-33.3,7.3C-33.1,6.9-31.7,6.9-31.6,6.6z"/>
<path class="st0" d="M-70.9,11c1.1-0.4,3.9-0.3,5.2-1.1c-2.4,0-3.7,0.4-5.8,0.5C-71.4,10.7-71.6,11-70.9,11z"/>
<path class="st0" d="M-84.2,12.3c2.7,0.2,6.8,0.2,8.7,0C-77.9,11.7-83.1,10.9-84.2,12.3z"/>
<path class="st0" d="M-25.1,55.8c1.3-0.1,1.5-0.5,2.9-0.5c-0.6-0.4-2.1-0.5-3.9-0.5C-26.4,55.3-25.4,55.4-25.1,55.8z"/>
<path class="st0" d="M-32.8,54.7c1.2-0.4,4.2-0.3,6.8-0.3c-1.8-0.3-3.4-0.7-5.8-0.8C-31.7,54.1-33,54.2-32.8,54.7z"/>
<path class="st0" d="M-32.8,50.7c-1.9,0.2,1,0.4,1,0c1.9,0.1,0.8,1,3.9,0.8c0.3-0.5-0.8-0.5-1.9-0.5c0.5-1,0.3-1.1,1.9-2.2
	c-2.3-0.4-5.8,0.8-3.9-0.8c-2.8,1-6.5,1.3-10.6,1.4c-0.3,0.7,2,0.7,3.9,0.8c0-0.5,0.7-0.7,1.9-0.8c3.6,0.6-2.4,0.7-1,1.6
	c3.2-0.3,4.7-1,6.8-1.6C-29.1,49.4-31.8,50.4-32.8,50.7z"/>
<path class="st0" d="M-27.9,61.4c-1.3,0.3-1.9,0.7-3.9,0.8c0.9,0.6,7,0.4,5.8-0.5C-27.1,61.8-27.7,61.7-27.9,61.4z"/>
<path class="st0" d="M-24.1,41.7c0.1-0.7,1.7-0.9,2.9-1.3c-0.2-0.4-2.9-0.1-2.9-0.5c-2.1,0.4-1.9,1.4-4.8,1.6c1,0.4,2.6,0.5,2.9,1.1
	c3,0.1,2.5-0.7,4.8-0.8C-21.9,41.3-23,41.7-24.1,41.7z"/>
<path class="st0" d="M-19.3,45.2c-0.3-0.6-1.2-1.1-1.9-1.6c-2.6,0.5,1.9,1.5-1.9,1.9C-21.6,46.5-21.7,44.9-19.3,45.2z"/>
<path class="st0" d="M-42.4,62.5c-0.9,0.2-3.5,0.6-2.9-0.3c-1.2-0.1-3.3,0.8-1,0.8c0,0.5-2.6,0.3-1.9,1.1c3-0.3,3-1.4,6.8-0.8
	C-42,63.1-42.5,62.9-42.4,62.5z"/>
<path class="st0" d="M-40.5,54.2c-0.3,1,5.9-0.4,7.7-0.5C-34.7,52.3-36.5,54.4-40.5,54.2z"/>
<path class="st0" d="M-29.9,59c2-1.8-9.1,0.7-11.6-0.8c0.6-0.8,2.1,0.3,3.9,0c0-0.7-4.5-0.6-5.8-0.3c3.2,1,0.9,1-1.9,1.1
	c-0.7,1,3.7,0.6,3.9,1.3c1.4-0.2,1.4-0.9,1.9-1.3c0.8,0,1,0.3,1.9,0.3c-1.2,1.1-1.6,0.8-1.9,1.9C-35.2,60.9-35.6,58-29.9,59z"/>
<path class="st0" d="M-44.3,55.5c3.5-0.6-1.8-1.9,4.8-1.6C-42.2,52.2-46.9,54-44.3,55.5z"/>
<path class="st0" d="M3.9,37.1c0.8,0,1.5,0,2.1,0c-1,0-2-0.1-2.9-0.1C3,37.1,3.2,37.2,3.9,37.1z"/>
<path class="st0" d="M-16.4,45.2c-1.5-0.8,1.4-1.2-2.9-1.4C-19.2,44.6-19.1,45.3-16.4,45.2z"/>
<path class="st0" d="M22.3,37.1c-0.1,0-0.2,0-0.2,0C22.1,37.1,22.2,37.1,22.3,37.1C22.2,37.1,22.3,37.1,22.3,37.1z"/>
<path class="st0" d="M10.5,36.5c-0.8-0.1-1.7-0.1-2.8-0.1c-0.2-0.1-0.2-0.2-0.1-0.3c-1,0.1-1.9,0.2-2.9,0.3c0,0,0,0,0,0
	c-0.4,0-1.1,0.2-1.5,0.4C5.7,37,8.5,36.6,10.5,36.5z"/>
<path class="st0" d="M-11.1,36.6c0.1-0.1,0.3-0.2,0.4-0.3c-1.3,0-3,0-4.2-0.2c-0.4,0.1-0.8,0.2-1.2,0.4
	C-14.5,36.6-12.6,36.7-11.1,36.6z"/>
<path class="st0" d="M13.5,38.8c0.5-0.4,1.4-0.7,1.9-1.1c3.9,0.4,7.9,0.6,12.5,0c-3.5-0.2-6.6-0.5-8.7,0.3c-0.4-0.5,1.4-0.7,0-0.8
	c-3.6-0.2-5.6,0.8-7.7,0.3c0.1-0.1,0.2-0.2,0.3-0.3c-0.7,0-1.3,0-1.9,0c0,0.5,2.2,0.6,0.6,1.1c-4,0.3-3.8-0.6-6.8-0.5
	c-2.3,0.9,4.5,0.8-1,1.4C8.7,39.4,9.5,38.1,13.5,38.8z"/>
<path class="st0" d="M-6.7,39c2.4,0.7,8.4,0,8.7-0.8C-2.2,38.2-4.4,38.6-6.7,39z"/>
<path class="st0" d="M-11.5,38.8c2.7-0.4-2-1.2,1.9-1.1c2.7,1.6,6-1.6,8.7,0c2.3-0.5,2.6-0.5,1.8-0.9c-0.4,0-0.8-0.1-1.2-0.2
	c-1.3,0-1.8,0.1-1.7,0.5C-3.6,37-5.6,37-7.6,36.9c-3.2,0.3-6,1-10.7,1.3C-13.9,39.1-11.6,37.2-11.5,38.8z"/>
<path class="st0" d="M-16.4,37.7c0.4-0.4,0.7-0.6,1-0.8c-0.6,0-1.1,0-1.6,0C-17.1,37.1-17,37.4-16.4,37.7z"/>
<path class="st0" d="M-11.5,37.1c0-0.1,0-0.2,0.1-0.2c-0.4,0-0.9,0-1.3,0C-12.4,37-12,37.1-11.5,37.1z"/>
<path class="st0" d="M31.9,42.3c0,0.4,7.1,0.6,5.8-0.3C33.9,42.2,34.2,42,31.9,42.3z"/>
<path class="st0" d="M369.4,30.2c0.7,0.1,1.3,0.1,1.9,0.1c-0.3-0.1-0.7-0.2-1-0.3C369.9,30.1,369.5,30.1,369.4,30.2z"/>
<polygon class="st0" points="368.6,31.2 368.6,31.2 368.6,31.2 "/>
<path class="st0" d="M374,26.3C374,26.3,374.1,26.3,374,26.3c-0.3-0.1-0.6-0.1-1-0.1C373.4,26.2,373.7,26.3,374,26.3z"/>
<path class="st0" d="M367.6,29.2c-1-0.1-1.9-0.2-2.8-0.3c-0.4,0.1-1,0.1-1.6,0.1c0.4,0.3,1.4,0.2,1.4,0.5c0.3-0.1,0.4-0.2,0.1-0.5
	c0.4,0.3,1.1,0.4,1.8,0.6c0.1,0,0.2,0.1,0.4,0.1c0.7,0.2,1.5,0.3,1.9,0.5c0-0.2-0.1-0.4,0.3-0.5c-0.5-0.1-1-0.3-1.5-0.4
	C367.6,29.3,367.6,29.2,367.6,29.2z"/>
<path class="st0" d="M379.8,30.4c0.4,0,0.8,0,1.2,0C380.6,30.3,380.2,30.3,379.8,30.4C379.8,30.3,379.8,30.3,379.8,30.4z"/>
<path class="st0" d="M555.8,73.9c-2.5,0.1,1.3,0.5,0,1.1c-0.9-0.2-1.5-0.5-1.9-0.8c-4.6,0.3,3.5,1.4-3.9,1.1c0.2,0.3-0.2,0.5-1,0.5
	c1.5,0.4,5.8-0.7,8.7-0.8C558.4,74.2,555.8,74.4,555.8,73.9z"/>
<path class="st0" d="M517.2,76.6c4.3,0.1,7.4,0.6,11.6,0.8c-0.1-0.5,1.2-0.6,1-1.1C526,75.8,519.6,74,517.2,76.6z"/>
<path class="st0" d="M602.1,23.1c1.3-0.4,4.6-0.2,5.8-0.5C607.3,22.1,600.1,22,602.1,23.1z"/>
<path class="st0" d="M471.8,74.4c-1.8,0.5-1.7-0.2-4.8,0c0,0.6,1.7,0.8,1,1.6c3.3-0.1,1.2-0.7,4.8-0.3
	C471.4,75.1,470.8,75.3,471.8,74.4z"/>
<path class="st0" d="M359.9,29.6c0.1,0,0.2,0,0.3,0c-0.1,0-0.1,0-0.2-0.1C360,29.5,360,29.6,359.9,29.6z"/>
<path class="st0" d="M337.4,32.7c-0.2-0.2-0.6-0.4-0.7-0.7c0.2,0,0.4-0.1,0.6-0.1c-1-0.2-2-0.2-3-0.3c0.9,0.5-0.4,1.7,2.4,1.7
	c0.3-0.1,0.4-0.1,0.6-0.2C336.9,33,337.1,32.9,337.4,32.7z"/>
<path class="st0" d="M335.8,69.5c-1.9,0-3.8,0-5.8,0C329.8,70.9,336,70.9,335.8,69.5z"/>
<path class="st0" d="M339.7,69.5c0.3,0.4,1.7,0.4,1.9,0.8c1.4-0.2,3.1-0.4,2.9-1.1C342.2,69.2,342.4,69.8,339.7,69.5z"/>
<path class="st0" d="M338,29.3c-1.9,0-3.1-0.4-5.7-0.1c0.6,0.7,2.2,0.4,3.5,0.2c0,0.2,0.5,0.2,0.6,0.4c-1.3,0-2.2,0-2.3,0.4
	c2.9-0.2,2.5-0.3,5.1,0C339.4,29.7,338.9,29.5,338,29.3z"/>
<path class="st0" d="M345.4,70.1c2.5,0.3,6.3,0.4,5.8-0.8C349.4,69.9,345.3,68.6,345.4,70.1z"/>
<path class="st0" d="M368.6,25.8c-0.8-0.1-2.5-0.2-3.8-0.3c0.3-0.1,0.6-0.3,1-0.3c-0.8-0.2-2-0.1-2.1,0.4
	C365.6,25.4,367.2,26.2,368.6,25.8z"/>
<path class="st0" d="M356.1,65.8c-3.2,0.2-7.3,0.1-7.7,1.1c3.5-0.1,6-0.3,7.7,0C358.5,66.8,354.7,66.4,356.1,65.8z"/>
<path class="st0" d="M672.5,45c-1.4,0.2-3.7,0.2-2.9,1.1c1,0,1.9,0,2.9,0C672.5,45.7,672.5,45.3,672.5,45z"/>
<path class="st0" d="M683.1,61.4c0.7-0.7-1.9-0.5-1.9-1.1c-3.8,0.3-3.6,0.1-7.7,0.3c0.7,1.1,5.2,0.1,4.8,1.1
	c3.1-0.9,0.4,0.8,3.9,0.5c0.2-0.3-0.2-0.5-1-0.5C681.2,61.5,682.4,61.5,683.1,61.4z"/>
<path class="st0" d="M667.7,43.4c-2.5,0-2.3,1-1,1.3c1.4-0.3,2.3-0.3,2.9,0.3C674.2,44,667.5,44.4,667.7,43.4z"/>
<path class="st0" d="M367.7,25.1c0.4,0,0.8,0,1.3,0.1c-0.2-0.1-0.4-0.1-0.6-0.1L367.7,25.1C367.7,25,367.7,25.1,367.7,25.1z"/>
<path class="st0" d="M331,33.4c0.2-0.2,0.8-0.3,1.9-0.3c-2.5-0.7-1-0.7-0.2-1.5c-1.6,0-3.2,0.1-5,0.3c-0.1,0.1-0.3,0.3-0.6,0.4
	C330.6,32,327.9,33.5,331,33.4z"/>
<polygon class="st0" points="195.9,25 195.9,25 195.9,25 "/>
<path class="st0" d="M628.1,11.8c3.8-0.2,5.6,1.1,8.7,0.3c0.5-0.4-3.8-0.7-1-0.8c-3.3-0.3-5.5-0.8-9.6-0.8
	C626.6,10.9,629,10.9,628.1,11.8z"/>
<path class="st0" d="M603.1,16.9c2.9,0.3,5.3,0.2,9.6,0.5c-3.3-0.6-0.3-0.4,1.9-0.8c2,0.1-1.4,0.7,1,1.1c1.3-0.3,3.5-0.3,4.8-0.5
	c-0.2-0.3-1-0.1-1,0c0.6-1.1-12-1.9-19.5-1.7v0.4C601.8,16.1,605.7,15.9,603.1,16.9z"/>
<path class="st0" d="M602.1,17.4c0-0.5-0.9-1-2.1-1.3v1.6C600.8,17.6,601.5,17.6,602.1,17.4z"/>
<path class="st0" d="M346.8,27c0.8-0.4-1.7-0.7,0-0.9c1.5,0.4,0.5,0.7,1.2,1.1c2.9-0.1,3.1-0.1,5.2-0.2c-0.5-0.4-0.3-0.5-0.1-0.7
	c-1.2,0.1-2.8,0.1-3.8-0.2c0-0.2,0.1-0.4,0.2-0.6c-2.2,0-3.7,0.3-5.4,0.8c1,0.2,1.8,0.4,2.4,0.7C346.6,27,346.7,27,346.8,27z"/>
<path class="st0" d="M635.9,21.8c1.6,0.5-0.1,0.3,0,1.1c3.3-0.2,1.2,1.1,4.8,0.8c-1.6-1,0.6-0.4,1-1.3
	C638,22.6,638.9,21.6,635.9,21.8z"/>
<path class="st0" d="M641.7,63.3c-0.5,0.9,5.2,0.2,5.8,0.8C650.3,63.6,644.6,63.2,641.7,63.3z"/>
<path class="st0" d="M628.1,24.5c-2.1-0.3-5.2,1.1-8.7,0.3c-2.4,1.6,10.6-0.5,10.6,1.4c1.7-0.1,2.2-0.5,1.9-1.1
	C629.8,25.2,625.5,24.7,628.1,24.5z"/>
<path class="st0" d="M612.7,20.9c1.9,0.3-0.3,0.9-1,0.3c-1.4,0.1,0.4,0.3,0,0.8c6.7-0.3,13-0.6,19.3,1.4c1.2-0.4,5.1,0,3.9-1.1
	C625.8,22.3,620.9,21.2,612.7,20.9z"/>
<path class="st0" d="M656.1,19.9c-0.8,0.1-1.6,0.3-2.9,0.3c-0.4-0.5,0.8-0.5,1.9-0.5c-3.3-0.3-5.1-1.3-10.6-1.6
	c0.7,0.5,2.6,0.7,4.8,0.8c-6.1,1.3,9.8,2.5,1.9,3.5c-4-0.3,1.5-1.6-4.8-1.4c-0.5,0.6,1.8,0.4,1.9,0.8c-6.4-0.4-12.7-1.5-22.2-1.9
	c5.1,0.6,13.2,2.4,20.3,2.2c1.1,0,0.8,0.5,0.9,0.8c0.2,0.6-3.4,0.1-4.8,0.3c-0.3,1.2,3.5,0.7,5.8,0.5c1.2,0.9-3.1,0.2-1.9,1.1
	c2.3,0,2.8-0.5,5.8-0.3c0.1-0.8-2-1-2.9-1.6c1.5-0.7,2.8,1,3.9,1.4c2.9-0.2-0.9-0.6,0-1.1c1.4,0.2,3.7,0.2,2.9,1.1
	c3,0.1,1.9-1.6,3.9-0.3C661.9,22.7,657.9,20.9,656.1,19.9z"/>
<path class="st0" d="M667.7,33.9c-0.3,0.6,0.2,1,1,1.3c1.3-0.1,1.5-0.5,2.9-0.5c1.7,0,2,0.3,3.9,0.3c-0.6-0.6-2-0.9-2.9-1.3
	C670.2,33.5,670.4,34.1,667.7,33.9z"/>
<path class="st0" d="M670.6,39.6c-3.9,0.8-0.1,2.5,1,3.5c1-1,2.8-1.7,3.9-2.7C673.6,40.9,669.5,40.7,670.6,39.6z"/>
<path class="st0" d="M666.7,30.4c0.5,0.2,1,0.4,1,0.8c2.5-0.1,3.3-0.2,5.8-0.8c-0.9-0.9-2.7-1.6-5.8-1.9
	C667.9,29.1,670.3,30.2,666.7,30.4z"/>
<path class="st0" d="M289.1,32c-1.1,0-2.2,0-3.3,0C287.5,32.3,288.5,32.2,289.1,32z"/>
<path class="st0" d="M287.2,31.1c-2.8,0-6-0.5-7.6,0.1c-0.1,0.1-0.1,0.1-0.1,0.2C281.8,31.1,286.4,32.1,287.2,31.1z"/>
<path class="st0" d="M264.1,32.5C264.1,32.5,264.1,32.5,264.1,32.5c-0.7-0.1-1.4-0.1-1.9-0.2C262.5,32.5,262.9,32.6,264.1,32.5z"/>
<path class="st0" d="M308.6,33c0.1,0.2-0.2,0.2-0.6,0.2c-0.1,0.2,0.2,0.2,0.6,0.2c-0.4,0.2-1.8,0.2-4.1,0.2c0.4,0.2,0.9,0.3,1.4,0.4
	c0.6-0.1,1.2-0.1,1.8-0.3c0.2,0.3-0.2,0.8,1,0.8c1.4-0.1,5,0.3,4.8-0.3c-1.4-0.4-5.5-0.1-4.8-1.1c1.3,0.1,2,0.1,2.5-0.1
	c-1-0.4-2.2-0.4-3.4-0.5c0,0.1,0,0.2,0,0.3c-0.7,0-1.2,0-1.7,0.1C306.7,33,307.6,33.1,308.6,33z"/>
<path class="st0" d="M235.2,34.1c-0.4-0.2-0.1-0.4,0.2-0.6c-0.6-0.1-1.2-0.1-1.8-0.2c-0.5,0.2-0.9,0.5-1,0.8
	C233.3,34.1,233.8,33.9,235.2,34.1z"/>
<path class="st0" d="M259,32.3c-0.1-0.3-0.3-0.6,0.6-0.9c1.7,0.2,3.2,0.3,3.9,0.1c-0.3,0-0.5-0.1-0.5-0.1c-0.2-0.2,0.4-0.2,1.1-0.2
	c0-0.2-0.2-0.3-0.6-0.6c0.1,0,0.1,0,0.2,0c-0.1-0.1-0.2-0.3-0.7-0.3c-0.7,0.4-3.2,0.2-3.5,0.7c1.4-0.1,3-0.4,2.9,0.4
	c-1.2-0.4-1.9,0.2-2.9-0.2c-0.3,0.5-2,0.6-2.3,1.1C257.8,32.3,258.4,32.3,259,32.3z"/>
<path class="st0" d="M307.8,35.3c-0.3,0.4,0.9,0.5,1,0.8c-2.4-0.8-5.7-0.1-3.9,0.8c-3.5-0.9-9.4-1.3-11.6,0.3
	c2.5,0.2,3.5-0.1,2.9-0.8c3-0.1,2.7,0.7,3.8,1.1c1.8-1.2,1.4-0.3,5.8-0.3c0-0.4,0-0.7,0-1.1c0.7,0.4,3.1,0.4,2.9,1.1
	c2.3-0.1,3.6-0.4,6.8-0.3c-3.1-0.9,2.6-1,4.8-0.5C321.2,34.9,309.2,35.8,307.8,35.3z"/>
<path class="st0" d="M225.2,33.4c-0.4,0-0.9,0-1.4-0.1c0,0,0,0,0,0C224.3,33.4,224.8,33.4,225.2,33.4z"/>
<path class="st0" d="M256,31.3c-0.8,0-1.9,0-2.8,0c-0.1,0.1-0.3,0.2-0.4,0.3c1.4,0,1.3,0.6,2.6,0.6C255.2,31.7,255.5,31.5,256,31.3z
	"/>
<path class="st0" d="M341,26.5c-1.2-0.4-1.1,0.1-2.3,0.2c-0.1-0.2-0.6-0.3-1.2-0.4c0,0.2,0,0.5,0,0.7
	C339.6,27.1,340.6,26.8,341,26.5z"/>
<path class="st0" d="M336.4,27c0.7-0.2,0.7-0.6,0.6-1.1c-0.2,0-0.3,0-0.5,0c-0.6,0.2-1,0.3-1.2,0.5C335.5,26.7,335.3,27.1,336.4,27z
	"/>
<path class="st0" d="M346.8,28.8c-0.3,0-0.5,0-0.7,0c-0.2,0.3-1.3,0.7,0.3,0.8c0.2,0,0.3-0.1,0.4-0.1
	C346.4,29.3,346.1,29.2,346.8,28.8z"/>
<path class="st0" d="M330.9,30.1c0.4,0,0.7-0.1,1.1-0.2C331.5,30,331.1,30.1,330.9,30.1z"/>
<path class="st0" d="M222.4,32.3c-0.1,0-0.1,0-0.1,0C222.3,32.3,222.4,32.3,222.4,32.3C222.4,32.3,222.4,32.3,222.4,32.3z"/>
<path class="st0" d="M329.2,31.1c-0.1-0.1-0.2-0.2-0.2-0.3c-0.2,0-0.4,0-0.6,0c-0.1,0-0.2,0-0.3,0c0,0.1,0.1,0.2,0.1,0.3
	C328.4,31,328.8,31,329.2,31.1z"/>
<path class="st0" d="M316.5,34.4c0.2-0.5,1.6,0.2,1.9-0.3c-1.4-0.4-1.3-0.7-0.6-0.9c-0.5,0-1.1-0.1-1.6-0.1
	C316.3,33.6,315.6,34.1,316.5,34.4z"/>
<path class="st0" d="M312.1,32.6c0.3-0.2,0.7-0.3,1.5-0.3c-1-0.2-3-0.2-2.7,0.4C311.3,32.7,311.7,32.6,312.1,32.6z"/>
<path class="st0" d="M343.7,27.2c0.1-0.3-0.1-0.4-0.6-0.5c-0.5,0.2-1,0.3-1.5,0.5C342.4,27.2,343.1,27.2,343.7,27.2z"/>
<path class="st0" d="M218.7,30.1c-0.5-0.1-1.1-0.2-1.5-0.3c-0.4,1.3-3.4,0-4.6,0.7c1.3,0.1,2.3,0.2,3,0.2
	C216.9,30.6,217.9,30.4,218.7,30.1z"/>
<path class="st0" d="M272.1,33.9c0,0.3-1.2,0.2-1.9,0.3c0.8,0.8,1.4,0.3,3.9,0.3c0-0.5,0-0.9,0-1.3
	C271.4,33.1,270.7,33.5,272.1,33.9z"/>
<path class="st0" d="M247,69.8c-0.4,0.9,5.6,1.1,4.8,0C248.9,70,250,70,247,69.8z"/>
<path class="st0" d="M250.9,32.3c0.2,0,0.3,0.1,0.4,0.1c0.6,0,1.2,0,1.8-0.1c-0.4-0.1-1.1-0.1-1.8-0.2
	C251.2,32.2,251,32.3,250.9,32.3z"/>
<path class="st0" d="M282.7,37.4c2.8,0.8,4.8-0.3,6.8-0.5c-1-0.4-4.1-0.3-5.8-0.5C283.8,36.8,282.5,36.9,282.7,37.4z"/>
<path class="st0" d="M266.3,32.6c-0.7,0-1.3,0-1.9,0c-1.2,0.2-2.4,0.3-3.6,0.4c1.1,0.2,3.2,0.1,2.6,0.7c-0.6,0-1.1,0-1,0.3
	c-0.1,0.2-0.1,0.3-1,0.3c0-0.9-5.6-0.2-5.9-1c-0.8,0-1.5,0-2.3,0c0.5,0.3,0.8,0.7,0.5,1.3c4.2,0.3,9.4,0.2,11.6-0.8
	C263.4,33.1,265.8,33.1,266.3,32.6z"/>
<path class="st0" d="M295.3,38.8c3.6-0.6,2.9,0.5,7.7,0.3c-0.2-0.4-2.9-0.1-2.9-0.5c-0.3-0.7,3.8,0.7,2.9-0.5
	c5.7,0.5,8.9-0.1,17.4-0.5C317.1,36.4,300.2,37.7,295.3,38.8z"/>
<path class="st0" d="M293.3,33.9c1.1,0.4,0.8,1.2,3.9,1.1c0.2-1.3,3.3-1,6.5-1c-0.7-0.1-1.3-0.1-2-0.1c1.7-0.2,1.8-0.4,1.3-0.7
	c-1.5-0.1-3.2-0.1-3.8-0.4c1.1-0.3,3-0.3,4.6-0.4c0.2-0.2,0.6-0.4,1.2-0.5c-0.2,0-0.5-0.1-0.7-0.1c-2.6,0.8-5.2,0.8-9.5,0.8
	c0.3-0.2,0.7-0.4,1.7-0.4c-1.1,0-2.7-0.1-4.6-0.1c-0.1,0.1-0.2,0.3-0.5,0.5c-2-0.2-6.6,0.4-5.8-0.5c-1.8,0.1-3.5,0.1-4.8,0.3
	c0.3,0.1,0.6,0.1,0.9,0.2c-0.9,0-1.7,0-2.4,0.1c-0.1,0-0.1,0-0.2,0c-0.2,0-0.4,0-0.5,0c-2.1,0.2-3.6,0.5-3.6,1.2
	c5.4,0.4,6.8,0,11.6-0.3c0.9,1-4.7,0.1-2.9,1.3c2.9-0.2,5.1-0.5,6.8-1.1c-0.6,0.7,0.4,1,2.9,0.8C293.2,34.4,291.5,33.2,293.3,33.9z"
	/>
<path class="st0" d="M312.6,57.9c2.3,0.2,4.5,0.4,4.8-0.5C315.6,57.5,311.6,57,312.6,57.9z"/>
<path class="st0" d="M208,33.6c0.1,0,0.3,0,0.4-0.1C208.2,33.5,208.1,33.6,208,33.6C208,33.6,208,33.6,208,33.6z"/>
<path class="st0" d="M208.6,33.9c0.7,0.3,1.6,0.2,2.7,0.5C211.2,34,209.9,33.9,208.6,33.9z"/>
<path class="st0" d="M212.3,33.9c3-0.1,5.5-0.3,7.7-0.5c0.1-0.1,0-0.2-0.1-0.2c-2.7-0.1-5.4-0.1-6.8,0.4c-0.9-0.1,0.2-0.2,0-0.5
	c-0.9,0.1-2,0.2-3,0.3C211.3,33.4,213.3,33.2,212.3,33.9z"/>
<path class="st0" d="M212.7,32.6c1.3,0.1,2.5,0.1,3.7,0.1c-0.3-0.1-0.4-0.2-0.2-0.4C215.2,32.4,213.9,32.5,212.7,32.6z"/>
<path class="st0" d="M231.6,67.1c-5.2,0.4-8.2-0.1-12.5,0.3c0,0.4,0,0.7,0,1.1c2.2-0.3,4.2-0.6,6.7-0.8c1.4,0.1-0.4,0.3,0,0.8
	c3.5,0.2,5.1-0.2,6.8-0.5C232,67.7,231.6,67.5,231.6,67.1z"/>
<path class="st0" d="M246.5,33.1c-0.7,0-1.4,0-2.1,0c-0.2,0.2-0.2,0.4,0.2,0.6c0.5,0,1,0,1.5,0.1c0,0.1-0.1,0.1-0.3,0.2
	c0.3,0,0.7,0,1.2,0C247.5,33.5,247,33.3,246.5,33.1z"/>
<path class="st0" d="M234.5,35.8c-2.1,0-0.4,1-1,1.3c3,0,5.7-0.2,5.8-1.1C236.5,35.3,234.9,37,234.5,35.8z"/>
<path class="st0" d="M222.9,36.6c-4.1-0.2-3.9,0-7.7-0.3c1.3,0.8-1.7,1.6-2.9,0.8c-2.9,0.2,0.9,0.6,0,1.1c1.8-0.5,2.4,0,4.8,0
	C214.3,37.4,222.5,37.9,222.9,36.6z"/>
<g>
	<path class="st1" d="M184.3,6.6c0.9-0.8,9.8,0.7,8.1-0.5c0,0.6-6.4,0-4.1-0.7c-1.6,0-1.2,0.3-2.3,0c-0.1,0.2,0.1,0.5-0.6,0.5
		c-1.4,0-2.8,0-2.9-0.4c1,0,1.8,0,2.3,0.2c0.2-0.5-1.9-0.4-2.9-0.5c0.5,1-3.4,0.4-3.5,0C177.5,6.5,182.8,6,184.3,6.6z"/>
	<path class="st1" d="M209.1,5.7c0,0.2,0,0.5,0,0.7c1.4,0,1.8-0.3,2.3-0.5C210.3,5.9,210.2,5.7,209.1,5.7z"/>
	<path class="st1" d="M232.8,10.5c1.7,0.2,3.8,0.1,2.3-0.4c0,0.2-1.6,0.2-1.7,0c0.2-0.7,2.6-0.5,3.5-0.2c0.2-0.4-1.1-0.4-0.6-0.9
		c-2,0.1-3.2-0.1-4.6-0.2c1,0.6,1.1,0.5-0.6,0.9C232,9.9,233.4,9.9,232.8,10.5z"/>
	<path class="st1" d="M170.9,6.2c-1.3-0.1-3.7-0.4-4.1,0.2C167.8,6.7,170,6.4,170.9,6.2z"/>
	<path class="st1" d="M236.3,8c-0.1,0.5,1,0.4,0,0.7c1.4,0,2.8,0,2.9-0.4c-0.8-0.2-1.8-0.3-1.7-0.7c2.6-0.2,5.1-0.2,6.9,0.2
		c1.2-0.2,2-0.4,2.9-0.7c-0.1-0.5-0.8-0.7-2.3-0.7c-1.1,0.2-0.9,0.8-2.9,0.7c-1-0.2-1.8-0.4-2.3-0.7c1.4-0.2,2.4-0.5,2.9-0.9
		c-3.1-0.2-3.2,1.4-5.2,0.9c-0.2-0.6,2.2-0.4,2.3-0.9c-5.2-0.7-1.3,1.5-4.6,1.1c-0.3,0.6,2.1,0.4,1.7,1.1c-1.6,0.2-3.9,0.2-4.1,0.9
		C235.7,8.9,234.4,7.9,236.3,8z"/>
	<path class="st1" d="M300,8.3c-3,0.1-6.9,0-8.1,0.7C295.6,8.8,298.7,9.4,300,8.3z"/>
	<path class="st1" d="M304.6,8.2c0-0.2,0-0.5,0-0.7c-2-0.4-1.9,0.4-3.5,0c-0.1,0.3,0.6,0.4,0.6,0.7c-0.7,0-1.4,0.1-1.2,0.4
		C302.3,8.5,303.3,8.3,304.6,8.2z"/>
	<path class="st1" d="M304.6,8.7c3,0.3,3.5-1,5.8-0.4c-0.2,0.8-2.9,0.9-5.2,1.1c0-0.2,0-0.4,0-0.5c-1.6,0-1.2,0.3-2.3,0
		c-0.1,0.2,0.1,0.5-0.6,0.5c-4.9-0.6-14,0-15.6,2c1.7,0.3,3.9,0.1,1.7,0.7c2.6,0.3,3.5,0.9,6.4,0.4c0.3-0.6-1.4-0.7,0.6-0.9
		c1.9,0,4,0.3,5.3,0.3c-0.6-0.1,0.7-0.8-0.7-0.7c-1.1,0.2-3.5-0.4-5.8,0c-1-0.2-2-0.3-1.7-0.9c4,1.1,10.2-1.4,13.9,0.4
		c0.3-0.3-0.7-1,0.6-1.1c5.1,0.7,2.3-0.1,6.9,0.4c-0.8-0.7,1.6-0.3,1.2-0.9c-0.4-0.3-1.7-0.1-0.6-0.5c-1,0-1.9,0-2.9,0
		c0.9-0.7-1.5-0.4-1.7-0.7c1.1-0.5,3.8-0.5,4.1-1.2c-2.2,0.1-2.1,0.2-3.5-0.2c-0.8,0.5-1.6,1-2.3,1.6c-0.9-0.1-0.5-0.6-2.3-0.4
		C306.4,8.3,304.3,8.1,304.6,8.7z"/>
	<path class="st1" d="M301.1,11.9c-0.1,0-0.3,0-0.5,0C300.7,11.9,300.9,11.9,301.1,11.9z"/>
	<path class="st1" d="M249.1,8.9c0.9,0,2.1,0.1,2.3-0.2c-1.7-0.2-0.7-0.3-0.6-0.7C248.8,8.1,248.3,8.4,249.1,8.9z"/>
	<path class="st1" d="M275.7,5.2c0,0.3-1.6,0.1-1.7,0.4c1.4,0,1.8,0.3,2.9,0.4C277,5.5,276.7,5.2,275.7,5.2z"/>
	<path class="st1" d="M165.2,6c0.7-0.7-4-0.7-4.1-0.2C162.3,6.3,163.9,5.6,165.2,6z"/>
	<path class="st1" d="M276,9.3c-0.8-0.1-1.5-0.1-2.6,0.1c-0.1,0.4,0.3,0.7,1.2,0.9c-0.2-0.6,1.7-0.5,2.3-0.9
		C276.5,9.4,276.3,9.4,276,9.3c0.6-0.1,0.6-0.3,0.4-0.5c3.3,0,6.1,0.1,10.3,0.2c0-0.2,0-0.5,0-0.7c-1,0-2.9,0.2-2.3-0.4
		c1.6-0.1,1.5,0.3,2.9,0.2c0.8-0.5-0.2-0.7,1.2-1.2c-5.2,0.1-4.9,0.2-9.3,0.2c-0.2,0.3,0.8,0.4,1.2,0.5c-0.7,0.1-1.5,0.2-2.9,0.2
		c-0.4,0.4,0.1,0.7-1.2,1c-0.7-0.4-2.7-0.8-5.1-0.5C271.1,9.1,276,8.5,276,9.3z"/>
	<path class="st1" d="M350.3,16.9c0.6-0.2,1.1-0.3,1.6-0.4C350.8,16.3,350.2,16.5,350.3,16.9z"/>
	<path class="st1" d="M360.1,20.2c0.4,0.5-0.6,0.6-0.6,1.1c0.7,0,1.3,0.3,1.7,0C359.8,21.2,362.7,20.3,360.1,20.2z"/>
	<path class="st1" d="M40.8,4.8C37.8,5,34,4.1,33.2,5C36.8,5.5,38.2,5.6,40.8,4.8z"/>
	<path class="st1" d="M45.4,5c1.5,0.4,2.8,0.2,4.1,0.4C48.9,4.9,45.6,4.4,45.4,5z"/>
	<path class="st1" d="M47.1,6C47,6.2,46.5,6.3,46,6.4c-0.5-0.7-2.3-0.5-3.5-0.7C42.6,6.3,48.9,6.9,47.1,6z"/>
	<path class="st1" d="M311.7,13.4c-2.7,0.1-4.1,0.5-3.8,1.4C310.6,14.7,312.4,14.4,311.7,13.4z"/>
	<path class="st1" d="M352.2,16.6c0,0,0-0.1,0-0.1c-0.1,0-0.3,0-0.4,0.1C352,16.6,352.1,16.6,352.2,16.6z"/>
	<path class="st1" d="M148.4,4.3c-2.9,0.1-7.3-0.2-9.3,0.2C142.5,4.9,147.6,4.6,148.4,4.3z"/>
	<path class="st1" d="M152.4,4.6c0.8,0,1.1,0.3,2.3,0.2C153,4.1,146.7,4.5,152.4,4.6z"/>
	<path class="st1" d="M118.9,6.6c-3.2-0.2,1.4-1.7-2.3-1.2c1.7,0.2-1.9,0.2-1.7,0.5c0.9,0,2,0,1.7,0.4c-1.8-0.2-2-0.1-2.3,0.5
		C116.2,6.8,117.9,7.1,118.9,6.6z"/>
	<path class="st1" d="M160.5,5.5c-2,0.2-5.8-0.1-9.3,0c0-0.3,2.4-0.6,0-0.5c-0.5,0.3-1.3,0.6-2.3,0.7C151.7,6,157.4,6.4,160.5,5.5z"
		/>
	<path class="st1" d="M117.1,7.3c-1,0-1.8,0-2.3-0.2c1.1,0.5-0.8,0.9,1.2,1.1C115.5,7.6,116.9,7.6,117.1,7.3z"/>
	<path class="st1" d="M126.4,7.5c1.6-0.8,5.6-0.3,8.1-1.1c-1,0-0.3-0.5-1.2-0.5c0,0.5-1.3,0.7-2.3,0.9c-1.1-0.6-3.5,0-5.2-0.5
		c1.8-0.3,0-0.6,1.7-0.9c-3.3,0.2-4.9-0.1-6.4,0c1.5,0.3,3.3,0.4,3.5,1.1c-1.6-0.1-1.4-0.7-3.5-0.7C121,6,122,6,122.3,6.2
		c-2,0-2.5-0.3-3.5,0.2c2.6,0,3.5,0.5,4.6,0.9C124.6,6.9,127.8,6.8,126.4,7.5z"/>
	<path class="st1" d="M156.5,4.8c1.8,0,2.8,0.2,4.1,0.4C161.3,4.5,157.1,4.4,156.5,4.8z"/>
	<path class="st1" d="M543.2,3.9c1.7-1.1,9.2-0.7,9.6-2.2c3.3,0,6.7-0.1,7.7,0.5c1.8-2.3-21.3-0.4-25.1,1.3
		C537.9,4.5,541.9,2.6,543.2,3.9z"/>
	<path class="st1" d="M575.1,0.7C586.8,0.8,578-0.9,575.1,0.7L575.1,0.7z"/>
	<path class="st1" d="M565.4,4.5c-1.9,0-1.2,0.7-3.9,0.5c1,0.4,4.1,0.3,5.8,0.5C568.5,4.7,564.2,5.4,565.4,4.5z"/>
	<path class="st1" d="M577,5c5.5,0.7,17.6-0.6,2.9-0.3C579.7,5.1,578.1,5,577,5z"/>
	<path class="st1" d="M219,13.1c1.1,0.1,1.1,0.5,2.9,0.4c-0.1-0.5,0.7-0.8,1.2-1.2C220.2,12.1,219.1,12.5,219,13.1z"/>
	<path class="st1" d="M319.1,10.5c0.8-0.6,3-0.7,3.5-1.4c2.2,0.1,0,0.6,1.2,0.9c1.4-0.1,4.2,0.2,4.6-0.2c-1.9-0.2-0.5-0.4,0-0.7
		c-3.2,0.3-2.4-0.3-4.6,0.2c-0.1-0.3,0.2-0.7-0.6-0.7c-0.7,0.6-3.8-0.3-4,0.2c1,0.2,2,0.5,2.3,0.9c-1.2-0.2-1.2-0.2-0.6,0.2
		c-1,0-1.8,0-2.3-0.2C318.8,9.8,317.8,10.5,319.1,10.5z"/>
	<path class="st1" d="M398.9,4.6c-0.3-0.6,1.6-0.5,1.7-0.9c-1.6,0.3-2.9,0.8-5.2,0.9C396.2,4.9,398.2,4.9,398.9,4.6z"/>
	<path class="st1" d="M413.8,5.3c-1.9,0.1-2.1-0.3-3.9-0.2c-1.2,0.4-0.8,0.4-0.6,1.1c1.3-0.2,3-0.2,4.2-0.3c0.1,0.1,0.3,0.1,0.5,0.2
		c3.2,0,3.3-0.9,6.8-0.8c-1-0.4-4.1-0.3-5.8-0.5C414.7,5,414.2,5.2,413.8,5.3z"/>
	<path class="st1" d="M418,4.8c5.4,0.2,9.4-0.9,13.3-0.5c-0.8,0.1-1.4,0.3-1.7,0.5c1.4,0,2.3-0.2,3-0.4c0.9,0.5,3.4,0.5,2.7,1.4
		c1.1-0.3,3.4-0.3,5.8-0.3c-0.9-0.5-3.4-0.7-4.8-0.3c1.5-1.2,5.1-0.7,7.7-1.1c-0.4-0.6-4.8-0.1-6.8-0.3c2.2,1.1-1.3-0.2-3.7,0
		c0.1-0.1,0.2-0.1,0.3-0.2c-5.7,0.4-8.6,0.1-15-0.2C420,4.5,418.6,4.6,418,4.8z"/>
	<path class="st1" d="M600,7.9c-3.6-0.5-6.4-1.1-10.5-1.3c-6.3-0.3-17.5-0.1-24.1-0.3c-8.9-0.3-16.5,1.4-26.1,0.3
		c4.4-2.2-15.9-1.7-20.3-0.5c2.6,0.1,7.3,0.2,12.5,0.3c-0.3,0.6-4.2,0.1-4.8,0.5c1.2,0.4,3.3,0.5,5.8,0.5c-3.1,0.7-9,0.7-14.5,1.3
		c-1-0.5-3.6-0.6-4.8-1.1c-1.5,0.2,0.3,0.4-1,1.1c0.8-0.1,1.6-0.3,2.9-0.3c-0.1,0.8-6.7,0.5-3.9,1.4c-2.7-0.2-2.5,0.4-4.8,0.3
		c-1.7-0.2-1.6-1-3.9-1.1c0.1-0.6,4.1-0.1,5.8-0.3c0.1-0.5-1.2-0.6-1-1.1c-3.6,0.1-3.5,1.2-8.7,0.8c1.2,0.3,7.7,1.5,1,1.6
		c4,0.7,6.4,0.2,11.6,0.5c-0.9,0.9-9.1-0.2-8.7,1.6c1.3,0,2.6,0,3.9,0c-1.6-1.4,4.8,0.4,6.8-0.3c0.1-0.7-1.6-0.5,0-1.1
		c2.8,0.3,5.8-0.2,10.6,0c-0.8,0.5-4.3,0.5-1.9,1.1c-4.7-0.3-3.9,0.2-7.7,1.1c2.8,0.6,11.5-0.4,8.7,0.5c5.4-0.2,12-2.9,21.2-2.2
		c-0.2-0.3-1.9-0.2-1.9-0.5c0.2-0.7,1.7,0.4,3.9,0c0.4,1.4-4,0.7-7.7,1.4c3.1,0.4,11.8-0.4,16.4,0.3c-5.8,0.7-1.8,1.4-8.7,1.3
		c-2.3-0.1,1.1-0.7,1.9-0.8c-1-0.7-4.3,0.2-3.9,0.8c-4.2-0.3-8.4-0.8-13.5-0.5c1.7,0.9,8.3-0.1,10.6,1.1c-1.2,0.4-4.6,0.4-1.9,1.1
		c-1.1-0.2-2.6-0.4-4.8-0.3c0-0.3,1.2-0.2,1.9-0.3c-4.2-0.1-12-1.4-16.4-0.3c-1.3-0.2-1.8-0.6-1.9-1.1c-2.4,0.3-5.2,0.6-1.9,1.1
		c-4-0.2-6.3-0.9-6.8-2.2c-3,0.8-5.6,0.3-10.6,0.3c0.7-0.5,2.9-0.6,3.9-1.1c-3.2-0.2-3.1-0.4-7.7-0.5c0.1,0.7-1.6,0.5,0,1.1
		c-0.8-0.1-1.6-0.3-2.9-0.3c3.3-0.9,1-1.6,4.8-2.2c-0.9-0.5-4.9,0.4-7.7,0.3c-1-1.4,5.8-0.7,4.8-2.2c-1.9-0.1-6.2,0.4-3.9,0.5
		c-7.6,2.2-21.7,0-26-1.9c2.1-1,2.6,0.7,5.8,0.3c0.1-1,1.9-1.2-1-1.6c-2.8,0.1,1.5,0.4,1,0.8c-5.1-0.8-6.4,0.3-11.6-0.5
		c0,0.3,0,0.5,0,0.8c-5.5,0.1-8.1-0.5-14.5-0.3c0.6-0.3,2.2-0.3,1.9-0.8c3.1-0.1,4.1,0.5,7.7,0.3c-3.5-1-4.4-0.5-8.7-1.3
		c-0.6,0.9-2.1,1.6-4.8,1.9c0.1,0.8,4,0.5,6.8,0.5c-1.6,0.2-1.6,0.8-2.9,1.1c-2.5,0.1-2.5-0.6-2.9-1.1c-4.2,0.6-6.9,0.8-12.8,0.8
		c0.1,0,0.2-0.1,0.3-0.2c-2.4-0.1-4.5,0-6.5,0.1c1.6-0.6-1.3-1.1,1.7-1.5c-3-0.1-10.1,0.8-15.7,0.9c-1.1-0.2-2.1-0.2-2.9-0.1
		c-1-0.1-1.9-0.2-2.7-0.4c-1.1,0.2,0,0.5,1.5,0.7c-0.5,0.2-0.8,0.5-0.9,0.7c0.6-0.2,1.3-0.4,2.1-0.6c0.8,0.1,1.6,0.2,2.2,0.2
		c1.6-0.9,4.5-0.3,7.7-0.3c0.5,0.6-1.4,0.5-2.9,0.5c0,0,0,0.1,0.1,0.1c-0.5,0-1.1-0.1-1.6-0.1c-0.2,0-0.3,0-0.5-0.1
		c-0.6-0.1-1.2-0.2-1.8-0.3c-0.1,0.1-0.1,0.2-0.2,0.3c-2.7,0.1-6.4,0.5-7.5,0.1c0-0.3,1.2-0.2,1.9-0.3c-0.4-0.3-1.2-0.6-2.9-0.5
		c0.2,0.2-0.4,0.3-1,0.3c0.1,0.3,0.8,0.5,1.6,0.7c-1.8-0.1-3.5,0-5.2,0.5c1.5,0.4,5.3,0,5.2,0.9c-0.7,0-1.6,0-1.7,0.2
		c1.5,0.5,2.2-0.6,4,0c0.1-0.3-0.6-0.4-0.6-0.7c0.4,0,0.9,0,1.4,0c0.2,0.2,0.3,0.4,0.1,0.6c1.1-0.1,0.7-0.5,1.9-0.5
		c0,0,0-0.1-0.1-0.1c0.7,0,1.2-0.1,1.3-0.4c-0.8,0-1.6-0.1-2.3-0.1c0.1-0.1,0.2-0.1,0.2-0.2c0.7,0,1.4,0.1,2.2,0.2c0,0,0,0,0,0
		c0.5,0,0.7,0.1,0.6,0.4c2.4,0.3,6.3-0.5,6.4,0.2c1.2-0.1,2.2-0.3,3.1-0.5c0.9,0.1,1.5,0.2,1.3,0.6c0.1,0,0.2-0.1,0.3-0.1
		c2.7,0,4.8,0.5,6.3-0.2c0,0.2-0.7,0.2-0.6,0.5c0.7,0.1,3.5,0.4,3.5,0.2c-0.3-0.1-0.4-0.1-0.5-0.2c2.1-0.1,1.4-1,2.7-1.4
		c1.3,0.1,1.8,1.1,1.9,0c1.6,0.7,2.5,0.1,5.8,0.5c-3.3,0.2-4.7,0.4-8.7,0.8c1.8,0.6,2.6,1.4,6.8,1.3c-0.9,0.3-1.9,0.5-2.9,0.8
		c-3.4,0.1-2.4-1-5.8-0.8c0,0,0,0,0,0c0.7-0.2,1.7-0.4,2.9-0.5c-2-0.6-5.1-0.6-6.8,0c-0.2,0.4,1.1,0.4,2,0.5
		c-0.8,0.2-3.1-0.3-4.3-0.3c-0.1,0.2-0.3,0.4-0.5,0.6c-5.4-0.3-11.3-0.3-3-1.7c-2.2-0.4-4.4-0.1-6.6,0.3c0.2,0,0.3-0.1,0.3-0.2
		c-3.2,0,1.8-0.3-0.6-0.5c-0.7,0.3-2.3,0.2-2.3,0.7c0.6-0.1,2,0.1,2.6,0c-0.6,0.1-1.2,0.2-1.9,0.4c-1.3,0-2.8-0.1-3,0.2
		c0.5,0,1.1,0,1.2,0.2c-0.3,0.1-0.6,0.1-0.9,0.1c-2-0.1-2.4-0.1-5.5-0.2c-1.5,0.7-4.3,0.7-7.1,0.7c1-0.3,1.3-0.8-0.3-0.9
		c-0.6,0-1.3,0-1.9,0c1.6,0.5,0,0.4,0,1c-0.7,0-1.3,0.1-1.9,0.2c0.7-0.5,1.2-1.1,0-1.5c-0.2,0-0.3,0-0.6,0c0.1,0,0.2-0.1,0.2-0.2
		c-1.1-0.1-1-0.5-2.9-0.4c-0.1,0.2,0.4,0.4,1,0.6c-1.3,0-2.7,0.1-2.6-0.3c-1.5,0.1,0.8,0.5-1,0.5c1.3,0.5,2.1,0.8,2.4,1.2
		c-2.2,0.1-4.3,0-5.1,0.8c0.8,0.4,2.2-0.2,2.3,0.2c-0.1,0.1-0.4,0.2-0.7,0.3c-3.1-0.2-6.7-0.3-10.3-0.4c0.2-0.8-1.9-0.9-3.5-1.2
		c-2.7,0.7-8,0.7-12.3,0.9c-0.9-0.1-0.7-0.5-0.8-0.8c-3.8,0-5.3,0.7-7.7,1.1c0,0,0.1,0.1,0.1,0.1c-0.8,0.1-1.4,0-2.1,0
		c-0.3-1-0.1-1.1-0.9-1.7c-2.6,1.3-5.2,0.2-8.7,0.5c-0.1,0.5,1.1,0.6,1,1c-2.9,0.5-5.4,1.1-8.4,0.6c1.7-0.6,0.3-0.8-0.6-1.4
		c-2.4,0.4-3.3-0.3-4.6,0c0.4,0.1,0.4,0.2,0.2,0.3c-0.3,0-0.6,0-1,0c0,0.1,0,0.2,0,0.3c-0.3,0.1-0.6,0.2-0.9,0.3
		c-2.7-0.2-5.5,0.5-8.7-0.2c1.5,1.1-2.2,0.6-4,0.4c0.8,0.9,2.3,0.4,1.7,1.1c3.1-0.1,6.8-0.2,10.8-0.3c0.1,0.1,0.2,0.2,0.1,0.3
		c0.7,0,0.8-0.2,0.8-0.3c4.8-0.1,10-0.1,15.4,0.1c0.2,0.2,0.6,0.4,1,0.6c-0.4,0-0.8,0.1-1.3,0.1c-1.1-0.4-4.7-0.1-7.3,0
		c-3.2-0.1-6.5-0.2-9.8-0.1c-0.8,0-1.7,0-2.3,0c0.1,0,0.2,0.1,0.2,0.1c-1.2,0.1-2.4,0.2-3.6,0.4c1.5,1,7.1,0.2,6.8,1.1
		c0.7,0,1.2,0,1.7-0.1c0.2,0.1,0.5,0.2,0.7,0.3c0.4-0.2,0.7-0.4,0.8-0.6c0.6-0.1,1.1-0.3,1.7-0.4c2,0.2,2.8,0.7,5.8,0.5
		c-0.8,0.4-1,0.8-0.9,1.2c-2.4,0.1-2.2-0.6-3.9-0.7c0.1,0.6-3.2,0.1-2.3,0.9c1,0.5,2.7-0.7,4.1,0c-1.7,0.1-2.1,0.7-2.6,1.2
		c-0.4-0.1-0.7-0.2-1.1-0.3c-2,1-8.1,0.9-5.8-0.5c-0.4,0.3-1.3,0.6-2.5,0.8c0.2-0.5,0.5-1-1.3-1.4c0.3,0.9-0.2,0.8-1.7,0.9
		c0.3,0.4,0.1,0.7-0.2,0.9c-2.2,0.1-4.5-0.1-6.4-0.8c2.2,0,4,0,4.9,0.4c0.2-0.3,1.7-0.3,1.2-0.9c-0.7,0-1.6,0-1.7-0.2
		c1.8-0.1,1.9-0.4,1.2-0.9c-1.8-0.1-1.5,0.5-2.9,0.5c-1.5-0.4-0.5-0.7-1.2-1.1c-1.8-0.1-2,0.3-4.1,0.2c-0.5,0.7,1.6,0.7,2.3,1.1
		c-2.5-0.1-3.8,0.1-5.8,0.2c-0.8-0.5-0.6-0.9-0.8-1.2c0.9,0.1,2,0.2,3.6,0.1c0-0.4,0-0.7,0-1.1c-3.9-0.2-3.3,0-7.7,0
		c-0.1,0.4,0.9,0.6,1,1c-0.9,0.5-1.7,1-3,1.4c1.8,0.2,3.4,0.4,3.7,0.7c-0.9,0-1.8,0.1-2.9,0.1c-0.1-0.1-0.2-0.2-0.2-0.4
		c-0.3,0.1-0.5,0.2-0.7,0.3c-0.9-0.3-1.2-0.8-1.4-1.3c0.4-0.3,0.9-0.5-0.2-0.6c-0.5,0-1.5-0.3-2.6-0.5c1.8-0.2,3.2-0.4,3.5-1
		c-1.9,0-3.8,0-5.8,0c-0.2,0.2-0.1,0.4,0,0.5c-0.5-0.1-1-0.2-1.5-0.2c0.1,0.7-0.9,0-1.7,0c-0.1,0.3-0.4,0.6-1.2,0.7
		c-1-0.2-1.8-0.4-2.3-0.7c1.8-0.1,4.9-0.5,6.4-0.2c-0.3-0.9,3.4-0.5,4-0.2c-0.5-0.6,7.5-0.5,5.2,0c2.6-0.3,4.2-0.5,5.8,0.2
		c1.6,0.1,0.5-0.7,1.7-0.7c0.8,0,2.2,0,1.2-0.2c-4.4-0.3-11.9,0-15,0c-1.8-0.3-3.4-0.8-2.3-1.4c-1.6,0.2-5.2,0.3-5.8-0.4
		c0.7,0.1,1.6,0.2,2.9,0.2c-0.6-1.4-5.2,0.4-5.8-1.1c1.8-0.1,1.7,0.3,3.5,0.2c0.1-0.3,2.4-1.3,0-1.2c-0.8,0.3,0.5,0.9-2.9,0.7
		c-0.8-0.4,1.5-0.7,0-0.7c-0.2,0.3-0.7,0-1.7,0c-0.4,0.5,2,0.2,1.2,0.9c-4.4,0.3-9.6,1-13.9,1.1c1,0.3,2.1,0.7,2.9,1.1
		c-2.4,0.5-5.7-0.4-6.9,0.4c0.2,0.4,2.5,0.2,2.3,0.7c-2.5,0.1-2.6-0.6-3.5-1.1c-0.3,0.2-3.7-0.2-3.5-0.7c1,0,2.9,0.2,2.3-0.4
		c-2.4,0.2-2.3,0.1-3.5-0.4c-2.1,0.3,0.4,0.8-0.6,1.1c-2.2-0.4-1.3-0.8-4-1.1c2.3-0.9,8.5-1.6,11.6-1.8c0.7,0.6-3.8,0.5-2.3,0.7
		c1.8-0.2,1.4,0.3,2.3,0.4c1-0.4,3-1.3,4-1.1c0.1,0.6-1.5,0.6-1.2,1.2c1.8,0,3.5,0,4.1-0.4c-3.8-0.2,0.7-0.8-1.2-1.4
		c-3.3,0.1-3.2-0.4-7.5-0.2c-0.8-0.6-2.2-1-2.9-1.6c-1.5,0.5,0.3,1.1,0,1.8c-1.3-0.4-4.4,0.9-5.8,0c-0.4,1.4-3.6,0.2-6.4,0.4
		c-0.4,1-3.3,0.2-5.2,0.5c0.5,0.4,1.8,0.5,1.7,0.8c-0.7,0.2-1,0.4-0.8,0.8c1.7-0.3,3.8-0.6,5.1-1c1.6-0.2,3.2-0.2,5.6,0.1
		c-0.6,1.1-4.1-0.3-2.3,0.7c-3.3-0.1-5,0.2-6.4,0.7c2.3,0.1,3.8,0.4,5.8,0.5c0,0.1,0,0.1,0,0.2c-0.5,0.2-1.2,0.2-1.9,0.2
		c-0.8-0.4-3.6-0.3-5-0.5c0.1,0.1,0.1,0.2,0.1,0.2c-1.3,0-2.4,0.2-2.9,0.8c0.9-0.3,1.8-0.4,2.6-0.4c-1.2,0.6-4.6,1-3.2,1.9
		c-1.5,0.2-2.5-0.5-2.3,0.2c-0.4,0.5,2.7-0.1,2.3,0.4c-3.2-0.1,0.2,0.8-2.3,0.9c-1.9,0-3.1-0.2-4.1-0.5c1.6-0.7,2.6,0.4,4.1-0.4
		c-1.8,0.1-1.5-0.5-2.9-0.5c-0.9,0.4-1.6,0.9-2.3,1.4c-1.5-0.5-3.9-0.7-4.6-1.4c1.8,0.6,4.3-0.8,5.8,0c0.5-0.5,1.9-1.3,0.6-1.8
		c-2.4,0.6-3.7,0.4-6.9,0.2c-1.7,0.5-1.8,1.4-4.6,0.7c-0.6,0.2-0.5,0.7-1.7,0.7c-1.7-0.4-4.7-0.8-7.5-1.2c0.3-0.6-0.9-0.8-1.7-1.1
		c0.1-0.3,1.9-0.1,1.7-0.5c-1.3,0-2.2,0-2.3-0.4c2.1-0.1,2.1,0,4.6-0.2c0.4-0.5-1.2-0.4-1.2-0.7c0.8-0.3,3.3-0.1,4.1-0.4
		c-0.4-0.7-1.2-1.3-2.9-1.6c-0.1,0.4-2.4,1.2-3.5,0.7c1.2-0.7,2.5-1.4,4.6-1.8c0.4,0.4,3.3,0.7,3.5,0.2c-2.9,0.1,1-0.8-1.2-0.9
		c-0.2,0.4-2.2,0-2.3-0.2c1-0.7,3.9,0.2,4.6-0.5c-0.5,0.6,1.9,0.2,1.7,0.7c-0.8,0.1-1.1,0.3-2.3,0.2c0.7,0.9,0.5,1.4-1.7,1.8
		c1.4,0.2,2.8-0.4,2.9,0c-0.2,0.8-2.1,1.1-2.9,1.8c2.6,0.6,6.6,0.7,7-0.5c-2.1-0.3-0.4,0.6-1.7,0.5c-1.2-0.6-2.1-1.6-1.2-2.3
		c2.1-0.3,0.4,0.6,1.7,0.5c-0.1-0.7,0.5-0.1,1.7-0.2c-0.3-1,0.6-1.6,3.5-1.6c0.3,0.7-1.3,0.9-1.7,1.4c0.4,0.1,2.8,0.4,2.9,0
		c-1.7-0.6,1.7-2-0.6-2.7c-0.8,0-1.5,0-2.3,0c-1,0.1,0,0.8-1.2,0.9c-0.8-0.1-3,0.2-2.9-0.2c-0.1-0.5,1.3-0.5,1.2-1.1
		c-2.8-0.3-0.5,1-2.9,0.9c1.3-0.7-1-0.6-2.3-0.9c-0.1,0.2,0.1,0.5-0.6,0.5c-0.7-0.3-1.5-0.5-2.3-0.7c-1.7,0-2,0.5-3.5,0.5
		c-0.4,0.8,2.4,0.6,2.3,1.2c-1.3,0-2.7,0-4.1,0c-0.7,1.5-6.9,1.7-8.7,0.5c-0.8,0.9,1.8,0.8,2.3,1.2c-1,0-0.3,0.5-1.2,0.5
		c-4.8,0-12.3,1.2-13.9-0.5c-2.4,0.2-3.9,0-4.6-0.7c0.9-0.4,2.8-0.5,2.9-1.2c-5.1,1.3-9.5,0.2-10.4-1.6c-2.5-0.1-6.3,0.8-8.1,0.2
		c0.1,0.3-0.6,0.4-0.6,0.7c5.4-0.2,5.8,0.6,9.8,0.7c-0.8,0.4-4.5-0.1-4.6,0.5c0.2-0.4,1.2-0.8-0.6-0.9c-0.6,1-6.4,0.1-5.2,1.2
		c-1-0.3-4.3-0.5-2.9-1.1c-2.3,0.1-3.4-0.2-4.6-0.4c0.1,0.7,0.8,0.7,1.2,1.6c-2.1,0.3-2.9-0.3-5.8-0.2c1,0.5,5.2,0.6,4.6,1.6
		c1.8,0.1,1.1-0.5,2.9-0.4c0.5,0.7-1.7,0.8-5.2,0.7c0.3-0.7-1.8-0.6-2.9-0.9c-0.3,0.3,0.7,0.9-0.6,0.9c-0.9-0.7-0.5-0.4-2.3-0.2
		c0-0.3,0.1-0.6,0.6-0.7c-0.6,0-1.2,0-1.7,0c0-0.1-0.5-0.2-0.6,0c1.4,0,0.1,0.6-0.6,0.5c-0.7-0.3-0.5-0.8-2.3-0.7
		c-1,0.1,0,0.8-1.2,0.9c-1-0.2-1.3-0.6-1.2-1.1c2.1,0.2,5.4-0.2,5.2-1.2c-1.8-0.1-5,0.2-5.8-0.2c0.1-0.2,0.9-0.2,1.7-0.2
		c-0.2-0.3-0.2-0.8-1.7-0.7c0.4,1-3.5,0.6-5.2,0.4c1-0.6,4,0.4,4-0.4c-1.8,0.1-2.8-0.2-1.7-0.5c-1.9,0.3-4,0-5.8-0.2
		c1.2,0.7,1.7,1.3-1.7,1.6c0,0.6,1.3,0.8,2.3,1.1c-1.8,0-3.2,0.1-4,0.4c1.1,0,1.9,0.1,2.3,0.4c-3.6-0.2-8.1,0.5-7.5-0.2
		c-2.2-0.2-1.9,0.4-2.9,0.5c-1.8-0.4,0.4-0.8-2.3-0.5c0.1-0.3,0.9-0.3,1.2-0.5c-2.1,0.9-3-0.7-5.8,0c0.6,0.1,1.9,0.8,2.3,0.4
		c-0.6,0-0.7-0.3,0-0.4c0.3,0.3,0.9,0.4,1.2,0.7c-1.9-0.2-3-0.2-3.9-0.1c-0.7,0-1.3,0-2,0c-0.6,0-1.3-0.1-2.2-0.2
		c-0.9,0.3-0.3,0.5,0.4,0.7c0.1,0.1,0.2,0.1,0.2,0.2c-1.9-0.1-1.1,0.6-2.9,0.6c0.5-0.2,0.8-0.5,0.6-0.9c-3.1,0-0.5,0-0.6-0.5
		c-2.2,0.2-3.3,0.7-5.8,0.7c0.2-0.3-0.8-0.4-1.2-0.5c3.9,0,3.1-0.8,3.5-1.2c0.6,0.2,1.6,0.3,1.7,0.7c2.3-0.2,4.2,0.5,4.6-0.2
		c-1.6-0.2-2.4-0.2-4,0c1.1-0.7-0.5-0.4-1.2-0.9c2.3,0,4.1,0.4,5.2-0.2c-1.5,0.1-0.5-0.7-2.3-0.5c-1,0-0.3,0.5-1.2,0.5
		c-0.6-0.2-0.9-0.5-1.7-0.7c-0.1,0.3-1,0.4-2.3,0.4c1.5-0.8-3.5-0.1-3.5-0.7c0.6-0.3,2.7-0.2,3.5-0.5c-0.3-0.1-5.2-0.1-3.5,0.4
		c-1.4-0.1-1.1-0.6-2.9-0.5c-0.7,0.7,1.7,0.4,1.7,0.9C98.6,6,95.9,5.9,93.4,5c0.9,0,2,0,1.7-0.4c-1.1,0.1-5.3,0.1-4,0.4
		c1.3,0,2.2,0,2.3,0.4c-1.9,0-2.4-0.3-4.6-0.2c1.2-0.4-1.1-0.7-2.3-0.9c-0.8,0.8-9.8,0.4-9.8-0.4c-0.2,0.4-1.5,0.4-2.3,0.2
		c0.7,0.6,0.6,1.4-1.7,0.7c-1.3,0.5-0.5,0.7-2.9,1.1c-1.1-0.1,0.1-1-1.2-1.1c-1.8-0.1-6.7,0.2-8.1-0.7c-1.7,0.4,0.3,1-2.3,1.2
		c-2-0.6-3,0.2-5.2,0.2c1.4-0.4-0.5-0.6-1.2-0.9c-1.4,0.7-3.2,1.1-2.3,2.1c-1.1-0.1-1.1,0.2-1.7,0.4c-2-0.2-4.8-0.8-6.9-0.4
		c0-0.2,0-0.4,0-0.5c-1.8-0.2-2.2,0.2-2.9,0.4c-0.3-0.4-2.8-0.4-1.2-0.9c-2.2-0.2-3.8-0.3-5.2-0.4c-0.7,0.4,1.7,0.7,0,0.9
		c0-0.8-2.8-0.8-3.5-1.4c1.2-0.1,4,0.3,3.5-0.4c-0.5,0-5.5,0.1-4.6,0.7c-4.2-0.2-6.1-0.3-8.1-0.9c0.8,0,0.5-0.3,1.2-0.4
		c1.2,0,0.7,0.5,2.3,0.4c0.1-0.9-1.9,0-2.3-0.7c1.5,0-0.8-0.3,0-0.7c1.5,0,2.5-0.1,2.3-0.5C20.6,1.8,18.7,3,17,2.5
		c-0.3,0.6,1.4,0.7-0.6,0.9c-3.1-0.6-5.9,1.1-9.8,0.2C8.7,3.3,9.8,3.7,10.7,3C9.9,2.8,9.5,2.5,8.9,2.3c1.1-0.1,2.5-0.6,0.6-0.7
		C9.3,2.5,8.3,1.5,7.8,1.4C5.9,1.7,2.6,2.1,0,2v0.6c2.4,0,4.7,0,6.6,0C5.8,3,1.4,3.6,0,3.2V25h195.9c0,0,0,0,0,0
		c0.5,0,1.1-0.1,1.7-0.1c0,0,0,0,0,0c-0.5,0-1.1,0.1-1.7,0.1h171.8c0,0,0-0.1,0-0.1c0.2,0,0.5,0.1,0.7,0.1H600v-7.3
		c-0.8,0-1.7,0.1-2.7,0c-2.7-1.2,1.3-1-2.9-1.6c1.4-0.5,3.9-0.4,5.6,0.1v-0.3c-0.5-0.1-0.8-0.2-0.8-0.3c0.3,0,0.5,0,0.8,0V7.9z
		 M419,8.4c0.5-0.1,1.1-0.2,1.8-0.3c0.7,0.1,1.3,0.2,1.3,0.6C421.1,8.5,419.9,8.3,419,8.4z M11.8,6c0.1-0.3,1-0.4,2.3-0.4
		c-0.1-0.3-2-0.1-2.3-0.4c4.4-0.6,7.8,0.6,11.6,0.4C22.4,7.3,14,6.6,11.8,6z M26.3,6.6c-1.5-0.1-2-0.5-2.3-0.9
		C25.7,5.7,27.8,6.1,26.3,6.6z M65.1,8.7c-0.5,0-0.5-0.1-0.6-0.2c-0.9,0.1,0.2,0.2,0,0.5C64,9,63.5,8.9,62.7,8.9
		C62,8.4,65.5,8,65.1,8.7z M63.3,7.1c0-0.2,0.7-0.1,1.2-0.2c-0.1-0.1-0.6-0.2-0.6-0.4c-2.2,0.6-2.5,0-4.6,0.2
		c-1-0.5,0.3-0.5-0.6-1.1c1,0.6,2.2,0.2,1.7-0.5c1.1,0.1,0.5,0.7,2.3,0.5C62.9,6,62.2,6,62.2,6.2c2.3,0.5,2.8-0.3,5.2,0
		C66.5,6.7,65.1,7,63.3,7.1z M68,7.6c0-0.1,0.2-0.2,0.5-0.2c0,0.1,0.1,0.3,0.2,0.4C68.5,7.8,68.5,7.6,68,7.6z M69.1,8.3
		C69.1,8.3,69.1,8.3,69.1,8.3C69.1,8.3,69.1,8.3,69.1,8.3C69.1,8.3,69.1,8.3,69.1,8.3z M69.5,8.3c0.2-0.3,0.9-0.3,1-0.6
		c0.7,0,1.2,0.1,1.5,0.1C71.6,8.1,70.6,8.3,69.5,8.3z M75.5,5.3c-4.1-0.2,0.8,0,4,0C78.6,6.3,75.6,5.3,75.5,5.3z M96.4,11.5
		c0.3,0,0.6,0,1,0c0,0,0,0.1,0,0.1C97.1,11.6,96.8,11.6,96.4,11.5z M97.5,6.4c1.9,0,2.8,0.2,2.9,0.7C98.9,7,97.4,7,97.5,6.4z
		 M99.1,10.2c0.1,0.1,0.3,0.2,0.5,0.3c-0.3,0-0.7-0.1-0.9-0.1C98.8,10.3,98.9,10.2,99.1,10.2z M99.2,11.4c-0.1-0.7,0.9,0.1,1.7-0.4
		c0,0,0-0.1,0-0.1c1.1,0.3,2.2,0.5,3.1,0.8C101.9,11.7,100,11.6,99.2,11.4z M111.3,10c-0.5,0.1-1,0.2-1.3,0.4
		c-0.7,0-1.7-0.1-3.3-0.1c0.3,0.5,1.7,0.4,2.9,0.4c-0.1,0.2-0.1,0.5,0.4,0.8c-3.4-1-8.2-0.2-9.4-1.5c0.6-0.1,1.1-0.3,1-0.6
		c1,0,2.4,0.1,2.8-0.1c0.4,0,0.8,0,1.2,0c0.6,0.2,1,0.5,1.7,0.7C107.6,9.1,109.4,10.3,111.3,10C111.3,9.9,111.3,10,111.3,10z
		 M139.1,6.7c1.6-0.1,1.2,0.4,2.3,0.4c-0.1,0.2-0.6,0.1-0.6,0c-1.4,0.5,0.6,0.5,2.3,0.4c-1.3-0.4,5.6-0.7,5.8,0
		c-2.6-0.1-8.1,0.7-9.8,0.4C137.5,7.6,139.3,7.1,139.1,6.7z M117.1,15c-0.3,0-0.5,0-0.8,0c0.1-0.1-0.1-0.1-1.5-0.1
		c0.2-0.2,1.4-0.1,2.3-0.2C117.1,14.8,117.1,14.9,117.1,15z M120.6,11.7c-1.4,0.2-2.4-0.5-2.9,0c-1.3-0.1-1.3-0.5-0.6-0.7
		c-1.3,0.2-2.1,0.5-3.6,0.7c0.2-0.2,0.4-0.4,0.7-0.5c0,0,0,0,0.1,0c1.8-0.8,4.2-0.4,6.9-0.4C121.4,11.2,121.1,11.5,120.6,11.7z
		 M122.9,11.2c-0.1-0.3,0.7-0.4,0.6-0.7c1.1,0.1,2.5,0.1,2.3,0.5C124.4,10.9,124.6,11.3,122.9,11.2z M120.6,9.2
		c2.2-0.8,6,0.1,7.5,0.5C125.7,10.3,123.8,9.1,120.6,9.2z M132.8,11.7c-0.5-0.1-0.9-0.3-1.2-0.5c-1.5,0-2.2,0.3-2.3,0.7
		c-2.6,0-0.2-0.8,0-1.1c1.6,0.3,2.9-0.1,5.2,0.2C135,11.6,132.6,11.3,132.8,11.7z M133.3,10.7c0.2-0.7-0.9-1-3.5-0.9
		c0-0.2,0-0.5,0-0.7c1,0,1.9,0,2.9,0c0.6,0.3,0.4,0.9,2.9,0.7c0,0.3-0.3,0.7,0.6,0.7C136.3,10.9,134.2,10.6,133.3,10.7z M137.4,9.1
		c-1.2,0.1-1.5-0.1-2.3-0.2c0.5-0.6,2.1-0.8,4-0.5c-0.1,0.2-1.1,0.1-1.7,0.2C138.1,8.8,137.6,8.8,137.4,9.1z M139.1,14.9
		c-1.1-0.1,0.3-0.2,1.2-0.2c-0.1-0.5-2.4-0.8,0.6-0.9c-0.7,0.5-0.3,0.7,1.2,0.9C142.1,15.1,140,14.8,139.1,14.9z M138.5,9.2
		c1.2-0.5,2.7-1.3,5.2-0.9c-0.4,0.4-2.7,0.1-2.9,0.5c0.4,0.4,1.5-0.3,2.9-0.2c0.3,0.2,0.5,0.3,1.2,0.4
		C144.3,10.2,139.3,9.8,138.5,9.2z M151.8,11.4c1.5,0,2.8,0.1,3.5,0.4c-0.2-0.6,1.7-0.5,4-0.7c0,0.7-2.3,0.7-2.9,1.2
		c-1.6-0.4-2.1-0.6-4.6-0.4C151.8,11.7,151.8,11.5,151.8,11.4z M153.3,15.4c-0.3-0.3-0.9-0.4-1.5-0.5c0,0,0,0,0,0
		c0.7-0.1,1.6-0.1,2.5-0.2C153.6,14.8,153.1,15,153.3,15.4z M159.4,16.5c-0.4-0.3-1.2-0.6-2.1-0.8c0.9,0,1.8-0.1,2.9-0.2
		c-0.3-0.6-4.6-0.2-3.9-1.1c-0.1,0-0.3,0-0.5,0.1c0.3-0.1,0.5-0.2,0.6-0.3c2.3,0.1,2.6,0.9,5.2,0.9
		C161.4,15.9,162.6,16.1,159.4,16.5z M214.3,15.6c-1.7-0.1-2.6-0.4-2.9-0.9C213.7,14.6,214,15.1,214.3,15.6z M209.1,12.4
		c2.6,0,1.5,0.6,0.6,0.9C207.8,13.2,209.4,13,209.1,12.4z M210.9,13.5c-0.7,0.6,1.9,0.1,1.2,0.7c-1,0.1-1.1-0.1-1.2-0.4
		c-1.5,0.1-2.2,0.3-2.3-0.4C209.3,13.5,210.1,13.5,210.9,13.5z M210.5,16.9c0.1,0.3,0.5,0.6-0.3,0.8c-0.1,0-0.2,0-0.3,0
		c-0.4-0.1-0.9-0.2-1.5-0.3C208.2,17,209.6,17,210.5,16.9z M210.2,19.1C210.3,19,210.3,19,210.2,19.1C210.3,19,210.3,19,210.2,19.1
		c0.1,0,0.1,0,0.1,0C210.3,19.1,210.3,19.1,210.2,19.1z M210.4,20.7c-0.1,0.2-0.2,0.4-0.2,0.6c-0.4,0.2-1.2,0.4-2.8,0.4
		C208.4,21.3,209.4,21,210.4,20.7z M207.2,15.9c0.5,0.1,0.7,0.3,0.3,0.8c-0.4,0-0.7,0.1-1.1,0.1c-0.2-0.2-0.4-0.4-0.7-0.7
		C206.2,15.9,206.7,15.9,207.2,15.9z M197.1,12.4c0,0-0.1,0-0.1,0c0,0,0,0-0.1,0C197,12.4,197.1,12.4,197.1,12.4z M190.6,11.2
		c-1,0.4-1.6,0.8-3.5,0.9c0-0.2-0.7-0.1-1.2-0.2C185.8,10.8,189.4,11,190.6,11.2z M185.4,8.5c-0.4,0.6-2.7-0.4-2.9,0.2
		c-1.8-0.2-0.3-0.4-1.2-0.9C183.3,7.9,183.2,8.5,185.4,8.5z M181.9,9.2c-0.9,0.8-2.9-0.2-4.6-0.2C175.8,8.8,181.1,9.1,181.9,9.2z
		 M177.3,10.8c2.2,0.1,6.8,0.4,7.5,0.4c2.4,1.3-3.2,0.2-2.3,1.1c-1,0-1.9,0-2.9,0c0.7-0.7-1.9-0.4-1.2-1.1c-0.7,0-0.5,0.3-0.6,0.5
		C176.1,11.6,177.1,11.2,177.3,10.8z M182.5,14.7c0.2,0.1,0.5,0.2,0.8,0.3c-0.3,0-0.6-0.1-0.8-0.1C182.5,14.9,182.6,14.8,182.5,14.7
		z M176.1,16c0.8-0.1,1.5-0.2,1.9-0.4c0.7,0.3,1,0.7,1.1,1.1c-0.7-0.1-1.6-0.2-2.9-0.2C176.3,16.3,176.2,16.2,176.1,16z M177.3,13.1
		c0.6-0.4,3.5-0.5,3.5,0.2C179,13.5,178.5,13.5,177.3,13.1z M176.1,15.1c0.1,0,0.1,0,0.2,0c-0.1,0-0.3,0-0.4,0
		C176,15.2,176,15.1,176.1,15.1z M175.6,11.4c-1,0-1.5,0.1-1.7,0.4c-0.1,0.2,0.2,0.2,0.6,0.2c-1.5,0.4-2.3-1-3.5-1.2
		c-1.1,0-0.4,0.6-1.2,0.7c-1.9,0.2-1.2-0.5-2.3-0.5c1.8-0.5,3.6-0.1,5.2-0.9C174.4,10.2,175.1,10.8,175.6,11.4z M163.4,9.9
		C165.9,10,164,9,164,8.7c2.3,0.4,1.9-0.9,1.2-0.4c-1.4-0.5,0.6-0.5,2.3-0.4c-0.1,0.4-1.1,0.6,0.6,0.7c1.2-0.3-0.9-0.7,2.3-0.5
		c0.1,1.3-5.3,1.6-4.1,2.7C164.5,10.8,163.5,10.5,163.4,9.9z M166.9,13.3c-1.3,0-1.2-0.4-1.2-0.9c1.5,0,2.5,0.1,2.3,0.5
		c-0.5,0-0.6-0.2-1.2-0.2C166.9,13,166.9,13.1,166.9,13.3z M168,14.9c1.6,0.1,1.1-0.4,1.7-0.5c0.8,0.9,2.9-0.1,5.2,0.4
		c0,0.2,0,0.4,0,0.5C172.4,14.9,168.1,16.6,168,14.9z M177.9,19.4c-1.2-0.2-2.9-0.3-2.9-0.9c2.6,0.6,5.4-0.6,8.1,0.2
		C181,19,178.6,18.4,177.9,19.4z M182.2,15.8c0.5-0.1,1.2-0.3,2-0.5c0.6,0.2,1.2,0.5,1.2,0.8C184,15.6,183.3,15.8,182.2,15.8z
		 M186.6,19.9c-1.4-0.1-1.3-0.7-1.7-1.1c0.5-0.1,1.3-0.2,2.3-0.2C187.4,19.2,186.1,19.3,186.6,19.9z M188.9,20.4
		c-0.9-0.3-1.2-0.7-1.2-1.2c1.2-0.1,2.6,0,3.1-0.2c0.5,0.2,0.7,0.6,1.2,0.9c0,0,0,0,0,0c-0.4-0.1-0.6-0.2-0.8-0.3
		C190.4,19.8,189.5,20.1,188.9,20.4z M194.8,24.1c-1-0.2-1.9-0.1-3.1-0.1c0,0,0,0,0-0.1c1.1,0,2.1,0,3.2,0
		C194.9,24,194.9,24,194.8,24.1z M193,19.6c-0.3-0.4,0-0.6,0.5-0.8c0.4,0,0.9-0.1,1.7-0.2c-0.3,0.4,0.1,0.6,0.6,0.8
		C195,19.5,193.9,19.5,193,19.6z M195.2,17.6c-0.2,0-0.3,0-0.5,0c0.1-0.1,0.2-0.2,0.2-0.4c-1.4-0.2-2.7-0.2-4-0.1
		c0.4-0.4,3.9-0.2,5.5,0C196.2,17.3,195.4,17.3,195.2,17.6z M195.9,24.1c0.2,0.1,0.4,0.3,0.5,0.4c-0.2-0.1-0.3-0.1-0.5-0.2
		C195.9,24.3,195.9,24.2,195.9,24.1z M196.4,24.5c0,0.1,0,0.1,0,0.2C195.8,24.7,196.1,24.5,196.4,24.5z M197.6,24
		c-1-0.3-0.6-0.3-1.7-0.2c0,0,0-0.1,0-0.1c0.7,0,1.4-0.1,2-0.1C198.4,23.7,198.4,23.8,197.6,24z M202.2,11.2c-0.5,0-0.6-0.2-1.2-0.2
		c-0.1,0.4,0.9,0.6,1.7,0.7c0.9-0.1,0.5-0.6,2.3-0.4c-0.2,0.4-1.5,0.4-2.3,0.5c0,0.1,0,0.1,0,0.2c-1.1,0-2.1,0.1-3.2,0.2
		C200.9,11.8,199.6,10.4,202.2,11.2z M202.4,17c-0.1,0-0.1-0.1-0.2-0.1c0.2,0,0.4,0,0.6,0.1C202.7,17,202.5,17,202.4,17z
		 M204.5,12.7c0.1,0.1,0.1,0.1,0,0.2c-0.3,0-0.5,0-0.8,0C203.9,12.9,204.2,12.8,204.5,12.7z M204.5,19c0.4,0,0.8-0.1,1.3-0.1
		c-0.4,0.3-0.8,0.6-1.3,0.9C204.6,19.6,204.4,19.3,204.5,19z M209.1,22.2c-0.5,0.4-2.2,0.4-2.3,0.9c-0.6,0-1.2,0-1.7,0
		c-0.9-0.6,2-0.1,1.7-0.5c-0.2-0.2-0.8-0.3-1.5-0.3c0.6-0.2,1.2-0.3,1.7-0.5c0.2,0.1,0.4,0.2,0.4,0.4c0.6-0.2,1.7-0.4,2.9-0.4
		c0.1,0.3,0.4,0.5,0.7,0.7C210.2,22.5,209.5,22.5,209.1,22.2z M212.6,16.5c-0.7,0-1.1,0-1.4,0c-0.4-0.3-1-0.6-1.7-0.8
		c0.1,0,0.1-0.1,0.2-0.1c0.8,0.5,3.5,0.5,3.5,1.2c0,0,0.1,0,0.1,0c-0.4,0.3-0.6,0.6-0.3,0.9c-0.3,0-0.5,0-0.9,0
		C212.9,17.3,211.4,17,212.6,16.5z M213.2,19.3c-0.4-0.1-0.7-0.3-1-0.4c0.9,0,1.6,0,2.1,0.1C214.2,19.2,214,19.3,213.2,19.3z
		 M214.9,18.1c-0.3,0-0.5-0.1-0.7-0.1c0.4,0,0.8,0,1.2,0C215.3,18,215.2,18.1,214.9,18.1z M221.1,21.6c-0.7,0.1-1.5,0.1-2.3,0.1
		c-0.4,0-0.7-0.1-1-0.1c0.8-0.2,2.9-0.4,3.5-0.2C221.2,21.5,221.2,21.6,221.1,21.6z M217.1,20.4c-0.1-0.1-0.3-0.2-0.5-0.4
		c1.7-0.2,4-0.6,4.6,0.3C219.8,20.2,218.4,20.3,217.1,20.4z M218.2,17.9c0.5,0,0.9-0.1,1.3-0.1c0,0,0,0.1,0,0.1
		C219.1,18.1,218.7,18.1,218.2,17.9z M224.8,21.8c-0.7,0-1.3,0-2,0c0.1-0.1,0.2-0.2,0.1-0.4c-0.2,0-0.5,0-0.7,0.1
		c-0.1,0-0.2,0-0.3-0.1C222.3,21.1,225.1,21.4,224.8,21.8z M224.2,17.1c-1,0.3-3.2,0.3-4.2,0.5c-0.1-0.2-0.2-0.3-0.4-0.4
		c0.6-0.1,1.1-0.1,1.7-0.3c-0.4-0.7,1-0.8,0.6-1.4c-1.2,0.1-0.9,0.8-1.7,1.1c-0.3-0.3-2-0.5-2.7-0.2c-0.3-0.1-0.5-0.2-0.8-0.3
		c0.2-0.1,0.6-0.2,1.1-0.1c0.1-0.3-0.7-0.4-0.6-0.7c-0.5,0.1-0.7,0.4-0.9,0.6c-0.1,0-0.1-0.1-0.2-0.1c-0.4,0.1-0.7,0.2-1,0.3
		c-0.4-0.5,1.7-1-0.2-1.4c2.2-0.4,5.7,0.4,6.9-0.5c1.9,0,3.1,0.2,3.5,0.7c-1.7-0.2-2.1-0.1-2.9,0.4c-0.4,0.5,1.2,0.4,1.2,0.7
		c1.1,0,0.4-0.6,1.2-0.7c3.3,0.7-0.1,1.3,1.7,2.1C225,17.4,222.6,17.5,224.2,17.1z M227.1,17.9c0-0.2,0-0.5,0-0.7
		c2.2,0,3.1,0.3,3.5,0.9C228.8,17.9,228.3,18.2,227.1,17.9z M235.7,21.5c-0.7-0.2-0.8-0.5-0.5-0.7c0.5,0.1,1.2,0.2,1.3,0.4
		C236.2,21.3,235.9,21.4,235.7,21.5z M246.7,17.4c-0.7,0-1-0.1-1.6-0.2c-0.1-0.1-0.2-0.3-0.1-0.5c0.4-0.1,0.9,0,1.2,0.1
		c-0.1,0-0.2,0.1-0.2,0.1c0.2,0,0.3,0,0.5,0C246.8,17,247,17.2,246.7,17.4z M264.7,13.7c0.8,0.3-0.3,0.8,0.6,1.4
		c-0.5-0.3-1.5-0.5-1.7-0.9c-1.1,0.1-1.5,0.4-2.9,0.4c0,0.3-0.1,0.5,0.6,0.5c-1.5,0.4-3-0.6-3.5-1.1
		C259.3,13.8,262.5,14.1,264.7,13.7z M252.9,14.1c1.2,0,2.5-0.1,3.7,0.1c-0.5,0.2-0.6,0.4-0.6,0.7c-2.2,0-3.7,0.2-4.5-0.1
		c0.5-0.1,1.2-0.1,2.3-0.1C253.5,14.5,253.2,14.3,252.9,14.1z M252.3,15.4c-0.5,0.1-0.9,0.2-1.4,0.3c-0.9-0.1-1.6,0-3-0.3
		C248.9,14.9,251.8,14.9,252.3,15.4z M250.8,18.3c0.2-0.4-1-1.4,0.7-1.8c1.1,0,2.1,0,2.7,0.3c-0.2,0-0.3,0.1-0.5,0.1
		c0.3,0.1,0.6,0.2,0.9,0.2c0.1,0.2,0.2,0.4,0.2,0.6c1,0,2,0,3,0C255.9,18,254.3,18.3,250.8,18.3z M258.6,17.6c0-0.2,0-0.3,0-0.5
		c0.6,0,1.3,0.1,2,0.3C259.9,17.5,259.2,17.5,258.6,17.6z M260,17.1c-0.7,0-1.2-0.1-1.4-0.3c0-0.1,0-0.3,0-0.4c-0.1,0-0.2,0-0.3,0
		c0-0.3,0.3-0.7,0.6-0.9c1.6,0.8,3.8,0,6.9-0.2C264.6,16.3,259.7,15.9,260,17.1z M269.5,15.6c-1.1,0-2.2-0.1-3.1,0
		c0.7-0.2,1.7-0.3,1.2-0.9c1.2-0.2,2.1,0.1,2.6,0.3C269.7,15.2,269.5,15.4,269.5,15.6z M270.6,15.6c-0.2-0.2-0.3-0.3-0.4-0.5
		c0.3,0.2,0.4,0.3,0.2,0c0.6-0.6,1.1,0.2,1.7,0.2C272.1,15.5,271.4,15.6,270.6,15.6z M276.8,12.6c-1.9,0.1-3.4-0.8-4.6-0.4
		c-1.6-0.6,1.8-1.1,4.6-0.9C277.7,11.9,275.8,11.8,276.8,12.6z M285.6,17.5c0.6,0,1,0.1,1.1,0.1c0,0.1,0,0.2,0,0.4
		c-0.3-0.2-1.3-0.2-1.7-0.1C285.3,17.7,285.5,17.6,285.6,17.5z M287.2,20.8c0.8-0.2,1.1-0.5,1-0.8c0.3,0,0.6,0.1,1,0.1
		C289.7,20.5,288.6,20.6,287.2,20.8z M294.1,19.9c-0.1,0.1-0.2,0.2-0.4,0.3c-0.4,0.3-0.9,0.5-1.3,0.7c-1.9,0.1-2-0.5-2.6-0.8
		c0,0,0,0,0,0c0,0-0.1,0-0.1-0.1c0.2,0,0.3,0,0.5,0c0.1,0,0.2,0,0.3,0c0,0,0,0-0.1,0c-0.4-0.2-0.9-0.3-1.4-0.5
		c0.5,0.1,0.8,0.1,1.1-0.3c-1.4-0.4-2.7-0.8-5.8-0.7c-0.2-0.2-0.2-0.4-0.2-0.5c0.3-0.1,0.6-0.1,0.8-0.2c-0.1,0.1,0,0.1,0.6,0.2
		c0.4-0.4,1.5,0.3,2.9,0.2c-0.2-0.5,0.2-0.8,1.7-0.7c0,0,0.1-0.1,0.1-0.1c0.9,0,1.9,0.2,2.7,0.4c-0.4,0.1-0.8,0.2-1.3,0.1
		c0.8,0.2,1.2,0.9,0.9,1.4c0,0-0.1,0-0.1,0c0,0,0.1,0,0.1,0c-0.2,0.3-0.8,0.5-1.8,0.2c-0.6,0.5,1,0.3,1.3,0.5c0,0,0,0.1-0.1,0.2
		c0,0,0,0,0,0c0.3,0.1,0.6,0,0.8,0c0.3-0.1,0.5-0.2,0.6-0.3C293.6,19.8,293.7,19.6,294.1,19.9C294.2,19.9,294.1,19.9,294.1,19.9z
		 M384,14.2c-1.7,0.2-2.8,0.9-4.8,0.3C377.7,13.7,384.2,13.8,384,14.2z M375.3,12.6c-0.3,0.3-1,0.5-1.4,0.7
		c-1.3-0.1-2.5-0.2-2.8-0.7C372.5,12.6,373.9,12.6,375.3,12.6z M375.4,13.9c0,0-0.1,0-0.1,0C375.3,13.9,375.3,13.9,375.4,13.9
		C375.3,13.9,375.3,13.9,375.4,13.9z M367.6,15c0.1,0.4,1.1,0.4,2.1,0.2c-0.8,0.5-1.9,0-3.3,0.1C366.8,15.2,367.2,15.1,367.6,15z
		 M365.9,12.6C365.9,12.6,365.9,12.7,365.9,12.6c-1.6,0.3-4.1,0.8-5.6,0.4C361.8,12.8,363.6,12.8,365.9,12.6z M366,14.1
		c-0.6,0.2-1.3,0.3-2.2,0.3c-0.1-0.4,0.4-0.6,1.1-0.7C365.3,13.9,365.7,14,366,14.1z M361.8,15.3c-0.1,0-0.3,0-0.4,0
		c-0.4,0-0.8,0-1.2,0C360.4,15.1,360.9,15.1,361.8,15.3z M360.3,11.8c-0.3,0-0.5,0-0.8,0C359.8,11.7,360,11.7,360.3,11.8z M355.6,17
		c1.1,0.4,2.2,0.8,4.3,0.4c-0.1,0.4-0.4,0.6-0.7,0.7c-0.9,0.3-2.4,0-4.5,0c0.2-0.1,0.3-0.1,0.5-0.2C355.7,17.7,355.9,17.4,355.6,17z
		 M343.6,12.4c3.4,0,5.8,0.4,7,1.1c-0.2,0-0.4,0-0.6,0.1c-1.2-0.1-3.2-0.2-3.2-0.1c0.3,0.1,1,0.1,1.4,0.2c-2.5,0.1-5.2-0.1-4.7-0.8
		c-0.2,0.1-0.4,0.1-0.7,0.2c-0.5-0.2-0.9-0.4-1.2-0.7C342.2,12.4,342.8,12.5,343.6,12.4z M340.5,14.8c0.1,0,0.2,0.1,0.3,0.1
		c-0.1,0.1-0.4,0.1-0.3,0.2c0.3,0,0.7,0,1-0.1c1.8,0.5,3.2,0.9,6.5,0.6c0,0,0,0,0,0c0.4,0,0.7,0,0.6,0.2c1,0,1.5-0.1,1.7-0.4
		c-0.2,0-0.6,0-0.8,0c0.2,0,0.5-0.1,0.8-0.1c2,0,2.1,0.6,2,1.2c1.4-0.2,2.3,0.1,3.1,0.4c-2.2,0.3-5.5,0.5-6.9-0.5
		c0.5-0.1,0.9-0.2,1.3-0.3c-0.4,0.1-1,0.1-1.5,0.1c-0.1-0.1-0.2-0.2-0.3-0.4c-3.5,0.2-6.2-0.1-8.7-0.7c-0.1-0.1,0.2-0.2,0.6-0.2
		C340.3,14.9,340.4,14.9,340.5,14.8z M352.7,19.7c-0.2,0-0.4,0-0.7,0.1c-0.3-0.2-0.2-0.3,0.1-0.5C352.4,19.4,352.5,19.5,352.7,19.7z
		 M350.7,21.3c-0.3,0-0.6,0-1,0c0.2-0.6,1.6-0.2,0.6-0.9c0.6,0,1.1,0.1,1.5,0.2c0.1,0.2,0,0.4-1.5,0.3
		C350.5,21,350.6,21.1,350.7,21.3z M342.2,16.9c0.4-0.6,2.2-0.3,3.8-0.2c0.4,0.1,0.9,0.1,1.3,0c0.2,0,0.4-0.1,0.5-0.1
		c0.1,0,0.1,0,0.2,0C347.7,17.5,342.6,16.5,342.2,16.9z M342.5,17.8c-0.5,0-1.1,0-1.6,0c-0.1,0-0.2,0-0.4-0.1
		C340.8,17.5,341.6,17.7,342.5,17.8z M336.9,12c0.9-0.4,1.4-0.4,2-0.3C338.3,11.8,337.6,11.9,336.9,12z M337.6,14.3
		c0.7,0.1,1.2,0.1,1.7,0.2c0,0,0,0,0,0c-1,0-1.8,0-2.3,0.2C337.3,14.6,337.5,14.4,337.6,14.3z M333.8,14.6c0.5,0,0.9,0.1,1.4,0
		c-0.5,0.5,0.8,0.5,0.6,0.9c-1.3,0-1.7,0.2-2.2,0.4C333.7,15.5,333.8,15,333.8,14.6z M330,17.4c-1.1,0.2-0.9,0.3-0.7,0.6
		c-0.4,0-0.7,0-1-0.1c0-0.3-0.6-0.4-0.6-0.7C328.6,17.3,329.9,17.2,330,17.4z M323.3,18.5c0.7,0.4,1.7,0.5,2.9,0.5c-0.5,0-1,0-1.3,0
		c0.2,0.6,1.5,0.5,2.9,0.4c0.4-0.4-0.4-0.4-1.3-0.4c0.8,0,1.6-0.1,2.6-0.2c1.9,0.3,0.5,1.5,2.2,1.8c-0.7,0.1-1.1,0.2-1,0.4
		c-0.7,0.1-1.1,0.3-1.3,0.4c-0.7,0.1-1.3,0.2-1.7-0.1c0.1-0.5,2.3-0.3,2.3-0.7c-1.9-0.1-5,0.2-5.2-0.4c0,0,0.1,0,0.2,0
		c0.1,0,0.3,0,0.5,0c1.4-0.1,3.8,0.1,4.5-0.5c-2,0-3.5-0.1-5.3-0.2C324.2,19.1,323,19,323.3,18.5z M301.7,17.1
		c0.1,0,0.2,0.1,0.2,0.1c-0.5,0-1.1,0-1.6,0C300.6,17.1,300.9,17,301.7,17.1z M303.4,24.9c-1.6-0.1,0.3-1.5,2.3-1.6
		C305.5,23.9,303.9,24.2,303.4,24.9z M304.6,23.1c-2-0.3,0.7-0.7,0.6-1.1C306.8,22.3,304.7,22.8,304.6,23.1z M308.1,21.7
		c3.3,0.4,2,0.3,2.9-0.5c1.6,0.2,1.3,0.9,1.7,1.4c-2.2-0.3-2.2-0.3-4.6,0C308,22.1,307,22,308.1,21.7z M313.3,24.7
		c-1.4,0.2-2.4-0.5-2.9,0c-0.5-0.3-0.4-0.4-0.7-0.8c0,0,0.1,0,0.1,0c0,0-0.1,0-0.1,0c-0.1-0.1-0.2-0.2-0.4-0.3c1.6,0.2,2.4,0.2,4,0
		C313.2,24.3,312.6,24.1,313.3,24.7z M316.3,23.8c-0.6-0.3-0.9-0.5-0.1-0.9c-0.1,0.4-0.5,0.8,1.1,0.7
		C317.1,23.7,316.7,23.8,316.3,23.8z M319.6,22.6c-0.5,0.2-2.1,0.1-1.7,0.5c-0.8-0.1-0.9-0.3-1.7-0.4c0,0,0,0.1,0,0.1
		c-2.2,0.1-2.1,0.6-1.3,1c-0.5,0-0.9,0-1.1-0.1c-0.3-0.9,2.4-0.9,1.7-2c1.6,0,4,0.2,4-0.4c0.2-0.5-3.2,0.2-2.3-0.5c1,0,1.9,0,2.9,0
		C320.7,21.8,318.2,21.8,319.6,22.6z M318,20.4c-0.7,0-1.4,0.1-2.4,0.2c-0.3-0.4,0.1-0.6,0.4-0.8c0.2-0.1,0.3-0.3,0.2-0.5
		c-2.3-0.1-4.3,0-5.2,0.4c0.1-0.4-0.5-0.6-1.7-0.5c0.2,0.5-1.1,0.6-2,0.7c-0.8,0.1-1.3,0.2,0.3,0.6c-0.8,0.1-1.3,0.2-1.7,0.3
		c-0.1,0-0.1,0-0.2,0c0,0,0,0-0.1,0c-0.2-0.2-0.5-0.3-0.8-0.4c0.5-0.1,0.9-0.3,1.2-0.4c0.3-0.2,0.5-0.4,0.3-0.7
		c-1.6,0.1-1.5-0.3-2.9-0.2c-0.2,0.4-1.2,0.5-1.7,0.7c0.2,0,0.3,0.1,0.5,0.1c0,0-0.1,0-0.1,0c-0.4,0.1-0.7,0.3-1,0.6
		c1.2-0.3,1.8-0.2,1.9,0c-1,0-2,0-3,0c0.1-0.2,0-0.4-0.2-0.6c-0.4-0.4-1.3-0.6-1.8-0.6c0.3-0.7,2.5-0.7,5.4-0.6c0,0,0,0,0,0
		c0.1,0,0.1,0,0.2,0c4.7,0.2,11.2,0.8,14.8,0.2c1.3,0.1,0.8,0.7,1,1.1c0.3,0,0.6,0,0.8,0c0.4,0,0.7-0.1,1-0.1
		c0.1,0.3,0.7,0.4,1.4,0.6c0.2,0,0.3,0.1,0.5,0.1C320.5,20.6,319.4,20.4,318,20.4z M323.1,21.8c-0.8-0.8,2.7-1,2.3-0.2
		C324.4,21.6,324.2,21.9,323.1,21.8z M330,24c-4.6-0.2-2-0.9-5.2-1.1c0.5-0.3,1-0.3,1.5-0.3c0,0.1-0.1,0.2-0.2,0.2
		c0.3-0.1,0.5-0.1,0.7-0.2c0.5,0.1,1,0.2,1.7,0c0,0,0.1,0,0.1,0c-0.4,0.2-0.4,0.6-0.3,1c0.6,0,1,0,1.3-0.1c0.5,0.1,0.9,0.2,1.2,0.3
		C330.6,23.9,330.4,24,330,24z M332.4,23.4c-0.3,0-0.5,0-0.7,0.1c-0.5-0.1-1.1-0.1-1.8-0.1c0.3-0.2,0.5-0.4,0.8-0.6
		c0.1,0,0.2,0,0.3,0c0-0.1,0-0.1,0-0.1c0.3-0.1,0.7-0.2,1.4-0.1C331.3,22.9,332.3,23,332.4,23.4z M332.4,17.8
		c-0.5-0.5-2.7-1-1.3-1.5c0.2,0.5,1,1,1.8,1.5C332.7,17.7,332.5,17.8,332.4,17.8C332.4,17.8,332.4,17.8,332.4,17.8z M336.4,19.5
		c-1.2-0.4-2.6-0.3-3.5-0.1c-0.1-0.1-0.1-0.2,0-0.4c0.8-0.2,2.5-0.2,4.3-0.2C336.6,19.1,337,19.3,336.4,19.5z M336.8,18.8
		c-2.7-0.8-3.1-1.8-3.1-2.8c3.1,0.4,0.4,0.8,1.6,1.6c0.5-0.2,2.4-0.9,3.5-0.4c-0.2,0.6-1.5,0.5-2.9,0.4c-0.6,0.6,0.5,0.8,1.5,0.9
		C337.1,18.6,336.9,18.7,336.8,18.8z M345.5,18.8c-1,0.3-2.6,0.5-2.7,1.3c-1-0.3-3.2-0.1-4,0.2c-1.8-0.3,1.8-0.4,0.6-1.1
		c1.8-0.1,1.5,0.6,2.9,0.2c-0.7-0.3-0.8-0.5-0.7-0.7c1-0.1,1.8-0.3,2-0.7c-0.1,0-0.2,0-0.3-0.1c0.4,0,0.8,0.1,1.3,0
		c0.7-0.6-1.9-0.1-1.2-0.7c2.6-0.1,3.3,0.3,5.2,0c0.2,0.2,0.2,0.5,0.3,0.7c-0.6,0-1.1-0.1-1.5-0.5C346.2,17.7,345.7,18.2,345.5,18.8
		z M353.2,22.9c-0.7,0-1.1,0.1-1.4,0.1c-0.7,0-1.6,0-2.4-0.1c-0.1,0-0.3,0-0.4,0c-0.2,0-0.5-0.1-0.7-0.1c1-0.2,1.2-0.7,2.8-0.8
		c0.1,0.1,0.2,0.2,0.4,0.3c-0.3,0-0.5,0.1-0.5,0.2c0.5,0,0.5,0.1,0.6,0.2c0.3,0,0.5-0.1,0.7-0.2c0.5,0.1,1.1,0.1,1.9,0
		C353.9,22.7,353.5,22.8,353.2,22.9z M361.3,24.5c-0.6,0-1.1,0-1.7,0c-0.2-0.1-0.4-0.2-0.6-0.3c0,0,0.1,0,0.1-0.1
		c0.5-0.1,1-0.1,1.7-0.1C361.2,24.1,361.5,24.3,361.3,24.5z M353.3,21.8c0.2-0.1,0.5-0.3,1-0.3c0,0,0,0-0.1,0c0.3,0,0.6-0.1,0.9-0.1
		c-0.1,0.1-0.2,0.2-0.2,0.3c0.4,0,0.8,0,1.2,0c0.7-0.2,0.6-0.4,0.3-0.6c1-0.3,1.3-0.9,0.4-1.4c0.6-0.1,1.3-0.1,1.6-0.3
		c-0.8,0-1.1-0.1-1.5-0.1c4.1-0.4,6.7,0.5,7.2,1.4c-0.1,0.1-0.3,0.1-0.5,0.2c0,0.2,0.1,0.4,0.3,0.6c0,0-0.1,0.1-0.1,0.1
		c0.1,0,0.2,0,0.3,0c0.2,0.1,0.6,0.2,1.3,0.2c-0.1,0-0.1-0.1-0.1-0.1c0.3,0,0.5,0.1,0.5,0.2C360,21.6,356.7,22.7,353.3,21.8z
		 M368.5,21.1c-0.8-0.1-1.3-0.2-0.9-0.7c0.3,0,0.5,0,0.8,0C368.7,20.7,368.8,20.9,368.5,21.1z M370.6,21.6c0-0.1-0.2-0.2-0.5-0.3
		c0.5-0.1,1-0.1,1.6-0.1C371.3,21.3,370.9,21.4,370.6,21.6z M369.3,20.4c0.8,0,1.4,0.1,2,0.2c-0.1,0.1-0.2,0.1-0.1,0.2
		C370.5,20.7,369.9,20.5,369.3,20.4z M372.6,21.5c-0.1,0-0.2,0-0.3,0c0.1-0.2,0.4-0.3,0.6-0.4c0.2,0.1,0.4,0.2,0.5,0.4
		C373.1,21.5,372.8,21.5,372.6,21.5z M382.1,17.8c-1,0.1-1.8,0-2.5,0c0.6-0.2,0.9-0.4-0.5-0.5c-0.8,0-1.2,0-1.4,0.2
		c-0.3-0.1-0.6-0.2-0.9-0.3c0.8,0.3,0.1,0.5-0.9,0.8c-0.6-0.6-2-0.9-3.3-1.3c0.1,0,0.1-0.1,0.2-0.1c-0.1,0-0.3,0-0.4,0
		c-0.4-0.1-0.7-0.2-1-0.4c-0.1,0.1-0.2,0.3-0.3,0.4c-1.6,0.1-3,0.2-4,0.4c1.3,0,2.6,0,3.6-0.1c-1,0.7-2.5,1.2-4.1,1.1
		c0.8,0.6,4.5,0.4,4.8,1.1c-3-0.3-3.1-0.3-2.9,0.8c-2.3,0.1-2.1-0.5-4.8-0.3c0.4-0.4,0.1-0.6-0.3-0.7c3.1-0.1,3.8-1.8,0.7-1.3
		c0.7,0.1,2,0.8,0.6,0.9c-2.3,0.3-0.2-0.8-1.7-0.7c-1.4,0.2-0.9,0.4-0.7,0.8c-0.4-0.1-0.7-0.3-0.5-0.6c0.2-0.3,0.7-0.5,1.1-0.8
		c0.5,0,1.2,0,1.8,0c0.3-0.3-0.4-0.4-0.8-0.5c0.2-0.1,0.4-0.2,0.6-0.4c2.5,0,4.8,0,6.1-0.4c0.4-0.4-0.5-0.5-0.6-0.8
		c0.7-0.1,1.3-0.2,1.5-0.2c0.4,0.5,0.9,0.6,1.6,0.7c0.8,0.2,2.6,0.2,3.6,0.3c-1,0.2-4.5,0.2-2.6,0.6c0.4-0.2,2.9-0.3,3.2-0.5
		c0.2,0.1,0.2,0.2-0.4,0.4c0.4-0.1,0.8-0.1,1.2-0.2c1.3,0.5,3.9,0.7,6.2,0.6C383.2,17.1,382.2,17.3,382.1,17.8z M384.4,11.9
		c0-0.2-0.5-0.2-0.6-0.4c0.3-0.2,1.3-0.1,1.9-0.2c0.1,0.2,0.2,0.4,0.2,0.7C385.5,12,385,11.9,384.4,11.9z M407,13
		c-1.1,0-2-0.1-2.8-0.1c0.2,0,0.3-0.1,0.5-0.1c0,0,0,0,0,0.1c0.4,0,0.5,0,0.6-0.1C405.9,12.6,406.5,12.7,407,13z M388.4,11.5
		c0.2,0.1,0.1,0.3,0.1,0.4c0.7,0.3,3.2,0,3.4,0.5c-0.1,0-0.2,0.1-0.3,0.1c-1.4,0.1-2.6,0-3.9-0.2C387.8,12,388.1,11.7,388.4,11.5z
		 M389.7,13c-0.2,0-0.5,0.1-0.8,0.1c-0.3-0.1-0.6-0.2-0.7-0.3c0.3,0,0.6-0.1,0.9-0.2C389.3,12.7,389.5,12.9,389.7,13z M392.7,17
		c-0.5,0.1-1,0.2-1.5,0.3c-0.1,0-0.3,0-0.4,0c-0.2-0.1-0.7-0.1-1.3-0.1c-0.5,0-1,0-1.4,0c-0.1,0-0.1,0-0.2,0
		c-0.1-0.1-0.3-0.3-0.4-0.5c1-0.1,1.6-0.3,1.5-0.6c0.7,0.2,1.5,0.3,2.4,0.3c0.7,0.1,1.3,0.3,1.7,0.5C392.9,16.9,392.8,17,392.7,17z
		 M396.1,17.2c-0.9-0.2-1.4-0.5-1.5-0.9c1.3,0,2.1-0.1,2.9-0.3c-0.2,0.5,0,0.8,0.5,1.1C397.5,17.2,396.8,17.2,396.1,17.2z
		 M398.3,17.4C398.3,17.4,398.3,17.4,398.3,17.4c0.1,0,0.1,0,0.2,0C398.4,17.4,398.4,17.4,398.3,17.4z M400.1,11.9
		c0.3-0.1,0.7-0.3,0.4-0.5c0-0.1,0-0.1,0-0.2c0.2,0,0.4,0,0.7,0c0.3,0.1,0.4,0.3,0.1,0.4c0.3-0.2,0.6-0.3,0.9-0.4
		c1,0.1,2.1,0.2,3.1,0.1c0.2,0,0.4,0,0.7,0.1c-0.3,0.1-0.5,0.2-0.6,0.3c-0.5,0.1-0.9,0.3-1.4,0.4C403.2,12,402.7,11.8,400.1,11.9z
		 M404.4,14.1c-0.1,0-0.2-0.1-0.3-0.1c0.2,0,0.4,0,0.6,0C404.6,14.1,404.5,14.1,404.4,14.1z M405.3,14.2c0.2,0,0.4,0,0.6,0
		c0.4,0.1,0.7,0.3,1.5,0.3c-0.4,0.1-0.7,0.2-1.1,0.3c-0.2,0-0.4-0.1-0.6-0.1C406.2,14.6,406.2,14.5,405.3,14.2z M407.7,17.9
		c-0.5-0.1-1-0.1-1.5-0.2c1-0.1,1.7-0.2,2.4-0.2c0,0,0.1,0,0.1,0C408.3,17.6,407.9,17.7,407.7,17.9z M407.6,13.9
		c0.5-0.2,1-0.3,1.6-0.2c0.1,0.1,0.1,0.2,0.1,0.2C408.7,13.9,408.2,13.9,407.6,13.9z M410.4,18.3c-0.2,0-0.4-0.1-0.7-0.1
		c0.6-0.1,1.1-0.1,1.3,0.1C410.8,18.3,410.6,18.3,410.4,18.3z M413,18.8c-0.2,0-0.5-0.1-0.7-0.1c0.5-0.1,0.9-0.2,1.1-0.4
		c-0.1,0-0.2,0-0.3-0.1c1.1-0.3,0.8-0.5,0.4-0.8c0.2,0,0.4-0.1,0.5-0.2c-0.2,0-0.5,0-0.8-0.1c-0.1-0.1-0.2-0.2-0.2-0.3
		C418.8,17,413.7,18.1,413,18.8z M416.8,11.8c0.6-0.1,1.4-0.2,2.3-0.3c0,0,0,0,0,0c0.8,0,1.3,0.1,1.7,0.2c0.3-0.1,0.4-0.2,0.4-0.2
		c0.1,0,0.2,0,0.4,0c0,0.2,0.1,0.3,0.2,0.4c-0.1,0-0.3,0.1-0.4,0.2c0.2,0,0.4,0,0.6,0c0.2,0.1,0.3,0.2,0.5,0.3
		C419.9,12.4,417.7,12.2,416.8,11.8z M424.6,11.2c-0.6-0.1-1.4-0.2-2.3-0.3c0.9,0,1.9,0,2.8,0C424.8,11,424.6,11.1,424.6,11.2z
		 M437.7,16.5c-0.8,0-1.6,0-2.4,0c0.4-0.2,1.4-0.3,1.8-0.5c-1.2,0-2.3-0.1-1.9-0.5c1.9,0.1,3.7,0.3,4.8,0.6c-1.7-0.1-1.1-0.1-2.9,0
		C436.9,16.4,437.2,16.5,437.7,16.5z M439,16.6c0.3-0.1,0.8-0.2,1-0.4c0.4,0.1,0.6,0.3,0.8,0.4C440.2,16.6,439.6,16.6,439,16.6z
		 M449.9,12.1c-0.5,0-1.1,0-1.6,0.1c-0.2,0-0.4,0-0.5,0c0.2-0.3,0.9-0.4,1.6-0.5c0.2,0.2,0.5,0.3,1,0.3
		C450.2,12.1,450.1,12.1,449.9,12.1z M450.8,10.8c-0.1,0-0.1-0.1-0.2-0.1c0.3,0,0.6,0,0.8,0.1C451.3,10.8,451.1,10.8,450.8,10.8z
		 M446.8,7.5c3.9,0.2,4.4-0.3,2.6-0.7c1,0.1,2.5,0.1,4,0c0,0,0,0,0,0c0.8,0,1,0.3,1.7,0.4c-0.2-0.4,1.8-0.2,2.2-0.5
		c1.1,0.1,1.9,0.3,2,0.8c-3.4,0.2-6.6,0.3-7.1,0.6c-1,0.1-2.2,0-2.4,0.3c0.9,0.1,1.9,0,2.6-0.1c0.2,0.1,0.6,0.2,1,0.2
		C449.9,8.7,446.7,8.9,446.8,7.5z M453.5,9.9c0.5,0,1.1,0,1,0.2c-0.2,0.1-0.4,0.1-0.6,0.2C453.6,10.2,453.5,10.1,453.5,9.9z
		 M453.9,11.2c0-0.1,0-0.1,0-0.2c0.8,0.1,1.6,0.2,2.3,0.3C455.4,11.3,454.6,11.3,453.9,11.2z M457.4,10.7c0.2,0,0.4-0.1,0.5-0.1
		c0.1,0,0.2,0.1,0.3,0.1C458,10.7,457.7,10.7,457.4,10.7z M459.3,8.3c-0.1-0.7,4.8-1.3,5.8-0.8c-2.2,0-1.6,0.8-3.1,1
		c0.2-0.2,0.2-0.5-1.8-0.5c0.3,0.1,0.4,0.2,0.4,0.3C460.3,8.3,459.9,8.2,459.3,8.3z M465.1,18.3c-1.1-0.9-3.7,0.1-4.8-0.5
		c0.1-0.1,0.3-0.1,0.5-0.2c0,0.1,0,0.2,0,0.3c1.1,0,0.7-0.5,1.7-0.4v-0.5c-0.3,0-0.6,0.1-0.8,0.1c0.2-0.1,0.3-0.1,0.5-0.2
		c0.1,0,0.2,0,0.3,0.1v-0.2c0.7-0.2,1.6-0.2,2.5,0.2C462.2,17,468.5,18,465.1,18.3z M474.7,13.9c-3.3,0.2-4.1-0.5-5.8,0
		c-0.2-0.8,2.7-0.7,3.9-1.1c0.4,0.4,1.2,0.5,0,0.8C475.5,13.3,476.1,14.7,474.7,13.9z M483.4,13.7c0.2,0.4,1.6,0.5,1.9,0.8
		c-1.7,0.1-4.8-0.8-5.8,0c0.5,0,1.1,0.2,0,0.3c0-0.4-2.7-0.2-2.9-0.5c0.8-0.6,3.6-0.6,3.9-1.4c-2.9,0.2-3.5-0.3-5.8-0.3
		c-0.1-0.7-0.2-1.3,1.9-1.4c-1.5,1.3,6.7-0.3,3.9,0.5c-1.7,0-2.3,0.3-1.9,0.8c4.9,0.1,10.5,0,12.5,0.8
		C488.8,13.6,486.7,13.8,483.4,13.7z M493.1,15.3c8.2-0.1-3.3-1-1-1.1c5.3-0.5,6.1,1.6,8.7,0.3c-0.5,1.2,2.6,0.3,2.9,0.8
		c-0.8,0.1-1.1,0.2-1,0.5C500.6,15.3,494.8,15.9,493.1,15.3z M499.8,23.4c0.6,0,1.3,0,1.9,0c-0.2-0.4-1.6-0.5-1.9-0.8
		c1.3,0,2.6,0,3.9,0c-0.1,0.5,0.2,0.8,1,1.1C503.2,23.5,499.6,24,499.8,23.4z M524.9,16.1c0,0.4,0.5,0.6,1,0.8
		c-3.1,0.2-2-0.7-3.9-0.8c0,0.5-0.8,0.7-1.9,0.8c-1.4-1.3-8.2,0.3-9.6-0.5c5.9-0.6,11.1-1,18.3,0C526.8,16.9,526.9,16.2,524.9,16.1z
		 M539.4,17.2c-3-0.1-7.1,0.2-8.7-0.3c0-0.4,0-0.7,0-1.1c2.9,0.3,7.7,0,8.7,0.8C538.2,16.7,538.8,16.9,539.4,17.2z M593.4,16.4
		c-1.2,0.1-0.6,0.3,0,0.5c-2-0.2-6.3,0.3-6.8-0.3c1.1,0,1.1-0.4,1-0.8c1.3,0,2.1-0.1,2.9-0.3c0.5,0.3,1,0.6,1.9,0.8
		C592.4,16.2,593.2,16.1,593.4,16.4z M581.8,16.6c2.2-0.2,2.1-1,4.8-1.1C586.5,16.2,583.9,17.4,581.8,16.6z M551.9,11.5
		c-1.2,0-1.3,0.3-2.9,0.3c-1.8-0.5-2.9-1.3,0-1.6c-4.7-0.2-9.2-0.5-12.5-1.1c3.3,0.1,1.5-1.2,5.8-0.8c0.9,0.5-2.9,0.9,0,1.1
		c2.2-0.6,8.3-1.6,12.5-0.8c-1.3,0-1.2,0.7,0,0.8c11.2,0.2,27.3-0.9,36.7,0c-13.9,0.8-26.2,0.2-34.7,0.5c-0.2,0,0.9,0.5,1,0.5
		c-3,0.2-1.2-0.9-4.8-0.5c4.3,0.7-1.1,0.6-2.9,1.1C555.8,11.3,564.1,11.5,551.9,11.5z M547.1,17.2c2.7,0.2,2.5-0.4,4.8-0.3
		c-1.8,1.3-10.5,0.2-11.6-0.5c3.1,0.3,5.9-1,8.7-1.6c0.2,0.7,5.4,0.1,4.8,1.1c-4.6-0.1-7,0.4-9.6,0.8
		C546.1,16.5,546.1,17,547.1,17.2z M567.4,18.3c0.2-0.8-6,0.2-5.8-0.5c3,0.1,2.7-0.7,3.9-1.1c-5.2,0.3-8.7-0.1-11.6,0.5
		c0-1.2,5.9-1.3,7.7-0.5c-1-0.8-0.9-2.3,1.9-1.6c-0.4,0.4,6.2,1.1,8.7,1.6c-0.6-0.7-4-0.7-3.9-1.6c3.5-0.1,5.6-0.4,8.7,0
		C577.3,16.5,571.2,17.2,567.4,18.3z M578,15.6c1.2-0.1,0.6-0.3,0-0.5c1.3,0,2.1-0.1,2.9-0.3c0.2,0.4,3.2,1.4,1,1.6
		C581.6,15.8,577.6,16.3,578,15.6z M594.4,18c-6.1,0.4-9.4,0.1-12.5,0.5c0.6-1.6,5.4-0.6,9.6-1.3C590,18.1,594.8,17.3,594.4,18z"/>
	<path class="st1" d="M417.4,3.7c-3.3-0.2-7-0.4-9.8,0.2c3.7,0.6,3.6,0.6,6.9,0.9C416.1,4.3,415.9,4.3,417.4,3.7z"/>
	<path class="st1" d="M426.5,5.8c-2,0.2,1.3,1,3.9,0.8c-0.2-0.3,0.2-0.5,1-0.5C431,5.2,427.1,6.8,426.5,5.8z"/>
	<path class="st1" d="M423.2,7.1c1.3,0,2.7,0,4,0C427.2,6.2,423,6.8,423.2,7.1z"/>
	<path class="st1" d="M318.5,16.2c2.5-0.1,1.7-0.7,0.6-1.1C318,15.6,319.3,15.6,318.5,16.2z"/>
	<path class="st1" d="M339.3,9.8c-0.1-0.7,3.7-0.3,4.6-0.7c-1.7-0.6-4.4-0.9-6.9-0.4C337,9.3,337.7,9.7,339.3,9.8z"/>
	<path class="st1" d="M341,4.8c-1-0.1-3.6-0.5-4-0.2C337.7,5.2,339.7,5.3,341,4.8z"/>
	<path class="st1" d="M346.3,8.9c0.1,0.1,0,0.4,0.6,0.4c0.2-0.3,2.2-0.1,1.7-0.7c-1.1,0-1.3-0.2-2.3-0.2c0.9,0.6-2,0.1-1.7,0.5
		C345.1,8.9,345.7,8.9,346.3,8.9z"/>
	<path class="st1" d="M335.3,8.2c-2.7,0.1-0.5,0.5-2.3,0.9c0.8,0,1.5,0,2.3,0C335.3,8.8,335.3,8.5,335.3,8.2z"/>
	<path class="st1" d="M393.7,7.2c3,0.1,2.2-0.8,5.8-0.5c-1.1-0.5-5-0.2-6.8-0.5C392.6,6.6,393.9,6.7,393.7,7.2z"/>
	<path class="st1" d="M333.9,12.3c2.8-0.2-0.6-0.9,0-1.4c-2.7-0.2-2.5,0.4-4.8,0.3C329.4,12.3,334.2,10.8,333.9,12.3z"/>
	<path class="st1" d="M324.8,7.3c0.1-0.6-3.4-1.1-4-0.4C322,7.1,322.8,7.4,324.8,7.3z"/>
	<path class="st1" d="M372,8.6c0,0.1,0,0.2,0.1,0.3c-0.6,0-0.9,0.2-1,0.3c1.3,0.6,5.2,0.3,8.1,0.4c-1-0.9,2.5-0.4,2.3-1.1
		c-1-0.3-1.8-0.6-4-0.5c-0.7,0.5-1.9,0.5-3.4,0.4c-0.8-0.5-2.6-0.9-3.6-0.4c0.4,0.1,0.7,0.2,0.9,0.2c-1.1,0-2.1,0.1-2.7,0.5
		C370.2,8.7,371.2,8.6,372,8.6z M374.6,8.7c1.8-0.1,2.3,0.3,3.5,0.4c-1.6,0.4-2.7,0.3-4.1,0.2C374.3,9.1,374.6,8.9,374.6,8.7z"/>
	<path class="st1" d="M388.9,7.5c0.5,0.4,0,0.5-0.8,0.5c-0.9-0.1-1.9-0.1-3,0c0,0,0,0-0.1,0c0,0,0,0,0,0c-0.5,0-1.1,0.1-1.7,0.2
		c0.2,0.8,3.3,0.7,5.8,0.5c0.9,0,1.7,0,1.7,0.1c1.5-0.4,2.7-1.4,1-1.9c-3.5,0.1-6.1,0.7-6.8-0.5c-3-0.2-1.2,0.9-4.8,0.5
		C381.5,7.7,386.6,7.6,388.9,7.5z"/>
	<path class="st1" d="M378.2,11.8c2.7-0.1,3.4-0.8,3.9-1.6c-1,0-1.9,0-2.9,0c-0.1,0.4-0.2,0.8,1,0.8C379.5,11.2,378,11.2,378.2,11.8
		z"/>
	<path class="st1" d="M349.1,9.8c0.2-0.3,1.6-0.3,1.2-0.9C348.4,8.8,347,9.6,349.1,9.8z"/>
	<path class="st1" d="M355.5,9.4c2.2,0,5.2,0.8,7.5,0.2c-2.7-0.1-1.4-0.4-2.3-0.9c-0.5,0.2-2.4,0.9-3.5,0.4c1.7-1.4,4.2-1.4,6.4-2.7
		c-1.7,0.1-2.1,1.2-3.5,0.4c-0.9,0.4-2.2,0.8-1.7,1.6c-1.3,0.1-2.2,0-2.9-0.2C356.8,8.8,356.4,8.7,355.5,9.4z"/>
	<path class="st1" d="M363,8.5c0.2-0.3,1.2-0.4,1.1-0.9c-3.4,0-1.8,0.4-4.6,0.9C360.7,8.5,361.9,8.5,363,8.5z"/>
</g>
</svg>
