<?xml version="1.0" encoding="utf-8"?>
<!-- Generator: Adobe Illustrator 20.0.0, SVG Export Plug-In . SVG Version: 6.00 Build 0)  -->
<svg version="1.1" id="Modal_Divider" xmlns="http://www.w3.org/2000/svg" xmlns:xlink="http://www.w3.org/1999/xlink" x="0px"
	 y="0px" viewBox="0 0 600 8" style="enable-background:new 0 0 600 8;" xml:space="preserve">
<style type="text/css">
	.st0{fill:#88E333;}
</style>
<path class="st0" d="M114.8,7.9c0.7-0.1,3-0.1,5.3-0.1C118.8,7.9,116.8,7.9,114.8,7.9z M62.2,7.7c-5,0-11.3-0.1-13.3,0.2
	C53.2,7.8,57.3,7.9,62.2,7.7z M99.3,7.7c-2.1,0-5.1-0.1-7.4,0c1.8,0,2.2,0.1,3.8,0.1C97.2,7.7,98,7.7,99.3,7.7z M81.3,7.7
	c-1.3,0-3.9,0-4.2,0C78.1,7.7,81,7.8,81.3,7.7z M318.9,7.6c0.6,0,0.9,0.1,2.7,0C319,7.4,311.9,7.5,318.9,7.6z M378.3,7.1
	c-1.3,0-1.1,0.1-2.7,0c-0.4-0.1,0.6-0.1,1-0.2c-3.3,0-0.6,0.2-3.8,0.2C374.2,7.2,377.3,7.2,378.3,7.1z M501.2,6.9c-1.4,0-3,0-3.8,0
	c-0.6,0.1,3.6,0,1.7,0.1C500.3,7.1,501.2,7,501.2,6.9z M432.6,7c-1.6,0-3,0-3.8,0.1C430.2,7,431.9,7.1,432.6,7z M402.9,6.9
	c-1.4,0-3.1,0-3.1,0.1C400.7,7,403.3,7,402.9,6.9z M443.8,6.9c0.6,0,1.8,0,3.1,0C447.7,6.8,443.8,6.8,443.8,6.9z M600,6.1
	c-1.9-0.1-4.4,0-5.3,0.1C597.3,6.2,598.5,6.1,600,6.1z M6.3,5.8C6.6,6,4,6,4.1,6.2C7.7,6.2,9.1,5.9,6.3,5.8z M580.3,6.1
	c0.4-0.1-1.1-0.1-1.7-0.1c-0.2,0-0.7,0.1-0.6,0.1C579.1,6.1,579.9,6.1,580.3,6.1z M560.6,5.9c-2,0-0.3,0.2-2.1,0.2
	c0.7,0,1.1,0,1.7,0C559.9,6,561.1,6,560.6,5.9z M507.4,5c0.2,0.1-1.6,0-1.7,0.1C507.6,5.2,509.8,5.1,507.4,5z M512.8,5
	C513.7,5,512.7,5,512.8,5c1,0.1,1.2,0.1,2.1,0.1C514.6,5.1,513.6,4.9,512.8,5z M570.8,4.7c1.3,0,3.6,0,3.8,0.1
	c0.1-0.1,2.2-0.1,1-0.2c-2.2,0-4,0-4.2-0.1c-2.7,0.1,0.4,0.4-2.7,0.3C568,5,571.3,5,571.8,4.9C570.4,4.9,570.8,4.8,570.8,4.7z
	 M580.3,4.6c-1.7,0-2.8,0-3.1,0.1C578.5,4.7,580.1,4.7,580.3,4.6z M585.7,4.6c-1.4,0-2.9,0-4.2,0C581.1,4.7,585.9,4.7,585.7,4.6z
	 M595.2,4.5c-1.1,0.1-3.4,0-4.8,0.1C591.3,4.6,596.7,4.6,595.2,4.5z M478.8,4.2c-1,0-1,0-1.7,0.1c0.1,0.1,0.1,0.2,1.7,0.2
	C477.8,4.3,480,4.3,478.8,4.2z M474,4.2c0.4,0.1-0.6,0.1-0.6,0.2c0.6,0,1.2,0.1,1.7,0C473.7,4.4,476.3,4.2,474,4.2z M21.2,4.1
	c-1.6,0-3.8,0-4.2,0.1C17.9,4.3,21.3,4.3,21.2,4.1z M568.7,4.1c-2-0.1-3.2-0.1-4.8,0.1C565.9,4.2,567.8,4.2,568.7,4.1z M472.4,4
	c-1.3,0-1.1-0.1-2.7,0c-0.4,0.1-1.8,0.2,0,0.2C469.9,4,472,4.1,472.4,4z M519.2,3.9c-2.3,0-3.2-0.2-5.3-0.2
	c-1.7,0.1,1.6,0.2,2.7,0.3c0.4,0.1-2.6,0-2.1,0.1C516.9,4.1,518.6,4,519.2,3.9z M444.2,4c0.6-0.1-1.7-0.1-2.7-0.1
	C441.8,4.1,443,4,444.2,4z M448.6,3.7c-0.6-0.1-2.7-0.2-1-0.3c-2.3,0-2.1-0.1-3.8-0.1c0.1,0.1-3,0-2.1,0.2c0.9,0.1,2.4-0.1,3.8,0
	c-1.8,0-2,0.2-2.7,0.3c0.9,0,1.7,0,2.1,0c0.1-0.1-0.6-0.1-0.6-0.1c0.8,0,1.9,0,2.1,0c-1.3,0.1-0.6,0-0.6,0.2c-1,0-1.2,0-2.1,0
	C443.6,4,449,3.8,448.6,3.7z M547.3,3.3c-1.7,0-1,0-2.7,0c-0.4,0.1,1.1,0.1,1.7,0.1C546.4,3.4,547.2,3.4,547.3,3.3z M436.3,3.1
	c-1,0.1,0.2,0.1-0.6,0.2C438.1,3.3,437.3,3.2,436.3,3.1z M465,3.2c-0.4,0-1,0-1,0c0.1-0.1,1-0.1-0.6-0.1c-0.8,0.1,0.4,0.1-0.6,0.2
	c0.3,0,0.6,0,0.6,0C464.3,3.3,464.8,3.2,465,3.2z M435.2,2.8c1.1,0.2,4.1,0.2,5.3,0.4C443.4,2.9,437.8,2.8,435.2,2.8z M499,2.9
	c-1,0-1,0-1.7-0.1c0.8,0.1-1.8,0-1.7,0.1c1.6,0,0.6,0.1,0.6,0.1c1,0,1.2,0,2.1,0C498.4,3,499.3,3,499,2.9z M584.5,2.9
	c0.9,0,3.6,0.1,4.8,0C588.1,3,585.7,2.8,584.5,2.9z M535.1,2.6c-1.6,0-3.7,0-3.8,0.1C533.1,2.7,534.7,2.7,535.1,2.6z M530.3,2.5
	c1.2,0,3.9,0,4.2,0C532.6,2.5,531.4,2.4,530.3,2.5z M529.9,2.3c2.3-0.1,5.1,0,6.4-0.1c-1.8,0-0.7-0.1-2.7-0.1c-0.1,0.2-2.9,0-4.2,0
	c-0.3,0.1-0.8,0.2-1,0.3c0.7,0,1.1,0,1.7,0C530.7,2.3,529.8,2.4,529.9,2.3z M587.2,2.2c-1-0.1-0.9,0-2.7,0c-0.2,0.1,0.2,0.2,1.7,0.1
	C585.8,2.3,587.2,2.3,587.2,2.2z M62.2,2c0.1-0.2,6.1-0.1,4.8-0.2C61.9,1.9,54.5,2,48.9,2.2C53.7,2.3,57,2,62.2,2z M359.2,2.1
	c0,0-1.4,0-1.7,0c0.1-0.1,2.4-0.1,3.1,0c0.2-0.1-1-0.1-0.6-0.2c-1.8,0-3,0-4.2,0c0.9,0.1,1,0.1-0.6,0.2c0.8,0,2,0,1.7,0.1
	C358.7,2.2,360.6,2.2,359.2,2.1z M38.8,2.1c-1.7,0-4.2,0-4.8,0.1C35.7,2.1,37.9,2.1,38.8,2.1z M552.1,2.1c-1.4,0-4.2,0-4.8,0
	C549.7,2.1,550.8,2.2,552.1,2.1z M397.4,1.9c-1.2,0-1.8,0-3.1,0c-0.1,0.1,0.3,0.2,1,0.2C395.1,2,396.9,2,397.4,1.9z M51.5,2.1
	c-0.3-0.2-4.2-0.2-5.8-0.1c0.8,0,2.8,0,2.7,0c-1.1,0-1.8,0-1.7,0.1C48.5,2.2,49.3,2,51.5,2.1z M500,1.9c-1,0-0.9-0.1-2.7-0.1
	C497.2,2,499.9,2.1,500,1.9z M465,1.8c-1.8,0-3,0.2-1,0.2C464.1,1.9,465.4,2,465,1.8z M493.7,1.8c-0.9-0.1-1.7-0.1-3.8-0.1
	c-1.6,0.2-6.6-0.1-7.9,0.1c2.1,0,3.2-0.1,4.2,0c-1.2,0-2,0-2.1,0.1c1.2,0.1,4.8,0.1,7.4,0.1C490.6,1.8,493.9,1.9,493.7,1.8z
	 M486.8,1.9c0.3,0,0.6-0.1,0.6-0.1c1.7,0,2,0.1,3.1,0.1C489,1.9,488,1.9,486.8,1.9z M589.3,1.8c-3.2,0-2.6,0-3.8-0.1
	c-1,0-2.2,0-2.1,0.1c2.3,0,2.8,0.1,4.8,0.1C587.9,1.8,589.3,1.9,589.3,1.8z M519.7,1.8c-0.6,0.1-2.1,0-2.1,0.1c0.8,0,2.8,0,2.7,0
	C517.3,1.9,521.9,1.8,519.7,1.8z M463.4,1.8c-1,0-1.2,0-2.1,0c0.8,0.1-1.8,0-1.7,0.1c0.6,0,1,0,1.7,0c0.1,0,0,0.1,0.6,0.1
	C462,1.8,463.8,1.9,463.4,1.8z M75.5,1.7c0.3,0.1-1.4,0.1-1.7,0.2c0.3,0,0.6,0,0.6,0c0.3,0,0.7,0,1,0C75.6,1.8,77.2,1.8,75.5,1.7z
	 M451.2,1.7c-2.6,0-0.6,0.1-2.1,0.2c0.7,0,1.4,0,2.1,0C451.2,1.8,451.2,1.7,451.2,1.7z M418.7,1.7c-2.8,0-6.3,0-7.4,0.1
	C414.8,1.8,417.6,1.9,418.7,1.7z M502.2,1.8c-1.9-0.1-3.9-0.2-6.9-0.1C495.4,1.9,500,1.8,502.2,1.8z M373.6,1.7
	c-1.8,0-2.2,0.1-1.7,0.2c0.8,0,1.9,0,2.1,0C372.6,1.8,373.6,1.7,373.6,1.7z M362.9,1.7c-0.8,0-1.8-0.1-1.7-0.1c2.3-0.1,4.7,0,6.4,0
	c1,0,1.8-0.1,2.7-0.1c-0.1-0.1-0.8-0.1-2.1-0.1c-1,0-0.8,0.2-2.7,0.1c-0.9,0-1.7-0.1-2.1-0.1c1.3,0,2.1-0.1,2.7-0.2
	c-2.9,0-3,0.3-4.8,0.2c-0.1-0.1,2-0.1,2.1-0.2c-4.8-0.2-1.2,0.3-4.2,0.2c-0.3,0.1,1.9,0.1,1.7,0.2c-1.4,0-3.6,0-3.8,0.2
	c2.7,0.1,1.4-0.1,3.1-0.1c0,0.1,0.9,0.1,0,0.1C361.7,1.8,362.9,1.8,362.9,1.7z M477.8,1.6c-3.1,0-1.7,0.1-4.2,0.2c1,0,2.1,0,3.1,0
	C476.9,1.7,477.9,1.7,477.8,1.6z M423,1.7V1.6c-1.8-0.1-1.8,0.1-3.1,0c-0.1,0.1,0.6,0.1,0.6,0.1c-0.6,0-1.2,0-1,0.1
	C421,1.8,421.8,1.7,423,1.7z M250.8,1.5c-0.9,0-1.7,0-2.1,0c1,0.1-0.7,0.2,1,0.2C249.2,1.6,250.6,1.6,250.8,1.5z M49.9,1.5
	c-1.7,0.1-2.8,0.1-4.2,0c-0.3,0.2,3,0.1,4.2,0.1C49.6,1.5,50.9,1.5,49.9,1.5z M71.8,1.5c-1,0-2.1,0-3.1,0
	C68.2,1.7,71.7,1.6,71.8,1.5z M437.9,1.4c1.1,0,1.8,0.1,3.8,0.1C441.8,1.4,438.4,1.3,437.9,1.4z M563.3,1.4c-1.1,0-3.4,0-3.8,0
	c0.7,0,0.9,0.1,1.7,0.1C560.9,1.4,563.1,1.4,563.3,1.4z M531.9,1.5c1.2,0,2.4,0,3.8,0C535.7,1.3,531.8,1.4,531.9,1.5z M572.3,1.3
	c-1.6,0-2.2,0-3.8,0C568.1,1.4,572.7,1.4,572.3,1.3z M300.2,1.3c-1.1,0-3.4-0.1-3.8,0C297.4,1.4,299.3,1.3,300.2,1.3z M337.4,1.2
	c-1,0-1.2,0-2.1,0v0.1C336.6,1.3,337,1.3,337.4,1.2z M290.7,1.1c-1.8,0-5.3,0-8.6,0c0-0.1,2.2-0.1,0-0.1c-0.4,0.1-1.1,0.1-2.1,0.1
	C282.6,1.2,287.8,1.3,290.7,1.1z M291.2,1.2c1,0.1,2.6-0.1,3.8,0C295.6,1.1,291.2,1.1,291.2,1.2z M396.4,1.1c0,0.1-1.6,0-1.7,0.1
	c1.3,0,1.7,0.1,2.7,0.1C397.7,1.1,397.3,1.1,396.4,1.1z M180.7,1c-2.8,0-6.2-0.1-6.9,0C177,1.1,178.3,1.2,180.7,1z M184.9,1
	c1.3,0.1,2.7,0,3.8,0.1C188.2,1,185,0.9,184.9,1z M64.2,1c-2,0-1.8,0.1-2.7,0.1C62.9,1.1,64.3,1.1,64.2,1z M456.4,1
	c-0.9,0-3.2-0.1-3.8,0C453.4,1.1,455.2,1.1,456.4,1z M286.9,1c1.7,0,2.6,0,3.8,0.1C291.3,0.9,287.6,0.9,286.9,1z M537.8,1
	c2.2,0,3.1-0.1,3.8-0.2c-5.2,0.1-7.9,0-13.9,0c1.3,0.2,0,0.2-0.6,0.3c5,0,8.7-0.2,12.2-0.1C538.7,0.9,538.1,0.9,537.8,1z M526.7,0.8
	c-3,0-6.4-0.1-9.1,0c3.3,0.1,3.2,0.1,6.4,0.2C525.4,0.9,525.2,0.9,526.7,0.8z M283.2,1c0.7,0,1,0.1,2.1,0C283.8,0.8,278,0.9,283.2,1
	z M279.4,0.9c-2.7,0-6.7,0-8.6,0C274.1,1,278.8,0.9,279.4,0.9z M597.9,0.5c-0.9-0.1-3.1-0.1-4.2,0c0.6,0,1.6,0,1.7,0
	c-2.9-0.1-6.7,0.1-4.2,0.2C591.2,0.5,596,0.7,597.9,0.5z M588.8,0.5c-2.6,0-3,0.1-3.8,0.2C587,0.7,587,0.5,588.8,0.5z M123.8,0
	c-0.6,0.1-3.9,0-3.1,0.1C121.2,0.2,125.9,0.1,123.8,0z M113.7,7.9C113.2,8,109.4,8,111,8C111.4,7.9,115.6,8,113.7,7.9z M139.8,7.9
	C138.6,7.8,137.1,8,136,8C137.2,7.9,139.4,8,139.8,7.9z M36.1,7.7c4-0.1,6.6,0.1,10.6-0.1c-1,0-1,0-1.7-0.1c-0.2,0.1-2.9,0.1-3.1,0
	c0.1-0.1,1.9,0,2.1-0.1c-1.2,0-4.2,0.1-3.8-0.1c0.1-0.1,4.3,0.1,3.8-0.1c-3,0-6.2,0.1-9.6,0C32.7,7.6,35,7.5,36.1,7.7z M255.6,7.1
	L255.6,7.1c1.1,0,1.8-0.1,2.7-0.1c0.6,0.1,2.1,0.1,2.7,0.2c1.6-0.1,3.9,0,4.2-0.2c1.2,0.1,3-0.1,4.2,0c-0.1-0.1-0.1-0.2,1-0.2
	c1.2,0.1-0.8,0.3,1,0.4c2.4-0.1,5.9,0,6.4-0.2c-1.2,0-2.4,0-2.7-0.1c4.6-0.1,5,0.3,9.6,0.3c0,0-0.9,0-1,0.1
	c6.8,0.2,19.1-0.1,24.9,0.1c-0.1,0-0.9,0.1,0,0.1c0.4-0.1,1.8-0.1,2.7-0.1c8.2,0.2,20.3,0.1,29.7,0c0.3-0.1,0.8-0.1,1-0.1
	c-1.7,0-2.3,0-3.8-0.1c0.6,0.1-0.2,0.1,1,0.2c-1.9,0-3.7,0.1-4.8,0c0.1-0.1,3,0,2.7-0.1c-1.4-0.1-2.4,0-3.1-0.2
	c1.7,0,3.3-0.1,4.8-0.1c0.2,0.1-0.8,0.1,0,0.1c2.4-0.2,8.8,0,12.2,0c-0.6,0.1-0.7,0.2-1,0.3c-3-0.1-6.7,0.2-3.1,0.1c-0.4,0-1,0-1,0
	c2,0,3.3,0,1.7,0.1c6.2-0.1,13.7,0.1,19.7-0.1c2.4,0,3.7,0.2,4.8,0c-1.4-0.1-3.4,0-4.2-0.1c-0.2-0.1,1.6,0,1.7-0.1
	c-2.7,0-3.9-0.1-6.4,0c0.6-0.1-1.8-0.1-1.7-0.1c8.8-0.1,19.1,0.2,27.6-0.3c1.8,0.1,4.8,0,5.8,0.1c-0.7,0-3.9,0-2.1,0
	c3,0,3.7-0.1,4.8,0c-0.6,0-0.8,0-1-0.1c0.9,0,1.8,0,2.7,0c-0.1,0-0.8,0.1,0.6,0.1c2.9-0.2,12.6-0.1,16-0.1c-0.9,0-1.3,0-1.7,0.1
	c4.1,0,6.6,0,9.1-0.2c0,0,0.1,0,0.6,0c-1.8,0.1-1.2,0.2-2.7,0.2c1,0.1,1.6,0.2-0.6,0.2c1.8,0,3.9,0.1,4.8,0c-0.7,0-1.7-0.1-2.1-0.1
	c2,0,3.3,0,3.8,0c-0.3,0-0.6,0-0.6,0c0.3,0,0.6,0,0.6,0c-2,0-3.1,0-3.1-0.1c2.1,0.1,4.6,0,6.4,0.2c2.8-0.2,7.9,0.1,7.4-0.1
	c1.9,0,1,0.1,3.1,0.1C441,7.1,442.2,7,440,7c5.8,0,9.8-0.2,14.3,0c-0.2,0.1-2.6,0.2-1,0.2c1.2-0.1,3.1,0.2,5.8,0.1
	c-0.3,0.1-2.6,0-2.7,0.1c1.9,0,3.1,0.1,3.8,0c-2.8,0,1.1,0,0.6-0.1c-1,0-1.8,0.1-2.1,0c1.9-0.1,2.3-0.2,4.8-0.2
	c-2.3,0-3.8,0.1-4.8,0c1.8,0,4-0.1,5.3,0c0.2,0.1-1,0.1-0.6,0.2c1.3,0,1.6-0.2,2.1-0.2c2.4,0,3.4-0.1,5.3-0.1c1.3,0.1,4,0.2,4.8,0.3
	c-2.3,0-3.8,0.1-4.8,0c0,0,0.9,0,1-0.1c-0.7-0.1-3.7-0.1-3.8,0c0.3,0.1,2,0,2.1,0.1c-0.7,0.1-2.3,0-3.8,0c0.8,0.2-2.2,0.1-2.1,0.2
	c2.4,0,3-0.1,4.2,0c-1.1-0.1,3.6,0,1.7-0.1c-0.8,0-2.8,0-2.7,0c6.6-0.1,11.1-0.1,17.6,0c-0.6,0-1.6,0-1.7,0c1.6,0,1.3,0.1,2.7,0
	c-0.2-0.1,3-0.1,3.1-0.2c-3-0.1-5,0-7.9,0c3.7-0.1,8.3-0.1,10.6,0c1.3,0,0.3-0.1,1-0.1c2.2,0.1,5.8-0.1,6.4,0.2c2.3,0,7-0.1,7.4,0.1
	c1.3,0,9.3,0,7.4,0.1c3.9,0,5.1-0.2,7.9,0c0.6-0.2,3.8-0.2,6.9-0.1c-0.6-0.1,1.7-0.1,0-0.1c-0.3,0-7.7,0.2-6.4-0.1
	c-1.7,0-2.8,0.1-3.1,0c1.9,0,1.8-0.1,2.7-0.1c0,0.1,0.4,0.1,1,0.1c1.1-0.1-0.7-0.2,1-0.2c1.6,0.1,2.2-0.1,3.1-0.1
	c2,0.1,4.8,0.1,6.4,0.2c1.3,0-0.9-0.1,0.6-0.1c0.6,0,1,0,1.7,0c-0.2,0.1-1.4,0.1-1.7,0.1c0.9,0,3.1,0,3.1,0c-3,0,0.8-0.3,2.1-0.1
	c-0.6-0.1,1.7-0.1,0-0.1c-0.1,0.1-1.9-0.1-2.7-0.1c0.3-0.1,2.4,0,2.7-0.1c-0.4-0.1-1.8-0.1-1.7-0.1c-1.3,0-3.7,0-3.8,0.1
	c1.3,0,1.1-0.1,2.7,0c0,0.1,0.2,0.1,0.6,0.1c-1.6,0-2.7,0-3.1,0.1c0.7,0.1,1.9,0,2.1,0c-0.3,0.1,0.6,0.2-0.6,0.2c-1-0.1-1.3,0-2.7,0
	c0.2-0.1-2.2-0.1-2.1-0.2c-1.7,0-1.3,0.1-3.1,0.1c0.2-0.1,1.4-0.1,1.7-0.1c-2.8,0-3,0-4.2,0.1c-1.2-0.1-2.7,0-3.8-0.1
	c4.8-0.1,7.9-0.1,12.2,0c1-0.3-5.9-0.1-6.4-0.1c0.2-0.1,2.2-0.1,2.7-0.2c-4.4,0-4.3,0-9.1,0c0.2-0.1-1.4-0.2,0.6-0.2
	c3.9,0.3,7.9,0,13.9,0c0.6-0.2-3.1,0-2.7-0.2c0.6,0,0.6,0,1,0c4.4,0,11.3,0,11.2,0.4c0.3-0.1,2.6,0,3.8,0c0.2-0.1-3-0.1-3.8-0.1
	c1.8-0.2,0.4-0.2-1-0.3c3.7-0.1,2.8,0.2,4.2,0.2c0.1-0.1-0.6-0.1-0.6-0.1c2.6,0.1,5.1-0.1,5.8,0c-0.8,0.1-3.3,0.1-3.8,0.2
	c0.6,0.1,2.3,0.1,2.1,0.2c3.8-0.2,7.8,0.1,10.6-0.1c1.1,0,3.4,0,3.8,0.1c-2.7,0,0.4,0.1,0,0.1c0,0.1-1.4,0-1.7,0.1
	c0.6,0,1.2,0,1.7,0.1c-0.3,0.1,0.6,0.2-0.6,0.2c-1.9-0.1-4.1,0-5.3,0c5,0,9.2,0.2,14.3,0c-1.9,0-2.9-0.1-3.8-0.1
	c-1.7,0-1.2,0.1-3.1,0.1c0.4-0.2-0.8,0-1-0.1c-0.7-0.2,0.9-0.1,0-0.3c3,0.1,3.1-0.1,3.8-0.2c2.4,0,1.8,0.2,4.8,0.2
	c0.7-0.2,3.8-0.2,5.8-0.3c0.8-0.1-1.8,0-1.7-0.1c3.2-0.1,4.9,0.3,7.9,0c0.1,0.1-2.2,0.2,0,0.3c0.1-0.2,3.4-0.1,5.3-0.2
	c-0.8,0-2,0-1.7-0.1c4,0,6.9-0.1,9.1-0.1c-2.1-0.1-8.2,0.2-11.7,0c1.9,0,4.2-0.1,4.2-0.1c-3.3,0-4.9,0-6.9,0c-0.2,0.1-2.2,0.1-3.1,0
	c-0.6,0-0.2,0.1-1.7,0.1c-3.8-0.2-13.3,0.1-13.9-0.2c-0.1,0.1-1.8,0.2-2.1,0.1c-0.2-0.1,2,0,1.7-0.1c-1.1-0.1-2.9,0-4.8,0
	c0.6-0.2,3.4-0.1,6.9-0.1c-0.9-0.2-2.2-0.1-4.8-0.1c0.4-0.1-1.4-0.2-2.1-0.1c1.1,0-0.1,0.1-0.6,0.1c-2.2,0-2.1-0.1-3.1-0.1
	c0.2,0.1,0.4,0.1,1,0.3c-1.3,0-4.2,0.1-4.2,0c1,0,2.1,0,3.1,0c-0.1-0.3-3-0.1-4.8,0c-1.9-0.2-5.3,0-7.4-0.1c0,0-0.4,0-0.6-0.1
	c4-0.1,5.4,0,8.6,0c0.4-0.1,2.2-0.2,4.8-0.1c0.6-0.1-1.8,0-1-0.1c1.9,0,2.8,0,3.1,0c-1.1,0-1.8-0.1-2.1-0.1c-1.6,0-1.9,0.2-2.7,0.1
	c1.9-0.1,1.4-0.3,3.1-0.4c-0.2,0.2,3.3,0,4.2,0c-0.3,0,2.6-0.3,4.2-0.2c-1.7,0-1.8,0.1-1.7,0.2c1.2,0,0.4-0.2,2.7,0
	c0.7-0.2,3-0.2,3.8-0.4c-0.8,0-1.9,0-2.1,0c2.6,0-0.6,0,0-0.1c2,0,7.7-0.1,10.6,0c0.1-1.8-2.9-1.8-4.7-1.8c0.8,0,1.9,0,2.1,0
	c-1.3,0-1,0-1.7-0.2c1.4,0,1.9-0.1,4.2-0.1c0.3,0.1-3,0.1-1,0.1c0.8-0.1,1.2,0,3.1-0.1c-1.1-0.1,0.6-0.1,1.7-0.2
	c-2-0.1-6.9,0.1-8.6,0c1.3-0.1,0.4-0.1,2.1-0.2c1.8,0.1,3.7,0,5.8,0c-3.9-0.1,3.8-0.2,4.2-0.3c-1.8,0-2.2,0.1-4.2,0
	c0.2,0.2-4.4,0.2-5.8,0.2c2.4,0,1-0.1,0-0.1c1.1,0,3.4,0,3.8-0.1c-2.3,0-4.3,0.1-5.8,0c0.3,0,0.6-0.1,1-0.1c0,0,0,0,0,0.1
	c1.8,0,2.2-0.1,3.1,0c-0.8-0.2-6.6-0.1-8.6-0.2c0.6,0.1-1.8,0-1,0.1c1.7,0,3.2-0.1,3.8,0c-2.1,0-0.3,0.1-0.6,0.1
	c-2.8,0.1-3.3-0.1-4.8,0c0.7,0,1,0.2,0,0.3c0.9,0,3.1,0,3.1,0c-1.2,0-2,0-2.1,0.1c2,0,4.2,0,4.2-0.1c2.4,0.1-3,0.2,0,0.3
	c-2.6,0.1-2.7-0.1-3.1,0c-2.3,0-2.1-0.1-2.7-0.2c-0.7,0-0.1,0.1-1,0.1c-0.2-0.1-0.7,0-1.7,0c1-0.1-0.4-0.1-1-0.2
	c0.9,0,1.3,0,1.7-0.1c-1.8-0.1-4.2,0-6.4-0.1c0,0,0,0,0-0.1c3.9,0,5.9-0.2,9.1-0.4c-4.4,0,1.1-0.2-3.1-0.2c1.8,0.2-2.6,0.2-2.1,0.3
	c-0.2-0.1-4.2,0-3.1,0c1,0,1.8-0.1,2.1,0c-0.7,0.1-2.3,0-3.8,0c-0.8,0.1,1.8,0,1.7,0.1c-0.9,0.1-2.4,0.1-4.8,0.1
	c-0.2,0.1-0.1,0.2,1,0.3c-2.8,0.1-4.8,0-8.6,0c0.3,0.1-2,0.2-3.1,0.3c-1-0.1-2.4-0.1-3.1-0.1c-0.3-0.1,4.8-0.1,3.8-0.1
	c-3.2,0-5.7,0.1-7.9,0c1.6-0.1,3,0.1,3.8-0.1c-2.9-0.1-5,0.1-4.8,0.2c0.8-0.1,2.2,0.1,2.7,0c0.1,0.1-0.2,0.2-1.7,0.1
	c-3-0.3-4.2,0.2-7.4,0.1c-0.2-0.1-1.3-0.2-2.7-0.3c-0.8,0.1-2.2-0.2-2.7,0c0.9,0.1,2,0.1,1.7,0.3c1.1,0,4.9,0.1,2.1,0.2
	c3.2-0.1,5.8,0.1,6.9-0.1c-1.3,0-2.6,0-2.7-0.1c2.6-0.1,7.2,0.1,3.8,0.2c2.2,0,3.4,0,5.3,0c0.3-0.1-1.6-0.2,0-0.2
	c1.8,0,0.8,0.1,0.6,0.1c1.7,0,1.9-0.1,1-0.1c2.8-0.1,8.2-0.1,11.2,0.1c-0.9,0-4.4,0-4.8-0.1c1,0,2.2,0.1,2.1,0c-1.4,0-2.9,0-4.2,0
	c-0.2,0.1-1.3,0.1-1.7,0.2c0.9,0,3.1,0,3.1,0c-1.7,0.2-1.9,0.5-6.9,0.6c0.6,0.4,5.4-0.1,8.6,0.1c0.8-0.1,4.9-0.2,6.9-0.2
	c-2.8,0.1-1.8,0.1-0.6,0.2c-0.6,0-1.4,0-2.7,0c-0.6,0.2,0.1,0.3-1.7,0.4c0.4-0.1-2.6,0-2.1-0.1c0.6-0.1,1.8-0.2,0.6-0.3
	c-4.7,0.2-13.3,0.2-16,0.2c0-0.1,0.4-0.1,1-0.1c3.7,0,4.2,0,6.4-0.1c-3.2,0-2.3-0.1-3.8-0.2c1.6,0,3.2,0,4.8-0.1
	c-0.3-0.1,0.6-0.2-0.6-0.2c-0.1,0.1-1.8,0.1-3.1,0.1c0-0.2-3-0.2-2.7-0.3c-1.9,0.1-3.9,0-5.8,0.1c1.3,0-1.8,0.1,0,0.1
	c-0.9,0-1.8,0-2.7,0c1.2,0.1-0.8,0.1-1.7,0.2c0.6,0.1,2-0.1,2.7,0c-1.4,0.2-0.1,0.3,0,0.4c1.2,0,2.2,0,3.1-0.1
	c-0.3-0.1-0.7-0.1,0.6-0.2c2.9,0,2.9,0,4.8,0c0,0,0.7,0.1,0.6,0.1c-3.1,0-5.6,0.1-6.9,0.3c-3.4,0-4.1,0-7.4,0.1
	c-0.3-0.1-0.7-0.2-2.1-0.2c0.6,0.1,0.3,0.2,1,0.3c-0.6,0-1.8,0-3.1,0c-0.6,0.2,2.3,0,2.1,0.1c-1.1,0-1.4,0.1-2.1,0.1
	c-0.8,0-1.3-0.1-2.1-0.1c-1.1,0.1-1.8,0.2-2.7,0.3c4.9-0.2,7.8-0.1,5.8,0.2c-1.7,0-0.2-0.2-2.1-0.1c-0.7,0.1,0.3,0.1-0.6,0.2
	c1.8,0,3.9,0,4.2-0.1c0.8,0.1,1.4,0.1,3.8,0.1c0-0.1,0-0.2,0-0.3c-1.9-0.1-0.3,0.1-1.7,0.1c-1.4,0-2.2,0-2.1-0.1
	c2.1,0,4.2-0.1,7.4-0.1c-0.3-0.2,2.7-0.1,4.8-0.1C536.2,4,533.4,4,535,4c1.9-0.1,3.8,0,4.8-0.1c1,0.2,2.3,0.3,0,0.4
	c2.8,0,5.3,0.2,8.6,0.1c-0.8,0.3-7.2,0.1-9.1,0.2c0.8,0,1.9,0,2.1,0c-8.9,0.2-16.6-0.1-23.4,0.2c-0.1-0.1-4.1-0.1-4.2-0.1
	c1.1,0.1-2.4,0.1-1.7,0.3c0.1-0.1-1.7-0.1-1.7-0.2c-1.7,0-2.8,0-3.8,0c-0.1,0.1,0.6,0.1,0.6,0.1c-6.1,0-7.9,0-11.7-0.1
	c1.6,0.1-3.7,0-3.1-0.1c3.3,0,5.4-0.1,10.6,0c-0.4-0.1,0.8-0.1,1-0.2c-1.8,0-2.3-0.1-3.1-0.1c0-0.2,4.1-0.1,5.3-0.1
	c-0.9-0.1-3.8-0.1-4.8-0.1c1-0.1,2.1,0,2.7,0c0.9-0.1-0.1-0.1-0.6-0.2c2,0,2.6,0,2.7,0.1c-0.7,0-1.1-0.1-1,0c0.3,0,0.6,0,0.6,0
	s0.1,0,0.6,0c0.2,0,0.7-0.1,1.7-0.1c-1,0.1-0.2,0.1,0,0.2c-1.2,0-2,0-2.1,0.1c1.8,0,4.2-0.1,6.4-0.1c-0.8,0-0.8-0.2,0-0.2
	c0.1,0,0,0.1,0.6,0.1c1.7-0.1-1.2-0.1-3.1-0.1c1.3-0.1-1,0-1.7-0.1c1.3,0,0.7-0.1,2.1-0.1c1.2,0.1,2.8,0.1,3.1,0
	c1.8,0,1.8,0.1,0.6,0.2c1.3,0,2.6,0,2.7-0.1c-0.6,0-1.2,0-1-0.1c2.2,0,2-0.1,2.7-0.1c-1.7,0-1.7-0.1-3.8-0.1c-0.9,0-0.9,0.1-1.7,0.1
	c-0.4-0.1-3.3,0-3.8-0.1c2.1,0.1,0.2-0.2,1.7-0.1c1.3,0,2.4,0.1,3.1,0C512,4,511.3,4,509.7,4c-0.6,0.1-0.3,0.3-2.7,0.3
	c-0.1-0.1,0.8-0.1,1-0.2c-0.9,0-2.7,0-2.1-0.1c-1.7,0-1.6,0.1-3.1,0c-0.9-0.2,3.2-0.1,0.6-0.3c2.1-0.1,3.4,0.1,5.8,0
	c0-0.1,0-0.1,0-0.2c-1.6,0-4.4,0.1-3.8-0.1c-1.8,0-1.6,0.2-3.1,0.2c0.6-0.1-1.7-0.1-2.7-0.1c-0.2-0.1-1.3-0.3,0-0.3
	c2.1,0.4,7.4,0,11.2,0.1c-1.2,0.3,6.2,0.2,7.9,0.3c-0.7,0-1.1,0-1,0.1c0.8,0.1,2.8-0.1,3.1,0c-0.6,0-1.2,0-1,0.1
	c1,0.1,2.8,0,3.1-0.1c-1.4-0.1-1.4-0.1-0.6-0.3c-1.3,0-3-0.1-1.7-0.2c-1.8-0.1-2.2,0.2-3.1,0c1.7,0,1.7-0.1,2.7-0.2
	c1.8,0,3.9,0,4.2,0.1c0.1-0.1,2.8-0.1,3.1-0.1c-2.6-0.2-4.1,0-6.4-0.1c1.4,0,3.1,0,3.1-0.1c-1.1,0-0.4-0.2-1.7-0.2
	c-1.3,0,0.6,0.1-0.6,0.1c0.2-0.1-1.9,0.1-2.1,0c0.6-0.1,2.2,0,2.1-0.1c-0.9-0.1-2.4,0-3.8-0.1c0.8,0,1.9,0,2.1,0
	c-1.8-0.1-1.4-0.1-2.1-0.3c1.8,0,2.4,0,3.8,0c-0.2-0.1,0.7-0.1,1-0.1c-3,0-0.1-0.1-1.7-0.1c0.6,0.1-3.4,0.1-3.1,0.1
	c0,0,0.7-0.1,0.6-0.1c-1.1,0-3.4,0-3.8,0c0.6,0,1.2,0,1,0.1c-2.6,0-2.7,0-5.8,0c-2.3,0.3-8.2,0-11.2,0.3c0.6,0,0.6,0.1,0.6,0.1
	c0.7,0.1,3.1,0,3.1,0.1c-2.6,0-4.2-0.1-6.9-0.1c0,0-0.4,0-0.6-0.1c0.4-0.1,2.7,0,2.1-0.1c-2.1,0-4.6,0-5.3,0.2c0.7,0.1,1.9,0,2.1,0
	c-0.1,0-0.6,0.1-1,0.1c-3,0-5.6-0.1-9.1-0.1c0.3-0.2-1.8-0.2-3.1-0.3c-3.4,0.2-11.6,0.1-15.3,0.3c-0.7-0.1,1.3-0.1,0-0.1
	c0.4,0.1-2.6,0-2.1,0.1c0.7,0.1,2.2,0.1,2.7,0.2c-2,0-3.1-0.1-3.8-0.1c-1.8,0.1-3.1-0.1-4.2,0.1c3.4,0,5.9,0.1,6.9,0.3
	c-0.7,0-3.8-0.1-3.8,0c0.6,0,1.9,0,1.7,0.1c-0.9,0-1.8,0-2.7,0c-2.9-0.2-3.9-0.3-4.2-0.5c-4.8,0-7.6,0.4-11.7,0.2
	c1.7-0.1,0.3-0.2-0.6-0.3c-2.2,0.1-3-0.1-4.2,0c1,0.1-0.7,0.1-1.7,0.2c-2.4,0-5.1,0.1-7.9,0c1.3,0.2-2,0.1-3.8,0.1
	c0.7,0.2,2.1,0.1,1.7,0.2c6.4,0,15.3-0.1,24.9,0c0.4,0.1,1.8,0.1,1.7,0.3c-0.9,0-1.7,0-2.1,0c2.8-0.4-4.2-0.2-7.4-0.2
	c1,0.1,1,0.2,2.7,0.2c-0.1-0.2,1.7,0,3.1,0c-0.4,0.1,0.7,0.1,0.6,0.2c-1.3,0-1.7,0.1-2.1,0.1c3,0.1,0.6,0.2,1.7,0.3
	c0.6,0,2.1-0.2,3.1-0.1c-0.2,0.1-1.4,0.1-2.7,0.1c-0.7,0.2,1.2,0.2,2.1,0.2c-1.2-0.2-0.4-0.1-1.1-0.1c-1.8-0.1-3.7,0-4.2,0.1
	c0.9,0,1.2,0,1,0.1c-2.4,0-3.3,0.1-1.7,0.1c-1.7,0-3,0.1-3.8,0c0.1-0.1,2-0.1,2.1-0.1c-1.8,0-4.6,0-4.8-0.1c0.9,0,4,0,4.8-0.1
	c-2.8,0-4.4,0-7.4-0.1c-0.6,0.1,0.6,0.2,1.7,0.2c-3.4,0.1-4-0.1-6.9,0c-0.4-0.1,0.8-0.1,0.6-0.3c-2.1,0-4,0-4.8,0.1
	c0.1-0.1-0.4-0.1-1.7-0.1c0.3,0.2-4.4,0.1-1.7,0.3c-1.9,0.1-1.9,0.1-3.8,0.2c-0.1-0.3,3.3-0.2,2.7-0.4c-1.6,0-1.4-0.1-2.7,0
	C421.4,4,420.7,4,420,4c0.8,0,1.8,0.1,1.7,0.1c-1,0-2.1,0-3.1,0c0.4-0.2-2.2-0.3-2.1-0.2c-0.8-0.1-1.3,0-1.7,0
	c0.7-0.1-1.1-0.4-1-0.5c-1.3,0.1-1.8,0.2-3.1,0.2c1.4,0,1.9,0.5-0.6,0.3c-0.6,0.1,1.8,0,1,0.1c1.6,0,1.3-0.2,2.1-0.1
	c-0.3,0.1-1,0.2-1.7,0.2c-2.3,0-1.8-0.2-3.1-0.2c0.9,0.1-0.2,0.1-1.7,0.2c1.1-0.1,1.2-0.1,0.6-0.3c1.3,0,1.7,0.1,2.1,0
	c-1.2-0.1-2.4-0.2-5.3-0.1c-0.6-0.1,0.3-0.2-1-0.2c0.4-0.1,3-0.1,3.1,0c0,0,0,0,0,0.1c-0.6-0.1-2.8,0-1.1,0c0.4-0.1,1.4,0.1,2.7,0
	c-0.1-0.1,0.2-0.2,1.7-0.1c0.7-0.2-1.6-0.3,0-0.4c-0.4,0.1,0.9,0.1,2.1,0.1c-0.6-0.1,1.7-0.2,0-0.2c-1,0-3.6-0.2-5.8-0.3
	c0.1,0.2-0.8,0-1.7,0c-0.1,0.1-0.3,0.1-1,0.1c-0.9,0-1.7-0.1-2.1-0.1c1.7,0,4.4-0.1,5.8,0c-0.2-0.2,3-0.1,3.8,0
	c-0.6-0.1,6.9-0.1,4.8,0c2.4-0.1,3.9-0.1,5.3,0c1.4,0,0.6-0.1,1.7-0.1c0.7,0,2,0,1,0c-4.1-0.1-11,0-13.9,0c-1.7-0.1-3.1-0.2-2.1-0.3
	c-1.4,0-4.7,0.1-5.3-0.1c0.6,0,1.4,0,2.7,0c-0.6-0.3-4.8,0.1-5.3-0.2c1.7,0,1.6,0.1,3.1,0c0-0.1,2.2-0.3,0-0.3
	c-0.7,0.1,0.6,0.2-2.7,0.1c-0.7-0.1,1.4-0.1,0-0.1c-0.2,0.1-0.7,0-1.7,0c-0.4,0.1,1.8,0,1,0.2c-4.1,0.1-8.9,0.2-12.8,0.2
	c0.9,0.1,1.9,0.1,2.7,0.2c-2.2,0.1-5.2-0.1-6.4,0.1c0.2,0.1,2.3,0,2.1,0.1c-2.3,0-2.4-0.1-3.1-0.2c-0.3,0-3.3,0-3.1-0.1
	c0.9,0,2.7,0,2.1-0.1c-2.2,0-2.1,0-3.1-0.1c-1.9,0.1,0.3,0.2-0.6,0.2C375,2.1,375.8,2,373.1,2c2.1-0.2,7.9-0.3,10.6-0.4
	c0.7,0.1-3.4,0.1-2.1,0.1c1.7,0,1.3,0.1,2.1,0.1c0.9-0.1,2.8-0.3,3.8-0.2c0.1,0.1-1.4,0.1-1,0.3c1.8,0,3.2,0,3.8-0.1
	c-3.4,0,0.6-0.2-1-0.3c-3,0-3-0.1-6.9,0c-0.7-0.1-2-0.2-2.7-0.3c-1.4,0.1,0.2,0.2,0,0.4c-1.2-0.1-4.1,0.2-5.3,0
	c-0.4,0.3-3.2,0-5.8,0.1c-0.3,0.2-3,0-4.8,0.1c0.6,0.1,2.4,0.1,1,0.3c3.7-0.1,5.4-0.2,9.6-0.1c-0.6,0.2-3.8-0.1-2.1,0.1
	c-3,0-4.6,0-5.8,0.1c2.1,0,3.4,0.1,5.3,0.1c0.1,0.1-0.4,0.1-1.7,0.1c-0.3-0.1-3.2-0.1-4.8-0.1c1.1,0.2-4.8,0.3-3.1,0.5
	c-1.4,0-2.2-0.1-2.1,0c-0.4,0.1,2.6,0,2.1,0.1c-3,0,0.2,0.2-2.1,0.2c-1.8,0-2.9-0.1-3.8-0.1c1.4-0.1,2.3,0.1,3.8-0.1
	c-1.7,0-1.4-0.1-2.7-0.1c-0.8,0.1-1.4,0.2-2.1,0.3C354,3,351.9,3,351.1,2.8c1.7,0.1,3.9-0.2,5.3,0c0.4-0.1,1.8-0.3,0.6-0.4
	c-2.1,0.1-3.4,0.1-6.4,0c-1.6,0.1-1.8,0.3-4.2,0.1c-0.6,0-0.6,0.1-1.7,0.1c-1.6-0.1-4.2-0.2-6.9-0.3c0.3-0.1-0.8-0.2-1.7-0.2
	c0.1-0.1,1.8,0,1.7-0.1c-1.2,0-2,0-2.1-0.1c1.9,0,1.9,0,4.2,0c0.4-0.1-1-0.1-1-0.1c0.7-0.1,3,0,3.8-0.1c-0.4-0.1-1.1-0.3-2.7-0.3
	c0,0.4-2,0.6-3,0.5c1.1-0.1,2.2-0.3,4.2-0.4c0.4,0.1,3,0.2,3.1,0c-2.8,0,0.9-0.2-1-0.2c-0.1,0.1-1.9,0-2.1,0c0.9-0.2,3.6,0,4.2-0.1
	c-0.6,0.1,1.8,0.1,1.7,0.1c-0.7,0-1,0.1-2.1,0c0.7,0.2,0.6,0.3-1.7,0.4c1.3,0,2.6-0.1,2.7,0c-0.2,0.2-1.9,0.2-2.7,0.4
	c2.4,0.1,6,0.1,6.4-0.1c-1.9-0.1-0.3,0.1-1.7,0.1c-1-0.1-1.9-0.3-1-0.5c1.9-0.1,0.3,0.1,1.7,0.1c-0.1-0.1,0.4,0,1.7,0
	c-0.3-0.2,0.6-0.3,3.1-0.3c0.3,0.2-1.2,0.2-1.7,0.3c0.3,0,2.6,0.1,2.7,0c-1.7-0.1,1.6-0.4-0.6-0.6c-0.7,0-1.4,0-2.1,0
	c-0.9,0,0,0.2-1,0.2c-0.8,0-2.8,0-2.7,0c-0.1-0.1,1.2-0.1,1.1-0.2c-2.6-0.1-0.6,0.2-2.7,0.2c1.2-0.1-0.9-0.1-2.1-0.2
	c-0.1,0,0.1,0.1-0.6,0.1c-0.6-0.1-1.3-0.1-2.1-0.1c-1.7,0-1.8,0.1-3.1,0.1c-0.3,0.2,2.2,0.1,2.1,0.3c-1.2,0-2.4,0-3.8,0
	c-0.6,0.3-6.3,0.3-7.9,0.1c-0.8,0.2,1.7,0.2,2.1,0.3c-0.9,0-0.3,0.1-1,0.1C326,2,319,2.2,317.6,1.9c-2.1,0-3.6,0-4.2-0.1
	c0.8-0.1,2.7-0.1,2.7-0.3c-4.7,0.3-8.8,0-9.6-0.3c-2.3,0-5.8,0.2-7.4,0c0.1,0.1-0.6,0.1-0.6,0.1c5,0,5.3,0.1,9.1,0.1
	c-0.7,0.1-4.2,0-4.2,0.1c0.1-0.1,1.1-0.2-0.6-0.2c-0.6,0.2-5.9,0-4.8,0.3c-0.9-0.1-4-0.1-2.7-0.2c-2,0-3,0-4.2-0.1
	c0.1,0.1,0.7,0.1,1,0.3c-1.9,0.1-2.7-0.1-5.3,0c0.9,0.1,4.8,0.1,4.2,0.3c1.7,0,1-0.1,2.7-0.1c0.4,0.1-1.7,0.2-4.8,0.1
	c0.2-0.1-1.7-0.1-2.7-0.2c-0.3,0.1,0.6,0.2-0.6,0.2c-0.8-0.1-0.4-0.1-2.1,0c0-0.1,0.1-0.1,0.6-0.1c-0.6,0-1,0-1.7,0c0,0-0.4,0-0.6,0
	c1.3,0,0.1,0.1-0.6,0.1c-0.6-0.1-0.6-0.2-2.1-0.1c-0.9,0,0,0.2-1,0.2c-0.9,0-1.2-0.1-1-0.2c1.9,0,5,0,4.8-0.3c-1.7,0-4.6,0-5.3,0
	c0.1,0,0.8,0,1.7,0c-0.2-0.1-0.2-0.2-1.7-0.1c0.4,0.2-3.2,0.1-4.8,0.1c0.9-0.1,3.7,0.1,3.8-0.1c-1.7,0-2.6,0-1.7-0.1
	c-1.8,0.1-3.7,0-5.3,0c1.1,0.2,1.6,0.3-1.7,0.3c0,0.1,1.2,0.2,2.1,0.2c-1.7,0-3,0-3.8,0.1c1,0,1.8,0,2.1,0.1c-3.2,0-7.4,0.1-6.9,0
	c-1.9,0-1.8,0.1-2.7,0.1c-1.7-0.1,0.4-0.2-2.1-0.1c0.1-0.1,0.9-0.1,1-0.1c-1.9,0.2-2.8-0.2-5.3,0c0.6,0,1.8,0.2,2.1,0.1
	c-0.6,0-0.7-0.1,0-0.1c0.3,0.1,0.8,0.1,1,0.1c-3.9-0.1-4,0-7.4-0.1c-1.1,0.1,0.4,0.1,1,0.2c-2.3-0.1-1.4,0.1-3.1,0.1
	c0.4,0,0.7-0.1,0.6-0.2c-2.9,0-0.4,0-0.6-0.1c-2,0-3,0.1-5.3,0.1c0.2-0.1-0.7-0.1-1-0.1c3.6,0,2.9-0.2,3.1-0.3
	c0.6,0,1.4,0.1,1.7,0.1c2.1,0,3.9,0.1,4.2,0c-1.6,0-2.2,0-3.8,0c1-0.1-0.6-0.1-1-0.2c2.1,0,3.8,0.1,4.8,0c-1.4,0-0.4-0.1-2.1-0.1
	c-0.9,0-0.3,0.1-1,0.1c-0.6,0-0.9-0.1-1.7-0.1c-0.1,0.1-0.9,0.1-2.1,0.1c1.3-0.2-3.2,0-3.1-0.1c0.6-0.1,2.4-0.1,3.1-0.1
	c-0.2,0-4.8,0-3.1,0.1c-1.2,0-1-0.1-2.7-0.1c-0.7,0.1,1.6,0.1,1.7,0.2c-2.7,0.1-5.2,0.1-7.4-0.1c0.8,0,1.8,0,1.7-0.1
	c-1,0-4.8,0-3.8,0.1c1.2,0,2,0,2.1,0.1c-1.8,0-2.2-0.1-4.2,0c1.1-0.1-1-0.1-2.1-0.2c-1.2-0.3-9.4-0.3-9.4-0.5
	c-0.1,0.1-1.4,0.1-2.1,0c0.6,0.1,0.6,0.3-1.7,0.1c-1.1,0.1-0.6,0.2-2.7,0.2c-1,0,0.1-0.2-1-0.2c-1.8,0-6.2,0-7.4-0.1
	c-1.6,0.1,0.2,0.2-2.1,0.3c-1.8-0.1-2.8,0.1-4.8,0c1.3-0.1-0.4-0.1-1-0.2c-1.3,0.1-3,0.2-2.1,0.4c-1,0-1,0-1.7,0.1
	c-1.8,0-4.3-0.2-6.4-0.1V1.2c-1.8,0-2,0-2.7,0.1c-0.3-0.1-2.7-0.1-1-0.2C175,1,173.6,1,172.2,1c-0.7,0.1,1.6,0.2,0,0.2
	c0-0.2-2.7-0.2-3.1-0.3c1.1,0,3.7,0.1,3.1-0.1c-0.6,0-5.1,0-4.2,0.1c-3.9,0-5.6-0.1-7.4-0.2c0.7,0,0.6-0.1,1-0.1
	c1,0,0.7,0.1,2.1,0.1c0.1-0.2-1.8,0-2.1-0.1c1.3,0-0.7-0.1,0-0.1c1.4,0,2.2,0,2.1-0.1c-1.6-0.1-3.2,0.1-4.8,0
	c-0.3,0.1,1.2,0.1-0.6,0.2c-2.9-0.1-5.4,0.2-9.1,0c1.9-0.1,3,0,3.8-0.1c-0.7,0-1-0.1-1.7-0.1c1,0,2.3-0.1,0.6-0.1
	c-0.2,0.2-1.1,0-1.7,0c-2.4,0.1-7.7,0.2-9.6,0c-3,0.2-7.3,0-12.8,0.1c6.6,0.2,15.4,0.1,21.2,0.1c-0.8,0.1-5.7,0.2-6.4,0.1
	c-4.1-0.1-6.7,0.2-10.1,0.1c-0.4,0-0.6-0.1-1-0.1c-4.4-0.2-12.8,0.2-18,0.1c-0.1,0,0.1,0.1-0.6,0.1c-4.6,0-9.1,0.2-12.8,0.2
	c1.9,0.2-5.3,0.3-1,0.3c-1.8,0.1-2.3,0-4.2,0c-3,0.1-4.4,0.2-7.4,0.2c0.6,0.1,3.3,0,3.8,0.1C80.6,1.8,77.2,2.1,64.8,2
	c0.8,0.1-0.1,0.1-1,0.2c-2.9,0-4.3,0.1-7.4,0c-0.4,0.1-0.4,0.3-2.7,0.3c0-0.1,1.4,0,1-0.1c-1.7,0-2.6,0-1.7-0.1
	c-1.8,0-3.2,0-4.2,0.1c0.7,0,1.1,0,1,0.1c-1.2,0-2,0-2.7,0c0-0.1,1.4,0,1-0.1c-1.7,0-1.6,0-3.8,0c0.1,0.1,1,0.1-0.6,0.1
	c0.6-0.1-1.8-0.2-2.1-0.1c0.6,0,0.8,0,1,0.1c-1.9,0.1-4,0.1-6.4,0.1c1.8,0.1-0.6,0.1,0.6,0.3C24.5,3.2,25.6,4.3,14.3,4.6
	c7.3,0.1,9.6-0.2,16-0.4C25.9,4.8,17.8,5,11.7,5.4c0.4,0,1,0,1,0c-1.2,0.1-2.2,0.2-3.8,0.2c2,0,1.8,0.1,3.1,0.1
	c1.9-0.3,4.2-0.3,7.4-0.4c0,0,0.4,0,0.6,0.1c-2,0.1-2.9,0.3-5.8,0.3c-0.1,0.1,0.6,0.1,0.6,0.1c-1.3,0.1-5.4,0-3.8,0.3
	c-2.2,0-2,0-3.8,0c0.1,0.1,1,0.1,1,0.2c0.6,0,1.9-0.2,2.1-0.1c-0.2,0.1-1.1,0.1-1.7,0.2c-1,0-0.7-0.1-2.1-0.1
	c1.8,0.2,4.7,0.4,6.9,0.3c-0.2,0.1,2.2,0.1,2.1,0.2c-1.7,0-1-0.1-2.7-0.1c-0.7,0.2-1.4,0-1.7,0.2c-1.8,0-2.6-0.1-4.8-0.1
	C5.8,7,3.7,7,2,6.9C1.8,7-1.1,7.1,0.5,7.2C4.9,7,10.8,7.3,13.2,7c0.6,0,1.4,0.1,2.1,0.1C15.7,7.1,16.1,7,17,7c0.4,0.1,2,0.1,2.1,0.2
	c1.4,0,1.1-0.1,2.1,0C22,7.1,20,7,21.2,7c1.8,0.1,6.6,0.2,8.6,0.2c-1.1,0-1.8,0-1.7-0.1c0.6,0,0.6,0,1,0c3.3,0.1,6.2,0.2,9.1,0.1
	c-0.7,0-1.1,0-1-0.1c2.1,0,1.9,0.1,4.2,0c0.6,0.1-1.7,0.1,0,0.1c0.6,0,0.2-0.1,1.7-0.1c1.1,0,2,0.1,2.7,0.2c2.9,0,4.2,0.1,6.4,0.1
	c2.3-0.1,7.4,0,7.9-0.3C58,7.2,57,7.1,55.3,7c-0.1,0,0.1,0.1-0.6,0.1c-0.7-0.1-3.4,0-3.1-0.2c4.2-0.1,6.2-0.1,10.6-0.1
	c0.2-0.1-0.7-0.1-1-0.1c3,0.1,2.2,0.1,4.8,0.1c-0.9,0.2-3.3,0-3.3,0.2c2.7,0,3.7,0.1,4.2,0.2c3.7,0,3.6-0.1,7.4-0.1
	c3.3,0.2,9.3,0.1,12.2,0.1c-0.3,0.2-5.2,0-5.8,0.2c5.2-0.1,8.9,0,13.3-0.1v0.1c3.3,0,6.4-0.2,9.1-0.1c0.1,0-2.1,0.1-0.6,0.1
	c5.6,0,18.9-0.1,23.4,0c-1.3,0-3.2,0-3.1,0.1c4.2,0,13.6,0,18.7,0c-0.1-0.1,0.4-0.1,1.7-0.1c5.7,0.2,11.8,0,21.2,0.1
	c0.1-0.1-6.6,0-9.1,0c0.4-0.3-6.1,0.1-10.1-0.1c3.8-0.1,8.8-0.2,11.7-0.1c9.2-0.2,22.3,0,34-0.2c0.6,0.1,5.4,0,4.8,0
	c-1.8,0-2.6,0-2.7-0.1c3,0,5.6-0.1,9.1-0.1c0.8-0.1-0.6-0.1,1-0.2c2.9,0,2.7,0,1.7,0.1c2.3,0,3.2-0.2,4.2-0.1c0.1,0.1-2.9,0.1-1,0.3
	c1.8,0,1.1-0.1,2.1-0.1c0.6,0,1.6,0,1.7,0c-1.9,0.1-3-0.1-1.7-0.2c1.1,0,1.4,0.1,2.1,0.1c0.8-0.1,4.8-0.1,5.8-0.1c0,0.1-1.3,0-1,0.1
	c2,0,5.3-0.1,5.8,0.1c-2.2,0-2.1,0-3.1,0.1c-2.6,0.1-3.1-0.2-4.2-0.1c1.6,0-0.7,0.1,0,0.2c1.9-0.1,3.1,0,4.8,0.1
	c0.4-0.1,0.8-0.1,2.1-0.1c0.9,0.1,3.6,0,3.8,0.2c-0.6,0-1.6,0-1.7,0c0.4,0,0.6,0,0.6,0.1c5.3-0.1,15.7,0.1,19.7,0
	c-0.4,0-0.6,0-0.6-0.1c1.8,0,6.7,0,7.9-0.1c-1.8,0-0.8-0.1-1-0.2c-0.8,0-2.8,0-2.7,0c1.3,0,3.3,0,4.2,0c0,0.1-1.4,0-1,0.1
	c1,0,1,0,1.7-0.1c0,0.1,0,0.1,0,0.2c2.1-0.2,2,0,4.2,0c0-0.1,0.1-0.1,0.6-0.1C256.9,7.1,255.8,7.2,255.6,7.1z M216.2,1.1
	c-0.8,0.2-3.7,0-3.8,0C208.8,1.1,213.2,1.1,216.2,1.1z M555.3,2.6c-0.3,0.1-3,0.1-4.2,0C552.3,2.5,553.4,2.5,555.3,2.6z M428.8,6.8
	c-0.4-0.1,1.8-0.1,2.7-0.1C431,6.7,429.8,6.7,428.8,6.8z M126.4,7.5c0.4-0.1,1.8-0.1,2.7-0.1c1.6,0.1,4.1,0.1,5.3,0.1
	C132.8,7.6,128.6,7.5,126.4,7.5z M165.8,7.2c0.2-0.1-1-0.1-0.6-0.2c3.9,0,5.4,0,7.9,0c0.4-0.1,2.3-0.1,2.7-0.2c1.6,0-0.3,0.1,0,0.2
	c3.7,0,10.2,0.1,15.3,0.1C183.6,7.2,174.8,7.1,165.8,7.2z M157.8,7.2c-0.2,0,5.1-0.1,6.4-0.1C162.7,7.3,161.3,7.1,157.8,7.2z
	 M117.4,7.2c-0.8,0-2.8,0-2.7,0C114,7.1,117.8,7.1,117.4,7.2z M302.9,7.2c-2,0-6.8,0.1-6.4-0.1c-1.9,0.1-4.8,0.1-9.1,0.1
	c-0.2-0.1-1.8-0.1-1.7-0.3c1.8,0,1.8,0,3.8-0.1c0.4,0.1,4.4,0.1,6.9,0.2c-0.9-0.1-1.9-0.2-3.8-0.2c2.8-0.1,5.9-0.2,7.9-0.1
	C301.4,6.9,300.2,7.1,302.9,7.2z M359.2,7c-2.1-0.1-2.1,0.1-4.8,0c0-0.1,0.1-0.1-0.6-0.1c0.7-0.1,3.3-0.1,4.8,0
	C359.1,6.9,359.2,6.9,359.2,7C360.4,6.9,358.6,7,359.2,7z M304.6,6.9c-0.1,0.1-2,0-2.7,0c0,0,0.6,0,1,0c-0.4,0-0.6-0.1-0.6-0.1
	c0.7,0,1.9,0,2.7,0.1c0,0.1-0.4,0.1-1,0.1C303.8,6.9,304.1,6.9,304.6,6.9z M199.8,7c-3,0-5.4,0-7.4-0.1c3,0,4.8,0,7.9,0
	C200.4,6.9,199.7,6.9,199.8,7z M512.8,6.9c0.1-0.1,2.2-0.1,3.8-0.1C516.9,6.9,514,6.8,512.8,6.9z M480.9,6.8c-1.4,0-4.2,0-4.8,0
	c-0.2-0.1,2.3-0.1,3.1-0.1c-2.1-0.1,0.6-0.1,1.7-0.1c-0.1,0-1,0-1.7,0c1.9-0.2,3.7,0.1,6.9,0c-1.1,0.1-4.7,0.1-4.8,0
	C479.3,6.6,481.4,6.7,480.9,6.8z M336.3,6.7c0-0.1,1.9-0.2,0.6-0.2c3.8-0.1,7.2-0.1,9.6,0c-0.1,0.1-2.3,0-2.1,0.1
	c0.6,0.1,2.2,0,3.1,0.1C343.6,6.8,341.1,6.8,336.3,6.7z M385.9,6.7c-2.3,0.1-1.4-0.1-3.1-0.1c-0.8,0,0.2,0,0,0.1c-0.6,0-1.8,0-3.1,0
	c0.3-0.1,1.8-0.1,2.1-0.2c0.9,0.1,1.6,0,2.7,0c0.1-0.1-1.3-0.1-2.7-0.1c0.2-0.1,2.6-0.1,3.1-0.1c1.1,0,0.1,0.2,2.1,0.1
	c0.4,0.1-2.6,0-2.1,0.1c0.2,0,1.3,0,2.1,0c-0.1,0,0.1,0.1,0.6,0.1C387.6,6.7,384.9,6.6,385.9,6.7z M375.7,6.7c-1.9,0-4.8,0-7.9,0
	C369.2,6.6,374.1,6.6,375.7,6.7z M377.8,6.6c-1.7,0-1-0.2-3.8-0.1c0.1-0.1,2.7-0.1,4.2-0.1C377.9,6.5,377.7,6.6,377.8,6.6z
	 M370.9,6.6c-1.3,0-2.6-0.1-2.7,0c-0.7,0-0.4-0.1-0.6-0.1c1,0,2.2,0.1,2.7,0C371.1,6.5,370.8,6.6,370.9,6.6z M399.6,6.5
	c1.1-0.2,4.4-0.1,7.4-0.1C406.3,6.6,401.7,6.4,399.6,6.5z M446.9,6.4c-3,0-5.8,0-6.4-0.2c2.2,0,2,0.2,4.2,0.1c2.3,0,1.6-0.2,4.8-0.1
	c0.1,0-0.2,0-0.6,0c-0.1,0,0.2,0,0.6,0C449,6.3,446.6,6.2,446.9,6.4z M514.4,6.3c0.6-0.1,7-0.1,5.8,0S515.8,6.4,514.4,6.3z M346,6.2
	c2.7,0,2.7,0,4.8,0C350.7,6.5,345.8,6.4,346,6.2z M344.8,6.4c-2.1-0.1-2.9,0-6.4-0.1c1.1-0.2,3.9,0.1,4.2-0.1
	C343.8,6.2,346.1,6.3,344.8,6.4z M495.2,6.3c-1,0-2.1,0-3.1,0C491.6,6.1,494.1,6.2,495.2,6.3C495.2,6.2,495.2,6.3,495.2,6.3z
	 M482.6,6.2c0.1,0,1,0,1-0.1C483.6,6.1,483,6.1,482.6,6.2c-0.7-0.1-0.4,0-0.6,0c-1.7,0-1.4,0-2.7,0c0.1,0,1,0,1-0.1
	c-0.4-0.1-1.3,0-2.7,0c1.3-0.2-1.1-0.1-1-0.2c3.9,0.1,8.7,0.2,12.2,0.1c-0.2,0.1,2.2,0.1,2.1,0.2c-1.1,0-3,0-3.8-0.1
	C486.3,6.2,484.7,6.3,482.6,6.2z M520.8,6.2c-1.2,0.1-5.2,0.1-5.8,0c0.1-0.1,2.9,0.1,3.1-0.1c-1.7,0-3.3,0-5.8,0
	c0-0.1-0.4-0.1-1-0.1c0.8,0,3.3-0.1,2.1-0.3c2.2,0,3.1-0.1,5.3-0.2c-1.9,0.1-1.3,0.4-4.2,0.3c-0.1,0.1,0.8,0.1,1.7,0.1s1.1,0,2.1,0
	c-0.4,0-0.8-0.1,0-0.1C520.4,5.9,516.3,6.2,520.8,6.2z M504.8,6.2c-0.1-0.1,1.8-0.2,2.7-0.1C507,6.2,506.4,6.3,504.8,6.2z
	 M461.8,5.9c-0.9,0.1,0.1,0.1,0.6,0.2c-2.6,0.1-2.4-0.1-3.1-0.2C459.9,5.9,460.2,5.9,461.8,5.9z M452.2,6.1c-0.1,0-0.6,0-0.6-0.1
	c-1.1,0-2.7,0.1-3.1,0c3-0.1,4,0.1,6.9,0c-0.4,0-0.7,0.1-0.6,0.2c-2.6-0.1-2,0-4.8,0C450.2,6.1,451,6.1,452.2,6.1z M474.4,6.1
	c-1.1,0.1-3.4-0.1-3.1-0.2C474,6,473,6.1,474.4,6.1z M459.1,6c-0.4,0-1.3,0-3.1,0C455.3,5.9,458.7,6,459.1,6z M519.7,5.9
	c2.7,0,4.1,0.1,6.9,0C525.7,6,519.3,6.1,519.7,5.9z M502.2,5.8c1.2,0,2,0.1,3.8,0.1s0-0.2,2.7-0.3c-0.3,0.1,0.2,0.1,1.7,0.1
	c-1.1,0.1-0.7,0.1-0.6,0.2C505.9,6,503.6,6,502.2,5.8z M512.2,5.8c-2,0-1.9-0.2,0.6-0.1C512.9,5.7,512.1,5.7,512.2,5.8z M575,5.7
	c-1.4,0-1.8-0.1-1.7-0.1c0.7,0,1.4,0,2.1,0C575.8,5.6,575.1,5.6,575,5.7z M512.2,5.6c-1.7,0-1.2,0-3.1,0c0.3,0,0.6-0.1,0.6-0.1
	C510.6,5.5,512.4,5.5,512.2,5.6z M467.7,5.3c0.1,0.2-0.7,0.1,0,0.3c-1.9,0-2.1,0-4.8,0c-0.6-0.1,0.3-0.1-1-0.2c-1.6,0,0.7,0.1,0,0.2
	c-1.3,0-2.9,0-4.8,0C460.3,5.4,462.3,5.2,467.7,5.3z M453.3,5.6L453.3,5.6c0.6-0.1,0.9-0.1,1,0c1.1,0,1-0.1,2.1,0
	C456.1,5.5,455.1,5.6,453.3,5.6z M452.2,5.6c-1.4,0-0.6-0.1-1.7-0.1c0.3,0,1.1-0.1,2.1-0.1C452.8,5.4,452.8,5.5,452.2,5.6z
	 M324.1,5.5c-1.2-0.1-0.9-0.3-3.8-0.2c0.1,0-0.1-0.1-0.6-0.1c1.2-0.1,2.9-0.1,4.8-0.1C323.8,5.3,324,5.3,324.1,5.5z M576.1,5.4
	c-0.1,0.1-2.2,0-3.1,0c0.1,0,0.9,0,1.7,0c-0.6-0.1-1-0.3,1.7-0.3C574.8,5.2,574.3,5.4,576.1,5.4z M486.8,5.4c-1.4,0-3.2,0-2.7-0.2
	c2,0,3-0.1,6.4,0C489.1,5.3,487.2,5.3,486.8,5.4z M572.3,5.4c-2.7,0,0.8-0.2-1.7-0.2c0.6-0.1,1.7-0.1,3.1-0.1c0,0-0.6,0-1,0
	C574.3,5.3,572.2,5.3,572.3,5.4z M474.4,5.4c-1.8,0-2.4-0.3,0.6-0.2C475.1,5.3,475.2,5.4,474.4,5.4z M482,5.3
	c-1.2,0.1-2.9-0.1-4.8,0c0.2-0.1,2.3-0.1,2.7,0c0.9,0,1.2-0.1,1-0.1c0.8,0,1.8,0.1,1.7,0.1c-0.3,0-0.7,0-1,0
	C481.3,5.3,481.7,5.3,482,5.3z M304.6,5.3c-0.8,0.1-3.4,0-2.7-0.1C304.1,5.1,302.4,5.3,304.6,5.3z M330,5.3c-1.2,0-2-0.1-3.8,0
	c0.8-0.2,4.8,0,5.3-0.1C331.4,5.2,329.9,5.2,330,5.3z M305.6,5.1c1.7,0.1,1.7,0.1,3.8,0C308.9,5.3,304.9,5.4,305.6,5.1z M582.4,5.2
	c-0.9,0-1.8,0-2.7,0C579.2,5.1,581.4,5.2,582.4,5.2L582.4,5.2z M422,5.1c-1.6,0,0.3-0.3,2.1-0.3C423.8,4.9,422.3,5,422,5.1z
	 M497.9,5.1c-0.3,0.1-3.2,0-3.8,0c0.6-0.1,0.8-0.1,2.1-0.1C496,5.1,497.4,5,497.9,5.1z M430.9,5.1c-1.3,0-2.2-0.1-2.7,0
	c-0.6-0.1-0.2-0.1-1-0.2c1.6,0,2.2,0,3.8,0C430.9,5,430.3,5,430.9,5.1z M323.7,5.1C323,5.1,323.3,5.1,323.7,5.1
	C322,4.9,321,5,319.4,5c-0.2-0.1,1-0.2,1.7-0.3C321.2,4.8,323.8,5,323.7,5.1z M475.1,5.1c-0.7,0-1.4,0-2.1,0
	C472.6,4.9,475.6,4.9,475.1,5.1z M554.8,5c-1.4-0.1,2.7-0.2,2.7,0C556.7,5,554.7,4.9,554.8,5z M314.1,5c-0.9-0.1,0.2-0.1,1.7-0.1
	C315.8,4.9,315.4,5,314.1,5z M482.6,5c-0.9-0.1,2.1-0.1,4.2-0.1C486.2,4.9,483.3,4.9,482.6,5z M476.1,4.5c-1.6,0.1-4.6,0.1-5.8,0.3
	c-0.9,0-1.8,0-2.7,0V4.7c-1.7,0-1.2,0.1-3.1,0.1c0.2-0.1-0.7-0.1-1.7-0.1c1.4-0.1,1.2-0.2,3.8-0.2c0.3,0.1-1,0.1-1,0.1
	c0.4,0,0.6,0,0.6,0c1.6,0,1.2-0.2,2.7-0.3c-0.8-0.1-2.4-0.1-4.2,0c0.2-0.1,1.4,0,0.6-0.2c2.2,0,2.4,0.2,4.2,0c1,0.1,0.2,0.1,0,0.2
	c0.4,0,0.7,0,1,0c1.6-0.1-0.7-0.2-0.6-0.3c-1.3,0-1.7,0.1-2.7,0c0.4-0.1,2.1-0.2-0.6-0.1c-0.9-0.1,1.9-0.1,0.6-0.2
	c1.8-0.1,3.4-0.2,2.7-0.4c-2.4,0.1-6.3,0.1-6.9-0.2c-3.1,0-5.7,0-7.9-0.1c-0.1,0,0.2,0,0.6,0c0.4,0,0.6,0,0.6,0c0.8,0-0.1,0,0,0.1
	c1.9,0,5.2,0,5.3-0.1c2.7,0,4.1,0,6.4,0c-3.2,0.4,2.9,0.4,9.1,0.4c0.2,0.1-0.4,0.1-0.6,0.1c0.2,0,1.3,0,2.1,0c0.4-0.1-1.4-0.1-1-0.2
	c2.6,0,5.1,0,6.4-0.1c0.4-0.1-0.7-0.1-0.6-0.2c-0.9,0.2-2.3,0-4.2,0.1c0.1-0.2-5.2,0-5.8-0.1c-0.3-0.1,4,0,5.3,0c-1.1,0-5.6,0-7.1,0
	c-1.4-0.1,2.3-0.2,2.7-0.1c1.8,0-1.1-0.1,0.6-0.1c-0.4-0.1-1.8-0.1-2.7-0.1c1.9-0.1,4.1-0.1,7.4-0.1c0.4,0.1-0.6,0.2-1.7,0.2
	c3.2,0.3,3.9,0.3,10.1,0.3c0.6-0.1-1.8,0-1-0.1c2.3,0,1.6-0.1,3.1-0.1c-1.6-0.1-5.2,0-5.8-0.2c3,0,6,0,9.1,0c0.6,0,0.6,0.1,0.6,0.2
	c0.4,0,0.6,0,1,0c1.1,0,0.1-0.2,1-0.2c3.1,0,3,0.1,4.8,0c0.9,0.1,1.9,0.3,4.2,0.3c0,0.1-0.1,0.1,0.6,0.1c-0.2,0-1.3,0-2.1,0
	c0.1,0.1,2.3,0,2.7,0.1c-1.8,0.1-6.6-0.1-9.1,0.1c0.2,0,0.6,0.1,1,0.1c-1.3,0-6.1-0.1-7.9-0.2c-1.6,0.1-2.8,0.1-4.2,0.2
	c0.9,0.1,5.7,0,3.8,0.2c2.4-0.1,5.9,0,8.6,0c-1.3,0.1-3.6,0.1-3.8,0.2c-2.8,0-3.6-0.1-4.8-0.1c1.4,0.1-2.2,0.2-3.1,0.3
	c-0.1,0.1,1.9,0,2.7,0c-0.3,0-0.6,0.1-0.6,0.1c-1.2,0-2,0-2.7,0c-0.4,0.1,1.1,0.1,1.7,0.1c-0.8,0.1-1.3,0-2.7,0
	c1.4,0.1-0.6,0.1-0.6,0.2c-0.9,0-1.6-0.1-2.7-0.1c0.6,0.1,0.8,0.2-0.6,0.2c0.1,0,0.6,0,0.6,0.1c0.7-0.1,1.8-0.1,3.1-0.1
	c-1.8,0.1-1.8,0.3-4.2,0.4c-0.9,0-0.1-0.1,0-0.1c-1.9,0.1-3.4,0.2-4.8,0.3c-2.1,0,1-0.2-1-0.2C472.9,4.7,476.6,4.6,476.1,4.5z
	 M441.7,4.7c1.4-0.2,2.2,0.1,3.8-0.1c-0.6,0-0.6,0.1-0.6,0.2c2.6,0,1.1-0.2,3.8-0.2c-1,0.1-0.1,0.1,0,0.2c-1.1,0-1,0.1-2.1,0.1
	C442.2,4.9,444.4,4.8,441.7,4.7z M436.9,4.7c-0.6,0-1.9,0-1.7,0.1c-0.7,0-0.8-0.1-1.7-0.1c0.2,0.1-0.7,0.2,1,0.2
	c-0.7,0.1-2.7,0.1-3.1,0c-0.3-0.2,2.1-0.2,1.7-0.4c1.6,0,3.7,0,3.8-0.1c0.2-0.1-3,0-2.1-0.1c0.9,0,1.8,0,2.7,0
	C437.8,4.5,435.6,4.5,436.9,4.7z M324.7,5c-1-0.1-0.4-0.1-2.1,0C322.1,4.8,327,4.9,324.7,5z M423,4.8c-1.8-0.1,0.6-0.1,0.6-0.2
	C425,4.6,423.1,4.7,423,4.8z M333.2,4.8c-0.6,0-1,0-1.7,0C330.8,4.7,333.4,4.8,333.2,4.8c-0.7-0.2-4.2,0-3.8-0.3
	c0.7,0,1.9,0,2.7,0.1c1.8-0.1-1.8,0-1-0.1c1.8,0,1.7-0.1,2.1-0.1s1.2,0,2.1,0c-0.2-0.1-1.1-0.1-1-0.2c0.7,0,1.9,0,2.7,0
	c-0.3,0.2,0.2,0.3-3.8,0.3c0.3,0,0.6,0.1,0.6,0.1c1.1-0.1,3.4-0.1,5.8-0.1c-0.7,0.1-3.4,0.3-4.2,0.1C334.9,4.7,333.3,4.7,333.2,4.8z
	 M323.7,4.8c0.1,0-0.1-0.1-0.6-0.1c2.4,0,0.8-0.1,3.1-0.1c-1.4,0.1,0.6,0.1,0.6,0.2C325.6,4.7,325.3,4.8,323.7,4.8z M490.4,4.7
	c-2.8,0.1-5.4-0.1-6.9,0c-1.9-0.1,2.4-0.1,3.8-0.1c0-0.1-0.9-0.1,0-0.1c-0.3,0-1.1-0.1-2.1-0.1c0.9-0.2,5.6-0.1,6.9-0.3
	c0.3,0.1-1.7,0.1-1,0.2c-1.9-0.1-1.3,0-2.1,0.1C489.7,4.6,491,4.5,490.4,4.7z M430.4,4.7c-2-0.1-2-0.1-4.2,0c-0.1-0.1-1-0.1,0-0.2
	c3,0.1,1.8,0.1,2.7-0.1C430.3,4.4,430,4.6,430.4,4.7z M484.1,4.6C484.1,4.6,484.1,4.5,484.1,4.6c1-0.1,0.7-0.1,2.1-0.1
	c0,0,0,0,0,0.1C484.8,4.6,485.2,4.6,484.1,4.6z M440,4.5c-0.7-0.2,2.4-0.2,2.1,0C441.2,4.5,441,4.5,440,4.5z M349.6,4.5
	c-0.7,0-1.4,0-2.1,0c0.1,0-0.1-0.1-0.6-0.1C347.3,4.4,350,4.4,349.6,4.5z M343.3,4.5c0.7-0.1,2.7-0.1,3.1,0
	C346.1,4.6,344.4,4.5,343.3,4.5z M359.8,4.4c-2.1-0.2,1.8-0.4,3.1-0.2C361.9,4.3,360.4,4.4,359.8,4.4z M502.7,4.4
	c-1.3-0.2-3.8-0.1-5.8-0.1C497.7,4.1,502.2,4.1,502.7,4.4z M22.8,4.4c-1.6-0.1,0.9-0.1,0.6-0.2c1.4,0,1.4,0.1,1.7,0.1
	C24,4.2,23.3,4.3,22.8,4.4z M503.8,4.3c-0.6-0.1,3.1-0.1,2.7,0C505.4,4.4,505.1,4.3,503.8,4.3z M341.7,4.1c1.6,0,4.2-0.2,4.8,0
	c-3.2,0-6.6,0.1-7.4-0.1C341.8,4.2,340.1,4,341.7,4.1z M324.1,4.2c-0.8-0.3-4.3,0-5.3-0.2c-0.7,0.1-1.6,0.1-2.1,0.2
	c-0.8-0.1-1.1-0.1-1-0.3c1.7,0,3.8,0,2.7-0.1c2.1,0.1,1.8,0.1,4.2,0C321.8,4.1,325.1,4,324.1,4.2z M459.7,3.7c0.6-0.1-1.8,0-1-0.1
	c2.4,0,3,0.1,4.8,0c0.3,0.1,0.1,0.2,1,0.3c-0.9,0-1.8,0-2.7,0c0-0.1,0.1-0.1-0.6-0.1c0.3,0.2-3,0.2-3.1,0.4c-0.9-0.1-3,0-3.8,0
	c-1.8-0.1,1.7-0.1,0.6-0.2c1.7,0,1.4,0.1,2.7,0c-1.9-0.2,1.1-0.2-1.7-0.3C456.3,3.6,458.1,3.7,459.7,3.7z M313,3.9
	c0.6,0,1.2,0,2.1,0c0.2,0.1-1,0.1-0.6,0.3C313.2,4.1,313.3,4,313,3.9z M336.3,3.9c2.3,0,4-0.1,4.2,0.1c-0.8,0-0.9,0-1.7,0
	C338.6,4.1,335.8,4.1,336.3,3.9z M331.1,4.1c0.1-0.1-0.6-0.3,1.7-0.3C332.4,3.9,331.7,4,331.1,4.1z M306.6,4c-1.1,0-2.8-0.1-2.7-0.2
	c2.3,0.1,5-0.1,7.4,0C309.4,3.9,307.2,3.8,306.6,4z M24.5,4c0.4-0.1,1.8-0.1,3.8-0.1C27.7,3.9,25.9,4,24.5,4z M373.6,3.8
	c0.2-0.1-1.8-0.4,3.8-0.4c0,0.1-0.4,0.1-1,0.1c2,0.1,3.8-0.1,6.4,0.1C379.3,3.6,378.3,3.8,373.6,3.8z M355,3.7c-1.7-0.1-2,0-3.1,0
	V3.6C353.8,3.6,354.6,3.6,355,3.7z M332.1,3.3c1.6-0.1,3,0.1,3.8-0.1c0.8,0.1,3.2,0.1,3.1,0.3c2,0,5,0.1,7.4,0
	c-0.4-0.1,0.9-0.2,0.6-0.3c-1.1,0-0.8,0.2-1.7,0.2c-0.4-0.1-2.4-0.1-2.7,0c-1,0-0.8-0.2,0.6-0.1c0.1-0.1-0.6-0.1-0.6-0.1
	c-0.8,0.1-0.6,0.2-1.7,0.2c-1.3-0.1,1.4-0.2-0.6-0.3c2-0.1,5.3,0.1,6.4-0.1c1.8,0,2.9,0,3.1,0.1c-1.6,0-1.9,0-2.7,0.1
	c-0.4,0.1,1,0.1,1,0.1c1,0,0.3-0.1,1-0.1c3,0.1-0.1,0.3,1.7,0.4c-1.4,0-3.6,0-2.1-0.1c-1.3,0.1-4.8,0.1-4.2,0.2
	c-1,0.1-2.1-0.1-3.8-0.1c-1.6,0,0.8,0.1-0.6,0.1c-1,0-0.9-0.1-2.7-0.1c0.8-0.1-0.6-0.2,0.6-0.3c-3.6,0-0.7,0.2-2.1,0.3
	C333,3.6,333.2,3.5,332.1,3.3z M333.2,3.6c-1.7,0-3.7,0-4.2-0.1C331,3.6,332.9,3.4,333.2,3.6z M555.3,3.7L555.3,3.7
	c1.7,0,3.9-0.1,5.3-0.1C561.9,3.6,556.9,3.6,555.3,3.7z M322.6,3.6c-1.9,0-2.3-0.1-3.8,0c-1.7-0.2,3-0.1,4.8-0.1
	C323.4,3.6,322.7,3.6,322.6,3.6z M369.9,3.6c-0.9,0-1.1,0-2.1,0C367.4,3.4,370.6,3.4,369.9,3.6z M519.2,3.5c-0.4,0.1-3,0-4.2,0
	C515.1,3.3,517.7,3.5,519.2,3.5z M457.6,3.5c0.6-0.2,3.9,0,5.3-0.1C462.6,3.6,457.9,3.4,457.6,3.5z M382.1,3.5c-2.2,0-1.7-0.2-1-0.3
	c1.6,0.2,3.6,0,6.4,0C386.2,3.4,381.8,3.3,382.1,3.5z M307.7,3.4c-0.6,0-1.4,0-2.7,0c0.4-0.1-1.3-0.2,0-0.3
	C307,3.2,307.4,3.3,307.7,3.4z M561.2,3.3c0.2,0.1-0.7,0.1-2.1,0.1c2.9-0.1,0.1-0.2-0.6-0.3C560.3,3.1,559.9,3.3,561.2,3.3z
	 M554.8,3.4c-0.6,0-1,0-1.7,0c0.2-0.2-0.6-0.2-2.7-0.1c0.6-0.2,2.9-0.1,4.2-0.1C555.6,3.2,555.6,3.4,554.8,3.4z M282.8,3.1
	c1.4-0.1,4,0,4.2-0.1c2,0,2.3,0.2,4.8,0.2c-0.2,0.2,0.9,0.2-2.1,0.3c-0.8-0.1-2.9-0.2-4.8-0.3c-0.4,0-0.6,0-0.6,0
	C287.1,3.3,282.4,3.3,282.8,3.1z M517,3.4c-0.4,0-0.8,0-1.7,0c0.1-0.1,1.2-0.2,3.1-0.1C519.7,3.4,516.6,3.2,517,3.4z M567,3.3
	c-2.9,0-1.3-0.3-4.8-0.3c0.2,0,0.6-0.1,1-0.1c0.1-0.1-3.2-0.1-3.1,0c-0.6-0.2,6-0.1,7.4-0.1c-1.2,0-1.6,0.1-2.7,0.2
	c0.7,0.1,2.3,0.1,3.1,0.1v0.1C567.4,3.3,567.1,3.3,567,3.3z M313.4,3.3c-1.6-0.1-2.1,0-3.8-0.1c-0.6-0.1,1.3-0.1,1-0.2
	C311.8,3.1,313.3,3.2,313.4,3.3z M35.6,3.3C36.6,3.2,35.6,3.3,35.6,3.3C36.9,3.2,42.5,3,42,3.2c1.6,0,2.3-0.1,4.8-0.1
	C43.8,3.2,39.5,3.2,35.6,3.3z M374.7,3.3c-1.4-0.1-2,0-3.8-0.1C372.1,3,376.3,3.1,374.7,3.3z M303.9,3L303.9,3c-2.3,0-6.3,0.4-6.4,0
	c1.4,0,1-0.1,1.7-0.1C299.9,3.2,301.9,3,303.9,3z M387.9,3.2c0.6,0,1.6-0.1,1-0.2c2.1-0.1,3.1,0.2,2.7,0.1c0.6-0.1,1,0,1.7,0
	C393,3.3,389.7,3.2,387.9,3.2z M340,3.2c-1.6,0-2.4-0.1-2.7-0.2C339.6,3,339.8,3.1,340,3.2z M249.8,3.2c-1.8,0,2.4-0.2-1-0.1
	c0.2,0,1.3,0,2.1,0c0,0.1-0.1,0.1,0.6,0.1C251.2,3.3,249.9,3.2,249.8,3.2z M386.9,3.1c-0.4-0.1-1.3-0.1-1.7-0.2
	c-1,0-1.3,0.1-2.7,0.1c0,0.1-0.1,0.1,0.6,0.1c-1.3,0.1-2.8-0.1-3.1-0.2c1.4-0.1,4.3,0,6.4-0.1C387.1,2.9,386,3,386.9,3.1z
	 M373.6,2.9c1.6,0,3.4-0.1,5.3,0c-0.4,0-0.6,0.1-0.6,0.1C375.6,3.1,373.9,3.1,373.6,2.9z M514.4,2.9c1.9,0,1.6,0.1,3.1,0.1
	C516.8,3.2,515.1,3,514.4,2.9z M273.7,3c0.1,0.1-1.9,0-2.7,0c-1,0,0.3,0,1,0c-0.1-0.1-2.1-0.2,0.6-0.2C272,3,272.2,3,273.7,3z
	 M51,3.1C49.5,3,48.2,2.9,45.7,3c1-0.1,3.2,0,5.3-0.1c-0.8,0.1-1.8,0.2,1,0.2C51.9,3,51,3,51,3.1z M53.7,3c0.4-0.1,1.7-0.1,2.7-0.1
	c-0.1,0-1,0-1-0.1C54.2,2.9,53.7,3,52.1,3c0.8-0.1,1.8-0.2-0.6-0.1c0.6,0,0.6-0.1,1-0.2c0.8,0.1,2.8,0,3.1,0C57.5,2.7,56.7,3,53.7,3
	z M338,2.9c-0.9,0-1,0-1.1-0.1c-1.3,0-2,0.1-2.1-0.1c0.7,0,1.4,0,2.1,0C336.2,2.9,338.7,2.8,338,2.9z M519.2,2.9c-1,0-2.1,0-3.1,0
	c0.4,0,0.6-0.1,0.6-0.1C518.2,2.7,519.1,2.8,519.2,2.9z M306,2.7c0.6-0.1,3.2-0.1,3.1,0C307.7,2.8,307.1,2.8,306,2.7z M335.9,2.8
	c-1.8,0-0.3-0.1-0.6-0.2C337.7,2.6,336.7,2.7,335.9,2.8z M296.4,2.8c-1.1,0-1.1-0.1-1-0.2c1.4,0,2.2,0,2.1,0.1c-0.4,0-0.6,0-1,0
	C296.4,2.7,296.4,2.7,296.4,2.8z M562.2,2.7c0.4-0.1,1.3-0.1,2.7-0.1C565,2.7,563,2.7,562.2,2.7z M327.8,2.3
	c-0.1,0.1,0.8,0.1,1.7,0.1s0.4-0.1,2.1-0.1c-0.1,0.1-1.4,0.1-2.1,0.1c-0.3,0.1,1.8,0.1,1.7,0.2c-3,0-4.8,0-6.9-0.1
	c4.9,0.1,1.6-0.5,4.8-0.3C328.6,2.3,328.4,2.3,327.8,2.3z M514.9,2.6c0.4,0,0.6,0,0.6,0c-1.9-0.1-1-0.2-4.8-0.1c0.4,0,0.8-0.1,0-0.1
	c0.2-0.1,1.7,0,1,0.1c0.9-0.1,2.1-0.1,4.2,0c-1.1,0.1-0.6,0.2,1.7,0.1c-0.1,0.1,0.6,0.1,0.6,0.1c-1.8,0-3,0-4.2,0
	C514,2.6,514.9,2.6,514.9,2.6z M397.4,2.6c-1.8,0-3.1-0.2-4.2-0.1c-1.4-0.1,1.7-0.2,4.2-0.2C398.3,2.5,396.6,2.4,397.4,2.6z
	 M475.7,2.5c-0.6,0.1-1.8,0-2.7,0C473.8,2.3,474.6,2.5,475.7,2.5z M232.1,2.6c-0.9,0-1.8,0-2.7,0c0-0.1,1-0.2,3.1-0.2
	C233,2.5,231.8,2.5,232.1,2.6z M73.8,2.5c-1.8,0-5.4,0-7.9,0C67,2.2,71.7,2.4,73.8,2.5z M310.8,2.5c-0.9,0-1.8,0-2.7,0
	c0.7-0.1-1.8-0.1-1-0.2c-0.6,0-0.4,0.1-0.6,0.1c-1.7,0-0.7-0.1-0.6-0.2c2,0,6.3,0.1,6.9,0.1C315.2,2.6,310.1,2.3,310.8,2.5z
	 M286.9,2.5c-1.4-0.1-1.9-0.1-4.2-0.1V2.3c1.3,0,2.6,0,3.1,0.1c-0.2-0.1,1.6-0.1,3.8-0.1C289.6,2.4,287.6,2.4,286.9,2.5z M315.1,2.5
	c0,0-0.6,0-1,0c-0.1-0.2,3.1-0.2,4.2-0.1C317.4,2.4,316.9,2.5,315.1,2.5z M303.4,2.5c-1.4,0.1-2-0.2-3.1-0.3c-1,0-0.3,0.1-1,0.1
	c-1.8,0-1.1-0.1-2.1-0.1c1.7-0.1,3.3,0,4.8-0.2c1.6,0.1,2.2,0.2,2.7,0.3c-0.9,0-1.4,0-1.7,0.1C302.8,2.5,303.1,2.5,303.4,2.5z
	 M262,2.5c-2.4,0-0.2-0.2,0-0.2c1.4,0.1,2.8,0,4.8,0c0.6,0.1-1.8,0.1-1.7,0.1c-0.6,0-0.8-0.1-1-0.1C262.8,2.3,262.1,2.4,262,2.5z
	 M236.4,1.9c1.2,0,2.4,0,3.8,0c0.6,0,0.9,0.1,1.7,0.1c0.3-0.2,1.9,0.1,3.8,0c-0.7,0.2-1.8,0.1-4.2,0.1c0.6,0.2,4.6-0.1,4.8,0.2
	c0.6-0.1,1.8-0.1,2.1,0c1.7-0.2,3.9-0.1,6.4-0.1c0.2,0.1-0.1,0.1-0.6,0.2c-1.3,0-2.2-0.1-2.7,0c-1.2,0-1.2-0.1-0.6-0.1
	c-1.8,0.1-2.4,0.2-5.3,0.1c2.7-0.1-8.9,0.1-11.2-0.1c-0.1-0.1,0.8,0,1.7-0.1c0.2-0.1-1.3-0.1-2.1-0.1C234.8,2.1,236.9,2.1,236.4,1.9
	z M73.2,2.3c-1.1,0,0.8-0.2,2.1-0.1c0.2,0,0.6,0.1,1,0.1C76.6,2.4,73.1,2.2,73.2,2.3z M256.1,2.3c-0.1-0.1,0.6-0.1,0.6-0.1
	c1,0,2.2,0,2.1,0.1C257.4,2.3,257.6,2.3,256.1,2.3z M78,2.3c-0.6,0-0.4-0.1-0.6-0.1c1.9,0,3.1-0.1,5.3-0.1C81.7,2.2,79.1,2.2,78,2.3
	z M296,2.2c-1.7,0-2.6-0.1-2.7-0.2c2.2,0,0.6-0.2,0.6-0.3c2,0.1,1.8-0.2,1-0.1c-1.3-0.1,0.6-0.1,2.1-0.1c-0.1,0.1-1,0.1,0.6,0.1
	c1-0.1-0.8-0.1,2.1-0.1C299.9,2,294.9,2,296,2.2z M268.3,2.2c0.1,0.1-1.9,0-2.7,0c0.2-0.1-0.8-0.2-3.1-0.2V1.9c0.9,0,1.8,0,2.7,0
	c0.6,0.1,0.4,0.2,2.7,0.1C267.9,2.1,267.6,2.2,268.3,2.2z M260.9,2c-2.2,0.1-4-0.1-6.9-0.1C256.1,1.7,259.6,1.9,260.9,2z M270.4,1.9
	c1-0.1,2.6-0.3,4.8-0.2c-0.3,0.1-2.4,0-2.7,0.1c0.4,0.1,1.4-0.1,2.7,0c0.2,0,0.6,0.1,1,0.1C275.7,2.1,271.1,2,270.4,1.9z M310.3,1.9
	c-0.8,0.2-2.7,0-4.2,0C304.7,1.8,309.6,1.9,310.3,1.9z M269.4,1.9c-1.1,0-1.4,0-2.1,0c0.6-0.1,1.9-0.2,3.8-0.1c-0.1,0-1,0-1.7,0
	C270,1.8,269.6,1.8,269.4,1.9z M202.4,1.8c-0.8,0,0.2,0,0,0.1c-0.4,0-0.8,0-1.7,0c-0.7-0.1,2.6-0.2,2.1,0
	C202.6,1.8,202.4,1.8,202.4,1.8z M313.4,1.8c-0.3,0.1-2.4-0.1-2.7,0c-1.7,0-0.3-0.1-1-0.2C311.6,1.6,311.6,1.8,313.4,1.8z
	 M206.7,1.7c-0.6,0-0.4-0.1-1-0.1c0.1-0.1,2.2,0,3.1,0c-0.1,0,0.1,0.1,0.6,0.1C208.9,1.7,207.9,1.7,206.7,1.7
	C206.6,1.7,207.7,1.6,206.7,1.7z M273.2,1.5c-0.1,0-0.6,0-0.6,0c-1.3,0.1,0.6,0.1,2.1,0.1c-1.1-0.1,5.1-0.1,5.3,0
	c-2.4,0-7.4,0.1-9.1,0.1c-1.6,0,0.1-0.2,0-0.2C272.4,1.4,272,1.5,273.2,1.5z M97.7,1.6c-0.6,0-0.4-0.1-0.6-0.1c0.9,0,3.1,0,3.1,0
	c0.7,0,0.4-0.1,0.6-0.1c3,0.2,8.3-0.2,13.3,0c-0.2,0.1-1.4,0.1-1.7,0.1C106.6,1.5,102,1.5,97.7,1.6z M235.4,1.5
	c-1.3,0-2.8,0-2.7-0.1C234.4,1.3,235.3,1.4,235.4,1.5z M201.4,1.5c0,0,0.6,0,1,0c-0.1,0-0.6,0-0.6-0.1c-2,0.1-2.2,0-4.2,0
	c-0.9-0.1,0.2-0.1-0.6-0.2c0.9,0.1,2,0.1,1.7-0.1c1,0,0.4,0.1,2.1,0.1c0.1,0.1-0.6,0.1-0.6,0.1c2,0.1,2.6-0.1,4.8,0
	C204.2,1.4,203,1.4,201.4,1.5z M154.1,1.2c0.1-0.1,0.9-0.1,2.1-0.1c-0.1-0.1-1.8,0-2.1-0.1c4.1-0.1,7.1,0.1,10.7,0.1
	C163.8,1.5,156.1,1.4,154.1,1.2z M167.3,1.4c-1.4,0-1.8-0.1-2.1-0.2C166.8,1.2,168.8,1.3,167.3,1.4z M316.1,1.1c-1.4,0-1,0.1-2.1,0
	c-0.1,0,0.1,0.1-0.6,0.1c-1.3,0-2.6,0-2.7-0.1c0.9,0,1.7,0,2.1,0c0.2-0.1-1.8-0.1-2.7-0.1c0.4,0.2-3,0.1-3.1,0
	c-0.9,0.3,4,0.2,5.3,0.3c0.8-0.2,9.1,0.1,7.4-0.1C319.9,1.4,314,1.2,316.1,1.1z M594.1,6.1c-5.9,0.1-10.3-0.1-13.3,0.1
	C585.3,6.3,590,6.2,594.1,6.1z M529.9,4.9c-0.4,0-0.7,0.1-0.6,0.2c2.7,0.1,6.6-0.1,5.3-0.2c-0.6,0.1-2.3,0.2-4.2,0.2
	C528.9,5,531.3,4.9,529.9,4.9z M433.1,3.3c0.3,0.2-0.2,0.2-1.7,0.2c0.6,0.2-0.6,0.2-1.7,0.3c2.9,0.1,5.1,0.1,5.8,0
	C432.1,3.7,436.2,3.5,433.1,3.3z M477.8,3.6c0.6,0,1.8,0.2,0.6,0.2c-2.1,0.1-0.2-0.2-1.7-0.1c-1.6,0.1-0.6,0.1-0.6,0.2
	C479.8,4,480.9,3.5,477.8,3.6z M417.7,3.6c1.7,0,1-0.1,2.7-0.1c0.9,0.1-0.4,0.1,0.6,0.1c1.9,0.1,0.3-0.1,1.7-0.1
	c0.3,0.1,1.1,0.1,1.7,0.2c-1,0-2.3,0-2.1,0.1c1.8-0.1,3.9,0.2,4.8-0.1c-1.2,0-2,0-2.1-0.1c0.8-0.1,1.1-0.1,0.6-0.2
	c2.1,0,4,0,4.8,0.1c0.2-0.1,1.6-0.1,1-0.2c-0.6,0-1.6,0-1.7,0c1.7,0,1.8-0.1,1-0.2c-1.7,0-1.4,0.1-2.7,0.1c-1.4-0.1-0.4-0.1-1-0.2
	C425,3,425,3.1,423,3c-0.4,0.2,1.4,0.1,2.1,0.2c-2.2,0-3.6,0-5.3,0c-1.1-0.2-0.1-0.3-1.7-0.3c-0.4-0.1,2.6,0,2.1-0.1
	c-1.3,0-1.1-0.1-2.7,0c-1.7,0.1-2.4,0.3-4.2,0.4c2.3,0.1,4.1,0.1,3.1,0.3c1.8-0.1,2.9,0.3,4.8,0.1c-1,0,0.3-0.1-0.6-0.1
	C421.1,3.7,417.9,3.7,417.7,3.6z M572.9,3.4c1,0,1.1,0,0.6,0.1c1.7,0,1.6-0.1,3.1,0c-0.3-0.1,0.6-0.2,1-0.3c-1.3,0-1.1,0.1-2.7,0
	c-0.4,0.1,0.7,0.1,0.6,0.2C574.2,3.4,573.3,3.3,572.9,3.4z M418.7,2.3c-1,0-3.2-0.1-5.3,0c-0.9,0-1.8-0.1-1.7-0.2
	c3.7,0.2,9.3-0.3,12.8,0.1c0.3-0.1-0.6-0.2,0.6-0.2c4.7,0.2,2,0,6.4,0.1c-0.8-0.1,1.4-0.1,1-0.2s-1.7,0-0.6-0.1c-0.9,0-1.8,0-2.7,0
	c0.8-0.1-1.4-0.1-1.7-0.1c1-0.1,3.4-0.1,3.8-0.3c-2,0-1.9,0-3.1,0c-0.8,0.1-1.6,0.2-2.1,0.3c-0.8,0-0.4-0.1-2.1-0.1
	c0.6,0.1-1.3,0.1-1,0.2c2.8,0.1,3.2-0.2,5.3-0.1c-0.2,0.2-2.7,0.2-4.8,0.2V1.8c-1.4,0-1.1,0.1-2.1,0c-0.1,0,0.1,0.1-0.6,0.1
	c-4.4-0.1-12.8,0-14.3,0.4c1.6,0.1,3.6,0,1.7,0.1c2.4,0.1,3.2,0.2,5.8,0.1c0.3-0.1-1.2-0.1,0.6-0.2c2,0,4.2,0.1,5.3,0.1
	C418.3,2.5,420.1,2.3,418.7,2.3z M437.9,2c-0.9,0-1.7,0-2.1,0c0.3,0.1-0.6,0.2,0.6,0.2c0.8-0.1,2.8-0.2,3.1-0.3c2,0,0,0.1,1,0.2
	c1.2,0,3.9,0,4.2,0c-1.8,0-0.6-0.1,0-0.1c-3,0.1-2.2-0.1-4.2,0c-0.1-0.1,0.2-0.1-0.6-0.1c-0.6,0.1-3.4-0.1-3.8,0
	c0.9,0,1.8,0.1,2.1,0.2C437.3,1.9,437.2,1.9,437.9,2z M477.2,1.3c-1.6,0-1.9,0.2-3.1,0.1c-0.8,0.1-1.9,0.2-1.7,0.3c-1.2,0-2,0-2.7,0
	c1.2,0.1,0.8,0.1,0,0.3c2,0,4.8,0.2,6.9,0c-2.4,0-1.2-0.1-2.1-0.2c-0.6,0-2.1,0.2-3.1,0.1C473,1.6,475.2,1.6,477.2,1.3z M512.8,1.9
	c0.1-0.1-0.6-0.1-0.6-0.1c1.7,0,4.2,0,4.2-0.1c-4.3,0-7.3-0.2-10.6,0c1.3,0.1,4.8,0,4.8,0.2c-0.6,0-1.6,0-1.7,0
	C510.6,2.1,511.1,1.8,512.8,1.9z M536.2,1.6c-0.6,0-1.6,0-1.7,0c0.9-0.1,1.7,0.1,2.1-0.1c-7.9-0.1-13.1,0.3-18.7,0
	c-0.2,0.1-0.6,0.1-1.7,0.2c0.4,0,0.6,0,0.6,0.1c2.2,0.1,5.8-0.1,5.8,0c2,0,3.4-0.1,5.3-0.2c0.8,0.1,2.8,0.1,2.7,0.2
	c-1.1-0.1-2.9-0.1-3.8,0c2.6,0,4.4,0.1,5.8,0c0,0-0.7,0.1-0.6,0.1c0.7,0,3.1,0.1,3.1,0C534,1.8,536,1.8,536.2,1.6z M559.6,1.6
	c-0.6,0.1-3,0-3.1,0.1C558.1,1.8,560.8,1.7,559.6,1.6z M572.3,1.5c-0.6,0.1-2.9,0-2.1,0.2c0.9,0,1.3,0.1,1.7,0
	C570.3,1.6,574,1.5,572.3,1.5z M513.3,1.6c1.6-0.1,3.2-0.2,5.3-0.2C515.7,1.3,513.7,1.4,513.3,1.6z M75.5,1.4
	c-1.8,0-0.7,0.1-2.1,0.1c0,0-0.1,0-0.6,0c-0.6,0.1,1.1,0.2,1.7,0.1C72.7,1.5,75.5,1.5,75.5,1.4z M254.6,1.1c1.3,0.1,3,0.1,3.1,0.2
	C256.2,1.3,256.3,1.2,254.6,1.1c-0.2,0.1,0.7,0.1,1,0.2c-1.8,0-2.2-0.1-3.1,0c2.3,0,3.1,0.1,4.2,0.2c1-0.1,4-0.1,2.7,0
	c1.6-0.2,5.2-0.1,7.4-0.2c-0.9,0-0.3-0.1-1-0.1c0,0.1-1.2,0.1-2.1,0.2c-1-0.1-3.1,0-4.8-0.1c1.8-0.1,0-0.1,1.7-0.2
	C257.3,1.1,255.9,1.1,254.6,1.1z M589.9,1.1c-5.3,0.1-9.9,0-13.3,0.2c1.8,0,5-0.1,6.4,0c-1,0-3.4,0-2.1,0.1
	C581.8,1.3,587.2,1.2,589.9,1.1z M250.2,1.1c1.7,0-1.8,0-1.7,0.1c0.8,0,1.8,0,1.7,0.1c-1.7,0-1.8,0-2.1,0.1c1.8,0,3.3,0.1,4.2,0
	C249.4,1.3,253.7,1,250.2,1.1z M62.2,1.4c2.9,0.1,6.4,0,7.4-0.2c-2.4,0-2.4-0.1-1-0.1c-1.8,0-3.4,0.1-4.2,0.1C65,1.2,65,1.3,65,1.3
	c-1.4-0.1-1.3,0-2.1,0.1C62.7,1.4,62.2,1.4,62.2,1.4z M182.2,1.2c0.1,0.1,5.9,0.3,4.2,0.1c-0.1,0-0.6,0.1-1,0.1
	C184.9,1.2,183.3,1.2,182.2,1.2z M523.4,1.1c-1.8,0-2-0.1-3.8,0c-1.1,0.1-0.7,0.1-0.6,0.2c1.8,0,4.2-0.1,4.8-0.1
	C523.3,1.2,523.3,1.2,523.4,1.1z M589.9,1c-1.6,0-4.7,0-4.8,0.1c1.4-0.1,5.4,0,2.7,0.1C589.4,1.1,589.2,1,589.9,1z M511.2,0.8
	c-1.4,0.1-2.7,0.2-4.8,0.2c0.7,0.1,2.6,0.1,3.1,0C509.4,0.8,511,0.9,511.2,0.8z M348.1,2.5c-2.6,0-3.6,0-3.8,0.2c1,0,1,0.1,2.7,0.1
	C347,2.7,347.7,2.6,348.1,2.5z M459.1,1.9c-1.6-0.1-4.1-0.2-6.4-0.1c0,0.1,0.7,0.2,2.1,0.2C454.8,1.9,458.3,2,459.1,1.9z M406.6,1.7
	c-0.9,0-2.7,0-2.1-0.1c1.6,0,1.4,0.1,2.7,0c0.7-0.1-0.2-0.2,1-0.3c-4.8,0-4.4,0-8.6,0c-0.1,0.1,0.7,0.1,1,0.1c-0.6,0-1.4,0-2.7,0
	c-0.4,0.1,0.2,0.2-1.7,0.2c3.3,0,5.9,0,10.1,0C406.6,1.8,406.6,1.8,406.6,1.7z"/>
</svg>
