<?xml version="1.0" encoding="utf-8"?>
<!-- Generator: Adobe Illustrator 21.1.0, SVG Export Plug-In . SVG Version: 6.00 Build 0)  -->
<svg version="1.1" id="Feature_Title_2017-5_copy_2"
	 xmlns="http://www.w3.org/2000/svg" xmlns:xlink="http://www.w3.org/1999/xlink" x="0px" y="0px" viewBox="0 0 1280 315"
	 style="enable-background:new 0 0 1280 315;" xml:space="preserve">
<style type="text/css">
	.st0{fill:#FFFFFF;}
	.st1{fill:url(#SVGID_1_);}
	.st2{fill:url(#SVGID_2_);}
</style>
<g>
	<path class="st0" d="M88.9,82.7c0.8,1.1,1.2,2.5,1.2,4c0,6.6-8.4,9.9-20,10.3v0.2h-7.5V97H44v2h26.2c12.6,0,22-3.3,22-10.3
		C92.2,86.2,91,84.3,88.9,82.7z"/>
	<polygon class="st0" points="68.2,63.5 68.2,61.6 60.7,61.6 60.7,95.1 62.7,95.1 62.7,63.5 	"/>
	<path class="st0" d="M78.2,76.9v0.7c1.4,0.2,2.7,0.5,3.9,0.9c4.8-1.2,8.1-3.9,8.1-7.6c0-2.1-1.1-3.9-3.1-5.3c0.7,1,1.1,2.1,1.1,3.3
		C88.3,73.1,84.1,76,78.2,76.9z"/>
	<path class="st0" d="M136.4,81.9c4.4-1.4,7.7-4.4,7.7-9.1c0-3-1.3-5.3-3.6-7.1c1,1.4,1.6,3.1,1.6,5.1c0,4.7-3.3,7.7-7.7,9.1v0.5
		l9.1,16.6h-19.9l1.1,2h20.8l-9.1-16.6V81.9z"/>
	<polygon class="st0" points="114,82 114,97 97.3,97 97.3,99 116,99 116,84.8 114.5,82 	"/>
	<polygon class="st0" points="114,80.2 116,80.2 116,63.5 121,63.5 121,61.6 114,61.6 	"/>
	<polygon class="st0" points="166.4,97 149.7,97 149.7,99 168.4,99 168.4,61.6 166.4,61.6 	"/>
	<path class="st0" d="M219.2,70.8c0.1,0.6,0.2,1.3,0.2,2h1.9c0-4.3-1.5-7.1-3.9-8.8C218.6,65.7,219.3,67.9,219.2,70.8L219.2,70.8z"
		/>
	<path class="st0" d="M219.4,82.2v5.6c0,8.7-7.5,9.8-15.9,9.8h-8.4v-0.1h-2c-5.8,0-11.1-0.9-14.9-3.9c3.7,4.7,9.9,5.9,16.9,5.9h8.4
		c9.8,0,17.8-1.6,17.8-11.7v-7.5h-2v1.9H219.4z"/>
	<path class="st0" d="M203.5,63c4.9,0,9.5,0.4,12.5,2.5c-1.9-2.8-5.4-3.9-9.6-4.3c-0.9,0-1.9-0.1-2.8-0.1h-8.4c-0.7,0-1.3,0-2,0
		v34.4h2V63H203.5z"/>
	<rect x="203.5" y="80.3" class="st0" width="13.9" height="1.9"/>
	<polygon class="st0" points="244.6,79.4 244.6,79.2 242.6,79.2 242.6,97 226.9,97 226.9,99 244.6,99 244.6,81.2 251.5,81.2 
		251.5,79.4 	"/>
	<polygon class="st0" points="269.2,97 253.5,97 253.5,99 271.2,99 271.2,61.6 269.2,61.6 	"/>
	<rect x="242.6" y="61.6" class="st0" width="2" height="15.8"/>
	<polygon class="st0" points="304.3,97 287.6,97 287.6,99 306.3,99 306.3,63.5 318.5,63.5 318.5,61.6 304.3,61.6 	"/>
	<rect x="275.5" y="61.6" class="st0" width="10.2" height="1.9"/>
	<polygon class="st0" points="341.4,97 322.7,97 322.7,99 359.6,99 359.6,97.1 341.4,97.1 	"/>
	<polygon class="st0" points="341.4,76.4 341.4,63.5 358.7,63.5 358.7,61.6 339.4,61.6 339.4,76.4 	"/>
	<polygon class="st0" points="339.4,95.1 341.4,95.1 341.4,80.3 354.5,80.3 354.5,78.4 341.4,78.4 341.4,78.3 339.4,78.3 	"/>
	<polygon class="st0" points="381,80.2 383,80.2 383,63.5 388,63.5 388,61.6 381,61.6 	"/>
	<polygon class="st0" points="381,82 381,97 364.3,97 364.3,99 383,99 383,84.8 381.5,82 	"/>
	<path class="st0" d="M403.4,81.9c4.4-1.4,7.7-4.4,7.7-9.1c0-3-1.3-5.3-3.6-7.1c1,1.4,1.6,3.1,1.6,5.1c0,4.7-3.3,7.7-7.7,9.1v0.5
		l9.1,16.6h-19.9l1.1,2h20.8l-9.1-16.6V81.9z"/>
	<polygon class="st0" points="468.5,80.3 468.5,78.4 464.9,78.4 464.9,78.3 462.9,78.3 462.9,95.6 464.9,95.6 464.9,80.3 	"/>
	<path class="st0" d="M452.8,76.9c-3.8-0.5-6.7-1.5-8.7-2.9c1.1,1.7,3.3,3.1,6.5,4c0.7-0.2,1.4-0.3,2.2-0.4V76.9z"/>
	<path class="st0" d="M473.3,95.6h0.9c-0.6-0.3-1.2-0.7-1.8-1.1C472.6,94.9,472.9,95.3,473.3,95.6z"/>
	<path class="st0" d="M484.8,95.6c0.7,0,1.4,0,2-0.1V80.3h8.4v-1.9h-8.4v-0.1h-2V95.6z"/>
	<path class="st0" d="M472.1,61.2c-1,0-2-0.1-3.1-0.1h-4.2c-0.7,0-1.3,0-2,0v15.3h2V63h4.2c5.2,0,10,0.4,12.9,2.4
		C480.3,62.7,476.6,61.6,472.1,61.2z"/>
	<path class="st0" d="M484.7,68.9c0.2,0.6,0.3,1.3,0.3,2h1.9c0-3.2-1.3-5.4-3.4-6.9c0.9,1.3,1.4,2.9,1.4,4.9H484.7z"/>
	<path class="st0" d="M486.8,97.6v-0.2c-0.6,0-1.3,0.1-2,0.1h-9c0.1,0,0.2,0.1,0.2,0.1h-11.3v-0.1h-2c-8,0-14.7-0.8-18.6-3.5
		c3.1,4.4,10.8,5.5,20.6,5.5h22c7.5,0,12.2-2.3,12.2-7.5h-1.9C497.1,96.2,492.9,97.6,486.8,97.6z"/>
	<rect x="484.8" y="72.8" class="st0" width="2" height="3.6"/>
	<polygon class="st0" points="583,93.4 582.7,92.5 581.7,97 564.5,97 565.2,99 583.7,99 592.3,61.6 590.4,61.6 	"/>
	<polygon class="st0" points="553.9,88.7 547.6,61.6 546.1,61.6 553,91.6 	"/>
	<polygon class="st0" points="581.5,89.3 571.1,61.6 569.8,61.6 581,91.4 	"/>
	<polygon class="st0" points="555,93.6 554.7,92.3 553.4,97 536.7,97 537.1,99 555.4,99 559.1,86.3 558,83.4 	"/>
	<polygon class="st0" points="639.4,97 623.6,97 623.6,99 641.4,99 641.4,61.6 639.4,61.6 	"/>
	<rect x="612.8" y="61.6" class="st0" width="2" height="15.8"/>
	<polygon class="st0" points="614.8,79.4 614.8,79.2 612.8,79.2 612.8,97 597,97 597,99 614.8,99 614.8,81.2 621.6,81.2 621.6,79.4 
			"/>
	<polygon class="st0" points="665.6,97 648.8,97 648.8,99 667.6,99 667.6,61.6 665.6,61.6 	"/>
	<polygon class="st0" points="700.6,97 683.9,97 683.9,99 702.6,99 702.6,63.5 714.8,63.5 714.8,61.6 700.6,61.6 	"/>
	<rect x="671.8" y="61.6" class="st0" width="10.2" height="1.9"/>
	<polygon class="st0" points="737.7,76.4 737.7,63.5 755,63.5 755,61.6 735.7,61.6 735.7,76.4 	"/>
	<polygon class="st0" points="735.7,95.1 737.7,95.1 737.7,80.3 750.8,80.3 750.8,78.4 737.7,78.4 737.7,78.3 735.7,78.3 	"/>
	<polygon class="st0" points="737.7,97 719,97 719,99 755.9,99 755.9,97.1 737.7,97.1 	"/>
	<polygon class="st0" points="777.3,82 777.3,97 760.6,97 760.6,99 779.3,99 779.3,84.8 777.8,82 	"/>
	<polygon class="st0" points="777.3,80.2 779.3,80.2 779.3,63.5 784.3,63.5 784.3,61.6 777.3,61.6 	"/>
	<path class="st0" d="M808.8,99l-9.1-16.6v-0.5c4.4-1.4,7.7-4.4,7.7-9.1c0-3-1.3-5.3-3.6-7.1c1,1.4,1.6,3.1,1.6,5.1
		c0,4.7-3.3,7.7-7.7,9.1v0.5l9.1,16.6h-19.9l1.1,2H808.8z"/>
</g>
<linearGradient id="SVGID_1_" gradientUnits="userSpaceOnUse" x1="416.7046" y1="24.635" x2="425.7625" y2="128.1677">
	<stop  offset="0.3" style="stop-color:#E48F24"/>
	<stop  offset="0.7" style="stop-color:#D35B1B"/>
</linearGradient>
<path class="st1" d="M76.2,75.6c7.2,1.2,11.9,4.2,11.9,9.1c0,7-9.4,10.3-22,10.3H40V57.6h26.2c10.8,0,20.1,3.3,20.1,9.4
	c0,4.1-4.2,7-10.1,8V75.6z M66.2,59.5h-7.5v33.7h7.5V59.5z M112.5,80H112v15H93.3V57.6H119c11.7,0,21,3.3,21,11.2
	c0,4.7-3.3,7.7-7.7,9.1v0.5l9.1,16.6h-20.8L112.5,80z M119,59.5h-7v18.7h7V59.5z M145.7,57.6h18.7V95h-18.7V57.6z M199.5,76.3h17.8
	v7.5c0,10.1-8,11.7-17.8,11.7h-8.4c-11.2,0-20.6-3.3-20.6-19.2c0-15.9,9.4-19.2,20.6-19.2h8.4c9.8,0,17.8,1.6,17.8,11.7h-1.9
	c0-8.7-7.5-9.8-15.9-9.8h-8.4v34.6h8.4c8.4,0,15.9-1.2,15.9-9.8v-5.6h-15.9V76.3z M222.9,57.6h17.8v17.8h8.8V57.6h17.8V95h-17.8
	V77.2h-8.8V95h-17.8V57.6z M302.3,95h-18.7V59.5h-12.2v-1.9h43v1.9h-12.2V95z M318.7,57.6h36v1.9h-17.3v15h13.1v1.9h-13.1v16.8h18.2
	V95h-36.9V57.6z M379.5,80H379v15h-18.7V57.6H386c11.7,0,21,3.3,21,11.2c0,4.7-3.3,7.7-7.7,9.1v0.5l9.1,16.6h-20.8L379.5,80z
	 M386,59.5h-7v18.7h7V59.5z M482.8,76.3v17.3c6.1,0,10.3-1.4,10.3-5.6h1.9c0,5.1-4.7,7.5-12.2,7.5h-22c-12.6,0-22-1.9-22-10.3
	c0-5.4,4.7-8.4,11.9-9.6v-0.7c-7.2-0.9-11.5-3.7-11.5-7.5c0-7.5,9.4-10.3,21.5-10.3h4.2c9.8,0,17.8,1.6,17.8,9.8H481
	c0-6.8-7.5-8-15.9-8h-4.2v15.4h5.6v-5.6h16.4v5.6h8.4v1.9H482.8z M472.1,93.6c-3.6-1.6-5.7-4.7-5.7-9.8v-7.5h-5.6v17.3H472.1z
	 M555.7,80.5L551.4,95h-18.2l-8.7-37.4h19.2l7.4,32l9.5-32h6.5l12,31.8l7.4-31.8h1.9L579.7,95h-18.4L555.7,80.5z M593,57.6h17.8
	v17.8h8.8V57.6h17.8V95h-17.8V77.2h-8.8V95H593V57.6z M644.8,57.6h18.7V95h-18.7V57.6z M698.6,95h-18.7V59.5h-12.2v-1.9h43v1.9
	h-12.2V95z M715,57.6h36v1.9h-17.3v15h13.1v1.9h-13.1v16.8h18.2V95H715V57.6z M775.8,80h-0.5v15h-18.7V57.6h25.7
	c11.7,0,21,3.3,21,11.2c0,4.7-3.3,7.7-7.7,9.1v0.5l9.1,16.6H784L775.8,80z M782.3,59.5h-7v18.7h7V59.5z"/>
<g>
	<path class="st0" d="M541.9,180.6c3.7,4.7,9.9,5.9,16.9,5.9h8.4c9.8,0,17.8-1.6,17.8-11.7H583c0,8.7-7.5,9.8-15.9,9.8h-8.4v-0.1h-2
		C550.9,184.5,545.6,183.6,541.9,180.6z"/>
	<path class="st0" d="M582.9,157.8c0.1,0.6,0.2,1.3,0.2,2h1.9c0-4.3-1.5-7.1-3.9-8.8C582.2,152.7,582.9,154.9,582.9,157.8
		L582.9,157.8z"/>
	<path class="st0" d="M567.1,150c4.9,0,9.5,0.4,12.5,2.5c-1.9-2.8-5.4-3.9-9.6-4.3c-0.9,0-1.9-0.1-2.8-0.1h-8.4c-0.7,0-1.3,0-2,0
		v34.4h2V150H567.1z"/>
	<path class="st0" d="M616.1,150v-1.9h-6.4c-1,0-2,0-2.9,0.1v34.4h2V150H616.1z"/>
	<path class="st0" d="M632,152c2.3,2.9,3.7,7.2,3.7,13.3c0,14.5-7.8,18.5-17.6,19.1v0.2h-9.4v-0.1h-1.1c-5.8,0-11.1-0.9-14.9-3.9
		c3.7,4.7,9.9,5.9,16.9,5.9h7.5c11.2,0,20.6-3.3,20.6-19.2C637.7,159.6,635.6,154.9,632,152z"/>
	<rect x="660.5" y="148.6" class="st0" width="2" height="33.5"/>
	<polygon class="st0" points="662.5,184 643.8,184 643.8,186 678.4,186 678.4,184.1 662.5,184.1 	"/>
	<polygon class="st0" points="707.3,150.5 707.3,148.6 699.4,148.6 699.4,182.1 701.4,182.1 701.4,150.5 	"/>
	<path class="st0" d="M723.8,152.5c2.3,2.8,3.6,6.9,3.6,12.8c0,14.3-8,18.2-18.1,18.6v0.2h-8V184h-18.7v2h26.2
		c11.2,0,20.6-3.3,20.6-18.7C729.4,159.9,727.3,155.3,723.8,152.5z"/>
	<polygon class="st0" points="752.2,182.1 754.2,182.1 754.2,167.3 767.3,167.3 767.3,165.4 754.2,165.4 754.2,165.3 752.2,165.3 	
		"/>
	<polygon class="st0" points="754.2,184 735.5,184 735.5,186 772.4,186 772.4,184.1 754.2,184.1 	"/>
	<polygon class="st0" points="754.2,163.4 754.2,150.5 771.5,150.5 771.5,148.6 752.2,148.6 752.2,163.4 	"/>
	<polygon class="st0" points="793.8,167.2 795.8,167.2 795.8,150.5 800.8,150.5 800.8,148.6 793.8,148.6 	"/>
	<path class="st0" d="M816.2,168.9c4.4-1.4,7.7-4.4,7.7-9.1c0-3-1.3-5.3-3.6-7.1c1,1.4,1.6,3.1,1.6,5.1c0,4.7-3.3,7.7-7.7,9.1v0.5
		l9.1,16.6h-19.9l1.1,2h20.8l-9.1-16.6V168.9z"/>
	<polygon class="st0" points="793.8,169 793.8,184 777.1,184 777.1,186 795.8,186 795.8,171.8 794.3,169 	"/>
	<path class="st0" d="M865.6,163.9c-3.8-0.5-6.7-1.5-8.7-2.9c1.1,1.7,3.3,3.1,6.5,4c0.7-0.2,1.4-0.3,2.2-0.4V163.9z"/>
	<path class="st0" d="M897.5,155.9c0.2,0.6,0.3,1.3,0.3,2h1.9c0-3.2-1.3-5.4-3.4-6.9c0.9,1.3,1.4,2.9,1.4,4.9H897.5z"/>
	<path class="st0" d="M899.6,184.6v-0.2c-0.6,0-1.3,0.1-2,0.1h-9c0.1,0,0.2,0.1,0.2,0.1h-11.3v-0.1h-2c-8,0-14.7-0.8-18.6-3.5
		c3.1,4.4,10.8,5.5,20.6,5.5h22c7.5,0,12.2-2.3,12.2-7.5h-1.9C909.9,183.2,905.7,184.6,899.6,184.6z"/>
	<polygon class="st0" points="881.3,167.3 881.3,165.4 877.7,165.4 877.7,165.3 875.7,165.3 875.7,182.6 877.7,182.6 877.7,167.3 	
		"/>
	<path class="st0" d="M897.6,182.6c0.7,0,1.4,0,2-0.1v-15.2h8.4v-1.9h-8.4v-0.1h-2V182.6z"/>
	<rect x="897.6" y="159.8" class="st0" width="2" height="3.6"/>
	<path class="st0" d="M886.1,182.6h0.9c-0.6-0.3-1.2-0.7-1.8-1.1C885.4,181.9,885.7,182.3,886.1,182.6z"/>
	<path class="st0" d="M884.9,148.2c-1,0-2-0.1-3.1-0.1h-4.2c-0.7,0-1.3,0-2,0v15.3h2V150h4.2c5.2,0,10,0.4,12.9,2.4
		C893.1,149.7,889.4,148.6,884.9,148.2z"/>
	<path class="st0" d="M985.2,152.5c2.3,2.8,3.6,6.9,3.6,12.8c0,14.3-8,18.2-18.1,18.6v0.2h-8V184h-18.7v2h26.2
		c11.2,0,20.6-3.3,20.6-18.7C990.8,159.9,988.7,155.3,985.2,152.5z"/>
	<polygon class="st0" points="968.7,150.5 968.7,148.6 960.8,148.6 960.8,182.1 962.8,182.1 962.8,150.5 	"/>
	<polygon class="st0" points="1025.4,148.6 1040.2,184 1021.2,184 1022.1,186 1042.2,186 1026.5,148.6 	"/>
	<polygon class="st0" points="991.8,186 993.8,186 1007.3,154.1 1006.3,151.8 	"/>
	<polygon class="st0" points="1063.6,167.2 1065.6,167.2 1065.6,150.5 1070.6,150.5 1070.6,148.6 1063.6,148.6 	"/>
	<polygon class="st0" points="1063.6,169 1063.6,184 1046.9,184 1046.9,186 1065.6,186 1065.6,171.8 1064,169 	"/>
	<path class="st0" d="M1085.9,168.9c4.4-1.4,7.7-4.4,7.7-9.1c0-3-1.3-5.3-3.6-7.1c1,1.4,1.6,3.1,1.6,5.1c0,4.7-3.3,7.7-7.7,9.1v0.5
		l9.1,16.6h-19.9l1.1,2h20.8l-9.1-16.6V168.9z"/>
	<polygon class="st0" points="1118,163.6 1118,148.6 1116,148.6 1116,165.3 	"/>
	<polygon class="st0" points="1116,167.6 1116,184 1099.3,184 1099.3,186 1118,186 1118,169.6 1118.3,169.4 1116.9,166.9 	"/>
	<polygon class="st0" points="1132.9,157.2 1143.4,148.6 1140.4,148.6 1131.2,156.2 1148.5,184 1127.6,184 1128.7,186 1150.5,186 
		1132.9,157.7 	"/>
	<polygon class="st0" points="1172.9,184 1154.2,184 1154.2,186 1191.1,186 1191.1,184.1 1172.9,184.1 	"/>
	<polygon class="st0" points="1170.9,182.1 1172.9,182.1 1172.9,167.3 1186,167.3 1186,165.4 1172.9,165.4 1172.9,165.3 
		1170.9,165.3 	"/>
	<polygon class="st0" points="1172.9,163.4 1172.9,150.5 1190.2,150.5 1190.2,148.6 1170.9,148.6 1170.9,163.4 	"/>
	<path class="st0" d="M1244,186l-9.1-16.6v-0.5c4.4-1.4,7.7-4.4,7.7-9.1c0-3-1.3-5.3-3.6-7.1c1,1.4,1.6,3.1,1.6,5.1
		c0,4.7-3.3,7.7-7.7,9.1v0.5l9.1,16.6h-19.9l1.1,2H1244z"/>
	<polygon class="st0" points="1212.5,167.2 1214.5,167.2 1214.5,150.5 1219.5,150.5 1219.5,148.6 1212.5,148.6 	"/>
	<polygon class="st0" points="1212.5,169 1212.5,184 1195.8,184 1195.8,186 1214.5,186 1214.5,171.8 1213,169 	"/>
</g>
<g>
	<path class="st0" d="M396.5,111.9h10.1c4,0,7.5,2.4,7.5,7.6c0,4.6-3.5,7.4-7.5,7.4h-5.1v5.4h-5V111.9z M401.6,116.3v6.2h4.3
		c1.7,0,3.1-1.2,3.1-3.1c0-2-1.4-3.1-3.1-3.1H401.6z"/>
	<path class="st0" d="M417.6,132.3v-20.4H434v4.4h-11.5v3.5h9.4v4.2h-9.4v3.9H434v4.4H417.6z"/>
	<path class="st0" d="M438.1,111.9h9.7c4.7,0,7.9,2.2,7.9,6.8c0,3-2,5.3-4.8,6.1l5.9,6.6v1h-5.4l-6.2-7.2h-2v7.2h-5V111.9z
		 M443.1,116.3v5h4.6c1.6,0,2.7-1,2.7-2.5c0-1.6-1.1-2.5-2.7-2.5H443.1z"/>
	<path class="st0" d="M465,125.7v6.7h-4.8v-20.4h15.8v4.4H465v4.9h9.3v4.4H465z"/>
	<path class="st0" d="M479.5,132.3v-20.4h16.4v4.4h-11.5v3.5h9.4v4.2h-9.4v3.9h11.5v4.4H479.5z"/>
	<path class="st0" d="M509.3,128c2.5,0,4.3-1,5.6-2l2.3,3.6c-2.1,1.9-4.8,3-8.1,3c-6.1,0-10.8-4.5-10.8-10.5c0-6,4.6-10.5,10.8-10.5
		c3.3,0,6,1.1,8.1,3l-2.3,3.6c-1.3-1-3.1-2-5.6-2c-3.4,0-5.7,2.6-5.7,5.8S505.8,128,509.3,128z"/>
	<path class="st0" d="M530.3,116.3v16h-5v-16H519v-4.4h17.4v4.4H530.3z"/>
	<path class="st0" d="M546.1,132.3v-20.4h5v16h10.2v4.4H546.1z"/>
	<path class="st0" d="M564.3,111.9h5v20.4h-5V111.9z"/>
	<path class="st0" d="M592.9,129.8c-1.9,1.5-5.7,2.8-8.8,2.8c-6,0-10.9-3.9-10.9-10.5c0-6.6,4.8-10.5,10.9-10.5c3.3,0,6,1.1,8,2.7
		l-2.3,3.8c-1.5-1.2-3.4-1.9-5.6-1.9c-3.3,0-5.8,2.1-5.8,5.9c0,3.7,2.5,5.8,6,5.8c1.3,0,2.6-0.3,3.7-0.9v-3h-4.9v-3.8h9.7V129.8z"/>
	<path class="st0" d="M611.8,124.2h-9.6v8.1h-5v-20.4h5v7.9h9.6v-7.9h5v20.4h-5V124.2z"/>
	<path class="st0" d="M631.5,116.3v16h-5v-16h-6.3v-4.4h17.4v4.4H631.5z"/>
	<path class="st0" d="M640.8,111.9h5v20.4h-5V111.9z"/>
	<path class="st0" d="M656,119.9v12.4h-5v-20.4h4.4l10.3,12.4v-12.4h5v20.4h-4.4L656,119.9z"/>
	<path class="st0" d="M694.2,129.8c-1.9,1.5-5.7,2.8-8.8,2.8c-6,0-10.9-3.9-10.9-10.5c0-6.6,4.8-10.5,10.9-10.5c3.3,0,6,1.1,8,2.7
		l-2.3,3.8c-1.5-1.2-3.4-1.9-5.6-1.9c-3.3,0-5.8,2.1-5.8,5.9c0,3.7,2.5,5.8,6,5.8c1.3,0,2.6-0.3,3.7-0.9v-3h-4.9v-3.8h9.7V129.8z"/>
	<path class="st0" d="M710.5,125.7v6.7h-4.8v-20.4h15.8v4.4h-10.9v4.9h9.3v4.4H710.5z"/>
	<path class="st0" d="M734.1,111.6c6,0,10.5,4.5,10.5,10.5c0,6-4.5,10.5-10.5,10.5c-6,0-10.5-4.5-10.5-10.5
		C723.6,116.1,728.1,111.6,734.1,111.6z M734.1,127.9c3.3,0,5.5-2.5,5.5-5.7c0-3.3-2.2-5.8-5.5-5.8c-3.2,0-5.5,2.5-5.5,5.8
		C728.6,125.4,730.9,127.9,734.1,127.9z"/>
	<path class="st0" d="M748.5,111.9h9.7c4.7,0,7.9,2.2,7.9,6.8c0,3-2,5.3-4.8,6.1l5.9,6.6v1h-5.4l-6.2-7.2h-2v7.2h-5V111.9z
		 M753.5,116.3v5h4.6c1.7,0,2.7-1,2.7-2.5c0-1.6-1.1-2.5-2.7-2.5H753.5z"/>
</g>
<linearGradient id="SVGID_2_" gradientUnits="userSpaceOnUse" x1="882.4363" y1="115.2643" x2="890.9473" y2="212.5446">
	<stop  offset="0.3" style="stop-color:#D35B1B"/>
	<stop  offset="0.7" style="stop-color:#89220F"/>
</linearGradient>
<path class="st2" d="M563.1,144.1c9.8,0,17.8,1.6,17.8,11.7H579c0-8.7-7.5-9.8-15.9-9.8h-8.4v34.6h8.4c8.4,0,15.9-1.2,15.9-9.8h1.9
	c0,10.1-8,11.7-17.8,11.7h-8.4c-11.2,0-20.6-3.3-20.6-19.2c0-15.9,9.4-19.2,20.6-19.2H563.1z M613.2,144.1
	c11.2,0,20.6,3.3,20.6,19.2c0,15.9-9.4,19.2-20.6,19.2h-7.5c-11.2,0-20.6-3.3-20.6-19.2c0-15.9,9.4-19.2,20.6-19.2H613.2z
	 M604.8,180.6h9.4V146h-9.4V180.6z M639.8,144.6h18.7v35.5h15.9v1.9h-34.6V144.6z M678.6,144.6h26.2c11.2,0,20.6,3.3,20.6,18.7
	c0,15.4-9.4,18.7-20.6,18.7h-26.2V144.6z M697.4,146.5v33.7h8v-33.7H697.4z M731.5,144.6h36v1.9h-17.3v15h13.1v1.9h-13.1v16.8h18.2
	v1.9h-36.9V144.6z M792.3,167h-0.5v15h-18.7v-37.4h25.7c11.7,0,21,3.3,21,11.2c0,4.7-3.3,7.7-7.7,9.1v0.5l9.1,16.6h-20.8L792.3,167z
	 M798.8,146.5h-7v18.7h7V146.5z M895.6,163.3v17.3c6.1,0,10.3-1.4,10.3-5.6h1.9c0,5.1-4.7,7.5-12.2,7.5h-22c-12.6,0-22-1.9-22-10.3
	c0-5.4,4.7-8.4,11.9-9.6v-0.7c-7.2-0.9-11.5-3.7-11.5-7.5c0-7.5,9.4-10.3,21.5-10.3h4.2c9.8,0,17.8,1.6,17.8,9.8h-1.9
	c0-6.8-7.5-8-15.9-8h-4.2v15.4h5.6v-5.6h16.4v5.6h8.4v1.9H895.6z M884.9,180.6c-3.6-1.6-5.7-4.7-5.7-9.8v-7.5h-5.6v17.3H884.9z
	 M940.1,144.6h26.2c11.2,0,20.6,3.3,20.6,18.7c0,15.4-9.4,18.7-20.6,18.7h-26.2V144.6z M958.8,146.5v33.7h8v-33.7H958.8z M989.8,182
	h-2.1l15.9-37.4h18.9l15.7,37.4h-20.1l-14.2-33.2L989.8,182z M1062,167h-0.5v15h-18.7v-37.4h25.7c11.7,0,21,3.3,21,11.2
	c0,4.7-3.3,7.7-7.7,9.1v0.5l9.1,16.6h-20.8L1062,167z M1068.6,146.5h-7v18.7h7V146.5z M1114.9,164.9l-0.9,0.7V182h-18.7v-37.4h18.7
	v18.7l22.4-18.7h3l-10.5,8.7v0.5l17.5,28.3h-21.7L1114.9,164.9z M1150.2,144.6h36v1.9h-17.3v15h13.1v1.9h-13.1v16.8h18.2v1.9h-36.9
	V144.6z M1211,167h-0.5v15h-18.7v-37.4h25.7c11.7,0,21,3.3,21,11.2c0,4.7-3.3,7.7-7.7,9.1v0.5l9.1,16.6h-20.8L1211,167z
	 M1217.5,146.5h-7v18.7h7V146.5z"/>
</svg>
