<?xml version="1.0" encoding="utf-8"?>
<!-- Generator: Adobe Illustrator 20.1.0, SVG Export Plug-In . SVG Version: 6.00 Build 0)  -->
<svg version="1.1" id="Feature_Title_2016-11_Cyber_Monday"
	 xmlns="http://www.w3.org/2000/svg" xmlns:xlink="http://www.w3.org/1999/xlink" x="0px" y="0px" viewBox="0 0 1280 263.06"
	 style="enable-background:new 0 0 1280 263.06;" xml:space="preserve">
<style type="text/css">
	.st0{opacity:0.6;}
	.st1{fill:#EDE39C;}
	.st2{opacity:0.5;}
	.st3{fill:#918647;}
	.st4{fill:#FFFFFF;}
</style>
<g class="st0">
	<path class="st1" d="M235.19,231.03V34.93h29.4v171.11h36.75v24.99H235.19z"/>
	<path class="st1" d="M325.33,231.03V34.93h29.4v196.1H325.33z"/>
	<path class="st1" d="M454.57,232.21l-2.65-15.58c-3.23,7.94-9.41,16.17-24.7,16.17c-33.22,0-40.87-35.57-40.87-100.26
		c0-53.21,1.76-99.96,45.28-99.96c31.46,0,38.81,25.58,42.04,47.63l-28.81,3.82c-1.76-21.17-6.76-26.46-13.52-26.46
		c-9.41,0-11.47,8.82-12.64,17.93c-1.76,12.64-1.76,41.16-1.76,54.98c0,14.7,0.29,46.16,1.76,59.1c1.18,7.64,2.94,19.99,13.52,19.99
		c12.05,0,14.11-13.23,14.11-38.52v-12.64h-13.82v-26.17h41.16v99.96H454.57z"/>
	<path class="st1" d="M561.67,231.03V144h-25.58v87.03h-29.4V34.93h29.4v82.62h25.58V34.93h29.4v196.1H561.67z"/>
	<path class="st1" d="M637.14,231.03V59.92h-21.76V34.93H688v24.99h-21.46v171.11H637.14z"/>
	<path class="st1" d="M805,34.93v147.59c0.29,17.05,0.29,24.4,10.58,24.4c10.88,0,10.88-8.53,10.88-24.4V34.93h29.11v144.94
		c0,20.29,0,53.51-39.4,53.51c-39.4,0-39.98-29.99-39.98-53.51V34.93H805z"/>
	<path class="st1" d="M890.88,231.03V34.93h32.93c12.35,0,24.11,0,33.81,11.17c8.82,10.29,13.82,25.28,13.82,47.63
		c0,43.22-14.99,59.1-42.04,59.1h-9.11v78.21H890.88z M920.28,126.07h5.88c11.17,0,14.41-2.65,14.41-33.81
		c0-32.34-6.17-32.34-14.41-32.34h-5.88V126.07z"/>
	<path class="st1" d="M1002.83,179.29l-4.7-144.36H1029l-4.7,144.36H1002.83z M998.71,231.03v-33.52H1029v33.52H998.71z"/>
</g>
<g class="st2">
	<path class="st1" d="M447.89,10.11v4.72h-14.83v-4.72H447.89z"/>
	<path class="st1" d="M462.61,0.32h6.05V24.8h-6.05V0.32z"/>
	<path class="st1" d="M485.81,5.62V24.8h-6.05V5.62h-7.52V0.32h20.88v5.29H485.81z"/>
	<path class="st1" d="M498.31,6.8c-1.44-0.43-2.16-1.62-2.16-3.24c0-2.27,1.3-3.56,3.49-3.56c2.23,0,3.56,1.37,3.56,3.56
		c0,2.92-1.76,6.88-3.06,9.07l-3.35-1.33L498.31,6.8z"/>
	<path class="st1" d="M508.46,17.53c1.87,1.22,4.68,2.45,7.74,2.45c2.41,0,3.92-0.79,3.92-2.34c0-1.08-0.79-1.73-2.77-2.23l-4-1.08
		c-4.21-1.12-6.23-3.35-6.23-6.8c0-4.18,3.2-7.52,9.79-7.52c3.49,0,6.91,0.97,8.82,1.94l-1.69,5.22c-1.91-1.08-4.86-1.98-7.38-1.98
		c-2.38,0-3.38,0.76-3.38,1.94c0,1.08,0.72,1.51,2.23,1.94l4.36,1.26c4.5,1.3,6.44,3.49,6.44,6.88c0,4.72-4.14,7.96-10.26,7.96
		c-3.6,0-7.38-1.22-9-2.12L508.46,17.53z"/>
	<path class="st1" d="M540.28,0.32h11.01c7.23,0.04,12.63,4.32,12.63,12.27c0,7.88-5.4,12.2-12.63,12.2h-11.01V0.32z M546.33,5.58
		v13.97h4.68c3.96,0,6.66-2.48,6.66-6.95c0-4.54-2.7-7.02-6.66-7.02H546.33z"/>
	<path class="st1" d="M574.32,0.32h7.13l9.25,24.48h-6.12l-1.66-4.5h-10.26l-1.69,4.5h-6.12L574.32,0.32z M574.18,15.87h7.27
		l-3.56-9.57L574.18,15.87z"/>
	<path class="st1" d="M594.03,0.32h11.63c5.69,0,9.43,2.59,9.43,8.1c0,3.64-2.41,6.37-5.8,7.34l7.13,7.88v1.15h-6.44l-7.45-8.67
		h-2.45v8.67h-6.05V0.32z M600.07,5.58v6.05h5.47c1.98,0,3.28-1.22,3.28-3.02c0-1.87-1.3-3.02-3.28-3.02H600.07z"/>
	<path class="st1" d="M620.41,0.32h6.05v9.68h2.56l7.09-9.68h6.19v0.9l-8.42,11.37l9.07,11.48v0.72h-6.88l-7.16-9.54h-2.45v9.54
		h-6.05V0.32z"/>
	<path class="st1" d="M666.99-0.04c7.24,0,12.63,5.4,12.63,12.63c0,7.16-5.4,12.56-12.63,12.56c-7.16,0-12.56-5.4-12.56-12.56
		C654.43,5.36,659.83-0.04,666.99-0.04z M666.99,19.47c3.96,0,6.66-2.99,6.66-6.88c0-3.96-2.7-6.91-6.66-6.91
		c-3.85,0-6.66,2.95-6.66,6.91C660.33,16.49,663.14,19.47,666.99,19.47z"/>
	<path class="st1" d="M689.98,13.89c0,3.53,1.8,5.69,5.29,5.69c3.6,0,5.4-2.23,5.4-5.69V0.32h6.05v13.97
		c0,5.87-4.03,10.91-11.45,10.91c-7.31,0-11.34-4.57-11.34-10.91V0.32h6.05V13.89z"/>
	<path class="st1" d="M723.77,5.62V24.8h-6.05V5.62h-7.52V0.32h20.88v5.29H723.77z"/>
	<path class="st1" d="M735.4,17.53c1.87,1.22,4.68,2.45,7.74,2.45c2.41,0,3.92-0.79,3.92-2.34c0-1.08-0.79-1.73-2.77-2.23l-4-1.08
		c-4.21-1.12-6.23-3.35-6.23-6.8c0-4.18,3.2-7.52,9.79-7.52c3.49,0,6.91,0.97,8.82,1.94l-1.69,5.22c-1.91-1.08-4.86-1.98-7.38-1.98
		c-2.38,0-3.38,0.76-3.38,1.94c0,1.08,0.72,1.51,2.23,1.94l4.36,1.26c4.5,1.3,6.44,3.49,6.44,6.88c0,4.72-4.14,7.96-10.26,7.96
		c-3.6,0-7.38-1.22-9-2.12L735.4,17.53z"/>
	<path class="st1" d="M758.05,0.32h6.05V24.8h-6.05V0.32z"/>
	<path class="st1" d="M770.17,0.32h11.01c7.24,0.04,12.63,4.32,12.63,12.27c0,7.88-5.4,12.2-12.63,12.2h-11.01V0.32z M776.22,5.58
		v13.97h4.68c3.96,0,6.66-2.48,6.66-6.95c0-4.54-2.7-7.02-6.66-7.02H776.22z"/>
	<path class="st1" d="M798.56,24.8V0.32h19.65v5.26h-13.86v4.21h11.23v5.08h-11.23v4.68h13.86v5.26H798.56z"/>
	<path class="st1" d="M846.58,10.11v4.72h-14.83v-4.72H846.58z"/>
</g>
<g>
	<path class="st3" d="M431.24,258.45c2.52,0,4.29-0.99,5.61-2.01l2.31,3.63c-2.1,1.89-4.8,3.03-8.07,3.03
		c-6.15,0-10.77-4.53-10.77-10.5c0-5.97,4.62-10.5,10.77-10.5c3.27,0,5.97,1.14,8.07,3.03l-2.31,3.63
		c-1.32-1.02-3.09-2.01-5.61-2.01c-3.45,0-5.73,2.61-5.73,5.85S427.79,258.45,431.24,258.45z"/>
	<path class="st3" d="M442.4,262.8v-20.4h5.04v16.02h10.17v4.38H442.4z"/>
	<path class="st3" d="M460.26,242.4h5.04v20.4h-5.04V242.4z"/>
	<path class="st3" d="M479.88,258.45c2.52,0,4.29-0.99,5.61-2.01l2.31,3.63c-2.1,1.89-4.8,3.03-8.07,3.03
		c-6.15,0-10.77-4.53-10.77-10.5c0-5.97,4.62-10.5,10.77-10.5c3.27,0,5.97,1.14,8.07,3.03l-2.31,3.63
		c-1.32-1.02-3.09-2.01-5.61-2.01c-3.45,0-5.73,2.61-5.73,5.85S476.43,258.45,479.88,258.45z"/>
	<path class="st3" d="M491.04,242.4h5.04v8.07h2.13l5.91-8.07h5.16v0.75l-7.02,9.48l7.56,9.57v0.6h-5.73l-5.97-7.95h-2.04v7.95
		h-5.04V242.4z"/>
	<path class="st3" d="M529.5,246.81v15.99h-5.04v-15.99h-6.27v-4.41h17.4v4.41H529.5z"/>
	<path class="st3" d="M547.56,242.1c6.03,0,10.53,4.5,10.53,10.53c0,5.97-4.5,10.47-10.53,10.47c-5.97,0-10.47-4.5-10.47-10.47
		C537.1,246.6,541.6,242.1,547.56,242.1z M547.56,258.36c3.3,0,5.55-2.49,5.55-5.73c0-3.3-2.25-5.76-5.55-5.76
		c-3.21,0-5.55,2.46-5.55,5.76C542.02,255.87,544.36,258.36,547.56,258.36z"/>
	<path class="st3" d="M566.8,242.4h5.52l5.37,15.6l5.55-15.6h5.52l-7.86,20.4h-6.39L566.8,242.4z"/>
	<path class="st3" d="M591.25,242.4h5.04v20.4h-5.04V242.4z"/>
	<path class="st3" d="M601.11,262.8v-20.4h16.38v4.38h-11.55v3.51h9.36v4.23h-9.36v3.9h11.55v4.38H601.11z"/>
	<path class="st3" d="M635.96,254.94l-3.24,7.86h-5.49l-7.71-20.4h5.43l5.49,14.76l3.33-8.19l-2.4-6.57h5.49l4.8,13.92l5.19-13.92
		h5.52l-7.89,20.4h-5.49L635.96,254.94z"/>
	<path class="st3" d="M662.21,242.4h10.14c4.05,0,7.53,2.37,7.53,7.56c0,4.65-3.48,7.44-7.53,7.44h-5.1v5.4h-5.04V242.4z
		 M667.25,246.78v6.24h4.32c1.74,0,3.09-1.23,3.09-3.09c0-1.98-1.35-3.15-3.09-3.15H667.25z"/>
	<path class="st3" d="M683.04,242.4h9.69c4.74,0,7.86,2.16,7.86,6.75c0,3.03-2.01,5.31-4.83,6.12l5.94,6.57v0.96h-5.37l-6.21-7.23
		h-2.04v7.23h-5.04V242.4z M688.08,246.78v5.04h4.56c1.65,0,2.73-1.02,2.73-2.52c0-1.56-1.08-2.52-2.73-2.52H688.08z"/>
	<path class="st3" d="M713.74,242.1c6.03,0,10.53,4.5,10.53,10.53c0,5.97-4.5,10.47-10.53,10.47c-5.97,0-10.47-4.5-10.47-10.47
		C703.27,246.6,707.77,242.1,713.74,242.1z M713.74,258.36c3.3,0,5.55-2.49,5.55-5.73c0-3.3-2.25-5.76-5.55-5.76
		c-3.21,0-5.55,2.46-5.55,5.76C708.19,255.87,710.53,258.36,713.74,258.36z"/>
	<path class="st3" d="M746.12,250.32l-6.15,7.38h-0.87l-6.12-7.38v12.48h-5.04v-20.4h4.35l7.26,8.52l7.26-8.52h4.35v20.4h-5.04
		V250.32z"/>
	<path class="st3" d="M765.33,242.1c6.03,0,10.53,4.5,10.53,10.53c0,5.97-4.5,10.47-10.53,10.47c-5.97,0-10.47-4.5-10.47-10.47
		C754.86,246.6,759.36,242.1,765.33,242.1z M765.33,258.36c3.3,0,5.55-2.49,5.55-5.73c0-3.3-2.25-5.76-5.55-5.76
		c-3.21,0-5.55,2.46-5.55,5.76C759.78,255.87,762.12,258.36,765.33,258.36z"/>
	<path class="st3" d="M788.68,246.81v15.99h-5.04v-15.99h-6.27v-4.41h17.4v4.41H788.68z"/>
	<path class="st3" d="M797.55,242.4h5.04v20.4h-5.04V242.4z"/>
	<path class="st3" d="M816.73,242.1c6.03,0,10.53,4.5,10.53,10.53c0,5.97-4.5,10.47-10.53,10.47c-5.97,0-10.47-4.5-10.47-10.47
		C806.26,246.6,810.76,242.1,816.73,242.1z M816.73,258.36c3.3,0,5.55-2.49,5.55-5.73c0-3.3-2.25-5.76-5.55-5.76
		c-3.21,0-5.55,2.46-5.55,5.76C811.18,255.87,813.52,258.36,816.73,258.36z"/>
	<path class="st3" d="M835.97,250.41v12.39h-5.04v-20.4h4.38l10.29,12.39V242.4h5.04v20.4h-4.38L835.97,250.41z"/>
	<path class="st3" d="M855.78,256.74c1.56,1.02,3.9,2.04,6.45,2.04c2.01,0,3.27-0.66,3.27-1.95c0-0.9-0.66-1.44-2.31-1.86l-3.33-0.9
		c-3.51-0.93-5.19-2.79-5.19-5.67c0-3.48,2.67-6.27,8.16-6.27c2.91,0,5.76,0.81,7.35,1.62l-1.41,4.35c-1.59-0.9-4.05-1.65-6.15-1.65
		c-1.98,0-2.82,0.63-2.82,1.62c0,0.9,0.6,1.26,1.86,1.62l3.63,1.05c3.75,1.08,5.37,2.91,5.37,5.73c0,3.93-3.45,6.63-8.55,6.63
		c-3,0-6.15-1.02-7.5-1.77L855.78,256.74z"/>
	<path class="st3" d="M876.38,257.46c1.89,0,3,1.08,3,2.91c0,1.83-1.11,2.85-3,2.85s-2.94-1.02-2.94-2.85
		C873.44,258.54,874.49,257.46,876.38,257.46z M873.83,242.4h5.07l-0.87,13.29h-3.3L873.83,242.4z"/>
</g>
<g>
	<path class="st4" d="M431.24,257.45c2.52,0,4.29-0.99,5.61-2.01l2.31,3.63c-2.1,1.89-4.8,3.03-8.07,3.03
		c-6.15,0-10.77-4.53-10.77-10.5c0-5.97,4.62-10.5,10.77-10.5c3.27,0,5.97,1.14,8.07,3.03l-2.31,3.63
		c-1.32-1.02-3.09-2.01-5.61-2.01c-3.45,0-5.73,2.61-5.73,5.85S427.79,257.45,431.24,257.45z"/>
	<path class="st4" d="M442.4,261.8v-20.4h5.04v16.02h10.17v4.38H442.4z"/>
	<path class="st4" d="M460.26,241.4h5.04v20.4h-5.04V241.4z"/>
	<path class="st4" d="M479.88,257.45c2.52,0,4.29-0.99,5.61-2.01l2.31,3.63c-2.1,1.89-4.8,3.03-8.07,3.03
		c-6.15,0-10.77-4.53-10.77-10.5c0-5.97,4.62-10.5,10.77-10.5c3.27,0,5.97,1.14,8.07,3.03l-2.31,3.63
		c-1.32-1.02-3.09-2.01-5.61-2.01c-3.45,0-5.73,2.61-5.73,5.85S476.43,257.45,479.88,257.45z"/>
	<path class="st4" d="M491.04,241.4h5.04v8.07h2.13l5.91-8.07h5.16v0.75l-7.02,9.48l7.56,9.57v0.6h-5.73l-5.97-7.95h-2.04v7.95
		h-5.04V241.4z"/>
	<path class="st4" d="M529.5,245.81v15.99h-5.04v-15.99h-6.27v-4.41h17.4v4.41H529.5z"/>
	<path class="st4" d="M547.56,241.1c6.03,0,10.53,4.5,10.53,10.53c0,5.97-4.5,10.47-10.53,10.47c-5.97,0-10.47-4.5-10.47-10.47
		C537.1,245.6,541.6,241.1,547.56,241.1z M547.56,257.36c3.3,0,5.55-2.49,5.55-5.73c0-3.3-2.25-5.76-5.55-5.76
		c-3.21,0-5.55,2.46-5.55,5.76C542.02,254.87,544.36,257.36,547.56,257.36z"/>
	<path class="st4" d="M566.8,241.4h5.52l5.37,15.6l5.55-15.6h5.52l-7.86,20.4h-6.39L566.8,241.4z"/>
	<path class="st4" d="M591.25,241.4h5.04v20.4h-5.04V241.4z"/>
	<path class="st4" d="M601.11,261.8v-20.4h16.38v4.38h-11.55v3.51h9.36v4.23h-9.36v3.9h11.55v4.38H601.11z"/>
	<path class="st4" d="M635.96,253.94l-3.24,7.86h-5.49l-7.71-20.4h5.43l5.49,14.76l3.33-8.19l-2.4-6.57h5.49l4.8,13.92l5.19-13.92
		h5.52l-7.89,20.4h-5.49L635.96,253.94z"/>
	<path class="st4" d="M662.21,241.4h10.14c4.05,0,7.53,2.37,7.53,7.56c0,4.65-3.48,7.44-7.53,7.44h-5.1v5.4h-5.04V241.4z
		 M667.25,245.78v6.24h4.32c1.74,0,3.09-1.23,3.09-3.09c0-1.98-1.35-3.15-3.09-3.15H667.25z"/>
	<path class="st4" d="M683.04,241.4h9.69c4.74,0,7.86,2.16,7.86,6.75c0,3.03-2.01,5.31-4.83,6.12l5.94,6.57v0.96h-5.37l-6.21-7.23
		h-2.04v7.23h-5.04V241.4z M688.08,245.78v5.04h4.56c1.65,0,2.73-1.02,2.73-2.52c0-1.56-1.08-2.52-2.73-2.52H688.08z"/>
	<path class="st4" d="M713.74,241.1c6.03,0,10.53,4.5,10.53,10.53c0,5.97-4.5,10.47-10.53,10.47c-5.97,0-10.47-4.5-10.47-10.47
		C703.27,245.6,707.77,241.1,713.74,241.1z M713.74,257.36c3.3,0,5.55-2.49,5.55-5.73c0-3.3-2.25-5.76-5.55-5.76
		c-3.21,0-5.55,2.46-5.55,5.76C708.19,254.87,710.53,257.36,713.74,257.36z"/>
	<path class="st4" d="M746.12,249.32l-6.15,7.38h-0.87l-6.12-7.38v12.48h-5.04v-20.4h4.35l7.26,8.52l7.26-8.52h4.35v20.4h-5.04
		V249.32z"/>
	<path class="st4" d="M765.33,241.1c6.03,0,10.53,4.5,10.53,10.53c0,5.97-4.5,10.47-10.53,10.47c-5.97,0-10.47-4.5-10.47-10.47
		C754.86,245.6,759.36,241.1,765.33,241.1z M765.33,257.36c3.3,0,5.55-2.49,5.55-5.73c0-3.3-2.25-5.76-5.55-5.76
		c-3.21,0-5.55,2.46-5.55,5.76C759.78,254.87,762.12,257.36,765.33,257.36z"/>
	<path class="st4" d="M788.68,245.81v15.99h-5.04v-15.99h-6.27v-4.41h17.4v4.41H788.68z"/>
	<path class="st4" d="M797.55,241.4h5.04v20.4h-5.04V241.4z"/>
	<path class="st4" d="M816.73,241.1c6.03,0,10.53,4.5,10.53,10.53c0,5.97-4.5,10.47-10.53,10.47c-5.97,0-10.47-4.5-10.47-10.47
		C806.26,245.6,810.76,241.1,816.73,241.1z M816.73,257.36c3.3,0,5.55-2.49,5.55-5.73c0-3.3-2.25-5.76-5.55-5.76
		c-3.21,0-5.55,2.46-5.55,5.76C811.18,254.87,813.52,257.36,816.73,257.36z"/>
	<path class="st4" d="M835.97,249.41v12.39h-5.04v-20.4h4.38l10.29,12.39V241.4h5.04v20.4h-4.38L835.97,249.41z"/>
	<path class="st4" d="M855.78,255.74c1.56,1.02,3.9,2.04,6.45,2.04c2.01,0,3.27-0.66,3.27-1.95c0-0.9-0.66-1.44-2.31-1.86l-3.33-0.9
		c-3.51-0.93-5.19-2.79-5.19-5.67c0-3.48,2.67-6.27,8.16-6.27c2.91,0,5.76,0.81,7.35,1.62l-1.41,4.35c-1.59-0.9-4.05-1.65-6.15-1.65
		c-1.98,0-2.82,0.63-2.82,1.62c0,0.9,0.6,1.26,1.86,1.62l3.63,1.05c3.75,1.08,5.37,2.91,5.37,5.73c0,3.93-3.45,6.63-8.55,6.63
		c-3,0-6.15-1.02-7.5-1.77L855.78,255.74z"/>
	<path class="st4" d="M876.38,256.46c1.89,0,3,1.08,3,2.91c0,1.83-1.11,2.85-3,2.85s-2.94-1.02-2.94-2.85
		C873.44,257.54,874.49,256.46,876.38,256.46z M873.83,241.4h5.07l-0.87,13.29h-3.3L873.83,241.4z"/>
</g>
<g>
	<path class="st4" d="M40.23,211.59c11.26,0,19.17-4.42,25.07-8.98l10.32,16.22c-9.38,8.44-21.45,13.54-36.06,13.54
		c-27.48,0-48.12-20.24-48.12-46.92c0-26.68,20.64-46.92,48.12-46.92c14.61,0,26.68,5.09,36.06,13.54L65.3,168.29
		c-5.9-4.56-13.81-8.98-25.07-8.98c-15.42,0-25.6,11.66-25.6,26.14C14.62,199.93,24.81,211.59,40.23,211.59z"/>
	<path class="st4" d="M127.09,195.91l-34.72-54.42v-1.61h25.07l20.91,35.25l20.91-35.25h25.07v1.61l-34.72,54.29v35.25h-22.52
		V195.91z"/>
	<path class="st4" d="M207.12,139.88h40.35c20.38,0,32.17,7.77,32.17,24.53c0,9.12-4.96,15.68-13.14,19.17
		c12.73,2.68,20.38,9.92,20.38,22.79c0,15.28-11.8,24.67-33.24,24.67h-46.51V139.88z M243.98,175.67c7.91,0,12.47-2.68,12.47-8.85
		c0-6.43-4.29-8.98-12.2-8.98h-14.61v17.83H243.98z M250.28,213.07c8.58,0,12.6-3.22,12.6-9.38c0-6.7-4.83-9.79-13.67-9.79h-19.57
		v19.17H250.28z"/>
	<path class="st4" d="M314.72,231.03v-91.15h73.19v19.57H336.3v15.68h41.82v18.9H336.3v17.43h51.61v19.57H314.72z"/>
	<path class="st4" d="M418.18,139.88h43.3c21.18,0,35.12,9.65,35.12,30.16c0,13.54-8.98,23.73-21.58,27.35l26.54,29.36v4.29h-24
		l-27.75-32.31h-9.12v32.31h-22.52V139.88z M440.7,159.45v22.52h20.38c7.37,0,12.2-4.56,12.2-11.26c0-6.97-4.83-11.26-12.2-11.26
		H440.7z"/>
	<path class="st4" d="M702.37,175.27l-27.48,32.98H671l-27.35-32.98v55.76h-22.52v-91.15h19.44l32.44,38.07l32.44-38.07h19.44v91.15
		h-22.52V175.27z"/>
	<path class="st4" d="M799.97,138.54c26.94,0,47.05,20.11,47.05,47.05c0,26.68-20.11,46.78-47.05,46.78
		c-26.68,0-46.78-20.11-46.78-46.78C753.18,158.64,773.29,138.54,799.97,138.54z M799.97,211.19c14.75,0,24.8-11.13,24.8-25.6
		c0-14.75-10.05-25.74-24.8-25.74c-14.34,0-24.8,10.99-24.8,25.74C775.17,200.06,785.62,211.19,799.97,211.19z"/>
	<path class="st4" d="M897.7,175.67v55.36h-22.52v-91.15h19.57l45.98,55.36v-55.36h22.52v91.15h-19.57L897.7,175.67z"/>
	<path class="st4" d="M996.83,139.88h41.02c26.94,0.13,47.05,16.09,47.05,45.71c0,29.36-20.11,45.44-47.05,45.44h-41.02V139.88z
		 M1019.35,159.45v52.01h17.43c14.75,0,24.8-9.25,24.8-25.87c0-16.89-10.05-26.14-24.8-26.14H1019.35z"/>
	<path class="st4" d="M1134.05,139.88h26.54l34.45,91.15h-22.79l-6.17-16.76h-38.2l-6.3,16.76h-22.79L1134.05,139.88z
		 M1133.51,197.79h27.08l-13.27-35.66L1133.51,197.79z"/>
	<path class="st4" d="M1231.33,195.91l-34.72-54.42v-1.61h25.07l20.91,35.25l20.91-35.25h25.07v1.61l-34.72,54.29v35.25h-22.52
		V195.91z"/>
</g>
</svg>
