<?xml version="1.0" encoding="utf-8"?>
<!-- Generator: Adobe Illustrator 19.2.1, SVG Export Plug-In . SVG Version: 6.00 Build 0)  -->
<svg version="1.1" id="Compatibility" xmlns="http://www.w3.org/2000/svg" xmlns:xlink="http://www.w3.org/1999/xlink" x="0px"
	 y="0px" viewBox="0 0 60 60" style="enable-background:new 0 0 60 60;" xml:space="preserve">
<style type="text/css">
	.Arched_x0020_Green{fill:url(#SVGID_1_);stroke:#FFFFFF;stroke-width:0.25;stroke-miterlimit:1;}
	.st0{fill:#FFFFFF;}
</style>
<linearGradient id="SVGID_1_" gradientUnits="userSpaceOnUse" x1="-20" y1="262.2046" x2="-19.2929" y2="261.4975">
	<stop  offset="0" style="stop-color:#1EAB4B"/>
	<stop  offset="0.9831" style="stop-color:#19361A"/>
</linearGradient>
<g>
	<path class="st0" d="M3.9,22c0.3,1.1,0.8,2.1,1.3,3.1l-1.6,2c-0.5,0.7-0.5,1.6,0.1,2.2L6.5,32c0.6,0.6,1.5,0.6,2.2,0.1l2-1.6
		c1,0.6,2.1,1,3.2,1.4l0.3,2.5c0.1,0.8,0.8,1.4,1.6,1.4h3.8c0.8,0,1.5-0.6,1.6-1.4l0.3-2.5c1.2-0.3,2.4-0.8,3.5-1.4l1.9,1.5
		c0.7,0.5,1.6,0.5,2.2-0.1l2.7-2.7c0.6-0.6,0.6-1.5,0.1-2.2l-1.5-1.9c0.6-1.1,1.1-2.2,1.4-3.4l2.3-0.3c0.8-0.1,1.4-0.8,1.4-1.6v-3.8
		c0-0.8-0.6-1.5-1.4-1.6l-2.3-0.3c-0.3-1.2-0.8-2.3-1.4-3.4l1.4-1.8c0.5-0.7,0.5-1.6-0.1-2.2l-2.7-2.7c-0.6-0.6-1.5-0.6-2.2-0.1
		l-1.7,1.4c-1.1-0.7-2.3-1.1-3.5-1.5l-0.3-2.2c-0.1-0.8-0.8-1.4-1.6-1.4h-3.8c-0.8,0-1.5,0.6-1.6,1.4L14.1,4
		c-1.3,0.3-2.5,0.9-3.6,1.5L8.7,4.1C8,3.6,7.1,3.6,6.5,4.2L3.8,6.9C3.2,7.5,3.2,8.4,3.7,9.1L5.1,11c-0.6,1.1-1,2.2-1.3,3.4l-2.4,0.3
		C0.6,14.7,0,15.4,0,16.2v3.8c0,0.8,0.6,1.5,1.4,1.6L3.9,22z M17.9,11.6c3.5,0,6.4,2.9,6.4,6.4c0,3.5-2.9,6.4-6.4,6.4
		s-6.4-2.9-6.4-6.4C11.5,14.4,14.4,11.6,17.9,11.6L17.9,11.6z M17.9,11.6"/>
	<path class="st0" d="M55.8,22.9l-2-1.7c-0.6-0.5-1.5-0.5-2.1,0.1l-1.1,1c-0.9-0.5-2-0.8-3-1l-0.3-1.5c-0.2-0.8-0.9-1.4-1.7-1.3
		l-2.6,0.2c-0.8,0.1-1.4,0.7-1.5,1.6l-0.1,1.6c-1,0.4-2,0.9-2.9,1.5l-1.3-0.9c-0.7-0.5-1.6-0.3-2.1,0.3l-1.7,2
		c-0.5,0.6-0.5,1.5,0.1,2.1l1.2,1.2c-0.4,0.9-0.7,1.9-0.9,2.9l-1.7,0.3c-0.8,0.2-1.4,0.9-1.3,1.7l0.2,2.6c0.1,0.8,0.7,1.4,1.6,1.5
		l1.8,0.1c0.3,0.9,0.8,1.7,1.3,2.4l-1,1.5c-0.5,0.7-0.3,1.6,0.3,2.1l2,1.7c0.6,0.5,1.5,0.5,2.1-0.1l1.3-1.2c0.9,0.4,1.8,0.7,2.7,0.9
		l0.4,1.8c0.2,0.8,0.9,1.4,1.7,1.3l2.6-0.2c0.8-0.1,1.4-0.7,1.5-1.6l0.1-1.8c1-0.3,1.9-0.8,2.7-1.4l1.5,1c0.7,0.5,1.6,0.3,2.1-0.3
		l1.7-2c0.5-0.6,0.5-1.5-0.1-2.1l-1.2-1.2c0.4-0.9,0.7-1.9,0.9-2.9l1.6-0.3c0.8-0.2,1.4-0.9,1.3-1.7l-0.2-2.6
		c-0.1-0.8-0.7-1.4-1.6-1.5L56.6,29c-0.3-0.9-0.8-1.8-1.3-2.7l0.9-1.3C56.6,24.4,56.5,23.5,55.8,22.9L55.8,22.9z M45.9,38.2
		c-2.9,0.2-5.4-1.9-5.6-4.7c-0.2-2.9,1.9-5.4,4.7-5.6c2.9-0.2,5.4,1.9,5.6,4.7C50.9,35.5,48.7,38,45.9,38.2L45.9,38.2z M45.9,38.2"
		/>
	<path class="st0" d="M13.2,45.3c-0.8,0.1-1.4,0.8-1.4,1.6l0,1.6c0,0.8,0.6,1.5,1.4,1.6l1.2,0.2c0.2,0.7,0.5,1.4,0.8,2.1l-0.8,1
		c-0.5,0.6-0.5,1.6,0.1,2.1l1.1,1.2c0.6,0.6,1.5,0.7,2.1,0.1l1-0.7c0.7,0.4,1.4,0.7,2.1,0.9l0.1,1.2c0.1,0.8,0.8,1.4,1.6,1.4l1.6,0
		c0.8,0,1.5-0.6,1.6-1.4l0.1-1.2c0.8-0.2,1.6-0.5,2.3-0.9l0.9,0.7c0.6,0.5,1.6,0.5,2.1-0.1l1.2-1.1c0.6-0.6,0.6-1.5,0.1-2.1L32,52.7
		c0.4-0.7,0.8-1.5,1-2.3l1.1-0.1c0.8-0.1,1.4-0.8,1.4-1.6l0-1.6c0-0.8-0.6-1.5-1.4-1.6l-1-0.1c-0.2-0.8-0.5-1.5-0.9-2.3l0.7-0.8
		c0.5-0.6,0.5-1.6-0.1-2.1L31.6,39c-0.6-0.6-1.5-0.7-2.1-0.1l-0.8,0.6c-0.7-0.4-1.5-0.8-2.3-1l-0.1-1c-0.1-0.8-0.8-1.4-1.6-1.4
		L23,36c-0.8,0-1.5,0.6-1.6,1.4l-0.1,1c-0.8,0.2-1.7,0.6-2.4,1L18,38.7c-0.6-0.5-1.6-0.5-2.1,0.1l-1.2,1.1c-0.6,0.6-0.6,1.5-0.1,2.1
		l0.7,0.9c-0.4,0.7-0.7,1.5-0.9,2.3L13.2,45.3z M23.7,43.5c2.3,0,4.2,2,4.2,4.3c0,2.3-2,4.2-4.3,4.2c-2.3,0-4.2-2-4.2-4.3
		C19.4,45.3,21.4,43.5,23.7,43.5L23.7,43.5z M23.7,43.5"/>
</g>
</svg>
