<?xml version="1.0" encoding="utf-8"?>
<!-- Generator: Adobe Illustrator 19.2.1, SVG Export Plug-In . SVG Version: 6.00 Build 0)  -->
<svg version="1.1" id="Favorite" xmlns="http://www.w3.org/2000/svg" xmlns:xlink="http://www.w3.org/1999/xlink" x="0px" y="0px"
	 viewBox="0 0 60 60" style="enable-background:new 0 0 60 60;" xml:space="preserve">
<style type="text/css">
	.Arched_x0020_Green{fill:url(#SVGID_1_);stroke:#FFFFFF;stroke-width:0.25;stroke-miterlimit:1;}
	.st0{fill:#4EBB00;}
</style>
<linearGradient id="SVGID_1_" gradientUnits="userSpaceOnUse" x1="-20" y1="262.2046" x2="-19.2929" y2="261.4975">
	<stop  offset="0" style="stop-color:#1EAB4B"/>
	<stop  offset="0.9831" style="stop-color:#19361A"/>
</linearGradient>
<path class="st0" d="M46.5,0h-33C12.7,0,12,0.7,12,1.5V3v9v48l18-13.5L48,60V12V3V1.5C48,0.7,47.3,0,46.5,0z M41.1,22.8L30.8,33.3
	L30,34l-0.8-0.8L18.7,22.6c-1.3-1.4-2.1-3.2-2.1-5.2c0-4.1,3.3-7.5,7.4-7.5c2.3,0,4.5,1.1,5.9,2.9c1.4-1.8,3.5-2.9,5.9-2.9
	c4.1,0,7.4,3.4,7.4,7.5C43.3,19.5,42.5,21.4,41.1,22.8z"/>
</svg>
