<?xml version="1.0" encoding="utf-8"?>
<!-- Generator: Adobe Illustrator 19.2.1, SVG Export Plug-In . SVG Version: 6.00 Build 0)  -->
<svg version="1.1" id="Phone" xmlns="http://www.w3.org/2000/svg" xmlns:xlink="http://www.w3.org/1999/xlink" x="0px" y="0px"
	 viewBox="0 0 60 60" style="enable-background:new 0 0 60 60;" xml:space="preserve">
<style type="text/css">
	.Arched_x0020_Green{fill:url(#SVGID_1_);stroke:#FFFFFF;stroke-width:0.25;stroke-miterlimit:1;}
	.st0{fill:#88E333;}
</style>
<linearGradient id="SVGID_1_" gradientUnits="userSpaceOnUse" x1="-20" y1="262.2046" x2="-19.2929" y2="261.4975">
	<stop  offset="0" style="stop-color:#1EAB4B"/>
	<stop  offset="0.9831" style="stop-color:#19361A"/>
</linearGradient>
<g id="XMLID_64_">
	<g id="XMLID_65_">
		<path id="XMLID_68_" class="st0" d="M7.2,41.1c4.4-3.2,7.4-5.4,8.9-4.7c1.8,0.9,2.8,2.9,4.6,6.5c0.7,1.3,2.1,3.8,3.3,3.3
			c1.4-0.6,5.6-2.9,11.2-8l0,0c0.5-0.5,1-1,1.6-1.5c6.2-6.3,8.9-11.2,9.5-12.7c0.4-1.1-2-2.6-3.3-3.3c-3.6-1.8-5.6-2.8-6.5-4.6
			c-0.7-1.4,1.5-4.5,4.7-8.9s5.2-6.6,7.2-7.1c2.2-0.5,3.2,0.8,7.6,4.7C60.1,8.6,60,12,60,14.7c0,2.6-2.1,8-6.4,15
			c-1.6,2.6-3.9,5.7-6.3,8.7c-1,1.2-2.3,2.7-3.8,4.1c-2,2.1-4.3,4.2-6,5.6c-3,2.4-6.1,4.7-8.7,6.3c-7,4.2-11.6,5.6-14.2,5.6
			c-2.7,0-6.1,0.1-9.8-4.2c-3.8-4.4-5.2-5.3-4.7-7.6C0.6,46.3,2.8,44.3,7.2,41.1z"/>
		<path id="XMLID_67_" class="st0" d="M11.1,11.1C7.5,14.7,5.4,19.4,5,24.4H0C0.8,11.2,11.2,0.8,24.4,0v5
			C19.4,5.4,14.7,7.5,11.1,11.1z"/>
		<path id="XMLID_66_" class="st0" d="M24.4,10.6v5.2c-4,1.4-7.2,4.6-8.6,8.6h-5.2C12.3,17.7,17.7,12.3,24.4,10.6z"/>
	</g>
</g>
<g>
</g>
<g>
</g>
<g>
</g>
<g>
</g>
<g>
</g>
<g>
</g>
</svg>
