<?xml version="1.0" encoding="utf-8"?>
<!-- Generator: Adobe Illustrator 21.1.0, SVG Export Plug-In . SVG Version: 6.00 Build 0)  -->
<svg version="1.1" id="Layer_84" xmlns="http://www.w3.org/2000/svg" xmlns:xlink="http://www.w3.org/1999/xlink" x="0px" y="0px"
	 viewBox="0 0 60 60" style="enable-background:new 0 0 60 60;" xml:space="preserve">
<style type="text/css">
	.st0{fill:#FFFFFF;}
	.st1{fill:#253B80;}
	.st2{fill:#179BD7;}
	.st3{fill:#222D65;}
</style>
<path class="st0" d="M50,19c-0.6-0.7-1.4-1.3-2.3-1.8c0,0.3-0.1,0.6-0.2,0.9c-0.1,0.3-0.1,0.6-0.2,1c0,0-0.1,0-0.1,0
	c0.1-0.3,0.1-0.6,0.2-0.9c0.1-0.3,0.1-0.6,0.2-0.9c-0.4-0.2-0.9-0.4-1.4-0.6c0,0,0,0,0-0.1c0.5,0.2,1.1,0.5,1.6,0.6
	c0.6-4,0-6.8-2.2-9.3C43.1,5.2,38.7,4,33.2,4H17c-1.1,0-2.1,0.8-2.3,2L8,48.6c-0.1,0.8,0.5,1.6,1.4,1.6h9.9l-0.7,4.4
	c-0.1,0.7,0.5,1.4,1.2,1.4h8.4c1,0,1.8-0.7,2-1.7l0.1-0.4l1.6-10l0.1-0.6c0.2-1,1-1.7,2-1.7h1.3c8.1,0,14.5-3.3,16.4-12.9
	C52.5,24.7,52.1,21.4,50,19z"/>
<g>
	<path id="XMLID_4_" class="st1" d="M20.5,52.2l0.9-5.7h-2H9.8l6.7-42.2c0-0.1,0.1-0.2,0.2-0.3c0.1-0.1,0.2-0.1,0.4-0.1h16.2
		c5.4,0,9.1,1.1,11,3.3c0.9,1,1.5,2.1,1.8,3.3s0.3,2.7,0,4.6v0.1v1.2l0.9,0.5c0.8,0.4,1.4,0.9,1.8,1.4c0.8,0.9,1.3,2,1.5,3.3
		c0.2,1.4,0.1,3-0.2,4.8c-0.4,2.1-1.1,4-2,5.5c-0.8,1.4-1.9,2.6-3.1,3.4c-1.2,0.9-2.6,1.5-4.2,1.9c-1.6,0.4-3.3,0.6-5.3,0.6H34
		c-0.9,0-1.8,0.3-2.5,0.9c-0.7,0.6-1.1,1.4-1.3,2.3l-0.1,0.5l-1.6,10.1V52c0,0.1-0.1,0.2-0.1,0.2s-0.1,0.1-0.2,0.1L20.5,52.2
		L20.5,52.2z"/>
	<path id="XMLID_3_" class="st2" d="M47.7,15.2c0,0.3-0.1,0.6-0.2,0.9C45.4,27,38.1,30.8,28.8,30.8H24c-1.1,0-2.1,0.8-2.3,2
		l-2.4,15.4l-0.7,4.4c-0.1,0.7,0.5,1.4,1.2,1.4h8.4c1,0,1.8-0.7,2-1.7l0.1-0.4l1.6-10l0.1-0.6c0.2-1,1-1.7,2-1.7h1.3
		c8.1,0,14.5-3.3,16.4-12.9c0.8-4,0.4-7.3-1.7-9.7C49.4,16.3,48.6,15.7,47.7,15.2z"/>
	<path id="XMLID_2_" class="st3" d="M45.4,14.3c-0.3-0.1-0.7-0.2-1-0.3c-0.3-0.1-0.7-0.1-1.1-0.2c-1.3-0.2-2.7-0.3-4.2-0.3H26.5
		c-0.3,0-0.6,0.1-0.9,0.2c-0.6,0.3-1,0.8-1.1,1.5l-2.7,17.1l-0.1,0.5c0.2-1.1,1.1-2,2.3-2h4.7c9.3,0,16.6-3.8,18.7-14.7
		c0.1-0.3,0.1-0.6,0.2-0.9c-0.5-0.3-1.1-0.5-1.8-0.7C45.8,14.4,45.6,14.4,45.4,14.3z"/>
	<path id="XMLID_1_" class="st1" d="M24.5,15.3c0.1-0.7,0.5-1.2,1.1-1.5c0.3-0.1,0.6-0.2,0.9-0.2h12.7c1.5,0,2.9,0.1,4.2,0.3
		c0.4,0.1,0.7,0.1,1.1,0.2c0.3,0.1,0.7,0.2,1,0.3c0.2,0,0.3,0.1,0.5,0.1c0.6,0.2,1.2,0.5,1.8,0.7c0.6-4,0-6.8-2.2-9.3
		C43.1,3.2,38.7,2,33.2,2H17c-1.1,0-2.1,0.8-2.3,2L8,46.6c-0.1,0.8,0.5,1.6,1.4,1.6h10l2.5-15.9L24.5,15.3z"/>
</g>
</svg>
