<?xml version="1.0" encoding="utf-8"?>
<!-- Generator: Adobe Illustrator 20.0.0, SVG Export Plug-In . SVG Version: 6.00 Build 0)  -->
<svg version="1.1" id="HEX_Resources_Tech" xmlns="http://www.w3.org/2000/svg" xmlns:xlink="http://www.w3.org/1999/xlink" x="0px"
	 y="0px" viewBox="0 0 60 60" style="enable-background:new 0 0 60 60;" xml:space="preserve">
<style type="text/css">
	.Arched_x0020_Green{fill:url(#SVGID_1_);stroke:#FFFFFF;stroke-width:0.25;stroke-miterlimit:1;}
	.st0{fill:#FFFFFF;}
	.st1{opacity:0.25;fill:#FFFFFF;}
</style>
<linearGradient id="SVGID_1_" gradientUnits="userSpaceOnUse" x1="-20" y1="262.2046" x2="-19.2929" y2="261.4975">
	<stop  offset="0" style="stop-color:#1EAB4B"/>
	<stop  offset="0.9831" style="stop-color:#19361A"/>
</linearGradient>
<path class="st0" d="M59.7,28.7L45.9,5.2C45.5,4.5,44.6,4,43.7,4H16.2c-0.9,0-1.7,0.5-2.2,1.2L0.3,28.7c-0.5,0.8-0.5,1.7,0,2.5
	l13.7,23.5c0.4,0.8,1.3,1.2,2.2,1.2h27.5c0.9,0,1.7-0.5,2.2-1.2l13.8-23.5C60.1,30.5,60.1,29.5,59.7,28.7z M44.4,54.7H15.6L1.1,30
	L15.6,5.3h28.9L58.9,30L44.4,54.7z"/>
<polygon class="st1" points="15.6,5.3 1.1,30 15.6,54.7 44.4,54.7 58.9,30 44.4,5.3 "/>
<g>
	<path class="st0" d="M20.9,30v-1.9c0-0.3-0.2-0.5-0.5-0.5h-2.9c-0.3,0-0.5,0.2-0.5,0.5V30c0,0.3,0.2,0.5,0.5,0.5h2.9
		C20.6,30.5,20.9,30.3,20.9,30z"/>
	<path class="st0" d="M22.2,23c0.1,0.1,0.2,0.1,0.3,0.1s0.3-0.1,0.3-0.1l1.1-1.1c0.1-0.1,0.1-0.2,0.1-0.3s-0.1-0.3-0.1-0.3l-2.2-2.2
		c-0.2-0.2-0.5-0.2-0.7,0L20,20.2c-0.2,0.2-0.2,0.5,0,0.7L22.2,23z"/>
	<path class="st0" d="M37.2,23c0.1,0.1,0.2,0.1,0.3,0.1s0.2,0,0.3-0.1l2.2-2.2c0.2-0.2,0.2-0.5,0-0.7L38.9,19
		c-0.2-0.2-0.5-0.2-0.7,0l-2.2,2.2c-0.2,0.2-0.2,0.5,0,0.7L37.2,23z"/>
	<path class="st0" d="M29,20.9H31c0.3,0,0.5-0.2,0.5-0.5v-2.9c0-0.3-0.2-0.5-0.5-0.5H29c-0.3,0-0.5,0.2-0.5,0.5v2.9
		C28.6,20.6,28.8,20.9,29,20.9z"/>
	<path class="st0" d="M42.5,27.6h-2.9c-0.3,0-0.5,0.2-0.5,0.5V30c0,0.3,0.2,0.5,0.5,0.5h2.9c0.3,0,0.5-0.2,0.5-0.5v-1.9
		C43,27.8,42.8,27.6,42.5,27.6z"/>
	<path class="st0" d="M38.8,35.1c-0.2-0.2-0.5-0.2-0.7,0L37,36.2c-0.2,0.2-0.2,0.5,0,0.7l2.2,2.2c0.1,0.1,0.2,0.1,0.3,0.1
		s0.2,0,0.3-0.1L41,38c0.2-0.2,0.2-0.5,0-0.7L38.8,35.1z"/>
	<path class="st0" d="M21.9,35.1c-0.2-0.2-0.5-0.2-0.7,0L19,37.3c-0.2,0.2-0.2,0.5,0,0.7l1.1,1.1c0.1,0.1,0.2,0.1,0.3,0.1
		c0.1,0,0.2,0,0.3-0.1l2.2-2.2c0.1-0.1,0.1-0.2,0.1-0.3c0-0.1-0.1-0.3-0.1-0.3L21.9,35.1z"/>
	<path class="st0" d="M30,21.8c-4.5,0-8.2,3.5-8.2,7.7c0,2.6,1.5,5.1,4.1,6.5v4.7c0,0.7,0.7,1.2,2.1,1.4c0.3,0.5,1.1,0.8,2,0.8
		s1.7-0.3,2-0.8c1.4-0.3,2.1-0.8,2.1-1.4V36c2.5-1.4,4.1-3.9,4.1-6.5C38.2,25.3,34.5,21.8,30,21.8z M30,24c3.3,0,5.9,2.5,5.9,5.5
		c0,2.2-1.4,4.2-3.7,5.1c-0.1,0.1-0.2,0.2-0.3,0.3l-0.5,1.6c0,0,0,0,0,0c-0.2,0.1-0.7,0.2-1.4,0.2s-1.3-0.1-1.4-0.2c0,0,0,0,0,0
		L28,34.9c0-0.1-0.1-0.2-0.3-0.3c-2.2-0.9-3.7-2.9-3.7-5.1C24.1,26.5,26.7,24,30,24z"/>
</g>
<g id="XMLID_828_">
	<polygon id="XMLID_829_" class="st0" points="27.1,30.6 29.8,30.6 28.8,34 32.9,29.4 30.2,29.4 31.2,26 	"/>
</g>
</svg>
