<?xml version="1.0" encoding="utf-8"?>
<!-- Generator: Adobe Illustrator 20.0.0, SVG Export Plug-In . SVG Version: 6.00 Build 0)  -->
<svg version="1.1" id="HEX_Resources_Guides" xmlns="http://www.w3.org/2000/svg" xmlns:xlink="http://www.w3.org/1999/xlink"
	 x="0px" y="0px" viewBox="0 0 60 60" style="enable-background:new 0 0 60 60;" xml:space="preserve">
<style type="text/css">
	.Arched_x0020_Green{fill:url(#SVGID_1_);stroke:#FFFFFF;stroke-width:0.25;stroke-miterlimit:1;}
	.st0{fill:#FFFFFF;}
	.st1{opacity:0.25;fill:#FFFFFF;}
	.st2{fill-rule:evenodd;clip-rule:evenodd;fill:#474747;}
</style>
<linearGradient id="SVGID_1_" gradientUnits="userSpaceOnUse" x1="-20" y1="262.2046" x2="-19.2929" y2="261.4975">
	<stop  offset="0" style="stop-color:#1EAB4B"/>
	<stop  offset="0.9831" style="stop-color:#19361A"/>
</linearGradient>
<path class="st0" d="M59.7,28.7L45.9,5.2C45.5,4.5,44.6,4,43.7,4H16.2c-0.9,0-1.7,0.5-2.2,1.2L0.3,28.7c-0.5,0.8-0.5,1.7,0,2.5
	l13.7,23.5c0.4,0.8,1.3,1.2,2.2,1.2h27.5c0.9,0,1.7-0.5,2.2-1.2l13.8-23.5C60.1,30.5,60.1,29.5,59.7,28.7z M44.4,54.7H15.6L1.1,30
	L15.6,5.3h28.9L58.9,30L44.4,54.7z"/>
<polygon class="st1" points="15.6,5.3 1.1,30 15.6,54.7 44.4,54.7 58.9,30 44.4,5.3 "/>
<g>
	<path class="st2" d="M39,24.4l-6.5,0v-6.5l-12.1,0v24.3H39v-0.3c0.7-0.2,1.3-0.4,1.9-0.8V44H18.5V16h14.3l8.1,8.1v0.8v3.3
		c-0.6-0.3-1.2-0.6-1.9-0.8V24.4z M29.7,26.3h-6.5v-0.9h6.5V26.3z M23.2,22.5h6.5v0.9h-6.5V22.5z M32.3,29.1h-9.1v-0.9h10.4
		C33.1,28.4,32.7,28.7,32.3,29.1z M23.2,31.9v-0.9h7.5c-0.2,0.3-0.3,0.6-0.5,0.9H23.2z M23.2,33.7h6.6c0,0.3-0.1,0.6-0.1,0.9h-6.5
		V33.7z M30.3,37.5h-7.1v-0.9H30C30.1,36.9,30.2,37.2,30.3,37.5z M38.1,34.7v-2.8h-1.9v2.8h-1.9l2.8,3.7l2.8-3.7H38.1z M37.2,40.3
		c-3.1,0-5.6-2.5-5.6-5.6s2.5-5.6,5.6-5.6s5.6,2.5,5.6,5.6S40.3,40.3,37.2,40.3z"/>
</g>
</svg>
