<?xml version="1.0" encoding="utf-8"?>
<!-- Generator: Adobe Illustrator 21.1.0, SVG Export Plug-In . SVG Version: 6.00 Build 0)  -->
<svg version="1.1" id="Label:_Fitment" xmlns="http://www.w3.org/2000/svg" xmlns:xlink="http://www.w3.org/1999/xlink" x="0px"
	 y="0px" viewBox="0 0 60 60" style="enable-background:new 0 0 60 60;" xml:space="preserve">
<style type="text/css">
	.st0{fill:url(#SVGID_1_);}
	.st1{fill:#FFFFFF;}
</style>
<linearGradient id="SVGID_1_" gradientUnits="userSpaceOnUse" x1="30" y1="54.2002" x2="30" y2="5.7998">
	<stop  offset="0" style="stop-color:#4EBB00"/>
	<stop  offset="1" style="stop-color:#88E333"/>
</linearGradient>
<polygon class="st0" points="15.886,54.2 1.68,30 15.886,5.8 44.114,5.8 58.32,30 44.114,54.2 "/>
<path class="st1" d="M59.7,28.7L45.9,5.2C45.5,4.5,44.6,4,43.7,4H16.2c-0.9,0-1.7,0.5-2.2,1.2L0.3,28.7c-0.5,0.8-0.5,1.7,0,2.5
	L14,54.7c0.4,0.8,1.3,1.2,2.2,1.2h27.5c0.9,0,1.7-0.5,2.2-1.2l13.8-23.5C60.1,30.5,60.1,29.5,59.7,28.7z M16.173,53.7L2.26,30
	L16.173,6.3h27.655L57.74,30L43.827,53.7H16.173z"/>
<path class="st1" d="M42.7,16.6H31.8c-0.4,0-0.8,0.4-0.8,0.8v4.3H17.6c-0.6,0-1.1,0.5-1.1,1.1v19.4c0,0.6,0.5,1.1,1.1,1.1H37
	c0.6,0,1.1-0.5,1.1-1.1V29h4.5c0.4,0,0.8-0.4,0.8-0.8V17.4C43.5,16.9,43.1,16.6,42.7,16.6z M18.8,41.1V24H31v2.9l-5.3,5.3L24.5,31
	c-0.1-0.1-0.3-0.2-0.5-0.1c-0.2,0-0.3,0.2-0.3,0.3L22,37.4c0,0.2,0,0.3,0.1,0.5c0.1,0.1,0.2,0.1,0.3,0.1h0.1l6.2-1.7
	c0.2,0,0.3-0.2,0.3-0.3c0-0.2,0-0.3-0.1-0.5l-1.2-1.2L33,29h2.9v12.1H18.8z M41.2,26.8h-7.9v-7.9h7.9V26.8z"/>
</svg>
