<?xml version="1.0" encoding="utf-8"?>
<!-- Generator: Adobe Illustrator 20.0.0, SVG Export Plug-In . SVG Version: 6.00 Build 0)  -->
<svg version="1.1" id="HEX_Blockquote_EXT" xmlns="http://www.w3.org/2000/svg" xmlns:xlink="http://www.w3.org/1999/xlink" x="0px"
	 y="0px" viewBox="0 0 60 60" style="enable-background:new 0 0 60 60;" xml:space="preserve">
<style type="text/css">
	.st0{fill:#FFFFFF;}
	.st1{opacity:0.25;fill:#FFFFFF;}
	.st2{fill-rule:evenodd;clip-rule:evenodd;fill:#666666;}
</style>
<path class="st0" d="M59.7,28.7L45.9,5.2C45.5,4.5,44.6,4,43.7,4H16.2c-0.9,0-1.7,0.5-2.2,1.2L0.3,28.7c-0.5,0.8-0.5,1.7,0,2.5
	l13.7,23.5c0.4,0.8,1.3,1.2,2.2,1.2h27.5c0.9,0,1.7-0.5,2.2-1.2l13.8-23.5C60.1,30.5,60.1,29.5,59.7,28.7z M44.4,54.7H15.6L1.1,30
	L15.6,5.3h28.9L58.9,30L44.4,54.7z"/>
<polygon class="st1" points="15.6,5.3 1.1,30 15.6,54.7 44.4,54.7 58.9,30 44.4,5.3 "/>
<circle class="st0" cx="30" cy="29.9" r="11.1"/>
<path class="st2" d="M23.1,31.8c0,0,0.1,0,0.2,0c0,0,0.1,0,0.2,0v0c0.2,0.1,0.4,0.2,0.3,0.5c-0.2,0.1-0.4-0.1-0.5-0.2
	C22.9,32,22.9,31.9,23.1,31.8z M25.2,28.9c0.1,0,0,0.1-0.1,0.1h0c0,0,0,0,0,0C25.1,28.9,25.2,28.9,25.2,28.9z M27.4,28.1
	c0.3-0.1,0.9,0.2,0.3,0.5c0.2-0.2-0.1-0.1-0.2-0.1C27.2,28.2,27.2,28.1,27.4,28.1z M33.4,26.5c0.2,0,0.7,0.2,0.7,0.5
	c-0.2,0.4-0.8,0.3-0.6-0.2C33.2,26.6,33.3,26.5,33.4,26.5z M27.4,24c0.7,0,0.6,1.5,0,1.7c-0.5-0.5,0.2-1.1-0.1-1.7
	C27.3,24.1,27.4,24,27.4,24z M29.6,22.8c0.4-0.1,0.9,0.1,1,0.6c0.3,1.2-0.9,2-1.3,2.9c-1.1-0.3,0.1-1.5-0.4-2.1
	C28.1,23.6,28.9,22.9,29.6,22.8z M28.7,22.6c0.1,0,0.1,0,0.1,0c0.3,0,0.2,0.3,0,0.4c-0.6,0.6-0.7-0.3-0.2-0.4
	C28.7,22.7,28.7,22.7,28.7,22.6z M25.7,21c1.4,0.5-0.7,2,0.4,2.6c0.1,0,0.2,0,0.3,0.1c0,0,0,0,0,0c0.5,0.2,0.6,0.9-0.2,0.9
	c-1.1-0.3-1.5,2-0.5,1.8c0.4-1.1,1.6-0.6,1.8,0.3c0.6,1-0.7,1-1.1,1.4c0.5,0.8-0.8,0.4-1.3,0.8c-0.9,0.2-1.2,1.6-2,1.6
	c0-1.4-2.4-0.9-2,0.4c0.5,0.4,1.2,0.8,1.1,1.6c0,1.8,2.1,1.2,3.1,2.1c1.2,0.5,2,1.6,3,2.3c0.9-0.3,2.8,0.6,1.9,1.6
	c-0.5,0.4-1.6,0.7-1.6,1v0c-1.4,0.1-1,0.2-1.4,0.3c-0.8-0.2-1.7-0.6-2.4-1c0,0,0,0,0,0c-0.3-0.9-1.2-1.5-1.8-2.3
	c-0.3-0.3-0.4-0.7-0.3-1c0,0,0,0,0,0c0-0.6,0.2-1.2-0.2-1.8c-0.7-1.1-1.5-2.2-2-3.4c0-1.3-0.1-2.6,0.3-3.8
	C21.7,24.5,24.1,22.4,25.7,21z M30,19.7c4.1,0,7.6,2.4,9.3,5.8c0,0,0,0,0,0c0,0.1,0,0.2,0,0.4c0.1,0.1,0.2,0.2,0.3,0.3
	c0.2,0.6,0.4,1.2,0.5,1.9c-0.1,0.1-0.2,0.2-0.4,0.2c-1.1-0.8,0,0.9,0.6,0.6c0.1,0.4,0.1,0.8,0.1,1.2c0,2.6-0.9,4.9-2.5,6.7
	c0-0.1,0-0.2,0-0.3c0.7-0.9,0.6-2.6-0.9-2.4c-0.8,0.6-1.8,1.4-2.7,0.5c-1-0.9-0.5-2.3,0-3.3c0.5-0.8,0.7-1.9,1.7-2.3
	c0.9,0.2,2.1,0.2,2.4-1c0.3-0.5,0.1-0.7-0.2-0.8c0,0,0,0-0.1,0c-0.3-0.1-0.7-0.2-0.8-0.7c0.3-0.5-0.3-1.5-0.5-0.6
	c0.5,0.5,0.6,2.2-0.6,1.6c0.4,0.7-1.5,0.2-1.1,1.2c0.3,1-1.7,1.6-1.2,0.3c0.3-1-0.2-2.4,0.7-3c0,0,0.1-0.2,0,0l0.1-0.1
	c0.7-0.5-0.9-2-0.8-1.1c0.7,0.4,0.3,1.1-0.4,0.8c-0.7-0.4-1-2.4,0-2.2c0.8,0.1,0-0.7-0.3-1.1c0,0.2-0.1,0-0.1-0.1l-0.1-0.1
	c0.1-1.2-1.9-0.2-2.3-1.2c-1.3-0.6-2.7-0.7-4.1-0.6c0.5-0.2,1.1-0.3,1.7-0.4l0.2,0c0.2,0,0.3,0,0.5-0.1C29.4,19.7,29.7,19.7,30,19.7
	z M30,18.5c-6.4,0-11.5,5.1-11.5,11.5c0,6.3,5.1,11.5,11.5,11.5S41.5,36.3,41.5,30C41.5,23.6,36.4,18.5,30,18.5z"/>
</svg>
