<?xml version="1.0" encoding="utf-8"?>
<!-- Generator: Adobe Illustrator 19.2.1, SVG Export Plug-In . SVG Version: 6.00 Build 0)  -->
<svg version="1.1" id="Cart" xmlns="http://www.w3.org/2000/svg" xmlns:xlink="http://www.w3.org/1999/xlink" x="0px" y="0px"
	 viewBox="0 0 60 60" style="enable-background:new 0 0 60 60;" xml:space="preserve">
<style type="text/css">
	.Arched_x0020_Green{fill:url(#SVGID_1_);stroke:#FFFFFF;stroke-width:0.25;stroke-miterlimit:1;}
	.st0{fill-rule:evenodd;clip-rule:evenodd;fill:#999999;}
</style>
<linearGradient id="SVGID_1_" gradientUnits="userSpaceOnUse" x1="-20" y1="262.2046" x2="-19.2929" y2="261.4975">
	<stop  offset="0" style="stop-color:#1EAB4B"/>
	<stop  offset="0.9831" style="stop-color:#19361A"/>
</linearGradient>
<path class="st0" d="M52.8,44.4c2.6,0,4.8,2.2,4.8,4.8S55.4,54,52.8,54S48,51.8,48,49.2S50.2,44.4,52.8,44.4z M24,44.4
	c2.6,0,4.8,2.2,4.8,4.8S26.6,54,24,54s-4.8-2.2-4.8-4.8S21.4,44.4,24,44.4z M57.6,37.2c1.3,0,2.4,1.1,2.4,2.4S58.9,42,57.6,42H21
	c-1.1,0-1.9-0.7-2.3-1.6L8.5,10.8H2.4C1.1,10.8,0,9.7,0,8.4S1.1,6,2.4,6h7.8c1.1,0,1.9,0.7,2.3,1.6l10.2,29.6H57.6z M57.7,34.8H27.3
	c-1,0-1.9-0.7-2.2-1.6l-8.2-21.6c-0.1-0.2-0.1-0.5-0.1-0.8c0-1.3,1-2.4,2.3-2.4h38.5c1.3,0,2.3,1.1,2.3,2.4v21.6
	C60,33.7,59,34.8,57.7,34.8z"/>
</svg>
