<?xml version="1.0" encoding="utf-8"?>
<!-- Generator: Adobe Illustrator 20.0.0, SVG Export Plug-In . SVG Version: 6.00 Build 0)  -->
<svg version="1.1" id="HEX_Resources_Headlight_Junkies"
	 xmlns="http://www.w3.org/2000/svg" xmlns:xlink="http://www.w3.org/1999/xlink" x="0px" y="0px" viewBox="0 0 60 60"
	 style="enable-background:new 0 0 60 60;" xml:space="preserve">
<style type="text/css">
	.Arched_x0020_Green{fill:url(#SVGID_1_);stroke:#FFFFFF;stroke-width:0.25;stroke-miterlimit:1;}
	.st0{fill:#FFFFFF;}
	.st1{opacity:0.25;fill:#FFFFFF;}
	.st2{fill:#474747;}
</style>
<linearGradient id="SVGID_1_" gradientUnits="userSpaceOnUse" x1="-20" y1="262.2046" x2="-19.2929" y2="261.4975">
	<stop  offset="0" style="stop-color:#1EAB4B"/>
	<stop  offset="0.9831" style="stop-color:#19361A"/>
</linearGradient>
<path class="st0" d="M59.7,28.7L45.9,5.2C45.5,4.5,44.6,4,43.7,4H16.2c-0.9,0-1.7,0.5-2.2,1.2L0.3,28.7c-0.5,0.8-0.5,1.7,0,2.5
	l13.7,23.5c0.4,0.8,1.3,1.2,2.2,1.2h27.5c0.9,0,1.7-0.5,2.2-1.2l13.8-23.5C60.1,30.5,60.1,29.5,59.7,28.7z M44.4,54.7H15.6L1.1,30
	L15.6,5.3h28.9L58.9,30L44.4,54.7z"/>
<polygon class="st1" points="15.6,5.3 1.1,30 15.6,54.7 44.4,54.7 58.9,30 44.4,5.3 "/>
<g>
	<g>
		<path class="st2" d="M40.5,30.2v6.4c0,0.3,0,0.7-0.6,0.7h-7.4v2.5H40c1.8,0,3-1,3-2.9v-6.7H40.5z"/>
	</g>
	<g>
		<path class="st2" d="M22.8,31.5c-0.2,0.6-0.9,1.1-1.8,1.6c3.1,0,3.8-0.3,5.6-1.8H34c1.6,0,2.3-0.7,2.3-2.3v-6.6
			c0-1.6-0.7-2.3-2.3-2.3H22.7c-1.7,0-2.4,0.7-2.4,2.3v7.2C20.3,31,21.2,31.5,22.8,31.5z"/>
	</g>
	<g>
		<path class="st2" d="M35.2,34.7c1.2,0.9,1.8,1.9,3.9,1.9c-0.6-0.3-1.1-1.7-1.3-2.1c1.1,0,1.7-0.3,1.7-1.1v-4.5
			c0-1-0.5-1.4-1.7-1.4h-0.8v2.4c0,1.6-0.7,2.3-2.3,2.3l-6.7,0v1.2c0,0.1,0,0.2,0,0.3v0.2h-8.7v-3.5H17v9.6h2.5v-3.6h8.6v3.6h2.5
			v-5.1L35.2,34.7z"/>
	</g>
</g>
</svg>
