<?xml version="1.0" encoding="utf-8"?>
<!-- Generator: Adobe Illustrator 19.2.1, SVG Export Plug-In . SVG Version: 6.00 Build 0)  -->
<svg version="1.1" id="YT" xmlns="http://www.w3.org/2000/svg" xmlns:xlink="http://www.w3.org/1999/xlink" x="0px" y="0px"
	 viewBox="0 0 60 60" style="enable-background:new 0 0 60 60;" xml:space="preserve">
<style type="text/css">
	.Arched_x0020_Green{fill:url(#SVGID_1_);stroke:#FFFFFF;stroke-width:0.25;stroke-miterlimit:1;}
	.st0{fill:#757575;}
</style>
<linearGradient id="SVGID_1_" gradientUnits="userSpaceOnUse" x1="-20" y1="262.2046" x2="-19.2929" y2="261.4975">
	<stop  offset="0" style="stop-color:#1EAB4B"/>
	<stop  offset="0.9831" style="stop-color:#19361A"/>
</linearGradient>
<g id="XMLID_55_">
	<g id="XMLID_56_">
		<path id="XMLID_57_" class="st0" d="M59.6,17.4c0-5.3-3.9-9.5-8.7-9.5c-6.5-0.3-13.1-0.4-19.9-0.4c-0.4,0-0.7,0-1.1,0
			c-0.4,0-0.7,0-1.1,0c-6.8,0-13.4,0.1-19.9,0.4c-4.8,0-8.7,4.3-8.7,9.5C0.1,21.6,0,25.8,0,30c0,4.2,0.1,8.3,0.4,12.5
			c0,5.3,3.9,9.6,8.7,9.6c6.8,0.3,13.8,0.5,20.9,0.4c7.1,0,14.1-0.1,20.9-0.4c4.8,0,8.7-4.3,8.7-9.6C59.9,38.3,60,34.1,60,30
			C60,25.8,59.9,21.6,59.6,17.4z M24.3,41.5v-23l17,11.5L24.3,41.5z"/>
	</g>
</g>
<g>
</g>
<g>
</g>
<g>
</g>
<g>
</g>
<g>
</g>
<g>
</g>
</svg>
