<?xml version="1.0" encoding="utf-8"?>
<!-- Generator: Adobe Illustrator 23.0.3, SVG Export Plug-In . SVG Version: 6.00 Build 0)  -->
<svg version="1.1" id="My_Account" xmlns="http://www.w3.org/2000/svg" xmlns:xlink="http://www.w3.org/1999/xlink" x="0px" y="0px"
	 viewBox="0 0 60 60" style="enable-background:new 0 0 60 60;" xml:space="preserve">
<style type="text/css">
	.st0{fill:#474747;}
	.st1{fill:#88E333;}
	.st2{fill:#999999;}
</style>
<path class="st0" d="M1,59.8v-13h3.7v9.8h6.2v3.2H1z M18.4,46.7c3.8,0,6.7,2.9,6.7,6.7c0,3.8-2.9,6.7-6.7,6.7
	c-3.8,0-6.7-2.9-6.7-6.7C11.7,49.5,14.6,46.7,18.4,46.7z M18.4,56.6c1.8,0,3.1-1.4,3.1-3.2c0-1.8-1.3-3.2-3.1-3.2
	c-1.8,0-3.1,1.4-3.1,3.2C15.3,55.1,16.6,56.6,18.4,56.6z M38.1,58.2c-1.2,1-3.6,1.8-5.6,1.8c-3.8,0-6.9-2.5-6.9-6.7
	c0-4.2,3.1-6.7,6.9-6.7c2.1,0,3.8,0.7,5.1,1.7L36,51.1c-0.9-0.7-2-1.1-3.4-1.1c-1.8,0-3.2,1.2-3.2,3.3c0,2.1,1.4,3.3,3.4,3.3
	c0.7,0,1.4-0.2,2.1-0.4v-1.5h-2.9v-2.6h6.2V58.2z M39.6,46.8h3.7v13h-3.7V46.8z M49.9,52.7v7.1h-3.7v-13h3.2l5.9,7.1v-7.1H59v13
	h-3.2L49.9,52.7z"/>
<path class="st1" d="M0,57.8v-13h3.7v9.8h6.2v3.2H0z M17.4,44.7c3.8,0,6.7,2.9,6.7,6.7c0,3.8-2.9,6.7-6.7,6.7
	c-3.8,0-6.7-2.9-6.7-6.7C10.7,47.5,13.6,44.7,17.4,44.7z M17.4,54.6c1.8,0,3.1-1.4,3.1-3.2c0-1.8-1.3-3.2-3.1-3.2
	c-1.8,0-3.1,1.4-3.1,3.2C14.3,53.1,15.6,54.6,17.4,54.6z M38.1,56.2c-1.2,1-3.6,1.8-5.6,1.8c-3.8,0-6.9-2.5-6.9-6.7
	c0-4.2,3.1-6.7,6.9-6.7c2.1,0,3.8,0.7,5.1,1.7L36,49.1c-0.9-0.7-2-1.1-3.4-1.1c-1.8,0-3.2,1.2-3.2,3.3c0,2.1,1.4,3.3,3.4,3.3
	c0.7,0,1.4-0.2,2.1-0.4v-1.5h-2.9v-2.6h6.2V56.2z M40.6,44.8h3.7v13h-3.7V44.8z M50.9,50.7v7.1h-3.7v-13h3.2l5.9,7.1v-7.1H60v13
	h-3.2L50.9,50.7z"/>
<path class="st2" d="M53.3,42.7l-0.7-3.3c-0.6-0.6-1.2-1.1-2-1.5c-3.8-2-7.7-3.6-11.6-5.2c-0.3-0.1-0.6-0.3-0.8-0.6
	c-0.3-0.7-0.5-1.5-0.8-2.3c-0.1-0.5-0.3-1-0.8-1.2c-0.1-0.1-0.3-0.3-0.3-0.5c0-1.8-0.4-3.7,0.9-5.2c0-0.1,0.1-0.1,0.1-0.2
	c0.7-1.6,0.8-3.4,1.8-4.8c0,0,0-0.1,0-0.1c0.1-1.1,0.2-2.2,0.3-3.3c0-0.1-0.1-0.4-0.2-0.4c-0.5-0.2-0.5-0.6-0.5-1.1
	c0-2.2,0-2.5,0-4.7c0-1.3-0.4-2.4-1.3-3.2c-1.1-1-2.1-1.9-3.2-2.9c-0.5-0.5-0.6-0.8-0.1-1.3c0.2-0.2,0.5-0.4,0.7-0.6
	c-0.1-0.1-0.1-0.2-0.2-0.3c-0.3,0-0.7,0-1,0c-1.2,0.2-2.4,0.4-3.6,0.7c-2.2,0.5-4.4,1.3-6.2,2.8c-1.2,1.1-2.2,2.3-2.4,4
	c-0.1,0.9-0.1,1.8-0.1,2.7c0,1.5,0,1.1,0,2.6c0,0.2-0.1,0.6-0.3,0.7c-0.6,0.2-0.6,0.6-0.5,1.1c0.1,0.3,0,0.7,0.1,1
	c0.2,0.9,0.4,1.9,0.7,2.8c0.2,0.7,0.6,1.3,0.7,2c0.2,1.4,0.7,2.6,1.6,3.6c0.1,0.2,0.3,0.5,0.2,0.7c-0.1,1.1-0.2,2.1-0.3,3.2
	c0,0.2-0.2,0.5-0.4,0.6c-0.7,0.1-0.8,0.7-1,1.2c-0.2,0.7-0.4,1.5-0.7,2.2c-0.1,0.2-0.3,0.4-0.5,0.5c-1.2,0.5-2.5,1.1-3.7,1.6
	c-1.3,0.6-2.6,1.1-3.9,1.7c-1.3,0.7-2.6,1.4-3.9,2.1c-0.8,0.4-1.5,0.9-2.1,1.5l-0.7,3.2H53.3z"/>
</svg>
