<?xml version="1.0" encoding="utf-8"?>
<!-- Generator: Adobe Illustrator 23.0.3, SVG Export Plug-In . SVG Version: 6.00 Build 0)  -->
<svg version="1.1" id="My_Account" xmlns="http://www.w3.org/2000/svg" xmlns:xlink="http://www.w3.org/1999/xlink" x="0px" y="0px"
	 viewBox="0 0 60 60" style="enable-background:new 0 0 60 60;" xml:space="preserve">
<style type="text/css">
	.st0{fill:#88E333;}
	.st1{fill:url(#SVGID_1_);}
</style>
<g>
	<g>
		<polygon class="st0" points="31.7,43.8 26.7,43.8 26.7,57.9 35.8,46.6 		"/>
		<path class="st0" d="M42.1,11c1.2,0.9,2.4,2.7,2.4,6.6v1.1L59.4,3.1l-27,36.3L51,50.9l9-48.8L42.1,11z"/>
	</g>
	<linearGradient id="SVGID_1_" gradientUnits="userSpaceOnUse" x1="0" y1="26.2939" x2="42.1482" y2="26.2939">
		<stop  offset="0" style="stop-color:#88E333"/>
		<stop  offset="1" style="stop-color:#4EBB00"/>
	</linearGradient>
	<path class="st1" d="M21,29L0.6,13.6c0.5-0.5,1.1-0.9,1.9-0.9h18.5h18.5c0.8,0,1.4,0.3,1.9,0.9L21,29L21,29L21,29z M21.1,31.6
		L21.1,31.6L21.1,31.6l-7.8-5.8L5,34.2l6.4-9.8L0,15.7v24.1h21.1h7.3l6.3-8.2l-5.8-5.9L21.1,31.6z M30.7,24.4l4.4,6.7l7.1-9.3v-6
		L30.7,24.4z"/>
</g>
</svg>
