<?xml version="1.0" encoding="utf-8"?>
<!-- Generator: Adobe Illustrator 19.2.1, SVG Export Plug-In . SVG Version: 6.00 Build 0)  -->
<svg version="1.1" id="Contact_HEX_Map" xmlns="http://www.w3.org/2000/svg" xmlns:xlink="http://www.w3.org/1999/xlink" x="0px"
	 y="0px" viewBox="0 0 60 60" style="enable-background:new 0 0 60 60;" xml:space="preserve">
<style type="text/css">
	.Arched_x0020_Green{fill:url(#SVGID_1_);stroke:#FFFFFF;stroke-width:0.25;stroke-miterlimit:1;}
	.st0{fill:#FFFFFF;}
	.st1{opacity:0.25;fill:#474747;}
</style>
<linearGradient id="SVGID_1_" gradientUnits="userSpaceOnUse" x1="-20" y1="262.2046" x2="-19.2929" y2="261.4975">
	<stop  offset="0" style="stop-color:#1EAB4B"/>
	<stop  offset="0.9831" style="stop-color:#19361A"/>
</linearGradient>
<path class="st0" d="M59.7,28.7L45.9,5.2C45.5,4.5,44.6,4,43.7,4H16.2c-0.9,0-1.7,0.5-2.2,1.2L0.3,28.7c-0.5,0.8-0.5,1.7,0,2.5
	l13.7,23.5c0.4,0.8,1.3,1.2,2.2,1.2h27.5c0.9,0,1.7-0.5,2.2-1.2l13.8-23.5C60.1,30.5,60.1,29.5,59.7,28.7z M44.4,54.7H15.6L1.1,30
	L15.6,5.3h28.9L58.9,30L44.4,54.7z"/>
<polygon class="st1" points="15.6,5.3 1.1,30 15.6,54.7 44.4,54.7 58.9,30 44.4,5.3 "/>
<g id="XMLID_3516_">
	<path class="st0" d="M28.8,27h-8c-0.3,0-0.6,0.2-0.7,0.5l-1.5,5.3L29.4,34l0.8-4C29.7,29,29.2,28,28.8,27L28.8,27z M28.8,27"/>
	<path class="st0" d="M38.9,35l3.2,0.4l-1-3.3c-0.1,0.2-0.3,0.4-0.4,0.6C40.1,33.5,39.5,34.4,38.9,35L38.9,35z M38.9,35"/>
	<path class="st0" d="M31.9,32.6l-0.3,1.7l1.7,0.2C32.9,33.9,32.4,33.3,31.9,32.6C31.9,32.6,31.9,32.6,31.9,32.6L31.9,32.6z
		 M31.9,32.6"/>
	<path class="st0" d="M16.5,40c-0.1,0.2,0,0.5,0.1,0.6c0.1,0.2,0.4,0.3,0.6,0.3h10.7l1-4.8L18,34.9L16.5,40z M16.5,40"/>
	<path class="st0" d="M42.8,37.6l-11.7-1.3l-1,4.6h12.6c0.4,0,0.7-0.3,0.7-0.7c0-0.1,0-0.2,0-0.2L42.8,37.6z M42.8,37.6"/>
	<path id="XMLID_3518_" class="st0" d="M36.1,34.9c0.1,0.1,0.2,0.1,0.3,0.1c0.1,0,0.2,0,0.3-0.1c0.7-0.7,2-2.1,3.3-4
		c1.6-2.3,3.6-5.7,3.6-8.7c0-3.9-3.2-7.2-7.2-7.2c-3.9,0-7.2,3.2-7.2,7.2c0,3,2,6.4,3.6,8.7C34.1,32.8,35.4,34.2,36.1,34.9
		L36.1,34.9z M36.3,17.8c2.4,0,4.4,2,4.4,4.4c0,2.4-2,4.4-4.4,4.4c-2.4,0-4.4-2-4.4-4.4C32,19.7,33.9,17.8,36.3,17.8L36.3,17.8z
		 M36.3,17.8"/>
</g>
<g>
</g>
<g>
</g>
<g>
</g>
<g>
</g>
<g>
</g>
<g>
</g>
</svg>
