<?xml version="1.0" encoding="utf-8"?>
<!-- Generator: Adobe Illustrator 19.2.1, SVG Export Plug-In . SVG Version: 6.00 Build 0)  -->
<svg version="1.1" id="Customer_Guides" xmlns="http://www.w3.org/2000/svg" xmlns:xlink="http://www.w3.org/1999/xlink" x="0px"
	 y="0px" viewBox="0 0 60 60" style="enable-background:new 0 0 60 60;" xml:space="preserve">
<style type="text/css">
	.st0{fill:#FFFFFF;}
</style>
<g>
	<path class="st0" d="M45,20H33.3V8.3H11.7v43.4H45v-0.6c1.2-0.3,2.3-0.8,3.3-1.3V55h-40V5h25.5l14.5,14.5v1.4v5.8
		c-1-0.6-2.2-1.1-3.3-1.3V20z M28.3,23.3H16.7v-1.7h11.7V23.3z M16.7,16.7h11.7v1.7H16.7V16.7z M32.8,28.3H16.7v-1.7h18.5
		C34.3,27.2,33.6,27.7,32.8,28.3z M16.7,33.3v-1.7h13.4c-0.3,0.5-0.6,1.1-0.8,1.7H16.7z M16.7,36.7h11.8c-0.1,0.6-0.1,1.1-0.1,1.7
		H16.7V36.7z M29.3,43.3H16.7v-1.7h12.1C28.9,42.2,29.1,42.8,29.3,43.3z M43.3,38.3v-5H40v5h-3.3l5,6.7l5-6.7H43.3z M41.7,48.3
		c-5.5,0-10-4.5-10-10s4.5-10,10-10s10,4.5,10,10S47.2,48.3,41.7,48.3z"/>
</g>
</svg>
