<?xml version="1.0" encoding="utf-8"?>
<!-- Generator: Adobe Illustrator 19.2.1, SVG Export Plug-In . SVG Version: 6.00 Build 0)  -->
<svg version="1.1" id="Arrow_Right_Carousel" xmlns="http://www.w3.org/2000/svg" xmlns:xlink="http://www.w3.org/1999/xlink"
	 x="0px" y="0px" viewBox="0 0 60 60" style="enable-background:new 0 0 60 60;" xml:space="preserve">
<style type="text/css">
	.Arched_x0020_Green{fill:url(#SVGID_1_);stroke:#FFFFFF;stroke-width:0.25;stroke-miterlimit:1;}
	.st0{opacity:0.5;fill:#CCCCCC;}
	.st1{fill:#FFFFFF;}
</style>
<linearGradient id="SVGID_1_" gradientUnits="userSpaceOnUse" x1="-20" y1="262.2046" x2="-19.2929" y2="261.4975">
	<stop  offset="0" style="stop-color:#1EAB4B"/>
	<stop  offset="0.9831" style="stop-color:#19361A"/>
</linearGradient>
<rect transform="matrix(-1 8.979738e-11 -8.979738e-11 -1 60 60)" class="st0" width="60" height="60"/>
<g id="XMLID_628_">
	<path id="XMLID_629_" class="st1" d="M27,30L27,30L27,30l11.9,12.4c0.3,0.3,0.3,0.8,0,1.1l-2.1,2.2c-0.3,0.3-0.8,0.3-1.1,0
		L21.1,30.6c-0.2-0.2-0.2-0.4-0.2-0.6c0-0.2,0.1-0.4,0.2-0.6l14.6-15.2c0.3-0.3,0.8-0.3,1.1,0l2.1,2.2c0.3,0.3,0.3,0.8,0,1.1L27,30z
		"/>
</g>
</svg>
