<?xml version="1.0" encoding="utf-8"?>
<!-- Generator: Adobe Illustrator 19.2.1, SVG Export Plug-In . SVG Version: 6.00 Build 0)  -->
<svg version="1.1" id="Label_Icon:_Sale" xmlns="http://www.w3.org/2000/svg" xmlns:xlink="http://www.w3.org/1999/xlink" x="0px"
	 y="0px" viewBox="0 0 60 60" style="enable-background:new 0 0 60 60;" xml:space="preserve">
<style type="text/css">
	.Arched_x0020_Green{fill:url(#SVGID_1_);stroke:#FFFFFF;stroke-width:0.25;stroke-miterlimit:1;}
	.st0{fill:#FFFFFF;}
</style>
<linearGradient id="SVGID_1_" gradientUnits="userSpaceOnUse" x1="-20" y1="262.2046" x2="-19.2929" y2="261.4975">
	<stop  offset="0" style="stop-color:#1EAB4B"/>
	<stop  offset="0.9831" style="stop-color:#19361A"/>
</linearGradient>
<g>
	<path class="st0" d="M0.6,7.1v21.2L32.4,60l22.4-22.4L24.1,7.1H0.6z M12.4,23.5c-2.6,0-4.7-2.1-4.7-4.7s2.1-4.7,4.7-4.7
		c2.6,0,4.7,2.1,4.7,4.7S14.9,23.5,12.4,23.5z M28.7,34l6-5l-0.4,18l-4.5-9.5l-6,5l0.4-18L28.7,34z"/>
	<polygon class="st0" points="28.8,0 5.3,0 5.3,4.7 26.5,4.7 55.9,33.5 59.4,30.3 	"/>
</g>
</svg>
