<?xml version="1.0" encoding="utf-8"?>
<!-- Generator: Adobe Illustrator 19.2.1, SVG Export Plug-In . SVG Version: 6.00 Build 0)  -->
<svg version="1.1" id="TW" xmlns="http://www.w3.org/2000/svg" xmlns:xlink="http://www.w3.org/1999/xlink" x="0px" y="0px"
	 viewBox="0 0 60 60" style="enable-background:new 0 0 60 60;" xml:space="preserve">
<style type="text/css">
	.Arched_x0020_Green{fill:url(#SVGID_1_);stroke:#FFFFFF;stroke-width:0.25;stroke-miterlimit:1;}
	.st0{fill:#757575;}
</style>
<linearGradient id="SVGID_1_" gradientUnits="userSpaceOnUse" x1="-20" y1="262.2046" x2="-19.2929" y2="261.4975">
	<stop  offset="0" style="stop-color:#1EAB4B"/>
	<stop  offset="0.9831" style="stop-color:#19361A"/>
</linearGradient>
<g id="XMLID_43_">
	<path id="XMLID_44_" class="st0" d="M60,11.4c-2.2,1-4.6,1.6-7.1,1.9c2.5-1.5,4.5-3.9,5.4-6.8c-2.4,1.4-5,2.4-7.8,3
		c-2.3-2.4-5.5-3.9-9-3.9c-6.8,0-12.3,5.5-12.3,12.3c0,1,0.1,1.9,0.3,2.8C19.3,20.2,10.2,15.3,4.2,7.8C3.1,9.7,2.5,11.8,2.5,14
		c0,4.3,2.2,8,5.5,10.3c-2-0.1-3.9-0.6-5.6-1.5c0,0.1,0,0.1,0,0.2c0,6,4.2,10.9,9.9,12.1c-1,0.3-2.1,0.4-3.2,0.4
		c-0.8,0-1.6-0.1-2.3-0.2c1.6,4.9,6.1,8.5,11.5,8.6C14,47.1,8.7,49,2.9,49c-1,0-2-0.1-2.9-0.2c5.4,3.5,11.9,5.6,18.8,5.6
		c22.7,0,35.1-18.8,35.1-35.1c0-0.5,0-1.1,0-1.6C56.3,16,58.3,13.9,60,11.4z"/>
</g>
<g>
</g>
<g>
</g>
<g>
</g>
<g>
</g>
<g>
</g>
<g>
</g>
</svg>
