<?xml version="1.0" encoding="utf-8"?>
<!-- Generator: Adobe Illustrator 20.1.0, SVG Export Plug-In . SVG Version: 6.00 Build 0)  -->
<svg version="1.1" id="FB" xmlns="http://www.w3.org/2000/svg" xmlns:xlink="http://www.w3.org/1999/xlink" x="0px" y="0px"
	 viewBox="0 0 60 60" style="enable-background:new 0 0 60 60;" xml:space="preserve">
<style type="text/css">
	.Arched_x0020_Green{fill:url(#SVGID_1_);stroke:#FFFFFF;stroke-width:0.25;stroke-miterlimit:1;}
	.st0{fill:#FFFFFF;}
</style>
<linearGradient id="SVGID_1_" gradientUnits="userSpaceOnUse" x1="-20" y1="262.2046" x2="-19.2929" y2="261.4975">
	<stop  offset="0" style="stop-color:#1EAB4B"/>
	<stop  offset="0.9831" style="stop-color:#19361A"/>
</linearGradient>
<g>
	<path class="st0" d="M15,30V20h7v-6.7C22,4.9,25.6,0,36.3,0H7.2C3.2,0,0,3.2,0,7.2v45.6c0,4,3.2,7.2,7.2,7.2H22V30H15z"/>
	<path class="st0" d="M52.8,0H45v10h-5.2c-4.2,0-4.8,1.4-4.8,4v6h10l-1.2,10H35v30h17.8c4,0,7.2-3.2,7.2-7.2V7.2
		C60,3.2,56.8,0,52.8,0z"/>
</g>
</svg>
