<?xml version="1.0" encoding="utf-8"?>
<!-- Generator: Adobe Illustrator 19.2.1, SVG Export Plug-In . SVG Version: 6.00 Build 0)  -->
<svg version="1.1" id="Catalog" xmlns="http://www.w3.org/2000/svg" xmlns:xlink="http://www.w3.org/1999/xlink" x="0px" y="0px"
	 viewBox="0 0 60 60" style="enable-background:new 0 0 60 60;" xml:space="preserve">
<style type="text/css">
	.Arched_x0020_Green{fill:url(#SVGID_1_);stroke:#FFFFFF;stroke-width:0.25;stroke-miterlimit:1;}
	.st0{fill-rule:evenodd;clip-rule:evenodd;fill:#666666;}
</style>
<linearGradient id="SVGID_1_" gradientUnits="userSpaceOnUse" x1="-20" y1="262.2046" x2="-19.2929" y2="261.4975">
	<stop  offset="0" style="stop-color:#1EAB4B"/>
	<stop  offset="0.9831" style="stop-color:#19361A"/>
</linearGradient>
<g>
	<path class="st0" d="M59.9,49.3l-12.5,6.6V42.3l12.5-6.8V49.3z M45.6,55.9l-12.5-6.6V35.4l12.5,6.9V55.9z M30.9,48.3l-14.4,7.5
		V40.4l14.4-7.8V48.3z M14.4,55.9L0,48.3V32.5l14.4,7.9V55.9z M4.4,30.5l10.9,5.8l11.5-5.8l-11.5-5.7L4.4,30.5z M15.3,38.5L0.2,30.7
		l15.1-7.9L31,30.7L15.3,38.5z M33.3,29l-10.6-5.7V11.4l10.6,5.9V29z M42.4,10l-8.5-4.3L26,10l8,4.3L42.4,10z M22.8,10.1l11.1-5.9
		l11.6,5.9L33.9,16L22.8,10.1z M34.9,28.9V17.3l10.6-5.8v11.8L34.9,28.9z M36.9,33.7l9.4,5l10-5l-10-5L36.9,33.7z M46.3,40.7
		l-13.1-6.9l13.1-6.9L60,33.8L46.3,40.7z"/>
</g>
</svg>
