<?xml version="1.0" encoding="utf-8"?>
<!-- Generator: Adobe Illustrator 19.2.1, SVG Export Plug-In . SVG Version: 6.00 Build 0)  -->
<svg version="1.1" id="Order_History_1_" xmlns="http://www.w3.org/2000/svg" xmlns:xlink="http://www.w3.org/1999/xlink" x="0px"
	 y="0px" viewBox="0 0 60 60" style="enable-background:new 0 0 60 60;" xml:space="preserve">
<style type="text/css">
	.st0{fill:#666666;}
</style>
<g>
	<path class="st0" d="M9.1,30H5C5,16.2,16.2,5,30,5v4.1C18.5,9.1,9.1,18.5,9.1,30L9.1,30z M49.1,13.9l4.5-4.5l-2.9-2.9L31.3,25.8
		c-0.4-0.2-0.8-0.2-1.3-0.2c-2.5,0-4.4,2-4.4,4.4s2,4.4,4.4,4.4s4.4-2,4.4-4.4c0-0.5-0.1-0.9-0.2-1.3l4.8-4.8
		c1.2,1.8,1.9,3.9,1.9,6.2c0,6-4.9,10.9-10.9,10.9c-3.2,0-6.1-1.3-8.2-3.7l2-2l-8.6-2l2,8.6l1.7-1.7C21.7,43.2,25.7,45,30,45
		c8.3,0,15.1-6.8,15.1-15.1c0-3.3-1.1-6.5-3.1-9.1l4.2-4.2c3.1,3.8,4.8,8.3,4.8,13.2c0,11.5-9.4,20.9-20.9,20.9
		c-5.8,0-11.2-2.4-15.2-6.6l1.8-1.7l-8.6-2.1l2,8.6l1.8-1.8c4.7,5,11.2,7.8,18.1,7.8c13.8,0,25-11.2,25-25
		C55,24,52.9,18.4,49.1,13.9L49.1,13.9z M19,30c0-6.1,4.9-11,11-11v-4.1c-8.3,0-15.1,6.8-15.1,15.1H19z"/>
</g>
</svg>
