<?xml version="1.0" encoding="utf-8"?>
<!-- Generator: Adobe Illustrator 19.0.0, SVG Export Plug-In . SVG Version: 6.00 Build 0)  -->
<svg version="1.1" xmlns="http://www.w3.org/2000/svg" xmlns:xlink="http://www.w3.org/1999/xlink" x="0px" y="0px"
	 viewBox="4 7 60 40" style="enable-background:new 4 7 60 40;" xml:space="preserve">
<style type="text/css">
	.st0{display:none;}
	.st1{display:inline;}
	.st2{fill:#5EC1EC;}
	.st3{fill:#5BBBE6;}
	.st4{fill:#FFFFFF;}
	.st5{fill:#56B1D9;}
	.st6{fill:#9BCEE0;}
	.st7{fill:#5565AF;}
	.st8{fill:#6678BC;}
	.st9{fill:#EA564B;}
	.st10{fill:#E9D419;}
	.st11{fill:#7684B7;}
	.st12{fill:#FFF9F0;}
	.st13{fill:#F9F3EA;}
	.st14{fill:#414042;}
	.st15{fill:#E6A124;}
	.st16{fill:#F7F5F2;}
	.st17{fill:#F3F4F4;}
	.st18{opacity:4.000000e-02;fill:#FFFFFF;enable-background:new    ;}
	.st19{fill:#F8F8F9;}
</style>
<g id="Layer_1" class="st0">
	<g class="st1">
		<g>
			<path class="st2" d="M64,42c0,2.8-2.2,5-5,5H9c-2.8,0-5-2.2-5-5V12c0-2.8,2.2-5,5-5h50c2.8,0,5,2.2,5,5V42z"/>
			<path class="st3" d="M62.5,8.5C63.4,9.4,64,10.6,64,12v15v15c0,1.4-0.6,2.6-1.5,3.5C61.6,46.4,60.4,47,59,47H34H9
				c-1.4,0-2.6-0.6-3.5-1.5L62.5,8.5z"/>
			<g>
				<path class="st4" d="M21.6,31.9l-0.5-1.7h-3l-0.5,1.7h-2.8l3-9.3h3.3l3.1,9.3H21.6z M20.6,28.1l-0.4-1.5
					c-0.1-0.3-0.2-0.8-0.3-1.3c-0.1-0.5-0.2-0.9-0.3-1.2c0,0.2-0.1,0.6-0.2,1.1s-0.4,1.5-0.7,2.9L20.6,28.1L20.6,28.1z"/>
				<path class="st4" d="M29.3,31.9l-1.9-6.7h-0.1c0.1,1.1,0.1,2,0.1,2.7v4h-2.2v-9.3h3.3l1.9,6.6h0.1l1.9-6.6h3.3v9.3h-2.3v-4.1
					c0-0.2,0-0.4,0-0.7s0-0.9,0.1-1.9h-0.1l-1.9,6.7L29.3,31.9L29.3,31.9z"/>
				<path class="st4" d="M43.1,31.9h-5.5v-9.3h5.5v2h-3v1.5h2.8v2h-2.8v1.8h3V31.9z"/>
				<path class="st4" d="M53.1,31.9h-2.9L48.4,29l-1.8,2.9h-2.8l3.1-4.7l-2.9-4.5h2.8l1.7,2.9l1.6-2.9h2.9l-2.9,4.7L53.1,31.9z"/>
			</g>
			<g>
				<path class="st4" d="M21.6,31.9l-0.5-1.7h-3l-0.5,1.7h-2.8l3-9.3h3.3l3.1,9.3H21.6z M20.6,28.1l-0.4-1.5
					c-0.1-0.3-0.2-0.8-0.3-1.3c-0.1-0.5-0.2-0.9-0.3-1.2c0,0.2-0.1,0.6-0.2,1.1s-0.4,1.5-0.7,2.9L20.6,28.1L20.6,28.1z"/>
				<path class="st4" d="M29.3,31.9l-1.9-6.7h-0.1c0.1,1.1,0.1,2,0.1,2.7v4h-2.2v-9.3h3.3l1.9,6.6h0.1l1.9-6.6h3.3v9.3h-2.3v-4.1
					c0-0.2,0-0.4,0-0.7s0-0.9,0.1-1.9h-0.1l-1.9,6.7L29.3,31.9L29.3,31.9z"/>
				<path class="st4" d="M43.1,31.9h-5.5v-9.3h5.5v2h-3v1.5h2.8v2h-2.8v1.8h3V31.9z"/>
				<path class="st4" d="M53.1,31.9h-2.9L48.4,29l-1.8,2.9h-2.8l3.1-4.7l-2.9-4.5h2.8l1.7,2.9l1.6-2.9h2.9l-2.9,4.7L53.1,31.9z"/>
			</g>
			<path class="st5" d="M34,7"/>
		</g>
		<g>
			<path class="st6" d="M59,8c2.2,0,4,1.8,4,4v30c0,2.2-1.8,4-4,4H9c-2.2,0-4-1.8-4-4V12c0-2.2,1.8-4,4-4H59 M59,7H9
				c-2.8,0-5,2.2-5,5v30c0,2.8,2.2,5,5,5h50c2.8,0,5-2.2,5-5V12C64,9.2,61.8,7,59,7L59,7z"/>
		</g>
	</g>
</g>
<g id="Layer_4" class="st0">
	<g class="st1">
		<path class="st7" d="M64,42c0,2.8-2.2,5-5,5H9c-2.8,0-5-2.2-5-5V12c0-2.8,2.2-5,5-5h50c2.8,0,5,2.2,5,5V42z"/>
		<path class="st8" d="M62.5,8.5C63.4,9.4,64,10.6,64,12v15v15c0,1.4-0.6,2.6-1.5,3.5C61.6,46.4,60.4,47,59,47H34H9
			c-1.4,0-2.6-0.6-3.5-1.5L62.5,8.5z"/>
		<path class="st5" d="M34,7"/>
		<g>
			<path class="st9" d="M34,20.4c-1.8-2.1-4.5-3.4-7.5-3.4c-5.5,0-10,4.5-10,10c0,5.5,4.5,10,10,10c3,0,5.7-1.3,7.5-3.4
				c-1.6-1.8-2.5-4.1-2.5-6.6S32.4,22.2,34,20.4z"/>
			<path class="st9" d="M34,20.4c-1.6,1.8-2.5,4.1-2.5,6.6s0.9,4.8,2.5,6.6c1.6-1.8,2.5-4.1,2.5-6.6S35.6,22.2,34,20.4z"/>
		</g>
		<path class="st10" d="M41.5,17c-3,0-5.7,1.3-7.5,3.4c-0.4,0.5-0.8,1-1.1,1.6h2.3c0.4,0.6,0.6,1.3,0.9,2h-4c-0.2,0.6-0.4,1.3-0.4,2
			h4.9c0,0.3,0.1,0.7,0.1,1c0,0.3,0,0.7-0.1,1h-4.9c0.1,0.7,0.2,1.4,0.4,2H36c-0.2,0.7-0.5,1.4-0.9,2h-2.3c0.3,0.6,0.7,1.1,1.1,1.6
			c1.8,2.1,4.5,3.4,7.5,3.4c5.5,0,10-4.5,10-10C51.5,21.5,47,17,41.5,17z"/>
		<g>
			<path class="st11" d="M59,8c2.2,0,4,1.8,4,4v30c0,2.2-1.8,4-4,4H9c-2.2,0-4-1.8-4-4V12c0-2.2,1.8-4,4-4H59 M59,7H9
				c-2.8,0-5,2.2-5,5v30c0,2.8,2.2,5,5,5h50c2.8,0,5-2.2,5-5V12C64,9.2,61.8,7,59,7L59,7z"/>
		</g>
	</g>
</g>
<g id="Layer_3">
	<g>
		<path class="st12" d="M64,42c0,2.8-2.2,5-5,5H9c-2.8,0-5-2.2-5-5V12c0-2.8,2.2-5,5-5h50c2.8,0,5,2.2,5,5V42z"/>
		<path class="st13" d="M62.5,8.5C63.4,9.4,64,10.6,64,12v15v15c0,1.4-0.6,2.6-1.5,3.5C61.6,46.4,60.4,47,59,47H34H9
			c-1.4,0-2.6-0.6-3.5-1.5L62.5,8.5z"/>
		<g>
			<path class="st14" d="M19.1,26.9c0,1-0.3,1.8-0.9,2.3c-0.6,0.5-1.4,0.8-2.5,0.8h-1.7V24H16c1,0,1.8,0.3,2.3,0.8
				C18.9,25.3,19.1,26,19.1,26.9z M17.8,27c0-1.3-0.6-2-1.7-2h-0.7v4h0.6C17.2,29,17.8,28.3,17.8,27z"/>
			<path class="st14" d="M20.2,30V24h1.3V30H20.2z"/>
			<path class="st14" d="M26.6,28.4c0,0.6-0.2,1-0.6,1.3c-0.4,0.3-0.9,0.5-1.6,0.5c-0.6,0-1.2-0.1-1.7-0.4v-1.2
				c0.4,0.2,0.8,0.3,1,0.4c0.3,0.1,0.5,0.1,0.8,0.1c0.3,0,0.5-0.1,0.7-0.2c0.1-0.1,0.2-0.3,0.2-0.5c0-0.1,0-0.2-0.1-0.3
				c-0.1-0.1-0.2-0.2-0.3-0.3c-0.1-0.1-0.4-0.2-0.8-0.4c-0.4-0.2-0.6-0.3-0.8-0.5c-0.2-0.2-0.3-0.3-0.4-0.6s-0.2-0.5-0.2-0.8
				c0-0.5,0.2-1,0.5-1.3c0.4-0.3,0.9-0.5,1.5-0.5c0.3,0,0.6,0,0.9,0.1c0.3,0.1,0.6,0.2,0.9,0.3l-0.4,1c-0.3-0.1-0.6-0.2-0.8-0.3
				c-0.2-0.1-0.4-0.1-0.6-0.1c-0.2,0-0.4,0.1-0.6,0.2c-0.1,0.1-0.2,0.3-0.2,0.4c0,0.1,0,0.2,0.1,0.3c0.1,0.1,0.1,0.2,0.3,0.2
				s0.4,0.2,0.8,0.4c0.6,0.3,1,0.5,1.2,0.8C26.5,27.6,26.6,28,26.6,28.4z"/>
			<path class="st14" d="M30.3,24.9c-0.5,0-0.9,0.2-1.1,0.5c-0.3,0.4-0.4,0.9-0.4,1.5c0,1.4,0.5,2,1.5,2c0.4,0,0.9-0.1,1.6-0.3v1.1
				c-0.5,0.2-1.1,0.3-1.7,0.3c-0.9,0-1.6-0.3-2-0.8c-0.5-0.5-0.7-1.3-0.7-2.3c0-0.6,0.1-1.2,0.3-1.7c0.2-0.5,0.6-0.8,1-1.1
				c0.4-0.3,0.9-0.4,1.5-0.4c0.6,0,1.2,0.1,1.8,0.4l-0.4,1c-0.2-0.1-0.5-0.2-0.7-0.3C30.8,25,30.5,24.9,30.3,24.9z"/>
			<path class="st14" d="M42.2,24h1.3L41.4,30H40L38,24h1.3l1.1,3.6c0.1,0.2,0.1,0.5,0.2,0.7c0.1,0.3,0.1,0.5,0.1,0.6
				c0-0.3,0.1-0.7,0.3-1.3L42.2,24z"/>
			<path class="st14" d="M47.8,30h-3.5V24h3.5V25h-2.2v1.3h2.1v1.1h-2.1V29h2.2V30z"/>
			<path class="st14" d="M50.3,27.7V30h-1.3V24h1.8c0.8,0,1.4,0.1,1.8,0.5c0.4,0.3,0.6,0.8,0.6,1.4c0,0.4-0.1,0.7-0.3,1
				c-0.2,0.3-0.5,0.5-0.8,0.7c0.9,1.4,1.5,2.3,1.8,2.6h-1.4L51,27.7L50.3,27.7L50.3,27.7z M50.3,26.7h0.4c0.4,0,0.7-0.1,0.9-0.2
				c0.2-0.1,0.3-0.4,0.3-0.6c0-0.3-0.1-0.5-0.3-0.6S51.1,25,50.7,25h-0.4L50.3,26.7L50.3,26.7z"/>
			<circle class="st15" cx="35.1" cy="27" r="3"/>
		</g>
		<path class="st15" d="M64,34.5V42c0,0.7-0.1,1.3-0.4,1.9c-0.3,0.6-0.6,1.1-1.1,1.6s-1,0.8-1.6,1.1C60.3,46.9,59.7,47,59,47H36.5
			H14.1L64,34.5z"/>
		<g>
			<path class="st16" d="M59,8c2.2,0,4,1.8,4,4v30c0,2.2-1.8,4-4,4H9c-2.2,0-4-1.8-4-4V12c0-2.2,1.8-4,4-4H59 M59,7H9
				c-2.8,0-5,2.2-5,5v30c0,2.8,2.2,5,5,5h50c2.8,0,5-2.2,5-5V12C64,9.2,61.8,7,59,7L59,7z"/>
		</g>
	</g>
</g>
<g id="Layer_2" class="st0">
	<g class="st1">
		<path class="st17" d="M64,42c0,2.8-2.2,5-5,5H9c-2.8,0-5-2.2-5-5V12c0-2.8,2.2-5,5-5h50c2.8,0,5,2.2,5,5V42z"/>
		<path class="st7" d="M5,17v-5c0-2.8,2.2-5,5-5h48c2.8,0,5,2.2,5,5v5"/>
		<path class="st15" d="M63,37v5c0,2.8-2.2,4-5,4H10c-2.8,0-5-1.2-5-4v-5"/>
		<g>
			<path class="st7" d="M21.4,30.4c0.4-1.1,0.7-1.9,0.9-2.2l3.4-6.9h2.5l-5.8,11.4h-2.6l-1-11.4h2.3l0.4,6.9c0,0.2,0,0.6,0,1
				C21.4,29.7,21.4,30.1,21.4,30.4L21.4,30.4z"/>
			<path class="st7" d="M27.1,32.7l2.4-11.4h2.4l-2.4,11.4H27.1z"/>
			<path class="st7" d="M39.2,29.3c0,1.1-0.4,1.9-1.2,2.6c-0.8,0.6-1.8,0.9-3.1,0.9c-1.2,0-2.1-0.2-2.8-0.7V30
				c1,0.6,1.9,0.8,2.8,0.8c0.6,0,1-0.1,1.4-0.3c0.3-0.2,0.5-0.5,0.5-0.9c0-0.2,0-0.4-0.1-0.6c-0.1-0.2-0.2-0.3-0.3-0.5
				c-0.1-0.1-0.5-0.4-1-0.8c-0.7-0.5-1.2-1-1.5-1.5c-0.3-0.5-0.4-1-0.4-1.6c0-0.7,0.2-1.3,0.5-1.8c0.3-0.5,0.8-0.9,1.4-1.2
				c0.6-0.3,1.3-0.4,2.1-0.4c1.1,0,2.2,0.3,3.1,0.8l-0.9,1.8c-0.8-0.4-1.6-0.6-2.2-0.6c-0.4,0-0.8,0.1-1.1,0.4
				c-0.3,0.2-0.4,0.5-0.4,0.9c0,0.3,0.1,0.6,0.3,0.8c0.2,0.2,0.6,0.6,1.2,0.9c0.6,0.4,1.1,0.9,1.4,1.4C39,28.1,39.2,28.7,39.2,29.3z
				"/>
			<path class="st7" d="M46.8,30h-3.7l-1.3,2.7h-2.5l6-11.5h2.9l1.1,11.5H47L46.8,30z M46.7,28l-0.2-2.7c-0.1-0.7-0.1-1.3-0.1-2V23
				c-0.2,0.6-0.5,1.3-0.9,2l-1.5,3H46.7z"/>
		</g>
		<path class="st4" d="M34,7"/>
		<path class="st18" d="M62.5,8.5C63.4,9.4,64,10.6,64,12v15v15c0,1.4-0.6,2.6-1.5,3.5S60.4,47,59,47H34H9c-1.4,0-2.6-0.6-3.5-1.5
			L62.5,8.5z"/>
		<g>
			<path class="st19" d="M59,8c2.2,0,4,1.8,4,4v30c0,2.2-1.8,4-4,4H9c-2.2,0-4-1.8-4-4V12c0-2.2,1.8-4,4-4H59 M59,7H9
				c-2.8,0-5,2.2-5,5v30c0,2.8,2.2,5,5,5h50c2.8,0,5-2.2,5-5V12C64,9.2,61.8,7,59,7L59,7z"/>
		</g>
	</g>
</g>
</svg>
