<?xml version="1.0" encoding="utf-8"?>
<!-- Generator: Adobe Illustrator 19.2.1, SVG Export Plug-In . SVG Version: 6.00 Build 0)  -->
<svg version="1.1" id="Capa_1" xmlns="http://www.w3.org/2000/svg" xmlns:xlink="http://www.w3.org/1999/xlink" x="0px" y="0px"
	 viewBox="0 0 60 60" style="enable-background:new 0 0 60 60;" xml:space="preserve">
<style type="text/css">
	.st0{fill:#D80027;}
	.st1{fill:#FFFFFF;}
</style>
<path class="st0" d="M53.3,0H6.7C3,0,0,3,0,6.7v46.7C0,57,3,60,6.7,60h46.7c3.7,0,6.7-3,6.7-6.7V6.7C60,3,57,0,53.3,0z"/>
<path class="st1" d="M5.4,53.2l2,1.2c0.4,0.4,0.8,0.4,1.6,0.4c3.2,0,7.2-4,12-12.4c0.4-0.4,0.4-0.4,0.8-0.4c4-1.6,9.2-2.4,16-3.2
	c4,2,8.8,2.8,12,2.8c1.6,0,2.8-0.4,3.6-0.8c0.8-0.8,1.2-2,1.6-2.4c0-0.8,0-1.6-0.4-2.4c-1.2-2-4.4-2.8-9.2-2.8
	c-1.6,0-3.2,0.4-5.2,0.4c-1.6-0.8-2.4-1.6-3.6-2.4c-2.4-2.4-4.8-6-6.4-10.4c0,0,0,0,0-0.4c1.6-5.2,2.8-11.6,0-14.4
	c-0.8-0.4-1.6-0.8-2.4-0.8H27c-1.6,0-2.8,1.6-3.2,3.2c-1.6,5.6-0.8,8.4,0.8,13.2c-1.2,3.6-2.4,7.6-4.4,11.6c-1.6,2.8-2.8,5.2-4,7.2
	c-1.6,0.8-2.8,1.6-3.6,2c-4.8,2.8-7.2,6.4-7.6,8.4c0,0.8,0,1.2,0.4,2V53.2z M43.4,36c0.4,0,0.4,0,0.8,0c5.6,0,7.2,1.2,7.6,1.6
	c0,0.4,0.4,0.4,0.4,0.4c0,0.4,0,0.4,0,0.4h-0.4c-0.4,0-0.4,0-0.8,0c-2,0-4.8-0.8-7.6-2C43.4,36,43.4,36,43.4,36z M27,7.2
	c0.4,0,0.4-0.4,0.4-0.4l0.4,0.4c0,0.4,0,0.4,0,0.4c0.4,0.4,0.4,2,0,4v0.8c0,1.2-0.4,2-0.8,3.6c0.2,0,0.3,0,0.3,0s-0.1,0-0.3,0
	C26.2,12.4,26.2,9.6,27,7.2z M23.4,34.8c1.6-3.6,3.2-6.8,4-9.6c1.6,3.6,4,6.8,6,9.2c0.4,0.4,0.8,0.8,1.6,1.2
	c-3.2,0.4-8,1.6-13.2,3.6h-0.4H21C21.8,37.6,22.6,36.4,23.4,34.8z M13,44.8c0.4-0.4,1.2-0.8,2-1.2c0.1,0,0.1,0,0.2,0
	c0.1,0,0.1,0,0.1,0s0,0-0.1,0c0,0-0.1,0-0.2,0c-2.4,4.8-4.8,7.2-7.2,7.6C8.2,50,10.2,47.2,13,44.8z"/>
</svg>
