<?xml version="1.0" encoding="utf-8"?>
<!-- Generator: Adobe Illustrator 19.2.1, SVG Export Plug-In . SVG Version: 6.00 Build 0)  -->
<svg version="1.1" id="Contact_HEX_Phone" xmlns="http://www.w3.org/2000/svg" xmlns:xlink="http://www.w3.org/1999/xlink" x="0px"
	 y="0px" viewBox="0 0 60 60" style="enable-background:new 0 0 60 60;" xml:space="preserve">
<style type="text/css">
	.st0{fill:#FFFFFF;}
	.st1{opacity:0.4;fill:#474747;enable-background:new    ;}
</style>
<path class="st0" d="M59.7,28.7L45.9,5.2C45.5,4.5,44.6,4,43.7,4H16.2c-0.9,0-1.7,0.5-2.2,1.2L0.3,28.7c-0.5,0.8-0.5,1.7,0,2.5
	L14,54.7c0.4,0.8,1.3,1.2,2.2,1.2h27.5c0.9,0,1.7-0.5,2.2-1.2l13.8-23.5C60.1,30.5,60.1,29.5,59.7,28.7z M44.4,54.7H15.6L1.1,30
	L15.6,5.3h28.9L58.9,30L44.4,54.7z"/>
<polygon class="st1" points="15.6,5.3 1.1,30 15.6,54.7 44.4,54.7 58.9,30 44.4,5.3 "/>
<g id="XMLID_1_">
	<g id="XMLID_2_">
		<path id="XMLID_5_" class="st0" d="M19.7,35c2-1.5,3.3-2.4,4-2.1c0.8,0.4,1.2,1.3,2.1,2.9c0.3,0.6,1,1.7,1.5,1.5
			c0.6-0.3,2.5-1.3,5-3.6l0,0c0.2-0.2,0.5-0.4,0.7-0.7c2.8-2.9,4-5,4.3-5.7c0.2-0.5-0.9-1.2-1.5-1.5c-1.6-0.8-2.5-1.3-2.9-2.1
			c-0.3-0.6,0.7-2,2.1-4s2.4-3,3.2-3.2c1-0.2,1.4,0.4,3.4,2.1c1.9,1.7,1.9,3.2,1.9,4.4c0,1.2-0.9,3.6-2.9,6.7
			c-0.7,1.2-1.8,2.6-2.9,3.9c-0.4,0.5-1.1,1.2-1.7,1.9c-0.9,0.9-1.9,1.9-2.7,2.5c-1.3,1.1-2.7,2.1-3.9,2.9c-3.1,1.9-5.2,2.5-6.4,2.5
			s-2.7,0.1-4.4-1.9c-1.7-2-2.3-2.4-2.1-3.4C16.7,37.3,17.8,36.4,19.7,35z"/>
		<path id="XMLID_4_" class="st0" d="M21.5,21.5c-1.6,1.6-2.6,3.8-2.7,6h-2.3c0.4-5.9,5-10.6,11-11v2.3
			C25.2,18.9,23.1,19.9,21.5,21.5z"/>
		<path id="XMLID_3_" class="st0" d="M27.5,21.3v2.3c-1.8,0.6-3.2,2.1-3.9,3.9h-2.3C22,24.5,24.5,22,27.5,21.3z"/>
	</g>
</g>
</svg>
