<?xml version="1.0" encoding="utf-8"?>
<!-- Generator: Adobe Illustrator 19.2.1, SVG Export Plug-In . SVG Version: 6.00 Build 0)  -->
<svg version="1.1" id="Arrow_Right_Circle" xmlns="http://www.w3.org/2000/svg" xmlns:xlink="http://www.w3.org/1999/xlink" x="0px"
	 y="0px" viewBox="0 0 60 60" style="enable-background:new 0 0 60 60;" xml:space="preserve">
<style type="text/css">
	.Arched_x0020_Green{fill:url(#SVGID_1_);stroke:#FFFFFF;stroke-width:0.25;stroke-miterlimit:1;}
	.st0{fill-rule:evenodd;clip-rule:evenodd;fill:#FFFFFF;}
</style>
<linearGradient id="SVGID_1_" gradientUnits="userSpaceOnUse" x1="-20" y1="262.2046" x2="-19.2929" y2="261.4975">
	<stop  offset="0" style="stop-color:#1EAB4B"/>
	<stop  offset="0.9831" style="stop-color:#19361A"/>
</linearGradient>
<path class="st0" d="M41.6,27.1L29.3,14.6c-1.7-1.7-4.5-1.7-6.2,0c-1.7,1.8-1.7,4.6,0,6.3l9.2,9.3l-9.2,9.3c-1.7,1.8-1.7,4.6,0,6.3
	c0.9,0.9,2,1.3,3.1,1.3c1.1,0,2.2-0.4,3.1-1.3l12.3-12.4c0.8-0.9,1.3-2,1.3-3.2S42.4,27.9,41.6,27.1z M30,60C13.5,60,0,46.5,0,30
	S13.5,0,30,0s30,13.5,30,30S46.5,60,30,60z"/>
<g>
</g>
<g>
</g>
<g>
</g>
<g>
</g>
<g>
</g>
<g>
</g>
</svg>
