<?xml version="1.0" encoding="utf-8"?>
<!-- Generator: Adobe Illustrator 19.0.0, SVG Export Plug-In . SVG Version: 6.00 Build 0)  -->
<svg version="1.1" id="Layer_1" xmlns="http://www.w3.org/2000/svg" xmlns:xlink="http://www.w3.org/1999/xlink" x="0px" y="0px"
	 viewBox="-365 287 60 40" style="enable-background:new -365 287 60 40;" xml:space="preserve">
<style type="text/css">
	.st0{fill:#EEEEEE;}
	.st1{fill:#E5E5E5;}
	.st2{fill:#56B1D9;}
	.st3{fill:#FFFFFF;}
	.st4{display:none;}
	.st5{display:inline;}
	.st6{fill:#5565AF;}
	.st7{opacity:4.000000e-02;fill:#FFFFFF;enable-background:new    ;}
	.st8{fill:#EA564B;}
	.st9{fill:#E9D419;}
	.st10{fill:#7684B7;}
	.st11{fill:#FFF9F0;}
	.st12{fill:#414042;}
	.st13{fill:#E6A124;}
	.st14{opacity:8.000000e-02;fill:#FFFFFF;enable-background:new    ;}
	.st15{fill:#F7F5F2;}
	.st16{fill:#F3F4F4;}
	.st17{fill:#F8F8F9;}
</style>
<path class="st0" d="M-305,322c0,2.8-2.2,5-5,5h-50c-2.8,0-5-2.2-5-5v-30c0-2.8,2.2-5,5-5h50c2.8,0,5,2.2,5,5V322z"/>
<path class="st1" d="M-306.5,288.5c0.9,0.9,1.5,2.1,1.5,3.5v15v15c0,1.4-0.6,2.6-1.5,3.5s-2.1,1.5-3.5,1.5h-25h-25
	c-1.4,0-2.6-0.6-3.5-1.5L-306.5,288.5z"/>
<path class="st2" d="M-335,287"/>
<path class="st3" d="M-310,288c2.2,0,4,1.8,4,4v30c0,2.2-1.8,4-4,4h-50c-2.2,0-4-1.8-4-4v-30c0-2.2,1.8-4,4-4H-310 M-310,287h-50
	c-2.8,0-5,2.2-5,5v30c0,2.8,2.2,5,5,5h50c2.8,0,5-2.2,5-5v-30C-305,289.2-307.2,287-310,287L-310,287z"/>
<g id="Layer_4" class="st4">
	<g class="st5">
		<path class="st6" d="M-301,329c0,2.8-2.2,5-5,5h-50c-2.8,0-5-2.2-5-5v-30c0-2.8,2.2-5,5-5h50c2.8,0,5,2.2,5,5V329z"/>
		<path class="st7" d="M-302.5,295.5c0.9,0.9,1.5,2.1,1.5,3.5v15v15c0,1.4-0.6,2.6-1.5,3.5s-2.1,1.5-3.5,1.5h-25h-25
			c-1.4,0-2.6-0.6-3.5-1.5L-302.5,295.5z"/>
		<path class="st2" d="M-331,294"/>
		<g>
			<path class="st8" d="M-331,307.4c-1.8-2.1-4.5-3.4-7.5-3.4c-5.5,0-10,4.5-10,10s4.5,10,10,10c3,0,5.7-1.3,7.5-3.4
				c-1.6-1.8-2.5-4.1-2.5-6.6S-332.6,309.2-331,307.4z"/>
			<path class="st8" d="M-331,307.4c-1.6,1.8-2.5,4.1-2.5,6.6s0.9,4.8,2.5,6.6c1.6-1.8,2.5-4.1,2.5-6.6S-329.4,309.2-331,307.4z"/>
		</g>
		<path class="st9" d="M-323.5,304c-3,0-5.7,1.3-7.5,3.4c-0.4,0.5-0.8,1-1.1,1.6h2.3c0.4,0.6,0.6,1.3,0.9,2h-4
			c-0.2,0.6-0.4,1.3-0.4,2h4.9c0,0.3,0.1,0.7,0.1,1s0,0.7-0.1,1h-4.9c0.1,0.7,0.2,1.4,0.4,2h3.9c-0.2,0.7-0.5,1.4-0.9,2h-2.3
			c0.3,0.6,0.7,1.1,1.1,1.6c1.8,2.1,4.5,3.4,7.5,3.4c5.5,0,10-4.5,10-10C-313.5,308.5-318,304-323.5,304z"/>
		<g>
			<path class="st10" d="M-306,295c2.2,0,4,1.8,4,4v30c0,2.2-1.8,4-4,4h-50c-2.2,0-4-1.8-4-4v-30c0-2.2,1.8-4,4-4H-306 M-306,294
				h-50c-2.8,0-5,2.2-5,5v30c0,2.8,2.2,5,5,5h50c2.8,0,5-2.2,5-5v-30C-301,296.2-303.2,294-306,294L-306,294z"/>
		</g>
	</g>
</g>
<g id="Layer_3" class="st4">
	<g class="st5">
		<path class="st11" d="M-301,329c0,2.8-2.2,5-5,5h-50c-2.8,0-5-2.2-5-5v-30c0-2.8,2.2-5,5-5h50c2.8,0,5,2.2,5,5V329z"/>
		<g>
			<path class="st12" d="M-345.9,313.9c0,1-0.3,1.8-0.9,2.3c-0.6,0.5-1.4,0.8-2.5,0.8h-1.7v-6h2c1,0,1.8,0.3,2.3,0.8
				C-346.1,312.3-345.9,313-345.9,313.9z M-347.2,314c0-1.3-0.6-2-1.7-2h-0.7v4h0.6C-347.8,316-347.2,315.3-347.2,314z"/>
			<path class="st12" d="M-344.8,317v-6h1.3v6H-344.8z"/>
			<path class="st12" d="M-338.4,315.4c0,0.6-0.2,1-0.6,1.3c-0.4,0.3-0.9,0.5-1.6,0.5c-0.6,0-1.2-0.1-1.7-0.4v-1.2
				c0.4,0.2,0.8,0.3,1,0.4c0.3,0.1,0.5,0.1,0.8,0.1s0.5-0.1,0.7-0.2c0.1-0.1,0.2-0.3,0.2-0.5c0-0.1,0-0.2-0.1-0.3
				c-0.1-0.1-0.2-0.2-0.3-0.3c-0.1-0.1-0.4-0.2-0.8-0.4c-0.4-0.2-0.6-0.3-0.8-0.5c-0.2-0.2-0.3-0.3-0.4-0.6
				c-0.1-0.3-0.2-0.5-0.2-0.8c0-0.5,0.2-1,0.5-1.3c0.4-0.3,0.9-0.5,1.5-0.5c0.3,0,0.6,0,0.9,0.1c0.3,0.1,0.6,0.2,0.9,0.3l-0.4,1
				c-0.3-0.1-0.6-0.2-0.8-0.3c-0.2-0.1-0.4-0.1-0.6-0.1c-0.2,0-0.4,0.1-0.6,0.2c-0.1,0.1-0.2,0.3-0.2,0.4c0,0.1,0,0.2,0.1,0.3
				s0.1,0.2,0.3,0.2c0.2,0,0.4,0.2,0.8,0.4c0.6,0.3,1,0.5,1.2,0.8C-338.5,314.6-338.4,315-338.4,315.4z"/>
			<path class="st12" d="M-334.7,311.9c-0.5,0-0.9,0.2-1.1,0.5c-0.3,0.4-0.4,0.9-0.4,1.5c0,1.4,0.5,2,1.5,2c0.4,0,0.9-0.1,1.6-0.3
				v1.1c-0.5,0.2-1.1,0.3-1.7,0.3c-0.9,0-1.6-0.3-2-0.8c-0.5-0.5-0.7-1.3-0.7-2.3c0-0.6,0.1-1.2,0.3-1.7c0.2-0.5,0.6-0.8,1-1.1
				c0.4-0.3,0.9-0.4,1.5-0.4c0.6,0,1.2,0.1,1.8,0.4l-0.4,1c-0.2-0.1-0.5-0.2-0.7-0.3C-334.2,312-334.5,311.9-334.7,311.9z"/>
			<path class="st12" d="M-322.8,311h1.3l-2.1,6h-1.4l-2-6h1.3l1.1,3.6c0.1,0.2,0.1,0.5,0.2,0.7c0.1,0.3,0.1,0.5,0.1,0.6
				c0-0.3,0.1-0.7,0.3-1.3L-322.8,311z"/>
			<path class="st12" d="M-317.2,317h-3.5v-6h3.5v1h-2.2v1.3h2.1v1.1h-2.1v1.6h2.2V317z"/>
			<path class="st12" d="M-314.7,314.7v2.3h-1.3v-6h1.8c0.8,0,1.4,0.1,1.8,0.5c0.4,0.3,0.6,0.8,0.6,1.4c0,0.4-0.1,0.7-0.3,1
				c-0.2,0.3-0.5,0.5-0.8,0.7c0.9,1.4,1.5,2.3,1.8,2.6h-1.4l-1.5-2.5H-314.7L-314.7,314.7z M-314.7,313.7h0.4c0.4,0,0.7-0.1,0.9-0.2
				c0.2-0.1,0.3-0.4,0.3-0.6c0-0.3-0.1-0.5-0.3-0.6c-0.2-0.1-0.5-0.3-0.9-0.3h-0.4V313.7L-314.7,313.7z"/>
			<circle class="st13" cx="-329.9" cy="314" r="3"/>
		</g>
		<path class="st13" d="M-301,321.5v7.5c0,0.7-0.1,1.3-0.4,1.9c-0.3,0.6-0.6,1.1-1.1,1.6s-1,0.8-1.6,1.1c-0.6,0.3-1.2,0.4-1.9,0.4
			h-22.5h-22.4L-301,321.5z"/>
		<path class="st14" d="M-302.5,295.5c0.9,0.9,1.5,2.1,1.5,3.5v15v15c0,1.4-0.6,2.6-1.5,3.5s-2.1,1.5-3.5,1.5h-25h-25
			c-1.4,0-2.6-0.6-3.5-1.5L-302.5,295.5z"/>
		<g>
			<path class="st15" d="M-306,295c2.2,0,4,1.8,4,4v30c0,2.2-1.8,4-4,4h-50c-2.2,0-4-1.8-4-4v-30c0-2.2,1.8-4,4-4H-306 M-306,294
				h-50c-2.8,0-5,2.2-5,5v30c0,2.8,2.2,5,5,5h50c2.8,0,5-2.2,5-5v-30C-301,296.2-303.2,294-306,294L-306,294z"/>
		</g>
	</g>
</g>
<g id="Layer_2" class="st4">
	<g class="st5">
		<path class="st16" d="M-301,329c0,2.8-2.2,5-5,5h-50c-2.8,0-5-2.2-5-5v-30c0-2.8,2.2-5,5-5h50c2.8,0,5,2.2,5,5V329z"/>
		<path class="st6" d="M-360,304v-5c0-2.8,2.2-5,5-5h48c2.8,0,5,2.2,5,5v5"/>
		<path class="st13" d="M-302,324v5c0,2.8-2.2,4-5,4h-48c-2.8,0-5-1.2-5-4v-5"/>
		<g>
			<path class="st6" d="M-343.6,317.4c0.4-1.1,0.7-1.9,0.9-2.2l3.4-6.9h2.5l-5.8,11.4h-2.6l-1-11.4h2.3l0.4,6.9c0,0.2,0,0.6,0,1
				C-343.6,316.7-343.6,317.1-343.6,317.4L-343.6,317.4z"/>
			<path class="st6" d="M-337.9,319.7l2.4-11.4h2.4l-2.4,11.4H-337.9z"/>
			<path class="st6" d="M-325.8,316.3c0,1.1-0.4,1.9-1.2,2.6c-0.8,0.6-1.8,0.9-3.1,0.9c-1.2,0-2.1-0.2-2.8-0.7V317
				c1,0.6,1.9,0.8,2.8,0.8c0.6,0,1-0.1,1.4-0.3c0.3-0.2,0.5-0.5,0.5-0.9c0-0.2,0-0.4-0.1-0.6c-0.1-0.2-0.2-0.3-0.3-0.5
				c-0.1-0.1-0.5-0.4-1-0.8c-0.7-0.5-1.2-1-1.5-1.5c-0.3-0.5-0.4-1-0.4-1.6c0-0.7,0.2-1.3,0.5-1.8s0.8-0.9,1.4-1.2
				c0.6-0.3,1.3-0.4,2.1-0.4c1.1,0,2.2,0.3,3.1,0.8l-0.9,1.8c-0.8-0.4-1.6-0.6-2.2-0.6c-0.4,0-0.8,0.1-1.1,0.4
				c-0.3,0.2-0.4,0.5-0.4,0.9c0,0.3,0.1,0.6,0.3,0.8c0.2,0.2,0.6,0.6,1.2,0.9c0.6,0.4,1.1,0.9,1.4,1.4
				C-326,315.1-325.8,315.7-325.8,316.3z"/>
			<path class="st6" d="M-318.2,317h-3.7l-1.3,2.7h-2.5l6-11.5h2.9l1.1,11.5h-2.3L-318.2,317z M-318.3,315l-0.2-2.7
				c-0.1-0.7-0.1-1.3-0.1-2V310c-0.2,0.6-0.5,1.3-0.9,2l-1.5,3H-318.3z"/>
		</g>
		<path class="st3" d="M-331,294"/>
		<path class="st7" d="M-302.5,295.5c0.9,0.9,1.5,2.1,1.5,3.5v15v15c0,1.4-0.6,2.6-1.5,3.5s-2.1,1.5-3.5,1.5h-25h-25
			c-1.4,0-2.6-0.6-3.5-1.5L-302.5,295.5z"/>
		<g>
			<path class="st17" d="M-306,295c2.2,0,4,1.8,4,4v30c0,2.2-1.8,4-4,4h-50c-2.2,0-4-1.8-4-4v-30c0-2.2,1.8-4,4-4H-306 M-306,294
				h-50c-2.8,0-5,2.2-5,5v30c0,2.8,2.2,5,5,5h50c2.8,0,5-2.2,5-5v-30C-301,296.2-303.2,294-306,294L-306,294z"/>
		</g>
	</g>
</g>
</svg>
