<?xml version="1.0" encoding="utf-8"?>
<!-- Generator: Adobe Illustrator 20.0.0, SVG Export Plug-In . SVG Version: 6.00 Build 0)  -->
<svg version="1.1" id="Customer_Cars_3" xmlns="http://www.w3.org/2000/svg" xmlns:xlink="http://www.w3.org/1999/xlink" x="0px"
	 y="0px" viewBox="0 0 60 60" style="enable-background:new 0 0 60 60;" xml:space="preserve">
<style type="text/css">
	.Arched_x0020_Green{fill:url(#SVGID_1_);stroke:#FFFFFF;stroke-width:0.25;stroke-miterlimit:1;}
	.st0{fill:#FFFFFF;}
</style>
<linearGradient id="SVGID_1_" gradientUnits="userSpaceOnUse" x1="-20" y1="262.2046" x2="-19.2929" y2="261.4975">
	<stop  offset="0" style="stop-color:#1EAB4B"/>
	<stop  offset="0.9831" style="stop-color:#19361A"/>
</linearGradient>
<path class="st0" d="M50.6,26.8l-4.6-1.7l-0.5,0.3c0.9,1,1.4,2.2,1.6,3.6L50.6,26.8z"/>
<polygon class="st0" points="47.7,33.4 56.6,30.6 53.4,28.3 47.1,30.3 47.1,33.1 "/>
<polygon class="st0" points="49.3,36.4 59.7,35.1 58.2,32.4 47.8,33.7 "/>
<polygon class="st0" points="49.3,36.7 48.9,39.5 59.6,39.8 60,37.1 "/>
<polygon class="st0" points="46.4,42.3 56.3,44.3 58.5,41.8 48.6,39.7 "/>
<polygon class="st0" points="42.1,44.6 50.1,48 53.9,46 45.9,42.5 "/>
<polygon class="st0" points="36.5,46.1 41.7,50.6 46.8,49.2 41.5,44.7 "/>
<polygon class="st0" points="30.2,46.6 32.1,51.7 37.7,51.2 35.9,46.1 "/>
<polygon class="st0" points="22.2,51.2 27.9,51.6 29.6,46.5 23.9,46.1 "/>
<polygon class="st0" points="18.2,44.7 13.2,49.2 18.3,50.5 23.3,46 "/>
<polygon class="st0" points="13.9,42.4 6,45.9 9.9,48 17.8,44.4 "/>
<polygon class="st0" points="11.3,39.6 1.4,41.7 3.8,44.3 13.6,42.1 "/>
<polygon class="st0" points="10.7,36.6 0,37 0.5,39.8 11.2,39.3 "/>
<polygon class="st0" points="12.3,33.6 1.8,32.3 0.4,35 10.9,36.3 "/>
<polygon class="st0" points="12.9,33.2 12.9,30.1 6.7,28.2 3.6,30.5 12.6,33.3 "/>
<path class="st0" d="M14.2,25.1l-4.6,1.7l3.3,2c0.2-1.3,0.8-2.5,1.7-3.5L14.2,25.1z"/>
<path class="st0" d="M44.1,29c0-0.1,0-0.1,0-0.2c0-0.2-0.1-0.4-0.2-0.5c0,0,0-0.1,0-0.1c-0.3-0.6-0.8-1.2-1.4-1.5c0,0-0.1,0-0.1-0.1
	c-0.2-0.1-0.4-0.2-0.7-0.3L39,20.1c-0.4-0.9-1.3-1.5-2.3-1.5H23.3c-1,0-1.9,0.6-2.3,1.5L19,25l-0.2,0.4l-0.4,0.9
	c-0.2,0.1-0.4,0.1-0.6,0.2c0,0,0,0,0,0c-0.6,0.3-1.2,0.9-1.5,1.5c0,0,0,0,0,0c-0.1,0.2-0.2,0.4-0.2,0.6c0,0.1,0,0.1,0,0.2
	c-0.1,0.2-0.1,0.5-0.1,0.7v0.1v0.8v6.5H18v2.1c0,1.2,1,2.2,2.2,2.2c1.2,0,2.1-0.9,2.1-2.1v-2.2h15.2v2.1c0,1.2,1.1,2.2,2.3,2.2
	s2-0.9,2-2.1v-2.2h2.2v-6.2v-1.2v0C44.1,29.4,44.1,29.2,44.1,29z M20.5,33c-1.3,0-2.3-1-2.3-2.3c0-0.1,0-0.2,0-0.4
	c0-0.1,0-0.2,0.1-0.3c0.2-0.7,0.8-1.3,1.5-1.5c0.1,0,0.2,0,0.3-0.1c0.1,0,0.2,0,0.4,0c0.2,0,0.4,0,0.5,0.1c0.2,0.1,0.5,0.2,0.7,0.3
	c0.2,0.1,0.3,0.2,0.4,0.4c0,0,0,0,0,0c0.1,0.1,0.2,0.3,0.3,0.4c0,0,0,0.1,0.1,0.1c0.1,0.1,0.1,0.2,0.2,0.4c0,0,0,0.1,0,0.1
	c0,0.2,0.1,0.3,0.1,0.5C22.7,32,21.7,33,20.5,33z M24.3,26.2h-3.7l2.2-5c0.1-0.3,0.4-0.4,0.7-0.4h12.9c0.3,0,0.6,0.2,0.7,0.4l1,2.3
	l1.2,2.7h-3.2H24.3z M39.4,33c-1.3,0-2.3-1-2.3-2.3c0-0.2,0-0.4,0.1-0.6c0,0,0-0.1,0-0.1c0.1-0.2,0.1-0.4,0.3-0.5c0,0,0,0,0,0
	c0.1-0.2,0.2-0.3,0.4-0.4c0,0,0.1-0.1,0.1-0.1c0.2-0.1,0.3-0.2,0.5-0.3c0,0,0,0,0,0c0.1-0.1,0.3-0.1,0.4-0.1c0.1,0,0.3,0,0.4,0
	c0,0,0,0,0,0c0.2,0,0.3,0,0.5,0.1c0,0,0,0,0,0c0.2,0,0.3,0.1,0.4,0.2c0.3,0.1,0.5,0.3,0.7,0.5c0,0,0,0,0,0c0.1,0.1,0.2,0.2,0.3,0.3
	c0,0,0,0,0,0c0.1,0.1,0.1,0.2,0.2,0.4c0,0,0,0,0,0c0.1,0.1,0.1,0.3,0.1,0.4c0,0.1,0,0.3,0,0.4C41.6,32,40.6,33,39.4,33z"/>
</svg>
