<?xml version="1.0" encoding="utf-8"?>
<!-- Generator: Adobe Illustrator 22.0.1, SVG Export Plug-In . SVG Version: 6.00 Build 0)  -->
<svg version="1.1" id="Checkout_1" xmlns="http://www.w3.org/2000/svg" xmlns:xlink="http://www.w3.org/1999/xlink" x="0px" y="0px"
	 viewBox="0 0 60 60" style="enable-background:new 0 0 60 60;" xml:space="preserve">
<style type="text/css">
	.st0{fill:#999999;}
	.st1{fill:#FFFFFF;}
</style>
<path class="st0" d="M59.7,28.7L45.9,5.2C45.5,4.5,44.6,4,43.7,4H16.2c-0.9,0-1.7,0.5-2.2,1.2L0.3,28.7c-0.5,0.8-0.5,1.7,0,2.5
	l13.7,23.5c0.4,0.8,1.3,1.2,2.2,1.2h27.5c0.9,0,1.7-0.5,2.2-1.2l13.8-23.5C60.1,30.5,60.1,29.5,59.7,28.7z"/>
<g>
	<path class="st1" d="M28.4,33.3c-1.2-0.6-2.9-2-5.5-2.5c0.6-0.8,1.2-2,1.7-3.4c0.3-0.8,0.2-1.5,0.2-2.5c0-0.8,0.1-1.9,0-2.6
		c-0.6-2.2-2-2.8-3.7-2.8c-1.7,0-3.1,0.6-3.7,2.8c-0.2,0.7,0,1.8,0,2.6c0,1-0.1,1.7,0.3,2.5c0.5,1.4,1,2.6,1.7,3.4
		c-2.5,0.5-4.3,2-5.4,2.5c-2.4,1.2-2.4,2.5-2.4,2.5v0.5c0,0,0,0,0,0c0,0,0,0,0,0v1.7c0,0.4,0.3,0.7,0.7,0.7h17.9
		c0.4,0,0.7-0.3,0.7-0.7v-1.7c0,0,0,0,0,0c0,0,0,0,0,0v-0.4C30.8,35.8,30.8,34.5,28.4,33.3z"/>
	<path class="st1" d="M48.1,35.1H34.6c-0.4,0-0.7,0.3-0.7,0.7V37c0,0.4,0.3,0.7,0.7,0.7h13.5c0.4,0,0.7-0.3,0.7-0.7v-1.2
		C48.8,35.4,48.5,35.1,48.1,35.1z"/>
	<path class="st1" d="M48.1,20.5H34.6c-0.4,0-0.7,0.3-0.7,0.7v1.2c0,0.4,0.3,0.7,0.7,0.7h13.5c0.4,0,0.7-0.3,0.7-0.7v-1.2
		C48.8,20.8,48.5,20.5,48.1,20.5z"/>
	<path class="st1" d="M48.1,27.8H34.6c-0.4,0-0.7,0.3-0.7,0.7v1.2c0,0.4,0.3,0.7,0.7,0.7h13.5c0.4,0,0.7-0.3,0.7-0.7v-1.2
		C48.8,28.1,48.5,27.8,48.1,27.8z"/>
</g>
</svg>
