<?xml version="1.0" encoding="utf-8"?>
<!-- Generator: Adobe Illustrator 20.1.0, SVG Export Plug-In . SVG Version: 6.00 Build 0)  -->
<svg version="1.1" id="Layer_84" xmlns="http://www.w3.org/2000/svg" xmlns:xlink="http://www.w3.org/1999/xlink" x="0px" y="0px"
	 viewBox="0 0 60 60" style="enable-background:new 0 0 60 60;" xml:space="preserve">
<style type="text/css">
	.Arched_x0020_Green{fill:url(#SVGID_1_);stroke:#FFFFFF;stroke-width:0.25;stroke-miterlimit:1;}
	.st0{fill:#FFFFFF;}
	.st1{fill:#171715;}
	.st2{fill:#FFAC35;}
</style>
<linearGradient id="SVGID_1_" gradientUnits="userSpaceOnUse" x1="-20" y1="262.2046" x2="-19.2929" y2="261.4975">
	<stop  offset="0" style="stop-color:#1EAB4B"/>
	<stop  offset="0.9831" style="stop-color:#19361A"/>
</linearGradient>
<g>
	<path class="st0" d="M45.55,36.73l-1.79-2.76c-0.55-0.85-0.84-1.84-0.84-2.86V19.5c0-4.63,0.34-14.5-12.89-14.5
		c-10.76,0-14.09,5.73-15.12,9.28c-0.41,1.41,0.55,2.84,2.01,2.99l4.17,0.43c0.98,0.1,1.92-0.42,2.35-1.31
		c0.81-1.69,2.22-4.21,6.57-4.21c1.68,0,4.05,0.71,4.05,2.8c0,3.02,0,4.46,0,4.46c0.01,0.63-0.5,1.15-1.13,1.15h-4.08
		c-3.08,0-14.76,1.58-14.76,13.26c0,11.69,12.4,10.34,13.23,10.15c1.54-0.36,4.41-1.41,7.12-3.99c0.45-0.43,1.18-0.4,1.57,0.09
		l2.18,2.7c0.85,1.05,2.41,1.16,3.4,0.24l3.59-3.34C46,38.93,46.16,37.68,45.55,36.73L45.55,36.73z M27.61,36.08
		c-4.15,0-4.03-3.75-3.08-5.54c0.9-1.67,3.26-4.62,9.62-4.83l0.06,3.1c0.04,2.31-1.02,4.52-2.91,5.85
		C30.14,35.49,28.87,36.08,27.61,36.08L27.61,36.08z M27.61,36.08"/>
	<path class="st0" d="M0.25,46.75c-0.63-0.57,0.06-1.58,0.82-1.2c5.37,2.64,15.47,6.73,26.63,6.73c11.41,0,20.96-2.73,25.76-4.41
		c0.78-0.27,1.34,0.75,0.7,1.27C50.35,52.23,42.16,57,28,57C13.89,57,4.72,50.79,0.25,46.75L0.25,46.75z M0.25,46.75"/>
	<path class="st0" d="M48.43,45.09c1.49-1.1,5.19-3,10.71-1.34C59.65,43.9,60,44.37,60,44.9c0.01,1.81-0.38,6.07-3.93,9.61
		c-0.25,0.25-0.66,0-0.57-0.33c0.61-2.23,1.84-7.02,1.45-7.69c-0.45-0.77-6.05-0.8-8.32-0.79C48.3,45.71,48.16,45.28,48.43,45.09
		L48.43,45.09z M48.43,45.09"/>
</g>
<g>
	<path class="st1" d="M45.55,34.73l-1.79-2.76c-0.55-0.85-0.84-1.84-0.84-2.86V17.5c0-4.63,0.34-14.5-12.89-14.5
		C19.26,3,15.93,8.73,14.9,12.28c-0.41,1.41,0.55,2.84,2.01,2.99l4.17,0.43c0.98,0.1,1.92-0.42,2.35-1.31
		c0.81-1.69,2.22-4.21,6.57-4.21c1.68,0,4.05,0.71,4.05,2.8c0,3.02,0,4.46,0,4.46c0.01,0.63-0.5,1.15-1.13,1.15h-4.08
		c-3.08,0-14.76,1.58-14.76,13.26c0,11.69,12.4,10.34,13.23,10.15c1.54-0.36,4.41-1.41,7.12-3.99c0.45-0.43,1.18-0.4,1.57,0.09
		l2.18,2.7c0.85,1.05,2.41,1.16,3.4,0.24l3.59-3.34C46,36.93,46.16,35.68,45.55,34.73L45.55,34.73z M27.61,34.08
		c-4.15,0-4.03-3.75-3.08-5.54c0.9-1.67,3.26-4.62,9.62-4.83l0.06,3.1c0.04,2.31-1.02,4.52-2.91,5.85
		C30.14,33.49,28.87,34.08,27.61,34.08L27.61,34.08z M27.61,34.08"/>
	<path class="st2" d="M0.25,44.75c-0.63-0.57,0.06-1.58,0.82-1.2c5.37,2.64,15.47,6.73,26.63,6.73c11.41,0,20.96-2.73,25.76-4.41
		c0.78-0.27,1.34,0.75,0.7,1.27C50.35,50.22,42.16,55,28,55C13.89,55,4.72,48.79,0.25,44.75L0.25,44.75z M0.25,44.75"/>
	<path class="st2" d="M48.43,43.09c1.49-1.1,5.19-3,10.71-1.34C59.65,41.9,60,42.37,60,42.9c0.01,1.81-0.38,6.07-3.93,9.61
		c-0.25,0.25-0.66,0-0.57-0.33c0.61-2.23,1.84-7.02,1.45-7.69c-0.45-0.77-6.05-0.8-8.32-0.79C48.3,43.71,48.16,43.28,48.43,43.09
		L48.43,43.09z M48.43,43.09"/>
</g>
<g>
</g>
<g>
</g>
<g>
</g>
<g>
</g>
<g>
</g>
<g>
</g>
</svg>
