<?xml version="1.0" encoding="utf-8"?>
<!-- Generator: Adobe Illustrator 19.2.1, SVG Export Plug-In . SVG Version: 6.00 Build 0)  -->
<svg version="1.1" id="IG" xmlns="http://www.w3.org/2000/svg" xmlns:xlink="http://www.w3.org/1999/xlink" x="0px" y="0px"
	 viewBox="0 0 60 60" style="enable-background:new 0 0 60 60;" xml:space="preserve">
<style type="text/css">
	.Arched_x0020_Green{fill:url(#SVGID_1_);stroke:#FFFFFF;stroke-width:0.25;stroke-miterlimit:1;}
	.st0{fill:#757575;}
</style>
<linearGradient id="SVGID_1_" gradientUnits="userSpaceOnUse" x1="-20" y1="262.2046" x2="-19.2929" y2="261.4975">
	<stop  offset="0" style="stop-color:#1EAB4B"/>
	<stop  offset="0.9831" style="stop-color:#19361A"/>
</linearGradient>
<g id="XMLID_28_">
	<g id="XMLID_34_">
		<circle id="XMLID_35_" class="st0" cx="29.9" cy="29.9" r="12.5"/>
	</g>
	<g id="XMLID_29_">
		<path id="XMLID_31_" class="st0" d="M17.7,17.6c3.3-3.3,7.7-5.1,12.4-5.1s9.1,1.8,12.4,5.2c2.1,2.1,3.6,4.6,4.4,7.4H60V7.3
			C60,3.2,56.8,0,52.7,0h-45C3.5,0,0,3.2,0,7.3V25h13.3C14.1,22.2,15.6,19.7,17.7,17.6z M55,13c0,1.1-0.9,2-2,2h-6c-1.1,0-2-0.9-2-2
			V7c0-1.1,0.9-2,2-2h6c1.1,0,2,0.9,2,2V13z"/>
		<path id="XMLID_30_" class="st0" d="M42.5,42.3c-3.3,3.3-7.7,5.1-12.4,5.1s-9.1-1.8-12.4-5.1c-3.3-3.3-5.1-7.8-5.1-12.3H0v22.3
			C0,56.5,3.5,60,7.7,60h45c4.1,0,7.3-3.5,7.3-7.7V30H47.6C47.6,34.5,45.8,39,42.5,42.3z"/>
	</g>
</g>
<g>
</g>
<g>
</g>
<g>
</g>
<g>
</g>
<g>
</g>
<g>
</g>
</svg>
