<?xml version="1.0" encoding="utf-8"?>
<!-- Generator: Adobe Illustrator 20.0.0, SVG Export Plug-In . SVG Version: 6.00 Build 0)  -->
<svg version="1.1" id="HEX_Resources_Gallery" xmlns="http://www.w3.org/2000/svg" xmlns:xlink="http://www.w3.org/1999/xlink"
	 x="0px" y="0px" viewBox="0 0 60 60" style="enable-background:new 0 0 60 60;" xml:space="preserve">
<style type="text/css">
	.Arched_x0020_Green{fill:url(#SVGID_1_);stroke:#FFFFFF;stroke-width:0.25;stroke-miterlimit:1;}
	.st0{fill:#FFFFFF;}
	.st1{opacity:0.25;fill:#FFFFFF;}
	.st2{fill-rule:evenodd;clip-rule:evenodd;fill:#474747;}
</style>
<linearGradient id="SVGID_1_" gradientUnits="userSpaceOnUse" x1="-20" y1="262.2046" x2="-19.2929" y2="261.4975">
	<stop  offset="0" style="stop-color:#1EAB4B"/>
	<stop  offset="0.9831" style="stop-color:#19361A"/>
</linearGradient>
<path class="st0" d="M59.7,28.7L45.9,5.2C45.5,4.5,44.6,4,43.7,4H16.2c-0.9,0-1.7,0.5-2.2,1.2L0.3,28.7c-0.5,0.8-0.5,1.7,0,2.5
	l13.7,23.5c0.4,0.8,1.3,1.2,2.2,1.2h27.5c0.9,0,1.7-0.5,2.2-1.2l13.8-23.5C60.1,30.5,60.1,29.5,59.7,28.7z M44.4,54.7H15.6L1.1,30
	L15.6,5.3h28.9L58.9,30L44.4,54.7z"/>
<polygon class="st1" points="15.6,5.3 1.1,30 15.6,54.7 44.4,54.7 58.9,30 44.4,5.3 "/>
<path class="st2" d="M23.6,30.8c-1,0-1.7-0.8-1.7-1.7c0-0.9,0.8-1.7,1.7-1.7s1.7,0.8,1.7,1.7C25.3,30,24.5,30.8,23.6,30.8z
	 M20.1,34.4l2.6-1.9l2.6,1.9l5.2-3.6l5.2,3.6v3.4H20.1V34.4z M19.1,38.8h17.7V26.4H19.1V38.8z M38.8,26.4v12.5
	c0,1.1-0.9,2.1-2.1,2.1H19.1c-1.1,0-2.1-0.9-2.1-2.1V26.4c0-1.1,0.9-2.1,2.1-2.1h17.7C37.9,24.3,38.8,25.2,38.8,26.4z M30.8,22.3
	c0.9,0,1.5,0.8,1.5,0.9h-3C29.2,23.1,29.9,22.3,30.8,22.3z M41.2,32.6h-1.3v-2.1h1v-9.4H27.4v2.1h-2.1v-2c0-1.3,0.8-2.2,2.1-2.2
	h13.5c1.3,0,2.1,0.8,2.1,2.2v9.3C43,32,42.5,32.6,41.2,32.6z"/>
</svg>
