<?xml version="1.0" encoding="utf-8"?>
<!-- Generator: Adobe Illustrator 22.0.1, SVG Export Plug-In . SVG Version: 6.00 Build 0)  -->
<svg version="1.1" id="Checkout_1" xmlns="http://www.w3.org/2000/svg" xmlns:xlink="http://www.w3.org/1999/xlink" x="0px" y="0px"
	 viewBox="0 0 60 60" style="enable-background:new 0 0 60 60;" xml:space="preserve">
<style type="text/css">
	.st0{fill:#666666;}
	.st1{fill:#88E333;}
</style>
<path class="st0" d="M59.7,28.7L45.9,5.2C45.5,4.5,44.6,4,43.7,4H16.2c-0.9,0-1.7,0.5-2.2,1.2L0.3,28.7c-0.5,0.8-0.5,1.7,0,2.5
	l13.7,23.5c0.4,0.8,1.3,1.2,2.2,1.2h27.5c0.9,0,1.7-0.5,2.2-1.2l13.8-23.5C60.1,30.5,60.1,29.5,59.7,28.7z"/>
<g>
	<path class="st1" d="M42,24.5H22.8c-1.1,0-1.9,0.9-1.9,1.9V40c0,1.1,0.9,1.9,1.9,1.9h2.6c-0.1-0.4-0.1-0.8-0.1-1.2
		c0-0.4,0-0.9,0.1-1.3h-2.1V33h18.2v6.5h-2.1c0.1,0.4,0.1,0.9,0.1,1.3c0,0.4,0,0.8-0.1,1.2H42c1.1,0,1.9-0.9,1.9-1.9V26.5
		C44,25.4,43.1,24.5,42,24.5L42,24.5z M41.5,29H23.4v-2h18.2V29z M41.5,29"/>
	<path class="st1" d="M32.4,35.8c-2.7,0-5,2.2-5,5c0,2.7,2.2,5,5,5c2.7,0,5-2.2,5-5C37.4,38,35.2,35.8,32.4,35.8L32.4,35.8z
		 M33.9,42.7c-0.2,0.3-0.5,0.4-0.8,0.5c-0.1,0-0.2,0.1-0.2,0.3c0,0.1,0,0.3,0,0.4c0,0.1-0.1,0.2-0.2,0.2c-0.2,0-0.3,0-0.5,0
		C32,44.2,32,44.1,32,44v-0.3c0-0.2,0-0.2-0.2-0.3c-0.3,0-0.6-0.1-0.8-0.2c-0.2-0.1-0.2-0.2-0.2-0.4c0-0.2,0.1-0.3,0.1-0.5
		c0.1-0.2,0.1-0.2,0.3-0.1c0.3,0.2,0.6,0.2,0.9,0.3c0.2,0,0.4,0,0.6-0.1c0.4-0.2,0.4-0.6,0.1-0.8c-0.1-0.1-0.2-0.2-0.3-0.2
		c-0.3-0.1-0.7-0.2-1-0.4c-0.5-0.3-0.8-0.7-0.8-1.3c0-0.7,0.4-1.1,1-1.3c0.3-0.1,0.3-0.1,0.3-0.4v-0.3c0-0.2,0-0.2,0.2-0.2h0.2
		c0.4,0,0.4,0,0.4,0.4c0,0.3,0,0.3,0.3,0.3c0.2,0,0.4,0.1,0.7,0.2c0.1,0.1,0.2,0.1,0.1,0.3c-0.1,0.2-0.1,0.4-0.2,0.6
		c-0.1,0.2-0.1,0.2-0.3,0.1c-0.3-0.2-0.7-0.2-1.1-0.2c-0.1,0-0.2,0-0.3,0.1c-0.3,0.1-0.4,0.5-0.1,0.7c0.1,0.1,0.3,0.2,0.5,0.3
		c0.3,0.1,0.6,0.2,0.8,0.4C34.2,41,34.5,42,33.9,42.7L33.9,42.7z M33.9,42.7"/>
	<path class="st1" d="M37.9,22.8c0.4,0,0.6-0.6,0.2-0.8l-15.8-7c-1-0.4-2.1,0-2.5,1l-5.5,12.4c-0.4,1,0,2.1,1,2.5l3.2,1.4
		c0.4,0.2,0.9-0.1,0.9-0.6v-5.3c0-2,1.6-3.7,3.7-3.7L37.9,22.8L37.9,22.8z M37.9,22.8"/>
</g>
</svg>
