<?xml version="1.0" encoding="utf-8"?>
<!-- Generator: Adobe Illustrator 19.2.1, SVG Export Plug-In . SVG Version: 6.00 Build 0)  -->
<svg version="1.1" id="Map" xmlns="http://www.w3.org/2000/svg" xmlns:xlink="http://www.w3.org/1999/xlink" x="0px" y="0px"
	 viewBox="0 0 60 60" style="enable-background:new 0 0 60 60;" xml:space="preserve">
<style type="text/css">
	.Arched_x0020_Green{fill:url(#SVGID_1_);stroke:#FFFFFF;stroke-width:0.25;stroke-miterlimit:1;}
	.st0{fill:#88E333;}
</style>
<linearGradient id="SVGID_1_" gradientUnits="userSpaceOnUse" x1="-20" y1="262.2046" x2="-19.2929" y2="261.4975">
	<stop  offset="0" style="stop-color:#1EAB4B"/>
	<stop  offset="0.9831" style="stop-color:#19361A"/>
</linearGradient>
<g id="XMLID_6_">
	<path class="st0" d="M27.4,27.7H9.6c-0.7,0-1.3,0.5-1.5,1.2L4.7,40.7l23.9,2.6l1.9-9C29.3,32.3,28.2,30,27.4,27.7L27.4,27.7z
		 M27.4,27.7"/>
	<path class="st0" d="M49.8,45.7l7.2,0.8L54.8,39c-0.3,0.4-0.6,0.8-0.9,1.2C52.5,42.3,51.1,44.1,49.8,45.7L49.8,45.7z M49.8,45.7"/>
	<path class="st0" d="M34.2,40.2l-0.8,3.7l3.9,0.4C36.3,43.1,35.3,41.7,34.2,40.2C34.2,40.2,34.2,40.2,34.2,40.2L34.2,40.2z
		 M34.2,40.2"/>
	<path class="st0" d="M0.1,56.7c-0.1,0.5,0,1,0.3,1.4c0.3,0.4,0.8,0.6,1.3,0.6h23.8l2.2-10.6L3.3,45.4L0.1,56.7z M0.1,56.7"/>
	<path class="st0" d="M58.4,51.4l-26-2.8l-2.1,10.1h28.1c0.9,0,1.6-0.7,1.6-1.6c0-0.2,0-0.4-0.1-0.5L58.4,51.4z M58.4,51.4"/>
	<path id="XMLID_7_" class="st0" d="M43.4,45.4c0.2,0.2,0.4,0.3,0.7,0.3c0.3,0,0.5-0.1,0.7-0.3c1.5-1.6,4.3-4.8,7.2-8.8
		c3.6-5.1,8-12.7,8-19.4c0-8.8-7.1-15.9-15.9-15.9c-8.8,0-15.9,7.1-15.9,15.9c0,6.7,4.3,14.2,8,19.4C39.1,40.6,42,43.8,43.4,45.4
		L43.4,45.4z M44.1,7.3c5.4,0,9.7,4.4,9.7,9.7c0,5.3-4.4,9.7-9.7,9.7c-5.3,0-9.7-4.4-9.7-9.7C34.4,11.6,38.8,7.3,44.1,7.3L44.1,7.3z
		 M44.1,7.3"/>
</g>
<g>
</g>
<g>
</g>
<g>
</g>
<g>
</g>
<g>
</g>
<g>
</g>
</svg>
