<?xml version="1.0" encoding="utf-8"?>
<!-- Generator: Adobe Illustrator 19.2.1, SVG Export Plug-In . SVG Version: 6.00 Build 0)  -->
<svg version="1.1" id="Small_HEX" xmlns="http://www.w3.org/2000/svg" xmlns:xlink="http://www.w3.org/1999/xlink" x="0px" y="0px"
	 viewBox="0 0 60 60" style="enable-background:new 0 0 60 60;" xml:space="preserve">
<style type="text/css">
	.Arched_x0020_Green{fill:url(#SVGID_1_);stroke:#FFFFFF;stroke-width:0.25;stroke-miterlimit:1;}
	.st0{opacity:0.5;fill:#1B1B1B;}
	.st1{fill-rule:evenodd;clip-rule:evenodd;fill:#88E333;}
	.st2{fill:#888888;}
</style>
<linearGradient id="SVGID_1_" gradientUnits="userSpaceOnUse" x1="-20" y1="262.2046" x2="-19.2929" y2="261.4975">
	<stop  offset="0" style="stop-color:#1EAB4B"/>
	<stop  offset="0.9831" style="stop-color:#19361A"/>
</linearGradient>
<polygon class="st0" points="16.2,6.5 2.5,30 16.2,53.5 43.7,53.5 57.5,30 43.7,6.5 "/>
<polygon class="st1" points="41.8,30 25.6,14.1 22.1,17.6 33.8,29.2 34.8,30.2 33.8,31.2 22.3,42.6 25.6,45.9 41.7,30 "/>
<path class="st2" d="M43.7,6.5L57.5,30L43.7,53.5H16.2L2.5,30L16.2,6.5H43.7 M43.7,4H16.2c-0.9,0-1.7,0.5-2.2,1.2L0.3,28.7
	c-0.5,0.8-0.5,1.7,0,2.5l13.7,23.5c0.4,0.8,1.3,1.2,2.2,1.2h27.5c0.9,0,1.7-0.5,2.2-1.2l13.8-23.5c0.5-0.8,0.5-1.7,0-2.5L45.9,5.2
	C45.5,4.5,44.6,4,43.7,4L43.7,4z"/>
<g>
</g>
<g>
</g>
<g>
</g>
<g>
</g>
<g>
</g>
<g>
</g>
</svg>
