<?xml version="1.0" encoding="utf-8"?>
<!-- Generator: Adobe Illustrator 19.2.1, SVG Export Plug-In . SVG Version: 6.00 Build 0)  -->
<svg version="1.1" id="News" xmlns="http://www.w3.org/2000/svg" xmlns:xlink="http://www.w3.org/1999/xlink" x="0px" y="0px"
	 viewBox="0 0 60 60" style="enable-background:new 0 0 60 60;" xml:space="preserve">
<style type="text/css">
	.Arched_x0020_Green{fill:url(#SVGID_1_);stroke:#FFFFFF;stroke-width:0.25;stroke-miterlimit:1;}
	.st0{fill-rule:evenodd;clip-rule:evenodd;fill:#FFFFFF;}
</style>
<linearGradient id="SVGID_1_" gradientUnits="userSpaceOnUse" x1="-20" y1="262.2046" x2="-19.2929" y2="261.4975">
	<stop  offset="0" style="stop-color:#1EAB4B"/>
	<stop  offset="0.9831" style="stop-color:#19361A"/>
</linearGradient>
<path class="st0" d="M0,46v2.7c0,4.1,1.7,5.8,5.8,5.8h48.4c4.1,0,5.8-1.7,5.8-5.8V46c0,4.1-1.7,5.8-5.8,5.8H5.8
	C1.7,51.8,0,50.1,0,46z M0,51.5v2.7C0,58.3,1.7,60,5.8,60h48.4c4.1,0,5.8-1.7,5.8-5.8v-2.7c0,4.1-1.7,5.8-5.8,5.8H5.8
	C1.7,57.3,0,55.6,0,51.5z M0,5.8v37.5c0,4.1,1.7,5.8,5.8,5.8h48.4c4.1,0,5.8-1.7,5.8-5.8V5.8C60,1.7,58.3,0,54.2,0h-5.1v6.2
	c1.6,1,2.7,2.7,2.7,4.7c0,3-2.5,5.5-5.5,5.5s-5.5-2.5-5.5-5.5c0-2,1.1-3.8,2.7-4.7V0H16.4v6.2c1.6,1,2.7,2.7,2.7,4.7
	c0,3-2.5,5.5-5.5,5.5s-5.5-2.5-5.5-5.5c0-2,1.1-3.8,2.7-4.7V0H5.8C1.7,0,0,1.7,0,5.8z"/>
</svg>
