<?xml version="1.0" encoding="utf-8"?>
<!-- Generator: Adobe Illustrator 20.0.0, SVG Export Plug-In . SVG Version: 6.00 Build 0)  -->
<svg version="1.1" id="Output_Shots" xmlns="http://www.w3.org/2000/svg" xmlns:xlink="http://www.w3.org/1999/xlink" x="0px"
	 y="0px" viewBox="0 0 60 60" style="enable-background:new 0 0 60 60;" xml:space="preserve">
<style type="text/css">
	.st0{fill:#FFFFFF;}
</style>
<g>
	<path class="st0" d="M58.1,33.6h-6.2c0.1,0.6,0.1,1.2,0.1,1.9c0,0.6,0,1.3-0.1,1.9h6.2c1.1,0,1.9-0.8,1.9-1.9
		C60,34.4,59.1,33.6,58.1,33.6z"/>
	<path class="st0" d="M56.7,26.4c0.9-0.4,1.5-1.5,1.1-2.5c-0.4-1-1.5-1.5-2.5-1.1l-5.7,2.4c0.6,1.1,1.1,2.3,1.5,3.5L56.7,26.4z"/>
	<path class="st0" d="M46.8,21.3l4.4-4.4c0.8-0.8,0.8-1.9,0-2.7c-0.7-0.7-1.8-0.7-2.6,0.1l-4.4,4.4C45.1,19.5,46,20.4,46.8,21.3z"/>
	<path class="st0" d="M42.5,10.2c0.4-1,0-2.1-1-2.5c-1-0.4-2.1,0.1-2.5,1l-2.3,5.8c1.2,0.4,2.4,0.9,3.5,1.4L42.5,10.2z"/>
	<path class="st0" d="M31.9,13.6V7.4c0-1.1-0.8-1.9-1.9-1.9c-1.1,0-1.9,0.8-1.9,1.9v6.2c0.6-0.1,1.2-0.1,1.9-0.1
		C30.6,13.5,31.3,13.5,31.9,13.6z"/>
	<path class="st0" d="M21,8.8c-0.4-1-1.5-1.4-2.5-1c-1,0.4-1.4,1.5-1,2.5l2.4,5.7c1.1-0.6,2.3-1.1,3.5-1.4L21,8.8z"/>
	<path class="st0" d="M15.9,18.7l-4.4-4.4c-0.7-0.7-2-0.8-2.7,0C8,15,8,16.2,8.8,17l4.4,4.4C14,20.4,14.9,19.5,15.9,18.7z"/>
	<path class="st0" d="M4.8,23c-1-0.4-2.1,0-2.5,1c-0.4,1,0.1,2.1,1,2.5L9,28.8c0.4-1.2,0.9-2.4,1.5-3.5L4.8,23z"/>
	<path class="st0" d="M8.1,33.6H1.9c-1.1,0-1.9,0.8-1.9,1.9c0,1.1,0.9,1.9,1.9,1.9h6.2C8.1,36.8,8,36.1,8,35.5
		C8,34.9,8.1,34.2,8.1,33.6z"/>
	<g>
		<path class="st0" d="M43.5,29.9V22v0h-7.9L30,16.5L24.4,22h-7.9v0h0v7.9l-5.4,5.4L11,35.5l5.6,5.6v7.9h7.9l5.6,5.5l5.6-5.5h7.9v0
			V41l5.5-5.6l-0.1-0.1L43.5,29.9z M20.1,33.5c0.1-0.6,0.3-1.1,0.5-1.7c1.5-3.7,5.1-6.4,9.4-6.4c1.4,0,2.7,0.3,3.9,0.8
			c1.2,0.5,2.3,1.3,3.2,2.2c1.4,1.4,2.3,3.1,2.7,5c0.1,0.6,0.2,1.3,0.2,2c0,0,0,0.1,0,0.1h-3.4c0,0,0-0.1,0-0.1
			c-0.1-3.6-3-6.6-6.7-6.6c-3.7,0-6.7,3-6.7,6.6c0,0,0,0.1,0,0.1h-3.4c0,0,0-0.1,0-0.1C19.9,34.7,20,34.1,20.1,33.5z"/>
	</g>
</g>
</svg>
