<?xml version="1.0" encoding="utf-8"?>
<!-- Generator: Adobe Illustrator 20.0.0, SVG Export Plug-In . SVG Version: 6.00 Build 0)  -->
<svg version="1.1" id="Whats_Included" xmlns="http://www.w3.org/2000/svg" xmlns:xlink="http://www.w3.org/1999/xlink" x="0px"
	 y="0px" viewBox="0 0 60 60" style="enable-background:new 0 0 60 60;" xml:space="preserve">
<style type="text/css">
	.Arched_x0020_Green{fill:url(#SVGID_1_);stroke:#FFFFFF;stroke-width:0.25;stroke-miterlimit:1;}
	.st0{fill:#FFFFFF;}
</style>
<linearGradient id="SVGID_1_" gradientUnits="userSpaceOnUse" x1="-20" y1="262.2046" x2="-19.2929" y2="261.4975">
	<stop  offset="0" style="stop-color:#1EAB4B"/>
	<stop  offset="0.9831" style="stop-color:#19361A"/>
</linearGradient>
<path class="st0" d="M58.8,11.5l-6.6-8.2C51.6,2.5,50.6,2,49.6,2H15.7c-1,0-1.9,0.5-2.6,1.2l-6.6,8.2c-0.7,0.9-1.2,2.5-1.2,3.7v6
	c0.5-0.8,1.3-1.4,2.2-1.7c0.1-0.7,0.3-1.4,0.6-2c0.6-1.1,1.6-1.8,2.8-2.1c0.4-0.1,0.8-0.2,1.2-0.2c1.6,0,3,0.8,3.8,2
	c0.2,0,0.5-0.1,0.7-0.1c0.8,0,1.5,0.2,2.1,0.6l3.6-0.9c0.5-0.1,0.9-0.2,1.4-0.2c2.5,0,4.7,1.7,5.3,4.1l7.1,27.4
	c0.4,1.4,0.2,2.9-0.6,4.2c-0.7,1.3-1.9,2.2-3.4,2.5l-3.2,0.8h26.7c2.3,0,4.1-1.8,4.1-4.1V15C60,13.9,59.4,12.3,58.8,11.5L58.8,11.5z
	 M8.8,11.4l2.2-2.7h14.8l1.5-2.4H12.9l1.6-2c0.3-0.4,0.8-0.6,1.3-0.6h33.9c0.5,0,1,0.2,1.3,0.6l1.6,2H37.9l0.8,2.4h15.7l2.2,2.7H8.8
	z M9.4,21.5l-0.9,0.2c-1,0.3-1.6,1.3-1.3,2.2l0,0c0.3,1,1.3,1.6,2.2,1.3l7.8-2c1-0.3,1.6-1.3,1.3-2.2l0,0c-0.3-1-1.3-1.6-2.2-1.3
	l-0.9,0.2c-0.5,0.1-1-0.2-1.1-0.7l0,0c-0.3-1.1-1.5-1.8-2.6-1.5l0,0c-1.1,0.3-1.8,1.5-1.5,2.6l0,0C10.2,20.8,9.9,21.3,9.4,21.5
	L9.4,21.5z M11.9,18.9c0.5-0.1,1,0.2,1.1,0.7c0.1,0.5-0.2,1-0.7,1.1c-0.5,0.1-1-0.2-1.1-0.7C11.1,19.5,11.4,19,11.9,18.9L11.9,18.9z
	 M23.4,47c0.1,0.3-0.1,0.7-0.4,0.7l-11.3,2.9c-0.3,0.1-0.7-0.1-0.7-0.4l-0.2-0.6c-0.1-0.3,0.1-0.7,0.4-0.7L22.5,46
	c0.3-0.1,0.7,0.1,0.7,0.4L23.4,47z M24.8,35.2l0.2,0.6c0.1,0.3-0.1,0.7-0.4,0.7L9,40.6c-0.3,0.1-0.7-0.1-0.7-0.4l-0.2-0.6
	c-0.1-0.3,0.1-0.7,0.4-0.7l15.5-4C24.3,34.7,24.7,34.9,24.8,35.2L24.8,35.2z M23.1,31.2l-15.5,4c-0.3,0.1-0.7-0.1-0.7-0.4l-0.2-0.6
	c-0.1-0.3,0.1-0.7,0.4-0.7l15.5-4c0.3-0.1,0.7,0.1,0.7,0.4l0.2,0.6C23.6,30.8,23.4,31.2,23.1,31.2L23.1,31.2z M22.7,42.1l-12.5,3.3
	c-0.3,0.1-0.7-0.1-0.7-0.4l-0.2-0.6c-0.1-0.3,0.1-0.7,0.4-0.7l12.5-3.3c0.3-0.1,0.7,0.1,0.7,0.4l0.2,0.6
	C23.3,41.7,23.1,42,22.7,42.1L22.7,42.1z M34,48.7l-7.1-27.4c-0.4-1.6-2.1-2.6-3.7-2.2l-3.6,0.9c0.1,0.2,0.2,0.4,0.2,0.6
	c0.4,1.7-0.5,3.3-2.2,3.8l-7.7,2c-1.6,0.4-3.2-0.4-3.8-1.9c-0.1-0.3-0.2-0.6-0.2-0.9l-3.6,0.9c-1.6,0.4-2.6,2.1-2.2,3.7l7.1,27.4
	c0.4,1.6,2.1,2.6,3.7,2.2l20.8-5.4C33.4,52,34.4,50.4,34,48.7L34,48.7z M10.2,54.9L4,31.1l20.8-5.4L31,49.5L10.2,54.9z M10.2,54.9"
	/>
</svg>
