<?xml version="1.0" encoding="utf-8"?>
<!-- Generator: Adobe Illustrator 19.2.1, SVG Export Plug-In . SVG Version: 6.00 Build 0)  -->
<svg version="1.1" id="IG" xmlns="http://www.w3.org/2000/svg" xmlns:xlink="http://www.w3.org/1999/xlink" x="0px" y="0px"
	 viewBox="0 0 60 60" style="enable-background:new 0 0 60 60;" xml:space="preserve">
<style type="text/css">
	.Arched_x0020_Green{fill:url(#SVGID_1_);stroke:#FFFFFF;stroke-width:0.25;stroke-miterlimit:1;}
	.st0{fill:#EEDC31;}
	.st1{fill:#7FDB6A;}
	.st2{fill:#966842;}
	.st3{fill:#F44747;}
	.st4{fill:#0E68CE;}
</style>
<linearGradient id="SVGID_1_" gradientUnits="userSpaceOnUse" x1="-20" y1="262.2046" x2="-19.2929" y2="261.4975">
	<stop  offset="0" style="stop-color:#1EAB4B"/>
	<stop  offset="0.9831" style="stop-color:#19361A"/>
</linearGradient>
<g>
	<path class="st0" d="M24.1,18.9v22.1c1.7,0.9,3.7,1.5,5.8,1.5c2.2,0,4.3-0.6,6.1-1.6V19c-1.8-1-3.9-1.6-6.1-1.6
		C27.8,17.4,25.8,17.9,24.1,18.9z"/>
	<path class="st1" d="M42.4,29.9c0-4.7-2.6-8.8-6.4-10.9v21.8C39.8,38.7,42.4,34.6,42.4,29.9z"/>
	<path class="st2" d="M12,0H7.7C3.5,0,0,3.2,0,7.3V25h12V0z"/>
	<path class="st0" d="M30.1,12.4c2.1,0,4.1,0.4,5.9,1.1V0H24.1v13.5C26,12.8,28,12.4,30.1,12.4z"/>
	<path class="st1" d="M42.5,17.6c2.1,2.1,3.6,4.6,4.4,7.4H48V15h-1c-1.1,0-2-0.9-2-2V7c0-1.1,0.9-2,2-2h1V0H36v13.5
		C38.4,14.3,40.6,15.7,42.5,17.6z"/>
	<path class="st2" d="M0,30v22.3C0,56.5,3.5,60,7.7,60H12V30H0z"/>
	<path class="st0" d="M30.1,47.4c-2.1,0-4.1-0.4-6-1.1V60H36V46.4C34.1,47,32.1,47.4,30.1,47.4z"/>
	<g>
		<path class="st3" d="M17.4,29.9c0,4.8,2.7,8.9,6.6,11c0,0,0.1,0,0.1,0V18.9c0,0-0.1,0-0.1,0C20.1,21,17.4,25.1,17.4,29.9z"/>
		<path class="st3" d="M24,0H12v25h1.3c0.8-2.8,2.3-5.3,4.4-7.4c1.8-1.8,3.9-3.2,6.3-4c0,0,0.1,0,0.1,0L24,0L24,0z"/>
		<path class="st3" d="M17.7,42.3c-3.3-3.3-5.1-7.8-5.1-12.3H12v30H24h0.1V46.4c0,0-0.1,0-0.1,0C21.7,45.5,19.5,44.1,17.7,42.3z"/>
	</g>
	<path class="st1" d="M47.6,30c0,4.5-1.8,9-5.1,12.3c-1.8,1.8-4,3.2-6.4,4.1V60H48V30H47.6z"/>
	<g>
		<path class="st4" d="M52.7,0h-4.6H48v5h0.1H53c1.1,0,2,0.9,2,2v6c0,1.1-0.9,2-2,2h-4.9H48v10h0.1H60V7.3C60,3.2,56.8,0,52.7,0z"/>
		<path class="st4" d="M48,30v30h0.1h4.6c4.1,0,7.3-3.5,7.3-7.7V30H48L48,30z"/>
	</g>
</g>
<g>
</g>
<g>
</g>
<g>
</g>
<g>
</g>
<g>
</g>
<g>
</g>
</svg>
