<?xml version="1.0" encoding="utf-8"?>
<!-- Generator: Adobe Illustrator 20.1.0, SVG Export Plug-In . SVG Version: 6.00 Build 0)  -->
<svg version="1.1" id="Social_Comments" xmlns="http://www.w3.org/2000/svg" xmlns:xlink="http://www.w3.org/1999/xlink" x="0px"
	 y="0px" viewBox="0 0 60 60" style="enable-background:new 0 0 60 60;" xml:space="preserve">
<style type="text/css">
	.Arched_x0020_Green{fill:url(#SVGID_1_);stroke:#FFFFFF;stroke-width:0.25;stroke-miterlimit:1;}
	.st0{fill:#FFFFFF;}
</style>
<linearGradient id="SVGID_1_" gradientUnits="userSpaceOnUse" x1="-20" y1="262.2046" x2="-19.2929" y2="261.4975">
	<stop  offset="0" style="stop-color:#1EAB4B"/>
	<stop  offset="0.9831" style="stop-color:#19361A"/>
</linearGradient>
<g id="XMLID_1289_">
	<path id="XMLID_1290_" class="st0" d="M30,5C13.4,5,0,15.8,0,29.1c0,4.8,1.8,9.3,4.8,13c0.1,0.1,0.5,0.6,0.6,0.8
		c0,0-0.2-0.3-0.2-0.3l0,0l0,0l0,0c0.4,0.5,0.6,1.1,0.6,1.8c0,0.2-2.8,9.1-2.8,9.1l0,0c-0.2,0.7,0.3,1.4,1.2,1.6c0.1,0,0.3,0,0.4,0
		c0.2,0,0.4,0,0.6-0.1l0.3-0.1l7.9-3.4c0.1-0.1,1.4-0.5,1.6-0.6l0.1,0c0,0,0,0-0.1,0c0.5-0.2,1.1-0.3,1.8-0.3c0.6,0,1.1,0.1,1.6,0.2
		c0,0,0,0,0,0c0.1,0,0.2,0,0.2,0.1c3.6,1.2,7.6,1.6,11.7,1.6c16.6,0,29.9-10,29.9-23.3C60,15.8,46.6,5,30,5L30,5z"/>
</g>
</svg>
