<?xml version="1.0" encoding="utf-8"?>
<!-- Generator: Adobe Illustrator 19.2.1, SVG Export Plug-In . SVG Version: 6.00 Build 0)  -->
<svg version="1.1" id="Hot_Hot_Hot" xmlns="http://www.w3.org/2000/svg" xmlns:xlink="http://www.w3.org/1999/xlink" x="0px"
	 y="0px" viewBox="0 0 60 60" style="enable-background:new 0 0 60 60;" xml:space="preserve">
<style type="text/css">
	.Arched_x0020_Green{fill:url(#SVGID_1_);stroke:#FFFFFF;stroke-width:0.25;stroke-miterlimit:1;}
	.st0{fill-rule:evenodd;clip-rule:evenodd;fill:#4EBB00;}
	.st1{fill-rule:evenodd;clip-rule:evenodd;fill:#FFFFFF;}
</style>
<linearGradient id="SVGID_1_" gradientUnits="userSpaceOnUse" x1="-20" y1="262.2046" x2="-19.2929" y2="261.4975">
	<stop  offset="0" style="stop-color:#1EAB4B"/>
	<stop  offset="0.9831" style="stop-color:#19361A"/>
</linearGradient>
<g>
	<path class="st0" d="M11.2,44.6c0,0-9.8,2.5-7.7,12.8c10.4,2.1,12.8-7.7,12.8-7.7c-4.8,4.9-10.3,5.1-10.3,5.1S6.3,49.4,11.2,44.6z
		 M60,1c0,0-28.3,2-35.9,20.5c0,0-6.9-0.8-12.8,5.1C5.3,32.6,1,42,1,42s10.4-8.5,12.8-5.1c2.5,3.3,0,7.7,0,7.7l2.6,2.6
		c0,0,4.4-2.5,7.7,0c3.3,2.5-5.1,12.8-5.1,12.8s9.5-4.3,15.4-10.3c5.9-5.9,5.1-12.8,5.1-12.8C58,29.3,60,1,60,1z M41.2,14.4
		c0-3,2.4-5.4,5.4-5.4c3,0,5.4,2.4,5.4,5.4c0,3-2.4,5.4-5.4,5.4C43.6,19.8,41.2,17.3,41.2,14.4z"/>
	<path class="st1" d="M10.3,43.6c0,0-9.8,2.5-7.7,12.8c10.4,2.1,12.8-7.7,12.8-7.7c-4.8,4.9-10.3,5.1-10.3,5.1S5.4,48.4,10.3,43.6z
		 M59,0c0,0-28.3,2-35.9,20.5c0,0-6.9-0.8-12.8,5.1C4.3,31.6,0,41.1,0,41.1s10.4-8.5,12.8-5.1c2.5,3.3,0,7.7,0,7.7l2.6,2.6
		c0,0,4.4-2.5,7.7,0C26.4,48.7,18,59,18,59s9.5-4.3,15.4-10.3c5.9-5.9,5.1-12.8,5.1-12.8C57.1,28.3,59,0,59,0z M40.2,13.4
		c0-3,2.4-5.4,5.4-5.4c3,0,5.4,2.4,5.4,5.4c0,3-2.4,5.4-5.4,5.4C42.7,18.8,40.2,16.4,40.2,13.4z"/>
</g>
<g>
</g>
<g>
</g>
<g>
</g>
<g>
</g>
<g>
</g>
<g>
</g>
</svg>
