<?xml version="1.0" encoding="utf-8"?>
<!-- Generator: Adobe Illustrator 19.2.1, SVG Export Plug-In . SVG Version: 6.00 Build 0)  -->
<svg version="1.1" id="Cart_Speed" xmlns="http://www.w3.org/2000/svg" xmlns:xlink="http://www.w3.org/1999/xlink" x="0px" y="0px"
	 viewBox="0 0 90 60" style="enable-background:new 0 0 90 60;" xml:space="preserve">
<style type="text/css">
	.Arched_x0020_Green{fill:url(#SVGID_1_);stroke:#FFFFFF;stroke-width:0.25;stroke-miterlimit:1;}
	.st0{fill-rule:evenodd;clip-rule:evenodd;fill:#FFFFFF;}
</style>
<linearGradient id="SVGID_1_" gradientUnits="userSpaceOnUse" x1="10" y1="262.2046" x2="10.7071" y2="261.4975">
	<stop  offset="0" style="stop-color:#1EAB4B"/>
	<stop  offset="0.9831" style="stop-color:#19361A"/>
</linearGradient>
<g>
	<path class="st0" d="M15.5,22.5h8.3H32h2.4v-4.8H32h-8.3h-8.3c-1.3,0-2.4,1.1-2.4,2.4S14.1,22.5,15.5,22.5z"/>
	<path class="st0" d="M54,46.4c-2.6,0-4.8,2.2-4.8,4.8c0,2.6,2.2,4.8,4.8,4.8s4.8-2.2,4.8-4.8C58.8,48.6,56.6,46.4,54,46.4z"/>
	<path class="st0" d="M82.8,46.4c-2.6,0-4.8,2.2-4.8,4.8c0,2.6,2.2,4.8,4.8,4.8s4.8-2.2,4.8-4.8C87.6,48.6,85.4,46.4,82.8,46.4z"/>
	<path class="st0" d="M87.6,39.2H52.7L42.5,9.6C42.1,8.7,41.3,8,40.2,8h-7.8C31.1,8,30,9.1,30,10.4s1.1,2.4,2.4,2.4h6.1l10.2,29.6
		c0.3,0.9,1.2,1.6,2.3,1.6h36.6c1.3,0,2.4-1.1,2.4-2.4S88.9,39.2,87.6,39.2z"/>
	<path class="st0" d="M87.7,10.4H49.1c-1.3,0-2.3,1.1-2.3,2.4c0,0.3,0,0.6,0.1,0.8l8.2,21.6c0.3,0.9,1.2,1.6,2.2,1.6h30.4
		c1.3,0,2.3-1.1,2.3-2.4V12.8C90,11.4,89,10.4,87.7,10.4z"/>
	<path class="st0" d="M35.3,32h2.4v-4.8h-2.4H18.9H2.4c-1.3,0-2.4,1.1-2.4,2.4C0,31,1.1,32,2.4,32h16.5H35.3z"/>
	<path class="st0" d="M23.7,36.8H9c-1.3,0-2.4,1.1-2.4,2.4c0,1.3,1.1,2.4,2.4,2.4h14.7h15.7h2.4v-4.8h-2.4H23.7z"/>
</g>
</svg>
