<?xml version="1.0" encoding="utf-8"?>
<!-- Generator: Adobe Illustrator 19.2.1, SVG Export Plug-In . SVG Version: 6.00 Build 0)  -->
<svg version="1.1" xmlns="http://www.w3.org/2000/svg" xmlns:xlink="http://www.w3.org/1999/xlink" x="0px" y="0px"
	 viewBox="0 0 60 60" style="enable-background:new 0 0 60 60;" xml:space="preserve">
<style type="text/css">
	.Arched_x0020_Green{fill:url(#SVGID_1_);stroke:#FFFFFF;stroke-width:0.25;stroke-miterlimit:1;}
	.st0{fill:#FFFFFF;}
	.st1{fill:#88E333;}
</style>
<linearGradient id="SVGID_1_" gradientUnits="userSpaceOnUse" x1="-20" y1="262.2046" x2="-19.2929" y2="261.4975">
	<stop  offset="0" style="stop-color:#1EAB4B"/>
	<stop  offset="0.9831" style="stop-color:#19361A"/>
</linearGradient>
<g id="Review_Star_-_full_copy">
	<g id="XMLID_38_">
		<g id="XMLID_39_">
			<polygon class="st0" points="30,47.1 13.4,55.9 17.6,37.3 3.6,24.8 22.3,23.1 30,5.1 37.7,23.1 56.4,24.8 42.4,37.3 46.6,55.9 
							"/>
			<path class="st1" d="M30,8.9l5.9,13.9l0.7,1.6l1.8,0.2L52.9,26l-10.8,9.7l-1.3,1.2l0.4,1.7L44.4,53l-13-6.9L30,45.4l-1.4,0.7
				l-13,6.9l3.3-14.5l0.4-1.7l-1.3-1.2L7.1,26l14.4-1.3l1.8-0.2l0.7-1.6L30,8.9 M30,1.3l-8.7,20.4L0,23.6l15.9,14.2l-4.7,20.8
				l18.8-10l18.8,10l-4.7-20.8L60,23.6l-21.3-1.9L30,1.3L30,1.3z"/>
		</g>
	</g>
</g>
<g id="Review_Star_-_half">
</g>
</svg>
