<?xml version="1.0" encoding="utf-8"?>
<!-- Generator: Adobe Illustrator 19.2.1, SVG Export Plug-In . SVG Version: 6.00 Build 0)  -->
<svg version="1.1" id="Guide_Motor" xmlns="http://www.w3.org/2000/svg" xmlns:xlink="http://www.w3.org/1999/xlink" x="0px"
	 y="0px" viewBox="0 0 60 60" style="enable-background:new 0 0 60 60;" xml:space="preserve">
<style type="text/css">
	.Arched_x0020_Green{fill:url(#SVGID_1_);stroke:#FFFFFF;stroke-width:0.25;stroke-miterlimit:1;}
	.st0{fill:#4EBB00;}
	.st1{fill:#FFFFFF;}
</style>
<linearGradient id="SVGID_1_" gradientUnits="userSpaceOnUse" x1="-20" y1="262.2046" x2="-19.2929" y2="261.4975">
	<stop  offset="0" style="stop-color:#1EAB4B"/>
	<stop  offset="0.9831" style="stop-color:#19361A"/>
</linearGradient>
<g>
	<g>
		<path class="st0" d="M1,20.3L16.2,5.1l1.5,1.5L2.5,21.8L1,20.3z M3.7,23L18.9,7.8l1.5,1.5L5.2,24.5L3.7,23z M43.2,6.6l1.5-1.5
			L60,20.3l-1.5,1.5L43.2,6.6z M55.8,24.5L40.5,9.3l1.5-1.5L57.3,23L55.8,24.5z M55.8,24.5"/>
		<path class="st0" d="M47,33.3l7.6-7.6L39.4,10.4L31.8,18l5.5,5.5c-1.4,1.4-3.9,3.9-6.8,6.8l-6.8-6.8l5.5-5.5l-7.6-7.6L6.3,25.6
			l7.6,7.6l5.5-5.5c1.4,1.4,3.9,3.9,6.8,6.8c-4.5,4.5-8.9,8.9-10.3,10.3c-1.8-0.4-3.8,0.1-5.1,1.5c-1.1,1.1-1.6,2.5-1.6,4
			c0,1.5,0.6,2.9,1.6,4c1.1,1.1,2.5,1.6,4,1.6c1.5,0,2.9-0.6,3.9-1.6c1.4-1.4,1.9-3.3,1.5-5.1l10.3-10.3c4.5,4.5,8.8,8.8,10.3,10.3
			c-0.4,1.8,0.1,3.7,1.5,5.1c1.1,1.1,2.5,1.6,3.9,1.6s2.9-0.6,4-1.6c1.1-1.1,1.6-2.5,1.6-4c0-1.5-0.6-2.9-1.6-4
			c-1.3-1.3-3.3-1.8-5.1-1.5c-1.4-1.4-5.8-5.8-10.3-10.3c2.9-2.9,5.4-5.4,6.8-6.8L47,33.3z M17.2,52.7c-1.3,1.3-3.6,1.3-4.9,0
			c-0.7-0.7-1-1.5-1-2.4c0-0.9,0.4-1.8,1-2.4c0.6-0.7,1.5-1,2.4-1c0.9,0,1.8,0.4,2.4,1C18.5,49.2,18.5,51.4,17.2,52.7L17.2,52.7z
			 M48.7,47.9c0.7,0.7,1,1.5,1,2.4c0,0.9-0.4,1.8-1,2.4c-1.3,1.3-3.6,1.3-4.9,0c-1.3-1.3-1.3-3.5,0-4.9c0.6-0.6,1.5-1,2.4-1
			C47.1,46.9,48,47.2,48.7,47.9L48.7,47.9z M48.7,47.9"/>
	</g>
	<g>
		<path class="st1" d="M0,19.3L15.2,4.1l1.5,1.5L1.5,20.8L0,19.3z M2.7,22L17.9,6.8l1.5,1.5L4.2,23.5L2.7,22z M42.3,5.6l1.5-1.5
			L59,19.3l-1.5,1.5L42.3,5.6z M54.8,23.5L39.6,8.3l1.5-1.5L56.3,22L54.8,23.5z M54.8,23.5"/>
		<path class="st1" d="M46.1,32.3l7.6-7.6L38.4,9.4L30.8,17l5.5,5.5c-1.4,1.4-3.9,3.9-6.8,6.8l-6.8-6.8l5.5-5.5l-7.6-7.6L5.3,24.7
			l7.6,7.6l5.5-5.5c1.4,1.4,3.9,3.9,6.8,6.8c-4.5,4.5-8.9,8.9-10.3,10.3c-1.8-0.4-3.8,0.1-5.1,1.5c-1.1,1.1-1.6,2.5-1.6,4
			c0,1.5,0.6,2.9,1.6,4c1.1,1.1,2.5,1.6,4,1.6c1.5,0,2.9-0.6,3.9-1.6c1.4-1.4,1.9-3.3,1.5-5.1l10.3-10.3c4.5,4.5,8.8,8.8,10.3,10.3
			c-0.4,1.8,0.1,3.7,1.5,5.1c1.1,1.1,2.5,1.6,3.9,1.6s2.9-0.6,4-1.6c1.1-1.1,1.6-2.5,1.6-4c0-1.5-0.6-2.9-1.6-4
			c-1.3-1.3-3.3-1.8-5.1-1.5c-1.4-1.4-5.8-5.8-10.3-10.3c2.9-2.9,5.4-5.4,6.8-6.8L46.1,32.3z M16.2,51.8c-1.3,1.3-3.6,1.3-4.9,0
			c-0.7-0.7-1-1.5-1-2.4c0-0.9,0.4-1.8,1-2.4c0.6-0.7,1.5-1,2.4-1c0.9,0,1.8,0.4,2.4,1C17.5,48.2,17.5,50.4,16.2,51.8L16.2,51.8z
			 M47.7,46.9c0.7,0.7,1,1.5,1,2.4c0,0.9-0.4,1.8-1,2.4c-1.3,1.3-3.6,1.3-4.9,0c-1.3-1.3-1.3-3.5,0-4.9c0.6-0.6,1.5-1,2.4-1
			C46.2,45.9,47,46.2,47.7,46.9L47.7,46.9z M47.7,46.9"/>
	</g>
</g>
</svg>
