<?xml version="1.0" encoding="utf-8"?>
<!-- Generator: Adobe Illustrator 19.2.1, SVG Export Plug-In . SVG Version: 6.00 Build 0)  -->
<svg version="1.1" id="Search" xmlns="http://www.w3.org/2000/svg" xmlns:xlink="http://www.w3.org/1999/xlink" x="0px" y="0px"
	 viewBox="0 0 60 60" style="enable-background:new 0 0 60 60;" xml:space="preserve">
<style type="text/css">
	.Arched_x0020_Green{fill:url(#SVGID_1_);stroke:#FFFFFF;stroke-width:0.25;stroke-miterlimit:1;}
	.st0{fill-rule:evenodd;clip-rule:evenodd;fill:#CCCCCC;}
</style>
<linearGradient id="SVGID_1_" gradientUnits="userSpaceOnUse" x1="-20" y1="262.2046" x2="-19.2929" y2="261.4975">
	<stop  offset="0" style="stop-color:#1EAB4B"/>
	<stop  offset="0.9831" style="stop-color:#19361A"/>
</linearGradient>
<path class="st0" d="M23.3,1.3C10.4,1.3,0,11.6,0,24.3s10.4,23,23.3,23c5.6,0,10.6-1.9,14.6-5.1c0.2,0.3,0.3,0.7,0.6,0.9L53,57.5
	c0.8,0.8,1.9,1.2,2.9,1.2c1,0,2.1-0.4,2.9-1.2c1.6-1.6,1.6-4.1,0-5.7L44.3,37.4c-0.4-0.4-0.9-0.7-1.4-0.9c2.2-3.5,3.5-7.7,3.5-12.2
	C46.5,11.6,36.1,1.3,23.3,1.3z M23.3,8.4c8.9,0,16.1,7.1,16.1,15.9c0,3-0.9,5.9-2.5,8.4c0,0-0.8,1.7-3.5,4
	c-2.7,2.3-6.4,3.5-10.1,3.5c-8.9,0-16.1-7.1-16.1-15.9S14.4,8.4,23.3,8.4z"/>

</svg>
