<?xml version="1.0" encoding="utf-8"?>
<!-- Generator: Adobe Illustrator 19.2.1, SVG Export Plug-In . SVG Version: 6.00 Build 0)  -->
<svg version="1.1" id="Electrical" xmlns="http://www.w3.org/2000/svg" xmlns:xlink="http://www.w3.org/1999/xlink" x="0px" y="0px"
	 viewBox="0 0 60 60" style="enable-background:new 0 0 60 60;" xml:space="preserve">
<style type="text/css">
	.Arched_x0020_Green{fill:url(#SVGID_1_);stroke:#FFFFFF;stroke-width:0.25;stroke-miterlimit:1;}
	.st0{fill:#FFFFFF;}
</style>
<linearGradient id="SVGID_1_" gradientUnits="userSpaceOnUse" x1="-20" y1="262.2046" x2="-19.2929" y2="261.4975">
	<stop  offset="0" style="stop-color:#1EAB4B"/>
	<stop  offset="0.9831" style="stop-color:#19361A"/>
</linearGradient>
<g id="XMLID_841_">
	<g id="XMLID_842_">
		<polygon id="XMLID_847_" class="st0" points="51.4,6.4 45,6.4 45,0 36.4,0 36.4,6.4 30,6.4 30,15 36.4,15 36.4,21.4 45,21.4 
			45,15 51.4,15 		"/>
		<path id="XMLID_843_" class="st0" d="M36.4,27.9c0,5.2-0.6,5.7-1.9,6.7c-1,0.8-3,1-5.3,1.1c-1.3,0.1-2.7,0.2-4.2,0.4
			c-1.3,0.2-2.5,0.6-3.6,1.2V16c2.6-1.5,4.3-4.2,4.3-7.4c0-4.7-3.8-8.6-8.6-8.6S8.6,3.8,8.6,8.6c0,3.2,1.7,5.9,4.3,7.4v28
			c-2.6,1.5-4.3,4.2-4.3,7.4c0,4.7,3.8,8.6,8.6,8.6s8.6-3.8,8.6-8.6c0-2.1-0.8-4-2-5.5c0.9-0.6,1.9-1.2,2.7-1.3
			c1.1-0.2,2.2-0.3,3.4-0.3c3.3-0.2,7-0.5,10.1-3c4.1-3.4,5-7,5.1-12.7l0,0v-0.7H36.4z M17.1,4.3c2.4,0,4.3,1.9,4.3,4.3
			s-1.9,4.3-4.3,4.3s-4.3-1.9-4.3-4.3S14.8,4.3,17.1,4.3z M17.1,55.7c-2.4,0-4.3-1.9-4.3-4.3s1.9-4.3,4.3-4.3s4.3,1.9,4.3,4.3
			S19.5,55.7,17.1,55.7z"/>
	</g>
</g>
</svg>
