<?xml version="1.0" encoding="utf-8"?>
<!-- Generator: Adobe Illustrator 19.2.1, SVG Export Plug-In . SVG Version: 6.00 Build 0)  -->
<svg version="1.1" id="TechSpecs" xmlns="http://www.w3.org/2000/svg" xmlns:xlink="http://www.w3.org/1999/xlink" x="0px" y="0px"
	 viewBox="0 0 60 60" style="enable-background:new 0 0 60 60;" xml:space="preserve">
<style type="text/css">
	.Arched_x0020_Green{fill:url(#SVGID_1_);stroke:#FFFFFF;stroke-width:0.25;stroke-miterlimit:1;}
	.st0{fill:#FFFFFF;}
</style>
<linearGradient id="SVGID_1_" gradientUnits="userSpaceOnUse" x1="-20" y1="262.2046" x2="-19.2929" y2="261.4975">
	<stop  offset="0" style="stop-color:#1EAB4B"/>
	<stop  offset="0.9831" style="stop-color:#19361A"/>
</linearGradient>
<g>
	<path id="tools" class="st0" d="M12.9,0L0,12.9l4.3,4.3l5.7-5.7l1.4,1.4l-5.7,5.7l4.4,4.4l5.7-5.7l1.3,1.3l-5.7,5.7l4.4,4.4
		l12.9-12.9 M60,47.1L47.1,60l-4.3-4.3l5.7-5.7l-1.4-1.4l-5.7,5.7L37,49.9l5.7-5.7l-1.3-1.3l-5.7,5.7l-4.4-4.4l12.9-12.9 M9.3,37.7
		l30-30.1l12.9,12.9l-30,30.1L9.3,37.7z M40.8,14.9l-1.4-1.4L15.2,37.7l1.4,1.4L40.8,14.9z M43.6,17.8l-1.4-1.4L18,40.5l1.4,1.4
		L43.6,17.8z M46.4,20.6L45,19.2L20.8,43.4l1.4,1.4L46.4,20.6z M45.2,2c1.6-1.6,4.1-1.6,5.7,0c0,0,0,0,0,0l7.1,7.1
		c1.6,1.6,1.6,4.1,0,5.7c0,0,0,0,0,0l-4.4,4.4L40.8,6.4L45.2,2z M8.4,39.4l12.2,12.2L9.9,55.4l-5.3-5.3L8.4,39.4z M7.9,56l-6.2,2.3
		l2.3-6.2L7.9,56z"/>
</g>
</svg>
