<?xml version="1.0" encoding="utf-8"?>
<!-- Generator: Adobe Illustrator 20.0.0, SVG Export Plug-In . SVG Version: 6.00 Build 0)  -->
<svg version="1.1" id="Contact_HEX_Map" xmlns="http://www.w3.org/2000/svg" xmlns:xlink="http://www.w3.org/1999/xlink" x="0px"
	 y="0px" viewBox="0 0 60 60" style="enable-background:new 0 0 60 60;" xml:space="preserve">
<style type="text/css">
	.st0{fill:#FFFFFF;}
</style>
<g id="XMLID_150_">
	<g id="XMLID_151_">
		<g id="XMLID_158_">
			<path id="XMLID_163_" class="st0" d="M38.1,38.8C35.7,40.2,32.9,41,30,41c-2.9,0-5.7-0.8-8.1-2.1c-6.3,1.9-10.2,6.2-11.6,11.8
				h39.4C48.3,45,44.4,40.8,38.1,38.8z"/>
			<g id="XMLID_159_">
				<path id="XMLID_160_" class="st0" d="M30,9.4c-7.8,0-14.2,6.3-14.2,14.2S22.2,37.7,30,37.7s14.2-6.4,14.2-14.2S37.8,9.4,30,9.4z
					 M30,34.3c-4.5,0-8.4-3-9.9-6.8h19.8C38.4,31.3,34.5,34.3,30,34.3z"/>
			</g>
		</g>
		<g id="XMLID_155_">
			<path id="XMLID_157_" class="st0" d="M48.3,42.4H60c-0.9-3.4-3.2-5.9-7-7.1c-1.4,0.8-3.1,1.3-4.9,1.3c-1.8,0-3.4-0.5-4.9-1.3
				c-1.3,0.4-2.5,1-3.5,1.7C43.3,38.2,46.1,40.1,48.3,42.4z"/>
			<path id="XMLID_156_" class="st0" d="M48.2,17.6c-1.4,0-2.7,0.3-3.9,0.9c0.7,1.7,1,3.6,1,5.5c0,1.5-0.2,3-0.7,4.4h9.5
				c-0.9,2.3-3.2,4.1-6,4.1c-1.7,0-3.3-0.7-4.4-1.8c-0.3,0.7-0.7,1.3-1.1,1.9c1.5,1.3,3.4,2,5.5,2c4.7,0,8.5-3.8,8.5-8.5
				S52.9,17.6,48.2,17.6z"/>
		</g>
		<g id="XMLID_152_">
			<path id="XMLID_154_" class="st0" d="M20.2,37.1c-1-0.7-2.1-1.3-3.5-1.7c-1.4,0.8-3.1,1.3-4.9,1.3c-1.8,0-3.4-0.4-4.9-1.3
				c-3.8,1.2-6.1,3.7-7,7.1h11.7C13.9,40.1,16.7,38.2,20.2,37.1z"/>
			<path id="XMLID_153_" class="st0" d="M11.8,32.5c-2.7,0-5-1.7-6-4.1h9.5c-0.4-1.4-0.7-2.9-0.7-4.4c0-1.9,0.4-3.8,1-5.5
				c-1.2-0.6-2.5-0.9-3.9-0.9c-4.7,0-8.5,3.8-8.5,8.5s3.8,8.5,8.5,8.5c2.1,0,4-0.8,5.5-2c-0.4-0.6-0.8-1.2-1.1-1.9
				C15.1,31.8,13.5,32.5,11.8,32.5z"/>
		</g>
	</g>
</g>
</svg>
