<?xml version="1.0" encoding="utf-8"?>
<!-- Generator: Adobe Illustrator 19.2.1, SVG Export Plug-In . SVG Version: 6.00 Build 0)  -->
<svg version="1.1" id="Arrow_Right_Circle" xmlns="http://www.w3.org/2000/svg" xmlns:xlink="http://www.w3.org/1999/xlink" x="0px"
	 y="0px" viewBox="0 0 60 60" style="enable-background:new 0 0 60 60;" xml:space="preserve">
<style type="text/css">
	.st0{fill:#999999;}
</style>
<path class="st0" d="M18.4,32.9l12.3,12.5c1.7,1.7,4.5,1.7,6.2,0c1.7-1.8,1.7-4.6,0-6.3l-9.2-9.3l9.2-9.3c1.7-1.8,1.7-4.6,0-6.3
	c-0.9-0.9-2-1.3-3.1-1.3c-1.1,0-2.2,0.4-3.1,1.3L18.4,26.6c-0.8,0.9-1.3,2-1.3,3.2S17.6,32.1,18.4,32.9z M30,0c16.5,0,30,13.5,30,30
	S46.5,60,30,60S0,46.5,0,30S13.5,0,30,0z"/>
</svg>
