<?xml version="1.0" encoding="utf-8"?>
<!-- Generator: Adobe Illustrator 19.2.1, SVG Export Plug-In . SVG Version: 6.00 Build 0)  -->
<svg version="1.1" id="MENU_X" xmlns="http://www.w3.org/2000/svg" xmlns:xlink="http://www.w3.org/1999/xlink" x="0px" y="0px"
	 viewBox="0 0 60 60" style="enable-background:new 0 0 60 60;" xml:space="preserve">
<style type="text/css">
	.Arched_x0020_Green{fill:url(#SVGID_1_);stroke:#FFFFFF;stroke-width:0.25;stroke-miterlimit:1;}
	.st0{fill-rule:evenodd;clip-rule:evenodd;fill:url(#SVGID_2_);}
	.st1{fill:#99FF2E;}
</style>
<linearGradient id="SVGID_1_" gradientUnits="userSpaceOnUse" x1="-20" y1="262.2046" x2="-19.2929" y2="261.4975">
	<stop  offset="0" style="stop-color:#1EAB4B"/>
	<stop  offset="0.9831" style="stop-color:#19361A"/>
</linearGradient>
<g>
	<linearGradient id="SVGID_2_" gradientUnits="userSpaceOnUse" x1="8.97" y1="47.6463" x2="51.0475" y2="12.3391">
		<stop  offset="0" style="stop-color:#50B748"/>
		<stop  offset="0.5" style="stop-color:#8FC63E"/>
		<stop  offset="1" style="stop-color:#50B748"/>
	</linearGradient>
	<polygon class="st0" points="7.8,46.3 23.8,30.3 7.5,14 13.6,7.9 30,24.3 46.4,7.9 52.5,14 36.2,30.3 52.2,46.3 46.4,52.1 30,35.7 
		13.6,52.1 	"/>
	<path class="st1" d="M46.4,9l5,5L36.2,29.2l-1.1,1.1l1.1,1.1l14.9,14.9L46.4,51L31.1,35.7L30,34.6l-1.1,1.1L13.6,51l-4.7-4.7
		l14.9-14.9l1.1-1.1l-1.1-1.1L8.6,14l5-5l15.3,15.3l1.1,1.1l1.1-1.1L46.4,9 M46.4,6.9L30,23.3L13.6,6.9L6.5,14l16.3,16.3l-16,16
		l6.8,6.8L30,36.7l16.4,16.4l6.8-6.8l-16-16L53.5,14L46.4,6.9L46.4,6.9z"/>
</g>
</svg>
