<?xml version="1.0" encoding="utf-8"?>
<!-- Generator: Adobe Illustrator 19.2.1, SVG Export Plug-In . SVG Version: 6.00 Build 0)  -->
<svg version="1.1" id="Marketing" xmlns="http://www.w3.org/2000/svg" xmlns:xlink="http://www.w3.org/1999/xlink" x="0px" y="0px"
	 viewBox="0 0 60 60" style="enable-background:new 0 0 60 60;" xml:space="preserve">
<style type="text/css">
	.Arched_x0020_Green{fill:url(#SVGID_1_);stroke:#FFFFFF;stroke-width:0.25;stroke-miterlimit:1;}
	.st0{fill:#666666;}
</style>
<linearGradient id="SVGID_1_" gradientUnits="userSpaceOnUse" x1="-20" y1="262.2046" x2="-19.2929" y2="261.4975">
	<stop  offset="0" style="stop-color:#1EAB4B"/>
	<stop  offset="0.9831" style="stop-color:#19361A"/>
</linearGradient>
<g>
	<path class="st0" d="M22.4,20.3l-3.7-3.5c0.4-0.8,0.7-1.6,0.7-2.6c0-3-2.4-5.4-5.4-5.4s-5.4,2.4-5.4,5.4c0,3,2.4,5.4,5.4,5.4
		c1.1,0,2-0.3,2.9-0.8l3.6,3.4C21.1,21.6,21.7,20.9,22.4,20.3L22.4,20.3z M22.4,20.3"/>
	<path class="st0" d="M37.9,19.9l4.8-8.2c0.5,0.1,1,0.2,1.5,0.2c3,0,5.4-2.4,5.4-5.4c0-3-2.4-5.4-5.4-5.4c-3,0-5.4,2.4-5.4,5.4
		c0,1.5,0.6,2.8,1.6,3.8l-4.8,8.1C36.4,18.9,37.1,19.4,37.9,19.9L37.9,19.9z M37.9,19.9"/>
	<path class="st0" d="M54.6,26.7c-2.3,0-4.3,1.5-5.1,3.5l-6.7-0.7c0,0,0,0.1,0,0.1c0,0.9-0.1,1.7-0.3,2.6l6.7,0.7
		c0.4,2.6,2.6,4.6,5.3,4.6c3,0,5.4-2.4,5.4-5.4C60,29.2,57.6,26.7,54.6,26.7L54.6,26.7z M54.6,26.7"/>
	<path class="st0" d="M36,48l-1.5-6.6c-0.8,0.3-1.7,0.5-2.7,0.6l1.5,6.6c-1.7,0.9-2.9,2.7-2.9,4.8c0,3,2.4,5.4,5.4,5.4
		c3,0,5.4-2.4,5.4-5.4C41.2,50.5,38.9,48.1,36,48L36,48z M36,48"/>
	<path class="st0" d="M18.3,32.4l-8.4,2.8c-1-1.5-2.6-2.5-4.5-2.5c-3,0-5.4,2.4-5.4,5.4s2.4,5.4,5.4,5.4s5.4-2.4,5.4-5.4
		c0-0.1,0-0.2,0-0.4l8.4-2.8C18.8,34.1,18.5,33.3,18.3,32.4L18.3,32.4z M18.3,32.4"/>
	<path class="st0" d="M39.7,29.8c0,5.1-4.2,9.3-9.3,9.3c-5.1,0-9.3-4.2-9.3-9.3c0-5.1,4.2-9.3,9.3-9.3
		C35.5,20.5,39.7,24.6,39.7,29.8L39.7,29.8z M39.7,29.8"/>
</g>
</svg>
