<?xml version="1.0" encoding="utf-8"?>
<!-- Generator: Adobe Illustrator 20.0.0, SVG Export Plug-In . SVG Version: 6.00 Build 0)  -->
<svg version="1.1" id="Retro_in_Progress" xmlns="http://www.w3.org/2000/svg" xmlns:xlink="http://www.w3.org/1999/xlink" x="0px"
	 y="0px" viewBox="0 0 60 60" style="enable-background:new 0 0 60 60;" xml:space="preserve">
<style type="text/css">
	.st0{fill:#666666;}
</style>
<path class="st0" d="M30,35c5.7,0,10.5-1.9,10.8-4.5c-0.9-2.4-1.8-5-2.7-7.6c-0.6,1.8-4.1,3.1-8.1,3.1c-4,0-7.5-1.3-8.1-3.1
	c-0.9,2.6-1.8,5.2-2.7,7.6C19.5,33,24.3,35,30,35z M30,18.9c2.7,0,5.2-0.8,5.9-2.1c-1-2.8-1.9-5.3-2.4-6.8c-0.4-1-2-1.6-3.5-1.6
	c-1.5,0-3.1,0.5-3.5,1.6c-0.5,1.5-1.4,4-2.4,6.8C24.8,18.1,27.3,18.9,30,18.9z M51,37.3l-9-3.6l1,2.9c-0.1,3.1-6,5.5-13.1,5.5
	c-7.1,0-13-2.4-13.1-5.5l1-2.9l-9,3.6c-2.5,1-2.6,2.9-0.2,4.2l16.9,9.1c2.4,1.3,6.3,1.3,8.7,0l16.9-9.1C53.7,40.2,53.6,38.4,51,37.3
	z"/>
</svg>
