<?xml version="1.0" encoding="utf-8"?>
<!-- Generator: Adobe Illustrator 19.2.1, SVG Export Plug-In . SVG Version: 6.00 Build 0)  -->
<svg version="1.1" id="Acct" xmlns="http://www.w3.org/2000/svg" xmlns:xlink="http://www.w3.org/1999/xlink" x="0px" y="0px"
	 viewBox="0 0 60 60" style="enable-background:new 0 0 60 60;" xml:space="preserve">
<style type="text/css">
	.Arched_x0020_Green{fill:url(#SVGID_1_);stroke:#FFFFFF;stroke-width:0.25;stroke-miterlimit:1;}
	.st0{fill-rule:evenodd;clip-rule:evenodd;fill:#999999;}
</style>
<linearGradient id="SVGID_1_" gradientUnits="userSpaceOnUse" x1="-20" y1="262.2046" x2="-19.2929" y2="261.4975">
	<stop  offset="0" style="stop-color:#1EAB4B"/>
	<stop  offset="0.9831" style="stop-color:#19361A"/>
</linearGradient>
<g>
	<rect x="16.2" y="6.9" class="st0" width="4.6" height="4.6"/>
	<rect x="41.5" y="6.9" class="st0" width="4.6" height="4.6"/>
	<path class="st0" d="M46.2,11.5v4.6h2.3v2.3h-9.2v-2.3h2.3v-4.6H20.8v4.6h2.3v2.3h-9.2v-2.3h2.3v-4.6H0v41.5h60V11.5H46.2z
		 M27.7,43.8h-3.1c0,0-0.1-0.7-0.2-1.2c0.1,0,0.2-0.1,0.2-0.3v-0.4c0,0,0-1.1-2.1-2.1c-1-0.5-2.5-1.8-4.8-2.2c0.6-0.7,1-1.7,1.5-3
		c0.2-0.7,0.2-1.3,0.2-2.2c0-0.7,0.1-1.7,0-2.3c-0.5-1.9-1.7-2.5-3.2-2.5c-1.5,0-2.7,0.5-3.2,2.5c-0.1,0.6,0,1.6,0,2.3
		c0,0.9,0,1.5,0.2,2.2c0.4,1.2,0.9,2.3,1.5,3c-2.2,0.4-3.7,1.7-4.8,2.2c-2.1,1-2.1,2.1-2.1,2.1v0.4c0,0.2,0.1,0.3,0.1,0.3
		c-0.1,0.5-0.1,1.2-0.1,1.2H4.6V25.4h23.1V43.8z M55.4,41.5H32.3v-2.3h23.1V41.5z M55.4,34.6H32.3v-2.3h23.1V34.6z M55.4,27.7H32.3
		v-2.3h23.1V27.7z"/>
</g>
</svg>
