<?xml version="1.0" encoding="utf-8"?>
<!-- Generator: Adobe Illustrator 22.0.1, SVG Export Plug-In . SVG Version: 6.00 Build 0)  -->
<svg version="1.1" id="Checkout_1" xmlns="http://www.w3.org/2000/svg" xmlns:xlink="http://www.w3.org/1999/xlink" x="0px" y="0px"
	 viewBox="0 0 60 60" style="enable-background:new 0 0 60 60;" xml:space="preserve">
<style type="text/css">
	.st0{fill:#999999;}
	.st1{fill-rule:evenodd;clip-rule:evenodd;fill:#FFFFFF;}
</style>
<path class="st0" d="M59.7,28.7L45.9,5.2C45.5,4.5,44.6,4,43.7,4H16.2c-0.9,0-1.7,0.5-2.2,1.2L0.3,28.7c-0.5,0.8-0.5,1.7,0,2.5
	L14,54.7c0.4,0.8,1.3,1.2,2.2,1.2h27.5c0.9,0,1.7-0.5,2.2-1.2l13.8-23.5C60.1,30.5,60.1,29.5,59.7,28.7z"/>
<polygon class="st1" points="45.1,21.9 40.5,17.4 24.8,33.1 24.1,33.8 23.4,33.1 17.5,27.2 12.9,31.7 23.9,42.6 "/>
</svg>
