<?xml version="1.0" encoding="utf-8"?>
<!-- Generator: Adobe Illustrator 21.1.0, SVG Export Plug-In . SVG Version: 6.00 Build 0)  -->
<svg version="1.1" id="Layer_84" xmlns="http://www.w3.org/2000/svg" xmlns:xlink="http://www.w3.org/1999/xlink" x="0px" y="0px"
	 viewBox="0 0 56.7 19.8" style="enable-background:new 0 0 56.7 19.8;" xml:space="preserve">
<style type="text/css">
	.st0{fill:#2AC1DF;}
</style>
<g>
	<circle class="st0" cx="29.6" cy="3.4" r="1.7"/>
	<rect x="28.1" y="6.3" class="st0" width="3" height="11.8"/>
	<path class="st0" d="M40,6c-1.5,0-3.2,1.1-3.8,2.4V6.3h-2.8v11.8h3v-5.5c0-2.3,0.9-3.6,2.8-3.7L40.9,6C40.7,6,40.2,6,40,6z"/>
	<path class="st0" d="M52,6c-1.3,0-2.4,0.5-3.2,1.4l0,0l0,0C47.9,6.5,46.7,6,45.5,6c-2.7,0-4.7,2-4.7,4.7v7.4h2.9v-7.5
		c0-1.2,0.7-1.9,1.8-1.9s1.8,0.7,1.8,1.9v7.5h2.9v-7.5c0-1.2,0.7-1.9,1.8-1.9s1.8,0.7,1.8,1.9v7.5h2.9v-7.4C56.7,8,54.7,6,52,6z"/>
	<path class="st0" d="M24.5,5.2c0-0.4,0.1-0.9,0.4-1.1c0.4-0.3,0.9-0.2,1.3-0.2l0.6-2.2h-0.3c-1.2-0.1-2.5-0.2-3.6,0.6
		c-1,0.6-1.4,1.7-1.4,2.7v1.3H18V5.2c0-0.4,0.1-0.9,0.4-1.1c0.4-0.3,0.9-0.2,1.3-0.2l0.6-2.2H20c-1.3-0.1-2.6-0.2-3.7,0.6
		C15.4,2.9,15,4,15,5v1.3h-1.3v2.2H15v9.7h3V8.5h3.5v9.7h3V8.5h2.1V6.3h-2.1V5.2z"/>
	<path class="st0" d="M12.1,18.2V7.8c0-0.9-0.7-1.6-1.5-1.7c-0.6,0-1.2,0.2-1.5,0.6L0,18.2h2.2c0.9,0,1.6-0.5,2.1-1.2l5-6.4v7.5h2.8
		V18.2z"/>
</g>
</svg>
