<?xml version="1.0" encoding="utf-8"?>
<!-- Generator: Adobe Illustrator 20.0.0, SVG Export Plug-In . SVG Version: 6.00 Build 0)  -->
<svg version="1.1" id="Retro_Examples" xmlns="http://www.w3.org/2000/svg" xmlns:xlink="http://www.w3.org/1999/xlink" x="0px"
	 y="0px" viewBox="0 0 60 60" style="enable-background:new 0 0 60 60;" xml:space="preserve">
<style type="text/css">
	.st0{fill-rule:evenodd;clip-rule:evenodd;fill:#FFFFFF;}
</style>
<g>
	<g>
		<path class="st0" d="M15.4,18.2c-0.1,0.2-0.2,0.4-0.2,0.7c0,0.1,0,0.1,0,0.2C15,19.3,15,19.6,15,19.8V20v0.9v6.9h2.3V30
			c0,1.3,1.1,2.4,2.4,2.4c1.3,0,2.2-0.9,2.2-2.2v-2.4h6h0.2h3.8h0.2h6V30c0,1.3,1.2,2.4,2.5,2.4s2.2-0.9,2.2-2.2v-2.4H45v-6.6v-1.3
			v0c0-0.3,0-0.5-0.1-0.7c0-0.1,0-0.1,0-0.2c-0.1-0.2-0.1-0.4-0.2-0.6c0,0,0-0.1-0.1-0.1c-0.3-0.7-0.9-1.2-1.5-1.6
			c0,0-0.1,0-0.1-0.1c-0.2-0.1-0.5-0.2-0.7-0.3l-0.7-1.7l-0.3-0.7l-1.7-4.2c-0.4-1-1.4-1.6-2.5-1.6H22.9c-1.1,0-2.1,0.7-2.5,1.6
			l-1.3,3.2l-0.7,1.7l0,0l-0.1,0.3l-0.1,0.2l-0.1,0.2l-0.4,1c-0.2,0.1-0.4,0.1-0.6,0.2c0,0,0,0,0,0C16.3,16.9,15.8,17.5,15.4,18.2
			C15.4,18.2,15.4,18.2,15.4,18.2z M41.7,19.3C41.7,19.3,41.7,19.3,41.7,19.3c0.1,0.1,0.2,0.2,0.3,0.3c0,0,0,0,0,0
			c0.1,0.1,0.1,0.2,0.2,0.4c0,0,0,0,0,0c0.1,0.1,0.1,0.3,0.1,0.4c0,0.1,0,0.3,0,0.5c0,1.3-1.1,2.4-2.4,2.4c-1.3,0-2.4-1.1-2.4-2.4
			c0-0.2,0-0.4,0.1-0.6c0,0,0-0.1,0-0.1c0.1-0.2,0.2-0.4,0.3-0.6l0,0c0.1-0.2,0.3-0.3,0.4-0.5c0,0,0.1-0.1,0.1-0.1
			c0.2-0.1,0.3-0.2,0.5-0.3c0,0,0,0,0,0c0.1-0.1,0.3-0.1,0.4-0.1c0.2,0,0.3,0,0.5,0c0,0,0,0,0,0c0.2,0,0.4,0,0.5,0.1c0,0,0,0,0,0
			c0.2,0,0.3,0.1,0.5,0.2C41.2,18.9,41.5,19.1,41.7,19.3z M23.1,10.4h13.7c0.3,0,0.6,0.2,0.7,0.5l1.1,2.4l0.5,1.2l0,0l0.2,0.5
			l0.5,1.2h-3.4h-1.3h-0.7h-3.4h-0.4h-1.5H29h-4.8H24h-1h-2.9l0.3-0.6l0.2-0.3l0.6-1.4l0.8-1.8l0,0l0.5-1.1
			C22.5,10.6,22.8,10.4,23.1,10.4z M17.5,20.6c0-0.1,0-0.2,0.1-0.3c0.2-0.8,0.8-1.4,1.6-1.6c0.1,0,0.2,0,0.3-0.1c0.1,0,0.2,0,0.4,0
			c0.2,0,0.4,0,0.6,0.1c0.3,0.1,0.5,0.2,0.7,0.3c0.2,0.1,0.3,0.2,0.5,0.4c0,0,0,0,0,0c0.1,0.1,0.2,0.3,0.3,0.4c0,0,0,0.1,0.1,0.1
			c0.1,0.1,0.1,0.3,0.2,0.4c0,0,0,0.1,0,0.1c0,0.2,0.1,0.4,0.1,0.6c0,1.3-1.1,2.4-2.4,2.4c-1.3,0-2.4-1.1-2.4-2.4
			C17.5,20.8,17.5,20.7,17.5,20.6z"/>
	</g>
	<g>
		<path class="st0" d="M44.3,10.8l0.6,1.5l0.3,0.7l0.1,0.3c0.1,0,0.1,0.1,0.2,0.1c1.6-0.1,3.3-0.2,5.3-0.2v25.9
			c-5.6,0-14.2,0.2-18.8,2.9v-1.4v-9h-0.2h-3.8h-0.2v9V42c-4.6-2.6-13.1-2.9-18.8-2.9V13.3c0.5,0,2.4,0.2,4.7,0.5
			c0.2-0.2,0.4-0.3,0.7-0.5l0,0l1.1-2.5c-4-0.5-8-0.6-10.7-0.6v3v27.4v2.9h2.6h1.6v3.2c6.2,0,18.8-1.8,18.8,3h4.2
			c0-4.9,12.5-3,18.8-3v-3.2h3.6H55V10.2C52.3,10.2,48.3,10.3,44.3,10.8z"/>
	</g>
</g>
</svg>
