<?xml version="1.0" encoding="utf-8"?>
<!-- Generator: Adobe Illustrator 20.0.0, SVG Export Plug-In . SVG Version: 6.00 Build 0)  -->
<svg version="1.1" id="HEX_Blockquote_EXT_copy" xmlns="http://www.w3.org/2000/svg" xmlns:xlink="http://www.w3.org/1999/xlink"
	 x="0px" y="0px" viewBox="0 0 60 60" style="enable-background:new 0 0 60 60;" xml:space="preserve">
<style type="text/css">
	.Arched_x0020_Green{fill:url(#SVGID_1_);stroke:#FFFFFF;stroke-width:0.25;stroke-miterlimit:1;}
	.st0{fill:#999999;}
	.st1{opacity:0.15;fill:#999999;}
	.st2{fill:#88E333;}
</style>
<linearGradient id="SVGID_1_" gradientUnits="userSpaceOnUse" x1="-20" y1="262.2046" x2="-19.2929" y2="261.4975">
	<stop  offset="0" style="stop-color:#1EAB4B"/>
	<stop  offset="0.9831" style="stop-color:#19361A"/>
</linearGradient>
<path class="st0" d="M59.66,28.74L45.91,5.22c-0.45-0.77-1.27-1.24-2.16-1.24h-27.5c-0.89,0-1.71,0.47-2.16,1.24L0.34,28.74
	c-0.46,0.78-0.46,1.74,0,2.52l13.75,23.52c0.45,0.77,1.27,1.24,2.16,1.24h27.5c0.89,0,1.71-0.47,2.16-1.24l13.75-23.52
	C60.11,30.48,60.11,29.52,59.66,28.74z M44.44,54.71H15.55L1.11,30L15.55,5.29h28.89L58.89,30L44.44,54.71z"/>
<polygon class="st1" points="15.56,5.29 1.11,30 15.56,54.71 44.44,54.71 58.89,30 44.44,5.29 "/>
<path class="st2" d="M30.66,17.24c-1.42,0-2.8,0.28-4.1,0.84l-0.06,0.03l0.42,0.95l0.06-0.03c1.17-0.5,2.41-0.75,3.68-0.75
	c5.19,0,9.41,4.22,9.41,9.41c0,5.19-4.22,9.41-9.41,9.41c-0.8,0-1.6-0.1-2.39-0.31l0.01-7.32h0.76v6.47h1.11v-6.38h0.37l2.74,2.65
	l0.03,0.02h0c1.16,1.06,1.86,1.56,2.66,1.56c1.57,0,2.28-0.98,2.28-1.96c0-1.29-1.03-1.69-1.94-2.03c-0.71-0.27-1.32-0.5-1.32-1.1
	c0-0.49,0.46-0.75,0.92-0.75c0.55,0,0.85,0.25,1.24,0.75l0.04,0.05l0.8-0.63l-0.04-0.05c-0.33-0.44-0.9-1.01-1.98-1.01
	c-1.2,0-2.04,0.71-2.04,1.72c0,1.33,1.04,1.7,1.95,2.02c0.7,0.25,1.31,0.46,1.31,1.06c0,0.65-0.37,0.96-1.12,0.96
	c-0.45,0-0.68-0.15-1.4-0.74l-2.72-2.52c1.4-0.1,2.11-0.75,2.11-1.93c0-1.15-0.88-1.87-2.3-1.87h-2.71v2.87h-3.51v0.86h1.69
	c0,0.68-0.02,6.39-0.02,7.01h0l0,1.01l0.01,0.05l0.04,0.02c1.1,0.38,2.24,0.57,3.4,0.57c5.76,0,10.45-4.69,10.45-10.45
	S36.42,17.24,30.66,17.24z M31.49,26.65c0.46,0,0.82,0.07,1.02,0.2c0.29,0.19,0.42,0.46,0.42,0.82c0,0.65-0.51,1.01-1.45,1.01h-1.34
	v-2.02H31.49z M17.29,36l4.98-3.02l0.07,0.12c0.05,0.07,0.09,0.14,0.14,0.21c0.02,0.03,0.04,0.06,0.07,0.09l0.01,0.02
	c0.1,0.14,0.21,0.28,0.31,0.42l0.04,0.06c0.05,0.06,0.1,0.12,0.15,0.18l0.1,0.11c0.06,0.07,0.12,0.14,0.18,0.2l0.03,0.04
	c0.14,0.15,0.29,0.3,0.44,0.44l0.02,0.02c0.08,0.07,0.15,0.14,0.23,0.21l0.05,0.04c0.52,0.45,1.09,0.85,1.7,1.18l-2.62,5.18
	C20.79,40.21,18.75,38.31,17.29,36z M18.38,34.7c-1.13-1.93-1.77-4.12-1.88-6.36l5.83-0.09c0.02,0.34,0.06,0.68,0.12,1.01l0,0.01
	c0.05,0.24,0.1,0.49,0.17,0.73l0.02,0.06c0.02,0.07,0.04,0.15,0.07,0.22l0.01,0.04c0.04,0.13,0.09,0.27,0.14,0.4l0.04,0.1
	c0.03,0.06,0.05,0.13,0.08,0.19c0.01,0.03,0.02,0.05,0.04,0.08l0.01,0.02c0.05,0.1,0.1,0.21,0.15,0.31
	c0.02,0.04,0.04,0.08,0.06,0.12c0.02,0.05,0.05,0.1,0.08,0.14L18.38,34.7z M24.36,25.38c-0.03,0.08-0.06,0.15-0.08,0.23l0,0.01
	c-0.01,0.04-0.03,0.08-0.04,0.13c-0.01,0.04-0.03,0.09-0.04,0.13c-0.02,0.05-0.03,0.11-0.05,0.16l-0.01,0.03
	c-0.01,0.03-0.01,0.05-0.02,0.08c-0.02,0.08-0.04,0.17-0.06,0.25c-0.01,0.03-0.01,0.05-0.02,0.08l-0.01,0.03
	c-0.01,0.07-0.03,0.13-0.04,0.2l0,0.02c0,0.02-0.01,0.05-0.01,0.07c-0.01,0.09-0.03,0.19-0.04,0.28l-0.01,0.06
	c-0.01,0.08-0.01,0.16-0.02,0.24l0,0.02c0,0.02,0,0.04,0,0.06c0,0.07-0.01,0.14-0.01,0.21l-5.98,0.09c0-0.03,0-0.06,0-0.08
	c0-2.26,0.61-4.48,1.76-6.41l5.09,3.23c0,0.01-0.01,0.01-0.01,0.02c-0.09,0.17-0.18,0.34-0.26,0.51l-0.04,0.09
	c-0.02,0.05-0.04,0.1-0.07,0.15L24.36,25.38z M26.68,24.59c-0.08,0.09-0.16,0.2-0.23,0.3l-5.23-3.32c1.7-2.55,3.84-3.6,4.45-3.86
	l2.53,5.66c-0.04,0.02-0.09,0.05-0.13,0.07l-0.02,0.01c-0.09,0.05-0.19,0.11-0.29,0.17c-0.09,0.06-0.18,0.13-0.28,0.2l-0.03,0.02
	l0,0.01c-0.08,0.06-0.16,0.13-0.23,0.19l-0.01,0.01c-0.16,0.14-0.31,0.3-0.45,0.46l-0.07,0.04V24.59z M43.5,27.68
	c0,7.02-5.71,12.74-12.73,12.75H30.7l0,4.63l-0.2,0c-2.57-0.03-5.04-0.62-7.34-1.74l-0.18-0.09l2.77-5.48l0.17,0.08
	c0.22,0.1,0.42,0.19,0.62,0.27l0.02,0.01c0.17,0.07,0.34,0.13,0.53,0.2c0.04,0.01,0.07,0.03,0.11,0.04
	c0.13,0.04,0.27,0.09,0.42,0.13c0.06,0.02,0.12,0.03,0.18,0.05c0.08,0.02,0.16,0.04,0.24,0.06c0.12,0.03,0.24,0.06,0.36,0.08
	c0.05,0.01,0.1,0.02,0.15,0.03l0.05,0.01c0.1,0.02,0.21,0.04,0.31,0.06c0.07,0.01,0.13,0.02,0.2,0.03c0.13,0.02,0.26,0.03,0.39,0.05
	c0.05,0.01,0.1,0.01,0.16,0.02c0.15,0.01,0.3,0.03,0.45,0.03l0.14,0.01c0.18,0.01,0.33,0.01,0.48,0.01l0.02,0
	c6.2,0,11.24-5.05,11.24-11.24c0-6.2-5.04-11.24-11.24-11.24c-0.18,0-0.36,0-0.55,0.01l-0.05,0c-0.15,0.01-0.31,0.02-0.5,0.04
	l-0.09,0.01c-0.14,0.02-0.29,0.03-0.45,0.06l-0.14,0.02c-0.13,0.02-0.26,0.05-0.4,0.07l-0.05,0.01c-0.05,0.01-0.09,0.02-0.14,0.03
	c-0.12,0.02-0.23,0.05-0.34,0.08c-0.08,0.02-0.16,0.04-0.23,0.06c-0.09,0.02-0.17,0.05-0.26,0.07c-0.1,0.03-0.2,0.06-0.31,0.1
	l-0.05,0.02c-0.29,0.1-0.58,0.2-0.86,0.32l-0.18,0.08l-0.61-1.38l0.18-0.08c1.58-0.68,3.27-1.02,5.01-1.02
	C37.78,14.94,43.5,20.65,43.5,27.68z"/>
</svg>
