<?xml version="1.0" encoding="utf-8"?>
<!-- Generator: Adobe Illustrator 23.0.3, SVG Export Plug-In . SVG Version: 6.00 Build 0)  -->
<svg version="1.1" id="My_Account" xmlns="http://www.w3.org/2000/svg" xmlns:xlink="http://www.w3.org/1999/xlink" x="0px" y="0px"
	 viewBox="0 0 60 60" style="enable-background:new 0 0 60 60;" xml:space="preserve">
<style type="text/css">
	.st0{fill:url(#SVGID_1_);}
	.st1{fill:#88E333;}
</style>
<linearGradient id="SVGID_1_" gradientUnits="userSpaceOnUse" x1="-2.528395e-10" y1="16.6232" x2="38.3782" y2="16.6232">
	<stop  offset="0" style="stop-color:#88E333"/>
	<stop  offset="1" style="stop-color:#4EBB00"/>
</linearGradient>
<path class="st0" d="M35.6,0.2H2.7C1.2,0.2,0,1.4,0,2.9v20.5c0,1.5,1.2,2.7,2.7,2.7h4.1l8.3,6.9l-0.1-6.9h20.6
	c1.5,0,2.7-1.2,2.7-2.7V2.9C38.4,1.4,37.1,0.2,35.6,0.2z M5.6,8.4C4.8,8.4,4.2,7.7,4.2,7s0.6-1.4,1.4-1.4h27.3
	c0.8,0,1.4,0.6,1.4,1.4s-0.6,1.4-1.4,1.4H5.6z M5.6,14c-0.8,0-1.4-0.6-1.4-1.4c0-0.8,0.6-1.4,1.4-1.4h27.3c0.8,0,1.4,0.6,1.4,1.4
	c0,0.8-0.6,1.4-1.4,1.4H5.6z M5.5,19.4c-0.8,0-1.4-0.6-1.4-1.4c0-0.8,0.6-1.4,1.4-1.4h16.3c0.8,0,1.4,0.6,1.4,1.4
	c0,0.8-0.6,1.4-1.4,1.4H5.5z"/>
<g>
	<path class="st1" d="M55.8,4.8c-4.4-3.8-5.3-5.2-7.6-4.7c-1.6,0.4-3.3,2-5.7,5.2v15.2c0.1,0.1,0.3,0.1,0.4,0.2
		c1.3,0.7,3.8,2.1,3.3,3.3c-0.6,1.6-3.3,6.4-9.5,12.7c-0.5,0.5-1.1,1-1.6,1.5c-5.6,5.2-9.8,7.5-11.2,8c-1.1,0.4-2.6-2-3.3-3.3
		c-1.8-3.6-2.8-5.6-4.6-6.5c-1.4-0.7-4.5,1.5-8.9,4.7c-4.4,3.2-6.6,5.2-7.1,7.2c-0.5,2.2,0.8,3.2,4.7,7.6C8.6,60.1,12,60,14.6,60
		c2.6,0,7.2-1.3,14.2-5.6c2.6-1.6,5.7-3.9,8.7-6.3c1.7-1.4,4-3.5,6-5.6c1.4-1.5,2.8-2.9,3.8-4.1c2.4-3,4.7-6.1,6.3-8.7
		c4.2-7,6.4-12.3,6.4-15C60,12,60.1,8.6,55.8,4.8z"/>
</g>
</svg>
