<?xml version="1.0" encoding="utf-8"?>
<!-- Generator: Adobe Illustrator 20.0.0, SVG Export Plug-In . SVG Version: 6.00 Build 0)  -->
<svg version="1.1" id="Search_1_" xmlns="http://www.w3.org/2000/svg" xmlns:xlink="http://www.w3.org/1999/xlink" x="0px" y="0px"
	 viewBox="0 0 60 60" style="enable-background:new 0 0 60 60;" xml:space="preserve">
<style type="text/css">
	.Arched_x0020_Green{fill:url(#SVGID_1_);stroke:#FFFFFF;stroke-width:0.25;stroke-miterlimit:1;}
	.st0{fill:#666666;}
	.st1{fill-rule:evenodd;clip-rule:evenodd;fill:#666666;}
</style>
<linearGradient id="SVGID_1_" gradientUnits="userSpaceOnUse" x1="-20" y1="262.2046" x2="-19.2929" y2="261.4975">
	<stop  offset="0" style="stop-color:#1EAB4B"/>
	<stop  offset="0.9831" style="stop-color:#19361A"/>
</linearGradient>
<g>
	<path class="st0" d="M40.2,26.6c0-0.1,0-0.1,0-0.2c0-0.2-0.1-0.3-0.2-0.5c0,0,0-0.1,0-0.1c-0.3-0.6-0.8-1.1-1.4-1.5
		c0,0-0.1,0-0.1,0c-0.2-0.1-0.4-0.2-0.6-0.3l-2.5-6c-0.4-0.9-1.2-1.5-2.3-1.5H20.1c-1,0-1.9,0.6-2.3,1.5l-2,4.7l-0.2,0.4L15.3,24
		c-0.2,0.1-0.4,0.1-0.6,0.2c0,0,0,0,0,0c-0.6,0.3-1.1,0.8-1.5,1.5c0,0,0,0,0,0C13.1,26,13,26.2,13,26.4c0,0.1,0,0.1,0,0.2
		c-0.1,0.2-0.1,0.5-0.1,0.7v0.1v0.8v6.3H15v2.1c0,1.2,1,2.2,2.2,2.2c1.2,0,2.1-0.8,2.1-2v-2.2h14.8v2.1c0,1.2,1.1,2.2,2.2,2.2
		s2-0.8,2-2v-2.2h2.1v-6v-1.2v0C40.3,27,40.2,26.8,40.2,26.6z M17.3,30.4c-1.2,0-2.2-1-2.2-2.2c0-0.1,0-0.2,0-0.4
		c0-0.1,0-0.2,0.1-0.3c0.2-0.7,0.8-1.2,1.5-1.4c0.1,0,0.2,0,0.3-0.1c0.1,0,0.2,0,0.3,0c0.2,0,0.4,0,0.5,0.1c0.2,0.1,0.4,0.1,0.6,0.3
		c0.2,0.1,0.3,0.2,0.4,0.3c0,0,0,0,0,0c0.1,0.1,0.2,0.2,0.3,0.4c0,0,0,0.1,0.1,0.1c0.1,0.1,0.1,0.2,0.1,0.4c0,0,0,0.1,0,0.1
		c0,0.2,0.1,0.3,0.1,0.5C19.5,29.5,18.5,30.4,17.3,30.4z M21.1,23.9h-3.6l2.2-4.8c0.1-0.3,0.3-0.4,0.6-0.4h12.6
		c0.3,0,0.5,0.2,0.6,0.4l1,2.2l1.2,2.6h-3.1H21.1z M35.6,30.4c-1.2,0-2.2-1-2.2-2.2c0-0.2,0-0.4,0.1-0.6c0,0,0-0.1,0-0.1
		c0.1-0.2,0.1-0.4,0.2-0.5l0,0c0.1-0.2,0.2-0.3,0.4-0.4c0,0,0.1-0.1,0.1-0.1c0.2-0.1,0.3-0.2,0.5-0.3c0,0,0,0,0,0
		c0.1-0.1,0.3-0.1,0.4-0.1c0.1,0,0.3,0,0.4,0c0,0,0,0,0,0c0.2,0,0.3,0,0.5,0.1c0,0,0,0,0,0c0.1,0,0.3,0.1,0.4,0.2
		c0.2,0.1,0.5,0.3,0.7,0.5c0,0,0,0,0,0c0.1,0.1,0.2,0.2,0.2,0.3c0,0,0,0,0,0c0.1,0.1,0.1,0.2,0.2,0.3c0,0,0,0,0,0
		c0,0.1,0.1,0.3,0.1,0.4c0,0.1,0,0.3,0,0.4C37.8,29.5,36.9,30.4,35.6,30.4z"/>
	<path class="st1" d="M54.8,48.1L47,40.3c-0.4-0.4-0.8-0.7-1.3-0.9c2.2-3.4,3.4-7.5,3.4-11.8C49.1,15.2,39,5.2,26.6,5.2
		C14.1,5.2,4,15.2,4,27.6s10.1,22.3,22.6,22.3c5.4,0,10.3-1.9,14.2-5c0.2,0.3,0.3,0.6,0.6,0.9l7.9,7.8c0.8,0.8,1.8,1.1,2.8,1.1
		s2-0.4,2.8-1.2C56.4,52.1,56.4,49.6,54.8,48.1z M26.6,45.8c-10.1,0-18.4-8.1-18.4-18.2c0-10,8.2-18.2,18.4-18.2
		c10.1,0,18.4,8.1,18.4,18.2C44.9,37.6,36.7,45.8,26.6,45.8z"/>
</g>
</svg>
