<?xml version="1.0" encoding="utf-8"?>
<!-- Generator: Adobe Illustrator 19.2.1, SVG Export Plug-In . SVG Version: 6.00 Build 0)  -->
<svg version="1.1" id="My_Account" xmlns="http://www.w3.org/2000/svg" xmlns:xlink="http://www.w3.org/1999/xlink" x="0px" y="0px"
	 viewBox="0 0 60 60" style="enable-background:new 0 0 60 60;" xml:space="preserve">
<style type="text/css">
	.Arched_x0020_Green{fill:url(#SVGID_1_);stroke:#FFFFFF;stroke-width:0.25;stroke-miterlimit:1;}
	.st0{fill:#FFFFFF;}
</style>
<linearGradient id="SVGID_1_" gradientUnits="userSpaceOnUse" x1="-20" y1="262.2046" x2="-19.2929" y2="261.4975">
	<stop  offset="0" style="stop-color:#1EAB4B"/>
	<stop  offset="0.9831" style="stop-color:#19361A"/>
</linearGradient>
<g>
	<path class="st0" d="M35.7,25.3c0,0.1,0,0.2,0,0.4c0.4,0.4,0.6,0.9,0.7,1.2l0.1,0.2c0.1,0.3,0.2,0.7,0.3,1c0.7,0.3,1.5,0.6,2.3,0.9
		l3.2-4.7l-5.5-0.9l-1.1,1.6C35.7,25,35.7,25.1,35.7,25.3L35.7,25.3z M35.7,25.3"/>
	<path class="st0" d="M42.4,30.3l1.7,0.6l6.5-4.1l-4.6-1.7l-6.3,4C40.6,29.5,41.5,29.9,42.4,30.3L42.4,30.3z M42.4,30.3"/>
	<path class="st0" d="M45.4,31.8c0.1,0,0.1,0.1,0.2,0.1l2.1,1.5l8.9-2.9l-3.2-2.3l-8.9,2.9L45.4,31.8z M45.4,31.8"/>
	<path class="st0" d="M49.3,36.4l10.4-1.3l-1.5-2.7l-10.4,1.3L49.3,36.4z M49.3,36.4"/>
	<path class="st0" d="M49.3,36.7l-0.4,2.8l10.7,0.4l0.4-2.8L49.3,36.7z M49.3,36.7"/>
	<path class="st0" d="M46.4,42.3l9.9,2l2.3-2.6l-9.9-2L46.4,42.3z M46.4,42.3"/>
	<path class="st0" d="M42.1,44.6l8,3.5l3.9-2.1l-8-3.5L42.1,44.6z M42.1,44.6"/>
	<path class="st0" d="M36.5,46.1l5.2,4.5l5.1-1.3l-5.2-4.5L36.5,46.1z M36.5,46.1"/>
	<path class="st0" d="M30.2,46.6l1.9,5.1l5.7-0.5l-1.9-5.1L30.2,46.6z M30.2,46.6"/>
	<path class="st0" d="M22.2,51.2l5.7,0.4l1.7-5.1l-5.7-0.4L22.2,51.2z M22.2,51.2"/>
	<path class="st0" d="M18.2,44.7l-5.1,4.6l5.1,1.3l5.1-4.6L18.2,44.7z M18.2,44.7"/>
	<path class="st0" d="M13.9,42.4L6,45.9l3.9,2l7.9-3.5L13.9,42.4z M13.9,42.4"/>
	<path class="st0" d="M11.3,39.6l-9.8,2.1l2.3,2.5l9.8-2.1L11.3,39.6z M11.3,39.6"/>
	<path class="st0" d="M10.7,36.6L0,37l0.5,2.8l10.7-0.4L10.7,36.6z M10.7,36.6"/>
	<path class="st0" d="M12.3,33.6L1.8,32.3L0.4,35l10.4,1.3L12.3,33.6z M12.3,33.6"/>
	<path class="st0" d="M15.8,31l-9-2.8l-3.1,2.3l9,2.8L15.8,31z M15.8,31"/>
	<path class="st0" d="M20.8,29.1l-6.6-4.1l-4.6,1.7l6.6,4.1L20.8,29.1z M20.8,29.1"/>
	<path class="st0" d="M21.4,28.9c0.3-0.1,0.7-0.3,1-0.4c0.4-0.2,0.8-0.3,1.3-0.5c0.1-0.3,0.2-0.7,0.4-1.1l0-0.1
		c0.1-0.3,0.3-0.9,0.8-1.3l-1.6-2.3l-5.5,0.9l3.5,4.8L21.4,28.9z M21.4,28.9"/>
	<path class="st0" d="M32.1,43.6c4.5-1,11.1-4.6,14.4-4.6l-1.2-5.2c-0.4-0.4-0.8-0.7-1.3-1c-2.5-1.3-5.1-2.4-7.8-3.4
		c-0.2-0.1-0.4-0.2-0.5-0.4c-0.2-0.5-0.4-1-0.5-1.5C35,27.3,35,27,34.6,26.9c-0.1,0-0.2-0.2-0.2-0.3c0-1.2-0.2-2.4,0.6-3.4
		c0,0,0-0.1,0.1-0.1c0.5-1,0.5-2.2,1.2-3.1c0,0,0-0.1,0-0.1c0.1-0.7,0.2-1.4,0.2-2.2c0-0.1-0.1-0.2-0.1-0.3C36,17.3,36,17,36,16.7
		c0-1.4,0-1.6,0-3c0-0.8-0.2-1.5-0.9-2.1c-0.7-0.6-1.4-1.2-2.2-1.9c-0.3-0.3-0.4-0.5-0.1-0.8c0.1-0.1,0.3-0.2,0.5-0.4
		c0-0.1-0.1-0.1-0.1-0.2c-0.2,0-0.4,0-0.7,0c-0.8,0.1-1.6,0.2-2.4,0.4c-1.5,0.4-3,0.8-4.2,1.8c-0.8,0.7-1.5,1.5-1.6,2.6
		c0,0.6,0,1.2,0,1.8c0,1,0,0.7,0,1.7c0,0.2-0.1,0.4-0.2,0.4c-0.4,0.1-0.4,0.4-0.3,0.7c0,0.2,0,0.5,0.1,0.7c0.1,0.6,0.3,1.2,0.5,1.8
		c0.1,0.4,0.4,0.9,0.5,1.3c0.1,0.9,0.5,1.7,1.1,2.4c0.1,0.1,0.2,0.3,0.2,0.4c0,0.7-0.1,1.4-0.2,2.1c0,0.1-0.2,0.3-0.3,0.4
		c-0.5,0.1-0.5,0.4-0.6,0.8c-0.1,0.5-0.3,0.9-0.5,1.4c-0.1,0.1-0.2,0.3-0.3,0.4c-0.8,0.4-1.7,0.7-2.5,1c-0.9,0.4-1.8,0.7-2.6,1.1
		c-0.9,0.4-1.7,0.9-2.6,1.4c-0.5,0.3-1,0.6-1.4,0.9l-1.2,5.1c5.6,0,8.7,3.9,14.2,4.7c0.6,0.1,1.1,0.2,1.8,0.2
		C30.7,43.9,31.4,43.8,32.1,43.6z"/>
</g>
</svg>
