<?xml version="1.0" encoding="utf-8"?>
<!-- Generator: Adobe Illustrator 20.1.0, SVG Export Plug-In . SVG Version: 6.00 Build 0)  -->
<svg version="1.1" id="BLOG_POST" xmlns="http://www.w3.org/2000/svg" xmlns:xlink="http://www.w3.org/1999/xlink" x="0px" y="0px"
	 viewBox="0 0 60 60" style="enable-background:new 0 0 60 60;" xml:space="preserve">
<style type="text/css">
	.Arched_x0020_Green{fill:url(#SVGID_1_);stroke:#FFFFFF;stroke-width:0.25;stroke-miterlimit:1;}
	.st0{fill:#4EBB00;}
	.st1{fill:#FFFFFF;}
</style>
<linearGradient id="SVGID_1_" gradientUnits="userSpaceOnUse" x1="-20" y1="262.2046" x2="-19.2929" y2="261.4975">
	<stop  offset="0" style="stop-color:#1EAB4B"/>
	<stop  offset="0.9831" style="stop-color:#19361A"/>
</linearGradient>
<g>
	<g>
		<g>
			<path class="st0" d="M9.73,30.49v-4.37c0-0.6-0.49-1.09-1.09-1.09H2.08c-0.6,0-1.09,0.49-1.09,1.09v4.37
				c0,0.6,0.49,1.09,1.09,1.09h6.56C9.24,31.58,9.73,31.1,9.73,30.49z"/>
			<path class="st0" d="M12.8,14.63c0.2,0.2,0.48,0.32,0.77,0.32s0.57-0.12,0.77-0.32l2.47-2.47c0.2-0.2,0.32-0.48,0.32-0.77
				s-0.12-0.57-0.32-0.77l-4.94-4.94c-0.43-0.43-1.12-0.43-1.55,0L7.86,8.15c-0.43,0.43-0.43,1.12,0,1.55L12.8,14.63z"/>
			<path class="st0" d="M46.75,14.52c0.21,0.21,0.49,0.32,0.77,0.32c0.28,0,0.56-0.11,0.77-0.32l4.94-4.94
				c0.43-0.43,0.43-1.12,0-1.55l-2.47-2.47c-0.43-0.43-1.12-0.43-1.55,0l-4.94,4.94c-0.43,0.43-0.43,1.12,0,1.55L46.75,14.52z"/>
			<path class="st0" d="M28.31,9.73h4.37c0.6,0,1.09-0.49,1.09-1.09V2.08c0-0.6-0.49-1.09-1.09-1.09h-4.37
				c-0.6,0-1.09,0.49-1.09,1.09v6.56C27.21,9.24,27.7,9.73,28.31,9.73z"/>
			<path class="st0" d="M58.91,25.03h-6.56c-0.6,0-1.09,0.49-1.09,1.09v4.37c0,0.6,0.49,1.09,1.09,1.09h6.56
				c0.6,0,1.09-0.49,1.09-1.09v-4.37C60,25.52,59.51,25.03,58.91,25.03z"/>
			<path class="st0" d="M50.48,42.09c-0.43-0.43-1.12-0.43-1.55,0l-2.47,2.47c-0.43,0.43-0.43,1.12,0,1.55l4.94,4.94
				c0.21,0.21,0.49,0.32,0.77,0.32c0.28,0,0.56-0.11,0.77-0.32l2.47-2.47c0.43-0.43,0.43-1.12,0-1.55L50.48,42.09z"/>
			<path class="st0" d="M12.05,42.09c-0.43-0.42-1.12-0.42-1.54,0l-4.94,4.94c-0.43,0.43-0.43,1.12,0,1.55l2.47,2.47
				c0.21,0.21,0.49,0.32,0.77,0.32c0.28,0,0.56-0.11,0.77-0.32l4.96-4.94c0.21-0.21,0.32-0.48,0.32-0.78s-0.12-0.57-0.32-0.77
				L12.05,42.09z"/>
			<path class="st0" d="M30.49,11.91c-10.24,0-18.58,7.83-18.58,17.46c0,5.95,3.5,11.56,9.2,14.83v10.68c0,1.51,1.64,2.64,4.76,3.27
				c0.77,1.15,2.46,1.85,4.62,1.85c2.15,0,3.85-0.69,4.62-1.85c3.12-0.63,4.76-1.76,4.76-3.27V44.2c5.7-3.27,9.2-8.88,9.2-14.83
				C49.07,19.75,40.74,11.91,30.49,11.91z M30.49,16.87c7.41,0,13.44,5.61,13.44,12.5c0,5.04-3.25,9.56-8.29,11.53
				c-0.3,0.12-0.53,0.36-0.64,0.66l-1.25,3.56c-0.01,0.01-0.01,0.03-0.01,0.05c-0.36,0.22-1.52,0.55-3.26,0.55
				c-1.74,0-2.9-0.33-3.26-0.55c-0.01-0.01-0.01-0.03-0.01-0.05l-1.25-3.56c-0.11-0.3-0.34-0.54-0.64-0.66
				c-5.03-1.96-8.29-6.49-8.29-11.53C17.05,22.48,23.08,16.87,30.49,16.87z"/>
		</g>
		<g id="XMLID_53_">
			<polygon id="XMLID_54_" class="st0" points="23.93,31.8 29.96,31.8 27.86,39.67 37.05,29.18 31.02,29.18 33.11,21.31 			"/>
		</g>
	</g>
	<g>
		<g>
			<path class="st1" d="M8.74,29.51v-4.37c0-0.6-0.49-1.09-1.09-1.09H1.09c-0.6,0-1.09,0.49-1.09,1.09v4.37
				c0,0.6,0.49,1.09,1.09,1.09h6.56C8.25,30.6,8.74,30.11,8.74,29.51z"/>
			<path class="st1" d="M11.82,13.65c0.2,0.2,0.48,0.32,0.77,0.32s0.57-0.12,0.77-0.32l2.47-2.47c0.2-0.2,0.32-0.48,0.32-0.77
				s-0.12-0.57-0.32-0.77l-4.94-4.94c-0.43-0.43-1.12-0.43-1.55,0L6.88,7.16c-0.43,0.43-0.43,1.12,0,1.55L11.82,13.65z"/>
			<path class="st1" d="M45.76,13.54c0.21,0.21,0.49,0.32,0.77,0.32s0.56-0.11,0.77-0.32l4.94-4.94c0.43-0.43,0.43-1.12,0-1.55
				l-2.47-2.47c-0.43-0.43-1.12-0.43-1.55,0l-4.94,4.94c-0.43,0.43-0.43,1.12,0,1.55L45.76,13.54z"/>
			<path class="st1" d="M27.32,8.74h4.37c0.6,0,1.09-0.49,1.09-1.09V1.09c0-0.6-0.49-1.09-1.09-1.09h-4.37
				c-0.6,0-1.09,0.49-1.09,1.09v6.56C26.23,8.25,26.72,8.74,27.32,8.74z"/>
			<path class="st1" d="M57.92,24.04h-6.56c-0.6,0-1.09,0.49-1.09,1.09v4.37c0,0.6,0.49,1.09,1.09,1.09h6.56
				c0.6,0,1.09-0.49,1.09-1.09v-4.37C59.02,24.53,58.53,24.04,57.92,24.04z"/>
			<path class="st1" d="M49.49,41.11c-0.43-0.43-1.12-0.43-1.55,0l-2.47,2.47c-0.43,0.43-0.43,1.12,0,1.55l4.94,4.94
				c0.21,0.21,0.49,0.32,0.77,0.32c0.28,0,0.56-0.11,0.77-0.32l2.47-2.47c0.43-0.43,0.43-1.12,0-1.55L49.49,41.11z"/>
			<path class="st1" d="M11.06,41.1c-0.43-0.42-1.12-0.42-1.54,0l-4.94,4.94c-0.43,0.43-0.43,1.12,0,1.55l2.47,2.47
				c0.21,0.21,0.49,0.32,0.77,0.32c0.28,0,0.56-0.11,0.77-0.32l4.96-4.94c0.21-0.21,0.32-0.48,0.32-0.78c0-0.29-0.12-0.57-0.32-0.77
				L11.06,41.1z"/>
			<path class="st1" d="M29.51,10.93c-10.24,0-18.58,7.83-18.58,17.46c0,5.95,3.5,11.56,9.2,14.83V53.9c0,1.51,1.64,2.64,4.76,3.27
				c0.77,1.15,2.46,1.85,4.62,1.85s3.85-0.69,4.62-1.85c3.12-0.63,4.76-1.76,4.76-3.27V43.22c5.7-3.27,9.2-8.88,9.2-14.83
				C48.09,18.76,39.75,10.93,29.51,10.93z M29.51,15.89c7.41,0,13.44,5.61,13.44,12.5c0,5.04-3.25,9.56-8.29,11.53
				c-0.3,0.12-0.53,0.36-0.64,0.66l-1.25,3.56c-0.01,0.01-0.01,0.03-0.01,0.05c-0.36,0.22-1.52,0.55-3.26,0.55
				c-1.74,0-2.9-0.33-3.26-0.55c-0.01-0.01-0.01-0.03-0.01-0.05l-1.25-3.56c-0.11-0.3-0.34-0.54-0.64-0.66
				c-5.03-1.96-8.29-6.49-8.29-11.53C16.07,21.5,22.1,15.89,29.51,15.89z"/>
		</g>
		<g id="XMLID_50_">
			<polygon id="XMLID_52_" class="st1" points="22.95,30.82 28.98,30.82 26.88,38.69 36.07,28.2 30.04,28.2 32.13,20.33 			"/>
		</g>
	</g>
</g>
<g>
</g>
<g>
</g>
<g>
</g>
<g>
</g>
<g>
</g>
<g>
</g>
</svg>
