<?xml version="1.0" encoding="utf-8"?>
<!-- Generator: Adobe Illustrator 20.0.0, SVG Export Plug-In . SVG Version: 6.00 Build 0)  -->
<svg version="1.1" id="HEX_Resources_HIDPlanet" xmlns="http://www.w3.org/2000/svg" xmlns:xlink="http://www.w3.org/1999/xlink"
	 x="0px" y="0px" viewBox="0 0 60 60" style="enable-background:new 0 0 60 60;" xml:space="preserve">
<style type="text/css">
	.Arched_x0020_Green{fill:url(#SVGID_1_);stroke:#FFFFFF;stroke-width:0.25;stroke-miterlimit:1;}
	.st0{fill:#FFFFFF;}
	.st1{opacity:0.25;fill:#FFFFFF;}
</style>
<linearGradient id="SVGID_1_" gradientUnits="userSpaceOnUse" x1="-20" y1="262.2046" x2="-19.2929" y2="261.4975">
	<stop  offset="0" style="stop-color:#1EAB4B"/>
	<stop  offset="0.9831" style="stop-color:#19361A"/>
</linearGradient>
<path class="st0" d="M59.7,28.7L45.9,5.2C45.5,4.5,44.6,4,43.7,4H16.2c-0.9,0-1.7,0.5-2.2,1.2L0.3,28.7c-0.5,0.8-0.5,1.7,0,2.5
	l13.7,23.5c0.4,0.8,1.3,1.2,2.2,1.2h27.5c0.9,0,1.7-0.5,2.2-1.2l13.8-23.5C60.1,30.5,60.1,29.5,59.7,28.7z M44.4,54.7H15.6L1.1,30
	L15.6,5.3h28.9L58.9,30L44.4,54.7z"/>
<polygon class="st1" points="15.6,5.3 1.1,30 15.6,54.7 44.4,54.7 58.9,30 44.4,5.3 "/>
<g>
	<path class="st0" d="M41.7,30c0,0.3,0,0.6,0,0.9H43c0-0.3,0-0.6,0-0.9c0-0.3,0-0.5,0-0.8h-1.3C41.7,29.5,41.7,29.7,41.7,30z"/>
	<path class="st0" d="M35.5,24.9h0.2c0.2-0.7-1.2-1.9-1.1-1c0.6,0.3,0.5,0.9,0.1,1H35.5L35.5,24.9z"/>
	<polygon class="st0" points="32.7,34.1 34.3,34.1 35.5,34.1 35.5,30.1 35.5,29.3 35.5,25.9 34.9,25.9 32.7,25.9 	"/>
	<path class="st0" d="M37.9,24.9h0.3C38.2,24.8,38.1,24.8,37.9,24.9z"/>
	<path class="st0" d="M45,25.9h-0.3h-0.3h-2h-1.4h-1.6h-0.9h-0.3h-0.8h-0.8v1.6v1.3v5.3h0.8h1.9h1.6h1.4h1.9h0.4h0.2
		c1.7-0.1,2.2-1.1,2.3-1.8v-0.8v-3v-0.6C46.9,26.4,45.7,26,45,25.9z M44.6,31.9h-1.8h-1.3h-2.2v-3.7h1.3h2.2h1.8V31.9z"/>
	<path class="st0" d="M20.2,31.2V30c-0.2,0.2-0.3,0.6-0.2,1C20,31,20.1,31.1,20.2,31.2z"/>
	<path class="st0" d="M38.9,37.6c0-0.1,0-0.2,0-0.3c0.5-0.6,0.6-1.5,0.3-2.1h-1.8h-0.3c-0.7,0.4-1.5,0.7-2.2,0h-2.2h-0.1h-0.9h-0.1
		h-2.8h-1v-1v-1.9H25v1.9v1h-0.5c0.1,0,0.1,0.1,0.2,0.2c1.3,0.6,2.2,1.8,3.4,2.6c1-0.4,3.1,0.6,2.1,1.9c-0.6,0.5-1.8,0.8-1.8,1.1v0
		c-1.6,0.2-1.1,0.3-1.6,0.3c-0.9-0.3-1.9-0.7-2.7-1.2c0,0,0,0,0,0c-0.4-1.1-1.4-1.7-2-2.6c-0.4-0.3-0.4-0.7-0.4-1.2c0,0,0,0,0,0
		c0-0.4,0.1-0.8,0.1-1.1h-0.5h-1v-1v-1.8c-0.4-0.6-0.8-1.3-1-2c0-1.5-0.1-2.9,0.4-4.3c0.2-0.4,0.4-0.7,0.7-1.1c0,0,0,0,0,0
		c1.3-1.9,3.4-3.8,4.9-5c1.6,0.5-0.8,2.3,0.4,3c0.1,0,0.2,0,0.3,0.1c0,0,0,0,0,0c0.5,0.3,0.7,1-0.2,1c-0.6-0.2-1.1,0.4-1.2,1H25v1v0
		c0.1,0,0.1,0,0.2,0c0.5-1.2,1.8-0.7,2,0.4c0.6,1-0.4,1.1-1,1.4h1.6v-1.8v-1h0.8c0.1-0.5,0.3-1,0-1.4c-0.8-0.8,0.1-1.6,0.9-1.7
		c0.5-0.1,1,0.1,1.1,0.7c0.2,0.9-0.3,1.6-0.8,2.3h1.9h0.1h0.9h0.1h1.7c-0.1,0-0.2,0-0.3-0.1c-0.8-0.4-1.1-2.7,0-2.5
		c0.9,0.1,0-0.8-0.4-1.3c0,0.2-0.1,0-0.1-0.1l-0.1-0.1c0.1-1.4-2.2-0.2-2.5-1.4c-1.4-0.7-3.1-0.8-4.7-0.6c0.6-0.2,1.2-0.3,1.9-0.4
		l0.2,0c0.2,0,0.4,0,0.5-0.1c0.3,0,0.6-0.1,1-0.1c4.6,0,8.6,2.7,10.5,6.6c0,0,0,0,0,0H42c-2-4.6-6.6-7.9-12-7.9c-7.2,0-13,5.8-13,13
		c0,7.2,5.8,13,13,13c5.4,0,10-3.3,12-7.9h-1.5C40,36,39.5,36.8,38.9,37.6z M28.4,21.7c0,0,0.1,0,0.1,0c0.1,0,0.1,0,0.1,0
		c0.3,0,0.2,0.3,0,0.4C28.1,22.7,27.9,21.8,28.4,21.7z M26.9,23.3c0.1,0,0.1-0.1,0.2-0.1c0.8,0,0.6,1.7,0,2
		C26.5,24.7,27.2,23.9,26.9,23.3z"/>
	<polygon class="st0" points="31.6,34.1 31.6,25.9 29.1,25.9 29,25.9 28.8,25.9 28.8,28.7 24.6,28.7 24,28.7 24,25.9 21.2,25.9 
		21.2,29.6 21.2,32.4 21.2,33.9 21.2,34.1 21.3,34.1 21.8,34.1 24,34.1 24,31.2 28.8,31.2 28.8,34.1 	"/>
</g>
</svg>
