<?xml version="1.0" encoding="utf-8"?>
<!-- Generator: Adobe Illustrator 19.2.1, SVG Export Plug-In . SVG Version: 6.00 Build 0)  -->
<svg version="1.1" id="Acct" xmlns="http://www.w3.org/2000/svg" xmlns:xlink="http://www.w3.org/1999/xlink" x="0px" y="0px"
	 viewBox="0 0 32 64" style="enable-background:new 0 0 32 64;" xml:space="preserve">
<style type="text/css">
	.st0{fill:#999999;}
	.st1{fill:#FFFFFF;}
</style>
<g>
	<rect x="8.6" class="st0" width="2.5" height="2.5"/>
	<rect x="22.1" class="st0" width="2.5" height="2.5"/>
	<path class="st0" d="M24.6,2.5v2.5h1.2v1.2H21V4.9h1.2V2.5H11.1v2.5h1.2v1.2H7.4V4.9h1.2V2.5H0v22.1h32V2.5H24.6z M14.8,19.7h-1.7
		c0,0-0.1-0.4-0.1-0.6c0.1,0,0.1-0.1,0.1-0.2v-0.2c0,0,0-0.6-1.1-1.1c-0.5-0.3-1.3-1-2.6-1.2c0.3-0.4,0.5-0.9,0.8-1.6
		c0.1-0.4,0.1-0.7,0.1-1.2c0-0.4,0.1-0.9,0-1.2c-0.3-1-0.9-1.3-1.7-1.3s-1.4,0.3-1.7,1.3c-0.1,0.3,0,0.9,0,1.2c0,0.5,0,0.8,0.1,1.2
		c0.2,0.6,0.5,1.2,0.8,1.6c-1.2,0.2-2,0.9-2.6,1.2c-1.1,0.5-1.1,1.1-1.1,1.1v0.2C4.2,19,4.2,19,4.2,19c-0.1,0.3-0.1,0.6-0.1,0.6H2.5
		V9.9h12.3V19.7z M29.5,18.5H17.2v-1.2h12.3V18.5z M29.5,14.8H17.2v-1.2h12.3V14.8z M29.5,11.1H17.2V9.9h12.3V11.1z"/>
</g>
<g>
	<rect x="8.6" y="32.2" class="st1" width="2.5" height="2.5"/>
	<rect x="22.1" y="32.2" class="st1" width="2.5" height="2.5"/>
	<path class="st1" d="M24.6,34.6v2.5h1.2v1.2H21v-1.2h1.2v-2.5H11.1v2.5h1.2v1.2H7.4v-1.2h1.2v-2.5H0v22.1h32V34.6H24.6z M14.8,51.8
		h-1.7c0,0-0.1-0.4-0.1-0.6c0.1,0,0.1-0.1,0.1-0.2v-0.2c0,0,0-0.6-1.1-1.1c-0.5-0.3-1.3-1-2.6-1.2c0.3-0.4,0.5-0.9,0.8-1.6
		c0.1-0.4,0.1-0.7,0.1-1.2c0-0.4,0.1-0.9,0-1.2c-0.3-1-0.9-1.3-1.7-1.3s-1.4,0.3-1.7,1.3c-0.1,0.3,0,0.9,0,1.2c0,0.5,0,0.8,0.1,1.2
		c0.2,0.6,0.5,1.2,0.8,1.6c-1.2,0.2-2,0.9-2.6,1.2c-1.1,0.5-1.1,1.1-1.1,1.1V51c0,0.1,0.1,0.2,0.1,0.2c-0.1,0.3-0.1,0.6-0.1,0.6H2.5
		V42h12.3V51.8z M29.5,50.6H17.2v-1.2h12.3V50.6z M29.5,46.9H17.2v-1.2h12.3V46.9z M29.5,43.3H17.2V42h12.3V43.3z"/>
</g>
</svg>
