<?xml version="1.0" encoding="utf-8"?>
<!-- Generator: Adobe Illustrator 19.2.1, SVG Export Plug-In . SVG Version: 6.00 Build 0)  -->
<svg version="1.1" id="Layer_1" xmlns="http://www.w3.org/2000/svg" xmlns:xlink="http://www.w3.org/1999/xlink" x="0px" y="0px"
	 viewBox="0 0 1084.6 124.9" style="enable-background:new 0 0 1084.6 124.9;" xml:space="preserve">
<style type="text/css">
	.st0{fill:#999999;}
	.st1{fill:#757576;}
</style>
<g>
	<path class="st0" d="M34.6,14.4v48.9H19.2V14.4H0V0.9h53.3v13.5H34.6z"/>
	<path class="st0" d="M106.3,38.5H76.8v24.9H61.4V0.9h15.4V25h29.5V0.9h15.4v62.4h-15.4V38.5z"/>
	<path class="st0" d="M134.1,63.4V0.9h50.1v13.4h-35.4V25h28.6v13h-28.6v11.9h35.4v13.4L134.1,63.4L134.1,63.4z"/>
	<path class="st0" d="M218.8,0.9h29.7c14.5,0,24.1,6.6,24.1,20.7c0,9.3-6.2,16.3-14.8,18.7L276,60.4v2.9h-16.4l-19-22.1h-6.2v22.1
		H219V0.9H218.8z M234.2,14.3v15.4h14c5.1,0,8.4-3.1,8.4-7.7c0-4.8-3.3-7.7-8.4-7.7H234.2z"/>
	<path class="st0" d="M285,63.4V0.9h50.1v13.4h-35.4V25h28.6v13h-28.6v11.9h35.4v13.4L285,63.4L285,63.4z"/>
	<path class="st0" d="M376.5,14.4v48.9H361V14.4h-19.2V0.9h53.3v13.5H376.5z"/>
	<path class="st0" d="M403.3,0.9H433c14.5,0,24.1,6.6,24.1,20.7c0,9.3-6.2,16.3-14.8,18.7l18.2,20.1v2.9h-16.4l-19-22.1h-6.2v22.1
		h-15.4V0.9H403.3z M418.7,14.3v15.4h14c5.1,0,8.4-3.1,8.4-7.7c0-4.8-3.3-7.7-8.4-7.7H418.7z"/>
	<path class="st0" d="M496.9,0c18.5,0,32.2,13.8,32.2,32.2c0,18.3-13.8,32-32.2,32c-18.3,0-32-13.8-32-32
		C464.8,13.8,478.6,0,496.9,0z M496.9,49.8c10.1,0,17-7.6,17-17.5c0-10.1-6.9-17.6-17-17.6c-9.8,0-17,7.5-17,17.6
		C479.9,42.1,487,49.8,496.9,49.8z"/>
	<path class="st0" d="M554.8,43v20.4H540V0.9h48.3v13.5h-33.5v15.1h28.6V43H554.8z"/>
	<path class="st0" d="M598.2,0.9h15.4v62.4h-15.4V0.9z"/>
	<path class="st0" d="M656.3,14.4v48.9h-15.4V14.4h-19.2V0.9H675v13.5H656.3z"/>
	<path class="st0" d="M707.3,44.8c4.8,3.1,11.9,6.2,19.7,6.2c6.2,0,10-2,10-6c0-2.8-2-4.4-7.1-5.7l-10.2-2.8
		c-10.7-2.8-15.9-8.5-15.9-17.4c0-10.7,8.2-19.2,25-19.2c8.9,0,17.6,2.5,22.5,5L747,18.2c-4.9-2.8-12.4-5-18.8-5
		c-6.1,0-8.6,1.9-8.6,5c0,2.8,1.8,3.9,5.7,5l11.1,3.2c11.5,3.3,16.4,8.9,16.4,17.5c0,12-10.6,20.3-26.2,20.3c-9.2,0-18.8-3.1-23-5.4
		L707.3,44.8z"/>
	<path class="st0" d="M791.7,0c18.5,0,32.2,13.8,32.2,32.2c0,18.3-13.8,32-32.2,32c-18.3,0-32-13.8-32-32
		C759.6,13.8,773.4,0,791.7,0z M791.7,49.8c10.1,0,17-7.6,17-17.5c0-10.1-6.9-17.6-17-17.6c-9.8,0-17,7.5-17,17.6
		C774.7,42.1,781.8,49.8,791.7,49.8z"/>
	<path class="st0" d="M849.2,35.5c0,9,4.6,14.5,13.5,14.5c9.2,0,13.8-5.7,13.8-14.5V0.9h15.4v35.6c0,15-10.3,27.8-29.2,27.8
		c-18.6,0-28.9-11.7-28.9-27.8V0.9h15.4V35.5z"/>
	<path class="st0" d="M905.8,0.9h29.7c14.5,0,24.1,6.6,24.1,20.7c0,9.3-6.2,16.3-14.8,18.7L963,60.4v2.9h-16.4l-19-22.1h-6.2v22.1
		H906V0.9H905.8z M921.2,14.3v15.4h14c5.1,0,8.4-3.1,8.4-7.7c0-4.8-3.3-7.7-8.4-7.7H921.2z"/>
	<path class="st0" d="M1000.7,50c7.7,0,13.1-3,17.2-6.2l7.1,11.1c-6.4,5.8-14.7,9.3-24.7,9.3c-18.8,0-33-13.9-33-32.1
		c0-18.3,14.1-32.1,33-32.1c10,0,18.3,3.5,24.7,9.3l-7.1,11.1c-4-3.1-9.5-6.2-17.2-6.2c-10.6,0-17.5,8-17.5,17.9
		C983.1,42.1,990.1,50,1000.7,50z"/>
	<path class="st0" d="M1034.5,63.4V0.9h50.1v13.4h-35.4V25h28.6v13h-28.6v11.9h35.4v13.4L1034.5,63.4L1034.5,63.4z"/>
</g>
<g>
	<path class="st1" d="M21.3,90.3l-5.5,25.9h-4.6l5.5-25.9H6l0.9-4h25.5l-0.9,4H21.3z"/>
	<path class="st1" d="M41.2,84.9l-2.5,11.7c2.2-2.4,5.4-3.9,9-3.9c6.2,0,8,4.4,6.8,10.2l-2.8,13.2h-4.6l2.6-12.5
		c0.8-3.9-0.4-6.6-4.4-6.6c-3.7,0-6.5,2.5-7.8,5l-3,14.2h-4.6L36.5,85L41.2,84.9L41.2,84.9z"/>
	<path class="st1" d="M79.5,113.6c-2.8,1.9-6.3,3.1-10.2,3.1c-8.7,0-11.3-5.4-9.9-12.1c1.4-6.8,7.2-12.2,14.6-12.2
		c7,0,9.3,4.3,8.2,9.6c-0.3,1.4-0.9,3.2-1.3,4H63.8c-0.4,4,1.4,6.7,6.5,6.7c3.2,0,6.1-1.2,8.2-2.6L79.5,113.6z M78,101.4
		c0.6-2.6-0.7-5-4.9-5c-4.3,0-7.4,2.9-8.5,6.2h13C77.8,102.2,77.9,101.8,78,101.4z"/>
	<path class="st1" d="M102.2,86.2h11.6c6.3,0,9.6,2.5,8.5,7.8c-0.7,3.3-3.1,5.5-6.4,6.5c4.4,0.8,6.7,3.2,5.8,7.7
		c-1,4.8-5.3,7.9-12.2,7.9H95.9L102.2,86.2z M110.2,98.9c3.8,0,6.5-1.3,7.1-4.3c0.7-3.3-1.4-4.4-5.1-4.4h-6.4l-1.8,8.7
		C104,98.9,110.2,98.9,110.2,98.9z M109.7,112.2c4.1,0,6.6-1.5,7.2-4.5c0.7-3.4-1.6-4.8-6-4.8h-7.7l-2,9.3H109.7z"/>
	<path class="st1" d="M146.4,113.6c-2.8,1.9-6.3,3.1-10.2,3.1c-8.7,0-11.3-5.4-9.9-12.1c1.4-6.8,7.2-12.2,14.6-12.2
		c7,0,9.3,4.3,8.2,9.6c-0.3,1.4-0.9,3.2-1.3,4h-17.1c-0.4,4,1.4,6.7,6.5,6.7c3.2,0,6.1-1.2,8.2-2.6L146.4,113.6z M144.9,101.4
		c0.6-2.6-0.7-5-4.9-5c-4.3,0-7.4,2.9-8.5,6.2h13C144.7,102.2,144.8,101.8,144.9,101.4z"/>
	<path class="st1" d="M170.6,98.4c-1.7-1-4.3-1.8-6.8-1.8c-2.9,0-4.7,1-5.1,3c-0.3,1.6,0.5,1.9,2.8,2.6l3.6,0.9
		c4.4,1.1,5.9,3.2,5.2,6.4c-0.9,4.3-5.2,7.1-11,7.1c-3.9,0-6.8-1.1-8.3-2l1.7-4c1.7,1,4.2,2.1,7.2,2.1s5.3-1.1,5.7-2.9
		c0.3-1.4-0.9-2.2-3.1-2.8l-3.4-0.9c-4.2-1.1-5.8-2.8-5-6.2c0.9-4.3,4.8-7.2,10.9-7.2c2.9,0,6.2,0.8,7.7,1.7L170.6,98.4z"/>
	<path class="st1" d="M186.9,87.3l-1.2,5.9h9l-0.8,3.6h-9l-2.4,11.4c-0.6,3,0.4,4.4,2.8,4.4c1.8,0,4-0.8,5.5-1.8l0.7,3.6
		c-2.3,1.3-5.3,2.2-8.4,2.2c-4.3,0-6.4-2.6-5.3-7.5l2.6-12.3H176l0.8-3.6h4.3l1.8-5.9C182.9,87.3,186.9,87.3,186.9,87.3z"/>
	<path class="st1" d="M212.5,86.2h11.6c6.3,0,9.6,2.5,8.5,7.8c-0.7,3.3-3.1,5.5-6.4,6.5c4.4,0.8,6.7,3.2,5.8,7.7
		c-1,4.8-5.3,7.9-12.2,7.9h-13.6L212.5,86.2z M220.6,98.9c3.8,0,6.5-1.3,7.2-4.3c0.7-3.3-1.4-4.4-5.1-4.4h-6.4l-1.8,8.7
		C214.5,98.9,220.6,98.9,220.6,98.9z M220,112.2c4.1,0,6.6-1.5,7.2-4.5c0.7-3.4-1.6-4.8-6-4.8h-7.7l-2,9.3H220z"/>
	<path class="st1" d="M240.6,93.1h4.6l-1,4.5c2-2.9,4.5-4.9,7.6-4.9c2,0,3.4,0.7,4.5,1.7l-2.6,3.8c-0.8-0.7-2.1-1.2-3.5-1.2
		c-3,0-5.5,2.4-7,5.2l-2.9,14h-4.6L240.6,93.1z"/>
	<path class="st1" d="M260.3,94.3c2.4-0.9,5.8-1.6,8.7-1.6c6.6,0,8.5,3.8,7.4,8.8l-3.1,14.7h-4.6l0.5-2.5c-2,1.5-4.6,2.9-8,2.9
		c-4.9,0-7.3-2.7-6.4-6.9c1.2-5.5,6.2-8.1,12.5-8.1c1.6,0,3,0.2,4.3,0.4l0.1-0.3c0.7-3.4-0.6-5.1-4-5.1c-2.4,0-5.4,0.7-7.6,1.6
		L260.3,94.3z M263.5,112.9c2.7,0,5-1.3,6.4-2.3l1.1-5.3c-0.8-0.2-2.1-0.4-3.3-0.4c-4,0-7.5,1.3-8.1,4.3
		C259.1,111.7,260.7,112.9,263.5,112.9z"/>
	<path class="st1" d="M289.3,93.1l-0.8,3.6c2.2-2.4,5.4-4,9.1-4c6.2,0,8,4.4,6.8,10.2l-2.8,13.2H297l2.6-12.5
		c0.8-3.9-0.4-6.6-4.4-6.6c-3.7,0-6.5,2.5-7.8,5l-3,14.2h-4.6l4.9-23L289.3,93.1L289.3,93.1z"/>
	<path class="st1" d="M322.8,92.7c3.1,0,5.4,1.3,6.7,3l2.3-10.8h4.6l-6.6,31.2h-4.6l0.6-2.7c-2,1.8-4.8,3.1-8,3.1
		c-6.6,0-10-5-8.5-12C310.7,97.7,316.1,92.7,322.8,92.7z M319.8,112.6c2.6,0,5.2-1.3,6.7-2.6l2.2-10.6c-1-1.4-3.1-2.7-5.6-2.7
		c-4.6,0-8.2,3.2-9.2,7.9C312.9,109.3,315.2,112.6,319.8,112.6z"/>
	<path class="st1" d="M355.4,98.4c-1.7-1-4.3-1.8-6.8-1.8c-2.9,0-4.7,1-5.1,3c-0.3,1.6,0.5,1.9,2.8,2.6l3.6,0.9
		c4.4,1.1,5.9,3.2,5.2,6.4c-0.9,4.3-5.2,7.1-11,7.1c-3.9,0-6.8-1.1-8.3-2l1.7-4c1.7,1,4.2,2.1,7.2,2.1s5.3-1.1,5.7-2.9
		c0.3-1.4-0.9-2.2-3.1-2.8l-3.4-0.9c-4.2-1.1-5.8-2.8-5-6.2c0.9-4.3,4.8-7.2,10.9-7.2c2.9,0,6.2,0.8,7.7,1.7L355.4,98.4z"/>
	<path class="st1" d="M378.7,84.1c1.6,0,2.6,0.7,2.2,2.5s-1.6,2.5-3.3,2.5c-1.7,0-2.7-0.7-2.3-2.5C375.8,84.8,377.1,84.1,378.7,84.1
		z M374.5,93.1h4.6l-4.9,23h-4.6L374.5,93.1z"/>
	<path class="st1" d="M390.3,93.1l-0.8,3.6c2.2-2.4,5.4-4,9.1-4c6.2,0,8,4.4,6.8,10.2l-2.8,13.2H398l2.6-12.5
		c0.8-3.9-0.4-6.6-4.4-6.6c-3.7,0-6.5,2.5-7.8,5l-3,14.2h-4.6l4.9-23L390.3,93.1L390.3,93.1z"/>
	<path class="st1" d="M435.5,86.2h5.3l5.6,29.9h-4.7l-1.2-6.6h-14.9l-4.1,6.6h-4.7L435.5,86.2z M427.5,106.1H440l-2.8-15.3
		L427.5,106.1z"/>
	<path class="st1" d="M466.6,116.1l0.8-3.6c-2.2,2.4-5.3,4-9,4c-6.2,0-8.1-4.4-6.9-10.2l2.8-13.2h4.6l-2.6,12.5
		c-0.8,3.9,0.4,6.6,4.5,6.6c3.6,0,6.4-2.5,7.7-5l3-14.2h4.6l-4.9,23L466.6,116.1L466.6,116.1z"/>
	<path class="st1" d="M490.5,87.3l-1.2,5.9h9l-0.8,3.6h-9l-2.4,11.4c-0.6,3,0.4,4.4,2.8,4.4c1.8,0,4-0.8,5.5-1.8l0.7,3.6
		c-2.3,1.3-5.3,2.2-8.4,2.2c-4.3,0-6.4-2.6-5.3-7.5l2.6-12.3h-4.3l0.8-3.6h4.3l1.8-5.9C486.6,87.3,490.5,87.3,490.5,87.3z"/>
	<path class="st1" d="M513.8,92.5c7.2,0,11.2,5.2,9.7,12.2c-1.5,6.9-7.7,12.1-14.9,12.1c-7.1,0-11.2-5.1-9.7-12.1
		C500.4,97.7,506.6,92.5,513.8,92.5z M509.5,112.5c4.7,0,8.6-3.4,9.6-7.8c1-4.5-1.5-8-6.2-8c-4.7,0-8.6,3.4-9.5,8
		C502.4,109.1,504.9,112.5,509.5,112.5z"/>
	<path class="st1" d="M535.8,93.1l-0.7,3.5c2.2-2.3,5.1-3.9,8.8-3.9c4.4,0,6.3,1.8,7,4.7c2.1-2.5,5.5-4.6,9.7-4.6
		c6.2,0,7.8,4.4,6.6,10.2l-2.8,13.2h-4.6l2.6-12.5c0.8-3.9-0.2-6.6-4.3-6.6c-3.6,0-6.2,2.2-7.4,4.8l-3,14.4h-4.6l2.7-12.6
		c0.8-3.9-0.2-6.6-4.3-6.6c-3.7,0-6.2,2.3-7.6,4.8l-3,14.4h-4.6l4.9-23h4.6V93.1z"/>
	<path class="st1" d="M586.7,92.5c7.2,0,11.2,5.2,9.7,12.2c-1.5,6.9-7.7,12.1-14.9,12.1c-7.1,0-11.2-5.1-9.7-12.1
		C573.4,97.7,579.6,92.5,586.7,92.5z M582.5,112.5c4.7,0,8.6-3.4,9.6-7.8c1-4.5-1.5-8-6.2-8s-8.6,3.4-9.5,8
		C575.4,109.1,577.9,112.5,582.5,112.5z"/>
	<path class="st1" d="M611.4,87.3l-1.2,5.9h9l-0.8,3.6h-9l-2.4,11.4c-0.6,3,0.4,4.4,2.8,4.4c1.8,0,4-0.8,5.5-1.8l0.7,3.6
		c-2.3,1.3-5.3,2.2-8.4,2.2c-4.3,0-6.4-2.6-5.3-7.5l2.6-12.3h-4.3l0.8-3.6h4.3l1.8-5.9C607.5,87.3,611.4,87.3,611.4,87.3z"/>
	<path class="st1" d="M628.6,84.1c1.6,0,2.6,0.7,2.2,2.5c-0.4,1.8-1.6,2.5-3.3,2.5s-2.7-0.7-2.3-2.5C625.7,84.8,627,84.1,628.6,84.1
		z M624.4,93.1h4.6l-4.9,23h-4.6L624.4,93.1z"/>
	<path class="st1" d="M657.5,93.1l-14.2,23h-5.7l-4.5-23h4.9l3.4,18.8l11.3-18.8C652.7,93.1,657.5,93.1,657.5,93.1z"/>
	<path class="st1" d="M676.8,113.6c-2.8,1.9-6.3,3.1-10.2,3.1c-8.7,0-11.3-5.4-9.9-12.1c1.4-6.8,7.2-12.2,14.6-12.2
		c7,0,9.3,4.3,8.2,9.6c-0.3,1.4-0.9,3.2-1.3,4h-17.1c-0.4,4,1.4,6.7,6.5,6.7c3.2,0,6.1-1.2,8.2-2.6L676.8,113.6z M675.3,101.4
		c0.6-2.6-0.7-5-4.9-5c-4.3,0-7.4,2.9-8.5,6.2h13C675.1,102.2,675.2,101.8,675.3,101.4z"/>
	<path class="st1" d="M693.2,116.1l6.3-29.9h4.6l-5.5,25.9H715l-0.8,4H693.2z"/>
	<path class="st1" d="M727.1,84.1c1.6,0,2.6,0.7,2.2,2.5c-0.4,1.8-1.6,2.5-3.3,2.5s-2.7-0.7-2.3-2.5
		C724.2,84.8,725.5,84.1,727.1,84.1z M722.9,93.1h4.6l-4.9,23H718L722.9,93.1z"/>
	<path class="st1" d="M743.6,92.7c3.3,0,5.4,1.4,6.7,3.1l0.6-2.7h4.6l-4.3,20.6c-1.6,7.3-7.5,11.2-13.5,11.2c-4.5,0-6.9-1.6-8.2-2.4
		l1.8-4c1.3,0.9,3.6,2.4,7.2,2.4c3.5,0,7-1.9,7.9-6.3l0.6-2.9c-2,1.7-4.9,3.1-8,3.1c-6.6,0-10-5-8.7-11
		C731.6,97.7,737,92.7,743.6,92.7z M741.1,110.8c2.5,0,5.1-1.2,6.7-2.6l1.9-8.8c-0.9-1.4-3-2.7-5.6-2.7c-4.6,0-8.2,3.1-9.1,7.1
		C734.1,107.8,736.4,110.8,741.1,110.8z"/>
	<path class="st1" d="M768.5,84.9L766,96.6c2.2-2.4,5.4-3.9,9-3.9c6.2,0,8,4.4,6.8,10.2l-2.8,13.2h-4.6l2.6-12.5
		c0.8-3.9-0.4-6.6-4.4-6.6c-3.7,0-6.5,2.5-7.8,5l-3,14.2h-4.6l6.6-31.2L768.5,84.9L768.5,84.9z"/>
	<path class="st1" d="M797.6,87.3l-1.2,5.9h9l-0.8,3.6h-9l-2.4,11.4c-0.6,3,0.4,4.4,2.8,4.4c1.8,0,4-0.8,5.5-1.8l0.7,3.6
		c-2.3,1.3-5.3,2.2-8.4,2.2c-4.3,0-6.4-2.6-5.3-7.5l2.6-12.3h-4.3l0.8-3.6h4.3l1.8-5.9C793.7,87.3,797.6,87.3,797.6,87.3z"/>
	<path class="st1" d="M814.9,84.1c1.6,0,2.6,0.7,2.2,2.5c-0.4,1.8-1.6,2.5-3.3,2.5s-2.7-0.7-2.3-2.5
		C811.9,84.8,813.2,84.1,814.9,84.1z M810.6,93.1h4.6l-4.9,23h-4.6L810.6,93.1z"/>
	<path class="st1" d="M826.4,93.1l-0.8,3.6c2.2-2.4,5.4-4,9.1-4c6.2,0,8,4.4,6.8,10.2l-2.8,13.2h-4.6l2.6-12.5
		c0.8-3.9-0.4-6.6-4.4-6.6c-3.7,0-6.5,2.5-7.8,5l-3,14.2H817l4.9-23L826.4,93.1L826.4,93.1z"/>
	<path class="st1" d="M859.7,92.7c3.3,0,5.4,1.4,6.7,3.1l0.6-2.7h4.6l-4.3,20.6c-1.6,7.3-7.5,11.2-13.5,11.2c-4.5,0-6.9-1.6-8.2-2.4
		l1.8-4c1.3,0.9,3.6,2.4,7.2,2.4c3.5,0,7-1.9,7.9-6.3l0.6-2.9c-2,1.7-4.9,3.1-8,3.1c-6.6,0-10-5-8.7-11
		C847.6,97.7,853.1,92.7,859.7,92.7z M857.1,110.8c2.5,0,5.1-1.2,6.7-2.6l1.9-8.8c-0.9-1.4-3-2.7-5.6-2.7c-4.6,0-8.2,3.1-9.1,7.1
		C850.1,107.8,852.5,110.8,857.1,110.8z"/>
</g>
</svg>
