<?xml version="1.0" encoding="utf-8"?>
<!-- Generator: Adobe Illustrator 20.0.0, SVG Export Plug-In . SVG Version: 6.00 Build 0)  -->
<svg version="1.1" id="Map_Marker_-_Stocking_Dealer"
	 xmlns="http://www.w3.org/2000/svg" xmlns:xlink="http://www.w3.org/1999/xlink" x="0px" y="0px" viewBox="0 0 60 60"
	 style="enable-background:new 0 0 60 60;" xml:space="preserve">
<style type="text/css">
	.Arched_x0020_Green{fill:url(#SVGID_1_);stroke:#FFFFFF;stroke-width:0.25;stroke-miterlimit:1;}
	.st0{opacity:0.6;}
	.st1{fill:#231F20;}
	.st2{fill:url(#SVGID_2_);}
	.st3{fill:url(#SVGID_3_);}
	.st4{fill:url(#SVGID_4_);}
</style>
<linearGradient id="SVGID_1_" gradientUnits="userSpaceOnUse" x1="-20" y1="262.2046" x2="-19.2929" y2="261.4975">
	<stop  offset="0" style="stop-color:#1EAB4B"/>
	<stop  offset="0.9831" style="stop-color:#19361A"/>
</linearGradient>
<g>
	<g id="XMLID_49_" class="st0">
		<path class="st1" d="M30,5c8.9,0,16.2,7.3,16.2,16.2c0,8.9-7.3,16.2-16.2,16.2c-8.9,0-16.2-7.3-16.2-16.2C13.8,12.3,21.1,5,30,5
			L30,5z"/>
	</g>
	<g>
		<linearGradient id="SVGID_2_" gradientUnits="userSpaceOnUse" x1="30.0001" y1="60" x2="30.0001" y2="45.2838">
			<stop  offset="0" style="stop-color:#4EBB00"/>
			<stop  offset="1" style="stop-color:#88E333"/>
		</linearGradient>
		<path class="st2" d="M17.7,45.3c0.6,0.8,1.1,1.6,1.6,2.4c3.9,5.5,7.8,9.8,9.8,11.9c0.2,0.2,0.6,0.4,0.9,0.4c0.3,0,0.7-0.1,0.9-0.4
			c2-2.1,5.9-6.5,9.8-12c0.5-0.8,1.1-1.5,1.6-2.4c-3.7,1.9-7.9,3-12.3,3C25.6,48.3,21.4,47.2,17.7,45.3z"/>
		<linearGradient id="SVGID_3_" gradientUnits="userSpaceOnUse" x1="30" y1="42.9251" x2="30" y2="0">
			<stop  offset="0" style="stop-color:#4EBB00"/>
			<stop  offset="1" style="stop-color:#88E333"/>
		</linearGradient>
		<path class="st3" d="M30,0C18.2,0,8.5,9.6,8.5,21.5c0,11.8,9.6,21.5,21.5,21.5c11.8,0,21.5-9.6,21.5-21.5C51.5,9.6,41.8,0,30,0z
			 M30,37.5c-8.9,0-16.2-7.3-16.2-16.2C13.8,12.3,21.1,5,30,5c8.9,0,16.2,7.3,16.2,16.2C46.2,30.2,38.9,37.5,30,37.5z"/>
	</g>
	<linearGradient id="SVGID_4_" gradientUnits="userSpaceOnUse" x1="30" y1="33.0888" x2="30" y2="8.7466">
		<stop  offset="0" style="stop-color:#4EBB00"/>
		<stop  offset="1" style="stop-color:#88E333"/>
	</linearGradient>
	<path class="st4" d="M27.7,21.3L29,22h-0.1v1.2v9.9l-9.6-5.6V16.4L27.7,21.3z M39.7,14.4L30,20l-9.7-5.6L30,8.7L39.7,14.4z
		 M30,18.2l6.7-3.9L30,10.5l-6.7,3.9L30,18.2z M32.2,21.3L31,22h0.1v1.2v9.9l9.6-5.6V16.4L32.2,21.3z"/>
</g>
</svg>
