<?xml version="1.0" encoding="utf-8"?>
<!-- Generator: Adobe Illustrator 20.0.0, SVG Export Plug-In . SVG Version: 6.00 Build 0)  -->
<svg version="1.1" id="Map_Marker_-_Basic_Installer"
	 xmlns="http://www.w3.org/2000/svg" xmlns:xlink="http://www.w3.org/1999/xlink" x="0px" y="0px" viewBox="0 0 60 60"
	 style="enable-background:new 0 0 60 60;" xml:space="preserve">
<style type="text/css">
	.Arched_x0020_Green{fill:url(#SVGID_1_);stroke:#FFFFFF;stroke-width:0.25;stroke-miterlimit:1;}
	.st0{opacity:0.6;}
</style>
<linearGradient id="SVGID_1_" gradientUnits="userSpaceOnUse" x1="-20" y1="262.2046" x2="-19.2929" y2="261.4975">
	<stop  offset="0" style="stop-color:#1EAB4B"/>
	<stop  offset="0.9831" style="stop-color:#19361A"/>
</linearGradient>
<path class="st0" d="M30,15.6c-8.8,0-15.9,7.1-15.9,15.9c0,6.7,4.3,14.2,8,19.4c2.9,4.1,5.8,7.3,7.2,8.8c0.2,0.2,0.4,0.3,0.7,0.3
	c0.3,0,0.5-0.1,0.7-0.3c1.5-1.6,4.3-4.8,7.2-8.8c3.6-5.1,8-12.7,8-19.4C45.9,22.8,38.8,15.6,30,15.6z M38.5,39.7l-0.4,0.4L32.9,35
	c-0.2-0.2-0.2-0.6,0-0.8c0.2-0.2,0.6-0.2,0.8,0l5.2,5.2L38.5,39.7z M42,32.4c0,0.4-0.3,0.8-0.7,0.8L39,33.6c0,0.2-0.1,0.3-0.2,0.5
	c0,0.1-0.1,0.3-0.1,0.4c0,0.1,0,0.1-0.1,0.2c0,0.1-0.1,0.2-0.1,0.3c-0.1,0.1-0.1,0.2-0.2,0.3l-0.1,0.1c-0.1,0.2-0.2,0.3-0.3,0.5
	c-0.1,0.1-0.2,0.3-0.3,0.4l-2.7-2.7c-0.5-0.5-0.8-1.3-0.7-2.1c0.1-1.3-0.3-2.6-1.3-3.6c-1.2-1.2-3-1.6-4.5-1.1
	c-0.1,0-0.1,0.2-0.1,0.2l1.9,1.9c0.5,0.5,0.5,1.4,0,1.9l-0.8,0.8c-0.5,0.5-1.4,0.5-1.9,0L25.9,30c-0.1-0.1-0.2,0-0.2,0.1
	c-0.4,1.5,0,3.1,1.2,4.2c0.9,0.9,2.2,1.4,3.4,1.3c0.7,0,1.4,0.2,2,0.7l2.9,2.9c-0.1,0.1-0.2,0.1-0.3,0.2c-0.2,0.1-0.3,0.2-0.5,0.3
	c0,0,0,0,0,0c-0.2,0.1-0.4,0.2-0.5,0.2l-0.1,0c-0.2,0.1-0.3,0.1-0.5,0.2c0,0-0.1,0-0.2,0.1c-0.2,0.1-0.4,0.1-0.6,0.2L32,42.6
	c-0.1,0.4-0.4,0.7-0.8,0.7h-2.2c-0.4,0-0.8-0.3-0.8-0.7l-0.4-2.2c-0.9-0.2-1.7-0.5-2.4-1l-1.9,1.3c-0.3,0.2-0.8,0.2-1.1-0.1
	l-1.6-1.6c-0.3-0.3-0.3-0.8-0.1-1.1l1.3-1.8c-0.4-0.7-0.8-1.5-1-2.4l-2.3-0.4c-0.4-0.1-0.7-0.4-0.7-0.8v-2.2c0-0.4,0.3-0.8,0.7-0.8
	l2.2-0.4c0.2-0.9,0.6-1.7,1-2.5l-1.3-1.8c-0.2-0.3-0.2-0.8,0.1-1.1l0.8-0.8l0.8-0.8c0.3-0.3,0.8-0.3,1.1-0.1l1.8,1.3
	c0.7-0.4,1.6-0.8,2.4-1L28,20c0.1-0.4,0.4-0.7,0.8-0.7h2.2c0.4,0,0.8,0.3,0.8,0.7l0.4,2.2c0.9,0.2,1.7,0.6,2.4,1l1.8-1.3
	c0.3-0.2,0.8-0.2,1.1,0.1l0.8,0.8l0.8,0.8c0.3,0.3,0.3,0.8,0.1,1.1L38,26.6c0.4,0.7,0.8,1.6,1,2.4l2.2,0.4c0.4,0.1,0.7,0.4,0.7,0.8
	v1.1V32.4z"/>
</svg>
