<?xml version="1.0" encoding="utf-8"?>
<!-- Generator: Adobe Illustrator 20.0.0, SVG Export Plug-In . SVG Version: 6.00 Build 0)  -->
<svg version="1.1" id="Map_Marker_-_Adv._Installer_copy"
	 xmlns="http://www.w3.org/2000/svg" xmlns:xlink="http://www.w3.org/1999/xlink" x="0px" y="0px" viewBox="0 0 60 60"
	 style="enable-background:new 0 0 60 60;" xml:space="preserve">
<style type="text/css">
	.Arched_x0020_Green{fill:url(#SVGID_1_);stroke:#FFFFFF;stroke-width:0.25;stroke-miterlimit:1;}
	.st0{opacity:0.6;}
	.st1{fill:url(#SVGID_2_);}
</style>
<linearGradient id="SVGID_1_" gradientUnits="userSpaceOnUse" x1="-20" y1="262.2046" x2="-19.2929" y2="261.4975">
	<stop  offset="0" style="stop-color:#1EAB4B"/>
	<stop  offset="0.9831" style="stop-color:#19361A"/>
</linearGradient>
<g>
	<circle class="st0" cx="30" cy="21.3" r="20.2"/>
	<linearGradient id="SVGID_2_" gradientUnits="userSpaceOnUse" x1="30" y1="60" x2="30" y2="0">
		<stop  offset="0" style="stop-color:#4EBB00"/>
		<stop  offset="1" style="stop-color:#88E333"/>
	</linearGradient>
	<path class="st1" d="M30,0C18.2,0,8.5,9.6,8.5,21.5c0,9.1,5.9,19.2,10.8,26.2c3.9,5.5,7.8,9.8,9.8,11.9c0.2,0.2,0.6,0.4,0.9,0.4
		c0.3,0,0.7-0.1,0.9-0.4c2-2.1,5.9-6.5,9.8-12c4.9-6.9,10.8-17.1,10.8-26.2C51.5,9.6,41.8,0,30,0z M41.5,32.6l-0.6,0.6l-7-7
		c-0.3-0.3-0.3-0.8,0-1.1c0.3-0.3,0.8-0.3,1.1,0l7,7L41.5,32.6z M46.2,22.7c0,0.6-0.4,1.1-1,1.1l-3,0.5c-0.1,0.2-0.1,0.5-0.2,0.7
		c-0.1,0.2-0.1,0.4-0.2,0.5c0,0.1-0.1,0.2-0.1,0.3c0,0.1-0.1,0.2-0.2,0.4c-0.1,0.2-0.1,0.3-0.2,0.5l-0.1,0.2
		c-0.1,0.2-0.2,0.4-0.4,0.7c-0.1,0.2-0.2,0.4-0.3,0.6l-3.7-3.7c-0.7-0.7-1.1-1.8-1-2.8c0.2-1.7-0.4-3.6-1.7-4.9
		c-1.6-1.6-4-2.1-6.1-1.5c-0.1,0-0.2,0.2-0.1,0.3l2.6,2.6c0.7,0.7,0.7,1.9,0,2.6l-1.1,1.1c-0.7,0.7-1.9,0.7-2.6,0l-2.4-2.4
		c-0.1-0.1-0.3-0.1-0.3,0.1c-0.5,2,0,4.2,1.6,5.7c1.3,1.3,3,1.9,4.6,1.7c1-0.1,2,0.3,2.6,1l3.9,3.9c-0.1,0.1-0.3,0.2-0.4,0.3
		c-0.2,0.1-0.5,0.3-0.7,0.4c0,0,0,0,0,0c-0.2,0.1-0.5,0.2-0.7,0.3l-0.1,0.1c-0.2,0.1-0.4,0.2-0.6,0.2c-0.1,0-0.1,0.1-0.2,0.1
		c-0.3,0.1-0.5,0.2-0.8,0.2l-0.5,3c-0.1,0.6-0.6,1-1.1,1h-3c-0.6,0-1-0.4-1.1-1l-0.5-3c-1.2-0.3-2.3-0.7-3.3-1.3l-2.5,1.8
		c-0.5,0.3-1.1,0.3-1.5-0.1l-2.1-2.1c-0.4-0.4-0.4-1-0.1-1.5l1.8-2.5c-0.6-1-1.1-2.1-1.4-3.2l-3-0.5c-0.6-0.1-1-0.6-1-1.1v-3
		c0-0.6,0.4-1.1,1-1.1l3-0.5c0.3-1.2,0.7-2.3,1.4-3.3l-1.8-2.5c-0.3-0.5-0.3-1.1,0.1-1.5l1.1-1.1l1.1-1.1c0.4-0.4,1-0.5,1.5-0.1
		l2.5,1.8c1-0.6,2.1-1.1,3.3-1.4l0.5-3c0.1-0.5,0.6-1,1.1-1h3c0.6,0,1.1,0.4,1.1,1l0.5,3c1.2,0.3,2.3,0.7,3.3,1.4l2.5-1.8
		c0.5-0.3,1.1-0.3,1.5,0.1l1.1,1.1l1.1,1.1c0.4,0.4,0.4,1,0.1,1.5l-1.8,2.5c0.6,1,1.1,2.1,1.4,3.3l3,0.5c0.6,0.1,1,0.6,1,1.1v1.5
		V22.7z"/>
</g>
</svg>
