<?xml version="1.0" encoding="utf-8"?>
<!-- Generator: Adobe Illustrator 20.0.0, SVG Export Plug-In . SVG Version: 6.00 Build 0)  -->
<svg version="1.1" id="Map_Marker_-_Authorized._Dealer"
	 xmlns="http://www.w3.org/2000/svg" xmlns:xlink="http://www.w3.org/1999/xlink" x="0px" y="0px" viewBox="0 0 60 60"
	 style="enable-background:new 0 0 60 60;" xml:space="preserve">
<style type="text/css">
	.Arched_x0020_Green{fill:url(#SVGID_1_);stroke:#FFFFFF;stroke-width:0.25;stroke-miterlimit:1;}
	.st0{opacity:0.6;}
</style>
<linearGradient id="SVGID_1_" gradientUnits="userSpaceOnUse" x1="-20" y1="262.2046" x2="-19.2929" y2="261.4975">
	<stop  offset="0" style="stop-color:#1EAB4B"/>
	<stop  offset="0.9831" style="stop-color:#19361A"/>
</linearGradient>
<g class="st0">
	<g>
		<path d="M20.9,49.1c0.4,0.6,0.8,1.2,1.2,1.8c2.9,4.1,5.8,7.3,7.2,8.8c0.2,0.2,0.4,0.3,0.7,0.3c0.3,0,0.5-0.1,0.7-0.3
			c1.5-1.6,4.3-4.8,7.2-8.8c0.4-0.6,0.8-1.1,1.2-1.8c-2.7,1.4-5.8,2.2-9.1,2.2C26.7,51.3,23.6,50.5,20.9,49.1z"/>
		<path d="M30,15.6c-8.8,0-15.9,7.1-15.9,15.9c0,8.7,7.1,15.9,15.9,15.9c8.8,0,15.9-7.1,15.9-15.9C45.9,22.7,38.8,15.6,30,15.6z
			 M30,43.3c-6.6,0-12-5.4-12-12c0-6.6,5.4-12,12-12c6.6,0,12,5.4,12,12C42,38,36.6,43.3,30,43.3z"/>
	</g>
	<path d="M28.3,31.4l0.9,0.5h-0.1v0.9v7.3L22.1,36v-8.2L28.3,31.4z M37.1,26.3L30,30.4l-7.1-4.1l7.1-4.2L37.1,26.3z M30,29.1
		l4.9-2.9L30,23.4l-4.9,2.9L30,29.1z M31.7,31.4l-0.9,0.5h0.1v0.9v7.3l7.1-4.1v-8.2L31.7,31.4z"/>
</g>
</svg>
