<?xml version="1.0" encoding="utf-8"?>
<!-- Generator: Adobe Illustrator 19.2.1, SVG Export Plug-In . SVG Version: 6.00 Build 0)  -->
<svg version="1.1" xmlns="http://www.w3.org/2000/svg" xmlns:xlink="http://www.w3.org/1999/xlink" x="0px" y="0px"
	 viewBox="0 0 760 700" style="enable-background:new 0 0 760 700;" xml:space="preserve">
<style type="text/css">
	.st0{opacity:0.1;fill:#FFFFFF;}
	.st1{opacity:9.000000e-02;fill:#FFFFFF;}
	.st2{opacity:8.000000e-02;fill:#FFFFFF;}
	.st3{opacity:7.000000e-02;fill:#FFFFFF;}
	.st4{opacity:6.000000e-02;fill:#FFFFFF;}
	.st5{opacity:5.000000e-02;fill:#FFFFFF;}
	.st6{opacity:4.000000e-02;fill:#FFFFFF;}
	.st7{opacity:3.000000e-02;fill:#FFFFFF;}
	.st8{opacity:2.000000e-02;fill:#FFFFFF;}
	.st9{opacity:1.000000e-02;fill:#FFFFFF;}
</style>
<style>
	#HC-100 {
    	-webkit-animation: blink100 8s infinite alternate; /* Chrome, Safari, Opera */
		animation: blink100 8s infinite alternate;
	}
	/* Chrome, Safari, Opera */
	@-webkit-keyframes blink100 {
	    0% {opacity: .5;}
	    10% {opacity: 1;}
	    20% {opacity: 1;}
	    30% {opacity: 1;}
	    40% {opacity: 1;}
	    50% {opacity: 1;}
	    60% {opacity: 1;}
	    70% {opacity: 1;}
	    80% {opacity: 1;}
	    90% {opacity: .5;}
	    100% {opacity: 0;}
	}
	/* Standard syntax */
	@keyframes blink100 {
	    0% {opacity: .5;}
	    10% {opacity: 1;}
	    20% {opacity: 1;}
	    30% {opacity: 1;}
	    40% {opacity: 1;}
	    50% {opacity: 1;}
	    60% {opacity: 1;}
	    70% {opacity: 1;}
	    80% {opacity: 1;}
	    90% {opacity: .5;}
	    100% {opacity: 0;}
	}
	#HC-90 {
    	-webkit-animation: blink90 8s infinite alternate; /* Chrome, Safari, Opera */
		animation: blink90 8s infinite alternate;
	}
	/* Chrome, Safari, Opera */
	@-webkit-keyframes blink90 {
	    0% {opacity: 1;}
	    10% {opacity: 1;}
	    20% {opacity: 1;}
	    30% {opacity: 1;}
	    40% {opacity: 1;}
	    50% {opacity: 1;}
	    60% {opacity: 1;}
	    70% {opacity: 1;}
	    80% {opacity: .5;}
	    90% {opacity: 0;}
	    100% {opacity: .5;}
	}
	/* Standard syntax */
	@keyframes blink90 {
	    0% {opacity: 1;}
	    10% {opacity: 1;}
	    20% {opacity: 1;}
	    30% {opacity: 1;}
	    40% {opacity: 1;}
	    50% {opacity: 1;}
	    60% {opacity: 1;}
	    70% {opacity: 1;}
	    80% {opacity: .5;}
	    90% {opacity: 0;}
	    100% {opacity: .5;}
	}
	#HC-80 {
    	-webkit-animation: blink80 8s infinite alternate; /* Chrome, Safari, Opera */
		animation: blink80 8s infinite alternate;
	}
	/* Chrome, Safari, Opera */
	@-webkit-keyframes blink80 {
	    0% {opacity: 1;}
	    10% {opacity: 1;}
	    20% {opacity: 1;}
	    30% {opacity: 1;}
	    40% {opacity: 1;}
	    50% {opacity: 1;}
	    60% {opacity: 1;}
	    70% {opacity: .5;}
	    80% {opacity: 0;}
	    90% {opacity: .5;}
	    100% {opacity: 1;}
	}
	/* Standard syntax */
	@keyframes blink80 {
	    0% {opacity: 1;}
	    10% {opacity: 1;}
	    20% {opacity: 1;}
	    30% {opacity: 1;}
	    40% {opacity: 1;}
	    50% {opacity: 1;}
	    60% {opacity: 1;}
	    70% {opacity: .5;}
	    80% {opacity: 0;}
	    90% {opacity: .5;}
	    100% {opacity: 1;}
	}
	#HC-70 {
    	-webkit-animation: blink70 8s infinite alternate; /* Chrome, Safari, Opera */
		animation: blink70 8s infinite alternate;
	}
	/* Chrome, Safari, Opera */
	@-webkit-keyframes blink70 {
	    0% {opacity: 1;}
	    10% {opacity: 1;}
	    20% {opacity: 1;}
	    30% {opacity: 1;}
	    40% {opacity: 1;}
	    50% {opacity: 1;}
	    60% {opacity: .5;}
	    70% {opacity: 0;}
	    80% {opacity: .5;}
	    90% {opacity: 1;}
	    100% {opacity: 1;}
	}
	/* Standard syntax */
	@keyframes blink70 {
	    0% {opacity: 1;}
	    10% {opacity: 1;}
	    20% {opacity: 1;}
	    30% {opacity: 1;}
	    40% {opacity: 1;}
	    50% {opacity: 1;}
	    60% {opacity: .5;}
	    70% {opacity: 0;}
	    80% {opacity: .5;}
	    90% {opacity: 1;}
	    100% {opacity: 1;}
	}
	#HC-60 {
    	-webkit-animation: blink60 8s infinite alternate; /* Chrome, Safari, Opera */
		animation: blink60 8s infinite alternate;
	}
	/* Chrome, Safari, Opera */
	@-webkit-keyframes blink60 {
	    0% {opacity: 1;}
	    10% {opacity: 1;}
	    20% {opacity: 1;}
	    30% {opacity: 1;}
	    40% {opacity: 1;}
	    50% {opacity: .5;}
	    60% {opacity: 0;}
	    70% {opacity: .5;}
	    80% {opacity: 1;}
	    90% {opacity: 1;}
	    100% {opacity: 1;}
	}
	/* Standard syntax */
	@keyframes blink60 {
	    0% {opacity: 1;}
	    10% {opacity: 1;}
	    20% {opacity: 1;}
	    30% {opacity: 1;}
	    40% {opacity: 1;}
	    50% {opacity: .5;}
	    60% {opacity: 0;}
	    70% {opacity: .5;}
	    80% {opacity: 1;}
	    90% {opacity: 1;}
	    100% {opacity: 1;}
	}
	#HC-50 {
    	-webkit-animation: blink50 8s infinite alternate; /* Chrome, Safari, Opera */
		animation: blink50 8s infinite alternate;
	}
	/* Chrome, Safari, Opera */
	@-webkit-keyframes blink50 {
	    0% {opacity: 1;}
	    10% {opacity: 1;}
	    20% {opacity: 1;}
	    30% {opacity: 1;}
	    40% {opacity: .5;}
	    50% {opacity: 0;}
	    60% {opacity: .5;}
	    70% {opacity: 1;}
	    80% {opacity: 1;}
	    90% {opacity: 1;}
	    100% {opacity: 1;}
	}
	/* Standard syntax */
	@keyframes blink50 {
	    0% {opacity: 1;}
	    10% {opacity: 1;}
	    20% {opacity: 1;}
	    30% {opacity: 1;}
	    40% {opacity: .5;}
	    50% {opacity: 0;}
	    60% {opacity: .5;}
	    70% {opacity: 1;}
	    80% {opacity: 1;}
	    90% {opacity: 1;}
	    100% {opacity: 1;}
	}
	#HC-40 {
    	-webkit-animation: blink40 8s infinite alternate; /* Chrome, Safari, Opera */
		animation: blink40 8s infinite alternate;
	}
	/* Chrome, Safari, Opera */
	@-webkit-keyframes blink40 {
	    0% {opacity: 1;}
	    10% {opacity: 1;}
	    20% {opacity: 1;}
	    30% {opacity: .5;}
	    40% {opacity: 0;}
	    50% {opacity: .5;}
	    60% {opacity: 1;}
	    70% {opacity: 1;}
	    80% {opacity: 1;}
	    90% {opacity: 1;}
	    100% {opacity: 1;}
	}
	/* Standard syntax */
	@keyframes blink40 {
	    0% {opacity: 1;}
	    10% {opacity: 1;}
	    20% {opacity: 1;}
	    30% {opacity: .5;}
	    40% {opacity: 0;}
	    50% {opacity: .5;}
	    60% {opacity: 1;}
	    70% {opacity: 1;}
	    80% {opacity: 1;}
	    90% {opacity: 1;}
	    100% {opacity: 1;}
	}
	#HC-30 {
    	-webkit-animation: blink30 8s infinite alternate; /* Chrome, Safari, Opera */
		animation: blink30 8s infinite alternate;
	}
	/* Chrome, Safari, Opera */
	@-webkit-keyframes blink30 {
	    0% {opacity: 1;}
	    10% {opacity: 1;}
	    20% {opacity: .5;}
	    30% {opacity: 0;}
	    40% {opacity: .5;}
	    50% {opacity: 1;}
	    60% {opacity: 1;}
	    70% {opacity: 1;}
	    80% {opacity: 1;}
	    90% {opacity: 1;}
	    100% {opacity: 1;}
	}
	/* Standard syntax */
	@keyframes blink30 {
	    0% {opacity: 1;}
	    10% {opacity: 1;}
	    20% {opacity: .5;}
	    30% {opacity: 0;}
	    40% {opacity: .5;}
	    50% {opacity: 1;}
	    60% {opacity: 1;}
	    70% {opacity: 1;}
	    80% {opacity: 1;}
	    90% {opacity: 1;}
	    100% {opacity: 1;}
	}
	#HC-20 {
    	-webkit-animation: blink20 8s infinite alternate; /* Chrome, Safari, Opera */
		animation: blink20 8s infinite alternate;
	}
	/* Chrome, Safari, Opera */
	@-webkit-keyframes blink20 {
	    0% {opacity: 1;}
	    10% {opacity: .5;}
	    20% {opacity: 0;}
	    30% {opacity: .5;}
	    40% {opacity: 1;}
	    50% {opacity: 1;}
	    60% {opacity: 1;}
	    70% {opacity: 1;}
	    80% {opacity: 1;}
	    90% {opacity: 1;}
	    100% {opacity: 1;}
	}
	/* Standard syntax */
	@keyframes blink20 {
	    0% {opacity: 1;}
	    10% {opacity: .5;}
	    20% {opacity: 0;}
	    30% {opacity: .5;}
	    40% {opacity: 1;}
	    50% {opacity: 1;}
	    60% {opacity: 1;}
	    70% {opacity: 1;}
	    80% {opacity: 1;}
	    90% {opacity: 1;}
	    100% {opacity: 1;}
	}
	#HC-10 {
    	-webkit-animation: blink10 8s infinite alternate; /* Chrome, Safari, Opera */
		animation: blink10 8s infinite alternate;
	}
	/* Chrome, Safari, Opera */
	@-webkit-keyframes blink10 {
	    0% {opacity: .5;}
	    10% {opacity: 0;}
	    20% {opacity: .5;}
	    30% {opacity: 1;}
	    40% {opacity: 1;}
	    50% {opacity: 1;}
	    60% {opacity: 1;}
	    70% {opacity: 1;}
	    80% {opacity: 1;}
	    90% {opacity: 1;}
	    100% {opacity: 1;}
	}
	/* Standard syntax */
	@keyframes blink10 {
	    0% {opacity: .5;}
	    10% {opacity: 0;}
	    20% {opacity: .5;}
	    30% {opacity: 1;}
	    40% {opacity: 1;}
	    50% {opacity: 1;}
	    60% {opacity: 1;}
	    70% {opacity: 1;}
	    80% {opacity: 1;}
	    90% {opacity: 1;}
	    100% {opacity: 1;}
	}
</style>
<g id="HC-100">
	<path class="st0" d="M11.9,20.6H0V0h23.8L11.9,20.6z M353.9,42.7l11.9-20.6L353.9,1.5h-23.7l-11.9,20.6l11.9,20.6H353.9z
		 M63.9,67.2L52.1,87.8l11.9,20.6h23.7l11.9-20.6L87.7,67.2H63.9z M368.3,110.5L356.4,131l11.9,20.6H392l11.9-20.6L392,110.5H368.3z
		 M140,154.3l-11.9,20.6l11.9,20.6h23.7l11.9-20.6l-11.9-20.6H140z M102.2,304.7h23.7l11.9-20.6l-11.9-20.6h-23.7l-11.9,20.6
		L102.2,304.7z M291.9,285.4L280,305.9l11.9,20.6h23.7l11.9-20.6l-11.9-20.6H291.9z M468.2,20.6L480.1,0h-47.5l11.9,20.6H468.2z
		 M620.4,20.6L632.2,0h-47.5l11.9,20.6H620.4z M760,20.6V0h-23.4l11.9,20.6H760z M558.5,88.7l-11.9,20.6l11.9,20.6h23.7l11.9-20.6
		l-11.9-20.6H558.5z M696.4,110.5h-23.7L660.8,131l11.9,20.6h23.7l11.9-20.6L696.4,110.5z M482.3,176.1l-11.9,20.6l11.9,20.6H506
		l11.9-20.6L506,176.1H482.3z M658.2,176.1h-23.7l-11.9,20.6l11.9,20.6h23.7l11.9-20.6L658.2,176.1z M506.1,263.6h-23.7l-11.9,20.6
		l11.9,20.6h23.7l11.9-20.6L506.1,263.6z M696.1,285.4h-23.7l-11.9,20.6l11.9,20.6h23.7l11.9-20.6L696.1,285.4z M23.8,394.1
		l-11.9-20.6H0v41.1h11.9L23.8,394.1z M429.9,436.8l11.9-20.6l-11.9-20.6h-23.7l-11.9,20.6l11.9,20.6H429.9z M64.2,545.7H88
		l11.9-20.6L88,504.5H64.2l-11.9,20.6L64.2,545.7z M278.1,523.9l11.9-20.6l-11.9-20.6h-23.7l-11.9,20.6l11.9,20.6H278.1z
		 M429.9,567.8l11.9-20.6l-11.9-20.6h-23.7l-11.9,20.6l11.9,20.6H429.9z M163.8,589.5l11.9-20.6l-11.9-20.6H140L128.1,569l11.9,20.6
		H163.8z M315.9,635.6h-23.7l-11.9,20.6l11.9,20.6h23.7l11.9-20.6L315.9,635.6z M0,679.4V700h23.5l-11.9-20.6H0z M736.6,394.1
		l11.9,20.6H760v-41.1h-11.6L736.6,394.1z M620,417.4h-23.7L584.4,438l11.9,20.6H620l11.9-20.6L620,417.4z M582.2,567.8l11.9-20.6
		l-11.9-20.6h-23.7l-11.9,20.6l11.9,20.6H582.2z M710.6,526.6l-11.9,20.6l11.9,20.6h23.7l11.9-20.6l-11.9-20.6H710.6z M658.3,654.9
		l11.9-20.6l-11.9-20.6h-23.7l-11.9,20.6l11.9,20.6H658.3z M444.1,679.4L432.3,700h47.5l-11.9-20.6H444.1z M596.3,679.4L584.4,700
		h47.5L620,679.4H596.3z M736.3,700H760v-20.6h-11.9L736.3,700z"/>
</g>
<g id="HC-90">
	<path class="st1" d="M128.1,43.9L140,23.3h23.7l11.9,20.6l-11.9,20.6H140L128.1,43.9z M253.9,45.1L242,65.7l11.9,20.6h23.7
		l11.9-20.6l-11.9-20.6H253.9z M49.8,129.8l11.9-20.6L49.8,88.7H26.1l-11.9,20.6l11.9,20.6H49.8z M102.1,217.2h23.7l11.9-20.6
		l-11.9-20.6h-23.7l-11.9,20.6L102.1,217.2z M330,176.1l-11.9,20.6l11.9,20.6h23.7l11.9-20.6l-11.9-20.6H330z M49.8,304.7l11.9-20.6
		l-11.9-20.6H26.1l-11.9,20.6l11.9,20.6H49.8z M178.3,260.8H202l11.9-20.6L202,219.7h-23.7l-11.9,20.6L178.3,260.8z M292.2,241.5
		L280.3,262l11.9,20.6h23.7l11.9-20.6l-11.9-20.6H292.2z M391.7,370.4l11.9-20.6l-11.9-20.6h-23.7l-11.9,20.6l11.9,20.6H391.7z
		 M734.4,42.7l11.9-20.6L734.4,1.5h-23.7l-11.9,20.6l11.9,20.6H734.4z M444.1,67.2l-11.9,20.6l11.9,20.6h23.7l11.9-20.6l-11.9-20.6
		H444.1z M596.3,64.4H620l11.9-20.6L620,23.3h-23.7l-11.9,20.6L596.3,64.4z M658.3,132.6h-23.7l-11.9,20.6l11.9,20.6h23.7l11.9-20.6
		L658.3,132.6z M582.2,219.7h-23.7l-11.9,20.6l11.9,20.6h23.7l11.9-20.6L582.2,219.7z M544,329.2h-23.7l-11.9,20.6l11.9,20.6H544
		l11.9-20.6L544,329.2z M49.8,392.9l11.9-20.6l-11.9-20.6H26.1l-11.9,20.6l11.9,20.6H49.8z M102.2,436.8h23.7l11.9-20.6l-11.9-20.6
		h-23.7l-11.9,20.6L102.2,436.8z M216.1,458.5h23.7l11.9-20.6l-11.9-20.6h-23.7L204.2,438L216.1,458.5z M140.3,545.7h23.7l11.9-20.6
		l-11.9-20.6h-23.7l-11.9,20.6L140.3,545.7z M353.9,567.8l11.9-20.6l-11.9-20.6h-23.7l-11.9,20.6l11.9,20.6H353.9z M315.6,633.4
		l11.9-20.6l-11.9-20.6h-23.7L280,612.9l11.9,20.6H315.6z M125.9,654.9l11.9-20.6l-11.9-20.6h-23.7l-11.9,20.6l11.9,20.6H125.9z
		 M178.3,657.7l-11.9,20.6l11.9,20.6H202l11.9-20.6L202,657.7H178.3z M467.9,502.4l11.9-20.6l-11.9-20.6h-23.7l-11.9,20.6l11.9,20.6
		H467.9z M710.2,439.2l-11.9,20.6l11.9,20.6h23.7l11.9-20.6l-11.9-20.6H710.2z M620,589.5l11.9-20.6L620,548.4h-23.7L584.4,569
		l11.9,20.6H620z M544.3,635.6h-23.7l-11.9,20.6l11.9,20.6h23.7l11.9-20.6L544.3,635.6z"/>
</g>
<g id="HC-80">
	<path class="st2" d="M64.2,20.6L52.4,0h47.5L88,20.6H64.2z M63.9,64.4h23.7l11.9-20.6L87.7,23.3H63.9L52.1,43.9L63.9,64.4z
		 M291.9,67.2L280,87.8l11.9,20.6h23.7l11.9-20.6l-11.9-20.6H291.9z M140.3,110.5L128.5,131l11.9,20.6h23.7l11.9-20.6l-11.9-20.6
		H140.3z M253.9,176.1L242,196.7l11.9,20.6h23.7l11.9-20.6l-11.9-20.6H253.9z M49.8,260.8l11.9-20.6l-11.9-20.6H26.1l-11.9,20.6
		l11.9,20.6H49.8z M368.3,241.5L356.4,262l11.9,20.6H392l11.9-20.6L392,241.5H368.3z M140,370.4h23.7l11.9-20.6l-11.9-20.6H140
		l-11.9,20.6L140,370.4z M253.9,348.3h23.7l11.9-20.6l-11.9-20.6h-23.7L242,327.7L253.9,348.3z M672.4,64.4h23.7L708,43.9
		l-11.9-20.6h-23.7l-11.9,20.6L672.4,64.4z M520.5,110.5L508.7,131l11.9,20.6h23.7l11.9-20.6l-11.9-20.6H520.5z M406.2,176.1
		l-11.9,20.6l11.9,20.6h23.7l11.9-20.6l-11.9-20.6H406.2z M696.4,241.5h-23.7L660.8,262l11.9,20.6h23.7l11.9-20.6L696.4,241.5z
		 M467.9,370.4l11.9-20.6l-11.9-20.6h-23.7l-11.9,20.6l11.9,20.6H467.9z M620,285.4h-23.7l-11.9,20.6l11.9,20.6H620l11.9-20.6
		L620,285.4z M353.7,480.3l11.9-20.6l-11.9-20.6H330l-11.9,20.6l11.9,20.6H353.7z M23.8,525.1l-11.9-20.6H0v41.1h11.9L23.8,525.1z
		 M239.8,589.5l11.9-20.6l-11.9-20.6h-23.7L204.2,569l11.9,20.6H239.8z M49.8,654.9l11.9-20.6l-11.9-20.6H26.1l-11.9,20.6l11.9,20.6
		H49.8z M254.3,657.7l-11.9,20.6l11.9,20.6h23.7l11.9-20.6l-11.9-20.6H254.3z M429.9,654.9l11.9-20.6l-11.9-20.6h-23.7l-11.9,20.6
		l11.9,20.6H429.9z M63.9,679.4L52.1,700h47.5l-11.9-20.6H63.9z M658.3,351.7h-23.7l-11.9,20.6l11.9,20.6h23.7l11.9-20.6
		L658.3,351.7z M506.1,567.8l11.9-20.6l-11.9-20.6h-23.7l-11.9,20.6l11.9,20.6H506.1z M658.3,482.8h-23.7l-11.9,20.6l11.9,20.6h23.7
		l11.9-20.6L658.3,482.8z M736.6,525.1l11.9,20.6H760v-41.1h-11.6L736.6,525.1z"/>
</g>
<g id="HC-70">
	<path class="st3" d="M26,86.2L14.1,65.7L26,45.1h23.7l11.9,20.6L49.7,86.2H26z M140,67.2l-11.9,20.6l11.9,20.6h23.7l11.9-20.6
		l-11.9-20.6H140z M216.1,64.4h23.7l11.9-20.6l-11.9-20.6h-23.7l-11.9,20.6L216.1,64.4z M367.9,67.2l-11.9,20.6l11.9,20.6h23.7
		l11.9-20.6l-11.9-20.6H367.9z M178.3,132.6l-11.9,20.6l11.9,20.6H202l11.9-20.6L202,132.6H178.3z M254.3,132.6l-11.9,20.6
		l11.9,20.6h23.7l11.9-20.6l-11.9-20.6H254.3z M23.8,262l-11.9-20.6H0v41.1h11.9L23.8,262z M406.2,263.6l-11.9,20.6l11.9,20.6h23.7
		l11.9-20.6l-11.9-20.6H406.2z M140,326.5h23.7l11.9-20.6l-11.9-20.6H140l-11.9,20.6L140,326.5z M291.9,329.2L280,349.8l11.9,20.6
		h23.7l11.9-20.6l-11.9-20.6H291.9z M506.1,42.7L518,22.1L506.1,1.5h-23.7l-11.9,20.6l11.9,20.6H506.1z M558.4,45.1l-11.9,20.6
		l11.9,20.6h23.7L594,65.7l-11.9-20.6H558.4z M544,198.2h-23.7l-11.9,20.6l11.9,20.6H544l11.9-20.6L544,198.2z M620,154.3h-23.7
		l-11.9,20.6l11.9,20.6H620l11.9-20.6L620,154.3z M710.2,176.1l-11.9,20.6l11.9,20.6h23.7l11.9-20.6l-11.9-20.6H710.2z M736.6,262
		l11.9,20.6H760v-41.1h-11.6L736.6,262z M178.3,436.8H202l11.9-20.6L202,395.6h-23.7l-11.9,20.6L178.3,436.8z M49.7,480.3l11.9-20.6
		l-11.9-20.6H26l-11.9,20.6L26,480.3H49.7z M102.1,480.3h23.7l11.9-20.6l-11.9-20.6h-23.7l-11.9,20.6L102.1,480.3z M277.7,480.3
		l11.9-20.6l-11.9-20.6h-23.7L242,459.8l11.9,20.6H277.7z M391.7,502.4l11.9-20.6l-11.9-20.6h-23.7l-11.9,20.6l11.9,20.6H391.7z
		 M23.5,612.9l-11.9-20.6H0v41.1h11.6L23.5,612.9z M202,654.9l11.9-20.6L202,613.8h-23.7l-11.9,20.6l11.9,20.6H202z M353.9,654.9
		l11.9-20.6l-11.9-20.6h-23.7l-11.9,20.6l11.9,20.6H353.9z M406.2,657.7l-11.9,20.6l11.9,20.6h23.7l11.9-20.6l-11.9-20.6H406.2z
		 M582.2,395.6h-23.7l-11.9,20.6l11.9,20.6h23.7l11.9-20.6L582.2,395.6z M467.9,458.5l11.9-20.6l-11.9-20.6h-23.7L432.3,438
		l11.9,20.6H467.9z M696.1,417.4h-23.7L660.5,438l11.9,20.6h23.7L708,438L696.1,417.4z M506,611.3l11.9-20.6L506,570.2h-23.7
		l-11.9,20.6l11.9,20.6H506z M696.1,548.4h-23.7L660.5,569l11.9,20.6h23.7L708,569L696.1,548.4z M736.3,612.9l11.9,20.6H760v-41.1
		h-11.9L736.3,612.9z M620.4,635.6h-23.7l-11.9,20.6l11.9,20.6h23.7l11.9-20.6L620.4,635.6z"/>
</g>
<g id="HC-60">
	<path class="st4" d="M178.3,42.7l-11.9-20.6l11.9-20.6H202l11.9,20.6L202,42.7H178.3z M164.1,20.6L175.9,0h-47.5l11.9,20.6H164.1z
		 M315.9,20.6L327.8,0h-47.5l11.9,20.6H315.9z M429.9,42.7l11.9-20.6L429.9,1.5h-23.7l-11.9,20.6l11.9,20.6H429.9z M23.5,43.9
		L11.6,23.3H0v41.1h11.6L23.5,43.9z M102.1,45.1L90.2,65.7l11.9,20.6h23.7l11.9-20.6l-11.9-20.6H102.1z M49.8,173.7l11.9-20.6
		l-11.9-20.6H26.1l-11.9,20.6l11.9,20.6H49.8z M254.3,88.7l-11.9,20.6l11.9,20.6h23.7l11.9-20.6l-11.9-20.6H254.3z M406.2,132.6
		l-11.9,20.6l11.9,20.6h23.7l11.9-20.6l-11.9-20.6H406.2z M63.9,239.3h23.7l11.9-20.6l-11.9-20.6H63.9l-11.9,20.6L63.9,239.3z
		 M178.3,304.7H202l11.9-20.6L202,263.6h-23.7l-11.9,20.6L178.3,304.7z M254.3,219.7l-11.9,20.6l11.9,20.6h23.7l11.9-20.6
		l-11.9-20.6H254.3z M330.1,263.6l-11.9,20.6l11.9,20.6h23.7l11.9-20.6l-11.9-20.6H330.1z M23.5,349.8l-11.9-20.6H0v41.1h11.6
		L23.5,349.8z M102.1,348.3h23.7l11.9-20.6l-11.9-20.6h-23.7l-11.9,20.6L102.1,348.3z M216.1,370.4h23.7l11.9-20.6l-11.9-20.6h-23.7
		l-11.9,20.6L216.1,370.4z M658.3,42.7l11.9-20.6L658.3,1.5h-23.7l-11.9,20.6l11.9,20.6H658.3z M736.3,43.9l11.9,20.6H760V23.3
		h-11.9L736.3,43.9z M482.4,88.7l-11.9,20.6l11.9,20.6h23.7l11.9-20.6l-11.9-20.6H482.4z M658.3,88.7h-23.7l-11.9,20.6l11.9,20.6
		h23.7l11.9-20.6L658.3,88.7z M710.6,132.6l-11.9,20.6l11.9,20.6h23.7l11.9-20.6l-11.9-20.6H710.6z M444.1,198.2l-11.9,20.6
		l11.9,20.6h23.7l11.9-20.6l-11.9-20.6H444.1z M582.2,263.6h-23.7l-11.9,20.6l11.9,20.6h23.7l11.9-20.6L582.2,263.6z M658.3,219.7
		h-23.7l-11.9,20.6l11.9,20.6h23.7l11.9-20.6L658.3,219.7z M506,307.1h-23.7l-11.9,20.6l11.9,20.6H506l11.9-20.6L506,307.1z
		 M736.3,349.8l11.9,20.6H760v-41.1h-11.9L736.3,349.8z M710.2,307.1l-11.9,20.6l11.9,20.6h23.7l11.9-20.6l-11.9-20.6H710.2z
		 M140.3,414.6h23.7l11.9-20.6l-11.9-20.6h-23.7l-11.9,20.6L140.3,414.6z M353.9,436.8l11.9-20.6l-11.9-20.6h-23.7l-11.9,20.6
		l11.9,20.6H353.9z M23.5,481.9l-11.9-20.6H0v41.1h11.6L23.5,481.9z M49.8,523.9l11.9-20.6l-11.9-20.6H26.1l-11.9,20.6l11.9,20.6
		H49.8z M315.9,545.7l11.9-20.6l-11.9-20.6h-23.7l-11.9,20.6l11.9,20.6H315.9z M429.9,523.9l11.9-20.6l-11.9-20.6h-23.7l-11.9,20.6
		l11.9,20.6H429.9z M102.1,611.3h23.7l11.9-20.6l-11.9-20.6h-23.7l-11.9,20.6L102.1,611.3z M201.9,611.3l11.9-20.6l-11.9-20.6h-23.7
		l-11.9,20.6l11.9,20.6H201.9z M23.8,656.1l-11.9-20.6H0v41.1h11.9L23.8,656.1z M278.1,654.9l11.9-20.6l-11.9-20.6h-23.7l-11.9,20.6
		l11.9,20.6H278.1z M330.1,657.7l-11.9,20.6l11.9,20.6h23.7l11.9-20.6l-11.9-20.6H330.1z M140,679.4L128.1,700h47.5l-11.9-20.6H140z
		 M291.9,679.4L280,700h47.5l-11.9-20.6H291.9z M658.3,395.6h-23.7l-11.9,20.6l11.9,20.6h23.7l11.9-20.6L658.3,395.6z M506,480.3
		l11.9-20.6L506,439.2h-23.7l-11.9,20.6l11.9,20.6H506z M736.3,481.9l11.9,20.6H760v-41.1h-11.9L736.3,481.9z M582.2,523.9
		l11.9-20.6l-11.9-20.6h-23.7l-11.9,20.6l11.9,20.6H582.2z M429.9,611.3l11.9-20.6l-11.9-20.6h-23.7l-11.9,20.6l11.9,20.6H429.9z
		 M544,633.4l11.9-20.6L544,592.3h-23.7l-11.9,20.6l11.9,20.6H544z M696.1,633.4l11.9-20.6l-11.9-20.6h-23.7l-11.9,20.6l11.9,20.6
		H696.1z M710.6,657.7l-11.9,20.6l11.9,20.6h23.7l11.9-20.6l-11.9-20.6H710.6z M736.6,656.1l11.9,20.6H760v-41.1h-11.6L736.6,656.1z
		"/>
</g>
<g id="HC-50">
	<path class="st5" d="M26.1,42.7L14.2,22.1L26.1,1.5h23.7l11.9,20.6L49.8,42.7H26.1z M278.1,42.7L290,22.1L278.1,1.5h-23.7
		l-11.9,20.6l11.9,20.6H278.1z M216.1,67.2l-11.9,20.6l11.9,20.6h23.7l11.9-20.6l-11.9-20.6H216.1z M367.9,64.4h23.7l11.9-20.6
		l-11.9-20.6h-23.7l-11.9,20.6L367.9,64.4z M23.8,131l-11.9-20.6H0v41.1h11.9L23.8,131z M102.2,88.7l-11.9,20.6l11.9,20.6h23.7
		l11.9-20.6l-11.9-20.6H102.2z M330.1,88.7l-11.9,20.6l11.9,20.6h23.7l11.9-20.6l-11.9-20.6H330.1z M49.7,217.2l11.9-20.6
		l-11.9-20.6H26l-11.9,20.6L26,217.2H49.7z M178.2,176.1l-11.9,20.6l11.9,20.6h23.7l11.9-20.6l-11.9-20.6H178.2z M291.9,198.2
		L280,218.8l11.9,20.6h23.7l11.9-20.6l-11.9-20.6H291.9z M102.2,260.8h23.7l11.9-20.6l-11.9-20.6h-23.7l-11.9,20.6L102.2,260.8z
		 M216.4,241.5L204.5,262l11.9,20.6h23.7L252,262l-11.9-20.6H216.4z M406.2,219.7l-11.9,20.6l11.9,20.6h23.7l11.9-20.6l-11.9-20.6
		H406.2z M63.9,370.4h23.7l11.9-20.6l-11.9-20.6H63.9l-11.9,20.6L63.9,370.4z M178.2,348.3h23.7l11.9-20.6l-11.9-20.6h-23.7
		l-11.9,20.6L178.2,348.3z M544.3,20.6L556.1,0h-47.5l11.9,20.6H544.3z M520.2,67.2l-11.9,20.6l11.9,20.6H544l11.9-20.6L544,67.2
		H520.2z M710.2,45.1l-11.9,20.6l11.9,20.6h23.7l11.9-20.6l-11.9-20.6H710.2z M444.4,110.5L432.6,131l11.9,20.6h23.7l11.9-20.6
		l-11.9-20.6H444.4z M582.2,132.6h-23.7l-11.9,20.6l11.9,20.6h23.7l11.9-20.6L582.2,132.6z M736.6,131l11.9,20.6H760v-41.1h-11.6
		L736.6,131z M544.3,241.5h-23.7L508.7,262l11.9,20.6h23.7l11.9-20.6L544.3,241.5z M658.3,263.6h-23.7l-11.9,20.6l11.9,20.6h23.7
		l11.9-20.6L658.3,263.6z M710.6,219.7l-11.9,20.6l11.9,20.6h23.7l11.9-20.6l-11.9-20.6H710.6z M467.9,285.4h-23.7l-11.9,20.6
		l11.9,20.6h23.7l11.9-20.6L467.9,285.4z M620,329.2h-23.7l-11.9,20.6l11.9,20.6H620l11.9-20.6L620,329.2z M49.8,436.8l11.9-20.6
		l-11.9-20.6H26.1l-11.9,20.6l11.9,20.6H49.8z M254.3,392.9h23.7l11.9-20.6l-11.9-20.6h-23.7l-11.9,20.6L254.3,392.9z M392,414.6
		l11.9-20.6L392,373.5h-23.7l-11.9,20.6l11.9,20.6H392z M315.6,458.5l11.9-20.6l-11.9-20.6h-23.7L280,438l11.9,20.6H315.6z
		 M49.8,567.8l11.9-20.6l-11.9-20.6H26.1l-11.9,20.6l11.9,20.6H49.8z M102.2,523.9h23.7l11.9-20.6l-11.9-20.6h-23.7l-11.9,20.6
		L102.2,523.9z M178.3,523.9H202l11.9-20.6L202,482.8h-23.7l-11.9,20.6L178.3,523.9z M278.1,567.8l11.9-20.6l-11.9-20.6h-23.7
		l-11.9,20.6l11.9,20.6H278.1z M163.8,633.4l11.9-20.6l-11.9-20.6H140l-11.9,20.6l11.9,20.6H163.8z M391.7,589.5l11.9-20.6
		l-11.9-20.6h-23.7L356.1,569l11.9,20.6H391.7z M102.2,657.7l-11.9,20.6l11.9,20.6h23.7l11.9-20.6l-11.9-20.6H102.2z M392,635.6
		h-23.7l-11.9,20.6l11.9,20.6H392l11.9-20.6L392,635.6z M544.3,373.5h-23.7l-11.9,20.6l11.9,20.6h23.7l11.9-20.6L544.3,373.5z
		 M710.6,395.6l-11.9,20.6l11.9,20.6h23.7l11.9-20.6l-11.9-20.6H710.6z M544,502.4l11.9-20.6L544,461.3h-23.7l-11.9,20.6l11.9,20.6
		H544z M658.2,439.2h-23.7l-11.9,20.6l11.9,20.6h23.7l11.9-20.6L658.2,439.2z M696.4,504.5h-23.7l-11.9,20.6l11.9,20.6h23.7
		l11.9-20.6L696.4,504.5z M467.9,589.5l11.9-20.6l-11.9-20.6h-23.7L432.3,569l11.9,20.6H467.9z M582.1,611.3l11.9-20.6l-11.9-20.6
		h-23.7l-11.9,20.6l11.9,20.6H582.1z M482.4,657.7l-11.9,20.6l11.9,20.6h23.7l11.9-20.6l-11.9-20.6H482.4z M558.5,657.7l-11.9,20.6
		l11.9,20.6h23.7l11.9-20.6l-11.9-20.6H558.5z M696.4,635.6h-23.7l-11.9,20.6l11.9,20.6h23.7l11.9-20.6L696.4,635.6z M520.2,679.4
		L508.3,700h47.5L544,679.4H520.2z"/>
</g>
<g id="HC-40">
	<path class="st6" d="M201.9,45.1l11.9,20.6l-11.9,20.6h-23.7l-11.9-20.6l11.9-20.6H201.9z M330.1,132.6l-11.9,20.6l11.9,20.6h23.7
		l11.9-20.6l-11.9-20.6H330.1z M63.9,195.5h23.7l11.9-20.6l-11.9-20.6H63.9l-11.9,20.6L63.9,195.5z M216.1,154.3l-11.9,20.6
		l11.9,20.6h23.7l11.9-20.6l-11.9-20.6H216.1z M367.9,198.2l-11.9,20.6l11.9,20.6h23.7l11.9-20.6l-11.9-20.6H367.9z M23.5,305.9
		l-11.9-20.6H0v41.1h11.6L23.5,305.9z M63.9,326.5h23.7l11.9-20.6l-11.9-20.6H63.9l-11.9,20.6L63.9,326.5z M353.7,348.3l11.9-20.6
		l-11.9-20.6H330l-11.9,20.6l11.9,20.6H353.7z M582.2,42.7l11.9-20.6L582.2,1.5h-23.7l-11.9,20.6l11.9,20.6H582.2z M696.4,20.6
		L708.3,0h-47.5l11.9,20.6H696.4z M444.1,64.4h23.7l11.9-20.6l-11.9-20.6h-23.7l-11.9,20.6L444.1,64.4z M620.4,110.5h-23.7
		L584.7,131l11.9,20.6h23.7l11.9-20.6L620.4,110.5z M710.6,88.7l-11.9,20.6l11.9,20.6h23.7l11.9-20.6l-11.9-20.6H710.6z
		 M520.2,154.3l-11.9,20.6l11.9,20.6H544l11.9-20.6L544,154.3H520.2z M620,198.2h-23.7l-11.9,20.6l11.9,20.6H620l11.9-20.6
		L620,198.2z M582.1,307.1h-23.7l-11.9,20.6l11.9,20.6h23.7l11.9-20.6L582.1,307.1z M696.1,329.2h-23.7l-11.9,20.6l11.9,20.6h23.7
		l11.9-20.6L696.1,329.2z M736.3,305.9l11.9,20.6H760v-41.1h-11.9L736.3,305.9z M254.3,436.8h23.7l11.9-20.6l-11.9-20.6h-23.7
		l-11.9,20.6L254.3,436.8z M429.9,392.9l11.9-20.6l-11.9-20.6h-23.7l-11.9,20.6l11.9,20.6H429.9z M63.9,458.5h23.7L99.5,438
		l-11.9-20.6H63.9L52.1,438L63.9,458.5z M178.2,480.3h23.7l11.9-20.6l-11.9-20.6h-23.7l-11.9,20.6L178.2,480.3z M353.9,523.9
		l11.9-20.6l-11.9-20.6h-23.7l-11.9,20.6l11.9,20.6H353.9z M63.9,589.5h23.7L99.5,569l-11.9-20.6H63.9L52.1,569L63.9,589.5z
		 M277.7,611.3l11.9-20.6l-11.9-20.6h-23.7L242,590.8l11.9,20.6H277.7z M391.7,633.4l11.9-20.6l-11.9-20.6h-23.7l-11.9,20.6
		l11.9,20.6H391.7z M88,635.6H64.2l-11.9,20.6l11.9,20.6H88l11.9-20.6L88,635.6z M506.1,351.7h-23.7l-11.9,20.6l11.9,20.6h23.7
		l11.9-20.6L506.1,351.7z M582.1,439.2h-23.7l-11.9,20.6l11.9,20.6h23.7l11.9-20.6L582.1,439.2z M506.1,523.9l11.9-20.6l-11.9-20.6
		h-23.7l-11.9,20.6l11.9,20.6H506.1z M658.3,526.6h-23.7l-11.9,20.6l11.9,20.6h23.7l11.9-20.6L658.3,526.6z M710.2,570.2l-11.9,20.6
		l11.9,20.6h23.7l11.9-20.6l-11.9-20.6H710.2z M506.1,654.9l11.9-20.6l-11.9-20.6h-23.7l-11.9,20.6l11.9,20.6H506.1z M672.4,679.4
		L660.5,700H708l-11.9-20.6H672.4z"/>
</g>
<g id="HC-30">
	<path class="st7" d="M52.4,131l11.9-20.6H88L99.9,131L88,151.6H64.2L52.4,131z M291.9,154.3L280,174.9l11.9,20.6h23.7l11.9-20.6
		l-11.9-20.6H291.9z M140.3,282.6h23.7l11.9-20.6l-11.9-20.6h-23.7L128.5,262L140.3,282.6z M330.1,219.7l-11.9,20.6l11.9,20.6h23.7
		l11.9-20.6l-11.9-20.6H330.1z M406.2,45.1l-11.9,20.6l11.9,20.6h23.7l11.9-20.6l-11.9-20.6H406.2z M634.4,45.1l-11.9,20.6
		l11.9,20.6h23.7l11.9-20.6l-11.9-20.6H634.4z M482.4,132.6l-11.9,20.6l11.9,20.6h23.7l11.9-20.6l-11.9-20.6H482.4z M696.1,198.2
		h-23.7l-11.9,20.6l11.9,20.6h23.7l11.9-20.6L696.1,198.2z M444.4,241.5L432.6,262l11.9,20.6h23.7l11.9-20.6l-11.9-20.6H444.4z
		 M429.9,348.3l11.9-20.6l-11.9-20.6h-23.7l-11.9,20.6l11.9,20.6H429.9z M64.2,414.6H88l11.9-20.6L88,373.5H64.2l-11.9,20.6
		L64.2,414.6z M178.3,392.9H202l11.9-20.6L202,351.7h-23.7l-11.9,20.6L178.3,392.9z M353.9,392.9l11.9-20.6l-11.9-20.6h-23.7
		l-11.9,20.6l11.9,20.6H353.9z M239.8,502.4l11.9-20.6l-11.9-20.6h-23.7l-11.9,20.6l11.9,20.6H239.8z M202,567.8l11.9-20.6
		L202,526.6h-23.7l-11.9,20.6l11.9,20.6H202z M23.5,569l-11.9-20.6H0v41.1h11.6L23.5,569z M63.9,633.4h23.7l11.9-20.6l-11.9-20.6
		H63.9l-11.9,20.6L63.9,633.4z M239.8,633.4l11.9-20.6l-11.9-20.6h-23.7l-11.9,20.6l11.9,20.6H239.8z M353.7,611.3l11.9-20.6
		l-11.9-20.6H330l-11.9,20.6l11.9,20.6H353.7z M506.1,436.8l11.9-20.6l-11.9-20.6h-23.7l-11.9,20.6l11.9,20.6H506.1z M696.4,373.5
		h-23.7l-11.9,20.6l11.9,20.6h23.7l11.9-20.6L696.4,373.5z M429.9,480.3l11.9-20.6l-11.9-20.6h-23.7l-11.9,20.6l11.9,20.6H429.9z
		 M710.6,482.8l-11.9,20.6l11.9,20.6h23.7l11.9-20.6l-11.9-20.6H710.6z M620,633.4l11.9-20.6L620,592.3h-23.7l-11.9,20.6l11.9,20.6
		H620z M736.3,569l11.9,20.6H760v-41.1h-11.9L736.3,569z M468.2,635.6h-23.7l-11.9,20.6l11.9,20.6h23.7l11.9-20.6L468.2,635.6z
		 M710.6,613.8l-11.9,20.6l11.9,20.6h23.7l11.9-20.6l-11.9-20.6H710.6z"/>
</g>
<g id="HC-20">
	<path class="st8" d="M102.2,42.7L90.3,22.1l11.9-20.6h23.7l11.9,20.6l-11.9,20.6H102.2z M392,20.6L403.9,0h-47.5l11.9,20.6H392z
		 M330,45.1l-11.9,20.6L330,86.2h23.7l11.9-20.6l-11.9-20.6H330z M178.3,88.7l-11.9,20.6l11.9,20.6H202l11.9-20.6L202,88.7H178.3z
		 M292.2,110.5L280.3,131l11.9,20.6h23.7l11.9-20.6l-11.9-20.6H292.2z M23.5,174.9l-11.9-20.6H0v41.1h11.6L23.5,174.9z M216.1,198.2
		l-11.9,20.6l11.9,20.6h23.7l11.9-20.6l-11.9-20.6H216.1z M64.2,282.6H88L99.9,262L88,241.5H64.2L52.4,262L64.2,282.6z M254.3,263.6
		l-11.9,20.6l11.9,20.6h23.7l11.9-20.6l-11.9-20.6H254.3z M49.7,348.3l11.9-20.6l-11.9-20.6H26l-11.9,20.6L26,348.3H49.7z
		 M482.3,45.1l-11.9,20.6l11.9,20.6H506l11.9-20.6L506,45.1H482.3z M696.1,108.3L708,87.8l-11.9-20.6h-23.7l-11.9,20.6l11.9,20.6
		H696.1z M444.1,154.3l-11.9,20.6l11.9,20.6h23.7l11.9-20.6l-11.9-20.6H444.1z M736.3,174.9l11.9,20.6H760v-41.1h-11.9L736.3,174.9z
		 M620.4,241.5h-23.7L584.7,262l11.9,20.6h23.7l11.9-20.6L620.4,241.5z M710.6,263.6l-11.9,20.6l11.9,20.6h23.7l11.9-20.6
		l-11.9-20.6H710.6z M544,285.4h-23.7l-11.9,20.6l11.9,20.6H544l11.9-20.6L544,285.4z M315.9,414.6l11.9-20.6l-11.9-20.6h-23.7
		l-11.9,20.6l11.9,20.6H315.9z M140,458.5h23.7l11.9-20.6l-11.9-20.6H140L128.1,438L140,458.5z M392,545.7l11.9-20.6L392,504.5
		h-23.7l-11.9,20.6l11.9,20.6H392z M49.7,611.3l11.9-20.6l-11.9-20.6H26l-11.9,20.6L26,611.3H49.7z M240.2,635.6h-23.7l-11.9,20.6
		l11.9,20.6h23.7l11.9-20.6L240.2,635.6z M367.9,679.4L356.1,700h47.5l-11.9-20.6H367.9z M468.2,414.6l11.9-20.6l-11.9-20.6h-23.7
		l-11.9,20.6l11.9,20.6H468.2z M620.4,373.5h-23.7l-11.9,20.6l11.9,20.6h23.7l11.9-20.6L620.4,373.5z M620,461.3h-23.7l-11.9,20.6
		l11.9,20.6H620l11.9-20.6L620,461.3z M544.3,545.7l11.9-20.6l-11.9-20.6h-23.7l-11.9,20.6l11.9,20.6H544.3z M582.2,654.9l11.9-20.6
		l-11.9-20.6h-23.7l-11.9,20.6l11.9,20.6H582.2z M634.5,657.7l-11.9,20.6l11.9,20.6h23.7l11.9-20.6l-11.9-20.6H634.5z"/>
</g>
<g id="HC-10">
	<path class="st9" d="M216.4,20.6L204.5,0H252l-11.9,20.6H216.4z M23.5,87.8L11.6,67.2H0v41.1h11.6L23.5,87.8z M291.9,64.4h23.7
		l11.9-20.6l-11.9-20.6h-23.7L280,43.9L291.9,64.4z M102.2,173.7h23.7l11.9-20.6l-11.9-20.6h-23.7l-11.9,20.6L102.2,173.7z
		 M216.4,110.5L204.5,131l11.9,20.6h23.7L252,131l-11.9-20.6H216.4z M406.2,88.7l-11.9,20.6l11.9,20.6h23.7l11.9-20.6l-11.9-20.6
		H406.2z M23.5,218.8l-11.9-20.6H0v41.1h11.6L23.5,218.8z M140,239.3h23.7l11.9-20.6l-11.9-20.6H140l-11.9,20.6L140,239.3z
		 M367.9,154.3l-11.9,20.6l11.9,20.6h23.7l11.9-20.6l-11.9-20.6H367.9z M216.1,326.5h23.7l11.9-20.6l-11.9-20.6h-23.7l-11.9,20.6
		L216.1,326.5z M367.9,285.4l-11.9,20.6l11.9,20.6h23.7l11.9-20.6l-11.9-20.6H367.9z M520.2,64.4H544l11.9-20.6L544,23.3h-23.7
		l-11.9,20.6L520.2,64.4z M596.3,67.2l-11.9,20.6l11.9,20.6H620l11.9-20.6L620,67.2H596.3z M736.3,87.8l11.9,20.6H760V67.2h-11.9
		L736.3,87.8z M582.1,176.1h-23.7l-11.9,20.6l11.9,20.6h23.7l11.9-20.6L582.1,176.1z M696.1,154.3h-23.7l-11.9,20.6l11.9,20.6h23.7
		l11.9-20.6L696.1,154.3z M736.3,218.8l11.9,20.6H760v-41.1h-11.9L736.3,218.8z M506.1,219.7h-23.7l-11.9,20.6l11.9,20.6h23.7
		l11.9-20.6L506.1,219.7z M658.2,307.1h-23.7l-11.9,20.6l11.9,20.6h23.7l11.9-20.6L658.2,307.1z M102.2,392.9h23.7l11.9-20.6
		l-11.9-20.6h-23.7l-11.9,20.6L102.2,392.9z M216.4,414.6h23.7l11.9-20.6l-11.9-20.6h-23.7l-11.9,20.6L216.4,414.6z M23.5,438
		l-11.9-20.6H0v41.1h11.6L23.5,438z M63.9,502.4h23.7l11.9-20.6l-11.9-20.6H63.9l-11.9,20.6L63.9,502.4z M140,502.4h23.7l11.9-20.6
		l-11.9-20.6H140l-11.9,20.6L140,502.4z M315.6,502.4l11.9-20.6l-11.9-20.6h-23.7L280,481.9l11.9,20.6H315.6z M391.7,458.5
		l11.9-20.6l-11.9-20.6h-23.7L356.1,438l11.9,20.6H391.7z M102.2,567.8h23.7l11.9-20.6l-11.9-20.6h-23.7l-11.9,20.6L102.2,567.8z
		 M240.2,545.7l11.9-20.6l-11.9-20.6h-23.7l-11.9,20.6l11.9,20.6H240.2z M315.6,589.5l11.9-20.6l-11.9-20.6h-23.7L280,569l11.9,20.6
		H315.6z M26.1,657.7l-11.9,20.6l11.9,20.6h23.7l11.9-20.6l-11.9-20.6H26.1z M164.1,635.6h-23.7l-11.9,20.6l11.9,20.6h23.7
		l11.9-20.6L164.1,635.6z M216.1,679.4L204.2,700h47.5l-11.9-20.6H216.1z M582.2,351.7h-23.7l-11.9,20.6l11.9,20.6h23.7l11.9-20.6
		L582.2,351.7z M710.6,351.7l-11.9,20.6l11.9,20.6h23.7l11.9-20.6l-11.9-20.6H710.6z M544,458.5l11.9-20.6L544,417.4h-23.7
		L508.3,438l11.9,20.6H544z M696.1,461.3h-23.7l-11.9,20.6l11.9,20.6h23.7l11.9-20.6L696.1,461.3z M736.3,438l11.9,20.6H760v-41.1
		h-11.9L736.3,438z M468.2,545.7l11.9-20.6l-11.9-20.6h-23.7l-11.9,20.6l11.9,20.6H468.2z M620.4,545.7l11.9-20.6l-11.9-20.6h-23.7
		l-11.9,20.6l11.9,20.6H620.4z M467.9,633.4l11.9-20.6l-11.9-20.6h-23.7l-11.9,20.6l11.9,20.6H467.9z M544,589.5l11.9-20.6
		L544,548.4h-23.7L508.3,569l11.9,20.6H544z M658.2,611.3l11.9-20.6l-11.9-20.6h-23.7l-11.9,20.6l11.9,20.6H658.2z"/>
</g>
</svg>
