<?xml version="1.0" encoding="utf-8"?>
<!-- Generator: Adobe Illustrator 22.0.1, SVG Export Plug-In . SVG Version: 6.00 Build 0)  -->
<svg version="1.1" id="Stripes" xmlns="http://www.w3.org/2000/svg" xmlns:xlink="http://www.w3.org/1999/xlink" x="0px" y="0px"
	 viewBox="0 0 60 60" style="enable-background:new 0 0 60 60;" xml:space="preserve">
<style type="text/css">
	.st0{opacity:0.75;}
	.st1{clip-path:url(#SVGID_2_);}
	.st2{fill:none;stroke:#191919;stroke-width:0.75;stroke-miterlimit:10;}
</style>
<g class="st0">
	<defs>
		<rect id="SVGID_1_" class="st0" width="60" height="60"/>
	</defs>
	<clipPath id="SVGID_2_">
		<use xlink:href="#SVGID_1_"  style="overflow:visible;"/>
	</clipPath>
	<g class="st1">
		<line class="st2" x1="-76.1" y1="61.1" x2="-12.1" y2="-2.9"/>
		<line class="st2" x1="-68.6" y1="61.1" x2="-4.6" y2="-2.9"/>
		<line class="st2" x1="-61.1" y1="61.1" x2="2.9" y2="-2.9"/>
		<line class="st2" x1="-53.6" y1="61.1" x2="10.4" y2="-2.9"/>
		<line class="st2" x1="-46.1" y1="61.1" x2="17.9" y2="-2.9"/>
		<line class="st2" x1="-38.6" y1="61.1" x2="25.4" y2="-2.9"/>
		<line class="st2" x1="-31.1" y1="61.1" x2="32.9" y2="-2.9"/>
		<line class="st2" x1="-23.6" y1="61.1" x2="40.4" y2="-2.9"/>
		<line class="st2" x1="-16.1" y1="61.1" x2="47.9" y2="-2.9"/>
		<line class="st2" x1="-8.6" y1="61.1" x2="55.4" y2="-2.9"/>
	</g>
	<g class="st1">
		<line class="st2" x1="-1.1" y1="61.1" x2="62.9" y2="-2.9"/>
		<line class="st2" x1="6.4" y1="61.1" x2="70.4" y2="-2.9"/>
		<line class="st2" x1="13.9" y1="61.1" x2="77.9" y2="-2.9"/>
		<line class="st2" x1="21.4" y1="61.1" x2="85.4" y2="-2.9"/>
		<line class="st2" x1="28.9" y1="61.1" x2="92.9" y2="-2.9"/>
		<line class="st2" x1="36.4" y1="61.1" x2="100.3" y2="-2.9"/>
		<line class="st2" x1="43.9" y1="61.1" x2="107.8" y2="-2.9"/>
		<line class="st2" x1="51.4" y1="61.1" x2="115.3" y2="-2.9"/>
		<line class="st2" x1="58.9" y1="61.1" x2="122.8" y2="-2.9"/>
		<line class="st2" x1="66.3" y1="61.1" x2="130.3" y2="-2.9"/>
		<line class="st2" x1="73.8" y1="61.1" x2="137.8" y2="-2.9"/>
	</g>
</g>
</svg>
