<?xml version="1.0" encoding="utf-8"?>
<!-- Generator: Adobe Illustrator 19.0.0, SVG Export Plug-In . SVG Version: 6.00 Build 0)  -->
<svg version="1.1" id="PRODUCT_DIAGRAM_1" xmlns="http://www.w3.org/2000/svg" xmlns:xlink="http://www.w3.org/1999/xlink" x="0px"
	 y="0px" viewBox="0 0 140 140" style="enable-background:new 0 0 140 140;" xml:space="preserve">
<style type="text/css">
	.st0{fill:#423F3F;}
</style>
<g>
	<g>
		<g>
			<path class="st0" d="M139.74,62.381c-0.075,0-0.135-0.06-0.135-0.135v-1.348c0-0.075,0.06-0.135,0.135-0.135
				c0.075,0,0.135,0.06,0.135,0.135v1.348C139.875,62.321,139.815,62.381,139.74,62.381z"/>
			<path class="st0" d="M139.741,62.506c-0.143,0-0.26-0.116-0.26-0.259v-1.348c0-0.143,0.117-0.259,0.26-0.259
				c0.143,0,0.259,0.116,0.259,0.259v1.348C140,62.39,139.884,62.506,139.741,62.506z M139.75,60.898l-0.02,1.348l0.011,0.01
				c0.005,0,0.01-0.005,0.01-0.01V60.898z"/>
		</g>
	</g>
	<g>
		<g>
			<path class="st0" d="M8.48,62.381c-0.074,0-0.135-0.06-0.135-0.135v-1.348c0-0.075,0.061-0.135,0.135-0.135
				c0.074,0,0.135,0.06,0.135,0.135v1.348C8.615,62.321,8.554,62.381,8.48,62.381z"/>
			<path class="st0" d="M8.48,62.506c-0.143,0-0.26-0.116-0.26-0.259v-1.348c0-0.143,0.116-0.259,0.26-0.259
				c0.143,0,0.26,0.116,0.26,0.259v1.348C8.74,62.39,8.623,62.506,8.48,62.506z M8.49,60.898l-0.02,1.348l0.01,0.01
				c0.005,0,0.01-0.005,0.01-0.01V60.898z"/>
		</g>
	</g>
	<g>
		<g>
			<path class="st0" d="M122.356,62.112c-0.075,0-0.135-0.06-0.135-0.135v-0.673c0-0.075,0.06-0.135,0.135-0.135
				s0.135,0.06,0.135,0.135v0.673C122.491,62.051,122.43,62.112,122.356,62.112z"/>
			<path class="st0" d="M122.356,62.237c-0.143,0-0.259-0.117-0.259-0.26v-0.674c0-0.143,0.116-0.259,0.259-0.259
				c0.143,0,0.259,0.116,0.259,0.259v0.674C122.615,62.12,122.499,62.237,122.356,62.237z"/>
		</g>
	</g>
	<g>
		<g>
			<path class="st0" d="M122.356,62.112h-8.22c-0.075,0-0.135-0.06-0.135-0.135s0.06-0.135,0.135-0.135h8.22
				c0.075,0,0.135,0.06,0.135,0.135S122.43,62.112,122.356,62.112z"/>
			<path class="st0" d="M122.356,62.237h-8.221c-0.143,0-0.259-0.117-0.259-0.26s0.116-0.259,0.259-0.259h8.221
				c0.143,0,0.259,0.116,0.259,0.259S122.499,62.237,122.356,62.237z M114.135,61.967l8.221,0.02c0.007,0,0.01-0.006,0.01-0.011
				L114.135,61.967z"/>
		</g>
	</g>
	<g>
		<g>
			<path class="st0" d="M114.135,62.112c-0.075,0-0.135-0.06-0.135-0.135v-0.673c0-0.075,0.06-0.135,0.135-0.135
				s0.135,0.06,0.135,0.135v0.673C114.27,62.051,114.21,62.112,114.135,62.112z"/>
			<path class="st0" d="M114.135,62.237c-0.143,0-0.259-0.117-0.259-0.26v-0.674c0-0.143,0.116-0.259,0.259-0.259
				c0.143,0,0.26,0.116,0.26,0.259v0.674C114.395,62.12,114.278,62.237,114.135,62.237z"/>
		</g>
	</g>
	<g>
		<g>
			<path class="st0" d="M122.356,61.438h-8.22c-0.075,0-0.135-0.06-0.135-0.135s0.06-0.135,0.135-0.135h8.22
				c0.075,0,0.135,0.06,0.135,0.135S122.43,61.438,122.356,61.438z"/>
			<path class="st0" d="M122.356,61.563h-8.221c-0.143,0-0.259-0.117-0.259-0.26s0.116-0.259,0.259-0.259h8.221
				c0.143,0,0.259,0.116,0.259,0.259S122.499,61.563,122.356,61.563z M114.135,61.293l8.221,0.02c0.007,0,0.01-0.006,0.01-0.011
				L114.135,61.293z"/>
		</g>
	</g>
	<g>
		<g>
			<path class="st0" d="M25.865,62.112c-0.074,0-0.135-0.06-0.135-0.135v-0.673c0-0.075,0.061-0.135,0.135-0.135
				s0.135,0.06,0.135,0.135v0.673C25.999,62.051,25.939,62.112,25.865,62.112z"/>
			<path class="st0" d="M25.864,62.237c-0.143,0-0.26-0.117-0.26-0.26v-0.674c0-0.143,0.116-0.259,0.26-0.259s0.26,0.116,0.26,0.259
				v0.674C26.124,62.12,26.008,62.237,25.864,62.237z"/>
		</g>
	</g>
	<g>
		<g>
			<path class="st0" d="M34.085,61.438h-8.221c-0.074,0-0.135-0.06-0.135-0.135s0.061-0.135,0.135-0.135h8.221
				c0.074,0,0.135,0.06,0.135,0.135S34.16,61.438,34.085,61.438z"/>
			<path class="st0" d="M34.085,61.563h-8.221c-0.143,0-0.26-0.117-0.26-0.26s0.116-0.259,0.26-0.259h8.221
				c0.143,0,0.26,0.116,0.26,0.259S34.228,61.563,34.085,61.563z M25.864,61.293l8.221,0.02c0.006,0,0.01-0.005,0.01-0.011
				L25.864,61.293z"/>
		</g>
	</g>
	<g>
		<g>
			<path class="st0" d="M34.085,62.112c-0.074,0-0.135-0.06-0.135-0.135v-0.673c0-0.075,0.061-0.135,0.135-0.135
				s0.135,0.06,0.135,0.135v0.673C34.22,62.051,34.16,62.112,34.085,62.112z"/>
			<path class="st0" d="M34.085,62.237c-0.143,0-0.259-0.117-0.259-0.26v-0.674c0-0.143,0.116-0.259,0.259-0.259
				c0.143,0,0.26,0.116,0.26,0.259v0.674C34.345,62.12,34.228,62.237,34.085,62.237z"/>
		</g>
	</g>
	<g>
		<g>
			<path class="st0" d="M34.085,62.112h-8.221c-0.074,0-0.135-0.06-0.135-0.135s0.061-0.135,0.135-0.135h8.221
				c0.074,0,0.135,0.06,0.135,0.135S34.16,62.112,34.085,62.112z"/>
			<path class="st0" d="M34.085,62.237h-8.221c-0.143,0-0.26-0.117-0.26-0.26s0.116-0.259,0.26-0.259h8.221
				c0.143,0,0.26,0.116,0.26,0.259S34.228,62.237,34.085,62.237z M25.864,61.967l8.221,0.02c0.006,0,0.01-0.005,0.01-0.011
				L25.864,61.967z"/>
		</g>
	</g>
	<g>
		<g>
			<path class="st0" d="M100.793,62.112c-0.075,0-0.135-0.06-0.135-0.135v-0.673c0-0.075,0.06-0.135,0.135-0.135
				s0.135,0.06,0.135,0.135v0.673C100.928,62.051,100.868,62.112,100.793,62.112z"/>
			<path class="st0" d="M100.794,62.237c-0.143,0-0.26-0.117-0.26-0.26v-0.674c0-0.143,0.117-0.259,0.26-0.259
				c0.143,0,0.259,0.116,0.259,0.259v0.674C101.053,62.12,100.937,62.237,100.794,62.237z"/>
		</g>
	</g>
	<g>
		<g>
			<path class="st0" d="M100.793,62.112H47.562c-0.074,0-0.135-0.06-0.135-0.135s0.061-0.135,0.135-0.135h53.232
				c0.075,0,0.135,0.06,0.135,0.135S100.868,62.112,100.793,62.112z"/>
			<path class="st0" d="M100.794,62.237H47.562c-0.143,0-0.26-0.117-0.26-0.26s0.116-0.259,0.26-0.259h53.232
				c0.143,0,0.259,0.116,0.259,0.259S100.937,62.237,100.794,62.237z M47.562,61.967l53.232,0.02c0.006,0,0.01-0.005,0.01-0.011
				L47.562,61.967z"/>
		</g>
	</g>
	<g>
		<g>
			<path class="st0" d="M47.562,62.112c-0.074,0-0.135-0.06-0.135-0.135v-0.673c0-0.075,0.061-0.135,0.135-0.135
				s0.135,0.06,0.135,0.135v0.673C47.697,62.051,47.636,62.112,47.562,62.112z"/>
			<path class="st0" d="M47.562,62.237c-0.143,0-0.26-0.117-0.26-0.26v-0.674c0-0.143,0.116-0.259,0.26-0.259s0.26,0.116,0.26,0.259
				v0.674C47.821,62.12,47.705,62.237,47.562,62.237z"/>
		</g>
	</g>
	<g>
		<g>
			<path class="st0" d="M100.793,61.438H47.562c-0.074,0-0.135-0.06-0.135-0.135s0.061-0.135,0.135-0.135h53.232
				c0.075,0,0.135,0.06,0.135,0.135S100.868,61.438,100.793,61.438z"/>
			<path class="st0" d="M100.794,61.563H47.562c-0.143,0-0.26-0.117-0.26-0.26s0.116-0.259,0.26-0.259h53.232
				c0.143,0,0.259,0.116,0.259,0.259S100.937,61.563,100.794,61.563z M47.562,61.293l53.232,0.02c0.006,0,0.01-0.005,0.01-0.011
				L47.562,61.293z"/>
		</g>
	</g>
	<g>
		<g>
			<path class="st0" d="M122.895,62.112h-0.539c-0.075,0-0.135-0.06-0.135-0.135s0.06-0.135,0.135-0.135h0.539
				c0.075,0,0.135,0.06,0.135,0.135S122.969,62.112,122.895,62.112z"/>
			<path class="st0" d="M122.895,62.237h-0.539c-0.143,0-0.259-0.117-0.259-0.26s0.116-0.259,0.259-0.259h0.539
				c0.143,0,0.259,0.116,0.259,0.259S123.038,62.237,122.895,62.237z"/>
		</g>
	</g>
	<g>
		<g>
			<path class="st0" d="M122.895,62.112c-0.035,0-0.069-0.013-0.095-0.039l-0.135-0.134c-0.026-0.025-0.04-0.06-0.04-0.095v-0.135
				c-0.075,0-0.135-0.06-0.135-0.135h-0.134c-0.075,0-0.135-0.06-0.135-0.135c0-0.075,0.06-0.135,0.135-0.135h0.269
				c0.075,0,0.135,0.06,0.135,0.135l0,0c0.075,0,0.135,0.06,0.135,0.135v0.214l0.095,0.095c0.053,0.053,0.053,0.138,0.001,0.19
				C122.964,62.098,122.929,62.112,122.895,62.112z"/>
			<path class="st0" d="M122.895,62.237c-0.068,0-0.134-0.027-0.183-0.076l-0.135-0.135c-0.05-0.05-0.077-0.115-0.077-0.184V61.8
				c-0.043-0.023-0.079-0.059-0.102-0.102h-0.042c-0.143,0-0.259-0.117-0.259-0.26s0.116-0.259,0.259-0.259h0.269
				c0.106,0,0.199,0.064,0.239,0.156c0.092,0.04,0.156,0.133,0.156,0.239v0.162l0.058,0.058c0.049,0.049,0.076,0.114,0.076,0.183
				c0.001,0.069-0.026,0.135-0.075,0.184C123.031,62.208,122.964,62.237,122.895,62.237z M122.356,61.428l0.135,0.02h0.125v0.125
				h0.125l0.01,0.269l0.145,0.145c0.001,0,0.003,0,0.006-0.003l-0.131-0.146v-0.265h-0.125l-0.01-0.135L122.356,61.428z"/>
		</g>
	</g>
	<g>
		<g>
			<path class="st0" d="M114.135,62.112h-0.54c-0.075,0-0.135-0.06-0.135-0.135s0.06-0.135,0.135-0.135h0.54
				c0.075,0,0.135,0.06,0.135,0.135S114.21,62.112,114.135,62.112z"/>
			<path class="st0" d="M114.135,62.237h-0.539c-0.143,0-0.26-0.117-0.26-0.26s0.117-0.259,0.26-0.259h0.539
				c0.143,0,0.26,0.116,0.26,0.259S114.278,62.237,114.135,62.237z"/>
		</g>
	</g>
	<g>
		<g>
			<path class="st0" d="M113.596,62.112c-0.075,0-0.135-0.06-0.135-0.135v-0.269c0-0.036,0.014-0.07,0.039-0.095l0.27-0.27
				c0.025-0.025,0.06-0.039,0.095-0.039h0.079l0.096-0.095c0.053-0.053,0.138-0.053,0.19,0.001c0.053,0.053,0.053,0.138-0.001,0.19
				l-0.135,0.134c-0.025,0.025-0.059,0.039-0.095,0.039h-0.079l-0.191,0.191v0.213C113.731,62.051,113.67,62.112,113.596,62.112z"/>
			<path class="st0" d="M113.596,62.237c-0.143,0-0.26-0.117-0.26-0.26v-0.269c0-0.069,0.027-0.135,0.076-0.184l0.27-0.27
				c0.049-0.048,0.114-0.075,0.184-0.075h0.027l0.058-0.059c0.05-0.049,0.114-0.075,0.183-0.075h0.001
				c0.069,0,0.135,0.027,0.183,0.077c0.1,0.1,0.1,0.265,0,0.367l-0.136,0.135c-0.049,0.049-0.114,0.076-0.182,0.076h-0.027
				l-0.118,0.117v0.162C113.855,62.12,113.739,62.237,113.596,62.237z M113.866,61.428l-0.277,0.273l-0.004,0.276l0.011,0.011
				c0.006,0,0.01-0.005,0.01-0.011v-0.265l0.264-0.263h0.131l0.142-0.138l-0.146,0.118H113.866z"/>
		</g>
	</g>
	<g>
		<g>
			<path class="st0" d="M47.562,62.112h-0.674c-0.074,0-0.135-0.06-0.135-0.135s0.061-0.135,0.135-0.135h0.674
				c0.074,0,0.135,0.06,0.135,0.135S47.636,62.112,47.562,62.112z"/>
			<path class="st0" d="M47.562,62.237h-0.674c-0.143,0-0.26-0.117-0.26-0.26s0.116-0.259,0.26-0.259h0.674
				c0.143,0,0.26,0.116,0.26,0.259S47.705,62.237,47.562,62.237z"/>
		</g>
	</g>
	<g>
		<g>
			<path class="st0" d="M46.888,62.112c-0.074,0-0.135-0.06-0.135-0.135v-0.134c0-0.036,0.014-0.07,0.039-0.095l0.095-0.095v-0.079
				c0-0.036,0.014-0.07,0.039-0.095l0.135-0.135c0.026-0.025,0.06-0.039,0.095-0.039h0.214l0.095-0.095
				c0.053-0.053,0.138-0.053,0.191,0s0.052,0.138,0,0.191l-0.135,0.134c-0.025,0.025-0.059,0.039-0.095,0.039h-0.214l-0.056,0.056
				v0.079c0,0.036-0.014,0.07-0.039,0.095l-0.095,0.095v0.078C47.023,62.051,46.962,62.112,46.888,62.112z"/>
			<path class="st0" d="M46.888,62.237c-0.143,0-0.26-0.117-0.26-0.26v-0.135c0-0.067,0.027-0.135,0.075-0.183l0.06-0.058v-0.027
				c0-0.069,0.027-0.135,0.076-0.184l0.134-0.135c0.05-0.05,0.116-0.076,0.184-0.076h0.162l0.058-0.058
				c0.097-0.099,0.269-0.098,0.367-0.001c0.101,0.101,0.101,0.266,0,0.368l-0.135,0.135c-0.049,0.049-0.115,0.076-0.183,0.076
				l-0.145,0.01c0,0.068-0.028,0.136-0.076,0.184l-0.058,0.058v0.026C47.148,62.12,47.031,62.237,46.888,62.237z M47.157,61.428
				l-0.141,0.137l-0.003,0.138l-0.133,0.132l-0.002,0.141l0.01,0.011c0.006,0,0.01-0.005,0.01-0.011v-0.13l0.132-0.132l0.003-0.138
				l0.13-0.129h0.265l0.141-0.138l-0.145,0.118H47.157z"/>
		</g>
	</g>
	<g>
		<g>
			<path class="st0" d="M25.865,62.112h-0.539c-0.074,0-0.135-0.06-0.135-0.135s0.061-0.135,0.135-0.135h0.539
				c0.074,0,0.135,0.06,0.135,0.135S25.939,62.112,25.865,62.112z"/>
			<path class="st0" d="M25.864,62.237h-0.539c-0.143,0-0.259-0.117-0.259-0.26s0.116-0.259,0.259-0.259h0.539
				c0.143,0,0.26,0.116,0.26,0.259S26.008,62.237,25.864,62.237z"/>
		</g>
	</g>
	<g>
		<g>
			<path class="st0" d="M25.326,62.112c-0.074,0-0.135-0.06-0.135-0.135v-0.269c0-0.036,0.014-0.07,0.039-0.095l0.27-0.27
				c0.025-0.025,0.059-0.039,0.095-0.039h0.079l0.095-0.095c0.053-0.053,0.138-0.053,0.191,0c0.053,0.053,0.052,0.138,0,0.191
				l-0.135,0.134c-0.025,0.025-0.059,0.039-0.095,0.039h-0.079l-0.191,0.191v0.213C25.46,62.051,25.4,62.112,25.326,62.112z"/>
			<path class="st0" d="M25.325,62.237c-0.143,0-0.259-0.117-0.259-0.26v-0.269c0-0.069,0.027-0.135,0.076-0.184l0.27-0.269
				c0.047-0.048,0.114-0.076,0.183-0.076h0.028l0.058-0.058c0.098-0.099,0.268-0.098,0.367-0.001
				c0.049,0.05,0.076,0.115,0.076,0.184c0,0.07-0.027,0.135-0.076,0.184l-0.135,0.135c-0.047,0.048-0.115,0.076-0.183,0.076h-0.027
				l-0.117,0.117v0.162C25.585,62.12,25.469,62.237,25.325,62.237z M25.595,61.428L25.319,61.7l-0.003,0.277l0.01,0.011
				c0.006,0,0.01-0.005,0.01-0.011v-0.265l0.264-0.263h0.131l0.141-0.138l-0.145,0.118H25.595z"/>
		</g>
	</g>
	<g>
		<g>
			<path class="st0" d="M34.624,62.112c-0.074,0-0.135-0.06-0.135-0.135v-0.269c-0.036,0-0.07-0.014-0.095-0.039l-0.095-0.095H34.22
				c-0.036,0-0.07-0.014-0.095-0.039l-0.135-0.134c-0.053-0.053-0.053-0.138,0-0.19c0.053-0.054,0.138-0.053,0.191-0.001
				l0.095,0.095h0.079c0.036,0,0.07,0.014,0.095,0.039l0.095,0.095h0.079c0.074,0,0.135,0.06,0.135,0.135v0.404
				C34.759,62.051,34.699,62.112,34.624,62.112z"/>
			<path class="st0" d="M34.624,62.237c-0.143,0-0.26-0.117-0.26-0.26V61.8c-0.021-0.012-0.04-0.026-0.058-0.044l-0.059-0.058H34.22
				c-0.069,0-0.134-0.027-0.183-0.076l-0.135-0.135c-0.101-0.101-0.101-0.266,0-0.368c0.048-0.049,0.113-0.076,0.183-0.076
				c0,0,0,0,0.001,0c0.069,0,0.134,0.026,0.183,0.075l0.059,0.059h0.027c0.069,0,0.136,0.027,0.184,0.075l0.059,0.059h0.027
				c0.143,0,0.26,0.117,0.26,0.26v0.404C34.884,62.12,34.768,62.237,34.624,62.237z M34.092,61.296l0.121,0.148l0.136,0.004
				l0.132,0.131h0.125l0.018,0.408c0.006,0,0.01-0.005,0.01-0.011v-0.404l-0.14-0.011l-0.132-0.132l-0.138-0.003L34.092,61.296z"/>
		</g>
	</g>
	<g>
		<g>
			<path class="st0" d="M34.624,62.112h-0.539c-0.074,0-0.135-0.06-0.135-0.135s0.061-0.135,0.135-0.135h0.539
				c0.074,0,0.135,0.06,0.135,0.135S34.699,62.112,34.624,62.112z"/>
			<path class="st0" d="M34.624,62.237h-0.539c-0.143,0-0.259-0.117-0.259-0.26s0.116-0.259,0.259-0.259h0.539
				c0.143,0,0.26,0.116,0.26,0.259S34.768,62.237,34.624,62.237z"/>
		</g>
	</g>
	<g>
		<g>
			<path class="st0" d="M101.332,62.112c-0.075,0-0.135-0.06-0.135-0.135v-0.213l-0.19-0.191h-0.079
				c-0.036,0-0.07-0.014-0.095-0.039l-0.135-0.134c-0.053-0.053-0.053-0.138-0.001-0.19c0.053-0.054,0.138-0.053,0.19-0.001
				l0.096,0.095h0.079c0.036,0,0.07,0.014,0.095,0.039l0.269,0.27c0.025,0.025,0.039,0.059,0.039,0.095v0.269
				C101.467,62.051,101.407,62.112,101.332,62.112z"/>
			<path class="st0" d="M101.333,62.237c-0.143,0-0.26-0.117-0.26-0.26v-0.162l-0.117-0.117h-0.027
				c-0.068,0-0.134-0.027-0.183-0.076l-0.135-0.135c-0.101-0.101-0.101-0.266-0.001-0.368c0.049-0.049,0.114-0.076,0.183-0.076
				h0.001c0.069,0,0.134,0.026,0.183,0.075l0.058,0.059h0.027c0.07,0,0.135,0.027,0.184,0.075l0.27,0.272
				c0.048,0.048,0.075,0.114,0.075,0.182v0.269C101.592,62.12,101.476,62.237,101.333,62.237z M100.799,61.296l0.122,0.148
				l0.137,0.004l0.263,0.263l0.011,0.276c0.006,0,0.01-0.005,0.01-0.011v-0.269l-0.273-0.278l-0.137-0.002L100.799,61.296z"/>
		</g>
	</g>
	<g>
		<g>
			<path class="st0" d="M101.332,62.112h-0.539c-0.075,0-0.135-0.06-0.135-0.135s0.06-0.135,0.135-0.135h0.539
				c0.075,0,0.135,0.06,0.135,0.135S101.407,62.112,101.332,62.112z"/>
			<path class="st0" d="M101.333,62.237h-0.539c-0.143,0-0.26-0.117-0.26-0.26s0.117-0.259,0.26-0.259h0.539
				c0.143,0,0.259,0.116,0.259,0.259S101.476,62.237,101.333,62.237z"/>
		</g>
	</g>
	<g>
		<g>
			<path class="st0" d="M47.562,62.381c-0.074,0-0.135-0.06-0.135-0.135v-0.27c0-0.075,0.061-0.135,0.135-0.135
				s0.135,0.06,0.135,0.135v0.27C47.697,62.321,47.636,62.381,47.562,62.381z"/>
			<path class="st0" d="M47.562,62.506c-0.143,0-0.26-0.116-0.26-0.259v-0.27c0-0.143,0.116-0.259,0.26-0.259s0.26,0.116,0.26,0.259
				v0.27C47.821,62.39,47.705,62.506,47.562,62.506z"/>
		</g>
	</g>
	<g>
		<g>
			<path class="st0" d="M100.793,62.381c-0.075,0-0.135-0.06-0.135-0.135v-0.27c0-0.075,0.06-0.135,0.135-0.135
				s0.135,0.06,0.135,0.135v0.27C100.928,62.321,100.868,62.381,100.793,62.381z"/>
			<path class="st0" d="M100.794,62.506c-0.143,0-0.26-0.116-0.26-0.259v-0.27c0-0.143,0.117-0.259,0.26-0.259
				c0.143,0,0.259,0.116,0.259,0.259v0.27C101.053,62.39,100.937,62.506,100.794,62.506z"/>
		</g>
	</g>
	<g>
		<g>
			<path class="st0" d="M114.135,62.381h-0.809c-0.075,0-0.135-0.06-0.135-0.135s0.06-0.135,0.135-0.135h0.809
				c0.075,0,0.135,0.06,0.135,0.135S114.21,62.381,114.135,62.381z"/>
			<path class="st0" d="M114.135,62.506h-0.808c-0.143,0-0.26-0.116-0.26-0.259s0.117-0.259,0.26-0.259h0.808
				c0.143,0,0.26,0.116,0.26,0.259S114.278,62.506,114.135,62.506z"/>
		</g>
	</g>
	<g>
		<g>
			<path class="st0" d="M101.332,62.381h-0.539c-0.075,0-0.135-0.06-0.135-0.135s0.06-0.135,0.135-0.135h0.539
				c0.075,0,0.135,0.06,0.135,0.135S101.407,62.381,101.332,62.381z"/>
			<path class="st0" d="M101.333,62.506h-0.539c-0.143,0-0.26-0.116-0.26-0.259s0.117-0.259,0.26-0.259h0.539
				c0.143,0,0.259,0.116,0.259,0.259S101.476,62.506,101.333,62.506z"/>
		</g>
	</g>
	<g>
		<g>
			<path class="st0" d="M114.135,62.381c-0.075,0-0.135-0.06-0.135-0.135v-0.27c0-0.075,0.06-0.135,0.135-0.135
				s0.135,0.06,0.135,0.135v0.27C114.27,62.321,114.21,62.381,114.135,62.381z"/>
			<path class="st0" d="M114.135,62.506c-0.143,0-0.259-0.116-0.259-0.259v-0.27c0-0.143,0.116-0.259,0.259-0.259
				c0.143,0,0.26,0.116,0.26,0.259v0.27C114.395,62.39,114.278,62.506,114.135,62.506z"/>
		</g>
	</g>
	<g>
		<g>
			<path class="st0" d="M122.356,82.596c-0.075,0-0.135-0.06-0.135-0.135V61.977c0-0.075,0.06-0.135,0.135-0.135
				s0.135,0.06,0.135,0.135v20.484C122.491,82.536,122.43,82.596,122.356,82.596z"/>
			<path class="st0" d="M122.356,82.721c-0.143,0-0.259-0.116-0.259-0.259V61.976c0-0.143,0.116-0.259,0.259-0.259
				c0.143,0,0.259,0.116,0.259,0.259v20.485C122.615,82.605,122.499,82.721,122.356,82.721z M122.365,61.976l-0.019,20.485
				l0.01,0.01c0.007,0,0.01-0.005,0.01-0.01V61.976z"/>
		</g>
	</g>
	<g>
		<g>
			<path class="st0" d="M122.356,82.596H25.865c-0.074,0-0.135-0.06-0.135-0.135s0.061-0.135,0.135-0.135h96.491
				c0.075,0,0.135,0.06,0.135,0.135S122.43,82.596,122.356,82.596z"/>
			<path class="st0" d="M122.356,82.721H25.864c-0.143,0-0.26-0.116-0.26-0.259s0.116-0.26,0.26-0.26h96.491
				c0.143,0,0.259,0.117,0.259,0.26S122.499,82.721,122.356,82.721z M25.864,82.451l96.491,0.02c0.007,0,0.01-0.005,0.01-0.01
				L25.864,82.451z"/>
		</g>
	</g>
	<g>
		<g>
			<path class="st0" d="M25.865,82.596c-0.074,0-0.135-0.06-0.135-0.135V61.977c0-0.075,0.061-0.135,0.135-0.135
				s0.135,0.06,0.135,0.135v20.484C25.999,82.536,25.939,82.596,25.865,82.596z"/>
			<path class="st0" d="M25.864,82.721c-0.143,0-0.26-0.116-0.26-0.259V61.976c0-0.143,0.116-0.259,0.26-0.259
				s0.26,0.116,0.26,0.259v20.485C26.124,82.605,26.008,82.721,25.864,82.721z M25.875,61.976l-0.02,20.485l0.01,0.01
				c0.005,0,0.01-0.005,0.01-0.01V61.976z"/>
		</g>
	</g>
	<g>
		<g>
			<path class="st0" d="M34.085,62.381c-0.074,0-0.135-0.06-0.135-0.135v-0.27c0-0.075,0.061-0.135,0.135-0.135
				s0.135,0.06,0.135,0.135v0.27C34.22,62.321,34.16,62.381,34.085,62.381z"/>
			<path class="st0" d="M34.085,62.506c-0.143,0-0.259-0.116-0.259-0.259v-0.27c0-0.143,0.116-0.259,0.259-0.259
				c0.143,0,0.26,0.116,0.26,0.259v0.27C34.345,62.39,34.228,62.506,34.085,62.506z"/>
		</g>
	</g>
	<g>
		<g>
			<path class="st0" d="M35.029,62.381h-0.943c-0.074,0-0.135-0.06-0.135-0.135s0.061-0.135,0.135-0.135h0.943
				c0.074,0,0.135,0.06,0.135,0.135S35.103,62.381,35.029,62.381z"/>
			<path class="st0" d="M35.029,62.506h-0.944c-0.143,0-0.259-0.116-0.259-0.259s0.116-0.259,0.259-0.259h0.944
				c0.143,0,0.26,0.116,0.26,0.259S35.172,62.506,35.029,62.506z"/>
		</g>
	</g>
	<g>
		<g>
			<path class="st0" d="M47.562,62.381h-0.674c-0.074,0-0.135-0.06-0.135-0.135s0.061-0.135,0.135-0.135h0.674
				c0.074,0,0.135,0.06,0.135,0.135S47.636,62.381,47.562,62.381z"/>
			<path class="st0" d="M47.562,62.506h-0.674c-0.143,0-0.26-0.116-0.26-0.259s0.116-0.259,0.26-0.259h0.674
				c0.143,0,0.26,0.116,0.26,0.259S47.705,62.506,47.562,62.506z"/>
		</g>
	</g>
	<g>
		<g>
			<path class="st0" d="M113.596,62.381c-0.075,0-0.135-0.06-0.135-0.135v-0.27c0-0.075,0.06-0.135,0.135-0.135
				s0.135,0.06,0.135,0.135v0.27C113.731,62.321,113.67,62.381,113.596,62.381z"/>
			<path class="st0" d="M113.596,62.506c-0.143,0-0.26-0.116-0.26-0.259v-0.27c0-0.143,0.117-0.259,0.26-0.259
				c0.143,0,0.259,0.116,0.259,0.259v0.27C113.855,62.39,113.739,62.506,113.596,62.506z"/>
		</g>
	</g>
	<g>
		<g>
			<path class="st0" d="M25.865,82.596h-0.539c-0.074,0-0.135-0.06-0.135-0.135s0.061-0.135,0.135-0.135h0.539
				c0.074,0,0.135,0.06,0.135,0.135S25.939,82.596,25.865,82.596z"/>
			<path class="st0" d="M25.864,82.721h-0.539c-0.143,0-0.259-0.116-0.259-0.259s0.116-0.26,0.259-0.26h0.539
				c0.143,0,0.26,0.117,0.26,0.26S26.008,82.721,25.864,82.721z"/>
		</g>
	</g>
	<g>
		<g>
			<path class="st0" d="M25.326,82.596c-0.074,0-0.135-0.06-0.135-0.135V61.977c0-0.075,0.061-0.135,0.135-0.135
				s0.135,0.06,0.135,0.135v20.484C25.46,82.536,25.4,82.596,25.326,82.596z"/>
			<path class="st0" d="M25.325,82.721c-0.143,0-0.259-0.116-0.259-0.259V61.976c0-0.143,0.116-0.259,0.259-0.259
				c0.143,0,0.26,0.116,0.26,0.259v20.485C25.585,82.605,25.469,82.721,25.325,82.721z M25.336,61.976l-0.02,20.485l0.01,0.01
				c0.005,0,0.01-0.005,0.01-0.01V61.976z"/>
		</g>
	</g>
	<g>
		<g>
			<path class="st0" d="M122.895,82.596c-0.075,0-0.135-0.06-0.135-0.135V61.977c0-0.075,0.06-0.135,0.135-0.135
				s0.135,0.06,0.135,0.135v20.484C123.03,82.536,122.969,82.596,122.895,82.596z"/>
			<path class="st0" d="M122.895,82.721c-0.143,0-0.259-0.116-0.259-0.259V61.976c0-0.143,0.116-0.259,0.259-0.259
				c0.143,0,0.259,0.116,0.259,0.259v20.485C123.154,82.605,123.038,82.721,122.895,82.721z M122.905,61.976l-0.019,20.485
				l0.01,0.01c0.007,0,0.01-0.005,0.01-0.01V61.976z"/>
		</g>
	</g>
	<g>
		<g>
			<path class="st0" d="M122.895,82.596h-0.539c-0.075,0-0.135-0.06-0.135-0.135s0.06-0.135,0.135-0.135h0.539
				c0.075,0,0.135,0.06,0.135,0.135S122.969,82.596,122.895,82.596z"/>
			<path class="st0" d="M122.895,82.721h-0.539c-0.143,0-0.259-0.116-0.259-0.259s0.116-0.26,0.259-0.26h0.539
				c0.143,0,0.259,0.117,0.259,0.26S123.038,82.721,122.895,82.721z"/>
		</g>
	</g>
	<g>
		<g>
			<path class="st0" d="M34.624,62.381c-0.074,0-0.135-0.06-0.135-0.135v-0.27c0-0.075,0.061-0.135,0.135-0.135
				s0.135,0.06,0.135,0.135v0.27C34.759,62.321,34.699,62.381,34.624,62.381z"/>
			<path class="st0" d="M34.624,62.506c-0.143,0-0.26-0.116-0.26-0.259v-0.27c0-0.143,0.116-0.259,0.26-0.259s0.26,0.116,0.26,0.259
				v0.27C34.884,62.39,34.768,62.506,34.624,62.506z"/>
		</g>
	</g>
	<g>
		<g>
			<path class="st0" d="M122.356,83.27c-0.075,0-0.135-0.06-0.135-0.135V83c0-0.075,0.06-0.135,0.135-0.135h0.213l0.191-0.191
				v-0.213c0-0.075,0.06-0.135,0.135-0.135h0.135c0.075,0,0.135,0.06,0.135,0.135s-0.06,0.135-0.135,0.135v0.134
				c0,0.036-0.014,0.07-0.039,0.095l-0.27,0.27c-0.025,0.025-0.06,0.039-0.095,0.039h-0.134
				C122.491,83.21,122.43,83.27,122.356,83.27z"/>
			<path class="st0" d="M122.356,83.394c-0.143,0-0.259-0.116-0.259-0.259V83c0-0.143,0.116-0.26,0.259-0.26h0.162l0.118-0.118
				v-0.161c0-0.143,0.116-0.26,0.259-0.26h0.135c0.143,0,0.26,0.117,0.26,0.26c0,0.097-0.055,0.183-0.135,0.227v0.042
				c0,0.069-0.027,0.135-0.075,0.184l-0.271,0.269c-0.049,0.049-0.114,0.076-0.183,0.076h-0.042
				C122.539,83.34,122.453,83.394,122.356,83.394z M122.356,82.99l-0.01,0.145l0.01,0.01c0.007,0,0.01-0.005,0.01-0.01V83.01h0.259
				l0.278-0.273l0.002-0.266h0.125l-0.135-0.02l-0.01,0.275l-0.264,0.264H122.356z"/>
		</g>
	</g>
	<g>
		<g>
			<path class="st0" d="M122.356,83.27c-0.075,0-0.135-0.06-0.135-0.135v-0.674c0-0.075,0.06-0.135,0.135-0.135
				s0.135,0.06,0.135,0.135v0.674C122.491,83.21,122.43,83.27,122.356,83.27z"/>
			<path class="st0" d="M122.356,83.394c-0.143,0-0.259-0.116-0.259-0.259v-0.674c0-0.143,0.116-0.26,0.259-0.26
				c0.143,0,0.259,0.117,0.259,0.26v0.674C122.615,83.278,122.499,83.394,122.356,83.394z"/>
		</g>
	</g>
	<g>
		<g>
			<path class="st0" d="M122.356,83.27H25.865c-0.074,0-0.135-0.06-0.135-0.135S25.79,83,25.865,83h96.491
				c0.075,0,0.135,0.06,0.135,0.135S122.43,83.27,122.356,83.27z"/>
			<path class="st0" d="M122.356,83.394H25.864c-0.143,0-0.26-0.116-0.26-0.259c0-0.143,0.116-0.259,0.26-0.259h96.491
				c0.143,0,0.259,0.116,0.259,0.259C122.615,83.278,122.499,83.394,122.356,83.394z M25.864,83.125l96.491,0.019
				c0.007,0,0.01-0.005,0.01-0.01L25.864,83.125z"/>
		</g>
	</g>
	<g>
		<g>
			<path class="st0" d="M25.865,83.27c-0.074,0-0.135-0.06-0.135-0.135v-0.674c0-0.075,0.061-0.135,0.135-0.135
				s0.135,0.06,0.135,0.135v0.674C25.999,83.21,25.939,83.27,25.865,83.27z"/>
			<path class="st0" d="M25.864,83.394c-0.143,0-0.26-0.116-0.26-0.259v-0.674c0-0.143,0.116-0.26,0.26-0.26s0.26,0.117,0.26,0.26
				v0.674C26.124,83.278,26.008,83.394,25.864,83.394z"/>
		</g>
	</g>
	<g>
		<g>
			<path class="st0" d="M25.865,83.135c-0.035,0-0.069-0.013-0.095-0.039L25.674,83H25.46c-0.074,0-0.135-0.06-0.135-0.135l0,0
				c-0.074,0-0.135-0.06-0.135-0.135v-0.269c0-0.075,0.061-0.135,0.135-0.135s0.135,0.06,0.135,0.135v0.134
				c0.074,0,0.135,0.06,0.135,0.135h0.135c0.036,0,0.07,0.014,0.095,0.039l0.135,0.135c0.053,0.053,0.052,0.138,0,0.191
				C25.933,83.122,25.899,83.135,25.865,83.135z"/>
			<path class="st0" d="M25.864,83.26c-0.069,0-0.134-0.027-0.183-0.076l-0.058-0.058H25.46c-0.107,0-0.198-0.064-0.238-0.157
				c-0.092-0.04-0.156-0.132-0.156-0.238v-0.269c0-0.143,0.116-0.26,0.259-0.26c0.143,0,0.26,0.117,0.26,0.26v0.041
				c0.043,0.023,0.079,0.059,0.103,0.103h0.041c0.07,0,0.135,0.027,0.184,0.075l0.135,0.136c0.049,0.049,0.076,0.114,0.075,0.183
				c0,0.069-0.027,0.134-0.076,0.183C25.998,83.232,25.933,83.26,25.864,83.26z M25.336,82.461l-0.02,0.269h0.125l0.01,0.135
				l0.275,0.011l0.139,0.135c0.002,0,0.004-0.001,0.007-0.004l-0.135-0.149l-0.266-0.002V82.73h-0.125L25.336,82.461z"/>
		</g>
	</g>
	<g>
		<g>
			<path class="st0" d="M125.051,69.254h-2.156c-0.075,0-0.135-0.06-0.135-0.135s0.06-0.135,0.135-0.135h2.156
				c0.075,0,0.135,0.06,0.135,0.135S125.126,69.254,125.051,69.254z"/>
			<path class="st0" d="M125.051,69.379h-2.156c-0.143,0-0.259-0.117-0.259-0.26c0-0.143,0.116-0.259,0.259-0.259h2.156
				c0.143,0,0.259,0.116,0.259,0.259C125.31,69.262,125.194,69.379,125.051,69.379z M122.895,69.109l2.156,0.02
				c0.006,0,0.01-0.005,0.01-0.011L122.895,69.109z"/>
		</g>
	</g>
	<g>
		<g>
			<path class="st0" d="M125.051,79.901h-2.156c-0.075,0-0.135-0.06-0.135-0.135s0.06-0.135,0.135-0.135h2.156
				c0.075,0,0.135,0.06,0.135,0.135S125.126,79.901,125.051,79.901z"/>
			<path class="st0" d="M125.051,80.025h-2.156c-0.143,0-0.259-0.116-0.259-0.259c0-0.143,0.116-0.26,0.259-0.26h2.156
				c0.143,0,0.259,0.117,0.259,0.26C125.31,79.909,125.194,80.025,125.051,80.025z M122.895,79.755l2.156,0.02
				c0.005,0,0.01-0.005,0.01-0.01L122.895,79.755z"/>
		</g>
	</g>
	<g>
		<g>
			<path class="st0" d="M125.051,79.901c-0.075,0-0.135-0.06-0.135-0.135V69.119c0-0.075,0.06-0.135,0.135-0.135
				s0.135,0.06,0.135,0.135v10.646C125.186,79.84,125.126,79.901,125.051,79.901z"/>
			<path class="st0" d="M125.051,80.025c-0.143,0-0.26-0.116-0.26-0.259V69.119c0-0.143,0.117-0.259,0.26-0.259
				c0.143,0,0.259,0.116,0.259,0.259v10.647C125.31,79.909,125.194,80.025,125.051,80.025z M125.061,69.119l-0.02,10.647l0.011,0.01
				c0.005,0,0.01-0.005,0.01-0.01V69.119z"/>
		</g>
	</g>
	<g>
		<g>
			<path class="st0" d="M25.326,77.879h-5.39c-0.074,0-0.135-0.06-0.135-0.135s0.061-0.135,0.135-0.135h5.39
				c0.074,0,0.135,0.06,0.135,0.135S25.4,77.879,25.326,77.879z"/>
			<path class="st0" d="M25.325,78.004h-5.39c-0.143,0-0.26-0.116-0.26-0.259c0-0.143,0.116-0.26,0.26-0.26h5.39
				c0.143,0,0.26,0.117,0.26,0.26C25.585,77.888,25.469,78.004,25.325,78.004z M19.935,77.734l5.39,0.02
				c0.005,0,0.01-0.005,0.01-0.01L19.935,77.734z"/>
		</g>
	</g>
	<g>
		<g>
			<path class="st0" d="M25.326,66.828h-5.39c-0.074,0-0.135-0.06-0.135-0.135s0.061-0.135,0.135-0.135h5.39
				c0.074,0,0.135,0.06,0.135,0.135S25.4,66.828,25.326,66.828z"/>
			<path class="st0" d="M25.325,66.953h-5.39c-0.143,0-0.26-0.116-0.26-0.259c0-0.143,0.116-0.259,0.26-0.259h5.39
				c0.143,0,0.26,0.116,0.26,0.259C25.585,66.837,25.469,66.953,25.325,66.953z M19.935,66.684l5.39,0.019
				c0.005,0,0.01-0.005,0.01-0.01L19.935,66.684z"/>
		</g>
	</g>
	<g>
		<g>
			<path class="st0" d="M45.406,84.078c-0.074,0-0.135-0.06-0.135-0.135v-0.808c0-0.075,0.061-0.135,0.135-0.135
				s0.135,0.06,0.135,0.135v0.808C45.54,84.018,45.48,84.078,45.406,84.078z"/>
			<path class="st0" d="M45.406,84.202c-0.143,0-0.26-0.116-0.26-0.259v-0.808c0-0.143,0.116-0.259,0.26-0.259
				c0.143,0,0.259,0.116,0.259,0.259v0.808C45.665,84.086,45.549,84.202,45.406,84.202z"/>
		</g>
	</g>
	<g>
		<g>
			<path class="st0" d="M45.406,84.078h-3.1c-0.074,0-0.135-0.06-0.135-0.135s0.061-0.135,0.135-0.135h3.1
				c0.074,0,0.135,0.06,0.135,0.135S45.48,84.078,45.406,84.078z"/>
			<path class="st0" d="M45.406,84.202h-3.1c-0.143,0-0.259-0.116-0.259-0.259c0-0.143,0.116-0.259,0.259-0.259h3.1
				c0.143,0,0.259,0.116,0.259,0.259C45.665,84.086,45.549,84.202,45.406,84.202z M42.306,83.933l3.1,0.02
				c0.005,0,0.01-0.003,0.01-0.01L42.306,83.933z"/>
		</g>
	</g>
	<g>
		<g>
			<path class="st0" d="M42.306,84.078c-0.074,0-0.135-0.06-0.135-0.135v-0.808c0-0.075,0.061-0.135,0.135-0.135
				s0.135,0.06,0.135,0.135v0.808C42.441,84.018,42.38,84.078,42.306,84.078z"/>
			<path class="st0" d="M42.306,84.202c-0.143,0-0.259-0.116-0.259-0.259v-0.808c0-0.143,0.116-0.259,0.259-0.259
				c0.143,0,0.26,0.116,0.26,0.259v0.808C42.566,84.086,42.449,84.202,42.306,84.202z"/>
		</g>
	</g>
	<g>
		<g>
			<path class="st0" d="M103.354,84.078c-0.075,0-0.135-0.06-0.135-0.135v-0.808c0-0.075,0.06-0.135,0.135-0.135
				s0.135,0.06,0.135,0.135v0.808C103.489,84.018,103.429,84.078,103.354,84.078z"/>
			<path class="st0" d="M103.354,84.202c-0.143,0-0.26-0.116-0.26-0.259v-0.808c0-0.143,0.117-0.259,0.26-0.259
				c0.143,0,0.259,0.116,0.259,0.259v0.808C103.614,84.086,103.498,84.202,103.354,84.202z"/>
		</g>
	</g>
	<g>
		<g>
			<path class="st0" d="M103.354,84.078H45.406c-0.074,0-0.135-0.06-0.135-0.135s0.061-0.135,0.135-0.135h57.949
				c0.075,0,0.135,0.06,0.135,0.135S103.429,84.078,103.354,84.078z"/>
			<path class="st0" d="M103.354,84.202H45.406c-0.143,0-0.26-0.116-0.26-0.259c0-0.143,0.116-0.259,0.26-0.259h57.949
				c0.143,0,0.259,0.116,0.259,0.259C103.614,84.086,103.498,84.202,103.354,84.202z M45.406,83.933l57.949,0.02
				c0.005,0,0.01-0.003,0.01-0.01L45.406,83.933z"/>
		</g>
	</g>
	<g>
		<g>
			<path class="st0" d="M106.453,84.078c-0.075,0-0.135-0.06-0.135-0.135v-0.808c0-0.075,0.06-0.135,0.135-0.135
				c0.075,0,0.135,0.06,0.135,0.135v0.808C106.588,84.018,106.528,84.078,106.453,84.078z"/>
			<path class="st0" d="M106.453,84.202c-0.143,0-0.259-0.116-0.259-0.259v-0.808c0-0.143,0.116-0.259,0.259-0.259
				c0.143,0,0.259,0.116,0.259,0.259v0.808C106.713,84.086,106.597,84.202,106.453,84.202z"/>
		</g>
	</g>
	<g>
		<g>
			<path class="st0" d="M106.453,84.078h-3.099c-0.075,0-0.135-0.06-0.135-0.135s0.06-0.135,0.135-0.135h3.099
				c0.075,0,0.135,0.06,0.135,0.135S106.528,84.078,106.453,84.078z"/>
			<path class="st0" d="M106.453,84.202h-3.099c-0.143,0-0.26-0.116-0.26-0.259c0-0.143,0.117-0.259,0.26-0.259h3.099
				c0.143,0,0.259,0.116,0.259,0.259C106.713,84.086,106.597,84.202,106.453,84.202z M103.354,83.933l3.099,0.02
				c0.005,0,0.01-0.003,0.01-0.01L103.354,83.933z"/>
		</g>
	</g>
	<g>
		<g>
			<path class="st0" d="M16.97,79.766H11.58c-0.074,0-0.135-0.06-0.135-0.135s0.061-0.135,0.135-0.135h5.391
				c0.074,0,0.135,0.06,0.135,0.135S17.045,79.766,16.97,79.766z"/>
			<path class="st0" d="M16.97,79.891h-5.391c-0.143,0-0.259-0.117-0.259-0.26c0-0.143,0.116-0.259,0.259-0.259h5.391
				c0.143,0,0.26,0.116,0.26,0.259C17.23,79.774,17.113,79.891,16.97,79.891z M11.579,79.621l5.391,0.02
				c0.006,0,0.01-0.005,0.01-0.011L11.579,79.621z"/>
		</g>
	</g>
	<g>
		<g>
			<path class="st0" d="M25.326,64.942H11.58c-0.074,0-0.135-0.06-0.135-0.135s0.061-0.135,0.135-0.135h13.746
				c0.074,0,0.135,0.06,0.135,0.135S25.4,64.942,25.326,64.942z"/>
			<path class="st0" d="M25.325,65.067H11.579c-0.143,0-0.259-0.117-0.259-0.26c0-0.143,0.116-0.259,0.259-0.259h13.746
				c0.143,0,0.26,0.116,0.26,0.259C25.585,64.95,25.469,65.067,25.325,65.067z M11.579,64.797l13.746,0.02
				c0.006,0,0.01-0.005,0.01-0.011L11.579,64.797z"/>
		</g>
	</g>
	<g>
		<g>
			<path class="st0" d="M25.326,79.766h-5.39c-0.074,0-0.135-0.06-0.135-0.135s0.061-0.135,0.135-0.135h5.39
				c0.074,0,0.135,0.06,0.135,0.135S25.4,79.766,25.326,79.766z"/>
			<path class="st0" d="M25.325,79.891h-5.39c-0.143,0-0.26-0.117-0.26-0.26c0-0.143,0.116-0.259,0.26-0.259h5.39
				c0.143,0,0.26,0.116,0.26,0.259C25.585,79.774,25.469,79.891,25.325,79.891z M19.935,79.621l5.39,0.02
				c0.006,0,0.01-0.005,0.01-0.011L19.935,79.621z"/>
		</g>
	</g>
	<g>
		<g>
			<path class="st0" d="M19.935,79.766H8.211c-0.074,0-0.135-0.06-0.135-0.135s0.061-0.135,0.135-0.135h11.725
				c0.074,0,0.135,0.06,0.135,0.135S20.01,79.766,19.935,79.766z"/>
			<path class="st0" d="M19.935,79.891H8.21c-0.143,0-0.26-0.117-0.26-0.26c0-0.143,0.116-0.259,0.26-0.259h11.725
				c0.143,0,0.26,0.116,0.26,0.259C20.195,79.774,20.078,79.891,19.935,79.891z M8.21,79.621l11.725,0.02
				c0.006,0,0.01-0.005,0.01-0.011L8.21,79.621z"/>
		</g>
	</g>
	<g>
		<g>
			<path class="st0" d="M8.211,79.766c-0.074,0-0.135-0.06-0.135-0.135V64.807c0-0.075,0.061-0.135,0.135-0.135
				c0.074,0,0.135,0.06,0.135,0.135v14.824C8.345,79.706,8.285,79.766,8.211,79.766z"/>
			<path class="st0" d="M8.21,79.891c-0.143,0-0.26-0.117-0.26-0.26V64.806c0-0.143,0.116-0.259,0.26-0.259
				c0.143,0,0.26,0.116,0.26,0.259v14.824C8.47,79.774,8.354,79.891,8.21,79.891z M8.221,64.806L8.2,79.631l0.01,0.011
				c0.006,0,0.01-0.005,0.01-0.011V64.806z"/>
		</g>
	</g>
	<g>
		<g>
			<path class="st0" d="M19.935,64.942H8.211c-0.074,0-0.135-0.06-0.135-0.135s0.061-0.135,0.135-0.135h11.725
				c0.074,0,0.135,0.06,0.135,0.135S20.01,64.942,19.935,64.942z"/>
			<path class="st0" d="M19.935,65.067H8.21c-0.143,0-0.26-0.117-0.26-0.26c0-0.143,0.116-0.259,0.26-0.259h11.725
				c0.143,0,0.26,0.116,0.26,0.259C20.195,64.95,20.078,65.067,19.935,65.067z M8.21,64.797l11.725,0.02
				c0.006,0,0.01-0.005,0.01-0.011L8.21,64.797z"/>
		</g>
	</g>
	<g>
		<g>
			<path class="st0" d="M19.935,79.766c-0.074,0-0.135-0.06-0.135-0.135V64.807c0-0.075,0.061-0.135,0.135-0.135
				s0.135,0.06,0.135,0.135v14.824C20.07,79.706,20.01,79.766,19.935,79.766z"/>
			<path class="st0" d="M19.935,79.891c-0.143,0-0.26-0.117-0.26-0.26V64.806c0-0.143,0.116-0.259,0.26-0.259s0.26,0.116,0.26,0.259
				v14.824C20.195,79.774,20.078,79.891,19.935,79.891z M19.945,64.806l-0.02,14.824l0.01,0.011c0.006,0,0.01-0.005,0.01-0.011
				V64.806z"/>
		</g>
	</g>
	<g>
		<g>
			<path class="st0" d="M19.935,80.035H16.97c-0.074,0-0.135-0.06-0.135-0.135s0.061-0.135,0.135-0.135h2.965
				c0.074,0,0.135,0.06,0.135,0.135S20.01,80.035,19.935,80.035z"/>
			<path class="st0" d="M19.935,80.16H16.97c-0.143,0-0.26-0.116-0.26-0.259c0-0.143,0.116-0.26,0.26-0.26h2.965
				c0.143,0,0.26,0.117,0.26,0.26C20.195,80.044,20.078,80.16,19.935,80.16z M16.97,79.89l2.965,0.02c0.005,0,0.01-0.005,0.01-0.01
				L16.97,79.89z"/>
		</g>
	</g>
	<g>
		<g>
			<path class="st0" d="M16.97,80.035c-0.074,0-0.135-0.06-0.135-0.135v-0.269c0-0.075,0.061-0.135,0.135-0.135
				c0.074,0,0.135,0.06,0.135,0.135V79.9C17.105,79.975,17.045,80.035,16.97,80.035z"/>
			<path class="st0" d="M16.97,80.16c-0.143,0-0.26-0.116-0.26-0.259v-0.27c0-0.143,0.116-0.259,0.26-0.259s0.26,0.116,0.26,0.259
				v0.27C17.23,80.044,17.113,80.16,16.97,80.16z"/>
		</g>
	</g>
	<g>
		<g>
			<path class="st0" d="M19.935,80.035c-0.074,0-0.135-0.06-0.135-0.135v-0.269c0-0.075,0.061-0.135,0.135-0.135
				s0.135,0.06,0.135,0.135V79.9C20.07,79.975,20.01,80.035,19.935,80.035z"/>
			<path class="st0" d="M19.935,80.16c-0.143,0-0.26-0.116-0.26-0.259v-0.27c0-0.143,0.116-0.259,0.26-0.259s0.26,0.116,0.26,0.259
				v0.27C20.195,80.044,20.078,80.16,19.935,80.16z"/>
		</g>
	</g>
	<g>
		<g>
			<path class="st0" d="M19.935,80.979h-2.156c-0.074,0-0.135-0.06-0.135-0.135s0.061-0.135,0.135-0.135h2.156
				c0.074,0,0.135,0.06,0.135,0.135S20.01,80.979,19.935,80.979z"/>
			<path class="st0" d="M19.935,81.103h-2.156c-0.143,0-0.26-0.116-0.26-0.259c0-0.143,0.116-0.26,0.26-0.26h2.156
				c0.143,0,0.26,0.117,0.26,0.26C20.195,80.987,20.078,81.103,19.935,81.103z M17.779,80.833l2.156,0.02
				c0.005,0,0.01-0.005,0.01-0.01L17.779,80.833z"/>
		</g>
	</g>
	<g>
		<g>
			<path class="st0" d="M17.779,80.979h-0.27c-0.036,0-0.07-0.014-0.095-0.039L16.875,80.4c-0.025-0.025-0.04-0.06-0.04-0.095V79.9
				c0-0.075,0.061-0.135,0.135-0.135c0.074,0,0.135,0.06,0.135,0.135v0.349l0.46,0.46h0.214c0.074,0,0.135,0.06,0.135,0.135
				S17.853,80.979,17.779,80.979z"/>
			<path class="st0" d="M17.779,81.103h-0.27c-0.068,0-0.133-0.026-0.182-0.074l-0.541-0.541c-0.049-0.048-0.077-0.115-0.077-0.183
				v-0.405c0-0.143,0.116-0.26,0.26-0.26s0.26,0.117,0.26,0.26v0.296l0.387,0.387h0.162c0.143,0,0.26,0.117,0.26,0.26
				C18.039,80.987,17.922,81.103,17.779,81.103z M16.98,79.901l-0.02,0.405l0.542,0.547l0.277,0.002c0.005,0,0.01-0.005,0.01-0.01
				l-0.275-0.011L16.98,80.3V79.901z"/>
		</g>
	</g>
	<g>
		<g>
			<path class="st0" d="M19.935,80.979c-0.074,0-0.135-0.06-0.135-0.135V79.9c0-0.075,0.061-0.135,0.135-0.135
				s0.135,0.06,0.135,0.135v0.944C20.07,80.918,20.01,80.979,19.935,80.979z"/>
			<path class="st0" d="M19.935,81.103c-0.143,0-0.26-0.116-0.26-0.259v-0.944c0-0.143,0.116-0.26,0.26-0.26s0.26,0.117,0.26,0.26
				v0.944C20.195,80.987,20.078,81.103,19.935,81.103z"/>
		</g>
	</g>
	<g>
		<g>
			<path class="st0" d="M11.58,81.518H0.26c-0.074,0-0.135-0.06-0.135-0.135c0-0.075,0.061-0.135,0.135-0.135h11.32
				c0.074,0,0.135,0.06,0.135,0.135C11.715,81.458,11.654,81.518,11.58,81.518z"/>
			<path class="st0" d="M11.579,81.643H0.26c-0.143,0-0.26-0.116-0.26-0.259c0-0.143,0.116-0.26,0.26-0.26h11.32
				c0.143,0,0.26,0.117,0.26,0.26C11.839,81.527,11.723,81.643,11.579,81.643z M0.26,81.373l11.32,0.02
				c0.005,0,0.01-0.005,0.01-0.01L0.26,81.373z"/>
		</g>
	</g>
	<g>
		<g>
			<path class="st0" d="M0.26,81.518c-0.074,0-0.135-0.06-0.135-0.135V63.19c0-0.075,0.061-0.135,0.135-0.135
				s0.135,0.06,0.135,0.135v18.193C0.395,81.458,0.334,81.518,0.26,81.518z"/>
			<path class="st0" d="M0.26,81.643c-0.143,0-0.26-0.116-0.26-0.259V63.189c0-0.143,0.116-0.259,0.26-0.259
				c0.143,0,0.259,0.116,0.259,0.259v18.194C0.519,81.527,0.403,81.643,0.26,81.643z M0.27,63.189L0.25,81.383l0.01,0.01
				c0.005,0,0.01-0.005,0.01-0.01V63.189z"/>
		</g>
	</g>
	<g>
		<g>
			<path class="st0" d="M11.58,63.324H0.26c-0.074,0-0.135-0.06-0.135-0.135s0.061-0.135,0.135-0.135h11.32
				c0.074,0,0.135,0.06,0.135,0.135S11.654,63.324,11.58,63.324z"/>
			<path class="st0" d="M11.579,63.449H0.26c-0.143,0-0.26-0.117-0.26-0.26s0.116-0.259,0.26-0.259h11.32
				c0.143,0,0.26,0.116,0.26,0.259S11.723,63.449,11.579,63.449z M0.26,63.179l11.32,0.02c0.006,0,0.01-0.005,0.01-0.011
				L0.26,63.179z"/>
		</g>
	</g>
	<g>
		<g>
			<path class="st0" d="M11.58,81.518c-0.074,0-0.135-0.06-0.135-0.135v-1.752c0-0.075,0.061-0.135,0.135-0.135
				c0.074,0,0.135,0.06,0.135,0.135v1.752C11.715,81.458,11.654,81.518,11.58,81.518z"/>
			<path class="st0" d="M11.579,81.643c-0.143,0-0.259-0.116-0.259-0.259v-1.753c0-0.143,0.116-0.259,0.259-0.259
				c0.143,0,0.26,0.116,0.26,0.259v1.753C11.839,81.527,11.723,81.643,11.579,81.643z M11.59,79.631l-0.02,1.753l0.01,0.01
				c0.005,0,0.01-0.005,0.01-0.01V79.631z"/>
		</g>
	</g>
	<g>
		<g>
			<path class="st0" d="M11.58,64.942c-0.074,0-0.135-0.06-0.135-0.135V63.19c0-0.075,0.061-0.135,0.135-0.135
				c0.074,0,0.135,0.06,0.135,0.135v1.617C11.715,64.881,11.654,64.942,11.58,64.942z"/>
			<path class="st0" d="M11.579,65.067c-0.143,0-0.259-0.117-0.259-0.26v-1.617c0-0.143,0.116-0.259,0.259-0.259
				c0.143,0,0.26,0.116,0.26,0.259v1.617C11.839,64.95,11.723,65.067,11.579,65.067z M11.59,63.189l-0.02,1.617l0.01,0.011
				c0.006,0,0.01-0.005,0.01-0.011V63.189z"/>
		</g>
	</g>
	<g>
		<g>
			<path class="st0" d="M11.31,81.787c-0.074,0-0.135-0.06-0.135-0.135v-0.269c0-0.075,0.061-0.135,0.135-0.135
				c0.074,0,0.135,0.06,0.135,0.135v0.269C11.445,81.727,11.384,81.787,11.31,81.787z"/>
			<path class="st0" d="M11.31,81.912c-0.143,0-0.259-0.116-0.259-0.259v-0.269c0-0.143,0.116-0.26,0.259-0.26
				c0.143,0,0.26,0.117,0.26,0.26v0.269C11.57,81.796,11.453,81.912,11.31,81.912z"/>
		</g>
	</g>
	<g>
		<g>
			<path class="st0" d="M11.31,81.787H9.828c-0.074,0-0.135-0.06-0.135-0.135s0.061-0.135,0.135-0.135h1.482
				c0.074,0,0.135,0.06,0.135,0.135S11.384,81.787,11.31,81.787z"/>
			<path class="st0" d="M11.31,81.912H9.828c-0.143,0-0.26-0.116-0.26-0.259c0-0.143,0.116-0.26,0.26-0.26h1.482
				c0.143,0,0.26,0.117,0.26,0.26C11.57,81.796,11.453,81.912,11.31,81.912z M9.828,81.642l1.482,0.02c0.005,0,0.01-0.005,0.01-0.01
				L9.828,81.642z"/>
		</g>
	</g>
	<g>
		<g>
			<path class="st0" d="M9.828,81.787c-0.074,0-0.135-0.06-0.135-0.135v-0.269c0-0.075,0.061-0.135,0.135-0.135
				c0.074,0,0.135,0.06,0.135,0.135v0.269C9.963,81.727,9.902,81.787,9.828,81.787z"/>
			<path class="st0" d="M9.828,81.912c-0.143,0-0.26-0.116-0.26-0.259v-0.269c0-0.143,0.116-0.26,0.26-0.26
				c0.143,0,0.259,0.117,0.259,0.26v0.269C10.087,81.796,9.971,81.912,9.828,81.912z"/>
		</g>
	</g>
	<g>
		<g>
			<path class="st0" d="M9.828,81.787H6.459c-0.074,0-0.135-0.06-0.135-0.135s0.061-0.135,0.135-0.135h3.369
				c0.074,0,0.135,0.06,0.135,0.135S9.902,81.787,9.828,81.787z"/>
			<path class="st0" d="M9.828,81.912H6.459c-0.143,0-0.259-0.116-0.259-0.259c0-0.143,0.116-0.26,0.259-0.26h3.369
				c0.143,0,0.259,0.117,0.259,0.26C10.087,81.796,9.971,81.912,9.828,81.912z M6.459,81.642l3.369,0.02
				c0.005,0,0.01-0.005,0.01-0.01L6.459,81.642z"/>
		</g>
	</g>
	<g>
		<g>
			<path class="st0" d="M6.459,81.787c-0.074,0-0.135-0.06-0.135-0.135v-0.269c0-0.075,0.061-0.135,0.135-0.135
				c0.074,0,0.135,0.06,0.135,0.135v0.269C6.594,81.727,6.533,81.787,6.459,81.787z"/>
			<path class="st0" d="M6.459,81.912c-0.143,0-0.259-0.116-0.259-0.259v-0.269c0-0.143,0.116-0.26,0.259-0.26
				c0.143,0,0.26,0.117,0.26,0.26v0.269C6.718,81.796,6.602,81.912,6.459,81.912z"/>
		</g>
	</g>
	<g>
		<g>
			<path class="st0" d="M10.232,82.596H9.289c-0.074,0-0.135-0.06-0.135-0.135s0.061-0.135,0.135-0.135h0.943
				c0.074,0,0.135,0.06,0.135,0.135S10.306,82.596,10.232,82.596z"/>
			<path class="st0" d="M10.232,82.721H9.289c-0.143,0-0.26-0.116-0.26-0.259s0.116-0.26,0.26-0.26h0.944
				c0.143,0,0.259,0.117,0.259,0.26S10.375,82.721,10.232,82.721z"/>
		</g>
	</g>
	<g>
		<g>
			<path class="st0" d="M9.558,82.596h-0.27c-0.074,0-0.135-0.06-0.135-0.135s0.061-0.135,0.135-0.135h0.135
				c0-0.036,0.014-0.07,0.039-0.095l0.095-0.095v-0.213c0-0.036,0.014-0.07,0.039-0.095l0.095-0.095v-0.079
				c0-0.075,0.061-0.135,0.135-0.135c0.074,0,0.135,0.06,0.135,0.135v0.135c0,0.036-0.014,0.07-0.039,0.095l-0.095,0.095v0.213
				c0,0.036-0.014,0.07-0.039,0.095l-0.095,0.095v0.079C9.693,82.536,9.633,82.596,9.558,82.596z"/>
			<path class="st0" d="M9.559,82.721h-0.27c-0.143,0-0.26-0.116-0.26-0.259s0.116-0.26,0.26-0.26h0.042
				c0.012-0.021,0.026-0.042,0.044-0.059l0.058-0.058v-0.161c0-0.069,0.027-0.135,0.076-0.184l0.059-0.058v-0.027
				c0-0.143,0.116-0.26,0.26-0.26c0.143,0,0.259,0.117,0.259,0.26v0.135c0,0.069-0.027,0.135-0.076,0.184L9.953,82.03v0.162
				c0,0.067-0.027,0.135-0.075,0.183l-0.06,0.059v0.027C9.818,82.605,9.701,82.721,9.559,82.721z M9.289,82.451l0.27,0.02
				c0.005,0,0.01-0.005,0.01-0.01v-0.131L9.7,82.198l0.003-0.272l0.132-0.132l0.003-0.142l-0.02,0.131l-0.132,0.133l-0.003,0.271
				l-0.132,0.132v0.125L9.289,82.451z"/>
		</g>
	</g>
	<g>
		<g>
			<path class="st0" d="M10.636,82.596h-0.404c-0.074,0-0.135-0.06-0.135-0.135s0.061-0.135,0.135-0.135h0.348l0.095-0.095
				c0.025-0.025,0.059-0.039,0.095-0.039h0.135v-0.134c0-0.036,0.014-0.07,0.039-0.095l0.23-0.23v-0.079
				c0-0.075,0.061-0.135,0.135-0.135c0.074,0,0.135,0.06,0.135,0.135v0.135c0,0.036-0.014,0.07-0.039,0.095l-0.23,0.23v0.213
				c0,0.075-0.061,0.135-0.135,0.135h-0.214l-0.095,0.095C10.707,82.582,10.672,82.596,10.636,82.596z"/>
			<path class="st0" d="M10.636,82.721h-0.404c-0.143,0-0.26-0.116-0.26-0.259s0.116-0.26,0.26-0.26h0.297l0.058-0.058
				c0.049-0.049,0.114-0.076,0.184-0.076l0.01-0.01c0-0.069,0.027-0.135,0.076-0.184l0.194-0.193v-0.027
				c0-0.143,0.116-0.26,0.259-0.26c0.143,0,0.26,0.117,0.26,0.26v0.135c0,0.069-0.027,0.135-0.076,0.184L11.3,82.164v0.162
				c0,0.143-0.116,0.26-0.259,0.26h-0.162l-0.058,0.058C10.771,82.693,10.705,82.721,10.636,82.721z M10.232,82.451l0.404,0.02
				c0.003,0,0.006-0.002,0.007-0.004l0.132-0.131h0.266l0.01-0.276l0.267-0.267l0.003-0.141l-0.02,0.131l-0.267,0.267l-0.003,0.266
				h-0.259l-0.139,0.135H10.232z"/>
		</g>
	</g>
	<g>
		<g>
			<path class="st0" d="M9.289,82.596H7.402c-0.074,0-0.135-0.06-0.135-0.135s0.061-0.135,0.135-0.135h1.887
				c0.074,0,0.135,0.06,0.135,0.135S9.363,82.596,9.289,82.596z"/>
			<path class="st0" d="M9.289,82.721H7.402c-0.143,0-0.259-0.116-0.259-0.259s0.116-0.26,0.259-0.26h1.887
				c0.143,0,0.26,0.117,0.26,0.26S9.432,82.721,9.289,82.721z M7.402,82.451l1.887,0.02c0.005,0,0.01-0.005,0.01-0.01L7.402,82.451z
				"/>
		</g>
	</g>
	<g>
		<g>
			<path class="st0" d="M7.402,82.596H6.998c-0.036,0-0.07-0.014-0.095-0.039l-0.095-0.095H6.728c-0.051,0-0.098-0.029-0.12-0.075
				l-0.135-0.269c-0.01-0.019-0.015-0.039-0.015-0.06v-0.079l-0.095-0.095c-0.025-0.025-0.039-0.06-0.039-0.095v-0.135
				c0-0.075,0.061-0.135,0.135-0.135c0.074,0,0.135,0.06,0.135,0.135v0.079l0.095,0.095c0.025,0.025,0.039,0.06,0.039,0.095v0.103
				l0.083,0.166h0.051c0.036,0,0.07,0.014,0.095,0.039l0.095,0.095h0.348c0.074,0,0.135,0.06,0.135,0.135S7.476,82.596,7.402,82.596
				z"/>
			<path class="st0" d="M7.402,82.721H6.998c-0.068,0-0.133-0.027-0.183-0.076l-0.059-0.058H6.728c-0.097,0-0.188-0.057-0.232-0.144
				l-0.135-0.269c-0.018-0.033-0.028-0.074-0.028-0.116V82.03L6.275,81.97c-0.049-0.049-0.076-0.114-0.076-0.183v-0.135
				c0-0.143,0.116-0.26,0.259-0.26c0.143,0,0.26,0.117,0.26,0.26v0.027l0.058,0.059c0.049,0.049,0.076,0.114,0.076,0.183v0.073
				l0.037,0.072c0.059,0.006,0.115,0.032,0.157,0.074l0.059,0.059h0.296c0.143,0,0.26,0.117,0.26,0.26S7.545,82.721,7.402,82.721z
				 M6.469,81.652l-0.02,0.135l0.135,0.139v0.131l0.136,0.274l0.139,0.006l0.132,0.131l0.411,0.004c0.005,0,0.01-0.005,0.01-0.01
				l-0.41-0.011L6.87,82.319l-0.135-0.003l-0.131-0.291v-0.102l-0.135-0.139V81.652z"/>
		</g>
	</g>
	<g>
		<g>
			<path class="st0" d="M35.029,62.381c-0.074,0-0.135-0.06-0.135-0.135v-1.348c0-0.075,0.061-0.135,0.135-0.135
				s0.135,0.06,0.135,0.135v1.348C35.164,62.321,35.103,62.381,35.029,62.381z"/>
			<path class="st0" d="M35.029,62.506c-0.143,0-0.26-0.116-0.26-0.259v-1.348c0-0.143,0.116-0.259,0.26-0.259
				c0.143,0,0.26,0.116,0.26,0.259v1.348C35.289,62.39,35.172,62.506,35.029,62.506z M35.039,60.898l-0.02,1.348l0.01,0.01
				c0.005,0,0.01-0.005,0.01-0.01V60.898z"/>
		</g>
	</g>
	<g>
		<g>
			<path class="st0" d="M46.888,62.381c-0.074,0-0.135-0.06-0.135-0.135v-1.348c0-0.075,0.061-0.135,0.135-0.135
				s0.135,0.06,0.135,0.135v1.348C47.023,62.321,46.962,62.381,46.888,62.381z"/>
			<path class="st0" d="M46.888,62.506c-0.143,0-0.26-0.116-0.26-0.259v-1.348c0-0.143,0.116-0.259,0.26-0.259
				s0.26,0.116,0.26,0.259v1.348C47.148,62.39,47.031,62.506,46.888,62.506z M46.898,60.898l-0.02,1.348l0.01,0.01
				c0.005,0,0.01-0.005,0.01-0.01V60.898z"/>
		</g>
	</g>
	<g>
		<g>
			<path class="st0" d="M46.888,62.381H35.029c-0.074,0-0.135-0.06-0.135-0.135s0.061-0.135,0.135-0.135h11.859
				c0.074,0,0.135,0.06,0.135,0.135S46.962,62.381,46.888,62.381z"/>
			<path class="st0" d="M46.888,62.506H35.029c-0.143,0-0.26-0.116-0.26-0.259s0.116-0.259,0.26-0.259h11.859
				c0.143,0,0.26,0.116,0.26,0.259S47.031,62.506,46.888,62.506z M35.029,62.237l11.859,0.019c0.005,0,0.01-0.005,0.01-0.01
				L35.029,62.237z"/>
		</g>
	</g>
	<g>
		<g>
			<path class="st0" d="M46.888,61.033H35.029c-0.074,0-0.135-0.06-0.135-0.135s0.061-0.135,0.135-0.135h11.859
				c0.074,0,0.135,0.06,0.135,0.135S46.962,61.033,46.888,61.033z"/>
			<path class="st0" d="M46.888,61.159H35.029c-0.143,0-0.26-0.117-0.26-0.26s0.116-0.259,0.26-0.259h11.859
				c0.143,0,0.26,0.116,0.26,0.259S47.031,61.159,46.888,61.159z M35.029,60.889l11.859,0.02c0.006,0,0.01-0.005,0.01-0.011
				L35.029,60.889z"/>
		</g>
	</g>
	<g>
		<g>
			<path class="st0" d="M101.332,62.381c-0.075,0-0.135-0.06-0.135-0.135v-1.348c0-0.075,0.06-0.135,0.135-0.135
				s0.135,0.06,0.135,0.135v1.348C101.467,62.321,101.407,62.381,101.332,62.381z"/>
			<path class="st0" d="M101.333,62.506c-0.143,0-0.26-0.116-0.26-0.259v-1.348c0-0.143,0.117-0.259,0.26-0.259
				c0.143,0,0.259,0.116,0.259,0.259v1.348C101.592,62.39,101.476,62.506,101.333,62.506z M101.342,60.898l-0.02,1.348l0.011,0.01
				c0.005,0,0.01-0.005,0.01-0.01V60.898z"/>
		</g>
	</g>
	<g>
		<g>
			<path class="st0" d="M113.327,62.381c-0.075,0-0.135-0.06-0.135-0.135v-1.348c0-0.075,0.06-0.135,0.135-0.135
				s0.135,0.06,0.135,0.135v1.348C113.461,62.321,113.401,62.381,113.327,62.381z"/>
			<path class="st0" d="M113.327,62.506c-0.143,0-0.26-0.116-0.26-0.259v-1.348c0-0.143,0.117-0.259,0.26-0.259
				s0.259,0.116,0.259,0.259v1.348C113.586,62.39,113.47,62.506,113.327,62.506z M113.337,60.898l-0.02,1.348l0.011,0.01
				c0.005,0,0.01-0.005,0.01-0.01V60.898z"/>
		</g>
	</g>
	<g>
		<g>
			<path class="st0" d="M113.327,62.381h-11.994c-0.075,0-0.135-0.06-0.135-0.135s0.06-0.135,0.135-0.135h11.994
				c0.075,0,0.135,0.06,0.135,0.135S113.401,62.381,113.327,62.381z"/>
			<path class="st0" d="M113.327,62.506h-11.994c-0.143,0-0.26-0.116-0.26-0.259s0.117-0.259,0.26-0.259h11.994
				c0.143,0,0.259,0.116,0.259,0.259S113.47,62.506,113.327,62.506z M101.333,62.237l11.994,0.019c0.005,0,0.01-0.005,0.01-0.01
				L101.333,62.237z"/>
		</g>
	</g>
	<g>
		<g>
			<path class="st0" d="M113.327,61.033h-11.994c-0.075,0-0.135-0.06-0.135-0.135s0.06-0.135,0.135-0.135h11.994
				c0.075,0,0.135,0.06,0.135,0.135S113.401,61.033,113.327,61.033z"/>
			<path class="st0" d="M113.327,61.159h-11.994c-0.143,0-0.26-0.117-0.26-0.26s0.117-0.259,0.26-0.259h11.994
				c0.143,0,0.259,0.116,0.259,0.259S113.47,61.159,113.327,61.159z M101.333,60.889l11.994,0.02c0.006,0,0.01-0.005,0.01-0.011
				L101.333,60.889z"/>
		</g>
	</g>
	<g>
		<g>
			<path class="st0" d="M133.81,62.381c-0.075,0-0.135-0.06-0.135-0.135v-1.348c0-0.075,0.06-0.135,0.135-0.135
				c0.075,0,0.135,0.06,0.135,0.135v1.348C133.945,62.321,133.885,62.381,133.81,62.381z"/>
			<path class="st0" d="M133.811,62.506c-0.143,0-0.26-0.116-0.26-0.259v-1.348c0-0.143,0.117-0.259,0.26-0.259
				c0.143,0,0.259,0.116,0.259,0.259v1.348C134.07,62.39,133.954,62.506,133.811,62.506z M133.821,60.898l-0.02,1.348l0.011,0.01
				c0.005,0,0.01-0.005,0.01-0.01V60.898z"/>
		</g>
	</g>
	<g>
		<g>
			<path class="st0" d="M133.81,62.381h-10.916c-0.075,0-0.135-0.06-0.135-0.135s0.06-0.135,0.135-0.135h10.916
				c0.075,0,0.135,0.06,0.135,0.135S133.885,62.381,133.81,62.381z"/>
			<path class="st0" d="M133.811,62.506h-10.916c-0.143,0-0.259-0.116-0.259-0.259s0.116-0.259,0.259-0.259h10.916
				c0.143,0,0.259,0.116,0.259,0.259S133.954,62.506,133.811,62.506z M122.895,62.237l10.916,0.019c0.005,0,0.01-0.005,0.01-0.01
				L122.895,62.237z"/>
		</g>
	</g>
	<g>
		<g>
			<path class="st0" d="M133.81,61.033h-20.484c-0.075,0-0.135-0.06-0.135-0.135s0.06-0.135,0.135-0.135h20.484
				c0.075,0,0.135,0.06,0.135,0.135S133.885,61.033,133.81,61.033z"/>
			<path class="st0" d="M133.811,61.159h-20.484c-0.143,0-0.26-0.117-0.26-0.26s0.117-0.259,0.26-0.259h20.484
				c0.143,0,0.259,0.116,0.259,0.259S133.954,61.159,133.811,61.159z M113.327,60.889l20.484,0.02c0.006,0,0.01-0.005,0.01-0.011
				L113.327,60.889z"/>
		</g>
	</g>
	<g>
		<g>
			<path class="st0" d="M14.41,62.381c-0.074,0-0.135-0.06-0.135-0.135v-1.348c0-0.075,0.061-0.135,0.135-0.135
				c0.074,0,0.135,0.06,0.135,0.135v1.348C14.545,62.321,14.484,62.381,14.41,62.381z"/>
			<path class="st0" d="M14.41,62.506c-0.143,0-0.26-0.116-0.26-0.259v-1.348c0-0.143,0.116-0.259,0.26-0.259
				c0.143,0,0.26,0.116,0.26,0.259v1.348C14.67,62.39,14.553,62.506,14.41,62.506z M14.42,60.898l-0.02,1.348l0.01,0.01
				c0.005,0,0.01-0.005,0.01-0.01V60.898z"/>
		</g>
	</g>
	<g>
		<g>
			<path class="st0" d="M25.326,62.381H14.41c-0.074,0-0.135-0.06-0.135-0.135s0.061-0.135,0.135-0.135h10.916
				c0.074,0,0.135,0.06,0.135,0.135S25.4,62.381,25.326,62.381z"/>
			<path class="st0" d="M25.325,62.506H14.41c-0.143,0-0.26-0.116-0.26-0.259s0.116-0.259,0.26-0.259h10.916
				c0.143,0,0.26,0.116,0.26,0.259S25.469,62.506,25.325,62.506z M14.41,62.237l10.916,0.019c0.005,0,0.01-0.005,0.01-0.01
				L14.41,62.237z"/>
		</g>
	</g>
	<g>
		<g>
			<path class="st0" d="M35.029,61.033H14.41c-0.074,0-0.135-0.06-0.135-0.135s0.061-0.135,0.135-0.135h20.619
				c0.074,0,0.135,0.06,0.135,0.135S35.103,61.033,35.029,61.033z"/>
			<path class="st0" d="M35.029,61.159H14.41c-0.143,0-0.26-0.117-0.26-0.26s0.116-0.259,0.26-0.259h20.619
				c0.143,0,0.26,0.116,0.26,0.259S35.172,61.159,35.029,61.159z M14.41,60.889l20.619,0.02c0.005,0,0.01-0.004,0.01-0.011
				L14.41,60.889z"/>
		</g>
	</g>
	<g>
		<g>
			<path class="st0" d="M101.332,61.033H46.888c-0.074,0-0.135-0.06-0.135-0.135s0.061-0.135,0.135-0.135h54.444
				c0.075,0,0.135,0.06,0.135,0.135S101.407,61.033,101.332,61.033z"/>
			<path class="st0" d="M101.333,61.159H46.888c-0.143,0-0.26-0.117-0.26-0.26s0.116-0.259,0.26-0.259h54.445
				c0.143,0,0.259,0.116,0.259,0.259S101.476,61.159,101.333,61.159z M46.888,60.889l54.445,0.02c0.006,0,0.01-0.005,0.01-0.011
				L46.888,60.889z"/>
		</g>
	</g>
	<g>
		<g>
			<path class="st0" d="M139.74,62.381h-5.93c-0.075,0-0.135-0.06-0.135-0.135s0.06-0.135,0.135-0.135h5.93
				c0.075,0,0.135,0.06,0.135,0.135S139.815,62.381,139.74,62.381z"/>
			<path class="st0" d="M139.741,62.506h-5.93c-0.143,0-0.26-0.116-0.26-0.259s0.117-0.259,0.26-0.259h5.93
				c0.143,0,0.259,0.116,0.259,0.259S139.884,62.506,139.741,62.506z M133.811,62.237l5.93,0.019c0.005,0,0.01-0.005,0.01-0.01
				L133.811,62.237z"/>
		</g>
	</g>
	<g>
		<g>
			<path class="st0" d="M139.74,61.033h-5.93c-0.075,0-0.135-0.06-0.135-0.135s0.06-0.135,0.135-0.135h5.93
				c0.075,0,0.135,0.06,0.135,0.135S139.815,61.033,139.74,61.033z"/>
			<path class="st0" d="M139.741,61.159h-5.93c-0.143,0-0.26-0.117-0.26-0.26s0.117-0.259,0.26-0.259h5.93
				c0.143,0,0.259,0.116,0.259,0.259S139.884,61.159,139.741,61.159z M133.811,60.889l5.93,0.02c0.006,0,0.01-0.005,0.01-0.011
				L133.811,60.889z"/>
		</g>
	</g>
	<g>
		<g>
			<path class="st0" d="M14.41,62.381H8.48c-0.074,0-0.135-0.06-0.135-0.135s0.061-0.135,0.135-0.135h5.93
				c0.074,0,0.135,0.06,0.135,0.135S14.484,62.381,14.41,62.381z"/>
			<path class="st0" d="M14.41,62.506H8.48c-0.143,0-0.26-0.116-0.26-0.259s0.116-0.259,0.26-0.259h5.93
				c0.143,0,0.26,0.116,0.26,0.259S14.553,62.506,14.41,62.506z M8.48,62.237l5.93,0.019c0.005,0,0.01-0.005,0.01-0.01L8.48,62.237z
				"/>
		</g>
	</g>
	<g>
		<g>
			<path class="st0" d="M14.41,61.033H8.48c-0.074,0-0.135-0.06-0.135-0.135s0.061-0.135,0.135-0.135h5.93
				c0.074,0,0.135,0.06,0.135,0.135S14.484,61.033,14.41,61.033z"/>
			<path class="st0" d="M14.41,61.159H8.48c-0.143,0-0.26-0.117-0.26-0.26s0.116-0.259,0.26-0.259h5.93
				c0.143,0,0.26,0.116,0.26,0.259S14.553,61.159,14.41,61.159z M8.48,60.889l5.93,0.02c0.005,0,0.01-0.004,0.01-0.011L8.48,60.889z
				"/>
		</g>
	</g>
	<g>
		<g>
			<g>
				<path class="st0" d="M73.437,97.101c0-0.321,0.191-0.547,0.504-0.68l-0.004-0.012c-0.281-0.133-0.402-0.352-0.402-0.57
					c0-0.402,0.34-0.676,0.786-0.676c0.492,0,0.738,0.308,0.738,0.625c0,0.215-0.106,0.445-0.418,0.594v0.012
					c0.317,0.125,0.512,0.348,0.512,0.656c0,0.441-0.379,0.738-0.863,0.738C73.757,97.788,73.437,97.472,73.437,97.101z
					 M74.804,97.085c0-0.309-0.215-0.457-0.559-0.555c-0.297,0.086-0.457,0.281-0.457,0.524c-0.012,0.258,0.183,0.484,0.508,0.484
					C74.605,97.538,74.804,97.347,74.804,97.085z M73.859,95.815c0,0.254,0.192,0.391,0.484,0.469
					c0.219-0.074,0.387-0.23,0.387-0.461c0-0.203-0.121-0.414-0.43-0.414C74.015,95.409,73.859,95.596,73.859,95.815z"/>
			</g>
		</g>
		<g>
			<g>
				<path class="st0" d="M76.535,97.745v-0.691h-1.18v-0.227l1.133-1.621h0.371v1.578h0.356v0.27H76.86v0.691H76.535z
					 M76.535,96.784v-0.848c0-0.133,0.004-0.266,0.012-0.398h-0.012c-0.078,0.148-0.141,0.258-0.211,0.375l-0.621,0.863v0.008
					H76.535z"/>
			</g>
		</g>
	</g>
	<g>
		<g>
			<path class="st0" d="M25.326,98.094c-0.074,0-0.135-0.06-0.135-0.135V83.674c0-0.075,0.061-0.135,0.135-0.135
				s0.135,0.06,0.135,0.135v14.285C25.46,98.033,25.4,98.094,25.326,98.094z"/>
			<path class="st0" d="M25.325,98.218c-0.143,0-0.259-0.116-0.259-0.259V83.674c0-0.143,0.116-0.259,0.259-0.259
				c0.143,0,0.26,0.116,0.26,0.259v14.285C25.585,98.102,25.469,98.218,25.325,98.218z M25.336,83.674l-0.02,14.285l0.01,0.01
				c0.005,0,0.01-0.005,0.01-0.01V83.674z"/>
		</g>
	</g>
	<g>
		<g>
			<path class="st0" d="M125.051,98.094c-0.075,0-0.135-0.06-0.135-0.135v-16.98c0-0.075,0.06-0.135,0.135-0.135
				s0.135,0.06,0.135,0.135v16.98C125.186,98.033,125.126,98.094,125.051,98.094z"/>
			<path class="st0" d="M125.051,98.218c-0.143,0-0.26-0.116-0.26-0.259v-16.98c0-0.143,0.117-0.26,0.26-0.26
				c0.143,0,0.259,0.117,0.259,0.26v16.98C125.31,98.102,125.194,98.218,125.051,98.218z M125.061,80.979l-0.02,16.98l0.011,0.01
				c0.005,0,0.01-0.005,0.01-0.01V80.979z"/>
		</g>
	</g>
	<g>
		<g>
			<path class="st0" d="M72.498,96.881H26.844c-0.072,0-0.131-0.06-0.131-0.135s0.059-0.135,0.131-0.135h45.654
				c0.072,0,0.131,0.06,0.131,0.135S72.57,96.881,72.498,96.881z"/>
			<path class="st0" d="M72.497,97.006H26.844c-0.141,0-0.255-0.117-0.255-0.26c0-0.143,0.115-0.259,0.255-0.259h45.654
				c0.14,0,0.255,0.116,0.255,0.259C72.753,96.889,72.638,97.006,72.497,97.006z M26.844,96.736l45.654,0.02
				c0.002,0,0.006-0.004,0.006-0.011L26.844,96.736z"/>
		</g>
	</g>
	<g>
		<g>
			<path class="st0" d="M123.438,96.881H77.879c-0.072,0-0.13-0.06-0.13-0.135s0.058-0.135,0.13-0.135h45.559
				c0.072,0,0.13,0.06,0.13,0.135S123.51,96.881,123.438,96.881z"/>
			<path class="st0" d="M123.438,97.006H77.879c-0.14,0-0.254-0.117-0.254-0.26c0-0.143,0.114-0.259,0.254-0.259h45.559
				c0.14,0,0.255,0.116,0.255,0.259C123.693,96.889,123.578,97.006,123.438,97.006z M77.879,96.736l45.559,0.02
				c0.002,0,0.006-0.004,0.006-0.011L77.879,96.736z"/>
		</g>
	</g>
	<g>
		<g>
			<g>
				<path class="st0" d="M67.991,42.102h-0.008l-0.441,0.238l-0.066-0.262l0.555-0.297h0.293v2.539h-0.332V42.102z"/>
			</g>
		</g>
		<g>
			<g>
				<path class="st0" d="M69.995,42.102h-0.008l-0.441,0.238l-0.066-0.262l0.555-0.297h0.293v2.539h-0.332V42.102z"/>
			</g>
		</g>
		<g>
			<g>
				<path class="st0" d="M72.833,41.782v0.226l-1.106,2.313h-0.356l1.102-2.247v-0.008h-1.243v-0.285H72.833z"/>
			</g>
		</g>
	</g>
	<g>
		<g>
			<path class="st0" d="M139.74,59.82c-0.075,0-0.135-0.06-0.135-0.135V42.167c0-0.075,0.06-0.135,0.135-0.135
				c0.075,0,0.135,0.06,0.135,0.135v17.519C139.875,59.76,139.815,59.82,139.74,59.82z"/>
			<path class="st0" d="M139.741,59.945c-0.143,0-0.26-0.116-0.26-0.259V42.167c0-0.143,0.117-0.26,0.26-0.26
				c0.143,0,0.259,0.117,0.259,0.26v17.519C140,59.829,139.884,59.945,139.741,59.945z M139.75,42.167l-0.02,17.519l0.011,0.01
				c0.005,0,0.01-0.005,0.01-0.01V42.167z"/>
		</g>
	</g>
	<g>
		<g>
			<path class="st0" d="M0.26,62.112c-0.074,0-0.135-0.06-0.135-0.135v-19.81c0-0.075,0.061-0.135,0.135-0.135
				s0.135,0.06,0.135,0.135v19.81C0.395,62.051,0.334,62.112,0.26,62.112z"/>
			<path class="st0" d="M0.26,62.237c-0.143,0-0.26-0.117-0.26-0.26V42.167c0-0.143,0.116-0.26,0.26-0.26
				c0.143,0,0.259,0.117,0.259,0.26v19.809C0.519,62.12,0.403,62.237,0.26,62.237z M0.27,42.167L0.25,61.976l0.01,0.011
				c0.005,0,0.01-0.005,0.01-0.011V42.167z"/>
		</g>
	</g>
	<g>
		<g>
			<path class="st0" d="M138.458,43.515h-64.35c-0.073,0-0.132-0.06-0.132-0.135c0-0.075,0.059-0.135,0.132-0.135h64.35
				c0.073,0,0.132,0.06,0.132,0.135C138.59,43.454,138.531,43.515,138.458,43.515z"/>
			<path class="st0" d="M138.458,43.639h-64.35c-0.142,0-0.257-0.116-0.257-0.259s0.115-0.26,0.257-0.26h64.35
				c0.141,0,0.256,0.117,0.256,0.26S138.599,43.639,138.458,43.639z M74.108,43.369l64.35,0.02c0.003,0,0.007-0.004,0.007-0.01
				L74.108,43.369z"/>
		</g>
	</g>
	<g>
		<g>
			<path class="st0" d="M66.028,43.515H1.863c-0.072,0-0.132-0.06-0.132-0.135c0-0.075,0.059-0.135,0.132-0.135h64.165
				c0.073,0,0.132,0.06,0.132,0.135C66.159,43.454,66.1,43.515,66.028,43.515z"/>
			<path class="st0" d="M66.028,43.639H1.863c-0.141,0-0.256-0.116-0.256-0.259s0.115-0.26,0.256-0.26h64.165
				c0.141,0,0.256,0.117,0.256,0.26S66.169,43.639,66.028,43.639z M1.863,43.369l64.165,0.02c0.003,0,0.007-0.004,0.007-0.01
				L1.863,43.369z"/>
		</g>
	</g>
</g>
</svg>
