<?xml version="1.0" encoding="utf-8"?>
<!-- Generator: Adobe Illustrator 19.0.0, SVG Export Plug-In . SVG Version: 6.00 Build 0)  -->
<svg version="1.1" id="PRODUCT_DIAGRAM_1" xmlns="http://www.w3.org/2000/svg" xmlns:xlink="http://www.w3.org/1999/xlink" x="0px"
	 y="0px" viewBox="0 0 140 140" style="enable-background:new 0 0 140 140;" xml:space="preserve">
<style type="text/css">
	.st0{fill:#423F3F;}
</style>
<g>
	<g>
		<path class="st0" d="M48.468,140h-1.689c-0.093,0-0.169-0.076-0.169-0.169c0-0.093,0.076-0.169,0.169-0.169h1.689
			c0.093,0,0.169,0.076,0.169,0.169C48.637,139.924,48.561,140,48.468,140z"/>
	</g>
	<g>
		<path class="st0" d="M48.468,0.338h-1.689c-0.093,0-0.169-0.076-0.169-0.169S46.686,0,46.779,0h1.689
			c0.093,0,0.169,0.076,0.169,0.169S48.561,0.338,48.468,0.338z"/>
	</g>
	<g>
		<path class="st0" d="M73.8,107.407c-0.093,0-0.169-0.076-0.169-0.169V96.599c0-0.093,0.076-0.169,0.169-0.169
			c0.093,0,0.169,0.076,0.169,0.169v10.639C73.969,107.331,73.893,107.407,73.8,107.407z"/>
	</g>
	<g>
		<path class="st0" d="M73.8,91.701c-0.093,0-0.169-0.076-0.169-0.169v-58.77c0-0.093,0.076-0.169,0.169-0.169
			c0.093,0,0.169,0.076,0.169,0.169v58.77C73.969,91.625,73.893,91.701,73.8,91.701z"/>
	</g>
	<g>
		<path class="st0" d="M61.809,103.691c-0.093,0-0.169-0.076-0.169-0.169v-1.858c0-0.093,0.076-0.169,0.169-0.169
			s0.169,0.076,0.169,0.169v1.858C61.978,103.616,61.902,103.691,61.809,103.691z"/>
	</g>
	<g>
		<path class="st0" d="M62.823,101.833h-1.014c-0.093,0-0.169-0.076-0.169-0.169c0-0.093,0.076-0.169,0.169-0.169h1.014
			c0.093,0,0.169,0.076,0.169,0.169C62.992,101.758,62.916,101.833,62.823,101.833z"/>
	</g>
	<g>
		<path class="st0" d="M62.823,103.691c-0.093,0-0.169-0.076-0.169-0.169v-1.858c0-0.093,0.076-0.169,0.169-0.169
			c0.093,0,0.169,0.076,0.169,0.169v1.858C62.992,103.616,62.916,103.691,62.823,103.691z"/>
	</g>
	<g>
		<path class="st0" d="M62.823,103.691h-1.014c-0.093,0-0.169-0.076-0.169-0.169c0-0.093,0.076-0.169,0.169-0.169h1.014
			c0.093,0,0.169,0.076,0.169,0.169C62.992,103.616,62.916,103.691,62.823,103.691z"/>
	</g>
	<g>
		<path class="st0" d="M60.289,86.635c-0.093,0-0.169-0.076-0.169-0.169v-1.857c0-0.093,0.076-0.169,0.169-0.169
			c0.093,0,0.169,0.076,0.169,0.169v1.857C60.459,86.559,60.383,86.635,60.289,86.635z"/>
	</g>
	<g>
		<path class="st0" d="M60.289,86.635h-1.182c-0.093,0-0.169-0.076-0.169-0.169c0-0.093,0.076-0.169,0.169-0.169h1.182
			c0.093,0,0.169,0.076,0.169,0.169C60.459,86.559,60.383,86.635,60.289,86.635z"/>
	</g>
	<g>
		<path class="st0" d="M59.107,86.635c-0.093,0-0.169-0.076-0.169-0.169v-1.857c0-0.093,0.076-0.169,0.169-0.169
			c0.093,0,0.169,0.076,0.169,0.169v1.857C59.276,86.559,59.2,86.635,59.107,86.635z"/>
	</g>
	<g>
		<path class="st0" d="M60.289,84.777h-1.182c-0.093,0-0.169-0.076-0.169-0.169c0-0.093,0.076-0.169,0.169-0.169h1.182
			c0.093,0,0.169,0.076,0.169,0.169C60.459,84.702,60.383,84.777,60.289,84.777z"/>
	</g>
	<g>
		<path class="st0" d="M61.809,86.635c-0.093,0-0.169-0.076-0.169-0.169v-1.857c0-0.093,0.076-0.169,0.169-0.169
			s0.169,0.076,0.169,0.169v1.857C61.978,86.559,61.902,86.635,61.809,86.635z"/>
	</g>
	<g>
		<path class="st0" d="M62.823,84.777h-1.014c-0.093,0-0.169-0.076-0.169-0.169c0-0.093,0.076-0.169,0.169-0.169h1.014
			c0.093,0,0.169,0.076,0.169,0.169C62.992,84.702,62.916,84.777,62.823,84.777z"/>
	</g>
	<g>
		<path class="st0" d="M62.823,86.635c-0.093,0-0.169-0.076-0.169-0.169v-1.857c0-0.093,0.076-0.169,0.169-0.169
			c0.093,0,0.169,0.076,0.169,0.169v1.857C62.992,86.559,62.916,86.635,62.823,86.635z"/>
	</g>
	<g>
		<path class="st0" d="M62.823,86.635h-1.014c-0.093,0-0.169-0.076-0.169-0.169c0-0.093,0.076-0.169,0.169-0.169h1.014
			c0.093,0,0.169,0.076,0.169,0.169C62.992,86.559,62.916,86.635,62.823,86.635z"/>
	</g>
	<g>
		<path class="st0" d="M60.289,103.691c-0.093,0-0.169-0.076-0.169-0.169v-1.858c0-0.093,0.076-0.169,0.169-0.169
			c0.093,0,0.169,0.076,0.169,0.169v1.858C60.459,103.616,60.383,103.691,60.289,103.691z"/>
	</g>
	<g>
		<path class="st0" d="M60.289,103.691h-1.182c-0.093,0-0.169-0.076-0.169-0.169c0-0.093,0.076-0.169,0.169-0.169h1.182
			c0.093,0,0.169,0.076,0.169,0.169C60.459,103.616,60.383,103.691,60.289,103.691z"/>
	</g>
	<g>
		<path class="st0" d="M59.107,103.691c-0.093,0-0.169-0.076-0.169-0.169v-1.858c0-0.093,0.076-0.169,0.169-0.169
			c0.093,0,0.169,0.076,0.169,0.169v1.858C59.276,103.616,59.2,103.691,59.107,103.691z"/>
	</g>
	<g>
		<path class="st0" d="M60.289,101.833h-1.182c-0.093,0-0.169-0.076-0.169-0.169c0-0.093,0.076-0.169,0.169-0.169h1.182
			c0.093,0,0.169,0.076,0.169,0.169C60.459,101.758,60.383,101.833,60.289,101.833z"/>
	</g>
	<g>
		<path class="st0" d="M61.809,103.691h-1.52c-0.093,0-0.169-0.076-0.169-0.169c0-0.093,0.076-0.169,0.169-0.169h1.52
			c0.093,0,0.169,0.076,0.169,0.169C61.978,103.616,61.902,103.691,61.809,103.691z"/>
	</g>
	<g>
		<path class="st0" d="M61.809,101.833h-1.52c-0.093,0-0.169-0.076-0.169-0.169c0-0.093,0.076-0.169,0.169-0.169h1.52
			c0.093,0,0.169,0.076,0.169,0.169C61.978,101.758,61.902,101.833,61.809,101.833z"/>
	</g>
	<g>
		<path class="st0" d="M61.809,84.777h-1.52c-0.093,0-0.169-0.076-0.169-0.169c0-0.093,0.076-0.169,0.169-0.169h1.52
			c0.093,0,0.169,0.076,0.169,0.169C61.978,84.702,61.902,84.777,61.809,84.777z"/>
	</g>
	<g>
		<path class="st0" d="M61.809,86.635h-1.52c-0.093,0-0.169-0.076-0.169-0.169c0-0.093,0.076-0.169,0.169-0.169h1.52
			c0.093,0,0.169,0.076,0.169,0.169C61.978,86.559,61.902,86.635,61.809,86.635z"/>
	</g>
	<g>
		<path class="st0" d="M62.485,108.589h-3.208c-0.093,0-0.169-0.076-0.169-0.169h-0.338c-0.045,0-0.088-0.018-0.12-0.049
			l-0.119-0.12h-0.268c-0.045,0-0.088-0.018-0.119-0.049l-0.119-0.119h-0.268c-0.093,0-0.169-0.076-0.169-0.169h-0.169
			c-0.093,0-0.169-0.076-0.169-0.169h-0.169c-0.093,0-0.169-0.076-0.169-0.169l0,0c-0.093,0-0.169-0.076-0.169-0.168
			c-0.045,0-0.088-0.018-0.119-0.049l-0.12-0.12h-0.099c-0.045,0-0.088-0.018-0.12-0.049l-0.626-0.626h-0.099
			c-0.093,0-0.169-0.076-0.169-0.169v-0.099l-0.626-0.626c-0.032-0.032-0.049-0.075-0.049-0.12v-0.099l-0.119-0.12
			c-0.032-0.032-0.049-0.074-0.049-0.119l0,0c-0.093,0-0.169-0.076-0.169-0.169l0,0c-0.093,0-0.169-0.076-0.169-0.169v-0.169
			c-0.093,0-0.169-0.076-0.169-0.169v-0.168c-0.093,0-0.169-0.076-0.169-0.169v-0.268l-0.119-0.119
			c-0.032-0.032-0.05-0.075-0.05-0.12v-0.268l-0.12-0.12c-0.032-0.032-0.049-0.075-0.049-0.12v-0.337
			c-0.093,0-0.169-0.076-0.169-0.169v-1.52c0-0.093,0.076-0.169,0.169-0.169c0.093,0,0.169,0.076,0.169,0.169v1.351
			c0.093,0,0.169,0.076,0.169,0.169v0.436l0.12,0.12c0.032,0.032,0.049,0.075,0.049,0.12v0.268l0.119,0.119
			c0.032,0.032,0.05,0.075,0.05,0.12v0.169c0.093,0,0.169,0.076,0.169,0.169v0.168c0.093,0,0.169,0.076,0.169,0.169v0.169
			c0.093,0,0.169,0.076,0.169,0.169l0,0c0.093,0,0.169,0.076,0.169,0.169v0.098l0.119,0.12c0.032,0.032,0.049,0.075,0.049,0.12
			v0.099l0.626,0.626c0.032,0.032,0.049,0.075,0.049,0.12l0,0c0.045,0,0.088,0.018,0.119,0.049l0.626,0.626h0.099
			c0.045,0,0.088,0.018,0.12,0.049l0.12,0.12h0.099c0.093,0,0.169,0.076,0.169,0.168l0,0c0.093,0,0.169,0.076,0.169,0.169h0.169
			c0.093,0,0.169,0.076,0.169,0.169h0.169c0.093,0,0.169,0.076,0.169,0.169h0.169c0.045,0,0.088,0.018,0.119,0.049l0.119,0.119
			h0.268c0.045,0,0.088,0.018,0.12,0.049l0.119,0.12h0.437c0.093,0,0.169,0.076,0.169,0.169h2.87c0-0.093,0.076-0.169,0.169-0.169
			h0.437l0.12-0.12c0.032-0.032,0.075-0.049,0.12-0.049h0.268l0.119-0.119c0.032-0.032,0.075-0.049,0.119-0.049h0.169
			c0-0.093,0.076-0.169,0.169-0.169h0.169c0-0.093,0.076-0.169,0.169-0.169h0.169c0-0.093,0.076-0.169,0.169-0.169l0,0
			c0-0.093,0.076-0.168,0.169-0.168h0.099l0.119-0.119c0.032-0.032,0.075-0.05,0.12-0.05h0.099l0.627-0.626
			c0.032-0.032,0.074-0.049,0.119-0.049l0,0c0-0.045,0.018-0.088,0.049-0.12l0.626-0.626v-0.099c0-0.045,0.018-0.088,0.049-0.12
			l0.12-0.12v-0.098c0-0.093,0.076-0.169,0.169-0.169l0,0c0-0.093,0.076-0.168,0.168-0.169v-0.169c0-0.093,0.076-0.169,0.169-0.169
			v-0.168c0-0.093,0.076-0.169,0.169-0.169v-0.169c0-0.045,0.018-0.088,0.05-0.12l0.119-0.119v-0.268
			c0-0.045,0.018-0.087,0.049-0.119l0.119-0.12v-0.436c0-0.093,0.076-0.169,0.169-0.169v-1.351c0-0.093,0.076-0.169,0.169-0.169
			s0.169,0.076,0.169,0.169v1.52c0,0.093-0.076,0.169-0.169,0.169v0.337c0,0.045-0.018,0.087-0.049,0.119l-0.119,0.12v0.268
			c0,0.045-0.018,0.088-0.05,0.12l-0.119,0.119v0.268c0,0.093-0.076,0.169-0.169,0.169v0.168c0,0.093-0.076,0.169-0.169,0.169v0.169
			c0,0.093-0.076,0.168-0.168,0.169l0,0c0,0.093-0.076,0.169-0.169,0.169l0,0c0,0.045-0.018,0.087-0.049,0.119l-0.12,0.12v0.099
			c0,0.045-0.018,0.088-0.049,0.12l-0.626,0.626v0.099c0,0.093-0.076,0.169-0.169,0.169h-0.099l-0.626,0.626
			c-0.032,0.032-0.075,0.049-0.12,0.049h-0.099l-0.119,0.119c-0.032,0.032-0.075,0.05-0.12,0.05l0,0
			c-0.001,0.093-0.076,0.168-0.169,0.168l0,0c0,0.093-0.076,0.169-0.169,0.169h-0.169c0,0.093-0.076,0.169-0.169,0.169h-0.169
			c0,0.093-0.076,0.169-0.169,0.169h-0.268l-0.119,0.119c-0.032,0.032-0.075,0.049-0.119,0.049h-0.268l-0.12,0.12
			c-0.032,0.032-0.075,0.049-0.12,0.049h-0.338C62.654,108.513,62.578,108.589,62.485,108.589z"/>
	</g>
	<g>
		<path class="st0" d="M53.534,101.327c-0.093,0-0.169-0.076-0.169-0.169V86.804c0-0.093,0.076-0.169,0.169-0.169
			c0.093,0,0.169,0.076,0.169,0.169v14.354C53.703,101.251,53.627,101.327,53.534,101.327z"/>
	</g>
	<g>
		<path class="st0" d="M68.396,101.327c-0.093,0-0.169-0.076-0.169-0.169V86.804c0-0.093,0.076-0.169,0.169-0.169
			s0.169,0.076,0.169,0.169v14.354C68.565,101.251,68.489,101.327,68.396,101.327z"/>
	</g>
	<g>
		<path class="st0" d="M68.396,86.973c-0.043,0-0.087-0.016-0.12-0.049l-0.169-0.169c-0.032-0.032-0.049-0.075-0.049-0.12v-1.351
			c-0.093,0-0.169-0.076-0.169-0.169v-0.436l-0.119-0.12c-0.032-0.032-0.049-0.074-0.049-0.119v-0.268l-0.119-0.119
			c-0.032-0.032-0.05-0.075-0.05-0.12v-0.169c-0.093,0-0.169-0.076-0.169-0.169v-0.168c-0.093,0-0.169-0.076-0.169-0.169v-0.169
			c-0.093-0.001-0.168-0.076-0.168-0.169l0,0c-0.093,0-0.169-0.076-0.169-0.169v-0.098l-0.12-0.12
			c-0.032-0.032-0.049-0.075-0.049-0.12v-0.099l-0.626-0.626c-0.032-0.032-0.049-0.075-0.049-0.12l0,0
			c-0.045,0-0.088-0.018-0.12-0.049l-0.626-0.626h-0.099c-0.045,0-0.088-0.018-0.12-0.05l-0.119-0.119h-0.099
			c-0.093,0-0.169-0.076-0.169-0.168l0,0c-0.093,0-0.169-0.076-0.169-0.169h-0.169c-0.093,0-0.169-0.076-0.169-0.169h-0.169
			c-0.093,0-0.169-0.076-0.169-0.169h-0.169c-0.045,0-0.088-0.018-0.119-0.049l-0.119-0.119H63.16c-0.045,0-0.088-0.018-0.12-0.049
			l-0.12-0.12h-0.437c-0.093,0-0.169-0.076-0.169-0.169h-2.87c0,0.093-0.076,0.169-0.169,0.169H58.84l-0.119,0.12
			c-0.032,0.032-0.075,0.049-0.12,0.049h-0.268l-0.119,0.119c-0.032,0.032-0.075,0.049-0.119,0.049h-0.169
			c0,0.093-0.076,0.169-0.169,0.169h-0.169c0,0.093-0.076,0.169-0.169,0.169H57.25c0,0.093-0.076,0.169-0.169,0.169l0,0
			c0,0.093-0.076,0.168-0.169,0.168h-0.099l-0.12,0.12c-0.032,0.032-0.075,0.049-0.12,0.049h-0.099l-0.626,0.626
			c-0.032,0.032-0.075,0.049-0.12,0.049l0,0c0,0.045-0.018,0.088-0.049,0.12l-0.626,0.626v0.099c0,0.045-0.018,0.088-0.049,0.12
			l-0.119,0.12v0.098c0,0.093-0.076,0.169-0.169,0.169l0,0c0,0.093-0.076,0.169-0.169,0.169v0.169c0,0.093-0.076,0.169-0.169,0.169
			v0.168c0,0.093-0.076,0.169-0.169,0.169v0.169c0,0.045-0.018,0.088-0.05,0.12l-0.119,0.119v0.268c0,0.045-0.018,0.088-0.049,0.12
			l-0.12,0.12v0.436c0,0.093-0.076,0.169-0.169,0.169v1.52c0,0.093-0.076,0.169-0.169,0.169c-0.093,0-0.169-0.076-0.169-0.169
			v-1.689c0-0.093,0.076-0.169,0.169-0.169v-0.337c0-0.045,0.018-0.088,0.049-0.12l0.12-0.12v-0.268c0-0.045,0.018-0.088,0.05-0.12
			l0.119-0.119v-0.268c0-0.093,0.076-0.169,0.169-0.169v-0.168c0-0.093,0.076-0.169,0.169-0.169v-0.169
			c0-0.093,0.076-0.169,0.169-0.169l0,0c0-0.093,0.076-0.169,0.169-0.169l0,0c0-0.045,0.018-0.087,0.049-0.119l0.119-0.12v-0.099
			c0-0.045,0.018-0.088,0.049-0.12l0.626-0.626v-0.099c0-0.093,0.076-0.169,0.169-0.169h0.099l0.626-0.626
			c0.032-0.032,0.075-0.049,0.12-0.049h0.099l0.12-0.12c0.032-0.032,0.075-0.049,0.119-0.049c0-0.093,0.076-0.168,0.169-0.168l0,0
			c0-0.093,0.076-0.169,0.169-0.169h0.169c0-0.093,0.076-0.169,0.169-0.169h0.169c0-0.093,0.076-0.169,0.169-0.169h0.268
			l0.119-0.119c0.032-0.032,0.075-0.049,0.119-0.049h0.268l0.119-0.12c0.032-0.032,0.075-0.049,0.12-0.049h0.338
			c0-0.093,0.076-0.169,0.169-0.169h3.208c0.093,0,0.169,0.076,0.169,0.169h0.338c0.045,0,0.088,0.018,0.12,0.049l0.12,0.12h0.268
			c0.045,0,0.088,0.018,0.119,0.049l0.119,0.119h0.268c0.093,0,0.169,0.076,0.169,0.169h0.169c0.093,0,0.169,0.076,0.169,0.169
			h0.169c0.093,0,0.169,0.076,0.169,0.169l0,0c0.093,0,0.168,0.076,0.169,0.168l0,0c0.045,0,0.088,0.018,0.12,0.05l0.119,0.119
			h0.099c0.045,0,0.088,0.018,0.12,0.049l0.626,0.626H66.2c0.093,0,0.169,0.076,0.169,0.169v0.099l0.626,0.626
			c0.032,0.032,0.049,0.075,0.049,0.12v0.099l0.12,0.12c0.032,0.032,0.049,0.074,0.049,0.119l0,0c0.093,0,0.169,0.076,0.169,0.169
			l0,0c0.093,0.001,0.168,0.076,0.168,0.169v0.169c0.093,0,0.169,0.076,0.169,0.169v0.168c0.093,0,0.169,0.076,0.169,0.169v0.268
			l0.119,0.119c0.032,0.032,0.05,0.075,0.05,0.12v0.268l0.119,0.12c0.032,0.032,0.049,0.074,0.049,0.119v0.337
			c0.093,0,0.169,0.076,0.169,0.169v1.45l0.12,0.12c0.066,0.066,0.066,0.173,0,0.239C68.482,86.956,68.439,86.973,68.396,86.973z"/>
	</g>
	<g>
		<path class="st0" d="M66.538,38.673c-0.043,0-0.087-0.016-0.12-0.05l-0.168-0.169c-0.032-0.032-0.049-0.074-0.049-0.119v-1.182
			c-0.093,0-0.169-0.076-0.169-0.169v-0.337c-0.093,0-0.169-0.076-0.169-0.169V36.21l-0.12-0.12
			c-0.032-0.032-0.049-0.075-0.049-0.12l0,0c-0.093-0.001-0.168-0.076-0.168-0.169v-0.168c-0.093,0-0.169-0.076-0.169-0.169v-0.099
			l-0.12-0.12c-0.032-0.032-0.049-0.075-0.049-0.12l0,0c-0.093,0-0.169-0.076-0.169-0.169l0,0c-0.093-0.001-0.168-0.076-0.168-0.168
			l0,0c-0.093,0-0.169-0.076-0.169-0.169l0,0c-0.093,0-0.169-0.076-0.169-0.169l0,0c-0.093,0-0.169-0.076-0.169-0.169l0,0
			c-0.093,0-0.169-0.076-0.169-0.168c-0.045,0-0.088-0.018-0.119-0.049l-0.12-0.12h-0.099c-0.093,0-0.169-0.076-0.169-0.169h-0.169
			c-0.093,0-0.169-0.076-0.169-0.169l0,0c-0.045,0-0.088-0.018-0.119-0.049l-0.119-0.119h-0.268c-0.093,0-0.169-0.076-0.169-0.169
			h-0.338c-0.093,0-0.169-0.076-0.169-0.169h-2.533c0,0.093-0.076,0.169-0.169,0.169h-0.337c0,0.093-0.076,0.169-0.169,0.169h-0.268
			l-0.12,0.119c-0.032,0.032-0.075,0.049-0.119,0.049l0,0c0,0.093-0.076,0.169-0.169,0.169h-0.169c0,0.093-0.076,0.169-0.169,0.169
			h-0.099l-0.12,0.12c-0.032,0.032-0.075,0.049-0.119,0.049c0,0.093-0.076,0.168-0.169,0.168l0,0c0,0.093-0.076,0.169-0.169,0.169
			l0,0c0,0.093-0.076,0.169-0.169,0.169l0,0c0,0.093-0.076,0.169-0.169,0.169c0,0.093-0.076,0.168-0.169,0.168l0,0
			c0,0.093-0.076,0.169-0.169,0.169l0,0c0,0.045-0.018,0.088-0.049,0.12l-0.12,0.12v0.099c0,0.093-0.076,0.169-0.169,0.169v0.168
			c0,0.093-0.076,0.169-0.169,0.169l0,0c0,0.045-0.018,0.088-0.049,0.12l-0.119,0.12v0.267c0,0.093-0.076,0.169-0.169,0.169v0.337
			c0,0.093-0.076,0.169-0.169,0.169v1.351c0,0.093-0.076,0.169-0.169,0.169s-0.169-0.076-0.169-0.169v-1.52
			c0-0.093,0.076-0.169,0.169-0.169v-0.337c0-0.093,0.076-0.169,0.169-0.169V36.14c0-0.045,0.018-0.088,0.049-0.12l0.119-0.12
			v-0.099c0-0.093,0.076-0.169,0.169-0.169v-0.168c0-0.093,0.076-0.169,0.169-0.169l0,0c0-0.045,0.018-0.088,0.049-0.12l0.12-0.12
			v-0.099c0-0.093,0.076-0.169,0.169-0.169l0,0c0-0.093,0.076-0.169,0.169-0.169l0,0c0-0.093,0.076-0.168,0.169-0.168l0,0
			c0-0.093,0.076-0.169,0.169-0.169l0,0c0-0.093,0.076-0.169,0.169-0.169l0,0c0-0.093,0.076-0.169,0.169-0.169l0,0
			c0-0.093,0.076-0.168,0.169-0.168h0.099l0.12-0.12c0.032-0.032,0.075-0.049,0.119-0.049l0,0c0-0.093,0.076-0.169,0.169-0.169
			h0.169c0-0.093,0.076-0.169,0.169-0.169h0.099l0.12-0.119c0.032-0.032,0.075-0.049,0.119-0.049h0.169
			c0-0.093,0.076-0.169,0.169-0.169h0.337c0-0.093,0.076-0.169,0.169-0.169h2.871c0.093,0,0.169,0.076,0.169,0.169h0.338
			c0.093,0,0.169,0.076,0.169,0.169h0.169c0.045,0,0.088,0.018,0.119,0.049l0.119,0.119h0.099c0.093,0,0.169,0.076,0.169,0.169
			h0.169c0.093,0,0.169,0.076,0.169,0.169l0,0c0.045,0,0.088,0.018,0.119,0.049l0.12,0.12h0.099c0.093,0,0.169,0.076,0.169,0.168
			l0,0c0.093,0,0.169,0.076,0.169,0.169l0,0c0.093,0,0.169,0.076,0.169,0.169l0,0c0.093,0,0.169,0.076,0.169,0.169l0,0
			c0.093,0,0.168,0.076,0.169,0.168c0.093,0.001,0.168,0.076,0.168,0.169l0,0c0.093,0,0.169,0.076,0.169,0.169v0.099l0.12,0.12
			c0.032,0.032,0.049,0.075,0.049,0.12l0,0c0.093,0,0.169,0.076,0.169,0.169v0.168c0.093,0.001,0.168,0.076,0.168,0.169v0.099
			l0.12,0.12c0.032,0.032,0.049,0.075,0.049,0.12v0.168c0.093,0,0.169,0.076,0.169,0.169v0.337c0.093,0,0.169,0.076,0.169,0.169
			v1.281l0.119,0.12c0.066,0.066,0.066,0.172-0.001,0.238C66.623,38.657,66.581,38.673,66.538,38.673z"/>
	</g>
	<g>
		<path class="st0" d="M55.561,57.081c-0.093,0-0.169-0.076-0.169-0.169V38.504c0-0.093,0.076-0.169,0.169-0.169
			c0.093,0,0.169,0.076,0.169,0.169v18.408C55.73,57.005,55.654,57.081,55.561,57.081z"/>
	</g>
	<g>
		<path class="st0" d="M62.147,62.316h-2.533c-0.045,0-0.088-0.018-0.12-0.049l-0.12-0.12h-0.268c-0.045,0-0.088-0.018-0.12-0.049
			l-0.119-0.12h-0.268c-0.093,0-0.169-0.076-0.169-0.169h-0.169c-0.093,0-0.169-0.076-0.169-0.168h-0.169
			c-0.093,0-0.169-0.076-0.169-0.169l0,0c-0.093,0-0.169-0.076-0.169-0.169l0,0c-0.093,0-0.169-0.076-0.169-0.169l0,0
			c-0.044,0-0.087-0.018-0.119-0.049l-0.12-0.119h-0.099c-0.093,0-0.169-0.076-0.169-0.169l0,0c-0.093,0-0.169-0.076-0.169-0.169
			v-0.099l-0.119-0.12c-0.032-0.032-0.049-0.075-0.049-0.12l0,0c-0.093,0-0.169-0.076-0.169-0.168c-0.093,0-0.169-0.076-0.169-0.169
			l0,0c-0.093,0-0.169-0.076-0.169-0.169v-0.169c-0.093,0-0.169-0.076-0.169-0.169v-0.168c-0.093,0-0.169-0.076-0.169-0.169v-0.268
			l-0.119-0.119c-0.032-0.032-0.05-0.075-0.05-0.12v-0.268l-0.12-0.12c-0.032-0.032-0.049-0.075-0.049-0.12v-1.182
			c0-0.093,0.076-0.169,0.169-0.169c0.093,0,0.169,0.076,0.169,0.169v1.112l0.12,0.12c0.032,0.032,0.049,0.075,0.049,0.12v0.268
			l0.119,0.119c0.032,0.032,0.05,0.075,0.05,0.12v0.169c0.093,0,0.169,0.076,0.169,0.169v0.168c0.093,0,0.169,0.076,0.169,0.169
			v0.169c0.093,0,0.169,0.076,0.169,0.169l0,0c0.093,0,0.168,0.076,0.169,0.168l0,0c0.093,0,0.169,0.076,0.169,0.169v0.099
			l0.119,0.12c0.032,0.032,0.049,0.075,0.049,0.12l0,0c0.093,0,0.169,0.076,0.169,0.169l0,0c0.044,0,0.087,0.018,0.119,0.049
			l0.12,0.119h0.099c0.093,0,0.169,0.076,0.169,0.169l0,0c0.093,0,0.169,0.076,0.169,0.169l0,0c0.093,0,0.169,0.076,0.169,0.169
			h0.169c0.093,0,0.169,0.076,0.169,0.168h0.169c0.093,0,0.169,0.076,0.169,0.169h0.169c0.045,0,0.088,0.018,0.12,0.049l0.119,0.12
			h0.268c0.045,0,0.088,0.018,0.12,0.049l0.12,0.12h2.393l0.12-0.12c0.032-0.032,0.075-0.049,0.12-0.049h0.268l0.12-0.12
			c0.032-0.032,0.075-0.049,0.12-0.049h0.169c0-0.093,0.076-0.169,0.169-0.169h0.169c0-0.093,0.076-0.168,0.169-0.168h0.169
			c0-0.093,0.076-0.169,0.169-0.169l0,0c0-0.093,0.076-0.169,0.169-0.169l0,0c0-0.093,0.076-0.169,0.169-0.169h0.099l0.12-0.119
			c0.032-0.032,0.075-0.049,0.119-0.049l0,0c0-0.093,0.076-0.169,0.169-0.169l0,0c0-0.045,0.018-0.088,0.049-0.12l0.12-0.12V60.12
			c0-0.093,0.076-0.168,0.168-0.169c0.001-0.093,0.076-0.168,0.169-0.168l0,0c0-0.093,0.076-0.169,0.169-0.169v-0.169
			c0-0.093,0.076-0.169,0.169-0.169v-0.168c0-0.093,0.076-0.168,0.168-0.169v-0.169c0-0.045,0.018-0.088,0.05-0.12l0.119-0.119
			v-0.268c0-0.045,0.018-0.088,0.049-0.12l0.12-0.12v-1.112c0-0.093,0.076-0.169,0.169-0.169c0.093,0,0.169,0.076,0.169,0.169v1.182
			c0,0.045-0.018,0.088-0.049,0.12l-0.12,0.12v0.268c0,0.045-0.018,0.088-0.05,0.12l-0.119,0.119v0.268
			c0,0.093-0.076,0.168-0.168,0.169v0.168c0,0.093-0.076,0.169-0.169,0.169v0.169c0,0.093-0.076,0.169-0.169,0.169l0,0
			c0,0.093-0.076,0.169-0.169,0.169l0,0c-0.001,0.093-0.076,0.168-0.168,0.168l0,0c0,0.045-0.018,0.088-0.049,0.12l-0.12,0.12v0.099
			c0,0.093-0.076,0.169-0.169,0.169l0,0c0,0.093-0.076,0.169-0.169,0.169h-0.099l-0.12,0.119c-0.032,0.032-0.075,0.049-0.119,0.049
			l0,0c0,0.093-0.076,0.169-0.169,0.169l0,0c0,0.093-0.076,0.169-0.169,0.169l0,0c0,0.093-0.076,0.169-0.169,0.169h-0.169
			c0,0.093-0.076,0.168-0.169,0.168h-0.169c0,0.093-0.076,0.169-0.169,0.169h-0.268l-0.12,0.12c-0.032,0.032-0.075,0.049-0.12,0.049
			h-0.268l-0.12,0.12C62.234,62.299,62.192,62.316,62.147,62.316z"/>
	</g>
	<g>
		<path class="st0" d="M66.538,57.081c-0.093,0-0.169-0.076-0.169-0.169v-3.884c0-0.093,0.076-0.169,0.169-0.169
			s0.169,0.076,0.169,0.169v3.884C66.707,57.005,66.631,57.081,66.538,57.081z"/>
	</g>
	<g>
		<path class="st0" d="M66.538,51.845c-0.093,0-0.169-0.076-0.169-0.169V38.504c0-0.093,0.076-0.169,0.169-0.169
			s0.169,0.076,0.169,0.169v13.172C66.707,51.77,66.631,51.845,66.538,51.845z"/>
	</g>
	<g>
		<path class="st0" d="M66.538,53.197c-0.043,0-0.087-0.016-0.12-0.05l-0.119-0.119h-0.268c-0.093,0-0.169-0.076-0.169-0.169l0,0
			c-0.093,0-0.169-0.076-0.169-0.169v-0.845c0-0.093,0.076-0.169,0.169-0.169l0,0c0-0.093,0.076-0.169,0.169-0.169h0.506
			c0.093,0,0.169,0.076,0.169,0.169c0,0.093-0.076,0.169-0.169,0.169H66.2c0,0.093-0.076,0.169-0.169,0.169v0.506
			c0.093,0,0.169,0.076,0.169,0.169h0.169c0.045,0,0.088,0.018,0.12,0.05l0.168,0.169c0.066,0.066,0.066,0.172-0.001,0.238
			C66.623,53.181,66.581,53.197,66.538,53.197z"/>
	</g>
	<g>
		<path class="st0" d="M61.809,55.561h-1.52c-0.093,0-0.169-0.076-0.169-0.169s0.076-0.169,0.169-0.169h1.52
			c0.093,0,0.169,0.076,0.169,0.169S61.902,55.561,61.809,55.561z"/>
	</g>
	<g>
		<path class="st0" d="M60.289,55.561c-0.093,0-0.169-0.076-0.169-0.169V54.21c0-0.093,0.076-0.169,0.169-0.169
			c0.093,0,0.169,0.076,0.169,0.169v1.182C60.459,55.485,60.383,55.561,60.289,55.561z"/>
	</g>
	<g>
		<path class="st0" d="M61.809,54.379h-1.52c-0.093,0-0.169-0.076-0.169-0.169c0-0.093,0.076-0.169,0.169-0.169h1.52
			c0.093,0,0.169,0.076,0.169,0.169C61.978,54.303,61.902,54.379,61.809,54.379z"/>
	</g>
	<g>
		<path class="st0" d="M61.809,55.561c-0.093,0-0.169-0.076-0.169-0.169V54.21c0-0.093,0.076-0.169,0.169-0.169
			s0.169,0.076,0.169,0.169v1.182C61.978,55.485,61.902,55.561,61.809,55.561z"/>
	</g>
	<g>
		<path class="st0" d="M61.809,56.405h-1.52c-0.093,0-0.169-0.076-0.169-0.169s0.076-0.169,0.169-0.169h1.52
			c0.093,0,0.169,0.076,0.169,0.169S61.902,56.405,61.809,56.405z"/>
	</g>
	<g>
		<path class="st0" d="M61.809,57.419h-1.52c-0.093,0-0.169-0.076-0.169-0.169c0-0.093,0.076-0.169,0.169-0.169h1.52
			c0.093,0,0.169,0.076,0.169,0.169C61.978,57.343,61.902,57.419,61.809,57.419z"/>
	</g>
	<g>
		<path class="st0" d="M60.289,57.419c-0.093,0-0.169-0.076-0.169-0.169v-1.014c0-0.093,0.076-0.169,0.169-0.169
			c0.093,0,0.169,0.076,0.169,0.169v1.014C60.459,57.343,60.383,57.419,60.289,57.419z"/>
	</g>
	<g>
		<path class="st0" d="M61.809,57.419c-0.093,0-0.169-0.076-0.169-0.169v-1.014c0-0.093,0.076-0.169,0.169-0.169
			s0.169,0.076,0.169,0.169v1.014C61.978,57.343,61.902,57.419,61.809,57.419z"/>
	</g>
	<g>
		<path class="st0" d="M60.289,56.405c-0.093,0-0.169-0.076-0.169-0.169v-0.845c0-0.093,0.076-0.169,0.169-0.169
			c0.093,0,0.169,0.076,0.169,0.169v0.845C60.459,56.33,60.383,56.405,60.289,56.405z"/>
	</g>
	<g>
		<path class="st0" d="M61.809,56.405c-0.093,0-0.169-0.076-0.169-0.169v-0.845c0-0.093,0.076-0.169,0.169-0.169
			s0.169,0.076,0.169,0.169v0.845C61.978,56.33,61.902,56.405,61.809,56.405z"/>
	</g>
	<g>
		<path class="st0" d="M61.809,38.167h-1.52c-0.093,0-0.169-0.076-0.169-0.169c0-0.093,0.076-0.169,0.169-0.169h1.52
			c0.093,0,0.169,0.076,0.169,0.169C61.978,38.091,61.902,38.167,61.809,38.167z"/>
	</g>
	<g>
		<path class="st0" d="M60.289,41.544c-0.093,0-0.169-0.076-0.169-0.169v-3.377c0-0.093,0.076-0.169,0.169-0.169
			c0.093,0,0.169,0.076,0.169,0.169v3.377C60.459,41.468,60.383,41.544,60.289,41.544z"/>
	</g>
	<g>
		<path class="st0" d="M61.809,41.544c-0.093,0-0.169-0.076-0.169-0.169v-3.377c0-0.093,0.076-0.169,0.169-0.169
			s0.169,0.076,0.169,0.169v3.377C61.978,41.468,61.902,41.544,61.809,41.544z"/>
	</g>
	<g>
		<path class="st0" d="M61.809,41.544h-1.52c-0.093,0-0.169-0.076-0.169-0.169c0-0.093,0.076-0.169,0.169-0.169h1.52
			c0.093,0,0.169,0.076,0.169,0.169C61.978,41.468,61.902,41.544,61.809,41.544z"/>
	</g>
	<g>
		<path class="st0" d="M61.809,47.962h-1.52c-0.093,0-0.169-0.076-0.169-0.169c0-0.093,0.076-0.169,0.169-0.169h1.52
			c0.093,0,0.169,0.076,0.169,0.169C61.978,47.886,61.902,47.962,61.809,47.962z"/>
	</g>
	<g>
		<path class="st0" d="M61.809,48.975c-0.093,0-0.169-0.076-0.169-0.169v-1.014c0-0.093,0.076-0.169,0.169-0.169
			s0.169,0.076,0.169,0.169v1.014C61.978,48.9,61.902,48.975,61.809,48.975z"/>
	</g>
	<g>
		<path class="st0" d="M61.809,48.975h-1.52c-0.093,0-0.169-0.076-0.169-0.169c0-0.093,0.076-0.169,0.169-0.169h1.52
			c0.093,0,0.169,0.076,0.169,0.169C61.978,48.9,61.902,48.975,61.809,48.975z"/>
	</g>
	<g>
		<path class="st0" d="M60.289,48.975c-0.093,0-0.169-0.076-0.169-0.169v-1.014c0-0.093,0.076-0.169,0.169-0.169
			c0.093,0,0.169,0.076,0.169,0.169v1.014C60.459,48.9,60.383,48.975,60.289,48.975z"/>
	</g>
	<g>
		<path class="st0" d="M60.289,47.962c-0.093,0-0.169-0.076-0.169-0.169v-1.182c0-0.093,0.076-0.169,0.169-0.169
			c0.093,0,0.169,0.076,0.169,0.169v1.182C60.459,47.886,60.383,47.962,60.289,47.962z"/>
	</g>
	<g>
		<path class="st0" d="M61.809,46.78h-1.52c-0.093,0-0.169-0.076-0.169-0.169c0-0.093,0.076-0.169,0.169-0.169h1.52
			c0.093,0,0.169,0.076,0.169,0.169C61.978,46.704,61.902,46.78,61.809,46.78z"/>
	</g>
	<g>
		<path class="st0" d="M61.809,47.962c-0.093,0-0.169-0.076-0.169-0.169v-1.182c0-0.093,0.076-0.169,0.169-0.169
			s0.169,0.076,0.169,0.169v1.182C61.978,47.886,61.902,47.962,61.809,47.962z"/>
	</g>
	<g>
		<path class="st0" d="M73.8,32.931c-0.062,0-0.122-0.034-0.151-0.093c-0.041-0.084-0.008-0.185,0.076-0.227l0.313-0.156
			l0.318-0.319c0.032-0.032,0.075-0.049,0.12-0.049l0,0c0-0.093,0.076-0.169,0.169-0.169c0.093,0,0.169,0.076,0.169,0.169v0.169
			c0,0.093-0.076,0.169-0.169,0.169h-0.099l-0.288,0.288c-0.013,0.013-0.028,0.024-0.044,0.032l-0.338,0.168
			C73.85,32.926,73.825,32.931,73.8,32.931z"/>
	</g>
	<g>
		<path class="st0" d="M74.644,108.082c-0.093,0-0.169-0.076-0.169-0.169V32.087c0-0.093,0.076-0.169,0.169-0.169
			c0.093,0,0.169,0.076,0.169,0.169v75.827C74.813,108.007,74.738,108.082,74.644,108.082z"/>
	</g>
	<g>
		<path class="st0" d="M74.644,108.082c-0.043,0-0.087-0.016-0.12-0.049l-0.12-0.12h-0.099c-0.045,0-0.088-0.018-0.12-0.05
			l-0.506-0.506c-0.066-0.066-0.066-0.173,0-0.239c0.066-0.066,0.173-0.066,0.239,0l0.457,0.457h0.099
			c0.045,0,0.088,0.018,0.12,0.049l0.169,0.169c0.066,0.066,0.066,0.173,0,0.239C74.731,108.066,74.687,108.082,74.644,108.082z"/>
	</g>
	<g>
		<path class="st0" d="M73.8,29.216c-0.093,0-0.169-0.076-0.169-0.169v-6.925c0-0.093,0.076-0.169,0.169-0.169
			c0.093,0,0.169,0.076,0.169,0.169v6.925C73.969,29.141,73.893,29.216,73.8,29.216z"/>
	</g>
	<g>
		<path class="st0" d="M74.644,22.292H73.8c-0.093,0-0.169-0.076-0.169-0.169s0.076-0.169,0.169-0.169h0.845
			c0.093,0,0.169,0.076,0.169,0.169S74.738,22.292,74.644,22.292z"/>
	</g>
	<g>
		<path class="st0" d="M74.644,29.892c-0.093,0-0.169-0.076-0.169-0.169v-7.6c0-0.093,0.076-0.169,0.169-0.169
			c0.093,0,0.169,0.076,0.169,0.169v7.6C74.813,29.816,74.738,29.892,74.644,29.892z"/>
	</g>
	<g>
		<path class="st0" d="M74.644,29.892c-0.043,0-0.087-0.016-0.12-0.049l-0.487-0.488l-0.313-0.156
			c-0.083-0.042-0.117-0.143-0.076-0.227c0.042-0.084,0.142-0.118,0.227-0.076l0.338,0.168c0.016,0.008,0.031,0.019,0.044,0.032
			l0.506,0.506c0.066,0.066,0.066,0.173,0,0.239C74.731,29.875,74.687,29.892,74.644,29.892z"/>
	</g>
	<g>
		<path class="st0" d="M48.13,32.087c-0.093,0-0.169-0.076-0.169-0.169v-0.845c0-0.093,0.076-0.169,0.169-0.169
			c0.093,0,0.169,0.076,0.169,0.169v0.845C48.299,32.012,48.223,32.087,48.13,32.087z"/>
	</g>
	<g>
		<path class="st0" d="M48.13,32.087h-0.169c-0.045,0-0.088-0.018-0.12-0.049l-0.12-0.12h-0.099c-0.093,0-0.169-0.076-0.169-0.169
			l0,0c-0.093,0-0.169-0.076-0.169-0.169v-0.267l-0.119-0.12c-0.066-0.066-0.066-0.173,0-0.239c0.066-0.066,0.173-0.066,0.239,0
			l0.169,0.169c0.032,0.032,0.049,0.075,0.049,0.12v0.168c0.093,0,0.169,0.076,0.169,0.169l0,0c0.045,0,0.087,0.018,0.119,0.049
			l0.12,0.12h0.099c0.093,0,0.169,0.076,0.169,0.169S48.223,32.087,48.13,32.087z"/>
	</g>
	<g>
		<path class="st0" d="M48.13,31.243h-0.844c-0.093,0-0.169-0.076-0.169-0.169c0-0.093,0.076-0.169,0.169-0.169h0.844
			c0.093,0,0.169,0.076,0.169,0.169C48.299,31.167,48.223,31.243,48.13,31.243z"/>
	</g>
	<g>
		<path class="st0" d="M73.8,22.292H48.13c-0.093,0-0.169-0.076-0.169-0.169s0.076-0.169,0.169-0.169H73.8
			c0.093,0,0.169,0.076,0.169,0.169S73.893,22.292,73.8,22.292z"/>
	</g>
	<g>
		<path class="st0" d="M73.8,32.931c-0.043,0-0.086-0.016-0.119-0.049l-0.12-0.119h-0.098c-0.093,0-0.169-0.076-0.169-0.169l0,0
			c-0.045,0-0.088-0.018-0.12-0.049l-0.12-0.12h-0.099c-0.093,0-0.169-0.076-0.169-0.169v-0.168
			c-0.093-0.001-0.168-0.076-0.168-0.169v-0.099l-0.12-0.12c-0.032-0.032-0.049-0.075-0.049-0.12v-0.337
			c-0.093,0-0.169-0.076-0.169-0.169v-0.507c0-0.093,0.076-0.169,0.169-0.169V30.06c0-0.093,0.076-0.169,0.169-0.169v-0.168
			c0-0.093,0.076-0.168,0.168-0.169l0,0c0-0.045,0.018-0.088,0.049-0.12l0.12-0.12v-0.099c0-0.093,0.076-0.169,0.169-0.169h0.169
			c0.001-0.093,0.076-0.168,0.169-0.168H73.8c0.093,0,0.169,0.076,0.169,0.169s-0.076,0.169-0.169,0.169h-0.168
			c-0.001,0.093-0.076,0.168-0.169,0.168h-0.169c0,0.045-0.018,0.088-0.049,0.12l-0.12,0.12v0.099c0,0.093-0.076,0.168-0.168,0.169
			v0.168c0,0.093-0.076,0.169-0.169,0.169v0.337c0,0.093-0.076,0.169-0.169,0.169v0.169c0.093,0,0.169,0.076,0.169,0.169v0.436
			l0.12,0.12c0.032,0.032,0.049,0.075,0.049,0.12l0,0c0.093,0.001,0.168,0.076,0.168,0.169v0.168c0.045,0,0.088,0.018,0.12,0.049
			l0.12,0.12h0.099c0.093,0,0.169,0.076,0.169,0.169l0,0c0.044,0,0.087,0.018,0.118,0.049l0.169,0.168
			c0.067,0.066,0.067,0.172,0.001,0.238C73.886,32.915,73.843,32.931,73.8,32.931z"/>
	</g>
	<g>
		<path class="st0" d="M73.8,111.122c-0.043,0-0.087-0.016-0.12-0.049l-0.12-0.12h-0.098c-0.093,0-0.168-0.076-0.169-0.168l0,0
			c-0.045,0-0.088-0.018-0.12-0.049l-0.12-0.12h-0.099c-0.093,0-0.169-0.076-0.169-0.169v-0.169
			c-0.093-0.001-0.168-0.076-0.168-0.169v-0.098l-0.12-0.12c-0.032-0.032-0.049-0.075-0.049-0.12v-0.337
			c-0.093,0-0.169-0.076-0.169-0.169v-0.507c0-0.093,0.076-0.169,0.169-0.169v-0.337c0-0.093,0.076-0.169,0.169-0.169v-0.168
			c0-0.093,0.076-0.168,0.168-0.169l0,0c0-0.045,0.018-0.088,0.049-0.12l0.12-0.12v-0.099c0-0.093,0.076-0.169,0.169-0.169h0.169
			c0.001-0.093,0.076-0.168,0.169-0.168H73.8c0.093,0,0.169,0.076,0.169,0.169s-0.076,0.169-0.169,0.169h-0.168
			c-0.001,0.093-0.076,0.168-0.169,0.168h-0.169c0,0.045-0.018,0.088-0.049,0.12l-0.12,0.12v0.099c0,0.093-0.076,0.168-0.168,0.169
			v0.168c0,0.093-0.076,0.169-0.169,0.169v0.337c0,0.093-0.076,0.169-0.169,0.169v0.169c0.093,0,0.169,0.076,0.169,0.169v0.436
			l0.12,0.12c0.032,0.032,0.049,0.074,0.049,0.119c0.093,0.001,0.168,0.076,0.168,0.169v0.169c0.045,0,0.088,0.018,0.12,0.049
			l0.12,0.12h0.099c0.093,0,0.168,0.076,0.169,0.168c0.045,0,0.087,0.018,0.119,0.049l0.169,0.169c0.066,0.066,0.066,0.173,0,0.239
			C73.886,111.105,73.843,111.122,73.8,111.122z"/>
	</g>
	<g>
		<path class="st0" d="M73.8,118.046c-0.093,0-0.169-0.076-0.169-0.169v-6.924c0-0.093,0.076-0.169,0.169-0.169
			c0.093,0,0.169,0.076,0.169,0.169v6.924C73.969,117.97,73.893,118.046,73.8,118.046z"/>
	</g>
	<g>
		<path class="st0" d="M73.8,118.046H48.13c-0.093,0-0.169-0.076-0.169-0.169c0-0.093,0.076-0.169,0.169-0.169H73.8
			c0.093,0,0.169,0.076,0.169,0.169C73.969,117.97,73.893,118.046,73.8,118.046z"/>
	</g>
	<g>
		<path class="st0" d="M48.13,118.046c-0.093,0-0.169-0.076-0.169-0.169v-8.95c0-0.093,0.076-0.169,0.169-0.169
			c0.093,0,0.169,0.076,0.169,0.169v8.95C48.299,117.97,48.223,118.046,48.13,118.046z"/>
	</g>
	<g>
		<path class="st0" d="M48.468,109.095H48.13c-0.093,0-0.169-0.076-0.169-0.169s0.076-0.169,0.169-0.169h0.338
			c0.093,0,0.169,0.076,0.169,0.169S48.561,109.095,48.468,109.095z"/>
	</g>
	<g>
		<path class="st0" d="M48.468,109.095c-0.093,0-0.169-0.076-0.169-0.169v-1.351c0-0.093,0.076-0.169,0.169-0.169
			c0.093,0,0.169,0.076,0.169,0.169v1.351C48.637,109.02,48.561,109.095,48.468,109.095z"/>
	</g>
	<g>
		<path class="st0" d="M48.468,92.714c-0.093,0-0.169-0.076-0.169-0.169V47.454c0-0.093,0.076-0.169,0.169-0.169
			c0.093,0,0.169,0.076,0.169,0.169v45.091C48.637,92.638,48.561,92.714,48.468,92.714z"/>
	</g>
	<g>
		<path class="st0" d="M48.468,32.594c-0.093,0-0.169-0.076-0.169-0.169v-1.351c0-0.093,0.076-0.169,0.169-0.169
			c0.093,0,0.169,0.076,0.169,0.169v1.351C48.637,32.518,48.561,32.594,48.468,32.594z"/>
	</g>
	<g>
		<path class="st0" d="M48.468,31.243H48.13c-0.093,0-0.169-0.076-0.169-0.169c0-0.093,0.076-0.169,0.169-0.169h0.338
			c0.093,0,0.169,0.076,0.169,0.169C48.637,31.167,48.561,31.243,48.468,31.243z"/>
	</g>
	<g>
		<path class="st0" d="M48.13,31.243c-0.093,0-0.169-0.076-0.169-0.169v-8.951c0-0.093,0.076-0.169,0.169-0.169
			c0.093,0,0.169,0.076,0.169,0.169v8.951C48.299,31.167,48.223,31.243,48.13,31.243z"/>
	</g>
	<g>
		<path class="st0" d="M74.644,32.256c-0.043,0-0.086-0.016-0.119-0.049l-0.12-0.119h-0.436c-0.093,0-0.169-0.076-0.169-0.169l0,0
			c-0.093,0-0.169-0.076-0.169-0.169l0,0c-0.093,0-0.169-0.076-0.169-0.169l0,0c-0.093-0.001-0.168-0.076-0.168-0.169v-1.182
			c0-0.093,0.076-0.168,0.168-0.169l0,0c0-0.093,0.076-0.169,0.169-0.169l0,0c0-0.093,0.076-0.169,0.169-0.169l0,0
			c0.001-0.093,0.076-0.168,0.169-0.168h0.675c0.093,0,0.169,0.076,0.169,0.169c0,0.093-0.076,0.169-0.169,0.169h-0.506
			c-0.001,0.093-0.076,0.168-0.169,0.168l0,0c0,0.093-0.076,0.169-0.169,0.169l0,0c0,0.093-0.076,0.168-0.168,0.169v0.844
			c0.093,0.001,0.168,0.076,0.168,0.169l0,0c0.093,0,0.169,0.076,0.169,0.169l0,0c0.093,0,0.169,0.076,0.169,0.169h0.337
			c0.045,0,0.087,0.018,0.119,0.049l0.169,0.168c0.067,0.066,0.067,0.172,0.001,0.238C74.731,32.239,74.687,32.256,74.644,32.256z"
			/>
	</g>
	<g>
		<path class="st0" d="M48.13,22.292h-0.844c-0.093,0-0.169-0.076-0.169-0.169s0.076-0.169,0.169-0.169h0.844
			c0.093,0,0.169,0.076,0.169,0.169S48.223,22.292,48.13,22.292z"/>
	</g>
	<g>
		<path class="st0" d="M47.286,31.243c-0.093,0-0.169-0.076-0.169-0.169v-8.951c0-0.093,0.076-0.169,0.169-0.169
			c0.093,0,0.169,0.076,0.169,0.169v8.951C47.455,31.167,47.379,31.243,47.286,31.243z"/>
	</g>
	<g>
		<path class="st0" d="M47.286,22.292c-0.043,0-0.087-0.016-0.12-0.049c-0.066-0.066-0.066-0.173,0-0.239l0.119-0.119v-0.099
			c0-0.045,0.018-0.088,0.049-0.12l0.338-0.338c0.032-0.032,0.075-0.049,0.12-0.049h0.338c0.093,0,0.169,0.076,0.169,0.169
			s-0.076,0.169-0.169,0.169h-0.268l-0.239,0.239v0.099c0,0.045-0.018,0.088-0.05,0.12l-0.169,0.168
			C47.372,22.275,47.329,22.292,47.286,22.292z"/>
	</g>
	<g>
		<path class="st0" d="M48.13,22.292c-0.093,0-0.169-0.076-0.169-0.169v-0.675c0-0.093,0.076-0.169,0.169-0.169
			c0.093,0,0.169,0.076,0.169,0.169v0.675C48.299,22.216,48.223,22.292,48.13,22.292z"/>
	</g>
	<g>
		<path class="st0" d="M73.8,21.616H48.13c-0.093,0-0.169-0.076-0.169-0.169s0.076-0.169,0.169-0.169H73.8
			c0.093,0,0.169,0.076,0.169,0.169S73.893,21.616,73.8,21.616z"/>
	</g>
	<g>
		<path class="st0" d="M73.8,22.292c-0.093,0-0.169-0.076-0.169-0.169v-0.675c0-0.093,0.076-0.169,0.169-0.169
			c0.093,0,0.169,0.076,0.169,0.169v0.675C73.969,22.216,73.893,22.292,73.8,22.292z"/>
	</g>
	<g>
		<path class="st0" d="M74.475,22.292c-0.043,0-0.086-0.016-0.119-0.049l-0.169-0.168c-0.032-0.032-0.05-0.075-0.05-0.12v-0.169
			c-0.093-0.001-0.168-0.076-0.168-0.169H73.8c-0.093,0-0.169-0.076-0.169-0.169s0.076-0.169,0.169-0.169h0.338
			c0.093,0,0.169,0.076,0.169,0.169l0,0c0.093,0.001,0.168,0.076,0.168,0.169v0.268l0.119,0.119
			c0.067,0.066,0.067,0.172,0.001,0.238C74.562,22.275,74.518,22.292,74.475,22.292z"/>
	</g>
	<g>
		<path class="st0" d="M48.468,32.087H48.13c-0.093,0-0.169-0.076-0.169-0.169s0.076-0.169,0.169-0.169h0.338
			c0.093,0,0.169,0.076,0.169,0.169S48.561,32.087,48.468,32.087z"/>
	</g>
	<g>
		<path class="st0" d="M74.644,110.446c-0.043,0-0.087-0.016-0.12-0.049l-0.12-0.12h-0.436c-0.093,0-0.168-0.076-0.169-0.168l0,0
			c-0.093,0-0.169-0.076-0.169-0.169l0,0c-0.093,0-0.169-0.076-0.169-0.169l0,0c-0.093-0.001-0.168-0.076-0.168-0.169v-1.182
			c0-0.093,0.076-0.168,0.168-0.169l0,0c0-0.093,0.076-0.169,0.169-0.169l0,0c0-0.093,0.076-0.169,0.169-0.169l0,0
			c0.001-0.093,0.076-0.168,0.169-0.168h0.675c0.093,0,0.169,0.076,0.169,0.169c0,0.093-0.076,0.169-0.169,0.169h-0.506
			c-0.001,0.093-0.076,0.168-0.169,0.168l0,0c0,0.093-0.076,0.169-0.169,0.169l0,0c0,0.093-0.076,0.168-0.168,0.169v0.844
			c0.093,0.001,0.168,0.076,0.168,0.169l0,0c0.093,0,0.169,0.076,0.169,0.169l0,0c0.093,0,0.168,0.076,0.169,0.168h0.337
			c0.045,0,0.088,0.018,0.12,0.049l0.169,0.169c0.066,0.066,0.066,0.173,0,0.239C74.731,110.43,74.687,110.446,74.644,110.446z"/>
	</g>
	<g>
		<path class="st0" d="M73.8,111.122c-0.062,0-0.122-0.034-0.151-0.093c-0.042-0.083-0.008-0.185,0.076-0.227l0.313-0.157
			l0.318-0.318c0.032-0.032,0.075-0.049,0.12-0.049h0.169c0.093,0,0.169,0.076,0.169,0.169c0,0.093-0.076,0.169-0.169,0.169h-0.099
			l-0.288,0.288c-0.013,0.012-0.027,0.023-0.044,0.032l-0.338,0.169C73.851,111.116,73.825,111.122,73.8,111.122z"/>
	</g>
	<g>
		<path class="st0" d="M48.13,109.095c-0.093,0-0.169-0.076-0.169-0.169v-0.675c0-0.093,0.076-0.169,0.169-0.169
			c0.093,0,0.169,0.076,0.169,0.169v0.675C48.299,109.02,48.223,109.095,48.13,109.095z"/>
	</g>
	<g>
		<path class="st0" d="M48.468,108.42H48.13c-0.093,0-0.169-0.076-0.169-0.169s0.076-0.169,0.169-0.169h0.338
			c0.093,0,0.169,0.076,0.169,0.169S48.561,108.42,48.468,108.42z"/>
	</g>
	<g>
		<path class="st0" d="M74.644,118.046c-0.093,0-0.169-0.076-0.169-0.169v-7.43c0-0.093,0.076-0.169,0.169-0.169
			c0.093,0,0.169,0.076,0.169,0.169v7.43C74.813,117.97,74.738,118.046,74.644,118.046z"/>
	</g>
	<g>
		<path class="st0" d="M74.644,118.046H73.8c-0.093,0-0.169-0.076-0.169-0.169c0-0.093,0.076-0.169,0.169-0.169h0.845
			c0.093,0,0.169,0.076,0.169,0.169C74.813,117.97,74.738,118.046,74.644,118.046z"/>
	</g>
	<g>
		<path class="st0" d="M48.13,118.046h-0.844c-0.093,0-0.169-0.076-0.169-0.169c0-0.093,0.076-0.169,0.169-0.169h0.844
			c0.093,0,0.169,0.076,0.169,0.169C48.299,117.97,48.223,118.046,48.13,118.046z"/>
	</g>
	<g>
		<path class="st0" d="M47.286,118.046c-0.093,0-0.169-0.076-0.169-0.169v-8.95c0-0.093,0.076-0.169,0.169-0.169
			c0.093,0,0.169,0.076,0.169,0.169v8.95C47.455,117.97,47.379,118.046,47.286,118.046z"/>
	</g>
	<g>
		<path class="st0" d="M48.13,109.095h-0.844c-0.093,0-0.169-0.076-0.169-0.169s0.076-0.169,0.169-0.169h0.844
			c0.093,0,0.169,0.076,0.169,0.169S48.223,109.095,48.13,109.095z"/>
	</g>
	<g>
		<path class="st0" d="M48.13,118.89c-0.043,0-0.087-0.016-0.12-0.049l-0.119-0.12h-0.268c-0.093,0-0.169-0.076-0.169-0.168l0,0
			c-0.093,0-0.169-0.076-0.169-0.169v-0.268l-0.119-0.12c-0.066-0.066-0.066-0.173,0-0.239c0.066-0.066,0.173-0.066,0.239,0
			l0.169,0.169c0.032,0.032,0.049,0.075,0.049,0.12v0.169c0.093,0,0.169,0.076,0.169,0.168h0.169c0.045,0,0.088,0.018,0.12,0.049
			l0.169,0.169c0.066,0.066,0.066,0.173,0,0.239C48.216,118.874,48.173,118.89,48.13,118.89z"/>
	</g>
	<g>
		<path class="st0" d="M48.13,118.89c-0.093,0-0.169-0.076-0.169-0.169v-0.845c0-0.093,0.076-0.169,0.169-0.169
			c0.093,0,0.169,0.076,0.169,0.169v0.845C48.299,118.815,48.223,118.89,48.13,118.89z"/>
	</g>
	<g>
		<path class="st0" d="M47.455,109.095c-0.093,0-0.169-0.076-0.169-0.169v-0.506c0-0.093,0.076-0.169,0.169-0.169l0,0
			c0-0.093,0.076-0.169,0.169-0.169h0.506c0.093,0,0.169,0.076,0.169,0.169s-0.076,0.169-0.169,0.169h-0.337
			c0,0.093-0.076,0.169-0.169,0.169v0.337C47.624,109.02,47.548,109.095,47.455,109.095z"/>
	</g>
	<g>
		<path class="st0" d="M73.8,118.89c-0.093,0-0.169-0.076-0.169-0.169v-0.845c0-0.093,0.076-0.169,0.169-0.169
			c0.093,0,0.169,0.076,0.169,0.169v0.845C73.969,118.815,73.893,118.89,73.8,118.89z"/>
	</g>
	<g>
		<path class="st0" d="M73.8,118.89c-0.043,0-0.087-0.016-0.12-0.049c-0.066-0.066-0.066-0.173,0-0.239l0.169-0.169
			c0.032-0.032,0.075-0.049,0.12-0.049h0.168c0.001-0.093,0.076-0.168,0.169-0.168l0,0c0-0.045,0.018-0.088,0.049-0.12l0.12-0.12
			v-0.099c0-0.093,0.076-0.169,0.169-0.169c0.093,0,0.169,0.076,0.169,0.169v0.169c0,0.045-0.018,0.088-0.049,0.12l-0.12,0.12v0.099
			c0,0.093-0.076,0.169-0.169,0.169l0,0c-0.001,0.093-0.076,0.168-0.169,0.168h-0.267l-0.12,0.12
			C73.886,118.874,73.843,118.89,73.8,118.89z"/>
	</g>
	<g>
		<path class="st0" d="M73.8,118.89H48.13c-0.093,0-0.169-0.076-0.169-0.169c0-0.093,0.076-0.169,0.169-0.169H73.8
			c0.093,0,0.169,0.076,0.169,0.169C73.969,118.815,73.893,118.89,73.8,118.89z"/>
	</g>
	<g>
		<path class="st0" d="M57.081,121.424c-0.093,0-0.169-0.076-0.169-0.169v-2.534c0-0.093,0.076-0.169,0.169-0.169
			c0.093,0,0.169,0.076,0.169,0.169v2.534C57.25,121.348,57.174,121.424,57.081,121.424z"/>
	</g>
	<g>
		<path class="st0" d="M70.422,121.424H57.081c-0.093,0-0.169-0.076-0.169-0.169s0.076-0.169,0.169-0.169h13.341
			c0.093,0,0.169,0.076,0.169,0.169S70.516,121.424,70.422,121.424z"/>
	</g>
	<g>
		<path class="st0" d="M70.422,121.424c-0.093,0-0.169-0.076-0.169-0.169v-2.534c0-0.093,0.076-0.169,0.169-0.169
			c0.093,0,0.169,0.076,0.169,0.169v2.534C70.591,121.348,70.516,121.424,70.422,121.424z"/>
	</g>
	<g>
		<path class="st0" d="M75.658,57.081h-1.014c-0.093,0-0.169-0.076-0.169-0.169c0-0.093,0.076-0.169,0.169-0.169h1.014
			c0.093,0,0.169,0.076,0.169,0.169C75.827,57.005,75.751,57.081,75.658,57.081z"/>
	</g>
	<g>
		<path class="st0" d="M75.658,60.965h-1.014c-0.093,0-0.169-0.076-0.169-0.169c0-0.093,0.076-0.169,0.169-0.169h1.014
			c0.093,0,0.169,0.076,0.169,0.169C75.827,60.89,75.751,60.965,75.658,60.965z"/>
	</g>
	<g>
		<path class="st0" d="M75.658,60.965c-0.093,0-0.169-0.076-0.169-0.169v-3.885c0-0.093,0.076-0.169,0.169-0.169
			c0.093,0,0.169,0.076,0.169,0.169v3.885C75.827,60.89,75.751,60.965,75.658,60.965z"/>
	</g>
	<g>
		<path class="st0" d="M75.658,78.697h-1.014c-0.093,0-0.169-0.076-0.169-0.169c0-0.093,0.076-0.169,0.169-0.169h1.014
			c0.093,0,0.169,0.076,0.169,0.169C75.827,78.622,75.751,78.697,75.658,78.697z"/>
	</g>
	<g>
		<path class="st0" d="M75.658,78.697c-0.093,0-0.169-0.076-0.169-0.169V60.796c0-0.093,0.076-0.169,0.169-0.169
			c0.093,0,0.169,0.076,0.169,0.169v17.732C75.827,78.622,75.751,78.697,75.658,78.697z"/>
	</g>
	<g>
		<path class="st0" d="M75.658,82.582h-1.014c-0.093,0-0.169-0.076-0.169-0.169s0.076-0.169,0.169-0.169h1.014
			c0.093,0,0.169,0.076,0.169,0.169S75.751,82.582,75.658,82.582z"/>
	</g>
	<g>
		<path class="st0" d="M75.658,82.582c-0.093,0-0.169-0.076-0.169-0.169v-3.885c0-0.093,0.076-0.169,0.169-0.169
			c0.093,0,0.169,0.076,0.169,0.169v3.885C75.827,82.506,75.751,82.582,75.658,82.582z"/>
	</g>
	<g>
		<path class="st0" d="M74.644,110.615c-0.093,0-0.169-0.076-0.169-0.169v-2.533c0-0.093,0.076-0.169,0.169-0.169
			c0.093,0,0.169,0.076,0.169,0.169v2.533C74.813,110.54,74.738,110.615,74.644,110.615z"/>
	</g>
	<g>
		<path class="st0" d="M74.644,32.256c-0.093,0-0.169-0.076-0.169-0.169v-2.364c0-0.093,0.076-0.169,0.169-0.169
			c0.093,0,0.169,0.076,0.169,0.169v2.364C74.813,32.18,74.738,32.256,74.644,32.256z"/>
	</g>
	<g>
		<path class="st0" d="M62.654,66.2h-3.546c-0.093,0-0.169-0.076-0.169-0.169h-0.506c-0.045,0-0.088-0.018-0.119-0.049l-0.12-0.119
			h-0.268c-0.045,0-0.088-0.018-0.12-0.049l-0.119-0.12h-0.268c-0.045,0-0.088-0.018-0.12-0.049l-0.12-0.12h-0.099
			c-0.045,0-0.088-0.018-0.12-0.049l-0.12-0.12h-0.099c-0.045,0-0.088-0.018-0.119-0.049l-0.12-0.119h-0.099
			c-0.045,0-0.088-0.018-0.12-0.049l-0.12-0.12h-0.099c-0.093,0-0.169-0.076-0.169-0.169l0,0c-0.045,0-0.088-0.018-0.12-0.049
			l-0.119-0.12h-0.099c-0.093,0-0.169-0.076-0.169-0.169l0,0c-0.044,0-0.087-0.018-0.119-0.049l-0.289-0.288h-0.099
			c-0.093,0-0.169-0.076-0.169-0.169l0,0c-0.093,0-0.169-0.076-0.169-0.169l0,0c-0.093,0-0.169-0.076-0.169-0.168
			c-0.093,0-0.169-0.076-0.169-0.169l0,0c-0.093,0-0.169-0.076-0.169-0.169l0,0c-0.093,0-0.169-0.076-0.169-0.169l0,0
			c-0.093,0-0.168-0.076-0.169-0.168l0,0c-0.093,0-0.169-0.076-0.169-0.169v-0.099l-0.288-0.289
			c-0.031-0.032-0.049-0.074-0.049-0.119c-0.093,0-0.169-0.076-0.169-0.169v-0.099l-0.12-0.12c-0.032-0.032-0.049-0.075-0.049-0.12
			l0,0c-0.093,0-0.169-0.076-0.169-0.169v-0.098l-0.12-0.12c-0.032-0.032-0.049-0.075-0.049-0.12v-0.099l-0.119-0.12
			c-0.032-0.032-0.049-0.075-0.049-0.12v-0.098l-0.12-0.12c-0.032-0.032-0.049-0.075-0.049-0.12v-0.099l-0.119-0.12
			c-0.032-0.032-0.049-0.075-0.049-0.12v-0.267l-0.12-0.12c-0.032-0.032-0.049-0.075-0.049-0.12v-0.268l-0.119-0.119
			c-0.032-0.032-0.05-0.075-0.05-0.12V58.77c-0.093,0-0.169-0.076-0.169-0.169v-1.689c0-0.093,0.076-0.169,0.169-0.169
			c0.093,0,0.169,0.076,0.169,0.169v1.52c0.093,0,0.169,0.076,0.169,0.169v0.605l0.119,0.119c0.032,0.032,0.05,0.075,0.05,0.12
			v0.268l0.12,0.12c0.032,0.032,0.049,0.075,0.049,0.12v0.267l0.119,0.12c0.032,0.032,0.049,0.075,0.049,0.12v0.099l0.12,0.12
			c0.032,0.032,0.049,0.075,0.049,0.12v0.098l0.119,0.12c0.032,0.032,0.049,0.075,0.049,0.12v0.099l0.12,0.12
			c0.031,0.032,0.049,0.074,0.049,0.119c0.093,0,0.169,0.076,0.169,0.169v0.099l0.12,0.12c0.032,0.032,0.049,0.075,0.049,0.12l0,0
			c0.093,0,0.169,0.076,0.169,0.169v0.098l0.288,0.289c0.032,0.032,0.049,0.075,0.049,0.12l0,0c0.093,0,0.169,0.076,0.169,0.168
			c0.093,0,0.169,0.076,0.169,0.169l0,0c0.093,0,0.169,0.076,0.169,0.169l0,0c0.093,0,0.169,0.076,0.169,0.169l0,0
			c0.093,0,0.168,0.076,0.169,0.168l0,0c0.093,0,0.169,0.076,0.169,0.169l0,0c0.093,0,0.169,0.076,0.169,0.169l0,0
			c0.045,0,0.088,0.018,0.12,0.049l0.288,0.288h0.099c0.093,0,0.169,0.076,0.169,0.169l0,0c0.045,0,0.088,0.018,0.12,0.049
			l0.119,0.12h0.099c0.093,0,0.169,0.076,0.169,0.169l0,0c0.045,0,0.088,0.018,0.119,0.049l0.12,0.12h0.099
			c0.045,0,0.088,0.018,0.119,0.049l0.12,0.119h0.099c0.045,0,0.088,0.018,0.12,0.049l0.12,0.12h0.099
			c0.045,0,0.088,0.018,0.12,0.049l0.12,0.12h0.268c0.045,0,0.088,0.018,0.12,0.049l0.119,0.12h0.268
			c0.045,0,0.088,0.018,0.119,0.049l0.12,0.119h0.606c0.093,0,0.169,0.076,0.169,0.169h3.208c0-0.093,0.076-0.169,0.169-0.169h0.606
			l0.12-0.119c0.032-0.032,0.075-0.049,0.119-0.049h0.268l0.119-0.12c0.032-0.032,0.075-0.049,0.12-0.049h0.268l0.12-0.12
			c0.032-0.032,0.075-0.049,0.12-0.049h0.099l0.12-0.12c0.032-0.032,0.075-0.049,0.12-0.049h0.099l0.119-0.119
			c0.032-0.032,0.075-0.049,0.12-0.049h0.099l0.12-0.12c0.032-0.032,0.075-0.049,0.12-0.049l0,0c0-0.093,0.076-0.169,0.169-0.169
			h0.098l0.12-0.12c0.032-0.032,0.075-0.049,0.12-0.049l0,0c0-0.093,0.076-0.169,0.169-0.169h0.099l0.288-0.288
			c0.032-0.032,0.075-0.049,0.12-0.049l0,0c0-0.093,0.076-0.169,0.169-0.169l0,0c0-0.093,0.076-0.169,0.169-0.169l0,0
			c0.001-0.093,0.076-0.168,0.168-0.168l0,0c0-0.093,0.076-0.169,0.169-0.169l0,0c0-0.093,0.076-0.169,0.169-0.169l0,0
			c0-0.093,0.076-0.169,0.169-0.169l0,0c0.001-0.093,0.076-0.168,0.168-0.168l0,0c0-0.045,0.018-0.088,0.049-0.12l0.289-0.289
			v-0.098c0-0.093,0.076-0.169,0.169-0.169l0,0c0-0.045,0.018-0.087,0.049-0.119l0.119-0.12V61.64c0-0.093,0.076-0.169,0.169-0.169
			l0,0c0-0.045,0.018-0.087,0.049-0.119l0.12-0.12v-0.099c0-0.045,0.018-0.088,0.049-0.12l0.12-0.12v-0.098
			c0-0.045,0.018-0.087,0.049-0.119l0.119-0.12v-0.099c0-0.045,0.018-0.088,0.049-0.12l0.12-0.12v-0.267
			c0-0.045,0.018-0.088,0.049-0.12l0.12-0.12v-0.268c0-0.045,0.018-0.088,0.05-0.12l0.119-0.119v-0.605
			c0-0.093,0.076-0.168,0.168-0.169v-1.52c0-0.093,0.076-0.169,0.169-0.169s0.169,0.076,0.169,0.169v1.689
			c0,0.093-0.076,0.168-0.168,0.169v0.506c0,0.045-0.018,0.088-0.05,0.12l-0.119,0.119v0.268c0,0.045-0.018,0.088-0.049,0.12
			l-0.12,0.12v0.267c0,0.045-0.018,0.088-0.049,0.12l-0.12,0.12v0.099c0,0.045-0.018,0.087-0.049,0.119l-0.119,0.12v0.098
			c0,0.045-0.018,0.088-0.049,0.12l-0.12,0.12v0.099c0,0.045-0.018,0.088-0.049,0.12l-0.12,0.12v0.098
			c0,0.093-0.076,0.169-0.169,0.169l0,0c0,0.045-0.018,0.087-0.049,0.119l-0.119,0.12v0.099c0,0.093-0.076,0.169-0.169,0.169l0,0
			c0,0.045-0.018,0.087-0.049,0.119l-0.289,0.289v0.099c0,0.093-0.076,0.168-0.168,0.169c-0.001,0.093-0.076,0.168-0.169,0.168l0,0
			c0,0.093-0.076,0.169-0.169,0.169l0,0c0,0.093-0.076,0.169-0.169,0.169l0,0c0,0.093-0.076,0.168-0.168,0.169
			c-0.001,0.093-0.076,0.168-0.169,0.168l0,0c0,0.093-0.076,0.169-0.169,0.169l0,0c0,0.093-0.076,0.169-0.169,0.169h-0.099
			l-0.288,0.288c-0.032,0.032-0.075,0.049-0.12,0.049l0,0c0,0.093-0.076,0.169-0.169,0.169h-0.099l-0.12,0.12
			c-0.032,0.032-0.074,0.049-0.119,0.049l0,0c0,0.093-0.076,0.169-0.169,0.169h-0.099l-0.12,0.12
			c-0.032,0.032-0.075,0.049-0.12,0.049h-0.099l-0.119,0.119c-0.032,0.032-0.075,0.049-0.12,0.049h-0.099l-0.12,0.12
			c-0.032,0.032-0.075,0.049-0.12,0.049h-0.099l-0.12,0.12c-0.032,0.032-0.075,0.049-0.12,0.049h-0.268l-0.119,0.12
			c-0.032,0.032-0.075,0.049-0.12,0.049h-0.268l-0.12,0.119c-0.032,0.032-0.075,0.049-0.119,0.049h-0.506
			C62.823,66.125,62.747,66.2,62.654,66.2z"/>
	</g>
	<g>
		<path class="st0" d="M62.316,63.836h-2.871c-0.045,0-0.088-0.018-0.119-0.049l-0.119-0.119h-0.437
			c-0.093,0-0.169-0.076-0.169-0.169h-0.338c-0.093,0-0.169-0.076-0.169-0.169h-0.169c-0.093,0-0.169-0.076-0.169-0.169h-0.169
			c-0.093,0-0.169-0.076-0.169-0.168h-0.169c-0.093,0-0.169-0.076-0.169-0.169l0,0c-0.045,0-0.088-0.018-0.119-0.049l-0.12-0.12
			h-0.099c-0.093,0-0.169-0.076-0.169-0.169l0,0c-0.045,0-0.088-0.018-0.119-0.049l-0.507-0.506
			c-0.032-0.032-0.049-0.075-0.049-0.12l0,0c-0.045,0-0.088-0.018-0.119-0.049l-0.507-0.506c-0.032-0.032-0.049-0.075-0.049-0.12
			l0,0c-0.093,0-0.169-0.076-0.169-0.169v-0.098l-0.119-0.12c-0.032-0.032-0.049-0.075-0.049-0.12l0,0
			c-0.093,0-0.169-0.076-0.169-0.169v-0.169c-0.093,0-0.169-0.076-0.169-0.169v-0.168c-0.093,0-0.169-0.076-0.169-0.169v-0.169
			c-0.093,0-0.169-0.076-0.169-0.169v-0.337c-0.093,0-0.169-0.076-0.169-0.169v-0.436l-0.12-0.12
			c-0.032-0.032-0.049-0.075-0.049-0.12v-1.351c0-0.093,0.076-0.169,0.169-0.169c0.093,0,0.169,0.076,0.169,0.169v1.281l0.12,0.12
			c0.032,0.032,0.049,0.075,0.049,0.12v0.337c0.093,0,0.169,0.076,0.169,0.169v0.337c0.093,0,0.169,0.076,0.169,0.169v0.169
			c0.093,0,0.169,0.076,0.169,0.169v0.168c0.093,0,0.169,0.076,0.169,0.169v0.169c0.093,0,0.169,0.076,0.169,0.169v0.099l0.119,0.12
			c0.032,0.032,0.049,0.074,0.049,0.119l0,0c0.093,0,0.169,0.076,0.169,0.169v0.099l0.407,0.407h0.099
			c0.093,0,0.169,0.076,0.169,0.169v0.099l0.407,0.407h0.099c0.093,0,0.169,0.076,0.169,0.169l0,0c0.045,0,0.088,0.018,0.119,0.049
			l0.12,0.12h0.099c0.093,0,0.169,0.076,0.169,0.169h0.169c0.093,0,0.169,0.076,0.169,0.168h0.169c0.093,0,0.169,0.076,0.169,0.169
			h0.169c0.093,0,0.169,0.076,0.169,0.169h0.338c0.093,0,0.169,0.076,0.169,0.169h0.338c0.045,0,0.088,0.018,0.119,0.049
			l0.119,0.119h2.731l0.119-0.119c0.032-0.032,0.075-0.049,0.119-0.049h0.338c0-0.093,0.076-0.169,0.169-0.169h0.338
			c0-0.093,0.076-0.169,0.169-0.169h0.169c0-0.093,0.076-0.169,0.169-0.169h0.169c0-0.093,0.076-0.168,0.169-0.168h0.169
			c0-0.093,0.076-0.169,0.169-0.169h0.099l0.12-0.12c0.032-0.032,0.075-0.049,0.12-0.049l0,0c0-0.093,0.076-0.169,0.169-0.169h0.098
			l0.408-0.407V61.64c0-0.093,0.076-0.169,0.169-0.169h0.098l0.408-0.407v-0.099c0-0.093,0.076-0.168,0.168-0.169
			c0-0.045,0.018-0.087,0.049-0.119l0.12-0.12v-0.099c0-0.093,0.076-0.169,0.169-0.169V60.12c0-0.093,0.076-0.169,0.169-0.169
			v-0.168c0-0.093,0.076-0.169,0.169-0.169v-0.169c0-0.093,0.076-0.168,0.168-0.169v-0.337c0-0.093,0.076-0.169,0.169-0.169v-0.337
			c0-0.045,0.018-0.088,0.049-0.12l0.12-0.12v-1.281c0-0.093,0.076-0.169,0.169-0.169c0.093,0,0.169,0.076,0.169,0.169v1.351
			c0,0.045-0.018,0.088-0.049,0.12l-0.12,0.12v0.436c0,0.093-0.076,0.169-0.169,0.169v0.337c0,0.093-0.076,0.168-0.168,0.169v0.169
			c0,0.093-0.076,0.169-0.169,0.169v0.168c0,0.093-0.076,0.169-0.169,0.169v0.169c0,0.093-0.076,0.169-0.169,0.169l0,0
			c0,0.045-0.018,0.088-0.049,0.12l-0.12,0.12v0.098c0,0.093-0.076,0.168-0.168,0.169l0,0c0,0.045-0.018,0.088-0.049,0.12
			l-0.508,0.506c-0.031,0.032-0.074,0.049-0.118,0.049l0,0c0,0.045-0.018,0.088-0.049,0.12l-0.508,0.506
			c-0.031,0.032-0.074,0.049-0.118,0.049l0,0c0,0.093-0.076,0.169-0.169,0.169h-0.099l-0.12,0.12
			c-0.032,0.032-0.075,0.049-0.119,0.049l0,0c0,0.093-0.076,0.169-0.169,0.169h-0.169c0,0.093-0.076,0.168-0.169,0.168h-0.169
			c0,0.093-0.076,0.169-0.169,0.169h-0.169c0,0.093-0.076,0.169-0.169,0.169H63.16c0,0.093-0.076,0.169-0.169,0.169h-0.437
			l-0.119,0.119C62.404,63.818,62.361,63.836,62.316,63.836z"/>
	</g>
	<g>
		<path class="st0" d="M67.889,57.081c-0.093,0-0.169-0.076-0.169-0.169V38.504c0-0.093,0.076-0.169,0.169-0.169
			c0.093,0,0.169,0.076,0.169,0.169v18.408C68.058,57.005,67.983,57.081,67.889,57.081z"/>
	</g>
	<g>
		<path class="st0" d="M70.253,38.673c-0.043,0-0.087-0.016-0.12-0.049l-0.169-0.169c-0.032-0.032-0.049-0.075-0.049-0.12v-1.519
			c-0.093-0.001-0.168-0.076-0.168-0.169v-0.605l-0.12-0.12c-0.032-0.032-0.049-0.075-0.049-0.12v-0.267l-0.12-0.12
			c-0.032-0.032-0.049-0.075-0.049-0.12v-0.268l-0.12-0.12c-0.032-0.032-0.049-0.075-0.049-0.12V34.69l-0.119-0.12
			c-0.032-0.032-0.049-0.074-0.049-0.119v-0.099l-0.12-0.12c-0.032-0.032-0.049-0.075-0.049-0.12v-0.098l-0.12-0.12
			c-0.032-0.032-0.049-0.075-0.049-0.12l0,0c-0.093,0-0.169-0.076-0.169-0.169v-0.099l-0.119-0.119
			c-0.032-0.032-0.049-0.075-0.049-0.12l0,0c-0.093,0-0.169-0.076-0.169-0.169v-0.099l-0.288-0.288
			c-0.032-0.032-0.05-0.075-0.05-0.12l0,0c-0.093-0.001-0.168-0.076-0.168-0.169l0,0c-0.093,0-0.169-0.076-0.169-0.169l0,0
			c-0.093,0-0.168-0.076-0.169-0.168l0,0c-0.093,0-0.169-0.076-0.169-0.169l0,0c-0.093-0.001-0.168-0.076-0.168-0.169l0,0
			c-0.093,0-0.169-0.076-0.169-0.169l0,0c-0.093,0-0.168-0.076-0.169-0.168l0,0c-0.045,0-0.088-0.018-0.12-0.049l-0.288-0.289H66.2
			c-0.093,0-0.169-0.076-0.169-0.169l0,0c-0.045,0-0.088-0.018-0.12-0.049l-0.12-0.12h-0.098c-0.093,0-0.168-0.076-0.169-0.168l0,0
			c-0.045,0-0.088-0.018-0.12-0.049l-0.12-0.12h-0.099c-0.045,0-0.088-0.018-0.12-0.05l-0.119-0.119h-0.099
			c-0.045,0-0.088-0.018-0.12-0.049l-0.12-0.12h-0.099c-0.045,0-0.088-0.018-0.119-0.049l-0.12-0.119h-0.268
			c-0.045,0-0.088-0.018-0.12-0.049l-0.119-0.12h-0.268c-0.045,0-0.088-0.018-0.12-0.049l-0.12-0.12h-0.605
			c-0.093,0-0.169-0.076-0.169-0.169h-3.208c0,0.093-0.076,0.169-0.169,0.169h-0.605l-0.12,0.12
			c-0.032,0.032-0.075,0.049-0.12,0.049h-0.268l-0.119,0.12c-0.032,0.032-0.075,0.049-0.12,0.049h-0.268l-0.12,0.119
			c-0.032,0.032-0.075,0.049-0.119,0.049h-0.099l-0.12,0.12c-0.032,0.032-0.075,0.049-0.12,0.049h-0.099l-0.12,0.12
			c-0.032,0.032-0.075,0.049-0.12,0.049h-0.099l-0.12,0.12c-0.032,0.032-0.075,0.049-0.119,0.049c0,0.093-0.076,0.168-0.169,0.168
			h-0.099l-0.119,0.12c-0.032,0.032-0.075,0.049-0.12,0.049l0,0c0,0.093-0.076,0.169-0.169,0.169h-0.099l-0.288,0.289
			c-0.032,0.032-0.075,0.049-0.12,0.049l0,0c0,0.093-0.076,0.168-0.169,0.168l0,0c0,0.093-0.076,0.169-0.169,0.169l0,0
			c0,0.093-0.076,0.169-0.169,0.169l0,0c0,0.093-0.076,0.169-0.169,0.169l0,0c0,0.093-0.076,0.168-0.169,0.168l0,0
			c0,0.093-0.076,0.169-0.169,0.169l0,0c0,0.093-0.076,0.169-0.169,0.169l0,0c0,0.045-0.018,0.088-0.05,0.12l-0.288,0.288V33.1
			c0,0.093-0.076,0.169-0.169,0.169l0,0c0,0.045-0.018,0.088-0.05,0.12l-0.119,0.119v0.099c0,0.093-0.076,0.169-0.169,0.169l0,0
			c0,0.045-0.018,0.088-0.049,0.12l-0.12,0.12v0.098c0,0.045-0.018,0.088-0.049,0.12l-0.119,0.12v0.099
			c0,0.045-0.018,0.088-0.049,0.12l-0.12,0.12v0.098c0,0.045-0.018,0.088-0.049,0.12l-0.119,0.12v0.268
			c0,0.045-0.018,0.088-0.049,0.12l-0.12,0.12v0.267c0,0.045-0.018,0.088-0.049,0.12l-0.119,0.12v0.605
			c0,0.093-0.076,0.169-0.169,0.169v1.688c0,0.093-0.076,0.169-0.169,0.169c-0.093,0-0.169-0.076-0.169-0.169v-1.857
			c0-0.093,0.076-0.169,0.169-0.169v-0.506c0-0.045,0.018-0.088,0.049-0.12l0.119-0.12v-0.267c0-0.045,0.018-0.088,0.049-0.12
			l0.12-0.12v-0.268c0-0.045,0.018-0.088,0.049-0.12l0.119-0.12V34.62c0-0.045,0.018-0.088,0.049-0.12l0.12-0.12v-0.099
			c0-0.045,0.018-0.088,0.049-0.12l0.119-0.12v-0.098c0-0.045,0.018-0.088,0.049-0.12l0.12-0.12v-0.099
			c0-0.093,0.076-0.169,0.169-0.169l0,0c0-0.045,0.018-0.088,0.05-0.12l0.119-0.119V33.1c0-0.093,0.076-0.169,0.169-0.169l0,0
			c0-0.045,0.018-0.088,0.049-0.12l0.288-0.288v-0.099c0-0.093,0.076-0.169,0.169-0.169l0,0c0-0.093,0.076-0.169,0.169-0.169l0,0
			c0-0.093,0.076-0.169,0.169-0.169l0,0c0-0.093,0.076-0.168,0.169-0.168l0,0c0-0.093,0.076-0.169,0.169-0.169l0,0
			c0-0.093,0.076-0.169,0.169-0.169l0,0c0-0.093,0.076-0.169,0.169-0.169c0-0.093,0.076-0.168,0.169-0.168h0.099l0.288-0.289
			c0.032-0.032,0.075-0.049,0.119-0.049l0,0c0-0.093,0.076-0.169,0.169-0.169h0.099l0.119-0.12c0.032-0.032,0.075-0.049,0.12-0.049
			l0,0c0-0.093,0.076-0.168,0.169-0.168h0.099l0.12-0.12c0.032-0.032,0.075-0.049,0.12-0.049h0.099l0.12-0.12
			c0.032-0.032,0.075-0.049,0.12-0.049h0.099l0.12-0.12c0.032-0.032,0.075-0.049,0.12-0.049h0.099l0.12-0.119
			c0.032-0.032,0.075-0.049,0.119-0.049h0.268l0.119-0.12c0.032-0.032,0.075-0.049,0.12-0.049h0.268l0.12-0.12
			c0.032-0.032,0.075-0.049,0.12-0.049h0.506c0-0.093,0.076-0.169,0.169-0.169h3.546c0.093,0,0.169,0.076,0.169,0.169h0.506
			c0.045,0,0.088,0.018,0.12,0.049l0.12,0.12h0.268c0.045,0,0.088,0.018,0.12,0.049l0.119,0.12h0.268
			c0.045,0,0.088,0.018,0.119,0.049l0.12,0.119h0.099c0.045,0,0.088,0.018,0.12,0.049l0.12,0.12h0.099
			c0.045,0,0.088,0.018,0.12,0.05l0.119,0.119h0.099c0.045,0,0.088,0.018,0.12,0.049l0.12,0.12h0.099
			c0.093,0,0.168,0.076,0.169,0.168c0.045,0,0.087,0.018,0.119,0.049l0.12,0.12H66.2c0.093,0,0.169,0.076,0.169,0.169l0,0
			c0.045,0,0.088,0.018,0.12,0.05l0.288,0.288h0.099c0.093,0,0.168,0.076,0.169,0.168l0,0c0.093,0,0.169,0.076,0.169,0.169l0,0
			c0.093,0,0.169,0.076,0.169,0.169l0,0c0.093,0.001,0.168,0.076,0.168,0.169l0,0c0.093,0,0.168,0.076,0.169,0.168l0,0
			c0.093,0,0.169,0.076,0.169,0.169l0,0c0.093,0,0.169,0.076,0.169,0.169l0,0c0.093,0.001,0.168,0.076,0.168,0.169v0.099
			l0.289,0.288c0.032,0.032,0.049,0.075,0.049,0.12l0,0c0.093,0,0.169,0.076,0.169,0.169v0.099l0.119,0.119
			c0.032,0.032,0.049,0.075,0.049,0.12l0,0c0.093,0,0.169,0.076,0.169,0.169v0.099l0.12,0.12c0.032,0.032,0.049,0.075,0.049,0.12
			v0.098l0.12,0.12c0.032,0.032,0.049,0.075,0.049,0.12v0.099l0.119,0.12c0.032,0.032,0.049,0.074,0.049,0.119v0.098l0.12,0.12
			c0.032,0.032,0.049,0.075,0.049,0.12v0.268l0.12,0.12c0.032,0.032,0.049,0.075,0.049,0.12v0.267l0.12,0.12
			c0.032,0.032,0.049,0.075,0.049,0.12v0.506c0.093,0.001,0.168,0.076,0.168,0.169v1.618l0.12,0.12c0.066,0.066,0.066,0.173,0,0.239
			C70.34,38.657,70.296,38.673,70.253,38.673z"/>
	</g>
	<g>
		<path class="st0" d="M67.889,38.673c-0.043,0-0.087-0.016-0.12-0.049l-0.169-0.169c-0.032-0.032-0.049-0.075-0.049-0.12v-1.281
			l-0.119-0.119c-0.032-0.032-0.05-0.075-0.05-0.12v-0.338c-0.093,0-0.169-0.076-0.169-0.169v-0.337
			c-0.093-0.001-0.168-0.076-0.168-0.169v-0.168c-0.093,0-0.169-0.076-0.169-0.169v-0.169c-0.093,0-0.169-0.076-0.169-0.169v-0.169
			c-0.093,0-0.169-0.076-0.169-0.169V34.69l-0.12-0.12c-0.032-0.032-0.049-0.075-0.049-0.12l0,0
			c-0.093-0.001-0.168-0.076-0.168-0.169v-0.099l-0.408-0.407h-0.098c-0.093,0-0.169-0.076-0.169-0.169v-0.099L65.116,33.1h-0.098
			c-0.093,0-0.169-0.076-0.169-0.169l0,0c-0.045,0-0.088-0.018-0.119-0.049l-0.12-0.119h-0.099c-0.093,0-0.169-0.076-0.169-0.169
			h-0.169c-0.093,0-0.169-0.076-0.169-0.169h-0.169c-0.093,0-0.169-0.076-0.169-0.169h-0.169c-0.093,0-0.169-0.076-0.169-0.168
			h-0.338c-0.093,0-0.169-0.076-0.169-0.169h-0.338c-0.045,0-0.088-0.018-0.12-0.049l-0.119-0.12h-2.731l-0.119,0.12
			c-0.032,0.032-0.075,0.049-0.12,0.049h-0.338c0,0.093-0.076,0.169-0.169,0.169h-0.338c0,0.093-0.076,0.168-0.169,0.168h-0.169
			c0,0.093-0.076,0.169-0.169,0.169h-0.169c0,0.093-0.076,0.169-0.169,0.169h-0.169c0,0.093-0.076,0.169-0.169,0.169H57.15
			l-0.12,0.119c-0.032,0.032-0.075,0.049-0.119,0.049l0,0c0,0.093-0.076,0.169-0.169,0.169h-0.099l-0.407,0.407v0.099
			c0,0.093-0.076,0.169-0.169,0.169h-0.099l-0.407,0.407v0.099c0,0.093-0.076,0.169-0.169,0.169l0,0c0,0.045-0.018,0.088-0.049,0.12
			l-0.119,0.12v0.098c0,0.093-0.076,0.169-0.169,0.169v0.169c0,0.093-0.076,0.169-0.169,0.169v0.169
			c0,0.093-0.076,0.169-0.169,0.169v0.168c0,0.093-0.076,0.169-0.169,0.169v0.337c0,0.093-0.076,0.169-0.169,0.169v0.338
			c0,0.045-0.018,0.088-0.05,0.12l-0.119,0.119v1.45c0,0.093-0.076,0.169-0.169,0.169c-0.093,0-0.169-0.076-0.169-0.169v-1.52
			c0-0.045,0.018-0.088,0.05-0.12l0.119-0.119v-0.437c0-0.093,0.076-0.169,0.169-0.169v-0.337c0-0.093,0.076-0.169,0.169-0.169
			v-0.168c0-0.093,0.076-0.169,0.169-0.169v-0.169c0-0.093,0.076-0.169,0.169-0.169v-0.169c0-0.093,0.076-0.169,0.169-0.169l0,0
			c0-0.045,0.018-0.087,0.049-0.119l0.119-0.12v-0.099c0-0.093,0.076-0.169,0.169-0.169l0,0c0-0.045,0.018-0.088,0.05-0.12
			l0.506-0.506c0.032-0.032,0.075-0.049,0.12-0.049l0,0c0-0.045,0.018-0.088,0.05-0.12l0.506-0.506
			c0.032-0.032,0.075-0.049,0.12-0.049l0,0c0-0.093,0.076-0.169,0.169-0.169h0.099l0.12-0.119c0.032-0.032,0.075-0.049,0.119-0.049
			l0,0c0-0.093,0.076-0.169,0.169-0.169h0.169c0-0.093,0.076-0.169,0.169-0.169h0.169c0-0.093,0.076-0.169,0.169-0.169h0.169
			c0-0.093,0.076-0.168,0.169-0.168H58.6c0-0.093,0.076-0.169,0.169-0.169h0.437l0.119-0.12c0.032-0.032,0.075-0.049,0.12-0.049
			h2.871c0.045,0,0.088,0.018,0.12,0.049l0.119,0.12h0.437c0.093,0,0.169,0.076,0.169,0.169h0.338c0.093,0,0.169,0.076,0.169,0.168
			h0.169c0.093,0,0.169,0.076,0.169,0.169h0.169c0.093,0,0.169,0.076,0.169,0.169h0.169c0.093,0,0.169,0.076,0.169,0.169l0,0
			c0.044,0,0.087,0.018,0.119,0.049l0.12,0.119h0.099c0.093,0,0.169,0.076,0.169,0.169l0,0c0.045,0,0.087,0.018,0.119,0.049
			l0.506,0.506c0.032,0.032,0.05,0.075,0.05,0.12l0,0c0.045,0,0.087,0.018,0.119,0.049l0.506,0.506
			c0.032,0.032,0.05,0.075,0.05,0.12l0,0c0.093,0.001,0.168,0.076,0.168,0.169v0.099l0.12,0.12c0.032,0.032,0.049,0.074,0.049,0.119
			l0,0c0.093,0,0.169,0.076,0.169,0.169v0.169c0.093,0,0.169,0.076,0.169,0.169v0.169c0.093,0,0.169,0.076,0.169,0.169v0.168
			c0.093,0.001,0.168,0.076,0.168,0.169v0.337c0.093,0,0.169,0.076,0.169,0.169v0.437l0.119,0.119c0.032,0.032,0.05,0.075,0.05,0.12
			v1.281l0.12,0.12c0.066,0.066,0.066,0.173,0,0.239C67.976,38.657,67.932,38.673,67.889,38.673z"/>
	</g>
	<g>
		<path class="st0" d="M54.041,57.081c-0.093,0-0.169-0.076-0.169-0.169V38.504c0-0.093,0.076-0.169,0.169-0.169
			c0.093,0,0.169,0.076,0.169,0.169v18.408C54.21,57.005,54.134,57.081,54.041,57.081z"/>
	</g>
	<g>
		<path class="st0" d="M51.677,57.081c-0.093,0-0.169-0.076-0.169-0.169V38.504c0-0.093,0.076-0.169,0.169-0.169
			c0.093,0,0.169,0.076,0.169,0.169v18.408C51.846,57.005,51.77,57.081,51.677,57.081z"/>
	</g>
	<g>
		<path class="st0" d="M70.253,57.081c-0.093,0-0.169-0.076-0.169-0.169V38.504c0-0.093,0.076-0.169,0.169-0.169
			c0.093,0,0.169,0.076,0.169,0.169v18.408C70.422,57.005,70.347,57.081,70.253,57.081z"/>
	</g>
	<g>
		<path class="st0" d="M70.591,50.326c-0.093,0-0.169-0.076-0.169-0.169V45.26c0-0.093,0.076-0.169,0.169-0.169
			c0.093,0,0.169,0.076,0.169,0.169v4.897C70.76,50.25,70.685,50.326,70.591,50.326z"/>
	</g>
	<g>
		<path class="st0" d="M71.773,46.611c-0.093,0-0.169-0.076-0.169-0.169v-0.436l-0.407-0.408h-0.099
			c-0.045,0-0.087-0.018-0.119-0.049l-0.12-0.119h-0.267c-0.093,0-0.169-0.076-0.169-0.169c0-0.093,0.076-0.169,0.169-0.169h0.337
			c0.045,0,0.087,0.018,0.119,0.049l0.12,0.119h0.1c0.045,0,0.088,0.018,0.12,0.049l0.506,0.507c0.032,0.032,0.049,0.075,0.049,0.12
			v0.506C71.942,46.535,71.867,46.611,71.773,46.611z"/>
	</g>
	<g>
		<path class="st0" d="M71.773,49.143c-0.093,0-0.169-0.076-0.169-0.169v-2.533c0-0.093,0.076-0.169,0.169-0.169
			s0.169,0.076,0.169,0.169v2.533C71.942,49.068,71.867,49.143,71.773,49.143z"/>
	</g>
	<g>
		<path class="st0" d="M71.098,50.326h-0.506c-0.093,0-0.169-0.076-0.169-0.169c0-0.093,0.076-0.169,0.169-0.169h0.436l0.577-0.577
			v-0.437c0-0.093,0.076-0.169,0.169-0.169s0.169,0.076,0.169,0.169v0.507c0,0.045-0.018,0.088-0.05,0.12l-0.675,0.675
			C71.186,50.308,71.142,50.326,71.098,50.326z"/>
	</g>
	<g>
		<path class="st0" d="M70.591,45.429h-0.338c-0.093,0-0.169-0.076-0.169-0.169c0-0.093,0.076-0.169,0.169-0.169h0.338
			c0.093,0,0.169,0.076,0.169,0.169C70.76,45.353,70.685,45.429,70.591,45.429z"/>
	</g>
	<g>
		<path class="st0" d="M70.591,50.326h-0.338c-0.093,0-0.169-0.076-0.169-0.169c0-0.093,0.076-0.169,0.169-0.169h0.338
			c0.093,0,0.169,0.076,0.169,0.169C70.76,50.25,70.685,50.326,70.591,50.326z"/>
	</g>
	<g>
		<path class="st0" d="M62.823,112.473h-3.884c-0.045,0-0.088-0.018-0.119-0.049l-0.12-0.119h-0.437
			c-0.045,0-0.088-0.018-0.12-0.049l-0.119-0.12h-0.437c-0.045,0-0.088-0.018-0.12-0.049l-0.119-0.12h-0.268
			c-0.045,0-0.088-0.018-0.12-0.049l-0.12-0.12h-0.099c-0.045,0-0.088-0.018-0.119-0.049l-0.12-0.119h-0.268
			c-0.093,0-0.169-0.076-0.169-0.169h-0.169c-0.045,0-0.088-0.018-0.12-0.049l-0.119-0.12h-0.099c-0.045,0-0.088-0.018-0.12-0.049
			l-0.119-0.12h-0.099c-0.093,0-0.169-0.076-0.169-0.169h-0.169c-0.093,0-0.169-0.076-0.169-0.168c-0.045,0-0.088-0.018-0.119-0.049
			l-0.288-0.289H54.21c-0.093,0-0.169-0.076-0.169-0.169l0,0c-0.045,0-0.088-0.018-0.119-0.049l-0.289-0.288h-0.099
			c-0.093,0-0.169-0.076-0.169-0.169l0,0c-0.093,0-0.169-0.076-0.169-0.169l0,0c-0.044,0-0.087-0.018-0.119-0.049l-0.169-0.168
			c-0.032-0.032-0.05-0.075-0.05-0.12l0,0c-0.093,0-0.169-0.076-0.169-0.169l0,0c-0.045,0-0.088-0.018-0.12-0.049l-0.169-0.169
			c-0.032-0.032-0.049-0.074-0.049-0.119l0,0c-0.093,0-0.169-0.076-0.169-0.169l0,0c-0.093,0-0.169-0.076-0.169-0.169v-0.099
			l-0.288-0.288c-0.032-0.032-0.05-0.075-0.05-0.12l0,0c-0.093,0-0.169-0.076-0.169-0.169v-0.099l-0.288-0.288
			c-0.032-0.032-0.05-0.075-0.05-0.12l0,0c-0.093,0-0.169-0.076-0.169-0.169V106.9c-0.093,0-0.169-0.076-0.169-0.169v-0.099
			l-0.119-0.119c-0.032-0.032-0.05-0.075-0.05-0.12v-0.099l-0.12-0.12c-0.032-0.032-0.049-0.075-0.049-0.12v-0.168
			c-0.093,0-0.169-0.076-0.169-0.169v-0.268l-0.12-0.12c-0.032-0.032-0.049-0.075-0.049-0.12v-0.098l-0.119-0.12
			c-0.032-0.032-0.049-0.075-0.049-0.12v-0.268l-0.119-0.119c-0.032-0.032-0.05-0.075-0.05-0.12v-0.437l-0.119-0.119
			c-0.032-0.032-0.05-0.075-0.05-0.12v-0.437l-0.119-0.119c-0.032-0.032-0.05-0.075-0.05-0.12v-1.858
			c0-0.093,0.076-0.169,0.169-0.169c0.093,0,0.169,0.076,0.169,0.169v1.788l0.119,0.119c0.032,0.032,0.05,0.075,0.05,0.12v0.437
			l0.119,0.119c0.032,0.032,0.05,0.075,0.05,0.12v0.437l0.119,0.119c0.032,0.032,0.05,0.075,0.05,0.12v0.268l0.119,0.12
			c0.032,0.032,0.049,0.075,0.049,0.12v0.098l0.12,0.12c0.032,0.032,0.049,0.075,0.049,0.12v0.169c0.093,0,0.169,0.076,0.169,0.169
			v0.267l0.12,0.12c0.032,0.032,0.049,0.075,0.049,0.12v0.099l0.119,0.119c0.032,0.032,0.05,0.075,0.05,0.12l0,0
			c0.093,0,0.169,0.076,0.169,0.169v0.169c0.093,0,0.169,0.076,0.169,0.169v0.099l0.288,0.288c0.032,0.032,0.049,0.075,0.049,0.12
			l0,0c0.093,0,0.169,0.076,0.169,0.169v0.099l0.288,0.288c0.032,0.032,0.049,0.075,0.049,0.12l0,0c0.093,0,0.169,0.076,0.169,0.169
			l0,0c0.093,0,0.169,0.076,0.169,0.169v0.098l0.07,0.07h0.099c0.093,0,0.169,0.076,0.169,0.169l0,0
			c0.093,0,0.169,0.076,0.169,0.169v0.099l0.07,0.069h0.099c0.093,0,0.169,0.076,0.169,0.169l0,0c0.093,0,0.169,0.076,0.169,0.169
			l0,0c0.045,0,0.087,0.018,0.119,0.049l0.288,0.288h0.099c0.093,0,0.169,0.076,0.169,0.169l0,0c0.045,0,0.088,0.018,0.12,0.049
			l0.288,0.289h0.099c0.093,0,0.169,0.076,0.169,0.168h0.169c0.093,0,0.169,0.076,0.169,0.169l0,0c0.045,0,0.088,0.018,0.12,0.049
			l0.119,0.12h0.099c0.045,0,0.088,0.018,0.12,0.049l0.119,0.12h0.268c0.093,0,0.169,0.076,0.169,0.169h0.169
			c0.045,0,0.088,0.018,0.119,0.049l0.12,0.119h0.099c0.045,0,0.088,0.018,0.12,0.049l0.12,0.12h0.268
			c0.045,0,0.088,0.018,0.12,0.049l0.119,0.12h0.437c0.045,0,0.088,0.018,0.12,0.049l0.119,0.12h0.437
			c0.045,0,0.088,0.018,0.119,0.049l0.12,0.119h3.745l0.119-0.119c0.032-0.032,0.075-0.049,0.119-0.049h0.437l0.119-0.12
			c0.032-0.032,0.075-0.049,0.12-0.049h0.437l0.119-0.12c0.032-0.032,0.075-0.049,0.12-0.049h0.268l0.12-0.12
			c0.032-0.032,0.075-0.049,0.12-0.049h0.099l0.119-0.119c0.032-0.032,0.075-0.049,0.12-0.049h0.169
			c0-0.093,0.076-0.169,0.169-0.169h0.267l0.12-0.12c0.032-0.032,0.075-0.049,0.12-0.049h0.099l0.12-0.12
			c0.032-0.032,0.074-0.049,0.119-0.049l0,0c0-0.093,0.076-0.169,0.169-0.169h0.169c0.001-0.093,0.076-0.168,0.169-0.168h0.099
			l0.288-0.288c0.032-0.032,0.075-0.05,0.12-0.05l0,0c0-0.093,0.076-0.169,0.169-0.169h0.1l0.287-0.287
			c0.032-0.032,0.075-0.05,0.12-0.05l0,0c0-0.093,0.076-0.169,0.169-0.169l0,0c0-0.093,0.076-0.169,0.169-0.169h0.099l0.069-0.069
			v-0.099c0-0.093,0.076-0.169,0.169-0.169l0,0c0-0.093,0.076-0.169,0.169-0.169h0.099l0.07-0.07v-0.098
			c0-0.093,0.076-0.168,0.168-0.169l0,0c0-0.093,0.076-0.169,0.169-0.169l0,0c0-0.045,0.018-0.088,0.049-0.12l0.289-0.288v-0.099
			c0-0.093,0.076-0.168,0.168-0.169l0,0c0-0.045,0.018-0.088,0.049-0.12l0.289-0.288v-0.099c0-0.093,0.076-0.169,0.169-0.169v-0.169
			c0-0.093,0.076-0.168,0.168-0.169l0,0c0-0.045,0.018-0.088,0.05-0.12l0.119-0.119v-0.099c0-0.045,0.018-0.088,0.049-0.12
			l0.12-0.12v-0.267c0-0.093,0.076-0.169,0.169-0.169v-0.169c0-0.045,0.018-0.088,0.049-0.12l0.12-0.12v-0.098
			c0-0.045,0.018-0.087,0.049-0.119l0.119-0.12v-0.268c0-0.045,0.018-0.088,0.05-0.12l0.119-0.119v-0.437
			c0-0.045,0.018-0.088,0.05-0.12l0.119-0.119v-0.437c0-0.045,0.018-0.088,0.05-0.12l0.119-0.119v-1.788
			c0-0.093,0.076-0.169,0.169-0.169c0.093,0,0.169,0.076,0.169,0.169v1.858c0,0.045-0.018,0.088-0.05,0.12l-0.119,0.119v0.437
			c0,0.045-0.018,0.088-0.05,0.12l-0.119,0.119v0.437c0,0.045-0.018,0.088-0.05,0.12l-0.119,0.119v0.268
			c0,0.045-0.018,0.087-0.049,0.119l-0.119,0.12v0.098c0,0.045-0.018,0.088-0.049,0.12l-0.12,0.12v0.268
			c0,0.093-0.076,0.169-0.169,0.169v0.168c0,0.045-0.018,0.088-0.049,0.12l-0.12,0.12v0.099c0,0.045-0.018,0.088-0.05,0.12
			l-0.119,0.119v0.099c0,0.093-0.076,0.168-0.168,0.169v0.169c0,0.093-0.076,0.169-0.169,0.169l0,0c0,0.045-0.018,0.088-0.05,0.12
			l-0.288,0.288v0.099c0,0.093-0.076,0.168-0.168,0.169l0,0c0,0.045-0.018,0.088-0.05,0.12l-0.288,0.288v0.099
			c0,0.093-0.076,0.169-0.169,0.169l0,0c0,0.093-0.076,0.168-0.168,0.169c0,0.045-0.018,0.087-0.049,0.119l-0.169,0.169
			c-0.032,0.032-0.075,0.049-0.12,0.049l0,0c0,0.093-0.076,0.169-0.169,0.169l0,0c0,0.045-0.018,0.088-0.049,0.12l-0.168,0.168
			c-0.032,0.032-0.075,0.049-0.12,0.049l0,0c0,0.093-0.076,0.169-0.169,0.169l0,0c0,0.093-0.076,0.169-0.169,0.169h-0.099
			l-0.289,0.288c-0.032,0.032-0.074,0.049-0.119,0.049l0,0c0,0.093-0.076,0.169-0.169,0.169h-0.099l-0.288,0.289
			c-0.032,0.032-0.075,0.049-0.12,0.049l0,0c-0.001,0.093-0.076,0.168-0.169,0.168h-0.169c0,0.093-0.076,0.169-0.169,0.169h-0.098
			l-0.12,0.12c-0.032,0.032-0.075,0.049-0.12,0.049h-0.099l-0.12,0.12c-0.032,0.032-0.075,0.049-0.12,0.049h-0.168
			c0,0.093-0.076,0.169-0.169,0.169h-0.268l-0.119,0.119c-0.032,0.032-0.075,0.049-0.12,0.049h-0.099l-0.12,0.12
			c-0.032,0.032-0.075,0.049-0.12,0.049h-0.268l-0.119,0.12c-0.032,0.032-0.075,0.049-0.12,0.049h-0.437l-0.119,0.12
			c-0.032,0.032-0.075,0.049-0.12,0.049h-0.437l-0.119,0.119C62.91,112.455,62.867,112.473,62.823,112.473z"/>
	</g>
	<g>
		<path class="st0" d="M49.65,101.327c-0.093,0-0.169-0.076-0.169-0.169V86.804c0-0.093,0.076-0.169,0.169-0.169
			c0.093,0,0.169,0.076,0.169,0.169v14.354C49.819,101.251,49.743,101.327,49.65,101.327z"/>
	</g>
	<g>
		<path class="st0" d="M62.654,110.446h-3.546c-0.093,0-0.169-0.076-0.169-0.169h-0.506c-0.045,0-0.088-0.018-0.119-0.049
			l-0.12-0.119h-0.268c-0.045,0-0.088-0.018-0.12-0.049l-0.119-0.12h-0.268c-0.045,0-0.088-0.018-0.12-0.049l-0.12-0.12h-0.099
			c-0.045,0-0.088-0.018-0.12-0.049l-0.12-0.12h-0.099c-0.045,0-0.088-0.018-0.119-0.049l-0.12-0.119h-0.099
			c-0.045,0-0.088-0.018-0.12-0.049l-0.12-0.12h-0.099c-0.093,0-0.169-0.076-0.169-0.169l0,0c-0.045,0-0.088-0.018-0.12-0.049
			l-0.119-0.12h-0.099c-0.093,0-0.169-0.076-0.169-0.168c-0.045,0-0.087-0.018-0.119-0.049l-0.288-0.289h-0.099
			c-0.093,0-0.169-0.076-0.169-0.169l0,0c-0.093,0-0.168-0.076-0.169-0.168l0,0c-0.093,0-0.169-0.076-0.169-0.169l0,0
			c-0.093,0-0.169-0.076-0.169-0.169l0,0c-0.093,0-0.169-0.076-0.169-0.169l0,0c-0.093,0-0.169-0.076-0.169-0.168
			c-0.093,0-0.169-0.076-0.169-0.169l0,0c-0.093,0-0.169-0.076-0.169-0.169v-0.099l-0.288-0.289
			c-0.031-0.032-0.049-0.074-0.049-0.119c-0.093,0-0.169-0.076-0.169-0.169v-0.099l-0.12-0.12c-0.032-0.032-0.049-0.075-0.049-0.12
			l0,0c-0.093,0-0.169-0.076-0.169-0.169v-0.098l-0.12-0.12c-0.032-0.032-0.049-0.075-0.049-0.12v-0.099l-0.119-0.12
			c-0.032-0.032-0.049-0.075-0.049-0.12v-0.098l-0.12-0.12c-0.032-0.032-0.049-0.075-0.049-0.12v-0.099l-0.119-0.12
			c-0.032-0.032-0.049-0.075-0.049-0.12v-0.267l-0.12-0.12c-0.032-0.032-0.049-0.075-0.049-0.12v-0.267l-0.119-0.12
			c-0.032-0.032-0.049-0.075-0.049-0.12v-0.506c-0.093,0-0.169-0.076-0.169-0.169v-1.689c0-0.093,0.076-0.169,0.169-0.169
			c0.093,0,0.169,0.076,0.169,0.169v1.52c0.093,0,0.169,0.076,0.169,0.169v0.605l0.119,0.12c0.032,0.032,0.049,0.075,0.049,0.12
			v0.267l0.12,0.12c0.032,0.032,0.049,0.075,0.049,0.12v0.267l0.119,0.12c0.032,0.032,0.049,0.075,0.049,0.12v0.099l0.12,0.12
			c0.032,0.032,0.049,0.075,0.049,0.12v0.098l0.119,0.12c0.032,0.032,0.049,0.075,0.049,0.12v0.099l0.12,0.12
			c0.031,0.032,0.049,0.074,0.049,0.119c0.093,0,0.169,0.076,0.169,0.169v0.099l0.12,0.12c0.032,0.032,0.049,0.075,0.049,0.12l0,0
			c0.093,0,0.169,0.076,0.169,0.169v0.098l0.288,0.289c0.032,0.032,0.049,0.075,0.049,0.12l0,0c0.093,0,0.169,0.076,0.169,0.169l0,0
			c0.093,0,0.168,0.076,0.169,0.168l0,0c0.093,0,0.169,0.076,0.169,0.169l0,0c0.093,0,0.169,0.076,0.169,0.169l0,0
			c0.093,0,0.169,0.076,0.169,0.169l0,0c0.093,0,0.169,0.076,0.169,0.168c0.093,0,0.169,0.076,0.169,0.169l0,0
			c0.045,0,0.088,0.018,0.12,0.049l0.288,0.289h0.099c0.093,0,0.169,0.076,0.169,0.168l0,0c0.045,0,0.088,0.018,0.12,0.049
			l0.119,0.12h0.099c0.093,0,0.169,0.076,0.169,0.169l0,0c0.045,0,0.088,0.018,0.119,0.049l0.12,0.12h0.099
			c0.045,0,0.088,0.018,0.119,0.049l0.12,0.119h0.099c0.045,0,0.088,0.018,0.12,0.049l0.12,0.12h0.099
			c0.045,0,0.088,0.018,0.12,0.049l0.12,0.12h0.268c0.045,0,0.088,0.018,0.12,0.049l0.119,0.12h0.268
			c0.045,0,0.088,0.018,0.119,0.049l0.12,0.119h0.606c0.093,0,0.169,0.076,0.169,0.169h3.208c0-0.093,0.076-0.169,0.169-0.169h0.606
			l0.12-0.119c0.032-0.032,0.075-0.049,0.119-0.049h0.268l0.119-0.12c0.032-0.032,0.075-0.049,0.12-0.049h0.268l0.12-0.12
			c0.032-0.032,0.075-0.049,0.12-0.049h0.099l0.12-0.12c0.032-0.032,0.075-0.049,0.12-0.049h0.099l0.119-0.119
			c0.032-0.032,0.075-0.049,0.12-0.049h0.099l0.12-0.12c0.032-0.032,0.075-0.049,0.12-0.049l0,0c0-0.093,0.076-0.169,0.169-0.169
			h0.098l0.12-0.12c0.032-0.032,0.075-0.049,0.12-0.049l0,0c0.001-0.093,0.076-0.168,0.169-0.168h0.099l0.288-0.289
			c0.032-0.032,0.075-0.049,0.12-0.049l0,0c0-0.093,0.076-0.169,0.169-0.169l0,0c0.001-0.093,0.076-0.168,0.169-0.168l0,0
			c0-0.093,0.076-0.168,0.168-0.169l0,0c0-0.093,0.076-0.169,0.169-0.169l0,0c0-0.093,0.076-0.169,0.169-0.169l0,0
			c0.001-0.093,0.076-0.168,0.169-0.168l0,0c0-0.093,0.076-0.168,0.168-0.169l0,0c0-0.045,0.018-0.088,0.049-0.12l0.289-0.289
			v-0.098c0-0.093,0.076-0.169,0.169-0.169l0,0c0-0.045,0.018-0.087,0.049-0.119l0.119-0.12v-0.099c0-0.093,0.076-0.169,0.169-0.169
			l0,0c0-0.045,0.018-0.087,0.049-0.119l0.12-0.12v-0.099c0-0.045,0.018-0.088,0.049-0.12l0.12-0.12v-0.098
			c0-0.045,0.018-0.087,0.049-0.119l0.119-0.12v-0.099c0-0.045,0.018-0.088,0.049-0.12l0.12-0.12v-0.267
			c0-0.045,0.018-0.088,0.049-0.12l0.12-0.12v-0.267c0-0.045,0.018-0.088,0.049-0.12l0.12-0.12v-0.605
			c0-0.093,0.076-0.168,0.168-0.169v-1.52c0-0.093,0.076-0.169,0.169-0.169s0.169,0.076,0.169,0.169v1.689
			c0,0.093-0.076,0.168-0.168,0.169v0.506c0,0.045-0.018,0.088-0.049,0.12l-0.12,0.12v0.267c0,0.045-0.018,0.088-0.049,0.12
			l-0.12,0.12v0.267c0,0.045-0.018,0.088-0.049,0.12l-0.12,0.12v0.099c0,0.045-0.018,0.087-0.049,0.119l-0.119,0.12v0.098
			c0,0.045-0.018,0.088-0.049,0.12l-0.12,0.12v0.099c0,0.045-0.018,0.088-0.049,0.12l-0.12,0.12v0.098
			c0,0.093-0.076,0.169-0.169,0.169l0,0c0,0.045-0.018,0.087-0.049,0.119l-0.119,0.12v0.099c0,0.093-0.076,0.169-0.169,0.169l0,0
			c0,0.045-0.018,0.087-0.049,0.119l-0.289,0.289v0.099c0,0.093-0.076,0.168-0.168,0.169l0,0c0,0.093-0.076,0.169-0.169,0.169l0,0
			c-0.001,0.093-0.076,0.168-0.169,0.168l0,0c0,0.093-0.076,0.169-0.169,0.169l0,0c0,0.093-0.076,0.168-0.168,0.169l0,0
			c0,0.093-0.076,0.169-0.169,0.169l0,0c-0.001,0.093-0.076,0.168-0.169,0.168l0,0c0,0.093-0.076,0.169-0.169,0.169h-0.099
			l-0.288,0.288c-0.032,0.032-0.075,0.05-0.12,0.05l0,0c-0.001,0.093-0.076,0.168-0.169,0.168h-0.099l-0.12,0.12
			c-0.032,0.032-0.074,0.049-0.119,0.049l0,0c0,0.093-0.076,0.169-0.169,0.169h-0.099l-0.12,0.12
			c-0.032,0.032-0.075,0.049-0.12,0.049h-0.099l-0.119,0.119c-0.032,0.032-0.075,0.049-0.12,0.049h-0.099l-0.12,0.12
			c-0.032,0.032-0.075,0.049-0.12,0.049h-0.099l-0.12,0.12c-0.032,0.032-0.075,0.049-0.12,0.049h-0.268l-0.119,0.12
			c-0.032,0.032-0.075,0.049-0.12,0.049h-0.268l-0.12,0.119c-0.032,0.032-0.075,0.049-0.119,0.049h-0.506
			C62.823,110.371,62.747,110.446,62.654,110.446z"/>
	</g>
	<g>
		<path class="st0" d="M49.481,86.973c-0.093,0-0.169-0.076-0.169-0.169v-1.858c0-0.045,0.018-0.088,0.049-0.12l0.12-0.12v-0.605
			c0-0.045,0.018-0.088,0.05-0.12l0.119-0.119v-0.437c0-0.045,0.018-0.088,0.05-0.12l0.119-0.119v-0.268
			c0-0.045,0.018-0.088,0.049-0.12l0.12-0.12v-0.267c0-0.045,0.018-0.088,0.049-0.12l0.119-0.12v-0.099
			c0-0.045,0.018-0.088,0.05-0.12l0.119-0.119v-0.099c0-0.045,0.018-0.088,0.049-0.12l0.119-0.12v-0.099
			c0-0.045,0.018-0.088,0.049-0.12l0.12-0.12v-0.098c0-0.045,0.018-0.088,0.049-0.12l0.288-0.289v-0.099
			c0-0.045,0.018-0.088,0.05-0.12l0.119-0.119v-0.099c0-0.045,0.018-0.088,0.049-0.12l0.288-0.289v-0.098
			c0-0.093,0.076-0.169,0.169-0.169l0,0c0-0.045,0.018-0.088,0.049-0.12l0.795-0.795v-0.099c0-0.093,0.076-0.169,0.169-0.169h0.099
			l0.795-0.794c0.032-0.032,0.075-0.049,0.119-0.049l0,0c0-0.093,0.076-0.169,0.169-0.169h0.099l0.289-0.289
			c0.032-0.032,0.075-0.049,0.12-0.049h0.099l0.12-0.12c0.032-0.032,0.075-0.049,0.12-0.049h0.099l0.288-0.288
			c0.032-0.032,0.075-0.049,0.12-0.049h0.099l0.119-0.12c0.032-0.032,0.075-0.049,0.12-0.049h0.099l0.119-0.12
			c0.032-0.032,0.075-0.049,0.12-0.049h0.099l0.119-0.119c0.032-0.032,0.075-0.049,0.119-0.049h0.099l0.119-0.12
			c0.032-0.032,0.075-0.049,0.12-0.049h0.268l0.12-0.12c0.032-0.032,0.075-0.049,0.12-0.049h0.268l0.119-0.12
			c0.032-0.032,0.075-0.049,0.12-0.049h0.437l0.119-0.119c0.032-0.032,0.075-0.049,0.119-0.049h0.606l0.119-0.12
			c0.032-0.032,0.075-0.049,0.12-0.049h3.546c0.045,0,0.088,0.018,0.12,0.049l0.12,0.12h0.605c0.045,0,0.088,0.018,0.119,0.049
			l0.119,0.119h0.437c0.045,0,0.088,0.018,0.12,0.049l0.119,0.12h0.268c0.045,0,0.088,0.018,0.12,0.049l0.12,0.12h0.267
			c0.045,0,0.088,0.018,0.12,0.049l0.12,0.12h0.099c0.045,0,0.087,0.018,0.119,0.049l0.12,0.119h0.098
			c0.045,0,0.088,0.018,0.12,0.049l0.12,0.12H66.2c0.045,0,0.088,0.018,0.12,0.049l0.12,0.12h0.098c0.045,0,0.088,0.018,0.12,0.049
			l0.289,0.288h0.099c0.045,0,0.088,0.018,0.12,0.049l0.12,0.12h0.098c0.045,0,0.088,0.018,0.12,0.049l0.289,0.289h0.099
			c0.093,0,0.169,0.076,0.169,0.169l0,0c0.044,0,0.087,0.018,0.118,0.049l0.795,0.794h0.1c0.093,0,0.169,0.076,0.169,0.169v0.099
			l0.795,0.795c0.032,0.032,0.049,0.075,0.049,0.12l0,0c0.093,0.001,0.168,0.076,0.168,0.169v0.098l0.289,0.289
			c0.032,0.032,0.049,0.075,0.049,0.12v0.099l0.119,0.119c0.032,0.032,0.05,0.075,0.05,0.12v0.099l0.288,0.289
			c0.032,0.032,0.049,0.075,0.049,0.12v0.098l0.12,0.12c0.032,0.032,0.049,0.075,0.049,0.12v0.099l0.12,0.12
			c0.032,0.032,0.049,0.075,0.049,0.12v0.099l0.119,0.119c0.032,0.032,0.05,0.075,0.05,0.12v0.099l0.119,0.12
			c0.032,0.032,0.049,0.074,0.049,0.119v0.267l0.12,0.12c0.032,0.032,0.049,0.075,0.049,0.12v0.268l0.119,0.119
			c0.032,0.032,0.05,0.075,0.05,0.12v0.437l0.119,0.119c0.032,0.032,0.05,0.075,0.05,0.12v0.605l0.119,0.12
			c0.032,0.032,0.049,0.074,0.049,0.119v1.619l0.12,0.12c0.066,0.066,0.066,0.173,0,0.239c-0.066,0.066-0.173,0.066-0.239,0
			l-0.169-0.169c-0.032-0.032-0.049-0.075-0.049-0.12v-1.619l-0.119-0.12c-0.032-0.032-0.049-0.074-0.049-0.119v-0.605l-0.119-0.119
			c-0.032-0.032-0.05-0.075-0.05-0.12v-0.437l-0.119-0.119c-0.032-0.032-0.05-0.075-0.05-0.12v-0.268l-0.12-0.12
			c-0.032-0.032-0.049-0.075-0.049-0.12v-0.267l-0.119-0.12c-0.032-0.032-0.049-0.074-0.049-0.119v-0.099l-0.119-0.119
			c-0.032-0.032-0.05-0.075-0.05-0.12v-0.099l-0.12-0.12c-0.032-0.032-0.049-0.075-0.049-0.12v-0.099l-0.12-0.12
			c-0.032-0.032-0.049-0.075-0.049-0.12v-0.098l-0.288-0.289c-0.032-0.032-0.049-0.074-0.049-0.119v-0.099l-0.119-0.119
			c-0.032-0.032-0.05-0.075-0.05-0.12v-0.099l-0.289-0.289c-0.032-0.032-0.049-0.074-0.049-0.119
			c-0.093-0.001-0.168-0.076-0.168-0.169v-0.099l-0.795-0.795c-0.032-0.032-0.049-0.075-0.049-0.12l0,0
			c-0.045,0-0.087-0.018-0.119-0.049l-0.796-0.794h-0.098c-0.093,0-0.169-0.076-0.169-0.169l0,0c-0.045,0-0.088-0.018-0.12-0.049
			l-0.289-0.289h-0.098c-0.045,0-0.088-0.018-0.12-0.049l-0.12-0.12h-0.099c-0.045,0-0.087-0.018-0.119-0.049l-0.289-0.288h-0.098
			c-0.045,0-0.088-0.018-0.12-0.049l-0.12-0.12h-0.099c-0.045,0-0.088-0.018-0.12-0.049l-0.12-0.12h-0.098
			c-0.045,0-0.087-0.018-0.119-0.049l-0.12-0.119h-0.099c-0.045,0-0.088-0.018-0.12-0.049l-0.12-0.12h-0.267
			c-0.045,0-0.088-0.018-0.12-0.049l-0.12-0.12h-0.268c-0.045,0-0.088-0.018-0.12-0.049l-0.119-0.12h-0.437
			c-0.045,0-0.088-0.018-0.119-0.049l-0.119-0.119h-0.606c-0.045,0-0.088-0.018-0.12-0.049l-0.12-0.12h-3.406l-0.119,0.12
			c-0.032,0.032-0.075,0.049-0.12,0.049h-0.606l-0.119,0.119c-0.032,0.032-0.075,0.049-0.119,0.049h-0.437l-0.119,0.12
			c-0.032,0.032-0.075,0.049-0.12,0.049h-0.268l-0.12,0.12c-0.032,0.032-0.075,0.049-0.12,0.049h-0.268l-0.119,0.12
			c-0.032,0.032-0.075,0.049-0.12,0.049h-0.099l-0.119,0.119c-0.032,0.032-0.075,0.049-0.119,0.049h-0.099l-0.119,0.12
			c-0.032,0.032-0.075,0.049-0.12,0.049h-0.099l-0.119,0.12c-0.032,0.032-0.075,0.049-0.12,0.049h-0.099l-0.289,0.288
			c-0.032,0.032-0.075,0.049-0.119,0.049h-0.099l-0.12,0.12c-0.032,0.032-0.075,0.049-0.12,0.049h-0.099l-0.289,0.289
			c-0.032,0.032-0.075,0.049-0.119,0.049l0,0c0,0.093-0.076,0.169-0.169,0.169h-0.099l-0.795,0.794
			c-0.032,0.032-0.075,0.049-0.119,0.049l0,0c0,0.045-0.018,0.088-0.049,0.12l-0.795,0.795v0.099c0,0.093-0.076,0.169-0.169,0.169
			l0,0c0,0.045-0.018,0.087-0.049,0.119l-0.288,0.289v0.099c0,0.045-0.018,0.088-0.05,0.12l-0.119,0.119v0.099
			c0,0.045-0.018,0.088-0.049,0.12l-0.288,0.289v0.098c0,0.045-0.018,0.088-0.049,0.12l-0.12,0.12v0.099
			c0,0.045-0.018,0.088-0.049,0.12l-0.119,0.12v0.099c0,0.045-0.018,0.088-0.05,0.12l-0.119,0.119v0.099
			c0,0.045-0.018,0.088-0.049,0.12l-0.119,0.12v0.267c0,0.045-0.018,0.088-0.049,0.12l-0.12,0.12v0.268
			c0,0.045-0.018,0.088-0.05,0.12l-0.119,0.119v0.437c0,0.045-0.018,0.088-0.05,0.12l-0.119,0.119v0.605
			c0,0.045-0.018,0.088-0.049,0.12l-0.12,0.12v1.788C49.65,86.897,49.574,86.973,49.481,86.973z"/>
	</g>
	<g>
		<path class="st0" d="M51.677,101.327c-0.093,0-0.169-0.076-0.169-0.169V86.804c0-0.093,0.076-0.169,0.169-0.169
			c0.093,0,0.169,0.076,0.169,0.169v14.354C51.846,101.251,51.77,101.327,51.677,101.327z"/>
	</g>
	<g>
		<path class="st0" d="M72.449,101.327c-0.093,0-0.169-0.076-0.169-0.169V86.804c0-0.093,0.076-0.169,0.169-0.169
			s0.169,0.076,0.169,0.169v14.354C72.618,101.251,72.542,101.327,72.449,101.327z"/>
	</g>
	<g>
		<path class="st0" d="M70.253,101.327c-0.093,0-0.169-0.076-0.169-0.169V86.804c0-0.093,0.076-0.169,0.169-0.169
			c0.093,0,0.169,0.076,0.169,0.169v14.354C70.422,101.251,70.347,101.327,70.253,101.327z"/>
	</g>
	<g>
		<path class="st0" d="M70.253,86.973c-0.043,0-0.087-0.016-0.12-0.049l-0.169-0.169c-0.032-0.032-0.049-0.075-0.049-0.12v-1.52
			c-0.093-0.001-0.168-0.076-0.168-0.169V84.34l-0.12-0.12c-0.032-0.032-0.049-0.075-0.049-0.12v-0.267l-0.12-0.12
			c-0.032-0.032-0.049-0.075-0.049-0.12v-0.267l-0.12-0.12c-0.032-0.032-0.049-0.075-0.049-0.12v-0.099l-0.119-0.12
			c-0.032-0.032-0.049-0.074-0.049-0.119v-0.098l-0.12-0.12c-0.032-0.032-0.049-0.075-0.049-0.12v-0.099l-0.12-0.12
			c-0.032-0.032-0.049-0.074-0.049-0.119l0,0c-0.093,0-0.169-0.076-0.169-0.169v-0.099l-0.119-0.12
			c-0.032-0.032-0.049-0.074-0.049-0.119l0,0c-0.093,0-0.169-0.076-0.169-0.169V81.3l-0.289-0.288
			c-0.032-0.032-0.049-0.075-0.049-0.12l0,0c-0.093-0.001-0.168-0.076-0.168-0.169l0,0c-0.093,0-0.168-0.076-0.169-0.168l0,0
			c-0.093,0-0.169-0.076-0.169-0.169l0,0c-0.093,0-0.169-0.076-0.169-0.169l0,0c-0.093-0.001-0.168-0.076-0.168-0.169l0,0
			c-0.093,0-0.168-0.076-0.169-0.168l0,0c-0.093,0-0.169-0.076-0.169-0.169l0,0c-0.045,0-0.088-0.018-0.12-0.049l-0.288-0.289H66.2
			c-0.093,0-0.168-0.076-0.169-0.168l0,0c-0.045,0-0.088-0.018-0.12-0.049l-0.12-0.12h-0.098c-0.093,0-0.169-0.076-0.169-0.169l0,0
			c-0.045,0-0.088-0.018-0.12-0.049l-0.12-0.12h-0.099c-0.045,0-0.088-0.018-0.12-0.049l-0.119-0.119h-0.099
			c-0.045,0-0.088-0.018-0.12-0.049l-0.12-0.12h-0.099c-0.045,0-0.088-0.018-0.12-0.049l-0.12-0.12h-0.268
			c-0.045,0-0.088-0.018-0.12-0.049l-0.119-0.12h-0.268c-0.045,0-0.088-0.018-0.119-0.049l-0.12-0.119h-0.606
			c-0.093,0-0.169-0.076-0.169-0.169h-3.208c0,0.093-0.076,0.169-0.169,0.169h-0.606l-0.12,0.119
			c-0.032,0.032-0.075,0.049-0.119,0.049h-0.268l-0.119,0.12c-0.032,0.032-0.075,0.049-0.12,0.049h-0.268l-0.12,0.12
			c-0.032,0.032-0.075,0.049-0.12,0.049h-0.099l-0.12,0.12c-0.032,0.032-0.075,0.049-0.12,0.049h-0.099l-0.12,0.119
			c-0.032,0.032-0.075,0.049-0.119,0.049h-0.099l-0.12,0.12c-0.032,0.032-0.075,0.049-0.119,0.049l0,0
			c0,0.093-0.076,0.169-0.169,0.169h-0.099l-0.119,0.12c-0.032,0.032-0.075,0.049-0.12,0.049l0,0c0,0.093-0.076,0.168-0.169,0.168
			h-0.099l-0.288,0.289c-0.032,0.032-0.075,0.049-0.12,0.049l0,0c0,0.093-0.076,0.169-0.169,0.169c0,0.093-0.076,0.168-0.169,0.168
			l0,0c0,0.093-0.076,0.169-0.169,0.169l0,0c0,0.093-0.076,0.169-0.169,0.169l0,0c0,0.093-0.076,0.169-0.169,0.169l0,0
			c0,0.093-0.076,0.168-0.169,0.168l0,0c0,0.093-0.076,0.169-0.169,0.169l0,0c0,0.045-0.018,0.088-0.049,0.12L53.534,81.3v0.099
			c0,0.093-0.076,0.169-0.169,0.169l0,0c0,0.045-0.018,0.088-0.049,0.12l-0.12,0.12v0.099c0,0.093-0.076,0.169-0.169,0.169
			c0,0.045-0.018,0.087-0.049,0.119l-0.12,0.12v0.099c0,0.045-0.018,0.088-0.049,0.12l-0.119,0.12v0.098
			c0,0.045-0.018,0.088-0.049,0.12l-0.12,0.12v0.099c0,0.045-0.018,0.088-0.049,0.12l-0.119,0.12v0.267
			c0,0.045-0.018,0.088-0.049,0.12l-0.12,0.12v0.267c0,0.045-0.018,0.088-0.049,0.12l-0.119,0.12v0.605
			c0,0.093-0.076,0.169-0.169,0.169v1.689c0,0.093-0.076,0.169-0.169,0.169c-0.093,0-0.169-0.076-0.169-0.169v-1.858
			c0-0.093,0.076-0.169,0.169-0.169V84.27c0-0.045,0.018-0.088,0.049-0.12l0.119-0.12v-0.267c0-0.045,0.018-0.088,0.049-0.12
			l0.12-0.12v-0.267c0-0.045,0.018-0.088,0.049-0.12l0.119-0.12v-0.099c0-0.045,0.018-0.088,0.049-0.12l0.12-0.12v-0.098
			c0-0.045,0.018-0.088,0.049-0.12l0.119-0.12v-0.099c0-0.045,0.018-0.088,0.049-0.12l0.12-0.12v-0.098
			c0-0.093,0.076-0.169,0.169-0.169l0,0c0-0.045,0.018-0.088,0.049-0.12l0.12-0.12v-0.099c0-0.093,0.076-0.169,0.169-0.169l0,0
			c0-0.045,0.018-0.088,0.05-0.12l0.288-0.288v-0.099c0-0.093,0.076-0.169,0.169-0.169l0,0c0-0.093,0.076-0.169,0.169-0.169
			c0-0.093,0.076-0.168,0.169-0.168l0,0c0-0.093,0.076-0.169,0.169-0.169l0,0c0-0.093,0.076-0.169,0.169-0.169l0,0
			c0-0.093,0.076-0.169,0.169-0.169l0,0c0-0.093,0.076-0.168,0.169-0.168l0,0c0-0.093,0.076-0.169,0.169-0.169h0.099l0.288-0.289
			c0.032-0.032,0.075-0.049,0.119-0.049c0-0.093,0.076-0.168,0.169-0.168h0.099l0.119-0.12c0.032-0.032,0.075-0.049,0.12-0.049l0,0
			c0-0.093,0.076-0.169,0.169-0.169h0.099l0.12-0.12c0.032-0.032,0.075-0.049,0.12-0.049h0.099l0.12-0.119
			c0.032-0.032,0.075-0.049,0.119-0.049h0.099l0.12-0.12c0.032-0.032,0.075-0.049,0.12-0.049h0.099l0.12-0.12
			c0.032-0.032,0.075-0.049,0.12-0.049h0.268l0.119-0.12c0.032-0.032,0.075-0.049,0.12-0.049h0.268l0.12-0.119
			c0.032-0.032,0.075-0.049,0.119-0.049h0.506c0-0.093,0.076-0.169,0.169-0.169h3.546c0.093,0,0.169,0.076,0.169,0.169h0.506
			c0.045,0,0.088,0.018,0.119,0.049l0.12,0.119h0.268c0.045,0,0.088,0.018,0.12,0.049l0.119,0.12h0.268
			c0.045,0,0.088,0.018,0.12,0.049l0.12,0.12h0.099c0.045,0,0.088,0.018,0.12,0.049l0.12,0.12h0.099c0.045,0,0.088,0.018,0.12,0.049
			l0.119,0.119h0.099c0.045,0,0.088,0.018,0.12,0.049l0.12,0.12h0.099c0.093,0,0.169,0.076,0.169,0.169l0,0
			c0.045,0,0.087,0.018,0.119,0.049l0.12,0.12H66.2c0.093,0,0.168,0.076,0.169,0.168l0,0c0.045,0,0.088,0.018,0.12,0.05l0.288,0.288
			h0.099c0.093,0,0.169,0.076,0.169,0.169l0,0c0.093,0,0.168,0.076,0.169,0.168l0,0c0.093,0,0.169,0.076,0.169,0.169l0,0
			c0.093,0.001,0.168,0.076,0.168,0.169l0,0c0.093,0,0.169,0.076,0.169,0.169l0,0c0.093,0,0.168,0.076,0.169,0.168l0,0
			c0.093,0,0.169,0.076,0.169,0.169l0,0c0.093,0.001,0.168,0.076,0.168,0.169v0.099l0.288,0.288c0.032,0.032,0.05,0.075,0.05,0.12
			l0,0c0.093,0,0.169,0.076,0.169,0.169v0.099l0.119,0.12c0.032,0.032,0.049,0.074,0.049,0.119l0,0c0.093,0,0.169,0.076,0.169,0.169
			v0.098l0.12,0.12c0.032,0.032,0.049,0.075,0.049,0.12v0.099l0.12,0.12c0.032,0.032,0.049,0.075,0.049,0.12v0.098l0.119,0.12
			c0.032,0.032,0.049,0.074,0.049,0.119v0.099l0.12,0.12c0.032,0.032,0.049,0.075,0.049,0.12v0.267l0.12,0.12
			c0.032,0.032,0.049,0.075,0.049,0.12v0.267l0.12,0.12c0.032,0.032,0.049,0.075,0.049,0.12v0.506
			c0.093,0.001,0.168,0.076,0.168,0.169v1.619l0.12,0.12c0.066,0.066,0.066,0.173,0,0.239C70.34,86.956,70.296,86.973,70.253,86.973
			z"/>
	</g>
	<g>
		<path class="st0" d="M72.787,97.611c-0.093,0-0.169-0.076-0.169-0.169v-6.755c0-0.093,0.076-0.169,0.169-0.169
			c0.093,0,0.169,0.076,0.169,0.169v6.755C72.956,97.536,72.88,97.611,72.787,97.611z"/>
	</g>
	<g>
		<path class="st0" d="M73.8,96.429c-0.093,0-0.169-0.076-0.169-0.169v-4.391c0-0.093,0.076-0.169,0.169-0.169
			c0.093,0,0.169,0.076,0.169,0.169v4.391C73.969,96.354,73.893,96.429,73.8,96.429z"/>
	</g>
	<g>
		<path class="st0" d="M72.955,97.611h-0.168c-0.093,0-0.169-0.076-0.169-0.169c0-0.093,0.076-0.169,0.169-0.169h0.098l0.12-0.119
			c0.032-0.032,0.074-0.049,0.119-0.049h0.099l0.407-0.408V96.26c0-0.093,0.076-0.169,0.169-0.169c0.093,0,0.169,0.076,0.169,0.169
			v0.506c0,0.045-0.018,0.088-0.049,0.12l-0.506,0.507c-0.032,0.032-0.075,0.049-0.12,0.049h-0.099l-0.12,0.119
			C73.042,97.594,73,97.611,72.955,97.611z"/>
	</g>
	<g>
		<path class="st0" d="M73.8,92.038c-0.093,0-0.169-0.076-0.169-0.169v-0.436l-0.12-0.12c-0.032-0.032-0.049-0.075-0.049-0.12
			v-0.098l-0.1-0.1l-0.278-0.139h-0.298c-0.093,0-0.169-0.076-0.169-0.169c0-0.093,0.076-0.169,0.169-0.169h0.337
			c0.026,0,0.052,0.006,0.076,0.018l0.338,0.169c0.016,0.008,0.031,0.019,0.044,0.032l0.168,0.169
			c0.032,0.032,0.049,0.074,0.049,0.119v0.098l0.12,0.12c0.032,0.032,0.049,0.075,0.049,0.12v0.506
			C73.969,91.963,73.893,92.038,73.8,92.038z"/>
	</g>
	<g>
		<path class="st0" d="M72.787,97.611h-0.338c-0.093,0-0.169-0.076-0.169-0.169c0-0.093,0.076-0.169,0.169-0.169h0.338
			c0.093,0,0.169,0.076,0.169,0.169C72.956,97.536,72.88,97.611,72.787,97.611z"/>
	</g>
	<g>
		<path class="st0" d="M72.787,90.857h-0.338c-0.093,0-0.169-0.076-0.169-0.169c0-0.093,0.076-0.169,0.169-0.169h0.338
			c0.093,0,0.169,0.076,0.169,0.169C72.956,90.781,72.88,90.857,72.787,90.857z"/>
	</g>
	<g>
		<path class="st0" d="M48.468,107.744h-1.689c-0.093,0-0.169-0.076-0.169-0.169c0-0.093,0.076-0.169,0.169-0.169h1.689
			c0.093,0,0.169,0.076,0.169,0.169C48.637,107.669,48.561,107.744,48.468,107.744z"/>
	</g>
	<g>
		<path class="st0" d="M48.468,92.714h-1.689c-0.093,0-0.169-0.076-0.169-0.169c0-0.093,0.076-0.169,0.169-0.169h1.689
			c0.093,0,0.169,0.076,0.169,0.169C48.637,92.638,48.561,92.714,48.468,92.714z"/>
	</g>
	<g>
		<path class="st0" d="M48.468,107.744c-0.093,0-0.169-0.076-0.169-0.169v-15.03c0-0.093,0.076-0.169,0.169-0.169
			c0.093,0,0.169,0.076,0.169,0.169v15.03C48.637,107.669,48.561,107.744,48.468,107.744z"/>
	</g>
	<g>
		<path class="st0" d="M46.779,107.744c-0.093,0-0.169-0.076-0.169-0.169v-15.03c0-0.093,0.076-0.169,0.169-0.169
			c0.093,0,0.169,0.076,0.169,0.169v15.03C46.948,107.669,46.872,107.744,46.779,107.744z"/>
	</g>
	<g>
		<path class="st0" d="M48.468,47.623h-1.689c-0.093,0-0.169-0.076-0.169-0.169c0-0.093,0.076-0.169,0.169-0.169h1.689
			c0.093,0,0.169,0.076,0.169,0.169C48.637,47.548,48.561,47.623,48.468,47.623z"/>
	</g>
	<g>
		<path class="st0" d="M48.468,32.594h-1.689c-0.093,0-0.169-0.076-0.169-0.169c0-0.093,0.076-0.169,0.169-0.169h1.689
			c0.093,0,0.169,0.076,0.169,0.169C48.637,32.518,48.561,32.594,48.468,32.594z"/>
	</g>
	<g>
		<path class="st0" d="M48.468,47.623c-0.093,0-0.169-0.076-0.169-0.169v-15.03c0-0.093,0.076-0.169,0.169-0.169
			c0.093,0,0.169,0.076,0.169,0.169v15.03C48.637,47.548,48.561,47.623,48.468,47.623z"/>
	</g>
	<g>
		<path class="st0" d="M46.779,47.623c-0.093,0-0.169-0.076-0.169-0.169v-15.03c0-0.093,0.076-0.169,0.169-0.169
			c0.093,0,0.169,0.076,0.169,0.169v15.03C46.948,47.548,46.872,47.623,46.779,47.623z"/>
	</g>
	<g>
		<path class="st0" d="M46.779,92.714c-0.093,0-0.169-0.076-0.169-0.169V47.454c0-0.093,0.076-0.169,0.169-0.169
			c0.093,0,0.169,0.076,0.169,0.169v45.091C46.948,92.638,46.872,92.714,46.779,92.714z"/>
	</g>
	<g>
		<path class="st0" d="M48.468,132.57h-1.689c-0.093,0-0.169-0.076-0.169-0.169s0.076-0.169,0.169-0.169h1.689
			c0.093,0,0.169,0.076,0.169,0.169S48.561,132.57,48.468,132.57z"/>
	</g>
	<g>
		<path class="st0" d="M48.468,140c-0.093,0-0.169-0.076-0.169-0.169v-7.43c0-0.093,0.076-0.169,0.169-0.169
			c0.093,0,0.169,0.076,0.169,0.169v7.43C48.637,139.924,48.561,140,48.468,140z"/>
	</g>
	<g>
		<path class="st0" d="M46.779,140c-0.093,0-0.169-0.076-0.169-0.169v-7.43c0-0.093,0.076-0.169,0.169-0.169
			c0.093,0,0.169,0.076,0.169,0.169v7.43C46.948,139.924,46.872,140,46.779,140z"/>
	</g>
	<g>
		<path class="st0" d="M48.468,7.768h-1.689c-0.093,0-0.169-0.076-0.169-0.169s0.076-0.169,0.169-0.169h1.689
			c0.093,0,0.169,0.076,0.169,0.169S48.561,7.768,48.468,7.768z"/>
	</g>
	<g>
		<path class="st0" d="M48.468,21.616c-0.093,0-0.169-0.076-0.169-0.169V7.599c0-0.093,0.076-0.169,0.169-0.169
			c0.093,0,0.169,0.076,0.169,0.169v13.848C48.637,21.541,48.561,21.616,48.468,21.616z"/>
	</g>
	<g>
		<path class="st0" d="M46.779,32.594c-0.093,0-0.169-0.076-0.169-0.169V7.599c0-0.093,0.076-0.169,0.169-0.169
			c0.093,0,0.169,0.076,0.169,0.169v24.825C46.948,32.518,46.872,32.594,46.779,32.594z"/>
	</g>
	<g>
		<path class="st0" d="M48.468,7.768c-0.093,0-0.169-0.076-0.169-0.169v-7.43C48.299,0.076,48.375,0,48.468,0
			c0.093,0,0.169,0.076,0.169,0.169v7.43C48.637,7.693,48.561,7.768,48.468,7.768z"/>
	</g>
	<g>
		<path class="st0" d="M46.779,7.768c-0.093,0-0.169-0.076-0.169-0.169v-7.43C46.61,0.076,46.686,0,46.779,0
			c0.093,0,0.169,0.076,0.169,0.169v7.43C46.948,7.693,46.872,7.768,46.779,7.768z"/>
	</g>
	<g>
		<path class="st0" d="M48.468,132.57c-0.093,0-0.169-0.076-0.169-0.169v-13.679c0-0.093,0.076-0.169,0.169-0.169
			c0.093,0,0.169,0.076,0.169,0.169v13.679C48.637,132.494,48.561,132.57,48.468,132.57z"/>
	</g>
	<g>
		<path class="st0" d="M46.779,132.57c-0.093,0-0.169-0.076-0.169-0.169v-24.825c0-0.093,0.076-0.169,0.169-0.169
			c0.093,0,0.169,0.076,0.169,0.169v24.825C46.948,132.494,46.872,132.57,46.779,132.57z"/>
	</g>
	<g>
		<g>
			<path class="st0" d="M90.359,69.74c-0.088-0.005-0.201,0-0.323,0.02c-0.675,0.113-1.033,0.607-1.106,1.131h0.015
				c0.152-0.201,0.416-0.368,0.769-0.368c0.563,0,0.96,0.407,0.96,1.029c0,0.583-0.396,1.121-1.058,1.121
				c-0.681,0-1.126-0.528-1.126-1.356c0-0.627,0.225-1.121,0.538-1.435c0.264-0.259,0.617-0.421,1.018-0.47
				c0.127-0.019,0.235-0.024,0.313-0.024V69.74z M90.236,71.576c0-0.455-0.259-0.729-0.656-0.729c-0.259,0-0.499,0.161-0.617,0.392
				c-0.03,0.049-0.049,0.113-0.049,0.191c0.01,0.524,0.25,0.91,0.7,0.91C89.986,72.34,90.236,72.031,90.236,71.576z"/>
		</g>
		<g>
			<path class="st0" d="M93.121,69.437v0.284l-1.386,2.898h-0.446l1.381-2.815v-0.01h-1.557v-0.357H93.121z"/>
		</g>
	</g>
	<g>
		<path class="st0" d="M93.221,121.424H71.942c-0.093,0-0.169-0.076-0.169-0.169s0.076-0.169,0.169-0.169h21.279
			c0.093,0,0.169,0.076,0.169,0.169S93.314,121.424,93.221,121.424z"/>
	</g>
	<g>
		<path class="st0" d="M93.221,21.616H75.32c-0.093,0-0.169-0.076-0.169-0.169s0.076-0.169,0.169-0.169h17.901
			c0.093,0,0.169,0.076,0.169,0.169S93.314,21.616,93.221,21.616z"/>
	</g>
	<g>
		<path class="st0" d="M91.701,120.157c-0.093,0-0.169-0.074-0.169-0.165V73.964c0-0.091,0.076-0.165,0.169-0.165
			c0.093,0,0.169,0.074,0.169,0.165v46.028C91.87,120.083,91.794,120.157,91.701,120.157z"/>
	</g>
	<g>
		<path class="st0" d="M91.701,68.902c-0.093,0-0.169-0.072-0.169-0.161v-45.16c0-0.089,0.076-0.161,0.169-0.161
			c0.093,0,0.169,0.072,0.169,0.161v45.16C91.87,68.83,91.794,68.902,91.701,68.902z"/>
	</g>
</g>
</svg>
