<?xml version="1.0" encoding="utf-8"?>
<!-- Generator: Adobe Illustrator 20.0.0, SVG Export Plug-In . SVG Version: 6.00 Build 0)  -->
<svg version="1.1" id="WATERMARK" xmlns="http://www.w3.org/2000/svg" xmlns:xlink="http://www.w3.org/1999/xlink" x="0px" y="0px"
	 viewBox="0 0 300 200" style="enable-background:new 0 0 300 200;" xml:space="preserve">
<style type="text/css">
	.st0{opacity:0.3;fill:#DDDDDD;}
</style>
<path class="st0" d="M166.6,82.2c11.5,0,18.1-4.8,18.1-13.2c0-4.6-1.9-8.2-5.6-10.7l0,0l0,0c-3.3-2.1-8.6-2.5-12.4-2.5h-14.9h-2v2
	v22.5v2h2H166.6z M151.7,57.7h14.9c5.1,0,9.2,0.8,11.4,2.2c3.2,2.1,4.7,5.1,4.7,9.1c0,7.3-5.7,11.2-16.1,11.2h-14.9V57.7z"/>
<path class="st0" d="M157.3,174c-8.9,0-17.8-1.2-26.5-3.4l0.1-81.3h8.5V161h12.3V90.1h4.1l30.4,29.4l0.3,0.2h0
	c12.9,11.7,20.7,17.3,29.6,17.3c17.5,0,25.3-10.9,25.3-21.8c0-14.4-11.5-18.7-21.6-22.6c-7.9-3-14.7-5.6-14.7-12.2
	c0-5.5,5.2-8.3,10.2-8.3c6.1,0,9.4,2.8,13.8,8.4l0.5,0.6l8.9-7l-0.4-0.6c-3.7-4.8-10-11.3-22-11.3c-13.4,0-22.7,7.8-22.7,19.1
	c0,14.8,11.5,18.9,21.7,22.5c7.8,2.7,14.5,5.1,14.5,11.8c0,7.2-4.1,10.7-12.4,10.7c-5,0-7.6-1.7-15.5-8.2l-30.2-28
	C187.1,89,195,81.7,195,68.6c0-12.8-9.8-20.8-25.5-20.8h-30.1v31.9h-39v9.5h18.8c0,7.6-0.2,71-0.2,77.9h0l0,11.2l0.1,0.6l0.5,0.2
	c12.2,4.2,24.9,6.3,37.8,6.3c64,0,116.1-52.1,116.1-116.1c0-25.9-8.6-49.9-23-69.3h-2.5c14.7,19.2,23.5,43.2,23.5,69.3
	c0,62.9-51.2,114.1-114.1,114.1c-12.4,0-24.6-2-36.4-6l0-9.3l0-1c0-6.1,0.2-56.5,0.2-73l0-4.9l0-2h-2h-16.8v-5.5h37h2v-2V49.8h28.1
	c14.7,0,23.5,7,23.5,18.8c0,12.1-7.1,18.5-21.6,19.5l-4.6,0.3l3.4,3.1l30.2,28l0,0l0,0c7.9,6.6,11,8.7,16.8,8.7
	c11.9,0,14.4-6.9,14.4-12.7c0-8.1-7.7-10.8-15.9-13.7c-10-3.5-20.4-7.2-20.4-20.6c0-10,8.5-17.1,20.7-17.1c5.1,0,12.7,1,19.7,9.5
	l-5.8,4.6c-4.4-5.3-8.1-8.2-14.6-8.2c-6.1,0-12.2,3.5-12.2,10.3c0,8,7.7,10.9,15.9,14c10,3.8,20.3,7.7,20.3,20.7
	c0,5.2-2,10-5.5,13.5c-4.1,4.1-10.3,6.2-17.8,6.2c-8.3,0-15.7-5.4-28.3-16.8l-0.6-0.5h0l-30-29l-0.6-0.6h-0.8h-4.1h-2v2V159h-8.3
	V89.2v-2h-2h-8.5h-2l0,2l-0.1,81.3l0,1.5l1.5,0.4c8.9,2.3,17.9,3.5,27,3.5c58.8,0,106.6-47.8,106.6-106.6c0-26.5-9.7-50.7-25.7-69.4
	h-2.7c16.4,18.5,26.4,42.8,26.4,69.4C261.9,127,215,174,157.3,174z"/>
<path class="st0" d="M84.8,152l-0.5-0.4c-0.9-0.8-1.7-1.5-2.6-2.3l-0.2-0.2c-1.7-1.6-3.3-3.2-4.9-4.9l-0.4-0.4
	c-0.7-0.7-1.4-1.5-2-2.3l-1.1-1.3c-0.6-0.7-1.1-1.4-1.7-2l-0.5-0.6c-1.2-1.5-2.4-3-3.5-4.6l-0.1-0.2c-0.2-0.3-0.5-0.7-0.7-1
	c-0.5-0.8-1-1.5-1.6-2.3l-0.8-1.3L8.8,161.6C17.9,176,29,188.9,41.6,200h3.1c-12.8-10.9-24-23.5-33.1-37.7l51.9-31.5
	c0.5,0.7,0.9,1.4,1.4,2c0.2,0.4,0.5,0.7,0.8,1.1l0.1,0.2c1.1,1.6,2.3,3.2,3.5,4.7l0.5,0.7c0.6,0.7,1.2,1.4,1.7,2.1l1.1,1.3
	c0.6,0.7,1.3,1.5,2.1,2.3l0.4,0.4c1.6,1.7,3.3,3.4,5,5l0.2,0.2c0.9,0.8,1.8,1.6,2.6,2.3l0.5,0.5c5.4,4.7,11.3,8.8,17.5,12.4
	L83.7,200H86l17.7-34.9C96.9,161.4,90.6,157,84.8,152z"/>
<path class="st0" d="M75.8,113.9c-0.3-0.5-0.6-1.1-0.8-1.6c-0.2-0.5-0.5-0.9-0.7-1.4c-0.6-1.1-1.1-2.3-1.6-3.4l-0.1-0.2
	c-0.1-0.3-0.3-0.6-0.4-0.9c-0.3-0.7-0.6-1.4-0.9-2.1l-0.4-1.1c-0.6-1.4-1.1-2.9-1.6-4.4L69,98.2c-0.3-0.8-0.5-1.6-0.8-2.5l-0.2-0.7
	c-0.8-2.7-1.4-5.4-1.9-8.1l0-0.2c-0.7-3.7-1.1-7.5-1.3-11.3L0,76.5c1.2,24.9,8.4,49.2,20.9,70.7L75.8,113.9z M62.9,77.6
	c0.3,3.2,0.7,6.5,1.2,9.6l0,0.2c0.5,2.7,1.2,5.5,1.9,8.3l0.2,0.7c0.3,0.9,0.5,1.7,0.8,2.5l0.1,0.4c0.5,1.5,1,3,1.6,4.5l0.5,1.1
	c0.3,0.8,0.6,1.5,0.9,2.2c0.1,0.3,0.3,0.6,0.4,0.9l0.1,0.2c0.5,1.2,1.1,2.4,1.7,3.5c0.2,0.5,0.5,0.9,0.7,1.3l-51.5,31.3
	C10.2,124.3,3.5,101.6,2.1,78.5L62.9,77.6z"/>
<path class="st0" d="M15.9,70.2l66.4-1c0-0.8,0-1.6,0.1-2.3c0-0.2,0-0.5,0-0.7l0-0.2c0.1-0.9,0.1-1.8,0.2-2.7l0.1-0.7
	c0.1-1.1,0.2-2.1,0.4-3.1c0-0.3,0.1-0.6,0.1-0.8l0-0.2c0.1-0.7,0.3-1.5,0.4-2.2l0.1-0.3c0.1-0.3,0.1-0.6,0.2-0.9
	c0.2-0.9,0.4-1.9,0.6-2.8c0.1-0.3,0.2-0.6,0.2-0.9l0.1-0.3c0.2-0.6,0.3-1.2,0.5-1.8c0.1-0.5,0.3-1,0.4-1.4c0.2-0.5,0.3-0.9,0.5-1.4
	l0.1-0.1c0.3-0.9,0.6-1.7,0.9-2.5l0.5-1.2c0.3-0.6,0.5-1.2,0.7-1.7l0.4-1c0.9-1.9,1.9-3.9,2.9-5.7c0-0.1,0.1-0.1,0.1-0.2L38.5,0
	h-4.2c-12,21-18.4,44.9-18.4,69.3C15.9,69.6,15.9,69.9,15.9,70.2z M36.1,0.8l53.2,33.8c-0.8,1.4-1.5,2.9-2.2,4.4l-0.4,1
	c-0.2,0.6-0.5,1.1-0.8,1.8L85.4,43c-0.3,0.8-0.6,1.7-1,2.6l0,0.1c-0.2,0.5-0.3,0.9-0.5,1.4c-0.2,0.5-0.3,1-0.5,1.5
	c-0.2,0.6-0.4,1.2-0.5,1.8l-0.1,0.3c-0.1,0.3-0.2,0.6-0.3,0.9c-0.2,0.9-0.4,1.9-0.7,2.9c-0.1,0.3-0.1,0.6-0.2,0.9l-0.1,0.3
	c-0.2,0.9-0.3,1.6-0.4,2.2l0,0.2c0,0.3-0.1,0.6-0.1,0.9c-0.2,1.1-0.3,2.2-0.4,3.3l-0.1,0.7c-0.1,0.9-0.2,1.8-0.2,2.8l0,0.2
	c0,0.3,0,0.5,0,0.7c0,0.2,0,0.3,0,0.5l-62.5,0.9C18.1,44.5,24.4,21.3,36.1,0.8z"/>
<path class="st0" d="M110.5,38.3c0.8-1.2,1.7-2.3,2.6-3.3l0.8-1c1.6-1.8,3.3-3.5,5.1-5.1l0.1-0.1c0.8-0.7,1.6-1.4,2.6-2.1l0-0.1
	l0.3-0.2c1-0.8,2.1-1.5,3.1-2.2c1.1-0.7,2.2-1.4,3.2-1.9l0.2-0.1c0.5-0.3,0.9-0.5,1.4-0.8L120.3,0h-2.2l9.1,20.5l0,0
	c-1.1,0.6-2.2,1.3-3.3,2c-1,0.7-2.1,1.4-3.1,2.2l-0.3,0.2l-0.3,0.2l-0.1,0.1c-0.8,0.7-1.6,1.3-2.4,2l-0.1,0.1
	c-1.8,1.6-3.6,3.4-5.3,5.3l-0.8,1c-0.5,0.6-1,1.3-1.5,1.9L55.2,0.8c0.2-0.3,0.4-0.5,0.6-0.8h-2.4c-0.3,0.5-0.6,0.9-1,1.4L110.5,38.3
	z"/>
<path class="st0" d="M279.6,0C291.3,20.4,298,44.1,298,69.3c0,59.7-37.7,110.8-90.6,130.7h5.4C264,178.6,300,128,300,69.3
	c0-25.1-6.6-48.8-18.1-69.3H279.6z"/>
<path class="st0" d="M103.7,183.8l0.2,0.1c2.4,1.2,4.7,2.2,6.9,3.1l0.2,0.1l0,0l0,0c1.9,0.8,3.9,1.5,6,2.2l0.1,0
	c0.4,0.1,0.8,0.3,1.1,0.4c1.5,0.5,3,1,4.8,1.5c0.7,0.2,1.4,0.4,2.1,0.6c0.9,0.2,1.8,0.5,2.7,0.7c1.4,0.4,2.8,0.7,4.1,1
	c0.6,0.1,1.1,0.2,1.7,0.3l0.5,0.1c1.2,0.2,2.5,0.5,3.5,0.6c0.8,0.1,1.5,0.2,2.3,0.4c1.4,0.2,2.9,0.4,4.3,0.6
	c0.6,0.1,1.2,0.1,1.8,0.2c1.7,0.2,3.3,0.3,5.1,0.4l1.5,0.1c2,0.1,3.7,0.1,5.4,0.1l0.3,0c70,0,126.9-57,126.9-126.9
	c0-25.5-7.6-49.3-20.6-69.3h-2.4c13.3,19.8,21,43.7,21,69.3c0,68.9-56,124.9-124.9,124.9l-0.2,0c-1.7,0-3.4,0-5.4-0.1l-1.5-0.1
	c-1.7-0.1-3.4-0.2-5-0.4c-0.6-0.1-1.2-0.1-1.7-0.2c-1.4-0.2-2.9-0.3-4.3-0.5c-0.7-0.1-1.5-0.2-2.2-0.3c-1.1-0.2-2.3-0.4-3.4-0.6
	l-0.5-0.1c-0.6-0.1-1.1-0.2-1.7-0.3c-1.3-0.3-2.7-0.6-4-0.9c-0.9-0.2-1.8-0.5-2.7-0.7c-0.7-0.2-1.4-0.4-2-0.6
	c-1.7-0.5-3.2-1-4.7-1.5c-0.4-0.1-0.8-0.3-1.2-0.4c-2.1-0.7-4.1-1.5-5.9-2.2l-0.2-0.1c-2.2-0.9-4.5-1.9-6.9-3l-1.9-0.9L93.3,200h2.2
	L103.7,183.8z"/>
</svg>
