<?xml version="1.0" encoding="utf-8"?>
<!-- Generator: Adobe Illustrator 19.2.1, SVG Export Plug-In . SVG Version: 6.00 Build 0)  -->
<svg version="1.1" xmlns="http://www.w3.org/2000/svg" xmlns:xlink="http://www.w3.org/1999/xlink" x="0px" y="0px"
	 viewBox="0 0 100 111.6" style="enable-background:new 0 0 100 111.6;" xml:space="preserve">

<linearGradient id="gradient" x1="0%" y1="0%" x2="100%" y2="0%" spreadMethod="reflect" gradientTransform="rotate(-45)">
	<stop offset="0" style="stop-color:#88e333"/>
	<stop offset="50%" style="stop-color:#4ebb00"/>
	<stop offset="100%" style="stop-color:#88e333"/>
</linearGradient>

<style>
	#logo-svg-stroke {
    	fill: #88e333;
    	-webkit-animation: greensheen 3s infinite; /* Chrome, Safari, Opera */
		animation: greensheen 3s infinite;
	}
	/* Chrome, Safari, Opera */
	@-webkit-keyframes greensheen {
	    0% {fill: #4ebb00;}
	    50% {fill: #aaff5b;}
	    100% {fill: #4ebb00;}
	}

	/* Standard syntax */
	@keyframes greensheen {
	    0% {fill: #4ebb00;}
	    50% {fill: #aaff5b;}
	    100% {fill: #4ebb00;}
	}
</style>

<g id="logo-svg" fill="url(#gradient)">
	<path class="st0" d="M40.2,55.5c0,5.5-0.1,22.3-0.1,24.3l0,0.3l0,3.2c4,1.3,8.1,2,12.3,2c21.1,0,38.2-17.1,38.2-38.2
		C90.6,26.2,73.5,9,52.4,9c-5.1,0-10.1,1-14.8,3l1.2,2.6c4.3-1.8,8.9-2.7,13.6-2.7c19.5,0,35.4,15.9,35.4,35.4
		c0,19.5-15.9,35.4-35.4,35.4c-3,0-6-0.4-9-1.2l-0.4-0.1l0-0.4l0-27.1l0-0.5h0.5h2.8H47v0.5v23.4h3.1V54.2v-0.5h0.5h1.4h0.2l0.1,0.1
		l10.1,9.7h0l0.1,0.1c4.2,3.8,6.7,5.6,9.5,5.6c5.5,0,7.9-3.4,7.9-6.8c0-4.4-3.5-5.8-6.9-7.1c-2.7-1-5.2-2-5.2-4.5
		c0-2.2,2-3.3,3.9-3.3c2.1,0,3.4,1,4.8,2.8l2.2-1.7c-1.2-1.5-3.2-3.4-6.8-3.4c-4.2,0-7.1,2.4-7.1,5.9c0,4.6,3.5,5.8,6.9,7
		c2.7,0.9,5.2,1.8,5.2,4.4c0,2.7-1.6,4.1-4.6,4.1c-1.9,0-2.9-0.7-5.5-2.9l-10.1-9.4L56,53.7l1.2-0.1c4.9-0.3,7.3-2.5,7.3-6.7
		c0-4-3.1-6.4-8-6.4H47v10.1v0.5h-0.5H34v2.2h5.8h0.5l0,0.5L40.2,55.5z M50.1,50.9v-7.5v-0.5h0.5h5c1.3,0,3,0.1,4.1,0.8
		c1.2,0.8,1.8,2,1.8,3.4c0,2.7-2.1,4.2-5.9,4.2h-5h-0.5V50.9z M33.9,79.3l-9.3,18.3C16.1,93,8.9,86.3,3.6,78.2l17.6-10.7l0,0
		c0.2,0.3,0.3,0.5,0.5,0.8c0.1,0.1,0.2,0.2,0.3,0.4l0,0.1c0.4,0.5,0.8,1.1,1.2,1.6l0.2,0.2c0.2,0.2,0.4,0.5,0.6,0.7l0.4,0.4
		c0.2,0.3,0.5,0.5,0.7,0.8l0.1,0.1c0.5,0.6,1.1,1.1,1.7,1.7l0.1,0.1c0.3,0.3,0.6,0.5,0.9,0.8l0.2,0.1C29.8,76.7,31.8,78.2,33.9,79.3
		z M7.1,72.5C3.3,65.7,1,58,0.5,50.1l20.6-0.3c0.1,1.1,0.2,2.2,0.4,3.3l0,0.1c0.2,0.9,0.4,1.8,0.6,2.7l0.1,0.2
		c0.1,0.3,0.2,0.6,0.3,0.8l0.1,0.1c0.2,0.5,0.3,1,0.5,1.5l0.2,0.4c0.1,0.2,0.2,0.5,0.3,0.7c0,0.1,0.1,0.2,0.1,0.3l0,0.1
		c0.2,0.4,0.4,0.8,0.5,1.2c0.1,0.2,0.2,0.3,0.2,0.5c0,0,0,0.1,0.1,0.1L7.1,72.5z M27,46.7L5.8,47c0-8,2.2-15.9,6.2-22.9l18,11.4
		c-0.3,0.5-0.6,1.1-0.8,1.6L29,37.5c-0.1,0.2-0.2,0.4-0.3,0.6l-0.2,0.4c-0.1,0.3-0.2,0.6-0.3,0.9l0,0c-0.1,0.2-0.1,0.3-0.2,0.5
		c-0.1,0.2-0.1,0.3-0.2,0.5c-0.1,0.2-0.1,0.4-0.2,0.6l0,0.1c0,0.1-0.1,0.2-0.1,0.3c-0.1,0.3-0.2,0.6-0.2,1c0,0.1,0,0.2-0.1,0.3
		l0,0.1c0,0.3-0.1,0.5-0.1,0.7l0,0.1c0,0.1,0,0.2,0,0.3c-0.1,0.4-0.1,0.7-0.1,1.1l0,0.2c0,0.3-0.1,0.6-0.1,0.9l0,0.1
		c0,0.1,0,0.2,0,0.2C27,46.5,27,46.6,27,46.7z M36.7,36.2L18.2,24.4C24,16,31,12.2,33.7,10.9l9,20.1c0,0-0.1,0-0.1,0l-0.1,0
		c-0.4,0.2-0.7,0.4-1.1,0.7c-0.3,0.2-0.7,0.5-1,0.7l-0.1,0.1l-0.1,0.1l0,0c-0.3,0.2-0.6,0.5-0.8,0.7l-0.1,0
		c-0.6,0.5-1.2,1.1-1.7,1.7l-0.3,0.3C37.1,35.7,36.9,36,36.7,36.2z M99.5,47.2c0,25.7-20.9,46.7-46.7,46.7h-0.2h-0.5l0,0.5l0,16.7
		l-0.2,0c-9.5-0.1-18.5-2.3-27-6.4l-0.2-0.1l9.8-19.4l0.2,0.1c0.8,0.4,1.6,0.7,2.3,1l0.1,0c0.6,0.3,1.3,0.5,2,0.8
		c0.1,0,0.3,0.1,0.4,0.1c0.5,0.2,1,0.3,1.6,0.5c0.2,0.1,0.5,0.1,0.7,0.2c0.3,0.1,0.6,0.2,0.9,0.2c0.5,0.1,0.9,0.2,1.4,0.3
		c0.2,0,0.4,0.1,0.6,0.1l0.2,0c0.4,0.1,0.8,0.1,1.2,0.2c0.3,0,0.5,0.1,0.8,0.1c0.5,0.1,1,0.1,1.4,0.2c0.2,0,0.4,0,0.6,0.1
		c0.6,0.1,1.1,0.1,1.7,0.1l0.5,0c0.7,0,1.2,0,1.8,0l0.1,0c23.2,0,42.1-18.9,42.1-42.1C94.9,24,76,5.1,52.8,5.1c-0.7,0-1.4,0-2,0.1
		l-0.2,0c-0.6,0-1.2,0.1-1.9,0.1l-0.3,0c-0.5,0.1-1.1,0.1-1.7,0.2l-0.5,0.1c-0.5,0.1-1,0.2-1.5,0.3l-0.2,0l-0.1,0
		C44.3,5.9,44.1,6,44,6c-0.4,0.1-0.9,0.2-1.3,0.3c-0.3,0.1-0.6,0.1-0.9,0.2c-0.3,0.1-0.7,0.2-1,0.3c-0.4,0.1-0.8,0.2-1.2,0.4
		l-0.2,0.1c-1.1,0.4-2.2,0.8-3.2,1.2l-0.2,0.1l-1.9-4.2l0.2-0.1c5.8-2.5,12-3.7,18.3-3.7C78.5,0.5,99.5,21.5,99.5,47.2z"/>
</g>
<g id="logo-svg-stroke" fill="#88e333">
	<path class="st1" d="M52.8,0.5c25.8,0,46.7,21,46.7,46.7c0,25.7-20.9,46.7-46.7,46.7h-0.2h-0.5l0,0.5l0,16.7l-0.2,0
		c-9.5-0.1-18.5-2.3-27-6.4l-0.2-0.1l9.8-19.4l0.2,0.1c0.8,0.4,1.6,0.7,2.3,1l0.1,0c0.6,0.3,1.3,0.5,2,0.8c0.1,0,0.3,0.1,0.4,0.1
		c0.5,0.2,1,0.3,1.6,0.5c0.2,0.1,0.5,0.1,0.7,0.2c0.3,0.1,0.6,0.2,0.9,0.2c0.5,0.1,0.9,0.2,1.4,0.3c0.2,0,0.4,0.1,0.6,0.1l0.2,0
		c0.4,0.1,0.8,0.1,1.2,0.2c0.3,0,0.5,0.1,0.8,0.1c0.5,0.1,1,0.1,1.4,0.2c0.2,0,0.4,0,0.6,0.1c0.6,0.1,1.1,0.1,1.7,0.1l0.5,0
		c0.7,0,1.2,0,1.8,0l0.1,0c23.2,0,42.1-18.9,42.1-42.1C94.9,24,76,5.1,52.8,5.1c-0.7,0-1.4,0-2,0.1l-0.2,0c-0.6,0-1.2,0.1-1.9,0.1
		l-0.3,0c-0.5,0.1-1.1,0.1-1.7,0.2l-0.5,0.1c-0.5,0.1-1,0.2-1.5,0.3l-0.2,0l-0.1,0C44.3,5.9,44.1,6,44,6c-0.4,0.1-0.9,0.2-1.3,0.3
		c-0.3,0.1-0.6,0.1-0.9,0.2c-0.3,0.1-0.7,0.2-1,0.3c-0.4,0.1-0.8,0.2-1.2,0.4l-0.2,0.1c-1.1,0.4-2.2,0.8-3.2,1.2l-0.2,0.1l-1.9-4.2
		l0.2-0.1C40.2,1.8,46.4,0.5,52.8,0.5 M52.8,0c-6.4,0-12.7,1.3-18.5,3.8l-0.7,0.3l2.3,5.1l0.7-0.3c1-0.4,2.1-0.8,3.2-1.2l0.2-0.1
		c0.4-0.1,0.8-0.2,1.1-0.4c0.3-0.1,0.6-0.2,1-0.3c0.3-0.1,0.6-0.2,0.9-0.2c0.4-0.1,0.8-0.2,1.3-0.3c0.2,0,0.3-0.1,0.5-0.1l0.2,0
		c0.5-0.1,1-0.2,1.5-0.3L46.8,6c0.6-0.1,1.1-0.2,1.7-0.2l0.3,0c0.7-0.1,1.3-0.1,1.8-0.1l0.2,0c0.7,0,1.4-0.1,2-0.1
		c23,0,41.6,18.7,41.6,41.6c0,23-18.7,41.6-41.6,41.6l-0.1,0c-0.6,0-1.1,0-1.8,0l-0.5,0c-0.6,0-1.1-0.1-1.7-0.1
		c-0.2,0-0.4,0-0.6-0.1c-0.5-0.1-1-0.1-1.4-0.2c-0.2,0-0.5-0.1-0.7-0.1c-0.4-0.1-0.8-0.1-1.1-0.2l-0.2,0c-0.2,0-0.4-0.1-0.6-0.1
		c-0.4-0.1-0.9-0.2-1.3-0.3c-0.3-0.1-0.6-0.2-0.9-0.2c-0.2-0.1-0.5-0.1-0.7-0.2c-0.6-0.2-1.1-0.3-1.6-0.5c-0.1,0-0.3-0.1-0.4-0.1
		c-0.7-0.2-1.4-0.5-2-0.7l-0.1,0c-0.7-0.3-1.5-0.6-2.3-1l-0.6-0.3L24,104.8l0.7,0.3c8.5,4.1,17.7,6.3,27.2,6.4l0.7,0l0-17.2h0.2
		c26,0,47.2-21.2,47.2-47.2C100,21.2,78.8,0,52.8,0L52.8,0z"/>
	<path class="st1" d="M52.4,9c21.1,0,38.2,17.1,38.2,38.2c0,21.1-17.1,38.2-38.2,38.2c-4.2,0-8.3-0.7-12.3-2l0-3.2l0-0.3
		c0-2,0.1-18.8,0.1-24.3l0-1.6l0-0.5h-0.5H34v-2.2h12.5H47v-0.5V40.6h9.5c4.9,0,8,2.5,8,6.4c0,4.1-2.4,6.3-7.3,6.7L56,53.7l0.8,0.8
		l10.1,9.4c2.6,2.2,3.6,2.9,5.5,2.9c3.1,0,4.6-1.4,4.6-4.1c0-2.6-2.5-3.5-5.2-4.4c-3.4-1.2-6.9-2.4-6.9-7c0-3.4,2.9-5.9,7.1-5.9
		c3.6,0,5.6,1.9,6.8,3.4l-2.2,1.7c-1.5-1.8-2.7-2.8-4.8-2.8c-1.9,0-3.9,1.1-3.9,3.3c0,2.6,2.5,3.5,5.2,4.5c3.4,1.3,6.9,2.6,6.9,7.1
		c0,3.4-2.5,6.8-7.9,6.8c-2.8,0-5.3-1.8-9.5-5.6l-0.1-0.1h0l-10.1-9.7l-0.1-0.1h-0.2h-1.4h-0.5v0.5v23.1H47V53.9v-0.5h-0.5h-2.8
		h-0.5l0,0.5l0,27.1l0,0.4l0.4,0.1c2.9,0.8,6,1.2,9,1.2c19.5,0,35.4-15.9,35.4-35.4c0-19.5-15.9-35.4-35.4-35.4
		c-4.7,0-9.3,0.9-13.6,2.7L37.7,12C42.4,10,47.3,9,52.4,9 M50.1,51.4h0.5h5c3.7,0,5.9-1.5,5.9-4.2c0-1.5-0.6-2.6-1.8-3.4
		c-1.1-0.7-2.8-0.8-4.1-0.8h-5h-0.5v0.5v7.5V51.4 M52.4,8.5c-5.3,0-10.4,1-15.2,3.1L37,11.7l1.6,3.5l0.2-0.1
		c4.3-1.9,8.9-2.8,13.6-2.8c19.2,0,34.9,15.6,34.9,34.9c0,19.2-15.6,34.9-34.9,34.9c-3,0-5.9-0.4-8.8-1.1l0-27.1h2.8v23.9h4.1V54.2
		h1.4L62.1,64l0.1,0.1h0c4.3,3.9,6.9,5.8,9.9,5.8c5.8,0,8.4-3.6,8.4-7.3c0-4.8-3.8-6.2-7.2-7.5c-2.6-1-4.9-1.9-4.9-4.1
		c0-1.8,1.7-2.8,3.4-2.8c2,0,3.1,0.9,4.6,2.8l0.2,0.2l3-2.3l-0.1-0.2C78.1,47,76,44.9,72,44.9c-4.5,0-7.6,2.6-7.6,6.4
		c0,4.9,3.8,6.3,7.2,7.5c2.6,0.9,4.8,1.7,4.8,3.9c0,2.4-1.4,3.6-4.1,3.6c-1.7,0-2.5-0.6-5.2-2.7l-10.1-9.3c5.2-0.4,7.8-2.8,7.8-7.2
		c0-4.3-3.3-6.9-8.5-6.9h-10v10.6h-13v3.2h6.3c0,2.5-0.1,23.7-0.1,26h0l0,3.7l0,0.2l0.2,0.1c4.1,1.4,8.3,2.1,12.6,2.1
		c21.3,0,38.7-17.4,38.7-38.7S73.8,8.5,52.4,8.5L52.4,8.5z M50.6,50.9v-7.5h5c1.7,0,3.1,0.3,3.8,0.7c1.1,0.7,1.6,1.7,1.6,3
		c0,2.4-1.9,3.7-5.4,3.7H50.6L50.6,50.9z"/>
	<path class="st1" d="M21.2,67.5L21.2,67.5c0.2,0.3,0.4,0.5,0.5,0.8c0.1,0.1,0.2,0.2,0.3,0.4l0,0.1c0.4,0.5,0.8,1.1,1.2,1.6l0.2,0.2
		c0.2,0.2,0.4,0.5,0.6,0.7l0.4,0.4c0.2,0.3,0.5,0.5,0.7,0.8l0.1,0.1c0.5,0.6,1.1,1.1,1.7,1.7l0.1,0.1c0.3,0.3,0.6,0.5,0.9,0.8
		l0.2,0.1c1.8,1.6,3.8,3,5.9,4.2l-9.3,18.3C16.1,93,8.9,86.3,3.6,78.2L21.2,67.5 M21.4,66.8L2.9,78c5.4,8.6,13,15.6,21.9,20.3
		l9.7-19.2c-2.2-1.2-4.4-2.7-6.3-4.4l-0.2-0.1c-0.3-0.3-0.6-0.5-0.9-0.8l-0.1-0.1c-0.6-0.5-1.1-1.1-1.6-1.6L25.4,72
		c-0.2-0.2-0.5-0.5-0.7-0.8l-0.4-0.4c-0.2-0.2-0.4-0.5-0.6-0.7L23.6,70c-0.4-0.5-0.8-1-1.2-1.5l0-0.1c-0.1-0.1-0.2-0.2-0.2-0.3
		c-0.2-0.3-0.3-0.5-0.5-0.8L21.4,66.8L21.4,66.8z"/>
	<path class="st1" d="M21.1,49.8c0.1,1.1,0.2,2.2,0.4,3.3l0,0.1c0.2,0.9,0.4,1.8,0.6,2.7l0.1,0.2c0.1,0.3,0.2,0.6,0.3,0.8l0.1,0.1
		c0.2,0.5,0.3,1,0.5,1.5l0.2,0.4c0.1,0.2,0.2,0.5,0.3,0.7c0,0.1,0.1,0.2,0.1,0.3l0,0.1c0.2,0.4,0.4,0.8,0.5,1.2
		c0.1,0.2,0.2,0.3,0.2,0.5c0,0,0,0.1,0.1,0.1L7.1,72.5C3.3,65.7,1,58,0.5,50.1L21.1,49.8 M21.6,49.3L0,49.6C0.4,57.9,2.8,66,7,73.2
		l18.3-11.1c-0.1-0.2-0.2-0.4-0.3-0.5c-0.1-0.2-0.2-0.3-0.2-0.5c-0.2-0.4-0.4-0.8-0.5-1.1l0-0.1c0-0.1-0.1-0.2-0.1-0.3
		c-0.1-0.2-0.2-0.5-0.3-0.7l-0.1-0.4c-0.2-0.5-0.4-1-0.5-1.5L23,56.9c-0.1-0.3-0.2-0.5-0.3-0.8l-0.1-0.2c-0.3-0.9-0.5-1.8-0.6-2.7
		l0-0.1C21.8,51.8,21.7,50.6,21.6,49.3L21.6,49.3z"/>
	<path class="st1" d="M12,24.2l18,11.4c-0.3,0.5-0.6,1.1-0.8,1.6L29,37.5c-0.1,0.2-0.2,0.4-0.3,0.6l-0.2,0.4
		c-0.1,0.3-0.2,0.6-0.3,0.9l0,0c-0.1,0.2-0.1,0.3-0.2,0.5c-0.1,0.2-0.1,0.3-0.2,0.5c-0.1,0.2-0.1,0.4-0.2,0.6l0,0.1
		c0,0.1-0.1,0.2-0.1,0.3c-0.1,0.3-0.2,0.6-0.2,1c0,0.1,0,0.2-0.1,0.3l0,0.1c0,0.3-0.1,0.5-0.1,0.7l0,0.1c0,0.1,0,0.2,0,0.3
		c-0.1,0.4-0.1,0.7-0.1,1.1l0,0.2c0,0.3-0.1,0.6-0.1,0.9l0,0.1c0,0.1,0,0.2,0,0.2c0,0.1,0,0.2,0,0.3L5.8,47C5.8,39,8,31.1,12,24.2
		 M11.8,23.5c-4.3,7.2-6.5,15.4-6.5,23.7c0,0.1,0,0.2,0,0.3l22.1-0.3c0-0.3,0-0.5,0-0.8c0-0.1,0-0.2,0-0.2l0-0.1
		c0-0.3,0-0.6,0.1-0.9l0-0.2c0-0.4,0.1-0.7,0.1-1c0-0.1,0-0.2,0-0.3l0-0.1c0-0.2,0.1-0.5,0.1-0.7l0-0.1c0-0.1,0-0.2,0.1-0.3
		c0.1-0.3,0.1-0.6,0.2-0.9c0-0.1,0.1-0.2,0.1-0.3l0-0.1c0.1-0.2,0.1-0.4,0.2-0.6c0-0.2,0.1-0.3,0.1-0.5c0.1-0.2,0.1-0.3,0.2-0.5l0,0
		c0.1-0.3,0.2-0.6,0.3-0.8l0.2-0.4c0.1-0.2,0.2-0.4,0.2-0.6l0.1-0.3c0.3-0.6,0.6-1.3,1-1.9c0,0,0,0,0-0.1L11.8,23.5L11.8,23.5z"/>
	<path class="st1" d="M33.7,10.9l9,20.1c0,0-0.1,0-0.1,0l-0.1,0c-0.4,0.2-0.7,0.4-1.1,0.7c-0.3,0.2-0.7,0.5-1,0.7l-0.1,0.1l-0.1,0.1
		l0,0c-0.3,0.2-0.6,0.5-0.8,0.7l-0.1,0c-0.6,0.5-1.2,1.1-1.7,1.7l-0.3,0.3c-0.2,0.2-0.4,0.5-0.6,0.8L18.2,24.4
		C24,16,31,12.2,33.7,10.9 M33.9,10.3c-2.3,1-10.2,4.9-16.5,14.3l19.4,12.3c0.3-0.4,0.6-0.8,0.9-1.1l0.3-0.3
		c0.5-0.6,1.1-1.2,1.7-1.7l0,0c0.3-0.2,0.5-0.5,0.9-0.7l0,0l0.1-0.1c0.3-0.3,0.7-0.5,1-0.7c0.4-0.2,0.7-0.5,1.1-0.6l0.1,0
		c0.2-0.1,0.3-0.2,0.5-0.3L33.9,10.3L33.9,10.3z"/>
</g>
</svg>
