<?xml version="1.0" encoding="utf-8"?>
<!-- Generator: Adobe Illustrator 19.2.1, SVG Export Plug-In . SVG Version: 6.00 Build 0)  -->
<svg version="1.1" id="ORIGINAL" xmlns="http://www.w3.org/2000/svg" xmlns:xlink="http://www.w3.org/1999/xlink" x="0px" y="0px"
	 viewBox="0 0 100 111.6" style="enable-background:new 0 0 100 111.6;" xml:space="preserve">
<style type="text/css">
	.Arched_x0020_Green{fill:url(#SVGID_1_);stroke:#FFFFFF;stroke-width:0.25;stroke-miterlimit:1;}
	.st0{fill:url(#SVGID_2_);}
	.st1{fill:#90C73E;}
</style>
<linearGradient id="SVGID_1_" gradientUnits="userSpaceOnUse" x1="0" y1="288" x2="0.7071" y2="287.2929">
	<stop  offset="0" style="stop-color:#20AC4B"/>
	<stop  offset="0.9831" style="stop-color:#19361A"/>
</linearGradient>
<g>
	<linearGradient id="SVGID_2_" gradientUnits="userSpaceOnUse" x1="9.4233" y1="86.0595" x2="89.5386" y2="18.8348">
		<stop  offset="0" style="stop-color:#50B848"/>
		<stop  offset="0.5" style="stop-color:#90C73E"/>
		<stop  offset="1" style="stop-color:#50B848"/>
	</linearGradient>
	<path class="st0" d="M51.8,110.8c-9.4-0.1-18.4-2.3-26.8-6.3l-0.3-0.2l9.9-19.5l0.3,0.1c0.8,0.4,1.6,0.7,2.3,1
		c0.7,0.3,1.4,0.5,2.1,0.8c0.1,0,0.3,0.1,0.4,0.1c0.5,0.2,1,0.3,1.6,0.5l0.7,0.2c0.3,0.1,0.6,0.2,0.9,0.2c0.4,0.1,0.9,0.2,1.3,0.3
		l0.7,0.1c0.4,0.1,0.8,0.1,1.1,0.2c0.2,0,0.5,0.1,0.7,0.1c0.5,0.1,1,0.1,1.4,0.2c0.2,0,0.4,0,0.6,0.1c0.6,0.1,1.1,0.1,1.7,0.1l0.5,0
		c0.7,0,1.2,0,1.8,0c23.1,0,41.8-18.7,41.8-41.7c0-23-18.7-41.7-41.7-41.7c-0.7,0-1.3,0-2,0.1l-0.2,0c-0.6,0-1.2,0.1-1.9,0.1l-0.3,0
		c-0.5,0.1-1.1,0.1-1.7,0.2l-0.5,0.1c-0.5,0.1-1,0.2-1.5,0.3L44,6.5c-0.4,0.1-0.9,0.2-1.3,0.3c-0.3,0.1-0.6,0.1-0.9,0.2
		c-0.3,0.1-0.6,0.2-1,0.3c-0.4,0.1-0.8,0.2-1.1,0.4l-0.2,0.1c-1.1,0.4-2.1,0.8-3.2,1.2L36.1,9l-1.9-4.4l0.3-0.1
		c5.8-2.5,11.9-3.7,18.3-3.7c25.6,0,46.5,20.8,46.5,46.5c0,25.6-20.8,46.4-46.4,46.5h-0.6l0,17L51.8,110.8z M24.9,97.5
		C16.3,92.9,9.1,86.1,3.8,78l17.7-10.7l0.1,0.1c0.2,0.3,0.3,0.5,0.5,0.8c0.1,0.1,0.2,0.2,0.2,0.3c0.4,0.6,0.8,1.1,1.2,1.6l0.2,0.2
		c0.2,0.2,0.4,0.5,0.6,0.7l0.4,0.4c0.2,0.3,0.5,0.5,0.7,0.8l0.1,0.1c0.5,0.6,1.1,1.1,1.6,1.6l0.1,0.1c0.3,0.3,0.6,0.5,0.9,0.8
		l0.2,0.1c1.8,1.6,3.8,3,6,4.2L24.9,97.5z M52.4,85.3c-4.2,0-8.4-0.7-12.3-2.1l0-3.6c0-2.3,0.1-23.3,0.1-25.8l0-0.4H34v-2.4h12.9
		V40.6h9.6c5,0,8.1,2.5,8.1,6.5c0,4.2-2.4,6.4-7.4,6.7l-0.9,0.1l10.6,9.9c2.6,2.1,3.6,2.8,5.4,2.8c3,0,4.5-1.3,4.5-3.9
		c0-2.5-2.5-3.3-5.1-4.2c-3.4-1.2-6.9-2.4-6.9-7.1c0-3.5,2.9-5.9,7.1-5.9c3.7,0,5.7,2,6.9,3.5l-2.4,1.9c-1.5-1.8-2.7-2.8-4.8-2.8
		c-1.9,0-3.8,1.1-3.8,3.1c0,2.4,2.5,3.4,5.1,4.4c3.4,1.3,6.9,2.6,6.9,7.1c0,3.4-2.5,6.8-8,6.8c-2.8,0-5.3-1.8-9.5-5.6l-0.1-0.1l0,0
		l-10.1-9.8h-1.9v23.4h-3.3V53.5h-3.5l0,27.6l0.3,0.1c2.9,0.8,5.9,1.1,8.9,1.1c19.3,0,35-15.7,35-35c0-19.3-15.7-35-35-35
		c-4.7,0-9.2,0.9-13.6,2.7l-1.3-2.8c4.7-2,9.7-3,14.8-3c21,0,38,17.1,38,38S73.4,85.3,52.4,85.3z M50.2,51.3h5.3
		c3.6,0,5.7-1.5,5.7-4.1c0-1.4-0.6-2.5-1.7-3.3c-0.8-0.5-2.2-0.8-4-0.8h-5.3V51.3z M7.4,72.5c-3.9-6.8-6.2-14.6-6.6-22.5l20.7-0.3
		c0.1,1.2,0.2,2.3,0.4,3.4c0.2,1,0.4,1.9,0.6,2.8l0.1,0.2c0.1,0.3,0.2,0.6,0.3,0.8l0.1,0.2c0.2,0.5,0.3,1,0.5,1.5l0.1,0.4
		c0.1,0.2,0.2,0.5,0.3,0.7L24,60c0.2,0.5,0.4,0.8,0.6,1.2c0.1,0.2,0.2,0.3,0.2,0.5c0,0.1,0.1,0.1,0.1,0.2L7.4,72.5z M6,47.2
		c0-8.1,2.2-16,6.2-23l18.1,11.5c-0.3,0.6-0.6,1.1-0.8,1.7l-0.1,0.3c-0.1,0.2-0.2,0.4-0.2,0.6l-0.2,0.4c-0.1,0.3-0.2,0.6-0.3,0.9
		c-0.1,0.2-0.1,0.4-0.2,0.5l-0.1,0.5c-0.1,0.2-0.1,0.4-0.2,0.6L28,41.6c-0.1,0.3-0.2,0.6-0.2,1l-0.1,0.3c-0.1,0.3-0.1,0.6-0.2,0.8
		L27.5,44c-0.1,0.3-0.1,0.7-0.1,1.1l0,0.2c0,0.3-0.1,0.6-0.1,0.9c0,0,0,0.6,0,0.7L6,47.2z M18.2,24.7c5.9-8.6,13.1-12.4,15.6-13.6
		l9,20.1c-0.1,0-0.1,0.1-0.2,0.1c-0.4,0.2-0.8,0.5-1.1,0.7c-0.3,0.2-0.7,0.5-1,0.7l-0.1,0.1l0,0c-0.3,0.2-0.6,0.5-0.8,0.7
		c-0.6,0.5-1.2,1.1-1.7,1.7l-0.4,0.2v0.3c-0.2,0.2-0.4,0.5-0.6,0.7L18.2,24.7z"/>
	<path class="st1" d="M52.8,1.2c25.4,0,46.1,20.7,46.1,46.1c0,25.4-20.7,46.1-46,46.1h-0.2h-0.8l0,0.8l0,16.3
		c-9.3-0.1-18.3-2.2-26.6-6.3l9.5-18.8c0.8,0.4,1.6,0.7,2.3,1l0.1,0c0.6,0.3,1.3,0.5,2,0.8c0.1,0,0.3,0.1,0.4,0.1
		c0.5,0.2,1,0.3,1.6,0.5c0.2,0.1,0.5,0.1,0.7,0.2c0.3,0.1,0.6,0.2,0.9,0.2c0.5,0.1,0.9,0.2,1.4,0.3c0.2,0,0.4,0.1,0.6,0.1l0.2,0
		c0.4,0.1,0.8,0.1,1.2,0.2c0.3,0,0.5,0.1,0.8,0.1c0.5,0.1,1,0.1,1.4,0.2c0.2,0,0.4,0,0.6,0.1c0.6,0.1,1.1,0.1,1.7,0.1l0.5,0
		c0.7,0,1.2,0,1.8,0l0.1,0c23.2,0,42-18.9,42-42.1C94.8,24.1,76,5.2,52.8,5.2c-0.7,0-1.4,0-2,0.1l-0.2,0c-0.6,0-1.2,0.1-1.9,0.1
		l-0.3,0c-0.5,0.1-1.1,0.1-1.7,0.2l-0.5,0.1c-0.5,0.1-1,0.2-1.5,0.3l-0.2,0l-0.1,0c-0.1,0-0.3,0.1-0.4,0.1c-0.4,0.1-0.9,0.2-1.3,0.3
		c-0.3,0.1-0.6,0.1-0.9,0.2c-0.3,0.1-0.7,0.2-1,0.3c-0.4,0.1-0.8,0.2-1.2,0.4l-0.2,0.1c-1.1,0.4-2.1,0.8-3.2,1.2l-1.6-3.7
		C40.4,2.4,46.5,1.2,52.8,1.2 M52.4,9.6c20.8,0,37.6,16.9,37.6,37.6c0,20.8-16.9,37.6-37.6,37.6c-4.1,0-8.1-0.7-11.9-1.9l0-3l0-0.3
		c0-2,0.1-18.7,0.1-24.2l0-1.5l0-0.8h-0.8h-5.5v-1.7h12.1h0.8v-0.8v-9.8h9.2c4.8,0,7.7,2.3,7.7,6.1c0,3.9-2.3,6-7.1,6.4l-1.7,0.1
		l1.3,1.2l10,9.3c2.6,2.2,3.7,2.9,5.6,2.9c4,0,4.9-2.3,4.9-4.3c0-2.7-2.7-3.7-5.3-4.6c-3.3-1.2-6.7-2.3-6.7-6.7
		c0-3.3,2.8-5.6,6.8-5.6c3.3,0,5.2,1.6,6.4,3l-1.8,1.4c-1.4-1.7-2.7-2.7-4.8-2.7c-2.1,0-4.1,1.2-4.1,3.5c0,2.7,2.6,3.7,5.3,4.7
		c3.3,1.2,6.7,2.5,6.7,6.8c0,4.5-3.8,6.5-7.6,6.5c-2.7,0-5.2-1.8-9.3-5.5l-0.2-0.2h0l-9.9-9.6l-0.2-0.2h-0.3h-1.4h-0.8v0.8v22.7
		h-2.6v-23v-0.8h-0.8h-2.8h-0.7l0,0.7l0,26.9l0,0.6l0.6,0.1c2.9,0.8,5.9,1.2,9,1.2c19.5,0,35.4-15.9,35.4-35.4
		C87.8,27.8,71.9,12,52.4,12c-4.6,0-9.1,0.9-13.4,2.6l-0.9-2.1C42.7,10.6,47.5,9.6,52.4,9.6 M49.8,51.7h0.8h4.9
		c3.9,0,6.1-1.6,6.1-4.5c0-1.6-0.6-2.8-1.9-3.6c-1.1-0.7-2.9-0.8-4.2-0.8h-4.9h-0.8v0.8v7.4V51.7 M33.7,11.6l8.7,19.5
		c-0.3,0.2-0.7,0.4-1,0.6c-0.3,0.2-0.7,0.5-1,0.7l-0.1,0.1l-0.1,0.1l0,0c-0.3,0.2-0.5,0.4-0.8,0.6l-0.1,0c-0.6,0.5-1.1,1.1-1.6,1.6
		l-0.1,0.1L37,35.3v0.4c-0.1,0.1-0.2,0.2-0.3,0.4l-18-11.4C24.3,16.7,30.9,12.9,33.7,11.6 M12.4,24.8l17.5,11.1
		c-0.2,0.5-0.5,0.9-0.7,1.4L29,37.6c-0.1,0.2-0.2,0.4-0.3,0.6l-0.2,0.4c-0.1,0.3-0.2,0.6-0.3,0.9l0,0c-0.1,0.2-0.1,0.3-0.2,0.5
		c-0.1,0.2-0.1,0.3-0.2,0.5c-0.1,0.2-0.1,0.4-0.2,0.6l0,0.1c0,0.1-0.1,0.2-0.1,0.3c-0.1,0.3-0.2,0.6-0.2,1c0,0.1,0,0.2-0.1,0.3
		l0,0.1c0,0.3-0.1,0.5-0.1,0.7l0,0.1c0,0.1,0,0.2,0,0.3C27.1,44.3,27,44.6,27,45l0,0.2c0,0.3-0.1,0.6-0.1,0.9l0,0.1
		c0,0.1,0,0.2,0,0.2c0,0,0,0,0,0.1L6.4,46.8C6.5,39.1,8.5,31.5,12.4,24.8 M21.1,50.1c0.1,1,0.2,2.1,0.4,3.1l0,0.1
		c0.2,0.9,0.4,1.8,0.6,2.7l0.1,0.2c0.1,0.3,0.2,0.6,0.3,0.8l0,0.1c0.2,0.5,0.3,1,0.5,1.5l0.2,0.4c0.1,0.2,0.2,0.5,0.3,0.7
		c0,0.1,0.1,0.2,0.1,0.3l0,0.1c0.2,0.4,0.4,0.8,0.5,1.2c0.1,0.1,0.1,0.2,0.2,0.4L7.6,72c-3.7-6.6-5.9-14-6.4-21.6L21.1,50.1
		 M21.4,67.7c0.1,0.2,0.3,0.4,0.4,0.6c0.1,0.1,0.2,0.2,0.3,0.4l0,0.1c0.4,0.5,0.8,1.1,1.2,1.6l0.2,0.2c0.2,0.2,0.4,0.5,0.6,0.7
		l0.4,0.4c0.2,0.3,0.5,0.5,0.7,0.8l0.1,0.1c0.5,0.6,1.1,1.1,1.7,1.7l0.1,0.1c0.3,0.3,0.6,0.5,0.9,0.8l0.2,0.1
		c1.8,1.5,3.7,2.9,5.7,4.1l-9,17.7C16.5,92.5,9.5,86,4.4,78.1L21.4,67.7 M52.8,0.4c-6.4,0-12.6,1.3-18.4,3.8l-0.7,0.3l2.2,5.1
		l0.7-0.3c1-0.4,2.1-0.8,3.1-1.2L39.9,8c0.4-0.1,0.8-0.2,1.1-0.4c0.3-0.1,0.6-0.2,1-0.3c0.3-0.1,0.6-0.1,0.9-0.2
		c0.4-0.1,0.8-0.2,1.3-0.3c0.2,0,0.3-0.1,0.5-0.1l0.2,0c0.5-0.1,1-0.2,1.5-0.3l0.5-0.1c0.6-0.1,1.1-0.2,1.6-0.2l0.3,0
		C49.4,6.1,50,6,50.6,6l0.2,0c0.7,0,1.4-0.1,2-0.1c22.8,0,41.3,18.5,41.3,41.3c0,22.8-18.5,41.3-41.3,41.3l-0.1,0
		c-0.6,0-1.1,0-1.8,0l-0.5,0c-0.6,0-1.1-0.1-1.7-0.1c-0.2,0-0.4,0-0.6-0.1c-0.5-0.1-0.9-0.1-1.4-0.2c-0.2,0-0.5-0.1-0.7-0.1
		c-0.4-0.1-0.8-0.1-1.1-0.2l-0.2,0c-0.2,0-0.4-0.1-0.6-0.1c-0.4-0.1-0.9-0.2-1.3-0.3c-0.3-0.1-0.6-0.1-0.9-0.2
		c-0.2-0.1-0.4-0.1-0.7-0.2c-0.6-0.2-1.1-0.3-1.6-0.5c-0.1,0-0.3-0.1-0.4-0.1c-0.7-0.2-1.3-0.5-2-0.7l-0.1,0c-0.7-0.3-1.5-0.6-2.3-1
		l-0.6-0.3l-10.2,20.2l0.7,0.3c8.4,4.1,17.5,6.3,27,6.4l0.7,0l0-17h0.2c25.8,0,46.8-21,46.8-46.9C99.6,21.4,78.6,0.4,52.8,0.4
		L52.8,0.4z M52.4,8.9c-5.2,0-10.3,1-15.1,3.1l-0.2,0.1l1.6,3.5l0.2-0.1c4.3-1.8,8.9-2.8,13.5-2.8C71.5,12.7,87,28.2,87,47.3
		c0,19.1-15.5,34.6-34.6,34.6c-2.9,0-5.9-0.4-8.8-1.1l0-26.9h2.8v23.8h4.1V54.2h1.4L62,63.9l0.1,0.1h0c4.3,3.9,6.8,5.7,9.8,5.7
		c5.8,0,8.4-3.6,8.4-7.2c0-4.8-3.8-6.2-7.1-7.5c-2.6-1-4.8-1.8-4.8-4c0-1.8,1.7-2.8,3.4-2.8c2,0,3.1,0.9,4.6,2.8l0.2,0.2l2.9-2.3
		l-0.1-0.2c-1.2-1.6-3.3-3.7-7.3-3.7c-4.4,0-7.5,2.6-7.5,6.3c0,4.9,3.8,6.2,7.2,7.4c2.6,0.9,4.8,1.7,4.8,3.9c0,2.4-1.3,3.5-4.1,3.5
		c-1.7,0-2.5-0.6-5.1-2.7l-10-9.3c5.1-0.4,7.8-2.8,7.8-7.1c0-4.2-3.2-6.9-8.4-6.9h-10v10.5H33.6v3.2h6.2c0,2.5-0.1,23.5-0.1,25.8h0
		l0,3.7l0,0.2l0.2,0.1c4,1.4,8.2,2.1,12.5,2.1c21.2,0,38.4-17.2,38.4-38.4S73.6,8.9,52.4,8.9L52.4,8.9z M50.6,50.9v-7.4h4.9
		c1.7,0,3,0.3,3.8,0.7c1,0.7,1.6,1.7,1.6,3c0,2.4-1.9,3.7-5.3,3.7H50.6L50.6,50.9z M34.1,10.6c-2.2,1-10.1,4.8-16.3,14.2L36.9,37
		c0.3-0.4,0.6-0.8,0.8-1.1v-0.2l0.3-0.1c0.5-0.6,1.1-1.2,1.7-1.7l0,0c0.3-0.2,0.5-0.5,0.8-0.7l0,0l0.1-0.1c0.3-0.3,0.7-0.5,1-0.7
		c0.4-0.2,0.7-0.4,1.1-0.6l0.1,0c0.2-0.1,0.3-0.2,0.5-0.3L34.1,10.6L34.1,10.6z M12.1,23.7C7.9,30.8,5.6,39,5.6,47.3
		c0,0.1,0,0.2,0,0.3l22-0.3c0-0.3,0-0.5,0-0.8c0-0.1,0-0.2,0-0.2l0-0.1c0-0.3,0-0.6,0.1-0.9l0-0.2c0-0.4,0.1-0.7,0.1-1
		c0-0.1,0-0.2,0-0.3l0-0.1c0-0.2,0.1-0.5,0.1-0.7l0-0.1c0-0.1,0-0.2,0.1-0.3c0.1-0.3,0.1-0.6,0.2-0.9c0-0.1,0.1-0.2,0.1-0.3l0-0.1
		c0.1-0.2,0.1-0.4,0.2-0.6c0-0.2,0.1-0.3,0.1-0.5c0.1-0.2,0.1-0.3,0.2-0.5l0,0c0.1-0.3,0.2-0.6,0.3-0.8l0.2-0.4
		c0.1-0.2,0.2-0.4,0.2-0.6l0.1-0.3c0.3-0.6,0.6-1.3,1-1.9c0,0,0,0,0-0.1L12.1,23.7L12.1,23.7z M21.8,49.4L0.4,49.7
		C0.8,57.9,3.2,66,7.3,73.1l18.2-11c-0.1-0.2-0.2-0.3-0.3-0.5c-0.1-0.1-0.2-0.3-0.2-0.5c-0.2-0.4-0.4-0.7-0.5-1.1l0-0.1
		c0-0.1-0.1-0.2-0.1-0.3c-0.1-0.2-0.2-0.5-0.3-0.7l-0.1-0.4c-0.2-0.5-0.4-1-0.5-1.5l-0.1-0.2c-0.1-0.3-0.2-0.5-0.3-0.8l-0.1-0.2
		c-0.3-0.9-0.5-1.8-0.6-2.7l0-0.1C22,51.9,21.9,50.6,21.8,49.4L21.8,49.4z M21.6,66.7L3.3,77.8C8.7,86.4,16.2,93.3,25,98l9.6-19
		c-2.2-1.2-4.3-2.7-6.2-4.3l-0.2-0.1c-0.3-0.2-0.6-0.5-0.8-0.8l-0.1-0.1c-0.6-0.5-1.1-1.1-1.6-1.6l-0.1-0.1
		c-0.2-0.2-0.5-0.5-0.7-0.8l-0.4-0.4c-0.2-0.2-0.4-0.4-0.6-0.7l-0.2-0.2c-0.4-0.5-0.8-1-1.2-1.5l0-0.1c-0.1-0.1-0.2-0.2-0.2-0.3
		c-0.2-0.2-0.3-0.5-0.5-0.8L21.6,66.7L21.6,66.7z"/>
</g>
</svg>
